# Normalized convex hull collision mesh - generated by scripts/generate-collision-meshes.mjs (units: meters)
v 0.014235 0.014305 0.175000
v -0.003909 0.015000 0.175000
v 0.012726 -0.008349 0.175000
v -0.003909 -0.008349 0.175000
v 0.014235 0.014305 -0.175000
v 0.012726 -0.008349 -0.175000
v -0.003909 0.015000 -0.175000
v 0.015000 0.013620 -0.128333
v -0.003909 -0.008349 -0.175000
v 0.008179 -0.011611 -0.093333
v 0.008179 0.015000 -0.058333
v -0.006682 0.012740 0.175000
v -0.015000 0.013870 0.058333
v -0.011673 0.015000 -0.058333
v -0.006682 0.015000 -0.175000
v -0.012413 0.014972 -0.058333
v -0.012413 0.014972 0.058333
v 0.012726 0.015000 -0.175000
v 0.014235 0.014740 -0.128333
v 0.014235 0.014740 0.128333
v 0.015000 0.013866 0.143848
v 0.015000 0.014121 -0.128333
v 0.015000 0.013840 -0.143737
v 0.000416 -0.015000 -0.058333
v 0.003017 -0.014575 -0.058333
v 0.008179 0.015000 0.154000
v 0.000416 -0.015000 0.058333
v 0.001156 -0.014972 0.058333
v -0.002828 -0.014122 -0.058333
v -0.002828 -0.014122 0.058333
v -0.014917 0.013619 -0.058333
v -0.014917 0.013619 0.058333
v -0.007181 0.013806 0.168973
v -0.006682 0.012740 -0.175000
v -0.011673 0.015000 0.058333
v -0.014274 0.014575 0.058333
v -0.014671 0.014360 -0.058333
v -0.014671 0.014360 0.058333
v -0.014917 0.014122 0.058333
v 0.014864 0.014247 -0.128333
v 0.014864 0.014236 -0.133917
v 0.015000 0.013621 0.129941
v 0.015000 0.014118 0.130465
v 0.014864 0.013864 0.151663
v 0.015000 0.013683 -0.138623
v 0.014864 0.013825 -0.151497
v 0.001156 -0.014972 -0.058333
v 0.001860 -0.014888 -0.058333
v 0.002490 -0.014754 -0.058333
v 0.008179 -0.011611 0.093333
v 0.012726 0.015000 0.175000
v -0.013747 0.014754 -0.058333
v -0.013747 0.014754 0.058333
v -0.015000 0.013870 -0.058333
v -0.006682 0.015000 0.175000
v 0.015000 0.013701 0.139771
v 0.015000 0.014119 0.126725
v 0.014864 0.014176 0.141913
v 0.014235 0.013435 0.175000
v 0.014864 0.013954 0.151080
v 0.015000 0.013900 -0.143737
v 0.015000 0.014058 -0.138623
v 0.015000 0.013627 -0.132047
v 0.015000 0.013781 -0.142842
v 0.014235 0.013435 -0.175000
v 0.003017 -0.014575 0.058333
v 0.003414 -0.014360 -0.058333
v -0.001028 -0.014888 0.058333
v -0.001659 -0.014754 0.058333
v -0.002582 -0.014360 0.058333
v -0.014274 0.014575 -0.058333
v -0.013116 0.014888 -0.058333
v -0.014917 0.014122 -0.058333
v -0.007181 0.013738 -0.168342
v -0.013116 0.014888 0.058333
v 0.015000 0.013662 0.136929
v 0.015000 0.013806 0.143334
v 0.014864 0.014245 0.125915
v 0.015000 0.014103 0.134082
v 0.015000 0.013926 0.143460
v 0.014864 0.013916 -0.151497
v 0.015000 0.014113 -0.132047
v 0.015000 0.013959 -0.142842
v 0.014864 0.014204 -0.139177
v 0.015000 0.013648 -0.135544
v 0.015000 0.013728 -0.141103
v 0.001860 -0.014888 0.058333
v 0.003414 -0.014360 0.058333
v -0.000324 -0.014972 0.058333
v -0.000324 -0.014972 -0.058333
v -0.001659 -0.014754 -0.058333
v -0.002185 -0.014575 -0.058333
v -0.002185 -0.014575 0.058333
v -0.002582 -0.014360 -0.058333
v -0.007181 0.014002 -0.168342
v 0.015000 0.013635 0.133588
v 0.015000 0.013750 0.141948
v 0.014864 0.014243 0.131539
v 0.015000 0.014033 0.140121
v 0.014864 0.014004 -0.150150
v 0.014864 0.014084 -0.147536
v 0.015000 0.014012 -0.141103
v 0.014864 0.014152 -0.143806
v 0.015000 0.014092 -0.135544
v 0.002490 -0.014754 0.058333
v -0.001028 -0.014888 -0.058333
v 0.014864 0.014220 0.136977
v 0.015000 0.014074 0.137364
v 0.014864 0.014115 0.146059
v 0.014864 0.014040 0.149175
v 0.015000 0.013983 0.142193
f 1 2 3
f 4 3 2
f 5 6 7
f 8 3 6
f 9 7 6
f 10 6 3
f 11 7 2
f 12 13 4
f 12 4 2
f 14 2 7
f 15 16 14
f 15 14 7
f 15 7 9
f 17 14 16
f 18 19 5
f 18 5 7
f 18 7 11
f 18 20 19
f 21 8 22
f 23 22 8
f 24 9 6
f 25 6 10
f 26 18 11
f 26 11 2
f 27 24 28
f 27 28 3
f 27 3 4
f 29 30 31
f 29 31 9
f 32 13 31
f 32 31 30
f 32 30 4
f 32 4 13
f 33 13 12
f 34 15 9
f 35 14 17
f 35 2 14
f 36 37 38
f 39 38 37
f 40 41 19
f 40 19 20
f 42 8 21
f 42 3 8
f 43 21 22
f 44 3 21
f 45 23 8
f 46 23 6
f 47 28 24
f 47 24 6
f 47 6 48
f 47 48 28
f 49 48 6
f 49 6 25
f 50 10 3
f 51 1 20
f 51 20 18
f 51 18 26
f 51 26 2
f 51 2 1
f 52 36 53
f 54 31 13
f 54 13 39
f 54 34 9
f 54 9 31
f 55 2 35
f 55 35 17
f 55 53 36
f 55 36 38
f 55 38 39
f 55 39 13
f 55 13 33
f 55 33 12
f 55 12 2
f 56 42 21
f 57 43 22
f 57 22 40
f 58 20 1
f 59 3 44
f 59 44 1
f 59 1 3
f 60 1 44
f 61 23 46
f 61 22 23
f 62 22 61
f 63 45 8
f 63 8 6
f 64 23 45
f 64 6 23
f 65 5 46
f 65 46 6
f 65 6 5
f 66 49 25
f 66 50 3
f 67 10 50
f 67 66 25
f 67 25 10
f 68 4 69
f 70 30 29
f 70 4 30
f 71 37 36
f 71 36 52
f 71 52 15
f 71 15 37
f 72 16 15
f 72 15 52
f 72 52 53
f 72 17 16
f 73 37 15
f 73 15 54
f 73 54 39
f 73 39 37
f 74 34 54
f 74 15 34
f 75 53 55
f 75 55 17
f 75 17 72
f 75 72 53
f 76 42 56
f 76 56 3
f 77 56 21
f 77 21 3
f 78 57 40
f 78 40 20
f 79 21 43
f 80 21 79
f 80 60 44
f 80 44 21
f 81 61 46
f 81 46 5
f 82 22 62
f 82 41 40
f 82 40 22
f 83 62 61
f 84 41 82
f 84 5 19
f 84 19 41
f 85 45 63
f 85 63 6
f 85 6 45
f 86 6 64
f 86 64 45
f 86 45 6
f 87 48 49
f 87 3 28
f 87 28 48
f 88 66 67
f 88 67 50
f 88 50 66
f 89 4 68
f 89 24 27
f 89 27 4
f 90 24 89
f 90 89 68
f 90 9 24
f 91 92 9
f 91 68 69
f 91 69 92
f 93 69 4
f 93 4 70
f 93 70 92
f 93 92 69
f 94 92 70
f 94 70 29
f 94 29 9
f 94 9 92
f 95 15 74
f 95 74 54
f 95 54 15
f 96 42 76
f 96 76 3
f 96 3 42
f 97 56 77
f 97 77 3
f 97 3 56
f 98 79 43
f 98 43 57
f 98 57 78
f 98 78 20
f 99 80 79
f 100 101 83
f 100 83 61
f 100 61 81
f 100 81 5
f 100 5 101
f 102 62 83
f 102 83 101
f 102 101 62
f 103 101 5
f 103 5 84
f 103 84 62
f 103 62 101
f 104 62 84
f 104 84 82
f 104 82 62
f 105 66 3
f 105 3 87
f 105 87 49
f 105 49 66
f 106 90 68
f 106 68 91
f 106 91 9
f 106 9 90
f 107 58 79
f 107 79 98
f 107 98 20
f 107 20 58
f 108 58 99
f 108 99 79
f 108 79 58
f 109 99 58
f 109 58 1
f 110 60 80
f 110 99 109
f 110 109 1
f 110 1 60
f 111 99 110
f 111 110 80
f 111 80 99
