# Normalized convex hull collision mesh - generated by scripts/generate-collision-meshes.mjs (units: meters)
v 0.016000 -0.006786 -0.012728
v 0.016000 0.004993 -0.006384
v 0.016000 -0.006786 0.009204
v 0.016000 0.004414 0.011632
v -0.014486 0.008000 -0.010692
v -0.011527 0.008000 0.011632
v 0.014486 0.008000 -0.015000
v 0.011527 -0.008000 0.011632
v -0.014486 -0.008000 -0.012728
v 0.011527 -0.008000 -0.015000
v -0.016000 0.004414 -0.015000
v -0.016000 -0.000138 0.011632
v -0.016000 0.006786 -0.010692
v -0.016000 0.006786 0.009204
v 0.016000 0.006786 -0.012728
v 0.014486 -0.008000 -0.012728
v 0.016000 -0.004414 -0.015000
v 0.016000 -0.004414 0.011632
v -0.001892 0.008000 -0.015000
v -0.014486 0.008000 -0.012728
v -0.011527 -0.008000 -0.015000
v -0.016000 -0.006786 -0.012728
v -0.014486 0.008000 0.009204
v 0.011527 0.008000 0.011632
v -0.014486 -0.008000 0.007167
v 0.014486 -0.008000 0.009204
v 0.016000 0.006786 -0.015000
v 0.016000 0.006786 0.009204
v -0.016000 0.006786 -0.012728
v -0.011527 0.008000 -0.015000
v -0.016000 -0.004414 0.011632
v -0.016000 -0.004414 -0.015000
v -0.010925 -0.000996 0.015000
v -0.007918 -0.002196 0.015000
v -0.010925 0.000996 0.015000
v -0.016000 0.004414 0.011632
v -0.007918 0.002196 0.015000
v -0.005655 -0.000206 0.015000
v -0.006552 -0.001651 0.015000
v 0.014486 0.008000 0.009204
v -0.016000 -0.006786 0.009204
v -0.009437 -0.002084 0.015000
v -0.007576 -0.005641 0.013433
v -0.008430 -0.005683 0.013433
v -0.009437 0.002084 0.015000
v -0.008430 0.005683 0.013433
v -0.006206 0.001347 0.015000
v -0.007423 -0.002084 0.015000
v -0.005935 -0.000996 0.015000
v -0.011527 -0.008000 0.011632
v -0.015516 0.000138 0.013433
v -0.010654 -0.001347 0.015000
v -0.010101 -0.005523 0.013433
v -0.010906 -0.005325 0.013433
v -0.013674 0.003824 0.013433
v -0.013071 0.004296 0.013433
v -0.009897 0.001900 0.015000
v -0.011677 0.005051 0.013433
v -0.007576 0.005641 0.013433
v -0.008430 0.002234 0.015000
v -0.006552 0.001651 0.015000
v -0.005749 0.000611 0.015000
v -0.006963 -0.001900 0.015000
v -0.005749 -0.000611 0.015000
v -0.006206 -0.001347 0.015000
v -0.014486 -0.008000 0.009204
v -0.011205 0.000206 0.015000
v -0.008942 -0.002196 0.015000
v -0.014203 0.003298 0.013433
v -0.014650 0.002725 0.013433
v -0.012402 0.004707 0.013433
v -0.010308 0.001651 0.015000
v -0.010906 0.005325 0.013433
v -0.010101 0.005523 0.013433
v -0.009271 0.005643 0.013433
v -0.007423 0.002084 0.015000
v -0.005655 0.000206 0.015000
v -0.005935 0.000996 0.015000
v -0.011677 -0.005051 0.013433
v -0.012402 -0.004707 0.013433
v -0.010308 -0.001651 0.015000
v -0.013674 -0.003824 0.013433
v -0.015010 0.002114 0.013433
v -0.015276 0.001473 0.013433
v -0.015446 0.000811 0.013433
v -0.011111 0.000611 0.015000
v -0.011205 -0.000206 0.015000
v -0.008430 -0.002234 0.015000
v -0.009271 -0.005643 0.013433
v -0.010654 0.001347 0.015000
v -0.008942 0.002196 0.015000
v -0.006963 0.001900 0.015000
v -0.009897 -0.001900 0.015000
v -0.014650 -0.002725 0.013433
v -0.013071 -0.004296 0.013433
v -0.014203 -0.003298 0.013433
v -0.011111 -0.000611 0.015000
v -0.015446 -0.000811 0.013433
v -0.015276 -0.001473 0.013433
v -0.015010 -0.002114 0.013433
v -0.015516 -0.000138 0.013433
f 1 2 3
f 4 3 2
f 5 6 7
f 8 9 10
f 11 7 10
f 11 12 13
f 14 13 12
f 14 5 13
f 15 2 1
f 15 4 2
f 16 10 1
f 16 1 3
f 16 8 10
f 17 15 1
f 17 1 10
f 17 10 7
f 18 8 3
f 18 3 4
f 19 7 11
f 19 5 7
f 20 5 19
f 20 13 5
f 21 11 10
f 21 10 9
f 22 12 11
f 22 21 9
f 23 5 14
f 23 14 6
f 23 6 5
f 24 7 6
f 25 22 9
f 25 9 8
f 26 8 16
f 26 16 3
f 26 3 8
f 27 15 17
f 27 17 7
f 27 7 15
f 28 15 7
f 28 24 4
f 28 4 15
f 29 13 20
f 29 11 13
f 30 11 29
f 30 29 20
f 30 20 19
f 30 19 11
f 31 12 22
f 32 21 22
f 32 22 11
f 32 11 21
f 33 34 35
f 36 6 14
f 36 14 12
f 37 35 34
f 38 37 34
f 38 18 4
f 39 38 34
f 39 8 18
f 40 7 24
f 40 24 28
f 40 28 7
f 41 31 22
f 41 22 25
f 42 34 33
f 43 44 8
f 43 8 34
f 45 35 37
f 46 24 6
f 47 37 38
f 48 39 34
f 48 34 8
f 49 38 39
f 50 31 41
f 50 25 8
f 50 8 44
f 51 36 12
f 51 12 31
f 52 42 33
f 53 42 54
f 53 54 50
f 55 56 6
f 55 6 36
f 57 35 45
f 57 45 58
f 59 24 46
f 59 37 24
f 60 37 59
f 60 59 46
f 60 45 37
f 61 37 47
f 61 47 4
f 61 4 24
f 62 47 38
f 63 39 48
f 63 48 8
f 63 8 39
f 64 38 49
f 64 49 18
f 64 18 38
f 65 18 49
f 65 49 39
f 65 39 18
f 66 25 50
f 66 50 41
f 66 41 25
f 67 33 35
f 68 42 53
f 68 34 42
f 69 55 36
f 69 36 70
f 71 57 58
f 71 58 6
f 71 6 56
f 72 35 57
f 72 57 71
f 72 71 56
f 72 56 55
f 73 58 45
f 73 45 74
f 73 74 6
f 73 6 58
f 75 60 46
f 75 46 6
f 75 6 74
f 76 37 61
f 76 24 37
f 77 4 62
f 77 62 38
f 77 38 4
f 78 47 62
f 78 62 4
f 78 4 47
f 79 54 42
f 79 80 50
f 79 50 54
f 81 42 52
f 82 81 52
f 82 31 50
f 83 36 84
f 83 35 70
f 83 70 36
f 85 51 67
f 85 84 36
f 85 36 51
f 86 84 85
f 86 85 67
f 86 67 35
f 86 35 83
f 86 83 84
f 87 33 67
f 87 67 51
f 88 34 68
f 88 44 43
f 88 43 34
f 89 44 88
f 89 88 68
f 89 68 53
f 89 53 50
f 89 50 44
f 90 69 70
f 90 70 35
f 90 35 72
f 90 72 55
f 90 55 69
f 91 60 75
f 91 75 74
f 91 74 45
f 91 45 60
f 92 24 76
f 92 76 61
f 92 61 24
f 93 80 79
f 93 79 42
f 93 42 81
f 93 81 80
f 94 52 33
f 95 80 81
f 95 81 82
f 95 82 50
f 95 50 80
f 96 82 52
f 96 52 94
f 96 94 31
f 96 31 82
f 97 33 87
f 98 31 99
f 98 99 97
f 98 97 87
f 100 94 33
f 100 33 97
f 100 97 99
f 100 99 31
f 100 31 94
f 101 31 98
f 101 98 87
f 101 87 51
f 101 51 31
