# Normalized convex hull collision mesh - generated by scripts/generate-collision-meshes.mjs (units: meters)
v -0.011500 0.005523 0.008897
v -0.011500 -0.005523 -0.012304
v -0.011500 -0.005523 0.008897
v 0.011500 0.005523 -0.012304
v 0.011500 -0.005523 0.008897
v 0.011500 -0.005523 -0.014500
v -0.009121 -0.004395 -0.014500
v -0.007639 0.004375 -0.014500
v -0.011500 0.004395 -0.014500
v 0.011500 0.004395 -0.014500
v 0.009755 -0.006100 -0.014500
v 0.006345 -0.006100 0.011244
v 0.007178 -0.006100 -0.006171
v -0.009755 -0.006100 -0.010336
v 0.011500 -0.004395 0.011244
v -0.011500 -0.004395 -0.014500
v -0.011500 -0.004395 0.011244
v 0.009755 -0.006100 0.008897
v -0.006345 -0.006100 -0.014500
v 0.002374 0.002498 0.014500
v 0.011500 0.005523 0.008897
v 0.009755 0.006100 0.008897
v -0.009755 -0.006100 0.008897
v 0.009755 0.006100 -0.010336
v -0.009755 0.006100 -0.012304
v 0.006345 0.006100 -0.014500
v -0.011500 0.005523 -0.012304
v -0.002374 0.003930 0.014500
v 0.002181 0.003214 0.014500
v -0.011500 0.004395 0.011244
v -0.008169 0.003214 0.012986
v -0.009755 0.006100 0.008897
v -0.009755 -0.006100 -0.012304
v 0.003212 0.003214 0.014500
v -0.006345 -0.006100 0.011244
v -0.006345 0.006100 -0.014500
v 0.009755 0.006100 -0.012304
v -0.003157 0.003019 0.014500
v 0.000198 0.006100 0.011244
v 0.000296 0.004272 0.014500
v 0.006345 0.006100 0.011244
v 0.011500 0.004395 0.011244
v 0.002995 0.002830 0.014500
v 0.000296 0.002156 0.014500
v -0.002374 0.002498 0.014500
v -0.008109 0.002888 0.012986
v -0.006345 0.006100 0.011244
v 0.001936 0.004062 0.014500
v -0.001432 0.004165 0.014500
v 0.007654 0.004158 0.012986
v 0.007261 0.004452 0.012986
v 0.003157 0.003019 0.014500
v 0.008109 0.002888 0.012986
v 0.002731 0.002655 0.014500
v 0.008169 0.003214 0.012986
v 0.008111 0.003535 0.012986
v 0.001432 0.002263 0.014500
v -0.002995 0.002830 0.014500
v -0.000879 0.002192 0.014500
v -0.003039 0.005722 0.012986
v -0.002117 0.005824 0.012986
v -0.003917 0.005585 0.012986
v -0.007654 0.004158 0.012986
v -0.007261 0.004452 0.012986
v -0.007939 0.003851 0.012986
v -0.003157 0.003409 0.014500
v -0.005496 0.005213 0.012986
v -0.006175 0.004983 0.012986
v -0.006766 0.004728 0.012986
v 0.002995 0.003598 0.014500
v -0.000296 0.004272 0.014500
v 0.007939 0.003851 0.012986
v 0.001936 0.002366 0.014500
v 0.000879 0.002192 0.014500
v -0.002731 0.002655 0.014500
v -0.000296 0.002156 0.014500
v -0.001936 0.002366 0.014500
v -0.002995 0.003598 0.014500
v -0.003212 0.003214 0.014500
v -0.008111 0.003535 0.012986
v -0.001936 0.004062 0.014500
v 0.005496 0.005213 0.012986
v 0.006175 0.004983 0.012986
v 0.004740 0.005415 0.012986
v 0.002731 0.003773 0.014500
v -0.000879 0.004236 0.014500
v -0.001166 0.005889 0.012986
v 0.000198 0.005916 0.012986
v 0.001166 0.005889 0.012986
v 0.000879 0.004236 0.014500
v 0.003917 0.005585 0.012986
v 0.003039 0.005722 0.012986
v 0.002117 0.005824 0.012986
v 0.003157 0.003409 0.014500
v -0.001432 0.002263 0.014500
v -0.002731 0.003773 0.014500
v -0.004740 0.005415 0.012986
v 0.002374 0.003930 0.014500
v 0.006766 0.004728 0.012986
v -0.000198 0.005916 0.012986
v 0.001432 0.004165 0.014500
f 1 2 3
f 4 5 6
f 7 8 6
f 9 2 1
f 9 8 7
f 10 8 9
f 10 4 6
f 10 6 8
f 11 12 13
f 11 7 6
f 11 6 5
f 14 11 13
f 14 13 12
f 14 3 2
f 15 5 4
f 16 2 9
f 16 9 7
f 16 7 11
f 17 1 3
f 18 12 11
f 18 11 5
f 18 5 15
f 18 15 12
f 19 11 14
f 19 16 11
f 20 12 15
f 21 15 4
f 21 4 22
f 23 14 12
f 23 17 3
f 23 3 14
f 24 25 22
f 24 22 4
f 26 10 9
f 26 25 24
f 27 1 25
f 27 25 9
f 27 9 1
f 28 20 29
f 30 1 17
f 30 17 31
f 32 25 1
f 32 1 30
f 32 22 25
f 33 2 16
f 33 16 19
f 33 19 14
f 33 14 2
f 34 28 29
f 34 29 20
f 35 17 23
f 35 23 12
f 36 25 26
f 36 26 9
f 36 9 25
f 37 4 10
f 37 10 26
f 37 26 24
f 37 24 4
f 38 20 28
f 39 22 32
f 40 28 34
f 41 22 39
f 42 21 22
f 42 22 41
f 42 15 21
f 43 34 20
f 44 20 38
f 44 35 12
f 45 44 38
f 45 17 35
f 46 17 38
f 46 31 17
f 47 32 30
f 47 39 32
f 48 40 34
f 49 28 40
f 50 42 51
f 52 34 43
f 52 43 15
f 52 15 53
f 52 53 34
f 54 15 43
f 54 43 20
f 54 20 15
f 55 34 53
f 55 53 15
f 55 15 42
f 55 42 56
f 55 56 34
f 57 20 44
f 58 45 38
f 58 38 17
f 59 44 45
f 60 61 47
f 60 47 62
f 60 62 49
f 63 64 30
f 63 30 65
f 66 38 28
f 67 47 30
f 67 30 68
f 67 68 28
f 69 28 68
f 69 68 30
f 69 30 64
f 70 48 34
f 70 50 51
f 71 49 40
f 72 42 50
f 72 50 70
f 72 56 42
f 73 20 57
f 73 57 12
f 73 12 20
f 74 12 57
f 74 57 44
f 74 44 12
f 75 45 58
f 75 58 17
f 75 17 45
f 76 44 59
f 76 59 35
f 76 35 44
f 77 59 45
f 77 45 35
f 78 64 63
f 78 63 65
f 78 65 66
f 78 66 28
f 79 38 66
f 79 31 46
f 79 46 38
f 80 31 79
f 80 79 66
f 80 66 65
f 80 65 30
f 80 30 31
f 81 49 62
f 81 67 28
f 81 28 49
f 82 83 42
f 82 42 41
f 82 41 84
f 82 84 48
f 85 70 51
f 85 48 70
f 86 49 71
f 86 61 60
f 86 60 49
f 87 61 86
f 87 86 71
f 87 47 61
f 88 89 41
f 88 41 39
f 88 39 47
f 88 71 40
f 88 40 89
f 90 40 48
f 90 89 40
f 91 84 41
f 91 41 92
f 91 48 84
f 93 89 90
f 93 90 92
f 93 92 41
f 93 41 89
f 94 34 56
f 94 56 72
f 94 72 70
f 94 70 34
f 95 59 77
f 95 77 35
f 95 35 59
f 96 69 64
f 96 64 78
f 96 78 28
f 96 28 69
f 97 67 81
f 97 81 62
f 97 62 47
f 97 47 67
f 98 48 85
f 98 83 82
f 98 82 48
f 99 83 98
f 99 98 85
f 99 85 51
f 99 51 42
f 99 42 83
f 100 87 71
f 100 71 88
f 100 88 47
f 100 47 87
f 101 90 48
f 101 48 91
f 101 91 92
f 101 92 90
