# Normalized convex hull collision mesh - generated by scripts/generate-collision-meshes.mjs (units: meters)
v 0.023250 0.016769 0.010665
v 0.023250 -0.004862 0.010638
v 0.023250 -0.016769 -0.012834
v -0.023250 -0.016769 0.010665
v -0.020474 -0.018000 -0.012834
v -0.020474 -0.018000 0.010665
v -0.023250 -0.004769 0.010638
v -0.023250 0.016769 -0.012834
v -0.023250 0.016769 0.010665
v -0.020474 0.018000 -0.012834
v 0.020474 -0.018000 0.010665
v 0.020474 0.018000 -0.012834
v -0.000000 0.017538 -0.014063
v -0.023250 -0.014264 -0.005767
v 0.018045 0.009538 0.012000
v -0.000000 0.017538 0.012000
v 0.010251 0.002955 0.012000
v -0.013507 0.004233 0.012000
v -0.020474 0.018000 0.010665
v 0.023250 -0.016769 0.010665
v 0.020474 -0.018000 -0.012834
v 0.023250 0.016769 -0.012834
v 0.020474 0.018000 0.010665
v -0.016872 0.012375 0.012000
v -0.011966 0.003550 0.012000
v -0.002857 0.010661 -0.017000
v 0.000460 0.011218 -0.017000
v -0.003817 0.009538 -0.017000
v 0.015978 0.005821 0.012000
v 0.011966 0.015527 0.012000
v -0.023250 -0.016769 -0.012834
v -0.016872 0.006702 0.012000
v -0.018045 0.009538 0.012000
v -0.010251 0.016122 0.012000
v -0.002175 0.001597 0.012000
v 0.002857 0.010661 -0.017000
v -0.003706 0.009943 -0.017000
v -0.001354 0.011121 -0.017000
v -0.004862 0.017115 -0.014169
v 0.013507 0.004233 0.012000
v 0.017520 0.007624 0.012000
v 0.016872 0.012375 0.012000
v 0.006399 0.017019 0.012000
v -0.017733 0.009054 -0.014169
v -0.014851 0.004994 0.012000
v -0.017520 0.011453 0.012000
v -0.017520 0.007624 0.012000
v -0.006399 0.017019 0.012000
v -0.011966 0.015527 0.012000
v -0.008386 0.002455 0.012000
v -0.000000 0.001538 0.012000
v 0.005905 0.016968 -0.014169
v 0.003801 0.017233 -0.014169
v 0.001639 0.017382 -0.014169
v 0.017767 0.009538 -0.014169
v 0.001354 0.011121 -0.017000
v 0.002857 0.008416 -0.017000
v -0.003380 0.010325 -0.017000
v -0.000460 0.011218 -0.017000
v -0.002168 0.010931 -0.017000
v 0.014851 0.004994 0.012000
v 0.011966 0.003550 0.012000
v 0.017913 0.008574 0.012000
v 0.016872 0.006702 0.012000
v 0.014851 0.014083 0.012000
v 0.017520 0.011453 0.012000
v 0.004318 0.017306 0.012000
v 0.010251 0.016122 0.012000
v -0.017733 0.010023 -0.014169
v -0.015978 0.005821 0.012000
v -0.017913 0.010503 0.012000
v -0.017913 0.008574 0.012000
v -0.008386 0.016622 0.012000
v -0.002175 0.017480 0.012000
v -0.014851 0.014083 0.012000
v -0.004318 0.001771 0.012000
v -0.010251 0.002955 0.012000
v 0.004318 0.001771 0.012000
v 0.002175 0.017480 -0.014063
v 0.017632 0.010506 -0.014169
v 0.002168 0.010931 -0.017000
v -0.002857 0.008416 -0.017000
v 0.000460 0.007858 -0.017000
v 0.003817 0.009538 -0.017000
v -0.002725 0.017322 -0.014169
v 0.015978 0.013256 0.012000
v 0.013507 0.014843 0.012000
v 0.017913 0.010503 0.012000
v 0.002175 0.017480 0.012000
v 0.008386 0.016622 0.012000
v -0.004318 0.017306 0.012000
v -0.015978 0.013256 0.012000
v -0.013507 0.014843 0.012000
v -0.006399 0.002058 0.012000
v 0.002175 0.001597 0.012000
v 0.008386 0.002455 0.012000
v -0.003706 0.009133 -0.017000
v 0.001354 0.007956 -0.017000
v -0.001354 0.007956 -0.017000
v 0.003380 0.008752 -0.017000
v 0.003380 0.010325 -0.017000
v -0.000547 0.017412 -0.014169
v 0.006399 0.002058 0.012000
v -0.003380 0.008752 -0.017000
v 0.002168 0.008146 -0.017000
v -0.002168 0.008146 -0.017000
v -0.000460 0.007858 -0.017000
v 0.003706 0.009133 -0.017000
v 0.003706 0.009943 -0.017000
v -0.002175 0.017480 -0.014063
f 1 2 3
f 4 5 6
f 4 7 8
f 9 10 8
f 9 8 7
f 9 7 4
f 11 6 5
f 12 13 10
f 14 4 8
f 15 16 17
f 18 17 16
f 19 10 9
f 19 12 10
f 20 2 1
f 20 1 15
f 20 11 3
f 20 3 2
f 21 3 11
f 21 11 5
f 22 12 1
f 22 1 3
f 23 1 12
f 23 12 19
f 23 19 16
f 24 18 16
f 25 17 18
f 25 18 4
f 25 4 6
f 26 27 28
f 26 8 10
f 29 15 17
f 30 1 23
f 30 16 15
f 31 14 8
f 31 5 4
f 31 4 14
f 32 18 24
f 33 32 24
f 33 9 4
f 34 24 16
f 35 17 25
f 36 28 27
f 36 12 22
f 37 26 28
f 37 28 8
f 38 27 26
f 38 10 39
f 40 29 17
f 41 15 29
f 42 30 15
f 43 16 30
f 44 28 31
f 44 31 8
f 45 18 32
f 45 4 18
f 46 33 24
f 46 24 9
f 47 32 33
f 47 4 32
f 48 34 16
f 49 24 34
f 49 34 19
f 49 19 9
f 50 35 25
f 51 17 35
f 51 35 6
f 51 6 11
f 52 53 12
f 54 12 53
f 54 53 27
f 55 22 3
f 56 36 27
f 56 27 53
f 56 53 52
f 56 52 12
f 57 28 36
f 57 3 21
f 58 26 37
f 58 37 8
f 58 8 26
f 59 27 38
f 59 38 39
f 60 10 38
f 60 38 26
f 60 26 10
f 61 29 40
f 61 40 20
f 61 20 29
f 62 11 20
f 62 20 40
f 62 40 17
f 62 17 11
f 63 15 41
f 63 41 20
f 63 20 15
f 64 20 41
f 64 41 29
f 64 29 20
f 65 30 42
f 66 1 42
f 66 42 15
f 67 16 43
f 67 43 23
f 68 43 30
f 68 30 23
f 69 28 44
f 69 44 8
f 69 8 28
f 70 4 45
f 70 45 32
f 70 32 4
f 71 33 46
f 71 46 9
f 71 9 33
f 72 4 47
f 72 47 33
f 72 33 4
f 73 34 48
f 73 48 19
f 73 19 34
f 74 48 16
f 74 16 19
f 75 24 49
f 76 35 50
f 76 6 35
f 77 6 50
f 77 50 25
f 77 25 6
f 78 17 51
f 79 12 54
f 79 54 13
f 79 13 12
f 80 22 55
f 81 36 56
f 81 56 12
f 81 12 36
f 82 28 57
f 82 5 31
f 83 82 57
f 83 21 5
f 84 55 3
f 84 57 36
f 84 22 80
f 84 80 55
f 85 59 39
f 85 39 10
f 86 1 65
f 86 65 42
f 86 42 1
f 87 30 65
f 87 65 1
f 87 1 30
f 88 1 66
f 88 66 15
f 88 15 1
f 89 16 67
f 89 67 23
f 89 23 16
f 90 43 68
f 90 68 23
f 90 23 43
f 91 48 74
f 91 74 19
f 91 19 48
f 92 24 75
f 92 75 9
f 92 9 24
f 93 9 75
f 93 75 49
f 93 49 9
f 94 6 76
f 94 76 50
f 94 50 6
f 95 11 78
f 95 78 51
f 95 51 11
f 96 17 78
f 96 11 17
f 97 28 82
f 97 31 28
f 98 21 83
f 98 83 57
f 99 82 83
f 100 57 84
f 100 3 57
f 101 84 36
f 101 36 22
f 102 59 85
f 102 13 54
f 102 54 27
f 102 27 59
f 103 11 96
f 103 96 78
f 103 78 11
f 104 31 97
f 104 97 82
f 104 82 31
f 105 21 98
f 105 98 57
f 105 57 21
f 106 82 99
f 106 99 5
f 106 5 82
f 107 5 99
f 107 99 83
f 107 83 5
f 108 3 100
f 108 100 84
f 108 84 3
f 109 84 101
f 109 101 22
f 109 22 84
f 110 10 13
f 110 13 102
f 110 102 85
f 110 85 10
