# Normalized convex hull collision mesh - generated by scripts/generate-collision-meshes.mjs (units: meters)
v -0.002997 -0.003339 -0.016000
v -0.002997 0.006000 -0.016000
v 0.009757 -0.003339 -0.016000
v 0.010913 0.005722 -0.016000
v 0.010913 0.005374 0.016000
v -0.002997 0.006000 0.016000
v 0.009757 -0.003339 0.016000
v -0.002997 -0.003339 0.016000
v 0.011500 0.005448 -0.011733
v 0.009757 0.006000 0.016000
v 0.000319 -0.006000 0.005333
v 0.006271 -0.004644 -0.008533
v 0.002313 -0.005830 -0.005333
v 0.011500 0.005546 0.013152
v 0.011500 0.005648 -0.011733
v 0.011500 0.005536 -0.013142
v 0.008992 0.006000 -0.014080
v -0.005123 0.005096 0.016000
v -0.011500 0.005548 0.005333
v -0.011436 0.005448 -0.005333
v -0.002168 -0.005649 -0.005333
v -0.001979 -0.005744 -0.005333
v -0.001675 -0.005830 -0.005333
v -0.002168 -0.005649 0.005333
v 0.000319 -0.006000 -0.005333
v 0.011396 0.005546 0.013866
v 0.011500 0.005448 0.011880
v 0.011500 0.005473 -0.012674
v 0.011396 0.005530 -0.013851
v 0.009757 0.006000 -0.016000
v 0.010913 0.005896 -0.011733
v 0.010913 0.005896 0.011733
v 0.011396 0.005699 -0.011733
v -0.005123 0.006000 0.016000
v -0.005123 0.005096 -0.016000
v 0.002617 -0.005744 0.005333
v 0.002313 -0.005830 0.005333
v -0.001675 -0.005830 0.005333
v -0.011436 0.005448 0.005333
v 0.011500 0.005480 0.012779
v 0.011500 0.005623 -0.012674
v 0.011396 0.005681 -0.012725
v 0.011500 0.005451 -0.012073
v 0.011500 0.005513 -0.013060
v 0.010913 0.005374 -0.016000
v 0.011396 0.005566 -0.013851
v 0.011500 0.005647 0.011928
v 0.010913 0.005722 0.016000
v -0.005506 0.005522 0.015449
v -0.008949 0.006000 -0.005333
v -0.005123 0.006000 -0.016000
v -0.009517 0.005989 -0.005333
v -0.011500 0.005548 -0.005333
v 0.001909 -0.005901 0.005333
v 0.001426 -0.005955 0.005333
v 0.000886 -0.005989 -0.005333
v 0.002617 -0.005744 -0.005333
v 0.006271 -0.004644 0.008533
v -0.001979 -0.005744 0.005333
v -0.000249 -0.005989 -0.005333
v -0.000788 -0.005955 -0.005333
v -0.001272 -0.005901 -0.005333
v -0.000788 -0.005955 0.005333
v 0.011500 0.005465 0.012519
v 0.011500 0.005522 0.013105
v 0.011396 0.005694 -0.012244
v 0.011396 0.005661 -0.013148
v 0.011396 0.005634 -0.013489
v 0.011500 0.005637 -0.012393
v 0.011500 0.005459 -0.012393
v 0.011500 0.005491 -0.012901
v 0.011500 0.005584 -0.013060
v 0.011500 0.005648 0.011586
v -0.009517 0.005989 0.005333
v -0.010056 0.005955 0.005333
v -0.005506 0.005495 -0.015391
v -0.011436 0.005649 -0.005333
v -0.011247 0.005744 -0.005333
v -0.011247 0.005744 0.005333
v 0.000886 -0.005989 0.005333
v 0.001426 -0.005955 -0.005333
v -0.001272 -0.005901 0.005333
v -0.000249 -0.005989 0.005333
v 0.011500 0.005454 0.012214
v 0.011500 0.005500 0.012978
v 0.011500 0.005645 -0.012073
v 0.011500 0.005605 -0.012901
v 0.011500 0.005560 -0.013142
v 0.011396 0.005602 -0.013728
v 0.011396 0.005698 0.011512
v 0.011500 0.005613 0.012811
v 0.011396 0.005582 0.013813
v 0.011396 0.005616 0.013639
v -0.010943 0.005830 0.005333
v -0.008949 0.006000 0.005333
v -0.010056 0.005955 -0.005333
v -0.010540 0.005901 -0.005333
v -0.010943 0.005830 -0.005333
v -0.005506 0.005601 -0.015391
v -0.011436 0.005649 0.005333
v 0.001909 -0.005901 -0.005333
v 0.011396 0.005697 0.012026
v 0.011500 0.005593 0.013001
v 0.011500 0.005570 0.013116
v -0.010540 0.005901 0.005333
v 0.011396 0.005671 0.012975
v 0.011396 0.005646 0.013354
v 0.011500 0.005641 0.012259
v 0.011500 0.005630 0.012559
v 0.011396 0.005688 0.012524
f 1 2 3
f 4 3 2
f 5 6 7
f 8 7 6
f 9 7 3
f 10 6 5
f 10 2 6
f 11 7 8
f 12 13 3
f 12 3 7
f 14 9 15
f 16 15 9
f 17 2 10
f 18 19 8
f 18 8 6
f 20 1 21
f 22 1 23
f 22 21 1
f 24 21 22
f 24 20 21
f 25 1 3
f 26 7 14
f 26 5 7
f 27 9 14
f 27 7 9
f 28 16 9
f 29 16 3
f 30 17 10
f 30 10 31
f 30 31 4
f 30 4 2
f 30 2 17
f 32 33 31
f 32 31 10
f 34 18 6
f 34 6 2
f 35 2 1
f 36 37 13
f 38 22 23
f 39 19 20
f 39 20 24
f 39 24 8
f 39 8 19
f 40 27 14
f 41 15 16
f 42 4 31
f 43 28 9
f 43 9 3
f 44 16 28
f 44 3 16
f 45 4 29
f 45 29 3
f 45 3 4
f 46 16 29
f 46 29 4
f 47 14 15
f 48 32 10
f 48 10 5
f 48 5 26
f 49 18 34
f 49 34 19
f 49 19 18
f 50 34 2
f 51 2 35
f 51 52 50
f 51 50 2
f 53 20 19
f 53 35 1
f 53 1 20
f 54 37 7
f 54 7 55
f 54 13 37
f 56 25 3
f 56 11 25
f 57 12 36
f 57 36 13
f 57 13 12
f 58 7 37
f 58 37 36
f 58 36 12
f 58 12 7
f 59 24 22
f 59 22 38
f 59 38 8
f 59 8 24
f 60 25 11
f 60 61 1
f 60 1 25
f 62 1 61
f 62 38 23
f 62 23 1
f 63 62 61
f 63 61 60
f 64 27 40
f 64 40 7
f 65 40 14
f 65 14 7
f 66 42 31
f 66 31 33
f 67 68 4
f 67 4 42
f 67 42 41
f 67 41 68
f 69 41 42
f 69 15 41
f 70 28 43
f 70 43 3
f 70 3 28
f 71 3 44
f 71 44 28
f 71 28 3
f 72 41 16
f 73 47 15
f 73 15 33
f 74 75 34
f 74 50 52
f 74 52 75
f 76 35 53
f 76 51 35
f 77 78 51
f 77 51 53
f 77 53 19
f 77 79 78
f 80 11 56
f 80 56 55
f 80 55 7
f 80 7 11
f 81 54 55
f 81 55 56
f 81 56 3
f 82 62 63
f 82 63 8
f 82 8 38
f 82 38 62
f 83 11 8
f 83 8 63
f 83 63 60
f 83 60 11
f 84 27 64
f 84 64 7
f 84 7 27
f 85 40 65
f 85 65 7
f 85 7 40
f 86 15 69
f 86 69 42
f 86 42 66
f 86 66 33
f 86 33 15
f 87 41 72
f 87 72 68
f 87 68 41
f 88 72 16
f 88 16 46
f 89 68 72
f 89 72 88
f 89 88 46
f 89 46 4
f 89 4 68
f 90 73 33
f 90 33 32
f 91 14 47
f 92 93 48
f 92 48 26
f 94 78 79
f 94 79 34
f 95 50 74
f 95 74 34
f 95 34 50
f 96 51 97
f 96 97 75
f 96 75 52
f 96 52 51
f 98 78 94
f 98 94 97
f 98 97 51
f 98 51 78
f 99 51 76
f 99 76 53
f 99 53 51
f 100 79 77
f 100 77 19
f 100 19 34
f 100 34 79
f 101 54 81
f 101 81 3
f 101 3 13
f 101 13 54
f 102 47 73
f 102 73 90
f 102 90 32
f 103 91 93
f 103 14 91
f 104 14 103
f 104 103 93
f 104 93 92
f 104 92 26
f 104 26 14
f 105 97 94
f 105 94 34
f 105 34 75
f 105 75 97
f 106 32 48
f 107 93 91
f 107 91 106
f 107 106 48
f 107 48 93
f 108 47 102
f 108 91 47
f 109 91 108
f 109 108 106
f 109 106 91
f 110 106 108
f 110 108 102
f 110 102 32
f 110 32 106
