# Normalized convex hull collision mesh - generated by scripts/generate-collision-meshes.mjs (units: meters)
v 0.028575 0.019272 0.011893
v 0.028575 -0.018253 0.004064
v 0.028575 0.011253 -0.019425
v 0.028575 -0.018253 -0.027627
v 0.017322 -0.027999 -0.028000
v -0.028068 -0.018253 -0.028000
v 0.016871 0.021044 -0.028000
v -0.028575 0.011253 -0.027627
v -0.028575 -0.026271 0.011893
v -0.028575 -0.018253 0.008538
v -0.002228 0.028575 -0.022683
v 0.002408 0.028575 -0.023221
v -0.000287 0.028575 -0.024382
v -0.018456 0.020376 -0.028000
v 0.028575 -0.018253 0.008538
v 0.028575 -0.021044 0.010253
v 0.026042 -0.028486 0.011893
v 0.026605 -0.028431 0.008538
v 0.026605 -0.028431 0.011893
v 0.028068 -0.018253 -0.028000
v -0.016871 -0.028043 -0.028000
v 0.027626 -0.019357 -0.028000
v -0.028575 -0.018253 -0.027627
v 0.000098 0.028575 -0.021442
v -0.002228 0.028575 -0.023474
v -0.028575 0.014044 0.011893
v -0.026605 -0.028431 0.011893
v -0.026605 -0.028431 0.008538
v -0.026042 -0.028486 0.011893
v -0.028018 0.011647 -0.028000
v 0.028575 -0.026271 0.008538
v -0.013755 -0.028575 -0.005880
v 0.014365 -0.028575 -0.006195
v 0.012991 -0.028575 0.000380
v 0.027141 -0.028267 0.011893
v 0.027621 -0.028003 0.008538
v 0.027621 -0.028003 0.011893
v 0.028575 -0.015727 0.011893
v 0.012991 -0.028575 -0.007002
v 0.014515 -0.028575 -0.000742
v 0.026042 -0.028486 0.008538
v 0.017435 -0.028431 -0.027627
v -0.013984 -0.028043 0.012266
v 0.026493 -0.027999 0.012266
v -0.027626 -0.019357 -0.028000
v 0.027141 -0.028267 0.008538
v 0.018451 -0.028003 -0.027627
v 0.018135 -0.027657 -0.028000
v -0.028575 -0.026271 0.008538
v -0.028511 -0.026764 0.008538
v -0.028511 -0.018745 -0.027627
v -0.028499 -0.018743 -0.027710
v -0.028324 -0.027232 0.008538
v 0.002228 0.028575 -0.022683
v -0.002082 0.028575 -0.023570
v -0.000529 -0.000344 0.028000
v -0.000529 -0.006656 0.028000
v 0.000363 -0.000326 0.028000
v -0.028511 0.011746 -0.027627
v -0.028499 0.011743 -0.027710
v -0.028575 0.019272 0.008538
v -0.028511 0.019764 0.008538
v 0.003539 -0.004274 0.028000
v -0.028464 -0.018253 -0.027860
v -0.028525 0.011253 -0.027789
v -0.028464 0.011253 -0.027860
v -0.028022 -0.027652 0.008538
v -0.028022 -0.027652 0.011893
v -0.027621 -0.028003 0.008538
v -0.028324 -0.027232 0.011893
v -0.027141 -0.028267 0.011893
v -0.026493 -0.027999 0.012266
v 0.016871 0.021142 -0.027991
v -0.016871 0.021142 -0.027991
v 0.016871 0.021236 -0.027963
v -0.000098 0.028575 -0.024416
v -0.016871 0.021044 -0.028000
v -0.017347 0.021095 -0.027991
v 0.028575 -0.026271 0.011893
v 0.028511 -0.026764 0.008538
v -0.026042 -0.028486 0.008538
v -0.016871 -0.028486 -0.027627
v -0.012231 -0.028575 0.000380
v -0.011780 -0.028575 -0.007039
v 0.014124 -0.028575 -0.000144
v 0.014515 -0.028575 -0.005880
v 0.014566 -0.028575 -0.001074
v 0.026042 -0.028043 0.012266
v 0.026921 -0.027868 0.012266
v 0.016871 -0.028486 -0.027627
v 0.017432 -0.028420 -0.027710
v 0.016871 -0.028390 -0.027860
v 0.016871 -0.028443 -0.027789
v -0.016871 -0.028443 -0.027789
v -0.016871 -0.028320 -0.027919
v 0.016871 -0.028320 -0.027919
v -0.016871 -0.028142 -0.027991
v 0.016871 -0.028142 -0.027991
v 0.016871 -0.028236 -0.027963
v 0.016871 -0.028043 -0.028000
v -0.018135 -0.027657 -0.028000
v -0.027376 -0.019715 -0.027991
v -0.018272 -0.027807 -0.027963
v -0.027798 -0.019477 -0.027963
v 0.028022 -0.027652 0.008538
v 0.028012 -0.019627 -0.027710
v 0.028326 -0.018708 -0.027919
v 0.028404 -0.018724 -0.027860
v 0.028225 -0.019172 -0.027860
v 0.028152 -0.019141 -0.027919
v -0.028562 0.011253 -0.027710
v 0.000460 0.028575 -0.021544
v 0.002408 0.028575 -0.022936
v -0.000460 0.028575 -0.021544
v -0.000460 0.028575 -0.024315
v -0.003293 -0.002128 0.028000
v -0.028575 0.019272 0.011893
v -0.018135 0.020657 -0.028000
v 0.028068 0.019272 0.012266
v 0.003218 -0.001998 0.028000
v -0.028018 -0.018647 -0.028000
v -0.028127 -0.018669 -0.027991
v -0.028525 -0.018253 -0.027789
v -0.028463 -0.018736 -0.027789
v -0.028324 -0.019214 -0.027627
v -0.028511 -0.026764 0.011893
v -0.028018 -0.026666 0.012266
v -0.027141 -0.028267 0.008538
v -0.026042 -0.028043 0.012266
v -0.002814 -0.005530 0.028000
v -0.027621 -0.028003 0.011893
v 0.017347 0.021095 -0.027991
v -0.016871 0.021236 -0.027963
v -0.017371 0.021187 -0.027963
v 0.002082 0.028575 -0.023570
v 0.022443 0.013125 -0.028000
v -0.028463 0.011736 -0.027789
v -0.027626 0.012358 -0.028000
v 0.028324 -0.027232 0.011893
v 0.028324 -0.027232 0.008538
v -0.017435 -0.028431 -0.027627
v -0.017971 -0.028267 -0.027627
v -0.017432 -0.028420 -0.027710
v -0.011780 -0.028575 0.000418
v -0.013755 -0.028575 -0.000742
v -0.013043 -0.028575 -0.006714
v 0.013803 -0.028575 0.000092
v 0.014365 -0.028575 -0.000427
v 0.014566 -0.028575 -0.005548
v 0.000363 -0.006674 0.028000
v -0.016871 -0.028475 -0.027710
v 0.013803 -0.028575 -0.006714
v 0.012540 -0.028575 -0.007039
v -0.016871 -0.028390 -0.027860
v -0.016871 -0.028236 -0.027963
v -0.027714 -0.019419 -0.027991
v -0.018205 -0.027734 -0.027991
v -0.017800 -0.027957 -0.027991
v 0.027552 -0.019909 -0.027860
v 0.018813 -0.027625 -0.027789
v 0.018766 -0.027592 -0.027860
v 0.027376 -0.019715 -0.027991
v 0.027798 -0.019477 -0.027963
v 0.018272 -0.027807 -0.027963
v 0.017965 -0.028257 -0.027710
v 0.018443 -0.027994 -0.027710
v 0.028022 -0.019634 -0.027627
v 0.028324 -0.019214 -0.027627
v 0.028313 -0.019209 -0.027710
v 0.028511 -0.018745 -0.027627
v 0.028499 -0.018743 -0.027710
v 0.028463 -0.018736 -0.027789
v 0.027983 -0.019606 -0.027789
v -0.002339 0.028575 -0.022801
v -0.002082 0.028575 -0.022588
v -0.000287 0.028575 -0.021477
v 0.000287 0.028575 -0.021477
v 0.026042 0.021487 0.011893
v 0.002082 0.028575 -0.022588
v 0.002339 0.028575 -0.022801
v 0.002432 0.028575 -0.023079
v -0.026042 0.021487 0.011893
v -0.002166 -0.000933 0.028000
v -0.028511 0.019764 0.011893
v -0.028324 0.020233 0.011893
v -0.028068 0.014044 0.012266
v -0.017322 0.020999 -0.028000
v 0.028018 0.019666 0.012266
v 0.028068 -0.026271 0.012266
v 0.002030 -0.000850 0.028000
v 0.002705 -0.001360 0.028000
v 0.027305 0.020657 0.012266
v -0.028181 -0.018253 -0.027991
v -0.028288 -0.018253 -0.027963
v -0.028384 -0.018253 -0.027919
v -0.028326 -0.018708 -0.027919
v -0.028232 -0.018690 -0.027963
v -0.028225 -0.019172 -0.027860
v -0.028279 -0.019195 -0.027789
v -0.027613 -0.019976 -0.027710
v -0.028562 -0.018253 -0.027710
v -0.001389 -0.006449 0.028000
v -0.003293 -0.004872 0.028000
v -0.027305 -0.027657 0.012266
v -0.016871 0.021320 -0.027919
v 0.002228 0.028575 -0.023474
v 0.000460 0.028575 -0.024315
v 0.017424 0.021388 -0.027789
v 0.027141 0.021267 0.008538
v 0.018697 0.020040 -0.028000
v 0.027868 0.012022 -0.028000
v 0.028575 0.011253 -0.027627
v 0.028464 -0.018253 -0.027860
v -0.028324 0.020233 0.008538
v -0.028326 0.011709 -0.027919
v -0.028152 0.012142 -0.027919
v -0.028232 0.011690 -0.027963
v 0.028022 -0.027652 0.011893
v 0.028511 -0.026764 0.011893
v -0.017965 -0.028257 -0.027710
v 0.012540 -0.028575 0.000418
v -0.013806 -0.028575 -0.005548
v -0.013043 -0.028575 0.000092
v -0.013605 -0.028575 -0.006195
v -0.012231 -0.028575 -0.007002
v 0.013419 -0.028575 0.000270
v 0.001233 -0.006502 0.028000
v 0.016871 -0.028475 -0.027710
v 0.014124 -0.028575 -0.006478
v 0.013419 -0.028575 -0.006891
v -0.017424 -0.028388 -0.027789
v -0.017393 -0.028268 -0.027919
v -0.017322 -0.027999 -0.028000
v -0.027969 -0.019064 -0.027991
v -0.028066 -0.019105 -0.027963
v 0.018703 -0.027548 -0.027919
v 0.017751 -0.027868 -0.028000
v 0.027714 -0.019419 -0.027991
v 0.028232 -0.018690 -0.027963
v 0.028018 -0.018647 -0.028000
v 0.028127 -0.018669 -0.027991
v 0.018205 -0.027734 -0.027991
v 0.017971 -0.028267 -0.027627
v 0.017347 -0.028095 -0.027991
v 0.017393 -0.028268 -0.027919
v 0.017888 -0.028117 -0.027919
v 0.017923 -0.028180 -0.027860
v 0.017411 -0.028337 -0.027860
v 0.017424 -0.028388 -0.027789
v 0.018420 -0.027969 -0.027789
v 0.027936 -0.019573 -0.027860
v 0.028279 -0.019195 -0.027789
v -0.017424 0.021388 -0.027789
v -0.002408 0.028575 -0.023221
v -0.026605 0.021431 0.011893
v -0.000098 0.028575 -0.021442
v 0.013984 0.021044 0.012266
v -0.028068 0.019272 0.012266
v -0.027376 0.012715 -0.027991
v -0.018205 0.020734 -0.027991
v -0.018272 0.020807 -0.027963
v -0.017800 0.020957 -0.027991
v 0.003648 -0.003500 0.028000
v 0.003539 -0.002726 0.028000
v 0.027868 0.020040 0.012266
v 0.027868 -0.027040 0.012266
v 0.001233 -0.000498 0.028000
v 0.026921 0.020868 0.012266
v 0.026493 0.020999 0.012266
v 0.027626 0.020376 0.012266
v 0.028022 0.020653 0.011893
v -0.028288 0.011253 -0.027963
v -0.027552 -0.019909 -0.027860
v -0.027590 -0.019950 -0.027789
v -0.027936 -0.019573 -0.027860
v -0.027502 -0.019854 -0.027919
v -0.028404 -0.018724 -0.027860
v -0.028152 -0.019141 -0.027919
v -0.028012 -0.019627 -0.027710
v -0.028068 -0.026271 0.012266
v -0.026921 -0.027868 0.012266
v -0.027626 -0.027376 0.012266
v -0.002166 -0.006066 0.028000
v 0.002339 0.028575 -0.023356
v 0.000287 0.028575 -0.024382
v 0.026605 0.021431 0.011893
v 0.017751 0.020868 -0.028000
v -0.028313 0.012209 -0.027710
v -0.028279 0.012195 -0.027789
v -0.028404 0.011724 -0.027860
v -0.027868 0.012022 -0.028000
v -0.027969 0.012064 -0.027991
v -0.028127 0.011669 -0.027991
v -0.028066 0.012105 -0.027963
v -0.018842 -0.027645 -0.027710
v -0.018451 -0.028003 -0.027627
v -0.013806 -0.028575 -0.001074
v -0.012659 -0.028575 0.000270
v -0.013605 -0.028575 -0.000427
v -0.013364 -0.028575 -0.006478
v -0.012659 -0.028575 -0.006891
v -0.017411 -0.028337 -0.027860
v -0.017923 -0.028180 -0.027860
v -0.017846 -0.028041 -0.027963
v -0.017751 -0.027868 -0.028000
v -0.027868 -0.019021 -0.028000
v 0.028066 -0.019105 -0.027963
v 0.027868 -0.019021 -0.028000
v 0.017846 -0.028041 -0.027963
v 0.017800 -0.027957 -0.027991
v 0.017371 -0.028186 -0.027963
v 0.018382 -0.027928 -0.027860
v 0.017949 -0.028228 -0.027789
v 0.027502 -0.019854 -0.027919
v 0.027873 -0.019530 -0.027919
v -0.017411 0.021337 -0.027860
v -0.002339 0.028575 -0.023356
v -0.017949 0.021228 -0.027789
v -0.002408 0.028575 -0.022936
v 0.026042 0.021044 0.012266
v -0.002814 -0.001470 0.028000
v -0.027626 0.020376 0.012266
v -0.028018 0.019666 0.012266
v -0.027714 0.012419 -0.027991
v -0.028225 0.012172 -0.027860
v -0.027936 0.012574 -0.027860
v -0.017751 0.020868 -0.028000
v 0.027626 -0.027376 0.012266
v 0.028018 -0.026666 0.012266
v -0.028384 0.011253 -0.027919
v -0.027873 -0.019530 -0.027919
v -0.028313 -0.019209 -0.027710
v -0.027983 -0.019606 -0.027789
v -0.028022 -0.019634 -0.027627
v -0.027868 -0.027040 0.012266
v 0.000098 0.028575 -0.024416
v 0.016871 0.021320 -0.027919
v 0.027141 0.021267 0.011893
v 0.026605 0.021431 0.008538
v 0.017322 0.020999 -0.028000
v 0.028181 -0.018253 -0.027991
v 0.028181 0.011253 -0.027991
v 0.028068 0.011253 -0.028000
v 0.028562 -0.018253 -0.027710
v 0.028324 0.020233 0.011893
v 0.028511 0.019764 0.008538
v 0.028324 0.020233 0.008538
v -0.027141 0.021267 0.008538
v -0.017971 0.021267 -0.027627
v -0.026605 0.021431 0.008538
v -0.028022 0.020653 0.008538
v -0.028022 0.012634 -0.027627
v -0.028012 0.012627 -0.027710
v -0.027621 0.021003 0.008538
v -0.027621 0.021003 0.011893
v -0.028324 0.012214 -0.027627
v -0.028181 0.011253 -0.027991
v -0.018703 -0.027548 -0.027919
v -0.018332 -0.027873 -0.027919
v -0.018382 -0.027928 -0.027860
v -0.018443 -0.027994 -0.027710
v -0.013364 -0.028575 -0.000144
v -0.017371 -0.028186 -0.027963
v -0.017888 -0.028117 -0.027919
v 0.027969 -0.019064 -0.027991
v 0.018332 -0.027873 -0.027919
v -0.017393 0.021268 -0.027919
v -0.017923 0.021180 -0.027860
v -0.018420 0.020969 -0.027789
v -0.002432 0.028575 -0.023079
v -0.001389 -0.000550 0.028000
v -0.026921 0.020868 0.012266
v -0.026042 0.021044 0.012266
v -0.027868 0.020040 0.012266
v -0.027442 0.012789 -0.027963
v -0.027873 0.012530 -0.027919
v -0.027798 0.012478 -0.027963
v -0.017965 0.021257 -0.027710
v 0.027305 -0.027657 0.012266
v 0.003218 -0.005002 0.028000
v 0.027621 0.021003 0.011893
v 0.017393 0.021268 -0.027919
v 0.017965 0.021257 -0.027710
v 0.018135 0.020657 -0.028000
v 0.028018 0.011647 -0.028000
v 0.028288 -0.018253 -0.027963
v 0.028464 0.011253 -0.027860
v 0.028525 0.011253 -0.027789
v 0.028384 0.011253 -0.027919
v 0.028404 0.011724 -0.027860
v 0.028463 0.011736 -0.027789
v 0.028562 0.011253 -0.027710
v 0.028499 0.011743 -0.027710
v 0.028525 -0.018253 -0.027789
v 0.028511 0.011746 -0.027627
v 0.028575 0.019272 0.008538
v 0.028511 0.019764 0.011893
v -0.018443 0.020995 -0.027710
v -0.027983 0.012607 -0.027789
v -0.027141 0.021267 0.011893
v -0.028022 0.020653 0.011893
v -0.027305 0.020657 0.012266
v -0.028068 0.011253 -0.028000
v -0.018420 -0.027969 -0.027789
v -0.017347 -0.028095 -0.027991
v -0.018382 0.020928 -0.027860
v -0.017888 0.021117 -0.027919
v -0.026493 0.020999 0.012266
v 0.002030 -0.006150 0.028000
v 0.017371 0.021187 -0.027963
v 0.017888 0.021117 -0.027919
v 0.017411 0.021337 -0.027860
v 0.017971 0.021267 -0.027627
v 0.027621 0.021003 0.008538
v 0.017949 0.021228 -0.027789
v 0.028225 0.012172 -0.027860
v 0.017800 0.020957 -0.027991
v 0.027626 0.012358 -0.028000
v 0.027376 0.012715 -0.027991
v 0.027936 0.012574 -0.027860
v 0.018766 0.020592 -0.027860
v 0.027983 0.012607 -0.027789
v 0.028152 0.012142 -0.027919
v 0.027873 0.012530 -0.027919
v 0.027502 0.012854 -0.027919
v 0.028288 0.011253 -0.027963
v 0.028384 -0.018253 -0.027919
v 0.028326 0.011709 -0.027919
v 0.028232 0.011690 -0.027963
v 0.028127 0.011669 -0.027991
v -0.018451 0.021003 -0.027627
v -0.017949 -0.028228 -0.027789
v -0.018703 0.020549 -0.027919
v -0.017846 0.021041 -0.027963
v -0.018332 0.020873 -0.027919
v 0.002705 -0.005640 0.028000
v 0.028022 0.020653 0.008538
v 0.018443 0.020995 -0.027710
v 0.018703 0.020549 -0.027919
v 0.017923 0.021180 -0.027860
v 0.028324 0.012214 -0.027627
v 0.018272 0.020807 -0.027963
v 0.018332 0.020873 -0.027919
v 0.027714 0.012419 -0.027991
v -0.027502 0.012854 -0.027919
v 0.018451 0.021003 -0.027627
v 0.018420 0.020969 -0.027789
v 0.027613 0.012976 -0.027710
v 0.028022 0.012634 -0.027627
v 0.028279 0.012195 -0.027789
v 0.028313 0.012209 -0.027710
v 0.018205 0.020734 -0.027991
v 0.017846 0.021041 -0.027963
v 0.027798 0.012478 -0.027963
v 0.018382 0.020928 -0.027860
v 0.028012 0.012627 -0.027710
v 0.028066 0.012105 -0.027963
v 0.027969 0.012064 -0.027991
f 1 2 3
f 4 3 2
f 5 6 7
f 8 9 10
f 11 12 13
f 14 7 6
f 15 2 1
f 16 4 2
f 16 2 15
f 16 15 1
f 17 18 19
f 20 5 7
f 21 6 5
f 22 5 20
f 23 9 8
f 24 12 11
f 25 11 13
f 26 10 9
f 26 8 10
f 27 28 29
f 30 14 6
f 31 4 16
f 32 33 34
f 35 36 37
f 35 19 18
f 38 16 1
f 39 33 32
f 40 34 33
f 41 42 18
f 41 18 17
f 43 29 17
f 44 17 19
f 44 19 35
f 45 6 21
f 46 36 35
f 46 35 18
f 46 18 42
f 47 36 46
f 48 5 22
f 49 9 23
f 49 50 9
f 51 50 49
f 51 49 23
f 51 23 52
f 51 53 50
f 54 12 24
f 55 25 13
f 56 57 58
f 59 60 8
f 61 62 59
f 61 59 8
f 61 8 26
f 63 58 57
f 64 65 66
f 67 68 53
f 67 69 68
f 70 50 53
f 70 53 68
f 71 28 27
f 72 71 27
f 72 27 29
f 73 7 74
f 73 74 75
f 76 13 12
f 77 74 7
f 77 7 14
f 78 74 77
f 79 80 31
f 79 31 16
f 79 16 38
f 81 82 32
f 81 29 28
f 83 32 34
f 84 39 32
f 85 34 40
f 86 40 33
f 87 40 86
f 87 41 17
f 87 17 40
f 88 43 17
f 88 17 44
f 89 44 35
f 89 35 37
f 90 42 41
f 90 41 86
f 90 86 33
f 90 84 82
f 90 91 42
f 92 93 94
f 92 95 96
f 97 21 98
f 99 97 98
f 99 96 95
f 100 98 21
f 100 21 5
f 101 45 21
f 102 45 101
f 102 103 104
f 105 37 36
f 105 36 106
f 107 108 109
f 107 109 110
f 111 8 60
f 111 23 8
f 112 54 24
f 113 12 54
f 114 24 11
f 115 55 13
f 116 57 56
f 117 62 61
f 117 61 26
f 118 77 14
f 119 79 38
f 119 38 1
f 120 58 63
f 121 122 6
f 121 6 45
f 123 65 64
f 123 64 124
f 123 111 65
f 125 53 51
f 126 50 70
f 126 70 127
f 126 127 9
f 126 9 50
f 128 28 71
f 128 71 69
f 129 57 72
f 129 72 29
f 129 29 43
f 130 57 116
f 131 68 69
f 131 69 71
f 132 7 73
f 132 73 75
f 133 74 78
f 133 78 134
f 133 76 75
f 133 75 74
f 135 76 12
f 136 20 7
f 137 66 65
f 137 65 111
f 137 111 60
f 138 14 30
f 139 140 80
f 139 105 140
f 141 28 128
f 141 128 142
f 141 143 82
f 141 82 81
f 141 81 28
f 144 29 83
f 144 83 34
f 144 17 29
f 145 32 83
f 146 84 32
f 147 34 85
f 147 85 17
f 148 17 85
f 148 85 40
f 148 40 17
f 149 41 87
f 149 87 86
f 149 86 41
f 150 57 129
f 150 129 43
f 150 43 88
f 150 88 44
f 150 63 57
f 151 82 143
f 151 94 93
f 151 90 82
f 152 33 39
f 153 84 90
f 153 90 39
f 153 39 84
f 154 95 92
f 154 92 94
f 155 97 99
f 155 99 95
f 156 45 102
f 156 102 104
f 157 103 102
f 157 102 101
f 157 101 158
f 157 158 103
f 159 160 161
f 162 163 164
f 162 48 22
f 165 42 91
f 166 47 165
f 166 160 106
f 166 106 36
f 166 36 47
f 167 168 140
f 167 140 105
f 167 105 106
f 167 106 169
f 167 169 168
f 170 80 140
f 170 140 168
f 170 168 169
f 170 169 171
f 170 171 4
f 170 4 31
f 170 31 80
f 172 171 169
f 172 109 108
f 173 106 160
f 173 160 159
f 173 169 106
f 174 11 25
f 175 114 11
f 176 24 114
f 177 24 178
f 177 178 112
f 177 112 24
f 179 112 178
f 179 178 54
f 179 54 112
f 180 113 54
f 181 12 113
f 182 176 114
f 182 114 175
f 182 175 11
f 182 178 24
f 183 116 56
f 184 62 117
f 184 185 62
f 186 117 26
f 186 26 9
f 187 77 118
f 187 78 77
f 188 119 1
f 189 79 119
f 190 58 120
f 191 192 190
f 191 190 120
f 193 122 194
f 193 6 122
f 195 64 66
f 195 194 196
f 195 196 64
f 197 196 194
f 197 194 122
f 198 199 124
f 200 69 67
f 201 52 23
f 201 23 111
f 201 111 123
f 201 123 124
f 201 124 52
f 202 57 130
f 202 72 57
f 203 130 116
f 203 116 186
f 204 68 131
f 205 76 133
f 206 135 12
f 207 76 135
f 207 135 208
f 209 12 181
f 210 136 7
f 211 20 136
f 211 136 210
f 212 3 4
f 212 1 3
f 213 172 108
f 213 108 107
f 214 59 62
f 214 62 185
f 215 216 217
f 218 37 105
f 218 105 139
f 219 139 80
f 219 80 79
f 220 143 141
f 220 141 142
f 221 17 144
f 221 144 34
f 221 34 17
f 222 32 145
f 222 29 81
f 222 81 32
f 223 145 83
f 224 146 32
f 224 32 82
f 225 84 146
f 225 82 84
f 226 34 147
f 226 147 17
f 226 17 34
f 227 63 150
f 227 150 44
f 227 44 89
f 228 90 151
f 228 151 93
f 228 91 90
f 229 33 152
f 229 152 90
f 229 90 33
f 230 90 152
f 230 152 39
f 230 39 90
f 231 143 220
f 231 154 94
f 231 94 151
f 231 151 143
f 232 155 95
f 232 95 154
f 233 101 21
f 234 235 197
f 234 197 122
f 234 122 121
f 234 45 156
f 234 156 104
f 234 104 235
f 236 164 163
f 236 159 161
f 237 5 48
f 238 163 162
f 238 162 22
f 239 107 110
f 240 20 241
f 240 22 20
f 242 48 162
f 242 162 164
f 243 46 42
f 243 42 165
f 243 165 47
f 243 47 46
f 244 99 98
f 244 98 100
f 244 100 5
f 245 96 99
f 245 246 247
f 245 247 248
f 245 248 92
f 245 92 96
f 249 165 91
f 249 91 228
f 249 228 93
f 249 93 92
f 249 92 248
f 249 248 247
f 250 161 160
f 250 160 166
f 250 166 165
f 251 110 109
f 251 109 173
f 251 173 159
f 251 159 236
f 252 169 173
f 252 173 109
f 252 109 172
f 252 172 169
f 253 55 115
f 253 115 13
f 254 174 25
f 255 182 11
f 255 11 174
f 256 176 182
f 256 182 24
f 256 24 176
f 257 178 182
f 258 117 186
f 258 186 116
f 259 14 138
f 259 118 14
f 260 118 259
f 260 259 261
f 262 78 187
f 262 118 260
f 262 260 261
f 262 134 78
f 263 189 119
f 263 120 63
f 264 120 263
f 264 263 188
f 264 188 265
f 264 265 120
f 266 218 139
f 267 58 190
f 267 190 268
f 267 268 269
f 267 269 58
f 190 268 190
f 190 190 192
f 190 192 268
f 270 265 271
f 270 271 192
f 270 192 191
f 270 191 120
f 270 120 265
f 272 193 194
f 272 194 195
f 272 215 217
f 273 274 275
f 276 273 275
f 276 104 103
f 277 196 198
f 277 198 124
f 277 124 64
f 277 64 196
f 278 235 104
f 278 275 198
f 278 198 196
f 278 196 197
f 278 197 235
f 279 274 200
f 279 200 67
f 280 127 203
f 280 203 186
f 280 186 9
f 280 9 127
f 281 204 131
f 281 131 71
f 281 71 72
f 281 72 202
f 282 68 204
f 282 204 130
f 282 130 203
f 283 130 204
f 283 204 281
f 283 281 202
f 283 202 130
f 284 206 12
f 285 76 207
f 285 207 208
f 286 178 269
f 286 113 180
f 286 180 54
f 286 54 178
f 287 210 7
f 288 60 59
f 288 289 137
f 288 137 60
f 290 215 66
f 290 66 137
f 291 30 292
f 291 292 138
f 291 138 30
f 293 217 292
f 293 292 30
f 293 272 217
f 294 292 217
f 294 217 216
f 295 200 274
f 295 69 200
f 296 220 142
f 296 142 128
f 296 128 69
f 297 29 222
f 297 222 145
f 297 145 29
f 298 29 223
f 298 223 83
f 298 83 29
f 299 145 223
f 299 29 145
f 300 146 224
f 300 224 82
f 300 82 146
f 301 82 225
f 301 225 146
f 301 146 82
f 302 231 303
f 302 303 232
f 302 232 154
f 302 154 231
f 304 103 158
f 305 101 233
f 305 233 158
f 305 158 101
f 306 45 234
f 306 234 121
f 306 121 45
f 307 239 110
f 307 110 163
f 308 22 240
f 309 164 246
f 310 237 48
f 310 48 242
f 310 242 164
f 310 164 309
f 310 244 5
f 310 5 237
f 311 244 310
f 311 310 309
f 311 309 246
f 311 246 245
f 311 245 99
f 311 99 244
f 312 236 161
f 312 161 250
f 312 250 247
f 312 247 246
f 313 247 250
f 313 250 165
f 313 165 249
f 313 249 247
f 314 251 236
f 314 236 163
f 315 110 251
f 315 251 314
f 315 314 163
f 315 163 110
f 316 253 13
f 316 13 76
f 317 254 25
f 318 25 55
f 318 55 253
f 319 255 174
f 319 174 254
f 320 178 257
f 320 257 58
f 320 58 269
f 320 269 178
f 321 322 116
f 321 116 183
f 323 185 184
f 323 184 117
f 323 117 258
f 323 258 116
f 324 261 259
f 324 259 138
f 324 138 292
f 325 326 216
f 325 216 215
f 325 215 290
f 325 290 137
f 325 137 289
f 327 118 262
f 327 262 187
f 327 187 118
f 263 188 263
f 263 263 119
f 263 119 188
f 328 218 266
f 328 37 218
f 329 219 79
f 329 79 189
f 329 189 263
f 329 263 63
f 329 63 266
f 329 266 139
f 329 139 219
f 330 66 215
f 330 215 272
f 330 272 195
f 330 195 66
f 331 275 278
f 331 278 104
f 331 104 276
f 331 276 275
f 332 125 51
f 332 51 52
f 332 52 124
f 332 124 199
f 333 275 274
f 333 274 279
f 333 279 332
f 333 332 199
f 333 199 198
f 333 198 275
f 334 125 332
f 334 332 279
f 334 279 67
f 334 67 53
f 334 53 125
f 335 127 70
f 335 70 68
f 335 68 282
f 335 282 203
f 335 203 127
f 336 337 75
f 336 75 76
f 336 76 285
f 286 113 286
f 286 286 181
f 286 181 113
f 338 209 286
f 338 286 269
f 338 269 268
f 339 181 286
f 339 286 209
f 339 209 181
f 340 287 7
f 340 7 132
f 341 20 342
f 341 241 20
f 343 342 20
f 343 20 211
f 344 4 171
f 344 171 172
f 344 212 4
f 345 346 347
f 345 347 271
f 345 271 265
f 345 265 188
f 348 254 349
f 348 255 350
f 351 214 185
f 351 352 214
f 353 352 351
f 353 351 354
f 353 288 352
f 355 348 354
f 355 354 351
f 356 214 352
f 356 352 288
f 356 288 59
f 356 59 214
f 357 193 272
f 357 272 293
f 357 6 193
f 358 276 103
f 358 103 359
f 358 273 276
f 360 274 273
f 360 273 358
f 360 358 359
f 361 220 296
f 361 296 69
f 361 69 295
f 362 29 299
f 362 299 223
f 362 223 29
f 363 155 232
f 363 304 158
f 364 303 360
f 364 360 359
f 364 359 103
f 364 103 304
f 364 304 363
f 364 363 232
f 364 232 303
f 365 238 22
f 365 22 308
f 365 308 240
f 365 240 241
f 365 241 239
f 365 239 307
f 365 307 163
f 365 163 238
f 366 164 236
f 366 236 312
f 366 312 246
f 366 246 164
f 367 205 133
f 367 133 134
f 367 316 76
f 367 76 205
f 368 316 367
f 368 369 318
f 368 318 253
f 368 253 316
f 370 255 319
f 370 319 254
f 370 254 348
f 370 348 350
f 370 350 255
f 371 372 183
f 371 183 56
f 373 56 58
f 373 58 257
f 373 257 182
f 374 185 323
f 374 323 116
f 374 116 322
f 375 261 324
f 376 216 326
f 377 294 216
f 377 216 376
f 377 375 324
f 377 324 292
f 377 292 294
f 378 318 369
f 378 349 254
f 378 254 317
f 378 317 25
f 378 25 318
f 379 89 37
f 379 37 328
f 380 63 227
f 380 328 266
f 380 266 63
f 381 192 271
f 381 209 338
f 381 338 268
f 381 268 192
f 382 337 336
f 382 75 337
f 383 206 284
f 383 284 12
f 384 211 210
f 384 210 287
f 385 343 211
f 386 341 342
f 386 107 239
f 386 239 241
f 386 241 341
f 387 388 213
f 387 213 389
f 387 390 391
f 387 391 388
f 392 212 344
f 392 344 388
f 392 388 391
f 392 391 393
f 392 393 212
f 394 213 388
f 394 388 344
f 394 344 172
f 394 172 213
f 395 347 346
f 395 212 393
f 396 212 395
f 396 395 346
f 396 346 1
f 396 1 212
f 397 346 345
f 397 345 188
f 397 188 1
f 397 1 346
f 398 369 353
f 398 353 354
f 398 378 369
f 399 326 325
f 399 325 289
f 399 289 288
f 399 288 353
f 399 353 369
f 399 369 326
f 400 348 355
f 400 355 372
f 400 255 348
f 401 185 374
f 401 374 322
f 401 322 355
f 401 355 351
f 401 351 185
f 402 372 355
f 402 355 322
f 402 322 321
f 402 321 183
f 402 183 372
f 403 30 6
f 403 6 357
f 403 357 293
f 403 293 30
f 404 220 361
f 404 361 295
f 404 295 274
f 404 274 360
f 404 360 303
f 405 97 155
f 405 155 363
f 405 363 158
f 405 158 233
f 405 233 21
f 405 21 97
f 406 369 368
f 406 326 369
f 407 406 368
f 407 368 367
f 407 367 134
f 408 255 400
f 408 400 372
f 408 372 371
f 408 371 56
f 408 56 373
f 408 373 182
f 408 182 255
f 409 380 227
f 409 227 89
f 409 89 379
f 410 132 75
f 410 75 382
f 410 382 411
f 412 285 208
f 412 382 336
f 412 336 285
f 413 383 12
f 413 12 209
f 414 209 381
f 414 381 271
f 415 135 206
f 415 206 383
f 415 208 135
f 416 391 390
f 417 384 287
f 417 287 340
f 417 340 132
f 417 132 410
f 418 211 384
f 418 384 419
f 420 421 422
f 420 422 416
f 420 416 423
f 420 423 424
f 420 424 425
f 420 425 421
f 426 389 386
f 426 386 342
f 427 213 107
f 427 107 386
f 427 386 389
f 427 389 213
f 428 390 387
f 428 387 389
f 428 389 426
f 428 426 429
f 428 429 423
f 428 423 416
f 428 416 390
f 430 429 426
f 430 426 342
f 430 342 343
f 430 343 385
f 431 349 378
f 431 378 398
f 431 398 354
f 431 354 348
f 431 348 349
f 432 220 404
f 432 404 303
f 432 303 231
f 432 231 220
f 433 326 406
f 433 261 375
f 434 262 261
f 434 261 407
f 434 407 134
f 434 134 262
f 435 406 407
f 435 407 261
f 435 261 433
f 435 433 406
f 436 328 380
f 436 380 409
f 436 409 379
f 436 379 328
f 437 438 414
f 437 414 271
f 437 271 347
f 439 421 425
f 440 411 382
f 440 382 412
f 440 412 208
f 440 208 415
f 441 347 395
f 442 443 439
f 442 439 425
f 442 411 443
f 444 418 419
f 444 419 442
f 445 326 433
f 445 433 375
f 445 375 377
f 445 377 376
f 445 376 326
f 446 413 209
f 446 209 414
f 446 414 438
f 446 438 383
f 446 383 413
f 447 440 415
f 447 415 383
f 447 383 438
f 447 438 422
f 447 422 421
f 448 438 437
f 448 422 438
f 449 437 347
f 449 347 441
f 450 391 416
f 450 416 422
f 451 393 391
f 451 391 450
f 451 450 422
f 451 449 441
f 451 441 395
f 451 395 393
f 452 384 417
f 452 417 442
f 452 442 419
f 452 419 384
f 453 411 442
f 453 442 417
f 453 417 410
f 453 410 411
f 454 424 423
f 454 444 442
f 454 442 425
f 454 425 424
f 455 443 411
f 455 411 440
f 455 440 447
f 455 447 421
f 455 421 439
f 455 439 443
f 456 449 451
f 456 451 422
f 456 422 448
f 456 448 437
f 456 437 449
f 457 454 423
f 457 423 429
f 458 430 385
f 458 385 211
f 458 211 418
f 458 418 444
f 458 444 454
f 458 454 457
f 458 457 429
f 458 429 430
