# Normalized convex hull collision mesh - generated by scripts/generate-collision-meshes.mjs (units: meters)
v 0.027000 0.019564 -0.019961
v 0.027000 -0.005672 0.019699
v 0.027000 -0.019564 -0.019961
v -0.027000 -0.019564 0.019744
v -0.023776 -0.021000 -0.019961
v -0.023776 -0.021000 0.019744
v -0.027000 -0.005564 0.019699
v -0.027000 0.019564 -0.019961
v -0.027000 0.019564 0.019744
v 0.023776 -0.021000 0.019744
v 0.027000 0.019564 0.019744
v 0.020633 0.011128 -0.022217
v -0.027000 -0.016642 -0.008020
v -0.015685 0.004939 0.022000
v 0.011904 0.003447 0.022000
v -0.000000 0.020462 0.022000
v -0.027000 -0.019564 -0.019961
v 0.003318 0.009819 -0.027000
v -0.004433 0.011128 -0.027000
v 0.000534 0.013088 -0.027000
v -0.003318 0.012437 -0.027000
v 0.027000 -0.019564 0.019744
v 0.023776 -0.021000 -0.019961
v 0.020346 0.013362 0.022000
v -0.023776 0.021000 -0.019961
v -0.019593 0.014438 0.022000
v -0.013896 0.004142 0.022000
v -0.020594 0.011694 -0.022217
v -0.003318 0.009819 -0.027000
v 0.003925 0.012046 -0.027000
v -0.004304 0.011601 -0.027000
v -0.000534 0.009168 -0.027000
v 0.002526 0.020393 0.022000
v 0.019593 0.007819 0.022000
v -0.002526 0.020393 0.022000
v 0.023776 0.021000 0.019744
v -0.023776 0.021000 0.019744
v -0.019593 0.007819 0.022000
v -0.020955 0.011128 0.022000
v -0.002526 0.001863 0.022000
v -0.020594 0.010562 -0.022217
v -0.004304 0.010656 -0.027000
v 0.002518 0.012753 -0.027000
v 0.004433 0.011128 -0.027000
v -0.003925 0.012046 -0.027000
v -0.001572 0.009282 -0.027000
v 0.001572 0.009282 -0.027000
v 0.020955 0.011128 0.022000
v 0.017246 0.005826 0.022000
v -0.001572 0.012974 -0.027000
v -0.005646 0.019967 -0.022217
v -0.003165 0.020209 -0.022217
v 0.023776 0.021000 -0.019961
v 0.006857 0.019796 -0.022217
v 0.004414 0.020105 -0.022217
v 0.013896 0.018114 0.022000
v -0.013896 0.018114 0.022000
v -0.017246 0.005826 0.022000
v -0.020346 0.013362 0.022000
v -0.020346 0.008895 0.022000
v -0.009738 0.002864 0.022000
v -0.000000 0.001795 0.022000
v -0.003925 0.010211 -0.027000
v 0.003318 0.012437 -0.027000
v 0.020476 0.012258 -0.022217
v 0.003925 0.010211 -0.027000
v 0.004304 0.011601 -0.027000
v -0.002518 0.009503 -0.027000
v 0.002518 0.009503 -0.027000
v 0.000534 0.009168 -0.027000
v 0.020346 0.008895 0.022000
v 0.020802 0.012253 0.022000
v 0.018555 0.006791 0.022000
v 0.013896 0.004142 0.022000
v -0.002518 0.012753 -0.027000
v -0.000534 0.013088 -0.027000
v -0.000635 0.020314 -0.022217
v 0.001572 0.012974 -0.027000
v 0.017246 0.016430 0.022000
v 0.007431 0.019855 0.022000
v -0.017246 0.016430 0.022000
v -0.007431 0.019855 0.022000
v -0.018555 0.006791 0.022000
v -0.020802 0.012253 0.022000
v -0.020802 0.010003 0.022000
v -0.005015 0.002066 0.022000
v -0.011904 0.003447 0.022000
v 0.005015 0.002066 0.022000
v 0.004304 0.010656 -0.027000
v 0.020802 0.010003 0.022000
v 0.015685 0.004939 0.022000
v -0.000000 0.020462 -0.022037
v 0.002526 0.020393 -0.022037
v 0.001904 0.020279 -0.022217
v 0.015685 0.017317 0.022000
v 0.019593 0.014438 0.022000
v 0.005015 0.020190 0.022000
v 0.011904 0.018809 0.022000
v -0.018555 0.015466 0.022000
v -0.015685 0.017317 0.022000
v -0.005015 0.020190 0.022000
v -0.011904 0.018809 0.022000
v -0.007431 0.002401 0.022000
v 0.002526 0.001863 0.022000
v 0.009738 0.002864 0.022000
v -0.002526 0.020393 -0.022037
v 0.018555 0.015466 0.022000
v 0.009738 0.019392 0.022000
v -0.009738 0.019392 0.022000
v 0.007431 0.002401 0.022000
f 1 2 3
f 4 5 6
f 4 7 8
f 9 8 7
f 9 7 4
f 10 6 5
f 11 2 1
f 12 1 3
f 13 4 8
f 14 15 16
f 17 5 4
f 17 4 13
f 17 13 8
f 18 19 20
f 21 20 19
f 22 2 11
f 22 10 3
f 22 3 2
f 23 3 10
f 23 10 5
f 23 18 3
f 24 16 15
f 25 8 9
f 25 21 8
f 26 14 16
f 27 15 14
f 27 14 4
f 27 4 6
f 28 17 8
f 28 8 19
f 29 19 18
f 29 5 17
f 30 18 20
f 31 21 19
f 31 19 8
f 32 23 5
f 32 29 18
f 33 16 24
f 34 24 15
f 35 26 16
f 36 16 33
f 36 11 1
f 37 35 16
f 37 16 36
f 37 36 25
f 37 25 9
f 38 14 26
f 39 38 26
f 39 9 4
f 40 15 27
f 41 17 28
f 41 28 19
f 41 19 17
f 42 19 29
f 42 17 19
f 43 30 20
f 44 12 3
f 44 18 30
f 45 21 31
f 45 31 8
f 45 8 21
f 46 29 32
f 46 32 5
f 47 32 18
f 48 24 34
f 48 22 11
f 49 34 15
f 50 25 51
f 50 20 21
f 52 51 25
f 53 54 55
f 53 25 36
f 53 36 1
f 56 11 36
f 56 33 24
f 57 26 35
f 57 37 9
f 58 14 38
f 58 4 14
f 59 39 26
f 59 26 9
f 60 38 39
f 60 4 38
f 61 40 27
f 62 15 40
f 62 40 6
f 62 6 10
f 63 17 42
f 63 42 29
f 63 29 17
f 64 30 43
f 64 43 53
f 64 53 1
f 64 1 30
f 65 12 44
f 65 44 1
f 65 1 12
f 66 18 44
f 66 3 18
f 67 1 44
f 67 44 30
f 67 30 1
f 68 29 46
f 68 46 5
f 68 5 29
f 69 23 47
f 69 47 18
f 69 18 23
f 70 32 47
f 70 47 23
f 70 23 32
f 71 48 34
f 71 34 22
f 72 24 48
f 72 48 11
f 72 11 24
f 73 34 49
f 73 49 22
f 73 22 34
f 74 49 15
f 74 15 10
f 74 10 22
f 75 25 50
f 75 50 21
f 75 21 25
f 76 20 50
f 76 50 51
f 76 51 52
f 76 52 77
f 76 77 20
f 78 20 55
f 78 55 54
f 78 54 53
f 78 53 43
f 78 43 20
f 79 56 24
f 80 33 56
f 81 26 57
f 82 57 35
f 83 4 58
f 83 58 38
f 83 38 4
f 84 39 59
f 84 59 9
f 84 9 39
f 85 4 60
f 85 60 39
f 85 39 4
f 86 40 61
f 86 6 40
f 87 6 61
f 87 61 27
f 87 27 6
f 88 15 62
f 89 3 66
f 89 66 44
f 89 44 3
f 90 48 71
f 90 71 22
f 90 22 48
f 91 49 74
f 91 74 22
f 91 22 49
f 92 25 53
f 92 53 93
f 94 55 20
f 94 20 77
f 94 77 92
f 94 92 93
f 94 93 53
f 94 53 55
f 95 56 79
f 95 79 11
f 95 11 56
f 96 79 24
f 96 24 11
f 97 33 80
f 97 80 36
f 97 36 33
f 98 80 56
f 98 56 36
f 99 26 81
f 99 81 9
f 99 9 26
f 100 9 81
f 100 81 57
f 100 57 9
f 101 37 82
f 101 82 35
f 101 35 37
f 102 57 82
f 102 37 57
f 103 6 86
f 103 86 61
f 103 61 6
f 104 10 88
f 104 88 62
f 104 62 10
f 105 15 88
f 105 10 15
f 106 25 92
f 106 92 77
f 106 77 52
f 106 52 25
f 107 79 96
f 107 96 11
f 107 11 79
f 108 80 98
f 108 98 36
f 108 36 80
f 109 37 102
f 109 102 82
f 109 82 37
f 110 10 105
f 110 105 88
f 110 88 10
