# Normalized convex hull collision mesh - generated by scripts/generate-collision-meshes.mjs (units: meters)
v -0.002977 -0.021150 0.002400
v 0.012796 -0.006845 0.024000
v -0.017296 -0.006845 0.024000
v -0.017296 -0.006845 -0.024000
v -0.017177 0.020857 -0.024000
v 0.012032 -0.006845 -0.024000
v 0.012677 0.014818 -0.024000
v -0.017265 0.021150 -0.023418
v -0.020700 0.021150 0.018955
v 0.012677 0.021150 -0.023429
v -0.021150 -0.006845 0.019106
v -0.021150 0.020857 0.018955
v -0.021150 0.020857 -0.018955
v 0.012677 0.021150 0.023429
v 0.012677 -0.001099 -0.024000
v -0.020691 0.021150 -0.019067
v 0.010441 0.016108 -0.024000
v -0.017177 0.020857 0.024000
v 0.013230 -0.006845 0.023772
v 0.016386 0.020857 0.019763
v 0.013314 0.020857 0.023665
v -0.021150 -0.006845 -0.019106
v -0.004495 -0.021003 0.000181
v -0.003771 -0.021150 0.001698
v -0.003764 -0.021150 -0.001708
v -0.017265 0.021150 0.023418
v 0.019710 0.021150 -0.008571
v -0.021139 0.020922 -0.018955
v -0.017814 -0.006845 -0.023665
v -0.020886 0.020857 -0.019763
v -0.017814 0.020857 -0.023665
v 0.012677 0.020857 -0.024000
v 0.012853 0.014818 -0.023978
v 0.021150 0.019479 0.008857
v 0.021150 0.017310 0.008000
v 0.021150 0.016255 -0.008857
v 0.012677 0.020857 0.024000
v 0.016470 -0.006845 0.019657
v -0.000282 -0.021150 0.000608
v 0.021150 0.016255 0.008000
v 0.016650 -0.006845 0.018955
v 0.016498 -0.006845 -0.019590
v 0.016498 0.014818 -0.019590
v 0.016191 0.021150 0.019067
v -0.021133 0.020857 -0.019178
v -0.003407 -0.021150 0.002110
v -0.004275 -0.021150 -0.000007
v -0.021139 0.020922 0.018955
v -0.020878 0.020922 -0.019753
v -0.020998 0.020857 -0.019590
v -0.021060 -0.006845 -0.019513
v -0.021081 0.020857 -0.019393
v -0.020970 -0.006845 -0.019657
v -0.017439 -0.006845 -0.023978
v -0.002771 -0.021003 -0.002780
v 0.012677 -0.006845 -0.024000
v -0.017177 0.021121 -0.023677
v 0.012677 0.021086 -0.023785
v -0.017177 0.021086 -0.023785
v 0.012677 0.021040 -0.023875
v 0.012677 0.020984 -0.023943
v -0.017177 0.020984 -0.023943
v 0.016378 0.020922 0.019753
v 0.016489 0.020922 0.019582
v 0.016355 0.020984 0.019723
v 0.016317 0.021040 0.019675
v 0.016417 0.021040 0.019521
v 0.021150 0.019890 -0.008571
v 0.016402 -0.006905 0.019577
v 0.016321 -0.006962 0.019523
v -0.001523 -0.021150 0.002400
v 0.016650 -0.006845 -0.018955
v 0.016633 -0.006845 -0.019178
v 0.016581 -0.006845 -0.019393
v 0.016386 -0.006845 -0.019763
v 0.013314 -0.006845 -0.023665
v 0.013314 0.020857 -0.023665
v -0.002967 -0.021150 -0.002405
v -0.001533 -0.021150 -0.002405
v -0.017616 -0.006845 0.023885
v -0.017485 -0.006845 0.023961
v -0.017522 0.020857 0.023913
v -0.017392 -0.006845 0.023990
v -0.021071 0.020922 -0.019387
v -0.003875 -0.021003 0.001976
v -0.020821 -0.006962 0.019523
v -0.004468 -0.021003 -0.000483
v -0.004041 -0.021150 -0.001199
v -0.004319 -0.021003 -0.001122
v -0.004059 -0.021003 -0.001699
v -0.004046 -0.021150 0.001187
v -0.021133 0.020857 0.019178
v -0.021105 0.020984 -0.018955
v -0.020855 0.020984 0.019723
v -0.017782 0.020984 0.023625
v -0.020817 0.021040 0.019675
v -0.020886 0.020857 0.019763
v -0.020970 -0.006845 0.019657
v -0.017730 -0.006845 0.023772
v -0.021083 -0.006845 0.019459
v -0.004402 -0.021003 0.000836
v -0.017574 -0.006845 -0.023915
v 0.013022 -0.006845 -0.023913
v 0.013022 0.020857 -0.023913
v -0.017495 0.021150 -0.023261
v -0.020639 0.021143 -0.019449
v -0.017566 0.021143 -0.023351
v -0.020706 0.021121 -0.019535
v -0.017177 0.021143 -0.023556
v 0.012677 0.021143 -0.023556
v 0.012677 0.021121 -0.023677
v 0.012803 0.021121 -0.023661
v -0.017177 0.021040 -0.023875
v 0.012834 0.021040 -0.023856
v 0.013177 0.014818 -0.023807
v 0.012853 0.020857 -0.023978
v 0.012851 0.020922 -0.023964
v 0.012677 0.020922 -0.023986
v 0.016461 0.020984 0.019559
v 0.016498 0.020857 0.019590
v 0.016560 -0.006845 0.019513
v 0.021150 0.019479 -0.008857
v 0.021150 0.019890 0.008571
v 0.020149 0.021150 0.008127
v 0.013282 0.020984 0.023625
v -0.000729 -0.021150 0.001698
v 0.016373 -0.006962 0.019446
v 0.016650 -0.006845 0.019106
v -0.000098 -0.021003 0.000836
v 0.016642 -0.006845 0.019228
v 0.016620 -0.006845 0.019347
v 0.016470 -0.006962 -0.019334
v 0.012995 0.021150 0.023261
v -0.003399 -0.021150 -0.002118
v -0.002006 -0.021150 -0.002553
v -0.017564 -0.006962 0.023649
v -0.003471 -0.021003 0.002400
v -0.020989 0.020922 -0.019582
v -0.021122 0.020922 -0.019175
v -0.021120 -0.006845 -0.019347
v -0.004215 -0.021150 -0.000621
v -0.004218 -0.021150 0.000608
v -0.017353 0.020857 0.023978
v -0.017177 0.021150 0.023429
v -0.017344 0.020984 0.023923
v -0.017177 0.020984 0.023943
v -0.017334 0.021040 0.023856
v -0.017505 0.020984 0.023861
v -0.021052 0.021040 -0.018955
v -0.020981 0.021086 0.018955
v -0.020981 0.021086 -0.018955
v -0.017814 0.020857 0.023665
v -0.020878 0.020922 0.019753
v -0.021133 -0.006845 0.019288
v -0.021081 0.020857 0.019393
v -0.004191 -0.021003 0.001445
v -0.020902 -0.006905 0.019577
v -0.021122 0.020922 0.019175
v -0.021071 0.020922 0.019387
v -0.021040 0.020984 0.019371
v -0.021089 0.020984 0.019167
v -0.020846 0.021121 0.019269
v -0.020787 0.021121 0.019410
v -0.020758 0.021143 0.019223
v -0.021036 0.021040 0.019154
v -0.020967 0.021086 0.019136
v -0.020925 0.021086 0.019310
v -0.020883 0.021121 0.019115
v -0.020568 0.021150 0.019359
v -0.020639 0.021143 0.019449
v -0.017566 0.021143 0.023351
v -0.017694 0.021086 0.023513
v -0.020767 0.021086 0.019611
v -0.020895 0.021121 0.018955
v -0.020800 0.021143 0.018955
v -0.020873 -0.006962 -0.019446
v -0.017677 0.020857 -0.023807
v -0.017656 -0.006845 -0.023851
v -0.017730 -0.006845 -0.023772
v -0.017625 -0.006962 -0.023582
v -0.020821 -0.006962 -0.019523
v 0.012853 -0.001099 -0.023978
v -0.017427 0.021150 -0.023332
v -0.020568 0.021150 -0.019359
v -0.020707 0.021143 -0.019343
v -0.017177 0.021150 -0.023429
v -0.017303 0.021121 -0.023661
v -0.017177 0.020922 -0.023986
v -0.017351 0.020922 -0.023964
v -0.017353 0.020857 -0.023978
v 0.012820 0.021086 -0.023767
v 0.012844 0.020984 -0.023923
v 0.013005 0.020984 -0.023861
v 0.016498 0.020857 -0.019590
v 0.016378 0.020922 -0.019753
v 0.016489 0.020922 -0.019582
v 0.013306 0.020922 -0.023655
v 0.013282 0.020984 -0.023625
v 0.016355 0.020984 -0.019723
v 0.013177 0.020857 -0.023807
v 0.013177 -0.006845 -0.023807
v 0.016581 0.020857 0.019393
v 0.016139 0.021143 0.019449
v 0.013066 0.021143 0.023351
v 0.013133 0.021121 0.023437
v 0.020206 0.021143 0.008303
v 0.020246 0.021143 0.008155
v 0.020544 0.020984 -0.008242
v 0.020481 0.020984 -0.008471
v 0.016540 0.020984 -0.019371
v 0.020160 0.021150 -0.008000
v 0.020260 0.021143 0.008000
v 0.020260 0.021143 -0.008000
v 0.012853 0.020857 0.023978
v -0.001093 -0.021150 0.002110
v -0.000625 -0.021003 0.001976
v 0.013125 -0.006962 0.023582
v 0.016369 -0.006931 0.019549
v 0.021150 0.016255 0.008857
v -0.000454 -0.021150 0.001187
v -0.000459 -0.021150 -0.001199
v 0.012849 0.021150 0.023385
v 0.013123 0.021040 -0.023704
v 0.013152 0.020984 -0.023760
v 0.013244 0.021040 -0.023577
v 0.013194 0.021086 -0.023513
v 0.016267 0.021086 -0.019611
v -0.003263 -0.021003 -0.002551
v -0.003700 -0.021003 -0.002185
v -0.017645 -0.006931 -0.023643
v -0.002494 -0.021150 -0.002553
v -0.002250 -0.021003 -0.002857
v 0.012853 -0.006845 -0.023978
v -0.017645 -0.006930 0.023645
v -0.021142 -0.006845 -0.019228
v -0.017177 0.020922 0.023986
v -0.017351 0.020922 0.023964
v -0.020989 0.020922 0.019582
v -0.020961 0.020984 0.019559
v -0.020917 0.021040 0.019521
v -0.017677 0.020857 0.023807
v -0.017806 0.020922 0.023655
v -0.021033 -0.006845 0.019563
v -0.020869 -0.006931 0.019549
v -0.020991 0.021040 0.019345
v -0.021052 0.021040 0.018955
v -0.020790 0.021143 0.019091
v -0.020800 0.021143 -0.018955
v -0.017495 0.021150 0.023261
v -0.020666 0.021150 0.019174
v -0.020706 0.021121 0.019535
v -0.020707 0.021143 0.019343
v -0.017744 0.021040 0.023577
v -0.017583 0.021086 0.023629
v -0.017484 0.021040 0.023798
v -0.017320 0.021086 0.023767
v 0.012677 0.021040 0.023875
v 0.012834 0.021040 0.023856
v 0.012820 0.021086 0.023767
v -0.020817 0.021040 -0.019675
v -0.017694 0.021086 -0.023513
v -0.017744 0.021040 -0.023577
v -0.020902 -0.006905 -0.019577
v -0.017782 0.020984 -0.023625
v -0.017667 -0.006905 -0.023686
v -0.020624 0.021150 -0.019273
v -0.017483 0.021143 -0.023438
v -0.017388 0.021143 -0.023503
v -0.017349 0.021150 -0.023385
v -0.017320 0.021086 -0.023767
v -0.017424 0.021121 -0.023614
v -0.017285 0.021143 -0.023542
v -0.017633 0.021121 -0.023437
v -0.017457 0.021086 -0.023714
v -0.017484 0.021040 -0.023798
v -0.017583 0.021086 -0.023629
v -0.017344 0.020984 -0.023923
v -0.017522 0.020857 -0.023913
v -0.017517 0.020922 -0.023900
v 0.016386 0.020857 -0.019763
v 0.016581 0.020857 -0.019393
v 0.013017 0.020922 -0.023900
v 0.016357 0.021086 0.019471
v 0.016491 0.021040 0.019345
v 0.016425 0.021086 0.019310
v 0.016267 0.021086 0.019611
v 0.013194 0.021086 0.023513
v 0.016068 0.021150 0.019359
v 0.016206 0.021121 0.019535
v 0.016287 0.021121 0.019410
v 0.016346 0.021121 0.019269
v 0.016207 0.021143 0.019343
v 0.016166 0.021150 0.019174
v 0.016461 0.020984 -0.019559
v 0.016571 0.020922 -0.019387
v 0.020565 0.020984 -0.008000
v 0.020512 0.021040 -0.008000
v 0.020512 0.021040 0.008000
v 0.020432 0.021040 -0.008442
v 0.016068 0.021150 -0.019359
v 0.016139 0.021143 -0.019449
v 0.013066 0.021143 -0.023351
v 0.020160 0.021150 0.008000
v 0.013306 0.020922 0.023655
v 0.012677 0.021086 0.023785
v 0.012677 0.021121 0.023677
v -0.017177 0.021121 0.023677
v -0.017177 0.021143 0.023556
v 0.013177 0.020857 0.023807
v 0.013017 0.020922 0.023900
v 0.013022 0.020857 0.023913
v 0.013074 -0.006845 0.023915
v 0.012939 -0.006845 0.023978
v -0.001029 -0.021003 0.002400
v -0.000309 -0.021003 0.001445
v -0.000032 -0.021003 -0.000483
v 0.012927 0.021150 0.023332
v 0.013133 0.021121 -0.023437
v 0.012785 0.021143 -0.023542
v 0.013083 0.021086 -0.023629
v 0.012984 0.021040 -0.023798
v -0.001729 -0.021003 -0.002780
v -0.017667 -0.006905 0.023686
v -0.017625 -0.006962 0.023582
v -0.017483 0.021143 0.023438
v -0.017536 0.021121 0.023538
v -0.017388 0.021143 0.023503
v -0.017457 0.021086 0.023714
v -0.017517 0.020922 0.023900
v -0.020998 0.020857 0.019590
v -0.020857 0.021086 0.019471
v -0.021105 0.020984 0.018955
v -0.020758 0.021143 -0.019223
v -0.020700 0.021150 -0.018955
v -0.020895 0.021121 -0.018955
v -0.020883 0.021121 -0.019115
v -0.017349 0.021150 0.023385
v -0.020691 0.021150 0.019067
v -0.017633 0.021121 0.023437
v -0.020624 0.021150 0.019273
v -0.017623 0.021040 0.023704
v -0.017652 0.020984 0.023760
v -0.017177 0.021040 0.023875
v 0.012677 0.020984 0.023943
v -0.021089 0.020984 -0.019167
v -0.020925 0.021086 -0.019310
v -0.020846 0.021121 -0.019269
v -0.020857 0.021086 -0.019471
v -0.020991 0.021040 -0.019345
v -0.021036 0.021040 -0.019154
v -0.020917 0.021040 -0.019521
v -0.021040 0.020984 -0.019371
v -0.020961 0.020984 -0.019559
v -0.020787 0.021121 -0.019410
v -0.020767 0.021086 -0.019611
v -0.020870 -0.006930 -0.019550
v -0.017806 0.020922 -0.023655
v -0.017505 0.020984 -0.023861
v -0.020855 0.020984 -0.019723
v -0.017536 0.021121 -0.023538
v -0.017334 0.021040 -0.023856
v 0.013171 0.020922 -0.023795
v 0.013244 0.021040 0.023577
v 0.012984 0.021040 0.023798
v 0.013005 0.020984 0.023861
v 0.020115 0.021150 0.008248
v 0.016124 0.021150 0.019273
v 0.016258 0.021143 0.019223
v 0.020565 0.020984 0.008000
v 0.016540 0.020984 0.019371
v 0.020291 0.021121 0.008356
v 0.020441 0.021086 -0.008000
v 0.020432 0.021040 0.008442
v 0.020599 0.020922 -0.008000
v 0.016206 0.021121 -0.019535
v 0.016357 0.021086 -0.019471
v 0.016317 0.021040 -0.019675
v 0.016491 0.021040 -0.019345
v 0.020492 0.021040 -0.008227
v 0.020368 0.021086 -0.008403
v 0.020115 0.021150 -0.008248
v 0.012995 0.021150 -0.023261
v 0.013036 0.021121 0.023538
v -0.017177 0.021086 0.023785
v -0.017285 0.021143 0.023542
v 0.013156 -0.006845 0.023851
v 0.013171 0.020922 0.023795
v 0.013152 0.020984 0.023760
v -0.000736 -0.021150 -0.001708
v -0.000005 -0.021003 0.000181
v -0.000285 -0.021150 -0.000621
v 0.012924 0.021121 -0.023614
v 0.012957 0.021086 -0.023714
v -0.017424 0.021121 0.023614
v -0.017671 0.020922 0.023795
v -0.020790 0.021143 -0.019091
v -0.020666 0.021150 -0.019174
v -0.017427 0.021150 0.023332
v 0.012677 0.020922 0.023986
v -0.020967 0.021086 -0.019136
v -0.017623 0.021040 -0.023704
v -0.017652 0.020984 -0.023760
v -0.017671 0.020922 -0.023795
v 0.013123 0.021040 0.023704
v 0.016571 0.020922 0.019387
v 0.020339 0.021121 0.008182
v 0.020368 0.021086 0.008403
v 0.020422 0.021086 0.008206
v 0.020481 0.020984 0.008471
v 0.020599 0.020922 0.008000
v 0.016417 0.021040 -0.019521
v 0.016425 0.021086 -0.019310
v 0.020422 0.021086 -0.008206
v 0.020339 0.021121 -0.008182
v 0.020291 0.021121 -0.008356
v 0.020206 0.021143 -0.008303
v 0.016166 0.021150 -0.019174
v 0.020149 0.021150 -0.008127
v 0.012765 0.021150 -0.023418
v 0.012888 0.021143 -0.023503
v 0.012888 0.021143 0.023503
v 0.012924 0.021121 0.023614
v 0.012785 0.021143 0.023542
v 0.012957 0.021086 0.023714
v 0.012677 0.021143 0.023556
v 0.012765 0.021150 0.023418
v 0.012803 0.021121 0.023661
v 0.013146 -0.006929 0.023647
v 0.012975 -0.006962 -0.023771
v -0.001237 -0.021003 -0.002551
v -0.000441 -0.021003 -0.001699
v -0.001101 -0.021150 -0.002118
v -0.000800 -0.021003 -0.002185
v -0.000225 -0.021150 -0.000007
v -0.000181 -0.021003 -0.001122
v -0.017303 0.021121 0.023661
v 0.012851 0.020922 0.023964
v 0.013083 0.021086 0.023629
v 0.020441 0.021086 0.008000
v 0.020544 0.020984 0.008242
v 0.016346 0.021121 -0.019269
v 0.020246 0.021143 -0.008155
v 0.020355 0.021121 -0.008000
v 0.016124 0.021150 -0.019273
v 0.012983 0.021143 -0.023438
v 0.012927 0.021150 -0.023332
v 0.012983 0.021143 0.023438
v 0.013167 -0.006905 0.023686
v 0.012844 0.020984 0.023923
v 0.020492 0.021040 0.008227
v 0.016287 0.021121 -0.019410
v 0.020355 0.021121 0.008000
v 0.013036 0.021121 -0.023538
v 0.012849 0.021150 -0.023385
v 0.016258 0.021143 -0.019223
v 0.016207 0.021143 -0.019343
f 1 2 3
f 4 5 6
f 7 6 5
f 8 9 10
f 11 12 13
f 14 10 9
f 15 6 7
f 16 9 8
f 17 7 5
f 18 3 2
f 19 20 21
f 22 23 11
f 22 11 13
f 24 25 1
f 26 14 9
f 27 10 14
f 28 13 12
f 29 30 31
f 32 7 17
f 32 17 5
f 33 7 32
f 33 15 7
f 34 35 36
f 37 18 2
f 38 20 19
f 39 1 25
f 40 35 34
f 40 41 36
f 40 36 35
f 42 43 36
f 44 27 14
f 45 13 28
f 46 24 1
f 47 25 24
f 48 28 12
f 49 31 30
f 50 49 30
f 50 51 52
f 53 30 29
f 53 51 50
f 53 50 30
f 54 4 55
f 56 15 33
f 56 6 15
f 57 58 59
f 60 59 58
f 60 61 62
f 63 64 65
f 63 21 20
f 66 65 67
f 68 34 36
f 69 38 70
f 71 2 1
f 71 1 39
f 72 73 36
f 72 36 41
f 74 42 36
f 74 36 73
f 75 76 77
f 75 43 42
f 78 54 55
f 78 39 25
f 79 39 78
f 80 1 81
f 80 81 82
f 83 81 1
f 83 1 3
f 83 3 18
f 84 50 52
f 85 24 46
f 85 86 24
f 87 47 23
f 87 23 22
f 88 25 47
f 88 89 51
f 88 51 90
f 88 90 25
f 91 47 24
f 92 48 12
f 92 12 11
f 93 28 48
f 94 95 96
f 97 98 99
f 100 101 91
f 102 54 78
f 103 33 104
f 105 16 8
f 106 105 107
f 106 107 108
f 109 10 110
f 109 110 57
f 111 58 57
f 111 57 110
f 111 110 112
f 113 59 60
f 113 60 62
f 114 61 60
f 115 77 76
f 115 103 104
f 116 33 32
f 116 117 104
f 116 104 33
f 118 61 117
f 118 117 116
f 118 116 32
f 118 32 5
f 118 62 61
f 119 65 64
f 119 67 65
f 120 121 34
f 120 64 63
f 120 63 20
f 120 20 38
f 120 38 121
f 122 68 36
f 122 36 43
f 123 34 68
f 124 27 44
f 125 65 66
f 125 63 65
f 126 71 39
f 127 38 69
f 127 69 126
f 127 126 121
f 127 121 38
f 128 41 40
f 129 128 130
f 129 130 131
f 132 76 75
f 132 75 42
f 132 42 74
f 132 74 73
f 133 44 14
f 134 78 25
f 135 79 78
f 136 46 80
f 136 80 99
f 137 1 80
f 137 80 46
f 137 46 1
f 138 50 84
f 138 49 50
f 139 45 28
f 139 28 93
f 139 84 52
f 139 52 45
f 140 45 52
f 140 52 51
f 140 51 89
f 140 89 87
f 141 87 89
f 141 89 88
f 141 88 47
f 141 47 87
f 142 47 91
f 142 91 101
f 142 101 23
f 142 23 47
f 143 82 81
f 143 81 83
f 143 83 18
f 144 14 26
f 145 146 147
f 145 147 148
f 149 150 151
f 152 97 99
f 153 97 152
f 153 95 94
f 154 101 100
f 154 100 155
f 154 155 92
f 154 92 11
f 154 11 23
f 156 100 91
f 156 91 24
f 157 86 98
f 158 92 155
f 158 155 159
f 158 159 160
f 158 160 161
f 158 48 92
f 162 163 164
f 165 161 160
f 166 167 162
f 166 162 168
f 169 26 9
f 170 171 169
f 172 173 96
f 174 168 175
f 174 151 150
f 174 150 166
f 174 166 168
f 176 51 53
f 176 25 90
f 176 90 51
f 177 178 31
f 177 102 178
f 179 29 31
f 179 31 178
f 180 25 181
f 182 33 103
f 182 56 33
f 183 105 8
f 184 105 106
f 184 16 105
f 185 184 106
f 186 10 109
f 186 109 8
f 186 8 10
f 187 109 57
f 188 189 62
f 188 62 118
f 188 118 5
f 190 5 4
f 190 4 54
f 190 189 188
f 190 188 5
f 191 58 111
f 191 111 112
f 191 114 60
f 191 60 58
f 192 117 61
f 192 61 114
f 192 114 193
f 192 193 117
f 194 43 75
f 194 195 196
f 194 122 43
f 197 198 195
f 197 195 77
f 199 196 195
f 199 195 198
f 200 77 115
f 200 115 104
f 200 197 77
f 201 103 115
f 201 115 76
f 202 120 34
f 203 204 205
f 203 133 204
f 206 207 124
f 208 68 209
f 210 209 68
f 211 10 27
f 211 27 124
f 212 213 211
f 212 124 207
f 214 37 2
f 215 71 126
f 216 215 126
f 216 126 70
f 216 70 217
f 218 70 126
f 218 126 69
f 218 69 70
f 219 130 128
f 219 128 40
f 219 40 34
f 219 34 121
f 219 121 131
f 219 131 130
f 129 128 129
f 129 129 41
f 129 41 128
f 220 126 39
f 220 39 129
f 220 129 131
f 220 131 121
f 221 39 79
f 222 133 14
f 223 224 193
f 223 198 224
f 225 198 223
f 225 226 227
f 225 199 198
f 228 78 134
f 228 134 102
f 228 102 78
f 229 178 134
f 229 134 25
f 229 25 180
f 229 180 230
f 134 102 134
f 134 134 178
f 134 178 102
f 231 135 78
f 231 78 55
f 232 135 231
f 232 231 55
f 232 55 4
f 232 4 6
f 232 6 56
f 233 135 232
f 233 232 56
f 233 56 182
f 233 182 103
f 234 85 46
f 234 46 136
f 234 99 98
f 234 98 86
f 235 45 140
f 235 140 87
f 235 87 22
f 235 22 13
f 235 13 45
f 236 143 18
f 236 18 37
f 237 143 236
f 237 236 146
f 237 146 145
f 237 145 148
f 237 82 143
f 238 153 94
f 238 94 239
f 238 239 160
f 238 160 159
f 240 160 239
f 240 239 94
f 240 94 96
f 241 80 82
f 241 152 99
f 241 99 80
f 242 95 153
f 242 153 152
f 242 152 241
f 154 101 154
f 154 154 23
f 154 23 101
f 243 100 156
f 243 156 24
f 243 24 157
f 243 157 98
f 243 98 97
f 244 86 157
f 244 157 24
f 244 24 86
f 245 167 166
f 245 166 165
f 245 165 160
f 245 160 240
f 246 149 93
f 246 165 166
f 246 166 150
f 246 150 149
f 247 175 168
f 247 168 162
f 247 162 164
f 248 174 175
f 248 175 9
f 249 26 169
f 249 169 171
f 250 169 9
f 251 171 170
f 251 170 163
f 251 173 172
f 252 164 163
f 252 163 170
f 252 170 169
f 253 254 172
f 253 172 96
f 253 96 95
f 255 148 147
f 255 147 256
f 257 258 259
f 260 261 262
f 263 176 53
f 264 260 262
f 265 230 180
f 265 180 179
f 265 179 178
f 265 178 229
f 265 229 230
f 266 184 185
f 266 16 184
f 267 107 105
f 267 105 183
f 267 183 268
f 269 8 268
f 269 268 183
f 269 183 8
f 270 59 113
f 270 271 187
f 270 187 57
f 270 57 59
f 272 268 8
f 272 8 109
f 272 109 187
f 272 187 271
f 272 271 268
f 273 261 108
f 273 108 107
f 274 271 270
f 274 270 275
f 276 261 273
f 276 271 274
f 276 274 275
f 276 262 261
f 277 62 189
f 278 54 102
f 278 102 177
f 278 177 279
f 278 279 189
f 278 189 190
f 278 190 54
f 280 195 194
f 280 194 75
f 280 75 77
f 280 77 195
f 281 122 194
f 282 200 104
f 282 104 117
f 282 117 193
f 283 67 284
f 283 284 285
f 283 286 66
f 283 66 67
f 287 66 286
f 287 286 205
f 288 133 203
f 288 44 133
f 289 290 203
f 289 203 205
f 289 205 286
f 289 286 283
f 289 283 290
f 291 290 283
f 291 283 285
f 292 203 290
f 292 288 203
f 293 44 288
f 293 124 44
f 294 210 196
f 294 196 199
f 295 196 210
f 295 210 68
f 295 68 122
f 295 122 281
f 295 281 194
f 295 194 196
f 296 208 297
f 296 297 298
f 296 68 208
f 299 208 209
f 300 10 211
f 300 301 302
f 303 124 212
f 303 212 211
f 303 211 124
f 304 21 63
f 304 63 125
f 305 259 306
f 305 306 307
f 305 257 259
f 308 307 306
f 308 14 144
f 308 144 26
f 309 21 304
f 309 310 311
f 309 311 312
f 313 312 311
f 313 311 214
f 313 214 2
f 313 2 71
f 313 71 312
f 314 71 215
f 314 312 71
f 315 126 220
f 315 220 121
f 315 121 126
f 316 132 73
f 316 73 72
f 317 133 222
f 318 302 301
f 318 227 226
f 319 112 110
f 320 318 226
f 320 226 225
f 320 225 223
f 321 114 191
f 321 320 223
f 321 223 193
f 321 193 114
f 233 135 233
f 233 233 79
f 233 79 135
f 322 79 233
f 323 99 234
f 323 234 136
f 323 136 99
f 324 85 234
f 324 234 86
f 324 86 85
f 325 171 326
f 325 326 327
f 325 249 171
f 328 254 255
f 328 255 256
f 329 82 237
f 329 237 148
f 329 241 82
f 330 155 100
f 330 100 243
f 330 243 97
f 330 97 153
f 330 153 238
f 330 238 159
f 330 159 155
f 331 173 251
f 331 251 163
f 331 163 162
f 331 162 167
f 331 167 245
f 331 245 240
f 331 240 96
f 331 96 173
f 332 48 158
f 332 158 161
f 332 161 165
f 332 165 246
f 332 246 93
f 332 93 48
f 333 266 185
f 334 16 248
f 334 248 9
f 334 9 16
f 335 174 248
f 335 248 336
f 335 151 174
f 337 26 249
f 337 327 26
f 338 247 164
f 338 164 250
f 338 250 9
f 338 9 175
f 338 175 247
f 339 326 171
f 339 171 251
f 339 251 172
f 339 172 254
f 339 254 326
f 340 250 164
f 340 164 252
f 340 252 169
f 340 169 250
f 341 342 148
f 341 148 255
f 341 255 254
f 341 254 253
f 341 253 95
f 341 95 342
f 343 147 146
f 343 146 257
f 343 257 305
f 343 256 147
f 344 258 257
f 344 257 146
f 344 146 236
f 345 139 93
f 346 347 348
f 346 348 349
f 350 345 93
f 350 93 149
f 351 349 348
f 351 348 260
f 352 84 139
f 352 139 345
f 352 345 350
f 352 350 349
f 352 349 351
f 352 351 353
f 352 353 138
f 352 138 84
f 354 348 347
f 354 347 333
f 354 333 185
f 354 185 106
f 354 106 108
f 354 108 348
f 355 261 260
f 355 260 348
f 355 348 108
f 355 108 261
f 356 25 176
f 356 176 263
f 356 263 53
f 356 53 29
f 356 29 179
f 356 179 180
f 356 180 181
f 356 181 25
f 357 177 31
f 357 31 49
f 357 49 264
f 358 277 189
f 358 189 279
f 359 260 264
f 359 264 49
f 359 49 138
f 359 138 353
f 359 353 351
f 359 351 260
f 360 271 276
f 360 276 273
f 360 273 107
f 360 107 267
f 360 267 268
f 360 268 271
f 361 270 113
f 361 113 62
f 361 62 277
f 361 277 358
f 361 358 275
f 361 275 270
f 362 224 198
f 362 198 197
f 362 197 200
f 362 200 282
f 362 282 193
f 362 193 224
f 363 66 287
f 363 125 66
f 364 259 258
f 364 258 365
f 366 124 293
f 366 293 206
f 366 206 124
f 367 293 288
f 367 288 292
f 368 206 293
f 368 293 367
f 368 367 292
f 368 292 290
f 368 290 291
f 369 296 298
f 370 119 64
f 370 284 67
f 370 67 119
f 371 206 368
f 371 368 291
f 372 298 297
f 373 285 284
f 374 68 296
f 374 296 369
f 374 123 68
f 375 376 227
f 375 227 318
f 375 318 301
f 377 199 225
f 377 225 227
f 377 227 376
f 378 299 209
f 378 209 210
f 379 297 208
f 379 208 299
f 379 299 380
f 381 300 211
f 382 10 300
f 382 300 302
f 383 205 204
f 384 256 343
f 384 343 305
f 384 305 307
f 384 307 256
f 385 308 26
f 385 26 327
f 386 19 21
f 386 21 309
f 386 309 312
f 386 312 314
f 386 314 215
f 387 388 365
f 387 365 310
f 387 310 309
f 387 309 304
f 387 304 125
f 387 125 388
f 389 221 79
f 390 41 129
f 390 129 39
f 390 316 72
f 390 72 41
f 391 39 221
f 392 112 319
f 392 191 112
f 393 320 321
f 393 321 191
f 393 191 392
f 393 392 320
f 322 103 322
f 322 322 233
f 322 233 103
f 394 326 254
f 394 254 328
f 394 328 256
f 394 385 327
f 394 327 326
f 395 342 95
f 395 95 242
f 395 242 241
f 395 241 329
f 395 329 148
f 395 148 342
f 396 336 248
f 396 248 16
f 396 16 333
f 396 333 347
f 396 347 336
f 397 266 333
f 397 333 16
f 397 16 266
f 398 325 327
f 398 327 337
f 398 337 249
f 398 249 325
f 399 344 236
f 399 236 37
f 399 37 214
f 400 346 349
f 400 349 350
f 400 350 149
f 400 149 151
f 400 151 335
f 400 335 336
f 400 336 347
f 400 347 346
f 401 358 402
f 401 402 264
f 401 264 262
f 401 262 276
f 401 276 275
f 401 275 358
f 403 279 177
f 403 177 357
f 403 357 264
f 403 264 402
f 403 402 358
f 403 358 279
f 404 388 125
f 404 125 363
f 404 364 365
f 404 365 388
f 405 123 370
f 405 370 64
f 405 64 120
f 405 120 202
f 405 202 34
f 405 34 123
f 406 207 206
f 406 206 371
f 406 212 207
f 407 285 373
f 407 408 406
f 407 406 371
f 407 371 291
f 407 291 285
f 409 370 123
f 409 373 284
f 409 284 370
f 410 123 374
f 410 374 369
f 410 369 123
f 411 294 199
f 411 199 377
f 411 377 376
f 411 376 378
f 411 378 210
f 411 210 294
f 412 380 299
f 412 299 378
f 412 378 376
f 413 372 297
f 413 297 379
f 413 379 380
f 414 413 380
f 414 380 415
f 414 415 416
f 417 300 381
f 417 381 416
f 418 416 381
f 418 381 211
f 418 211 213
f 419 10 382
f 419 319 110
f 419 110 10
f 420 319 419
f 420 392 319
f 421 422 383
f 421 317 222
f 421 423 422
f 424 422 259
f 424 259 364
f 425 308 306
f 425 14 308
f 426 14 425
f 426 425 423
f 426 423 421
f 426 421 222
f 426 222 14
f 427 422 423
f 427 423 425
f 427 425 306
f 427 306 259
f 427 259 422
f 428 217 70
f 428 70 38
f 428 38 19
f 428 386 215
f 428 215 216
f 428 216 217
f 429 76 132
f 429 132 389
f 429 430 79
f 429 79 322
f 429 322 103
f 429 103 201
f 429 201 76
f 431 221 389
f 431 389 132
f 431 132 221
f 432 433 389
f 432 389 79
f 432 79 430
f 432 430 429
f 432 429 433
f 434 390 39
f 434 39 391
f 434 391 316
f 434 316 390
f 435 132 316
f 435 316 391
f 435 391 221
f 435 221 132
f 436 307 308
f 436 308 385
f 436 385 394
f 436 394 256
f 436 256 307
f 437 310 365
f 437 344 399
f 437 399 214
f 437 214 311
f 437 311 310
f 438 287 205
f 438 205 383
f 438 383 422
f 438 422 424
f 438 424 364
f 438 364 404
f 438 404 363
f 438 363 287
f 439 408 298
f 439 298 372
f 440 123 369
f 440 369 298
f 440 373 409
f 440 409 123
f 441 415 380
f 441 380 412
f 441 412 376
f 442 213 414
f 442 414 416
f 442 416 418
f 442 418 213
f 443 439 372
f 443 372 413
f 443 413 414
f 443 414 213
f 443 213 212
f 444 300 417
f 445 382 302
f 446 382 445
f 446 445 420
f 446 419 382
f 447 204 133
f 447 133 317
f 447 317 421
f 447 421 383
f 447 383 204
f 448 386 428
f 448 428 19
f 448 19 386
f 429 433 429
f 429 429 389
f 449 258 344
f 449 344 437
f 449 437 365
f 449 365 258
f 450 408 407
f 450 407 373
f 450 373 440
f 450 440 298
f 450 298 408
f 451 441 376
f 451 376 375
f 451 375 301
f 452 439 443
f 452 443 212
f 452 212 406
f 452 406 408
f 452 408 439
f 453 318 320
f 453 320 392
f 453 392 420
f 453 420 445
f 453 445 302
f 453 302 318
f 454 419 446
f 454 446 420
f 454 420 419
f 429 433 429
f 429 429 389
f 429 389 433
f 455 441 451
f 455 444 417
f 455 417 416
f 455 416 415
f 455 415 441
f 456 301 300
f 456 300 444
f 456 444 455
f 456 455 451
f 456 451 301
