# Normalized convex hull collision mesh - generated by scripts/generate-collision-meshes.mjs (units: meters)
v -0.018280 0.010000 -0.016470
v 0.018280 0.010000 0.013762
v 0.018280 0.010000 -0.016470
v 0.020000 0.008596 0.006543
v 0.020000 -0.008596 -0.009024
v 0.020000 -0.008596 0.006543
v 0.018280 -0.010000 -0.016470
v 0.018280 -0.010000 0.006543
v -0.018280 -0.010000 0.013762
v -0.003226 -0.010000 -0.016470
v -0.018190 -0.009825 -0.016695
v -0.018280 0.010000 0.013762
v -0.020000 0.008596 0.006543
v -0.018280 -0.010000 -0.016470
v -0.020000 -0.008596 -0.009024
v -0.020000 -0.008596 0.006543
v -0.020000 0.008596 -0.016470
v 0.020000 0.008596 0.013762
v 0.007742 0.009825 -0.016695
v -0.020000 -0.008596 0.013762
v -0.020000 -0.008596 -0.016470
v 0.020000 0.008596 -0.009024
v -0.009976 0.006836 -0.018500
v -0.002114 -0.001404 -0.018500
v -0.010323 -0.006842 -0.018500
v 0.007742 -0.009825 -0.016695
v 0.018190 -0.009825 -0.016695
v 0.019785 -0.008524 -0.016695
v -0.018710 -0.000000 -0.018500
v -0.009651 0.002753 0.018500
v -0.012234 0.002334 0.018500
v -0.007890 0.001985 0.018500
v -0.013502 -0.001074 0.018500
v 0.018190 0.009825 0.013988
v 0.019785 0.008524 0.013988
v 0.020000 -0.008596 0.013762
v -0.018190 -0.009825 0.013988
v 0.018190 -0.009825 0.013988
v -0.016064 -0.004988 0.016695
v -0.019785 -0.008524 0.013988
v -0.020000 0.008596 0.013762
v -0.018190 0.009825 -0.016695
v 0.020000 0.008596 -0.016470
v 0.019785 0.008524 -0.016695
v 0.018190 0.009825 -0.016695
v -0.001943 0.000283 -0.018500
v -0.005449 -0.005568 -0.018500
v -0.016600 -0.004537 -0.018500
v -0.020000 -0.002807 -0.016695
v -0.010994 0.002753 0.018500
v -0.013697 0.000548 0.018500
v -0.006948 -0.000548 0.018500
v -0.010323 -0.006842 0.016695
v -0.008411 0.002334 0.018500
v -0.009271 0.006788 0.016695
v -0.010323 0.006842 0.016695
v 0.019785 -0.008524 0.013988
v 0.018280 -0.010000 0.013762
v -0.016493 0.004634 -0.018500
v 0.020000 -0.008596 -0.016470
v -0.001964 -0.000565 -0.018500
v -0.004392 0.004838 -0.018500
v -0.003301 -0.003742 -0.018500
v -0.007274 -0.006374 -0.018500
v -0.017404 -0.003666 0.016695
v -0.017911 -0.002913 0.016695
v -0.018693 0.000430 0.016695
v -0.019785 0.008524 0.013988
v -0.017404 0.003666 0.016695
v -0.016785 0.004361 0.016695
v -0.016064 0.004988 0.016695
v -0.018165 -0.002426 -0.018500
v -0.014220 -0.006058 -0.018500
v -0.019785 -0.008524 -0.016695
v -0.020000 0.002807 -0.016695
v -0.010323 0.002807 0.018500
v -0.011639 0.002593 0.018500
v -0.012408 0.006627 0.016695
v -0.013410 0.006362 0.016695
v -0.014363 0.005996 0.016695
v -0.013184 0.001559 0.018500
v -0.007144 0.001074 0.018500
v -0.009651 -0.002753 0.018500
v -0.009006 0.002593 0.018500
v -0.006882 -0.000000 0.018500
v -0.018136 0.002487 -0.018500
v -0.013046 0.006471 -0.018500
v -0.006954 0.006266 -0.018500
v -0.002642 0.002748 -0.018500
v -0.003923 -0.004422 -0.018500
v -0.002390 -0.002222 -0.018500
v -0.009285 -0.006790 -0.018500
v -0.006331 -0.006017 -0.018500
v -0.016785 -0.004361 0.016695
v -0.018561 -0.001282 0.016695
v -0.015252 0.005535 0.016695
v -0.018190 0.009825 0.013988
v -0.015884 -0.005121 -0.018500
v -0.012330 -0.006643 -0.018500
v -0.017225 -0.003887 -0.018500
v -0.018649 -0.000825 -0.018500
v -0.011374 0.006788 0.016695
v -0.012756 0.001985 0.018500
v -0.007462 0.001559 0.018500
v -0.007890 -0.001985 0.018500
v -0.012234 -0.002334 0.018500
v -0.009271 -0.006788 0.016695
v -0.006948 0.000548 0.018500
v -0.019785 0.008524 -0.016695
v -0.011015 0.006819 -0.018500
v -0.014910 0.005728 -0.018500
v -0.006029 0.005878 -0.018500
v -0.008942 0.006749 -0.018500
v -0.002284 0.001952 -0.018500
v -0.003118 0.003502 -0.018500
v -0.004642 -0.005034 -0.018500
v -0.002788 -0.003005 -0.018500
v -0.008264 -0.006633 -0.018500
v -0.013763 -0.000000 0.018500
v -0.018299 -0.002114 0.016695
v -0.017911 0.002913 0.016695
v -0.018299 0.002114 0.016695
v -0.018561 0.001282 0.016695
v -0.015087 -0.005631 -0.018500
v -0.011334 -0.006792 -0.018500
v -0.013297 -0.006397 -0.018500
v -0.017749 -0.003180 -0.018500
v -0.018466 -0.001637 -0.018500
v -0.008411 -0.002334 0.018500
v -0.007144 -0.001074 0.018500
v -0.013184 -0.001559 0.018500
v -0.017148 0.003976 -0.018500
v -0.018645 0.000846 -0.018500
v -0.012044 0.006696 -0.018500
v -0.015743 0.005221 -0.018500
v -0.014006 0.006147 -0.018500
v -0.005171 0.005399 -0.018500
v -0.007929 0.006558 -0.018500
v -0.002050 0.001126 -0.018500
v -0.003704 0.004203 -0.018500
v -0.013697 -0.000548 0.018500
v -0.018693 -0.000430 0.016695
v -0.013502 0.001074 0.018500
v -0.009006 -0.002593 0.018500
v -0.007462 -0.001559 0.018500
v -0.010994 -0.002753 0.018500
v -0.014363 -0.005996 0.016695
v -0.013410 -0.006362 0.016695
v -0.012756 -0.001985 0.018500
v -0.017699 0.003256 -0.018500
v -0.018453 0.001680 -0.018500
v -0.010323 -0.002807 0.018500
v -0.012408 -0.006627 0.016695
v -0.011639 -0.002593 0.018500
v -0.015252 -0.005535 0.016695
v -0.011374 -0.006788 0.016695
f 1 2 3
f 4 3 2
f 5 6 7
f 5 4 6
f 8 9 7
f 8 7 6
f 10 11 7
f 10 7 9
f 12 2 1
f 12 1 13
f 14 9 15
f 14 11 10
f 14 10 9
f 16 13 15
f 16 15 9
f 17 15 13
f 17 13 1
f 18 6 4
f 18 4 2
f 19 1 3
f 20 13 16
f 20 16 9
f 21 14 15
f 21 15 17
f 21 11 14
f 22 4 5
f 22 3 4
f 23 24 25
f 26 11 25
f 26 7 11
f 27 28 7
f 27 7 26
f 27 26 25
f 29 23 25
f 30 31 32
f 33 32 31
f 34 2 12
f 34 18 2
f 35 18 34
f 35 34 32
f 36 6 18
f 36 18 35
f 36 8 6
f 37 9 38
f 37 39 40
f 37 40 20
f 37 20 9
f 41 12 13
f 41 13 20
f 42 19 23
f 42 17 1
f 42 1 19
f 43 22 5
f 43 28 44
f 43 44 3
f 43 3 22
f 45 3 44
f 45 23 19
f 45 19 3
f 46 24 23
f 46 44 28
f 47 25 24
f 48 29 25
f 49 29 21
f 49 21 17
f 50 31 30
f 51 33 31
f 52 32 33
f 53 37 38
f 54 32 34
f 54 30 32
f 55 30 34
f 55 34 56
f 57 36 35
f 58 8 36
f 58 36 57
f 58 57 38
f 58 38 9
f 58 9 8
f 59 23 29
f 60 28 43
f 60 43 5
f 60 5 7
f 60 7 28
f 61 24 46
f 61 46 28
f 61 28 24
f 62 45 44
f 62 46 23
f 63 47 24
f 64 25 47
f 65 66 40
f 67 41 20
f 68 69 70
f 68 70 71
f 72 29 48
f 73 48 25
f 74 48 11
f 74 11 21
f 75 29 49
f 75 49 17
f 75 17 29
f 76 50 30
f 76 30 55
f 76 55 56
f 77 31 50
f 77 50 78
f 77 78 79
f 77 79 80
f 77 80 31
f 81 51 31
f 81 70 69
f 82 32 52
f 83 52 33
f 84 30 54
f 84 54 34
f 84 34 30
f 85 52 57
f 85 57 35
f 85 82 52
f 86 59 29
f 87 23 59
f 88 62 23
f 89 46 62
f 90 47 63
f 90 63 28
f 91 63 24
f 91 24 28
f 92 25 64
f 92 27 25
f 93 27 64
f 93 64 47
f 93 47 27
f 94 65 40
f 94 40 39
f 95 20 40
f 96 31 80
f 97 12 41
f 97 41 68
f 97 68 71
f 97 71 96
f 97 96 80
f 97 80 79
f 97 79 78
f 97 56 34
f 97 34 12
f 98 48 73
f 98 11 48
f 99 73 25
f 100 48 74
f 100 72 48
f 101 29 72
f 101 74 21
f 101 21 29
f 102 56 97
f 102 97 78
f 102 78 50
f 102 50 76
f 102 76 56
f 103 71 70
f 103 70 81
f 103 81 31
f 103 31 96
f 103 96 71
f 104 32 82
f 104 82 35
f 104 35 32
f 105 52 83
f 105 38 57
f 106 83 33
f 107 38 83
f 107 53 38
f 108 82 85
f 108 85 35
f 108 35 82
f 109 17 42
f 109 42 59
f 110 23 87
f 110 42 23
f 111 87 59
f 112 62 88
f 112 88 45
f 113 88 23
f 113 23 45
f 114 46 89
f 114 89 44
f 115 44 89
f 115 89 62
f 116 27 47
f 116 47 90
f 116 90 28
f 116 28 27
f 117 63 91
f 117 91 28
f 117 28 63
f 118 27 92
f 118 92 64
f 118 64 27
f 119 51 67
f 119 33 51
f 120 66 33
f 120 95 40
f 120 40 66
f 121 68 122
f 121 81 69
f 121 69 68
f 123 67 51
f 123 51 122
f 123 122 68
f 123 68 41
f 123 41 67
f 124 11 98
f 124 98 73
f 124 73 11
f 125 11 99
f 125 99 25
f 125 25 11
f 126 73 99
f 126 99 11
f 126 11 73
f 127 72 100
f 127 100 74
f 127 74 72
f 128 74 101
f 128 101 72
f 128 72 74
f 129 38 105
f 129 105 83
f 130 52 105
f 130 57 52
f 131 106 33
f 131 33 66
f 131 66 65
f 131 65 94
f 132 109 59
f 132 59 86
f 133 29 17
f 133 17 109
f 133 86 29
f 134 42 110
f 134 110 87
f 134 87 42
f 135 42 111
f 135 111 59
f 135 59 42
f 136 87 111
f 136 111 42
f 136 42 87
f 137 62 112
f 137 112 45
f 137 45 62
f 138 88 113
f 138 113 45
f 138 45 88
f 139 46 114
f 139 114 44
f 139 44 46
f 140 44 115
f 140 115 62
f 140 62 44
f 141 33 119
f 141 95 120
f 141 120 33
f 142 95 141
f 142 141 119
f 142 119 67
f 142 67 20
f 142 20 95
f 143 51 81
f 143 81 121
f 143 121 122
f 143 122 51
f 144 38 129
f 144 129 83
f 144 83 38
f 145 57 130
f 145 130 105
f 145 105 57
f 146 83 106
f 147 37 148
f 149 106 131
f 149 131 94
f 149 94 39
f 150 109 132
f 150 132 86
f 150 86 109
f 151 86 133
f 151 133 109
f 151 109 86
f 152 83 146
f 152 53 107
f 152 107 83
f 153 148 37
f 154 148 153
f 154 153 146
f 154 146 106
f 154 106 147
f 154 147 148
f 155 37 147
f 155 147 106
f 155 106 149
f 155 149 39
f 155 39 37
f 156 146 153
f 156 153 37
f 156 37 53
f 156 53 152
f 156 152 146
