# Normalized convex hull collision mesh - generated by scripts/generate-collision-meshes.mjs (units: meters)
v 0.007592 0.007629 0.065000
v -0.002085 0.008000 0.065000
v 0.006787 -0.004453 0.065000
v -0.002085 -0.004453 0.065000
v 0.007592 0.007629 -0.065000
v 0.006787 -0.004453 -0.065000
v -0.002085 0.008000 -0.065000
v 0.008000 0.007264 -0.047667
v -0.002085 -0.004453 -0.065000
v 0.004362 -0.006192 -0.034667
v 0.004362 0.008000 -0.021667
v -0.003564 0.006795 0.065000
v -0.008000 0.007397 0.021667
v -0.006226 0.008000 -0.021667
v -0.003564 0.008000 -0.065000
v -0.006620 0.007985 -0.021667
v -0.006620 0.007985 0.021667
v 0.006787 0.008000 -0.065000
v 0.007592 0.007861 -0.047667
v 0.007592 0.007861 0.047667
v 0.008000 0.007395 0.053429
v 0.008000 0.007531 -0.047667
v 0.008000 0.007381 -0.053388
v 0.000222 -0.008000 -0.021667
v 0.001609 -0.007773 -0.021667
v 0.004362 0.008000 0.057200
v 0.000222 -0.008000 0.021667
v 0.000617 -0.007985 0.021667
v -0.001508 -0.007532 -0.021667
v -0.001508 -0.007532 0.021667
v -0.007956 0.007263 -0.021667
v -0.007956 0.007263 0.021667
v -0.003830 0.007363 0.062761
v -0.003564 0.006795 -0.065000
v -0.006226 0.008000 0.021667
v -0.007613 0.007773 0.021667
v -0.007824 0.007659 -0.021667
v -0.007824 0.007659 0.021667
v -0.007956 0.007532 0.021667
v 0.007927 0.007598 -0.047667
v 0.007927 0.007592 -0.049741
v 0.008000 0.007265 0.048264
v 0.008000 0.007530 0.048459
v 0.007927 0.007394 0.056332
v 0.008000 0.007297 -0.051488
v 0.007927 0.007373 -0.056270
v 0.000617 -0.007985 -0.021667
v 0.000992 -0.007940 -0.021667
v 0.001328 -0.007869 -0.021667
v 0.004362 -0.006192 0.034667
v 0.006787 0.008000 0.065000
v -0.007332 0.007869 -0.021667
v -0.007332 0.007869 0.021667
v -0.008000 0.007397 -0.021667
v -0.003564 0.008000 0.065000
v 0.008000 0.007307 0.051915
v 0.008000 0.007530 0.047069
v 0.007927 0.007561 0.052710
v 0.007592 0.007166 0.065000
v 0.007927 0.007442 0.056116
v 0.008000 0.007414 -0.053388
v 0.008000 0.007497 -0.051488
v 0.008000 0.007268 -0.049046
v 0.008000 0.007350 -0.053055
v 0.007592 0.007166 -0.065000
v 0.001609 -0.007773 0.021667
v 0.001821 -0.007659 -0.021667
v -0.000548 -0.007940 0.021667
v -0.000885 -0.007869 0.021667
v -0.001377 -0.007659 0.021667
v -0.007613 0.007773 -0.021667
v -0.006995 0.007940 -0.021667
v -0.007956 0.007532 -0.021667
v -0.003830 0.007327 -0.062527
v -0.006995 0.007940 0.021667
v 0.008000 0.007286 0.050859
v 0.008000 0.007363 0.053238
v 0.007927 0.007597 0.046768
v 0.008000 0.007522 0.049802
v 0.008000 0.007427 0.053285
v 0.007927 0.007422 -0.056270
v 0.008000 0.007527 -0.049046
v 0.008000 0.007445 -0.053055
v 0.007927 0.007575 -0.051694
v 0.008000 0.007279 -0.050345
v 0.008000 0.007322 -0.052410
v 0.000992 -0.007940 0.021667
v 0.001821 -0.007659 0.021667
v -0.000173 -0.007985 0.021667
v -0.000173 -0.007985 -0.021667
v -0.000885 -0.007869 -0.021667
v -0.001166 -0.007773 -0.021667
v -0.001166 -0.007773 0.021667
v -0.001377 -0.007659 -0.021667
v -0.003830 0.007468 -0.062527
v 0.008000 0.007272 0.049618
v 0.008000 0.007333 0.052724
v 0.007927 0.007596 0.048857
v 0.008000 0.007484 0.052045
v 0.007927 0.007469 -0.055770
v 0.007927 0.007512 -0.054799
v 0.008000 0.007473 -0.052410
v 0.007927 0.007548 -0.053414
v 0.008000 0.007516 -0.050345
v 0.001328 -0.007869 0.021667
v -0.000548 -0.007940 -0.021667
v 0.007927 0.007584 0.050877
v 0.008000 0.007506 0.051021
v 0.007927 0.007528 0.054251
v 0.007927 0.007488 0.055408
v 0.008000 0.007458 0.052815
f 1 2 3
f 4 3 2
f 5 6 7
f 8 3 6
f 9 7 6
f 10 6 3
f 11 7 2
f 12 13 4
f 12 4 2
f 14 2 7
f 15 16 14
f 15 14 7
f 15 7 9
f 17 14 16
f 18 19 5
f 18 5 7
f 18 7 11
f 18 20 19
f 21 8 22
f 23 22 8
f 24 9 6
f 25 6 10
f 26 18 11
f 26 11 2
f 27 24 28
f 27 28 3
f 27 3 4
f 29 30 31
f 29 31 9
f 32 13 31
f 32 31 30
f 32 30 4
f 32 4 13
f 33 13 12
f 34 15 9
f 35 14 17
f 35 2 14
f 36 37 38
f 39 38 37
f 40 41 19
f 40 19 20
f 42 8 21
f 42 3 8
f 43 21 22
f 44 3 21
f 45 23 8
f 46 23 6
f 47 28 24
f 47 24 6
f 47 6 48
f 47 48 28
f 49 48 6
f 49 6 25
f 50 10 3
f 51 1 20
f 51 20 18
f 51 18 26
f 51 26 2
f 51 2 1
f 52 36 53
f 54 31 13
f 54 13 39
f 54 34 9
f 54 9 31
f 55 2 35
f 55 35 17
f 55 53 36
f 55 36 38
f 55 38 39
f 55 39 13
f 55 13 33
f 55 33 12
f 55 12 2
f 56 42 21
f 57 43 22
f 57 22 40
f 58 20 1
f 59 3 44
f 59 44 1
f 59 1 3
f 60 1 44
f 61 23 46
f 61 22 23
f 62 22 61
f 63 45 8
f 63 8 6
f 64 23 45
f 64 6 23
f 65 5 46
f 65 46 6
f 65 6 5
f 66 49 25
f 66 50 3
f 67 10 50
f 67 66 25
f 67 25 10
f 68 4 69
f 70 30 29
f 70 4 30
f 71 37 36
f 71 36 52
f 71 52 15
f 71 15 37
f 72 16 15
f 72 15 52
f 72 52 53
f 72 17 16
f 73 37 15
f 73 15 54
f 73 54 39
f 73 39 37
f 74 34 54
f 74 15 34
f 75 53 55
f 75 55 17
f 75 17 72
f 75 72 53
f 76 42 56
f 76 56 3
f 77 56 21
f 77 21 3
f 78 57 40
f 78 40 20
f 79 21 43
f 80 21 79
f 80 60 44
f 80 44 21
f 81 61 46
f 81 46 5
f 82 22 62
f 82 41 40
f 82 40 22
f 83 62 61
f 84 41 82
f 84 5 19
f 84 19 41
f 85 45 63
f 85 63 6
f 85 6 45
f 86 6 64
f 86 64 45
f 86 45 6
f 87 48 49
f 87 3 28
f 87 28 48
f 88 66 67
f 88 67 50
f 88 50 66
f 89 4 68
f 89 24 27
f 89 27 4
f 90 24 89
f 90 89 68
f 90 9 24
f 91 92 9
f 91 68 69
f 91 69 92
f 93 69 4
f 93 4 70
f 93 70 92
f 93 92 69
f 94 92 70
f 94 70 29
f 94 29 9
f 94 9 92
f 95 15 74
f 95 74 54
f 95 54 15
f 96 42 76
f 96 76 3
f 96 3 42
f 97 56 77
f 97 77 3
f 97 3 56
f 98 79 43
f 98 43 57
f 98 57 78
f 98 78 20
f 99 80 79
f 100 101 83
f 100 83 61
f 100 61 81
f 100 81 5
f 100 5 101
f 102 62 83
f 102 83 101
f 102 101 62
f 103 101 5
f 103 5 84
f 103 84 62
f 103 62 101
f 104 62 84
f 104 84 82
f 104 82 62
f 105 66 3
f 105 3 87
f 105 87 49
f 105 49 66
f 106 90 68
f 106 68 91
f 106 91 9
f 106 9 90
f 107 58 79
f 107 79 98
f 107 98 20
f 107 20 58
f 108 58 99
f 108 99 79
f 108 79 58
f 109 99 58
f 109 58 1
f 110 60 80
f 110 99 109
f 110 109 1
f 110 1 60
f 111 99 110
f 111 110 80
f 111 80 99
