# Convex hull collision mesh — generated by scripts/generate-collision-meshes.mjs
v 32.223053 43.288269 127.739342
v 23.103054 42.179234 127.739342
v 31.778053 41.413269 127.739342
v 30.303053 50.011379 96.967018
v 35.672127 47.711578 25.951143
v 25.023054 50.011379 96.967018
v 13.672127 47.711578 25.951143
v 23.103054 40.647305 127.739342
v 12.692398 46.711578 90.732330
v 32.223053 39.538269 127.739342
v 30.303053 49.918125 98.079758
v 30.513054 49.972897 97.307045
v 24.591692 43.288269 127.739342
v 30.513054 49.965820 96.552177
v 30.591515 49.953388 96.917351
v 36.106010 47.612545 90.531998
v 12.870412 30.123793 90.640450
v 12.755255 30.402561 90.784691
v 12.771157 30.277693 90.531998
v 13.048636 29.929747 90.531998
v 13.105469 29.902561 90.688171
v 13.672127 30.711578 24.951143
v 35.672127 46.711578 24.951143
v 35.672127 30.711578 24.951143
v 35.672127 29.711578 25.951143
v 27.672127 26.989145 95.580887
v 13.672127 29.711578 25.951143
v 36.651855 30.711578 90.732330
v 36.647053 30.489056 90.531998
v 36.672127 30.711578 90.531998
v 12.890295 47.335068 25.951143
v 12.771157 47.145462 25.951143
v 12.771157 47.145462 90.531998
v 13.048636 47.493408 90.531998
v 13.048636 47.493408 25.951143
v 30.118439 49.962345 97.552353
v 13.131520 47.520596 90.762726
v 13.406740 47.662636 90.690308
v 24.813053 49.782021 98.607582
v 25.023054 49.918125 98.079758
v 24.813053 49.972897 97.307045
v 36.106010 47.612545 25.951143
v 30.513054 49.782021 98.607582
v 30.753054 49.826900 97.633698
v 30.591515 49.823132 98.283058
v 13.449606 47.686504 25.951143
v 13.449606 47.686504 90.531998
v 13.238243 47.612545 25.951143
v 13.378234 47.662636 25.855652
v 13.148406 47.520596 25.684294
v 13.672127 47.686504 25.728622
v 13.490491 47.662636 25.701143
v 29.572126 31.711578 114.316147
v 19.772127 31.711578 114.316147
v 27.812126 27.112120 97.161385
v 36.176922 29.902561 90.833115
v 24.591692 39.538269 127.739342
v 12.672127 46.711578 90.531998
v 12.672127 46.711578 25.951143
v 12.672127 30.711578 25.951143
v 12.697199 46.934097 90.531998
v 12.890295 30.088087 25.951143
v 12.873070 30.123793 25.824585
v 13.048636 29.929747 25.951143
v 12.928045 30.123793 90.849571
v 12.697199 30.489056 90.531998
v 12.697199 30.489056 25.951143
v 12.771157 30.277693 25.951143
v 19.772127 33.006977 114.951141
v 35.956341 29.760521 90.653297
v 27.972126 27.133373 96.796730
v 36.416206 30.123793 90.849571
v 27.549049 26.994089 96.120934
v 27.672127 27.017328 96.688004
v 21.549049 26.994089 96.120934
v 13.113110 29.902561 25.769508
v 21.672127 26.989145 95.580887
v 13.238243 29.810608 90.531998
v 13.365899 29.760521 90.573425
v 13.387913 29.760521 90.653297
v 12.767618 30.402561 25.657251
v 13.672127 30.489056 24.976215
v 13.672127 30.277693 25.050175
v 13.378234 30.402561 25.046635
v 35.672127 30.277693 25.050175
v 36.453957 30.711578 25.327654
v 36.573097 30.711578 25.517260
v 36.441547 30.402561 25.392126
v 36.106010 46.711578 25.050175
v 36.103897 47.020596 25.103746
v 36.295616 46.711578 25.169312
v 36.106010 30.711578 25.050175
v 12.902705 47.299362 25.701143
v 12.824729 47.020596 25.519373
v 12.732780 47.020596 25.802366
v 12.892189 47.299362 90.746948
v 13.371955 47.612545 90.845291
v 24.734592 49.823132 98.283058
v 36.295616 47.493408 25.951143
v 36.453957 47.335068 90.531998
v 36.453957 47.335068 25.951143
v 36.573097 47.145462 90.531998
v 36.614597 47.020596 90.659492
v 36.212734 47.520596 90.762726
v 36.573097 46.711578 25.517260
v 36.672127 30.711578 25.951143
v 36.672127 46.711578 25.951143
v 36.672127 46.711578 90.531998
v 13.422127 47.662636 25.769508
v 13.256499 47.520596 25.535517
v 13.576635 47.662636 25.657251
v 35.672127 47.612545 25.517260
v 13.672127 47.612545 25.517260
v 13.672127 46.711578 24.951143
v 13.580176 47.520596 25.370594
v 35.672127 47.686504 25.728622
v 21.672127 27.017328 96.688004
v 13.167332 29.902561 90.833115
v 21.479818 27.186049 97.406395
v 27.672127 27.228058 97.702957
v 12.797407 47.020596 90.905327
v 12.890295 30.088087 90.531998
v 12.692398 30.711578 90.732330
v 27.972126 27.095957 96.442474
v 36.588997 30.402561 90.784691
v 36.573097 30.277693 90.531998
v 36.573097 30.277693 25.951143
v 36.238785 29.902561 90.688171
v 13.672127 29.810608 25.517260
v 13.672127 29.929747 25.327654
v 35.672127 29.929747 25.327654
v 13.672127 29.736649 25.728622
v 35.720467 29.760521 25.645931
v 13.623786 29.760521 25.645931
v 21.479818 27.017370 95.836922
v 13.366914 29.760521 25.902803
v 13.453618 29.760521 25.732635
v 13.238243 29.810608 25.951143
v 12.697199 46.934097 25.951143
v 12.697199 46.711578 25.728622
v 12.697199 30.711578 25.728622
v 35.672127 30.088087 25.169312
v 13.238243 30.711578 25.050175
v 13.048636 46.711578 25.169312
v 13.238243 46.711578 25.050175
v 35.672127 30.489056 24.976215
v 36.295616 30.711578 25.169312
v 36.231144 30.402561 25.181723
v 35.672127 47.145462 25.050175
v 13.672127 47.145462 25.050175
v 35.672127 47.335068 25.169312
v 35.894646 46.711578 24.976215
v 35.820904 47.020596 25.011795
v 13.091578 47.520596 25.859194
v 12.890295 47.335068 90.531998
v 13.089647 47.520596 90.610794
v 13.238243 47.612545 90.531998
v 13.374217 47.662636 90.614105
v 36.295616 47.493408 90.531998
v 36.254604 47.520596 90.610794
v 36.647053 46.934097 90.531998
v 36.344624 47.020596 25.278645
v 36.147655 47.299362 25.296635
v 36.326633 47.299362 25.475615
v 36.647053 30.489056 25.951143
v 13.449606 46.711578 24.976215
v 35.672127 46.934097 24.976215
v 13.672127 47.335068 25.169312
v 35.672127 47.493408 25.327654
v 13.240355 47.020596 25.103746
v 12.999628 47.020596 25.278645
v 13.196598 47.299362 25.296635
v 13.405277 47.520596 25.427423
v 35.894646 47.686504 25.951143
v 36.195847 47.520596 25.684294
v 36.441547 47.299362 25.701143
v 35.767616 47.662636 25.657251
v 27.549049 27.109722 97.173210
v 21.479818 27.085178 96.900307
v 21.672127 27.228058 97.702957
v 12.729655 47.020596 90.659492
v 12.672127 30.711578 90.531998
v 27.972126 27.078291 95.964020
v 35.977341 29.760521 25.902803
v 36.453957 30.088087 90.531998
v 36.295616 29.929747 90.531998
v 36.295616 29.929747 25.951143
v 35.672127 29.736649 25.728622
v 35.672127 29.810608 25.517260
v 13.531836 29.760521 25.675808
v 13.449606 29.736649 25.951143
v 12.771157 46.711578 25.517260
v 13.113110 30.402561 25.181723
v 13.304840 30.123793 25.230305
v 13.545568 30.123793 25.152086
v 12.951287 30.123793 25.583857
v 13.100065 30.123793 25.379082
v 35.894646 30.711578 24.976215
v 36.231144 29.902561 25.769508
v 36.147655 29.902561 25.605652
v 36.392967 30.123793 25.583857
v 36.106010 29.810608 90.531998
v 36.453957 30.088087 25.951143
v 36.576633 30.402561 25.657251
v 36.452065 47.299362 90.746948
v 36.651855 46.711578 90.732330
v 36.519524 47.020596 25.519373
v 36.611473 47.020596 25.802366
v 36.453957 46.711578 25.327654
v 13.672127 46.934097 24.976215
v 13.449606 30.711578 24.976215
v 35.764076 47.520596 25.370594
v 13.672127 47.493408 25.327654
v 13.017618 47.299362 25.475615
v 13.422127 47.299362 25.181723
v 35.966019 47.662636 25.855652
v 35.922127 47.662636 25.769508
v 36.252674 47.520596 25.859194
v 35.853764 47.662636 25.701143
v 21.479818 27.029417 96.388161
v 23.549049 27.109722 97.173210
v 21.549049 27.109722 97.173210
v 35.978355 29.760521 90.573425
v 36.473843 30.123793 90.640450
v 35.890633 29.760521 25.732635
v 35.853764 29.902561 25.392126
v 13.326635 29.902561 25.475615
v 13.396791 29.760521 25.810852
v 12.890295 46.711578 25.327654
v 12.890295 30.711578 25.327654
v 12.771157 30.711578 25.517260
v 36.244186 30.123793 25.379082
v 36.039413 30.123793 25.230305
v 13.048636 30.711578 25.169312
v 13.672127 30.088087 25.169312
v 12.902705 30.402561 25.392126
v 35.966019 30.402561 25.046635
v 36.106010 29.810608 25.951143
v 36.471184 30.123793 25.824585
v 36.647053 30.711578 25.728622
v 36.573097 47.145462 25.951143
v 36.647053 46.711578 25.728622
v 35.938976 47.520596 25.427423
v 13.523349 47.020596 25.011795
v 36.087753 47.520596 25.535517
v 35.894646 29.736649 25.951143
v 35.812416 29.760521 25.675808
v 36.017616 29.902561 25.475615
v 35.798683 30.123793 25.152086
v 13.490491 29.902561 25.392126
v 13.196598 29.902561 25.605652
v 36.647053 46.934097 25.951143
v 35.922127 47.299362 25.181723
v 35.947464 29.760521 25.810852
f 1 2 3
f 4 5 6
f 7 6 5
f 8 3 2
f 9 8 2
f 10 3 8
f 10 1 3
f 11 12 4
f 13 1 11
f 13 2 1
f 14 4 12
f 15 12 16
f 15 14 12
f 17 18 19
f 17 20 21
f 22 23 24
f 25 26 27
f 28 1 10
f 28 10 29
f 28 29 30
f 31 32 33
f 31 34 35
f 36 11 4
f 36 4 6
f 37 2 13
f 38 13 39
f 40 11 36
f 40 36 6
f 40 6 41
f 40 39 13
f 40 13 11
f 42 15 16
f 43 11 1
f 44 16 12
f 45 44 12
f 45 12 11
f 45 11 43
f 45 43 1
f 46 41 6
f 46 6 7
f 46 47 41
f 48 49 50
f 51 7 5
f 51 46 7
f 52 46 51
f 53 10 54
f 53 55 56
f 57 8 54
f 57 54 10
f 57 10 8
f 58 59 60
f 61 59 58
f 61 58 9
f 61 33 32
f 62 63 64
f 62 64 20
f 65 54 18
f 65 18 17
f 65 17 21
f 65 21 54
f 66 60 67
f 66 67 19
f 66 19 18
f 68 19 67
f 68 63 62
f 68 62 19
f 69 54 8
f 70 55 71
f 72 10 53
f 73 26 74
f 73 74 75
f 73 75 26
f 76 64 63
f 77 27 26
f 77 26 75
f 78 79 80
f 78 80 21
f 78 21 20
f 78 20 64
f 81 63 68
f 81 68 67
f 82 83 84
f 82 22 24
f 82 85 83
f 86 87 88
f 89 90 91
f 89 91 92
f 93 94 95
f 93 95 32
f 93 32 31
f 96 2 37
f 97 13 38
f 97 38 37
f 97 37 13
f 98 41 38
f 98 38 39
f 98 39 40
f 98 40 41
f 99 100 101
f 102 101 100
f 102 1 103
f 104 45 1
f 105 87 86
f 106 107 30
f 106 30 29
f 108 30 107
f 108 28 30
f 109 46 52
f 109 52 110
f 109 110 50
f 109 50 49
f 109 49 46
f 111 52 51
f 111 112 113
f 114 23 22
f 115 113 112
f 116 111 51
f 116 51 5
f 117 75 74
f 118 21 119
f 118 119 54
f 118 54 21
f 120 55 53
f 120 53 54
f 121 2 96
f 121 9 2
f 122 17 19
f 122 19 62
f 122 62 20
f 122 20 17
f 123 18 54
f 123 54 69
f 123 69 8
f 123 8 9
f 123 9 58
f 123 66 18
f 124 71 55
f 124 55 74
f 125 29 10
f 126 127 29
f 126 29 125
f 128 56 55
f 128 55 70
f 128 72 53
f 128 53 56
f 129 130 131
f 132 25 27
f 133 132 134
f 133 134 129
f 135 79 136
f 135 136 75
f 135 75 79
f 137 132 27
f 138 136 79
f 138 79 78
f 138 78 64
f 138 64 76
f 139 61 32
f 139 32 95
f 139 59 61
f 140 59 139
f 140 139 95
f 140 95 94
f 140 60 59
f 141 60 140
f 141 81 67
f 141 67 60
f 142 83 85
f 142 131 130
f 143 144 145
f 146 85 82
f 146 82 24
f 147 86 88
f 147 88 148
f 147 148 92
f 147 92 91
f 147 91 86
f 149 150 151
f 152 153 90
f 152 90 89
f 152 89 92
f 152 24 23
f 154 48 50
f 154 50 93
f 154 93 31
f 154 31 35
f 155 31 33
f 155 33 96
f 155 96 34
f 155 34 31
f 156 34 96
f 156 96 37
f 156 37 157
f 156 157 48
f 156 48 154
f 156 154 35
f 156 35 34
f 158 38 41
f 158 41 47
f 158 47 46
f 158 46 49
f 158 49 48
f 158 48 157
f 158 157 37
f 158 37 38
f 159 100 99
f 160 16 44
f 160 44 45
f 160 45 104
f 160 104 1
f 160 159 99
f 160 42 16
f 161 102 103
f 161 103 1
f 161 108 107
f 162 91 90
f 162 90 163
f 162 163 164
f 165 106 29
f 165 29 127
f 166 114 22
f 166 143 145
f 167 153 152
f 167 152 23
f 167 23 114
f 167 150 149
f 167 149 153
f 168 169 151
f 168 151 150
f 170 145 144
f 170 144 171
f 170 171 172
f 170 166 145
f 173 172 110
f 173 110 52
f 173 52 111
f 173 111 113
f 173 113 115
f 174 14 15
f 174 116 5
f 174 5 4
f 174 4 14
f 175 176 164
f 177 112 111
f 177 111 116
f 178 55 120
f 178 117 74
f 178 74 55
f 179 119 21
f 179 21 80
f 179 80 79
f 180 178 120
f 180 120 54
f 181 33 61
f 181 61 9
f 181 9 121
f 181 121 96
f 181 96 33
f 182 60 66
f 182 66 123
f 182 123 58
f 182 58 60
f 183 26 184
f 183 124 74
f 183 74 26
f 185 186 187
f 185 127 126
f 188 132 133
f 188 25 132
f 189 133 129
f 189 129 131
f 190 132 137
f 190 129 134
f 190 134 132
f 191 137 27
f 191 27 77
f 191 77 75
f 191 75 136
f 192 141 140
f 192 140 94
f 193 143 84
f 193 84 194
f 195 194 84
f 195 84 83
f 196 63 81
f 196 76 63
f 197 193 194
f 198 146 24
f 198 24 152
f 198 152 92
f 199 200 201
f 202 186 128
f 202 128 70
f 202 187 186
f 203 127 185
f 203 185 187
f 204 201 88
f 204 88 87
f 204 165 127
f 205 100 159
f 205 159 160
f 205 160 1
f 205 1 102
f 205 102 100
f 206 108 161
f 206 161 1
f 206 1 28
f 206 28 108
f 207 176 208
f 207 162 164
f 207 164 176
f 209 91 162
f 209 162 207
f 209 207 105
f 209 105 86
f 209 86 91
f 210 114 166
f 210 150 167
f 210 167 114
f 211 143 166
f 211 166 22
f 211 22 82
f 211 82 84
f 211 84 143
f 212 151 169
f 212 169 115
f 212 115 112
f 213 169 168
f 213 168 115
f 213 115 169
f 214 93 50
f 214 50 110
f 214 110 172
f 214 172 171
f 214 171 94
f 214 94 93
f 215 168 150
f 215 170 172
f 215 172 173
f 215 173 115
f 215 115 168
f 216 42 175
f 216 175 217
f 216 217 174
f 216 174 15
f 216 15 42
f 218 176 175
f 218 175 42
f 218 42 160
f 218 160 99
f 218 99 101
f 218 101 176
f 219 177 116
f 219 116 174
f 219 174 217
f 220 75 117
f 220 117 179
f 220 179 79
f 220 79 75
f 221 178 180
f 221 117 178
f 222 117 221
f 222 221 180
f 222 180 54
f 222 54 119
f 222 119 179
f 222 179 117
f 223 202 70
f 223 70 71
f 223 71 124
f 223 124 183
f 223 183 184
f 224 72 128
f 224 128 186
f 224 186 185
f 224 185 126
f 224 126 125
f 224 125 10
f 224 10 72
f 225 25 188
f 226 189 131
f 227 190 137
f 227 197 194
f 228 137 191
f 228 191 136
f 228 136 138
f 228 138 76
f 229 171 144
f 229 144 230
f 229 230 192
f 229 192 94
f 229 94 171
f 231 141 192
f 231 192 230
f 231 81 141
f 232 201 200
f 232 233 148
f 232 148 88
f 232 88 201
f 234 143 193
f 234 230 144
f 234 144 143
f 235 142 130
f 235 130 195
f 235 195 83
f 235 83 142
f 236 193 197
f 236 197 196
f 236 196 81
f 236 81 231
f 236 231 230
f 236 230 234
f 236 234 193
f 237 148 233
f 237 85 146
f 237 146 198
f 237 198 92
f 237 92 148
f 238 199 187
f 238 187 202
f 238 202 223
f 238 223 184
f 239 201 204
f 239 204 127
f 239 127 203
f 239 203 187
f 239 187 199
f 239 199 201
f 240 106 165
f 240 165 204
f 240 204 87
f 240 87 105
f 240 107 106
f 241 101 102
f 241 102 161
f 241 208 176
f 241 176 101
f 242 105 207
f 242 207 208
f 242 107 240
f 242 240 105
f 243 177 219
f 243 212 112
f 243 112 177
f 244 170 215
f 244 215 150
f 244 150 210
f 244 210 166
f 244 166 170
f 245 175 164
f 245 164 163
f 245 163 243
f 245 243 219
f 245 219 217
f 245 217 175
f 246 25 225
f 246 184 26
f 246 26 25
f 247 133 189
f 247 189 226
f 247 225 188
f 247 188 133
f 248 225 247
f 248 247 226
f 248 226 233
f 248 233 232
f 248 232 200
f 248 200 225
f 249 142 85
f 249 85 237
f 249 237 233
f 249 233 226
f 249 226 131
f 249 131 142
f 250 130 129
f 250 129 190
f 250 190 227
f 250 227 194
f 250 194 195
f 250 195 130
f 251 227 137
f 251 137 228
f 251 228 76
f 251 76 196
f 251 196 197
f 251 197 227
f 252 208 241
f 252 241 161
f 252 161 107
f 252 107 242
f 252 242 208
f 253 151 212
f 253 212 243
f 253 243 163
f 253 163 90
f 253 90 153
f 253 153 149
f 253 149 151
f 254 184 246
f 254 246 225
f 254 225 200
f 254 200 199
f 254 199 238
f 254 238 184
