# Convex hull collision mesh — generated by scripts/generate-collision-meshes.mjs
v 7.500000 -0.000000 -26.000000
v 7.500000 25.978914 1.046914
v 7.500000 -25.978914 1.046914
v -7.500000 25.978914 -1.046914
v -7.500000 -0.000000 -26.000000
v -7.500000 -0.000000 26.000000
v -7.500000 -25.978914 1.046914
v 7.500000 -18.751265 -18.010834
v 7.500000 18.751265 -18.010834
v -7.500000 -13.896111 21.974943
v -7.500000 -18.751265 -18.010834
v -7.500000 7.581447 20.829853
v 7.500000 -10.191132 23.919466
v -7.500000 18.751265 -18.010834
v 7.500000 10.191132 -23.919466
v 7.500000 24.310423 -9.219728
v 7.487464 -26.090084 1.051394
v 7.450484 -26.195681 1.055650
v 7.450484 -26.195681 -1.055650
v -7.500000 -22.516661 13.000000
v -7.000000 -2.132364 26.414068
v 7.000000 -2.132364 26.414068
v -7.000000 0.000000 26.500000
v 7.000000 -4.250899 26.156832
v -7.000000 -6.341865 25.729958
v 7.000000 -8.391702 25.136215
v 7.000000 -6.341865 25.729958
v -7.500000 21.397581 14.769684
v 7.000000 -0.000000 26.500000
v 7.000000 6.341865 25.729958
v 7.000000 8.391702 25.136215
v -7.000000 6.341865 25.729958
v 7.000000 4.250899 26.156832
v 7.500000 13.896111 21.974943
v 7.487464 15.686138 20.874458
v 7.487464 13.955576 22.068979
v -7.000000 25.453730 7.372763
v 7.000000 25.964453 5.300681
v -7.000000 25.964453 5.300681
v -7.111260 25.441689 7.369275
v 7.000000 -26.478508 1.067047
v -7.000000 -26.478508 1.067047
v 7.000000 -26.478508 -1.067047
v 7.000000 -24.777931 -9.397030
v 7.000000 -23.941437 -11.360353
v 7.111260 -23.930111 -11.354979
v -7.000000 -24.777931 -9.397030
v 7.500000 -24.310423 -9.219728
v 7.500000 -10.191132 -23.919466
v -7.000000 -6.341865 -25.729958
v -7.111260 -6.338865 -25.717787
v -7.000000 -4.250899 -26.156832
v 7.000000 -6.341865 -25.729958
v -7.000000 -19.111864 18.357195
v 7.000000 -17.572750 19.835535
v -7.000000 -17.572750 19.835535
v -7.000000 -22.949673 13.250000
v 7.000000 -23.941437 11.360353
v 7.000000 -22.949673 13.250000
v 7.000000 -21.809072 15.053716
v 7.000000 -15.919670 21.185234
v 7.000000 -12.315164 23.464584
v -7.000000 -10.387115 24.379456
v -7.000000 -12.315164 23.464584
v -7.000000 4.250899 -26.156832
v -7.000000 6.341865 -25.729958
v 7.000000 4.250899 -26.156832
v 7.000000 6.341865 -25.729958
v -7.000000 8.391702 -25.136215
v 7.111260 6.338865 -25.717787
v 7.500000 21.397581 -14.769684
v 7.500000 25.474558 -5.200668
v -7.500000 20.139729 -16.443581
v -7.311745 19.033194 -18.281630
v -7.311745 20.442533 -16.690813
v -7.216942 19.076155 -18.322895
v -7.000000 20.527031 -16.759802
v 7.000000 19.111864 -18.357195
v -7.000000 19.111864 -18.357195
v -7.000000 24.777931 -9.397030
v 7.000000 24.777931 -9.397030
v -7.000000 23.941437 -11.360353
v -7.000000 26.306786 3.194222
v 7.000000 26.478508 1.067047
v -7.000000 26.478508 1.067047
v -7.000000 -23.941437 -11.360353
v 7.000000 -22.949673 -13.250000
v -7.500000 -10.191132 -23.919466
v -7.000000 -25.453730 -7.372763
v -7.111260 -26.294340 -3.192711
v -7.216942 -26.257631 -3.188254
v -7.111260 -25.952169 -5.298173
v -7.000000 -26.306786 -3.194222
v -7.000000 -26.478508 -1.067047
v -7.500000 10.191132 -23.919466
v 7.390916 -26.290405 1.059467
v 7.216942 -26.429033 -1.065054
v 7.311745 -26.369513 1.062655
v 7.216942 -26.429033 1.065054
v 7.450484 -18.907722 18.161114
v 7.450484 -17.385048 19.623663
v 7.390916 -18.976095 18.226786
v 7.450484 -20.307774 16.580784
v 7.500000 -23.489712 11.146007
v -7.500000 -18.751265 18.010834
v -7.000000 -15.919670 21.185234
v -7.111260 -17.564438 19.826151
v -7.500000 -8.233368 24.661947
v -7.000000 -4.250899 26.156832
v -7.500000 8.233368 24.661947
v -7.000000 8.391702 25.136215
v -7.000000 10.387115 24.379456
v -7.000000 12.315164 23.464584
v -7.111260 12.309339 23.453485
v 7.000000 10.387115 24.379456
v 7.111260 6.338865 25.717787
v 7.111260 4.248888 26.144459
v 7.000000 15.919670 21.185234
v -7.000000 15.919670 21.185234
v 7.000000 14.163344 22.397537
v 7.000000 17.572750 19.835535
v 7.111260 17.564438 19.826151
v 7.111260 15.912139 21.175211
v 7.111260 19.102823 18.348511
v 7.000000 19.111864 18.357195
v -7.000000 19.111864 18.357195
v 7.500000 22.516661 13.000000
v 7.487464 25.920879 3.147365
v 7.487464 26.090084 1.051394
v 7.111260 -26.465982 1.066543
v 7.000000 -26.306786 -3.194222
v 7.000000 -25.964453 -5.300681
v 7.311745 -26.198496 -3.181073
v 7.311745 -25.857573 -5.278861
v 7.390916 -26.119904 -3.171530
v 7.000000 -20.527031 -16.759802
v 7.000000 -19.111864 -18.357195
v 7.111260 -20.517321 -16.751875
v 7.500000 -25.474558 -5.200668
v 7.500000 -21.397581 -14.769684
v 7.000000 -17.572750 -19.835535
v -7.000000 -17.572750 -19.835535
v 7.311745 -2.123586 -26.305338
v 7.216942 -4.242956 -26.107958
v 7.216942 -2.128380 -26.364714
v 7.500000 -13.896111 -21.974943
v 7.500000 -6.222207 -25.244488
v 7.311745 -4.233401 -26.049160
v 7.311745 -6.315760 -25.624044
v -7.000000 -2.132364 -26.414068
v -7.000000 -0.000000 -26.500000
v 7.000000 -2.132364 -26.414068
v 7.111260 -4.248888 -26.144459
v 7.000000 -0.000000 -26.500000
v -7.111260 -19.102823 18.348511
v 7.111260 -23.930111 11.354979
v 7.000000 -24.777931 9.397030
v -7.000000 -23.941437 11.360353
v -7.000000 -21.809072 15.053716
v 7.111260 -22.938816 13.243732
v 7.216942 -22.906792 13.225243
v 7.111260 -15.912139 21.175211
v 7.216942 -15.889924 21.145649
v 7.111260 -14.156644 22.386942
v 7.111260 -4.248888 26.144459
v -7.000000 -8.391702 25.136215
v 7.111260 -8.387733 25.124325
v 7.216942 -10.367706 24.333902
v 7.216942 -8.376021 25.089249
v 7.000000 -10.387115 24.379456
v 7.111260 -12.309339 23.453485
v -7.000000 10.387115 -24.379456
v -7.000000 12.315164 -23.464584
v 7.000000 10.387115 -24.379456
v 7.000000 12.315164 -23.464584
v 7.000000 14.163344 -22.397537
v -7.000000 15.919670 -21.185234
v 7.000000 15.919670 -21.185234
v 7.000000 17.572750 -19.835535
v 7.000000 8.391702 -25.136215
v 7.500000 4.170693 -25.663307
v 7.500000 13.896111 -21.974943
v 7.216942 19.076155 -18.322895
v 7.311745 19.033194 -18.281630
v 7.311745 17.500414 -19.753883
v 7.000000 21.809072 -15.053716
v 7.111260 21.798756 -15.046595
v 7.111260 20.517321 -16.751875
v -7.000000 21.809072 -15.053716
v 7.216942 21.768322 -15.025588
v 7.311745 20.442533 -16.690813
v 7.500000 23.489712 -11.146007
v 7.487464 20.225912 -16.513947
v 7.487464 18.831505 -18.087906
v 7.500000 24.973471 -7.233654
v 7.487464 25.080339 -7.264609
v -7.487464 25.920879 -3.147365
v -7.487464 26.090084 -1.051394
v -7.500000 24.973471 -7.233654
v -7.216942 20.488676 -16.728487
v -7.111260 20.517321 -16.751875
v -7.450484 20.307774 -16.580784
v -7.390916 18.976095 -18.226786
v -7.450484 18.907722 -18.161114
v 7.000000 25.453730 -7.372763
v 7.000000 23.941437 -11.360353
v -7.111260 26.465982 1.066543
v -7.216942 26.257631 3.188254
v -7.111260 26.294340 3.192711
v -7.111260 25.952169 5.298173
v 7.000000 26.306786 3.194222
v -7.311745 -26.369513 1.062655
v -7.216942 -26.257631 3.188254
v -7.311745 -26.198496 3.181073
v -7.000000 -22.949673 -13.250000
v -7.000000 -21.809072 -15.053716
v -7.111260 -21.798756 -15.046595
v -7.500000 -6.222207 -25.244488
v -7.000000 -25.964453 -5.300681
v -7.500000 -24.310423 -9.219728
v -7.111260 -26.465982 -1.066543
v -7.216942 -26.429033 -1.065054
v -7.500000 8.233368 -24.661947
v -7.487464 8.268600 -24.767483
v 7.450484 -26.025791 3.160103
v 7.450484 -25.687115 5.244062
v 7.390916 -25.780003 5.263025
v 7.111260 -26.465982 -1.066543
v 7.111260 -26.294340 -3.192711
v 7.390916 -26.290405 -1.059467
v 7.390916 -17.447914 19.694624
v 7.390916 -20.381208 16.640741
v 7.311745 -19.033194 18.281630
v 7.216942 -19.076155 18.322895
v 7.311745 -20.442533 16.690813
v 7.000000 -20.527031 16.759802
v 7.500000 -18.751265 18.010834
v -7.450484 -26.025791 3.160103
v -7.487464 -26.090084 1.051394
v -7.450484 -26.195681 1.055650
v -7.500000 -24.973471 7.233654
v -7.500000 -21.397581 14.769684
v -7.487464 -20.225912 16.513947
v -7.487464 -21.489145 14.832887
v -7.487464 -18.831505 18.087906
v -7.500000 -17.241190 19.461279
v -7.450484 -17.385048 19.623663
v -7.390916 -17.447914 19.694624
v -7.390916 -15.806578 21.034735
v 7.000000 -14.163344 22.397537
v 7.111260 -25.441689 7.369275
v 7.000000 -25.453730 7.372763
v -7.500000 -4.170693 25.663307
v -7.000000 2.132364 26.414068
v -7.111260 0.000000 26.487465
v -7.111260 2.131355 26.401573
v -7.111260 -4.248888 26.144459
v -7.450484 6.274125 25.455126
v -7.487464 4.188541 25.773127
v -7.450484 4.205493 25.877439
v -7.111260 4.248888 26.144459
v -7.500000 15.619299 20.785511
v -7.000000 14.163344 22.397537
v -7.216942 10.367706 24.333902
v -7.216942 12.292153 23.420740
v 7.000000 12.315164 23.464584
v 7.000000 2.132364 26.414068
v 7.311745 2.123586 26.305338
v 7.216942 2.128380 26.364714
v 7.216942 0.000000 26.450485
v 7.216942 -2.128380 26.364714
v 7.216942 -4.242956 26.107958
v 7.111260 -2.131355 26.401573
v 7.500000 0.000000 26.000000
v 7.390916 15.806578 21.034735
v 7.311745 14.105042 22.305340
v 7.390916 14.062729 22.238426
v 7.216942 19.076155 18.322895
v 7.450484 20.307774 16.580784
v 7.450484 18.907722 18.161114
v 7.487464 18.831505 18.087906
v 7.487464 20.225912 16.513947
v 7.450484 21.576120 14.892920
v 7.390916 21.654142 14.946774
v 7.500000 18.751265 18.010834
v 7.487464 17.314968 19.544559
v 7.500000 24.973471 7.233654
v 7.487464 21.489145 14.832887
v 7.450484 17.385048 19.623663
v 7.000000 25.453730 7.372763
v 7.000000 24.777931 9.397030
v -7.000000 26.478508 -1.067047
v 7.000000 26.306786 -3.194222
v -7.000000 26.306786 -3.194222
v 7.216942 26.429033 1.065054
v 7.311745 26.369513 -1.062655
v 7.216942 26.429033 -1.065054
v 7.111260 -25.952169 -5.298173
v 7.216942 -26.257631 -3.188254
v 7.216942 -25.915937 -5.290777
v 7.390916 -25.780003 -5.263025
v 7.311745 -25.348953 -7.342413
v 7.390916 -22.786640 -13.155872
v 7.311745 -22.855204 -13.195457
v 7.390916 -21.654142 -14.946774
v 7.311745 -23.842884 -11.313589
v 7.216942 -22.906792 -13.225243
v -7.500000 -13.896111 -21.974943
v 7.450484 -20.307774 -16.580784
v 7.450484 -21.576120 -14.892920
v 7.487464 -0.000000 -26.111261
v 7.487464 -2.101084 -26.026590
v 7.450484 -0.000000 -26.216942
v 7.390916 -2.117216 -26.226423
v 7.390916 -0.000000 -26.311745
v 7.500000 -8.233368 -24.661947
v 7.487464 -4.188541 -25.773127
v 7.487464 -6.248834 -25.352514
v 7.450484 -4.205493 -25.877439
v 7.500000 -2.092131 -25.915689
v 7.216942 -10.367706 -24.333902
v 7.216942 -12.292153 -23.420740
v 7.111260 -12.309339 -23.453485
v 7.111260 -6.338865 -25.717787
v 7.390916 -4.220701 -25.971014
v -7.111260 -4.248888 -26.144459
v -7.311745 -0.000000 -26.390915
v -7.216942 -0.000000 -26.450485
v -7.311745 -2.123586 -26.305338
v -7.390916 -0.000000 -26.311745
v 7.000000 -8.391702 -25.136215
v 7.111260 -8.387733 -25.124325
v 7.000000 -10.387115 -24.379456
v -7.000000 -10.387115 -24.379456
v 7.390916 2.117216 -26.226423
v -7.111260 -0.000000 -26.487465
v 7.000000 -4.250899 -26.156832
v 7.111260 -2.131355 -26.401573
v -7.450484 -18.907722 18.161114
v -7.311745 -21.719297 14.991749
v -7.390916 -21.654142 14.946774
v -7.311745 -22.855204 13.195457
v -7.216942 -21.768322 15.025588
v 7.216942 -23.896702 11.339126
v 7.216942 -24.731632 9.379471
v 7.311745 -24.675936 9.358348
v 7.311745 -22.855204 13.195457
v 7.216942 -21.768322 15.025588
v 7.487464 -23.590229 11.193703
v 7.450484 -22.704538 13.108471
v 7.450484 -23.685707 11.239008
v -7.216942 -22.906792 13.225243
v 7.111260 -17.564438 19.826151
v 7.216942 -17.539915 19.798471
v 7.216942 -14.136880 22.355688
v 7.311745 -15.854138 21.098026
v 7.390916 -10.313326 24.206264
v 7.390916 -12.227677 23.297894
v 7.450484 -12.183620 23.213949
v 7.450484 -8.302067 24.867725
v 7.390916 -8.332088 24.957649
v 7.311745 -12.264470 23.367996
v -7.111260 -8.387733 25.124325
v 7.111260 -6.338865 25.717787
v 7.311745 -6.315760 25.624044
v 7.311745 -8.357159 25.032745
v 7.111260 -10.382201 24.367922
v 7.390916 17.447914 -19.694624
v -7.000000 17.572750 -19.835535
v -7.111260 17.564438 -19.826151
v -7.111260 8.387733 -25.124325
v -7.111260 10.382201 -24.367922
v 7.500000 12.082803 -23.021856
v 7.487464 12.134508 -23.120373
v 7.111260 19.102823 -18.348511
v 7.111260 17.564438 -19.826151
v 7.000000 20.527031 -16.759802
v 7.216942 20.488676 -16.728487
v 7.311745 21.719297 -14.991749
v 7.390916 21.654142 -14.946774
v 7.311745 22.855204 -13.195457
v 7.390916 22.786640 -13.155872
v 7.500000 22.516661 -13.000000
v 7.487464 22.613014 -13.055631
v 7.487464 24.414454 -9.259181
v 7.487464 23.590229 -11.193703
v 7.450484 23.685707 -11.239008
v 7.487464 21.489145 -14.832887
v 7.500000 20.139729 -16.443581
v 7.450484 21.576120 -14.892920
v 7.390916 18.976095 -18.226786
v 7.216942 26.257631 -3.188254
v -7.450484 26.025791 -3.160103
v -7.450484 26.195681 -1.055650
v -7.487464 18.831505 -18.087906
v -7.500000 25.474558 -5.200668
v -7.487464 25.080339 -7.264609
v -7.111260 21.798756 -15.046595
v -7.216942 22.906792 -13.225243
v -7.111260 22.938816 -13.243732
v -7.216942 21.768322 -15.025588
v -7.311745 21.719297 -14.991749
v -7.111260 19.102823 -18.348511
v -7.390916 20.381208 -16.640741
v 7.111260 25.441689 -7.369275
v 7.111260 24.766209 -9.392584
v 7.216942 25.406170 -7.358987
v -7.000000 25.964453 -5.300681
v -7.500000 24.973471 7.233654
v -7.111260 -25.952169 5.298173
v -7.216942 -25.915937 5.290777
v -7.216942 -26.429033 1.065054
v -7.390916 -26.290405 1.059467
v -7.390916 -26.290405 -1.059467
v -7.000000 -19.111864 -18.357195
v -7.487464 -8.268600 -24.767483
v -7.487464 -10.234742 -24.021822
v -7.450484 -26.195681 -1.055650
v -7.450484 -26.025791 -3.160103
v -7.390916 -26.119904 -3.171530
v -7.311745 -26.369513 -1.062655
v -7.311745 -26.198496 -3.181073
v -7.500000 -25.810431 -3.133954
v 7.390916 -26.119904 3.171530
v 7.311745 -25.857573 5.278861
v 7.500000 -25.474558 5.200668
v 7.311745 -26.369513 -1.062655
v 7.311745 -21.719297 14.991749
v 7.311745 -17.500414 19.753883
v 7.000000 -19.111864 18.357195
v 7.111260 -20.517321 16.751875
v -7.000000 -20.527031 16.759802
v 7.500000 -13.896111 21.974943
v 7.487464 -20.225912 16.513947
v 7.450484 -21.576120 14.892920
v 7.487464 -18.831505 18.087906
v -7.487464 -25.920879 3.147365
v -7.487464 -25.583569 5.222923
v -7.311745 -23.842884 11.313589
v -7.500000 -20.139729 16.443581
v -7.450484 -21.576120 14.892920
v -7.450484 -22.704538 13.108471
v -7.500000 -15.619299 20.785511
v -7.487464 -15.686138 20.874458
v -7.311745 -17.500414 19.753883
v -7.450484 -15.749625 20.958944
v -7.487464 -17.314968 19.544559
v -7.216942 -15.889924 21.145649
v -7.216942 -17.539915 19.798471
v -7.311745 -15.854138 21.098026
v -7.000000 -14.163344 22.397537
v -7.111260 -14.156644 22.386942
v 7.311745 -25.348953 7.342413
v 7.390916 -24.601910 9.330274
v 7.111260 -24.766209 9.392584
v -7.216942 -10.367706 24.333902
v -7.216942 -8.376021 25.089249
v -7.111260 -12.309339 23.453485
v -7.216942 -12.292153 23.420740
v -7.216942 -14.136880 22.355688
v -7.500000 -10.191132 23.919466
v -7.487464 -8.268600 24.767483
v -7.487464 -10.234742 24.021822
v -7.487464 -12.134508 23.120373
v -7.450484 0.000000 26.216942
v -7.390916 -2.117216 26.226423
v -7.390916 0.000000 26.311745
v -7.216942 -2.128380 26.364714
v -7.216942 0.000000 26.450485
v -7.311745 0.000000 26.390915
v -7.311745 2.123586 26.305338
v -7.500000 -2.092131 25.915689
v -7.390916 -4.220701 25.971014
v -7.450484 -4.205493 25.877439
v -7.450484 -6.274125 25.455126
v -7.390916 -8.332088 24.957649
v -7.390916 -6.296813 25.547173
v -7.487464 -4.188541 25.773127
v -7.487464 -6.248834 25.352514
v -7.500000 -6.222207 25.244488
v -7.311745 -6.315760 25.624044
v -7.216942 -6.330015 25.681881
v -7.311745 -4.233401 26.049160
v -7.216942 -4.242956 26.107958
v -7.111260 -6.338865 25.717787
v 7.000000 20.527031 16.759802
v -7.000000 21.809072 15.053716
v -7.111260 21.798756 15.046595
v -7.111260 20.517321 16.751875
v 7.000000 21.809072 15.053716
v 7.000000 22.949673 13.250000
v -7.500000 4.170693 25.663307
v -7.216942 8.376021 25.089249
v -7.311745 10.344357 24.279100
v -7.487464 6.248834 25.352514
v -7.487464 8.268600 24.767483
v -7.000000 4.250899 26.156832
v -7.216942 2.128380 26.364714
v -7.500000 18.751265 18.010834
v -7.500000 10.191132 23.919466
v -7.500000 13.896111 21.974943
v -7.487464 15.686138 20.874458
v -7.487464 13.955576 22.068979
v -7.487464 12.134508 23.120373
v -7.111260 14.156644 22.386942
v -7.111260 10.382201 24.367922
v 7.111260 14.156644 22.386942
v 7.111260 0.000000 26.487465
v 7.311745 -2.123586 26.305338
v 7.500000 -4.170693 25.663307
v 7.500000 6.222207 25.244488
v 7.487464 6.248834 25.352514
v 7.487464 4.188541 25.773127
v 7.216942 15.889924 21.145649
v 7.216942 14.136880 22.355688
v 7.111260 21.798756 15.046595
v 7.311745 21.719297 14.991749
v 7.311745 22.855204 13.195457
v 7.216942 21.768322 15.025588
v 7.216942 22.906792 13.225243
v 7.390916 22.786640 13.155872
v 7.390916 20.381208 16.640741
v 7.500000 17.241190 19.461279
v 7.500000 20.139729 16.443581
v 7.390916 18.976095 18.226786
v 7.450484 15.749625 20.958944
v 7.450484 14.012059 22.158298
v -7.000000 24.777931 9.397030
v -7.000000 23.941437 11.360353
v -7.111260 24.766209 9.392584
v 7.000000 23.941437 11.360353
v 7.216942 24.731632 9.379471
v 7.311745 24.675936 9.358348
v 7.216942 25.406170 7.358987
v 7.216942 23.896702 11.339126
v 7.500000 24.310423 9.219728
v 7.487464 25.080339 7.264609
v 7.487464 24.414454 9.259181
v 7.311745 23.842884 11.313589
v 7.390916 23.771357 11.279650
v 7.500000 25.810431 3.133954
v 7.500000 25.474558 5.200668
v 7.487464 25.583569 5.222923
v 7.390916 24.601910 9.330274
v 7.450484 25.181847 7.294011
v 7.390916 25.780003 5.263025
v 7.390916 25.272907 7.320387
v 7.450484 24.513266 9.296656
v 7.311745 25.348953 7.342413
v 7.216942 25.915937 5.290777
v 7.111260 25.441689 7.369275
v 7.450484 26.025791 3.160103
v 7.450484 26.195681 1.055650
v 7.390916 26.119904 3.171530
v 7.111260 25.952169 5.298173
v 7.311745 25.857573 5.278861
v 7.311745 26.198496 3.181073
v 7.216942 26.257631 3.188254
v 7.000000 26.478508 -1.067047
v 7.311745 26.369513 1.062655
v 7.111260 26.465982 1.066543
v 7.000000 -25.964453 5.300681
v -7.000000 -25.964453 5.300681
v 7.216942 -26.257631 3.188254
v 7.111260 -26.294340 3.192711
v -7.000000 -26.306786 3.194222
v 7.450484 -24.513266 -9.296656
v 7.390916 -24.601910 -9.330274
v 7.450484 -23.685707 -11.239008
v 7.487464 -24.414454 -9.259181
v 7.450484 -25.181847 -7.294011
v 7.487464 -25.080339 -7.264609
v 7.311745 -24.675936 -9.358348
v 7.111260 -25.441689 -7.369275
v 7.390916 -25.272907 -7.320387
v 7.450484 -26.025791 -3.160103
v 7.500000 -25.978914 -1.046914
v 7.216942 -23.896702 -11.339126
v 7.216942 -24.731632 -9.379471
v 7.390916 -23.771357 -11.279650
v -7.487464 -12.134508 -23.120373
v 7.311745 -19.033194 -18.281630
v 7.216942 -19.076155 -18.322895
v 7.311745 -17.500414 -19.753883
v 7.111260 -19.102823 -18.348511
v 7.111260 -17.564438 -19.826151
v 7.216942 -17.539915 -19.798471
v 7.500000 -20.139729 -16.443581
v 7.487464 -20.225912 -16.513947
v 7.390916 -20.381208 -16.640741
v 7.390916 -18.976095 -18.226786
v 7.390916 -15.806578 -21.034735
v 7.311745 -15.854138 -21.098026
v 7.390916 -17.447914 -19.694624
v 7.450484 -17.385048 -19.623663
v 7.450484 -18.907722 -18.161114
v 7.450484 -2.109587 -26.131927
v 7.311745 -14.105042 -22.305340
v 7.000000 -12.315164 -23.464584
v 7.450484 -6.274125 -25.455126
v 7.311745 -8.357159 -25.032745
v 7.390916 -8.332088 -24.957649
v 7.311745 -10.344357 -24.279100
v 7.390916 -10.313326 -24.206264
v 7.487464 -8.268600 -24.767483
v 7.487464 -13.955576 -22.068979
v 7.487464 -12.134508 -23.120373
v 7.487464 -15.686138 -20.874458
v 7.500000 -12.082803 -23.021856
v 7.500000 -4.170693 -25.663307
v 7.111260 -10.382201 -24.367922
v 7.216942 -8.376021 -25.089249
v -7.216942 -4.242956 -26.107958
v -7.311745 -4.233401 -26.049160
v -7.000000 2.132364 -26.414068
v -7.000000 -8.391702 -25.136215
v -7.216942 -6.330015 -25.681881
v 7.487464 2.101084 -26.026590
v 7.487464 4.188541 -25.773127
v 7.111260 4.248888 -26.144459
v 7.216942 4.242956 -26.107958
v 7.216942 2.128380 -26.364714
v 7.111260 2.131355 -26.401573
v -7.450484 -20.307774 16.580784
v -7.111260 -21.798756 15.046595
v -7.487464 -22.613014 13.055631
v -7.487464 -23.590229 11.193703
v 7.390916 -14.062729 22.238426
v 7.216942 -12.292153 23.420740
v 7.487464 -10.234742 24.021822
v 7.487464 -8.268600 24.767483
v 7.311745 -10.344357 24.279100
v 7.390916 -6.296813 25.547173
v 7.390916 -4.220701 25.971014
v 7.311745 -4.233401 26.049160
v 7.216942 -6.330015 25.681881
v 7.487464 17.314968 -19.544559
v 7.111260 15.912139 -21.175211
v 7.111260 14.156644 -22.386942
v 7.450484 12.183620 -23.213949
v 7.390916 10.313326 -24.206264
v 7.390916 12.227677 -23.297894
v -7.216942 10.367706 -24.333902
v -7.111260 6.338865 -25.717787
v 7.111260 8.387733 -25.124325
v 7.111260 10.382201 -24.367922
v 7.216942 10.367706 -24.333902
v 7.216942 8.376021 -25.089249
v 7.311745 6.315760 -25.624044
v 7.390916 6.296813 -25.547173
v 7.390916 4.220701 -25.971014
v 7.311745 10.344357 -24.279100
v 7.500000 6.222207 -25.244488
v 7.487464 6.248834 -25.352514
v 7.450484 6.274125 -25.455126
v 7.216942 17.539915 -19.798471
v 7.000000 22.949673 -13.250000
v 7.111260 22.938816 -13.243732
v 7.216942 22.906792 -13.225243
v 7.111260 23.930111 -11.354979
v 7.216942 23.896702 -11.339126
v 7.450484 22.704538 -13.108471
v 7.311745 23.842884 -11.313589
v 7.450484 20.307774 -16.580784
v 7.390916 20.381208 -16.640741
v 7.450484 24.513266 -9.296656
v 7.487464 25.583569 -5.222923
v 7.450484 25.687115 -5.244062
v 7.390916 25.780003 -5.263025
v 7.390916 25.272907 -7.320387
v 7.311745 25.348953 -7.342413
v 7.311745 25.857573 -5.278861
v 7.450484 25.181847 -7.294011
v 7.487464 26.090084 -1.051394
v -7.390916 24.601910 -9.330274
v -7.450484 24.513266 -9.296656
v -7.450484 25.181847 -7.294011
v -7.500000 15.619299 -20.785511
v -7.500000 13.896111 -21.974943
v -7.390916 17.447914 -19.694624
v -7.500000 25.810431 -3.133954
v -7.500000 23.489712 -11.146007
v -7.487464 20.225912 -16.513947
v -7.450484 21.576120 -14.892920
v 7.000000 25.964453 -5.300681
v -7.000000 25.453730 -7.372763
v -7.450484 25.687115 -5.244062
v -7.390916 21.654142 -14.946774
v -7.450484 22.704538 -13.108471
v -7.390916 22.786640 -13.155872
v -7.450484 26.195681 1.055650
v -7.500000 25.474558 5.200668
v -7.487464 25.080339 7.264609
v -7.216942 25.406170 7.358987
v -7.000000 -25.453730 7.372763
v -7.390916 -26.119904 3.171530
v -7.390916 -25.780003 5.263025
v -7.000000 -20.527031 -16.759802
v -7.450484 -17.385048 -19.623663
v -7.487464 -15.686138 -20.874458
v -7.450484 -15.749625 -20.958944
v -7.500000 -8.233368 -24.661947
v -7.390916 -4.220701 -25.971014
v -7.487464 -0.000000 -26.111261
v -7.487464 -2.101084 -26.026590
v -7.500000 -2.092131 -25.915689
v -7.487464 -26.090084 -1.051394
v -7.487464 -25.920879 -3.147365
v -7.311745 -25.857573 -5.278861
v -7.111260 -25.441689 -7.369275
v -7.216942 -25.406170 -7.358987
v -7.111260 -24.766209 -9.392584
v -7.111260 -23.930111 -11.354979
v -7.500000 -21.397581 -14.769684
v 7.500000 -24.310423 9.219728
v 7.500000 -25.810431 3.133954
v 7.487464 -25.920879 3.147365
v 7.487464 -25.583569 5.222923
v 7.487464 -25.080339 7.264609
v 7.390916 -23.771357 11.279650
v 7.390916 -21.654142 14.946774
v 7.111260 -21.798756 15.046595
v 7.216942 -20.488676 16.728487
v 7.111260 -19.102823 18.348511
v -7.111260 -20.517321 16.751875
v 7.500000 -20.139729 16.443581
v 7.487464 -21.489145 14.832887
v 7.487464 -15.686138 20.874458
v 7.450484 -15.749625 20.958944
v -7.500000 -25.474558 5.200668
v -7.487464 -25.080339 7.264609
v -7.450484 -25.687115 5.244062
v -7.216942 -23.896702 11.339126
v -7.111260 -23.930111 11.354979
v -7.216942 -24.731632 9.379471
v -7.390916 -22.786640 13.155872
v -7.311745 -19.033194 18.281630
v -7.390916 -14.062729 22.238426
v -7.111260 -15.912139 21.175211
v 7.390916 -25.272907 7.320387
v 7.216942 -25.406170 7.358987
v -7.311745 -10.344357 24.279100
v -7.111260 -10.382201 24.367922
v -7.500000 -12.082803 23.021856
v -7.450484 -8.302067 24.867725
v -7.450484 -2.109587 26.131927
v -7.390916 2.117216 26.226423
v -7.111260 -2.131355 26.401573
v -7.311745 -2.123586 26.305338
v 7.111260 20.517321 16.751875
v 7.216942 20.488676 16.728487
v -7.000000 20.527031 16.759802
v -7.000000 22.949673 13.250000
v -7.311745 22.855204 13.195457
v -7.216942 22.906792 13.225243
v -7.311745 23.842884 11.313589
v -7.216942 21.768322 15.025588
v -7.216942 23.896702 11.339126
v -7.311745 24.675936 9.358348
v -7.311745 25.348953 7.342413
v -7.487464 2.101084 26.026590
v -7.487464 0.000000 26.111261
v -7.500000 6.222207 25.244488
v -7.111260 6.338865 25.717787
v -7.216942 4.242956 26.107958
v -7.311745 6.315760 25.624044
v -7.311745 4.233401 26.049160
v -7.500000 20.139729 16.443581
v -7.450484 12.183620 23.213949
v -7.450484 10.276166 24.119047
v -7.390916 8.332088 24.957649
v -7.390916 6.296813 25.547173
v -7.487464 10.234742 24.021822
v -7.500000 12.082803 23.021856
v -7.000000 17.572750 19.835535
v -7.111260 17.564438 19.826151
v -7.111260 8.387733 25.124325
v 7.311745 12.264470 23.367996
v 7.216942 12.292153 23.420740
v 7.111260 12.309339 23.453485
v 7.111260 10.382201 24.367922
v 7.311745 4.233401 26.049160
v 7.390916 4.220701 25.971014
v 7.311745 6.315760 25.624044
v 7.216942 4.242956 26.107958
v 7.450484 6.274125 25.455126
v 7.450484 12.183620 23.213949
v 7.487464 8.268600 24.767483
v 7.111260 8.387733 25.124325
v 7.216942 8.376021 25.089249
v 7.311745 8.357159 25.032745
v 7.390916 8.332088 24.957649
v 7.111260 2.131355 26.401573
v 7.390916 2.117216 26.226423
v 7.390916 0.000000 26.311745
v 7.450484 0.000000 26.216942
v 7.450484 2.109587 26.131927
v 7.311745 0.000000 26.390915
v 7.390916 -2.117216 26.226423
v 7.450484 -4.205493 25.877439
v 7.487464 2.101084 26.026590
v 7.487464 -4.188541 25.773127
v 7.487464 -2.101084 26.026590
v 7.500000 -2.092131 25.915689
v 7.500000 -6.222207 25.244488
v 7.487464 -6.248834 25.352514
v 7.500000 10.191132 23.919466
v 7.487464 10.234742 24.021822
v 7.311745 15.854138 21.098026
v 7.111260 22.938816 13.243732
v 7.450484 22.704538 13.108471
v 7.487464 22.613014 13.055631
v 7.487464 23.590229 11.193703
v 7.311745 20.442533 16.690813
v 7.500000 15.619299 20.785511
v 7.500000 21.397581 14.769684
v 7.311745 17.500414 19.753883
v 7.111260 23.930111 11.354979
v 7.500000 23.489712 11.146007
v 7.450484 23.685707 11.239008
v 7.111260 24.766209 9.392584
v 7.450484 25.687115 5.244062
v 7.111260 26.294340 3.192711
v -7.111260 26.465982 -1.066543
v -7.216942 26.429033 -1.065054
v -7.216942 26.257631 -3.188254
v 7.390916 26.290405 1.059467
v 7.216942 -21.768322 -15.025588
v 7.111260 -21.798756 -15.046595
v 7.000000 -21.809072 -15.053716
v 7.111260 -22.938816 -13.243732
v 7.311745 -26.198496 3.181073
v 7.216942 -25.915937 5.290777
v -7.111260 -26.465982 1.066543
v 7.000000 -26.306786 3.194222
v 7.500000 -24.973471 -7.233654
v 7.450484 -22.704538 -13.108471
v 7.487464 -23.590229 -11.193703
v 7.487464 -22.613014 -13.055631
v 7.487464 -21.489145 -14.832887
v 7.500000 -23.489712 -11.146007
v 7.000000 -25.453730 -7.372763
v 7.216942 -25.406170 -7.358987
v 7.111260 -24.766209 -9.392584
v 7.450484 -25.687115 -5.244062
v 7.500000 -25.810431 -3.133954
v 7.487464 -25.920879 -3.147365
v 7.487464 -26.090084 -1.051394
v -7.500000 -17.241190 -19.461279
v -7.500000 -12.082803 -23.021856
v 7.216942 -20.488676 -16.728487
v 7.487464 -17.314968 -19.544559
v 7.500000 -17.241190 -19.461279
v 7.450484 -15.749625 -20.958944
v 7.450484 -14.012059 -22.158298
v 7.450484 -12.183620 -23.213949
v 7.390916 -12.227677 -23.297894
v 7.450484 -10.276166 -24.119047
v 7.000000 -15.919670 -21.185234
v 7.390916 -14.062729 -22.238426
v 7.311745 -12.264470 -23.367996
v 7.390916 -6.296813 -25.547173
v 7.487464 -10.234742 -24.021822
v 7.450484 -8.302067 -24.867725
v 7.216942 -6.330015 -25.681881
v -7.216942 -2.128380 -26.364714
v 7.000000 2.132364 -26.414068
v -7.111260 -8.387733 -25.124325
v 7.500000 2.092131 -25.915689
v 7.450484 2.109587 -26.131927
v 7.311745 4.233401 -26.049160
v 7.311745 2.123586 -26.305338
v 7.111260 -0.000000 -26.487465
v -7.311745 -20.442533 16.690813
v -7.111260 -22.938816 13.243732
v -7.500000 -24.310423 9.219728
v 7.390916 -15.806578 21.034735
v 7.311745 -14.105042 22.305340
v 7.450484 -10.276166 24.119047
v 7.487464 -12.134508 23.120373
v 7.450484 -6.274125 25.455126
v 7.500000 17.241190 -19.461279
v -7.311745 2.123586 -26.305338
v -7.311745 10.344357 -24.279100
v -7.311745 8.357159 -25.032745
v -7.390916 8.332088 -24.957649
v -7.390916 10.313326 -24.206264
v -7.450484 8.302067 -24.867725
v -7.311745 6.315760 -25.624044
v -7.390916 6.296813 -25.547173
v -7.216942 8.376021 -25.089249
v -7.216942 6.330015 -25.681881
v -7.111260 4.248888 -26.144459
v 7.216942 6.330015 -25.681881
v 7.311745 8.357159 -25.032745
v 7.487464 10.234742 -24.021822
v 7.216942 15.889924 -21.145649
v 7.311745 15.854138 -21.098026
v -7.000000 22.949673 -13.250000
v 7.216942 24.731632 -9.379471
v 7.450484 18.907722 -18.161114
v 7.390916 24.601910 -9.330274
v 7.450484 26.025791 -3.160103
v 7.311745 26.198496 -3.181073
v 7.500000 25.978914 -1.046914
v 7.111260 26.465982 -1.066543
v 7.111260 26.294340 -3.192711
v -7.487464 15.686138 -20.874458
v -7.487464 10.234742 -24.021822
v -7.216942 17.539915 -19.798471
v -7.216942 15.889924 -21.145649
v -7.450484 17.385048 -19.623663
v -7.390916 15.806578 -21.034735
v -7.487464 24.414454 -9.259181
v -7.487464 23.590229 -11.193703
v -7.487464 22.613014 -13.055631
v 7.111260 25.952169 -5.298173
v -7.111260 25.441689 -7.369275
v -7.111260 24.766209 -9.392584
v -7.487464 25.583569 -5.222923
v -7.450484 23.685707 -11.239008
v -7.390916 23.771357 -11.279650
v -7.311745 23.842884 -11.313589
v -7.487464 26.090084 1.051394
v -7.390916 26.290405 1.059467
v -7.390916 26.119904 3.171530
v -7.487464 25.583569 5.222923
v -7.487464 25.920879 3.147365
v -7.216942 25.915937 5.290777
v -7.311745 25.857573 5.278861
v -7.000000 -24.777931 9.397030
v -7.216942 -20.488676 -16.728487
v -7.311745 -20.442533 -16.690813
v -7.216942 -19.076155 -18.322895
v -7.111260 -20.517321 -16.751875
v -7.390916 -18.976095 -18.226786
v -7.390916 -17.447914 -19.694624
v -7.311745 -6.315760 -25.624044
v -7.390916 -6.296813 -25.547173
v -7.390916 -8.332088 -24.957649
v -7.311745 -8.357159 -25.032745
v -7.311745 -10.344357 -24.279100
v -7.390916 -10.313326 -24.206264
v -7.487464 -6.248834 -25.352514
v -7.390916 -2.117216 -26.226423
v -7.450484 -0.000000 -26.216942
v -7.500000 -25.978914 -1.046914
v -7.487464 -25.583569 -5.222923
v -7.390916 -25.780003 -5.263025
v -7.216942 -25.915937 -5.290777
v -7.500000 -22.516661 -13.000000
v -7.487464 -22.613014 -13.055631
v 7.500000 -24.973471 7.233654
v 7.487464 -24.414454 9.259181
v 7.311745 -23.842884 11.313589
v 7.390916 -22.786640 13.155872
v 7.487464 -22.613014 13.055631
v 7.487464 -13.955576 22.068979
v 7.500000 -15.619299 20.785511
v 7.487464 -17.314968 19.544559
v -7.500000 -25.810431 3.133954
v -7.216942 -25.406170 7.358987
v -7.311745 -25.348953 7.342413
v -7.311745 -25.857573 5.278861
v -7.390916 -23.771357 11.279650
v -7.390916 -24.601910 9.330274
v -7.390916 -18.976095 18.226786
v -7.216942 -19.076155 18.322895
v -7.450484 -12.183620 23.213949
v -7.390916 -12.227677 23.297894
v -7.311745 -14.105042 22.305340
v 7.450484 -25.181847 7.294011
v -7.311745 -8.357159 25.032745
v -7.311745 -12.264470 23.367996
v -7.450484 -10.276166 24.119047
v -7.487464 -2.101084 26.026590
v -7.390916 4.220701 25.971014
v -7.111260 22.938816 13.243732
v -7.311745 21.719297 14.991749
v -7.390916 21.654142 14.946774
v -7.111260 23.930111 11.354979
v -7.500000 23.489712 11.146007
v -7.500000 24.310423 9.219728
v -7.487464 24.414454 9.259181
v -7.216942 24.731632 9.379471
v -7.500000 2.092131 25.915689
v -7.450484 2.109587 26.131927
v -7.216942 6.330015 25.681881
v -7.500000 17.241190 19.461279
v -7.487464 17.314968 19.544559
v -7.390916 15.806578 21.034735
v -7.390916 14.062729 22.238426
v -7.311745 14.105042 22.305340
v -7.311745 15.854138 21.098026
v -7.450484 21.576120 14.892920
v -7.450484 22.704538 13.108471
v -7.390916 10.313326 24.206264
v -7.311745 8.357159 25.032745
v -7.450484 8.302067 24.867725
v -7.111260 15.912139 21.175211
v -7.216942 15.889924 21.145649
v -7.216942 14.136880 22.355688
v -7.450484 14.012059 22.158298
v -7.311745 12.264470 23.367996
v 7.311745 10.344357 24.279100
v 7.216942 6.330015 25.681881
v 7.390916 6.296813 25.547173
v 7.450484 4.205493 25.877439
v 7.390916 12.227677 23.297894
v 7.487464 12.134508 23.120373
v 7.450484 8.302067 24.867725
v 7.450484 -2.109587 26.131927
v 7.487464 0.000000 26.111261
v 7.500000 4.170693 25.663307
v 7.500000 -8.233368 24.661947
v 7.500000 8.233368 24.661947
v 7.216942 17.539915 19.798471
v 7.390916 17.447914 19.694624
v 7.311745 19.033194 18.281630
v -7.390916 26.119904 -3.171530
v -7.111260 26.294340 -3.192711
v 7.311745 -21.719297 -14.991749
v 7.111260 -25.952169 5.298173
v -7.111260 -26.294340 3.192711
v 7.500000 -22.516661 -13.000000
v 7.487464 -25.583569 -5.222923
v -7.500000 -15.619299 -20.785511
v -7.487464 -17.314968 -19.544559
v 7.311745 -20.442533 -16.690813
v 7.487464 -18.831505 -18.087906
v 7.500000 -15.619299 -20.785511
v 7.216942 -15.889924 -21.145649
v 7.000000 -14.163344 -22.397537
v -7.000000 -14.163344 -22.397537
v -7.000000 -15.919670 -21.185234
v -7.390916 -15.806578 -21.034735
v -7.311745 -17.500414 -19.753883
v -7.216942 -15.889924 -21.145649
v -7.216942 -17.539915 -19.798471
v -7.111260 -17.564438 -19.826151
v -7.111260 -2.131355 -26.401573
v -7.216942 -8.376021 -25.089249
v -7.000000 -12.315164 -23.464584
v -7.111260 -12.309339 -23.453485
v 7.450484 4.205493 -25.877439
v 7.216942 -0.000000 -26.450485
v -7.216942 -20.488676 16.728487
v -7.311745 -24.675936 9.358348
v -7.390916 -25.272907 7.320387
v -7.500000 -23.489712 11.146007
v -7.487464 -24.414454 9.259181
v 7.500000 -12.082803 23.021856
v 7.450484 17.385048 -19.623663
v 7.487464 15.686138 -20.874458
v 7.450484 15.749625 -20.958944
v 7.390916 15.806578 -21.034735
v 7.311745 14.105042 -22.305340
v 7.111260 12.309339 -23.453485
v 7.216942 12.292153 -23.420740
v 7.216942 14.136880 -22.355688
v 7.311745 12.264470 -23.367996
v -7.216942 4.242956 -26.107958
v -7.311745 4.233401 -26.049160
v 7.390916 8.332088 -24.957649
v 7.450484 8.302067 -24.867725
v 7.487464 8.268600 -24.767483
v 7.450484 10.276166 -24.119047
v 7.311745 24.675936 -9.358348
v 7.390916 23.771357 -11.279650
v 7.450484 26.195681 -1.055650
v 7.487464 25.920879 -3.147365
v -7.311745 24.675936 -9.358348
v -7.311745 25.348953 -7.342413
v -7.390916 25.272907 -7.320387
v -7.216942 25.406170 -7.358987
v -7.216942 24.731632 -9.379471
v -7.311745 12.264470 -23.367996
v -7.000000 14.163344 -22.397537
v -7.111260 14.156644 -22.386942
v -7.111260 15.912139 -21.175211
v -7.487464 17.314968 -19.544559
v -7.450484 10.276166 -24.119047
v -7.450484 12.183620 -23.213949
v -7.487464 12.134508 -23.120373
v -7.500000 24.310423 -9.219728
v -7.500000 22.516661 -13.000000
v -7.500000 21.397581 -14.769684
v -7.487464 21.489145 -14.832887
v 7.216942 25.915937 -5.290777
v -7.216942 23.896702 -11.339126
v -7.311745 22.855204 -13.195457
v -7.500000 25.978914 1.046914
v -7.216942 26.429033 1.065054
v -7.390916 26.290405 -1.059467
v -7.311745 26.198496 3.181073
v -7.450484 26.025791 3.160103
v -7.450484 25.687115 5.244062
v -7.390916 25.780003 5.263025
v -7.390916 25.272907 7.320387
v -7.111260 -19.102823 -18.348511
v -7.450484 -10.276166 -24.119047
v -7.450484 -12.183620 -23.213949
v -7.487464 -4.188541 -25.773127
v -7.450484 -8.302067 -24.867725
v -7.450484 -2.109587 -26.131927
v -7.390916 2.117216 -26.226423
v -7.500000 -24.973471 -7.233654
v -7.500000 -25.474558 -5.200668
v -7.390916 -25.272907 -7.320387
v -7.450484 -25.181847 -7.294011
v -7.390916 -24.601910 -9.330274
v -7.450484 -24.513266 -9.296656
v -7.450484 -23.685707 -11.239008
v -7.450484 -25.687115 -5.244062
v -7.111260 -22.938816 -13.243732
v -7.216942 -22.906792 -13.225243
v -7.216942 -21.768322 -15.025588
v -7.450484 -21.576120 -14.892920
v -7.450484 -20.307774 -16.580784
v -7.390916 -21.654142 -14.946774
v -7.390916 -20.381208 -16.640741
v -7.500000 -20.139729 -16.443581
v -7.450484 -18.907722 -18.161114
v 7.450484 -24.513266 9.296656
v 7.500000 -21.397581 14.769684
v 7.450484 -14.012059 22.158298
v 7.500000 -17.241190 19.461279
v -7.111260 -25.441689 7.369275
v -7.450484 -23.685707 11.239008
v -7.390916 -20.381208 16.640741
v -7.450484 -14.012059 22.158298
v -7.390916 -10.313326 24.206264
v -7.311745 20.442533 16.690813
v -7.311745 19.033194 18.281630
v -7.216942 19.076155 18.322895
v -7.390916 22.786640 13.155872
v -7.450484 15.749625 20.958944
v -7.311745 17.500414 19.753883
v -7.487464 20.225912 16.513947
v -7.111260 19.102823 18.348511
v -7.390916 12.227677 23.297894
v 7.216942 10.367706 24.333902
v 7.500000 12.082803 23.021856
v 7.450484 10.276166 24.119047
v 7.500000 2.092131 25.915689
v -7.311745 26.198496 -3.181073
v -7.311745 25.857573 -5.278861
v -7.111260 25.952169 -5.298173
v 7.111260 -15.912139 -21.175211
v 7.111260 -14.156644 -22.386942
v -7.487464 -13.955576 -22.068979
v -7.450484 -14.012059 -22.158298
v -7.311745 -15.854138 -21.098026
v -7.311745 -14.105042 -22.305340
v -7.216942 -14.136880 -22.355688
v -7.311745 -19.033194 -18.281630
v -7.111260 -10.382201 -24.367922
v -7.390916 -14.062729 -22.238426
v -7.111260 -14.156644 -22.386942
v -7.216942 -12.292153 -23.420740
v 7.311745 -0.000000 -26.390915
v -7.450484 -25.181847 7.294011
v 7.500000 15.619299 -20.785511
v 7.390916 14.062729 -22.238426
v 7.450484 14.012059 -22.158298
v 7.487464 13.955576 -22.068979
v -7.111260 2.131355 -26.401573
v 7.500000 8.233368 -24.661947
v 7.390916 26.119904 -3.171530
v 7.500000 25.810431 -3.133954
v -7.390916 25.780003 -5.263025
v -7.111260 12.309339 -23.453485
v -7.311745 17.500414 -19.753883
v -7.311745 15.854138 -21.098026
v -7.311745 14.105042 -22.305340
v -7.450484 15.749625 -20.958944
v -7.390916 12.227677 -23.297894
v -7.500000 17.241190 -19.461279
v -7.487464 13.955576 -22.068979
v -7.450484 14.012059 -22.158298
v -7.500000 12.082803 -23.021856
v -7.111260 23.930111 -11.354979
v -7.500000 25.810431 3.133954
v -7.311745 26.369513 -1.062655
v -7.450484 25.181847 7.294011
v -7.450484 24.513266 9.296656
v -7.390916 24.601910 9.330274
v -7.450484 23.685707 11.239008
v -7.500000 -4.170693 -25.663307
v -7.450484 -6.274125 -25.455126
v -7.450484 -4.205493 -25.877439
v -7.500000 6.222207 -25.244488
v -7.487464 6.248834 -25.352514
v -7.487464 4.188541 -25.773127
v -7.450484 6.274125 -25.455126
v -7.450484 4.205493 -25.877439
v -7.450484 2.109587 -26.131927
v -7.390916 4.220701 -25.971014
v -7.487464 -25.080339 -7.264609
v -7.311745 -25.348953 -7.342413
v -7.311745 -24.675936 -9.358348
v -7.216942 -24.731632 -9.379471
v -7.500000 -23.489712 -11.146007
v -7.487464 -23.590229 -11.193703
v -7.311745 -21.719297 -14.991749
v -7.487464 -20.225912 -16.513947
v 7.500000 -22.516661 13.000000
v -7.111260 -24.766209 9.392584
v -7.450484 -24.513266 9.296656
v -7.487464 -13.955576 22.068979
v -7.390916 20.381208 16.640741
v -7.216942 20.488676 16.728487
v -7.500000 22.516661 13.000000
v -7.487464 22.613014 13.055631
v -7.216942 17.539915 19.798471
v -7.390916 17.447914 19.694624
v -7.487464 21.489145 14.832887
v 7.390916 10.313326 24.206264
v -7.216942 25.915937 -5.290777
v 7.216942 -14.136880 -22.355688
v -7.111260 -15.912139 -21.175211
v -7.390916 -12.227677 -23.297894
v -7.311745 -12.264470 -23.367996
v -7.216942 -10.367706 -24.333902
v -7.216942 2.128380 -26.364714
v 7.390916 26.290405 -1.059467
v -7.216942 12.292153 -23.420740
v -7.216942 14.136880 -22.355688
v -7.390916 14.062729 -22.238426
v -7.311745 26.369513 1.062655
v -7.487464 23.590229 11.193703
v -7.390916 23.771357 11.279650
v -7.500000 4.170693 -25.663307
v -7.487464 2.101084 -26.026590
v -7.487464 -24.414454 -9.259181
v -7.311745 -23.842884 -11.313589
v -7.450484 -22.704538 -13.108471
v -7.390916 -22.786640 -13.155872
v -7.487464 -21.489145 -14.832887
v -7.487464 -18.831505 -18.087906
v -7.450484 20.307774 16.580784
v -7.450484 17.385048 19.623663
v -7.487464 18.831505 18.087906
v -7.450484 18.907722 18.161114
v -7.390916 18.976095 18.226786
v -7.500000 2.092131 -25.915689
v -7.216942 -23.896702 -11.339126
v -7.390916 -23.771357 -11.279650
v -7.311745 -22.855204 -13.195457
f 1 2 3
f 4 5 6
f 7 6 5
f 8 1 3
f 9 2 1
f 10 6 7
f 11 7 5
f 12 4 6
f 13 3 2
f 14 5 4
f 15 9 1
f 16 2 9
f 17 18 19
f 20 10 7
f 21 22 23
f 21 24 22
f 25 26 27
f 25 27 24
f 28 4 12
f 28 12 6
f 29 23 22
f 30 31 32
f 30 32 33
f 34 13 2
f 35 36 34
f 37 38 39
f 37 39 40
f 41 42 43
f 44 45 46
f 44 47 45
f 48 8 3
f 49 1 8
f 50 51 52
f 50 52 53
f 54 55 56
f 57 58 59
f 60 57 59
f 61 56 55
f 62 63 64
f 65 66 67
f 68 66 69
f 68 70 67
f 68 67 66
f 71 16 9
f 72 2 16
f 73 14 4
f 74 75 76
f 77 78 79
f 80 81 82
f 83 84 85
f 83 39 38
f 86 45 47
f 86 87 45
f 88 11 5
f 89 47 44
f 90 91 92
f 90 92 93
f 94 43 42
f 94 93 43
f 95 5 14
f 96 19 18
f 97 98 99
f 100 101 102
f 100 102 103
f 104 3 13
f 105 10 20
f 106 56 61
f 106 107 56
f 108 6 10
f 109 25 24
f 109 24 21
f 110 28 6
f 111 32 31
f 111 31 112
f 113 114 112
f 115 113 112
f 115 112 31
f 116 31 30
f 116 30 33
f 116 33 117
f 118 119 120
f 118 121 119
f 122 121 118
f 122 118 123
f 122 124 121
f 125 126 121
f 125 121 124
f 127 34 2
f 128 2 129
f 130 41 43
f 130 97 99
f 131 93 132
f 131 43 93
f 133 134 135
f 136 137 138
f 139 48 3
f 140 8 48
f 141 137 142
f 143 144 145
f 146 49 8
f 147 1 49
f 148 149 144
f 148 144 143
f 150 151 152
f 150 152 52
f 153 145 144
f 154 152 151
f 155 54 56
f 155 56 107
f 156 58 157
f 158 58 57
f 158 157 58
f 159 57 60
f 160 59 58
f 160 58 156
f 160 156 161
f 162 163 164
f 162 164 61
f 165 22 24
f 166 63 26
f 166 26 25
f 167 168 169
f 170 63 62
f 170 62 171
f 170 167 26
f 170 26 63
f 172 173 174
f 172 174 69
f 175 174 173
f 176 175 173
f 176 177 178
f 179 178 177
f 179 79 78
f 180 70 68
f 180 68 69
f 180 69 174
f 181 15 1
f 182 9 15
f 183 184 185
f 186 187 188
f 186 77 189
f 190 188 187
f 191 184 183
f 192 16 71
f 193 9 194
f 195 196 72
f 195 72 16
f 195 16 196
f 197 4 198
f 199 73 4
f 200 76 75
f 201 76 200
f 201 189 77
f 201 77 79
f 202 203 204
f 205 81 80
f 206 82 81
f 207 208 209
f 207 209 83
f 207 83 85
f 210 39 83
f 210 83 209
f 210 209 208
f 210 40 39
f 211 84 83
f 211 83 38
f 212 213 214
f 215 216 87
f 215 87 86
f 215 217 216
f 218 88 5
f 219 89 132
f 219 132 93
f 219 93 92
f 220 7 11
f 221 222 91
f 221 91 90
f 221 90 93
f 221 93 94
f 221 94 42
f 223 5 95
f 223 95 224
f 225 226 227
f 225 18 17
f 228 97 130
f 228 130 43
f 228 43 131
f 228 131 229
f 230 19 96
f 230 96 98
f 230 135 19
f 231 102 101
f 232 103 102
f 233 234 235
f 233 235 232
f 233 232 102
f 233 102 231
f 236 159 60
f 237 104 13
f 238 239 240
f 241 20 7
f 242 105 20
f 243 242 244
f 243 245 105
f 246 10 105
f 247 248 249
f 250 164 171
f 250 171 62
f 250 62 64
f 250 106 61
f 250 61 164
f 251 157 252
f 253 6 108
f 254 23 29
f 255 23 254
f 255 254 256
f 255 21 23
f 257 109 21
f 258 259 260
f 261 256 254
f 262 28 110
f 263 114 113
f 263 113 120
f 263 120 119
f 264 114 265
f 266 113 115
f 266 120 113
f 267 33 254
f 267 254 29
f 267 117 33
f 268 269 270
f 271 165 272
f 273 22 165
f 273 165 271
f 274 13 34
f 275 276 277
f 278 124 122
f 279 280 281
f 279 281 282
f 279 282 283
f 279 283 284
f 285 281 286
f 285 34 127
f 285 282 281
f 287 127 2
f 288 283 282
f 289 35 286
f 289 286 281
f 289 281 280
f 290 37 291
f 290 38 37
f 292 207 85
f 292 85 84
f 292 293 294
f 295 296 297
f 298 229 131
f 298 131 132
f 299 229 298
f 299 298 300
f 299 300 134
f 299 134 133
f 299 97 228
f 299 228 229
f 301 135 134
f 302 301 134
f 302 134 300
f 303 304 305
f 306 307 304
f 306 304 303
f 308 11 88
f 309 310 305
f 311 1 312
f 311 312 313
f 314 143 315
f 314 315 313
f 316 147 49
f 317 147 318
f 317 319 312
f 320 1 147
f 320 312 1
f 321 322 323
f 324 153 144
f 325 149 148
f 325 148 143
f 325 143 314
f 325 314 319
f 326 52 51
f 326 150 52
f 327 328 329
f 327 329 330
f 331 332 333
f 331 333 334
f 331 50 53
f 331 53 324
f 331 324 332
f 335 313 315
f 336 151 150
f 337 52 152
f 337 152 153
f 337 153 324
f 337 324 53
f 337 53 52
f 338 145 153
f 338 153 152
f 339 247 245
f 340 341 342
f 340 342 343
f 344 161 156
f 344 156 345
f 344 345 346
f 347 348 161
f 349 350 351
f 352 343 342
f 353 234 354
f 353 354 163
f 353 163 162
f 353 162 61
f 353 61 55
f 355 164 163
f 355 163 356
f 355 171 164
f 357 358 359
f 357 360 361
f 357 362 358
f 363 63 166
f 364 272 165
f 364 165 24
f 364 24 27
f 364 27 26
f 364 26 167
f 364 167 169
f 365 169 366
f 365 366 361
f 367 168 167
f 367 167 170
f 367 170 171
f 367 171 168
f 368 185 184
f 369 79 179
f 369 179 177
f 369 177 370
f 371 372 172
f 371 172 69
f 373 374 182
f 373 182 15
f 373 15 374
f 375 188 183
f 375 179 78
f 375 78 188
f 376 179 375
f 376 375 183
f 376 178 179
f 377 77 186
f 377 186 188
f 377 188 78
f 377 78 77
f 378 190 191
f 378 191 183
f 378 183 188
f 378 188 190
f 379 380 191
f 379 191 190
f 379 190 381
f 379 381 380
f 382 380 381
f 383 384 192
f 383 192 71
f 383 71 384
f 385 16 192
f 385 196 16
f 386 387 385
f 386 385 192
f 386 192 384
f 388 71 193
f 388 384 71
f 389 9 193
f 389 193 71
f 389 71 9
f 390 388 193
f 391 368 184
f 392 297 296
f 393 197 198
f 393 198 394
f 395 202 204
f 396 397 199
f 396 199 4
f 398 189 201
f 398 399 400
f 401 399 398
f 401 398 201
f 401 201 200
f 401 200 75
f 401 75 402
f 403 76 201
f 403 201 79
f 403 79 369
f 403 369 370
f 403 370 76
f 404 75 74
f 404 74 203
f 404 203 202
f 405 406 81
f 405 81 205
f 405 407 406
f 408 294 293
f 409 4 28
f 410 411 213
f 412 213 212
f 412 212 222
f 412 222 221
f 413 240 414
f 413 414 212
f 415 137 136
f 415 142 137
f 416 417 88
f 418 419 420
f 418 420 414
f 418 414 240
f 418 240 239
f 421 422 91
f 421 91 222
f 421 222 212
f 421 212 414
f 421 414 420
f 421 420 422
f 423 7 220
f 424 98 96
f 424 96 18
f 424 18 225
f 424 225 227
f 424 227 425
f 426 3 104
f 427 97 299
f 427 299 133
f 427 133 135
f 427 135 230
f 427 230 98
f 427 98 97
f 428 348 347
f 428 235 348
f 429 354 234
f 429 234 233
f 429 233 231
f 429 356 163
f 429 163 354
f 430 54 236
f 430 55 54
f 431 430 236
f 431 236 60
f 432 159 236
f 432 236 54
f 433 237 13
f 434 103 435
f 436 100 103
f 436 103 434
f 436 434 237
f 436 101 100
f 437 239 238
f 437 7 239
f 438 437 238
f 439 352 342
f 440 242 243
f 440 243 105
f 440 105 242
f 441 243 244
f 441 244 442
f 441 442 341
f 443 10 246
f 443 246 444
f 443 444 10
f 445 249 248
f 446 444 247
f 446 247 249
f 447 246 105
f 447 105 245
f 447 245 247
f 447 247 444
f 447 444 246
f 448 445 449
f 448 449 107
f 450 249 445
f 450 445 448
f 451 452 106
f 451 106 250
f 451 250 64
f 453 425 227
f 453 454 346
f 455 157 251
f 455 345 156
f 455 156 157
f 456 363 457
f 458 64 63
f 458 456 459
f 458 452 451
f 458 451 64
f 460 452 458
f 460 458 459
f 460 450 448
f 460 448 452
f 461 108 10
f 461 462 108
f 463 462 461
f 463 461 464
f 465 466 467
f 468 255 469
f 470 469 471
f 470 471 467
f 472 6 253
f 473 466 474
f 475 476 477
f 475 477 473
f 475 473 474
f 475 474 478
f 475 478 479
f 475 479 462
f 480 253 108
f 480 108 462
f 480 462 479
f 480 479 478
f 480 478 253
f 481 477 476
f 481 457 482
f 481 483 473
f 481 473 477
f 484 257 468
f 484 483 481
f 484 481 482
f 485 25 109
f 485 109 257
f 485 257 484
f 485 484 482
f 485 482 457
f 485 457 363
f 485 363 166
f 485 166 25
f 486 126 125
f 487 488 489
f 487 486 490
f 487 490 491
f 492 110 6
f 493 264 494
f 495 259 258
f 495 258 496
f 497 33 32
f 497 261 254
f 497 254 33
f 498 471 469
f 498 469 255
f 498 255 256
f 498 256 261
f 499 28 262
f 500 110 496
f 500 262 110
f 501 262 500
f 501 502 262
f 503 502 501
f 503 501 504
f 505 263 119
f 505 114 263
f 506 114 264
f 506 112 114
f 507 123 118
f 507 118 120
f 508 270 269
f 508 267 29
f 508 29 22
f 508 22 273
f 508 273 271
f 508 271 270
f 509 270 271
f 509 271 272
f 510 13 274
f 511 512 513
f 511 274 34
f 514 123 507
f 514 507 515
f 514 122 123
f 516 491 490
f 517 284 518
f 517 518 519
f 520 516 519
f 520 519 518
f 521 518 284
f 522 279 284
f 523 34 285
f 523 285 286
f 523 286 35
f 524 282 285
f 524 285 127
f 525 289 280
f 525 280 279
f 525 279 522
f 526 35 289
f 526 289 275
f 526 275 277
f 526 277 527
f 526 527 36
f 526 36 35
f 528 529 291
f 528 291 37
f 528 37 40
f 528 40 530
f 531 291 529
f 531 529 491
f 532 533 534
f 532 535 533
f 536 287 537
f 536 537 538
f 536 127 287
f 539 518 521
f 539 521 540
f 539 533 535
f 539 535 520
f 539 520 518
f 541 2 128
f 541 287 2
f 542 287 541
f 542 541 128
f 542 128 543
f 542 543 537
f 542 537 287
f 544 533 539
f 544 539 540
f 545 546 547
f 545 547 544
f 545 544 548
f 545 548 538
f 545 538 537
f 549 534 533
f 549 533 544
f 549 544 547
f 549 547 546
f 549 550 534
f 551 38 290
f 551 290 291
f 552 553 554
f 552 554 546
f 552 543 128
f 552 128 129
f 552 129 553
f 555 38 551
f 555 551 534
f 555 534 550
f 555 211 38
f 556 550 549
f 556 549 546
f 556 546 554
f 556 554 557
f 558 555 550
f 558 550 556
f 558 556 557
f 559 293 292
f 559 292 84
f 560 296 295
f 560 295 558
f 560 558 557
f 560 557 554
f 561 84 211
f 561 558 295
f 561 295 297
f 561 559 84
f 562 252 563
f 562 251 252
f 564 99 98
f 564 565 130
f 564 130 99
f 566 42 41
f 566 562 563
f 566 563 410
f 567 568 569
f 567 569 570
f 567 570 571
f 567 571 568
f 572 571 570
f 572 570 48
f 573 568 302
f 573 306 568
f 574 298 132
f 575 571 301
f 575 301 302
f 575 302 568
f 575 568 571
f 576 19 135
f 576 135 301
f 577 3 17
f 577 139 3
f 578 307 306
f 578 306 573
f 578 573 579
f 578 579 46
f 578 46 307
f 580 569 568
f 580 568 306
f 580 306 303
f 580 303 569
f 581 88 417
f 582 583 584
f 585 586 583
f 585 583 138
f 585 138 137
f 585 137 141
f 585 141 586
f 587 584 583
f 587 583 586
f 588 8 140
f 589 8 588
f 589 588 140
f 589 310 309
f 590 582 591
f 590 591 309
f 590 309 305
f 592 584 593
f 594 584 592
f 594 592 595
f 594 595 591
f 594 591 582
f 594 582 584
f 596 591 595
f 596 309 591
f 597 319 314
f 597 314 313
f 597 313 312
f 597 312 319
f 598 592 593
f 599 334 333
f 599 333 323
f 600 325 319
f 600 319 317
f 600 317 318
f 601 149 602
f 601 602 603
f 604 603 602
f 605 600 318
f 605 318 147
f 605 147 316
f 605 316 49
f 606 607 146
f 606 146 608
f 609 146 607
f 609 607 49
f 609 49 146
f 610 317 312
f 610 312 320
f 610 320 147
f 610 147 317
f 611 332 321
f 611 321 323
f 611 323 333
f 611 333 332
f 612 332 324
f 612 149 601
f 612 601 603
f 612 603 321
f 612 321 332
f 613 614 329
f 613 326 51
f 615 65 67
f 615 154 151
f 615 151 336
f 616 50 331
f 616 331 334
f 616 51 50
f 617 613 51
f 618 311 313
f 618 619 181
f 618 1 311
f 620 67 70
f 620 70 621
f 622 623 620
f 622 620 621
f 624 243 441
f 624 441 341
f 624 339 245
f 624 245 243
f 625 343 352
f 625 57 159
f 626 627 442
f 626 442 244
f 626 244 242
f 626 242 20
f 628 359 358
f 628 358 362
f 629 355 362
f 629 362 168
f 629 168 171
f 629 171 355
f 630 13 631
f 632 366 169
f 632 169 168
f 632 168 362
f 632 362 357
f 632 357 361
f 632 361 366
f 633 634 365
f 633 365 361
f 635 272 365
f 635 365 634
f 635 634 509
f 635 509 272
f 636 364 169
f 636 169 365
f 636 365 272
f 636 272 364
f 637 194 9
f 638 178 376
f 639 176 178
f 639 178 638
f 640 641 642
f 643 372 371
f 644 66 65
f 644 371 69
f 644 69 66
f 645 646 647
f 645 647 648
f 645 648 70
f 645 70 180
f 645 180 174
f 645 174 646
f 649 650 651
f 652 648 647
f 653 181 619
f 653 619 654
f 653 15 181
f 655 654 619
f 655 651 650
f 656 376 183
f 656 183 185
f 657 186 189
f 657 82 206
f 657 206 658
f 657 658 187
f 657 187 186
f 659 381 190
f 659 190 187
f 659 187 658
f 660 661 659
f 660 659 658
f 660 658 206
f 660 206 81
f 660 81 406
f 662 384 388
f 662 388 390
f 662 390 380
f 662 380 382
f 662 382 387
f 662 387 386
f 662 386 384
f 663 382 381
f 663 381 659
f 663 659 661
f 664 193 194
f 664 380 390
f 664 390 193
f 665 191 380
f 665 380 664
f 665 664 391
f 665 391 184
f 665 184 191
f 666 385 387
f 667 72 196
f 667 196 668
f 669 670 671
f 669 671 672
f 673 670 669
f 673 669 668
f 673 668 196
f 673 196 385
f 673 385 666
f 674 553 129
f 674 129 2
f 675 676 677
f 678 95 14
f 679 95 678
f 680 203 74
f 681 197 396
f 681 396 4
f 681 4 197
f 682 73 199
f 683 684 202
f 683 202 395
f 683 395 14
f 683 14 73
f 685 205 408
f 685 408 293
f 685 405 205
f 686 408 205
f 686 205 80
f 687 677 397
f 688 684 689
f 688 689 690
f 688 402 75
f 688 75 404
f 688 404 202
f 688 202 684
f 691 394 198
f 692 4 409
f 692 409 693
f 694 530 40
f 694 40 210
f 695 563 252
f 695 252 157
f 696 697 238
f 696 238 240
f 696 240 413
f 696 413 212
f 696 212 214
f 698 415 136
f 698 136 216
f 699 700 701
f 702 218 416
f 702 416 88
f 702 88 218
f 703 329 614
f 704 705 5
f 706 5 705
f 706 218 5
f 707 708 419
f 707 419 418
f 707 418 239
f 707 239 7
f 709 422 420
f 709 91 422
f 710 92 711
f 710 711 712
f 710 712 47
f 710 47 89
f 710 89 219
f 710 219 92
f 713 86 47
f 713 47 712
f 714 220 11
f 715 426 104
f 716 3 426
f 717 225 17
f 717 17 3
f 717 3 716
f 717 716 426
f 718 226 225
f 718 225 717
f 718 717 426
f 718 426 719
f 718 719 226
f 720 454 351
f 721 350 435
f 721 435 103
f 721 103 232
f 721 232 235
f 721 235 428
f 721 428 347
f 722 348 431
f 722 431 60
f 722 60 59
f 722 59 160
f 722 160 161
f 722 161 348
f 723 235 234
f 723 234 431
f 723 431 348
f 723 348 235
f 724 430 431
f 724 431 234
f 724 234 353
f 724 353 55
f 724 55 430
f 725 343 625
f 725 625 159
f 725 159 432
f 725 432 54
f 725 54 155
f 726 237 434
f 726 104 237
f 727 434 435
f 727 435 350
f 728 729 101
f 730 241 7
f 730 437 438
f 730 438 731
f 730 731 241
f 732 438 238
f 732 238 697
f 732 731 438
f 733 734 352
f 733 352 439
f 733 735 734
f 736 439 342
f 736 342 341
f 736 341 442
f 737 445 248
f 738 446 249
f 739 452 448
f 739 448 107
f 739 107 106
f 739 106 452
f 740 454 453
f 740 453 227
f 741 345 455
f 741 455 251
f 741 453 346
f 741 346 345
f 742 456 457
f 743 456 458
f 743 458 63
f 743 63 363
f 743 363 456
f 744 464 461
f 744 461 10
f 744 10 464
f 745 476 475
f 745 475 462
f 746 466 465
f 746 474 466
f 747 465 467
f 747 467 471
f 748 255 468
f 748 468 257
f 748 257 21
f 748 21 255
f 749 466 473
f 749 473 483
f 749 483 484
f 749 484 468
f 749 468 469
f 749 469 470
f 749 470 467
f 749 467 466
f 750 124 278
f 750 278 751
f 750 751 519
f 750 519 516
f 750 516 490
f 750 490 486
f 750 486 125
f 750 125 124
f 752 486 487
f 752 487 489
f 752 489 126
f 752 126 486
f 753 488 487
f 753 487 491
f 753 491 529
f 754 755 756
f 757 488 755
f 757 755 754
f 757 489 488
f 758 756 755
f 759 756 758
f 759 694 760
f 761 762 465
f 761 260 259
f 761 259 492
f 761 6 762
f 763 110 492
f 763 492 259
f 763 259 495
f 763 495 496
f 763 496 110
f 764 32 111
f 764 261 497
f 764 497 32
f 765 498 261
f 765 261 764
f 765 766 767
f 765 767 471
f 765 471 498
f 768 28 499
f 769 503 504
f 769 504 770
f 771 258 772
f 771 772 766
f 773 770 504
f 773 504 500
f 773 500 496
f 773 496 770
f 774 504 501
f 774 501 500
f 774 500 504
f 775 121 126
f 775 776 119
f 775 119 121
f 777 493 764
f 777 764 111
f 777 111 112
f 777 112 506
f 777 506 264
f 777 264 493
f 778 515 779
f 778 277 276
f 778 276 515
f 780 266 115
f 780 115 781
f 780 779 515
f 780 515 507
f 780 507 120
f 780 120 266
f 782 783 784
f 782 268 783
f 785 117 269
f 785 269 268
f 785 268 782
f 785 782 784
f 785 116 117
f 786 513 512
f 787 527 277
f 787 36 527
f 788 512 511
f 788 786 512
f 789 116 790
f 789 781 115
f 789 115 31
f 789 31 116
f 791 790 784
f 791 784 792
f 793 267 508
f 793 508 269
f 793 269 117
f 793 117 267
f 794 783 268
f 794 268 795
f 794 795 796
f 794 796 797
f 798 270 509
f 798 509 795
f 798 795 268
f 798 268 270
f 799 796 795
f 799 795 509
f 799 509 634
f 799 634 800
f 801 797 796
f 802 510 803
f 802 803 800
f 804 803 510
f 804 510 274
f 804 274 803
f 805 13 510
f 805 510 802
f 805 802 806
f 805 806 631
f 807 808 788
f 807 511 34
f 809 276 275
f 809 514 515
f 809 515 276
f 810 516 520
f 810 531 491
f 810 491 516
f 811 283 288
f 811 288 812
f 811 812 813
f 811 521 284
f 811 284 283
f 814 517 519
f 814 519 751
f 814 751 278
f 814 522 284
f 814 284 517
f 815 34 523
f 815 523 35
f 815 35 34
f 816 288 282
f 816 282 524
f 816 524 127
f 816 127 812
f 816 812 288
f 817 514 809
f 817 809 275
f 818 291 531
f 818 531 810
f 818 810 520
f 818 520 535
f 818 535 532
f 819 127 536
f 819 536 538
f 819 538 813
f 819 813 812
f 819 812 127
f 820 548 544
f 820 544 540
f 820 540 521
f 820 521 811
f 820 811 813
f 820 813 538
f 820 538 548
f 821 532 534
f 821 534 551
f 821 551 291
f 821 291 818
f 821 818 532
f 822 543 552
f 822 552 546
f 822 546 545
f 822 545 537
f 822 537 543
f 823 555 558
f 823 558 561
f 823 561 211
f 823 211 555
f 824 292 294
f 824 825 207
f 824 207 292
f 826 825 824
f 827 296 560
f 827 560 554
f 827 554 553
f 828 304 307
f 828 307 829
f 828 829 138
f 830 216 136
f 830 136 138
f 830 138 829
f 830 829 87
f 830 87 216
f 831 87 829
f 831 829 307
f 831 307 46
f 831 46 45
f 831 45 87
f 832 424 425
f 832 425 564
f 832 564 98
f 832 98 424
f 833 564 425
f 833 425 453
f 833 453 741
f 834 412 221
f 834 221 42
f 834 42 566
f 834 213 412
f 835 562 566
f 835 566 41
f 835 41 130
f 835 130 565
f 836 139 572
f 836 572 48
f 836 48 139
f 837 303 305
f 837 305 310
f 837 569 303
f 838 570 569
f 838 569 837
f 838 837 839
f 840 140 839
f 840 839 837
f 840 837 310
f 840 310 589
f 840 589 140
f 841 48 570
f 841 570 838
f 841 838 839
f 841 140 48
f 842 89 44
f 842 44 574
f 842 574 132
f 842 132 89
f 843 302 300
f 843 300 298
f 843 298 574
f 843 579 573
f 843 573 302
f 844 579 843
f 844 843 574
f 844 574 44
f 844 44 46
f 844 46 579
f 845 576 301
f 845 301 571
f 845 571 572
f 846 139 577
f 846 577 847
f 846 847 139
f 848 19 576
f 848 576 847
f 848 847 577
f 848 577 17
f 848 17 19
f 849 11 308
f 850 88 581
f 850 581 308
f 850 308 88
f 851 828 138
f 851 138 583
f 852 595 608
f 853 8 852
f 853 852 608
f 853 146 8
f 854 855 606
f 854 606 608
f 854 608 595
f 854 595 592
f 856 607 606
f 856 606 855
f 856 857 604
f 856 604 858
f 856 858 607
f 859 586 141
f 859 141 142
f 860 855 854
f 860 854 592
f 860 592 598
f 860 857 856
f 860 856 855
f 861 857 860
f 861 860 598
f 861 322 321
f 861 321 603
f 861 603 604
f 861 604 857
f 862 149 325
f 862 325 600
f 862 600 602
f 862 602 149
f 863 858 605
f 863 605 49
f 863 49 607
f 863 607 858
f 864 602 600
f 864 600 605
f 864 605 858
f 864 858 604
f 864 604 602
f 865 149 612
f 865 612 324
f 865 324 144
f 865 144 149
f 866 326 613
f 866 613 329
f 866 329 328
f 866 328 336
f 867 154 615
f 867 615 67
f 867 67 620
f 867 620 623
f 868 51 616
f 868 616 334
f 869 1 618
f 869 618 181
f 869 181 1
f 870 618 313
f 870 313 335
f 871 621 649
f 871 649 651
f 872 622 621
f 872 621 871
f 872 871 651
f 872 651 335
f 872 335 315
f 873 154 867
f 873 867 623
f 873 623 622
f 873 145 338
f 873 338 152
f 873 152 154
f 874 340 343
f 874 341 340
f 875 57 625
f 875 625 352
f 875 352 734
f 875 734 158
f 875 158 57
f 876 241 731
f 876 20 241
f 877 729 628
f 877 356 429
f 877 429 231
f 877 231 101
f 877 101 729
f 878 355 356
f 878 356 877
f 878 877 628
f 878 628 362
f 878 362 355
f 879 360 357
f 879 357 359
f 879 630 631
f 879 631 360
f 880 13 630
f 880 630 879
f 880 879 359
f 881 806 802
f 881 802 800
f 881 800 634
f 881 634 633
f 881 633 361
f 881 361 360
f 881 360 631
f 881 631 806
f 882 637 9
f 882 9 182
f 883 328 327
f 883 327 330
f 884 885 886
f 884 886 887
f 888 887 886
f 889 890 886
f 889 886 885
f 891 371 644
f 891 644 892
f 891 892 889
f 891 889 885
f 891 885 884
f 891 884 643
f 891 643 371
f 893 644 65
f 893 65 615
f 894 648 649
f 894 649 621
f 894 621 70
f 894 70 648
f 895 648 652
f 895 649 648
f 896 374 15
f 897 639 638
f 897 638 376
f 897 376 656
f 897 656 185
f 897 185 898
f 899 400 82
f 899 82 657
f 899 657 189
f 899 189 398
f 899 398 400
f 900 406 407
f 900 661 660
f 900 660 406
f 901 391 664
f 901 664 194
f 902 671 670
f 902 670 673
f 902 673 666
f 902 666 387
f 903 667 668
f 903 668 669
f 904 392 296
f 904 672 392
f 905 674 2
f 905 2 72
f 906 559 561
f 906 561 297
f 906 297 392
f 906 392 907
f 906 907 293
f 906 293 559
f 908 679 678
f 909 224 95
f 910 370 911
f 910 76 370
f 912 203 680
f 912 680 913
f 912 395 204
f 912 204 203
f 914 397 677
f 914 677 676
f 914 915 682
f 916 682 915
f 916 915 689
f 917 907 392
f 917 407 405
f 917 405 685
f 917 685 293
f 917 293 907
f 918 408 686
f 918 686 80
f 918 80 919
f 920 396 197
f 920 197 393
f 920 393 687
f 920 687 397
f 920 397 396
f 921 676 675
f 921 675 922
f 921 922 690
f 921 690 689
f 921 689 915
f 921 915 914
f 921 914 676
f 923 690 922
f 923 922 675
f 924 691 198
f 924 198 4
f 925 394 691
f 926 925 691
f 927 928 692
f 927 692 693
f 929 694 210
f 929 210 208
f 929 208 930
f 929 930 760
f 929 760 694
f 931 695 157
f 931 157 158
f 931 158 734
f 932 933 934
f 935 932 934
f 935 415 698
f 935 698 216
f 935 216 217
f 936 699 937
f 938 939 703
f 938 703 614
f 938 614 613
f 938 613 617
f 940 939 938
f 940 938 941
f 940 941 942
f 940 942 943
f 944 416 218
f 945 329 703
f 945 330 329
f 946 705 704
f 946 330 945
f 947 423 708
f 947 708 707
f 947 707 7
f 947 7 423
f 948 419 708
f 949 709 420
f 949 420 419
f 950 92 91
f 950 91 709
f 950 711 92
f 951 220 714
f 951 714 952
f 953 426 715
f 953 715 719
f 953 719 426
f 954 349 351
f 954 719 715
f 954 715 104
f 954 104 349
f 955 346 454
f 955 454 720
f 955 347 161
f 955 161 344
f 955 344 346
f 956 350 721
f 956 721 347
f 956 347 955
f 956 955 720
f 956 720 351
f 956 351 350
f 957 349 104
f 957 727 350
f 957 350 349
f 958 729 728
f 958 728 433
f 958 433 880
f 958 880 359
f 959 433 728
f 959 237 433
f 960 436 237
f 960 728 101
f 960 101 436
f 961 437 730
f 961 730 7
f 961 7 437
f 962 963 411
f 962 411 410
f 964 411 963
f 964 963 697
f 964 697 696
f 964 696 214
f 964 214 213
f 964 213 411
f 965 439 736
f 965 966 439
f 967 737 248
f 967 248 247
f 967 247 339
f 967 339 624
f 968 155 107
f 968 107 449
f 968 449 445
f 968 445 737
f 968 737 874
f 968 725 155
f 969 738 970
f 971 450 460
f 971 738 249
f 971 249 450
f 972 719 954
f 972 454 740
f 972 740 227
f 972 227 226
f 972 226 719
f 973 476 742
f 973 742 457
f 973 457 481
f 973 481 476
f 974 459 456
f 974 456 742
f 974 970 738
f 974 738 971
f 974 971 460
f 974 460 459
f 975 463 464
f 975 464 969
f 975 745 462
f 975 462 463
f 976 762 6
f 976 6 472
f 976 472 253
f 976 253 478
f 976 478 474
f 976 474 746
f 976 746 465
f 976 465 762
f 977 767 766
f 977 766 772
f 977 772 258
f 977 258 260
f 977 260 747
f 977 747 471
f 977 471 767
f 978 488 753
f 978 753 529
f 978 755 488
f 979 757 754
f 979 754 980
f 981 758 755
f 981 755 978
f 981 978 529
f 981 529 528
f 981 528 530
f 982 409 28
f 983 409 982
f 983 982 984
f 983 984 693
f 983 693 409
f 985 530 694
f 985 694 759
f 985 759 758
f 985 758 981
f 985 981 530
f 986 6 761
f 986 761 492
f 986 492 6
f 987 747 260
f 987 260 761
f 987 761 465
f 987 465 747
f 988 766 765
f 988 765 764
f 988 764 493
f 988 493 766
f 989 262 502
f 989 502 990
f 989 990 499
f 989 499 262
f 991 992 993
f 991 993 994
f 995 980 996
f 997 769 770
f 997 771 494
f 998 494 771
f 998 771 766
f 998 766 493
f 998 493 494
f 999 496 258
f 999 258 771
f 999 771 997
f 999 997 770
f 999 770 496
f 1000 776 1001
f 1000 1001 505
f 1000 505 119
f 1000 119 776
f 1002 265 114
f 1002 114 505
f 1002 505 1001
f 1002 1001 994
f 1002 994 993
f 1003 769 992
f 1003 503 769
f 1004 265 1002
f 1004 1002 993
f 1004 993 992
f 1004 997 494
f 1004 494 264
f 1004 264 265
f 1005 790 791
f 1005 791 792
f 1006 116 785
f 1006 785 784
f 1006 784 790
f 1006 790 116
f 1007 784 783
f 1007 783 786
f 1007 786 792
f 1007 792 784
f 1008 513 786
f 1008 786 783
f 1008 783 794
f 1008 794 797
f 1008 797 801
f 1008 801 513
f 1009 787 277
f 1009 277 778
f 1010 36 787
f 1010 808 807
f 1010 34 36
f 1011 792 786
f 1011 786 788
f 1012 803 796
f 1012 796 799
f 1012 799 800
f 1012 800 803
f 1013 274 801
f 1013 801 796
f 1013 796 803
f 1013 803 274
f 1014 511 513
f 1014 513 801
f 1014 274 511
f 1015 13 805
f 1015 805 631
f 1015 631 13
f 1016 511 807
f 1016 807 788
f 1016 788 511
f 1017 514 817
f 1017 817 278
f 1017 278 122
f 1017 122 514
f 1018 289 525
f 1018 817 275
f 1018 275 289
f 1019 278 817
f 1019 817 1018
f 1019 1018 525
f 1019 525 522
f 1019 522 814
f 1019 814 278
f 1020 393 394
f 1021 826 824
f 1021 824 294
f 1022 304 828
f 1022 305 304
f 1023 565 564
f 1023 564 833
f 1023 833 741
f 1023 741 251
f 1023 251 562
f 1023 562 835
f 1023 835 565
f 1024 213 834
f 1024 834 566
f 1024 566 410
f 1024 410 213
f 1025 140 841
f 1025 841 839
f 1025 839 140
f 1026 576 845
f 1026 845 572
f 1026 572 139
f 1026 139 847
f 1026 847 576
f 1027 700 849
f 1027 849 308
f 1027 308 700
f 1028 11 849
f 1028 849 700
f 1028 700 699
f 1029 590 305
f 1029 305 1022
f 1029 1022 828
f 1029 828 851
f 1029 851 583
f 1029 583 582
f 1029 582 590
f 1030 596 595
f 1030 595 852
f 1030 852 8
f 1030 8 589
f 1030 589 309
f 1030 309 596
f 1031 146 853
f 1031 853 608
f 1031 608 146
f 1032 593 584
f 1032 584 587
f 1032 587 586
f 1033 599 323
f 1033 859 1034
f 1033 1034 599
f 1035 1034 859
f 1035 859 142
f 1036 937 699
f 1036 699 701
f 1037 1038 1039
f 1037 1039 934
f 1037 937 1036
f 1040 934 1039
f 1040 1039 1038
f 1040 1035 142
f 1041 326 866
f 1041 866 336
f 1041 336 150
f 1041 150 326
f 1042 617 51
f 1042 51 868
f 1042 942 941
f 1042 941 938
f 1042 938 617
f 1043 599 1034
f 1043 1034 1044
f 1043 1044 334
f 1043 334 599
f 1045 651 655
f 1045 655 619
f 1045 619 618
f 1045 618 870
f 1045 870 335
f 1045 335 651
f 1046 143 145
f 1046 145 873
f 1046 873 622
f 1046 622 872
f 1047 725 968
f 1047 968 874
f 1047 874 343
f 1047 343 725
f 1048 735 733
f 1048 733 439
f 1048 439 966
f 1048 966 963
f 1048 963 962
f 1048 962 735
f 1049 963 966
f 1049 697 963
f 1050 20 876
f 1050 627 626
f 1050 626 20
f 1051 627 1050
f 1051 1050 876
f 1051 876 731
f 1052 13 880
f 1052 880 433
f 1052 433 13
f 1053 368 391
f 1053 391 901
f 1053 901 194
f 1053 194 637
f 1054 1055 1053
f 1054 1053 637
f 1054 637 882
f 1056 898 185
f 1056 185 368
f 1056 368 1053
f 1056 1053 1055
f 1056 1057 898
f 1058 1059 647
f 1058 647 646
f 1058 646 174
f 1058 174 175
f 1058 175 176
f 1058 176 639
f 1060 1059 1058
f 1060 1058 639
f 1060 639 897
f 1060 897 898
f 1060 898 1057
f 1061 642 641
f 1061 641 652
f 1061 652 647
f 1061 647 1059
f 1061 1059 1060
f 1061 1060 1057
f 1062 644 893
f 1062 883 1063
f 1062 1063 889
f 1062 889 892
f 1062 892 644
f 1064 641 1065
f 1064 1065 655
f 1064 655 650
f 1064 650 649
f 1064 649 895
f 1064 895 652
f 1064 652 641
f 1066 654 655
f 1066 655 1065
f 1066 896 15
f 1066 653 654
f 1067 641 640
f 1067 640 374
f 1067 374 896
f 1067 896 1066
f 1067 1066 1065
f 1067 1065 641
f 1068 671 902
f 1068 902 663
f 1068 663 661
f 1068 661 900
f 1068 900 407
f 1068 407 671
f 1069 663 902
f 1069 902 387
f 1069 387 382
f 1069 382 663
f 1070 674 903
f 1070 827 553
f 1070 553 674
f 1071 667 903
f 1071 903 674
f 1071 674 905
f 1071 72 667
f 1072 675 1073
f 1072 923 675
f 1074 1073 675
f 1074 675 677
f 1075 918 919
f 1075 919 1076
f 1075 1076 1072
f 1075 1072 1073
f 1077 643 884
f 1077 884 887
f 1078 176 173
f 1078 1079 177
f 1078 177 176
f 1080 177 1079
f 1080 1079 911
f 1080 911 370
f 1080 370 177
f 1081 14 395
f 1081 395 912
f 1081 912 908
f 1082 887 888
f 1082 888 224
f 1082 224 909
f 1082 1083 887
f 1084 1083 1082
f 1084 1082 909
f 1084 909 95
f 1085 199 397
f 1085 397 914
f 1085 914 682
f 1085 682 199
f 1086 73 682
f 1086 682 916
f 1087 683 73
f 1087 73 1086
f 1087 1086 916
f 1088 684 683
f 1088 683 1087
f 1088 1087 916
f 1088 916 689
f 1088 689 684
f 1089 672 671
f 1089 671 407
f 1089 407 917
f 1089 917 392
f 1089 392 672
f 1090 399 923
f 1090 923 1072
f 1090 1072 1076
f 1091 690 923
f 1091 923 399
f 1091 399 401
f 1091 401 402
f 1091 402 688
f 1091 688 690
f 1092 928 924
f 1092 924 4
f 1092 4 692
f 1093 207 825
f 1093 208 207
f 1094 394 925
f 1094 1020 394
f 1095 926 930
f 1095 930 208
f 1096 926 691
f 1096 691 924
f 1096 924 928
f 1096 928 927
f 1097 927 693
f 1097 1096 927
f 1098 930 926
f 1098 926 1096
f 1098 1096 1097
f 1098 1099 760
f 1098 760 930
f 1100 415 935
f 1100 935 934
f 1100 934 1040
f 1100 1040 142
f 1100 142 415
f 1101 943 1102
f 1101 1102 581
f 1101 581 417
f 1101 417 416
f 1103 944 218
f 1104 940 943
f 1104 943 1101
f 1104 1101 416
f 1105 705 946
f 1105 946 945
f 1106 883 330
f 1106 330 946
f 1107 423 220
f 1108 423 1107
f 1108 948 708
f 1108 708 423
f 1109 1110 1111
f 1109 949 1110
f 1112 1113 1111
f 1112 1111 1110
f 1114 1110 949
f 1114 949 419
f 1114 419 948
f 1115 713 1116
f 1115 1116 217
f 1115 217 215
f 1115 215 86
f 1115 86 713
f 1117 217 1116
f 1117 933 932
f 1117 932 935
f 1117 935 217
f 1118 1119 1120
f 1121 933 1120
f 1121 1120 1119
f 1121 1119 936
f 1122 714 11
f 1123 936 1119
f 1123 699 936
f 1124 454 972
f 1124 972 954
f 1124 954 351
f 1124 351 454
f 1125 726 434
f 1125 434 727
f 1125 727 957
f 1125 104 726
f 1126 729 958
f 1126 958 359
f 1126 359 628
f 1126 628 729
f 1127 959 728
f 1127 728 960
f 1127 960 237
f 1127 237 959
f 1128 962 410
f 1128 410 563
f 1128 563 695
f 1128 695 931
f 1129 442 627
f 1129 627 1051
f 1129 966 965
f 1129 965 736
f 1129 736 442
f 1130 874 737
f 1130 737 967
f 1130 967 624
f 1130 624 341
f 1130 341 874
f 1131 738 969
f 1131 446 738
f 1132 970 974
f 1132 974 742
f 1132 742 476
f 1132 476 745
f 1132 745 975
f 1132 975 969
f 1132 969 970
f 1133 1134 1135
f 1133 757 979
f 1133 979 980
f 1136 754 756
f 1136 996 980
f 1136 980 754
f 1137 502 503
f 1137 503 1003
f 1137 1003 992
f 1137 992 991
f 1138 991 994
f 1138 994 1001
f 1138 1135 1134
f 1139 768 499
f 1139 28 768
f 1140 489 1135
f 1140 1135 776
f 1140 776 775
f 1140 775 126
f 1140 126 489
f 1141 769 997
f 1141 997 1004
f 1141 1004 992
f 1141 992 769
f 1142 790 1005
f 1142 1005 778
f 1142 778 779
f 1142 779 780
f 1142 780 781
f 1142 781 789
f 1142 789 790
f 1143 34 1010
f 1143 1010 807
f 1143 807 34
f 1144 808 1010
f 1144 1010 787
f 1144 1011 788
f 1144 788 808
f 1145 274 1014
f 1145 1014 801
f 1145 801 274
f 1146 826 1147
f 1146 1147 1020
f 1148 408 918
f 1148 918 1075
f 1148 826 1021
f 1148 1021 294
f 1148 294 408
f 1149 1032 586
f 1149 586 859
f 1150 1032 1149
f 1150 1149 859
f 1150 859 1033
f 1150 1033 323
f 1151 700 308
f 1151 308 581
f 1151 581 1102
f 1151 1102 1152
f 1151 1152 701
f 1151 701 700
f 1153 1038 1037
f 1153 1037 1036
f 1153 1036 1154
f 1153 1154 1155
f 1153 1155 1038
f 1156 936 937
f 1156 937 1037
f 1156 1037 934
f 1156 934 933
f 1156 933 1121
f 1156 1121 936
f 1157 334 1044
f 1157 868 334
f 1158 1152 1102
f 1158 1154 1036
f 1158 1036 701
f 1158 701 1152
f 1159 1034 1035
f 1159 1038 1155
f 1159 1155 1044
f 1159 1044 1034
f 1160 1044 1155
f 1161 315 143
f 1161 143 1046
f 1161 1046 872
f 1161 872 315
f 1162 731 732
f 1162 732 697
f 1162 697 1049
f 1162 1049 966
f 1162 1051 731
f 1163 182 1054
f 1163 1054 882
f 1163 882 182
f 1164 642 1061
f 1164 1061 1057
f 1164 1057 1056
f 1164 1056 1055
f 1164 1055 1165
f 1164 1165 640
f 1164 640 642
f 1166 1054 182
f 1166 182 374
f 1166 374 640
f 1166 640 1165
f 1166 1165 1055
f 1166 1055 1054
f 1167 615 336
f 1167 893 615
f 1168 653 1066
f 1168 1066 15
f 1168 15 653
f 1169 904 296
f 1169 1070 903
f 1169 903 669
f 1169 669 672
f 1169 672 904
f 1170 72 1071
f 1170 1071 905
f 1170 905 72
f 1171 687 393
f 1171 393 1020
f 1171 1020 1147
f 1171 1147 1073
f 1171 1073 1074
f 1171 1074 677
f 1171 677 687
f 1172 173 172
f 1172 172 372
f 1172 372 643
f 1172 1079 1078
f 1172 1078 173
f 1173 680 74
f 1173 74 76
f 1173 76 910
f 1173 910 911
f 1173 911 1174
f 1173 1174 913
f 1173 913 680
f 1175 913 1174
f 1176 908 912
f 1176 912 913
f 1177 1077 887
f 1177 887 1083
f 1178 678 14
f 1178 14 1081
f 1178 1081 908
f 1178 908 678
f 1179 1180 1083
f 1179 1083 1084
f 1179 1084 679
f 1179 679 908
f 1179 908 1176
f 1179 1176 1180
f 1181 679 1084
f 1181 1084 95
f 1181 95 679
f 1182 400 399
f 1182 399 1090
f 1182 1090 1076
f 1182 1076 919
f 1182 919 80
f 1182 80 82
f 1182 82 400
f 1183 928 1092
f 1183 1092 692
f 1183 692 928
f 1184 1093 825
f 1184 825 826
f 1184 826 1146
f 1184 1146 1020
f 1184 1020 1094
f 1184 1094 925
f 1185 1099 1098
f 1185 1098 1097
f 1185 1097 693
f 1185 693 984
f 1185 984 1186
f 1187 759 760
f 1187 760 1099
f 1187 1099 1185
f 1187 1185 1186
f 1187 756 759
f 1188 996 1136
f 1188 1187 1186
f 1188 1186 984
f 1189 706 705
f 1189 705 1103
f 1189 1103 218
f 1189 218 706
f 1190 939 940
f 1190 940 1104
f 1190 1104 416
f 1190 416 944
f 1190 944 1103
f 1190 703 939
f 1191 703 1190
f 1191 1190 1103
f 1191 1103 705
f 1191 705 1105
f 1191 1105 945
f 1191 945 703
f 1192 223 224
f 1192 224 1193
f 1192 1193 1194
f 1192 5 223
f 1195 888 886
f 1195 886 890
f 1195 1196 1194
f 1195 1194 1193
f 1195 1193 224
f 1195 224 888
f 1197 1196 1106
f 1197 1106 946
f 1198 1106 1196
f 1198 1196 1195
f 1198 1195 890
f 1198 890 889
f 1198 889 1063
f 1198 1063 883
f 1198 883 1106
f 1199 1110 1114
f 1199 1114 948
f 1199 948 1108
f 1199 1108 1107
f 1199 1107 220
f 1200 1109 1111
f 1200 1111 1201
f 1200 1201 711
f 1200 711 950
f 1200 950 709
f 1200 709 949
f 1200 949 1109
f 1202 712 711
f 1202 711 1201
f 1202 713 712
f 1203 220 951
f 1203 951 952
f 1204 1203 952
f 1205 1120 933
f 1205 933 1117
f 1206 1119 1118
f 1206 714 1122
f 1206 1122 11
f 1207 104 1125
f 1207 1125 957
f 1207 957 104
f 1208 735 962
f 1208 962 1128
f 1208 1128 931
f 1208 931 734
f 1208 734 735
f 1209 966 1129
f 1209 1129 1051
f 1209 1051 1162
f 1209 1162 966
f 1210 464 10
f 1210 10 444
f 1210 444 446
f 1210 446 1131
f 1210 1131 969
f 1210 969 464
f 1211 1134 1133
f 1211 1133 980
f 1212 489 757
f 1212 757 1133
f 1212 1133 1135
f 1212 1135 489
f 1213 28 1214
f 1213 1214 982
f 1213 982 28
f 1215 776 1135
f 1215 1135 1138
f 1215 1138 1001
f 1215 1001 776
f 1216 991 1138
f 1216 1138 1134
f 1217 28 1139
f 1217 1139 995
f 1217 995 996
f 1217 996 1214
f 1217 1214 28
f 1218 1009 778
f 1218 778 1005
f 1218 1005 792
f 1218 792 1011
f 1218 1011 1144
f 1218 1144 787
f 1218 787 1009
f 1219 1147 826
f 1219 826 1148
f 1219 1148 1075
f 1219 1075 1073
f 1219 1073 1147
f 1220 598 593
f 1220 593 1032
f 1220 1032 1150
f 1220 1150 323
f 1220 323 322
f 1220 322 861
f 1220 861 598
f 1221 1038 1159
f 1221 1159 1035
f 1221 1035 1040
f 1221 1040 1038
f 1222 1158 1102
f 1222 1102 943
f 1223 1154 1158
f 1223 1158 1222
f 1223 1222 943
f 1223 943 942
f 1223 1160 1155
f 1223 1155 1154
f 1224 1157 1044
f 1224 1044 1160
f 1224 1160 1223
f 1224 1223 942
f 1224 942 1042
f 1224 1042 868
f 1224 868 1157
f 1225 328 883
f 1225 883 1062
f 1225 1062 893
f 1225 893 1167
f 1225 1167 336
f 1225 336 328
f 1226 1070 1169
f 1226 1169 296
f 1226 296 827
f 1226 827 1070
f 1227 1172 643
f 1227 643 1077
f 1228 911 1079
f 1228 1079 1172
f 1228 1172 1227
f 1228 1227 1077
f 1228 1077 1175
f 1228 1175 1174
f 1228 1174 911
f 1229 1180 1176
f 1229 1176 913
f 1229 913 1175
f 1229 1175 1077
f 1229 1077 1177
f 1229 1177 1083
f 1229 1083 1180
f 1230 1093 1184
f 1230 1184 925
f 1230 925 926
f 1230 926 1095
f 1230 1095 208
f 1230 208 1093
f 1231 1214 996
f 1231 996 1188
f 1231 1188 984
f 1231 984 982
f 1231 982 1214
f 1232 756 1187
f 1232 1187 1188
f 1232 1188 1136
f 1232 1136 756
f 1233 5 1192
f 1233 1192 1194
f 1234 1194 1196
f 1234 1196 1197
f 1234 1197 946
f 1234 946 704
f 1234 704 5
f 1234 1233 1194
f 1235 1112 1110
f 1235 1110 1199
f 1235 1199 220
f 1235 220 1203
f 1235 1203 1204
f 1235 1204 1113
f 1235 1113 1112
f 1236 1201 1111
f 1237 1118 1120
f 1237 1120 1238
f 1237 1238 1113
f 1237 1113 1204
f 1237 1204 952
f 1239 714 1206
f 1239 1206 1118
f 1239 1118 1237
f 1239 1237 952
f 1239 952 714
f 1240 1123 1119
f 1240 1119 1206
f 1240 1206 11
f 1240 11 1028
f 1240 1028 699
f 1240 699 1123
f 1241 1211 980
f 1241 980 995
f 1241 995 1139
f 1242 1137 991
f 1242 991 1216
f 1242 990 502
f 1242 502 1137
f 1243 499 990
f 1243 990 1242
f 1243 1242 1244
f 1243 1244 1241
f 1243 1241 1139
f 1243 1139 499
f 1245 1134 1211
f 1245 1211 1241
f 1245 1241 1244
f 1245 1244 1242
f 1245 1242 1216
f 1245 1216 1134
f 1246 1233 1234
f 1246 1234 5
f 1246 5 1233
f 1247 1202 1201
f 1247 1201 1236
f 1247 1236 1116
f 1247 1116 713
f 1247 713 1202
f 1248 1113 1238
f 1248 1238 1236
f 1248 1236 1111
f 1248 1111 1113
f 1249 1116 1236
f 1249 1236 1238
f 1249 1238 1120
f 1249 1120 1205
f 1249 1205 1117
f 1249 1117 1116
