# Convex hull collision mesh — generated by scripts/generate-collision-meshes.mjs
v -0.000000 -0.000000 0.000000
v -0.000000 0.000000 9.000000
v 62.000000 0.000000 9.000000
v -0.000000 -4.100000 8.400000
v 29.520834 -7.000000 9.500000
v 62.000000 0.000000 0.000000
v 62.000000 -0.900000 0.000000
v 29.885811 -7.000000 -0.486661
v -0.000000 -0.900000 9.000000
v -0.000000 -4.090097 0.556612
v 62.000000 -0.900000 9.000000
v 29.155857 -7.000000 -0.486661
v -0.000000 -4.022252 8.497493
v -0.000000 -0.900000 0.000000
v 29.885811 -10.000000 -0.486661
v 32.576702 -10.000000 0.542518
v 31.967924 -10.000000 0.139753
v 31.306990 -10.000000 -0.170081
v -0.000000 -4.022252 0.502507
v 29.520834 -10.000000 9.500000
v 28.792828 -10.000000 9.446717
v 30.248840 -10.000000 9.446717
v 33.120350 -10.000000 1.029629
v 33.587284 -10.000000 1.590705
v 33.967545 -10.000000 2.213788
v 29.155857 -10.000000 -0.486661
v 25.921316 -10.000000 1.029629
v 28.847559 -10.461487 3.938330
v 25.454386 -10.000000 1.590705
v 29.912844 -10.461487 3.715717
v -0.000000 -4.062349 0.521817
v 34.122566 -10.000000 6.455523
v 34.358253 -10.000000 5.764667
v 34.490841 -10.000000 5.046856
v -0.000000 -4.090097 8.443388
v 27.398550 -10.000000 9.027241
v 28.080339 -10.000000 9.288003
v 26.761995 -10.000000 8.669989
v -0.000000 -4.100000 0.600000
v 25.074123 -10.000000 2.213788
v 24.788635 -10.000000 2.885598
v 34.253033 -10.000000 2.885598
v 34.437664 -10.000000 3.591816
v 24.919104 -10.000000 6.455523
v 28.726717 -10.461487 4.871686
v 25.252869 -10.000000 7.104702
v 28.976686 -10.461487 3.812487
v 26.464966 -10.000000 0.542518
v 29.050261 -10.461487 3.760181
v 29.520834 -10.500000 4.500000
v 27.073746 -10.000000 0.139753
v 27.734680 -10.000000 -0.170081
v 29.475698 -10.461487 3.624366
v 30.248293 -10.461487 4.010534
v 30.607985 -10.000000 -0.380379
v -0.000000 -4.043388 0.509903
v 28.433683 -10.000000 -0.380379
v -0.000000 -4.078183 0.537651
v 29.610987 -10.461487 5.372149
v 30.961330 -10.000000 9.288003
v 34.517498 -10.000000 4.317390
v -0.000000 -4.062349 8.478183
v -0.000000 -4.097493 0.577748
v 24.683416 -10.000000 5.764667
v 24.550829 -10.000000 5.046856
v 24.604006 -10.000000 3.591816
v 28.708637 -10.461487 4.169686
v -0.000000 -4.097493 8.422252
v 25.677599 -10.000000 7.698365
v 26.184240 -10.000000 8.223861
v 28.908880 -10.461487 3.872080
v 29.297539 -10.461487 3.652113
v 30.333033 -10.461487 4.169686
v 29.565971 -10.461487 3.624366
v 29.744129 -10.461487 3.652113
v 29.430681 -10.461487 5.372149
v 29.700186 -10.461487 5.358257
v 32.857430 -10.000000 8.223861
v 33.364071 -10.000000 7.698365
v 32.279675 -10.000000 8.669989
v 30.374189 -10.461487 4.701389
v 33.788799 -10.000000 7.104702
v 31.643118 -10.000000 9.027241
v 29.871950 -10.461487 5.303423
v -0.000000 -4.043388 8.490097
v -0.000000 -4.078183 8.462349
v 28.692709 -10.461487 4.788065
v 24.524170 -10.000000 4.317390
v 28.646652 -10.461487 4.432333
v 28.678978 -10.461487 4.254948
v 28.746904 -10.461487 4.087926
v 29.211542 -10.461487 3.679567
v 29.385904 -10.461487 3.633648
v 30.294764 -10.461487 4.087926
v 30.362690 -10.461487 4.254948
v 30.383425 -10.461487 4.342807
v 29.991407 -10.461487 3.760181
v 30.064983 -10.461487 3.812487
v 30.132790 -10.461487 3.872080
v 29.830126 -10.461487 3.679567
v 29.655766 -10.461487 3.633648
v 29.341484 -10.461487 5.358257
v 29.520834 -10.461487 5.376796
v 29.787481 -10.461487 5.335268
v 30.028870 -10.461487 5.214614
v 30.397341 -10.461487 4.522576
v 30.348959 -10.461487 4.788065
v 28.667480 -10.461487 4.701389
v 28.651295 -10.461487 4.612579
v 28.644329 -10.461487 4.522576
v 28.658243 -10.461487 4.342807
v 28.793377 -10.461487 4.010534
v 29.128824 -10.461487 3.715717
v 30.194109 -10.461487 3.938330
v 29.169718 -10.461487 5.303423
v 30.164303 -10.461487 5.095584
v 29.952700 -10.461487 5.263063
v 30.395016 -10.461487 4.432333
v 30.390373 -10.461487 4.612579
v 30.314951 -10.461487 4.871686
v 30.272524 -10.461487 4.951368
v 29.088970 -10.461487 5.263063
v 29.254187 -10.461487 5.335268
v 30.222130 -10.461487 5.026266
v 30.099653 -10.461487 5.158590
v 28.877367 -10.461487 5.095584
v 29.012800 -10.461487 5.214614
v 28.819538 -10.461487 5.026266
v 28.942015 -10.461487 5.158590
v 28.769144 -10.461487 4.951368
f 1 2 3
f 4 2 1
f 5 3 2
f 6 7 8
f 6 8 1
f 6 1 3
f 6 3 7
f 9 2 4
f 9 5 2
f 10 4 1
f 11 3 5
f 11 7 3
f 12 1 8
f 13 9 4
f 14 10 1
f 14 1 12
f 15 12 8
f 15 8 7
f 16 17 7
f 18 7 17
f 19 10 14
f 20 5 9
f 20 9 13
f 20 13 21
f 20 22 11
f 20 11 5
f 23 16 7
f 23 7 24
f 25 24 7
f 26 19 14
f 26 14 12
f 26 12 15
f 27 28 29
f 30 18 17
f 31 10 19
f 32 33 11
f 34 11 33
f 35 36 37
f 35 13 4
f 35 38 36
f 39 40 41
f 39 4 10
f 42 25 7
f 42 7 43
f 44 45 46
f 47 48 49
f 47 49 50
f 51 49 48
f 51 10 52
f 53 26 15
f 54 24 25
f 55 15 7
f 55 7 18
f 56 26 57
f 56 57 31
f 56 31 19
f 56 19 26
f 58 10 31
f 58 31 57
f 58 57 52
f 58 52 10
f 59 22 20
f 60 11 22
f 61 7 11
f 61 11 34
f 61 43 7
f 62 13 35
f 62 37 21
f 63 27 29
f 63 29 40
f 63 40 39
f 63 39 10
f 63 10 51
f 63 51 48
f 63 48 27
f 64 44 4
f 64 4 65
f 66 39 41
f 67 41 40
f 68 35 4
f 68 4 44
f 68 44 46
f 68 46 69
f 68 69 70
f 68 70 38
f 68 38 35
f 71 27 48
f 71 48 47
f 71 47 50
f 71 50 28
f 71 28 27
f 72 52 57
f 73 25 42
f 74 53 15
f 74 50 53
f 75 55 18
f 76 20 21
f 77 60 22
f 77 22 59
f 77 59 50
f 78 79 11
f 78 11 80
f 81 34 33
f 82 32 11
f 82 11 79
f 83 80 11
f 83 11 60
f 83 60 84
f 85 13 62
f 85 62 21
f 85 21 13
f 86 37 62
f 86 62 35
f 86 35 37
f 87 44 64
f 87 50 45
f 87 45 44
f 88 65 4
f 88 4 39
f 88 39 66
f 88 66 89
f 90 66 41
f 90 41 67
f 90 67 50
f 91 50 67
f 91 67 40
f 92 52 72
f 92 72 50
f 93 53 50
f 93 50 72
f 93 72 57
f 93 57 26
f 93 26 53
f 94 54 25
f 94 25 73
f 94 73 50
f 94 50 54
f 95 96 50
f 95 50 73
f 95 73 42
f 95 42 43
f 95 43 96
f 97 17 16
f 97 16 98
f 97 98 50
f 97 50 30
f 97 30 17
f 99 50 98
f 99 98 16
f 99 16 23
f 100 50 75
f 100 75 18
f 100 18 30
f 100 30 50
f 101 74 15
f 101 15 55
f 101 55 75
f 101 75 50
f 101 50 74
f 102 50 76
f 102 76 21
f 102 21 37
f 103 59 20
f 103 20 76
f 103 76 50
f 103 50 59
f 104 60 77
f 104 77 50
f 104 50 84
f 104 84 60
f 105 78 80
f 106 61 34
f 107 50 81
f 107 81 33
f 107 33 32
f 108 109 50
f 108 50 87
f 108 87 64
f 108 64 65
f 108 65 109
f 110 109 65
f 110 65 88
f 110 88 89
f 110 89 50
f 110 50 109
f 111 66 90
f 111 90 50
f 111 50 89
f 111 89 66
f 112 29 28
f 112 28 50
f 112 50 91
f 112 91 40
f 112 40 29
f 113 51 52
f 113 52 92
f 113 92 50
f 113 50 49
f 113 49 51
f 114 54 50
f 114 50 99
f 114 99 23
f 114 23 24
f 114 24 54
f 115 37 36
f 116 79 78
f 117 50 105
f 117 105 80
f 117 80 83
f 117 83 84
f 117 84 50
f 118 61 106
f 118 106 50
f 118 50 96
f 118 96 43
f 118 43 61
f 119 81 50
f 119 50 106
f 119 106 34
f 119 34 81
f 120 121 50
f 120 50 107
f 120 107 32
f 120 32 82
f 120 82 121
f 122 50 115
f 122 115 36
f 122 36 38
f 123 102 37
f 123 37 115
f 123 115 50
f 123 50 102
f 124 79 116
f 124 116 50
f 124 50 121
f 124 121 82
f 124 82 79
f 125 105 50
f 125 50 116
f 125 116 78
f 125 78 105
f 126 70 69
f 127 50 122
f 127 122 38
f 127 38 70
f 128 50 126
f 128 126 69
f 128 69 46
f 129 126 50
f 129 50 127
f 129 127 70
f 129 70 126
f 130 45 50
f 130 50 128
f 130 128 46
f 130 46 45
