# Convex hull collision mesh — generated by scripts/generate-collision-meshes.mjs (units: meters)
v -0.018100 0.007940 -0.009980
v -0.018100 -0.007940 -0.009980
v -0.022480 0.003910 0.000070
v -0.017940 0.007780 -0.010140
v 0.017940 0.007780 -0.010140
v 0.018796 0.008890 -0.004140
v -0.021590 0.008890 0.000000
v 0.021590 0.008890 0.000000
v 0.021590 0.008890 -0.001600
v -0.010000 -0.007780 -0.010140
v 0.018100 -0.007940 -0.009980
v -0.006096 -0.008890 -0.004140
v 0.017460 0.007940 -0.009980
v -0.018796 0.008890 -0.004140
v 0.021710 0.003870 0.000070
v 0.021710 -0.001277 0.000070
v 0.017940 -0.007460 0.001400
v 0.021590 -0.008890 -0.001600
v -0.021590 -0.008890 0.000000
v 0.018100 0.007300 -0.009980
v 0.021590 -0.008890 0.000000
v 0.017940 -0.007780 -0.010140
v -0.017940 -0.007780 -0.010140
v -0.018796 -0.008890 -0.004140
v -0.022480 -0.003910 0.000070
v -0.022310 0.003460 0.003960
v 0.018100 0.007940 -0.009980
v -0.021590 0.008890 -0.001600
v 0.017940 0.007780 0.001400
v 0.018796 -0.008890 -0.004140
v -0.017460 -0.007940 0.001240
v 0.017620 -0.007780 0.001400
v -0.017940 -0.007780 0.001400
v 0.021710 -0.003873 0.000070
v -0.021590 -0.008890 -0.001600
v 0.004760 0.007940 0.001240
v -0.017940 0.007780 0.001400
v 0.005240 0.007780 0.001400
v -0.022479 0.003922 0.000070
v -0.022310 0.003850 0.003649
v -0.013610 0.003634 0.003920
v -0.018100 -0.007940 0.001240
v 0.018100 -0.007940 0.001240
v -0.013610 -0.003634 0.003920
v 0.017940 -0.007780 0.001400
v -0.013610 -0.003549 0.003950
v -0.022479 -0.003922 0.000070
v -0.022310 -0.003549 0.003950
v -0.022310 0.003820 0.003734
v 0.018100 0.007940 0.001240
v -0.018100 0.007940 0.001240
v -0.022310 0.003549 0.003950
v -0.013610 0.003460 0.003960
v -0.013610 -0.003460 0.003960
v -0.022310 -0.003820 0.003734
v 0.005341 0.001255 0.002499
v -0.013610 0.003549 0.003950
v -0.022310 0.003773 0.003809
v -0.022310 0.003634 0.003920
v -0.020795 -0.002480 0.003996
v -0.022310 -0.003709 0.003873
v -0.022310 -0.003850 0.003649
v 0.005326 0.001240 0.002500
v -0.022310 0.003709 0.003873
v -0.020795 0.002480 0.003996
v -0.022310 -0.003460 0.003960
v -0.022310 -0.003773 0.003809
v -0.022310 -0.003634 0.003920
v 0.005341 -0.001075 0.002499
v 0.005326 -0.001060 0.002500
f 1 2 3
f 4 2 1
f 4 1 5
f 6 7 8
f 9 6 8
f 10 11 2
f 10 4 5
f 12 2 11
f 13 1 6
f 13 5 1
f 14 7 6
f 14 6 1
f 15 16 9
f 15 9 8
f 15 17 16
f 18 11 9
f 18 9 16
f 18 19 12
f 20 9 11
f 20 11 5
f 21 19 18
f 22 11 10
f 22 10 5
f 22 5 11
f 23 4 10
f 23 10 2
f 23 2 4
f 24 2 12
f 24 12 19
f 25 26 3
f 25 3 2
f 27 9 20
f 27 20 5
f 27 5 13
f 27 13 6
f 27 6 9
f 28 7 14
f 28 14 1
f 28 1 3
f 29 17 15
f 29 15 8
f 30 11 18
f 30 18 12
f 30 12 11
f 31 19 21
f 32 33 31
f 34 16 17
f 34 21 18
f 34 18 16
f 35 2 24
f 35 24 19
f 35 25 2
f 36 37 38
f 36 38 29
f 36 8 7
f 39 40 7
f 39 7 28
f 39 28 3
f 41 29 38
f 41 38 37
f 42 19 31
f 42 31 33
f 42 33 19
f 43 32 31
f 43 31 21
f 44 33 32
f 45 21 34
f 45 34 17
f 45 46 44
f 45 44 32
f 45 32 43
f 45 43 21
f 47 25 35
f 47 35 19
f 48 44 46
f 49 7 40
f 49 40 39
f 49 39 3
f 50 8 36
f 50 36 29
f 50 29 8
f 51 37 36
f 51 36 7
f 51 7 37
f 52 3 26
f 52 26 53
f 54 46 45
f 54 48 46
f 55 25 47
f 56 45 17
f 56 17 29
f 56 29 53
f 57 41 52
f 57 52 53
f 57 53 29
f 57 29 41
f 58 7 49
f 58 49 3
f 59 3 52
f 59 52 41
f 59 41 37
f 60 54 53
f 61 19 33
f 62 19 55
f 62 55 47
f 62 47 19
f 63 56 53
f 63 53 54
f 64 7 58
f 64 58 3
f 64 3 59
f 64 59 37
f 64 37 7
f 65 26 60
f 65 60 53
f 65 53 26
f 66 48 54
f 66 54 60
f 66 60 26
f 66 26 25
f 66 25 48
f 67 55 19
f 67 19 61
f 67 61 25
f 67 25 55
f 68 25 61
f 68 61 33
f 68 33 44
f 68 44 48
f 68 48 25
f 69 45 56
f 69 56 63
f 69 54 45
f 70 54 69
f 70 69 63
f 70 63 54
