# Normalized convex hull collision mesh - generated by scripts/generate-collision-meshes.mjs (units: meters)
v 0.003236 0.011328 0.004000
v 0.002999 0.011328 0.004000
v 0.004700 -0.011050 -0.001122
v -0.004233 0.011328 0.004000
v 0.003236 0.011504 0.004000
v 0.012500 0.012500 -0.001957
v 0.012500 -0.012500 -0.001957
v 0.012500 -0.012500 -0.002678
v -0.012500 -0.012500 -0.002678
v 0.012500 0.012500 -0.002678
v 0.003236 0.011504 -0.004000
v -0.012500 0.012500 -0.002678
v -0.004233 0.011328 -0.004000
v 0.005130 -0.011011 -0.001122
v -0.012500 -0.012500 -0.001957
v 0.003236 0.011328 -0.004000
v -0.004233 0.011504 -0.004000
v 0.004918 -0.011050 -0.001122
v -0.011814 -0.003484 -0.001166
v -0.004233 0.011504 0.004000
v -0.004423 0.011645 0.003732
v -0.011753 0.006889 -0.000981
v 0.003426 0.011645 0.003732
v -0.005079 0.012309 -0.000255
v -0.012500 0.012500 -0.001957
v -0.011771 0.006890 -0.000998
v -0.011764 0.006889 -0.000989
v -0.011820 -0.003489 -0.001172
v -0.011761 0.006575 -0.000987
v -0.011750 0.006576 -0.000980
v -0.011769 0.006574 -0.000995
v 0.004082 0.012309 -0.000255
v -0.011752 0.006732 -0.000980
v -0.011770 0.006732 -0.000997
v -0.011762 0.006732 -0.000988
f 1 2 3
f 4 3 2
f 5 2 1
f 5 1 6
f 5 4 2
f 7 8 6
f 7 6 1
f 7 9 8
f 10 6 8
f 10 8 11
f 10 11 12
f 10 12 6
f 13 9 12
f 13 8 9
f 14 7 1
f 15 12 9
f 15 9 7
f 15 7 3
f 15 3 4
f 16 8 13
f 16 13 11
f 16 11 8
f 17 11 13
f 17 13 12
f 17 12 11
f 18 7 14
f 18 14 1
f 18 1 3
f 18 3 7
f 19 15 4
f 20 5 21
f 20 22 4
f 20 4 5
f 23 24 21
f 23 21 5
f 23 5 6
f 25 12 15
f 25 26 27
f 25 27 22
f 25 22 20
f 25 20 21
f 25 21 24
f 25 24 6
f 25 6 12
f 28 15 19
f 28 19 29
f 28 29 15
f 30 29 19
f 30 19 4
f 31 25 15
f 31 15 29
f 32 24 23
f 32 23 6
f 32 6 24
f 33 22 29
f 33 29 30
f 33 30 4
f 33 4 22
f 34 26 25
f 34 25 31
f 34 31 27
f 34 27 26
f 35 27 31
f 35 31 29
f 35 29 22
f 35 22 27
