# Normalized convex hull collision mesh - generated by scripts/generate-collision-meshes.mjs (units: meters)
v -0.042500 -0.022822 -0.006706
v -0.042500 0.025123 -0.006706
v -0.041067 -0.004296 -0.007945
v 0.031531 0.025018 -0.008500
v 0.032647 0.023897 -0.008500
v 0.029925 0.012446 -0.008500
v 0.026402 -0.023782 -0.008275
v 0.032647 0.012446 -0.008500
v 0.038689 0.025123 -0.006706
v 0.029925 0.023897 -0.008500
v 0.011812 0.026084 -0.007902
v 0.035823 0.028000 -0.006706
v -0.034727 0.026084 -0.007902
v 0.037610 0.027372 -0.006706
v 0.036461 0.027928 -0.005339
v 0.041436 0.025779 0.006038
v 0.037067 0.027715 -0.005339
v -0.039635 0.028000 -0.006706
v -0.039635 0.028000 -0.005339
v 0.025664 -0.011075 0.007896
v 0.025737 0.005897 0.007902
v -0.034727 0.026084 0.001751
v -0.042500 0.025123 -0.005339
v 0.031987 -0.023782 -0.008275
v 0.032099 -0.023788 -0.008266
v 0.009417 -0.027892 -0.005265
v 0.030684 0.012086 -0.008500
v 0.038689 -0.022822 -0.006706
v 0.041554 -0.023158 -0.005425
v -0.041067 0.006741 -0.007945
v 0.031042 0.025018 -0.008500
v 0.041793 0.023321 -0.004399
v 0.041554 0.025603 -0.005168
v 0.041554 0.025603 0.006023
v 0.036461 0.027928 -0.006706
v 0.035823 0.028000 -0.005339
v 0.041446 0.025776 0.006023
v 0.041446 0.025776 -0.005168
v 0.042500 -0.024205 0.000584
v 0.042500 -0.023733 0.000384
v 0.042500 -0.010088 0.000410
v 0.035823 -0.025699 -0.006706
v 0.009411 -0.027937 -0.005225
v 0.041554 -0.010979 -0.005425
v 0.041446 0.024884 -0.005322
v -0.039635 -0.025699 -0.006706
v -0.040272 -0.025627 -0.006706
v 0.009321 -0.028000 -0.004557
v 0.011009 -0.028000 -0.004306
v 0.007614 -0.028000 -0.004675
v 0.010544 -0.028000 -0.000878
v -0.040272 0.027928 -0.006706
v 0.041406 0.025790 0.006023
v 0.021353 0.025603 0.006193
v 0.041841 -0.019705 0.008090
v 0.042032 -0.019705 0.008090
v 0.041841 -0.004842 0.008500
v 0.041841 0.005226 0.008500
v 0.025823 -0.023158 0.007902
v -0.041421 -0.025071 -0.006706
v -0.041875 -0.024616 -0.006706
v 0.006795 -0.028000 -0.001704
v 0.031531 0.011325 -0.008500
v 0.038617 0.025763 -0.006706
v 0.038405 0.026371 -0.006706
v 0.038064 0.026917 -0.006706
v 0.042127 0.005226 -0.004844
v 0.037067 0.027715 -0.006706
v 0.042500 -0.024049 0.000410
v 0.037067 -0.025414 -0.006706
v 0.032206 -0.023806 -0.008238
v 0.035823 -0.025699 -0.005339
v 0.036461 -0.025627 -0.005339
v 0.027256 -0.023685 0.007560
v 0.025727 -0.023685 0.007560
v 0.008753 -0.027972 -0.000376
v 0.025823 -0.023337 0.007846
v -0.034830 -0.027137 -0.002640
v -0.035106 -0.027137 -0.002668
v 0.041554 -0.023158 0.007902
v 0.041554 -0.023222 0.007896
v 0.021353 0.025790 0.006061
v 0.021353 0.025722 0.006156
v 0.021353 0.025753 0.006129
v 0.042127 -0.004842 0.008500
v 0.042500 -0.009925 0.000641
v 0.041550 0.025645 0.006023
v 0.025727 -0.023062 0.007902
v -0.042428 -0.023462 -0.006706
v -0.042428 -0.023462 -0.005339
v -0.042500 -0.022822 -0.005339
v 0.008164 -0.028000 -0.000620
v 0.008746 -0.027937 -0.005225
v -0.040272 0.027928 -0.005339
v -0.040878 0.027715 -0.006706
v -0.041421 0.027372 -0.006706
v -0.041421 0.027372 -0.005339
v -0.042428 0.025763 -0.005339
v -0.041875 0.026917 -0.006706
v -0.042216 0.026371 -0.006706
v 0.031042 0.011325 -0.008500
v 0.041513 0.025722 -0.005168
v 0.042500 -0.010212 0.000384
v 0.042127 0.005290 -0.004837
v 0.041482 0.024884 -0.005302
v 0.038405 -0.024070 -0.006706
v 0.036461 -0.025627 -0.006706
v 0.010580 -0.027993 -0.004722
v 0.010016 -0.027993 -0.004986
v 0.009390 -0.028000 -0.005066
v 0.009405 -0.027972 -0.005176
v 0.011658 -0.028000 -0.002776
v -0.019725 -0.027425 -0.005339
v -0.035106 -0.027137 -0.005311
v 0.006575 -0.028000 -0.003328
v 0.009405 -0.027972 -0.000376
v 0.041554 -0.023337 0.007846
v 0.025664 -0.023678 0.007560
v 0.028069 -0.023254 0.007902
v 0.025823 -0.023222 0.007896
v 0.021353 0.025776 0.006097
v 0.042127 0.005226 0.008500
v 0.042500 -0.023925 0.002947
v 0.041793 0.023321 -0.002776
v 0.042127 0.007115 0.007022
v 0.025727 -0.011075 0.007902
v 0.025664 -0.023062 0.007896
v -0.042216 -0.024070 -0.006706
v -0.041875 -0.024616 -0.005339
v -0.040878 -0.025414 -0.006706
v -0.036072 -0.027137 -0.003750
v -0.040878 -0.025414 -0.005339
v 0.009390 -0.028000 -0.000487
v 0.007148 -0.028000 -0.001247
v 0.008741 -0.027892 -0.005265
v -0.040878 0.027715 -0.005339
v -0.042428 0.025763 -0.006706
v -0.042216 0.026371 -0.005339
v 0.041535 0.025686 -0.005168
v 0.041523 0.025708 0.006024
v 0.041482 0.025753 0.006023
v 0.042500 -0.010033 0.000440
v 0.042127 0.005405 -0.004788
v 0.042500 -0.010148 0.000391
v 0.041535 0.024884 -0.005242
v 0.042127 -0.004842 -0.004844
v 0.042032 -0.019705 -0.004639
v 0.042500 -0.024150 0.000481
v 0.042032 -0.019841 -0.004608
v 0.041965 -0.023589 -0.003084
v 0.041554 -0.023438 -0.005225
v 0.037610 -0.025071 -0.006706
v 0.038617 -0.023462 -0.006706
v 0.011057 -0.027993 -0.004344
v 0.008768 -0.028000 -0.005066
v 0.008760 -0.027993 -0.005123
v 0.009993 -0.028000 -0.004933
v 0.009397 -0.027993 -0.005123
v 0.008753 -0.027972 -0.005176
v 0.011583 -0.028000 -0.003328
v -0.034830 -0.027137 -0.005339
v -0.035369 -0.027137 -0.005229
v -0.035604 -0.027137 -0.005097
v -0.019811 -0.027425 -0.005331
v 0.007148 -0.028000 -0.004306
v 0.041554 -0.023417 0.007757
v 0.041554 -0.023438 0.007703
v 0.041965 -0.023589 0.006535
v 0.025823 -0.023282 0.007877
v 0.033340 -0.023254 0.007902
v 0.021322 0.025646 0.006187
v 0.021353 0.025645 0.006189
v 0.041841 0.005290 0.008494
v 0.042500 -0.010148 0.002941
v 0.042500 -0.024205 0.002748
v 0.042127 0.007081 0.007071
v 0.042127 0.007036 0.007111
v 0.041363 0.025751 0.006131
v -0.040017 -0.009397 -0.000658
v 0.006575 -0.028000 -0.002224
v -0.042216 -0.024070 -0.005339
v -0.041421 -0.025071 -0.005339
v -0.035604 -0.027137 -0.002882
v 0.009993 -0.028000 -0.000620
v 0.008760 -0.027993 -0.000430
v 0.009397 -0.027993 -0.000430
v 0.010016 -0.027993 -0.000566
v -0.041875 0.026917 -0.005339
v 0.041535 0.025686 0.006023
v 0.041539 0.025676 0.006038
v 0.041550 0.025645 -0.005168
v 0.041482 0.025753 -0.005168
v 0.042500 -0.009953 0.000530
v 0.042127 0.005351 -0.004818
v 0.042127 0.007036 -0.003455
v 0.042127 0.007081 -0.003415
v 0.041513 0.024884 -0.005275
v 0.042500 -0.023925 0.000384
v 0.042500 -0.024104 0.000440
v 0.042500 -0.024184 0.000530
v 0.042032 -0.019776 -0.004631
v 0.038064 -0.024616 -0.006706
v 0.041554 -0.023337 -0.005369
v 0.010544 -0.028000 -0.004675
v 0.011362 -0.028000 -0.003848
v 0.011362 -0.028000 -0.001704
v 0.011419 -0.027993 -0.001678
v 0.008164 -0.028000 -0.004933
v 0.041554 -0.023382 0.007806
v 0.042032 -0.019776 0.008082
v 0.042500 -0.024049 0.002922
v 0.042032 -0.019841 0.008060
v 0.041554 -0.023282 0.007877
v 0.041550 0.025603 0.006061
v 0.042127 0.005351 0.008475
v 0.042500 -0.010212 0.002947
v 0.042127 0.005405 0.008444
v 0.011057 -0.027993 -0.001209
v 0.042500 -0.024212 0.000641
v 0.010580 -0.027993 -0.000831
v 0.042127 0.007137 0.006968
v 0.042127 0.007144 0.006911
v 0.042500 -0.009925 0.002691
v 0.041363 0.025785 0.006075
v 0.041513 0.025722 0.006023
v 0.041485 0.025739 0.006073
v 0.041468 0.025750 0.006078
v 0.041474 0.025713 0.006121
v 0.041510 0.025708 0.006078
v 0.041510 0.025665 0.006116
v 0.041516 0.025676 0.006101
v -0.041019 0.006904 -0.000658
v -0.034727 0.023204 0.001751
v 0.006500 -0.028000 -0.002776
v -0.036041 -0.027137 -0.004476
v -0.036041 -0.027137 -0.003503
v -0.035801 -0.027137 -0.004921
v -0.035369 -0.027137 -0.002750
v 0.007614 -0.028000 -0.000878
v 0.008768 -0.028000 -0.000487
v 0.042500 -0.009932 0.000584
v 0.042127 0.007137 -0.003312
v 0.042127 0.007115 -0.003366
v 0.042500 -0.009987 0.000481
v 0.041554 -0.023417 -0.005280
v 0.041554 -0.023282 -0.005399
v 0.042500 -0.023989 0.000391
v 0.011583 -0.028000 -0.002224
v 0.042500 -0.024150 0.002851
v 0.042500 -0.023989 0.002941
v 0.041539 0.025620 0.006088
v 0.041523 0.025604 0.006116
v 0.041545 0.025645 0.006060
v 0.042500 -0.024212 0.002691
v 0.011009 -0.028000 -0.001247
v 0.042500 -0.009953 0.002802
v 0.041363 0.025774 0.006099
v 0.041363 0.025792 0.006049
v 0.021353 0.025686 0.006177
v 0.041363 0.025685 0.006177
v 0.041363 0.025645 0.006189
v 0.041499 0.025725 0.006073
v 0.041516 0.025691 0.006088
v -0.041019 -0.004603 -0.000658
v -0.036072 -0.027137 -0.004229
v -0.035949 -0.027137 -0.003268
v 0.006795 -0.028000 -0.003848
v 0.041554 -0.023382 -0.005328
v 0.041554 -0.023222 -0.005418
v 0.042500 -0.024184 0.002802
v 0.042500 -0.024104 0.002891
v 0.042127 0.005290 0.008494
v 0.041513 0.025603 0.006129
v 0.042500 -0.009932 0.002748
v 0.042500 -0.009987 0.002851
v 0.041406 0.025785 0.006060
v 0.041420 0.025725 0.006144
v 0.041420 0.025739 0.006131
v 0.041440 0.025741 0.006119
v -0.035801 -0.027137 -0.003058
v -0.035949 -0.027137 -0.004710
v 0.041535 0.025603 0.006097
v 0.042500 -0.010033 0.002891
v 0.041381 0.025779 0.006088
v 0.041363 0.025721 0.006157
v 0.041406 0.025645 0.006185
v 0.041436 0.025620 0.006180
v 0.041482 0.025603 0.006156
v 0.042500 -0.010088 0.002922
v 0.041403 0.025762 0.006111
v 0.041437 0.025756 0.006101
v 0.041451 0.025756 0.006088
v 0.041485 0.025660 0.006144
v 0.041426 0.025708 0.006154
v 0.041437 0.025691 0.006159
v 0.041451 0.025676 0.006159
v 0.041499 0.025660 0.006131
v 0.041468 0.025604 0.006165
v 0.041381 0.025676 0.006180
v 0.041468 0.025665 0.006154
f 1 2 3
f 4 5 6
f 7 3 6
f 8 6 5
f 8 5 9
f 10 4 6
f 10 6 3
f 11 12 4
f 11 4 13
f 11 13 12
f 14 5 4
f 15 16 17
f 18 12 13
f 18 19 12
f 20 21 22
f 23 2 1
f 24 8 25
f 24 26 7
f 27 6 8
f 28 25 8
f 28 8 9
f 28 9 29
f 30 13 10
f 30 10 3
f 30 3 2
f 31 4 10
f 31 10 13
f 31 13 4
f 32 33 34
f 35 4 12
f 35 12 15
f 35 15 17
f 36 15 12
f 36 12 19
f 37 38 17
f 37 17 16
f 39 40 41
f 42 43 26
f 42 26 24
f 42 24 25
f 44 29 9
f 44 9 45
f 46 47 7
f 48 49 50
f 51 50 49
f 52 19 18
f 52 18 13
f 53 16 15
f 54 22 21
f 55 56 57
f 58 54 21
f 59 55 57
f 60 61 3
f 62 50 51
f 63 24 7
f 63 6 27
f 63 27 8
f 63 8 24
f 64 5 65
f 64 45 9
f 64 9 5
f 66 65 5
f 66 5 14
f 67 29 44
f 68 4 35
f 68 35 17
f 68 17 38
f 68 14 4
f 69 40 39
f 70 25 71
f 72 42 73
f 74 75 76
f 77 75 74
f 78 76 75
f 78 75 79
f 78 79 76
f 80 81 56
f 82 19 22
f 83 84 22
f 85 58 57
f 85 57 56
f 86 39 41
f 87 34 33
f 88 59 57
f 88 57 58
f 89 90 1
f 89 1 3
f 91 23 1
f 91 1 90
f 92 62 51
f 93 26 43
f 94 22 19
f 94 19 52
f 95 96 97
f 95 94 52
f 95 52 13
f 95 13 96
f 98 2 23
f 99 96 13
f 99 13 100
f 99 97 96
f 101 6 63
f 101 63 7
f 101 7 6
f 102 65 66
f 102 66 14
f 103 40 67
f 103 41 40
f 104 103 67
f 104 67 33
f 104 33 32
f 105 67 44
f 105 44 45
f 106 71 25
f 107 73 42
f 107 42 25
f 107 25 70
f 108 109 42
f 110 48 50
f 110 49 48
f 111 93 43
f 111 43 42
f 112 42 72
f 112 51 49
f 113 46 93
f 114 47 46
f 115 50 62
f 116 74 76
f 117 77 74
f 118 75 77
f 118 77 79
f 118 79 75
f 119 77 117
f 119 56 55
f 119 55 59
f 119 59 120
f 121 82 22
f 121 22 84
f 122 58 85
f 123 39 86
f 123 122 85
f 123 85 56
f 124 86 32
f 124 32 34
f 124 34 125
f 126 20 88
f 126 88 58
f 126 58 21
f 126 21 20
f 127 79 120
f 127 120 59
f 127 59 88
f 127 88 20
f 127 20 22
f 128 90 89
f 128 89 3
f 128 3 61
f 129 128 61
f 129 61 60
f 130 131 132
f 130 132 60
f 130 60 3
f 130 3 7
f 130 7 47
f 133 92 51
f 134 62 92
f 135 26 93
f 135 93 46
f 135 46 7
f 135 7 26
f 136 94 95
f 136 95 97
f 136 97 22
f 136 22 94
f 137 2 98
f 137 98 100
f 137 100 13
f 137 13 30
f 137 30 2
f 138 99 100
f 138 100 98
f 138 98 22
f 139 65 102
f 139 102 140
f 141 37 16
f 141 38 37
f 142 86 41
f 143 142 41
f 144 103 104
f 144 104 41
f 144 41 103
f 145 33 67
f 146 147 29
f 146 29 67
f 146 67 40
f 148 69 39
f 149 69 150
f 151 39 70
f 152 70 71
f 153 106 25
f 153 25 28
f 153 28 29
f 154 49 108
f 154 108 42
f 154 42 49
f 155 156 110
f 155 110 50
f 155 114 156
f 157 49 110
f 157 109 108
f 158 109 157
f 158 157 110
f 158 110 156
f 158 156 111
f 158 111 42
f 158 42 109
f 159 93 111
f 159 111 156
f 159 156 113
f 159 113 93
f 160 42 112
f 160 112 49
f 161 114 46
f 161 46 113
f 162 163 47
f 162 47 114
f 162 50 163
f 164 156 114
f 164 114 161
f 164 161 113
f 164 113 156
f 165 50 115
f 165 163 50
f 166 167 168
f 166 74 116
f 166 116 167
f 169 77 119
f 169 119 120
f 169 120 79
f 169 79 77
f 170 81 80
f 170 80 56
f 170 56 119
f 170 119 117
f 171 22 54
f 171 54 172
f 173 58 122
f 173 172 54
f 173 54 58
f 174 123 86
f 175 168 167
f 175 39 123
f 176 34 177
f 176 125 34
f 178 84 83
f 179 79 127
f 180 115 62
f 181 128 129
f 181 179 90
f 181 90 128
f 182 183 129
f 182 129 60
f 182 60 132
f 184 133 51
f 185 76 79
f 185 116 76
f 186 116 185
f 186 185 133
f 186 133 184
f 186 184 187
f 186 187 167
f 186 167 116
f 188 99 138
f 188 138 22
f 188 22 97
f 188 97 99
f 189 190 139
f 189 139 140
f 189 140 190
f 191 87 33
f 191 33 105
f 191 105 45
f 191 45 64
f 191 64 65
f 191 65 139
f 191 139 190
f 191 190 87
f 192 38 141
f 192 141 102
f 192 102 14
f 192 14 68
f 192 68 38
f 193 86 142
f 194 104 32
f 194 32 143
f 194 143 41
f 194 41 104
f 195 142 143
f 195 143 32
f 195 32 196
f 195 196 142
f 197 105 33
f 197 33 145
f 197 145 67
f 197 67 105
f 198 147 146
f 198 146 40
f 198 40 69
f 199 69 148
f 199 148 150
f 199 150 69
f 200 150 148
f 200 148 39
f 200 39 151
f 201 69 149
f 202 203 152
f 202 152 71
f 202 71 106
f 204 49 157
f 204 157 108
f 204 108 49
f 205 42 160
f 205 160 49
f 205 49 42
f 206 72 207
f 206 51 112
f 208 155 50
f 208 50 162
f 208 162 114
f 208 114 155
f 209 117 74
f 209 74 166
f 209 166 168
f 209 168 117
f 210 56 81
f 211 210 212
f 211 212 168
f 211 175 123
f 213 81 170
f 213 170 117
f 213 117 168
f 213 168 212
f 213 212 210
f 213 210 81
f 214 215 34
f 214 34 87
f 216 123 174
f 216 122 123
f 217 177 34
f 217 34 215
f 218 207 72
f 219 39 175
f 219 73 107
f 219 107 70
f 219 70 39
f 220 51 218
f 220 218 175
f 220 175 167
f 220 167 187
f 220 187 184
f 220 184 51
f 221 222 124
f 221 124 125
f 223 124 222
f 223 222 221
f 223 174 86
f 223 86 124
f 224 82 121
f 225 141 226
f 225 140 102
f 225 102 141
f 227 228 226
f 227 226 141
f 227 141 16
f 229 190 140
f 230 231 228
f 232 22 98
f 232 98 23
f 232 23 91
f 233 22 232
f 233 179 127
f 233 127 22
f 234 115 180
f 234 235 115
f 236 131 234
f 236 234 180
f 236 132 131
f 237 163 165
f 237 47 163
f 238 179 181
f 238 181 129
f 238 129 183
f 238 92 79
f 238 79 179
f 239 92 238
f 239 238 183
f 239 183 134
f 239 134 92
f 240 92 133
f 240 133 185
f 240 185 79
f 240 79 92
f 241 32 86
f 241 86 193
f 241 193 242
f 241 242 32
f 243 242 193
f 243 193 196
f 243 196 32
f 243 32 242
f 244 196 193
f 244 193 142
f 244 142 196
f 245 151 70
f 245 70 152
f 245 150 200
f 245 200 151
f 246 203 202
f 246 201 149
f 246 149 150
f 246 150 203
f 247 198 69
f 247 69 201
f 247 201 147
f 247 147 198
f 248 72 206
f 248 206 112
f 248 112 72
f 249 175 211
f 250 210 211
f 250 211 123
f 250 123 56
f 250 56 210
f 251 231 230
f 251 230 252
f 253 231 251
f 253 251 214
f 253 214 87
f 253 87 190
f 254 175 218
f 254 218 72
f 254 72 73
f 254 73 219
f 254 219 175
f 255 206 207
f 255 207 218
f 255 218 51
f 255 51 206
f 256 125 176
f 256 174 223
f 256 221 125
f 257 224 121
f 257 121 84
f 257 84 178
f 258 53 15
f 258 15 36
f 258 36 19
f 258 19 82
f 258 82 224
f 259 172 260
f 259 83 22
f 259 22 171
f 259 171 172
f 261 172 173
f 262 228 229
f 262 229 140
f 262 140 225
f 262 225 226
f 262 226 228
f 263 231 253
f 263 253 190
f 263 190 229
f 263 229 228
f 263 228 231
f 264 179 233
f 264 233 232
f 264 232 91
f 264 91 90
f 264 90 179
f 265 235 234
f 265 234 131
f 265 131 130
f 265 130 47
f 265 47 235
f 266 132 236
f 266 236 180
f 266 180 62
f 267 237 165
f 267 165 115
f 268 203 150
f 268 150 245
f 268 245 152
f 268 152 203
f 269 106 153
f 269 153 29
f 269 29 147
f 269 147 201
f 269 201 246
f 269 246 202
f 269 202 106
f 270 175 249
f 270 249 168
f 270 168 175
f 271 168 249
f 271 249 211
f 271 211 168
f 272 214 251
f 272 252 273
f 272 261 173
f 272 173 122
f 272 122 216
f 272 216 174
f 272 174 215
f 272 215 214
f 274 221 256
f 274 256 223
f 274 223 221
f 275 174 256
f 275 256 176
f 275 176 177
f 276 16 53
f 276 53 258
f 276 258 224
f 277 278 178
f 279 278 277
f 279 277 228
f 280 134 183
f 280 183 182
f 280 182 132
f 280 132 266
f 280 266 62
f 280 62 134
f 281 235 47
f 281 47 237
f 281 237 267
f 281 267 115
f 281 115 235
f 282 252 272
f 282 272 251
f 282 251 252
f 283 217 215
f 283 174 275
f 283 275 177
f 283 177 217
f 284 276 224
f 284 224 257
f 285 277 178
f 285 178 83
f 285 83 259
f 285 259 260
f 286 272 287
f 286 261 272
f 288 272 273
f 289 174 283
f 289 283 215
f 289 215 174
f 290 284 257
f 290 257 178
f 290 178 278
f 290 278 279
f 290 279 291
f 290 291 276
f 290 276 284
f 292 227 16
f 292 16 276
f 292 276 291
f 292 291 279
f 292 279 228
f 292 228 227
f 293 288 273
f 294 277 285
f 294 295 228
f 294 228 277
f 296 228 295
f 296 295 286
f 296 286 287
f 297 228 293
f 297 293 273
f 297 273 252
f 297 252 230
f 297 230 228
f 298 288 293
f 298 287 272
f 298 272 288
f 299 260 172
f 299 172 261
f 299 261 286
f 299 286 295
f 299 295 294
f 299 294 285
f 299 285 260
f 300 293 228
f 300 228 296
f 300 296 287
f 300 287 298
f 300 298 293
