# Convex hull collision mesh — generated by scripts/generate-collision-meshes.mjs (units: meters)
v 0.051031 0.029371 0.010640
v 0.054500 0.043500 0.001500
v 0.051031 0.031721 0.010640
v 0.051034 0.010321 0.010640
v 0.041927 0.043449 0.006580
v 0.011015 -0.038140 0.013010
v -0.016188 -0.038140 0.013010
v -0.000936 -0.040990 0.009010
v 0.048658 -0.026350 0.010009
v -0.016938 -0.040990 0.009010
v -0.054720 -0.042860 0.001500
v -0.054720 -0.025872 0.012500
v -0.056715 0.018265 0.003075
v -0.054720 -0.042860 0.000000
v 0.054500 -0.042860 0.000000
v -0.052220 -0.004698 0.016118
v -0.054720 0.043500 0.001500
v -0.054720 0.043500 0.000000
v 0.011015 -0.035140 0.013010
v -0.047220 -0.004318 0.016300
v 0.054500 -0.042860 0.001500
v -0.017049 -0.040990 0.008997
v -0.054712 -0.006617 0.014467
v -0.054916 -0.005942 0.013410
v -0.047222 -0.004340 0.016298
v -0.051443 0.038208 -0.003597
v -0.051444 -0.038146 -0.003597
v -0.051803 0.038655 -0.003506
v -0.056715 0.018265 0.002375
v -0.056715 0.019839 0.001480
v -0.053492 -0.037872 -0.002113
v -0.056715 0.026012 0.002375
v -0.003793 0.043449 0.006580
v -0.042401 0.043449 0.006580
v -0.050094 -0.041029 -0.002853
v 0.049362 -0.041367 -0.002508
v -0.049567 -0.041366 -0.002508
v -0.049589 -0.040870 -0.003007
v 0.049382 -0.040870 -0.003007
v -0.050125 0.038689 -0.003703
v -0.049531 0.038905 -0.003703
v 0.049943 -0.037797 -0.003703
v -0.049503 -0.039168 -0.003663
v 0.049465 -0.038750 -0.003695
v 0.049431 -0.039606 -0.003597
v 0.049807 0.038825 -0.003703
v 0.054500 0.043500 0.000000
v 0.052964 -0.038420 -0.002508
v 0.053149 -0.037856 -0.002316
v 0.053211 0.038384 -0.002215
v 0.053008 0.038390 -0.002508
v 0.011765 -0.040990 0.009010
v -0.054690 -0.006617 0.014530
v -0.054567 -0.004840 0.014931
v -0.053323 -0.004760 0.015781
v -0.053323 -0.002974 0.015781
v -0.051068 -0.004635 0.016194
v -0.051068 0.006901 0.016194
v -0.047220 0.006584 0.016300
v 0.046031 0.031721 0.010640
v -0.052220 -0.003037 0.016118
v -0.051381 0.039043 -0.003597
v -0.056556 0.019839 0.001225
v -0.053077 -0.037871 -0.002687
v -0.053219 -0.037589 -0.002508
v -0.056556 0.024439 0.001225
v -0.049252 0.040870 -0.003377
v -0.049847 0.041222 -0.003209
v 0.049284 0.040906 -0.003377
v -0.052277 0.040094 -0.003007
v -0.052584 0.039435 -0.003007
v -0.056715 0.025139 0.003970
v -0.056715 0.024439 0.001480
v 0.049186 0.041995 -0.002508
v 0.049728 0.041683 -0.002853
v -0.049607 0.041855 -0.002687
v -0.049884 0.042006 -0.002508
v 0.049348 -0.041736 -0.001900
v 0.049943 -0.041482 -0.002316
v -0.050411 -0.041301 -0.002508
v -0.050107 -0.038085 -0.003703
v -0.051041 -0.037758 -0.003663
v -0.050608 0.038566 -0.003695
v -0.050608 -0.037791 -0.003695
v -0.049644 -0.039606 -0.003597
v 0.049679 -0.038732 -0.003695
v 0.049354 -0.038513 -0.003701
v 0.050725 0.039006 -0.003663
v 0.050287 0.039567 -0.003663
v 0.050844 0.039618 -0.003597
v 0.051209 0.038865 -0.003597
v 0.051862 0.039005 -0.003377
v 0.052223 0.038415 -0.003209
v 0.051588 0.038435 -0.003506
v -0.049592 0.042270 -0.002113
v 0.052998 -0.037574 -0.002508
v 0.053267 0.038686 -0.002113
v 0.011876 -0.040990 0.008997
v -0.054639 -0.004848 0.014794
v -0.054689 -0.004855 0.014648
v -0.047227 0.006626 0.016294
v -0.053220 0.038760 -0.002508
v -0.052986 0.038742 -0.002772
v -0.052873 0.038991 -0.002853
v -0.052724 0.038723 -0.003007
v -0.053077 0.038478 -0.002687
v -0.052488 -0.039050 -0.003007
v -0.052743 -0.038880 -0.002853
v -0.053182 -0.038434 -0.002508
v 0.049913 0.041193 -0.003209
v 0.049230 0.041500 -0.003007
v 0.049816 0.040565 -0.003506
v -0.049946 0.038886 -0.003703
v -0.050125 0.041665 -0.002853
v -0.051821 0.040659 -0.003007
v -0.051243 0.041099 -0.003007
v -0.051493 0.039605 -0.003506
v -0.052016 0.039250 -0.003377
v -0.051404 0.040231 -0.003377
v -0.050776 0.040302 -0.003506
v -0.052032 0.039941 -0.003209
v -0.049782 0.039824 -0.003663
v -0.049381 0.040215 -0.003597
v 0.049344 0.040241 -0.003597
v 0.049701 0.039810 -0.003663
v 0.049420 0.039387 -0.003695
v -0.049762 0.039390 -0.003695
v -0.050577 0.041388 -0.003007
v -0.051098 0.040851 -0.003209
v -0.056715 0.026012 0.003075
v -0.056715 0.019139 0.003970
v -0.054694 0.007122 0.014625
v -0.056711 0.026009 0.002330
v 0.050032 0.041969 -0.002508
v 0.049908 -0.041192 -0.002687
v -0.049551 -0.041735 -0.001900
v -0.050365 -0.041071 -0.002772
v -0.050167 -0.037879 -0.003703
v 0.049232 -0.038218 -0.003703
v -0.050476 0.038971 -0.003695
v -0.050390 0.039644 -0.003663
v -0.050341 0.039138 -0.003695
v -0.051646 -0.039317 -0.003377
v -0.052223 -0.038936 -0.003209
v -0.051639 -0.038685 -0.003506
v -0.049615 -0.040273 -0.003377
v -0.050464 -0.039441 -0.003597
v 0.049487 0.038947 -0.003703
v 0.049207 0.039102 -0.003701
v 0.049412 0.039014 -0.003703
v 0.049947 0.038513 -0.003703
v 0.050043 0.038633 -0.003702
v 0.051225 -0.038139 -0.003597
v 0.051582 -0.037690 -0.003506
v 0.050372 -0.037681 -0.003695
v 0.050153 -0.038006 -0.003701
v 0.050387 0.038580 -0.003695
v 0.050024 -0.037667 -0.003702
v 0.050133 0.038281 -0.003701
v 0.050102 0.038793 -0.003701
v 0.049772 0.039030 -0.003702
v 0.050008 0.039724 -0.003663
v 0.050269 0.039140 -0.003689
v 0.050820 0.038379 -0.003663
v 0.050825 -0.037832 -0.003663
v 0.051379 0.039412 -0.003506
v 0.050740 0.040181 -0.003506
v -0.049893 0.042208 -0.002215
v 0.049769 0.042262 -0.002113
v 0.052691 -0.037857 -0.002853
v 0.052503 -0.037615 -0.003007
v 0.052511 0.038406 -0.003007
v 0.052774 0.038398 -0.002772
v -0.052220 0.006963 0.016118
v -0.054320 -0.004823 0.015200
v -0.051044 0.040599 0.004242
v -0.051057 0.040586 0.004242
v -0.047222 0.006605 0.016298
v -0.052724 -0.037627 -0.003007
v -0.052437 -0.037650 -0.003209
v -0.052692 -0.038353 -0.003007
v -0.052437 0.038702 -0.003209
v -0.051802 -0.037699 -0.003506
v 0.049956 0.041478 -0.003007
v 0.050427 0.040731 -0.003377
v 0.051117 0.040693 -0.003209
v -0.050032 0.038821 -0.003703
v -0.049973 0.039354 -0.003695
v 0.050170 0.040114 -0.003597
v -0.049861 0.041509 -0.003007
v -0.049873 0.041772 -0.002772
v -0.050939 0.039753 -0.003597
v -0.049818 0.040586 -0.003506
v -0.050217 0.040176 -0.003597
v -0.051106 0.041374 -0.002853
v -0.050407 0.040816 -0.003377
v -0.056711 0.026009 0.003120
v -0.056711 0.025183 0.003968
v -0.054653 0.007115 0.014760
v -0.054689 -0.002879 0.014648
v -0.054712 0.008883 0.014467
v -0.054694 0.005144 0.014625
v 0.050158 -0.041069 -0.002772
v 0.050391 -0.040924 -0.002853
v 0.050794 -0.040580 -0.003007
v 0.050538 -0.040041 -0.003377
v 0.050048 -0.040529 -0.003209
v -0.050163 -0.041606 -0.002113
v -0.050149 -0.037986 -0.003703
v -0.050390 0.038509 -0.003701
v 0.049858 -0.038128 -0.003703
v -0.049895 -0.038733 -0.003695
v -0.052123 -0.039678 -0.003007
v -0.050131 -0.039908 -0.003506
v -0.050313 -0.040814 -0.003007
v -0.051436 -0.039976 -0.003209
v -0.051114 -0.038915 -0.003597
v -0.050538 -0.038212 -0.003695
v -0.050281 -0.038552 -0.003695
v -0.049741 0.038947 -0.003703
v 0.052685 -0.038920 -0.002687
v 0.051885 -0.038245 -0.003377
v 0.050648 -0.038522 -0.003663
v 0.050036 -0.038831 -0.003682
v 0.050568 0.038201 -0.003682
v 0.052446 0.039129 -0.003007
v 0.051357 0.040045 -0.003377
v 0.052765 -0.037593 -0.002772
v -0.052220 0.005302 0.016118
v -0.053323 0.005240 0.015781
v -0.054320 0.007088 0.015200
v -0.053323 0.007026 0.015781
v -0.054485 -0.004834 0.015044
v -0.052986 -0.037607 -0.002772
v -0.052103 -0.038255 -0.003377
v -0.049991 0.038856 -0.003703
v -0.050170 0.039268 -0.003695
v -0.054653 0.005150 0.014760
v 0.050106 -0.040811 -0.003007
v 0.051408 -0.040192 -0.003007
v 0.051910 -0.039667 -0.003007
v 0.049920 -0.039906 -0.003506
v 0.050251 -0.039438 -0.003597
v -0.050566 0.038777 -0.003695
v -0.050068 0.038781 -0.003703
v -0.049495 -0.038247 -0.003703
v -0.049605 -0.038963 -0.003682
v -0.050599 -0.038006 -0.003695
v -0.050110 -0.038405 -0.003701
v -0.050643 -0.041087 -0.002687
v -0.050256 -0.040531 -0.003209
v -0.050748 -0.040046 -0.003377
v -0.051003 -0.040586 -0.003007
v -0.051036 -0.039482 -0.003506
v 0.052474 -0.038340 -0.003007
v 0.052273 -0.039038 -0.003007
v 0.052515 -0.039141 -0.002772
v 0.052327 -0.039340 -0.002853
v 0.052216 -0.037638 -0.003209
v 0.051422 -0.038677 -0.003506
v 0.050243 -0.038350 -0.003695
v 0.052853 0.038666 -0.002687
v 0.052628 0.039719 -0.002687
v 0.052210 0.039816 -0.003007
v 0.051816 0.040426 -0.003007
v -0.054550 0.008883 0.014670
v -0.054407 -0.004828 0.015127
v -0.054407 -0.002906 0.015127
v -0.052102 0.038097 -0.003377
v 0.049996 0.041738 -0.002772
v 0.050274 0.041766 -0.002687
v 0.050656 0.041282 -0.003007
v -0.054499 0.007100 0.015026
v -0.054655 0.008883 0.014587
v -0.054587 0.007108 0.014899
v -0.054587 0.005158 0.014899
v -0.054639 -0.002887 0.014794
v -0.054690 0.008883 0.014530
v 0.051225 -0.039969 -0.003209
v 0.051432 -0.039309 -0.003377
v 0.050209 -0.038979 -0.003663
v 0.049405 -0.040274 -0.003377
v -0.050100 0.038737 -0.003703
v -0.050099 -0.038666 -0.003695
v -0.050161 -0.037933 -0.003703
v -0.050131 -0.038037 -0.003703
v -0.050430 -0.038397 -0.003695
v -0.051618 -0.040200 -0.003007
v 0.052008 -0.038925 -0.003209
v 0.050823 -0.039477 -0.003506
v 0.050149 -0.038759 -0.003682
v 0.050457 -0.038777 -0.003663
v 0.050595 -0.038037 -0.003682
v 0.052932 0.039233 -0.002508
v 0.051951 0.039690 -0.003209
v -0.054607 0.008883 0.014635
v 0.051288 0.040925 -0.003007
v -0.054485 -0.002901 0.015044
v -0.054499 0.005165 0.015026
v -0.054567 -0.002894 0.014931
v 0.050898 -0.038909 -0.003597
f 1 2 3
f 1 4 2
f 5 3 2
f 6 7 8
f 6 9 4
f 10 8 7
f 11 7 12
f 11 13 14
f 11 14 15
f 11 8 10
f 16 12 7
f 17 2 18
f 17 5 2
f 19 1 3
f 19 20 6
f 19 6 4
f 19 4 1
f 21 15 2
f 21 2 4
f 21 4 9
f 21 9 6
f 21 8 11
f 21 11 15
f 22 7 11
f 22 11 10
f 22 10 7
f 23 24 12
f 25 7 6
f 25 6 20
f 26 27 28
f 29 13 30
f 29 30 14
f 29 14 13
f 31 14 30
f 32 30 13
f 32 17 18
f 33 5 17
f 33 17 34
f 33 34 3
f 33 3 5
f 35 36 37
f 35 38 39
f 40 41 42
f 43 44 45
f 46 42 41
f 47 2 15
f 47 18 2
f 48 49 15
f 50 47 15
f 50 15 49
f 50 49 51
f 52 8 21
f 52 6 8
f 53 23 12
f 53 12 54
f 55 12 16
f 55 16 56
f 57 20 58
f 57 16 7
f 57 7 25
f 57 25 20
f 59 58 20
f 59 20 19
f 59 19 3
f 60 34 58
f 60 3 34
f 61 16 57
f 61 57 58
f 61 56 16
f 62 26 28
f 63 64 65
f 63 65 31
f 63 31 30
f 63 30 66
f 63 66 64
f 67 68 69
f 70 71 18
f 72 32 13
f 73 30 32
f 73 18 66
f 73 66 30
f 74 75 76
f 74 76 77
f 78 37 36
f 78 36 79
f 78 79 15
f 78 15 14
f 80 35 37
f 80 37 14
f 81 40 42
f 82 27 26
f 83 84 82
f 83 82 26
f 83 26 62
f 85 43 45
f 86 44 87
f 88 89 90
f 88 90 91
f 92 93 94
f 95 18 47
f 96 49 48
f 96 51 49
f 97 47 50
f 97 50 51
f 97 51 47
f 98 6 52
f 98 52 21
f 98 21 6
f 99 53 54
f 99 23 53
f 100 23 99
f 100 24 23
f 101 60 58
f 102 18 103
f 102 66 18
f 104 71 105
f 104 105 103
f 104 103 18
f 104 18 71
f 106 66 102
f 106 102 103
f 106 103 64
f 106 64 66
f 107 14 108
f 109 108 14
f 109 14 31
f 109 31 65
f 109 65 64
f 110 69 68
f 110 68 111
f 110 112 69
f 113 41 40
f 114 18 77
f 115 70 18
f 115 18 116
f 117 62 28
f 117 28 118
f 117 119 120
f 121 70 115
f 121 115 119
f 121 119 117
f 121 117 118
f 121 118 71
f 121 71 70
f 122 123 124
f 122 124 125
f 122 125 126
f 122 126 127
f 128 18 114
f 129 116 128
f 129 120 119
f 129 119 115
f 129 115 116
f 130 32 72
f 130 17 32
f 131 12 24
f 131 24 100
f 131 132 72
f 131 72 13
f 131 13 11
f 131 11 12
f 133 18 73
f 133 73 32
f 133 32 18
f 134 75 74
f 135 79 36
f 135 36 35
f 135 35 39
f 135 15 79
f 136 37 78
f 136 78 14
f 137 35 80
f 137 80 14
f 138 40 81
f 139 81 42
f 140 62 141
f 140 141 142
f 143 144 145
f 146 39 38
f 147 43 85
f 148 46 41
f 149 126 150
f 149 150 127
f 149 127 126
f 151 46 152
f 151 152 42
f 151 42 46
f 153 91 94
f 153 94 154
f 155 156 157
f 158 152 156
f 158 156 42
f 158 42 152
f 159 157 156
f 159 156 152
f 159 152 160
f 159 160 157
f 161 150 126
f 161 160 152
f 161 152 46
f 161 46 148
f 161 148 150
f 162 126 125
f 163 160 161
f 163 161 126
f 163 126 162
f 163 162 89
f 163 89 88
f 163 88 157
f 163 157 160
f 164 157 88
f 164 88 91
f 164 91 153
f 164 153 165
f 166 91 90
f 166 90 167
f 166 92 94
f 166 94 91
f 168 18 95
f 168 74 77
f 168 77 18
f 169 47 134
f 169 134 74
f 169 74 168
f 169 168 95
f 169 95 47
f 170 171 172
f 170 172 173
f 170 96 48
f 174 61 58
f 174 58 34
f 175 55 56
f 175 12 55
f 176 17 177
f 176 177 34
f 176 34 17
f 178 3 60
f 178 60 101
f 178 101 58
f 178 58 59
f 178 59 3
f 179 103 105
f 179 105 180
f 181 108 109
f 181 109 64
f 181 64 179
f 181 179 180
f 181 144 107
f 181 107 108
f 182 180 105
f 182 105 71
f 182 71 118
f 182 118 28
f 183 27 145
f 183 28 27
f 184 110 111
f 184 111 75
f 185 112 110
f 185 186 167
f 185 167 112
f 187 113 40
f 188 141 122
f 188 122 127
f 189 89 162
f 189 162 125
f 189 125 124
f 189 124 112
f 189 112 167
f 189 167 90
f 189 90 89
f 190 75 111
f 190 111 68
f 190 68 128
f 190 128 114
f 191 76 75
f 191 75 190
f 191 190 114
f 191 114 77
f 191 77 76
f 192 141 62
f 192 62 117
f 192 117 120
f 193 68 67
f 193 67 69
f 193 69 112
f 193 112 124
f 193 124 123
f 194 120 193
f 194 193 123
f 194 123 122
f 194 122 141
f 194 141 192
f 194 192 120
f 195 18 128
f 195 128 116
f 195 116 18
f 196 68 193
f 196 193 120
f 196 120 129
f 196 129 128
f 196 128 68
f 197 130 72
f 197 72 198
f 197 198 17
f 197 17 130
f 199 132 200
f 199 200 100
f 201 72 132
f 201 132 199
f 202 132 131
f 202 131 100
f 202 100 200
f 202 200 132
f 203 204 15
f 203 15 135
f 205 15 204
f 206 205 207
f 208 37 136
f 208 136 14
f 208 14 37
f 209 138 81
f 210 40 138
f 210 138 84
f 210 84 83
f 211 87 139
f 211 139 42
f 211 42 156
f 211 86 87
f 212 87 44
f 213 144 143
f 213 14 107
f 213 107 144
f 214 85 45
f 214 147 85
f 215 38 35
f 215 35 137
f 216 213 143
f 217 27 82
f 217 82 218
f 217 219 147
f 217 145 27
f 220 150 148
f 220 148 41
f 220 41 113
f 220 113 188
f 220 188 127
f 220 127 150
f 221 48 15
f 222 154 94
f 222 94 93
f 223 165 153
f 224 45 44
f 224 44 86
f 225 157 164
f 226 172 93
f 226 93 92
f 227 166 167
f 227 167 186
f 228 96 170
f 229 61 174
f 230 56 61
f 230 61 229
f 230 229 174
f 230 231 175
f 230 175 56
f 232 231 230
f 232 230 174
f 232 174 34
f 233 54 12
f 234 103 179
f 234 179 64
f 234 64 103
f 235 144 181
f 235 181 180
f 235 180 182
f 235 28 183
f 235 183 145
f 235 145 144
f 236 113 187
f 236 187 142
f 237 142 141
f 237 141 188
f 237 188 113
f 237 113 236
f 237 236 142
f 238 99 199
f 238 199 100
f 238 100 99
f 239 39 207
f 239 207 205
f 239 205 204
f 239 204 203
f 239 203 135
f 239 135 39
f 240 15 205
f 240 241 15
f 242 45 243
f 242 206 207
f 242 214 45
f 244 140 210
f 244 210 83
f 244 83 62
f 244 62 140
f 245 187 40
f 245 140 142
f 245 142 187
f 246 81 139
f 246 139 87
f 247 44 43
f 247 43 147
f 247 212 44
f 248 84 138
f 248 209 218
f 248 218 82
f 248 82 84
f 249 81 246
f 249 246 87
f 249 87 212
f 250 215 137
f 250 137 14
f 251 146 38
f 251 38 215
f 251 252 214
f 251 214 146
f 253 215 250
f 253 250 14
f 253 216 252
f 253 252 251
f 253 251 215
f 254 143 145
f 254 145 217
f 254 217 147
f 254 147 214
f 254 214 252
f 254 252 216
f 254 216 143
f 255 170 48
f 255 48 221
f 255 221 256
f 255 171 170
f 257 256 221
f 257 221 15
f 257 15 256
f 258 15 241
f 258 241 256
f 258 256 15
f 259 171 255
f 259 255 222
f 259 222 93
f 259 93 172
f 259 172 171
f 260 153 154
f 260 154 222
f 261 156 155
f 261 86 211
f 261 211 156
f 262 172 226
f 262 47 51
f 262 51 96
f 262 96 228
f 262 228 170
f 262 170 173
f 262 173 172
f 263 47 226
f 263 226 264
f 263 264 47
f 265 47 264
f 265 227 186
f 266 231 232
f 266 232 34
f 266 34 177
f 266 177 17
f 267 175 231
f 267 231 268
f 267 268 233
f 267 233 12
f 267 12 175
f 269 28 235
f 269 235 182
f 269 182 28
f 270 47 271
f 270 271 184
f 270 184 75
f 270 75 134
f 270 134 47
f 272 186 185
f 272 185 110
f 272 110 184
f 272 184 271
f 272 271 47
f 273 268 231
f 273 274 275
f 276 54 275
f 276 275 99
f 276 99 54
f 277 99 275
f 277 275 199
f 277 199 99
f 278 201 199
f 278 199 275
f 278 275 274
f 278 274 17
f 278 17 198
f 278 198 72
f 278 72 201
f 279 280 241
f 279 241 240
f 279 240 205
f 279 205 206
f 281 243 45
f 281 45 224
f 282 146 214
f 282 214 242
f 282 242 207
f 282 207 39
f 282 39 146
f 283 210 140
f 283 140 245
f 283 245 40
f 283 40 210
f 284 212 247
f 284 247 147
f 284 147 219
f 284 219 249
f 284 249 212
f 285 209 248
f 285 248 138
f 285 138 209
f 286 209 81
f 286 81 249
f 286 249 218
f 286 218 209
f 287 218 249
f 287 249 219
f 287 219 217
f 287 217 218
f 288 216 253
f 288 253 14
f 288 14 213
f 288 213 216
f 289 222 255
f 289 255 256
f 289 256 241
f 289 241 280
f 289 280 260
f 289 260 222
f 290 260 280
f 290 280 279
f 290 279 206
f 290 206 242
f 290 242 243
f 291 292 281
f 291 281 224
f 291 224 86
f 291 86 261
f 291 261 223
f 291 223 292
f 293 165 223
f 293 223 261
f 293 261 155
f 293 155 157
f 293 157 225
f 293 225 164
f 293 164 165
f 294 47 262
f 294 262 226
f 294 226 47
f 295 227 265
f 295 265 264
f 295 264 226
f 295 226 92
f 295 92 166
f 295 166 227
f 296 274 273
f 296 273 231
f 296 231 266
f 296 266 17
f 296 17 274
f 297 186 272
f 297 272 47
f 297 47 265
f 297 265 186
f 298 268 273
f 298 273 233
f 298 233 268
f 299 233 273
f 299 54 233
f 300 54 299
f 300 299 273
f 300 273 275
f 300 275 54
f 301 292 223
f 301 223 153
f 301 153 260
f 301 260 290
f 301 290 243
f 301 243 281
f 301 281 292
