# Convex hull collision mesh — generated by scripts/generate-collision-meshes.mjs
v 1.337500 21.902500 9.800000
v 1.337500 6.337500 9.800000
v 34.299999 9.000000 11.200000
v 29.137501 2.137500 9.800000
v 39.900002 0.000000 0.000000
v 39.900002 28.200001 0.000000
v 39.900002 0.000000 1.200000
v 0.000000 0.000000 0.000000
v 39.900002 9.000000 8.200000
v 0.230000 22.425333 3.700000
v 0.000000 28.200001 1.200000
v 0.230000 5.814667 3.700000
v 1.175000 6.175000 9.518541
v 0.000000 0.000000 1.200000
v 28.975000 1.975000 9.518541
v 0.000000 28.200001 0.000000
v 1.337500 21.902500 -1.800000
v 1.337500 6.337500 -1.800000
v 32.002499 2.137500 -1.800000
v 32.002499 2.137500 9.800000
v 39.900002 28.200001 1.200000
v 39.299999 9.000000 11.200000
v 39.299999 19.000000 11.200000
v 34.299999 19.000000 11.200000
v 1.175000 22.065001 9.518541
v 29.137501 2.137500 -1.800000
v 37.132671 11.459606 -3.123606
v 32.165001 1.975000 9.518541
v 1.662500 21.902500 9.800000
v 39.900002 19.000000 8.200000
v 36.799999 11.321964 -3.192315
v 37.075794 11.309633 -3.123606
v 36.946522 11.398864 -3.192315
v 37.132671 16.459606 -3.123606
v 36.976738 16.478540 -3.192315
v 1.662500 21.902500 -1.800000
v 36.842606 16.672863 -3.192315
v 36.918060 16.633261 -3.192315
v 36.757393 16.672863 -3.192315
v 36.776070 16.597094 -3.200000
v 36.700729 11.487947 -3.200000
v 36.899269 16.487946 -3.200000
v 36.976738 11.478540 -3.192315
v 37.113338 16.618834 -3.123606
v 36.966465 16.563133 -3.192315
v 36.846474 16.588545 -3.200000
v 36.700729 16.512054 -3.200000
v 36.882736 11.342358 -3.192315
v 36.893501 11.464540 -3.200000
v 36.799999 16.600000 -3.200000
v 36.899269 16.512054 -3.200000
v 36.882298 16.556807 -3.200000
v 36.717701 16.556807 -3.200000
v 36.899269 11.487947 -3.200000
v 36.733688 11.425149 -3.200000
v 36.799999 11.400000 -3.200000
v 36.866314 11.425149 -3.200000
v 36.823933 16.597094 -3.200000
v 36.866314 16.574852 -3.200000
v 36.893501 16.535461 -3.200000
v 36.733688 16.574852 -3.200000
v 36.706497 16.535461 -3.200000
v 36.706497 11.464540 -3.200000
v 36.753529 11.411454 -3.200000
v 36.776070 11.402905 -3.200000
v 36.823933 11.402905 -3.200000
v 36.882298 11.443193 -3.200000
v 36.753529 16.588545 -3.200000
v 36.717701 11.443193 -3.200000
v 36.846474 11.411454 -3.200000
f 1 2 3
f 4 3 2
f 5 6 7
f 5 7 8
f 9 7 6
f 10 11 12
f 13 2 1
f 13 10 12
f 14 8 7
f 14 7 15
f 14 15 4
f 14 4 2
f 14 2 13
f 14 13 12
f 14 12 11
f 14 11 8
f 16 6 17
f 16 17 8
f 16 8 11
f 16 11 6
f 18 8 17
f 19 5 8
f 20 4 15
f 20 3 4
f 21 9 6
f 21 6 11
f 21 11 1
f 22 9 23
f 22 23 3
f 22 3 20
f 22 7 9
f 24 3 23
f 24 23 1
f 24 1 3
f 25 10 13
f 25 13 1
f 25 1 11
f 25 11 10
f 26 19 8
f 26 8 18
f 27 6 5
f 28 7 22
f 28 22 20
f 28 20 15
f 28 15 7
f 29 23 21
f 29 21 1
f 29 1 23
f 30 9 21
f 30 21 23
f 30 23 9
f 31 26 18
f 31 19 26
f 32 33 27
f 32 27 5
f 32 5 33
f 34 6 27
f 34 27 35
f 36 6 37
f 36 37 17
f 36 17 6
f 38 37 6
f 39 17 37
f 39 40 17
f 41 40 42
f 41 18 17
f 43 42 35
f 43 35 27
f 43 27 33
f 44 6 34
f 44 34 35
f 45 38 6
f 45 6 44
f 45 44 35
f 46 37 38
f 46 42 40
f 47 40 41
f 47 41 17
f 48 33 5
f 48 5 19
f 48 19 31
f 49 41 42
f 49 43 33
f 50 46 40
f 50 40 39
f 50 39 37
f 51 42 46
f 51 45 35
f 51 35 42
f 52 51 46
f 52 38 45
f 53 40 47
f 54 43 49
f 54 49 42
f 54 42 43
f 55 41 49
f 56 55 49
f 57 56 49
f 57 33 48
f 58 46 50
f 58 50 37
f 58 37 46
f 59 38 52
f 59 52 46
f 59 46 38
f 60 51 52
f 60 52 45
f 60 45 51
f 61 40 53
f 61 53 17
f 62 17 53
f 62 53 47
f 62 47 17
f 63 41 55
f 63 18 41
f 64 18 55
f 64 55 56
f 65 31 18
f 65 18 64
f 65 64 56
f 65 56 31
f 66 56 57
f 66 48 31
f 66 31 56
f 67 33 57
f 67 57 49
f 67 49 33
f 68 40 61
f 68 61 17
f 68 17 40
f 69 18 63
f 69 63 55
f 69 55 18
f 70 48 66
f 70 66 57
f 70 57 48
