# Normalized convex hull collision mesh - generated by scripts/generate-collision-meshes.mjs (units: meters)
v -0.017329 -0.009189 -0.002500
v -0.020260 0.009189 -0.002500
v 0.021149 0.009189 -0.002500
v -0.024473 0.010500 0.001087
v 0.025362 0.010500 0.001087
v 0.025362 0.010500 0.000521
v 0.025500 0.004571 0.001111
v 0.025500 -0.001508 0.001111
v 0.013343 0.010500 -0.000378
v 0.021334 0.008622 -0.002443
v 0.021334 -0.009378 -0.002443
v 0.021149 -0.009189 -0.002500
v -0.021248 -0.010500 -0.000378
v 0.025362 -0.010500 0.001087
v -0.024473 -0.010500 0.000521
v -0.020445 -0.008622 -0.002443
v -0.025500 -0.004618 0.001111
v -0.025500 0.004618 0.001111
v -0.020260 -0.009189 0.001582
v -0.020445 -0.009378 0.001525
v 0.009423 -0.009189 0.001582
v 0.021149 -0.009189 0.001582
v 0.021149 0.009189 0.001582
v 0.006609 0.001483 0.001970
v 0.025362 -0.010500 0.000521
v -0.024473 -0.010500 0.001087
v -0.024473 0.010500 0.000521
v -0.008719 0.009378 -0.002443
v 0.022137 0.010500 -0.000378
v -0.016775 -0.009378 -0.002443
v -0.020445 0.008622 -0.002443
v -0.020260 -0.009189 -0.002500
v 0.021334 -0.009378 0.001525
v -0.011651 0.009378 0.001525
v 0.025500 -0.004574 0.001111
v 0.022137 -0.010500 -0.000378
v -0.025499 -0.004632 0.001111
v -0.025304 -0.004547 0.002377
v -0.025304 -0.004381 0.002456
v -0.025304 -0.004456 0.002434
v -0.025499 0.004632 0.001111
v -0.025304 0.004547 0.002377
v -0.021248 0.010500 -0.000378
v 0.021334 0.009378 -0.002443
v -0.020445 -0.009378 -0.002443
v -0.015263 0.004087 0.002487
v -0.023556 -0.002929 0.002500
v -0.015263 -0.002551 0.002487
v 0.006609 -0.001270 0.001970
v 0.021334 0.009378 0.001525
v -0.020260 0.009189 0.001582
v -0.025304 0.004292 0.002473
v -0.025304 -0.004512 0.002407
v -0.015263 -0.004292 0.002473
v -0.015263 -0.004192 0.002484
v -0.025304 -0.004192 0.002484
v -0.025304 0.004512 0.002407
v -0.025304 0.004456 0.002434
v -0.025304 0.004381 0.002456
v -0.020445 0.009378 -0.002443
v -0.025304 -0.004087 0.002487
v -0.025304 0.004087 0.002487
v -0.015263 0.004292 0.002473
v -0.023556 -0.002339 0.002500
v 0.006591 -0.001252 0.001971
v -0.015263 -0.004087 0.002487
v -0.020445 0.009378 0.001525
v -0.025304 -0.004292 0.002473
v -0.023556 0.002929 0.002500
v -0.025304 0.004192 0.002484
v 0.006591 0.001465 0.001971
v -0.015263 0.004192 0.002484
f 1 2 3
f 4 5 6
f 7 8 6
f 7 6 5
f 9 4 6
f 10 6 11
f 10 11 3
f 12 11 1
f 12 1 3
f 12 3 11
f 13 14 15
f 16 17 18
f 19 20 21
f 22 21 20
f 22 8 7
f 23 24 22
f 23 22 7
f 23 7 5
f 25 6 8
f 25 14 13
f 25 11 6
f 26 15 14
f 26 14 20
f 26 20 19
f 27 4 9
f 28 3 2
f 29 28 9
f 29 9 6
f 30 11 13
f 30 1 11
f 31 2 16
f 31 16 18
f 32 1 30
f 32 16 2
f 32 2 1
f 33 14 22
f 33 22 20
f 33 20 14
f 34 5 4
f 35 14 25
f 35 25 8
f 35 8 22
f 35 22 14
f 36 11 25
f 36 25 13
f 36 13 11
f 37 17 15
f 37 15 26
f 37 26 38
f 39 17 40
f 39 40 26
f 39 26 19
f 41 4 27
f 41 27 18
f 41 42 4
f 43 27 9
f 43 9 28
f 44 28 29
f 44 29 6
f 44 6 10
f 44 10 3
f 44 3 28
f 45 13 15
f 45 15 17
f 45 17 16
f 45 16 32
f 45 32 30
f 45 30 13
f 46 47 48
f 46 24 23
f 49 22 24
f 50 5 34
f 50 34 23
f 50 23 5
f 51 52 23
f 51 23 34
f 53 40 17
f 53 17 37
f 53 37 38
f 53 38 26
f 53 26 40
f 54 21 22
f 54 22 55
f 54 55 56
f 54 19 21
f 57 42 41
f 57 41 18
f 57 18 58
f 57 58 4
f 57 4 42
f 59 52 51
f 59 51 4
f 59 4 58
f 59 58 18
f 59 18 52
f 60 2 31
f 60 31 18
f 60 18 27
f 60 27 43
f 60 43 28
f 60 28 2
f 61 56 55
f 61 18 17
f 61 17 56
f 62 18 61
f 62 61 47
f 63 23 52
f 64 47 46
f 64 62 47
f 65 49 24
f 65 46 48
f 66 55 22
f 66 22 49
f 66 49 65
f 66 65 48
f 66 48 47
f 66 47 61
f 66 61 55
f 67 4 51
f 67 51 34
f 67 34 4
f 68 39 19
f 68 19 54
f 68 54 56
f 68 56 17
f 68 17 39
f 69 46 62
f 69 62 64
f 69 64 46
f 70 52 18
f 70 18 62
f 70 62 46
f 70 63 52
f 71 46 65
f 71 65 24
f 71 24 46
f 72 63 70
f 72 70 46
f 72 46 23
f 72 23 63
