# Convex hull collision mesh — generated by scripts/generate-collision-meshes.mjs
v 20.000000 11.500000 -0.470000
v -5.500000 25.500000 -11.500000
v -5.500000 25.500000 11.500000
v -20.500000 25.500000 -11.500000
v 1.960000 11.500000 -19.500000
v 4.320000 -2.500000 -17.100000
v -21.500000 0.000000 -21.500000
v 21.500000 0.000000 -21.500000
v 21.500000 0.000000 21.500000
v 21.500000 1.000000 21.500000
v -21.500000 1.000000 21.500000
v 20.000000 11.500000 14.630000
v 21.000000 7.500000 -0.470000
v -21.500000 1.000000 -21.500000
v -20.500000 25.500000 11.500000
v 1.960000 11.500000 19.500000
v 17.600000 -2.500000 1.900000
v 9.400000 -2.500000 17.100000
v -21.500000 0.000000 21.500000
v -8.100000 -2.000000 7.630000
v -8.100000 -2.000000 -7.810000
v 4.320000 -2.500000 17.100000
v 1.960000 7.500000 20.500000
v 21.500000 1.000000 -21.500000
v 11.960000 7.500000 -20.500000
v 18.750000 9.150000 -14.750000
v 18.600000 9.300000 -14.600000
v 11.960000 11.500000 19.500000
v 21.000000 7.500000 14.630000
v 11.960000 11.500000 -19.500000
v 1.960000 7.500000 -20.500000
v 18.600000 -1.700000 -14.600000
v 17.600000 -2.500000 12.260000
v 11.960000 7.500000 20.500000
v 9.600000 -2.500000 -17.100000
v 9.600000 -2.500000 17.100000
f 1 2 3
f 4 2 5
f 4 3 2
f 6 7 8
f 9 8 10
f 9 10 11
f 12 1 3
f 13 1 12
f 14 7 11
f 14 11 4
f 14 4 5
f 14 8 7
f 15 3 4
f 15 4 11
f 15 11 16
f 15 16 3
f 17 18 6
f 17 8 9
f 19 18 9
f 19 9 11
f 19 11 7
f 19 7 20
f 21 6 20
f 21 20 7
f 21 7 6
f 22 18 19
f 22 19 20
f 22 20 6
f 22 6 18
f 23 16 11
f 23 11 10
f 24 8 14
f 24 14 25
f 24 26 1
f 24 1 13
f 24 13 10
f 24 10 8
f 27 1 26
f 27 26 2
f 27 2 1
f 28 16 23
f 28 10 12
f 28 12 3
f 28 3 16
f 29 10 13
f 29 13 12
f 29 12 10
f 30 2 26
f 30 26 24
f 30 24 25
f 30 25 5
f 30 5 2
f 31 25 14
f 31 14 5
f 31 5 25
f 32 8 17
f 33 18 17
f 33 17 9
f 34 10 28
f 34 28 23
f 34 23 10
f 35 6 8
f 35 8 32
f 35 32 17
f 35 17 6
f 36 18 33
f 36 33 9
f 36 9 18
