# Convex hull collision mesh — generated by scripts/generate-collision-meshes.mjs
v 26.340000 35.560001 0.000000
v 26.340000 35.560001 -1.075017
v 0.000000 35.560001 -1.075017
v 26.340000 0.000000 -1.075017
v 26.340000 0.000000 0.000000
v 18.351984 2.062439 1.246800
v 0.000000 0.000000 0.000000
v 16.579540 34.143311 8.890000
v 16.129541 34.343311 8.490000
v 8.709585 34.143311 8.890000
v 16.329540 33.893311 8.890000
v 8.709585 33.893311 8.890000
v 0.000000 0.000000 -1.075017
v 16.329540 33.893311 -3.048000
v 16.329540 34.143311 -3.048000
v 16.579540 33.893311 -3.048000
v 16.779541 34.343311 8.490000
v 7.818585 35.288311 2.540000
v 16.579540 33.893311 8.890000
v 18.122362 2.062439 1.246800
v 0.723125 12.824708 1.181153
v 0.786643 27.578499 1.456496
v 8.709585 33.893311 -3.048000
v 16.579540 34.143311 -3.048000
v 0.000000 35.560001 0.000000
v 0.768171 27.580318 1.431882
v 0.775964 27.579552 1.445119
v 11.699585 34.343311 8.490000
v 17.470541 35.288311 2.540000
v 18.574934 2.117392 1.246800
v 0.768957 27.355772 1.433572
v 8.709585 34.143311 -3.048000
v 8.509585 34.343311 8.490000
v 0.770063 27.131411 1.435769
v 0.778728 27.132265 1.448582
v 0.790106 27.133385 1.459261
v 0.777297 27.355772 1.446844
v 0.716184 12.817767 1.172239
v 0.788381 27.355772 1.457928
f 1 2 3
f 1 4 2
f 5 6 7
f 5 7 4
f 5 4 1
f 5 1 8
f 9 10 8
f 11 8 10
f 12 6 11
f 12 11 10
f 13 7 3
f 13 14 4
f 13 4 7
f 15 3 2
f 16 4 14
f 16 14 15
f 16 2 4
f 17 18 9
f 17 9 8
f 17 8 1
f 19 5 8
f 19 8 11
f 19 11 6
f 20 6 12
f 20 12 7
f 20 7 6
f 21 7 12
f 22 12 10
f 23 14 13
f 23 13 3
f 23 15 14
f 24 2 16
f 24 16 15
f 24 15 2
f 25 18 1
f 25 1 3
f 25 3 7
f 25 26 27
f 25 27 22
f 25 22 10
f 28 9 18
f 28 10 9
f 29 18 17
f 29 17 1
f 29 1 18
f 30 5 19
f 30 19 6
f 30 6 5
f 31 27 26
f 31 26 25
f 32 15 23
f 32 23 3
f 32 3 15
f 33 25 10
f 33 10 28
f 33 28 18
f 33 18 25
f 34 31 25
f 34 25 7
f 34 7 35
f 34 27 31
f 36 35 21
f 36 21 12
f 37 27 34
f 37 34 35
f 37 35 22
f 37 22 27
f 38 21 35
f 38 35 7
f 38 7 21
f 39 22 35
f 39 35 36
f 39 36 12
f 39 12 22
