# Convex hull collision mesh — generated by scripts/generate-collision-meshes.mjs
v -4.750000 -4.000000 -8.600000
v 8.500000 -6.000000 -1.000000
v -8.500000 -6.000000 -1.000000
v 13.590000 2.500000 0.000000
v 13.590000 -2.500000 0.000000
v 13.590000 -2.500000 -4.000000
v 7.361260 -3.987464 3.000000
v -5.219304 3.963065 3.000000
v -7.423019 -2.361972 3.000000
v 7.250000 -4.000000 -8.600000
v 7.361260 -3.987464 -8.600000
v 3.490739 -2.097111 -13.578066
v -3.439101 -2.093797 -13.596043
v -7.603169 1.927051 3.000000
v -8.500000 6.000000 0.000000
v 8.500000 6.000000 0.000000
v -8.500000 6.000000 -1.000000
v -12.664025 3.885819 -4.000000
v 7.466942 3.950485 -8.600000
v 7.361260 3.987464 -8.600000
v 12.664025 3.885819 -4.000000
v 8.500000 6.000000 -1.000000
v -4.750000 4.000000 -8.600000
v 13.150661 3.560660 -4.000000
v 13.337204 3.333355 0.000000
v 13.337204 3.333355 -4.000000
v 13.475820 3.074025 -4.000000
v 7.250000 4.000000 -8.600000
v 3.439101 2.093797 -13.596043
v -12.382635 3.971178 -4.000000
v -3.529758 2.098819 -13.552167
v -13.590000 -2.500000 -4.000000
v -13.590000 2.500000 -4.000000
v 12.382635 -3.971178 -4.000000
v 12.664025 -3.885819 -4.000000
v -5.219304 -3.963065 3.000000
v 7.750000 3.500000 3.000000
v 8.500000 -6.000000 0.000000
v -8.500000 -6.000000 0.000000
v -12.664025 -3.885819 -4.000000
v -12.382635 -3.971178 -4.000000
v -5.677051 -3.853169 -8.600000
v -3.517546 -2.098361 -13.561724
v -3.476578 -2.096319 -13.584570
v 3.446740 -2.094364 -13.594348
v -7.750000 -1.000000 3.000000
v -6.871320 3.121320 3.000000
v 3.517546 2.098361 -13.561724
v 7.640916 3.811745 -8.600000
v 3.529604 1.373188 -13.552296
v 3.529758 -2.098819 -13.552167
v 3.490547 1.370568 -13.578152
v 12.382635 3.971178 -4.000000
v 7.561745 3.890916 -8.600000
v 13.150661 3.560660 0.000000
v 12.923355 3.747204 0.000000
v 12.664025 3.885819 0.000000
v 13.590000 2.500000 -4.000000
v 13.475820 3.074025 0.000000
v -3.446740 2.094364 -13.594348
v -3.529604 -1.373188 -13.552296
v -5.677051 3.853169 -8.600000
v -3.490739 2.097111 -13.578066
v 7.561745 -3.890916 3.000000
v 7.466942 -3.950485 -8.600000
v -4.750000 4.000000 3.000000
v -3.551987 -2.099455 -13.529969
v -4.750000 -4.000000 3.000000
v -13.590000 -2.500000 0.000000
v -13.337204 -3.333355 -4.000000
v -13.475820 -3.074025 -4.000000
v -13.150661 -3.560660 -4.000000
v -6.111971 -3.673020 3.000000
v -12.923355 -3.747204 -4.000000
v -12.923355 -3.747204 0.000000
v -12.664025 -3.885819 0.000000
v -5.219304 -3.963065 -8.600000
v -3.020038 -2.018327 -13.600000
v -2.659746 1.877744 -13.600000
v 3.020038 -2.018327 -13.600000
v 3.020038 2.018327 -13.600000
v 3.400000 -2.090455 -13.600000
v 3.476390 -1.369354 -13.584635
v -7.750000 1.000000 3.000000
v -7.177051 2.763356 3.000000
v -13.150661 3.560660 0.000000
v -6.111971 3.673020 3.000000
v 3.476578 2.096319 -13.584570
v 3.551987 2.099455 -13.529969
v 3.517378 -1.372485 -13.561841
v 12.923355 3.747204 -4.000000
v 7.561745 3.890916 3.000000
v 13.561178 2.792635 0.000000
v -3.446583 -1.366359 -13.594377
v -3.476390 1.369354 -13.584635
v -3.517378 1.372485 -13.561841
v -3.490547 -1.370568 -13.578152
v -13.150661 3.560660 -4.000000
v -13.337204 3.333355 -4.000000
v -13.475820 3.074025 -4.000000
v -13.475820 3.074025 0.000000
v -5.219304 3.963065 -8.600000
v 7.466942 -3.950485 3.000000
v 12.923355 -3.747204 0.000000
v 7.737464 -3.611260 3.000000
v 13.475820 -3.074025 -4.000000
v 13.337204 -3.333355 0.000000
v 13.337204 -3.333355 -4.000000
v 7.561745 -3.890916 -8.600000
v 7.640916 -3.811745 -8.600000
v 13.150661 -3.560660 -4.000000
v 13.150661 -3.560660 0.000000
v 7.250000 -4.000000 3.000000
v -13.475820 -3.074025 0.000000
v -13.561178 -2.792635 -4.000000
v -6.871320 -3.121320 3.000000
v -5.677051 -3.853169 3.000000
v -3.400000 1.360377 -13.600000
v -3.400000 2.090455 -13.600000
v -3.400000 -2.090455 -13.600000
v 3.400000 2.090455 -13.600000
v 3.438962 -1.365491 -13.596063
v -7.713065 1.469303 3.000000
v -13.590000 2.500000 0.000000
v -7.423019 2.361972 3.000000
v -13.337204 3.333355 0.000000
v -5.677051 3.853169 3.000000
v -6.513356 3.427051 3.000000
v -12.664025 3.885819 0.000000
v 3.446583 1.366359 -13.594377
v 13.561178 2.792635 -4.000000
v 7.466942 3.950485 3.000000
v 7.700484 3.716942 3.000000
v -12.923355 3.747204 -4.000000
v -13.561178 2.792635 -4.000000
v 12.664025 -3.885819 0.000000
v 7.640916 -3.811745 3.000000
v 7.750000 -3.500000 3.000000
v 13.475820 -3.074025 0.000000
v 13.561178 -2.792635 -4.000000
v 12.923355 -3.747204 -4.000000
v -7.713065 -1.469303 3.000000
v -13.561178 -2.792635 0.000000
v -13.337204 -3.333355 0.000000
v -6.513356 -3.427051 3.000000
v -3.438962 1.365491 -13.596063
v -13.561178 2.792635 0.000000
v -12.923355 3.747204 0.000000
v 7.250000 4.000000 3.000000
v 7.737464 3.611260 3.000000
v 7.640916 3.811745 3.000000
v 13.561178 -2.792635 0.000000
v 7.700484 -3.716942 3.000000
v -7.603169 -1.927051 3.000000
v -13.150661 -3.560660 0.000000
v -7.177051 -2.763356 3.000000
v 7.361260 3.987464 3.000000
f 1 2 3
f 4 5 6
f 7 8 9
f 10 11 2
f 10 2 1
f 10 12 11
f 13 10 1
f 14 9 8
f 15 16 17
f 15 17 18
f 19 20 21
f 22 16 21
f 22 23 17
f 22 17 16
f 24 25 26
f 27 26 25
f 28 29 23
f 28 23 22
f 28 22 20
f 30 18 17
f 31 32 33
f 34 11 35
f 34 35 2
f 34 2 11
f 36 7 9
f 37 8 7
f 37 5 4
f 38 2 35
f 38 3 2
f 39 3 38
f 40 41 3
f 40 3 39
f 42 41 40
f 42 40 43
f 44 13 1
f 45 10 13
f 45 12 10
f 46 9 14
f 47 14 8
f 48 20 19
f 48 49 24
f 48 24 26
f 48 50 51
f 48 12 52
f 53 20 22
f 53 22 21
f 53 21 20
f 54 24 49
f 54 49 48
f 54 48 19
f 55 24 56
f 55 25 24
f 57 56 21
f 57 21 16
f 58 6 51
f 58 51 50
f 58 4 6
f 59 27 25
f 60 23 29
f 61 32 31
f 61 31 43
f 62 63 31
f 62 31 18
f 62 18 30
f 64 37 7
f 65 11 12
f 65 12 51
f 65 35 11
f 66 8 37
f 66 16 15
f 66 15 8
f 67 32 61
f 67 61 43
f 68 7 36
f 68 36 39
f 68 39 38
f 69 33 32
f 70 71 67
f 70 67 43
f 70 43 72
f 73 36 9
f 74 72 43
f 74 43 40
f 74 40 75
f 74 75 72
f 76 75 40
f 76 40 39
f 76 39 73
f 76 73 75
f 77 3 41
f 77 41 42
f 77 42 43
f 77 43 44
f 77 44 1
f 77 1 3
f 78 79 80
f 81 80 79
f 82 80 81
f 82 45 13
f 82 78 80
f 83 12 45
f 84 69 46
f 84 46 14
f 85 14 47
f 86 85 47
f 87 47 8
f 88 20 48
f 88 48 52
f 88 52 12
f 88 12 83
f 88 83 45
f 88 29 28
f 88 28 20
f 89 58 50
f 89 50 48
f 89 48 26
f 89 26 27
f 90 12 48
f 90 48 51
f 90 51 12
f 91 21 56
f 91 56 24
f 91 24 54
f 91 54 19
f 91 19 21
f 92 55 56
f 92 66 37
f 93 27 59
f 93 37 4
f 93 4 58
f 94 44 60
f 94 60 13
f 94 13 44
f 95 44 63
f 95 63 60
f 95 60 44
f 96 31 63
f 96 63 43
f 96 43 31
f 97 43 63
f 97 63 44
f 97 44 43
f 98 31 99
f 98 99 86
f 100 101 99
f 100 99 31
f 102 17 23
f 102 23 60
f 102 60 63
f 102 63 62
f 102 62 30
f 102 30 17
f 103 104 64
f 103 64 7
f 103 7 38
f 105 37 64
f 106 107 108
f 106 108 51
f 109 65 51
f 109 51 110
f 111 108 107
f 111 109 110
f 111 110 51
f 111 51 108
f 112 64 104
f 112 104 111
f 112 111 107
f 113 7 68
f 113 68 38
f 113 38 7
f 114 71 70
f 115 71 114
f 115 69 32
f 115 32 67
f 115 67 71
f 116 73 9
f 117 36 73
f 117 73 39
f 117 39 36
f 118 79 78
f 119 60 29
f 119 81 79
f 119 79 118
f 120 78 82
f 120 82 13
f 120 118 78
f 121 82 81
f 121 81 119
f 121 119 29
f 122 45 82
f 122 82 121
f 122 121 29
f 122 29 45
f 123 84 14
f 124 69 84
f 124 84 123
f 124 33 69
f 125 14 85
f 125 101 14
f 126 85 86
f 126 86 99
f 126 99 101
f 126 101 125
f 126 125 85
f 127 15 87
f 127 87 8
f 127 8 15
f 128 47 87
f 128 86 47
f 129 87 15
f 129 15 18
f 130 29 88
f 130 88 45
f 130 45 29
f 131 58 89
f 131 89 27
f 131 27 93
f 131 93 58
f 132 57 16
f 132 66 92
f 132 92 56
f 132 56 57
f 133 59 25
f 133 92 37
f 134 18 31
f 134 31 98
f 134 98 86
f 134 129 18
f 135 101 100
f 135 100 31
f 135 31 33
f 135 33 124
f 136 104 103
f 136 103 38
f 136 38 35
f 136 35 104
f 137 105 64
f 137 64 112
f 137 112 107
f 138 37 105
f 138 5 37
f 139 107 106
f 140 6 5
f 140 139 106
f 140 106 51
f 140 51 6
f 141 35 65
f 141 65 109
f 141 109 111
f 141 111 104
f 141 104 35
f 142 46 69
f 142 9 46
f 143 69 115
f 143 115 114
f 143 142 69
f 144 114 70
f 144 70 72
f 144 9 114
f 145 73 116
f 145 75 73
f 146 13 60
f 146 60 119
f 146 119 118
f 146 118 120
f 146 120 13
f 147 101 135
f 147 135 124
f 147 124 123
f 147 123 14
f 147 14 101
f 148 128 87
f 148 87 129
f 148 129 134
f 148 134 86
f 148 86 128
f 149 66 132
f 149 16 66
f 150 93 59
f 150 59 133
f 150 133 37
f 150 37 93
f 151 92 133
f 151 133 25
f 151 25 55
f 151 55 92
f 152 105 139
f 152 139 140
f 152 140 5
f 152 5 138
f 152 138 105
f 153 137 107
f 153 107 139
f 153 139 105
f 153 105 137
f 154 9 142
f 154 142 143
f 154 143 114
f 154 114 9
f 155 75 145
f 155 145 116
f 155 144 72
f 155 72 75
f 156 9 144
f 156 144 155
f 156 155 116
f 156 116 9
f 157 16 149
f 157 149 132
f 157 132 16
