# Normalized convex hull collision mesh - generated by scripts/generate-collision-meshes.mjs (units: meters)
v 0.046541 0.001076 0.027500
v -0.031808 0.023157 0.027500
v -0.046632 0.003462 0.027500
v -0.035203 0.022070 0.027500
v 0.046231 0.000604 -0.027500
v -0.020715 -0.020210 -0.027500
v 0.034471 0.020536 -0.027500
v -0.046470 0.004472 0.027500
v -0.039647 0.043147 0.007500
v -0.039647 0.043147 -0.007500
v -0.031369 0.049980 0.007500
v -0.030318 0.022783 -0.027500
v -0.020715 -0.020210 0.027500
v -0.029637 -0.035073 -0.007500
v -0.016910 -0.050000 0.007500
v -0.029637 -0.035073 0.007500
v -0.038668 -0.022356 0.007500
v 0.025290 -0.035073 -0.007500
v 0.012563 -0.050000 -0.007500
v 0.025290 -0.035073 0.007500
v 0.017728 -0.019891 -0.027500
v 0.033804 0.020825 0.027500
v 0.031363 0.047867 -0.007500
v -0.025821 0.050000 -0.007500
v 0.031363 0.047867 0.007500
v -0.033402 0.023050 0.027500
v -0.034735 0.022486 0.027500
v -0.025821 0.050000 0.007500
v -0.041818 0.005656 -0.027500
v -0.049928 0.004435 -0.007500
v -0.031369 0.049980 -0.007500
v 0.032246 0.021064 -0.027500
v 0.017728 -0.019891 0.027500
v -0.049737 0.002551 -0.007500
v -0.049737 0.002551 0.007500
v -0.050000 0.003486 -0.007500
v -0.016910 -0.050000 -0.007500
v 0.039643 0.041034 0.007500
v 0.033750 -0.023240 0.007500
v 0.016212 -0.020221 -0.027500
v 0.018349 -0.019564 -0.027500
v 0.046328 0.002573 -0.027500
v -0.032615 0.023165 0.027500
v -0.034122 0.022820 0.027500
v 0.032246 0.021064 0.027500
v -0.046648 0.003973 -0.027500
v 0.033804 0.020825 -0.027500
v 0.016212 -0.020221 0.027500
v -0.039009 -0.021708 0.022500
v -0.023249 -0.019066 0.027500
v 0.012563 -0.050000 0.007500
v 0.033278 -0.023853 0.022500
v 0.005843 -0.041476 0.023500
v 0.045132 -0.000135 0.027500
v -0.046648 0.003973 0.027500
v -0.049928 0.004435 0.007500
v 0.046328 0.002573 0.027500
v 0.035008 0.020155 0.027500
v 0.048071 0.000083 0.022500
v 0.049737 0.000439 0.007500
v 0.048524 0.000849 0.022500
v 0.049928 0.002323 0.007500
v 0.050000 0.001374 -0.007500
v 0.049928 0.002323 -0.007500
v 0.049151 -0.000435 -0.007500
v 0.033750 -0.023240 0.022500
v 0.017002 -0.020115 -0.027500
v -0.019907 -0.020218 -0.027500
v 0.045752 0.000192 -0.027500
v 0.039643 0.041034 -0.007500
v 0.047676 0.000555 -0.022500
v 0.033048 0.021004 0.027500
v -0.047863 0.004483 -0.022500
v -0.047865 0.003041 -0.022500
v -0.022801 -0.019491 -0.027500
v -0.035203 0.022070 -0.027500
v 0.033048 0.021004 -0.027500
v 0.017002 -0.020115 0.027500
v 0.011172 -0.041261 0.023500
v -0.019907 -0.020218 0.027500
v 0.001058 -0.039975 0.023500
v -0.029499 -0.029048 0.022500
v -0.048645 0.003403 0.022500
v -0.036900 -0.024658 0.022500
v -0.038668 -0.022356 0.022500
v -0.039009 -0.021708 0.007500
v 0.010293 -0.041421 0.023500
v 0.031045 -0.025988 0.022500
v 0.015617 -0.039388 0.023500
v 0.046663 0.001581 0.027500
v 0.034471 0.020536 0.027500
v 0.035387 0.019703 0.027500
v 0.048513 0.002473 0.022500
v 0.050000 0.001374 0.007500
v 0.033599 -0.023446 0.022500
v 0.049151 -0.000435 0.007500
v 0.035387 0.019703 -0.027500
v 0.046591 0.002090 -0.027500
v 0.049737 0.000439 -0.007500
v -0.048004 0.003762 -0.022500
v -0.022205 -0.019836 -0.027500
v -0.046034 0.002520 -0.027500
v -0.033402 0.023050 -0.027500
v -0.034735 0.022486 -0.027500
v -0.046470 0.004472 -0.027500
v 0.004955 -0.041337 0.023500
v -0.048624 0.004220 0.022500
v -0.048355 0.002606 0.022500
v -0.050000 0.003486 0.007500
v -0.046034 0.002520 0.027500
v -0.038902 -0.021925 0.022500
v -0.032849 -0.027614 0.022500
v -0.033122 -0.027466 0.022500
v -0.033656 -0.027161 0.022500
v -0.036305 -0.025228 0.022500
v 0.010588 -0.041373 0.023500
v 0.046231 0.000604 0.027500
v 0.014983 -0.039805 0.023500
v 0.046591 0.002090 0.027500
v 0.048674 0.001661 0.022500
v 0.035008 0.020155 -0.027500
v 0.047974 0.001985 -0.022500
v 0.046541 0.001076 -0.027500
v -0.021496 -0.020080 -0.027500
v -0.046423 0.002968 -0.027500
v -0.032615 0.023165 -0.027500
v -0.034122 0.022820 -0.027500
v 0.005249 -0.041389 0.023500
v -0.046423 0.002968 0.027500
v -0.036707 -0.024850 0.022500
v -0.038788 -0.022141 0.022500
v -0.038902 -0.021925 0.007500
v -0.022205 -0.019836 0.027500
v -0.033391 -0.027316 0.022500
v 0.010881 -0.041320 0.023500
v 0.018349 -0.019564 0.027500
v 0.033441 -0.023651 0.022500
v 0.015201 -0.039670 0.023500
v 0.047964 0.001258 -0.022500
v -0.046632 0.003462 -0.027500
v -0.031808 0.023157 -0.027500
v 0.005545 -0.041435 0.023500
v -0.036509 -0.025040 0.022500
v -0.038788 -0.022141 0.007500
v -0.021496 -0.020080 0.027500
v -0.022801 -0.019491 0.027500
v 0.045752 0.000192 0.027500
v 0.015412 -0.039531 0.023500
v 0.046663 0.001581 -0.027500
f 1 2 3
f 4 3 2
f 5 6 7
f 8 4 9
f 8 3 4
f 10 9 11
f 12 7 6
f 13 1 3
f 14 15 16
f 14 16 17
f 18 19 5
f 18 20 19
f 21 6 5
f 22 2 1
f 23 24 25
f 26 4 2
f 27 4 26
f 27 11 9
f 27 9 4
f 28 25 24
f 28 24 11
f 29 12 6
f 30 9 10
f 31 10 11
f 31 11 24
f 32 7 12
f 32 24 23
f 33 1 13
f 34 35 36
f 37 19 15
f 37 15 14
f 38 23 25
f 39 20 18
f 40 6 21
f 40 19 37
f 41 19 21
f 41 21 5
f 42 5 7
f 43 11 26
f 43 26 2
f 43 2 28
f 43 28 11
f 44 11 27
f 44 27 26
f 44 26 11
f 45 25 28
f 45 28 2
f 45 2 22
f 46 12 29
f 46 29 6
f 47 7 32
f 47 23 7
f 48 33 13
f 49 35 34
f 50 13 3
f 51 15 19
f 51 19 20
f 51 20 52
f 51 53 15
f 54 1 33
f 55 3 8
f 56 9 30
f 56 30 36
f 57 22 1
f 58 22 57
f 58 38 25
f 59 60 61
f 59 61 1
f 62 63 64
f 62 64 38
f 65 39 18
f 66 20 39
f 66 39 65
f 66 60 59
f 66 59 1
f 67 19 40
f 67 40 21
f 67 21 19
f 68 6 40
f 68 40 37
f 68 37 6
f 69 19 41
f 69 41 5
f 69 5 19
f 70 23 38
f 70 38 64
f 71 65 18
f 71 18 5
f 72 25 45
f 72 45 22
f 72 22 25
f 73 30 10
f 73 10 46
f 74 34 36
f 75 46 6
f 76 12 46
f 77 23 47
f 77 47 32
f 77 32 23
f 78 33 48
f 78 79 33
f 80 53 48
f 80 48 13
f 80 13 53
f 81 82 15
f 83 3 55
f 84 16 15
f 85 16 84
f 85 17 16
f 86 49 34
f 87 53 51
f 87 78 48
f 87 48 53
f 88 51 52
f 89 51 88
f 89 88 52
f 90 57 1
f 90 1 61
f 91 22 58
f 91 58 25
f 91 25 22
f 92 38 58
f 92 58 57
f 92 57 38
f 93 62 38
f 94 60 63
f 94 63 62
f 94 61 60
f 95 20 66
f 96 60 66
f 96 66 65
f 96 65 60
f 97 70 42
f 97 42 7
f 98 42 70
f 98 5 42
f 99 65 71
f 99 63 60
f 99 60 65
f 100 73 46
f 100 74 36
f 100 36 30
f 100 30 73
f 101 37 75
f 101 75 6
f 102 46 75
f 102 75 37
f 103 12 76
f 103 32 12
f 104 103 76
f 104 76 10
f 104 10 31
f 105 10 76
f 105 76 46
f 105 46 10
f 106 81 15
f 107 8 9
f 107 9 56
f 107 83 55
f 107 55 8
f 108 49 3
f 108 3 83
f 108 83 35
f 108 35 49
f 109 35 83
f 109 83 107
f 109 107 56
f 109 56 36
f 109 36 35
f 110 50 3
f 111 49 86
f 112 113 15
f 112 15 82
f 112 82 81
f 114 115 15
f 116 78 87
f 116 87 51
f 117 1 54
f 117 54 33
f 117 89 52
f 117 95 66
f 117 66 1
f 118 33 79
f 118 79 51
f 119 57 90
f 119 93 38
f 119 38 57
f 120 93 119
f 120 119 90
f 120 90 61
f 120 61 94
f 120 94 62
f 120 62 93
f 121 70 97
f 121 97 7
f 121 7 23
f 121 23 70
f 122 64 63
f 122 98 70
f 122 70 64
f 123 5 98
f 123 71 5
f 124 37 101
f 124 101 6
f 124 6 37
f 125 14 74
f 125 46 102
f 125 102 37
f 125 37 14
f 126 32 103
f 126 103 31
f 126 31 24
f 127 103 104
f 127 104 31
f 127 31 103
f 128 106 15
f 129 85 84
f 129 84 110
f 129 110 3
f 129 3 49
f 129 49 111
f 130 110 84
f 130 84 15
f 131 85 129
f 131 129 111
f 131 17 85
f 132 131 111
f 132 111 86
f 132 86 34
f 133 13 50
f 133 113 112
f 133 112 81
f 133 81 106
f 134 113 133
f 134 114 15
f 134 15 113
f 135 78 116
f 135 116 51
f 135 51 79
f 135 79 78
f 136 117 33
f 136 33 118
f 137 95 117
f 137 117 52
f 137 52 20
f 137 20 95
f 138 136 118
f 138 118 51
f 139 71 123
f 139 122 63
f 139 63 99
f 139 99 71
f 140 46 125
f 140 125 74
f 140 74 100
f 140 100 46
f 141 32 126
f 141 126 24
f 141 24 32
f 142 53 13
f 142 13 128
f 142 128 15
f 142 15 53
f 143 110 130
f 143 130 15
f 143 15 115
f 144 131 132
f 144 132 34
f 144 34 74
f 144 74 14
f 144 14 17
f 144 17 131
f 145 13 133
f 145 133 106
f 145 106 128
f 145 128 13
f 146 115 114
f 146 114 134
f 146 134 133
f 146 133 50
f 146 50 110
f 146 110 143
f 146 143 115
f 147 117 136
f 147 136 89
f 147 89 117
f 148 136 138
f 148 138 51
f 148 51 89
f 148 89 136
f 149 98 122
f 149 122 139
f 149 139 123
f 149 123 98
