# Normalized convex hull collision mesh - generated by scripts/generate-collision-meshes.mjs (units: meters)
v 0.002914 -0.060000 0.014902
v -0.009775 -0.060000 0.007683
v 0.011293 -0.060000 0.003287
v -0.004653 -0.060000 -0.013959
v -0.046797 0.058834 -0.034089
v -0.046797 0.059012 -0.033974
v 0.049924 0.058493 -0.008834
v 0.036862 -0.041330 -0.017561
v 0.059555 0.034834 -0.006234
v 0.059555 0.034834 0.006234
v -0.053184 0.015368 -0.019010
v -0.053061 0.015000 -0.031478
v -0.053061 0.015000 -0.019010
v -0.053061 0.015000 0.031478
v -0.059555 0.035188 -0.019010
v 0.008333 -0.060000 0.010697
v 0.007292 -0.060000 -0.011971
v -0.010402 -0.060000 -0.005989
v -0.010327 -0.020127 0.045000
v -0.024110 -0.021561 0.045000
v -0.011462 -0.028491 0.045000
v 0.028840 -0.027615 0.037941
v 0.029477 -0.028425 0.036985
v 0.060000 0.037277 0.006234
v 0.059674 0.035255 0.006234
v 0.036862 -0.041330 0.017561
v 0.026356 -0.052164 -0.012532
v 0.036862 -0.041244 0.018421
v -0.059330 0.034834 0.031478
v -0.060000 0.037631 -0.019010
v -0.059775 0.037277 0.031478
v -0.059976 0.038291 -0.019010
v -0.060000 0.037631 -0.031478
v -0.028861 -0.050586 -0.002020
v -0.028723 -0.050950 0.000148
v -0.003340 -0.060000 0.014643
v 0.004904 -0.060000 0.013959
v 0.009655 -0.060000 0.008488
v 0.010908 -0.060000 -0.005107
v 0.036862 -0.040587 0.019945
v 0.036862 -0.040055 0.020520
v 0.036258 -0.040485 0.020820
v 0.027648 -0.029996 0.038609
v 0.017192 -0.050509 0.032415
v 0.019594 -0.050755 0.030008
v 0.027960 -0.028420 0.038870
v 0.027179 -0.027627 0.039678
v -0.046797 0.058639 -0.034152
v 0.023474 -0.018548 -0.041513
v 0.021802 -0.018548 -0.041841
v 0.021811 -0.019332 -0.042009
v 0.036862 -0.039425 0.020923
v 0.021814 -0.027920 -0.042065
v 0.023503 -0.027790 -0.041734
v 0.021963 -0.028891 -0.041964
v -0.008082 -0.060000 -0.010697
v 0.001530 -0.060000 -0.015249
v -0.027548 -0.030477 -0.043468
v -0.028735 -0.029733 -0.042841
v -0.026817 -0.028977 -0.044320
v -0.059555 0.035188 -0.031478
v -0.059449 0.035255 0.031478
v -0.029307 -0.030388 0.041986
v -0.028760 -0.030418 0.042543
v -0.059751 0.037937 0.031478
v -0.059816 0.038927 -0.019010
v -0.059816 0.038927 -0.031478
v -0.059591 0.038573 0.031478
v -0.059674 0.035609 -0.019010
v -0.007042 -0.060000 0.011971
v 0.006731 -0.060000 0.012542
v 0.010653 -0.060000 0.005989
v 0.026356 -0.052164 0.012532
v 0.025861 -0.052507 0.012532
v 0.011552 -0.060000 0.000473
v 0.025819 -0.052520 0.013076
v -0.011171 -0.060000 0.002357
v 0.024801 -0.051792 0.020280
v 0.025658 -0.051457 0.018802
v 0.021479 -0.052569 0.024197
v 0.020514 -0.052567 0.025639
v 0.036862 -0.040992 0.019232
v 0.022778 -0.051891 0.024233
v 0.023713 -0.051638 0.023045
v 0.021809 -0.051896 0.025781
v 0.021865 -0.050893 0.027127
v 0.018922 -0.051555 0.029894
v 0.019683 -0.051599 0.029026
v 0.025990 -0.030828 0.039494
v 0.025792 -0.030884 0.039608
v 0.028473 -0.029996 0.037687
v 0.028376 -0.029218 0.038190
v 0.026073 -0.034377 0.036671
v 0.008490 -0.050668 0.037403
v 0.011571 -0.050676 0.036050
v 0.023770 -0.029855 0.041244
v 0.006501 -0.049868 0.038364
v 0.024258 -0.030842 0.040525
v 0.013047 -0.051063 0.034969
v 0.022990 -0.029189 0.041703
v 0.023488 -0.029349 0.041516
v 0.023693 -0.027777 0.041675
v 0.021963 -0.028891 0.041964
v 0.026103 -0.030347 0.039713
v 0.024038 -0.029343 0.041321
v -0.055410 0.044734 0.035868
v -0.047388 0.048508 0.035826
v -0.047388 0.048341 0.035849
v -0.046572 0.048508 0.035826
v -0.010327 -0.019332 0.044944
v -0.024110 -0.028104 0.045000
v -0.046572 0.058285 0.034152
v 0.027487 -0.028823 0.039246
v 0.026525 -0.028826 0.040058
v 0.029122 -0.028821 0.037388
v 0.054098 0.048479 0.010582
v 0.059816 0.038573 0.006234
v 0.050010 0.058286 0.008903
v 0.027187 -0.020127 0.039672
v 0.050010 0.058286 -0.008903
v 0.059816 0.038573 -0.006234
v 0.054098 0.048479 -0.010582
v 0.060000 0.037277 -0.006234
v 0.029054 -0.028421 -0.037582
v 0.028549 -0.027614 -0.038295
v 0.027187 -0.020127 -0.039672
v 0.055650 0.044522 -0.010624
v -0.049443 0.060000 -0.023049
v -0.059976 0.038291 -0.031478
v -0.055635 0.045088 -0.035868
v -0.047613 0.058639 -0.034152
v -0.008507 -0.019332 -0.044858
v -0.009113 -0.019332 -0.044906
v -0.008504 -0.020127 -0.044914
v -0.046797 0.048862 -0.035826
v 0.030341 -0.028445 -0.035532
v 0.036862 -0.039425 -0.020923
v 0.029483 -0.029219 -0.036719
v 0.029743 -0.028828 0.036465
v 0.026656 -0.051738 -0.014293
v 0.005708 -0.050613 -0.038291
v 0.004838 -0.049845 -0.038781
v 0.006556 -0.050374 -0.038180
v 0.002650 -0.028714 -0.043866
v -0.008504 -0.028615 -0.044914
v 0.021814 -0.020127 -0.042065
v 0.023696 -0.020127 -0.041674
v 0.006038 -0.030066 -0.043369
v 0.001614 -0.049857 -0.039262
v 0.000500 -0.029998 -0.043924
v 0.021803 -0.029368 -0.041881
v 0.022099 -0.029841 -0.041692
v -0.006480 -0.060000 -0.012542
v -0.000578 -0.060000 -0.015337
v -0.000313 -0.052435 -0.036950
v -0.053184 0.015368 -0.031478
v -0.029429 -0.041274 -0.031271
v -0.028804 -0.042449 -0.032160
v -0.027921 -0.050487 -0.012845
v -0.052297 0.013158 -0.031478
v 0.000829 -0.060000 0.015337
v -0.008556 -0.060000 0.009997
v -0.020585 -0.052580 0.026665
v 0.005836 -0.052544 0.035783
v 0.005031 -0.052428 0.036311
v 0.009377 -0.052602 0.034343
v 0.011571 -0.052328 0.034074
v 0.018885 -0.052661 0.027200
v 0.019603 -0.052260 0.027850
v 0.015001 -0.052501 0.031415
v 0.016454 -0.052643 0.029690
v 0.016811 -0.052176 0.030814
v 0.014228 -0.052550 0.031808
v 0.024639 -0.052637 0.016613
v 0.024753 -0.052635 0.016264
v 0.026770 -0.051668 0.013597
v 0.026486 -0.051706 0.015369
v 0.026017 -0.052262 0.014610
v 0.026031 -0.052376 0.013524
v 0.025597 -0.052145 0.016726
v 0.024648 -0.052209 0.019287
v 0.025425 -0.052648 0.013655
v -0.010338 -0.029086 0.044971
v -0.008504 -0.028615 0.044914
v -0.008504 -0.020127 0.044914
v -0.009111 -0.020127 0.044962
v 0.001534 -0.028725 0.043971
v -0.002825 -0.030007 0.044232
v 0.002715 -0.030012 0.043708
v 0.007154 -0.029365 0.043394
v -0.008570 -0.029625 0.044829
v 0.000408 -0.039924 0.041654
v -0.000281 -0.049898 0.039347
v -0.024126 -0.029764 0.044751
v -0.003788 -0.050040 0.039116
v 0.003288 -0.049842 0.039065
v 0.003806 -0.050975 0.038472
v 0.011571 -0.050799 -0.035973
v 0.024838 -0.030860 -0.040219
v 0.013420 -0.050182 -0.035261
v 0.024135 -0.029856 -0.041099
v 0.010026 -0.060000 -0.007683
v 0.011422 -0.060000 -0.002357
v -0.028407 -0.050219 0.010084
v -0.029429 -0.041274 0.031271
v -0.028638 -0.050983 -0.003470
v -0.028266 -0.051123 -0.007907
v 0.023389 -0.052263 0.022026
v 0.022602 -0.052279 0.023479
v 0.021181 -0.052283 0.025745
v 0.014609 -0.051276 0.033789
v 0.020767 -0.051880 0.027264
v 0.020757 -0.050843 0.028617
v 0.018493 -0.052231 0.029129
v 0.025821 -0.029978 0.040137
v 0.021803 -0.029368 0.041881
v 0.016583 -0.029360 0.042445
v 0.026760 -0.029990 0.039430
v -0.054988 0.038640 0.035868
v -0.055425 0.044522 0.035868
v -0.053874 0.048479 0.035826
v -0.046572 0.048341 0.035849
v -0.028887 -0.041274 0.034099
v -0.027966 -0.043619 0.032697
v -0.027959 -0.042449 0.034571
v -0.028556 -0.043619 0.030070
v -0.024995 -0.029766 0.044690
v -0.024118 -0.028940 0.044937
v -0.024896 -0.030557 0.044400
v -0.025163 -0.028123 0.044908
v 0.011571 -0.020127 0.043028
v -0.008507 -0.019332 0.044858
v 0.021814 -0.027920 0.042065
v 0.021814 -0.020127 0.042065
v 0.021811 -0.019332 0.042009
v 0.026203 -0.028439 0.040368
v 0.025492 -0.027681 0.040876
v 0.025070 -0.028469 0.041048
v 0.028297 -0.028820 0.038414
v 0.029227 -0.029992 0.036676
v 0.059976 0.037937 0.006234
v 0.049443 0.059646 0.002195
v 0.054307 0.047978 0.010624
v 0.025090 -0.018548 0.040853
v 0.055650 0.044522 0.010624
v 0.059976 0.037937 -0.006234
v 0.059674 0.035255 -0.006234
v 0.036862 -0.040055 -0.020520
v 0.054307 0.047978 -0.010624
v -0.049526 0.059800 -0.019723
v -0.046797 0.059354 -0.033382
v 0.049724 0.058972 -0.008239
v -0.046797 0.059279 -0.033610
v 0.049781 0.058835 -0.008527
v -0.046797 0.059163 -0.033811
v -0.047613 0.058834 -0.034089
v -0.028017 -0.028237 -0.043663
v -0.055212 0.038994 -0.035868
v -0.055650 0.044876 -0.035868
v -0.025579 -0.020652 -0.044821
v -0.059674 0.035609 -0.031478
v 0.011571 -0.019465 -0.042989
v -0.047613 0.048696 -0.035849
v -0.010327 -0.019332 -0.044944
v -0.054098 0.048833 -0.035826
v 0.003122 -0.050975 -0.038582
v -0.024920 -0.035934 -0.041740
v -0.025498 -0.037720 -0.040615
v -0.026176 -0.035934 -0.041416
v -0.024187 -0.030566 -0.044441
v -0.025358 -0.030549 -0.044328
v -0.024126 -0.029764 -0.044751
v -0.024110 -0.021561 -0.045000
v -0.010327 -0.021561 -0.045000
v -0.011462 -0.028491 -0.045000
v -0.026170 -0.028154 -0.044645
v -0.054307 0.048332 -0.035868
v -0.010327 -0.028520 -0.045000
v -0.009719 -0.020127 -0.044990
v -0.010338 -0.029086 -0.044971
v -0.009111 -0.020127 -0.044962
v -0.009720 -0.019332 -0.044934
v 0.011571 -0.029362 -0.042958
v 0.011571 -0.028480 -0.043028
v 0.023183 -0.029520 -0.041557
v 0.008241 -0.049913 -0.037801
v 0.009022 -0.050925 -0.037038
v 0.025090 -0.018548 -0.040853
v 0.025135 -0.019332 -0.041010
v 0.023501 -0.019332 -0.041677
v 0.027229 -0.029993 -0.039016
v 0.026133 -0.035122 -0.035991
v 0.028599 -0.028820 -0.038061
v 0.025312 -0.029547 -0.040638
v 0.025821 -0.029978 -0.040137
v -0.018000 -0.052497 -0.029815
v -0.018518 -0.052294 -0.029932
v -0.017536 -0.052475 -0.030296
v -0.002663 -0.060000 -0.014902
v -0.026963 -0.050945 -0.016558
v -0.027122 -0.051581 -0.013842
v -0.027307 -0.051455 -0.013383
v -0.009404 -0.060000 -0.008488
v -0.029449 -0.030379 -0.041824
v -0.030245 -0.030325 -0.040747
v -0.029802 -0.033977 -0.039305
v -0.028887 -0.041274 -0.034099
v -0.025406 -0.043619 -0.036203
v -0.027742 -0.041274 -0.036334
v -0.026084 -0.041274 -0.037899
v -0.027769 -0.037681 -0.039360
v -0.029516 -0.035797 -0.038523
v -0.030215 -0.035797 -0.037067
v -0.010975 -0.052427 0.034582
v -0.013123 -0.052338 0.033698
v -0.013785 -0.052592 0.032567
v -0.030215 -0.035797 0.037067
v -0.029342 -0.037642 0.037327
v -0.030045 -0.035817 0.037468
v -0.007382 -0.052583 0.035519
v -0.006755 -0.052481 0.036017
v -0.009048 -0.052547 0.035064
v -0.001279 -0.060000 0.015249
v -0.002155 -0.052600 0.036412
v -0.022550 -0.052568 0.023612
v 0.009132 -0.052601 0.034452
v 0.007806 -0.052549 0.035149
v 0.017775 -0.052654 0.028419
v -0.009720 -0.019332 0.044934
v -0.009113 -0.019332 0.044906
v -0.010349 -0.029648 0.044886
v -0.010327 -0.021561 0.045000
v -0.008536 -0.029122 0.044894
v 0.000649 -0.051117 0.038722
v -0.000284 -0.051014 0.038829
v 0.000038 -0.051358 0.038543
v 0.014912 -0.029361 0.042618
v 0.009968 -0.050712 -0.036785
v 0.026177 -0.052104 -0.014867
v 0.025434 -0.052401 -0.015865
v 0.025480 -0.052027 -0.017606
v 0.026534 -0.051631 -0.015446
v 0.036862 -0.041244 -0.018421
v 0.024495 -0.052607 -0.017356
v 0.025861 -0.052507 -0.012532
v -0.028845 -0.050593 0.002534
v -0.027681 -0.051096 0.012591
v -0.027518 -0.045947 0.028519
v -0.028242 -0.051395 -0.006089
v -0.027922 -0.051957 -0.002739
v -0.010657 -0.060000 0.005107
v -0.025913 -0.052637 0.012002
v 0.024130 -0.051842 0.021725
v 0.024012 -0.052648 0.018388
v 0.022598 -0.052563 0.022263
v 0.021670 -0.052285 0.025010
v 0.013817 -0.051035 0.034522
v 0.013607 -0.052342 0.032834
v 0.014114 -0.051436 0.033955
v 0.014921 -0.051396 0.033450
v 0.020665 -0.052278 0.026474
v 0.017940 -0.051488 0.030922
v 0.015530 -0.051625 0.032743
v 0.006716 -0.052433 0.035846
v 0.022648 -0.029848 0.041582
v -0.028174 -0.029002 0.043486
v -0.054083 0.047978 0.035868
v -0.049785 0.058286 0.034146
v -0.049699 0.058493 0.034078
v -0.047388 0.058285 0.034152
v -0.046572 0.058480 0.034089
v -0.025823 -0.029763 0.044515
v -0.025945 -0.028962 0.044659
v -0.026777 -0.030509 0.043876
v -0.025714 -0.020571 0.044786
v -0.025084 -0.028951 0.044860
v 0.011571 -0.028480 0.043028
v 0.011571 -0.019069 0.042927
v 0.023501 -0.019332 0.041677
v 0.025135 -0.019332 0.041010
v 0.024663 -0.029549 0.040980
v 0.049496 0.059518 0.004858
v 0.049584 0.059308 0.006509
v 0.047613 0.059574 0.004195
v -0.046572 0.059358 0.031427
v 0.049443 0.059646 -0.002195
v -0.046572 0.059646 0.027439
v -0.049218 0.059646 0.027439
v 0.055452 0.045231 0.010624
v 0.055576 0.044935 0.010624
v 0.025504 -0.020127 0.040869
v 0.026677 -0.019332 0.040021
v 0.055635 0.044734 0.010624
v 0.055635 0.044734 -0.010624
v 0.055576 0.044935 -0.010624
v 0.026677 -0.019332 -0.040021
v 0.055452 0.045231 -0.010624
v -0.049464 0.059950 -0.021383
v -0.049618 0.058688 0.033943
v -0.049556 0.058835 0.033771
v -0.046572 0.058658 0.033974
v -0.046572 0.058809 0.033811
v -0.046797 0.059712 -0.031427
v -0.049496 0.059872 -0.030102
v -0.046797 0.059928 -0.029441
v 0.049526 0.059446 -0.005521
v 0.049842 0.058688 -0.008699
v 0.049740 0.058934 -0.008343
v -0.049443 0.060000 -0.027439
v -0.050010 0.058640 -0.034146
v -0.028895 -0.029018 -0.042860
v -0.047613 0.048862 -0.035826
v -0.046797 0.048696 -0.035849
v 0.014388 -0.051062 -0.034129
v 0.003884 -0.050975 -0.038458
v 0.000726 -0.050628 -0.039035
v -0.001628 -0.049943 -0.039319
v -0.024730 -0.034149 -0.042686
v -0.004788 -0.050097 -0.038953
v -0.026316 -0.034132 -0.042321
v -0.026496 -0.030518 -0.043994
v -0.026670 -0.029758 -0.044210
v -0.010327 -0.020127 -0.045000
v -0.024110 -0.028104 -0.045000
v -0.011483 -0.029076 -0.044969
v -0.025772 -0.029364 -0.044634
v -0.026937 -0.028185 -0.044322
v -0.055576 0.045290 -0.035868
v -0.011475 -0.029077 -0.044969
v -0.010161 -0.030202 -0.044746
v -0.008368 -0.030106 -0.044703
v -0.008570 -0.029625 -0.044829
v -0.008536 -0.029122 -0.044894
v 0.016583 -0.029360 -0.042445
v 0.011571 -0.020127 -0.043028
v 0.025504 -0.020127 -0.040869
v 0.026853 -0.027635 -0.039949
v 0.028509 -0.029996 -0.037643
v 0.028154 -0.029218 -0.038440
v 0.026683 -0.029219 -0.039822
v 0.029262 -0.028824 -0.037191
v 0.023725 -0.029346 -0.041436
v 0.024562 -0.028804 -0.041235
v 0.024272 -0.029340 -0.041226
v 0.025040 -0.029332 -0.040863
v 0.025532 -0.028842 -0.040721
v -0.014182 -0.052583 -0.032357
v -0.013195 -0.052564 -0.033014
v -0.001324 -0.051036 -0.038805
v -0.000934 -0.051145 -0.038731
v -0.016584 -0.052427 -0.031210
v -0.015450 -0.052369 -0.032187
v -0.027966 -0.043619 -0.032697
v -0.027518 -0.045947 -0.028519
v -0.026853 -0.045947 -0.030951
v -0.025955 -0.051666 -0.018425
v -0.025720 -0.051402 -0.019898
v -0.024978 -0.051610 -0.021491
v -0.011042 -0.060000 -0.003287
v -0.022719 -0.052562 -0.023318
v -0.023268 -0.052534 -0.022321
v -0.025643 -0.052553 -0.014640
v -0.024921 -0.052402 -0.018656
v -0.024946 -0.052036 -0.020310
v -0.019478 -0.052560 -0.028121
v -0.018560 -0.052523 -0.029205
v -0.019866 -0.052388 -0.028295
v -0.015715 -0.051633 -0.033309
v -0.024469 -0.045947 -0.034277
v -0.013556 -0.051874 -0.034316
v -0.028535 -0.030431 -0.042745
v -0.027557 -0.034080 -0.041688
v -0.028885 -0.034047 -0.040522
v -0.029366 -0.034012 -0.039943
v -0.026895 -0.043619 -0.034726
v -0.025824 -0.045947 -0.032832
v -0.014514 -0.050959 -0.034735
v -0.027076 -0.035898 -0.040994
v -0.027481 -0.035875 -0.040742
v -0.028561 -0.035875 -0.039772
v -0.028903 -0.035849 -0.039384
v -0.024829 -0.042449 0.037575
v -0.008772 -0.051099 0.037373
v -0.025518 -0.037719 0.040610
v -0.008486 -0.052008 0.036452
v -0.007560 -0.052097 0.036609
v -0.006975 -0.051545 0.037524
v -0.010327 -0.051837 0.035986
v -0.011183 -0.051988 0.035373
v -0.010327 -0.052332 0.035113
v -0.009474 -0.052481 0.035096
v -0.005283 -0.060000 0.013538
v -0.027742 -0.041274 0.036334
v -0.029515 -0.034000 0.039738
v -0.030405 -0.030313 0.040490
v -0.030506 -0.035758 0.036239
v 0.000627 -0.052593 0.036453
v 0.001518 -0.052429 0.036872
v 0.002383 -0.052542 0.036467
v -0.000918 -0.052597 0.036472
v -0.002202 -0.051999 0.037744
v -0.000291 -0.051977 0.037825
v 0.000666 -0.051969 0.037806
v 0.005813 -0.051964 0.037010
v 0.004258 -0.051959 0.037374
v 0.007606 -0.051978 0.036451
v 0.002393 -0.051960 0.037669
v 0.003333 -0.051331 0.038266
v -0.021729 -0.052581 0.024969
v -0.023161 -0.052541 0.022519
v 0.009009 -0.052600 0.034505
v 0.017976 -0.052655 0.028209
v -0.009719 -0.020127 0.044990
v -0.011475 -0.029077 0.044969
v -0.010327 -0.028520 0.045000
v -0.004211 -0.051126 0.038492
v -0.006663 -0.051222 0.037916
v -0.004615 -0.051253 0.038327
v -0.002237 -0.051061 0.038746
v -0.002741 -0.051076 0.038698
v 0.011571 -0.029362 0.042958
v 0.018333 -0.028957 0.042334
v -0.007837 -0.051199 0.037602
v -0.006254 -0.051314 0.037939
v 0.005534 -0.060000 -0.013538
v 0.016279 -0.052642 -0.029847
v 0.017648 -0.052538 -0.029052
v 0.018834 -0.052241 -0.028753
v 0.018262 -0.052224 -0.029377
v 0.019034 -0.051815 -0.029394
v 0.018955 -0.052555 -0.027633
v 0.019980 -0.052564 -0.026364
v 0.008807 -0.060000 -0.009997
v 0.024906 -0.052192 -0.018640
v 0.023756 -0.052652 -0.019042
v 0.024577 -0.052213 -0.019458
v 0.025050 -0.052517 -0.016343
v 0.025774 -0.052455 -0.014216
v -0.028127 -0.051175 0.008978
v -0.028720 -0.050951 0.000691
v -0.028496 -0.051316 0.001597
v -0.028717 -0.050952 -0.000938
v -0.027091 -0.051315 0.014999
v -0.026698 -0.051055 0.017368
v -0.026853 -0.045947 0.030951
v -0.025299 -0.047973 0.029918
v -0.025824 -0.045947 0.032832
v -0.024952 -0.048979 0.028355
v -0.025934 -0.048895 0.025986
v -0.024451 -0.048979 0.029261
v -0.027813 -0.051977 -0.004734
v -0.027617 -0.052013 -0.006980
v -0.027978 -0.051475 -0.008471
v -0.027286 -0.052071 -0.009557
v -0.025552 -0.051453 0.020279
v -0.025987 -0.051821 0.017782
v -0.025347 -0.052100 0.018843
v -0.024543 -0.052223 0.020692
v -0.027837 -0.051517 0.009463
v -0.027152 -0.052095 0.010392
v -0.027631 -0.051348 0.011900
v 0.024104 -0.052237 0.020545
v 0.023320 -0.052554 0.020821
v 0.022148 -0.052283 0.024247
v 0.020139 -0.052270 0.027176
v 0.017364 -0.051447 0.031483
v 0.017071 -0.051427 0.031756
v 0.018266 -0.051511 0.030591
v 0.015939 -0.052148 0.031587
v 0.014622 -0.052110 0.032646
v 0.016628 -0.051398 0.032157
v 0.011571 -0.051236 0.035637
v 0.012602 -0.051962 0.034198
v 0.011571 -0.051825 0.034973
v 0.009681 -0.052004 0.035609
v 0.007109 -0.051003 0.037654
v 0.005021 -0.051334 0.037941
v 0.022099 -0.029841 0.041692
v -0.027208 -0.028197 0.044180
v -0.028011 -0.029744 0.043436
v -0.055351 0.044935 0.035868
v -0.047388 0.058480 0.034089
v -0.025560 -0.029765 0.044583
v -0.026047 -0.028150 0.044687
v -0.025672 -0.028958 0.044736
v 0.023474 -0.018548 0.041513
v 0.023696 -0.020127 0.041674
v 0.024854 -0.028856 0.041086
v 0.049712 0.059001 0.008133
v 0.049736 0.058944 0.008319
v -0.049302 0.059446 0.030765
v -0.046572 0.059000 0.033382
v 0.049464 0.059596 -0.003861
v -0.047388 0.058809 0.033811
v -0.047388 0.058658 0.033974
v 0.049821 0.058738 0.008649
v 0.049944 0.058444 0.008857
v 0.049712 0.059001 -0.008133
v -0.047613 0.059712 -0.031423
v -0.049584 0.059662 -0.031753
v -0.049712 0.059355 -0.033377
v -0.046797 0.060000 -0.027439
v -0.047613 0.059928 -0.029439
v -0.049821 0.059093 -0.033893
v -0.047613 0.059163 -0.033811
v -0.047613 0.059012 -0.033974
v 0.019250 -0.050724 -0.030389
v 0.020436 -0.050822 -0.029019
v 0.002293 -0.052591 -0.036316
v 0.001609 -0.052592 -0.036387
v -0.025389 -0.028129 -0.044865
v -0.055452 0.045586 -0.035868
v -0.010360 -0.030202 -0.044744
v -0.010349 -0.029648 -0.044886
v -0.011488 -0.029658 -0.044878
v -0.008606 -0.030123 -0.044718
v -0.002927 -0.028721 -0.044390
v 0.018333 -0.028957 -0.042334
v 0.014912 -0.029361 -0.042618
v 0.025136 -0.027697 -0.041070
v 0.026103 -0.030347 -0.039713
v 0.025990 -0.030828 -0.039494
v 0.026365 -0.028828 -0.040175
v 0.027604 -0.028422 -0.039224
v -0.013737 -0.052288 -0.033465
v -0.013034 -0.052257 -0.033930
v -0.010327 -0.052597 -0.034354
v -0.001159 -0.052550 -0.036624
v -0.005471 -0.052571 -0.036059
v -0.004747 -0.052464 -0.036523
v -0.002018 -0.052444 -0.036890
v -0.001022 -0.051984 -0.037813
v -0.008378 -0.051298 -0.037340
v -0.008082 -0.051284 -0.037450
v -0.010327 -0.051790 -0.036051
v -0.010327 -0.051180 -0.036702
v -0.002573 -0.050714 -0.038949
v -0.004587 -0.051141 -0.038424
v -0.017388 -0.052034 -0.031465
v -0.016276 -0.051912 -0.032522
v -0.028556 -0.043619 -0.030070
v -0.027568 -0.051370 -0.012208
v -0.025964 -0.052278 -0.015594
v -0.026445 -0.052209 -0.013814
v -0.026729 -0.051815 -0.014747
v -0.026949 -0.052129 -0.011513
v -0.011301 -0.060000 -0.000473
v -0.026983 -0.052544 0.003760
v -0.022038 -0.052578 -0.024474
v -0.024091 -0.052477 -0.020626
v -0.023857 -0.052307 -0.022082
v -0.019996 -0.052572 -0.027461
v -0.020513 -0.052580 -0.026766
v -0.020598 -0.051934 -0.028527
v -0.025934 -0.048895 -0.025986
v -0.025014 -0.048975 -0.028238
v -0.025343 -0.047971 -0.029843
v -0.015623 -0.051841 -0.033087
v -0.011384 -0.051284 -0.036133
v -0.026649 -0.035918 -0.041216
v -0.029466 -0.037628 -0.037095
v -0.026084 -0.041274 0.037899
v -0.024116 -0.044786 0.035801
v -0.024469 -0.045947 0.034277
v -0.014195 -0.051694 0.034193
v -0.009294 -0.051153 0.037139
v -0.011986 -0.052342 0.034296
v -0.015841 -0.052620 0.031098
v -0.016738 -0.052435 0.031068
v -0.016584 -0.051303 0.033072
v -0.015006 -0.051989 0.033261
v -0.015371 -0.052365 0.032251
v -0.013846 -0.051928 0.034068
v -0.026895 -0.043619 0.034726
v -0.029818 -0.030356 0.041363
v -0.028849 -0.035854 0.039449
v -0.029046 -0.035838 0.039204
v -0.030378 -0.033973 0.038194
v -0.003749 -0.052606 0.036236
v -0.005332 -0.052469 0.036396
v -0.006039 -0.052574 0.035917
v 0.004200 -0.052542 0.036173
v -0.000300 -0.052595 0.036477
v 0.003302 -0.052427 0.036655
v -0.024590 -0.052434 0.019479
v -0.024228 -0.047980 0.031498
v -0.008606 -0.030123 0.044718
v -0.010360 -0.030202 0.044744
v -0.010327 -0.030201 0.044745
v -0.011488 -0.029658 0.044878
v -0.011483 -0.029076 0.044969
v -0.003805 -0.051111 0.038559
v -0.003535 -0.051102 0.038599
v -0.002993 -0.051084 0.038669
v 0.002853 -0.050976 0.038620
v 0.002411 -0.051099 0.038586
v 0.001532 -0.051340 0.038476
v -0.007367 -0.051252 0.037697
v -0.025683 -0.030541 0.044256
v -0.007097 -0.050231 0.038390
v -0.026763 -0.035914 0.041161
v -0.004072 -0.051451 0.038226
v -0.006184 -0.052069 0.037034
v -0.004585 -0.052039 0.037414
v 0.000558 -0.052593 -0.036456
v 0.003591 -0.060000 -0.014643
v 0.008529 -0.052551 -0.034870
v 0.009319 -0.052554 -0.034536
v 0.017161 -0.052187 -0.030484
v 0.014403 -0.052551 -0.031683
v 0.016122 -0.052154 -0.031430
v 0.020890 -0.052568 -0.025098
v 0.020884 -0.052280 -0.026170
v 0.021620 -0.052569 -0.023970
v 0.023556 -0.052654 -0.019528
v 0.023132 -0.052659 -0.020489
v 0.025377 -0.052577 -0.014652
v 0.025943 -0.052441 -0.013336
v -0.027973 -0.051947 -0.000598
v -0.027974 -0.051947 0.000471
v -0.027741 -0.051990 0.005670
v -0.028138 -0.051427 0.007140
v -0.028391 -0.051349 0.004126
v -0.028383 -0.051171 0.006162
v -0.028467 -0.051141 0.005155
v -0.028602 -0.051093 0.002822
v -0.027204 -0.051487 0.013803
v -0.027856 -0.051969 -0.004070
v -0.028268 -0.051211 -0.007301
v -0.024168 -0.051795 0.023025
v -0.027928 -0.051246 0.010277
v -0.026699 -0.052561 0.007383
v -0.026764 -0.052469 0.008759
v -0.026381 -0.052579 0.009889
v -0.025452 -0.052656 0.014168
v -0.025807 -0.052299 0.016113
v -0.026057 -0.052265 0.015271
v 0.016706 -0.051686 0.031737
v 0.009911 -0.051071 0.036563
v 0.012578 -0.051545 0.034775
v 0.013113 -0.051751 0.034205
v 0.006190 -0.050990 0.037931
v 0.004214 -0.051096 0.038309
v 0.005801 -0.051106 0.037947
v 0.006681 -0.051349 0.037497
v -0.027812 -0.030466 0.043297
v -0.027120 -0.034102 0.041951
v -0.055228 0.045231 0.035868
v -0.025768 -0.028140 0.044771
v 0.021802 -0.018548 0.041841
v -0.046572 0.059574 0.029441
v -0.046572 0.058925 0.033610
v -0.049487 0.059001 0.033377
v 0.049773 0.058856 0.008495
v 0.049880 0.058598 0.008771
v -0.047613 0.059355 -0.033377
v -0.046797 0.060000 -0.023049
v -0.049773 0.059210 -0.033739
v -0.047613 0.059279 -0.033610
v -0.049880 0.058953 -0.034015
v 0.025966 -0.033033 -0.037846
v 0.018008 -0.050594 -0.031658
v 0.003786 -0.051958 -0.037463
v 0.001271 -0.051342 -0.038495
v 0.000669 -0.051117 -0.038722
v -0.000158 -0.051360 -0.038545
v 0.007803 -0.051016 -0.037419
v 0.004332 -0.050975 -0.038374
v 0.006529 -0.051347 -0.037543
v -0.024118 -0.028940 -0.044937
v -0.010327 -0.030201 -0.044745
v 0.025983 -0.028444 -0.040516
v 0.025792 -0.030884 -0.039608
v 0.015755 -0.051343 -0.032900
v 0.015210 -0.050324 -0.034033
v 0.027106 -0.028825 -0.039589
v -0.012368 -0.052285 -0.034228
v -0.008199 -0.052111 -0.036379
v -0.006216 -0.052070 -0.037025
v -0.007974 -0.052627 -0.035165
v -0.002927 -0.052557 -0.036497
v -0.005209 -0.052051 -0.037280
v -0.004358 -0.052034 -0.037457
v -0.002839 -0.052008 -0.037681
v -0.003487 -0.051434 -0.038317
v -0.003698 -0.052455 -0.036705
v -0.006919 -0.050905 -0.038089
v -0.002668 -0.051189 -0.038616
v -0.022806 -0.047965 -0.032899
v -0.026024 -0.051812 -0.017679
v -0.025645 -0.052320 -0.016625
v -0.027223 -0.051689 -0.012762
v -0.027094 -0.052441 -0.005619
v -0.023642 -0.052510 -0.021579
v -0.019492 -0.051804 -0.029968
v -0.022385 -0.049976 -0.030106
v -0.023593 -0.049982 -0.028490
v -0.023867 -0.048988 -0.030117
v -0.023261 -0.048988 -0.030875
v -0.024519 -0.048975 -0.029154
v -0.022945 -0.051952 -0.025065
v -0.024168 -0.051795 -0.023025
v -0.021438 -0.052583 -0.025421
v -0.021950 -0.052419 -0.025340
v -0.021663 -0.051977 -0.027032
v -0.014871 -0.052341 -0.032644
v -0.012084 -0.051629 -0.035427
v -0.026961 -0.034109 -0.042036
v -0.029219 -0.035823 -0.038971
v -0.027597 -0.037692 0.039502
v -0.011356 -0.051405 0.036030
v -0.025406 -0.043619 0.036203
v -0.020879 -0.051951 0.028145
v -0.022556 -0.049982 0.029896
v -0.021863 -0.051979 0.026738
v -0.021356 -0.052583 0.025545
v -0.017792 -0.052487 0.030034
v -0.019838 -0.052569 0.027666
v -0.019447 -0.052559 0.028160
v -0.019238 -0.052350 0.029085
v -0.014177 -0.052308 0.033157
v -0.028496 -0.034072 0.040918
v -0.028904 -0.034046 0.040501
v -0.028297 -0.035893 0.040039
v -0.028645 -0.035869 0.039683
v -0.029198 -0.034025 0.040156
v -0.029286 -0.035817 0.038876
v -0.003218 -0.052604 0.036307
v -0.024972 -0.052595 0.016966
v -0.025136 -0.052379 0.018091
v -0.023992 -0.052485 0.020842
v -0.023969 -0.048989 0.029973
v -0.023373 -0.048989 0.030744
v -0.008368 -0.030106 0.044703
v -0.010161 -0.030202 0.044746
v -0.001586 -0.051043 0.038792
v -0.001261 -0.051035 0.038808
v -0.000610 -0.051020 0.038827
v 0.000205 -0.051005 0.038824
v -0.026097 -0.034140 0.042398
v -0.025432 -0.030547 0.044314
v -0.024975 -0.034145 0.042661
v -0.027184 -0.035893 0.040931
v -0.005435 -0.051496 0.037947
v -0.003790 -0.052024 0.037553
v 0.015657 -0.052637 -0.030385
v 0.017670 -0.052204 -0.029987
v 0.018244 -0.051774 -0.030248
v 0.022596 -0.052664 -0.021595
v 0.036862 -0.040992 -0.019232
v 0.025441 -0.051487 -0.019351
v 0.023859 -0.052248 -0.021071
v -0.027073 -0.052539 0.000914
v -0.026958 -0.052588 -0.000266
v -0.027281 -0.052425 0.002237
v -0.027520 -0.052030 0.007839
v -0.027894 -0.051962 0.003373
v -0.028141 -0.051256 0.008364
v -0.028492 -0.051038 0.005670
v -0.028690 -0.050962 0.002165
v -0.026342 -0.051734 0.016772
v -0.026747 -0.051624 0.015488
v -0.028093 -0.051187 -0.009217
v -0.027951 -0.051320 -0.009703
v -0.023092 -0.052380 0.023462
v -0.027835 -0.051278 0.010819
v -0.026098 -0.052629 0.010967
v -0.026506 -0.052199 0.013564
v 0.013077 -0.051401 0.034640
v -0.049239 0.059596 0.029105
v -0.049515 0.058934 0.033587
v -0.047388 0.059358 0.031423
v -0.047388 0.059001 0.033377
v -0.047613 0.059354 -0.033381
v -0.047613 0.059354 -0.033382
v -0.049736 0.059298 -0.033563
v -0.049944 0.058799 -0.034100
v 0.000548 -0.051970 -0.037810
v 0.001633 -0.051963 -0.037745
v 0.003653 -0.052591 -0.036115
v 0.004575 -0.052591 -0.035932
v 0.002740 -0.050977 -0.038634
v 0.002005 -0.050982 -0.038718
v 0.001083 -0.050992 -0.038790
v -0.001840 -0.051392 -0.038491
v 0.008133 -0.051371 -0.037004
v 0.009694 -0.051818 -0.035879
v 0.008745 -0.051991 -0.036015
v 0.004183 -0.050975 -0.038403
v -0.025397 -0.029363 -0.044725
v 0.011571 -0.051454 -0.035424
v 0.011571 -0.051994 -0.034717
v 0.010693 -0.052317 -0.034548
v 0.016004 -0.051358 -0.032694
v 0.014608 -0.051457 -0.033602
v 0.016497 -0.051389 -0.032272
v 0.014963 -0.052119 -0.032385
v 0.013493 -0.051754 -0.033968
v 0.015156 -0.051307 -0.033376
v 0.027935 -0.028820 -0.038805
v -0.011220 -0.051885 -0.035511
v -0.011020 -0.052351 -0.034751
v -0.007188 -0.052623 -0.035430
v -0.004220 -0.051239 -0.038400
v -0.004805 -0.051475 -0.038089
v -0.004320 -0.052564 -0.036299
v -0.002254 -0.051061 -0.038745
v -0.024154 -0.047980 -0.031588
v -0.026557 -0.051676 -0.016110
v -0.027640 -0.051574 -0.010664
v -0.026852 -0.052593 -0.003973
v -0.026525 -0.052488 -0.010389
v -0.026852 -0.052461 -0.008057
v -0.018353 -0.051615 -0.031305
v -0.022663 -0.048966 -0.031538
v -0.020566 -0.052411 -0.027365
v -0.023208 -0.052372 -0.023260
v -0.010327 -0.050880 0.036930
v -0.010327 -0.051262 0.036630
v -0.012128 -0.051810 0.035173
v -0.012680 -0.051435 0.035338
v -0.026613 -0.042449 0.036403
v -0.018919 -0.052538 0.028795
v -0.026496 -0.034127 0.042250
v -0.026207 -0.035933 0.041404
v 0.010253 -0.052451 -0.034427
v 0.010680 -0.052537 -0.033964
v 0.013115 -0.052329 -0.033178
v 0.017124 -0.051431 -0.031708
v 0.020259 -0.051626 -0.028323
v 0.020819 -0.051881 -0.027193
v 0.019939 -0.052267 -0.027432
v 0.021790 -0.052285 -0.024823
v 0.022253 -0.052283 -0.024074
v 0.022316 -0.052665 -0.022133
v 0.024905 -0.051551 -0.020613
v 0.022383 -0.051896 -0.024885
v -0.026947 -0.052589 -0.001315
v -0.027148 -0.052436 0.004896
v -0.025954 -0.051986 0.017231
v -0.022809 -0.051959 0.025283
v -0.026961 -0.052127 0.011453
v 0.007469 -0.051010 0.037535
v 0.008184 -0.051025 0.037280
v 0.008304 -0.051986 0.036192
v -0.047388 0.059574 0.029439
v -0.049499 0.058972 0.033483
v -0.047388 0.058925 0.033610
v 0.005035 -0.052592 -0.035826
v 0.001637 -0.050985 -0.038751
v 0.006382 -0.052432 -0.035949
v 0.007379 -0.051127 -0.037474
v 0.008548 -0.051033 -0.037141
v 0.012545 -0.051144 -0.035192
v 0.012245 -0.051637 -0.034855
v 0.012609 -0.051724 -0.034538
v 0.015353 -0.052131 -0.032075
v 0.015357 -0.051319 -0.033220
v -0.010327 -0.052267 -0.035255
v -0.006794 -0.052621 -0.035552
v -0.006579 -0.051219 -0.037940
v -0.005029 -0.051160 -0.038333
v -0.026128 -0.052519 -0.012549
v -0.026766 -0.052557 -0.006715
v -0.026473 -0.052574 -0.009244
v -0.011438 -0.051006 0.036339
v -0.012596 -0.051724 0.035047
v -0.022821 -0.048975 0.031370
v -0.017434 -0.052202 0.031093
v -0.021445 -0.048926 0.032552
v -0.024953 -0.035933 0.041736
v -0.026313 -0.035930 0.041363
v 0.013842 -0.052341 -0.032682
v 0.011571 -0.052403 -0.033890
v 0.036862 -0.040587 -0.019945
v 0.024467 -0.051590 -0.021558
v 0.024182 -0.051611 -0.022140
v 0.023752 -0.051636 -0.022972
v -0.027030 -0.052446 0.006364
v 0.009596 -0.051061 0.036705
v -0.047388 0.059000 0.033382
v 0.007110 -0.052547 -0.035394
v 0.005634 -0.052592 -0.035675
v 0.013509 -0.051273 -0.034507
v 0.012269 -0.051981 -0.034358
v 0.012222 -0.051248 -0.035280
v -0.007934 -0.051277 -0.037503
v -0.005554 -0.051180 -0.038212
v -0.013665 -0.051699 0.034495
v -0.019839 -0.051856 0.029528
v -0.018755 -0.051684 0.030851
v -0.016699 -0.051958 0.032135
v 0.021711 -0.051667 -0.026353
v 0.024761 -0.051565 -0.020930
v 0.022813 -0.052276 -0.023105
v 0.009438 -0.051057 0.036774
v 0.007873 -0.052438 -0.035449
v 0.005027 -0.051961 -0.037208
v 0.005645 -0.051963 -0.037054
v 0.007289 -0.051975 -0.036561
v 0.012577 -0.051443 -0.034889
f 1 2 3
f 4 3 2
f 5 6 7
f 8 9 10
f 11 12 13
f 11 13 14
f 11 14 15
f 16 1 3
f 17 3 4
f 18 4 2
f 19 20 21
f 22 23 24
f 25 10 9
f 25 24 23
f 26 27 8
f 26 8 10
f 26 10 28
f 29 15 14
f 30 31 32
f 30 32 33
f 34 13 12
f 34 35 14
f 34 14 13
f 36 2 1
f 37 1 16
f 38 16 3
f 39 3 17
f 40 25 41
f 40 41 42
f 43 44 45
f 43 42 41
f 46 22 24
f 46 24 47
f 48 5 49
f 48 49 50
f 48 50 51
f 52 41 25
f 53 54 55
f 56 4 18
f 57 17 4
f 58 59 60
f 61 11 15
f 62 31 30
f 62 15 29
f 63 64 29
f 63 29 14
f 65 32 31
f 66 67 32
f 66 32 65
f 66 65 68
f 69 15 62
f 69 62 30
f 69 30 33
f 69 61 15
f 70 2 36
f 71 37 16
f 72 38 3
f 73 74 27
f 73 27 26
f 75 3 39
f 75 74 76
f 75 76 3
f 77 18 2
f 78 79 28
f 80 81 16
f 80 16 38
f 82 25 40
f 82 78 28
f 82 28 10
f 82 10 25
f 83 84 82
f 83 82 40
f 83 40 85
f 86 85 40
f 87 88 45
f 89 44 43
f 89 90 44
f 91 92 43
f 91 43 41
f 91 41 52
f 93 42 43
f 93 43 45
f 93 45 42
f 94 95 96
f 94 96 97
f 98 96 95
f 98 95 99
f 100 101 102
f 100 102 103
f 104 90 89
f 105 101 96
f 105 102 101
f 106 68 65
f 107 108 109
f 110 20 19
f 111 21 20
f 112 107 109
f 113 43 92
f 113 46 47
f 113 47 114
f 115 23 22
f 115 92 91
f 116 117 118
f 119 47 24
f 120 7 121
f 120 121 122
f 120 122 49
f 120 49 5
f 120 5 7
f 123 124 125
f 123 125 126
f 123 126 127
f 123 24 25
f 128 67 66
f 129 67 130
f 129 33 32
f 129 32 67
f 131 5 48
f 132 133 48
f 132 48 51
f 132 134 133
f 135 131 48
f 135 48 133
f 136 137 138
f 139 23 115
f 139 115 52
f 139 52 25
f 139 25 23
f 140 8 27
f 141 142 143
f 144 145 134
f 146 147 54
f 146 54 53
f 148 149 150
f 151 152 142
f 151 142 149
f 153 4 56
f 154 155 57
f 154 57 4
f 156 12 11
f 156 11 61
f 157 158 159
f 160 158 157
f 161 36 1
f 162 2 70
f 163 162 70
f 164 165 1
f 166 1 37
f 166 37 167
f 168 81 169
f 168 71 16
f 168 16 81
f 170 71 171
f 170 171 172
f 170 173 37
f 170 37 71
f 174 72 175
f 176 28 177
f 176 177 178
f 176 73 26
f 176 26 28
f 179 73 176
f 179 176 178
f 179 76 74
f 179 74 73
f 180 181 174
f 180 174 175
f 180 175 178
f 180 178 177
f 180 177 28
f 180 28 79
f 180 79 78
f 180 78 181
f 182 72 3
f 182 3 76
f 182 76 179
f 182 179 178
f 182 178 175
f 182 175 72
f 183 21 111
f 184 185 186
f 184 187 185
f 188 189 190
f 188 190 191
f 188 192 189
f 193 194 195
f 193 196 192
f 197 97 196
f 198 199 200
f 198 201 199
f 202 39 17
f 203 75 39
f 204 205 14
f 206 34 12
f 206 12 207
f 208 83 209
f 210 81 80
f 211 44 90
f 212 85 86
f 212 86 88
f 212 88 169
f 213 42 45
f 213 45 88
f 213 88 86
f 213 86 40
f 213 40 42
f 214 169 88
f 214 88 87
f 214 172 171
f 215 90 104
f 215 98 99
f 215 99 90
f 216 100 103
f 216 103 217
f 216 217 196
f 218 43 113
f 218 113 114
f 218 114 215
f 218 215 104
f 218 104 89
f 218 89 43
f 219 31 62
f 220 31 219
f 220 106 65
f 220 65 31
f 221 20 110
f 221 110 108
f 221 108 107
f 222 108 110
f 222 110 109
f 222 109 108
f 223 224 225
f 223 14 205
f 223 205 226
f 223 226 224
f 227 194 228
f 227 229 195
f 227 195 194
f 230 111 20
f 231 185 187
f 231 232 185
f 233 103 102
f 233 102 234
f 233 234 231
f 235 232 231
f 235 231 234
f 236 47 237
f 236 114 47
f 238 236 237
f 238 237 102
f 239 46 113
f 239 113 92
f 239 92 115
f 239 115 22
f 239 22 46
f 240 52 115
f 240 115 91
f 240 91 52
f 241 121 117
f 241 24 123
f 242 117 121
f 243 117 116
f 243 116 244
f 245 119 24
f 245 24 241
f 246 121 241
f 246 241 123
f 246 123 127
f 247 123 25
f 247 25 9
f 247 248 137
f 247 137 136
f 247 136 138
f 249 122 121
f 250 66 68
f 251 252 253
f 254 255 253
f 256 5 131
f 257 258 60
f 257 60 59
f 259 130 260
f 259 258 33
f 259 33 129
f 259 129 130
f 261 61 69
f 261 69 33
f 261 33 258
f 261 258 59
f 261 59 61
f 262 134 132
f 262 132 51
f 262 51 146
f 263 264 265
f 266 149 142
f 267 268 269
f 270 271 272
f 273 274 275
f 273 265 264
f 276 258 259
f 276 259 260
f 277 265 273
f 277 273 260
f 277 67 265
f 278 274 279
f 278 279 145
f 278 280 275
f 278 275 274
f 281 134 145
f 281 145 279
f 281 279 133
f 281 133 134
f 282 133 279
f 282 135 133
f 283 148 150
f 284 146 53
f 284 283 144
f 285 152 151
f 285 151 55
f 285 55 54
f 285 201 143
f 285 143 142
f 285 142 152
f 286 143 201
f 286 287 143
f 288 122 249
f 288 249 289
f 288 49 122
f 290 49 288
f 290 288 289
f 290 289 147
f 290 147 146
f 290 146 51
f 290 51 50
f 290 50 49
f 291 248 292
f 293 125 124
f 294 295 199
f 294 199 201
f 296 297 298
f 296 298 153
f 299 154 4
f 300 301 302
f 303 56 18
f 304 305 12
f 304 12 156
f 304 156 61
f 304 61 59
f 306 12 305
f 307 158 160
f 307 160 12
f 308 309 310
f 311 310 309
f 312 313 12
f 312 12 306
f 314 315 316
f 314 316 36
f 317 223 318
f 317 318 319
f 317 319 14
f 320 36 321
f 320 321 322
f 320 322 36
f 323 321 36
f 323 36 161
f 323 161 324
f 325 2 162
f 326 1 166
f 326 166 167
f 326 167 327
f 328 214 171
f 328 171 71
f 329 110 19
f 329 109 110
f 330 232 112
f 330 112 109
f 330 109 329
f 330 186 185
f 330 185 232
f 331 191 183
f 332 19 21
f 333 191 190
f 333 190 187
f 333 187 184
f 333 183 191
f 334 335 336
f 337 192 196
f 337 196 217
f 338 201 198
f 338 287 286
f 338 286 201
f 339 140 27
f 339 340 341
f 339 341 342
f 343 342 341
f 343 9 8
f 343 8 140
f 343 140 339
f 343 339 342
f 344 39 202
f 345 75 203
f 345 27 74
f 345 74 75
f 346 14 35
f 347 226 205
f 347 205 204
f 348 224 226
f 349 350 206
f 351 77 2
f 351 352 77
f 353 84 83
f 353 83 208
f 353 78 82
f 353 82 84
f 354 72 174
f 354 174 181
f 355 80 38
f 355 208 209
f 355 209 80
f 356 85 210
f 356 210 80
f 357 211 90
f 357 90 99
f 358 173 170
f 358 167 37
f 358 37 173
f 359 360 211
f 359 211 357
f 361 210 85
f 361 85 212
f 361 81 210
f 362 45 44
f 363 360 359
f 364 165 164
f 364 164 1
f 364 1 327
f 365 196 97
f 365 97 96
f 365 96 101
f 365 101 100
f 366 219 62
f 366 62 29
f 366 29 64
f 367 20 221
f 367 221 68
f 368 369 68
f 368 68 221
f 370 112 371
f 370 368 221
f 370 221 107
f 370 107 112
f 372 373 374
f 375 106 220
f 375 230 20
f 375 20 367
f 376 227 228
f 376 228 111
f 376 111 230
f 377 187 190
f 377 233 231
f 377 231 187
f 378 232 235
f 378 235 112
f 378 112 232
f 379 380 244
f 379 235 234
f 381 105 96
f 381 96 98
f 381 98 215
f 382 383 117
f 382 117 242
f 382 242 384
f 382 385 383
f 386 242 121
f 387 128 388
f 389 117 243
f 389 243 380
f 389 380 390
f 389 390 117
f 243 380 243
f 243 243 244
f 391 237 47
f 391 47 119
f 391 119 392
f 391 392 380
f 393 392 119
f 393 119 245
f 393 245 241
f 393 241 117
f 393 117 390
f 393 390 380
f 393 380 392
f 394 395 121
f 394 121 246
f 394 246 127
f 394 127 126
f 394 126 396
f 394 396 289
f 394 289 395
f 397 395 289
f 397 289 249
f 397 249 121
f 397 121 395
f 398 128 66
f 398 66 250
f 398 388 128
f 399 400 68
f 399 68 369
f 401 402 399
f 403 404 405
f 403 405 406
f 407 6 255
f 407 255 254
f 407 254 121
f 407 121 7
f 407 7 6
f 408 252 121
f 408 121 254
f 408 254 253
f 408 253 252
f 409 404 67
f 409 67 128
f 410 265 67
f 410 131 265
f 411 258 257
f 411 257 59
f 411 59 258
f 412 135 263
f 412 263 265
f 412 265 131
f 412 131 135
f 413 264 263
f 413 263 135
f 413 135 282
f 413 282 264
f 414 200 199
f 415 266 142
f 415 142 141
f 416 417 149
f 418 271 419
f 420 421 271
f 420 271 418
f 420 418 267
f 420 267 269
f 422 421 58
f 422 58 60
f 423 279 274
f 423 274 273
f 423 273 264
f 423 264 282
f 423 282 279
f 424 273 275
f 424 275 280
f 424 280 425
f 426 271 421
f 426 421 422
f 426 422 60
f 426 60 276
f 427 258 276
f 427 276 60
f 427 60 258
f 428 130 67
f 428 260 130
f 429 425 280
f 430 149 417
f 431 432 150
f 431 150 149
f 433 144 283
f 433 283 150
f 433 150 432
f 433 432 280
f 433 280 278
f 433 278 145
f 434 151 149
f 434 55 151
f 435 134 262
f 435 262 146
f 435 146 284
f 435 284 144
f 435 144 134
f 436 147 289
f 436 289 396
f 436 396 126
f 436 126 437
f 438 439 293
f 438 138 137
f 438 137 248
f 438 248 291
f 438 291 439
f 440 291 295
f 440 295 294
f 441 138 438
f 441 438 293
f 441 293 124
f 441 124 123
f 441 123 247
f 441 247 138
f 442 285 54
f 442 54 443
f 442 443 444
f 442 444 201
f 442 201 285
f 445 443 446
f 445 446 294
f 445 294 201
f 445 201 444
f 445 444 443
f 447 448 4
f 449 416 450
f 451 4 153
f 451 153 298
f 451 298 297
f 451 452 447
f 451 447 4
f 453 158 307
f 453 307 309
f 454 300 302
f 454 158 453
f 454 453 455
f 454 455 456
f 457 458 456
f 459 18 77
f 460 303 461
f 462 463 18
f 462 18 459
f 464 456 458
f 465 153 56
f 466 296 153
f 466 153 465
f 466 465 467
f 466 467 297
f 466 297 296
f 468 469 470
f 471 304 59
f 471 59 58
f 471 58 472
f 473 304 471
f 473 471 472
f 474 304 473
f 474 306 305
f 474 305 304
f 475 476 455
f 475 455 453
f 475 453 309
f 475 309 308
f 475 308 469
f 475 469 476
f 477 470 469
f 477 469 308
f 478 310 311
f 479 472 478
f 479 478 311
f 479 311 480
f 479 480 473
f 479 473 472
f 481 311 309
f 481 474 473
f 481 473 480
f 481 480 311
f 482 483 484
f 485 486 487
f 485 488 489
f 485 489 490
f 485 490 486
f 491 322 321
f 491 321 486
f 491 486 490
f 491 490 314
f 491 314 36
f 491 36 322
f 492 36 316
f 492 70 36
f 493 318 223
f 493 223 225
f 494 495 14
f 496 223 317
f 496 317 14
f 496 14 223
f 497 161 498
f 499 498 161
f 500 324 161
f 500 501 324
f 502 501 500
f 502 500 498
f 502 498 503
f 502 503 336
f 502 336 501
f 504 505 165
f 504 165 364
f 504 364 506
f 507 503 498
f 507 505 508
f 509 325 162
f 510 2 325
f 511 1 326
f 511 326 327
f 511 327 1
f 512 169 214
f 512 214 328
f 512 328 71
f 512 71 168
f 512 168 169
f 513 186 330
f 513 330 329
f 513 329 19
f 513 19 332
f 513 184 186
f 514 228 331
f 514 331 183
f 515 183 333
f 515 333 184
f 515 184 513
f 515 513 332
f 515 332 21
f 515 21 183
f 516 517 518
f 519 195 520
f 519 501 336
f 521 190 189
f 521 189 192
f 521 192 337
f 522 103 233
f 522 233 377
f 522 377 190
f 522 190 521
f 522 521 337
f 522 337 217
f 522 217 103
f 523 484 483
f 524 517 487
f 524 518 517
f 525 17 57
f 525 526 527
f 525 527 17
f 528 529 530
f 528 527 529
f 531 527 528
f 531 532 17
f 531 17 527
f 533 202 17
f 533 17 532
f 534 341 340
f 535 536 344
f 535 344 202
f 537 39 344
f 537 344 536
f 537 536 534
f 537 534 340
f 538 537 340
f 538 340 339
f 538 203 39
f 539 204 14
f 540 35 541
f 540 346 35
f 542 206 350
f 542 350 541
f 542 541 35
f 542 35 34
f 542 34 206
f 543 544 348
f 543 348 226
f 543 226 347
f 545 348 544
f 545 546 547
f 545 224 348
f 548 546 545
f 548 545 549
f 548 550 546
f 551 349 552
f 553 554 552
f 553 552 349
f 555 549 545
f 555 545 556
f 555 548 549
f 557 558 555
f 557 555 556
f 559 560 561
f 562 181 78
f 562 78 353
f 562 353 208
f 563 354 181
f 563 181 562
f 563 562 208
f 563 208 355
f 563 355 38
f 563 38 72
f 563 72 354
f 564 83 85
f 564 85 356
f 564 356 80
f 564 80 209
f 564 209 83
f 565 169 81
f 565 81 361
f 565 361 212
f 565 212 169
f 566 362 44
f 566 44 567
f 568 45 362
f 568 172 214
f 568 214 87
f 568 87 45
f 569 363 570
f 569 570 358
f 569 358 170
f 569 170 172
f 571 360 363
f 571 567 44
f 571 44 211
f 571 211 360
f 572 99 95
f 573 574 167
f 573 167 358
f 573 358 570
f 575 167 574
f 575 364 327
f 575 327 167
f 576 94 97
f 577 508 505
f 577 505 504
f 578 216 196
f 578 196 365
f 578 365 100
f 578 100 216
f 579 219 366
f 580 374 373
f 580 373 579
f 580 579 366
f 580 366 64
f 581 106 375
f 581 68 106
f 582 368 370
f 582 370 371
f 582 371 401
f 582 369 368
f 583 227 376
f 584 220 219
f 584 219 579
f 584 579 373
f 585 373 372
f 585 372 583
f 585 583 376
f 585 376 230
f 586 116 118
f 586 118 371
f 586 371 112
f 586 379 244
f 586 244 116
f 587 102 237
f 587 237 391
f 587 391 380
f 587 380 379
f 587 379 234
f 587 234 102
f 588 114 236
f 588 236 238
f 588 238 102
f 588 102 105
f 588 105 381
f 588 381 215
f 588 215 114
f 589 590 117
f 589 117 383
f 591 250 68
f 592 590 589
f 592 589 383
f 592 383 385
f 593 406 405
f 593 386 121
f 593 121 406
f 243 380 243
f 243 243 244
f 243 244 380
f 594 400 399
f 594 399 402
f 594 402 400
f 595 369 582
f 595 582 401
f 595 401 399
f 595 399 369
f 596 402 401
f 597 118 117
f 597 401 371
f 597 371 118
f 598 251 403
f 598 403 406
f 598 406 121
f 598 121 252
f 598 252 251
f 599 404 403
f 600 601 67
f 600 67 404
f 600 404 599
f 600 599 403
f 600 403 251
f 602 386 593
f 602 593 405
f 602 409 128
f 602 242 386
f 603 404 409
f 603 409 602
f 603 602 405
f 603 405 404
f 604 605 255
f 604 255 6
f 604 6 606
f 607 292 248
f 607 248 608
f 609 57 610
f 609 610 155
f 611 426 276
f 611 276 260
f 611 260 273
f 611 273 424
f 612 277 260
f 612 260 428
f 612 428 67
f 612 67 277
f 613 417 272
f 614 280 432
f 614 430 615
f 614 429 280
f 616 430 614
f 616 614 432
f 616 432 431
f 616 431 149
f 616 149 430
f 617 144 433
f 617 433 145
f 617 145 144
f 618 55 434
f 618 283 284
f 618 284 53
f 618 53 55
f 619 148 283
f 619 283 618
f 619 618 434
f 619 434 149
f 619 149 148
f 620 446 443
f 620 443 54
f 620 54 147
f 620 147 436
f 621 291 622
f 621 295 291
f 623 440 294
f 623 294 446
f 624 437 126
f 624 126 125
f 625 470 626
f 627 299 4
f 627 4 448
f 628 155 154
f 629 630 154
f 629 154 299
f 631 155 628
f 631 628 154
f 631 632 155
f 633 268 634
f 633 635 636
f 633 636 310
f 633 310 268
f 637 638 419
f 637 419 271
f 637 271 270
f 637 270 272
f 637 272 417
f 637 417 416
f 637 416 449
f 639 640 452
f 639 452 451
f 639 451 297
f 641 158 454
f 641 454 302
f 641 302 642
f 641 642 159
f 641 159 158
f 643 644 645
f 646 645 644
f 647 459 77
f 647 77 648
f 649 303 460
f 649 56 303
f 650 463 464
f 650 464 651
f 650 18 463
f 652 467 465
f 652 465 56
f 652 56 653
f 654 297 467
f 655 455 656
f 655 656 458
f 655 458 457
f 655 457 456
f 655 456 455
f 657 656 455
f 657 455 476
f 658 640 468
f 658 468 470
f 658 470 625
f 659 308 310
f 659 310 636
f 659 636 635
f 660 268 310
f 660 310 478
f 660 420 269
f 660 269 268
f 661 481 309
f 661 309 307
f 661 307 12
f 661 12 313
f 661 313 312
f 662 482 484
f 663 664 665
f 666 483 482
f 666 488 485
f 666 485 487
f 666 487 523
f 666 523 483
f 667 490 489
f 667 315 314
f 667 314 490
f 668 669 492
f 668 492 316
f 670 671 665
f 670 665 664
f 672 669 668
f 672 668 316
f 673 665 671
f 673 315 667
f 673 667 489
f 674 547 664
f 674 493 225
f 674 225 224
f 674 224 545
f 674 545 547
f 675 63 14
f 675 14 495
f 675 495 494
f 676 318 493
f 677 318 676
f 678 494 14
f 678 14 319
f 679 680 323
f 681 323 680
f 681 680 321
f 681 321 323
f 682 161 1
f 682 1 165
f 683 497 498
f 683 498 500
f 683 500 161
f 683 161 497
f 684 505 507
f 684 507 498
f 684 498 499
f 684 499 161
f 684 161 682
f 684 682 165
f 684 165 505
f 685 351 2
f 686 547 546
f 686 664 547
f 687 191 331
f 688 193 689
f 688 689 194
f 688 194 193
f 690 194 689
f 690 331 228
f 690 228 194
f 691 111 228
f 691 228 514
f 691 514 183
f 691 183 111
f 692 693 195
f 692 195 516
f 694 520 195
f 694 195 693
f 695 196 193
f 695 696 508
f 695 508 197
f 695 197 196
f 697 336 503
f 697 503 507
f 697 507 508
f 697 508 696
f 697 696 334
f 697 334 336
f 698 517 523
f 698 523 487
f 698 487 517
f 699 372 374
f 699 583 372
f 700 517 516
f 700 516 195
f 700 484 523
f 700 523 517
f 701 662 484
f 702 501 519
f 702 519 520
f 702 520 694
f 702 694 693
f 702 693 692
f 702 692 516
f 702 516 518
f 703 486 321
f 703 321 680
f 703 680 704
f 703 487 486
f 705 155 610
f 705 610 57
f 705 57 155
f 706 525 57
f 706 707 708
f 709 527 710
f 709 710 711
f 712 532 713
f 712 533 532
f 714 533 712
f 714 202 533
f 715 535 202
f 715 202 716
f 717 537 538
f 717 538 39
f 717 39 537
f 718 27 345
f 718 345 203
f 718 203 538
f 718 538 339
f 718 339 27
f 719 720 541
f 719 541 350
f 721 722 723
f 724 725 723
f 724 723 722
f 726 541 723
f 726 723 725
f 727 543 347
f 727 347 561
f 728 350 349
f 728 349 551
f 729 207 553
f 729 553 349
f 729 349 206
f 729 206 207
f 730 548 555
f 730 555 558
f 731 539 559
f 731 347 204
f 731 204 539
f 732 77 733
f 734 733 77
f 735 352 351
f 735 736 737
f 735 737 352
f 738 566 567
f 738 567 571
f 738 571 363
f 738 363 569
f 738 569 172
f 738 172 568
f 738 568 362
f 738 362 566
f 739 575 574
f 739 574 572
f 739 572 95
f 739 95 94
f 740 572 574
f 741 740 574
f 741 574 573
f 741 573 570
f 741 570 363
f 741 363 359
f 742 576 97
f 742 97 197
f 743 197 508
f 743 508 577
f 743 577 744
f 743 744 742
f 743 742 197
f 745 576 742
f 745 742 744
f 745 744 577
f 745 577 504
f 745 504 506
f 746 747 374
f 746 374 580
f 746 580 64
f 748 367 68
f 748 68 581
f 748 581 375
f 748 375 367
f 749 584 373
f 749 373 585
f 749 585 230
f 749 230 375
f 749 375 220
f 749 220 584
f 750 235 379
f 750 379 586
f 750 586 112
f 750 112 235
f 751 591 385
f 751 385 382
f 751 382 384
f 751 384 242
f 751 242 387
f 752 590 592
f 752 400 402
f 753 591 68
f 754 402 596
f 754 596 117
f 754 117 590
f 754 590 752
f 754 752 402
f 755 596 401
f 755 401 597
f 755 597 117
f 755 117 596
f 756 601 600
f 756 600 251
f 757 242 602
f 757 602 128
f 757 128 387
f 757 387 242
f 758 759 253
f 758 253 255
f 758 255 605
f 758 605 604
f 758 604 67
f 760 67 604
f 760 604 606
f 760 606 6
f 760 6 5
f 760 5 256
f 761 291 292
f 761 292 607
f 761 607 762
f 761 762 622
f 761 622 291
f 763 764 266
f 763 266 415
f 765 450 416
f 766 450 765
f 766 765 764
f 767 141 143
f 767 143 287
f 768 141 769
f 768 769 763
f 770 424 425
f 770 425 429
f 770 429 614
f 770 614 615
f 770 615 272
f 770 611 424
f 771 615 430
f 771 430 417
f 771 417 613
f 771 613 272
f 771 272 615
f 772 437 623
f 772 623 446
f 772 446 620
f 772 620 436
f 772 436 437
f 773 622 774
f 773 774 775
f 773 775 414
f 773 414 199
f 773 199 295
f 773 295 621
f 773 621 622
f 776 440 623
f 776 623 437
f 776 437 624
f 776 291 440
f 777 448 625
f 777 625 626
f 778 779 630
f 778 630 629
f 778 635 633
f 778 633 634
f 780 299 627
f 781 631 154
f 782 783 630
f 782 630 779
f 784 783 785
f 784 632 631
f 786 630 783
f 786 783 784
f 786 784 631
f 786 631 781
f 786 781 154
f 787 634 268
f 787 268 267
f 787 267 418
f 787 418 419
f 788 638 637
f 789 469 468
f 789 468 640
f 790 456 464
f 790 643 645
f 791 462 643
f 791 643 790
f 791 790 464
f 791 464 463
f 791 463 462
f 792 642 302
f 792 302 301
f 792 301 645
f 792 645 646
f 793 350 728
f 793 728 551
f 793 551 552
f 794 461 303
f 794 303 18
f 794 18 650
f 794 650 651
f 795 639 297
f 795 297 654
f 796 797 798
f 796 798 799
f 796 795 654
f 800 797 801
f 800 801 656
f 800 656 657
f 800 657 798
f 800 798 797
f 802 458 656
f 802 656 801
f 802 651 464
f 802 464 458
f 803 653 56
f 803 56 649
f 804 803 649
f 804 649 460
f 805 804 801
f 805 801 797
f 805 797 796
f 805 796 654
f 806 452 640
f 806 640 658
f 806 658 625
f 806 625 448
f 806 448 447
f 806 447 452
f 807 470 477
f 807 477 308
f 807 308 659
f 807 659 635
f 808 472 58
f 808 58 421
f 808 421 420
f 808 420 660
f 808 660 478
f 808 478 472
f 809 481 661
f 809 661 312
f 809 312 306
f 809 306 474
f 809 474 481
f 810 493 662
f 810 662 701
f 810 676 493
f 811 482 663
f 812 674 664
f 812 664 663
f 812 663 482
f 812 482 662
f 813 814 815
f 813 815 163
f 816 163 815
f 816 815 509
f 816 509 162
f 816 162 163
f 817 70 492
f 817 492 669
f 818 163 70
f 818 70 819
f 818 819 820
f 818 820 813
f 818 813 163
f 821 671 672
f 821 672 316
f 821 316 315
f 821 315 673
f 821 673 671
f 822 64 63
f 822 63 823
f 822 823 824
f 822 747 746
f 822 746 64
f 825 823 676
f 825 676 810
f 825 810 824
f 825 824 823
f 826 494 677
f 826 677 676
f 826 676 823
f 826 823 63
f 826 63 675
f 826 675 494
f 827 494 678
f 827 678 319
f 827 319 318
f 827 318 677
f 827 677 494
f 828 680 679
f 828 679 323
f 828 323 324
f 829 351 685
f 829 736 735
f 829 735 351
f 830 557 736
f 830 736 829
f 830 829 685
f 830 685 558
f 830 558 557
f 831 558 685
f 831 685 2
f 831 2 510
f 832 550 815
f 832 815 814
f 832 814 833
f 832 833 686
f 832 686 546
f 832 546 550
f 834 192 188
f 834 188 191
f 834 191 687
f 834 687 193
f 834 193 192
f 835 689 193
f 835 193 687
f 835 687 331
f 835 331 690
f 835 690 689
f 836 195 519
f 836 519 336
f 836 336 837
f 836 837 193
f 836 193 195
f 838 193 837
f 838 837 336
f 838 336 335
f 838 335 193
f 839 334 696
f 839 696 695
f 839 695 193
f 839 193 335
f 839 335 334
f 840 699 374
f 841 229 227
f 841 227 583
f 841 583 699
f 841 699 840
f 841 840 842
f 841 842 700
f 841 700 195
f 841 195 229
f 843 824 810
f 843 810 701
f 843 701 747
f 843 747 822
f 843 822 824
f 844 524 487
f 844 487 703
f 844 703 704
f 844 704 702
f 844 702 518
f 844 518 524
f 845 501 702
f 845 702 704
f 845 704 680
f 845 680 828
f 845 828 324
f 845 324 501
f 846 525 710
f 846 710 527
f 846 527 526
f 846 526 525
f 847 529 527
f 847 527 709
f 848 607 530
f 848 530 529
f 848 529 847
f 848 847 709
f 848 709 711
f 849 716 202
f 850 247 9
f 850 9 343
f 850 343 341
f 850 341 851
f 852 536 535
f 852 535 715
f 852 715 716
f 852 716 849
f 853 854 647
f 855 720 719
f 855 719 350
f 855 350 793
f 855 793 853
f 855 853 647
f 855 647 648
f 856 559 722
f 856 722 721
f 856 733 560
f 856 560 559
f 857 720 855
f 857 721 723
f 857 723 541
f 857 541 720
f 858 539 724
f 858 724 722
f 858 722 559
f 858 559 539
f 859 14 346
f 859 346 726
f 859 726 725
f 859 725 724
f 859 724 539
f 859 539 14
f 860 540 541
f 860 541 726
f 860 726 346
f 860 346 540
f 861 556 545
f 861 545 544
f 862 861 544
f 862 544 543
f 862 543 727
f 863 207 12
f 863 12 160
f 863 160 157
f 863 157 159
f 863 159 642
f 863 642 864
f 863 864 553
f 863 553 207
f 865 510 325
f 865 325 509
f 865 509 815
f 865 730 558
f 865 558 831
f 865 831 510
f 866 561 347
f 866 347 731
f 866 731 559
f 866 559 561
f 867 352 734
f 867 734 77
f 867 77 352
f 868 862 727
f 868 733 734
f 868 734 352
f 868 352 737
f 869 99 572
f 869 572 740
f 869 740 741
f 869 741 359
f 869 359 357
f 869 357 99
f 870 388 398
f 870 398 250
f 870 250 591
f 870 751 387
f 870 387 388
f 871 68 400
f 872 591 753
f 872 753 385
f 872 385 591
f 873 385 753
f 873 753 592
f 873 592 385
f 874 601 756
f 874 756 251
f 874 251 875
f 874 875 601
f 876 601 875
f 876 875 251
f 876 251 253
f 876 253 759
f 876 759 758
f 876 758 67
f 876 67 601
f 877 410 67
f 877 67 760
f 877 760 256
f 877 256 131
f 877 131 410
f 878 632 766
f 878 766 764
f 878 155 632
f 879 155 878
f 879 878 764
f 879 764 763
f 879 763 609
f 879 609 155
f 880 609 763
f 880 881 57
f 880 57 609
f 882 764 883
f 882 883 416
f 882 416 149
f 882 149 266
f 882 266 764
f 884 764 765
f 884 765 416
f 885 785 788
f 885 449 450
f 885 450 766
f 885 766 632
f 885 632 784
f 885 784 785
f 886 887 888
f 889 415 141
f 889 141 768
f 889 768 763
f 889 763 415
f 890 426 611
f 890 611 770
f 890 770 272
f 890 272 271
f 890 271 426
f 891 887 886
f 891 886 287
f 891 287 338
f 891 338 198
f 892 893 888
f 892 888 887
f 894 895 774
f 894 774 622
f 894 622 762
f 894 762 896
f 897 898 895
f 897 895 894
f 899 895 414
f 900 439 291
f 900 291 776
f 900 776 624
f 900 624 125
f 900 125 293
f 900 293 439
f 901 470 807
f 901 807 635
f 901 777 626
f 901 626 470
f 902 627 448
f 902 448 777
f 903 299 780
f 903 780 778
f 904 638 788
f 904 788 785
f 905 904 785
f 905 785 783
f 905 783 782
f 905 782 779
f 906 630 786
f 906 786 154
f 906 154 630
f 907 449 885
f 907 885 788
f 907 788 637
f 907 637 449
f 908 469 789
f 908 799 798
f 908 798 657
f 908 657 476
f 908 476 469
f 909 300 454
f 909 454 456
f 909 456 790
f 909 790 645
f 909 645 301
f 909 301 300
f 910 554 553
f 910 553 864
f 910 864 642
f 910 642 792
f 910 792 646
f 910 646 554
f 911 793 647
f 912 554 646
f 913 554 912
f 913 459 647
f 913 793 552
f 913 552 554
f 914 639 795
f 914 789 640
f 914 640 639
f 915 789 914
f 915 914 795
f 915 795 796
f 915 796 799
f 915 799 908
f 915 908 789
f 916 653 803
f 916 803 804
f 916 804 805
f 916 805 654
f 916 654 467
f 916 467 652
f 916 652 653
f 917 651 802
f 917 802 801
f 917 801 804
f 917 804 460
f 917 460 461
f 917 461 794
f 917 794 651
f 918 666 482
f 919 666 918
f 919 918 482
f 919 811 488
f 919 488 666
f 920 489 488
f 920 488 811
f 920 673 489
f 921 811 663
f 922 493 674
f 922 674 812
f 922 812 662
f 922 662 493
f 923 819 70
f 923 70 817
f 923 817 820
f 923 820 819
f 924 840 374
f 924 374 747
f 924 747 701
f 925 840 924
f 926 927 706
f 926 706 708
f 928 710 525
f 929 607 848
f 929 848 711
f 929 711 896
f 929 896 762
f 929 762 607
f 930 931 530
f 930 530 607
f 930 607 608
f 932 528 530
f 932 530 931
f 932 931 713
f 932 713 532
f 932 532 531
f 932 531 528
f 933 934 714
f 933 714 712
f 933 712 713
f 935 849 202
f 935 202 714
f 936 850 851
f 936 851 341
f 936 341 534
f 936 534 536
f 937 934 933
f 937 933 713
f 937 713 931
f 938 854 853
f 938 853 793
f 938 793 911
f 938 911 647
f 938 647 854
f 939 721 857
f 939 857 855
f 939 855 648
f 939 648 77
f 940 556 861
f 940 861 862
f 940 862 868
f 940 868 737
f 940 737 736
f 940 736 557
f 940 557 556
f 941 730 865
f 941 865 815
f 941 815 550
f 941 550 548
f 941 548 730
f 942 560 733
f 942 733 868
f 942 868 727
f 942 727 561
f 942 561 560
f 943 745 944
f 943 944 94
f 943 94 576
f 943 576 745
f 945 506 364
f 945 364 575
f 945 745 506
f 946 751 870
f 946 870 591
f 946 591 751
f 947 753 68
f 947 68 871
f 947 871 752
f 947 752 592
f 948 752 871
f 948 871 400
f 948 400 752
f 949 57 881
f 950 764 884
f 950 884 416
f 950 416 883
f 950 883 764
f 951 706 57
f 951 949 881
f 951 881 880
f 951 880 763
f 952 767 886
f 952 886 769
f 952 769 141
f 952 141 767
f 953 287 886
f 953 886 767
f 953 767 287
f 954 198 200
f 954 200 414
f 955 956 892
f 955 892 887
f 955 887 891
f 957 896 711
f 957 897 894
f 957 894 896
f 958 895 899
f 958 899 414
f 958 414 775
f 958 775 774
f 958 774 895
f 959 901 635
f 959 635 778
f 959 778 780
f 959 780 627
f 959 627 902
f 959 902 777
f 959 777 901
f 960 299 903
f 960 903 778
f 960 778 629
f 960 629 299
f 961 905 779
f 962 904 905
f 962 787 419
f 962 419 638
f 962 638 904
f 963 644 643
f 963 643 462
f 963 462 459
f 963 459 912
f 963 912 646
f 963 646 644
f 964 793 913
f 964 913 647
f 964 647 793
f 965 459 913
f 965 913 912
f 965 912 459
f 966 811 919
f 966 919 482
f 966 482 811
f 967 920 811
f 967 811 921
f 967 673 920
f 968 686 833
f 968 833 814
f 968 664 686
f 969 669 672
f 969 820 817
f 969 817 669
f 970 664 968
f 971 700 842
f 971 842 840
f 971 840 925
f 971 925 484
f 971 484 700
f 972 701 484
f 972 484 925
f 972 925 924
f 972 924 701
f 973 710 928
f 973 928 897
f 973 897 957
f 973 957 711
f 973 711 710
f 974 927 926
f 974 926 893
f 974 893 892
f 974 928 525
f 974 525 706
f 974 706 927
f 975 248 247
f 975 247 850
f 975 850 937
f 975 930 608
f 975 608 248
f 976 536 852
f 976 852 977
f 976 977 850
f 978 977 852
f 978 937 850
f 978 850 977
f 979 856 721
f 979 721 939
f 979 939 77
f 979 77 732
f 979 732 733
f 979 733 856
f 980 739 94
f 980 945 575
f 980 575 739
f 981 753 947
f 981 947 592
f 981 592 753
f 982 706 951
f 983 949 951
f 983 951 57
f 983 57 949
f 984 895 898
f 984 954 414
f 984 414 895
f 985 892 956
f 985 956 898
f 985 898 897
f 985 897 928
f 985 928 974
f 985 974 892
f 986 891 198
f 986 198 954
f 987 787 961
f 987 961 779
f 987 779 778
f 987 778 634
f 987 634 787
f 988 961 787
f 988 787 962
f 988 962 905
f 988 905 961
f 989 665 673
f 989 673 967
f 989 967 921
f 989 921 663
f 989 663 665
f 990 991 968
f 990 968 814
f 990 814 813
f 990 813 820
f 990 820 969
f 990 969 991
f 992 671 670
f 992 670 664
f 992 664 970
f 992 970 968
f 992 968 991
f 992 991 969
f 992 969 672
f 992 672 671
f 993 931 930
f 993 930 975
f 993 975 937
f 993 937 931
f 994 936 536
f 994 536 976
f 994 976 850
f 994 850 936
f 995 934 937
f 995 937 978
f 995 978 852
f 995 852 849
f 995 849 935
f 995 935 714
f 995 714 934
f 996 944 745
f 996 745 945
f 996 945 980
f 996 980 94
f 996 94 944
f 997 707 706
f 997 706 982
f 997 982 951
f 997 888 893
f 997 893 926
f 997 926 708
f 997 708 707
f 998 763 769
f 998 769 999
f 998 999 951
f 998 951 763
f 1000 951 999
f 1000 999 769
f 1000 769 886
f 1000 886 888
f 1000 888 997
f 1000 997 951
f 1001 956 955
f 1001 955 891
f 1001 891 986
f 1001 986 954
f 1001 954 984
f 1001 984 898
f 1001 898 956
