# Convex hull collision mesh — generated by scripts/generate-collision-meshes.mjs (units: meters)
v -0.002105 0.015000 -0.006938
v -0.006394 0.015000 -0.003418
v 0.002774 0.015000 -0.006698
v -0.004302 0.005259 0.008071
v -0.006684 0.005138 0.006270
v -0.004313 0.004975 0.008091
v 0.000000 0.015000 0.007250
v 0.004028 0.015000 -0.006028
v 0.000711 0.015000 -0.007215
v -0.004028 0.015000 -0.006028
v -0.004636 0.014750 0.005895
v -0.004055 0.014750 0.006309
v -0.005176 0.014750 0.005428
v -0.006028 0.015000 0.004028
v 0.005127 0.015000 0.005127
v 0.000000 -0.000000 -0.007711
v 0.007014 -0.000000 0.003203
v -0.007287 -0.000000 0.002522
v -0.008954 0.005138 0.001952
v -0.008743 0.005138 0.002745
v -0.007289 0.014750 0.001768
v -0.012430 0.003403 -0.012430
v 0.009140 0.005259 -0.000310
v 0.008771 0.005138 0.002653
v 0.009164 0.004975 -0.000310
v 0.001419 0.014750 -0.007364
v 0.002113 0.014750 -0.007196
v 0.001994 0.005138 -0.008944
v 0.001996 0.004975 -0.008949
v 0.002788 0.004975 -0.008735
v -0.005668 0.014750 -0.004911
v -0.005176 0.014750 -0.005428
v -0.006109 0.014750 -0.004350
v -0.006495 0.014750 -0.003750
v 0.001414 0.015000 -0.007111
v -0.004636 0.014750 -0.005895
v -0.004055 0.014750 -0.006309
v -0.002774 0.015000 -0.006698
v -0.002787 0.014750 -0.006963
v -0.007492 0.014750 -0.000357
v -0.007424 0.014750 -0.001067
v -0.007492 0.014750 0.000357
v -0.007289 0.014750 -0.001768
v -0.007088 0.014750 -0.002453
v -0.004169 -0.000000 0.006487
v -0.002774 0.015000 0.006698
v -0.000713 0.014750 0.007466
v 0.000000 0.014750 0.007500
v -0.003546 0.004759 0.008425
v -0.004291 0.004696 0.008052
v -0.007215 0.015000 0.000711
v -0.004599 0.015000 0.005604
v -0.005604 0.015000 0.004599
v -0.006109 0.014750 0.004350
v 0.002774 0.015000 0.006698
v 0.007215 0.015000 0.000711
v 0.002787 0.014750 0.006963
v 0.003437 0.014750 0.006666
v -0.006281 -0.000000 -0.004473
v -0.002866 -0.000000 -0.007159
v -0.008959 0.004975 0.001954
v 0.002787 0.014750 -0.006963
v 0.003437 0.014750 -0.006666
v 0.003418 0.015000 -0.006394
v 0.007746 0.005138 0.004897
v 0.008154 0.005138 0.004183
v 0.006495 0.014750 0.003750
v 0.007702 -0.000000 0.000367
v 0.001989 0.004759 -0.008921
v 0.002189 0.000220 -0.007695
v 0.002779 0.004759 -0.008708
v -0.005604 0.015000 -0.004599
v -0.006822 0.014750 -0.003116
v -0.002113 0.014750 -0.007196
v -0.001419 0.014750 -0.007364
v -0.000711 0.015000 -0.007215
v 0.002105 0.015000 -0.006938
v -0.003437 0.014750 -0.006666
v -0.008463 0.005138 0.003515
v -0.008468 0.004975 0.003517
v -0.008114 0.005138 0.004260
v -0.006822 0.014750 0.003116
v -0.006495 0.014750 0.003750
v -0.007699 0.005138 0.004970
v -0.007223 0.005138 0.005640
v -0.004211 0.000220 0.006802
v -0.004821 0.000220 0.006384
v -0.005321 -0.000000 0.005581
v -0.008093 0.004759 0.004249
v -0.007161 0.000220 0.003566
v -0.006802 0.000220 0.004211
v -0.001414 0.015000 0.007111
v -0.000368 0.005138 0.009157
v -0.001187 0.005138 0.009087
v -0.001419 0.014750 0.007364
v -0.001994 0.005138 0.008944
v -0.002788 0.004975 0.008735
v -0.002786 0.005138 0.008730
v -0.003555 0.005138 0.008446
v -0.002787 0.014750 0.006963
v -0.006938 0.015000 0.002105
v -0.007111 0.015000 -0.001414
v -0.007424 0.014750 0.001067
v -0.004028 0.015000 0.006028
v -0.005668 0.014750 0.004911
v -0.005127 0.015000 0.005127
v 0.001414 0.015000 0.007111
v 0.004028 0.015000 0.006028
v 0.006698 0.015000 0.002774
v 0.000713 0.014750 0.007466
v 0.006168 0.005138 0.006778
v 0.006749 0.005138 0.006199
v 0.005176 0.014750 0.005428
v 0.006731 0.004759 0.006184
v 0.006152 0.004759 0.006760
v 0.005390 0.000220 0.005912
v 0.002082 0.004759 0.008900
v 0.004828 0.004696 0.007742
v 0.004851 0.004975 0.007781
v -0.007494 -0.000000 -0.001818
v 0.001470 0.000220 -0.007864
v -0.004844 0.000028 -0.006160
v -0.004237 0.000028 -0.006593
v -0.004806 0.000007 -0.006112
v -0.003591 0.000028 -0.006966
v -0.002913 0.000028 -0.007276
v -0.004767 -0.000000 -0.006061
v -0.006254 0.000028 -0.004723
v -0.006384 0.000028 -0.004546
v -0.006663 0.000028 -0.004126
v -0.008748 0.004975 0.002746
v -0.008721 0.004759 0.002738
v -0.008931 0.004759 0.001947
v -0.007804 0.000106 0.001459
v -0.007864 0.000220 0.001470
v 0.002786 0.005138 -0.008730
v 0.003555 0.005138 -0.008446
v 0.009119 0.004696 -0.000310
v 0.007966 0.000220 0.000738
v 0.008000 0.000220 -0.000000
v 0.007966 0.000220 -0.000738
v 0.009069 0.004759 -0.001141
v 0.007906 0.000106 0.000733
v 0.007864 0.000220 0.001470
v 0.005827 -0.000000 -0.005050
v 0.008749 0.004759 0.002647
v 0.007460 0.000220 0.002890
v 0.008474 0.004759 0.003426
v 0.006109 0.014750 -0.004350
v 0.007223 0.005138 -0.005640
v 0.005668 0.014750 -0.004911
v 0.007111 0.015000 -0.001414
v 0.007699 0.005138 -0.004970
v 0.006495 0.014750 -0.003750
v 0.008463 0.005138 -0.003515
v 0.007088 0.014750 -0.002453
v 0.008743 0.005138 -0.002745
v 0.002890 0.000220 -0.007460
v 0.006684 0.005138 -0.006270
v 0.004055 0.014750 -0.006309
v 0.004636 0.014750 -0.005895
v -0.004599 0.015000 -0.005604
v -0.006028 0.015000 -0.004028
v -0.001414 0.015000 -0.007111
v 0.000713 0.014750 -0.007466
v 0.000000 0.014750 -0.007500
v 0.000000 0.015000 -0.007250
v -0.000713 0.014750 -0.007466
v -0.003418 0.015000 -0.006394
v -0.006667 0.004759 0.006253
v -0.007204 0.004759 0.005626
v -0.005912 0.000220 0.005390
v -0.003566 0.000220 0.007161
v -0.006281 -0.000000 0.004473
v -0.005238 0.000007 0.005746
v -0.005746 0.000007 0.005238
v -0.004180 0.000106 0.006750
v -0.004155 0.000061 0.006710
v -0.003518 0.000061 0.007065
v -0.004756 0.000061 0.006298
v -0.006750 0.000106 0.004180
v -0.006384 0.000220 0.004821
v -0.007695 0.000220 0.002189
v -0.007460 0.000220 0.002890
v -0.007637 0.000106 0.002173
v -0.007403 0.000106 0.002868
v -0.008118 0.004975 0.004262
v -0.008441 0.004759 0.003506
v -0.003437 0.014750 0.006666
v -0.000711 0.015000 0.007215
v -0.002105 0.015000 0.006938
v 0.000454 0.005138 0.009153
v 0.001273 0.005138 0.009075
v -0.002779 0.004759 0.008708
v -0.001470 0.000220 0.007864
v -0.000738 0.000220 0.007966
v -0.001184 0.004759 0.009063
v -0.003557 0.004975 0.008451
v -0.007088 0.014750 0.002453
v -0.007111 0.015000 0.001414
v -0.006698 0.015000 0.002774
v -0.006698 0.015000 -0.002774
v -0.007215 0.015000 -0.000711
v 0.002105 0.015000 0.006938
v 0.002113 0.014750 0.007196
v 0.004599 0.015000 0.005604
v 0.003418 0.015000 0.006394
v 0.004055 0.014750 0.006309
v 0.006028 0.015000 0.004028
v 0.009092 0.005138 -0.001144
v 0.007492 0.014750 -0.000357
v 0.004838 0.005259 0.007761
v 0.001419 0.014750 0.007364
v 0.000711 0.015000 0.007215
v -0.000733 -0.000000 0.007676
v 0.004908 0.000106 0.006241
v 0.005479 0.000106 0.005746
v 0.005537 0.005138 0.007302
v 0.005912 0.000220 0.005390
v 0.000745 0.000028 0.007801
v 0.000750 0.000061 0.007857
v 0.000000 0.000028 0.007837
v 0.002088 0.005138 0.008923
v 0.001270 0.004759 0.009052
v 0.000453 0.004759 0.009129
v 0.000738 0.000220 0.007966
v 0.002890 0.000220 0.007460
v 0.003566 0.000220 0.007161
v 0.000000 0.000220 0.008000
v 0.000000 0.000160 0.007976
v -0.000733 0.000106 0.007906
v -0.007702 -0.000000 0.000367
v -0.000745 0.000028 -0.007801
v 0.000000 0.000028 -0.007837
v 0.000000 0.000007 -0.007775
v -0.000739 0.000007 -0.007740
v -0.001483 0.000028 -0.007695
v -0.001459 -0.000000 -0.007572
v -0.005408 0.000028 -0.005672
v -0.005792 0.000028 -0.005280
v -0.002890 0.000007 -0.007218
v -0.002208 0.000028 -0.007519
v -0.002191 0.000007 -0.007460
v -0.005923 0.000028 -0.005132
v -0.006205 0.000007 -0.004686
v -0.005321 -0.000000 -0.005581
v -0.007129 0.000028 -0.003256
v -0.007308 0.000028 -0.002831
v -0.007015 0.000028 -0.003493
v -0.007906 0.000106 0.000733
v -0.007859 0.000061 0.000728
v -0.007812 0.000061 0.001123
v -0.007670 0.000061 0.001861
v -0.007406 0.000028 -0.002563
v -0.007538 0.000028 -0.002145
v -0.007884 0.000061 -0.000376
v -0.007859 0.000061 -0.000728
v -0.007893 0.000061 0.000000
v 0.004302 0.005259 -0.008071
v 0.004313 0.004975 -0.008091
v 0.007864 0.000220 -0.001470
v 0.008501 0.004975 0.003437
v 0.008496 0.005138 0.003435
v 0.006109 0.014750 0.004350
v 0.007940 0.000106 0.000000
v 0.007494 -0.000000 0.001818
v 0.007702 -0.000000 -0.000367
v 0.004169 -0.000000 -0.006487
v 0.008774 0.004930 0.002654
v 0.007804 0.000106 0.001459
v 0.007670 0.000061 0.001861
v 0.007758 0.000061 0.001450
v 0.007695 0.000220 0.002189
v 0.007403 0.000106 0.002868
v 0.006384 0.000220 -0.004821
v 0.005912 0.000220 -0.005390
v 0.007204 0.004759 -0.005626
v 0.005604 0.015000 -0.004599
v 0.007215 0.015000 -0.000711
v 0.006938 0.015000 -0.002105
v 0.004211 0.000220 -0.006802
v 0.003566 0.000220 -0.007161
v 0.004291 0.004696 -0.008052
v 0.004821 0.000220 -0.006384
v 0.004785 0.000106 -0.006336
v 0.005390 0.000220 -0.005912
v 0.003546 0.004759 -0.008425
v 0.006685 0.004930 -0.006271
v 0.005176 0.014750 -0.005428
v -0.005127 0.015000 -0.005127
v -0.007704 0.004975 0.004973
v -0.006685 0.004930 0.006271
v -0.006678 -0.000000 0.003855
v -0.005827 -0.000000 0.005050
v -0.003493 0.000028 0.007015
v -0.002831 0.000028 0.007308
v -0.004767 -0.000000 0.006061
v -0.003539 0.000106 0.007107
v -0.005390 0.000220 0.005912
v -0.005349 0.000106 0.005867
v -0.004785 0.000106 0.006336
v -0.005317 0.000061 0.005833
v -0.006000 0.000106 0.005199
v -0.006787 0.000028 0.003918
v -0.007065 0.000061 0.003518
v -0.007015 0.000028 0.003493
v -0.006710 0.000061 0.004155
v -0.006663 0.000028 0.004126
v -0.006429 0.000061 0.004578
v -0.006467 0.000106 0.004605
v -0.007348 0.000007 0.002543
v -0.007479 0.000007 0.002128
v -0.007250 0.000007 0.002809
v -0.007538 0.000028 0.002145
v -0.007107 0.000106 0.003539
v -0.007458 0.000061 0.002581
v -0.003418 0.015000 0.006394
v -0.002113 0.014750 0.007196
v 0.000455 0.004975 0.009158
v -0.006394 0.015000 0.003418
v -0.006938 0.015000 -0.002105
v -0.007250 0.015000 -0.000000
v 0.004636 0.014750 0.005895
v 0.006394 0.015000 0.003418
v 0.007088 0.014750 0.002453
v 0.007289 0.014750 0.001768
v 0.007424 0.014750 0.001067
v 0.007111 0.015000 0.001414
v 0.007289 0.014750 -0.001768
v 0.009097 0.004975 -0.001145
v 0.004169 -0.000000 0.006487
v 0.008158 0.004975 0.004185
v 0.006802 0.000220 0.004211
v 0.007726 0.004759 0.004884
v 0.006384 0.000220 0.004821
v 0.005321 -0.000000 0.005581
v 0.005523 0.004759 0.007283
v 0.006171 0.004975 0.006782
v 0.001470 0.000220 0.007864
v 0.000755 0.000106 0.007904
v 0.001503 0.000106 0.007796
v 0.000000 0.000007 0.007775
v -0.000723 0.000028 0.007803
v 0.002089 0.004930 0.008925
v 0.002189 0.000220 0.007695
v 0.002237 0.000106 0.007618
v 0.002951 0.000106 0.007371
v -0.000367 0.004759 0.009133
v 0.000000 0.000061 0.007893
v -0.007632 -0.000000 0.001097
v 0.002868 0.000106 -0.007403
v 0.003539 0.000106 -0.007107
v 0.002173 0.000106 -0.007637
v 0.002145 0.000028 -0.007538
v 0.002831 0.000028 -0.007308
v 0.002809 0.000007 -0.007250
v 0.001429 0.000007 -0.007643
v 0.001440 0.000028 -0.007703
v 0.001459 0.000106 -0.007804
v 0.000733 0.000106 -0.007906
v 0.000723 0.000028 -0.007803
v -0.001472 0.000007 -0.007635
v -0.000733 -0.000000 -0.007676
v -0.002172 -0.000000 -0.007399
v -0.005366 0.000007 -0.005627
v -0.005746 0.000007 -0.005238
v -0.003563 0.000007 -0.006911
v -0.005876 0.000007 -0.005092
v -0.007014 -0.000000 -0.003203
v -0.006787 0.000028 -0.003918
v -0.006960 0.000007 -0.003466
v -0.006611 0.000007 -0.004093
v -0.007742 0.000007 0.000717
v -0.007696 0.000007 0.001107
v -0.007837 0.000028 0.000000
v -0.007775 0.000007 0.000000
v -0.007828 0.000028 0.000373
v -0.007884 0.000061 0.000376
v -0.007758 0.000061 0.001450
v -0.007703 0.000028 0.001440
v -0.007616 0.000028 0.001848
v -0.007643 0.000007 0.001429
v -0.007757 0.000028 0.001115
v -0.007616 0.000028 -0.001848
v -0.007348 0.000007 -0.002543
v -0.007479 0.000007 -0.002128
v -0.007250 0.000007 -0.002809
v -0.007632 -0.000000 -0.001097
v -0.007742 0.000007 -0.000717
v -0.007696 0.000007 -0.001107
v -0.007803 0.000028 -0.000723
v -0.007757 0.000028 -0.001115
v 0.007458 0.000061 -0.002581
v 0.007591 0.000061 -0.002160
v 0.007538 0.000028 -0.002145
v 0.007406 0.000028 -0.002563
v 0.007403 0.000106 -0.002868
v 0.007637 0.000106 -0.002173
v 0.007680 0.004759 -0.004957
v 0.006802 0.000220 -0.004211
v 0.007161 0.000220 -0.003566
v 0.007460 0.000220 -0.002890
v 0.007107 0.000106 -0.003539
v 0.007695 0.000220 -0.002189
v 0.007804 0.000106 -0.001459
v 0.008721 0.004759 -0.002738
v 0.008441 0.004759 -0.003506
v 0.008748 0.004975 -0.002746
v 0.005604 0.015000 0.004599
v 0.007906 0.000106 -0.000733
v 0.007632 -0.000000 0.001097
v 0.007742 0.000007 0.000717
v 0.007348 0.000007 -0.002543
v 0.007479 0.000007 -0.002128
v 0.007632 -0.000000 -0.001097
v 0.002172 -0.000000 -0.007399
v 0.007479 0.000007 0.002128
v 0.007556 0.000007 0.001833
v 0.007250 0.000007 0.002809
v 0.007073 0.000007 0.003230
v 0.007287 -0.000000 0.002522
v 0.007348 0.000007 0.002543
v 0.006467 0.000106 -0.004605
v 0.007250 0.015000 -0.000000
v 0.006822 0.014750 -0.003116
v 0.006394 0.015000 -0.003418
v 0.004180 0.000106 -0.006750
v 0.004756 0.000061 -0.006298
v 0.004155 0.000061 -0.006710
v 0.005349 0.000106 -0.005867
v 0.003557 0.004975 -0.008451
v 0.006667 0.004759 -0.006253
v 0.007227 0.004975 -0.005643
v 0.004599 0.015000 -0.005604
v -0.007680 0.004759 0.004957
v -0.007227 0.004975 0.005643
v -0.006960 0.000007 0.003466
v -0.006734 0.000007 0.003888
v -0.007073 0.000007 0.003230
v -0.007014 -0.000000 0.003203
v -0.001459 0.000106 0.007804
v -0.002189 0.000220 0.007695
v -0.002173 0.000106 0.007637
v -0.004686 0.000007 0.006205
v -0.002890 0.000220 0.007460
v -0.002868 0.000106 0.007403
v -0.005280 0.000028 0.005792
v -0.006205 0.000007 0.004686
v -0.006334 0.000007 0.004510
v -0.006611 0.000007 0.004093
v -0.006835 0.000061 0.003946
v -0.006336 0.000106 0.004785
v -0.005965 0.000061 0.005169
v -0.007179 0.000061 0.003279
v -0.007406 0.000028 0.002563
v -0.007591 0.000061 0.002160
v -0.001989 0.004759 0.008921
v -0.001996 0.004975 0.008949
v -0.001188 0.004975 0.009092
v 0.006822 0.014750 0.003116
v 0.007492 0.014750 0.000357
v 0.006938 0.015000 0.002105
v 0.007424 0.014750 -0.001067
v 0.008954 0.005138 -0.001952
v -0.002809 0.000007 0.007250
v -0.002128 0.000007 0.007479
v -0.002145 0.000028 0.007538
v -0.001429 0.000007 0.007643
v -0.001440 0.000028 0.007703
v 0.002890 0.000007 0.007218
v 0.002208 0.000028 0.007519
v 0.002191 0.000007 0.007460
v 0.004204 0.000007 0.006541
v 0.004806 0.000007 0.006112
v 0.001459 -0.000000 0.007572
v 0.001472 0.000007 0.007635
v 0.001494 0.000061 0.007750
v 0.007750 0.004975 0.004900
v 0.007280 0.004975 0.005575
v 0.006753 0.004975 0.006203
v 0.007257 0.004759 0.005557
v 0.007276 0.005138 0.005571
v 0.006281 -0.000000 0.004473
v 0.004767 -0.000000 0.006061
v 0.006835 0.000061 0.003946
v 0.006787 0.000028 0.003918
v 0.007065 0.000061 0.003518
v 0.007107 0.000106 0.003539
v 0.006750 0.000106 0.004180
v 0.006960 0.000007 0.003466
v 0.005867 0.000106 0.005349
v 0.005540 0.004975 0.007306
v 0.004821 0.000220 0.006384
v 0.004292 0.000106 0.006679
v 0.001274 0.004975 0.009080
v 0.002933 0.000061 0.007327
v 0.003638 0.000106 0.007057
v -0.000368 0.004975 0.009162
v 0.000000 0.000106 0.007940
v -0.000728 0.000061 0.007859
v -0.007494 -0.000000 0.001818
v 0.002851 0.000061 -0.007360
v 0.002160 0.000061 -0.007591
v 0.000717 0.000007 -0.007742
v -0.000750 0.000061 -0.007857
v 0.000000 0.000061 -0.007893
v 0.000728 0.000061 -0.007859
v -0.004204 0.000007 -0.006541
v -0.005827 -0.000000 -0.005050
v -0.007073 0.000007 -0.003230
v -0.006334 0.000007 -0.004510
v -0.006678 -0.000000 -0.003855
v -0.007767 0.000007 0.000370
v -0.007828 0.000028 -0.000373
v -0.007556 0.000007 0.001833
v -0.007803 0.000028 0.000723
v -0.007643 0.000007 -0.001429
v -0.007556 0.000007 -0.001833
v -0.007287 -0.000000 -0.002522
v -0.007702 -0.000000 -0.000367
v 0.007179 0.000061 -0.003279
v 0.008931 0.004759 -0.001947
v 0.008093 0.004759 -0.004249
v 0.008118 0.004975 -0.004262
v 0.005668 0.014750 0.004911
v 0.007616 0.000028 0.001848
v 0.007812 0.000061 0.001123
v 0.007643 0.000007 0.001429
v 0.007884 0.000061 -0.000376
v 0.007893 0.000061 0.000000
v 0.007828 0.000028 -0.000373
v 0.007859 0.000061 -0.000728
v 0.007643 0.000007 -0.001429
v 0.007696 0.000007 -0.001107
v 0.007703 0.000028 -0.001440
v 0.007812 0.000061 -0.001123
v 0.007758 0.000061 -0.001450
v 0.007670 0.000061 -0.001861
v 0.007803 0.000028 -0.000723
v 0.004767 -0.000000 -0.006061
v 0.004686 0.000007 -0.006205
v 0.005238 0.000007 -0.005746
v 0.000733 -0.000000 -0.007676
v 0.002128 0.000007 -0.007479
v 0.004126 0.000028 -0.006663
v 0.004723 0.000028 -0.006254
v 0.002866 -0.000000 -0.007159
v 0.003466 0.000007 -0.006960
v 0.003518 0.000061 -0.007065
v 0.005876 0.000007 -0.005092
v 0.005792 0.000028 -0.005280
v 0.005923 0.000028 -0.005132
v 0.008133 0.004759 0.004172
v 0.007161 0.000220 0.003566
v 0.007360 0.000061 0.002851
v 0.007458 0.000061 0.002581
v 0.007637 0.000106 0.002173
v 0.006750 0.000106 -0.004180
v 0.006429 0.000061 -0.004578
v 0.006835 0.000061 -0.003946
v 0.005867 0.000106 -0.005349
v 0.005833 0.000061 -0.005317
v 0.006028 0.015000 -0.004028
v 0.006698 0.015000 -0.002774
v 0.007704 0.004975 -0.004973
v 0.005127 0.015000 -0.005127
v -0.001450 0.000061 0.007758
v -0.004126 0.000028 0.006663
v -0.004723 0.000028 0.006254
v -0.005792 0.000028 0.005280
v -0.005867 0.000106 0.005349
v -0.005876 0.000007 0.005092
v -0.006298 0.000061 0.004756
v -0.007308 0.000028 0.002831
v 0.008959 0.004975 -0.001954
v -0.002851 0.000061 0.007360
v -0.003466 0.000007 0.006960
v -0.002866 -0.000000 0.007159
v -0.000717 0.000007 0.007742
v 0.003563 0.000007 0.006911
v 0.003591 0.000028 0.006966
v 0.004237 0.000028 0.006593
v 0.002866 -0.000000 0.007159
v 0.000000 -0.000000 0.007711
v 0.000739 0.000007 0.007740
v 0.001483 0.000028 0.007695
v 0.006678 -0.000000 0.003855
v 0.006611 0.000007 0.004093
v 0.006734 0.000007 0.003888
v 0.007015 0.000028 0.003493
v 0.007129 0.000028 0.003256
v 0.006710 0.000061 0.004155
v 0.006429 0.000061 0.004578
v 0.006467 0.000106 0.004605
v 0.005366 0.000007 0.005627
v 0.005446 0.000061 0.005712
v 0.004211 0.000220 0.006802
v 0.002224 0.000061 0.007573
v 0.002913 0.000028 0.007276
v 0.003617 0.000061 0.007015
v 0.001450 0.000061 -0.007758
v -0.004169 -0.000000 -0.006487
v -0.006734 0.000007 -0.003888
v -0.007767 0.000007 -0.000370
v -0.007703 0.000028 -0.001440
v 0.007360 0.000061 -0.002851
v 0.008114 0.005138 -0.004260
v 0.008468 0.004975 -0.003517
v 0.007591 0.000061 0.002160
v 0.007696 0.000007 0.001107
v 0.007803 0.000028 0.000723
v 0.007757 0.000028 0.001115
v 0.007703 0.000028 0.001440
v 0.007837 0.000028 0.000000
v 0.007884 0.000061 0.000376
v 0.007065 0.000061 -0.003518
v 0.007494 -0.000000 -0.001818
v 0.007742 0.000007 -0.000717
v 0.007767 0.000007 -0.000370
v 0.007616 0.000028 -0.001848
v 0.007757 0.000028 -0.001115
v 0.005321 -0.000000 -0.005581
v 0.001459 -0.000000 -0.007572
v 0.004093 0.000007 -0.006611
v 0.003533 -0.000000 -0.006854
v 0.003493 0.000028 -0.007015
v 0.005280 0.000028 -0.005792
v 0.006205 0.000007 -0.004686
v 0.007179 0.000061 0.003279
v 0.005965 0.000061 -0.005169
v 0.006710 0.000061 -0.004155
v 0.006663 0.000028 -0.004126
v 0.006000 0.000106 -0.005199
v -0.005833 0.000061 0.005317
v -0.006384 0.000028 0.004546
v -0.007129 0.000028 0.003256
v -0.007360 0.000061 0.002851
v -0.002160 0.000061 0.007591
v -0.004093 0.000007 0.006611
v -0.001459 -0.000000 0.007572
v -0.003533 -0.000000 0.006854
v 0.004879 0.000061 0.006204
v 0.003533 -0.000000 0.006854
v 0.002172 -0.000000 0.007399
v 0.000733 -0.000000 0.007676
v 0.006334 0.000007 0.004510
v 0.006205 0.000007 0.004686
v 0.006663 0.000028 0.004126
v 0.006336 0.000106 0.004785
v 0.005746 0.000007 0.005238
v 0.004267 0.000061 0.006640
v -0.003533 -0.000000 -0.006854
v 0.007308 0.000028 -0.002831
v 0.007250 0.000007 -0.002809
v 0.007308 0.000028 0.002831
v 0.007406 0.000028 0.002563
v 0.007538 0.000028 0.002145
v 0.007767 0.000007 0.000370
v 0.007828 0.000028 0.000373
v 0.007859 0.000061 0.000728
v 0.006787 0.000028 -0.003918
v 0.007015 0.000028 -0.003493
v 0.006960 0.000007 -0.003466
v 0.006611 0.000007 -0.004093
v 0.006334 0.000007 -0.004510
v 0.007556 0.000007 -0.001833
v 0.007014 -0.000000 -0.003203
v 0.005746 0.000007 -0.005238
v 0.005317 0.000061 -0.005833
v 0.006254 0.000028 -0.004723
v 0.006336 0.000106 -0.004785
v -0.006254 0.000028 0.004723
v -0.002172 -0.000000 0.007399
v 0.004844 0.000028 0.006160
v 0.005408 0.000028 0.005672
v 0.006254 0.000028 0.004723
v 0.005923 0.000028 0.005132
v 0.005833 0.000061 0.005317
v 0.005965 0.000061 0.005169
v 0.006000 0.000106 0.005199
v 0.006298 0.000061 0.004756
v 0.005827 -0.000000 0.005050
v 0.005876 0.000007 0.005092
v 0.005792 0.000028 0.005280
v 0.007129 0.000028 -0.003256
v 0.007775 0.000007 0.000000
v 0.006734 0.000007 -0.003888
v 0.006281 -0.000000 -0.004473
v 0.007287 -0.000000 -0.002522
v 0.007073 0.000007 -0.003230
v 0.006384 0.000028 -0.004546
v 0.006298 0.000061 -0.004756
v -0.005923 0.000028 0.005132
v 0.006384 0.000028 0.004546
v 0.006678 -0.000000 -0.003855
f 1 2 3
f 4 5 6
f 7 3 2
f 8 3 7
f 9 1 3
f 10 2 1
f 11 5 4
f 11 4 12
f 11 13 5
f 14 7 2
f 15 8 7
f 16 17 18
f 19 20 21
f 19 21 22
f 23 24 25
f 26 27 28
f 26 28 22
f 29 22 28
f 29 28 30
f 31 32 22
f 31 22 33
f 34 33 22
f 35 27 26
f 35 26 9
f 35 9 3
f 36 22 32
f 37 22 36
f 37 36 10
f 38 10 1
f 38 1 39
f 40 41 22
f 40 22 42
f 43 44 22
f 43 22 41
f 45 18 17
f 46 7 14
f 47 48 7
f 49 6 50
f 51 14 2
f 52 46 14
f 52 13 11
f 53 52 14
f 53 14 54
f 55 15 7
f 56 8 15
f 57 58 55
f 59 16 18
f 60 16 59
f 61 20 19
f 61 19 22
f 62 3 63
f 64 63 3
f 64 3 8
f 65 66 67
f 68 17 16
f 69 70 22
f 69 22 29
f 69 29 30
f 71 70 69
f 71 69 30
f 72 2 10
f 72 31 33
f 73 2 34
f 73 34 22
f 73 22 44
f 74 39 1
f 74 75 22
f 74 22 39
f 76 1 9
f 77 27 35
f 77 35 3
f 77 3 62
f 77 62 27
f 78 38 39
f 78 39 22
f 78 22 37
f 79 80 81
f 79 81 82
f 79 20 80
f 83 82 81
f 83 54 14
f 84 85 54
f 84 54 83
f 84 83 81
f 86 50 87
f 88 18 45
f 89 90 91
f 92 7 46
f 93 48 47
f 94 93 47
f 94 47 95
f 94 95 96
f 97 96 98
f 99 97 98
f 99 98 100
f 99 4 6
f 101 14 51
f 102 43 41
f 102 51 2
f 103 51 42
f 103 42 22
f 103 22 21
f 104 46 52
f 104 52 11
f 104 11 12
f 105 53 54
f 105 54 85
f 105 85 5
f 105 5 13
f 106 52 53
f 106 53 105
f 106 105 13
f 106 13 52
f 107 55 7
f 108 15 55
f 109 56 15
f 110 7 48
f 111 112 113
f 114 115 116
f 117 118 119
f 120 59 18
f 121 22 70
f 122 22 123
f 122 123 124
f 125 123 22
f 125 22 126
f 127 60 59
f 128 129 22
f 130 22 129
f 131 20 61
f 131 61 132
f 131 80 20
f 133 132 61
f 133 61 22
f 133 22 132
f 134 135 22
f 136 30 28
f 136 28 27
f 136 27 62
f 137 30 136
f 137 136 62
f 137 62 63
f 138 139 140
f 138 140 141
f 138 141 142
f 138 142 25
f 143 140 139
f 143 139 144
f 145 68 16
f 146 144 139
f 146 139 138
f 146 138 25
f 147 146 148
f 149 150 151
f 152 8 56
f 153 150 149
f 153 149 154
f 155 156 157
f 158 70 71
f 159 151 150
f 160 63 64
f 160 64 8
f 160 8 161
f 162 72 10
f 162 10 36
f 162 36 32
f 163 2 72
f 163 72 33
f 163 33 34
f 163 34 2
f 164 1 76
f 164 76 75
f 164 75 74
f 164 74 1
f 165 22 166
f 165 9 26
f 165 26 22
f 167 9 165
f 167 165 166
f 167 76 9
f 168 75 76
f 168 76 167
f 168 167 166
f 168 166 22
f 168 22 75
f 169 10 38
f 169 38 78
f 169 78 37
f 169 37 10
f 170 171 172
f 170 87 50
f 170 50 6
f 173 49 50
f 173 50 86
f 174 18 88
f 175 176 88
f 177 173 86
f 178 179 177
f 178 177 180
f 181 91 90
f 182 172 171
f 183 184 132
f 183 132 22
f 183 22 135
f 183 135 134
f 183 134 185
f 186 90 184
f 186 184 183
f 186 183 185
f 187 81 80
f 188 184 90
f 188 90 89
f 188 89 187
f 188 187 80
f 188 80 131
f 188 131 132
f 188 132 184
f 189 12 4
f 189 4 99
f 189 99 100
f 189 100 46
f 190 47 7
f 190 7 92
f 190 92 95
f 190 95 47
f 191 92 46
f 191 46 100
f 192 193 110
f 192 110 48
f 192 48 93
f 194 97 49
f 195 196 197
f 198 49 97
f 198 97 99
f 198 99 6
f 198 6 49
f 199 101 21
f 199 21 20
f 199 20 79
f 199 79 82
f 200 21 101
f 200 101 51
f 200 51 103
f 200 103 21
f 201 14 101
f 201 101 199
f 201 199 82
f 202 102 2
f 202 2 73
f 202 73 44
f 203 51 102
f 203 102 41
f 203 41 40
f 204 55 107
f 204 107 205
f 204 205 57
f 204 57 55
f 206 15 108
f 206 113 15
f 207 108 55
f 207 55 58
f 208 108 207
f 208 207 58
f 209 109 15
f 210 211 23
f 210 23 25
f 212 208 58
f 212 58 57
f 213 205 107
f 213 110 193
f 214 7 110
f 214 110 213
f 214 213 107
f 214 107 7
f 215 45 17
f 216 217 116
f 218 208 212
f 218 212 119
f 219 114 116
f 219 116 217
f 220 221 222
f 223 119 212
f 223 212 57
f 223 57 205
f 223 205 213
f 223 213 193
f 224 225 226
f 227 228 118
f 227 118 117
f 229 196 230
f 229 230 226
f 229 226 225
f 231 230 196
f 231 196 195
f 232 120 18
f 233 234 235
f 233 235 236
f 233 236 237
f 233 237 22
f 238 16 60
f 239 240 22
f 239 22 122
f 241 125 126
f 242 22 237
f 242 243 241
f 242 241 126
f 242 126 22
f 244 128 22
f 244 22 240
f 245 128 244
f 245 129 128
f 246 127 59
f 247 248 22
f 247 22 249
f 250 22 251
f 250 251 252
f 250 252 134
f 250 134 22
f 253 185 134
f 254 255 22
f 254 22 248
f 256 22 257
f 256 258 22
f 259 260 137
f 259 137 63
f 259 63 160
f 259 160 161
f 259 161 159
f 259 159 260
f 261 142 141
f 262 24 263
f 264 67 209
f 264 65 67
f 265 140 143
f 266 17 68
f 267 68 145
f 268 145 16
f 269 24 262
f 269 262 148
f 269 148 146
f 269 146 25
f 269 25 24
f 270 271 272
f 270 143 144
f 273 144 146
f 273 146 147
f 273 147 274
f 273 270 144
f 275 276 277
f 278 8 152
f 278 149 151
f 279 152 56
f 280 278 152
f 281 282 283
f 281 283 284
f 285 281 284
f 285 284 286
f 287 283 282
f 287 282 158
f 287 158 71
f 287 71 30
f 287 260 283
f 288 260 159
f 289 151 159
f 289 159 161
f 290 72 162
f 290 162 32
f 290 32 31
f 290 31 72
f 291 84 81
f 291 81 187
f 291 187 89
f 291 85 84
f 292 171 170
f 292 170 6
f 292 6 5
f 293 18 174
f 294 174 88
f 294 88 176
f 295 296 179
f 297 175 88
f 297 88 45
f 298 173 177
f 298 177 179
f 299 170 172
f 299 172 300
f 299 87 170
f 301 87 299
f 301 299 300
f 301 300 302
f 301 302 180
f 301 180 177
f 301 177 86
f 301 86 87
f 303 172 182
f 304 305 306
f 307 308 309
f 307 309 181
f 310 181 309
f 310 182 91
f 310 91 181
f 311 312 18
f 311 18 313
f 311 314 312
f 315 90 186
f 315 181 90
f 316 186 185
f 317 104 12
f 317 12 189
f 317 189 46
f 317 46 104
f 318 95 92
f 318 92 191
f 318 191 100
f 318 100 98
f 318 98 96
f 318 96 95
f 319 225 224
f 319 193 192
f 319 192 93
f 320 83 14
f 320 14 201
f 320 201 82
f 320 82 83
f 321 102 202
f 321 202 44
f 321 44 43
f 321 43 102
f 322 51 203
f 322 203 40
f 322 40 42
f 322 42 51
f 323 206 108
f 323 108 208
f 323 208 218
f 323 218 111
f 323 111 113
f 323 113 206
f 324 109 209
f 324 209 67
f 325 263 24
f 325 24 326
f 327 326 24
f 327 24 23
f 328 326 327
f 328 327 56
f 328 56 109
f 329 156 280
f 329 280 152
f 329 157 156
f 330 210 25
f 330 25 142
f 331 215 17
f 332 148 262
f 332 262 263
f 332 263 66
f 332 66 65
f 333 334 335
f 336 331 17
f 337 115 338
f 337 119 118
f 337 116 115
f 339 117 224
f 339 224 226
f 340 341 339
f 340 339 226
f 340 226 230
f 342 220 222
f 342 222 343
f 344 117 119
f 344 119 223
f 344 224 117
f 345 346 227
f 345 227 117
f 345 117 339
f 345 339 341
f 345 341 346
f 347 228 227
f 347 227 346
f 348 197 196
f 348 196 229
f 348 229 225
f 348 225 319
f 349 222 221
f 349 221 340
f 350 232 18
f 351 158 282
f 351 282 352
f 351 353 70
f 351 70 158
f 354 355 356
f 354 357 358
f 359 121 70
f 359 70 353
f 359 360 22
f 359 22 121
f 361 235 234
f 362 237 236
f 362 243 242
f 362 242 237
f 363 16 238
f 363 238 362
f 363 362 236
f 363 236 235
f 363 235 16
f 364 243 362
f 364 362 238
f 364 238 60
f 364 60 241
f 364 241 243
f 365 124 127
f 365 127 246
f 365 246 366
f 365 366 240
f 365 240 239
f 365 239 122
f 365 122 124
f 367 123 125
f 367 125 241
f 368 245 244
f 368 244 240
f 368 240 366
f 369 59 120
f 370 371 249
f 370 249 22
f 370 22 130
f 372 370 130
f 373 232 350
f 373 350 374
f 375 376 377
f 375 377 258
f 378 258 377
f 378 377 251
f 378 251 22
f 378 22 258
f 379 252 380
f 379 253 134
f 379 134 252
f 381 253 379
f 381 379 380
f 382 380 374
f 382 374 350
f 383 374 380
f 383 380 252
f 383 252 251
f 384 22 255
f 385 386 255
f 385 255 254
f 385 254 248
f 385 248 387
f 388 120 232
f 388 389 390
f 391 257 22
f 391 22 392
f 391 392 390
f 391 390 389
f 393 394 395
f 393 395 396
f 393 397 398
f 393 398 394
f 399 400 275
f 399 275 277
f 401 402 397
f 401 397 403
f 404 261 405
f 404 405 398
f 404 398 397
f 404 397 402
f 404 402 406
f 407 402 401
f 407 408 406
f 407 406 402
f 409 264 209
f 409 209 15
f 410 141 140
f 410 140 265
f 410 405 261
f 410 261 141
f 411 266 68
f 411 68 412
f 413 396 395
f 413 395 414
f 415 267 145
f 416 268 16
f 417 266 418
f 419 420 17
f 421 266 417
f 421 417 422
f 421 422 419
f 421 419 17
f 421 17 266
f 423 275 400
f 424 211 279
f 424 279 56
f 425 156 155
f 426 278 280
f 426 425 154
f 427 281 285
f 427 285 428
f 427 428 429
f 427 352 282
f 427 282 281
f 430 285 286
f 430 286 276
f 431 137 260
f 431 260 287
f 431 287 30
f 431 30 137
f 432 276 286
f 432 286 284
f 432 284 283
f 432 283 260
f 432 260 288
f 432 288 277
f 432 277 276
f 433 399 277
f 433 277 288
f 433 288 159
f 433 159 150
f 434 8 278
f 434 289 161
f 434 161 8
f 435 91 182
f 435 182 171
f 435 291 89
f 435 89 91
f 436 85 291
f 436 291 435
f 436 435 171
f 436 171 292
f 436 292 5
f 436 5 85
f 437 293 438
f 437 438 304
f 437 304 306
f 437 306 439
f 440 18 293
f 440 293 437
f 440 437 439
f 440 439 313
f 440 313 18
f 441 231 195
f 441 195 442
f 441 442 443
f 444 175 297
f 444 297 45
f 445 442 194
f 445 194 49
f 445 49 173
f 446 443 442
f 446 442 445
f 446 445 173
f 446 173 298
f 446 298 179
f 447 175 444
f 447 180 302
f 447 176 175
f 448 449 174
f 448 174 294
f 450 438 293
f 450 293 174
f 450 174 449
f 450 449 308
f 450 308 304
f 450 304 438
f 451 305 304
f 451 304 308
f 451 308 307
f 451 307 181
f 451 181 315
f 451 315 305
f 452 303 182
f 452 182 310
f 452 310 309
f 452 453 303
f 454 305 315
f 454 315 186
f 455 316 314
f 455 314 311
f 456 253 381
f 456 381 314
f 456 314 316
f 456 316 185
f 456 185 253
f 457 97 194
f 457 194 442
f 457 442 195
f 457 195 197
f 458 96 97
f 458 97 457
f 458 457 197
f 458 197 459
f 458 459 94
f 458 94 96
f 460 67 66
f 460 66 263
f 460 263 325
f 460 325 109
f 460 109 324
f 460 324 67
f 461 211 424
f 461 424 56
f 461 56 327
f 461 327 23
f 461 23 211
f 462 325 326
f 462 326 328
f 462 328 109
f 462 109 325
f 463 279 211
f 463 211 210
f 463 329 152
f 463 152 279
f 464 157 329
f 464 329 463
f 464 463 210
f 465 466 467
f 465 467 296
f 465 296 295
f 468 469 467
f 468 467 466
f 470 471 472
f 473 331 474
f 475 215 331
f 476 472 471
f 477 341 340
f 477 340 221
f 477 346 341
f 478 334 332
f 478 332 65
f 478 65 479
f 478 479 334
f 480 112 111
f 480 111 338
f 480 338 115
f 480 115 114
f 481 335 334
f 481 334 479
f 481 479 480
f 481 480 114
f 481 114 219
f 481 219 335
f 482 65 264
f 482 112 480
f 482 480 479
f 482 479 65
f 483 336 17
f 484 331 336
f 484 474 331
f 485 486 487
f 485 487 488
f 485 488 489
f 490 17 420
f 491 219 217
f 492 218 119
f 492 119 337
f 492 337 338
f 492 338 111
f 492 111 218
f 493 494 216
f 493 216 116
f 493 116 337
f 493 337 118
f 495 193 319
f 495 319 224
f 495 224 344
f 495 344 223
f 495 223 193
f 496 347 346
f 497 228 347
f 498 93 94
f 498 94 459
f 498 459 197
f 498 197 348
f 498 348 319
f 498 319 93
f 499 231 349
f 499 349 340
f 499 340 230
f 499 230 231
f 500 343 222
f 500 222 349
f 500 349 231
f 500 469 343
f 501 382 350
f 501 350 18
f 501 18 312
f 502 355 354
f 502 353 351
f 503 353 502
f 503 502 354
f 503 354 358
f 504 16 235
f 504 235 361
f 504 361 358
f 504 358 357
f 505 233 22
f 505 22 506
f 505 506 234
f 505 234 233
f 507 358 361
f 507 361 234
f 507 234 506
f 507 506 22
f 507 22 360
f 508 124 123
f 508 123 367
f 509 246 59
f 509 59 245
f 509 245 368
f 509 368 366
f 509 366 246
f 510 371 369
f 510 369 387
f 510 387 248
f 510 248 247
f 510 247 249
f 510 249 371
f 511 59 372
f 511 372 130
f 511 130 129
f 511 129 245
f 511 245 59
f 512 369 371
f 512 372 59
f 512 59 369
f 513 376 232
f 513 232 373
f 513 373 377
f 513 377 376
f 514 256 257
f 514 257 391
f 514 391 389
f 514 376 375
f 514 375 258
f 514 258 256
f 515 381 380
f 515 380 382
f 515 382 501
f 515 501 312
f 515 312 314
f 515 314 381
f 516 377 373
f 516 373 374
f 516 374 383
f 516 383 251
f 516 251 377
f 517 120 388
f 517 388 390
f 518 386 120
f 518 120 517
f 518 384 255
f 518 255 386
f 519 369 120
f 519 120 386
f 519 386 385
f 519 385 387
f 519 387 369
f 520 389 388
f 520 388 232
f 520 232 376
f 521 403 397
f 522 142 261
f 522 261 404
f 522 404 406
f 523 401 400
f 523 400 399
f 523 524 407
f 523 407 401
f 525 113 112
f 525 112 482
f 525 482 264
f 525 264 409
f 525 409 15
f 525 15 113
f 526 272 271
f 527 143 270
f 527 270 272
f 528 418 266
f 528 266 411
f 529 530 531
f 529 531 532
f 529 532 410
f 529 410 265
f 529 265 530
f 533 534 415
f 533 535 534
f 536 410 532
f 536 535 537
f 536 537 405
f 536 405 410
f 538 394 398
f 538 398 405
f 538 405 537
f 539 532 531
f 540 268 541
f 540 541 542
f 540 145 268
f 543 416 16
f 543 16 504
f 543 504 357
f 544 354 356
f 544 356 416
f 544 357 354
f 545 546 541
f 545 429 428
f 545 428 546
f 547 416 356
f 547 356 548
f 547 268 416
f 549 352 427
f 549 427 429
f 549 429 545
f 549 355 502
f 549 502 351
f 549 351 352
f 550 551 552
f 553 148 332
f 553 332 334
f 553 334 333
f 554 147 148
f 554 148 553
f 554 553 333
f 554 333 489
f 554 489 488
f 554 488 274
f 554 274 147
f 555 556 274
f 557 273 274
f 557 274 556
f 557 271 270
f 557 270 273
f 558 559 423
f 558 423 400
f 558 400 401
f 558 401 403
f 558 403 560
f 561 562 430
f 561 430 276
f 563 149 278
f 563 278 426
f 563 426 154
f 563 154 149
f 564 425 426
f 564 426 280
f 564 280 156
f 564 156 425
f 565 524 523
f 565 523 399
f 565 399 433
f 565 433 150
f 565 150 153
f 566 289 434
f 566 434 278
f 566 278 151
f 566 151 289
f 567 469 500
f 567 500 231
f 567 231 441
f 567 441 443
f 568 295 179
f 568 179 178
f 568 178 180
f 569 180 447
f 569 447 444
f 569 444 568
f 569 568 180
f 570 447 302
f 570 176 447
f 571 300 172
f 571 172 303
f 571 303 453
f 571 302 300
f 572 176 570
f 572 448 294
f 572 294 176
f 573 453 452
f 573 452 309
f 574 313 439
f 574 316 455
f 574 455 311
f 574 311 313
f 575 330 142
f 575 142 522
f 575 522 406
f 575 406 408
f 575 408 157
f 575 157 464
f 575 464 210
f 575 210 330
f 576 446 179
f 576 179 296
f 576 296 467
f 576 443 446
f 577 465 295
f 577 295 568
f 578 465 577
f 578 45 215
f 579 343 469
f 579 469 468
f 579 468 215
f 579 342 343
f 580 331 473
f 580 581 470
f 582 581 580
f 582 580 473
f 582 473 474
f 583 475 331
f 584 215 475
f 584 342 579
f 584 579 215
f 585 220 342
f 586 220 585
f 586 585 476
f 586 476 471
f 586 477 221
f 586 221 220
f 587 588 483
f 587 483 17
f 587 17 490
f 589 588 587
f 589 587 490
f 589 490 486
f 589 486 588
f 590 591 487
f 590 487 486
f 590 486 490
f 590 490 420
f 590 420 591
f 592 485 489
f 592 489 593
f 594 593 489
f 594 489 333
f 594 333 335
f 595 474 484
f 595 484 336
f 596 491 217
f 597 494 493
f 597 493 118
f 597 118 228
f 597 228 497
f 597 497 494
f 598 496 346
f 598 346 477
f 598 477 586
f 598 586 471
f 599 470 581
f 599 496 598
f 599 598 471
f 599 471 470
f 600 496 599
f 600 599 581
f 600 581 582
f 600 494 497
f 600 497 347
f 600 347 496
f 601 359 353
f 601 353 503
f 601 503 358
f 601 358 507
f 601 507 360
f 601 360 359
f 602 127 124
f 602 124 508
f 602 508 367
f 602 60 127
f 603 372 512
f 603 512 371
f 603 371 370
f 603 370 372
f 604 376 514
f 604 514 389
f 604 389 520
f 604 520 376
f 605 392 22
f 605 22 384
f 605 384 518
f 605 518 517
f 605 517 390
f 605 390 392
f 606 521 397
f 606 397 393
f 607 153 154
f 607 154 425
f 607 425 155
f 607 524 565
f 607 565 153
f 608 407 524
f 608 524 607
f 608 607 155
f 608 155 157
f 608 157 408
f 608 408 407
f 609 526 271
f 609 271 557
f 609 557 556
f 610 528 411
f 610 411 412
f 610 412 611
f 610 611 612
f 613 526 418
f 613 418 528
f 613 528 610
f 613 610 612
f 613 612 527
f 613 527 272
f 613 272 526
f 614 531 530
f 615 530 265
f 615 265 143
f 616 560 403
f 616 403 521
f 617 533 415
f 617 415 145
f 618 415 534
f 618 534 539
f 618 539 531
f 618 531 619
f 618 619 267
f 618 267 415
f 620 395 394
f 620 394 538
f 620 538 537
f 620 537 535
f 621 535 536
f 621 536 532
f 621 532 539
f 621 539 534
f 621 534 535
f 622 145 540
f 622 540 542
f 623 416 543
f 623 543 357
f 623 357 544
f 623 544 416
f 624 548 545
f 624 545 541
f 624 541 268
f 625 268 547
f 625 547 548
f 625 548 624
f 625 624 268
f 626 548 356
f 626 356 355
f 626 355 549
f 626 549 545
f 626 545 548
f 627 562 551
f 627 551 542
f 627 542 541
f 627 541 546
f 627 546 428
f 628 145 550
f 628 550 552
f 629 487 591
f 629 591 555
f 629 555 274
f 629 274 488
f 629 488 487
f 630 562 561
f 630 552 551
f 630 551 562
f 631 559 558
f 631 558 560
f 631 560 632
f 631 632 559
f 633 630 561
f 633 561 276
f 633 276 275
f 634 453 570
f 634 570 302
f 634 302 571
f 634 571 453
f 635 573 309
f 635 309 308
f 635 308 449
f 635 449 448
f 636 306 305
f 636 305 454
f 636 574 439
f 636 439 306
f 637 316 574
f 637 574 636
f 637 636 454
f 637 454 186
f 637 186 316
f 638 443 576
f 638 576 467
f 638 467 469
f 638 469 567
f 638 567 443
f 639 444 45
f 639 577 568
f 639 568 444
f 640 578 215
f 640 215 468
f 640 468 466
f 641 45 578
f 641 578 577
f 641 577 639
f 641 639 45
f 642 216 494
f 642 596 217
f 642 217 216
f 643 580 470
f 643 470 583
f 643 583 331
f 643 331 580
f 644 472 476
f 644 476 475
f 644 475 583
f 644 583 470
f 644 470 472
f 645 584 475
f 645 475 476
f 645 476 585
f 645 585 342
f 645 342 584
f 646 647 483
f 646 483 588
f 648 486 485
f 648 485 592
f 648 592 593
f 648 646 588
f 648 588 486
f 649 593 594
f 649 594 335
f 650 595 336
f 651 494 600
f 651 600 582
f 651 582 642
f 651 642 494
f 652 60 602
f 652 602 367
f 652 367 241
f 652 241 60
f 653 606 393
f 653 393 396
f 653 396 413
f 653 413 654
f 655 555 591
f 655 591 420
f 655 420 419
f 655 419 422
f 655 422 656
f 655 656 556
f 655 556 555
f 657 656 422
f 657 422 417
f 657 417 418
f 657 418 526
f 657 526 609
f 657 609 556
f 657 556 656
f 658 412 68
f 659 614 530
f 659 530 615
f 659 611 412
f 659 412 658
f 660 527 612
f 660 612 611
f 660 611 659
f 660 659 615
f 660 615 143
f 660 143 527
f 661 662 663
f 661 632 560
f 661 560 616
f 661 616 662
f 664 665 632
f 664 632 661
f 666 533 617
f 666 617 414
f 666 414 395
f 666 395 620
f 666 620 535
f 666 535 533
f 667 617 145
f 668 550 145
f 668 145 622
f 668 622 542
f 668 542 551
f 668 551 550
f 669 562 627
f 669 627 428
f 669 428 285
f 669 285 430
f 669 430 562
f 670 628 552
f 671 423 559
f 671 630 633
f 671 633 275
f 671 275 423
f 672 573 635
f 672 635 448
f 673 578 640
f 673 640 466
f 673 466 465
f 673 465 578
f 674 474 595
f 674 595 675
f 674 675 596
f 674 596 642
f 674 642 582
f 674 582 474
f 676 677 647
f 678 679 491
f 678 491 596
f 680 679 649
f 680 649 335
f 680 335 219
f 680 219 491
f 680 491 679
f 681 593 649
f 681 649 679
f 681 679 677
f 681 677 676
f 682 483 647
f 682 650 336
f 682 336 483
f 683 650 682
f 683 682 647
f 683 647 677
f 684 675 595
f 684 595 650
f 684 650 683
f 684 683 677
f 684 677 679
f 684 679 678
f 684 678 596
f 684 596 675
f 685 521 606
f 685 606 653
f 685 662 616
f 685 616 521
f 686 619 531
f 686 531 614
f 686 614 659
f 686 659 658
f 686 658 68
f 686 68 267
f 686 267 619
f 687 664 661
f 687 661 663
f 688 667 145
f 688 145 628
f 688 628 665
f 688 665 664
f 689 413 414
f 689 414 617
f 689 617 667
f 689 667 654
f 689 654 413
f 690 654 667
f 690 667 663
f 690 663 662
f 690 662 685
f 690 685 653
f 690 653 654
f 691 632 665
f 691 665 628
f 691 628 670
f 691 559 632
f 692 630 671
f 692 671 559
f 692 559 691
f 692 691 670
f 692 670 552
f 692 552 630
f 693 453 573
f 693 573 672
f 693 672 448
f 693 448 572
f 693 572 570
f 693 570 453
f 694 646 648
f 694 648 593
f 694 593 681
f 694 681 676
f 694 676 647
f 694 647 646
f 695 687 663
f 695 663 667
f 695 667 688
f 695 688 664
f 695 664 687
