# Convex hull collision mesh — generated by scripts/generate-collision-meshes.mjs
v 24.159710 43.194550 -6.378791
v 26.579941 39.688240 -6.378791
v 20.023026 42.174950 -6.378791
v 19.188910 38.790806 -6.378791
v 22.377928 43.410900 -6.378791
v 26.150402 41.430950 -6.378791
v 23.281954 35.965580 -6.378791
v 20.958952 35.485931 95.621208
v 20.985935 35.859123 116.621208
v 20.126129 35.966763 95.621208
v 20.699697 42.774429 -6.378791
v 23.281954 43.410900 -6.378791
v 22.829941 44.288239 5.621209
v 24.960184 42.774429 -6.378791
v 24.700930 43.890549 5.621209
v 26.470972 40.585674 -6.378791
v 27.404741 40.169071 5.621209
v 25.479773 43.011024 116.621208
v 25.323900 42.815567 120.821205
v 26.152725 42.338070 116.621208
v 26.248407 42.766239 95.621208
v 19.188910 40.585674 -6.378791
v 22.829941 44.288239 95.621208
v 21.873547 44.187717 95.621208
v 23.786335 44.187717 5.621209
v 24.700930 43.890549 95.621208
v 25.533752 43.409718 5.621209
v 26.248407 42.766239 5.621209
v 27.204802 41.109718 5.621209
v 25.636856 37.201530 -6.378791
v 21.873547 35.188763 95.621208
v 22.829941 35.088242 5.621209
v 22.829941 35.088242 95.621208
v 18.455082 38.266762 5.621209
v 18.255140 39.207409 5.621209
v 18.846224 37.388241 95.621208
v 18.846224 37.388241 5.621209
v 20.699697 36.602051 -6.378791
v 25.636856 42.174950 -6.378791
v 23.720024 43.587952 120.821205
v 23.775656 43.831684 116.621208
v 22.829941 43.688240 120.821205
v 24.115055 41.220715 134.721207
v 23.710966 41.483734 134.721207
v 25.533752 43.409718 95.621208
v 24.673946 43.517357 116.621208
v 25.957268 42.182198 120.821205
v 24.444458 40.868637 134.721207
v 19.079941 39.688240 -6.378791
v 19.509481 41.430950 -6.378791
v 18.846224 41.988239 5.621209
v 18.255140 40.169071 5.621209
v 18.255140 40.169071 95.621208
v 20.126129 43.409718 5.621209
v 20.126129 43.409718 95.621208
v 20.958952 43.890549 5.621209
v 21.500174 43.194550 -6.378791
v 20.958952 43.890549 95.621208
v 20.985935 43.517357 116.621208
v 21.873547 44.187717 5.621209
v 22.829941 43.938240 116.621208
v 23.786335 44.187717 95.621208
v 26.813658 41.988239 95.621208
v 23.786335 35.188763 95.621208
v 24.700930 35.485931 5.621209
v 24.700930 35.485931 95.621208
v 25.533752 35.966763 95.621208
v 24.673946 35.859123 116.621208
v 23.258175 39.932774 143.342743
v 23.292637 39.877747 143.260162
v 24.680031 40.447960 134.721207
v 27.204802 41.109718 95.621208
v 27.204802 38.266762 95.621208
v 26.813658 37.388241 95.621208
v 27.204802 38.266762 5.621209
v 27.404741 39.207409 95.621208
v 27.404741 39.207409 5.621209
v 26.813658 37.388241 5.621209
v 26.248407 36.610241 5.621209
v 26.150402 37.945530 -6.378791
v 25.533752 35.966763 5.621209
v 23.786335 35.188763 5.621209
v 24.960184 36.602051 -6.378791
v 19.507158 37.038410 116.621208
v 19.000824 37.844234 116.621208
v 21.948915 37.892746 134.721207
v 21.544827 38.155766 134.721207
v 20.335981 36.560913 120.821205
v 21.884228 35.544796 116.621208
v 22.829941 35.688240 120.821205
v 21.939857 35.788528 120.821205
v 19.411474 36.610241 95.621208
v 18.255140 39.207409 95.621208
v 22.377928 35.965580 -6.378791
v 20.126129 35.966763 5.621209
v 20.023026 37.201530 -6.378791
v 23.255676 41.642403 134.721207
v 24.565475 43.292114 120.821205
v 18.455082 41.109718 95.621208
v 18.686497 40.633953 116.621208
v 19.411474 42.766239 5.621209
v 21.884228 43.831684 116.621208
v 21.939857 43.587952 120.821205
v 26.813658 41.988239 5.621209
v 23.775656 35.544796 116.621208
v 23.720024 35.788528 120.821205
v 23.156200 40.050423 143.371429
v 21.153736 40.779263 134.721207
v 21.463541 41.148705 134.721207
v 19.702616 42.182198 120.821205
v 26.659060 41.532246 116.621208
v 26.470972 38.790806 -6.378791
v 24.159710 36.181931 -6.378791
v 20.180109 36.365456 116.621208
v 19.702616 37.194283 120.821205
v 21.215425 38.507843 134.721207
v 22.884239 37.688976 134.721207
v 21.094406 36.084366 120.821205
v 22.829941 35.438240 116.621208
v 18.455082 38.266762 95.621208
v 18.579941 39.688240 116.621208
v 20.958952 35.485931 5.621209
v 19.509481 37.945530 -6.378791
v 19.411474 36.610241 5.621209
v 22.775642 41.687504 134.721207
v 22.298765 41.616413 134.721207
v 20.180109 43.011024 116.621208
v 19.000824 41.532246 116.621208
v 18.930229 40.578323 120.821205
v 18.455082 41.109718 5.621209
v 26.248407 36.610241 95.621208
v 26.152725 37.038410 116.621208
v 24.506147 38.597218 134.721207
v 26.433817 37.952705 120.821205
v 24.718538 39.030060 134.721207
v 23.014217 40.123661 143.422806
v 22.503683 39.326057 143.371429
v 21.094406 43.292114 120.821205
v 21.852758 41.433266 134.721207
v 27.404741 40.169071 95.621208
v 26.659060 37.844234 116.621208
v 23.361116 37.760067 134.721207
v 18.686497 38.742527 116.621208
v 18.930229 38.798157 120.821205
v 21.500174 36.181931 -6.378791
v 21.873547 35.188763 5.621209
v 20.838711 39.875320 134.721207
v 20.941343 40.346420 134.721207
v 20.851801 39.393353 134.721207
v 22.344555 39.753784 143.360687
v 27.079941 39.688240 116.621208
v 26.729652 38.798157 120.821205
v 26.729652 40.578323 120.821205
v 24.808083 39.983128 134.721207
v 26.829941 39.688240 120.821205
v 19.226067 41.423775 120.821205
v 19.411474 42.766239 95.621208
v 19.507158 42.338070 116.621208
v 24.565475 36.084366 120.821205
v 25.323900 36.560913 120.821205
v 23.807123 37.943214 134.721207
v 25.957268 37.194283 120.821205
v 25.479773 36.365456 116.621208
v 24.196341 38.227776 134.721207
v 23.201214 39.389904 143.412323
v 22.878204 40.180923 143.330414
v 23.073534 40.124889 143.260162
v 22.404207 37.734077 134.721207
v 22.344957 39.588959 143.330414
v 20.335981 42.815567 120.821205
v 19.226067 37.952705 120.821205
v 18.829941 39.688240 120.821205
v 26.973385 38.742527 116.621208
v 26.433817 41.423775 120.821205
v 26.973385 40.633953 116.621208
v 18.846224 41.988239 95.621208
v 23.262474 39.457912 143.359482
v 24.821173 39.501156 134.721207
v 23.302711 39.773960 143.398514
v 23.220369 39.890808 143.497925
v 23.255697 39.721771 143.520187
v 23.300837 39.606609 143.407120
v 23.149321 39.811935 143.624451
v 23.091579 39.978687 143.571915
v 22.714233 40.164169 143.360687
v 22.970263 40.168144 143.260162
v 22.793892 39.209118 143.398514
v 22.377115 39.624660 143.462418
v 22.437555 39.691753 143.570038
v 22.378712 39.791702 143.449081
v 20.979853 38.928520 134.721207
v 22.367247 39.498730 143.260162
v 23.280432 39.477844 143.313019
v 23.324202 39.632545 143.311203
v 23.234962 39.427368 143.393982
v 23.197765 39.492188 143.536331
v 23.256926 39.557861 143.485306
v 23.183670 39.641811 143.610489
v 23.053595 39.705669 143.707016
v 23.095314 39.543728 143.658524
v 23.131449 40.022945 143.477112
v 22.543098 40.080303 143.378525
v 22.975140 39.849426 143.710648
v 22.416067 39.459644 143.422806
v 22.441257 39.967247 143.405365
v 22.566185 40.105930 143.337418
v 22.958952 40.062305 143.565826
v 22.631306 39.236881 143.342743
v 23.130489 39.417503 143.554062
v 23.104038 39.282028 143.359482
v 23.131550 39.312569 143.393982
v 22.755474 39.605576 143.747635
v 22.684742 39.527054 143.710648
v 22.835886 39.463985 143.707016
v 23.001289 39.439350 143.658524
v 22.912933 39.341263 143.610489
v 23.063213 39.342819 143.536331
v 22.421017 39.400524 143.260162
v 22.410154 39.932720 143.378525
v 22.846046 40.145222 143.462418
v 23.038591 39.919865 143.651077
v 22.689619 39.208332 143.260162
v 23.165298 39.350037 143.412323
v 23.086081 39.262093 143.313019
v 22.960140 39.228397 143.407120
v 22.936775 39.202461 143.311203
v 22.840906 39.261307 143.520187
v 23.004051 39.277145 143.485306
v 22.944740 39.584827 143.735703
v 22.829941 39.688240 143.760162
v 22.669109 39.278847 143.497925
v 22.621290 39.456615 143.651077
v 22.556007 39.614994 143.671982
v 22.528433 39.353531 143.477112
v 22.568302 39.397793 143.571915
v 22.471333 39.520996 143.565826
v 22.387070 39.907093 143.337418
v 22.518984 39.782150 143.640274
v 22.431044 39.849796 143.514679
v 22.495237 39.921059 143.549591
v 22.680077 40.126251 143.449081
v 22.740160 39.357723 143.624451
v 22.904408 39.770905 143.747635
v 22.770409 39.853004 143.728470
v 22.874277 39.968311 143.671982
v 22.704178 39.987736 143.640274
v 22.659876 39.730301 143.728470
v 22.511995 40.045773 143.405365
v 22.785606 40.078129 143.570038
v 22.611580 39.884941 143.664673
v 22.563551 39.996895 143.549591
v 22.476627 40.006512 143.414673
v 22.627745 40.068157 143.514679
f 1 2 3
f 4 3 2
f 5 1 3
f 6 2 1
f 7 4 2
f 8 9 10
f 11 5 3
f 12 1 5
f 12 5 13
f 14 6 1
f 14 1 15
f 16 2 6
f 16 17 2
f 18 19 20
f 18 20 21
f 22 3 4
f 23 13 24
f 25 26 15
f 25 15 1
f 25 1 12
f 25 12 13
f 25 13 23
f 27 14 15
f 27 15 26
f 27 21 28
f 29 17 16
f 29 16 6
f 30 7 2
f 31 32 33
f 34 35 4
f 36 34 37
f 38 4 7
f 39 6 14
f 39 14 27
f 39 27 28
f 40 41 42
f 43 19 44
f 45 18 21
f 45 21 27
f 45 27 26
f 46 19 18
f 46 18 45
f 46 45 26
f 46 26 41
f 47 19 43
f 47 43 48
f 47 20 19
f 49 22 4
f 49 4 35
f 50 3 22
f 50 51 3
f 52 35 53
f 52 22 49
f 52 49 35
f 54 55 56
f 54 56 11
f 54 11 3
f 57 11 56
f 57 5 11
f 58 24 56
f 58 56 55
f 58 55 59
f 60 5 57
f 60 57 56
f 60 56 24
f 60 24 13
f 60 13 5
f 61 42 41
f 61 23 24
f 62 26 25
f 62 25 23
f 62 23 61
f 62 61 41
f 62 41 26
f 63 21 20
f 63 28 21
f 64 33 32
f 64 65 66
f 67 68 66
f 67 66 65
f 69 70 71
f 69 71 48
f 72 29 63
f 72 17 29
f 73 74 75
f 73 75 76
f 77 76 75
f 77 2 17
f 77 17 76
f 78 79 30
f 78 75 74
f 78 74 79
f 80 75 78
f 80 78 30
f 80 30 2
f 81 79 67
f 81 67 65
f 81 30 79
f 82 65 64
f 82 64 32
f 82 32 7
f 83 30 81
f 83 81 65
f 83 7 30
f 84 85 36
f 86 87 88
f 89 8 31
f 89 90 91
f 89 91 9
f 89 9 8
f 92 84 36
f 92 36 37
f 93 53 35
f 93 35 34
f 94 38 7
f 94 7 32
f 95 8 10
f 95 10 92
f 96 4 38
f 96 38 95
f 97 44 40
f 97 40 42
f 98 40 44
f 98 44 19
f 98 19 46
f 98 46 41
f 98 41 40
f 99 53 100
f 99 52 53
f 101 55 54
f 101 54 3
f 101 3 51
f 102 59 103
f 102 103 42
f 102 42 61
f 102 61 24
f 102 24 58
f 102 58 59
f 104 28 63
f 104 63 29
f 104 29 6
f 104 6 39
f 104 39 28
f 105 106 90
f 105 64 66
f 105 66 68
f 107 43 44
f 107 69 48
f 107 48 43
f 108 109 110
f 111 20 47
f 111 72 63
f 111 63 20
f 112 75 80
f 112 80 2
f 112 2 77
f 112 77 75
f 113 7 83
f 113 83 65
f 113 65 82
f 113 82 7
f 114 9 88
f 114 88 84
f 114 84 92
f 114 92 10
f 114 10 9
f 115 85 84
f 115 84 88
f 115 88 87
f 115 87 116
f 117 90 106
f 118 88 9
f 118 9 91
f 118 91 86
f 118 86 88
f 119 33 64
f 119 64 105
f 119 105 90
f 119 90 89
f 119 89 31
f 119 31 33
f 120 36 85
f 120 93 34
f 120 34 36
f 121 100 53
f 121 53 93
f 122 31 8
f 122 8 95
f 122 95 38
f 123 4 96
f 123 96 37
f 123 37 34
f 123 34 4
f 124 37 96
f 124 96 95
f 124 95 92
f 124 92 37
f 125 97 42
f 125 42 103
f 125 103 126
f 127 59 55
f 128 99 100
f 128 100 129
f 130 52 99
f 130 99 51
f 130 51 50
f 130 50 22
f 130 22 52
f 131 74 132
f 131 67 79
f 131 79 74
f 133 134 135
f 136 44 97
f 137 116 87
f 138 103 59
f 138 139 126
f 138 126 103
f 140 76 17
f 140 17 72
f 141 132 74
f 141 74 73
f 142 117 106
f 143 120 85
f 143 85 144
f 143 121 93
f 143 93 120
f 145 122 38
f 145 38 94
f 146 32 31
f 146 31 122
f 146 122 145
f 146 145 94
f 146 94 32
f 147 148 129
f 147 149 150
f 147 150 148
f 151 76 140
f 152 134 141
f 152 135 134
f 153 71 154
f 153 154 155
f 156 110 128
f 156 128 129
f 156 129 148
f 156 148 108
f 156 108 110
f 157 55 101
f 157 101 51
f 157 127 55
f 158 127 157
f 158 128 110
f 159 106 105
f 159 105 68
f 159 68 160
f 159 160 161
f 159 161 142
f 159 142 106
f 162 134 133
f 162 160 132
f 162 132 141
f 162 141 134
f 163 132 160
f 163 160 68
f 163 68 67
f 163 67 131
f 163 131 132
f 164 161 160
f 164 160 162
f 164 162 133
f 164 133 165
f 166 97 125
f 167 44 136
f 167 136 107
f 167 107 44
f 168 86 91
f 168 91 90
f 168 90 117
f 169 150 149
f 170 127 158
f 170 158 110
f 170 110 109
f 170 109 139
f 170 139 138
f 170 138 59
f 170 59 127
f 171 115 116
f 171 144 85
f 171 85 115
f 172 144 149
f 172 149 147
f 172 147 129
f 172 129 100
f 172 100 121
f 172 121 143
f 172 143 144
f 173 151 155
f 173 155 152
f 173 152 141
f 173 141 73
f 173 73 76
f 173 76 151
f 174 47 48
f 174 48 71
f 174 71 153
f 174 153 111
f 174 111 47
f 175 151 140
f 175 140 72
f 175 72 111
f 175 111 153
f 175 153 155
f 175 155 151
f 176 99 128
f 176 128 158
f 176 158 157
f 176 157 51
f 176 51 99
f 177 133 135
f 178 135 152
f 178 152 155
f 178 155 154
f 179 70 69
f 179 69 180
f 179 180 181
f 179 181 182
f 179 154 71
f 179 71 70
f 183 181 180
f 184 183 180
f 185 126 139
f 185 166 125
f 185 125 126
f 186 97 166
f 186 166 136
f 186 136 97
f 187 168 117
f 188 189 190
f 188 190 150
f 188 150 169
f 191 149 144
f 191 144 171
f 191 171 116
f 191 192 169
f 191 169 149
f 193 182 177
f 193 177 135
f 193 135 182
f 194 178 154
f 194 154 179
f 194 179 182
f 194 182 135
f 194 135 178
f 195 196 165
f 195 165 133
f 195 133 177
f 197 196 195
f 197 195 177
f 197 177 182
f 197 182 181
f 198 181 183
f 198 183 199
f 198 199 200
f 198 200 196
f 198 196 197
f 198 197 181
f 201 107 136
f 201 184 180
f 201 180 69
f 201 69 107
f 202 139 109
f 203 199 183
f 204 188 169
f 204 169 192
f 204 192 191
f 204 191 116
f 205 109 108
f 206 139 202
f 206 185 139
f 207 184 201
f 207 201 136
f 208 137 87
f 208 87 86
f 208 86 168
f 209 196 200
f 209 165 196
f 210 161 164
f 210 164 211
f 212 213 214
f 215 214 216
f 215 216 217
f 215 217 209
f 215 209 200
f 218 137 204
f 218 204 116
f 218 116 137
f 219 205 108
f 220 166 185
f 220 207 136
f 220 136 166
f 221 184 207
f 221 203 183
f 221 183 184
f 222 187 208
f 222 208 168
f 222 168 187
f 223 165 209
f 223 209 217
f 223 217 211
f 223 211 164
f 223 164 165
f 224 161 210
f 224 210 225
f 224 225 142
f 224 142 161
f 226 187 117
f 226 117 142
f 226 142 225
f 226 225 187
f 227 187 225
f 228 211 217
f 228 217 216
f 228 216 227
f 228 227 225
f 228 225 210
f 228 210 211
f 229 214 215
f 229 215 200
f 229 200 199
f 229 230 212
f 229 212 214
f 231 208 187
f 231 187 227
f 232 213 233
f 234 137 208
f 234 208 231
f 234 231 235
f 234 204 137
f 236 204 234
f 236 234 235
f 236 235 232
f 236 232 233
f 236 233 189
f 236 189 188
f 236 188 204
f 237 190 219
f 237 219 108
f 237 108 148
f 237 148 150
f 237 150 190
f 238 189 233
f 239 190 189
f 239 189 238
f 239 238 240
f 239 240 205
f 239 205 219
f 239 219 190
f 241 220 185
f 241 185 206
f 241 206 202
f 242 216 214
f 242 214 213
f 242 213 232
f 242 232 235
f 242 235 231
f 242 231 227
f 242 227 216
f 243 203 244
f 243 244 230
f 243 230 229
f 243 229 199
f 243 199 203
f 245 246 244
f 245 244 203
f 245 203 221
f 245 221 207
f 247 238 233
f 247 233 213
f 247 213 212
f 247 212 230
f 247 230 244
f 248 202 109
f 249 220 241
f 249 246 245
f 249 245 207
f 249 207 220
f 250 238 247
f 250 247 244
f 250 244 246
f 250 246 251
f 250 251 240
f 250 240 238
f 252 251 248
f 252 248 109
f 252 109 205
f 252 205 240
f 252 240 251
f 253 241 202
f 253 202 248
f 253 248 251
f 253 251 246
f 253 246 249
f 253 249 241
