# Convex hull collision mesh — generated by scripts/generate-collision-meshes.mjs
v -103.400131 119.459846 45.529499
v -115.588531 154.410080 45.529499
v -116.025597 155.034271 -27.495501
v -21.710453 -12.700000 -4.754663
v 2.731192 -12.700000 -22.056545
v -6.737568 -12.700000 21.179136
v 9.289168 -12.700000 20.190641
v 20.467125 -12.700000 8.662991
v 115.768669 155.152542 9.017000
v 116.402596 158.714935 -9.017000
v 116.402596 158.714935 9.017000
v 115.537727 154.410080 -9.017000
v 115.537727 154.410080 9.017000
v 71.419601 20.200001 25.400000
v 104.929245 178.455505 15.305202
v 116.044472 160.999817 9.017000
v 96.980835 195.736588 12.876504
v 116.355293 159.878036 9.017000
v 107.945084 171.482285 15.367000
v 116.044472 160.999817 -9.017000
v -103.639107 120.108139 -27.495501
v -103.400131 119.459846 -27.495501
v -116.025597 155.034271 -45.529499
v -12.841023 -12.700000 -18.139977
v 1.368191 -12.700000 22.182846
v -19.247416 -12.700000 11.112500
v -115.819466 155.152542 45.529499
v -107.145638 161.117355 51.879501
v -116.453400 158.714935 45.529499
v -55.018051 41.922043 62.897099
v -116.843163 160.502228 -27.495501
v -116.532341 161.624023 -27.495501
v -116.532341 161.624023 -45.529499
v -96.528694 198.404495 -28.526960
v -95.970070 198.044586 42.096638
v -96.407135 198.668777 -30.928364
v -116.095276 160.999817 45.529499
v 71.419601 23.556055 30.262085
v 57.578857 42.228970 52.742546
v 115.768669 155.152542 -9.017000
v 71.419601 20.795630 -27.816561
v -47.117001 55.035038 65.087502
v -20.320000 58.963276 65.005920
v -104.980042 178.455505 51.817703
v -92.372292 178.212784 51.852009
v 95.878792 198.132584 -3.175000
v 45.391891 60.344994 60.043682
v 107.916405 171.855103 15.367000
v -116.843163 160.502228 -45.529499
v -116.890465 159.339127 -45.529499
v -103.639107 120.108139 -45.529499
v -56.403915 20.298014 -49.320629
v -56.242664 18.228138 -46.515949
v -101.914185 116.215111 -45.529499
v -20.467125 -12.700000 -8.662991
v -5.420982 -12.700000 -21.553738
v 15.955592 -12.700000 15.471577
v 19.247416 -12.700000 -11.112500
v 5.420982 -12.700000 21.553738
v 7.921028 0.442141 52.320492
v 9.536069 0.642069 52.520370
v 6.175606 0.644215 53.018017
v 4.389835 0.441635 52.745224
v -13.933382 -12.700000 17.315065
v -22.214458 -12.700000 -0.684420
v -59.353855 39.611916 58.563564
v -57.624355 33.114773 57.476475
v -57.219452 39.480804 60.728542
v -53.138866 43.341209 63.901024
v -107.852127 172.210876 51.879501
v -107.967209 171.855103 51.879501
v -107.995880 171.482285 51.879501
v -116.406097 159.878036 45.529499
v -116.256531 155.776733 -27.495501
v -96.366661 198.756775 -39.687500
v -116.890465 159.339127 -27.495501
v 107.945084 171.482285 -15.367000
v 52.610558 57.562614 -57.380875
v 107.916405 171.855103 -15.367000
v 116.355293 159.878036 -9.017000
v 104.929245 178.455505 -15.305202
v 105.335724 177.571747 -15.367000
v -90.784790 195.734589 49.396423
v -92.372292 195.734589 49.396423
v -90.784790 178.506302 51.817703
v -92.372292 178.506302 51.817703
v -97.031631 195.736588 49.389004
v -96.863609 196.101883 49.290218
v -90.784790 198.005417 42.582684
v 95.982498 197.907120 7.027145
v 92.321487 198.005661 6.067507
v -90.784790 198.132584 39.687500
v -90.784790 178.212784 51.852009
v 95.919273 198.044586 -5.584136
v 96.040833 197.780289 -7.985540
v -91.221855 198.629608 -42.582684
v 95.878792 198.132584 3.175000
v -91.221855 198.756775 -33.337502
v 96.152420 197.537689 9.414636
v 96.401550 196.996033 11.763739
v 57.062801 42.938869 53.495266
v 55.823643 44.366505 54.877602
v 45.823875 57.562614 60.277195
v 45.817505 44.080608 60.278763
v 49.314468 44.250267 59.122913
v 107.801323 172.210876 15.367000
v -20.320000 57.562614 -65.087502
v -47.117001 55.035038 -65.087502
v -20.320000 58.963276 -65.005920
v -22.527048 42.823589 -65.087502
v -16.782063 58.963276 -64.882370
v -91.221855 196.358780 -49.396423
v 42.159248 58.963276 -60.760796
v -105.417107 179.079697 -51.817703
v -103.400131 119.459846 -45.529499
v -57.529079 26.721720 -53.653816
v -54.711258 43.271339 -63.153191
v -107.582703 161.741547 -51.879501
v -52.379536 41.966789 -64.103439
v -56.108292 40.635220 -61.964897
v -49.971962 56.635883 -64.828674
v -49.602661 43.461372 -64.891701
v -47.117001 43.506084 -65.087502
v -108.432945 172.106476 -51.879501
v -57.457188 20.298014 -45.229771
v -54.525074 4.062394 -18.578917
v -57.457188 20.298014 45.229771
v -55.760540 16.164886 43.493435
v -56.403915 20.298014 49.320629
v -22.374811 2.659641 -52.262760
v -49.636005 16.164886 -52.363518
v -50.954041 20.298014 -54.816353
v -20.320000 2.842402 -53.085854
v -54.178349 20.298014 -52.553570
v -54.230663 26.629585 -56.929478
v -52.530277 16.164886 -50.227863
v -15.955592 -12.700000 -15.471577
v -38.111965 0.410644 -40.674515
v -9.289168 -12.700000 -20.190641
v -32.485542 0.644888 -45.141148
v 10.514504 -12.700000 -19.580496
v -21.581062 0.644404 50.018501
v -27.043928 0.354540 47.105213
v -18.661528 0.549300 50.762241
v 6.236209 2.576625 55.347473
v 4.443684 2.984267 55.810825
v 2.733752 2.560347 55.651035
v 4.407744 1.467461 54.484055
v 6.148506 5.200175 56.502819
v 7.155769 3.204101 55.645794
v 12.395293 5.154182 55.489552
v -56.352509 3.888824 -2.922092
v -10.514504 -12.700000 19.580496
v -16.877775 -12.700000 14.459991
v -21.961977 -12.700000 3.409130
v -52.150169 0.408804 10.678633
v -52.793842 0.610351 9.204440
v -52.446693 0.351749 -5.746949
v -52.918060 0.619895 -8.127513
v -52.631233 0.359872 -1.901394
v -49.428543 8.492526 43.272614
v -52.448174 12.062751 44.766758
v -48.752602 6.720874 41.012367
v -58.213394 39.537209 59.827484
v -105.386520 177.571747 51.879501
v -50.234783 56.780201 64.778320
v -49.163311 43.472263 64.955063
v -96.366661 198.756775 -33.337502
v -96.470367 198.531311 -43.539646
v -96.640282 198.161880 -45.927135
v -91.221855 198.756775 -39.687500
v 42.142250 60.344994 -60.517754
v 45.445038 58.963276 -60.281452
v 107.801323 172.210876 -15.367000
v 48.622204 58.963276 -59.316154
v 51.619305 58.963276 -57.886612
v 96.980835 195.736588 -12.876504
v 96.812813 196.101883 -12.777719
v 45.391891 60.344994 -60.043682
v 48.534100 60.344994 -59.089008
v 71.419601 22.446064 29.679516
v 71.419601 21.507744 28.848238
v -90.784790 196.078110 49.306362
v -35.772896 43.289810 65.087502
v -22.527048 42.823589 65.087502
v 52.610558 57.562614 57.380875
v 51.619305 58.963276 57.886612
v 52.595676 44.345554 57.390335
v 48.534100 60.344994 59.089008
v 49.338257 57.562614 59.112656
v -92.809357 196.358780 -49.396423
v -91.221855 179.130493 -51.817703
v -97.468697 196.360779 -49.389004
v -97.340385 196.639755 -49.322548
v -91.221855 198.249084 -45.455566
v -51.120953 43.416840 -64.574394
v -56.419758 41.895298 -61.992046
v -116.256531 155.776733 -45.529499
v -19.997749 39.808670 -64.719757
v 2.894624 5.172902 -56.788040
v -3.408919 5.022179 -56.870468
v -105.823586 178.195953 -51.879501
v -108.049355 173.356781 -51.879501
v -47.132343 42.031685 -64.997063
v -49.619144 41.287449 -64.689888
v -108.404274 172.479294 -51.879501
v -55.469437 4.535245 14.585791
v -54.925503 2.851702 12.985772
v -59.302605 33.163357 55.243435
v -58.654263 29.914305 54.193287
v -59.549988 30.017975 52.414993
v -57.008846 33.071259 58.081879
v -47.079967 0.556494 -29.833382
v -48.693859 0.688607 -26.983232
v -48.741726 1.333250 -29.375505
v -18.526814 -12.700000 -12.276312
v -52.447273 0.584031 -11.652858
v -47.814732 12.062751 -49.578426
v -50.448399 12.062751 -47.487816
v 39.636581 0.397778 37.084507
v 41.513344 0.394935 34.997845
v 40.933334 0.898663 37.237598
v 18.526814 -12.700000 12.276312
v 22.214458 -12.700000 0.684420
v 71.419601 20.200001 -25.400000
v 6.737568 -12.700000 -21.179136
v -13.375967 0.549545 52.095203
v -14.594831 0.370593 51.374954
v -12.265403 1.275314 53.565540
v -10.609209 0.570314 52.642658
v -4.593054 3.052382 56.041824
v -8.161256 2.364510 55.289749
v -4.524566 1.398585 54.592495
v -0.170210 2.529273 55.748348
v -0.809120 1.437894 54.709934
v -17.834383 0.433745 50.716866
v 22.250401 0.820014 49.284447
v 26.210449 0.794365 47.490528
v 8.034608 1.469782 54.057266
v 11.057055 1.460156 53.530342
v 9.517324 2.570523 54.877312
v 7.947779 2.989996 55.409031
v -20.320000 42.772346 65.087502
v 0.549634 22.676054 60.248573
v -0.790127 5.100309 56.911476
v -54.059414 2.990922 18.210863
v -47.229321 1.758718 33.303612
v -49.918922 2.361540 29.330669
v -40.263504 0.374377 38.568066
v -51.775055 1.045623 19.618681
v -53.132298 2.300807 19.964552
v -52.658890 1.173690 16.565580
v -50.662506 6.868531 37.585442
v -47.814732 12.062751 49.578426
v -27.840219 1.935514 49.456707
v -47.127369 14.109384 51.782196
v -49.636005 16.164886 52.363518
v -107.612289 172.732590 51.879501
v -54.701221 40.616047 62.825207
v -95.929596 198.132584 39.687500
v -92.809357 198.629852 -42.580006
v 45.823875 57.562614 -60.277195
v 56.645348 42.235752 -53.793224
v 56.240856 42.945866 -54.358055
v 55.258297 44.369331 -55.389954
v 107.561493 172.732590 -15.367000
v 49.338257 57.562614 -59.112656
v 48.622772 44.222115 -59.403378
v 96.455681 196.878357 -12.067073
v 96.424530 196.946075 -11.916575
v 96.536041 196.703644 -12.332829
v 55.110950 40.170403 54.510418
v 42.142250 60.344994 60.517754
v 42.159248 58.963276 60.760796
v 42.164936 43.829075 60.842175
v 42.454128 42.118996 60.696106
v -92.372292 196.078110 49.306362
v -90.784790 197.624893 45.455566
v 45.445038 58.963276 60.281452
v 105.335724 177.571747 15.367000
v 48.622204 58.963276 59.316154
v -20.320000 55.035038 -65.087502
v -19.137938 57.562614 -65.073746
v -17.960310 58.963276 -64.950996
v -16.776371 57.562614 -64.963753
v -17.956514 57.562614 -65.032486
v -19.139835 58.963276 -64.992188
v 22.250401 58.728737 -62.178112
v 42.164936 57.562614 -60.842175
v -92.809357 178.836975 -51.852009
v -92.809357 196.702301 -49.306362
v -91.221855 196.702301 -49.306362
v -91.221855 197.015656 -49.139236
v 96.655060 196.444855 -12.582032
v -91.221855 197.618134 -48.284019
v -92.809357 198.250015 -45.450275
v 96.401550 196.996033 -11.763739
v -97.007133 197.364288 -48.799004
v -96.935562 197.519913 -48.544903
v -92.809357 197.486343 -48.613800
v -52.612034 43.362766 -64.106133
v -57.496235 39.495754 -60.493172
v -55.719204 39.404499 -61.825356
v -50.348228 41.284134 -64.557571
v -49.542965 39.197388 -64.115921
v -52.092777 40.590023 -63.945049
v -48.321423 32.853943 -61.741219
v -51.405312 32.882248 -61.212357
v -9.551811 4.751075 -56.341774
v -13.694586 3.327425 -55.091988
v -52.883015 29.770729 -59.293148
v -53.799889 39.322884 -62.870968
v -53.817501 32.974743 -60.297733
v -16.531000 2.633617 -54.008553
v -49.815498 26.561201 -58.745045
v -20.320000 1.767552 -52.143135
v -20.320000 0.926026 -50.992443
v -22.056719 1.599458 -51.363373
v -1.368191 -12.700000 -22.182846
v 9.161167 5.194151 -56.092171
v 44.826511 41.009838 -60.107224
v 12.500890 4.263140 -55.223049
v -47.147461 40.579391 -64.727104
v -20.384270 39.808289 -64.717560
v -47.266594 39.166161 -64.279404
v -22.577950 40.766220 -64.910683
v -108.289192 172.835068 -51.879501
v -46.625244 0.856315 -31.938620
v -47.229321 1.758718 -33.303612
v -50.245930 2.451594 -28.779587
v -50.703854 1.985994 -26.649263
v -50.662506 6.868531 -37.585442
v -48.804836 2.084010 -31.083984
v -50.097332 0.422622 -21.175629
v -51.038845 0.483217 -18.150856
v -50.720711 0.907327 -22.554646
v -50.099667 0.833708 -24.046642
v -51.656418 1.029274 -19.980860
v -52.207802 1.723944 -21.329800
v -58.985920 29.949884 53.613415
v -57.288197 26.698069 53.988770
v -56.712833 29.877193 56.703640
v -48.874023 6.727501 -40.842640
v -44.411976 0.406327 -33.726448
v -45.480076 0.455924 -32.285534
v -51.811172 0.537234 -15.026070
v -53.290859 1.271171 -13.823092
v -52.280602 0.415767 -9.713099
v -28.459864 3.232262 -50.240089
v -26.597879 1.619400 -49.634918
v -30.795698 2.044588 -48.178177
v -30.616394 1.677523 -47.857014
v -31.886709 1.552391 -47.039974
v -44.581757 8.508185 -47.584358
v -40.122562 0.375620 -38.713657
v -41.921085 0.369834 -36.769127
v -46.111061 4.952924 -41.207634
v -47.912258 6.727501 -42.168068
v -46.644394 6.704763 -43.560688
v -20.320000 0.345433 -49.689587
v -25.896584 0.403597 -47.751057
v -15.745334 0.292624 -50.861702
v -26.950537 0.890350 -48.403370
v -27.814976 0.368959 -46.800625
v 27.416981 0.427442 46.006493
v 21.961977 -12.700000 -3.409130
v 50.995529 1.108296 18.126827
v 51.799061 1.982802 19.666037
v 50.362484 0.734258 19.560427
v 50.032330 0.503078 18.126827
v 71.419601 20.351103 -26.644442
v 16.877775 -12.700000 -14.459991
v 43.270962 1.580766 -35.994068
v 40.356506 0.902878 -37.852432
v 40.231117 1.606321 -39.330982
v 41.965206 1.983649 -38.116447
v 45.933266 2.038692 -33.226608
v 12.162416 0.636337 -51.995720
v 22.250401 0.687438 -49.017864
v 25.253258 0.816591 -47.987698
v -32.485271 2.625437 47.834282
v -25.757013 0.800870 48.741062
v -27.161489 1.523303 49.274933
v -27.806301 0.854998 47.958092
v -11.983629 0.385098 51.950539
v -9.157066 1.328766 54.115074
v -10.810824 2.285163 54.886639
v -7.607407 4.851183 56.577080
v -47.147461 40.579391 64.727104
v 1.049881 1.451912 54.681683
v -2.029555 0.345681 52.753105
v -4.433551 0.339153 52.666462
v -2.731192 -12.700000 22.056545
v -6.499511 0.332334 52.514221
v 24.256630 1.464085 49.463287
v 12.813094 0.634354 51.846794
v 1.017690 2.952924 56.007591
v 0.154011 3.150909 56.154663
v 5.302404 3.200961 55.858913
v -16.838087 41.712223 64.934784
v -16.904097 40.824623 64.839729
v 13.664828 41.283821 62.765148
v -16.776371 42.604736 64.963753
v 11.789797 3.177153 54.862659
v -16.974035 39.946823 64.679100
v -19.997749 39.808670 64.719757
v -20.341619 41.775242 65.046204
v 42.143177 41.278015 60.575939
v 31.994509 41.292282 61.391964
v -5.735937 40.151928 63.976967
v 5.033553 40.142208 63.219109
v 28.746412 41.290707 61.642754
v -54.635303 2.321886 -12.252695
v -53.980072 2.148624 -15.424527
v -55.636261 3.091896 8.200915
v -53.741737 12.062751 41.249466
v -52.148239 3.062951 25.120422
v -52.242500 2.060227 22.401423
v -50.701385 1.421031 24.922953
v -31.040022 0.305168 44.980080
v -44.587494 1.468878 36.568336
v -46.887333 0.542909 30.145693
v -48.049992 0.631753 28.174774
v -45.272228 0.443169 32.571915
v -49.521873 1.221576 27.254545
v -50.415447 0.870410 23.306154
v -46.842464 6.703063 43.353237
v -42.747360 1.433778 38.673420
v -44.094528 4.952374 43.240993
v -47.345097 8.480587 45.558601
v -40.834438 1.483125 40.707966
v -20.961607 -12.700000 7.386585
v -50.902466 0.929986 22.088440
v -49.724998 0.241163 20.492044
v -53.961960 2.545417 17.211590
v -54.358978 2.669024 15.647906
v -54.361847 2.248549 13.687281
v -50.621662 0.274985 17.359999
v -51.530575 0.376514 14.302754
v -52.275959 0.571223 12.668264
v -54.611950 16.164886 47.292828
v -54.598671 18.228138 50.003399
v -54.178349 20.298014 52.553570
v -48.514687 18.228138 54.347382
v -50.448399 12.062751 47.487816
v -52.530277 16.164886 50.227863
v -51.983265 18.228138 52.652245
v -50.683266 41.992664 64.593872
v -49.685875 39.200253 64.094681
v -14.040771 4.514409 55.526455
v -48.643826 39.181850 64.219421
v -20.384270 39.808289 64.717560
v 45.449078 44.058754 -60.364227
v 42.164936 43.829075 -60.842175
v 45.880856 41.315910 -59.933247
v 31.827608 2.473106 -46.678360
v 30.869383 2.528404 -47.288349
v 34.765621 3.874342 -45.789864
v 29.603477 1.166786 -46.392803
v 71.419601 20.351103 26.644442
v 51.248577 1.914519 22.228895
v 56.577381 40.178448 53.048454
v 56.372391 42.241692 54.077904
v -19.137938 57.562614 65.073746
v 22.250401 59.426304 62.089569
v -16.782063 58.963276 64.882370
v 42.164936 57.562614 60.842175
v 2.738592 42.411617 63.599136
v -16.776371 57.562614 64.963753
v 35.397293 42.002342 61.230896
v 96.727715 196.286896 12.686921
v 96.614265 196.533554 12.509418
v -96.586838 196.703644 48.845329
v -92.372292 196.657639 48.904125
v -90.784790 196.657639 48.904125
v -96.091629 197.780289 44.498039
v -96.452354 196.996033 48.276237
v 107.561493 172.732590 15.367000
v 22.250401 57.562614 -62.234737
v -91.221855 178.836975 -51.852009
v -92.809357 179.130493 -51.817703
v -96.889420 197.620224 -48.276237
v -91.221855 197.486343 -48.613800
v -97.102135 197.157761 -49.021915
v -57.626255 29.949890 -55.718929
v -57.048298 29.903978 -56.367264
v -59.044373 39.590996 -58.936413
v -57.333710 33.094109 -57.772472
v 5.826021 3.202652 -55.804432
v 1.167122 3.815048 -56.459343
v -48.691330 29.708387 -60.372257
v -51.132366 29.708387 -59.903534
v -52.659298 32.923916 -60.799694
v -53.669319 29.811272 -58.928062
v -55.770512 29.811272 -57.526482
v -56.399132 33.032143 -58.610371
v -56.434669 29.856607 -56.964134
v -16.183983 1.201061 -52.618637
v -15.955998 2.658305 -54.167469
v 42.454128 42.118996 -60.696106
v -20.320000 39.809441 -64.718208
v -44.852039 1.481876 -36.253326
v -42.359299 1.437228 -39.098457
v -46.205975 0.498260 -31.211384
v -54.582905 2.594964 -14.034688
v -53.839218 2.508048 -17.657740
v -55.760540 16.164886 -43.493435
v -53.741737 12.062751 -41.249466
v -54.611950 16.164886 -47.292828
v -53.168625 1.945485 -18.458256
v -51.873589 1.967237 -23.301497
v -52.663391 3.256347 -23.949314
v -56.156967 39.427040 61.534241
v -54.314342 39.342758 62.624638
v -53.092068 29.780602 59.201965
v -55.255821 29.780602 57.912453
v -53.895226 26.609200 57.135799
v -52.274696 29.743484 59.534607
v -57.178310 29.914305 56.229431
v -56.329315 29.849201 57.058796
v -43.087273 0.378553 -35.399193
v -51.710361 0.385755 -13.370518
v -35.923229 2.075511 -45.279266
v -44.303925 6.744236 -45.616898
v -23.736425 2.050444 -51.241219
v -42.917721 0.659093 -36.651443
v -21.667778 0.778906 -50.263683
v -24.288124 0.894908 -49.507610
v -30.281370 0.746251 -46.554749
v 12.841023 -12.700000 18.139977
v 48.495594 42.862610 59.370701
v 50.697647 42.914673 58.388073
v 51.323513 42.232861 57.938808
v 21.710453 -12.700000 4.754663
v 49.184681 0.256067 19.749743
v 50.032330 0.503078 -18.126827
v 50.191338 0.619929 -19.289467
v 51.579060 1.858748 -20.672617
v 49.291054 1.349145 -25.465532
v 49.216103 2.301070 -27.988667
v 51.341389 2.046644 -22.340958
v 20.961607 -12.700000 -7.386585
v 48.173515 2.188972 -29.813742
v 47.894920 2.164056 -30.272532
v 48.176441 1.058972 -26.959976
v 46.768448 2.082140 -32.022861
v 46.140350 0.960975 -30.477119
v 28.845205 1.186609 -46.840977
v 27.756678 0.426491 -45.825886
v -7.611535 1.354741 54.316372
v -13.803617 2.198613 54.274731
v -8.430937 2.936936 55.674946
v -13.197933 2.767218 54.841263
v -0.827243 0.348358 52.760178
v -7.532249 0.328498 52.410633
v 11.102009 0.438810 51.756351
v -1.429357 3.123556 56.158333
v -2.695667 3.097698 56.131573
v -3.328193 3.083465 56.108284
v 26.617569 3.098404 49.932148
v 49.898735 38.606045 57.288307
v 25.121313 3.048147 50.578915
v 12.744470 2.544303 54.235733
v -16.511795 39.977062 64.658318
v -47.117001 43.506084 65.087502
v -49.010059 42.013412 64.884850
v 43.785786 40.431931 60.143284
v -53.745914 1.344019 11.338787
v -54.946827 2.407192 10.326500
v -53.023216 0.627988 7.081251
v -56.321999 3.875880 3.665509
v -52.911968 2.603362 21.694805
v -50.764950 1.711795 25.719870
v -45.137096 0.727912 33.934978
v -42.487473 0.372541 36.114742
v -47.957741 1.004525 29.928202
v -47.778526 6.720874 42.322193
v -45.683723 6.703063 44.467064
v -44.609493 6.728372 45.373550
v -41.936207 6.813411 47.082432
v -38.812229 1.650817 42.709629
v -36.705929 1.954368 44.623047
v -37.645439 0.781122 42.068676
v -34.138382 1.041055 44.971901
v -38.811157 0.394400 40.016499
v -38.051346 0.412372 40.730587
v -37.025295 0.448219 41.648586
v -48.792191 0.349512 24.539972
v -54.952744 2.708807 12.098217
v -54.539459 2.726409 14.864771
v -50.980831 0.289385 15.861976
v -50.954041 20.298014 54.816353
v -52.301250 39.268040 63.461273
v -50.446465 40.581345 64.385307
v -51.755081 32.892246 61.109875
v -50.978653 32.869743 61.323986
v -50.881813 43.424557 64.634621
v -48.798016 32.860104 61.704529
v -48.754337 29.709812 60.366352
v -50.153660 41.999626 64.706009
v -48.836040 40.576176 64.638420
v 47.507488 42.271313 -59.642422
v 49.393749 42.204433 -58.897911
v 51.961262 44.332371 -57.781872
v 31.099045 1.125889 -45.460365
v 39.142509 2.056622 -40.965645
v 36.760426 1.722465 -42.515228
v 37.180603 3.646103 -43.953758
v 39.484909 3.473512 -41.972847
v 57.074844 41.539696 -53.109390
v 58.741905 42.904236 -51.392494
v 50.336880 0.936305 21.131142
v 41.884918 0.895586 36.174244
v 43.688427 0.404984 32.201397
v 43.696930 0.905733 33.959755
v 46.666748 1.676355 31.422983
v 46.616207 0.979048 29.715504
v 47.972118 1.762833 29.332542
v 45.857677 2.035475 33.332157
v 44.038368 1.589109 35.050861
v 71.419601 20.795630 27.816561
v 40.110722 3.436462 41.391556
v 42.263054 3.348654 39.235725
v 54.113949 42.949188 56.221687
v -17.956514 57.562614 65.032486
v -20.320000 57.562614 65.087502
v 22.250401 57.562614 62.234737
v 22.250401 42.843082 62.234737
v 22.250401 41.288303 62.134418
v 96.852516 196.015564 12.810049
v -92.372292 196.391464 49.139236
v 96.519272 196.740097 12.286503
v -90.784790 196.993942 48.284019
v -92.372292 198.005661 42.580006
v -92.372292 197.625824 45.450275
v -92.809357 197.620224 -48.276237
v -92.809357 197.618134 -48.284019
v -92.809357 197.281830 -48.904125
v -91.221855 197.281830 -48.904125
v -97.215584 196.911087 -49.199421
v -58.182812 33.156460 -56.850731
v -58.985970 29.949890 -53.613319
v -5.246632 3.662498 -56.334843
v -4.625726 3.051571 -56.039780
v -5.430700 2.827047 -55.853130
v -9.161696 2.910915 -55.575893
v 5.083330 3.200066 -55.880367
v -52.052151 29.735222 -59.614948
v -51.755699 39.251404 -63.633137
v -14.218225 0.300131 -51.246002
v -13.451629 0.303675 -51.422195
v 35.397366 42.002342 -61.230888
v 31.994574 41.292282 -61.391960
v 28.746462 41.290707 -61.642750
v 42.719784 40.444504 -60.302601
v 11.493813 40.047749 -62.728348
v 0.728117 40.168522 -63.530861
v -54.859177 2.829958 -13.331917
v -55.196476 2.941900 -11.435900
v -52.448174 12.062751 -44.766758
v -52.636429 1.170318 -16.652735
v -50.838097 1.727533 -25.571409
v -52.971756 2.135486 -20.021059
v -56.435970 33.034679 58.580357
v -52.968746 32.936035 60.677437
v -55.932091 29.822468 57.397156
v -34.334976 0.560924 -43.819321
v -35.238670 0.521415 -43.124454
v -36.244240 0.879841 -43.293346
v -40.289532 1.514287 -41.261295
v -38.866478 0.713782 -40.926014
v -39.118004 0.388648 -39.719509
v -36.327412 0.475875 -42.241589
v -34.048668 1.337057 -45.510532
v -47.202053 8.481727 -45.688412
v -45.466209 6.704763 -44.657722
v -45.362946 0.742119 -33.643307
v -25.584419 0.943459 -49.075539
v -29.155416 0.796784 -47.215641
v 31.744640 0.263920 42.943932
v 34.313107 0.245040 41.104717
v 35.708511 0.990006 42.132332
v 32.437511 1.087414 44.568478
v 38.022087 2.104595 41.982971
v 37.867168 0.939168 40.281689
v 40.128471 1.608600 39.433926
v 37.848988 3.590618 43.403751
v 36.542988 2.181407 43.238071
v 34.704224 0.242379 40.801575
v 39.931904 0.907113 38.291809
v 48.075588 42.179867 59.426289
v 53.506382 40.171799 55.843777
v 33.179886 4.024575 46.883987
v 50.445488 32.452003 53.040573
v 13.576334 3.153418 54.462570
v 16.261044 3.744711 54.099735
v 49.951275 0.481232 18.912497
v 50.995529 1.108296 -18.126827
v 50.646248 1.213502 -21.503077
v 45.550564 0.243930 -28.245024
v 45.940884 0.248837 -27.541439
v 44.726776 0.235426 -29.634474
v 47.376640 0.327833 -25.103708
v 48.455956 0.486661 -23.638411
v 47.536194 1.022014 -28.143494
v 49.091778 0.380240 -21.192926
v 42.117939 0.895660 -35.904022
v 40.369034 0.395561 -36.301193
v 43.017929 0.899213 -34.821014
v 43.685757 0.227754 -31.234583
v 43.141285 0.224894 -32.012978
v 41.787170 0.395277 -34.669971
v 47.322487 2.118831 -31.181803
v 34.065533 0.448370 -42.019951
v 34.107704 1.036838 -43.372849
v 35.259525 1.002486 -42.490883
v 26.666002 0.795773 -47.271107
v 38.598904 0.402983 -38.132870
v 20.519049 0.451572 -49.125237
v -20.320000 0.812043 50.787300
v -23.546202 0.794407 49.605621
v -21.985697 1.418717 51.162567
v -23.821220 1.732373 50.873905
v -24.731764 1.884319 50.691467
v -26.810934 1.927826 49.893444
v -24.895536 2.392029 51.111824
v -12.403128 2.606525 54.874077
v -5.573385 3.025924 55.971977
v -6.063504 3.011914 55.930977
v -7.115768 2.980081 55.829117
v 2.706975 0.640331 53.331638
v 28.182291 1.203287 47.219002
v 17.985777 0.337119 49.673691
v 17.509050 0.338670 49.830410
v 14.932123 0.429981 50.839481
v 18.577141 1.389904 51.503849
v -0.796078 3.135161 56.161804
v 49.954552 40.203411 58.053715
v 50.502697 39.552799 57.441113
v 47.704311 40.958141 59.272366
v 46.916542 38.680294 58.615334
v 22.250401 3.729739 52.141785
v 19.023161 3.034070 52.884190
v 22.250401 2.743435 51.544777
v 25.249079 1.835736 49.473637
v 29.947493 2.057705 47.358448
v 28.157187 2.673671 48.872112
v 25.179440 2.451810 50.103592
v 24.208544 2.198236 50.298660
v 14.543762 1.435891 52.722031
v 11.033650 2.972833 54.885468
v -20.363092 40.784962 64.922615
v -22.577950 40.766220 64.910683
v -20.320000 39.809441 64.718208
v -22.567997 41.791656 65.043221
v -47.132343 42.031685 64.997063
v 44.450439 41.592831 60.319191
v 45.418549 41.310627 60.048016
v 42.719784 40.444504 60.302601
v -54.527206 1.473736 -3.961325
v -54.399166 1.452199 -5.887347
v -53.934574 1.374928 -10.096326
v -53.030022 1.230420 15.030956
v -54.176052 1.414949 8.200638
v -54.473251 1.464605 4.878421
v -55.438610 2.544906 5.968311
v -52.700893 0.438393 5.438018
v -56.083973 3.247691 0.214591
v -51.455387 1.866710 24.259417
v -41.762188 0.369384 36.948471
v -44.084328 0.396962 34.152004
v -29.416906 1.416108 48.108086
v -34.832932 0.538966 43.440521
v -49.110264 0.728502 26.166162
v -55.423111 2.858177 8.913110
v -55.586327 2.910852 7.455625
v -49.854496 26.562147 58.737171
v -17.297998 2.984569 54.055851
v -20.320000 2.696789 52.981190
v -22.480114 3.148584 52.560577
v -50.174805 39.210876 64.011932
v -50.339821 43.441044 64.756920
v -49.934616 40.579147 64.484184
v 48.436020 41.342182 -59.103661
v 48.964466 40.963219 -58.778446
v 17.296457 3.291682 -53.571838
v 15.777001 5.074691 -54.674679
v 35.223621 1.795684 -43.750107
v 38.520142 0.927084 -39.677219
v 36.607616 0.418943 -39.967827
v 50.236328 34.819954 -54.740700
v 52.691830 40.175835 -56.432858
v 50.560921 31.138416 -52.057598
v 50.283154 38.704670 -57.124203
v 71.419601 23.556055 -30.262085
v 55.356209 42.242958 -55.050640
v 49.519978 1.141412 24.192478
v 42.814957 0.898040 35.071213
v 42.154892 1.580157 37.288681
v 45.093315 0.421477 30.115585
v 46.438610 0.256078 26.596210
v 45.226051 0.933708 31.858046
v 70.244995 21.688131 30.114025
v 53.194157 42.238110 56.765648
v -17.960310 58.963276 64.950996
v -90.784790 196.391464 49.139236
v -96.705864 196.444855 49.094532
v -92.372292 196.996033 48.276237
v -96.506477 196.878357 48.579575
v 96.447693 196.895721 12.032402
v -92.809357 197.618835 -48.281425
v -92.809357 197.015656 -49.139236
v -7.023221 2.394783 -55.421280
v -8.716238 1.336381 -54.176804
v -9.585559 2.321610 -55.090839
v -10.371243 1.306420 -53.921135
v -12.327557 1.274127 -53.552608
v -13.035063 2.772867 -54.876392
v -9.472976 0.579000 -52.826843
v -0.852562 0.630011 -53.443634
v 4.213891 0.355250 -52.527737
v 2.884963 0.354123 -52.630177
v 2.931028 1.462200 -54.594311
v 6.858680 0.356000 -52.235809
v 42.143208 41.278015 -60.575939
v -20.363092 40.784962 -64.922615
v -16.511795 39.977062 -64.658318
v -16.904097 40.824623 -64.839729
v -16.776371 42.604736 -64.963753
v -49.513699 8.496967 -43.163937
v -53.330803 2.357628 -19.356592
v -55.643482 32.988827 59.183662
v -38.137695 1.742070 -43.345734
v -40.226398 0.672322 -39.580074
v 28.920532 0.514090 45.438965
v 36.469849 0.231864 39.341484
v 38.908684 0.920703 39.306931
v 50.283154 38.704670 57.124203
v 14.276021 3.142069 54.290474
v 45.968494 40.420326 59.654213
v 49.862888 0.595627 -20.562250
v 44.107525 0.911177 -33.418137
v 23.608986 1.430102 -49.694340
v 22.250401 1.407332 -50.214920
v 24.269922 1.882995 -49.955612
v 15.567803 2.504708 -53.522594
v 16.374056 3.101039 -53.721024
v 30.194500 0.274790 -43.948174
v 13.933382 -12.700000 -17.315065
v 10.708762 0.353530 -51.599445
v 9.544372 0.354721 -51.818768
v 8.651160 0.355375 -51.971115
v 20.545319 0.838174 -49.969215
v 15.062300 0.625804 -51.272415
v 16.756945 1.413055 -52.092339
v 16.336527 0.425406 -50.435276
v 17.872246 0.420480 -49.952587
v 13.577875 0.433714 -51.194191
v -14.941636 1.226255 52.950684
v -9.215380 2.713569 55.436142
v -7.641856 2.963269 55.771053
v 0.975876 0.351633 52.725662
v 17.270155 0.339422 49.907276
v 22.250401 1.706114 50.584530
v 51.780151 40.182682 57.030499
v 27.196165 2.390113 49.111515
v 28.764488 2.460696 48.381748
v 15.899412 1.422589 52.347389
v -22.552591 41.791115 65.043213
v -55.642410 2.602820 2.309526
v -54.629257 1.490966 0.681592
v -53.281998 0.648010 3.236152
v -54.315918 1.438258 -6.847403
v -55.918537 3.189746 -5.018912
v -32.708279 1.470456 46.480247
v -30.126457 0.753294 46.648041
v -32.784828 0.631105 44.935993
v -15.479063 2.808197 54.386414
v -51.192932 29.709812 59.886608
v -20.320000 3.370207 53.414978
v -22.321798 2.446444 52.112858
v 14.926466 3.130483 -54.122543
v 46.942833 41.327641 -59.629448
v 46.676636 40.417362 -59.445717
v 33.046524 2.399612 -45.861404
v 33.118778 1.067075 -44.092186
v 36.370934 0.972797 -41.587494
v 50.502697 39.552799 -57.441113
v 49.898735 38.606045 -57.288307
v 29.325750 4.351328 -49.225670
v 27.728508 3.049927 -49.364216
v 50.269276 42.905819 -58.601974
v 71.419601 21.507744 -28.848238
v 55.180481 40.170616 -54.446686
v 54.064877 42.243576 -56.127296
v 49.637245 2.353146 27.194397
v 47.673782 1.029559 27.896221
v 47.657887 0.274946 24.028770
v 54.921349 41.541466 55.238079
v 35.267323 2.258450 44.246464
v 32.234482 1.949847 45.904263
v 32.082527 2.458049 46.511414
v -19.139835 58.963276 64.992188
v -90.784790 196.862152 48.613800
v -96.475327 196.946075 48.429073
v -8.448063 2.738595 -55.540649
v -15.668054 2.670413 -54.244614
v -11.042050 2.841428 -55.269836
v -7.433603 0.594616 -53.090210
v -5.933774 0.415389 -52.789459
v -10.880896 0.390533 -52.156010
v -2.496842 0.428114 -52.972672
v 0.840333 0.351420 -52.730133
v 0.822323 1.450411 -54.688244
v -2.231565 1.424612 -54.692329
v -0.550285 2.524062 -55.750687
v -2.818102 3.095013 -56.127495
v -3.820340 2.468273 -55.672333
v -20.341619 41.775242 -65.046204
v -16.974035 39.946823 -64.679100
v 22.250401 42.843082 -62.234737
v -16.838087 41.712223 -64.934784
v -5.933600 42.417248 -64.205551
v -43.763721 4.964015 -43.544689
v 30.744102 1.135785 45.687565
v 46.488228 41.322704 59.766407
v 49.202995 0.689857 -22.946785
v 28.155752 2.354106 -48.601402
v 24.145361 2.906039 -50.901112
v 22.250401 3.513019 -52.031425
v 25.846325 4.600131 -51.001575
v 31.404541 0.266372 -43.170708
v 19.688858 0.602991 -49.795341
v -20.320000 1.683735 52.049534
v 18.104746 3.059199 53.189568
v -55.848484 2.996128 4.081564
v -54.627300 1.490638 -0.864857
v -52.876976 0.447952 1.322653
v -55.150181 2.463841 -8.807592
v -56.072220 3.243559 -1.356915
v -14.566360 2.715157 54.524990
v -18.312252 2.888936 53.717594
v -51.398746 29.715090 59.826992
v 14.100907 2.935036 -54.202442
v 12.448698 2.547567 -54.302147
v 19.134266 3.667358 -53.205666
v 7.116701 1.470622 -54.186283
v 8.177711 3.202460 -55.504089
v 13.925856 1.441236 -52.881390
v 10.730319 1.461734 -53.595089
v 48.044674 38.648136 -58.171993
v 52.453644 42.234173 -57.260490
v 51.630630 41.540352 -57.597530
v 71.419601 22.446064 -29.679516
v 54.491302 41.542587 -55.599903
v 47.878197 0.278478 23.524776
v 54.768730 42.243416 55.561188
v 34.633434 2.299755 44.725048
v 33.513134 2.370959 45.536289
v 32.944908 2.406074 45.931522
v -92.372292 196.862152 48.613800
v -92.372292 196.993942 48.284019
v -10.021363 2.877659 -55.444347
v -8.641921 0.402543 -52.502319
v -5.763692 1.382228 -54.501465
v 2.227987 2.556081 -55.678028
v 1.055743 2.953425 -56.006470
v 1.861238 3.174188 -56.104767
v -22.567997 41.791656 -65.043221
v -20.320000 42.772346 -65.087502
v 4.908417 42.429882 -63.447407
v 25.988420 1.830948 -49.130360
v 29.221668 2.618693 -48.275059
v 22.250401 2.359591 -51.237514
v 23.562216 2.037604 -50.414017
v 26.018646 2.678956 -49.909981
v -16.740845 1.382411 52.723873
v 15.667139 3.116029 53.921978
v 18.411474 3.051033 53.089397
v -56.020664 3.225367 3.131956
v -52.652847 0.360825 -0.385452
v -55.200336 2.786860 -10.559377
v 10.853851 3.840665 -55.383080
v 9.529473 1.466356 -53.816528
v 7.307141 3.203999 -55.625881
v 49.954552 40.203411 -58.053715
v 51.013222 42.228928 -58.108994
v 53.422161 42.945679 -56.733208
v -4.167832 0.614816 -53.357414
v 3.654333 3.191519 -56.000938
v -2.059357 2.903613 -56.019691
v -22.552591 41.791115 -65.043213
v 22.250401 41.288303 -62.134418
v 30.385914 2.555514 -47.585850
v 18.601669 1.718415 -51.894382
v 23.517443 2.722924 -51.028137
v 24.206406 2.379443 -50.463585
v -56.077877 3.245530 0.998992
v 7.887728 3.203166 -55.546047
v 2.937988 3.185474 -56.048752
v 29.611567 2.597881 -48.048470
f 1 2 3
f 4 5 6
f 7 6 5
f 8 7 5
f 9 10 11
f 12 9 13
f 12 13 14
f 15 16 17
f 18 19 11
f 18 11 10
f 18 20 16
f 21 22 1
f 21 1 3
f 21 3 23
f 24 5 4
f 25 6 7
f 26 4 6
f 27 28 29
f 27 3 2
f 27 2 30
f 27 30 28
f 31 32 33
f 34 35 36
f 34 36 32
f 34 32 37
f 38 9 39
f 40 9 12
f 40 10 9
f 41 40 12
f 42 43 44
f 45 44 43
f 46 16 20
f 47 15 17
f 48 19 18
f 48 18 16
f 49 50 31
f 49 31 33
f 51 22 21
f 51 21 23
f 52 53 54
f 55 24 4
f 56 5 24
f 57 7 8
f 58 8 5
f 59 25 7
f 60 25 59
f 60 59 61
f 62 63 25
f 62 25 60
f 62 60 61
f 64 26 6
f 65 4 26
f 66 1 67
f 68 2 1
f 69 28 30
f 70 37 71
f 72 29 28
f 73 29 72
f 73 72 71
f 73 71 37
f 73 37 32
f 73 32 31
f 73 31 29
f 74 23 3
f 74 3 27
f 74 27 29
f 75 33 32
f 76 29 31
f 76 31 50
f 76 50 74
f 76 74 29
f 77 78 79
f 77 10 78
f 80 10 77
f 80 77 79
f 80 79 20
f 80 20 18
f 80 18 10
f 81 20 82
f 83 84 85
f 86 85 84
f 86 84 44
f 86 44 45
f 86 45 85
f 87 44 84
f 87 88 37
f 87 37 44
f 89 90 91
f 89 92 35
f 93 85 45
f 93 45 43
f 93 43 85
f 94 95 96
f 94 46 20
f 94 20 95
f 97 92 89
f 97 89 91
f 97 91 90
f 97 90 16
f 97 16 46
f 97 46 98
f 97 98 92
f 99 100 16
f 99 16 90
f 101 39 9
f 101 9 11
f 101 11 102
f 103 104 105
f 106 48 16
f 107 108 109
f 107 110 108
f 111 112 113
f 114 109 108
f 115 22 51
f 115 116 52
f 115 52 54
f 117 118 119
f 120 117 119
f 121 108 122
f 123 122 108
f 123 108 110
f 124 118 50
f 124 50 49
f 125 53 126
f 125 54 53
f 127 128 129
f 127 129 1
f 130 131 132
f 130 132 133
f 134 52 116
f 134 135 132
f 134 132 131
f 134 131 136
f 137 24 55
f 138 24 137
f 139 56 24
f 139 24 140
f 141 58 5
f 142 143 6
f 142 6 144
f 145 146 147
f 145 147 148
f 149 150 151
f 152 22 115
f 152 1 22
f 153 64 6
f 153 6 143
f 154 26 64
f 155 156 157
f 155 65 26
f 158 159 65
f 158 65 160
f 158 160 159
f 161 162 163
f 164 66 67
f 164 68 1
f 164 1 66
f 165 44 37
f 165 42 44
f 166 42 165
f 166 70 71
f 166 71 72
f 166 167 42
f 168 36 35
f 168 92 98
f 168 98 75
f 168 75 32
f 168 32 36
f 169 170 33
f 169 33 75
f 171 46 94
f 171 94 96
f 171 75 98
f 171 98 46
f 172 173 113
f 172 113 112
f 174 79 175
f 174 20 79
f 176 175 79
f 176 79 78
f 177 178 20
f 177 20 81
f 179 173 172
f 179 172 112
f 179 177 81
f 180 175 173
f 180 173 179
f 180 179 81
f 180 81 82
f 180 82 175
f 181 182 9
f 181 9 38
f 183 84 83
f 183 83 47
f 183 47 17
f 184 185 42
f 186 19 48
f 186 48 187
f 186 188 11
f 186 11 19
f 189 15 47
f 190 103 105
f 190 105 188
f 190 188 186
f 190 186 187
f 191 112 192
f 193 194 191
f 193 191 114
f 193 114 33
f 193 33 194
f 195 96 95
f 195 169 96
f 196 118 124
f 196 124 121
f 196 121 122
f 197 117 120
f 197 120 118
f 197 118 117
f 198 118 120
f 198 120 23
f 198 23 74
f 198 74 50
f 198 50 118
f 199 200 201
f 202 114 108
f 202 108 121
f 202 121 203
f 202 203 33
f 202 33 114
f 204 205 122
f 204 122 123
f 206 121 124
f 206 124 49
f 206 49 33
f 207 127 1
f 207 1 208
f 209 1 210
f 209 67 1
f 211 1 129
f 212 68 164
f 212 164 67
f 213 214 215
f 213 55 214
f 216 137 55
f 217 4 65
f 218 219 136
f 218 136 131
f 220 57 221
f 220 221 222
f 223 221 57
f 223 57 8
f 224 8 58
f 225 12 14
f 226 141 5
f 227 228 6
f 229 227 230
f 231 232 233
f 231 233 234
f 235 234 233
f 236 6 228
f 236 228 227
f 236 227 144
f 236 144 6
f 237 7 238
f 239 148 62
f 239 62 61
f 239 61 240
f 239 240 241
f 239 241 145
f 239 145 148
f 242 150 145
f 242 145 241
f 243 42 185
f 244 245 149
f 246 128 127
f 246 127 207
f 247 163 248
f 249 154 64
f 250 251 252
f 253 162 248
f 253 248 163
f 253 163 162
f 254 255 256
f 254 256 257
f 258 70 166
f 258 166 165
f 258 165 37
f 258 37 70
f 259 69 30
f 260 92 168
f 260 168 35
f 260 35 92
f 261 96 169
f 261 169 75
f 261 75 171
f 261 171 96
f 262 173 175
f 263 264 10
f 263 10 40
f 265 78 10
f 265 10 264
f 266 82 20
f 266 20 174
f 266 174 175
f 266 175 82
f 267 268 262
f 267 262 175
f 267 175 176
f 267 176 78
f 269 270 20
f 269 20 271
f 272 181 38
f 273 83 274
f 273 47 83
f 275 276 104
f 277 87 84
f 277 84 183
f 277 88 87
f 278 99 90
f 278 90 89
f 279 189 47
f 279 47 273
f 279 273 274
f 280 15 189
f 280 16 15
f 281 189 279
f 281 279 103
f 281 103 190
f 281 190 187
f 281 187 48
f 281 48 106
f 281 280 189
f 282 107 283
f 282 110 107
f 284 111 285
f 284 285 286
f 284 286 283
f 284 192 112
f 284 112 111
f 287 192 284
f 287 284 283
f 287 283 107
f 287 107 109
f 288 285 111
f 288 111 113
f 289 288 113
f 289 113 173
f 289 173 262
f 290 109 114
f 291 112 191
f 291 191 194
f 292 112 291
f 292 293 178
f 292 178 177
f 292 177 179
f 292 179 112
f 294 178 293
f 294 271 20
f 294 20 178
f 295 170 195
f 296 169 195
f 296 195 170
f 296 170 169
f 297 270 295
f 297 295 195
f 297 195 95
f 297 95 20
f 297 20 270
f 298 33 299
f 298 299 300
f 301 118 196
f 301 196 119
f 301 119 118
f 302 120 303
f 302 115 51
f 302 51 23
f 302 23 120
f 304 205 305
f 304 306 119
f 304 119 196
f 304 196 122
f 304 122 205
f 307 308 305
f 307 305 309
f 307 309 310
f 311 132 135
f 312 313 303
f 312 303 120
f 312 120 119
f 312 119 306
f 314 133 132
f 314 132 315
f 316 130 133
f 316 133 314
f 316 317 318
f 319 5 56
f 320 321 322
f 323 205 204
f 323 324 201
f 323 325 305
f 323 305 205
f 326 323 204
f 327 203 121
f 327 121 206
f 327 206 33
f 327 33 203
f 328 213 215
f 328 215 329
f 330 331 332
f 333 215 331
f 333 331 330
f 333 330 332
f 333 329 215
f 334 214 55
f 334 55 4
f 334 4 335
f 334 335 336
f 337 215 214
f 337 214 334
f 337 334 336
f 338 339 336
f 338 336 335
f 340 211 129
f 340 129 341
f 340 341 210
f 340 210 1
f 340 1 211
f 342 212 67
f 343 329 333
f 343 333 332
f 344 216 345
f 346 335 4
f 346 217 347
f 348 159 217
f 348 217 65
f 348 65 159
f 349 350 218
f 349 218 131
f 351 218 350
f 351 350 352
f 351 352 353
f 351 353 354
f 351 354 218
f 355 137 356
f 357 358 359
f 360 56 139
f 360 139 361
f 360 317 362
f 360 362 56
f 363 352 350
f 364 361 139
f 364 139 140
f 365 238 7
f 366 224 58
f 367 368 369
f 367 369 370
f 367 225 14
f 367 14 368
f 371 41 12
f 371 12 225
f 372 58 141
f 373 374 375
f 373 375 376
f 373 41 377
f 378 226 5
f 379 141 226
f 379 380 141
f 381 255 254
f 382 383 384
f 382 384 143
f 382 143 142
f 385 230 227
f 386 229 230
f 387 229 386
f 387 386 232
f 388 245 389
f 390 148 147
f 390 147 234
f 390 234 235
f 391 392 25
f 391 235 233
f 391 233 392
f 393 25 392
f 393 392 394
f 393 230 385
f 393 385 227
f 393 227 6
f 393 6 25
f 395 237 238
f 396 240 61
f 397 147 146
f 397 146 398
f 397 234 147
f 399 149 245
f 399 245 398
f 399 398 146
f 399 146 145
f 399 145 150
f 399 150 149
f 400 401 402
f 400 403 243
f 404 151 150
f 404 150 242
f 405 406 245
f 407 243 185
f 407 401 400
f 407 400 243
f 408 276 409
f 408 409 149
f 410 244 411
f 410 411 402
f 410 402 401
f 412 244 149
f 412 149 409
f 413 414 347
f 415 208 1
f 416 417 162
f 418 251 250
f 418 250 419
f 420 153 143
f 421 163 247
f 422 423 26
f 422 26 424
f 425 419 426
f 427 428 429
f 427 430 161
f 431 429 428
f 431 428 249
f 432 155 26
f 432 26 423
f 433 426 419
f 433 419 250
f 433 434 426
f 435 251 246
f 435 246 436
f 435 436 437
f 435 252 251
f 438 434 433
f 438 433 250
f 438 250 439
f 438 155 432
f 438 432 434
f 440 155 439
f 440 439 250
f 440 250 252
f 440 157 156
f 440 156 155
f 441 442 129
f 441 129 128
f 441 128 416
f 441 416 162
f 443 341 129
f 443 129 442
f 444 257 256
f 445 162 161
f 445 161 430
f 445 430 254
f 446 447 443
f 446 443 442
f 446 442 441
f 446 441 162
f 446 162 445
f 446 445 254
f 446 254 257
f 446 257 447
f 448 69 259
f 449 450 388
f 449 388 451
f 452 389 245
f 453 454 289
f 453 289 262
f 453 262 268
f 453 455 321
f 456 457 458
f 456 459 457
f 460 461 368
f 460 368 14
f 460 14 13
f 462 272 38
f 463 101 102
f 463 272 462
f 463 462 38
f 463 38 39
f 463 39 101
f 464 243 403
f 465 83 466
f 465 466 274
f 465 274 83
f 467 103 279
f 467 279 274
f 467 275 104
f 467 104 103
f 468 403 400
f 468 400 402
f 468 469 403
f 470 276 275
f 470 412 409
f 470 409 276
f 471 16 472
f 473 474 475
f 476 35 34
f 476 34 37
f 476 37 477
f 476 278 89
f 478 280 281
f 478 281 106
f 478 106 16
f 478 16 280
f 479 285 288
f 479 288 289
f 479 289 454
f 480 109 290
f 480 290 192
f 480 192 287
f 480 287 109
f 481 192 290
f 481 290 114
f 481 114 191
f 481 191 192
f 482 299 33
f 482 33 170
f 483 299 295
f 483 295 270
f 483 270 269
f 483 269 271
f 483 298 300
f 483 300 299
f 484 33 298
f 485 486 116
f 487 115 302
f 487 302 488
f 489 200 320
f 490 201 200
f 491 492 308
f 491 308 307
f 491 307 310
f 491 310 315
f 491 315 492
f 493 311 313
f 493 313 312
f 494 313 311
f 494 311 135
f 494 135 495
f 496 302 303
f 496 303 313
f 496 313 494
f 496 494 495
f 496 488 302
f 497 486 488
f 497 488 496
f 497 496 495
f 497 495 135
f 497 135 134
f 497 134 116
f 497 116 486
f 498 362 317
f 498 317 316
f 498 316 314
f 499 498 314
f 499 314 315
f 499 315 310
f 500 454 453
f 500 453 321
f 501 324 323
f 501 323 326
f 501 326 199
f 501 199 201
f 501 201 324
f 502 329 343
f 502 343 358
f 502 358 357
f 502 357 503
f 504 213 328
f 504 345 216
f 504 216 55
f 504 55 213
f 505 506 414
f 505 414 413
f 507 53 508
f 507 506 126
f 507 126 53
f 509 508 53
f 509 53 52
f 509 52 134
f 509 134 136
f 510 414 506
f 511 512 508
f 511 508 331
f 513 514 259
f 513 259 30
f 513 30 2
f 513 2 68
f 515 516 517
f 515 517 518
f 519 210 341
f 519 341 342
f 519 342 67
f 519 67 209
f 519 209 210
f 520 212 342
f 520 342 341
f 520 341 443
f 520 443 517
f 521 216 344
f 521 356 137
f 521 137 216
f 522 217 346
f 522 346 4
f 522 4 217
f 523 354 353
f 524 354 523
f 525 130 316
f 525 316 318
f 525 318 350
f 525 350 349
f 525 349 131
f 525 131 130
f 526 356 521
f 526 521 344
f 526 502 503
f 527 317 360
f 527 360 361
f 528 318 317
f 528 317 527
f 528 527 361
f 528 361 363
f 529 364 140
f 530 7 57
f 531 105 104
f 532 105 531
f 532 533 188
f 532 188 105
f 534 535 8
f 534 8 224
f 536 367 370
f 536 370 224
f 536 224 366
f 536 366 537
f 538 371 225
f 539 540 41
f 539 41 371
f 539 371 541
f 542 366 58
f 543 544 41
f 543 41 540
f 543 540 539
f 543 539 545
f 546 547 377
f 546 377 41
f 548 457 459
f 549 141 380
f 550 232 386
f 550 386 230
f 550 230 394
f 550 394 392
f 550 392 233
f 550 233 232
f 551 229 387
f 552 388 450
f 552 450 553
f 554 391 25
f 555 230 393
f 555 393 394
f 555 394 230
f 556 59 396
f 556 396 61
f 556 61 59
f 557 245 558
f 557 558 234
f 559 234 558
f 559 558 245
f 559 245 388
f 559 388 231
f 559 231 234
f 560 561 562
f 563 241 240
f 564 244 410
f 564 410 401
f 564 401 405
f 564 405 245
f 564 245 244
f 565 184 42
f 565 42 167
f 565 167 566
f 565 407 185
f 565 185 184
f 567 149 151
f 568 437 569
f 568 157 440
f 570 155 157
f 571 415 1
f 572 246 251
f 572 251 418
f 572 418 417
f 572 417 416
f 572 416 128
f 572 128 246
f 573 248 162
f 573 419 425
f 573 425 248
f 574 575 428
f 574 428 421
f 574 421 247
f 574 422 424
f 576 422 574
f 576 574 247
f 576 247 248
f 576 248 425
f 576 423 422
f 577 163 421
f 577 421 428
f 577 428 427
f 577 427 161
f 577 161 163
f 578 430 427
f 578 427 429
f 579 430 578
f 579 578 429
f 579 580 254
f 579 254 430
f 581 582 579
f 581 579 429
f 581 429 431
f 581 431 583
f 581 583 584
f 581 584 582
f 585 249 64
f 585 64 586
f 585 586 583
f 585 583 431
f 585 431 249
f 587 583 586
f 587 586 64
f 588 426 434
f 588 434 432
f 588 432 423
f 589 569 437
f 589 437 208
f 590 208 437
f 590 437 436
f 590 436 246
f 590 246 207
f 590 207 208
f 591 155 438
f 591 438 439
f 591 439 155
f 592 517 443
f 592 443 447
f 592 447 257
f 592 257 444
f 592 518 517
f 593 594 448
f 593 448 259
f 593 259 514
f 593 595 596
f 597 72 28
f 597 28 69
f 597 69 448
f 598 450 449
f 598 449 596
f 598 596 599
f 598 599 450
f 600 448 594
f 600 566 167
f 601 449 451
f 601 451 388
f 601 388 389
f 602 455 453
f 602 453 268
f 602 268 603
f 604 267 78
f 605 459 456
f 606 376 375
f 606 375 607
f 606 607 608
f 606 608 609
f 610 263 40
f 610 40 611
f 612 369 368
f 612 368 461
f 612 535 369
f 613 222 221
f 614 615 221
f 614 221 223
f 616 617 618
f 616 619 620
f 621 620 619
f 621 619 616
f 621 616 618
f 621 618 460
f 621 460 13
f 621 13 9
f 621 9 182
f 621 182 620
f 622 623 182
f 624 102 11
f 624 11 188
f 625 464 403
f 625 403 469
f 626 42 243
f 626 243 464
f 626 43 42
f 627 469 468
f 627 275 467
f 627 467 274
f 627 274 466
f 627 466 469
f 628 275 627
f 628 627 468
f 628 468 402
f 628 402 470
f 628 470 275
f 629 412 470
f 629 470 402
f 629 402 411
f 629 411 244
f 629 244 412
f 630 16 471
f 630 183 17
f 630 17 16
f 631 88 277
f 631 277 183
f 632 475 472
f 632 472 16
f 633 100 99
f 633 99 278
f 634 35 476
f 634 476 89
f 634 89 35
f 635 278 476
f 635 476 477
f 635 477 278
f 636 482 170
f 636 170 295
f 637 299 482
f 637 295 299
f 638 484 298
f 639 293 484
f 639 484 638
f 639 638 298
f 639 298 483
f 639 483 271
f 639 271 294
f 639 294 293
f 640 33 484
f 640 293 292
f 640 292 291
f 640 291 194
f 640 194 33
f 641 488 486
f 641 486 485
f 641 485 115
f 641 115 487
f 641 487 488
f 642 115 485
f 642 485 116
f 642 116 115
f 643 201 490
f 643 644 645
f 643 645 646
f 643 646 309
f 643 309 305
f 643 305 325
f 643 325 323
f 643 323 201
f 647 490 200
f 647 200 489
f 648 492 315
f 648 315 132
f 648 132 311
f 648 311 493
f 648 493 308
f 648 308 492
f 649 306 304
f 649 304 305
f 649 305 308
f 649 308 493
f 649 493 312
f 649 312 306
f 650 498 651
f 650 651 56
f 650 56 362
f 650 362 498
f 652 454 500
f 653 654 652
f 653 652 500
f 653 200 654
f 655 321 320
f 656 200 657
f 656 654 200
f 658 126 506
f 658 506 505
f 658 505 413
f 658 413 659
f 658 659 115
f 658 115 54
f 658 54 125
f 658 125 126
f 660 343 332
f 660 332 331
f 660 331 508
f 660 508 509
f 660 509 136
f 660 136 219
f 661 338 335
f 661 335 346
f 661 346 347
f 661 347 414
f 661 414 510
f 661 510 339
f 661 339 338
f 662 337 336
f 662 336 339
f 662 339 511
f 662 511 331
f 662 331 215
f 662 215 337
f 663 512 511
f 663 511 339
f 663 339 510
f 664 212 520
f 664 68 212
f 665 595 593
f 665 593 514
f 665 515 518
f 665 518 595
f 666 516 664
f 666 664 520
f 666 520 517
f 666 517 516
f 667 140 24
f 667 24 668
f 667 668 669
f 667 669 140
f 670 669 671
f 672 671 138
f 672 138 137
f 672 137 355
f 673 668 24
f 673 24 138
f 673 138 671
f 673 671 669
f 673 669 668
f 674 523 353
f 674 353 529
f 674 529 140
f 674 140 669
f 675 218 354
f 675 354 524
f 675 524 676
f 675 676 359
f 675 219 218
f 677 328 329
f 677 329 502
f 677 502 526
f 677 526 344
f 677 344 345
f 677 345 504
f 677 504 328
f 678 350 318
f 678 318 528
f 678 528 363
f 678 363 350
f 679 364 529
f 679 529 353
f 679 353 352
f 679 352 363
f 679 363 361
f 679 361 364
f 680 530 681
f 680 681 682
f 680 682 683
f 684 682 685
f 684 685 686
f 684 686 623
f 684 623 622
f 684 622 687
f 684 687 688
f 684 688 682
f 689 681 530
f 689 685 682
f 689 682 681
f 690 220 222
f 691 533 532
f 691 532 531
f 691 531 104
f 692 693 687
f 692 687 694
f 692 181 272
f 695 404 563
f 695 696 151
f 695 151 404
f 697 370 369
f 697 369 535
f 697 535 534
f 697 534 224
f 697 224 370
f 698 367 536
f 698 536 537
f 698 538 225
f 698 225 367
f 699 539 541
f 699 541 371
f 699 371 538
f 699 538 698
f 699 698 537
f 700 547 701
f 700 701 58
f 700 58 702
f 700 702 547
f 703 704 542
f 703 542 58
f 703 58 701
f 705 545 704
f 705 704 703
f 705 703 701
f 705 701 547
f 705 544 543
f 705 543 545
f 706 542 704
f 707 708 374
f 707 374 373
f 707 373 709
f 710 58 711
f 710 547 702
f 710 702 58
f 712 372 708
f 712 708 707
f 712 707 709
f 712 711 58
f 712 58 372
f 713 547 546
f 713 546 41
f 713 41 544
f 713 544 705
f 713 705 547
f 714 715 716
f 717 548 459
f 717 459 605
f 717 605 549
f 717 549 380
f 717 380 548
f 718 708 372
f 718 374 708
f 719 379 226
f 720 142 144
f 721 382 142
f 721 142 720
f 721 720 722
f 721 722 383
f 721 383 382
f 723 724 383
f 723 383 722
f 725 255 383
f 725 383 724
f 725 724 726
f 725 726 256
f 725 256 255
f 727 553 551
f 727 551 387
f 728 231 388
f 728 388 729
f 728 729 232
f 728 232 231
f 730 729 388
f 730 232 729
f 731 390 235
f 731 235 391
f 731 391 554
f 731 25 63
f 731 63 62
f 731 62 148
f 731 148 390
f 732 395 238
f 733 7 237
f 733 237 734
f 733 734 59
f 733 59 7
f 735 396 59
f 735 734 237
f 735 237 736
f 735 736 396
f 737 245 557
f 737 557 234
f 737 234 397
f 737 397 398
f 737 398 245
f 738 561 739
f 738 533 691
f 738 691 740
f 738 740 741
f 738 741 562
f 738 562 561
f 742 743 744
f 742 744 562
f 742 562 741
f 742 696 743
f 745 395 732
f 745 732 746
f 747 693 561
f 747 561 560
f 748 749 745
f 748 560 562
f 748 562 744
f 748 744 749
f 750 563 240
f 750 240 396
f 751 241 563
f 751 563 404
f 751 404 242
f 751 242 241
f 752 753 406
f 752 406 405
f 752 405 401
f 752 401 407
f 754 452 245
f 754 245 406
f 754 406 753
f 754 753 389
f 754 389 452
f 755 407 565
f 756 389 753
f 756 753 752
f 756 755 565
f 756 565 566
f 756 566 601
f 756 601 389
f 757 276 408
f 757 567 758
f 757 758 104
f 757 104 276
f 759 149 567
f 759 567 757
f 759 757 408
f 759 408 149
f 760 761 159
f 762 347 217
f 762 217 159
f 762 413 347
f 763 437 568
f 763 568 440
f 763 440 252
f 763 252 435
f 763 435 437
f 764 765 570
f 764 570 157
f 764 157 568
f 764 568 569
f 764 569 766
f 764 766 765
f 767 65 155
f 767 155 570
f 768 571 1
f 768 1 152
f 769 417 418
f 769 418 419
f 769 419 573
f 769 573 162
f 769 162 417
f 770 428 575
f 770 575 154
f 770 154 249
f 770 249 428
f 771 575 574
f 771 574 424
f 771 424 26
f 771 26 154
f 771 154 575
f 772 383 255
f 772 255 381
f 772 384 383
f 773 584 583
f 773 583 587
f 773 587 64
f 773 64 153
f 774 426 588
f 774 588 423
f 774 423 576
f 774 576 425
f 774 425 426
f 775 415 776
f 775 776 766
f 775 766 569
f 775 569 589
f 775 589 208
f 775 208 415
f 777 450 599
f 777 518 592
f 777 592 444
f 777 444 778
f 779 444 780
f 781 594 593
f 781 593 596
f 781 596 449
f 782 72 597
f 782 597 448
f 782 448 600
f 782 600 167
f 782 167 166
f 782 166 72
f 783 600 594
f 783 594 781
f 783 781 449
f 783 449 601
f 783 601 566
f 783 566 600
f 784 602 603
f 784 603 785
f 786 322 787
f 788 607 716
f 788 716 715
f 788 608 607
f 789 607 375
f 789 375 374
f 789 374 718
f 789 718 790
f 791 608 458
f 791 792 793
f 791 793 608
f 794 792 791
f 794 791 458
f 794 458 457
f 795 611 40
f 795 610 611
f 796 265 264
f 796 264 263
f 797 612 461
f 797 461 460
f 798 615 620
f 798 613 221
f 798 221 615
f 799 686 690
f 799 690 222
f 799 222 613
f 799 613 798
f 799 798 620
f 799 620 182
f 799 182 623
f 799 623 686
f 800 614 223
f 800 223 8
f 800 8 801
f 802 615 614
f 802 614 800
f 802 800 617
f 802 617 616
f 802 616 620
f 802 620 615
f 803 687 622
f 803 622 182
f 803 182 181
f 803 181 692
f 803 692 694
f 803 694 687
f 804 624 188
f 804 188 533
f 805 466 83
f 805 83 85
f 805 464 625
f 805 625 469
f 805 469 466
f 806 631 183
f 806 183 630
f 806 630 471
f 806 471 472
f 806 472 475
f 807 474 473
f 807 473 37
f 807 37 88
f 807 88 631
f 807 631 806
f 807 806 475
f 807 475 474
f 808 477 633
f 808 633 278
f 808 278 477
f 809 37 473
f 810 632 16
f 810 16 100
f 810 100 633
f 811 482 636
f 811 636 295
f 811 295 637
f 811 637 482
f 812 293 640
f 812 640 484
f 812 484 293
f 813 814 815
f 816 817 815
f 816 815 814
f 818 815 817
f 819 498 817
f 819 817 816
f 819 816 814
f 820 5 319
f 821 822 820
f 821 820 823
f 821 824 5
f 821 5 822
f 825 200 653
f 825 653 500
f 825 500 321
f 825 321 655
f 825 655 320
f 825 320 200
f 826 326 204
f 826 199 326
f 827 828 657
f 827 657 200
f 829 286 285
f 829 283 286
f 830 358 343
f 830 343 660
f 830 660 219
f 830 219 675
f 830 675 359
f 830 359 358
f 831 506 507
f 831 507 508
f 831 508 512
f 831 512 663
f 831 663 510
f 831 510 506
f 832 513 68
f 832 68 664
f 832 664 516
f 832 516 515
f 832 515 665
f 832 665 514
f 832 514 513
f 833 524 523
f 833 523 674
f 833 674 669
f 833 669 670
f 834 671 672
f 834 672 355
f 834 355 356
f 834 356 526
f 834 526 503
f 834 503 670
f 834 670 671
f 835 530 680
f 835 680 683
f 835 238 365
f 835 365 7
f 835 7 530
f 836 530 57
f 836 57 220
f 836 220 685
f 836 685 689
f 836 689 530
f 837 685 220
f 837 220 690
f 837 690 686
f 837 686 685
f 838 561 693
f 838 693 692
f 838 739 561
f 839 696 695
f 839 695 563
f 840 696 742
f 840 742 741
f 840 741 740
f 840 758 567
f 840 567 151
f 840 151 696
f 841 542 706
f 841 706 704
f 841 699 537
f 841 537 366
f 841 366 542
f 842 710 711
f 842 711 712
f 842 712 709
f 842 709 373
f 842 373 377
f 842 377 547
f 842 547 710
f 843 380 379
f 843 379 844
f 843 844 845
f 843 548 380
f 846 847 786
f 848 549 714
f 848 141 549
f 849 790 718
f 849 718 372
f 849 372 141
f 849 141 714
f 849 714 790
f 850 5 851
f 850 851 378
f 850 378 5
f 852 824 378
f 852 378 851
f 852 851 5
f 852 5 824
f 853 854 855
f 853 855 844
f 853 844 379
f 856 226 854
f 856 854 857
f 856 857 226
f 858 378 854
f 858 854 226
f 858 226 378
f 859 227 229
f 859 229 551
f 859 720 144
f 859 144 227
f 860 552 553
f 860 553 727
f 860 727 387
f 860 387 232
f 860 232 552
f 861 552 232
f 861 232 730
f 861 730 388
f 861 388 552
f 862 554 25
f 862 25 731
f 862 731 554
f 863 734 735
f 863 735 59
f 863 59 734
f 864 736 237
f 864 237 395
f 864 395 745
f 864 745 749
f 864 749 744
f 864 744 743
f 864 743 736
f 865 692 804
f 865 804 533
f 865 533 738
f 865 738 739
f 865 739 838
f 865 838 692
f 866 867 747
f 866 747 560
f 866 560 748
f 866 748 745
f 866 745 746
f 866 746 867
f 868 563 750
f 868 750 396
f 868 396 736
f 869 407 755
f 869 755 756
f 869 756 752
f 869 752 407
f 870 871 765
f 870 765 766
f 872 760 159
f 872 65 767
f 872 767 570
f 872 570 765
f 872 765 871
f 873 762 159
f 873 159 761
f 874 152 115
f 874 115 659
f 875 582 584
f 875 772 381
f 875 381 254
f 875 254 580
f 875 580 579
f 875 579 582
f 876 384 772
f 876 772 875
f 876 875 584
f 876 420 143
f 876 143 384
f 877 420 876
f 877 876 584
f 877 584 773
f 877 773 153
f 877 153 420
f 878 553 450
f 878 450 777
f 878 777 778
f 879 596 595
f 879 777 599
f 879 599 596
f 880 444 779
f 881 726 724
f 881 724 723
f 881 779 780
f 881 780 444
f 881 444 256
f 881 256 726
f 882 322 786
f 882 786 847
f 882 847 846
f 883 455 602
f 883 602 784
f 884 455 883
f 884 883 784
f 884 784 785
f 884 787 322
f 884 322 321
f 884 321 455
f 885 456 458
f 885 458 608
f 885 608 788
f 885 788 605
f 885 605 456
f 886 605 788
f 886 788 715
f 886 715 714
f 886 714 549
f 886 549 605
f 887 716 607
f 887 607 789
f 887 789 790
f 887 790 714
f 887 714 716
f 888 792 794
f 889 890 891
f 889 888 794
f 892 603 268
f 892 268 267
f 892 267 604
f 893 41 373
f 893 373 376
f 893 376 606
f 893 606 609
f 893 40 41
f 894 796 263
f 894 263 610
f 894 610 795
f 895 265 796
f 896 618 797
f 896 797 460
f 896 460 618
f 897 617 800
f 897 800 801
f 897 797 618
f 897 618 617
f 898 797 897
f 898 897 801
f 898 801 8
f 899 272 463
f 899 804 692
f 899 692 272
f 900 901 683
f 900 683 682
f 900 682 688
f 900 688 687
f 902 867 746
f 902 746 901
f 902 693 747
f 902 747 867
f 903 43 626
f 903 626 464
f 903 464 805
f 903 805 85
f 903 85 43
f 904 475 632
f 904 632 810
f 904 810 633
f 904 473 475
f 905 477 37
f 905 37 809
f 905 809 904
f 905 904 633
f 906 646 645
f 906 645 813
f 906 813 815
f 907 310 818
f 907 818 817
f 907 817 498
f 907 498 499
f 907 499 310
f 908 815 818
f 908 818 310
f 909 910 319
f 909 819 814
f 911 498 819
f 911 819 319
f 911 319 56
f 911 56 651
f 911 651 498
f 912 820 319
f 913 5 820
f 913 820 822
f 913 822 5
f 914 823 820
f 914 820 915
f 914 915 916
f 917 644 643
f 917 643 490
f 918 813 645
f 918 645 644
f 918 644 917
f 918 916 915
f 919 123 110
f 919 828 826
f 920 199 826
f 920 826 828
f 920 828 827
f 920 827 200
f 920 200 199
f 921 479 454
f 921 454 652
f 922 828 919
f 922 829 923
f 922 657 828
f 924 676 524
f 924 524 833
f 924 833 670
f 924 670 503
f 924 503 357
f 924 357 359
f 924 359 676
f 925 732 238
f 925 238 835
f 925 835 683
f 925 683 901
f 925 901 746
f 925 746 732
f 926 758 840
f 926 840 740
f 926 740 691
f 926 691 104
f 926 104 758
f 927 699 841
f 927 841 704
f 927 704 545
f 927 545 539
f 927 539 699
f 928 457 548
f 929 930 931
f 929 931 891
f 932 141 848
f 932 848 714
f 932 714 141
f 933 719 226
f 933 226 857
f 933 857 854
f 933 854 853
f 933 853 379
f 933 379 719
f 934 779 881
f 934 881 723
f 934 723 722
f 935 563 868
f 936 776 415
f 936 415 571
f 936 870 766
f 936 766 776
f 937 760 872
f 937 872 871
f 937 871 870
f 937 870 760
f 938 65 872
f 938 872 159
f 938 159 160
f 939 413 762
f 939 762 873
f 939 873 761
f 939 761 760
f 939 760 874
f 940 870 768
f 940 768 152
f 940 152 874
f 940 874 760
f 940 760 870
f 941 553 878
f 941 878 551
f 941 551 553
f 942 779 934
f 942 551 878
f 942 878 778
f 942 778 444
f 942 444 880
f 942 880 779
f 943 518 777
f 943 777 879
f 943 879 595
f 943 595 518
f 944 882 846
f 944 846 945
f 946 786 787
f 946 787 884
f 946 884 930
f 947 824 821
f 947 821 823
f 947 948 945
f 947 378 824
f 949 846 855
f 949 855 854
f 949 854 378
f 949 378 950
f 949 950 945
f 949 945 846
f 951 931 930
f 951 930 884
f 951 884 785
f 951 889 891
f 951 891 931
f 952 895 792
f 952 792 953
f 954 608 793
f 954 793 792
f 954 792 894
f 954 894 795
f 954 795 40
f 954 40 893
f 954 893 609
f 954 609 608
f 955 894 792
f 955 792 895
f 955 895 796
f 955 796 894
f 956 797 898
f 956 898 8
f 956 8 535
f 956 535 612
f 956 612 797
f 957 624 804
f 957 804 899
f 957 899 463
f 957 463 102
f 957 102 624
f 958 959 901
f 958 901 900
f 958 900 687
f 958 687 693
f 958 693 959
f 960 959 693
f 960 693 902
f 960 902 901
f 960 901 959
f 961 473 904
f 961 904 809
f 961 809 473
f 962 477 905
f 962 905 633
f 962 633 477
f 963 815 908
f 963 908 310
f 963 310 309
f 963 309 646
f 963 646 906
f 963 906 815
f 964 819 909
f 964 909 319
f 964 319 819
f 965 909 814
f 965 814 813
f 965 813 918
f 965 918 915
f 966 647 489
f 966 489 947
f 966 947 823
f 966 823 914
f 966 914 916
f 967 968 966
f 967 966 916
f 967 490 968
f 969 123 919
f 969 204 123
f 970 282 283
f 970 283 829
f 970 829 922
f 970 922 919
f 970 919 110
f 970 110 282
f 971 922 923
f 971 923 829
f 971 829 285
f 971 285 479
f 971 479 921
f 972 928 548
f 972 548 843
f 972 843 845
f 973 928 891
f 974 846 786
f 974 786 946
f 974 946 930
f 975 845 844
f 976 928 972
f 976 929 891
f 976 891 928
f 977 720 859
f 977 859 551
f 977 551 942
f 977 942 934
f 977 934 722
f 977 722 720
f 978 839 563
f 978 563 935
f 978 935 696
f 978 696 839
f 979 736 743
f 979 743 696
f 979 696 935
f 979 935 868
f 979 868 736
f 980 870 936
f 980 936 571
f 981 65 938
f 981 938 160
f 981 160 65
f 982 659 413
f 982 413 939
f 982 939 874
f 982 874 659
f 983 320 322
f 983 322 882
f 983 882 944
f 983 944 945
f 983 945 948
f 984 950 378
f 984 378 947
f 984 947 945
f 984 945 950
f 985 947 489
f 985 489 320
f 985 320 983
f 986 888 889
f 986 889 951
f 986 951 785
f 986 785 953
f 986 953 792
f 986 792 888
f 987 892 604
f 987 604 952
f 987 952 953
f 987 953 785
f 987 785 603
f 987 603 892
f 988 895 952
f 988 952 604
f 988 604 78
f 988 78 265
f 988 265 895
f 989 820 912
f 989 912 319
f 989 319 910
f 989 910 909
f 989 909 965
f 989 965 915
f 989 915 820
f 990 647 966
f 990 490 647
f 991 917 490
f 991 490 967
f 991 967 916
f 991 916 918
f 991 918 917
f 992 826 204
f 992 204 969
f 992 969 919
f 992 919 826
f 993 652 654
f 993 654 656
f 993 656 657
f 993 657 922
f 993 922 971
f 993 971 921
f 993 921 652
f 994 890 889
f 994 889 794
f 994 794 457
f 994 457 928
f 995 855 846
f 995 846 974
f 995 974 975
f 995 975 844
f 995 844 855
f 996 974 930
f 996 930 929
f 997 845 975
f 997 975 974
f 997 974 996
f 997 996 929
f 997 929 976
f 997 976 972
f 997 972 845
f 998 870 980
f 998 980 571
f 998 571 768
f 998 768 870
f 999 947 985
f 999 985 983
f 999 983 948
f 999 948 947
f 1000 968 490
f 1000 490 990
f 1000 990 966
f 1000 966 968
f 1001 973 891
f 1001 891 890
f 1001 890 994
f 1001 994 928
f 1001 928 973
