# Normalized convex hull collision mesh - generated by scripts/generate-collision-meshes.mjs (units: meters)
v -0.014820 -0.012669 0.020000
v 0.030284 0.001359 0.020000
v -0.020675 0.015052 0.020000
v -0.010992 -0.032500 0.005455
v -0.019264 -0.022797 -0.005455
v -0.010992 -0.032500 -0.005455
v 0.008166 -0.032500 -0.005455
v 0.011523 -0.012929 0.020000
v -0.030311 0.002250 0.020000
v -0.031112 0.001976 -0.016364
v -0.025212 -0.014392 0.005455
v -0.019264 -0.022797 0.005455
v -0.025134 -0.014531 0.016364
v 0.008166 -0.032500 0.005455
v 0.003798 -0.026959 0.017091
v 0.021973 0.013536 0.020000
v 0.029739 0.000125 0.020000
v -0.013465 -0.013137 0.020000
v -0.032500 0.002266 0.005455
v -0.032500 0.002266 -0.005455
v -0.032329 0.001658 0.005455
v -0.020390 0.032487 0.005455
v -0.025771 0.028046 -0.005455
v -0.025771 0.028046 0.005455
v -0.022882 0.014346 0.020000
v 0.016438 -0.022797 -0.005455
v 0.030050 0.000392 -0.020000
v -0.020675 0.015052 -0.020000
v -0.030311 0.002250 -0.020000
v 0.010538 -0.013144 -0.020000
v 0.020386 0.031114 -0.005455
v 0.020386 0.031114 0.005455
v 0.025768 0.026672 0.005455
v -0.016784 0.032500 -0.005455
v -0.025134 -0.014531 0.005455
v -0.032329 0.001658 -0.005455
v -0.025356 -0.014110 0.005455
v 0.031533 0.001607 0.016364
v 0.025768 0.026672 -0.005455
v 0.023001 0.012807 0.020000
v 0.020960 0.013692 0.020000
v -0.019174 -0.018881 0.016364
v 0.000688 -0.025984 0.017091
v -0.021352 -0.017949 0.016364
v -0.014433 -0.012893 0.020000
v 0.003221 -0.026869 0.017091
v -0.021876 -0.017655 0.016364
v -0.023598 -0.016398 0.016364
v -0.023985 -0.016028 0.016364
v 0.010538 -0.013144 0.020000
v -0.025356 -0.014110 0.016364
v -0.031431 0.001694 0.016364
v -0.032453 0.002883 0.005455
v -0.031606 0.002743 0.016364
v -0.031619 0.002212 0.016364
v -0.016784 0.032500 0.005455
v -0.020390 0.032487 -0.005455
v -0.021711 0.014983 0.020000
v -0.030205 0.002907 0.020000
v 0.016438 -0.022797 0.005455
v 0.021938 -0.015106 0.016364
v -0.022882 0.014346 -0.020000
v -0.014433 -0.012893 -0.020000
v 0.011927 -0.012717 -0.020000
v 0.021973 0.013536 -0.020000
v -0.025286 -0.014251 0.005455
v 0.032453 0.001510 0.005455
v 0.022755 0.013101 0.020000
v 0.030113 0.001673 0.020000
v 0.021481 0.013653 0.020000
v 0.003412 -0.026903 0.017091
v -0.013972 -0.013052 0.020000
v -0.021529 -0.017853 0.016364
v -0.023860 -0.016153 0.016364
v 0.011927 -0.012717 0.020000
v 0.010151 -0.025602 0.017091
v 0.020179 -0.016892 0.016364
v -0.012940 -0.013142 0.020000
v -0.025286 -0.014251 0.016364
v -0.031203 0.002445 -0.016364
v -0.030321 0.002582 -0.020000
v -0.031111 0.002914 -0.016364
v -0.032453 0.002883 -0.005455
v -0.022179 0.014833 0.020000
v -0.021200 0.015057 0.020000
v -0.030321 0.002582 0.020000
v 0.021938 -0.015106 0.005455
v 0.031948 -0.000283 -0.005455
v -0.021711 0.014983 -0.020000
v -0.022578 0.014616 -0.020000
v -0.029922 0.001638 -0.020000
v -0.013465 -0.013137 -0.020000
v 0.029739 0.000125 -0.020000
v 0.011051 -0.013074 -0.020000
v 0.030113 0.001673 -0.020000
v 0.022755 0.013101 -0.020000
v 0.020960 0.013692 -0.020000
v 0.030252 0.000699 0.020000
v 0.031948 -0.000283 0.005455
v 0.031638 0.001080 0.016364
v 0.032453 0.001510 -0.005455
v 0.032500 0.000893 -0.005455
v 0.031183 0.001290 -0.016364
v 0.022406 0.013349 0.020000
v 0.003604 -0.026933 0.017091
v -0.021704 -0.017755 0.016364
v -0.023731 -0.016276 0.016364
v -0.029922 0.001638 0.020000
v 0.009739 -0.025873 0.017091
v 0.007262 -0.026819 0.017091
v 0.006690 -0.026924 0.017091
v 0.011051 -0.013074 0.020000
v 0.021630 -0.015505 0.016364
v -0.025212 -0.014392 0.016364
v -0.030205 0.002907 -0.020000
v -0.022578 0.014616 0.020000
v 0.032329 0.000286 -0.005455
v 0.031177 0.000818 -0.016364
v -0.021200 0.015057 -0.020000
v -0.022179 0.014833 -0.020000
v -0.014820 -0.012669 -0.020000
v -0.030175 0.001929 -0.020000
v -0.013972 -0.013052 -0.020000
v -0.012940 -0.013142 -0.020000
v 0.011523 -0.012929 -0.020000
v 0.030284 0.001359 -0.020000
v 0.022406 0.013349 -0.020000
v 0.023001 0.012807 -0.020000
v 0.021481 0.013653 -0.020000
v 0.031246 0.000054 0.016364
v 0.031541 0.000552 0.016364
v 0.032500 0.000893 0.005455
v 0.030331 0.001028 0.020000
v -0.030175 0.001929 0.020000
v 0.009880 -0.025785 0.017091
v 0.006882 -0.026893 0.017091
v 0.021839 -0.015240 0.016364
v 0.030050 0.000392 0.020000
v 0.030989 0.000361 -0.016364
v 0.030331 0.001028 -0.020000
v 0.032329 0.000286 0.005455
v 0.010018 -0.025695 0.017091
v 0.007073 -0.026858 0.017091
v 0.021737 -0.015373 0.016364
v 0.030252 0.000699 -0.020000
f 1 2 3
f 4 5 6
f 4 6 7
f 8 2 1
f 9 1 3
f 10 5 11
f 12 5 4
f 12 13 5
f 14 15 4
f 14 4 7
f 16 3 2
f 17 2 8
f 18 8 1
f 19 20 21
f 22 23 24
f 25 9 3
f 26 14 7
f 26 7 27
f 28 27 29
f 30 29 27
f 30 7 6
f 31 32 33
f 31 34 32
f 35 13 11
f 35 11 5
f 35 5 13
f 36 20 10
f 36 10 11
f 36 37 21
f 36 21 20
f 38 33 2
f 39 31 33
f 40 16 2
f 41 3 16
f 42 4 43
f 42 43 44
f 42 44 4
f 45 44 43
f 45 18 1
f 46 45 43
f 46 43 4
f 47 1 48
f 47 48 4
f 49 12 4
f 49 13 12
f 50 8 18
f 51 9 52
f 51 52 21
f 51 21 37
f 53 20 19
f 53 19 54
f 53 54 24
f 53 24 23
f 55 52 9
f 55 54 19
f 55 19 21
f 55 21 52
f 56 34 22
f 56 3 41
f 56 41 32
f 56 32 34
f 57 23 22
f 57 22 34
f 58 25 3
f 59 9 25
f 59 25 24
f 59 24 54
f 60 14 26
f 60 26 61
f 62 28 29
f 63 29 30
f 64 30 27
f 65 27 28
f 66 37 36
f 66 36 11
f 66 51 37
f 67 33 38
f 67 39 33
f 68 16 40
f 68 40 33
f 68 33 32
f 69 33 40
f 69 40 2
f 69 2 33
f 70 32 41
f 70 41 16
f 70 16 32
f 71 46 4
f 72 45 46
f 72 46 71
f 72 71 18
f 72 18 45
f 73 4 44
f 73 44 45
f 74 49 4
f 75 76 17
f 75 17 8
f 77 76 14
f 78 15 50
f 78 50 18
f 78 18 15
f 79 51 66
f 79 66 11
f 80 29 10
f 80 10 20
f 81 29 80
f 81 80 82
f 81 82 23
f 81 62 29
f 83 23 82
f 83 82 80
f 83 80 20
f 83 20 53
f 83 53 23
f 84 25 58
f 84 58 22
f 85 22 58
f 85 58 3
f 85 3 56
f 85 56 22
f 86 9 59
f 86 59 54
f 86 54 55
f 86 55 9
f 87 26 88
f 87 88 61
f 87 61 26
f 89 28 62
f 90 89 62
f 90 62 23
f 90 23 57
f 91 29 63
f 92 63 30
f 93 7 64
f 93 64 27
f 93 27 7
f 94 30 64
f 94 7 30
f 95 27 65
f 96 95 65
f 96 31 39
f 97 34 31
f 97 65 28
f 97 28 34
f 98 2 17
f 99 61 88
f 100 67 38
f 100 38 2
f 101 39 67
f 101 67 102
f 101 102 103
f 101 103 39
f 104 16 68
f 104 68 32
f 104 32 16
f 105 15 18
f 105 18 71
f 105 71 4
f 105 4 15
f 106 47 4
f 106 4 73
f 106 73 45
f 106 45 1
f 106 1 47
f 107 74 4
f 107 4 48
f 107 48 1
f 108 49 74
f 108 107 1
f 108 1 9
f 109 75 8
f 109 8 110
f 109 110 14
f 111 15 14
f 111 50 15
f 112 50 111
f 112 110 8
f 112 8 50
f 113 76 77
f 113 77 14
f 113 14 60
f 114 79 11
f 114 11 13
f 115 62 81
f 115 81 23
f 115 23 62
f 116 25 84
f 116 84 22
f 116 22 24
f 116 24 25
f 117 99 88
f 118 103 102
f 118 102 117
f 119 28 89
f 119 89 57
f 119 57 34
f 119 34 28
f 120 89 90
f 120 90 57
f 120 57 89
f 121 6 91
f 121 91 63
f 121 63 6
f 122 5 10
f 122 10 29
f 122 29 91
f 122 91 6
f 122 6 5
f 123 63 92
f 123 92 6
f 123 6 63
f 124 6 92
f 124 92 30
f 124 30 6
f 125 7 94
f 125 94 64
f 125 64 7
f 126 27 95
f 126 95 39
f 126 39 103
f 127 31 96
f 127 96 65
f 127 65 31
f 128 95 96
f 128 96 39
f 128 39 95
f 129 65 97
f 129 97 31
f 129 31 65
f 130 131 98
f 130 98 61
f 132 67 100
f 132 100 131
f 132 117 102
f 132 102 67
f 133 98 131
f 133 131 100
f 133 100 2
f 133 2 98
f 134 13 49
f 134 49 108
f 134 108 9
f 134 9 51
f 134 51 79
f 134 79 114
f 134 114 13
f 108 107 108
f 108 108 74
f 108 74 107
f 135 75 109
f 135 109 14
f 136 112 111
f 136 111 14
f 137 60 61
f 138 76 113
f 138 137 61
f 138 61 98
f 138 98 17
f 138 17 76
f 139 117 88
f 139 88 26
f 139 26 27
f 139 118 117
f 140 27 126
f 140 126 103
f 140 103 118
f 141 99 117
f 141 117 132
f 141 132 131
f 141 131 130
f 141 130 61
f 141 61 99
f 142 76 75
f 142 75 135
f 142 135 14
f 142 14 76
f 143 112 136
f 143 136 14
f 143 14 110
f 143 110 112
f 144 137 138
f 144 138 113
f 144 113 60
f 144 60 137
f 145 139 27
f 145 27 140
f 145 140 118
f 145 118 139
