# Convex hull collision mesh — generated by scripts/generate-collision-meshes.mjs (units: meters)
v 0.010000 -0.009999 0.500000
v 0.010000 0.009999 0.500000
v -0.002100 0.000000 0.500000
v 0.010000 0.009999 0.000000
v -0.010000 -0.009999 0.000000
v -0.002100 0.000000 0.000000
v -0.010000 0.009999 0.000000
v -0.010000 -0.009999 0.500000
v 0.010000 -0.009999 0.000000
v 0.004750 0.009999 0.500000
v -0.010000 0.009999 0.500000
f 1 2 3
f 4 2 1
f 4 5 6
f 7 2 4
f 7 4 6
f 7 6 5
f 8 7 5
f 8 5 1
f 8 1 3
f 9 5 4
f 9 4 1
f 9 1 5
f 10 2 7
f 10 8 3
f 10 3 2
f 11 8 10
f 11 10 7
f 11 7 8
