# Convex hull collision mesh — generated by scripts/generate-collision-meshes.mjs (units: meters)
v 0.038393 0.038947 0.050000
v 0.016600 0.020000 0.050000
v 0.038947 0.001607 0.050000
v 0.001607 0.001053 0.050000
v 0.001607 0.038947 0.050000
v 0.025300 0.000000 0.000000
v 0.016600 0.020000 0.000000
v 0.040000 0.035500 0.000000
v 0.040000 0.035500 0.050000
v 0.035500 0.040000 0.000000
v 0.000000 0.004500 0.000000
v 0.035500 0.000000 0.050000
v 0.039729 0.002961 0.000000
v 0.039729 0.037039 0.050000
v 0.038947 0.038393 0.000000
v 0.004500 0.040000 0.050000
v -0.000000 0.035500 0.050000
v 0.001607 0.038947 0.000000
v 0.003719 0.000068 0.000000
v 0.036212 0.001380 0.000000
v 0.037750 0.000603 0.000000
v 0.040000 0.004500 0.050000
v 0.039932 0.036281 0.050000
v 0.039729 0.037039 0.000000
v 0.037039 0.039729 0.000000
v 0.038947 0.038393 0.050000
v 0.035500 0.040000 0.050000
v 0.000000 0.004500 0.050000
v 0.004500 0.040000 0.000000
v 0.002961 0.039729 0.050000
v -0.000000 0.035500 0.000000
v 0.000603 0.037750 0.050000
v 0.004500 0.000000 0.050000
v 0.001053 0.001607 0.000000
v 0.035500 0.000000 0.000000
v 0.037750 0.000603 0.050000
v 0.038947 0.001607 0.000000
v 0.039729 0.002961 0.050000
v 0.040000 0.004500 0.000000
v 0.039397 0.037750 0.000000
v 0.039932 0.036281 0.000000
v 0.038393 0.038947 0.000000
v 0.037039 0.039729 0.050000
v 0.036281 0.039932 0.000000
v 0.002250 0.039397 0.050000
v 0.003719 0.039932 0.000000
v 0.000068 0.036281 0.050000
v 0.001053 0.038393 0.000000
v 0.002961 0.000271 0.050000
v 0.004500 0.000000 0.000000
v 0.000603 0.002250 0.050000
v 0.036281 0.000068 0.000000
v 0.038393 0.001053 0.050000
v 0.039397 0.002250 0.000000
v 0.039932 0.003719 0.050000
v 0.039397 0.037750 0.050000
v 0.037750 0.039397 0.000000
v 0.036281 0.039932 0.050000
v 0.003719 0.039932 0.050000
v 0.002961 0.039729 0.000000
v 0.001053 0.038393 0.050000
v 0.000271 0.037039 0.000000
v 0.002250 0.000603 0.000000
v 0.003719 0.000068 0.050000
v 0.001053 0.001607 0.050000
v 0.000068 0.003719 0.000000
v 0.037039 0.000271 0.050000
v 0.038393 0.001053 0.000000
v 0.039397 0.002250 0.050000
v 0.039932 0.003719 0.000000
v 0.037750 0.039397 0.050000
v 0.002250 0.039397 0.000000
v 0.000271 0.037039 0.050000
v 0.000603 0.037750 0.000000
v 0.000068 0.036281 0.000000
v 0.002961 0.000271 0.000000
v 0.001607 0.001053 0.000000
v 0.002250 0.000603 0.050000
v 0.000603 0.002250 0.000000
v 0.000068 0.003719 0.050000
v 0.037039 0.000271 0.000000
v 0.036281 0.000068 0.050000
v 0.000271 0.002961 0.000000
v 0.000271 0.002961 0.050000
f 1 2 3
f 4 3 2
f 5 2 1
f 5 4 2
f 6 7 8
f 9 1 3
f 10 8 7
f 11 10 7
f 11 7 6
f 12 3 4
f 13 6 8
f 14 1 9
f 15 8 10
f 16 5 1
f 17 4 5
f 18 10 11
f 19 11 6
f 20 6 13
f 21 6 20
f 21 20 13
f 22 9 3
f 22 8 9
f 23 14 9
f 23 9 8
f 24 8 15
f 24 14 23
f 25 15 10
f 26 15 1
f 26 1 14
f 27 10 16
f 27 16 1
f 28 4 17
f 28 17 11
f 29 10 18
f 29 16 10
f 30 5 16
f 31 18 11
f 31 11 17
f 32 17 5
f 33 12 4
f 33 6 12
f 34 11 19
f 35 6 21
f 35 12 6
f 36 3 12
f 37 21 13
f 38 22 3
f 39 8 22
f 39 13 8
f 40 14 24
f 40 24 15
f 40 15 26
f 41 8 24
f 41 24 23
f 41 23 8
f 42 15 25
f 42 1 15
f 43 27 1
f 44 10 27
f 44 43 25
f 44 25 10
f 45 5 30
f 45 18 5
f 46 29 18
f 46 16 29
f 47 17 32
f 47 31 17
f 48 18 31
f 48 5 18
f 49 33 4
f 50 6 33
f 50 33 19
f 50 19 6
f 51 4 28
f 52 12 35
f 52 35 21
f 53 3 36
f 53 36 21
f 53 37 3
f 54 3 37
f 54 37 13
f 54 13 38
f 55 22 38
f 55 38 13
f 55 39 22
f 56 14 40
f 56 40 26
f 56 26 14
f 57 1 42
f 57 42 25
f 57 25 43
f 58 43 44
f 58 44 27
f 58 27 43
f 59 16 46
f 59 46 30
f 59 30 16
f 60 30 46
f 60 46 18
f 60 45 30
f 61 5 48
f 61 48 32
f 61 32 5
f 62 48 31
f 63 34 19
f 64 33 49
f 64 49 19
f 64 19 33
f 65 4 51
f 65 51 34
f 65 34 4
f 66 11 34
f 66 28 11
f 67 36 12
f 67 21 36
f 68 37 53
f 68 53 21
f 68 21 37
f 69 3 54
f 69 54 38
f 69 38 3
f 70 39 55
f 70 55 13
f 70 13 39
f 71 1 57
f 71 57 43
f 71 43 1
f 72 45 60
f 72 60 18
f 72 18 45
f 73 32 62
f 73 62 47
f 73 47 32
f 74 48 62
f 74 62 32
f 74 32 48
f 75 47 62
f 75 62 31
f 75 31 47
f 76 49 63
f 76 63 19
f 76 19 49
f 77 34 63
f 77 63 4
f 77 4 34
f 78 4 63
f 78 63 49
f 78 49 4
f 79 66 34
f 79 34 51
f 80 28 66
f 80 51 28
f 81 21 67
f 81 67 52
f 81 52 21
f 82 52 67
f 82 67 12
f 82 12 52
f 83 66 79
f 83 79 51
f 83 80 66
f 84 80 83
f 84 83 51
f 84 51 80
