# Convex hull collision mesh — generated by scripts/generate-collision-meshes.mjs
v 26.291405 83.716270 7.000000
v -33.185623 63.033184 7.000000
v 36.131969 59.663132 7.000000
v -7.085641 59.686108 7.000000
v -13.839980 35.122940 -4.000000
v -33.185623 63.033184 -4.000000
v 27.754625 82.714973 -4.000000
v -23.310123 86.128464 -4.000000
v -33.064907 64.223663 7.000000
v -21.792507 117.879799 0.000000
v -27.972094 109.823235 0.000000
v -21.792507 117.879799 3.000000
v -17.651562 117.903137 0.000000
v -27.972094 109.823235 3.000000
v -35.646393 64.180359 0.000000
v 25.033581 115.388580 3.000000
v 31.213764 107.332474 3.000000
v 25.033581 115.388580 -0.000000
v 28.036854 82.182457 7.000000
v -13.237370 35.113548 7.000000
v 11.000000 -0.000000 3.000000
v -11.000000 0.000000 0.000000
v 11.000000 -0.000000 0.000000
v -15.396884 35.971272 -4.000000
v 13.724278 35.109795 -4.000000
v 31.213764 107.332474 -0.000000
v -24.655001 84.973076 -4.000000
v 25.692827 83.786507 -4.000000
v -33.197540 63.635750 7.000000
v -23.310123 86.128464 7.000000
v -11.000000 0.000000 3.000000
v 5.984045 10.050419 6.200000
v -20.500000 17.599716 0.000000
v -34.104733 64.236649 -3.000000
v -35.646393 64.180359 3.000000
v -17.651562 117.903137 3.000000
v 36.203987 61.985630 7.000000
v 27.754625 82.714973 7.000000
v 20.500000 17.599716 0.000000
v 13.279905 12.512212 6.200000
v 26.462656 30.827703 6.000000
v -15.396884 35.971272 7.000000
v -32.739269 61.922974 -4.000000
v -14.952052 35.564636 -4.000000
v -13.237370 35.113548 -4.000000
v 36.363049 60.219753 -4.000000
v -32.795433 64.762741 -4.000000
v -23.847977 85.856537 -4.000000
v -24.305124 85.463799 -4.000000
v 26.855782 83.504829 -4.000000
v -22.120211 86.254585 -4.000000
v -24.959019 83.815758 7.000000
v -24.305124 85.463799 7.000000
v -33.029846 62.450981 7.000000
v -27.496075 33.357014 6.000000
v -33.197540 63.635750 -4.000000
v -34.673134 63.927513 6.000000
v -35.699944 63.061996 0.000000
v -34.106243 62.536480 -3.000000
v -35.503292 61.959759 0.000000
v 25.692827 83.786507 7.000000
v -22.722824 86.263763 7.000000
v 26.855782 83.504829 7.000000
v 20.500000 17.599716 3.000000
v 24.796368 28.310867 6.000000
v -13.839980 35.122940 7.000000
v -14.422832 35.276276 -4.000000
v 36.203987 61.985630 -4.000000
v 36.131969 59.663132 -4.000000
v 26.815584 31.551094 3.000000
v 38.891441 61.690170 -0.000000
v 37.432613 61.291718 -3.000000
v 36.400131 61.415760 7.000000
v 27.353155 83.164467 -4.000000
v 26.291405 83.716270 -4.000000
v -22.722824 86.263763 -4.000000
v -23.847977 85.856537 7.000000
v -24.655001 84.973076 7.000000
v -20.396675 24.702953 6.000000
v 2.412496 11.819811 6.200000
v 5.321261 10.214386 6.200000
v -27.241467 32.593449 6.000000
v -27.241467 32.593449 3.000000
v -27.496075 33.357014 3.000000
v -33.064907 64.223663 -4.000000
v -33.029846 62.450981 -4.000000
v -35.503292 61.959759 3.000000
v -34.210293 63.386658 -3.000000
v -22.120211 86.254585 7.000000
v 27.353155 83.164467 7.000000
v 12.806514 12.020208 6.200000
v 9.961793 10.303856 6.200000
v 9.305822 10.114463 6.200000
v 34.179680 58.403069 7.000000
v 36.400131 61.415760 -4.000000
v 28.036854 82.182457 -4.000000
v 15.318997 35.884708 -4.000000
v 38.891441 61.690170 3.000000
v 37.210255 59.606155 -3.000000
v 36.363049 60.219753 7.000000
v -22.897327 26.393429 6.000000
v 5.540541 10.153205 6.200000
v -14.952052 35.564636 7.000000
v -32.739269 61.922974 7.000000
v -20.500000 17.599716 3.000000
v -27.415880 33.100948 6.000000
v -34.472008 62.023579 6.000000
v -35.699944 63.061996 3.000000
v 15.318997 35.884708 7.000000
v 9.526314 10.171119 6.200000
v 36.454201 60.815506 -4.000000
v 35.774399 59.177982 -4.000000
v 14.313639 35.235821 -4.000000
v 37.425339 60.435230 -3.000000
v 5.761533 10.098534 6.200000
v -14.422832 35.276276 7.000000
v -25.921078 29.879129 6.000000
v -25.777342 29.652546 6.000000
v -27.331001 32.846401 6.000000
v -27.415880 33.100948 3.000000
v -34.688160 62.963337 6.000000
v 13.724278 35.109795 7.000000
v 35.774399 59.177982 7.000000
v 12.969138 12.179520 6.200000
v 14.855712 35.499229 -4.000000
v 37.834957 61.867180 6.000000
v 37.955364 60.910435 6.000000
v 36.454201 60.815506 7.000000
v 37.843307 59.952675 6.000000
v 38.311588 58.438679 -0.000000
v 37.505299 59.049561 6.000000
v 38.748505 59.469555 3.000000
v 26.815584 31.551094 6.000000
v 38.945076 60.571812 3.000000
v -25.477522 29.207481 6.000000
v -23.499603 26.927389 6.000000
v -23.101341 26.567722 6.000000
v -27.331001 32.846401 3.000000
v 14.855712 35.499229 7.000000
v 14.313639 35.235821 7.000000
v 13.126981 12.343569 6.200000
v 38.748505 59.469555 -0.000000
v 38.311588 58.438679 3.000000
v 26.702374 31.307817 6.000000
v -25.629473 29.428638 6.000000
v -23.302122 26.745729 6.000000
v 9.745034 10.234268 6.200000
v 38.945076 60.571812 -0.000000
v 26.584717 31.066660 6.000000
f 1 2 3
f 4 3 2
f 5 6 7
f 8 7 6
f 9 2 1
f 10 11 12
f 10 12 13
f 14 12 11
f 14 11 15
f 16 17 18
f 16 18 13
f 19 1 3
f 20 4 2
f 20 3 4
f 21 22 23
f 24 6 5
f 25 5 7
f 25 23 22
f 26 7 18
f 26 18 17
f 27 8 6
f 28 7 8
f 28 13 18
f 29 2 9
f 30 9 1
f 31 22 21
f 31 21 32
f 33 22 31
f 34 15 11
f 35 14 15
f 36 16 13
f 36 13 12
f 37 17 19
f 37 19 3
f 38 1 19
f 38 19 17
f 38 17 16
f 39 21 23
f 40 41 3
f 42 20 2
f 43 6 24
f 43 24 22
f 44 22 24
f 44 24 5
f 45 5 25
f 45 25 22
f 45 22 5
f 46 25 7
f 47 27 6
f 48 8 27
f 48 10 8
f 49 10 48
f 49 48 27
f 49 27 11
f 49 11 10
f 50 7 28
f 51 13 28
f 51 28 8
f 52 9 30
f 53 9 52
f 53 52 30
f 53 12 14
f 54 42 2
f 55 54 2
f 56 34 11
f 56 47 6
f 57 14 35
f 57 29 9
f 57 9 14
f 58 35 15
f 58 59 60
f 61 16 36
f 61 30 1
f 61 1 16
f 62 30 61
f 62 36 12
f 62 12 30
f 63 1 38
f 63 16 1
f 64 21 39
f 64 41 21
f 65 41 40
f 65 40 21
f 65 21 41
f 66 20 42
f 66 32 20
f 67 22 44
f 67 44 5
f 67 5 22
f 68 46 7
f 69 39 23
f 69 25 46
f 70 64 39
f 71 26 17
f 71 72 26
f 73 37 3
f 73 17 37
f 74 7 50
f 74 50 18
f 74 18 7
f 75 18 50
f 75 50 28
f 75 28 18
f 76 10 13
f 76 13 51
f 76 51 8
f 76 8 10
f 77 12 53
f 77 53 30
f 77 30 12
f 78 9 53
f 78 53 14
f 78 14 9
f 79 31 80
f 81 80 31
f 82 83 33
f 84 55 60
f 85 47 56
f 85 56 11
f 85 11 27
f 85 27 47
f 86 33 59
f 86 59 6
f 86 6 43
f 86 43 22
f 86 22 33
f 87 58 60
f 87 60 55
f 88 34 56
f 88 56 6
f 88 6 59
f 88 59 58
f 88 58 15
f 88 15 34
f 89 36 62
f 89 62 61
f 89 61 36
f 90 16 63
f 90 63 38
f 90 38 16
f 91 92 21
f 93 32 21
f 94 3 20
f 95 46 68
f 95 68 26
f 95 26 72
f 96 26 68
f 96 68 7
f 96 7 26
f 97 25 69
f 98 71 17
f 99 39 69
f 99 69 46
f 100 73 3
f 101 31 79
f 101 79 80
f 102 81 31
f 103 101 80
f 103 80 81
f 103 66 42
f 104 42 54
f 105 82 33
f 105 33 31
f 106 55 84
f 106 54 55
f 107 87 55
f 107 55 2
f 108 35 58
f 108 58 87
f 108 57 35
f 109 3 94
f 109 94 20
f 110 93 21
f 111 46 95
f 111 95 72
f 112 23 97
f 112 97 69
f 112 69 23
f 113 25 97
f 113 23 25
f 114 99 46
f 114 46 111
f 114 111 72
f 115 32 66
f 115 66 102
f 115 102 31
f 115 31 32
f 116 66 103
f 116 103 81
f 116 81 102
f 116 102 66
f 117 82 105
f 117 105 31
f 117 31 118
f 117 118 104
f 117 104 54
f 117 54 82
f 119 82 54
f 119 54 106
f 119 83 82
f 120 119 106
f 120 106 84
f 120 84 60
f 121 107 2
f 121 2 29
f 121 29 57
f 121 57 108
f 121 108 87
f 121 87 107
f 122 109 20
f 122 20 32
f 122 32 93
f 123 3 109
f 123 109 40
f 123 40 3
f 124 109 91
f 124 91 21
f 125 23 113
f 125 113 97
f 125 97 23
f 126 17 73
f 126 73 127
f 126 127 98
f 126 98 17
f 128 100 129
f 128 129 127
f 128 127 73
f 128 73 100
f 130 39 99
f 130 70 39
f 131 132 129
f 131 129 100
f 133 70 130
f 133 132 131
f 133 131 100
f 133 100 3
f 133 64 70
f 134 98 127
f 134 127 129
f 134 129 132
f 134 71 98
f 135 31 136
f 135 136 42
f 137 101 103
f 137 31 101
f 138 119 120
f 138 120 60
f 138 60 59
f 138 59 33
f 138 33 83
f 138 83 119
f 139 109 122
f 139 92 91
f 139 91 109
f 140 92 139
f 140 139 122
f 140 122 93
f 140 93 110
f 141 109 124
f 141 124 21
f 141 21 40
f 141 40 109
f 142 134 132
f 142 132 130
f 142 130 99
f 142 99 114
f 143 132 133
f 143 133 130
f 143 130 132
f 144 64 133
f 144 133 3
f 145 118 31
f 145 31 135
f 145 135 42
f 145 42 104
f 145 104 118
f 146 136 31
f 146 31 137
f 146 137 103
f 146 103 42
f 146 42 136
f 147 92 140
f 147 140 110
f 147 110 21
f 147 21 92
f 148 71 134
f 148 134 142
f 148 142 114
f 148 114 72
f 148 72 71
f 149 64 144
f 149 144 3
f 149 3 41
f 149 41 64
