# Convex hull collision mesh — generated by scripts/generate-collision-meshes.mjs
v -10.500000 8.000000 -1.600000
v -10.500000 -8.000000 -1.600000
v -10.500000 8.000000 0.000000
v 10.500000 8.000000 -1.600000
v 10.500000 -8.000000 0.000000
v 10.500000 -8.000000 -1.600000
v -9.633649 -0.303176 1.550000
v -9.633649 -1.596824 1.550000
v -1.150000 3.650000 2.100000
v -8.998483 -7.793438 -1.700288
v -9.790000 -6.900000 -1.700288
v -9.290000 -6.900000 -1.700288
v -10.500000 -8.000000 0.000000
v 10.500000 8.000000 0.000000
v 9.763847 -6.684616 -1.700288
v -9.563660 -7.496810 -1.700288
v 7.600000 -2.100000 1.100000
v -1.150000 5.250000 2.100000
v -8.998483 -7.793438 0.099712
v 8.998483 -7.793438 -1.700288
v -8.998483 -6.006562 -1.700288
v 9.790000 -6.900000 -1.700288
v -9.209145 -7.741515 -1.700288
v -9.686911 -7.318251 -1.700288
v 8.998483 -7.793438 0.099712
v -7.003176 -1.633649 1.550000
v -9.596825 -1.633649 1.550000
v -9.563660 -6.303190 -1.700288
v 8.998483 -6.006562 -1.700288
v 9.563660 -7.496810 -1.700288
v -9.401258 -7.640686 -1.700288
v -9.763847 -7.115384 -1.700288
v 2.050000 5.250000 2.090000
v 2.050000 3.650000 2.090000
v 1.742054 3.650000 2.100000
v 9.209145 -7.741515 0.099712
v -9.209145 -6.058486 -1.700288
v -9.686911 -6.481749 -1.700288
v 9.401258 -6.159315 -1.700288
v 9.209145 -7.741515 -1.700288
v 9.686911 -7.318251 -1.700288
v 7.600000 -1.200000 1.100000
v 1.742054 5.250000 2.100000
v -9.401258 -6.159315 -1.700288
v -9.763847 -6.684616 -1.700288
v 9.209145 -6.058486 -1.700288
v 9.686911 -6.481749 -1.700288
v 9.401258 -7.640686 -1.700288
v 9.763847 -7.115384 -1.700288
v 9.563660 -6.303190 -1.700288
f 1 2 3
f 4 1 3
f 5 6 4
f 5 2 6
f 7 3 8
f 7 8 9
f 10 6 2
f 11 12 10
f 11 2 1
f 13 2 5
f 13 8 3
f 13 3 2
f 14 5 4
f 14 4 3
f 15 10 12
f 15 12 11
f 16 11 10
f 17 5 14
f 18 14 3
f 18 3 7
f 18 7 9
f 19 13 5
f 20 10 15
f 20 6 10
f 21 1 4
f 21 15 11
f 22 20 15
f 22 15 4
f 22 4 6
f 23 16 10
f 23 10 2
f 24 11 16
f 24 16 2
f 25 26 19
f 25 19 5
f 25 17 26
f 27 8 13
f 27 13 19
f 27 19 26
f 27 26 9
f 27 9 8
f 28 21 11
f 29 15 21
f 29 21 4
f 30 20 22
f 31 16 23
f 31 23 2
f 31 2 16
f 32 11 24
f 32 24 2
f 32 2 11
f 33 34 17
f 35 9 26
f 35 26 17
f 35 17 34
f 35 34 33
f 35 18 9
f 36 17 25
f 36 25 5
f 36 5 17
f 37 21 28
f 37 1 21
f 38 1 28
f 38 28 11
f 39 15 29
f 40 20 30
f 40 6 20
f 41 6 30
f 41 30 22
f 42 14 33
f 42 33 17
f 42 17 14
f 43 18 35
f 43 35 33
f 43 33 14
f 43 14 18
f 44 1 37
f 44 37 28
f 44 28 1
f 45 1 38
f 45 38 11
f 45 11 1
f 46 4 39
f 46 39 29
f 46 29 4
f 47 15 39
f 47 4 15
f 48 6 40
f 48 40 30
f 48 30 6
f 49 6 41
f 49 41 22
f 49 22 6
f 50 4 47
f 50 47 39
f 50 39 4
