# Convex hull collision mesh — generated by scripts/generate-collision-meshes.mjs
v 3.524721 0.000000 51.529591
v -51.650002 0.000000 0.000000
v 3.524721 0.000000 -51.529591
v -35.253868 0.000000 -37.747677
v -35.253868 0.000000 37.747677
v -19.493702 0.000000 -47.830097
v -19.493702 0.000000 47.830097
v -48.261440 0.000000 18.399885
v 51.596474 0.000000 2.350829
v 95.989487 7.401342 2.481772
v 95.989487 4.600000 0.000000
v 95.989487 9.600000 0.000000
v -5.866416 0.000000 -51.315765
v -48.261440 0.000000 -18.399885
v 17.296532 0.000000 48.667778
v -5.866416 0.000000 51.315765
v -50.795795 0.000000 9.354652
v -44.130764 0.000000 26.836512
v -29.769915 71.699997 37.855526
v 0.000000 71.699997 48.158993
v 33.233509 71.699997 -34.854301
v 36.935406 0.000000 -36.103992
v 95.989487 7.401342 -2.481772
v -27.834114 0.000000 -43.508442
v -50.795795 0.000000 -9.354652
v -1.175719 0.000000 -51.636616
v 42.863575 0.000000 28.817293
v 95.989487 5.228723 1.657807
v 6.572100 63.324203 49.920052
v 9.216526 69.759865 49.304062
v 4.628006 69.759865 49.944130
v 4.663568 56.888546 50.327915
v 48.104446 71.699997 -2.291497
v -1.175719 0.000000 51.636616
v -38.540386 0.000000 34.385479
v -46.388294 0.000000 22.712297
v -27.834114 0.000000 43.508442
v -26.607737 56.888546 42.972973
v -30.459280 56.888546 40.334602
v -36.396137 71.699997 -31.537434
v -4.577803 71.699997 47.940926
v 21.650467 0.000000 -46.893280
v 49.048889 0.000000 -16.184216
v 95.989487 8.971277 1.657807
v 95.989487 8.971277 -1.657807
v -10.508503 0.000000 -50.569695
v -51.436005 0.000000 4.696785
v -50.543526 56.888546 0.000000
v -49.682926 56.888546 -9.287349
v -50.327915 56.888546 -4.663568
v -49.920052 63.324203 -6.572100
v 0.000000 56.888546 -50.543526
v -0.000000 69.759865 -50.158096
v 4.663568 56.888546 -50.327915
v 18.258427 56.888546 47.130436
v 13.831892 56.888546 48.614059
v 8.195953 0.000000 50.995575
v 49.048889 0.000000 16.184216
v 33.499264 0.000000 39.313126
v 41.706913 71.699997 -24.079496
v 36.396137 71.699997 31.537434
v -10.508503 0.000000 50.569695
v -45.244709 56.888546 22.529188
v -37.352116 56.888546 34.050953
v -41.507545 0.000000 30.738348
v -34.050953 56.888546 37.352116
v -23.762360 0.000000 45.859272
v -31.675228 0.000000 40.797089
v -48.104446 71.699997 2.291497
v 0.000000 71.509293 49.011318
v 4.522194 71.509293 48.802242
v 4.483845 71.651741 48.388393
v -30.227007 69.759865 40.027027
v 95.989487 5.228723 -1.657807
v 25.825001 0.000000 -44.730213
v 22.529188 56.888546 -45.244709
v 26.607737 56.888546 -42.972973
v 12.799273 0.000000 -50.038998
v 51.168930 0.000000 -7.033008
v 45.306480 0.000000 -24.800106
v 18.258427 56.888546 -47.130436
v 26.404835 69.759865 42.645275
v 30.227007 69.759865 40.027027
v 95.989487 9.527354 0.598289
v 13.031749 63.324203 -48.635151
v 9.216526 69.759865 -49.304062
v 13.726415 69.759865 -48.243343
v 13.831892 56.888546 -48.614059
v 95.989487 7.986512 -2.337541
v -49.944130 69.759865 -4.628006
v -18.119194 69.759865 -46.771034
v -18.258427 56.888546 -47.130436
v -19.268421 63.324203 -46.518085
v -22.529188 56.888546 -45.244709
v -13.709637 70.194923 -48.184376
v -13.726415 69.759865 -48.243343
v -31.675228 0.000000 -40.797089
v -30.459280 56.888546 -40.334602
v -26.607737 56.888546 -42.972973
v -34.050953 56.888546 -37.352116
v -41.507545 0.000000 -30.738348
v -51.436005 0.000000 -4.696785
v -0.000000 70.973541 -49.701096
v -0.000000 70.606094 -49.941963
v -4.585839 70.973541 -49.489082
v -17.898890 71.699997 -44.709267
v -4.663568 56.888546 -50.327915
v 18.119194 69.759865 46.771034
v 12.799273 0.000000 50.038998
v 45.306480 0.000000 24.800106
v 51.168930 0.000000 7.033008
v 36.935406 0.000000 36.103992
v 25.825001 0.000000 44.730213
v 95.989487 4.886360 1.161808
v -0.000000 69.759865 50.158096
v 9.132553 70.973541 48.854843
v 13.601351 70.973541 47.803791
v 13.515068 71.279533 47.500538
v 4.622348 70.194923 49.883083
v 4.577803 71.699997 47.940926
v 8.929435 71.651741 47.768257
v -15.063513 0.000000 49.404587
v -49.734676 0.000000 13.935003
v -48.614059 56.888546 13.831892
v -49.682926 56.888546 9.287349
v -50.327915 56.888546 4.663568
v -42.972973 56.888546 26.607737
v -47.130436 56.888546 18.258427
v -39.945984 63.324203 30.651632
v -37.067280 69.759865 33.791290
v -40.027027 69.759865 30.227007
v -41.706913 71.699997 24.079496
v -46.801468 71.699997 -11.353913
v 0.000000 71.279533 49.385811
v 0.000000 70.973541 49.701096
v 4.585839 70.973541 49.489082
v 0.000000 71.651741 48.595692
v -33.791290 69.759865 37.067280
v -34.570744 70.194923 36.256752
v -30.651632 63.324203 39.945984
v -22.067728 71.699997 42.805420
v -26.272816 71.651741 40.881298
v -22.267836 71.651741 43.193573
v 95.989487 4.672646 -0.598289
v 95.989487 6.213488 -2.337541
v 8.195953 0.000000 -50.995575
v 50.317383 0.000000 -11.656908
v 51.596474 0.000000 -2.350829
v 42.863575 0.000000 -28.817293
v 47.373962 0.000000 -20.577415
v 25.175406 63.324203 -43.605083
v 22.357388 69.759865 -44.899689
v 17.296532 0.000000 -48.667778
v 18.119194 69.759865 -46.771034
v 95.989487 8.520162 2.057460
v 40.681522 70.606094 28.969181
v 37.860626 70.194923 32.806419
v 37.021973 70.194923 33.749989
v 95.989487 9.313640 1.161808
v 42.461514 70.606094 26.291058
v 49.489082 70.973541 -4.585839
v 49.175137 71.279533 -4.556747
v 49.329872 71.279533 -2.349871
v 95.989487 9.313640 -1.161808
v 95.989487 8.520162 -2.057460
v 43.251011 70.606094 -24.970982
v 42.461514 70.606094 -26.291058
v -50.040047 70.194923 -2.383701
v -49.586876 70.194923 -7.129517
v -49.175137 71.279533 -4.556747
v -49.489082 70.973541 -4.585839
v -49.329872 71.279533 -2.349871
v -15.063513 0.000000 -49.404587
v -23.762360 0.000000 -45.859272
v -22.357388 69.759865 -44.899689
v -37.352116 56.888546 -34.050953
v -44.130764 0.000000 -26.836512
v -49.304062 69.759865 -9.216526
v -49.243797 70.194923 -9.205261
v -48.184376 70.194923 -13.709637
v -48.035461 70.606094 -13.667268
v -47.195198 70.606094 -16.334417
v 4.628006 69.759865 -49.944130
v 4.762002 70.194923 -49.869946
v 6.572100 63.324203 -49.920052
v -0.000000 70.194923 -50.096790
v -0.000000 71.279533 -49.385811
v -4.556747 71.279533 -49.175137
v 9.114149 71.699997 -47.288696
v -4.522194 71.509293 -48.802242
v -4.628006 69.759865 -49.944130
v -6.572100 63.324203 -49.920052
v -9.287349 56.888546 -49.682926
v 19.268421 63.324203 46.518085
v 22.529188 56.888546 45.244709
v 9.287349 56.888546 49.682926
v 47.373962 0.000000 20.577415
v 50.317383 0.000000 11.656908
v 95.989487 4.672646 0.598289
v 95.989487 6.213488 2.337541
v 21.650467 0.000000 46.893280
v 29.785538 0.000000 42.196495
v 26.607737 56.888546 42.972973
v -0.000000 56.888546 50.543526
v 9.074618 71.279533 48.544922
v 9.205261 70.194923 49.243797
v 13.709637 70.194923 48.184376
v 0.000000 70.606094 49.941963
v 17.898890 71.699997 44.709267
v -48.635151 63.324203 13.031749
v -48.243343 69.759865 13.726415
v -49.304062 69.759865 9.216526
v -49.920052 63.324203 6.572100
v -49.944130 69.759865 4.628006
v -49.586876 70.194923 7.129517
v -49.883083 70.194923 4.622348
v -44.844807 70.194923 22.330061
v -45.569641 70.194923 20.810959
v -44.899689 69.759865 22.357388
v -42.645275 69.759865 26.404835
v -46.518085 63.324203 19.268421
v -46.771034 69.759865 18.119194
v -35.603401 63.324203 35.603401
v -40.334602 56.888546 30.459280
v -48.104446 71.699997 -2.291497
v -30.227007 69.759865 -40.027027
v -26.404835 69.759865 -42.645275
v -30.872074 70.606094 39.257034
v -27.000666 70.606094 42.013855
v -30.723181 70.973541 39.067699
v -45.510288 71.699997 15.751264
v -30.528282 71.279533 38.819870
v -30.296785 71.509293 38.525497
v -33.821682 71.509293 35.471157
v -30.039864 71.651741 38.198795
v -26.870441 70.973541 41.811222
v -26.699984 71.279533 41.545986
v -26.497519 71.509293 41.230942
v -26.036716 71.699997 40.513924
v 33.499264 0.000000 -39.313126
v 95.989487 6.798658 -2.481772
v 29.785538 0.000000 -42.196495
v 9.287349 56.888546 -49.682926
v 40.065487 0.000000 -32.595692
v 37.860626 70.194923 -32.806419
v 37.743618 70.606094 -32.705032
v 19.268421 63.324203 -46.518085
v 18.561554 70.606094 -46.364517
v 47.668804 71.699997 6.853739
v 49.489082 70.973541 4.585839
v 49.195213 70.973541 7.073204
v 30.190060 70.194923 39.978100
v 47.803791 70.973541 13.601351
v 48.300102 70.973541 11.717478
v 43.251011 70.606094 24.970982
v 44.706215 70.606094 22.261049
v 48.883133 71.279533 -7.028334
v 49.195213 70.973541 -7.073204
v 48.854843 70.973541 -9.132553
v 48.544922 71.279533 -9.074618
v 47.803791 70.973541 -13.601351
v 46.967579 70.973541 -16.255636
v 45.428810 70.606094 -20.746641
v 46.569496 70.606094 -18.041119
v 46.801468 71.699997 -11.353913
v 39.854549 70.606094 -30.096758
v 44.706215 70.606094 -22.261049
v 43.042412 70.973541 -24.850548
v 44.490597 70.973541 -22.153685
v -50.040047 70.194923 2.383701
v -49.885399 70.606094 2.376334
v -50.096790 70.194923 0.000000
v -50.158096 69.759865 0.000000
v -49.883083 70.194923 -4.622348
v -49.329872 71.279533 2.349871
v -49.385811 71.279533 0.000000
v -49.644802 70.973541 2.364873
v -48.802242 71.509293 -4.522194
v -48.534180 70.606094 -11.774264
v -49.091610 70.606094 -9.176812
v -48.883133 71.279533 -7.028334
v -48.544922 71.279533 -9.074618
v -48.854843 70.973541 -9.132553
v -13.831892 56.888546 -48.614059
v -25.175406 63.324203 -43.605083
v -9.176812 70.606094 -49.091610
v -9.205261 70.194923 -49.243797
v -13.667268 70.606094 -48.035461
v -13.601351 70.973541 -47.803791
v -9.132553 70.973541 -48.854843
v -18.097048 70.194923 -46.713863
v -38.540386 0.000000 -34.385479
v -46.388294 0.000000 -22.712297
v -42.972973 56.888546 -26.607737
v -47.341507 70.194923 -16.385056
v -48.614059 56.888546 -13.831892
v -48.243343 69.759865 -13.726415
v -46.569496 70.606094 -18.041119
v -48.684639 70.194923 -11.810765
v -47.130436 56.888546 -18.258427
v -46.771034 69.759865 -18.119194
v -46.518085 63.324203 -19.268421
v -49.734676 0.000000 -13.935003
v 4.724390 70.973541 -49.476048
v 14.070277 70.606094 -47.918964
v 9.451579 70.606094 -49.039448
v 14.002418 70.973541 -47.687855
v 9.480880 70.194923 -49.191475
v 13.913590 71.279533 -47.385338
v 13.808084 71.509293 -47.026012
v 18.215666 71.509293 -45.500534
v 22.067728 71.699997 -42.805420
v -9.074618 71.279533 -48.544922
v -4.577803 71.699997 -47.940926
v -9.216526 69.759865 -49.304062
v 13.726415 69.759865 48.243343
v 18.097048 70.194923 46.713863
v 18.041119 70.606094 46.569496
v 22.330061 70.194923 44.844807
v 13.667268 70.606094 48.035461
v 26.372561 70.194923 42.593147
v 26.291058 70.606094 42.461514
v 22.261049 70.606094 44.706215
v 22.357388 69.759865 44.899689
v 40.065487 0.000000 32.595692
v 95.989487 6.798658 2.481772
v 95.989487 5.679838 2.057460
v 39.229156 71.699997 -27.934958
v 17.840212 71.279533 46.050896
v 21.846224 71.509293 43.873131
v 17.704929 71.509293 45.701691
v 13.412583 71.509293 47.140343
v 9.005806 71.509293 48.176807
v 4.556747 71.279533 49.175137
v 9.176812 70.606094 49.091610
v 9.114149 71.699997 47.288696
v 26.036716 71.699997 40.513924
v -48.684639 70.194923 11.810765
v -49.433628 70.606094 7.107483
v -49.091610 70.606094 9.176812
v -43.605083 63.324203 25.175406
v -47.341507 70.194923 16.385056
v -37.021973 70.194923 33.749989
v -43.873131 71.509293 21.846224
v -42.445045 71.509293 24.505659
v -42.085106 71.651741 24.297846
v -43.806961 71.699997 -20.005968
v -47.668804 71.699997 -6.853739
v -48.388393 71.651741 -4.483845
v -36.907558 70.606094 -33.645683
v -37.860626 70.194923 -32.806419
v -37.743618 70.606094 -32.705032
v -39.854549 70.606094 -30.096758
v -39.978100 70.194923 -30.190060
v -40.681522 70.606094 -28.969181
v -40.485317 70.973541 -28.829464
v -37.561584 70.973541 -32.547298
v -36.729553 70.973541 -33.483414
v -33.791290 69.759865 -37.067280
v -33.749989 70.194923 -37.021973
v -37.067280 69.759865 -33.791290
v -30.651632 63.324203 -39.945984
v -48.595692 71.651741 0.000000
v -47.668804 71.699997 6.853739
v -48.388393 71.651741 4.483845
v -43.806961 71.699997 20.005968
v -47.140343 71.509293 13.412583
v -46.669632 71.279533 16.152515
v -46.315735 71.509293 16.030031
v -45.922970 71.651741 15.894094
v -22.774361 70.973541 44.176098
v 95.989487 5.679838 -2.057460
v 95.989487 4.886360 -1.161808
v 30.227007 69.759865 -40.027027
v 49.644802 70.973541 -2.364873
v 49.701096 70.973541 0.000000
v 48.955803 71.509293 -2.332052
v 49.011318 71.509293 0.000000
v 49.385811 71.279533 0.000000
v 48.883133 71.279533 7.028334
v 49.175137 71.279533 4.556747
v 48.802242 71.509293 4.522194
v 48.854843 70.973541 9.132553
v 43.806961 71.699997 20.005968
v 49.644802 70.973541 2.364873
v 30.096758 70.606094 39.854549
v 33.749989 70.194923 37.021973
v 39.854549 70.606094 30.096758
v 39.662331 70.973541 29.951603
v 37.561584 70.973541 32.547298
v 95.989487 7.986512 2.337541
v 36.907558 70.606094 33.645683
v 46.801468 71.699997 11.353913
v 95.989487 9.527354 -0.598289
v 48.300102 70.973541 -11.717478
v 46.669632 71.279533 -16.152515
v 46.344894 70.973541 -17.954107
v 46.315735 71.509293 -16.030031
v 45.701691 71.509293 -17.704929
v 40.681522 70.606094 -28.969181
v 42.256725 70.973541 -26.164257
v -49.941963 70.606094 0.000000
v -49.011318 71.509293 0.000000
v -48.300102 70.973541 -11.717478
v -49.433628 70.606094 -7.107483
v -48.176807 71.509293 -9.005806
v -46.344894 70.973541 -17.954107
v -46.967579 70.973541 -16.255636
v -46.669632 71.279533 -16.152515
v -46.050896 71.279533 -17.840212
v -36.219799 71.509293 -33.018711
v -32.738705 71.651741 -35.912651
v -33.018711 71.509293 -36.219799
v -26.372561 70.194923 -42.593147
v -4.622348 70.194923 -49.883083
v -18.041119 70.606094 -46.569496
v -22.330061 70.194923 -44.844807
v -22.261049 70.606094 -44.706215
v -45.569641 70.194923 -20.810959
v -44.899689 69.759865 -22.357388
v -40.334602 56.888546 -30.459280
v -45.244709 56.888546 -22.529188
v -46.713863 70.194923 -18.097048
v -48.635151 63.324203 -13.031749
v 4.747285 70.606094 -49.715824
v 14.113896 70.194923 -48.067516
v 9.275453 71.509293 -48.125618
v 4.658822 71.509293 -48.789391
v 9.196795 71.651741 -47.717506
v 9.405994 70.973541 -48.802933
v 18.354851 71.279533 -45.848202
v 13.690989 71.651741 -46.627224
v -17.704929 71.509293 -45.701691
v -17.554789 71.651741 -45.314133
v -13.412583 71.509293 -47.140343
v -9.005806 71.509293 -48.176807
v 4.619314 71.651741 -48.375648
v -13.031749 63.324203 -48.635151
v 13.031749 63.324203 48.635151
v 25.175406 63.324203 43.605083
v -4.663568 56.888546 50.327915
v -22.529188 56.888546 45.244709
v -13.831892 56.888546 48.614059
v -13.031749 63.324203 48.635151
v -13.726415 69.759865 48.243343
v 35.912651 71.651741 -32.738705
v 36.219799 71.509293 -33.018711
v 33.821682 71.509293 -35.471157
v 17.954107 70.973541 46.344894
v 22.153685 70.973541 44.490597
v 22.013149 71.279533 44.208363
v 25.998278 71.279533 41.988663
v 17.554789 71.651741 45.314133
v 21.660963 71.651741 43.501080
v 4.608063 70.606094 49.728920
v 33.233509 71.699997 34.854301
v 29.769915 71.699997 37.855526
v 32.738705 71.651741 35.912651
v -49.243797 70.194923 9.205261
v -49.728920 70.606094 4.608063
v -49.195213 70.973541 7.073204
v -48.854843 70.973541 9.132553
v -48.534180 70.606094 11.774264
v -44.208363 71.279533 22.013149
v -45.209709 70.973541 20.646582
v -44.490597 70.973541 22.153685
v -40.807640 70.194923 29.058989
v -42.593147 70.194923 26.372561
v -46.713863 70.194923 18.097048
v -48.184376 70.194923 13.709637
v -48.035461 70.606094 13.667268
v -34.297684 70.973541 35.970375
v -36.907558 70.606094 33.645683
v -36.729553 70.973541 33.483414
v -37.561584 70.973541 32.547298
v -36.496555 71.279533 33.271004
v -43.501080 71.651741 21.660963
v -44.204197 71.651741 20.187380
v -45.701691 71.509293 17.704929
v -46.050896 71.279533 17.840212
v -44.922913 71.279533 -20.515606
v -43.042412 70.973541 -24.850548
v -43.251011 70.606094 -24.970982
v -44.706215 70.606094 -22.261049
v -39.229156 71.699997 -27.934958
v -38.780201 71.651741 -29.285448
v -39.584881 71.651741 -28.188267
v -41.316891 71.651741 -25.582335
v -45.510288 71.699997 -15.751264
v -45.314133 71.651741 -17.554789
v -46.740582 71.651741 -13.298842
v -37.021973 70.194923 -33.749989
v -33.645683 70.606094 -36.907558
v -40.807640 70.194923 -29.058989
v -42.461514 70.606094 -26.291058
v -41.988663 71.279533 -25.998278
v -42.769367 71.279533 -24.692905
v -41.670261 71.509293 -25.801134
v -39.662331 70.973541 -29.951603
v -39.410728 71.279533 -29.761599
v -37.323303 71.279533 -32.340828
v -37.040283 71.509293 -32.095589
v -35.603401 63.324203 -35.603401
v -48.802242 71.509293 4.522194
v -49.175137 71.279533 4.556747
v -47.768257 71.651741 8.929435
v -48.176807 71.509293 9.005806
v -47.225857 71.651741 11.456869
v -46.801468 71.699997 11.353913
v -47.803791 70.973541 13.601351
v -47.500538 71.279533 13.515068
v -47.993702 71.279533 11.643146
v -47.629765 71.509293 11.554856
v -46.740582 71.651741 13.298842
v -22.357388 69.759865 44.899689
v -19.268421 63.324203 46.518085
v 26.404835 69.759865 -42.645275
v 27.000666 70.606094 -42.013855
v 22.884733 70.606094 -44.390190
v 22.774361 70.973541 -44.176098
v 48.802242 71.509293 -4.522194
v 48.104446 71.699997 2.291497
v 48.955803 71.509293 2.332052
v 48.540649 71.651741 2.312276
v 48.388393 71.651741 4.483845
v 48.101059 71.651741 6.915888
v 48.595692 71.651741 0.000000
v 48.512451 71.509293 6.975038
v 29.285448 71.651741 38.780201
v 25.582335 71.651741 41.316891
v 42.256725 70.973541 26.164257
v 37.323303 71.279533 32.340828
v 36.496555 71.279533 33.271004
v 36.729553 70.973541 33.483414
v 33.271004 71.279533 36.496555
v 37.743618 70.606094 32.705032
v 45.209709 70.973541 -20.646582
v 44.922913 71.279533 -20.515606
v 46.050896 71.279533 -17.840212
v 45.510288 71.699997 -15.751264
v 45.922970 71.651741 -15.894094
v 45.314133 71.651741 -17.554789
v 47.500538 71.279533 -13.515068
v -49.885399 70.606094 -2.376334
v -49.701096 70.973541 0.000000
v -48.955803 71.509293 -2.332052
v -48.540649 71.651741 2.312276
v -47.803791 70.973541 -13.601351
v -47.500538 71.279533 -13.515068
v -47.993702 71.279533 -11.643146
v -47.629765 71.509293 -11.554856
v -49.195213 70.973541 -7.073204
v -48.512451 71.509293 -6.975038
v -47.768257 71.651741 -8.929435
v -45.922970 71.651741 -15.894094
v -47.140343 71.509293 -13.412583
v -46.315735 71.509293 -16.030031
v -45.701691 71.509293 -17.704929
v -44.582260 71.509293 -20.360037
v -29.769915 71.699997 -37.855526
v -35.912651 71.651741 -32.738705
v -26.291058 70.606094 -42.461514
v -4.608063 70.606094 -49.728920
v -45.428810 70.606094 -20.746641
v -44.844807 70.194923 -22.330061
v 4.694420 71.279533 -49.162186
v 18.472033 70.973541 -46.140903
v 29.769915 71.699997 -37.855526
v 13.567956 71.699997 -46.208214
v 18.061193 71.651741 -45.114681
v -21.846224 71.509293 -43.873131
v -17.840212 71.279533 -46.050896
v -8.929435 71.651741 -47.768257
v -0.000000 71.699997 -48.158993
v -0.000000 71.509293 -49.011318
v -4.628006 69.759865 49.944130
v -6.572100 63.324203 49.920052
v -9.287349 56.888546 49.682926
v -4.724390 70.973541 49.476048
v -4.694420 71.279533 49.162186
v -9.451579 70.606094 49.039448
v -4.747285 70.606094 49.715824
v -13.567956 71.699997 46.208214
v -4.658822 71.509293 48.789391
v -9.196795 71.651741 47.717506
v -9.275453 71.509293 48.125618
v -18.258427 56.888546 47.130436
v 33.534866 71.651741 -35.170357
v 30.039864 71.651741 -38.198795
v 36.396137 71.699997 -31.537434
v 38.780201 71.651741 -29.285448
v 34.080109 71.279533 -35.742191
v 30.528282 71.279533 -38.819870
v 22.067728 71.699997 42.805420
v 26.164257 70.973541 42.256725
v 29.951603 70.973541 39.662331
v 25.801134 71.509293 41.670261
v 29.535917 71.509293 39.111874
v 13.567956 71.699997 46.208214
v -48.883133 71.279533 7.028334
v -49.489082 70.973541 4.585839
v -45.428810 70.606094 20.746641
v -44.922913 71.279533 20.515606
v -43.042412 70.973541 24.850548
v -43.251011 70.606094 24.970982
v -42.256725 70.973541 26.164257
v -43.385090 70.194923 25.048395
v -42.461514 70.606094 26.291058
v -39.978100 70.194923 30.190060
v -46.967579 70.973541 16.255636
v -34.080109 71.279533 35.742191
v -34.463902 70.606094 36.144699
v -42.769367 71.279533 24.692905
v -41.988663 71.279533 25.998278
v -40.228493 71.279533 28.646580
v -41.670261 71.509293 25.801134
v -37.323303 71.279533 32.340828
v -39.410728 71.279533 29.761599
v -45.314133 71.651741 17.554789
v -42.445045 71.509293 -24.505659
v -44.204197 71.651741 -20.187380
v -43.501080 71.651741 -21.660963
v -45.209709 70.973541 -20.646582
v -44.208363 71.279533 -22.013149
v -41.706913 71.699997 -24.079496
v -39.923439 71.509293 -28.429354
v -33.483414 70.973541 -36.729553
v -30.096758 70.606094 -39.854549
v -29.951603 70.973541 -39.662331
v -40.027027 69.759865 -30.227007
v -42.645275 69.759865 -26.404835
v -42.256725 70.973541 -26.164257
v -36.496555 71.279533 -33.271004
v -48.101059 71.651741 6.915888
v -48.300102 70.973541 11.717478
v -26.404835 69.759865 42.645275
v -18.119194 69.759865 46.771034
v -18.561554 70.606094 46.364517
v -14.113896 70.194923 48.067516
v -22.884733 70.606094 44.390190
v 26.870441 70.973541 -41.811222
v 26.699984 71.279533 -41.545986
v 30.723181 70.973541 -39.067699
v 47.668804 71.699997 -6.853739
v 48.512451 71.509293 -6.975038
v 49.329872 71.279533 2.349871
v 48.388393 71.651741 -4.483845
v 48.101059 71.651741 -6.915888
v 41.706913 71.699997 24.079496
v 29.761599 71.279533 39.410728
v 33.018711 71.509293 36.219799
v 33.645683 70.606094 36.907558
v 40.228493 71.279533 28.646580
v 41.670261 71.509293 25.801134
v 39.923439 71.509293 28.429354
v 41.988663 71.279533 25.998278
v 43.042412 70.973541 24.850548
v 45.428810 70.606094 20.746641
v 46.967579 70.973541 16.255636
v 46.344894 70.973541 17.954107
v 43.806961 71.699997 -20.005968
v 43.501080 71.651741 -21.660963
v 44.582260 71.509293 -20.360037
v 47.140343 71.509293 -13.412583
v 39.923439 71.509293 -28.429354
v 41.670261 71.509293 -25.801134
v 40.228493 71.279533 -28.646580
v -49.728920 70.606094 -4.608063
v -49.644802 70.973541 -2.364873
v -48.540649 71.651741 -2.312276
v -48.955803 71.509293 2.332052
v -47.225857 71.651741 -11.456869
v -48.101059 71.651741 -6.915888
v -33.233509 71.699997 -34.854301
v -36.726173 71.651741 -31.823410
v -26.164257 70.973541 -42.256725
v -22.153685 70.973541 -44.490597
v 9.346326 71.279533 -48.493343
v 30.296785 71.509293 -38.525497
v 17.898890 71.699997 -44.709267
v -17.954107 70.973541 -46.344894
v -13.515068 71.279533 -47.500538
v -22.013149 71.279533 -44.208363
v -25.998278 71.279533 -41.988663
v -13.567956 71.699997 -46.208214
v 4.577803 71.699997 -47.940926
v -4.483845 71.651741 -48.388393
v 0.000000 70.194923 50.096790
v -9.480880 70.194923 49.191475
v -9.405994 70.973541 48.802933
v -9.114149 71.699997 47.288696
v -17.898890 71.699997 44.709267
v -4.619314 71.651741 48.375648
v 36.726173 71.651741 -31.823410
v 33.791290 69.759865 -37.067280
v 34.570744 70.194923 -36.256752
v 37.021973 70.194923 -33.749989
v 36.496555 71.279533 -33.271004
v 34.297684 70.973541 -35.970375
v 36.729553 70.973541 -33.483414
v 13.298842 71.651741 46.740582
v -48.544922 71.279533 9.074618
v -48.512451 71.509293 6.975038
v -44.706215 70.606094 22.261049
v -44.582260 71.509293 20.360037
v -37.860626 70.194923 32.806419
v -39.662331 70.973541 29.951603
v -47.195198 70.606094 16.334417
v -46.344894 70.973541 17.954107
v -36.396137 71.699997 31.537434
v -33.233509 71.699997 34.854301
v -35.912651 71.651741 32.738705
v -33.534866 71.651741 35.170357
v -39.923439 71.509293 28.429354
v -39.111874 71.509293 29.535917
v -37.040283 71.509293 32.095589
v -42.085106 71.651741 -24.297846
v -43.873131 71.509293 -21.846224
v -44.490597 70.973541 -22.153685
v -39.111874 71.509293 -29.535917
v -40.228493 71.279533 -28.646580
v -30.190060 70.194923 -39.978100
v -43.605083 63.324203 -25.175406
v -43.385090 70.194923 -25.048395
v -39.945984 63.324203 -30.651632
v -33.271004 71.279533 -36.496555
v -22.629889 71.279533 43.895859
v -18.061193 71.651741 45.114681
v -18.215666 71.509293 45.500534
v -25.175406 63.324203 43.605083
v 26.497519 71.509293 -41.230942
v 22.629889 71.279533 -43.895859
v 22.458284 71.509293 -43.562996
v 26.272816 71.651741 -40.881298
v 22.267836 71.651741 -43.193573
v 48.176807 71.509293 -9.005806
v 48.540649 71.651741 -2.312276
v 47.768257 71.651741 8.929435
v 48.544922 71.279533 9.074618
v 38.780201 71.651741 29.285448
v 36.726173 71.651741 31.823410
v 39.584881 71.651741 28.188267
v 39.229156 71.699997 27.934958
v 41.316891 71.651741 25.582335
v 42.085106 71.651741 24.297846
v 43.873131 71.509293 21.846224
v 44.582260 71.509293 20.360037
v 44.204197 71.651741 20.187380
v 44.922913 71.279533 20.515606
v 36.219799 71.509293 33.018711
v 33.483414 70.973541 36.729553
v 39.410728 71.279533 29.761599
v 40.485317 70.973541 28.829464
v 44.208363 71.279533 22.013149
v 45.209709 70.973541 20.646582
v 46.569496 70.606094 18.041119
v 46.669632 71.279533 16.152515
v 44.204197 71.651741 -20.187380
v 40.485317 70.973541 -28.829464
v 39.662331 70.973541 -29.951603
v 41.316891 71.651741 -25.582335
v 44.208363 71.279533 -22.013149
v 43.873131 71.509293 -21.846224
v -21.660963 71.651741 -43.501080
v -26.036716 71.699997 -40.513924
v -25.801134 71.509293 -41.670261
v -25.582335 71.651741 -41.316891
v -13.298842 71.651741 -46.740582
v -9.114149 71.699997 -47.288696
v -0.000000 71.651741 -48.595692
v -4.762002 70.194923 49.869946
v -9.216526 69.759865 49.304062
v -9.346326 71.279533 48.493343
v 30.872074 70.606094 -39.257034
v 36.907558 70.606094 -33.645683
v 39.410728 71.279533 -29.761599
v -37.743618 70.606094 32.705032
v -40.485317 70.973541 28.829464
v -46.569496 70.606094 18.041119
v -36.219799 71.509293 33.018711
v -42.593147 70.194923 -26.372561
v -22.458284 71.509293 43.562996
v -18.472033 70.973541 46.140903
v -13.690989 71.651741 46.627224
v 26.036716 71.699997 -40.513924
v 47.993702 71.279533 -11.643146
v 45.510288 71.699997 15.751264
v 45.701691 71.509293 17.704929
v 46.740582 71.651741 13.298842
v 45.922970 71.651741 15.894094
v 48.176807 71.509293 9.005806
v 43.501080 71.651741 21.660963
v 42.445045 71.509293 24.505659
v 37.040283 71.509293 32.095589
v 35.912651 71.651741 32.738705
v 44.490597 70.973541 22.153685
v 47.500538 71.279533 13.515068
v 47.629765 71.509293 -11.554856
v 47.225857 71.651741 -11.456869
v 47.768257 71.651741 -8.929435
v 46.740582 71.651741 -13.298842
v 42.085106 71.651741 -24.297846
v 39.584881 71.651741 -28.188267
v 42.769367 71.279533 -24.692905
v -22.067728 71.699997 -42.805420
v -29.761599 71.279533 -39.410728
v -29.535917 71.509293 -39.111874
v -29.285448 71.651741 -38.780201
v 34.463902 70.606094 -36.144699
v 37.040283 71.509293 -32.095589
v 37.561584 70.973541 -32.547298
v -39.854549 70.606094 30.096758
v -40.681522 70.606094 28.969181
v -41.316891 71.651741 25.582335
v -39.584881 71.651741 28.188267
v -38.780201 71.651741 29.285448
v -39.229156 71.699997 27.934958
v -18.354851 71.279533 45.848202
v -14.070277 70.606094 47.918964
v 45.314133 71.651741 17.554789
v 46.050896 71.279533 17.840212
v 47.225857 71.651741 11.456869
v 47.629765 71.509293 11.554856
v 42.769367 71.279533 24.692905
v 39.111874 71.509293 29.535917
v 47.993702 71.279533 11.643146
v 47.140343 71.509293 13.412583
v 41.988663 71.279533 -25.998278
v 42.445045 71.509293 -24.505659
v 39.111874 71.509293 -29.535917
v 37.323303 71.279533 -32.340828
v -36.726173 71.651741 31.823410
v -13.913590 71.279533 47.385338
v 46.315735 71.509293 16.030031
v -13.808084 71.509293 47.026012
v -14.002418 70.973541 47.687855
f 1 2 3
f 4 3 2
f 5 2 1
f 6 3 4
f 7 5 1
f 8 2 5
f 9 1 3
f 10 11 12
f 13 3 6
f 14 4 2
f 15 1 9
f 16 7 1
f 17 2 8
f 18 8 5
f 19 20 21
f 22 9 3
f 23 12 11
f 24 6 4
f 25 14 2
f 26 3 13
f 27 15 9
f 28 11 10
f 29 30 31
f 29 31 32
f 33 21 20
f 34 16 1
f 35 18 5
f 36 8 18
f 37 38 39
f 37 5 7
f 40 19 21
f 41 20 19
f 42 22 3
f 43 9 22
f 44 10 12
f 45 12 23
f 46 13 6
f 47 48 2
f 47 2 17
f 49 25 50
f 49 50 51
f 52 53 54
f 52 54 3
f 52 3 26
f 55 56 15
f 57 1 15
f 57 32 1
f 58 27 9
f 59 15 27
f 60 21 33
f 61 33 20
f 62 7 16
f 63 36 18
f 64 35 5
f 65 18 35
f 66 64 5
f 67 38 37
f 67 37 7
f 68 5 37
f 68 37 39
f 68 39 66
f 68 66 5
f 69 19 40
f 70 71 72
f 73 39 38
f 74 23 11
f 75 22 42
f 75 42 76
f 75 76 77
f 75 77 23
f 78 42 3
f 79 9 43
f 80 43 22
f 81 76 42
f 82 10 83
f 84 44 12
f 85 86 87
f 85 87 88
f 89 45 23
f 90 51 50
f 91 92 93
f 94 93 92
f 94 92 6
f 95 96 91
f 97 98 24
f 97 24 4
f 99 24 98
f 100 98 97
f 100 97 4
f 101 4 14
f 102 48 50
f 102 50 25
f 102 25 2
f 102 2 48
f 103 104 105
f 106 40 21
f 107 53 52
f 107 52 26
f 107 26 13
f 108 56 55
f 109 57 15
f 109 15 56
f 110 27 58
f 110 11 27
f 111 58 9
f 111 9 11
f 112 59 27
f 113 15 59
f 114 11 28
f 115 32 31
f 116 117 118
f 119 31 30
f 120 20 72
f 120 72 121
f 120 61 20
f 122 7 62
f 123 8 124
f 123 17 8
f 125 17 123
f 125 123 124
f 126 47 17
f 126 17 125
f 126 48 47
f 127 63 18
f 127 18 65
f 128 124 8
f 128 8 36
f 128 36 63
f 129 64 130
f 129 130 131
f 132 19 69
f 133 69 40
f 134 135 136
f 134 71 70
f 137 70 72
f 137 72 20
f 138 139 130
f 140 39 73
f 140 73 138
f 140 138 66
f 140 66 39
f 141 41 19
f 142 143 141
f 144 74 11
f 145 23 74
f 146 3 54
f 146 78 3
f 147 11 79
f 147 79 43
f 147 43 11
f 148 9 79
f 148 79 11
f 148 11 9
f 149 11 80
f 149 80 22
f 150 43 80
f 150 80 11
f 150 11 43
f 151 77 76
f 151 76 152
f 153 78 88
f 153 88 81
f 153 81 42
f 153 42 78
f 154 81 88
f 154 88 87
f 155 44 156
f 155 157 158
f 155 10 44
f 159 44 84
f 160 156 44
f 161 162 163
f 164 12 45
f 165 45 89
f 166 45 167
f 168 90 50
f 168 50 48
f 169 51 90
f 170 171 172
f 173 46 6
f 173 6 92
f 174 24 99
f 174 99 94
f 174 94 6
f 174 6 24
f 175 91 93
f 175 93 94
f 176 100 4
f 177 101 14
f 178 49 51
f 178 51 169
f 178 169 179
f 180 181 182
f 183 184 86
f 183 86 185
f 183 185 54
f 183 54 53
f 183 53 186
f 183 186 184
f 187 103 105
f 187 105 188
f 189 106 21
f 190 187 188
f 191 53 107
f 191 107 192
f 191 186 53
f 193 192 107
f 193 107 13
f 193 13 46
f 194 108 55
f 194 55 195
f 196 30 29
f 196 29 32
f 196 32 57
f 196 57 109
f 196 109 56
f 197 11 110
f 197 110 58
f 197 58 11
f 198 58 111
f 198 111 11
f 198 11 58
f 199 59 112
f 199 11 114
f 199 114 59
f 200 28 10
f 201 195 55
f 201 55 15
f 201 15 113
f 201 113 195
f 202 200 113
f 202 113 59
f 202 59 114
f 202 114 28
f 203 195 113
f 203 113 10
f 203 10 82
f 204 34 1
f 204 1 32
f 204 32 115
f 205 136 116
f 205 116 118
f 206 119 30
f 206 30 207
f 208 136 135
f 209 61 120
f 210 124 211
f 210 212 125
f 210 125 124
f 213 214 126
f 213 126 125
f 213 125 212
f 215 216 214
f 215 214 213
f 215 213 212
f 217 218 219
f 220 127 131
f 221 218 222
f 221 222 128
f 221 128 63
f 221 63 219
f 221 219 218
f 223 66 138
f 223 138 130
f 223 130 64
f 223 64 66
f 224 127 65
f 224 65 35
f 224 35 64
f 224 64 129
f 224 129 131
f 224 131 127
f 225 69 133
f 226 227 99
f 226 99 98
f 228 73 229
f 228 229 230
f 228 139 138
f 228 138 73
f 231 132 69
f 232 233 234
f 235 234 233
f 235 233 142
f 235 142 19
f 236 237 232
f 236 232 230
f 236 230 229
f 238 142 233
f 238 233 232
f 238 232 237
f 239 19 142
f 239 142 141
f 239 141 19
f 240 144 22
f 240 22 75
f 241 23 145
f 241 145 75
f 241 75 23
f 242 75 145
f 242 240 75
f 243 185 86
f 243 86 85
f 243 85 88
f 243 88 78
f 243 78 146
f 243 146 54
f 243 54 185
f 244 144 11
f 244 11 149
f 244 149 22
f 244 22 144
f 245 246 165
f 247 81 154
f 247 154 152
f 247 152 76
f 247 76 81
f 248 152 154
f 249 33 61
f 250 251 84
f 250 84 12
f 252 83 10
f 253 84 254
f 253 159 84
f 255 160 44
f 255 44 256
f 257 162 161
f 257 161 258
f 259 260 257
f 259 257 258
f 261 164 262
f 263 264 164
f 263 164 45
f 265 60 33
f 266 165 246
f 267 45 166
f 267 263 45
f 268 269 267
f 268 267 166
f 270 216 271
f 270 271 272
f 270 48 126
f 270 126 214
f 270 214 216
f 273 272 168
f 273 168 48
f 273 48 270
f 273 270 272
f 274 169 90
f 274 90 168
f 275 276 277
f 278 170 172
f 279 181 180
f 280 279 179
f 280 179 169
f 281 282 283
f 281 171 170
f 281 170 278
f 284 193 46
f 284 46 173
f 284 173 92
f 284 92 91
f 284 91 96
f 285 99 227
f 285 227 175
f 285 175 94
f 285 94 99
f 286 287 95
f 286 95 288
f 286 288 289
f 286 289 290
f 286 290 105
f 291 95 91
f 292 176 4
f 292 4 101
f 293 177 14
f 294 101 177
f 295 296 297
f 295 297 180
f 295 180 182
f 295 182 298
f 299 178 179
f 299 179 279
f 299 279 180
f 299 180 297
f 300 293 14
f 300 14 296
f 300 296 295
f 300 295 301
f 300 301 302
f 303 25 49
f 303 49 296
f 303 296 14
f 303 14 25
f 304 104 103
f 304 103 187
f 305 306 307
f 305 307 248
f 308 306 305
f 308 87 86
f 308 86 184
f 309 310 311
f 312 189 21
f 313 188 105
f 313 105 290
f 314 106 189
f 315 191 192
f 315 192 193
f 315 96 95
f 315 95 287
f 316 56 108
f 316 108 207
f 316 207 30
f 317 318 207
f 317 207 108
f 317 108 319
f 317 319 318
f 320 207 318
f 320 318 117
f 321 322 319
f 321 319 82
f 321 82 83
f 321 83 252
f 323 318 319
f 323 319 322
f 324 194 195
f 324 82 319
f 324 319 108
f 324 108 194
f 325 27 11
f 325 11 199
f 325 199 112
f 325 112 27
f 326 113 200
f 326 200 10
f 326 10 113
f 327 200 202
f 327 202 28
f 327 28 200
f 328 21 60
f 329 330 331
f 332 118 329
f 332 329 331
f 333 205 118
f 333 118 332
f 333 332 121
f 333 121 72
f 333 72 71
f 334 136 205
f 334 205 333
f 334 333 71
f 334 71 134
f 334 134 136
f 335 119 206
f 335 206 207
f 335 207 320
f 335 320 117
f 335 117 116
f 335 116 136
f 336 209 120
f 336 120 121
f 337 61 209
f 338 212 210
f 338 210 211
f 339 216 215
f 339 215 340
f 341 127 220
f 341 219 63
f 341 63 127
f 342 124 128
f 342 128 222
f 342 211 124
f 343 130 139
f 344 345 346
f 347 133 40
f 348 349 225
f 348 225 133
f 350 351 352
f 353 352 351
f 353 351 354
f 353 355 356
f 357 358 350
f 357 350 352
f 357 352 353
f 359 360 226
f 359 361 360
f 362 100 359
f 362 359 226
f 362 226 98
f 362 98 100
f 363 69 225
f 364 69 365
f 364 231 69
f 366 132 231
f 367 368 369
f 370 367 369
f 371 237 236
f 371 236 229
f 372 74 242
f 372 242 145
f 372 145 74
f 373 144 240
f 373 240 242
f 373 242 74
f 373 74 144
f 374 23 374
f 374 374 89
f 374 89 23
f 375 161 163
f 375 376 12
f 375 12 161
f 377 378 163
f 379 376 375
f 379 375 163
f 379 163 378
f 380 381 382
f 380 251 250
f 380 250 381
f 383 251 380
f 383 254 84
f 383 84 251
f 384 249 61
f 385 12 376
f 385 376 379
f 385 250 12
f 386 252 387
f 386 322 321
f 386 321 252
f 388 155 156
f 388 389 390
f 391 10 155
f 391 155 158
f 391 158 387
f 391 387 252
f 391 252 10
f 392 387 158
f 392 158 157
f 393 249 384
f 394 12 164
f 394 164 261
f 394 261 395
f 394 395 259
f 394 259 258
f 394 258 161
f 394 161 12
f 396 261 262
f 397 164 264
f 397 264 263
f 397 396 262
f 397 262 164
f 398 396 399
f 400 165 266
f 400 167 45
f 400 45 165
f 401 167 400
f 401 268 166
f 401 166 167
f 402 272 271
f 403 276 275
f 403 172 276
f 404 279 280
f 404 280 283
f 405 280 169
f 405 169 274
f 406 282 281
f 407 298 182
f 407 182 408
f 407 408 409
f 407 409 410
f 411 412 413
f 414 227 226
f 415 191 315
f 415 315 287
f 415 287 286
f 415 186 191
f 416 289 288
f 416 288 95
f 416 95 291
f 417 175 227
f 417 227 414
f 417 418 416
f 417 416 291
f 417 291 91
f 417 91 175
f 419 420 302
f 419 302 301
f 421 101 294
f 421 176 292
f 421 292 101
f 422 293 300
f 422 300 302
f 422 302 420
f 422 294 177
f 422 177 293
f 423 301 295
f 423 295 298
f 423 298 419
f 423 419 301
f 424 296 49
f 424 49 178
f 424 178 299
f 424 299 297
f 424 297 296
f 425 184 186
f 425 186 104
f 425 104 304
f 425 304 306
f 425 306 308
f 425 308 184
f 426 87 308
f 426 308 305
f 426 305 248
f 426 248 154
f 426 154 87
f 427 428 429
f 427 429 310
f 427 310 309
f 430 306 304
f 430 307 306
f 431 307 309
f 431 309 311
f 432 311 310
f 432 310 429
f 433 434 435
f 436 190 188
f 436 188 313
f 437 429 428
f 438 284 96
f 438 96 315
f 438 315 193
f 438 193 284
f 439 56 316
f 439 316 30
f 439 30 196
f 439 196 56
f 440 203 82
f 440 82 324
f 440 324 195
f 440 195 203
f 441 204 115
f 441 16 34
f 441 34 204
f 442 67 7
f 442 38 67
f 443 122 62
f 443 444 445
f 446 447 448
f 449 329 118
f 449 118 117
f 449 117 318
f 449 318 323
f 449 323 450
f 451 330 329
f 451 329 449
f 451 449 450
f 451 452 330
f 453 332 331
f 453 331 330
f 453 330 454
f 453 454 209
f 455 119 335
f 455 335 136
f 455 136 208
f 456 61 337
f 457 458 456
f 457 456 337
f 459 212 338
f 459 340 215
f 459 215 212
f 460 271 216
f 460 216 339
f 461 339 340
f 461 340 462
f 463 340 459
f 463 459 338
f 464 465 466
f 467 468 220
f 467 220 131
f 469 342 222
f 469 222 218
f 470 211 342
f 470 471 463
f 470 463 338
f 470 338 211
f 472 230 232
f 473 474 475
f 473 343 139
f 473 472 474
f 476 474 472
f 476 475 474
f 477 478 344
f 477 344 346
f 477 346 132
f 477 132 366
f 477 366 478
f 479 369 368
f 479 368 480
f 479 370 369
f 481 407 410
f 482 483 484
f 485 40 486
f 485 347 40
f 487 488 485
f 487 485 486
f 489 133 347
f 489 347 490
f 489 491 133
f 492 361 351
f 492 351 350
f 492 350 360
f 492 360 361
f 493 360 350
f 493 350 358
f 494 495 355
f 494 355 353
f 494 353 354
f 496 497 498
f 499 356 500
f 499 500 357
f 499 357 353
f 499 353 356
f 501 357 500
f 501 500 502
f 503 361 359
f 503 359 100
f 503 100 176
f 503 176 361
f 504 275 505
f 506 507 508
f 509 231 364
f 509 364 506
f 509 506 508
f 510 463 471
f 511 368 367
f 511 367 512
f 511 512 510
f 511 510 368
f 513 507 512
f 513 512 367
f 513 367 508
f 513 508 507
f 514 367 370
f 514 370 231
f 514 231 509
f 514 509 508
f 514 508 367
f 515 442 516
f 517 23 77
f 517 77 151
f 517 151 152
f 517 518 374
f 517 374 23
f 519 520 518
f 519 518 517
f 519 517 152
f 519 152 248
f 521 377 163
f 521 163 162
f 521 162 257
f 522 33 249
f 523 378 524
f 525 382 523
f 525 523 524
f 525 524 522
f 525 522 249
f 525 249 526
f 527 33 522
f 527 522 524
f 527 524 378
f 528 380 382
f 528 382 525
f 528 525 526
f 529 458 457
f 529 457 337
f 529 337 530
f 531 160 255
f 531 156 160
f 532 533 390
f 534 533 535
f 534 392 390
f 534 390 533
f 536 388 390
f 536 390 392
f 536 392 157
f 536 157 155
f 536 155 388
f 537 538 397
f 537 397 263
f 537 263 267
f 537 267 269
f 539 396 397
f 539 397 538
f 539 538 399
f 539 399 396
f 540 60 265
f 541 542 540
f 541 398 399
f 541 399 542
f 543 261 396
f 544 168 272
f 544 272 402
f 544 274 168
f 545 277 276
f 545 544 402
f 545 402 271
f 545 271 277
f 546 349 278
f 546 278 172
f 546 172 403
f 547 363 403
f 547 365 69
f 547 69 363
f 548 408 182
f 548 182 181
f 548 181 279
f 548 279 404
f 548 549 409
f 548 409 408
f 550 282 406
f 550 406 551
f 550 549 548
f 550 548 404
f 550 404 283
f 550 283 282
f 552 283 280
f 552 280 405
f 552 405 171
f 552 171 281
f 552 281 283
f 553 406 281
f 553 281 278
f 553 278 349
f 554 348 133
f 555 491 489
f 555 489 490
f 556 491 555
f 556 555 557
f 556 557 409
f 556 409 549
f 556 549 550
f 556 550 551
f 558 559 481
f 558 481 410
f 558 410 409
f 558 409 557
f 558 557 555
f 558 555 490
f 560 40 106
f 561 412 411
f 561 411 502
f 562 418 417
f 562 417 414
f 563 105 104
f 563 104 186
f 563 186 415
f 563 415 286
f 563 286 105
f 564 419 298
f 564 298 407
f 565 420 419
f 565 419 564
f 565 564 484
f 565 484 483
f 566 304 187
f 566 187 428
f 567 307 431
f 567 431 520
f 567 520 519
f 567 519 248
f 567 248 307
f 568 312 21
f 569 189 312
f 569 432 429
f 569 429 189
f 570 311 432
f 571 434 433
f 572 571 433
f 572 433 435
f 573 436 435
f 574 314 189
f 575 437 428
f 575 428 187
f 575 187 190
f 576 577 441
f 576 441 115
f 578 444 443
f 578 443 62
f 578 62 16
f 578 16 441
f 578 441 577
f 579 135 134
f 579 134 580
f 579 581 582
f 579 582 208
f 579 208 135
f 583 41 141
f 584 580 134
f 584 134 70
f 584 585 586
f 587 516 442
f 587 442 7
f 587 7 122
f 587 122 443
f 588 589 568
f 588 568 21
f 588 21 446
f 588 446 448
f 588 448 589
f 590 328 591
f 590 446 21
f 590 21 328
f 592 593 448
f 594 337 209
f 594 209 454
f 594 454 530
f 594 530 337
f 595 322 386
f 595 386 596
f 595 452 451
f 595 451 450
f 595 450 323
f 595 323 322
f 597 530 454
f 597 454 330
f 597 330 452
f 597 598 529
f 597 529 530
f 599 453 209
f 599 209 336
f 600 504 505
f 600 461 462
f 601 277 271
f 601 271 460
f 601 460 339
f 601 339 461
f 601 461 600
f 601 600 505
f 601 505 275
f 601 275 277
f 602 218 217
f 603 465 464
f 603 464 344
f 603 479 480
f 604 605 606
f 607 468 605
f 607 605 217
f 607 217 219
f 607 219 341
f 607 341 220
f 607 220 468
f 608 606 605
f 608 605 468
f 608 468 467
f 609 467 131
f 610 368 510
f 611 234 476
f 611 476 472
f 611 472 232
f 611 232 234
f 612 472 473
f 612 473 139
f 612 139 228
f 612 228 230
f 612 230 472
f 613 464 466
f 613 466 604
f 613 604 606
f 613 606 614
f 613 345 344
f 613 344 464
f 615 614 606
f 616 345 613
f 616 613 614
f 616 614 615
f 616 346 345
f 617 618 475
f 617 475 476
f 619 370 479
f 619 479 478
f 619 478 366
f 619 366 231
f 619 231 370
f 620 498 497
f 621 490 347
f 621 347 622
f 621 559 558
f 621 558 490
f 623 484 564
f 623 564 407
f 623 407 481
f 623 481 624
f 625 347 485
f 625 485 488
f 625 622 347
f 626 498 488
f 626 488 487
f 626 487 486
f 627 493 358
f 628 360 493
f 628 493 627
f 628 627 629
f 628 562 414
f 630 421 294
f 630 294 631
f 630 631 494
f 630 494 354
f 630 354 351
f 630 351 361
f 632 482 497
f 632 497 496
f 632 356 355
f 632 355 495
f 632 495 483
f 632 483 482
f 633 411 413
f 633 627 358
f 633 358 357
f 633 357 501
f 633 501 502
f 633 502 411
f 634 507 506
f 634 506 364
f 634 364 365
f 635 462 340
f 635 340 463
f 635 463 510
f 635 510 512
f 635 512 462
f 636 229 73
f 636 73 38
f 637 638 515
f 637 515 516
f 637 516 587
f 637 587 443
f 637 443 445
f 637 445 639
f 637 639 638
f 640 371 229
f 640 229 636
f 640 636 515
f 640 515 638
f 641 518 520
f 641 520 642
f 641 642 593
f 641 593 643
f 641 643 518
f 644 265 33
f 645 521 257
f 646 381 250
f 646 250 385
f 646 385 379
f 646 379 378
f 646 378 523
f 646 523 382
f 646 382 381
f 647 521 645
f 647 645 648
f 647 648 644
f 647 644 33
f 647 377 521
f 649 384 61
f 650 598 597
f 650 597 452
f 650 452 595
f 650 595 596
f 651 458 529
f 651 529 598
f 651 598 650
f 651 650 535
f 651 535 533
f 652 387 392
f 652 392 534
f 652 386 387
f 653 654 655
f 656 654 653
f 656 653 531
f 657 531 255
f 657 255 256
f 658 256 44
f 658 44 159
f 659 660 159
f 659 159 253
f 661 540 542
f 661 662 60
f 661 60 540
f 663 399 538
f 664 398 541
f 664 543 396
f 664 396 398
f 665 666 667
f 668 274 544
f 668 544 171
f 668 171 405
f 668 405 274
f 669 172 171
f 669 171 544
f 669 544 545
f 669 545 276
f 669 276 172
f 670 363 225
f 670 225 349
f 670 349 546
f 670 546 403
f 670 403 363
f 671 504 365
f 671 365 547
f 671 547 403
f 671 403 275
f 671 275 504
f 672 551 406
f 672 406 554
f 672 554 133
f 672 133 491
f 672 491 556
f 672 556 551
f 673 553 349
f 673 349 348
f 673 348 554
f 673 554 406
f 673 406 553
f 674 40 560
f 674 560 412
f 674 412 561
f 674 561 40
f 675 40 561
f 675 561 502
f 675 502 486
f 675 486 40
f 676 677 418
f 676 418 562
f 676 562 628
f 676 628 629
f 678 427 309
f 678 309 307
f 678 307 430
f 678 430 304
f 678 304 566
f 678 566 428
f 678 428 427
f 679 589 448
f 679 448 593
f 680 569 312
f 680 570 432
f 680 432 569
f 681 416 418
f 681 418 677
f 681 289 416
f 682 289 681
f 682 681 572
f 682 572 435
f 682 435 436
f 682 436 313
f 682 313 290
f 682 290 289
f 683 571 572
f 683 572 681
f 683 681 677
f 683 677 676
f 683 676 684
f 683 684 571
f 685 106 314
f 685 434 106
f 686 437 574
f 686 574 189
f 686 189 429
f 686 429 437
f 687 575 190
f 687 190 436
f 687 436 573
f 687 573 314
f 687 314 574
f 688 208 582
f 688 576 115
f 688 115 31
f 688 31 119
f 688 119 455
f 688 455 208
f 689 582 581
f 689 639 445
f 690 581 579
f 691 41 583
f 691 583 585
f 691 585 41
f 692 583 141
f 692 141 143
f 693 137 20
f 693 20 41
f 693 41 585
f 693 585 584
f 693 584 70
f 693 70 137
f 694 446 590
f 694 590 591
f 695 696 89
f 695 89 374
f 697 245 165
f 697 165 89
f 697 89 696
f 698 592 448
f 698 448 447
f 699 643 593
f 699 593 592
f 699 592 698
f 699 698 700
f 701 121 332
f 701 332 453
f 701 453 599
f 701 599 336
f 701 336 121
f 702 512 507
f 702 507 600
f 702 600 462
f 702 462 512
f 703 504 600
f 703 600 507
f 703 507 634
f 703 634 365
f 703 365 504
f 704 605 604
f 704 604 466
f 704 466 465
f 704 465 602
f 704 602 217
f 704 217 605
f 705 479 603
f 705 603 344
f 705 344 478
f 705 478 479
f 706 609 131
f 706 131 130
f 706 130 343
f 706 343 473
f 707 475 618
f 708 471 470
f 708 470 342
f 708 610 510
f 708 510 471
f 709 368 610
f 709 610 708
f 709 602 465
f 709 465 603
f 709 603 480
f 709 480 368
f 710 19 132
f 711 19 710
f 711 710 712
f 713 235 19
f 713 19 711
f 713 711 712
f 713 712 234
f 713 234 235
f 714 616 615
f 714 615 618
f 714 618 715
f 716 715 618
f 716 618 617
f 716 617 476
f 717 488 498
f 717 498 620
f 717 622 625
f 717 625 488
f 718 624 481
f 718 481 559
f 718 559 621
f 718 621 622
f 718 622 717
f 718 717 620
f 718 620 497
f 718 497 624
f 719 482 484
f 719 484 623
f 719 623 624
f 719 624 497
f 719 497 482
f 720 502 500
f 720 500 626
f 720 626 486
f 720 486 502
f 721 496 498
f 721 498 626
f 721 626 500
f 721 500 356
f 721 356 632
f 721 632 496
f 722 360 628
f 722 628 414
f 722 414 226
f 722 226 360
f 723 631 294
f 723 294 422
f 723 422 420
f 724 565 483
f 724 631 723
f 724 723 420
f 724 420 565
f 725 176 421
f 725 421 630
f 725 630 361
f 725 361 176
f 726 627 633
f 726 633 413
f 727 238 237
f 727 237 371
f 728 692 143
f 728 143 729
f 730 515 636
f 730 636 38
f 730 38 442
f 730 442 515
f 731 679 593
f 731 593 642
f 732 520 431
f 732 431 311
f 732 311 733
f 732 733 731
f 732 731 642
f 732 642 520
f 734 568 589
f 734 589 679
f 734 679 731
f 734 731 733
f 735 570 680
f 735 680 312
f 735 312 734
f 735 734 733
f 735 733 311
f 735 311 570
f 736 648 645
f 736 645 257
f 736 257 260
f 737 527 378
f 737 378 377
f 737 377 647
f 737 647 33
f 737 33 527
f 738 526 249
f 738 249 393
f 739 383 380
f 740 61 741
f 740 655 742
f 743 649 61
f 743 61 740
f 743 740 742
f 744 654 745
f 744 745 649
f 744 649 743
f 744 743 742
f 744 742 655
f 744 655 654
f 746 747 748
f 746 749 747
f 750 458 651
f 750 651 533
f 751 535 650
f 751 650 596
f 751 596 386
f 751 386 652
f 751 652 534
f 751 534 535
f 752 532 390
f 752 390 389
f 752 653 655
f 753 531 653
f 753 653 752
f 753 752 389
f 753 389 388
f 753 388 156
f 753 156 531
f 754 749 746
f 755 749 754
f 755 256 658
f 755 658 660
f 755 660 749
f 756 660 658
f 756 658 159
f 756 159 660
f 757 660 659
f 757 659 253
f 758 662 661
f 758 661 542
f 758 542 399
f 758 399 663
f 759 401 400
f 759 400 266
f 759 266 760
f 759 667 401
f 761 666 665
f 761 328 60
f 762 538 537
f 762 537 269
f 763 663 538
f 763 538 762
f 763 662 758
f 763 758 663
f 764 106 434
f 764 434 571
f 765 560 106
f 766 767 764
f 766 764 571
f 766 571 684
f 768 434 685
f 768 573 435
f 768 435 434
f 769 573 768
f 769 768 685
f 769 685 314
f 769 314 573
f 770 437 575
f 770 575 687
f 770 687 574
f 770 574 437
f 771 576 688
f 771 688 582
f 771 582 689
f 772 444 578
f 772 578 577
f 772 577 576
f 772 576 771
f 772 771 689
f 772 689 445
f 772 445 444
f 773 580 584
f 773 584 586
f 773 690 579
f 773 579 580
f 774 696 695
f 774 695 374
f 774 374 518
f 774 518 643
f 775 246 245
f 775 245 697
f 775 697 696
f 775 699 700
f 776 665 667
f 776 667 759
f 776 759 760
f 777 706 473
f 777 473 475
f 778 615 606
f 778 707 618
f 778 618 615
f 779 469 218
f 779 218 602
f 779 602 709
f 779 709 708
f 779 708 342
f 779 342 469
f 780 234 712
f 780 712 716
f 780 716 476
f 780 476 234
f 781 495 494
f 781 494 631
f 781 631 724
f 781 724 483
f 781 483 495
f 782 143 142
f 782 142 238
f 782 238 727
f 782 727 729
f 782 729 143
f 783 371 640
f 783 640 638
f 784 692 728
f 784 728 729
f 784 585 583
f 784 583 692
f 785 568 734
f 785 734 312
f 785 312 568
f 786 543 664
f 786 736 260
f 786 260 259
f 786 259 395
f 786 395 261
f 786 261 543
f 787 393 384
f 788 747 749
f 788 748 747
f 789 393 787
f 789 787 790
f 791 528 526
f 791 526 738
f 791 739 380
f 791 380 528
f 792 745 746
f 792 746 748
f 792 748 384
f 792 384 649
f 792 649 745
f 793 746 745
f 793 745 654
f 794 532 752
f 794 740 741
f 794 750 533
f 794 533 532
f 795 458 750
f 795 750 794
f 795 794 741
f 795 741 61
f 795 61 456
f 795 456 458
f 796 657 256
f 796 256 755
f 796 755 754
f 797 757 253
f 798 664 799
f 798 799 736
f 798 736 786
f 798 786 664
f 800 736 799
f 800 799 265
f 800 265 644
f 800 644 648
f 800 648 736
f 801 541 540
f 801 540 265
f 801 265 799
f 801 799 664
f 801 664 541
f 802 666 761
f 802 761 60
f 802 60 662
f 802 662 763
f 803 591 328
f 803 328 761
f 803 761 665
f 803 665 591
f 804 268 401
f 804 763 762
f 804 762 269
f 804 269 268
f 805 764 767
f 805 767 765
f 805 765 106
f 805 106 764
f 806 629 627
f 806 627 726
f 806 726 413
f 806 413 807
f 806 807 766
f 806 766 684
f 806 684 676
f 806 676 629
f 808 412 560
f 808 560 765
f 808 765 767
f 808 767 766
f 808 766 807
f 808 807 413
f 808 413 412
f 809 699 775
f 809 775 696
f 809 696 774
f 809 774 643
f 809 643 699
f 810 447 446
f 810 446 694
f 810 694 591
f 810 698 447
f 811 700 698
f 811 776 760
f 811 760 266
f 811 266 246
f 811 246 775
f 811 775 700
f 812 707 778
f 812 467 609
f 812 609 706
f 812 706 777
f 812 777 475
f 812 475 707
f 813 608 467
f 813 467 812
f 813 812 778
f 813 778 606
f 813 606 608
f 814 616 714
f 814 714 815
f 814 132 346
f 814 346 616
f 816 715 716
f 816 815 714
f 816 714 715
f 817 132 814
f 817 814 815
f 817 815 816
f 817 816 710
f 817 710 132
f 818 729 727
f 818 727 371
f 818 371 783
f 819 639 689
f 819 689 581
f 819 638 639
f 820 748 788
f 820 788 790
f 820 790 787
f 820 787 384
f 820 384 748
f 821 757 788
f 821 788 749
f 821 749 660
f 821 660 757
f 822 738 393
f 822 393 789
f 822 823 791
f 822 791 738
f 824 656 531
f 824 531 657
f 824 657 796
f 824 796 754
f 824 754 746
f 824 746 793
f 824 793 654
f 824 654 656
f 825 655 740
f 825 740 794
f 825 794 752
f 825 752 655
f 826 254 383
f 826 383 739
f 826 739 791
f 826 791 823
f 826 797 253
f 826 253 254
f 827 757 797
f 827 797 826
f 827 826 823
f 827 823 822
f 827 822 789
f 827 789 790
f 828 667 666
f 828 666 804
f 828 804 401
f 828 401 667
f 829 763 804
f 829 804 666
f 829 666 802
f 829 802 763
f 830 665 776
f 830 776 810
f 830 810 591
f 830 591 665
f 831 776 811
f 831 811 698
f 831 698 810
f 831 810 776
f 832 712 710
f 832 710 816
f 832 816 716
f 832 716 712
f 833 729 818
f 833 773 586
f 834 757 827
f 834 827 790
f 834 790 788
f 834 788 757
f 835 729 833
f 835 833 586
f 835 586 585
f 835 585 784
f 835 784 729
f 836 783 638
f 836 638 819
f 836 819 581
f 836 581 690
f 836 690 773
f 836 773 833
f 836 833 818
f 836 818 783
