# Convex hull collision mesh — generated by scripts/generate-collision-meshes.mjs
v -30.310961 -14.148090 37.727264
v -65.084602 -14.148090 -1.524066
v 10.554004 -14.148090 1.524066
v -24.219641 -14.148090 -37.727264
v -2.166108 -14.148090 28.331131
v -56.584099 -14.148090 23.938057
v -52.364494 -14.148090 -28.331131
v -15.279417 -14.148090 35.902103
v -44.855072 -14.148090 33.514511
v -39.251183 -14.148090 -35.902103
v 2.053498 -14.148090 -23.938057
v -24.219641 -14.148090 37.727264
v 6.930299 -14.148090 16.226013
v -36.323399 -14.148090 36.750149
v -30.310961 -14.148090 -37.727264
v -4.527205 -14.148090 -30.258909
v 8.125065 -14.148090 -13.421795
v -62.655666 -14.148090 13.421795
v -27.265301 -14.148090 37.849998
v -27.265301 4.451910 37.849998
v -18.207203 -14.148090 36.750149
v -9.675529 -14.148090 33.514511
v -33.336868 -14.148090 37.359852
v -27.265301 -14.148090 -37.849998
v -27.265301 4.451910 -37.849998
v 0.032212 -14.148090 -26.219616
v 2.053498 4.451910 -23.938057
v -15.279417 -14.148090 -35.902103
v 10.308731 -14.148090 -4.562314
v -61.460899 -14.148090 -16.226013
v -44.855072 -14.148090 -33.514511
v -36.323399 -14.148090 -36.750149
v -50.003395 -14.148090 30.258909
v -21.193733 -14.148090 37.359852
v 3.884639 -14.148090 21.501251
v -12.429364 -14.148090 34.821220
v -9.675529 4.451910 33.514511
v -4.527205 -14.148090 30.258909
v -2.166108 -14.148090 -28.331131
v -9.675529 -14.148090 -33.514511
v 6.930299 4.451910 -16.226013
v 8.125065 4.451910 -13.421795
v 5.513761 -14.148090 -18.924999
v 5.513761 4.451910 -18.924999
v 9.090310 -14.148090 -10.530531
v 10.554004 -14.148090 -1.524066
v 10.308731 4.451910 -4.562314
v 10.554004 4.451910 1.524066
v 9.090310 -14.148090 10.530531
v 10.308731 4.451910 4.562314
v -58.415241 -14.148090 -21.501251
v -42.101238 -14.148090 -34.821220
v -42.101238 4.451910 -34.821220
v -36.323399 4.451910 -36.750149
v -52.364494 -14.148090 28.331131
v -42.101238 -14.148090 34.821220
v -42.101238 4.451910 34.821220
v -36.323399 4.451910 36.750149
v -50.003395 4.451910 30.258909
v -18.207203 4.451910 36.750149
v -4.527205 4.451910 -30.258909
v -40.819977 27.151911 22.479620
v -13.318256 27.151911 -2.896501
v -18.356630 27.151911 -24.692066
v -15.279417 4.451910 -35.902103
v -18.207203 4.451910 -36.750149
v -18.207203 -14.148090 -36.750149
v 0.032212 -14.148090 26.219616
v 0.032212 4.451910 26.219616
v -7.035769 -14.148090 31.990444
v -7.035769 -14.148090 -31.990444
v -9.675529 4.451910 -33.514511
v -12.429364 -14.148090 -34.821220
v 3.884639 -14.148090 -21.501251
v 6.930299 -14.148090 -16.226013
v 9.819776 -14.148090 -7.570972
v 9.090310 4.451910 -10.530531
v 10.554004 4.451910 -1.524066
v 8.913855 18.283005 0.694766
v 8.125065 -14.148090 13.421795
v 9.090310 4.451910 10.530531
v 3.884639 4.451910 21.501251
v 5.513761 4.451910 18.924999
v 5.513761 -14.148090 18.924999
v 8.736112 18.283005 3.648603
v 8.514706 18.283005 5.404176
v 9.819776 -14.148090 7.570972
v 7.376068 22.518847 1.793638
v 5.885954 24.222979 3.359750
v 7.245693 22.518847 3.497555
v 7.033453 22.518847 5.180449
v -62.655666 4.451910 -13.421795
v -61.460899 4.451910 -16.226013
v -64.350380 -14.148090 -7.570972
v -54.562813 4.451910 -26.219616
v -52.364494 4.451910 -28.331131
v -58.415241 4.451910 -21.501251
v -56.584099 4.451910 -23.938057
v -60.044361 4.451910 -18.924999
v -56.744583 23.151911 -17.436581
v -56.584099 -14.148090 -23.938057
v -30.310961 4.451910 -37.727264
v -33.336868 -14.148090 -37.359852
v -53.616943 23.151911 -21.878151
v -39.251183 4.451910 -35.902103
v -61.460899 4.451910 16.226013
v -62.655666 4.451910 13.421795
v -60.044361 -14.148090 18.924999
v -60.044361 4.451910 18.924999
v -63.620911 4.451910 10.530531
v -64.350380 -14.148090 7.570972
v -39.251183 -14.148090 35.902103
v -39.251183 4.451910 35.902103
v -47.494831 -14.148090 31.990444
v -44.855072 4.451910 33.514511
v -54.562813 -14.148090 26.219616
v -2.573235 27.151911 8.908669
v -4.527205 4.451910 30.258909
v -56.584099 4.451910 23.938057
v -7.035769 4.451910 -31.990444
v 0.032212 4.451910 -26.219616
v -38.425846 27.151911 -23.759308
v -21.193733 -14.148090 -37.359852
v 2.053498 -14.148090 23.938057
v -12.429364 4.451910 -34.821220
v 9.819776 4.451910 -7.570972
v 8.543922 18.283005 -5.207062
v 8.881506 18.283005 -1.679997
v 8.125065 4.451910 13.421795
v 6.771105 18.283005 12.285645
v 5.405282 18.283005 15.557861
v 9.819776 4.451910 7.570972
v 10.308731 -14.148090 4.562314
v 7.526625 21.228281 6.431815
v 7.719341 21.228281 5.284045
v 6.844514 22.518847 6.305716
v 6.884752 21.228281 9.253119
v 8.068808 21.228281 1.829506
v -62.287674 19.086958 -8.592370
v -64.839333 -14.148090 -4.562314
v -64.350380 4.451910 -7.570972
v -65.084602 4.451910 -1.524066
v -63.620911 4.451910 -10.530531
v -62.655666 -14.148090 -13.421795
v -50.003395 -14.148090 -30.258909
v -44.855072 4.451910 -33.514511
v -47.494831 4.451910 -31.990444
v -60.044361 -14.148090 -18.924999
v -54.562813 -14.148090 -26.219616
v -24.219641 4.451910 -37.727264
v -33.336868 4.451910 -37.359852
v -32.837097 23.151911 -33.793751
v -24.707365 23.151911 -34.154346
v -55.268959 23.151911 -19.719471
v -58.415241 -14.148090 21.501251
v -61.460899 -14.148090 16.226013
v -61.381958 18.143873 12.105488
v -63.620911 -14.148090 10.530531
v -64.839333 -14.148090 4.562314
v -64.839333 4.451910 4.562314
v -64.350380 4.451910 7.570972
v -65.084602 4.451910 1.524066
v -30.310961 4.451910 37.727264
v -47.494831 4.451910 31.990444
v 6.215226 22.518847 9.071708
v -7.035769 4.451910 31.990444
v -2.166108 4.451910 28.331131
v -15.279417 4.451910 35.902103
v -52.364494 4.451910 28.331131
v -58.415241 4.451910 21.501251
v -2.166108 4.451910 -28.331131
v 3.884639 4.451910 -21.501251
v 1.862592 18.283005 -21.470442
v -0.061628 18.283010 -23.861595
v 3.821391 18.283005 -18.521111
v 4.856630 25.242081 0.616853
v 4.827909 25.242081 -1.491597
v 3.518929 26.061975 0.591164
v -6.139835 27.151911 -15.581310
v -28.484007 27.151911 -26.221695
v 2.053498 4.451910 23.938057
v 1.742337 18.283005 21.632635
v 6.930299 4.451910 16.226013
v 8.872117 18.283005 1.871100
v 8.137596 19.361799 6.544762
v 7.250682 20.242081 9.352270
v 7.484451 19.361799 9.415610
v 7.661142 18.283005 9.463486
v 8.077988 21.228281 -1.642652
v 8.488673 20.242081 0.686601
v 8.456704 20.242081 -1.660253
v 8.123089 20.242081 -5.145868
v -58.034519 23.151911 -15.043857
v -64.839333 4.451910 -4.562314
v -63.382774 18.143873 -2.453012
v -62.481350 18.143862 -8.385125
v -63.620911 -14.148090 -10.530531
v -50.003395 4.451910 -30.258909
v -47.711742 23.151911 -27.477364
v -47.494831 -14.148090 -31.990444
v -21.193733 4.451910 -37.359852
v -19.339487 23.151911 -33.320324
v -35.499508 23.151911 -33.245457
v -38.110050 23.151911 -32.487751
v -27.423977 23.151911 -34.249634
v -25.542332 24.222979 -33.276493
v -25.604031 25.242081 -32.084873
v -24.865856 25.242081 -32.038128
v -51.798935 23.151911 -23.899021
v -35.254536 24.311874 -32.256382
v -61.568439 23.029762 1.594308
v -60.550438 24.222979 1.546995
v -61.602112 23.029762 0.480289
v -58.950932 18.143873 17.507423
v -60.275497 18.143873 14.859883
v -61.250313 19.086956 12.058777
v -63.462437 18.143873 0.506311
v -63.300034 18.143873 3.462247
v -65.084602 -14.148090 1.524066
v -33.336868 4.451910 37.359852
v -29.137167 18.143873 36.152252
v -33.254459 18.143873 35.701809
v -36.154156 18.143873 35.092411
v -39.551010 18.143873 34.052174
v 4.896088 24.222979 8.714281
v 3.744400 25.242081 8.402225
v 4.076513 24.222979 11.313015
v -18.487314 27.151911 24.738825
v -0.922171 18.283005 24.808334
v -3.037319 18.283005 26.877851
v 6.598917 19.361799 12.223492
v 1.741517 25.242081 13.813163
v 2.818818 24.222979 14.326178
v 2.766646 18.283005 20.186533
v -24.219641 4.451910 37.727264
v -8.744189 18.283005 31.086691
v -7.738462 18.283005 30.465006
v -10.293018 18.283005 31.958654
v -12.429364 4.451910 34.821220
v -60.583107 24.222979 0.466036
v -60.509781 24.222979 -2.257885
v -54.562813 4.451910 26.219616
v -60.742058 20.898338 11.878435
v -59.656349 20.898338 14.581168
v -60.101055 22.269096 11.650989
v -54.152412 18.143873 24.239891
v -56.398869 18.143873 21.487772
v -9.331902 23.151911 -29.179714
v -7.074332 23.151911 -27.665634
v -6.041864 23.095409 -26.936066
v -7.345276 24.222979 -26.711163
v -0.990234 20.355331 -24.202177
v -0.416176 19.361795 -23.985907
v 8.698641 19.361799 -1.671498
v 7.747909 21.228281 -5.091313
v 5.708980 24.222979 -4.794830
v 6.019837 24.222979 -1.546995
v 7.385067 22.518847 -1.610447
v 7.061460 22.518847 -4.991496
v 7.416077 22.518847 0.666003
v 6.011192 24.222979 1.722968
v 6.049625 24.222979 0.639763
v 4.044122 25.242081 -7.205482
v 5.206942 24.222979 -7.473090
v 4.487744 24.222979 -10.101375
v 3.350679 25.242081 -9.739648
v -18.703138 27.028793 -26.463696
v -17.825727 27.028793 -26.163567
v -17.307896 26.662476 -27.598835
v -1.289325 27.151911 -3.783014
v -0.443403 24.222979 -19.770670
v 0.656729 22.518847 -20.581589
v -2.148530 24.222979 -21.896151
v -33.576187 27.151911 -25.480093
v -53.486996 27.151911 1.218707
v -53.976463 24.222979 -19.920025
v -52.902229 24.222979 -21.284769
v -52.439899 26.061975 -17.727318
v -53.632740 26.061975 -15.898939
v -52.391239 26.662476 -15.150342
v -51.254559 26.662476 -16.892632
v -54.778515 25.242081 -16.589813
v -53.019947 25.242081 -19.206696
v -51.947407 26.061975 -18.406843
v 7.998722 18.283005 -8.115584
v 4.970578 18.283005 -16.439651
v 5.487087 18.283005 -15.384898
v 8.317608 18.283005 6.578040
v 8.689301 19.361799 1.861634
v 8.313019 20.242081 3.605724
v 8.553983 19.361799 3.630145
v 7.935825 21.228281 3.567497
v 8.094214 20.242081 5.340665
v 8.109617 21.228281 0.679322
v -59.032845 25.242081 -4.798138
v -59.319309 25.242081 -2.177031
v -61.526543 23.029762 -2.326941
v -62.921875 19.086956 -5.385533
v -55.800346 24.222979 -17.205952
v -58.819031 23.045719 -13.522141
v -59.572701 22.744633 -12.216086
v -22.006865 23.151911 -33.843925
v -22.149485 24.222979 -32.926006
v -30.139589 23.151911 -34.129181
v -28.812296 24.222979 -33.285137
v -27.419672 24.222979 -33.320709
v -24.776741 24.222979 -33.228008
v -51.895336 24.222979 -22.442255
v -51.013344 25.242081 -21.638607
v -28.756897 25.242081 -32.093208
v -43.110195 23.151911 -30.364483
v -37.815918 24.222979 -31.606613
v -62.268635 19.086956 8.669597
v -60.433624 24.222979 3.186840
v -59.358509 25.242081 1.491597
v -62.896645 18.143873 6.395030
v -62.759155 19.086956 6.370354
v -62.949852 19.086956 5.196923
v -57.414471 18.143873 20.037882
v -58.828671 19.086956 17.439869
v -62.103424 22.269096 0.487301
v -63.088078 18.143873 5.217054
v -25.584614 18.143873 36.161644
v -49.374889 18.143873 28.664530
v -30.317276 18.143873 36.071796
v -7.862007 27.151911 17.679783
v 1.016806 18.283005 22.572912
v 5.362035 22.518847 11.777032
v 6.014500 21.228281 12.012544
v 6.371105 20.242081 12.141262
v 5.240003 19.361799 15.479156
v 4.315647 18.283005 17.665155
v 3.723027 18.283005 18.685223
v 1.595589 19.361799 21.523197
v 0.873729 19.361799 22.458717
v -5.786345 18.283005 29.121614
v -59.390011 25.242081 0.449347
v -58.022003 26.061975 1.429481
v -61.028931 20.032627 11.980225
v -61.745152 20.898338 8.539941
v -61.084938 22.269096 8.376420
v -51.647018 18.143873 26.758568
v -55.676384 18.143873 22.434336
v -4.105449 25.242081 -22.267021
v -2.756830 24.222979 -22.574951
v -3.245301 24.222979 -23.094007
v -3.891975 24.222979 -23.748289
v -4.728965 25.242081 -22.897871
v -11.702433 23.151911 -30.509993
v -12.124531 24.222979 -29.682497
v -9.818294 24.222979 -28.388298
v -5.712294 24.222979 -25.411837
v -6.484099 25.242081 -24.501848
v -4.707015 24.222979 -24.523811
v 0.010868 18.283005 -23.778658
v -0.309684 20.242081 -23.499208
v 3.636048 22.518847 -15.759068
v 4.131174 22.518847 -14.747980
v 4.253997 21.228281 -16.074209
v 2.418530 24.222979 -15.138158
v 2.534436 22.518847 -17.754358
v 3.456057 20.242081 -18.303450
v 1.715236 19.361799 -21.361824
v 1.520278 20.242081 -21.218119
v 4.698819 25.242081 3.239439
v 4.502243 25.242081 4.798138
v 5.500582 24.222979 6.057270
v 4.528183 25.242081 -4.623129
v -23.344992 27.151911 -25.955610
v -25.074051 26.662476 -29.258230
v -25.748177 26.662476 -29.300920
v -25.827074 27.028793 -27.777136
v -22.760675 26.662476 -28.992308
v -24.965778 26.061975 -30.703917
v -16.048098 26.662476 -27.111252
v -11.572507 27.151911 -21.042784
v -13.710625 27.151911 -22.479620
v -11.902702 26.662476 -24.996723
v -9.725139 26.662476 -23.519957
v -11.143618 26.061975 -26.231844
v -13.933412 26.662476 -26.136303
v -3.647839 26.662476 -17.408651
v -2.059607 26.662476 -15.017277
v -0.814162 26.061975 -15.759299
v -1.050416 27.151911 1.357337
v -1.403886 25.242081 -19.062691
v -3.047952 25.242081 -21.112057
v -4.056471 26.061975 -20.232857
v 0.335249 25.242081 -16.444105
v 1.360322 24.222979 -17.054832
v 0.163662 26.061975 -13.988220
v -31.048315 27.151911 -25.975975
v -40.356049 26.061975 -27.868450
v -39.739674 26.662476 -26.556273
v -39.299870 26.061975 -28.340561
v -40.924896 25.242081 -29.079449
v -41.509468 26.061975 -27.296921
v -39.822819 25.242081 -29.572075
v -46.592201 26.662476 -22.075247
v -45.587112 27.028793 -20.927231
v -44.680855 26.662476 -23.612371
v -43.775166 27.028793 -22.384417
v -36.555428 26.662476 -27.830544
v -36.072296 27.028793 -26.383224
v -34.307529 26.677992 -28.432871
v -34.651356 26.096182 -29.821064
v -59.036133 22.269096 14.301971
v -58.356632 20.898338 17.179050
v -58.578960 23.029762 14.096169
v -49.744919 27.151911 -13.554675
v -49.816277 27.151911 13.435624
v -59.057770 25.242081 4.630099
v -60.238529 24.222979 4.802060
v -26.046593 27.151911 26.221695
v -49.839363 26.662476 -18.741859
v -47.824917 27.028793 -18.733393
v -48.952763 26.662476 -19.761059
v -50.954777 26.061975 -19.667917
v -53.533840 25.242081 -18.497643
v 7.217691 18.283005 -10.969833
v 7.043244 19.361799 -10.914338
v 6.837359 18.283005 -12.100520
v 8.362766 19.361799 -5.180720
v 8.730826 19.361799 0.691251
v 8.447426 20.242081 1.849110
v 7.899433 20.242081 6.500734
v 8.333697 19.361799 5.376837
v -56.128044 25.242081 -14.111732
v -63.059994 18.143873 -5.406394
v -60.287861 22.269119 -11.110598
v -60.932289 21.647400 -10.214979
v -61.491264 20.898336 -9.506538
v -59.385933 23.029762 -12.145462
v -49.826393 23.151911 -25.769352
v -49.214489 24.222979 -25.070433
v -32.067360 24.222979 -32.973228
v -25.673214 26.061975 -30.748716
v -27.414145 25.242081 -32.127506
v -28.694780 26.061975 -30.756704
v -27.407946 26.061975 -30.789574
v -40.652287 23.151911 -31.525404
v -61.448051 23.029762 3.284307
v -57.649673 24.222979 13.677842
v -56.561623 25.242081 13.188044
v -58.668121 24.222979 11.142547
v -57.543598 25.242081 10.743537
v -58.450851 25.242081 7.724011
v -59.609070 24.222979 8.010878
v -55.341591 26.061975 12.638835
v -63.426945 18.143873 1.680686
v -62.404221 18.143873 8.703179
v -58.364754 18.143873 18.528713
v -59.933918 20.032627 14.706119
v -61.947117 22.269096 3.332258
v -62.026749 22.269096 -2.360914
v -46.958813 18.143873 30.375233
v -49.289577 19.086956 28.553925
v -36.119858 19.086956 34.957005
v -33.231350 19.086956 35.564049
v -36.062176 20.032627 34.729290
v -11.683990 27.151911 21.125465
v -16.638433 24.222979 31.581059
v -19.254423 24.222979 32.343769
v -19.009415 23.029762 33.332981
v -16.202560 22.518847 32.876392
v -13.553256 22.518847 31.862539
v -1.055439 19.361799 24.682831
v -1.231759 20.242081 24.516785
v 4.052755 22.518847 14.913783
v 4.679037 21.228281 15.212021
v 3.008230 22.518847 16.933838
v 1.523357 22.518847 19.350834
v -0.554138 24.222979 19.920025
v 0.541453 22.518847 20.737068
v 0.533543 26.061975 13.237921
v 1.695700 26.061975 10.453647
v 2.954174 25.242081 10.907900
v 4.155880 19.361799 17.575788
v 3.944504 20.242081 17.457554
v -18.812300 21.691814 34.128830
v 0.389079 24.222979 18.588408
v 1.269744 24.222979 17.205952
v 0.247915 25.242081 16.589813
v 1.815448 24.222979 16.266642
v 0.774077 25.242081 15.684139
v -5.754308 25.242081 23.863699
v -8.195051 25.242081 25.855841
v -7.486790 24.222979 26.816116
v -15.724796 18.283005 34.296219
v -12.961077 18.283005 33.238579
v -15.783178 19.361799 34.122719
v -18.579863 18.716255 35.067291
v -6.263807 21.228281 28.474262
v -6.675550 22.518847 27.916012
v -8.172530 21.228281 29.787790
v -8.546852 22.518847 29.203787
v -8.837887 19.361799 30.929426
v -7.837247 19.361799 30.310884
v -7.967944 20.242081 30.106977
v -6.038768 20.242081 28.779373
v -5.895006 19.361799 28.974291
v -46.219421 22.269096 29.234800
v -44.997486 23.029762 29.407770
v -45.946678 23.029762 28.814119
v -62.527946 20.032627 6.328857
v -62.717400 20.032627 5.163070
v -62.228336 20.898338 6.275084
v -62.416180 20.898338 5.119202
v -51.552940 19.086956 26.655317
v -49.146107 20.032627 28.367920
v -51.394726 20.032627 26.481680
v -53.874195 20.032627 23.989067
v -55.566757 19.086956 22.347771
v -3.634470 25.242081 -21.766552
v -4.618563 26.061975 -20.860094
v -5.069929 26.061975 -21.339722
v -19.083517 24.222979 -32.300961
v -22.332680 25.242081 -31.746939
v -19.376503 25.242081 -31.144274
v -5.514818 25.242081 -23.645622
v -6.420606 26.061975 -22.660913
v -14.170994 23.151911 -31.648090
v -10.443064 25.242081 -27.371723
v -6.643168 24.222979 -26.172911
v -3.781763 22.518848 -25.529688
v -2.699507 21.954945 -24.959888
v -0.595462 21.228281 -23.250074
v -0.127120 19.361799 -23.658363
v 1.814149 25.242081 -13.659595
v 0.603150 26.061975 -13.090749
v 1.214908 26.061975 -11.700255
v 3.664126 19.361799 -18.427414
v 4.807498 19.361799 -16.356483
v 3.130356 21.228281 -18.109400
v 4.819573 25.242081 1.661270
v 4.327248 25.242081 5.840361
v 3.011593 26.061975 5.597142
v 5.682076 24.222979 4.976338
v 2.453017 26.061975 8.052320
v 1.053738 26.662476 7.673178
v 3.179300 26.061975 4.598322
v -27.394161 27.028793 -27.814047
v -28.556635 27.028793 -27.784351
v -29.599503 27.028793 -27.716227
v -31.273760 27.028793 -27.523991
v -25.907963 27.151911 -26.214884
v -20.819775 27.151911 -25.446369
v -20.435659 27.028793 -26.962822
v -22.994938 27.028793 -27.484573
v -7.768796 27.151911 -17.576941
v -6.299390 27.028793 -18.277538
v -6.807161 27.028793 -18.844158
v -3.505992 27.151911 -11.160546
v -5.149253 26.662476 -19.280197
v -1.043606 27.151911 -1.218707
v -2.480871 26.061975 -18.268833
v 1.752074 26.061975 -10.296127
v 0.694179 26.662476 -8.894554
v 2.075692 26.061975 -9.334045
v -0.126075 26.662476 -11.149352
v -0.709029 26.662476 -12.474374
v -1.537441 27.028793 -10.569534
v -1.127824 26.662476 -13.329588
v -10.051233 27.028793 -21.847509
v -8.287251 26.662476 -22.375862
v -9.106914 26.662476 -23.046009
v -10.637309 27.028793 -22.296808
v -7.402073 26.662476 -21.593929
v -8.435053 27.028793 -20.470945
v -8.858458 26.061975 -24.682106
v -37.438107 25.242081 -30.474792
v -48.281975 26.662476 -20.473032
v -47.189007 27.028793 -19.408339
v -47.547169 26.061975 -23.166012
v -49.320435 26.061975 -21.484631
v -45.541378 26.061975 -24.779087
v -46.335548 25.242081 -25.855841
v -43.629345 26.061975 -26.081339
v -36.043285 27.151911 -24.738825
v -38.136841 27.028793 -25.601707
v -33.946270 27.032721 -26.974293
v -40.838787 26.662476 -26.011652
v -43.024601 26.061975 -26.451139
v -42.282578 26.662476 -25.205694
v -42.047913 27.028793 -23.560818
v -38.733223 26.662476 -27.006153
v -37.014465 26.061975 -29.205685
v -51.189713 20.898338 26.256680
v -57.761299 22.269096 16.850109
v -57.984436 26.061975 -2.086370
v -57.709900 26.061975 -4.598322
v -52.252911 27.028793 -12.217081
v -53.623669 26.662476 -12.887280
v -52.711670 27.151911 -6.445527
v -44.842239 27.151911 -19.496504
v -52.745396 27.151911 6.310888
v -46.761806 27.151911 17.576941
v -38.551319 27.151911 23.699965
v -59.245876 25.242081 3.072721
v -30.160423 23.029762 34.217911
v -30.202690 22.269096 34.717487
v -29.040964 23.029762 34.294231
v -30.074505 24.222979 33.202438
v -29.066889 22.269096 34.794922
v -23.482286 27.151911 25.975975
v -55.386082 25.242081 15.537717
v -55.890923 24.222979 17.054832
v -54.865849 25.242081 16.444105
v -53.716438 26.061975 15.759299
v -50.785255 26.662476 -17.540161
v -50.024368 26.061975 -20.737478
v -51.984180 25.242081 -20.522570
v -54.509441 24.222979 -19.184637
v 6.206055 18.283005 -13.750721
v 6.538830 22.518847 -7.779608
v 7.214827 21.228281 -7.935181
v 7.584295 20.242081 -8.020209
v 6.451159 21.228281 -10.725982
v 4.591738 20.242081 -16.246450
v 4.759024 21.228281 -15.042903
v 5.462010 21.228281 -13.445052
v -54.926071 26.061975 -13.524056
v -57.199993 24.222979 -14.635836
v -57.112587 26.061975 -7.560272
v -58.409573 25.242081 -7.888797
v -57.715824 25.242081 -10.245224
v -58.846741 24.222979 -10.625728
v -59.150990 24.222979 -9.674517
v -60.212677 24.222979 -4.976338
v -61.220348 23.029762 -5.128536
v -61.716087 22.269096 -5.203412
v -62.689602 20.032627 -5.350451
v -63.009045 20.032627 -2.427629
v -62.388622 20.898338 -5.304991
v -63.243408 19.086956 -2.443547
v -62.069260 22.269096 1.617585
v -60.554161 23.029762 -8.432018
v -61.951385 20.032656 -8.965775
v -50.278820 25.242081 -22.418226
v -51.133533 24.222979 -23.250830
v -30.061632 24.222979 -33.203526
v -31.895399 25.242081 -31.792469
v -47.043812 24.222979 -26.816116
v -45.468300 23.151911 -29.012297
v -44.974594 24.222979 -28.225422
v -61.246994 23.029762 4.948927
v -61.743118 22.269096 5.021181
v -60.062321 24.222979 5.886333
v -61.065395 23.029762 6.066362
v -60.598282 23.029762 8.255885
v -63.287411 19.086956 1.674201
v -58.042946 20.032627 18.336987
v -57.102497 20.032627 19.830538
v -56.848988 20.898338 19.662048
v -57.781445 20.898338 18.181185
v -58.244751 19.086956 18.457218
v -57.298134 19.086956 19.960564
v -60.148121 19.086956 14.802545
v -58.623062 20.032627 17.326263
v -62.705349 20.898338 -2.407003
v -27.357914 20.898338 35.521572
v -27.356140 22.269096 34.841412
v -29.102058 20.898338 35.474174
v -27.359684 18.143873 36.200558
v -29.129946 19.086956 36.012753
v -30.305500 19.086956 35.932610
v -30.285696 20.032627 35.698540
v -46.882820 19.086956 30.258026
v -45.958195 18.143873 31.001047
v -45.886063 19.086956 30.881426
v -44.411034 18.143873 31.882801
v -46.755032 20.032627 30.060923
v -45.764767 20.032627 30.680260
v -45.607586 20.898338 30.419586
v -33.192486 20.032627 35.332378
v -33.142124 20.898338 35.032177
v -35.987434 20.898338 34.434212
v -30.260033 20.898338 35.395229
v -33.029598 22.269096 34.361389
v -39.503605 19.086956 33.920776
v -44.344875 19.086956 31.759777
v -42.769493 19.086956 32.557877
v -42.829548 18.143873 32.683990
v 3.204160 26.061975 -4.430601
v 1.769513 26.662476 -4.221987
v 2.043232 26.662476 -1.362174
v -1.818931 27.151911 6.445527
v -5.526173 27.028793 17.350739
v -4.333619 26.662476 18.302557
v -4.968492 27.028793 16.627991
v -7.016574 27.028793 19.069002
v -4.785681 27.151911 13.554675
v -16.104753 27.151911 23.759308
v -9.688360 27.151911 19.496504
v -8.642388 27.028793 20.659742
v -10.755436 27.028793 22.384417
v -12.255937 27.028793 23.417019
v -12.517320 22.518847 31.396475
v -13.098392 24.222979 30.159449
v -10.995652 22.518847 30.635601
v -14.093513 24.222979 30.607149
v -14.565190 25.242081 29.511118
v -1.507760 21.228281 24.256863
v -2.012748 22.518847 23.781298
v -3.575890 21.228281 26.280375
v 0.388115 21.228281 22.071133
v -4.040331 22.518847 25.765137
v 0.684432 20.242081 22.307632
v -0.154042 22.518847 21.638418
v 2.440144 22.518847 17.911674
v 3.613625 21.228281 17.272472
v 5.021333 20.242081 15.375024
v -0.393608 26.061975 15.030982
v -1.658855 26.662476 14.323252
v 3.566258 19.361799 18.590696
v -18.667931 20.242081 34.711716
v -22.146097 20.898338 35.150879
v -22.068377 19.086956 35.684551
v -27.354832 23.029762 34.340054
v -24.508982 22.269096 34.732334
v -24.455173 20.898338 35.410362
v -22.463242 24.222979 32.973228
v -19.541288 25.242081 31.185551
v -0.601214 25.242081 17.922764
v -1.222230 24.222979 20.785862
v -24.401459 18.143873 36.087223
v -21.193733 4.451910 37.359852
v -24.431093 20.032627 35.713806
v -9.155901 21.228281 30.395657
v -10.670300 21.228281 31.248236
v -10.492478 20.242081 31.583073
v -12.061207 20.242081 32.367477
v -11.958233 19.361799 32.586697
v -11.880402 18.283005 32.752388
v -10.378880 19.361799 31.796978
v -3.159887 19.361799 26.741877
v -46.589436 20.898338 29.805510
v -62.040619 20.032627 8.613122
v -61.558872 22.269096 6.154930
v -54.048664 19.086956 24.146358
v -56.286453 19.086956 21.404860
v -5.667479 26.061975 -21.944302
v -20.061001 26.662476 -28.441935
v -22.538097 26.061975 -30.424854
v -19.705029 26.061975 -29.847286
v -12.939123 24.222979 -30.084118
v -14.526139 24.222979 -30.789728
v -16.722034 23.151911 -32.586838
v -17.007990 24.222979 -31.703014
v -2.260092 22.518847 -24.041237
v -4.999301 22.913641 -26.252485
v -1.760052 21.228285 -24.522005
v 1.215100 21.228281 -20.993168
v 1.355562 25.242081 -14.596066
v 2.452490 25.242081 -12.208679
v 3.556196 24.222979 -12.662105
v 2.894148 24.222979 -14.166907
v 3.483415 26.061975 1.592087
v 2.035620 26.662476 1.517124
v 1.925344 26.662476 2.958358
v 1.586013 26.662476 5.333602
v -28.627474 26.662476 -29.308533
v -29.849215 26.061975 -30.681292
v -25.188007 27.028793 -27.736666
v -12.701630 27.028793 -23.696777
v -16.631445 27.028793 -25.701340
v -14.650684 26.662476 -26.489943
v -15.306703 27.028793 -25.112341
v -12.666716 25.242081 -28.619577
v -0.759844 27.028793 -8.431995
v -0.159503 27.028793 -6.238069
v 0.259568 27.028793 -4.002424
v 0.519052 27.028793 -1.291335
v 1.327454 26.662476 -6.580274
v -4.876057 27.028793 -16.503321
v -3.370420 27.028793 -14.236308
v -2.487095 27.028793 -12.636388
v -4.714325 27.151911 -13.435624
v -5.684879 26.662476 -19.877903
v -6.114992 26.662476 -20.334946
v 0.385798 26.662476 -9.811337
v -9.274198 27.028793 -21.212214
v -7.214907 27.028793 -19.277435
v -7.754709 27.028793 -19.823587
v -9.585518 27.151911 -19.403294
v -6.684407 26.662476 -20.911060
v -8.209684 26.061975 -24.184742
v -8.058604 25.242081 -25.754644
v -39.090950 27.028793 -25.175222
v -40.132900 27.028793 -24.658926
v -41.501610 27.028793 -23.894880
v -42.858849 26.662476 -24.853306
v -53.648113 20.898338 23.785244
v -55.143501 20.898338 22.013554
v -54.609695 22.269096 21.592043
v -58.052193 26.061975 0.430634
v -50.007008 27.028793 -16.014137
v -51.957367 27.151911 -8.908669
v -53.220909 27.151911 -3.920309
v -42.846611 27.151911 -21.125465
v -46.668594 27.151911 -17.679783
v -53.241276 27.151911 3.783014
v -42.958096 27.151911 21.042784
v -48.390766 27.151911 15.581310
v -49.094604 27.028793 17.237144
v -31.185610 27.151911 25.955610
v -54.215004 26.061975 14.890657
v -57.152145 26.061975 7.402349
v -54.916397 26.662476 9.811337
v -55.744930 26.662476 7.053811
v -57.570969 26.061975 5.439190
v -57.914063 26.061975 2.944759
v -58.887875 25.242081 5.675545
v -56.144032 26.662476 5.183087
v -45.256371 22.269096 29.837118
v -38.573734 24.222979 31.343466
v -40.119122 25.242081 29.444494
v -40.596508 24.222979 30.538050
v -38.168781 25.242081 30.221067
v -25.064903 27.028793 27.727171
v -17.018978 25.242081 30.450153
v -15.094079 26.061975 28.282143
v -19.862951 26.061975 29.886845
v -20.954412 27.151911 25.480093
v -18.394657 27.028793 26.361895
v -56.430473 24.222979 16.114782
v 5.321394 19.361799 -15.307067
v 5.790133 22.518847 -10.515695
v 6.079281 21.228281 -11.831534
v 7.820323 19.361799 -8.074528
v 6.812443 20.242081 -10.840915
v -55.565975 26.061975 -12.128066
v -56.065136 26.061975 -10.889802
v -54.709103 26.662476 -10.377058
v -58.432697 24.222979 -11.785026
v -57.892506 24.222979 -13.125085
v -55.535225 26.662476 -7.852199
v -55.707233 26.662476 -7.204298
v -54.228123 27.028793 -6.829642
v -56.276424 26.662476 -4.381811
v -56.538033 26.662476 -1.988134
v -55.015717 27.028793 -1.884741
v -56.728863 26.061975 -8.939613
v -55.341579 26.662476 -8.518694
v -58.009174 25.242081 -9.328076
v -63.322765 19.086956 0.504357
v -60.126194 23.029762 -9.970406
v -59.566261 24.222979 -8.181784
v -61.994591 20.032627 -8.796876
v -48.428497 25.242081 -24.172670
v -31.702581 26.061975 -30.468489
v -29.961496 25.242081 -32.014519
v -34.969551 25.301159 -31.105774
v -44.340431 25.242081 -27.214680
v -43.709404 25.242081 -27.600550
v -41.432209 24.222979 -30.159449
v -42.680447 24.222979 -29.540934
v -44.320133 24.222979 -28.625622
v -42.128437 25.242081 -28.483084
v -59.628555 23.029762 11.483335
v -63.160988 19.086956 3.448888
v -25.616137 20.898338 35.483391
v -25.602005 20.032627 35.787457
v -29.117798 20.032627 35.778160
v -27.359320 19.086956 36.060871
v -45.392277 24.222979 27.959011
v -32.946651 23.029762 33.866940
v -32.778046 24.222979 32.861881
v -35.447083 24.222979 32.300961
v -35.697319 23.029762 33.288860
v -35.820423 22.269096 33.774876
v -39.423882 20.032627 33.699814
v -41.748592 18.143873 33.177151
v 2.069461 26.662476 0.563330
v 0.511836 27.028793 1.438226
v 2.740258 26.061975 -6.905413
v 3.491404 26.061975 -1.429481
v 0.543917 27.028793 0.534034
v 0.407294 27.028793 2.804510
v 0.237110 27.028793 4.153936
v -1.309690 27.151911 3.920309
v -4.181153 27.028793 15.516440
v -2.914815 26.662476 16.367634
v -3.745345 26.662476 17.540161
v -0.418984 27.028793 7.274137
v -1.103114 27.028793 9.443398
v 0.332078 26.662476 9.961439
v -6.222517 27.151911 15.692794
v -3.565336 27.151911 11.286017
v -13.829676 27.151911 22.550976
v -9.284362 24.222979 28.053154
v -11.636679 24.222979 29.428553
v -10.210467 24.222979 28.625622
v -12.196334 25.242081 28.374727
v -13.605704 25.242081 29.079449
v -12.222398 21.228281 32.024326
v -13.279050 21.228281 32.499710
v 1.401436 20.242081 21.378407
v 3.034178 21.228281 18.269863
v 2.099057 21.228281 19.737801
v 2.413707 20.242081 19.949299
v -0.897859 26.061975 15.898939
v -1.711626 26.061975 17.176378
v 3.358848 20.242081 18.465631
v 2.614717 19.361799 20.084412
v -15.981334 21.228281 33.533840
v -22.102230 20.032627 35.452099
v -25.647715 22.269096 34.803959
v -22.244120 22.269096 34.477818
v -22.635201 25.242081 31.792469
v -1.510655 25.242081 19.206696
v -3.200535 26.061975 19.206909
v -2.154823 25.242081 20.041527
v -3.007702 24.222979 22.844311
v -22.048246 18.143873 35.822781
v -25.591099 19.086956 36.022110
v -9.510942 22.518847 29.799736
v -8.961851 20.242081 30.721357
v -13.129182 20.242081 32.847954
v -3.322049 20.242081 26.561979
v -48.960197 20.898338 28.126892
v -55.382397 20.032627 22.202194
v -18.233440 26.662476 -27.915428
v -15.956866 24.222979 -31.343466
v -1.751586 22.518847 -23.500891
v -2.933290 22.518847 -24.722353
v 3.012998 25.242081 -10.743537
v 4.137521 24.222979 -11.142547
v 3.367690 26.061975 3.104534
v 1.745824 26.662476 4.381811
v -27.401230 26.662476 -29.339855
v -14.626732 27.028793 -24.777094
v -15.979282 27.151911 -23.699965
v -13.452138 25.242081 -29.006817
v -14.027380 26.061975 -27.798843
v -13.274667 26.061975 -27.427731
v -2.526475 27.151911 -8.777986
v -2.090078 27.028793 -11.825648
v -7.349521 26.061975 -23.481482
v -7.381639 25.242081 -25.235668
v -48.903908 25.242081 23.748045
v -48.002777 26.061975 22.759069
v -50.133701 26.061975 20.616850
v -51.127426 25.242081 21.512737
v -49.707558 24.222979 24.630037
v -50.393936 23.029762 25.383329
v -48.238583 23.029762 27.191336
v -52.770569 23.029762 22.994099
v -53.142941 22.269096 23.329809
v -57.197128 22.269096 17.833055
v -56.282524 22.269096 19.285563
v -55.864975 23.029762 19.008049
v -54.216217 23.029762 21.281340
v -55.305054 22.269096 20.681017
v -55.852432 20.898338 21.084743
v -54.901569 23.029762 20.383423
v -56.602600 26.662476 0.410358
v -54.233444 26.662476 -11.557019
v -51.084572 27.028793 -14.362453
v -48.665405 27.028793 -17.767195
v -50.965263 27.151911 -11.286017
v -53.480183 27.151911 -1.357337
v -40.700924 27.151911 -22.550976
v -54.263859 27.028793 6.686980
v -53.478413 27.028793 9.301102
v -50.430042 27.028793 15.395859
v -51.160179 27.028793 14.236308
v -52.908192 26.061975 17.042898
v -52.470993 26.662476 15.017277
v -51.700802 26.662476 16.240437
v -52.946083 26.662476 14.189534
v -44.945084 27.151911 19.403294
v -45.998692 27.028793 20.559616
v -28.622637 27.151911 26.214884
v -36.173969 27.151911 24.692066
v -54.952141 27.028793 2.660175
v -54.789291 27.028793 4.008459
v -55.049652 27.028793 1.291335
v -56.470974 26.662476 2.806106
v -56.282673 26.061975 10.296127
v -57.733788 26.061975 4.437282
v -44.233616 20.032627 31.552891
v -43.767300 22.269096 30.685766
v -43.529839 23.029762 30.244207
v -42.029633 23.029762 31.004221
v -41.591476 24.222979 30.084118
v -41.204819 22.269096 31.931522
v -41.004234 23.029762 31.472034
v -40.439011 27.028793 24.496758
v -37.714714 26.061975 28.962528
v -34.825573 26.061975 29.847286
v -34.469601 26.662476 28.441935
v -35.154099 25.242081 31.144274
v -32.580639 25.242081 31.685108
v -29.973907 25.242081 32.013470
v -29.861109 26.061975 30.680286
v -20.578320 27.028793 26.998556
v -20.211489 26.662476 28.479630
v -22.828018 26.061975 30.468489
v -17.445681 26.061975 29.182072
v -57.322472 23.029762 16.607641
v 6.436580 20.242081 -11.958314
v 5.812696 20.242081 -13.589121
v 6.036725 19.361799 -13.681157
v 5.102177 20.242081 -15.204093
v 5.425546 22.518847 -11.599572
v -56.795757 25.242081 -12.655081
v -54.767712 27.028793 -4.153936
v -56.447727 26.061975 -9.818567
v -58.221218 25.242081 -8.598256
v -59.812637 23.029762 -10.950708
v -61.699512 20.898338 -8.722134
v -31.493654 26.662476 -29.033888
v -40.289200 24.222979 -30.670370
v -63.087883 20.032627 0.501072
v -63.052757 20.032627 1.663295
v -62.624161 20.898338 3.397309
v -62.927158 20.032627 3.426421
v -27.358707 20.032627 35.825966
v -39.320576 20.898338 33.413483
v -39.089745 22.269096 32.773689
v -38.919594 23.029762 32.302086
v -2.139363 26.662476 15.150342
v -2.152958 27.028793 11.958597
v 0.085610 27.028793 5.056230
v -10.650245 26.061975 25.922155
v -11.432561 26.662476 24.701618
v -11.506001 26.061975 26.451139
v -6.650122 26.061975 22.869907
v -8.989222 26.061975 24.779087
v -5.905779 26.662476 20.115080
v -7.620782 26.662476 21.793083
v -4.850379 26.061975 21.108992
v -9.849746 26.662476 23.612371
v -12.248024 26.662476 25.205694
v -15.667158 26.662476 26.950485
v -12.823874 26.061975 27.193077
v -13.503844 26.662476 25.912697
v -9.928252 25.242081 27.048580
v 1.097518 21.228281 21.151758
v -15.860421 20.242081 33.893166
v -25.670992 23.029762 34.303139
v -24.548645 23.029762 34.232544
v -22.316374 23.029762 33.981693
v -2.583194 26.061975 18.406843
v -3.876358 25.242081 22.026264
v -4.955399 24.222979 24.749987
v -24.412510 19.086956 35.947975
v -13.033442 19.361799 33.070427
v -48.544788 22.269096 27.588326
v -56.097404 20.032627 21.265425
v -17.375301 25.242081 -30.567741
v -1.118335 22.518847 -22.794247
v -1.241376 21.228281 -23.970850
v -1.052188 27.028793 -9.301102
v -1.785206 27.151911 -6.310888
v -49.056950 26.662476 19.646111
v -51.429890 26.061975 19.081163
v -47.616165 24.222979 26.384388
v -50.731609 22.269096 25.753922
v -52.479942 25.242081 19.910318
v -52.044388 26.061975 18.276079
v -53.121140 25.242081 19.070250
v -56.573833 26.662476 1.362174
v -55.076923 27.028793 0.389018
v -53.881481 27.028793 -8.075682
v -53.627514 27.028793 -8.869693
v -52.830978 27.028793 -10.956000
v -55.073681 26.662476 -9.356262
v -49.562107 27.028793 -16.627991
v -51.024609 27.151911 11.160546
v -51.610565 27.028793 13.451612
v -52.628277 27.028793 11.417408
v -54.019627 26.662476 12.043738
v -54.642204 27.028793 4.913542
v -49.649719 27.028793 16.509865
v -33.710827 27.151911 25.446369
v -31.866997 27.028793 27.431044
v -56.299187 26.662476 4.228353
v -44.089443 20.898338 31.284801
v -42.537621 20.898338 32.070965
v -43.047161 24.222979 29.346659
v -42.245190 22.269096 31.456877
v -42.396564 27.028793 23.338436
v -37.222706 26.662476 27.598835
v -32.359283 26.061975 30.365599
v -23.256842 27.028793 27.523991
v -56.766418 23.029762 17.576443
v -55.016232 24.222979 18.443953
v 6.664835 19.361799 -12.039305
v 4.820377 22.518847 -13.181457
v -57.316605 25.242081 -11.363008
v -56.932076 26.061975 -8.240186
v -59.370911 24.222979 -8.917592
v -60.605957 22.269096 -10.115972
v -60.835911 22.269096 -9.324508
v -60.352837 23.029762 -9.190331
v -61.040173 22.269096 -8.555124
v -29.727552 26.662476 -29.236670
v -62.783520 20.898338 0.496814
v -46.070255 26.061975 24.380156
v -42.668495 20.032627 32.345791
v -41.692707 19.086956 33.049133
v -41.598724 20.032627 32.833847
v -41.476940 20.898338 32.554874
v -2.990509 27.028793 13.578376
v -0.775358 26.662476 12.614616
v -14.219504 27.028793 24.565117
v -15.439651 27.028793 25.175222
v -16.270315 27.028793 25.548935
v -17.908035 26.662476 27.808041
v -14.174551 26.061975 27.868450
v -10.821195 25.242081 27.600550
v -24.723661 25.242081 32.027161
v -24.829506 26.061975 30.693405
v -16.815887 26.061975 -28.962528
v -17.787165 26.061975 -29.294764
v -47.026360 26.662476 21.687464
v -50.292107 26.662476 18.182732
v -47.923679 27.028793 18.624422
v -54.081417 24.222979 19.778511
v -54.022480 25.242081 17.783482
v -46.887405 25.242081 25.439571
v -54.065056 27.028793 -7.443848
v -53.281895 27.028793 -9.837402
v -48.308083 27.151911 -15.692794
v -52.004124 27.151911 8.777986
v -44.471252 24.222979 28.535044
v -32.119434 26.662476 28.935843
v -24.944195 26.662476 29.248215
v -41.627754 27.028793 23.819271
v -43.226631 26.662476 24.618723
v -44.252930 27.028793 22.024038
v -34.094940 27.028793 26.962822
v -36.704872 27.028793 26.163567
v -39.223896 27.028793 25.112341
v -39.879917 26.662476 26.489943
v -38.393356 27.028793 25.491255
v -39.003815 26.662476 26.889641
v -62.748688 20.898338 1.649163
v -42.482018 25.242081 28.295767
v -41.848328 26.061975 27.117403
v -43.855114 25.242081 27.513214
v -41.161690 26.662476 25.840588
v -3.446029 27.028793 14.362453
v -13.028992 27.028793 23.894880
v -14.790926 26.662476 26.556273
v -28.988268 24.222979 33.276493
v -27.352175 24.222979 33.320953
v -27.349064 25.242081 32.127743
v -25.773703 25.242081 32.093208
v -27.345575 26.061975 30.789801
v -24.629265 24.222979 33.216637
v -25.718306 24.222979 33.285137
v -28.857388 26.061975 30.748716
v -27.341797 26.662476 29.340071
v -25.835819 26.061975 30.756704
v -14.982324 25.242081 -29.687159
v -50.877670 26.662476 17.415554
v -52.013657 24.222979 22.311710
v -27.337818 27.028793 27.814251
v -28.703527 27.028793 27.777136
v -29.738886 26.662476 29.235714
v -23.036947 26.662476 29.033888
v -45.184830 26.662476 23.232222
v -44.015301 26.061975 25.835165
v -39.583832 26.061975 28.218292
v -43.164238 26.061975 26.367441
v -44.743156 25.242081 26.957809
v -41.078465 25.242081 29.006817
v -28.926569 25.242081 32.084873
v -15.493842 26.061975 -28.450853
v -16.361816 25.242081 -30.221067
v -53.416401 24.222979 20.649780
v -25.973967 27.028793 27.784351
v -28.782425 26.662476 29.300920
v -29.610249 27.028793 27.715321
v -40.503220 26.061975 27.798843
v -42.415642 26.662476 25.125937
v -25.903126 26.662476 29.308533
f 1 2 3
f 4 3 2
f 5 1 3
f 6 2 1
f 7 4 2
f 8 1 5
f 9 6 1
f 10 4 7
f 11 3 4
f 12 1 8
f 13 5 3
f 14 9 1
f 15 4 10
f 16 11 4
f 17 3 11
f 18 2 6
f 19 1 12
f 19 12 20
f 19 20 1
f 21 12 8
f 22 8 5
f 23 14 1
f 24 4 15
f 24 15 25
f 24 25 4
f 26 11 16
f 26 27 11
f 28 16 4
f 29 3 17
f 30 7 2
f 31 10 7
f 32 15 10
f 33 6 9
f 34 12 21
f 35 5 13
f 36 8 22
f 36 22 37
f 38 22 5
f 39 26 16
f 40 16 28
f 41 42 17
f 43 44 41
f 43 17 11
f 45 29 17
f 45 17 42
f 46 3 29
f 46 29 47
f 46 48 3
f 49 13 3
f 50 3 48
f 51 7 30
f 52 10 31
f 52 31 53
f 52 53 10
f 54 32 10
f 55 6 33
f 56 57 9
f 56 9 14
f 58 14 23
f 59 55 33
f 60 34 21
f 60 21 8
f 61 39 16
f 62 63 64
f 65 28 66
f 67 66 28
f 67 28 4
f 68 5 35
f 68 69 5
f 70 22 38
f 70 37 22
f 71 16 40
f 71 40 72
f 71 61 16
f 73 72 40
f 73 40 28
f 73 28 65
f 74 44 43
f 74 43 11
f 74 11 27
f 75 17 43
f 75 43 41
f 75 41 17
f 76 29 45
f 76 47 29
f 77 76 45
f 77 45 42
f 78 48 46
f 78 46 47
f 78 79 48
f 80 13 49
f 80 49 81
f 82 35 83
f 84 13 83
f 84 83 35
f 84 35 13
f 85 86 50
f 85 50 48
f 87 49 3
f 87 81 49
f 88 89 90
f 91 90 89
f 92 93 30
f 94 30 2
f 95 96 7
f 97 98 51
f 99 100 97
f 99 97 51
f 99 30 93
f 101 7 51
f 101 51 98
f 101 98 95
f 102 25 15
f 103 32 54
f 103 102 15
f 103 15 32
f 104 95 98
f 105 54 10
f 105 10 53
f 106 107 18
f 108 109 106
f 108 18 6
f 110 18 107
f 111 2 18
f 112 57 56
f 112 56 14
f 112 14 58
f 113 57 112
f 113 112 58
f 114 59 33
f 114 33 9
f 115 114 9
f 115 9 57
f 116 6 55
f 117 63 62
f 117 64 63
f 118 70 38
f 118 38 5
f 119 6 116
f 120 61 71
f 120 71 72
f 121 27 26
f 121 26 39
f 122 62 64
f 123 66 67
f 123 67 4
f 124 69 68
f 124 68 35
f 124 35 82
f 125 72 73
f 125 73 65
f 126 76 77
f 126 127 47
f 126 47 76
f 128 79 78
f 128 78 47
f 128 47 127
f 129 13 80
f 129 80 81
f 129 81 130
f 129 130 131
f 132 50 86
f 132 81 87
f 132 87 50
f 133 50 87
f 133 87 3
f 133 3 50
f 134 135 91
f 134 91 136
f 134 136 137
f 138 88 90
f 139 93 92
f 140 141 94
f 140 94 2
f 140 2 142
f 143 94 141
f 143 139 92
f 144 30 94
f 144 143 92
f 144 92 30
f 145 7 96
f 145 31 7
f 146 53 31
f 146 31 147
f 148 30 99
f 148 99 51
f 148 51 30
f 149 7 101
f 149 101 95
f 149 95 7
f 150 123 4
f 150 4 25
f 151 102 103
f 151 103 54
f 152 151 54
f 153 150 25
f 154 97 100
f 154 104 98
f 154 98 97
f 155 109 108
f 155 108 6
f 155 6 119
f 156 18 108
f 156 108 106
f 156 106 18
f 157 110 107
f 158 110 111
f 158 111 18
f 158 18 110
f 159 2 111
f 159 111 160
f 161 160 111
f 161 111 110
f 162 142 2
f 162 159 160
f 163 23 1
f 163 1 20
f 164 59 114
f 164 114 115
f 165 137 136
f 166 37 70
f 166 70 118
f 167 118 5
f 167 5 69
f 168 60 8
f 168 8 36
f 169 116 55
f 169 55 59
f 170 109 155
f 170 155 119
f 171 121 39
f 171 39 61
f 172 27 173
f 172 44 74
f 172 74 27
f 174 121 171
f 174 27 121
f 175 44 172
f 175 172 173
f 176 177 178
f 179 64 117
f 180 122 64
f 181 69 124
f 181 124 82
f 181 82 182
f 183 13 129
f 183 129 131
f 183 83 13
f 184 85 48
f 184 48 79
f 185 186 187
f 188 81 132
f 188 185 187
f 188 130 81
f 189 190 191
f 189 191 192
f 193 100 99
f 194 141 140
f 194 140 142
f 194 142 195
f 196 139 143
f 196 143 141
f 197 143 144
f 197 144 94
f 197 94 143
f 198 147 145
f 198 145 96
f 198 199 147
f 200 31 145
f 200 145 147
f 200 147 31
f 201 66 123
f 201 123 150
f 201 202 66
f 203 152 54
f 203 54 105
f 203 105 204
f 205 153 25
f 205 25 102
f 206 153 205
f 206 207 208
f 209 96 95
f 209 95 104
f 210 152 203
f 211 212 213
f 214 106 109
f 215 106 214
f 215 216 157
f 215 157 107
f 215 107 106
f 217 195 142
f 217 142 162
f 218 162 160
f 219 159 162
f 219 162 2
f 219 2 159
f 220 58 23
f 220 23 163
f 221 163 20
f 222 58 220
f 223 58 222
f 223 113 58
f 224 113 223
f 224 57 113
f 225 226 227
f 225 165 136
f 228 117 62
f 229 69 181
f 230 118 167
f 230 167 69
f 230 69 229
f 231 130 188
f 231 188 187
f 231 187 186
f 232 233 227
f 234 182 82
f 235 20 12
f 235 12 34
f 236 166 237
f 236 238 37
f 236 37 166
f 239 168 36
f 239 36 37
f 240 241 213
f 240 213 212
f 242 119 116
f 242 116 169
f 243 244 245
f 246 119 242
f 247 170 119
f 248 249 120
f 248 120 72
f 250 249 251
f 252 61 120
f 253 61 252
f 253 174 171
f 253 171 61
f 254 191 190
f 255 189 192
f 256 177 257
f 258 259 256
f 258 256 257
f 258 260 189
f 258 189 255
f 258 255 259
f 261 89 88
f 262 261 88
f 262 88 260
f 262 260 258
f 262 258 257
f 262 257 177
f 262 177 176
f 263 264 265
f 263 265 266
f 267 64 268
f 267 268 269
f 270 179 117
f 271 272 273
f 274 122 180
f 275 62 122
f 276 277 104
f 276 104 154
f 278 279 280
f 278 280 281
f 278 282 279
f 283 278 284
f 285 127 126
f 285 126 77
f 286 44 175
f 286 287 41
f 286 41 44
f 288 185 188
f 288 188 132
f 288 132 86
f 289 184 79
f 289 290 291
f 289 291 85
f 289 85 184
f 292 135 290
f 292 290 138
f 292 138 90
f 292 90 91
f 292 91 135
f 293 290 135
f 294 138 190
f 294 190 189
f 294 189 260
f 294 260 88
f 294 88 138
f 295 241 296
f 297 213 241
f 298 139 196
f 299 154 100
f 300 193 301
f 302 303 202
f 302 202 201
f 302 201 150
f 302 150 153
f 304 305 205
f 304 205 102
f 304 102 151
f 304 151 152
f 306 206 205
f 306 205 305
f 307 303 302
f 307 302 153
f 307 153 206
f 307 206 208
f 307 208 303
f 308 277 309
f 308 209 104
f 308 104 277
f 310 306 305
f 311 53 146
f 312 210 203
f 312 203 204
f 313 157 216
f 314 212 211
f 314 315 212
f 316 317 318
f 316 160 161
f 316 313 317
f 319 170 247
f 319 109 170
f 320 215 214
f 321 213 297
f 321 211 213
f 322 318 218
f 322 218 160
f 322 160 316
f 322 316 318
f 323 20 235
f 324 169 59
f 325 163 221
f 325 222 220
f 325 220 163
f 326 117 228
f 327 229 181
f 327 181 182
f 328 227 233
f 328 329 137
f 328 137 165
f 328 165 225
f 328 225 227
f 330 231 186
f 330 186 137
f 330 137 329
f 331 131 130
f 331 130 231
f 331 231 330
f 332 83 183
f 332 183 131
f 333 83 332
f 333 234 82
f 333 82 83
f 334 335 327
f 334 327 182
f 336 118 230
f 336 237 166
f 336 166 118
f 337 241 240
f 337 240 212
f 337 212 315
f 337 315 338
f 337 296 241
f 339 244 243
f 339 313 216
f 340 339 243
f 340 243 245
f 340 245 341
f 342 169 324
f 342 246 242
f 342 242 169
f 343 247 119
f 343 119 246
f 344 345 346
f 347 348 344
f 347 344 346
f 349 350 248
f 349 248 72
f 349 72 125
f 351 248 350
f 351 251 249
f 351 249 248
f 352 353 354
f 355 173 27
f 355 27 174
f 356 253 252
f 357 358 359
f 357 360 358
f 361 272 271
f 361 360 357
f 361 357 359
f 362 363 364
f 365 366 89
f 367 225 136
f 367 136 91
f 367 226 225
f 368 256 264
f 368 264 263
f 368 177 256
f 369 180 64
f 370 371 372
f 370 373 374
f 375 269 268
f 376 64 179
f 377 64 376
f 378 379 380
f 378 380 381
f 382 383 384
f 385 270 117
f 386 387 388
f 386 384 389
f 386 271 273
f 386 273 387
f 390 360 361
f 390 361 271
f 390 271 386
f 390 386 389
f 390 389 360
f 391 384 383
f 392 274 180
f 393 394 395
f 393 395 396
f 393 396 397
f 393 397 394
f 398 396 395
f 399 400 401
f 402 401 400
f 403 404 405
f 403 405 406
f 407 244 408
f 407 409 245
f 407 245 244
f 410 275 122
f 411 62 275
f 412 314 413
f 414 228 62
f 415 416 417
f 418 284 415
f 418 283 284
f 419 278 283
f 419 283 276
f 419 299 282
f 419 282 278
f 420 421 285
f 420 285 77
f 420 77 42
f 420 42 422
f 420 422 421
f 423 127 285
f 423 192 191
f 423 191 254
f 423 254 128
f 423 128 127
f 424 254 190
f 424 190 289
f 424 289 79
f 424 79 128
f 424 128 254
f 425 290 289
f 425 289 190
f 425 190 138
f 425 138 290
f 426 134 137
f 426 137 186
f 426 186 185
f 426 293 135
f 426 135 134
f 427 291 290
f 427 290 293
f 427 293 426
f 427 426 185
f 427 185 288
f 427 288 86
f 427 86 85
f 427 85 291
f 428 282 299
f 429 141 194
f 429 194 195
f 429 195 298
f 429 298 196
f 429 196 141
f 430 193 431
f 430 301 193
f 432 99 93
f 432 431 193
f 432 193 99
f 433 300 301
f 434 199 198
f 434 198 96
f 434 96 209
f 435 199 434
f 436 304 152
f 436 152 210
f 437 371 370
f 437 370 374
f 437 374 208
f 437 208 207
f 438 310 439
f 438 439 440
f 438 440 437
f 438 437 207
f 438 207 206
f 438 206 306
f 438 306 310
f 441 204 105
f 441 105 53
f 441 53 311
f 442 314 211
f 443 444 445
f 443 445 409
f 446 447 448
f 446 448 445
f 446 445 444
f 446 444 449
f 450 217 162
f 450 162 218
f 451 313 316
f 451 316 161
f 451 161 110
f 451 110 157
f 451 157 313
f 452 320 214
f 452 214 109
f 452 109 319
f 453 244 339
f 453 408 244
f 454 442 211
f 455 321 297
f 456 324 59
f 456 59 164
f 456 457 324
f 458 223 222
f 458 222 459
f 458 459 460
f 458 224 223
f 461 326 228
f 462 463 464
f 462 464 465
f 466 462 465
f 467 229 327
f 467 327 335
f 467 335 468
f 467 230 229
f 469 470 329
f 469 329 328
f 469 328 233
f 469 233 471
f 472 473 474
f 475 232 476
f 477 226 476
f 477 476 232
f 477 232 227
f 477 227 226
f 478 331 479
f 478 332 131
f 478 131 331
f 480 465 464
f 481 473 472
f 481 472 482
f 481 482 483
f 484 485 483
f 484 483 482
f 484 482 471
f 484 471 233
f 484 233 232
f 484 232 485
f 486 487 488
f 489 168 239
f 489 239 490
f 489 490 491
f 489 491 492
f 489 492 60
f 489 60 168
f 493 494 495
f 496 495 494
f 497 236 237
f 497 237 498
f 499 497 498
f 499 500 493
f 499 493 495
f 501 500 499
f 501 499 498
f 501 498 237
f 501 237 336
f 501 336 230
f 502 503 504
f 505 506 318
f 505 318 317
f 505 317 313
f 507 508 506
f 507 506 505
f 507 505 340
f 509 457 510
f 509 510 511
f 509 511 512
f 509 246 342
f 509 342 324
f 509 324 457
f 513 247 343
f 513 343 246
f 514 345 344
f 514 515 388
f 514 388 387
f 514 387 273
f 514 273 345
f 516 515 514
f 516 514 344
f 517 202 303
f 518 519 517
f 518 517 303
f 518 303 208
f 520 354 353
f 520 353 521
f 520 521 348
f 520 348 347
f 520 347 354
f 522 349 125
f 522 125 65
f 523 251 351
f 523 351 350
f 524 353 352
f 524 352 250
f 524 250 251
f 525 526 249
f 527 364 356
f 527 356 252
f 528 363 173
f 528 173 355
f 528 355 174
f 528 174 253
f 528 253 356
f 528 356 364
f 528 364 363
f 529 391 530
f 529 530 531
f 532 175 173
f 532 173 363
f 532 363 362
f 532 362 533
f 532 533 286
f 532 286 175
f 534 361 359
f 534 359 362
f 534 362 364
f 535 365 89
f 535 89 261
f 535 261 262
f 535 262 176
f 536 226 367
f 536 367 366
f 536 537 226
f 538 89 366
f 538 366 367
f 538 367 91
f 538 91 89
f 539 476 226
f 539 226 537
f 539 540 476
f 541 537 536
f 541 536 366
f 541 366 365
f 542 372 371
f 542 543 180
f 544 180 543
f 544 545 392
f 544 392 180
f 546 180 369
f 546 372 542
f 546 542 180
f 547 369 64
f 547 64 267
f 547 267 548
f 549 373 370
f 549 369 547
f 549 547 548
f 550 376 179
f 550 179 551
f 550 551 552
f 553 179 270
f 554 551 382
f 554 382 388
f 555 270 385
f 556 384 386
f 556 386 388
f 556 388 382
f 556 382 384
f 557 558 559
f 560 531 530
f 560 530 561
f 560 561 562
f 560 557 531
f 563 561 530
f 563 530 391
f 563 391 383
f 564 565 566
f 564 566 379
f 564 379 567
f 564 567 376
f 568 565 569
f 568 521 565
f 570 380 379
f 571 210 312
f 571 398 395
f 572 417 416
f 572 416 573
f 572 573 400
f 572 400 399
f 574 575 572
f 574 572 399
f 574 399 401
f 574 401 576
f 574 576 577
f 578 576 401
f 579 122 274
f 580 122 579
f 580 579 404
f 580 404 403
f 581 545 405
f 581 405 404
f 581 404 579
f 581 579 274
f 581 274 392
f 581 392 545
f 582 394 397
f 582 397 583
f 582 583 584
f 585 401 402
f 586 394 580
f 586 580 403
f 586 403 395
f 586 395 394
f 587 395 403
f 587 403 406
f 587 571 395
f 588 511 510
f 588 512 511
f 589 407 408
f 590 591 295
f 590 295 296
f 590 296 337
f 592 280 593
f 594 275 410
f 595 400 573
f 595 410 122
f 596 411 275
f 597 62 411
f 598 414 62
f 599 315 314
f 599 314 412
f 600 601 602
f 600 602 603
f 604 602 601
f 605 228 414
f 606 607 608
f 606 608 609
f 606 449 444
f 610 415 284
f 610 284 278
f 610 278 281
f 611 417 572
f 611 572 575
f 611 575 309
f 611 309 418
f 611 418 415
f 611 415 417
f 612 283 418
f 612 418 309
f 612 309 277
f 612 277 276
f 612 276 283
f 613 299 419
f 613 419 276
f 613 276 154
f 613 154 299
f 614 422 42
f 614 42 41
f 614 41 287
f 615 255 616
f 615 264 256
f 615 256 259
f 615 259 255
f 617 192 423
f 617 618 616
f 617 616 255
f 617 255 192
f 619 533 362
f 619 362 359
f 620 358 621
f 620 619 359
f 620 359 358
f 622 279 282
f 622 282 428
f 622 593 280
f 622 280 279
f 623 428 299
f 623 299 100
f 623 100 193
f 624 625 295
f 624 295 591
f 626 627 628
f 629 241 295
f 629 630 297
f 629 297 241
f 631 455 297
f 631 297 630
f 632 298 633
f 632 633 634
f 632 139 298
f 635 633 298
f 635 298 195
f 636 454 211
f 636 211 321
f 637 631 630
f 638 432 93
f 638 93 139
f 639 309 575
f 639 575 574
f 640 209 308
f 640 308 309
f 640 309 639
f 640 435 434
f 640 434 209
f 641 305 304
f 641 304 436
f 641 310 305
f 642 641 436
f 642 436 210
f 643 199 435
f 644 199 643
f 644 643 645
f 644 311 146
f 644 146 147
f 644 147 199
f 646 413 314
f 646 314 442
f 646 442 454
f 646 454 647
f 648 649 448
f 648 413 646
f 648 646 649
f 650 341 245
f 650 448 649
f 651 217 450
f 651 450 218
f 652 653 654
f 652 654 655
f 652 655 408
f 656 657 653
f 656 653 652
f 656 652 320
f 656 320 452
f 656 452 319
f 656 319 657
f 658 216 215
f 658 215 320
f 658 320 453
f 658 453 339
f 658 339 216
f 659 408 453
f 659 453 320
f 659 320 652
f 659 652 408
f 660 321 455
f 660 455 631
f 660 631 634
f 660 634 633
f 661 662 604
f 661 604 663
f 664 665 221
f 664 221 20
f 664 20 323
f 666 325 221
f 666 221 665
f 666 665 667
f 666 667 459
f 666 459 222
f 666 222 325
f 668 457 456
f 669 670 668
f 669 668 456
f 669 456 164
f 669 164 115
f 669 115 671
f 672 510 457
f 672 457 668
f 672 668 670
f 672 670 673
f 672 673 674
f 675 459 667
f 675 676 460
f 675 460 459
f 677 460 676
f 678 663 604
f 678 604 601
f 678 601 679
f 678 679 676
f 678 676 675
f 678 675 667
f 678 667 663
f 680 224 458
f 681 670 669
f 681 669 671
f 681 671 682
f 681 673 670
f 683 115 57
f 683 682 671
f 683 671 115
f 684 685 686
f 684 177 368
f 687 385 117
f 688 689 690
f 688 326 691
f 688 691 689
f 692 117 326
f 693 461 228
f 694 326 461
f 694 461 695
f 694 695 691
f 694 691 326
f 696 695 461
f 696 461 697
f 698 699 466
f 698 700 699
f 701 462 466
f 701 466 699
f 701 699 702
f 703 704 705
f 703 468 706
f 703 706 704
f 707 494 493
f 707 493 705
f 707 705 704
f 708 706 468
f 708 468 335
f 709 704 706
f 710 471 482
f 710 482 472
f 711 470 469
f 711 469 471
f 712 470 711
f 712 711 479
f 712 479 331
f 712 331 330
f 712 330 329
f 712 329 470
f 713 485 232
f 713 232 475
f 713 475 714
f 713 483 485
f 715 234 333
f 715 333 332
f 715 332 478
f 715 478 479
f 716 492 491
f 716 480 717
f 716 718 492
f 719 602 604
f 719 604 662
f 720 721 717
f 722 463 723
f 724 473 481
f 724 481 483
f 725 704 709
f 725 709 474
f 725 474 473
f 726 323 235
f 727 60 492
f 727 235 34
f 727 34 60
f 728 717 721
f 729 700 730
f 729 730 731
f 732 733 731
f 734 238 733
f 734 733 490
f 734 490 239
f 734 239 37
f 734 37 238
f 735 236 497
f 735 731 733
f 735 733 238
f 735 238 236
f 736 501 230
f 736 230 467
f 737 674 502
f 737 672 674
f 738 340 505
f 738 505 313
f 738 313 339
f 738 339 340
f 739 508 507
f 739 507 340
f 739 340 341
f 739 341 650
f 739 650 649
f 739 649 646
f 739 646 647
f 739 647 508
f 740 512 513
f 740 513 246
f 740 246 509
f 740 509 512
f 741 653 657
f 741 657 319
f 741 319 247
f 741 247 513
f 742 348 521
f 742 516 344
f 742 344 348
f 743 373 549
f 743 549 548
f 744 745 519
f 744 519 518
f 744 518 208
f 744 208 374
f 744 374 373
f 744 373 743
f 744 743 745
f 746 349 522
f 746 522 747
f 746 350 349
f 748 202 517
f 748 517 749
f 748 522 65
f 748 65 66
f 748 66 202
f 750 346 345
f 750 347 346
f 751 525 249
f 751 249 250
f 751 250 352
f 751 352 354
f 751 354 347
f 752 252 120
f 752 120 249
f 752 249 526
f 753 364 527
f 753 527 272
f 753 272 361
f 753 361 534
f 753 534 364
f 754 391 529
f 754 529 360
f 754 360 389
f 754 389 384
f 754 384 391
f 755 756 529
f 755 529 531
f 757 360 529
f 757 529 756
f 757 756 358
f 757 358 360
f 758 365 535
f 758 535 176
f 758 176 178
f 758 759 760
f 761 540 539
f 761 539 537
f 761 537 541
f 762 543 542
f 762 439 763
f 762 544 543
f 764 372 546
f 764 546 369
f 764 369 549
f 764 549 370
f 764 370 372
f 765 567 379
f 765 379 378
f 765 377 376
f 765 376 567
f 766 268 64
f 766 375 268
f 767 375 766
f 767 766 768
f 769 523 350
f 769 380 523
f 770 771 558
f 772 771 270
f 772 270 555
f 772 555 773
f 772 773 686
f 772 686 685
f 774 558 771
f 774 771 772
f 774 772 685
f 774 559 558
f 775 776 383
f 775 383 382
f 775 382 551
f 775 551 179
f 777 561 563
f 777 563 383
f 777 383 776
f 778 179 553
f 778 553 777
f 778 777 776
f 778 776 775
f 778 775 179
f 779 515 516
f 779 516 780
f 779 552 551
f 779 551 554
f 779 554 388
f 779 388 515
f 781 558 557
f 781 557 560
f 781 560 562
f 782 569 565
f 782 565 564
f 782 564 376
f 783 552 779
f 783 779 780
f 783 784 550
f 783 550 552
f 785 550 784
f 785 784 569
f 785 569 782
f 785 782 376
f 785 376 550
f 786 784 783
f 786 783 780
f 786 780 516
f 786 516 742
f 786 742 521
f 786 521 568
f 786 568 569
f 786 569 784
f 787 566 565
f 787 570 379
f 787 379 566
f 788 523 380
f 788 380 570
f 788 251 523
f 789 122 580
f 789 580 394
f 789 394 582
f 789 582 790
f 789 790 122
f 791 584 585
f 791 790 582
f 791 582 584
f 792 401 585
f 792 585 584
f 792 584 583
f 792 583 578
f 792 578 401
f 793 794 512
f 793 512 588
f 795 794 793
f 796 590 337
f 796 337 338
f 797 610 281
f 797 281 280
f 798 594 410
f 799 275 594
f 800 585 402
f 800 402 400
f 800 400 595
f 800 595 122
f 801 410 595
f 801 595 573
f 801 573 416
f 802 596 275
f 803 62 597
f 804 805 597
f 804 597 411
f 806 414 598
f 807 449 606
f 807 606 609
f 808 809 810
f 808 810 811
f 808 447 446
f 812 338 315
f 812 315 599
f 812 599 412
f 813 447 808
f 813 808 811
f 813 811 412
f 813 412 413
f 813 413 648
f 813 648 448
f 813 448 447
f 814 811 810
f 815 502 674
f 815 503 502
f 816 817 818
f 819 817 816
f 820 605 414
f 821 462 701
f 821 701 702
f 821 702 822
f 821 723 463
f 821 463 462
f 823 723 821
f 824 228 605
f 824 825 228
f 826 443 409
f 826 607 606
f 826 606 444
f 826 444 443
f 827 533 619
f 827 614 287
f 827 287 286
f 827 286 533
f 828 618 829
f 828 265 264
f 828 264 615
f 828 615 616
f 828 616 618
f 830 285 421
f 830 421 617
f 830 617 423
f 830 423 285
f 831 829 618
f 831 618 617
f 831 617 421
f 832 833 834
f 835 627 626
f 835 300 433
f 835 433 627
f 836 300 835
f 836 428 623
f 836 623 193
f 836 193 300
f 837 624 838
f 837 838 839
f 840 841 842
f 840 839 838
f 840 838 624
f 840 624 591
f 840 591 590
f 840 590 841
f 843 837 844
f 845 843 626
f 845 626 628
f 846 217 651
f 846 633 635
f 846 635 195
f 846 195 217
f 847 628 627
f 848 629 295
f 848 295 625
f 848 637 630
f 848 630 629
f 849 632 634
f 849 638 139
f 849 139 632
f 850 577 643
f 850 643 435
f 850 435 640
f 850 640 639
f 850 639 574
f 850 574 577
f 851 763 642
f 852 310 641
f 852 641 642
f 852 642 763
f 852 763 439
f 852 439 310
f 853 571 587
f 853 587 406
f 853 406 851
f 853 851 642
f 853 642 210
f 853 210 571
f 854 577 576
f 854 576 578
f 854 578 583
f 854 583 855
f 854 645 643
f 854 643 577
f 856 441 311
f 856 311 857
f 856 396 398
f 858 645 854
f 858 854 855
f 858 857 311
f 858 311 644
f 858 644 645
f 859 396 856
f 859 856 857
f 859 857 858
f 859 858 855
f 859 855 583
f 859 583 397
f 859 397 396
f 860 445 448
f 860 448 650
f 860 650 245
f 860 245 409
f 860 409 445
f 861 651 218
f 861 218 318
f 861 318 506
f 862 721 720
f 862 662 661
f 862 863 728
f 862 728 721
f 864 663 667
f 864 667 665
f 865 665 664
f 866 504 503
f 867 600 603
f 867 603 868
f 867 868 869
f 867 869 870
f 867 679 601
f 867 601 600
f 871 677 676
f 871 676 679
f 871 679 867
f 871 867 870
f 872 680 458
f 872 458 460
f 872 460 677
f 873 682 683
f 873 683 57
f 873 57 224
f 874 178 686
f 874 686 773
f 874 875 759
f 874 759 758
f 874 758 178
f 876 263 266
f 876 266 559
f 876 559 774
f 876 774 685
f 876 685 684
f 876 684 368
f 876 368 263
f 877 178 177
f 877 177 684
f 877 684 686
f 877 686 178
f 878 385 875
f 878 875 874
f 878 874 773
f 878 773 555
f 878 555 385
f 879 880 760
f 879 760 759
f 879 759 875
f 879 875 385
f 881 385 687
f 881 880 879
f 881 879 385
f 882 690 883
f 884 883 690
f 884 690 689
f 885 687 117
f 885 117 886
f 885 540 761
f 887 540 885
f 887 885 886
f 887 475 476
f 887 476 540
f 888 690 882
f 888 882 692
f 888 692 326
f 888 326 688
f 888 688 690
f 889 117 692
f 889 886 117
f 890 697 461
f 890 461 693
f 891 496 494
f 891 494 488
f 892 699 700
f 892 700 893
f 892 894 699
f 895 822 702
f 895 702 699
f 895 699 894
f 896 897 732
f 896 732 731
f 896 731 730
f 896 730 700
f 896 700 698
f 896 698 466
f 896 466 897
f 898 708 335
f 898 335 334
f 899 710 472
f 899 472 900
f 899 900 901
f 899 479 711
f 899 711 471
f 899 471 710
f 902 883 903
f 902 903 724
f 902 724 483
f 902 483 713
f 904 901 715
f 904 715 479
f 904 479 899
f 904 899 901
f 905 334 182
f 905 182 234
f 905 234 715
f 905 715 901
f 905 901 898
f 905 898 334
f 906 897 466
f 906 466 465
f 906 465 480
f 906 480 716
f 907 718 716
f 907 716 717
f 907 717 728
f 908 719 662
f 908 662 862
f 908 862 720
f 909 480 464
f 909 720 717
f 909 717 480
f 910 722 723
f 911 473 724
f 911 912 913
f 911 913 725
f 911 725 473
f 914 704 725
f 915 726 235
f 915 235 727
f 915 727 492
f 915 492 718
f 916 323 726
f 916 728 863
f 916 865 664
f 916 664 323
f 917 496 891
f 917 891 893
f 917 893 700
f 917 700 729
f 917 729 495
f 917 495 496
f 918 499 495
f 918 495 729
f 918 729 731
f 918 731 735
f 918 735 497
f 918 497 499
f 919 733 732
f 919 732 897
f 920 500 501
f 920 501 736
f 920 736 467
f 920 467 468
f 920 468 703
f 920 703 705
f 920 705 493
f 920 493 500
f 921 588 510
f 921 510 672
f 921 672 737
f 922 741 513
f 922 513 512
f 922 512 794
f 923 745 743
f 923 743 548
f 923 548 267
f 923 267 269
f 924 747 522
f 924 522 748
f 924 748 749
f 925 526 750
f 925 750 345
f 925 345 273
f 926 525 751
f 926 751 347
f 926 347 750
f 926 750 526
f 926 526 525
f 927 928 756
f 927 756 755
f 927 755 531
f 927 531 557
f 927 557 559
f 927 559 266
f 927 266 265
f 927 265 928
f 929 541 365
f 929 365 758
f 929 758 760
f 929 760 541
f 930 760 880
f 930 880 761
f 930 761 541
f 930 541 760
f 931 371 437
f 931 437 440
f 931 440 439
f 931 439 762
f 931 762 542
f 931 542 371
f 932 381 767
f 932 767 768
f 932 377 765
f 932 765 378
f 932 378 381
f 933 768 766
f 933 766 64
f 933 64 377
f 933 377 932
f 933 932 768
f 934 746 747
f 934 935 769
f 934 769 350
f 934 350 746
f 936 380 769
f 936 769 935
f 936 935 767
f 936 767 381
f 936 381 380
f 937 553 270
f 937 562 553
f 938 562 561
f 938 561 777
f 938 777 553
f 938 553 562
f 939 521 353
f 939 787 565
f 939 565 521
f 940 787 939
f 940 939 353
f 940 353 524
f 940 524 251
f 940 251 788
f 940 788 570
f 940 570 787
f 941 942 943
f 941 943 944
f 941 944 945
f 946 947 945
f 946 945 948
f 949 795 793
f 949 793 588
f 949 946 948
f 950 951 952
f 950 589 408
f 950 408 655
f 950 655 654
f 950 654 951
f 953 795 949
f 953 949 948
f 954 951 654
f 954 654 955
f 954 955 794
f 954 794 795
f 954 795 953
f 954 953 956
f 954 956 952
f 954 952 951
f 957 590 796
f 957 842 841
f 957 841 590
f 958 593 622
f 958 622 832
f 958 832 834
f 959 592 410
f 959 410 797
f 959 797 280
f 959 280 592
f 960 801 416
f 960 416 415
f 961 798 410
f 961 410 592
f 962 275 799
f 962 799 842
f 963 791 585
f 963 585 800
f 963 800 122
f 963 122 790
f 963 790 791
f 964 814 810
f 964 810 809
f 964 809 965
f 964 965 596
f 966 804 411
f 966 411 967
f 968 609 608
f 969 609 968
f 969 968 970
f 969 970 966
f 969 966 967
f 969 971 807
f 969 807 609
f 972 803 597
f 972 597 973
f 974 414 806
f 975 806 598
f 976 977 802
f 976 802 275
f 976 275 978
f 976 978 979
f 976 979 977
f 980 809 808
f 980 808 446
f 980 446 449
f 981 979 812
f 981 812 412
f 981 412 811
f 982 673 681
f 982 681 682
f 982 674 673
f 983 503 815
f 983 815 674
f 984 503 983
f 985 986 984
f 985 987 988
f 985 988 818
f 985 818 986
f 989 598 62
f 990 991 992
f 990 817 819
f 993 991 990
f 993 990 819
f 993 819 816
f 993 816 869
f 994 995 996
f 994 993 869
f 994 869 868
f 994 868 603
f 994 603 995
f 997 825 824
f 997 998 825
f 999 910 723
f 999 723 823
f 1000 998 823
f 1000 823 821
f 1000 821 822
f 1001 589 950
f 1001 607 826
f 1001 826 409
f 1001 409 407
f 1001 407 589
f 1002 829 831
f 1002 1003 621
f 1002 621 829
f 1004 614 827
f 1004 827 1003
f 1004 422 614
f 1005 1003 827
f 1005 827 619
f 1005 619 620
f 1005 620 621
f 1005 621 1003
f 1006 756 928
f 1006 928 265
f 1006 265 828
f 1006 828 829
f 1006 829 621
f 1007 833 832
f 1007 832 622
f 1007 622 428
f 1007 428 836
f 1007 836 835
f 1008 839 840
f 1008 840 842
f 1008 842 799
f 1008 799 594
f 1008 594 839
f 1009 626 843
f 1009 843 844
f 1009 833 626
f 1010 843 845
f 1010 848 625
f 1010 625 624
f 1011 301 430
f 1011 430 847
f 1011 847 627
f 1011 627 433
f 1011 433 301
f 1012 432 638
f 1012 638 849
f 1012 849 634
f 1012 431 432
f 1013 405 545
f 1013 763 851
f 1013 851 406
f 1013 406 405
f 1014 312 204
f 1014 204 441
f 1014 441 856
f 1014 856 398
f 1014 398 571
f 1014 571 312
f 1015 633 846
f 1015 846 651
f 1015 651 1016
f 1017 454 636
f 1017 506 508
f 1017 508 647
f 1017 647 454
f 1018 1016 651
f 1018 651 861
f 1018 861 506
f 1018 506 1017
f 1018 1017 1016
f 1019 864 665
f 1019 665 865
f 1019 865 916
f 1019 916 863
f 1019 863 862
f 1019 862 661
f 1019 661 663
f 1019 663 864
f 1020 872 677
f 1020 677 871
f 1020 871 1021
f 1020 1021 987
f 1022 816 818
f 1022 818 988
f 1022 988 987
f 1022 987 1021
f 1022 1021 871
f 1022 871 870
f 1022 870 869
f 1022 869 816
f 1023 883 902
f 1023 902 713
f 1023 713 714
f 1024 886 889
f 1024 887 886
f 1025 880 881
f 1025 881 687
f 1025 687 885
f 1025 885 761
f 1025 761 880
f 1026 1027 1028
f 1029 1030 487
f 1029 487 486
f 1031 689 691
f 1031 691 695
f 1031 695 1032
f 1031 1032 1029
f 1031 1029 1033
f 1031 1033 912
f 1031 912 689
f 1034 696 697
f 1034 697 1027
f 1034 1027 1026
f 1034 1026 1030
f 1034 1030 1029
f 1034 1029 1032
f 1034 1032 695
f 1034 695 696
f 1035 1027 697
f 1035 1028 1027
f 1036 1000 822
f 1037 1028 1035
f 1037 1035 1038
f 1037 895 894
f 1039 891 488
f 1039 488 487
f 1039 487 1030
f 1039 1030 1026
f 1039 1026 1028
f 1040 900 472
f 1040 472 474
f 1040 474 709
f 1040 709 706
f 1040 706 708
f 1040 708 898
f 1040 898 901
f 1040 901 900
f 1041 491 919
f 1041 919 897
f 1041 897 906
f 1041 906 716
f 1041 716 491
f 1042 719 908
f 1042 908 720
f 1042 720 1043
f 1044 1043 720
f 1044 720 909
f 1044 909 464
f 1044 464 463
f 1044 463 722
f 1045 903 883
f 1045 883 884
f 1045 884 689
f 1045 689 912
f 1045 912 911
f 1045 911 724
f 1045 724 903
f 1046 913 912
f 1046 912 1033
f 1046 1033 1029
f 1046 1029 486
f 1046 486 914
f 1046 914 725
f 1046 725 913
f 1047 488 494
f 1047 494 707
f 1047 707 704
f 1047 704 914
f 1047 914 486
f 1047 486 488
f 1048 718 907
f 1048 907 728
f 1048 728 916
f 1048 916 726
f 1048 726 915
f 1048 915 718
f 1049 733 919
f 1049 919 491
f 1049 491 490
f 1049 490 733
f 1050 502 504
f 1050 504 947
f 1050 947 946
f 1050 588 921
f 1050 921 737
f 1050 737 502
f 1051 955 654
f 1051 654 653
f 1051 653 741
f 1051 741 922
f 1051 922 794
f 1051 794 955
f 1052 924 749
f 1052 749 517
f 1052 517 519
f 1053 272 527
f 1053 925 273
f 1053 273 272
f 1054 752 526
f 1054 526 925
f 1054 925 1053
f 1054 1053 527
f 1054 527 252
f 1054 252 752
f 1055 562 937
f 1055 937 770
f 1055 770 558
f 1055 558 781
f 1055 781 562
f 1056 771 770
f 1056 770 937
f 1056 937 270
f 1056 270 771
f 1057 1058 943
f 1057 943 942
f 1059 941 945
f 1059 945 947
f 1059 947 504
f 1059 504 866
f 1060 946 949
f 1060 949 588
f 1060 588 1050
f 1060 1050 946
f 1061 944 943
f 1061 943 1058
f 1061 1058 1062
f 1061 1062 1063
f 1064 338 812
f 1064 812 979
f 1064 979 978
f 1064 957 796
f 1064 796 338
f 1065 842 957
f 1065 957 1064
f 1065 1064 978
f 1065 978 275
f 1065 275 962
f 1065 962 842
f 1066 594 798
f 1066 798 1067
f 1066 844 837
f 1068 592 593
f 1068 593 958
f 1068 958 834
f 1068 798 961
f 1068 961 592
f 1069 844 1066
f 1069 1066 1067
f 1069 1067 834
f 1069 834 833
f 1069 833 1009
f 1069 1009 844
f 1070 610 797
f 1070 960 415
f 1070 415 610
f 1071 411 596
f 1072 967 411
f 1072 411 1071
f 1072 1071 1073
f 1072 971 969
f 1072 969 967
f 1074 809 980
f 1074 980 449
f 1074 449 807
f 1074 807 971
f 1074 971 1072
f 1074 1072 1073
f 1074 1073 965
f 1074 965 809
f 1075 814 964
f 1075 964 596
f 1075 596 802
f 1075 802 977
f 1075 977 814
f 1076 805 804
f 1076 804 966
f 1076 966 970
f 1077 806 975
f 1077 1078 806
f 1079 814 977
f 1079 977 979
f 1079 979 981
f 1079 981 811
f 1079 811 814
f 1080 1081 983
f 1080 983 674
f 1080 674 982
f 1080 982 1081
f 1082 503 984
f 1082 984 986
f 1083 983 1081
f 1083 1081 987
f 1083 987 985
f 1083 985 984
f 1083 984 983
f 1084 62 803
f 1085 990 992
f 1086 991 993
f 1086 993 994
f 1086 994 996
f 1086 992 991
f 1087 605 820
f 1087 998 997
f 1087 997 824
f 1087 824 605
f 1088 952 1089
f 1088 1089 607
f 1088 607 1001
f 1088 1001 950
f 1088 950 952
f 1090 421 422
f 1090 422 1004
f 1090 1004 1003
f 1090 1003 1002
f 1090 1002 831
f 1090 831 421
f 1091 358 756
f 1091 756 1006
f 1091 1006 621
f 1091 621 358
f 1092 833 1007
f 1092 1007 835
f 1092 835 626
f 1092 626 833
f 1093 843 1010
f 1093 1010 624
f 1093 624 837
f 1093 837 843
f 1094 628 847
f 1094 848 1010
f 1094 1010 845
f 1094 845 628
f 1095 430 431
f 1095 431 1096
f 1095 1096 847
f 1095 847 430
f 1097 847 1096
f 1097 1096 637
f 1097 637 848
f 1097 848 1094
f 1097 1094 847
f 1098 631 637
f 1098 637 1096
f 1098 1096 431
f 1098 431 1012
f 1098 1012 634
f 1098 634 631
f 1099 544 762
f 1099 762 763
f 1099 763 1013
f 1099 1013 545
f 1099 545 544
f 1100 321 660
f 1100 660 633
f 1100 633 1015
f 1100 1015 1016
f 1100 636 321
f 1101 942 941
f 1102 982 682
f 1102 1081 982
f 1103 680 872
f 1103 872 1104
f 1103 1104 1102
f 1103 1102 682
f 1103 682 873
f 1103 873 224
f 1103 224 680
f 1105 1020 987
f 1105 987 1081
f 1105 1081 1102
f 1105 1102 1104
f 1105 1104 872
f 1105 872 1020
f 1106 1023 714
f 1106 1024 889
f 1106 889 692
f 1107 887 1024
f 1107 1024 1106
f 1107 1106 714
f 1107 714 475
f 1107 475 887
f 1108 1038 1035
f 1108 890 693
f 1108 693 1109
f 1110 825 1036
f 1110 1109 693
f 1110 693 228
f 1110 228 825
f 1111 998 1000
f 1111 1000 1036
f 1111 1036 825
f 1111 825 998
f 1112 822 895
f 1112 895 1037
f 1113 893 891
f 1113 891 1039
f 1113 1039 1028
f 1113 1028 1037
f 1113 1037 894
f 1113 894 892
f 1113 892 893
f 1114 910 999
f 1114 999 1115
f 1116 923 269
f 1117 745 923
f 1117 923 1116
f 1117 1116 1052
f 1117 1052 519
f 1117 519 745
f 1118 973 1057
f 1118 1057 942
f 1118 942 1101
f 1119 1062 1058
f 1119 1058 1057
f 1119 1057 805
f 1119 805 1076
f 1120 805 1057
f 1120 1057 973
f 1120 973 597
f 1120 597 805
f 1121 956 953
f 1121 1061 1063
f 1121 1089 952
f 1121 952 956
f 1122 608 607
f 1122 607 1089
f 1122 1089 1121
f 1122 1121 1063
f 1122 1063 1062
f 1122 1062 968
f 1122 968 608
f 1123 1101 941
f 1123 941 1059
f 1124 839 594
f 1124 594 1066
f 1124 1066 837
f 1124 837 839
f 1125 1067 798
f 1125 798 1068
f 1125 1068 834
f 1125 834 1067
f 1126 410 801
f 1126 801 960
f 1126 960 1070
f 1126 1070 797
f 1126 797 410
f 1127 965 1073
f 1127 1073 1071
f 1127 1071 596
f 1127 596 965
f 1128 503 1082
f 1128 866 503
f 1129 992 1086
f 1130 1087 820
f 1130 1115 999
f 1131 989 62
f 1131 62 1084
f 1131 1084 1132
f 1133 1132 1084
f 1133 1084 803
f 1133 803 972
f 1133 972 973
f 1134 1078 1077
f 1134 1077 975
f 1134 975 1135
f 1134 1135 1085
f 1134 1085 992
f 1134 992 1129
f 1134 1129 1078
f 1136 989 1137
f 1136 598 989
f 1138 598 1136
f 1138 1136 1137
f 1138 1085 1135
f 1138 1135 975
f 1138 975 598
f 1139 1085 1138
f 1139 1138 1137
f 1140 1017 636
f 1140 636 1100
f 1140 1100 1016
f 1140 1016 1017
f 1141 1142 1143
f 1141 1143 1128
f 1141 1128 1082
f 1144 1142 1137
f 1144 1137 989
f 1144 989 1131
f 1145 1023 1106
f 1145 1106 692
f 1145 692 882
f 1145 882 883
f 1145 883 1023
f 1146 697 890
f 1146 890 1108
f 1146 1108 1035
f 1146 1035 697
f 1147 822 1112
f 1147 1112 1037
f 1147 1037 1038
f 1147 1038 1108
f 1147 1108 1109
f 1147 1109 1110
f 1147 1110 1036
f 1147 1036 822
f 1148 602 719
f 1148 719 1149
f 1148 603 602
f 1150 1148 1149
f 1150 1151 1152
f 1153 1043 1044
f 1153 1044 722
f 1153 722 910
f 1153 910 1114
f 1153 1114 1151
f 1154 1042 1043
f 1154 1043 1153
f 1154 1153 1151
f 1154 1151 1150
f 1154 1150 1149
f 1154 1149 719
f 1154 719 1042
f 1155 1150 1152
f 1155 1152 1156
f 1155 996 995
f 1157 1115 1130
f 1157 1152 1151
f 1157 1151 1114
f 1157 1114 1115
f 1158 934 747
f 1159 1062 1119
f 1159 1119 1076
f 1159 1076 970
f 1159 970 968
f 1159 968 1062
f 1160 948 945
f 1160 945 944
f 1160 944 1061
f 1160 953 948
f 1161 414 974
f 1161 974 1162
f 1163 996 1155
f 1163 1129 1086
f 1163 1086 996
f 1164 998 1087
f 1164 1087 1130
f 1164 1130 999
f 1164 999 823
f 1164 823 998
f 1165 1118 1101
f 1165 1101 1166
f 1165 1166 1132
f 1165 1132 1133
f 1165 1133 973
f 1165 973 1118
f 1167 1085 1139
f 1167 1139 1137
f 1167 817 990
f 1167 990 1085
f 1168 1142 1144
f 1168 1166 1143
f 1168 1143 1142
f 1169 1123 1059
f 1169 1059 866
f 1169 866 1128
f 1169 1128 1143
f 1169 1143 1166
f 1169 1166 1101
f 1169 1101 1123
f 1170 1142 1141
f 1170 1141 1082
f 1170 1082 986
f 1170 986 818
f 1170 818 817
f 1170 817 1167
f 1171 1148 1150
f 1171 1150 1155
f 1171 1155 995
f 1171 995 603
f 1171 603 1148
f 1172 935 934
f 1172 934 1158
f 1172 1158 1116
f 1172 1116 269
f 1172 269 375
f 1172 375 767
f 1172 767 935
f 1173 924 1052
f 1173 1052 1116
f 1173 1116 1158
f 1173 1158 747
f 1173 747 924
f 1174 1121 953
f 1174 953 1160
f 1174 1160 1061
f 1174 1061 1121
f 1175 414 1161
f 1175 820 414
f 1176 1156 1161
f 1176 1161 1162
f 1176 1163 1155
f 1176 1155 1156
f 1177 1078 1129
f 1177 1129 1163
f 1177 1163 1176
f 1177 1176 1162
f 1177 1162 974
f 1177 974 806
f 1177 806 1078
f 1178 1142 1170
f 1178 1170 1167
f 1178 1167 1137
f 1178 1137 1142
f 1179 1132 1166
f 1179 1166 1168
f 1179 1168 1144
f 1179 1144 1131
f 1179 1131 1132
f 1180 1156 1152
f 1180 1152 1157
f 1180 1157 1130
f 1180 1130 820
f 1180 820 1175
f 1180 1175 1161
f 1180 1161 1156
