# Convex hull collision mesh — generated by scripts/generate-collision-meshes.mjs
v -2.241627 -58.366474 -0.051129
v -2.241627 3.633525 -0.051129
v 14.118373 -0.521176 -0.051129
v -4.741627 3.633525 14.948871
v -2.241627 -58.366474 14.948871
v 14.118373 1.788226 14.948871
v 12.758373 -58.366474 14.948871
v 12.758373 3.633525 -0.051129
v -12.166410 -0.034038 9.948871
v -12.241627 0.633525 9.948871
v -12.241627 0.633525 4.948871
v -1.266410 -73.696030 9.948871
v -4.741627 -2.366475 14.948871
v 12.758373 -58.366474 -0.051129
v 1.658373 -76.028465 4.948871
v 12.758373 3.633525 14.948871
v -4.741627 -2.366475 -0.051129
v -12.166410 -0.034038 4.948871
v -5.191627 0.463108 14.690553
v 14.118373 2.942926 1.948871
v -4.741627 3.633525 -0.051129
v 8.658374 -67.028465 11.448871
v 1.658373 -76.028465 9.948871
v -1.266410 -73.696030 4.948871
v -1.044533 -74.330116 4.948871
v 14.118373 2.942926 12.948871
v 14.118373 -0.521176 14.948871
v 14.685683 0.616517 13.948726
v 14.808373 0.463422 13.591747
v 14.808373 -0.027894 13.017788
v 14.808373 0.397713 1.327085
v 14.808373 -0.031475 1.948871
v 14.685683 0.512988 0.956162
v -5.191627 0.283525 0.234228
v -9.241627 3.633525 9.948871
v -12.166410 1.301088 9.948871
v -11.944533 1.935176 9.948871
v -11.587121 2.503994 9.948871
v 8.658374 -67.028465 3.448871
v 4.003868 -74.898933 4.948871
v 4.361280 -74.330116 9.948871
v 0.356722 -75.731377 4.948871
v -0.212096 -75.373962 9.948871
v -0.212096 -75.373962 4.948871
v 14.808373 1.279201 2.108016
v 14.808373 0.079895 13.317271
v 14.685683 0.856293 13.923742
v 14.808373 0.135765 1.507894
v 14.118373 1.788226 -0.051129
v -5.191627 0.983525 0.234228
v -11.944533 1.935176 4.948871
v -9.909189 3.558309 9.948871
v -10.543278 3.336432 9.948871
v -10.543278 3.336432 4.948871
v -9.241627 3.633525 4.948871
v -11.112096 2.979019 9.948871
v 2.325936 -75.953247 4.948871
v 2.960025 -75.731377 4.948871
v 3.528843 -75.373962 4.948871
v 3.528843 -75.373962 9.948871
v 2.960025 -75.731377 9.948871
v 4.003868 -74.898933 9.948871
v 4.361280 -74.330116 4.948871
v -1.044533 -74.330116 9.948871
v -0.687121 -74.898933 4.948871
v 0.990811 -75.953247 9.948871
v 14.808373 1.251210 13.195224
v 14.685683 1.633525 1.948871
v 14.808373 0.007819 13.174073
v 14.808373 0.184147 13.439058
v 14.808373 -0.012151 1.789726
v 14.808373 0.255762 1.401586
v 14.808373 1.131285 1.507894
v -11.587121 2.503994 4.948871
v -12.166410 1.301088 4.948871
v -9.909189 3.558309 4.948871
v 2.325936 -75.953247 9.948871
v -0.687121 -74.898933 9.948871
v 0.990811 -75.953247 4.948871
v 0.356722 -75.731377 9.948871
v 14.685683 1.446728 13.530850
v 14.808373 0.622215 13.613774
v 14.808373 1.298525 1.948871
v 14.685683 1.628140 12.845235
v 14.808373 0.314514 13.532357
v 14.808373 0.044697 1.639830
v 14.808373 0.713682 1.288719
v 14.685683 1.518981 1.484147
v 14.685683 1.382036 1.285748
v -11.112096 2.979019 4.948871
v 14.685683 1.283821 13.708551
v 14.808373 1.294944 12.879953
v 14.685683 1.624040 13.086273
v 14.685683 0.754062 0.956162
v 14.808373 0.553368 1.288719
v 14.808373 1.222353 1.639830
v 14.685683 1.604467 1.709555
v 14.808373 0.932507 13.542870
v 14.685683 1.562375 13.319326
v 14.808373 1.292218 13.040243
v 14.685683 1.201590 1.125887
v 14.808373 1.279201 1.789726
v 14.808373 0.781666 13.597160
v 14.685683 1.083121 13.842102
v 14.808373 1.065972 13.454059
v 14.808373 0.869337 1.327085
v 14.808373 1.174305 13.335887
v 14.685683 0.988130 1.013854
v 14.808373 1.011288 1.401586
f 1 2 3
f 4 5 6
f 7 6 5
f 8 3 2
f 8 2 4
f 9 10 11
f 9 5 10
f 12 5 9
f 13 5 4
f 13 10 5
f 14 15 1
f 14 1 3
f 16 8 4
f 16 4 6
f 17 1 11
f 17 2 1
f 18 11 1
f 18 12 9
f 18 9 11
f 19 10 13
f 19 13 4
f 19 4 10
f 20 8 16
f 21 2 17
f 21 4 2
f 22 14 7
f 23 7 5
f 24 1 25
f 24 25 12
f 24 12 18
f 24 18 1
f 26 20 16
f 26 16 6
f 27 7 28
f 27 28 6
f 27 6 7
f 29 30 31
f 32 31 30
f 32 30 7
f 32 7 14
f 33 14 3
f 34 21 17
f 34 17 11
f 35 4 21
f 36 4 37
f 36 11 10
f 36 10 4
f 38 37 4
f 39 40 14
f 39 14 22
f 41 39 22
f 42 43 44
f 42 44 1
f 45 29 31
f 46 30 29
f 47 6 28
f 48 31 32
f 49 8 20
f 49 33 3
f 49 3 8
f 50 21 34
f 50 34 11
f 50 11 21
f 51 36 37
f 51 37 38
f 52 53 4
f 52 4 35
f 52 54 53
f 55 52 35
f 55 35 21
f 56 38 4
f 56 4 53
f 56 53 54
f 57 14 58
f 57 23 15
f 57 15 14
f 59 40 60
f 59 60 58
f 59 58 14
f 59 14 40
f 61 57 58
f 61 58 60
f 61 60 7
f 62 40 41
f 62 41 22
f 62 22 7
f 62 7 60
f 62 60 40
f 63 39 41
f 63 41 40
f 63 40 39
f 64 5 12
f 64 12 25
f 65 44 43
f 65 64 25
f 65 25 1
f 65 1 44
f 66 23 5
f 66 15 23
f 67 29 45
f 68 20 26
f 69 30 46
f 69 46 7
f 69 7 30
f 70 7 46
f 70 46 29
f 71 48 32
f 71 32 14
f 72 31 48
f 72 48 14
f 72 14 31
f 73 45 31
f 74 21 51
f 74 51 38
f 74 38 56
f 75 36 51
f 75 51 21
f 75 21 11
f 75 11 36
f 76 52 55
f 76 55 21
f 76 21 54
f 76 54 52
f 77 57 61
f 77 61 7
f 77 7 23
f 77 23 57
f 78 64 65
f 78 65 43
f 78 43 5
f 78 5 64
f 79 15 66
f 79 66 42
f 79 42 1
f 79 1 15
f 80 43 42
f 80 42 66
f 80 66 5
f 80 5 43
f 81 26 6
f 82 29 67
f 82 28 7
f 82 7 29
f 83 45 73
f 83 67 45
f 84 68 26
f 85 7 70
f 85 70 29
f 85 29 7
f 86 48 71
f 86 71 14
f 86 14 48
f 87 73 31
f 88 73 89
f 88 89 49
f 88 49 20
f 90 21 74
f 90 74 56
f 90 56 54
f 90 54 21
f 91 81 6
f 92 83 68
f 92 68 84
f 92 67 83
f 93 92 84
f 93 84 26
f 94 87 33
f 94 33 49
f 95 14 33
f 95 33 87
f 95 87 31
f 95 31 14
f 96 73 88
f 96 83 73
f 97 88 20
f 97 20 68
f 98 82 67
f 99 81 67
f 99 67 93
f 99 93 26
f 99 26 81
f 100 92 93
f 100 93 67
f 100 67 92
f 101 89 73
f 101 49 89
f 102 96 88
f 102 88 97
f 102 97 68
f 102 68 83
f 102 83 96
f 103 82 98
f 103 47 28
f 103 28 82
f 104 47 103
f 104 103 98
f 104 91 6
f 104 6 47
f 105 91 104
f 105 104 98
f 105 98 67
f 105 81 91
f 106 73 87
f 107 81 105
f 107 105 67
f 107 67 81
f 108 94 49
f 108 49 101
f 108 101 106
f 108 106 87
f 108 87 94
f 109 73 106
f 109 106 101
f 109 101 73
