# Convex hull collision mesh — generated by scripts/generate-collision-meshes.mjs
v 16.500000 0.000000 0.000000
v 0.000000 0.000000 16.500000
v 0.000000 0.000000 -16.500000
v 11.667262 0.000000 -11.667262
v -16.500000 0.000000 0.000000
v 11.026402 36.248947 -3.639045
v 4.924039 49.500000 -0.868241
v 12.463555 34.000000 -0.953827
v 12.754672 0.000000 10.467489
v -11.667262 0.000000 -11.667262
v 4.480804 50.000000 -0.415208
v -4.028235 50.000000 -2.005823
v 0.000000 50.000000 4.500000
v 4.480804 50.000000 0.415208
v 15.789515 0.000000 4.789697
v 6.314277 0.000000 -15.244012
v 16.420547 0.000000 -1.617283
v 16.500000 1.472195 -0.000000
v -4.789697 0.000000 15.789515
v 3.031630 50.000000 3.325540
v 5.000000 49.500000 -0.000000
v 3.639045 36.248947 11.026402
v 3.639045 35.147221 11.547365
v 9.639046 34.000000 7.958568
v 4.789697 0.000000 15.789515
v 3.639045 34.000000 11.958568
v 7.776252 1.559351 14.548345
v 7.770885 1.645843 14.538302
v 11.667262 1.472195 11.667262
v 12.754672 1.472195 10.467489
v 12.751731 1.559351 10.465075
v 9.166909 0.000000 13.719249
v 13.719249 1.472195 9.166909
v 15.244012 0.000000 6.314277
v 15.789515 1.472195 4.789697
v 6.971054 34.000000 -10.375665
v 7.958568 34.000000 -9.639046
v 10.465075 1.559351 -12.751731
v 9.164795 1.559351 -13.716084
v 5.915823 34.000000 -11.011496
v 3.218990 0.000000 -16.182957
v 10.467489 0.000000 -12.754672
v 12.754672 0.000000 -10.467489
v 13.719249 0.000000 -9.166909
v -6.314277 0.000000 -15.244012
v -15.244012 0.000000 -6.314277
v -11.137964 34.000000 -5.674130
v -15.240497 1.559351 -6.312820
v -11.691380 34.000000 -4.422855
v -10.467489 0.000000 -12.754672
v -11.667262 1.472195 -11.667262
v 0.826873 50.000000 -4.423379
v 0.868241 49.500000 4.924039
v 0.000000 49.500000 5.000000
v 0.953827 34.000000 12.463555
v -3.218990 1.472195 16.182957
v -4.789697 1.472195 15.789515
v -4.788592 1.559351 15.785874
v 4.028235 50.000000 2.005823
v 1.625587 50.000000 4.196125
v 3.213938 49.500000 3.830222
v 3.830222 49.500000 3.213938
v 2.500000 49.500000 4.330127
v 12.493140 34.000000 0.414049
v 12.373052 34.000000 1.776965
v 16.416761 1.559351 1.616910
v 4.788592 1.559351 15.785874
v 3.218248 1.559351 16.179224
v 3.218990 0.000000 16.182957
v 0.000000 1.559351 16.496195
v 1.616910 1.559351 16.416761
v 2.310275 34.000000 12.284650
v 9.158468 1.645843 13.706616
v 11.664571 1.559351 11.664571
v 10.465075 1.559351 12.751731
v 6.314277 0.000000 15.244012
v 11.667262 0.000000 11.667262
v 10.451110 34.000000 6.857427
v 14.548345 1.559351 7.776252
v 11.137964 34.000000 5.674130
v 16.182957 0.000000 3.218990
v 14.551701 0.000000 7.778046
v 7.778046 0.000000 -14.551701
v 7.776252 1.559351 -14.548345
v 4.789697 1.472195 -15.789515
v 4.788592 1.559351 -15.785874
v 6.312820 1.559351 -15.240497
v 3.643775 34.000000 -11.957128
v 10.467489 1.472195 -12.754672
v 12.284650 34.000000 -2.310275
v 16.416761 1.559351 -1.616910
v 11.547365 35.147221 -3.639045
v 11.958568 34.000000 -3.639045
v -16.420547 1.472195 -1.617283
v -16.500000 1.472195 -0.000000
v -15.785874 1.559351 -4.788592
v -16.182957 0.000000 -3.218990
v -4.698463 49.500000 -1.710101
v -14.548345 1.559351 -7.776252
v -12.751731 1.559351 -10.465075
v -13.716084 1.559351 -9.164795
v -9.639046 34.000000 -7.958568
v -14.551701 0.000000 -7.778046
v -10.451110 34.000000 -6.857427
v -3.639045 34.000000 -11.958568
v -3.639045 35.147221 -11.547365
v -2.445795 34.000000 -12.258389
v -9.158468 1.645843 -13.706616
v -13.719249 0.000000 9.166909
v -4.028235 50.000000 2.005823
v 3.591078 50.000000 -2.711856
v -1.625587 50.000000 -4.196125
v 1.710101 49.500000 4.698463
v -3.218248 1.559351 16.179224
v -1.616910 1.559351 16.416761
v -1.776965 34.000000 12.373052
v -1.617283 1.472195 16.420547
v -3.218990 0.000000 16.182957
v 3.591078 50.000000 2.711856
v 0.826873 50.000000 4.423379
v 2.368945 50.000000 3.825977
v 16.496195 1.559351 0.000000
v 4.789697 1.472195 15.789515
v 1.617283 0.000000 16.420547
v 1.617283 1.472195 16.420547
v 9.164795 1.559351 13.716084
v 9.166909 1.472195 13.719249
v 10.457851 1.645843 12.742929
v 7.778046 0.000000 14.551701
v 6.312820 1.559351 15.240497
v 10.467489 1.472195 12.754672
v 13.716084 1.559351 9.164795
v 16.420547 0.000000 1.617283
v 16.179224 1.559351 3.218248
v 12.104726 34.000000 3.118591
v 15.785874 1.559351 4.788592
v 15.244012 1.472195 6.314277
v 13.719249 0.000000 9.166909
v 9.166909 0.000000 -13.719249
v 6.314277 1.472195 -15.244012
v 4.789697 0.000000 -15.789515
v 3.218990 1.472195 -16.182957
v 3.218248 1.559351 -16.179224
v 1.617283 1.472195 -16.420547
v 1.616910 1.559351 -16.416761
v 2.449028 34.000000 -12.257743
v 0.868241 49.500000 -4.924039
v 4.803128 34.000000 -11.540362
v 15.244012 0.000000 -6.314277
v 13.706616 1.645843 -9.158468
v 11.664571 1.559351 -11.664571
v 12.751731 1.559351 -10.465075
v 12.754672 1.472195 -10.467489
v -3.218990 0.000000 -16.182957
v 0.000000 34.000000 -12.500000
v 0.000000 1.559351 -16.496195
v -1.616910 1.559351 -16.416761
v 1.617283 0.000000 -16.420547
v 0.000000 1.472195 -16.500000
v -15.789515 1.472195 -4.789697
v -16.420547 0.000000 -1.617283
v -3.830222 49.500000 -3.213938
v -11.664571 1.559351 -11.664571
v -10.465075 1.559351 -12.751731
v -12.754672 0.000000 -10.467489
v -14.551701 1.472195 -7.778046
v -10.467489 1.472195 -12.754672
v -10.457851 1.645843 -12.742929
v -6.314277 1.472195 -15.244012
v -7.778046 1.472195 -14.551701
v -6.312820 1.559351 -15.240497
v -4.789697 1.472195 -15.789515
v -9.166909 0.000000 -13.719249
v -7.776252 1.559351 -14.548345
v -4.788592 1.559351 -15.785874
v -0.868241 49.500000 4.924039
v -0.414049 34.000000 12.493140
v -15.789515 0.000000 4.789697
v -4.480804 50.000000 0.415208
v -3.213938 49.500000 3.830222
v -3.830222 49.500000 3.213938
v -7.958568 34.000000 9.639046
v -2.368945 50.000000 3.825977
v -2.500000 49.500000 4.330127
v -16.179224 1.559351 3.218248
v -11.958568 34.000000 3.639045
v -12.284650 34.000000 2.310275
v -16.416761 1.559351 1.616910
v -16.182957 1.472195 3.218990
v -3.213938 49.500000 -3.830222
v -1.710101 49.500000 -4.698463
v -2.500000 49.500000 -4.330127
v 0.000000 50.000000 -4.500000
v 0.000000 49.500000 -5.000000
v -0.868241 49.500000 -4.924039
v -1.617283 0.000000 16.420547
v 4.330127 49.500000 2.500000
v 4.698463 49.500000 1.710101
v 4.924039 49.500000 0.868241
v 4.328216 50.000000 1.231483
v 11.691380 34.000000 4.422855
v 3.218990 1.472195 16.182957
v 0.000000 1.472195 16.500000
v 6.314277 1.472195 15.244012
v 10.467489 0.000000 12.754672
v 16.420547 1.472195 1.617283
v 16.182957 1.472195 3.218990
v 15.240497 1.559351 6.312820
v 14.551701 1.472195 7.778046
v 7.778046 1.472195 -14.551701
v 1.230490 34.000000 -12.439288
v 16.179224 1.559351 -3.218248
v 16.182957 1.472195 -3.218990
v 15.785874 1.559351 -4.788592
v 16.420547 1.472195 -1.617283
v 15.789515 0.000000 -4.789697
v 13.719249 1.472195 -9.166909
v 12.742929 1.645843 -10.457851
v 11.667262 1.472195 -11.667262
v -1.617283 0.000000 -16.420547
v -4.789697 0.000000 -15.789515
v -1.228850 34.000000 -12.439450
v -16.496195 1.559351 0.000000
v -15.244012 1.472195 -6.314277
v -15.789515 0.000000 -4.789697
v -16.182957 1.472195 -3.218990
v -16.179224 1.559351 -3.218248
v -4.330127 49.500000 -2.500000
v -12.754672 1.472195 -10.467489
v -13.719249 0.000000 -9.166909
v -13.719249 1.472195 -9.166909
v -9.166909 1.472195 -13.719249
v -7.778046 0.000000 -14.551701
v -7.770885 1.645843 -14.538302
v -3.218248 1.559351 -16.179224
v -3.118591 34.000000 12.104726
v -4.422855 34.000000 11.691380
v -6.314277 1.472195 15.244012
v -9.166909 0.000000 13.719249
v -16.182957 0.000000 3.218990
v -16.420547 1.472195 1.617283
v -4.328216 50.000000 -1.231483
v -6.857427 34.000000 10.451110
v -5.674130 34.000000 11.137964
v -3.591078 50.000000 2.711856
v -1.625587 50.000000 4.196125
v -4.330127 49.500000 2.500000
v -15.244012 0.000000 6.314277
v -15.240497 1.559351 6.312820
v -14.548345 1.559351 7.776252
v -14.538302 1.645843 7.770885
v 4.028235 50.000000 -2.005823
v 4.330127 49.500000 -2.500000
v 3.830222 49.500000 -3.213938
v -3.031630 50.000000 -3.325540
v -3.639045 36.248947 -11.026402
v -0.826873 50.000000 -4.423379
v 7.778046 1.472195 14.551701
v 9.166909 1.472195 -13.719249
v 15.789515 1.472195 -4.789697
v 16.182957 0.000000 -3.218990
v 15.240497 1.559351 -6.312820
v 14.548345 1.559351 -7.776252
v 14.551701 0.000000 -7.778046
v 14.538302 1.645843 -7.770885
v 13.716084 1.559351 -9.164795
v -1.617283 1.472195 -16.420547
v -12.104726 34.000000 -3.118591
v -12.373052 34.000000 -1.776965
v -16.416761 1.559351 -1.616910
v -12.493140 34.000000 -0.414049
v -9.164795 1.559351 -13.716084
v -7.776252 1.559351 14.548345
v -6.312820 1.559351 15.240497
v -12.751731 1.559351 10.465075
v -11.664571 1.559351 11.664571
v -6.314277 0.000000 15.244012
v -12.754672 0.000000 10.467489
v -16.420547 0.000000 1.617283
v -4.924039 49.500000 0.868241
v -5.000000 49.500000 0.000000
v -12.463555 34.000000 0.953827
v -4.924039 49.500000 -0.868241
v -9.164795 1.559351 13.716084
v -9.166909 1.472195 13.719249
v -3.031630 50.000000 3.325540
v -1.710101 49.500000 4.698463
v -0.826873 50.000000 4.423379
v -14.551701 0.000000 7.778046
v -15.789515 1.472195 4.789697
v 4.328216 50.000000 -1.231483
v 3.213938 49.500000 -3.830222
v -2.368945 50.000000 -3.825977
v -3.591078 50.000000 -2.711856
v 14.551701 1.472195 -7.778046
v -3.218990 1.472195 -16.182957
v -7.778046 1.472195 14.551701
v -12.742929 1.645843 10.457851
v -13.716084 1.559351 9.164795
v -10.467489 0.000000 12.754672
v -10.465075 1.559351 12.751731
v -12.754672 1.472195 10.467489
v -4.698463 49.500000 1.710101
v -4.480804 50.000000 -0.415208
v -14.551701 1.472195 7.778046
v -15.244012 1.472195 6.314277
v -15.785874 1.559351 4.788592
v 4.698463 49.500000 -1.710101
v 2.500000 49.500000 -4.330127
v 15.244012 1.472195 -6.314277
v -7.778046 0.000000 14.551701
v -13.706616 1.645843 9.158468
v -11.667262 0.000000 11.667262
v -13.719249 1.472195 9.166909
v -11.026402 36.248947 3.639045
v -4.328216 50.000000 1.231483
v 1.710101 49.500000 -4.698463
v 2.368945 50.000000 -3.825977
v -10.467489 1.472195 12.754672
v -11.547365 35.147221 3.639045
v 3.031630 50.000000 -3.325540
v 1.625587 50.000000 -4.196125
v -11.667262 1.472195 11.667262
f 1 2 3
f 4 1 3
f 5 3 2
f 6 7 8
f 9 2 1
f 10 3 5
f 11 12 13
f 14 11 13
f 15 9 1
f 16 4 3
f 17 1 4
f 17 18 1
f 19 5 2
f 20 14 13
f 21 11 14
f 21 8 7
f 21 7 11
f 22 23 24
f 25 2 9
f 26 27 28
f 26 24 23
f 29 30 31
f 29 9 30
f 32 25 9
f 33 31 30
f 33 30 9
f 34 9 15
f 34 15 35
f 36 37 38
f 36 38 39
f 36 39 40
f 41 16 3
f 42 4 16
f 43 17 4
f 44 17 43
f 45 3 10
f 46 10 5
f 47 48 49
f 50 45 10
f 50 10 51
f 52 12 11
f 53 54 55
f 53 55 22
f 53 13 54
f 56 57 19
f 56 58 57
f 59 14 20
f 60 20 13
f 61 62 20
f 61 63 22
f 61 22 24
f 61 24 62
f 64 8 21
f 64 65 66
f 67 26 68
f 69 2 25
f 70 71 55
f 72 55 71
f 72 71 68
f 72 68 26
f 72 26 23
f 72 23 22
f 72 22 55
f 73 24 26
f 73 26 28
f 74 24 75
f 74 75 29
f 74 29 31
f 74 31 24
f 76 25 32
f 77 32 9
f 77 9 29
f 78 79 80
f 78 62 24
f 81 15 1
f 81 35 15
f 82 9 34
f 83 42 16
f 84 40 39
f 85 86 87
f 88 87 86
f 89 4 42
f 90 6 8
f 90 8 91
f 92 6 90
f 92 90 93
f 92 93 37
f 92 37 6
f 94 5 95
f 96 49 48
f 97 46 5
f 98 47 49
f 99 48 47
f 100 101 102
f 103 10 46
f 104 102 101
f 104 101 99
f 104 99 47
f 105 106 107
f 105 108 102
f 105 102 106
f 109 5 19
f 110 13 12
f 111 52 11
f 112 12 52
f 113 63 60
f 113 53 22
f 113 22 63
f 114 115 116
f 114 58 56
f 114 56 115
f 117 115 56
f 118 117 56
f 118 56 19
f 118 19 2
f 119 59 20
f 119 20 62
f 120 53 113
f 120 113 60
f 120 60 13
f 120 13 53
f 121 20 60
f 121 60 63
f 121 63 61
f 121 61 20
f 122 18 91
f 122 91 8
f 122 8 64
f 122 64 66
f 122 66 18
f 123 69 25
f 123 25 76
f 124 2 69
f 125 2 124
f 125 124 69
f 126 27 127
f 126 127 75
f 126 73 28
f 126 28 27
f 128 24 73
f 128 73 126
f 128 126 75
f 128 75 24
f 129 76 32
f 129 32 127
f 130 67 123
f 130 27 26
f 130 26 67
f 131 75 127
f 131 127 32
f 131 77 29
f 131 29 75
f 132 31 33
f 132 33 79
f 132 79 78
f 132 78 24
f 132 24 31
f 133 81 1
f 133 1 18
f 134 66 65
f 134 65 135
f 134 135 136
f 137 34 35
f 137 82 34
f 138 9 82
f 138 82 33
f 138 33 9
f 139 42 83
f 139 89 42
f 140 16 85
f 140 85 87
f 140 83 16
f 141 41 85
f 141 85 16
f 141 16 41
f 142 143 86
f 142 86 85
f 142 85 41
f 142 41 144
f 142 144 145
f 142 145 143
f 146 147 88
f 146 88 86
f 146 86 143
f 148 40 84
f 148 84 87
f 148 87 88
f 149 17 44
f 150 37 93
f 151 37 152
f 151 38 37
f 153 43 4
f 153 44 43
f 154 3 45
f 155 145 156
f 155 156 157
f 158 3 144
f 158 144 41
f 158 41 3
f 159 156 145
f 159 145 144
f 159 144 3
f 159 157 156
f 160 96 48
f 161 94 97
f 161 97 5
f 161 5 94
f 162 102 104
f 163 51 100
f 163 100 102
f 163 102 164
f 163 164 51
f 165 10 103
f 165 51 10
f 166 48 99
f 166 103 46
f 167 50 51
f 167 51 164
f 168 164 102
f 168 102 108
f 169 45 170
f 169 170 171
f 169 171 172
f 169 172 45
f 173 50 167
f 173 45 50
f 174 105 171
f 174 171 170
f 175 172 171
f 175 171 105
f 175 105 107
f 176 54 13
f 177 70 55
f 177 55 54
f 177 54 176
f 177 176 116
f 177 116 115
f 177 115 70
f 178 5 109
f 179 110 12
f 180 181 182
f 183 180 184
f 183 13 110
f 185 186 187
f 185 187 188
f 185 188 189
f 190 102 162
f 191 192 112
f 193 52 147
f 193 147 194
f 193 194 195
f 193 112 52
f 196 117 118
f 196 118 2
f 196 2 117
f 197 62 78
f 197 78 80
f 197 80 198
f 197 198 59
f 197 59 119
f 197 119 62
f 199 65 64
f 199 64 21
f 199 21 14
f 199 198 135
f 199 135 65
f 200 59 198
f 200 198 199
f 200 199 14
f 200 14 59
f 201 135 198
f 201 198 80
f 201 136 135
f 202 68 71
f 202 71 125
f 202 125 69
f 202 69 123
f 202 123 67
f 202 67 68
f 203 70 115
f 203 115 117
f 203 117 2
f 203 2 125
f 203 125 71
f 203 71 70
f 204 76 129
f 204 130 123
f 204 123 76
f 205 77 131
f 205 131 32
f 205 32 77
f 206 81 133
f 206 133 18
f 206 18 66
f 207 35 81
f 207 81 206
f 207 206 66
f 207 66 134
f 207 134 136
f 207 136 35
f 208 136 201
f 208 201 80
f 208 80 79
f 208 137 35
f 208 35 136
f 209 82 137
f 209 137 208
f 209 208 79
f 209 79 33
f 209 33 82
f 210 139 83
f 210 83 140
f 210 140 87
f 210 87 84
f 211 145 155
f 211 155 194
f 211 194 147
f 211 147 146
f 211 146 143
f 211 143 145
f 212 93 90
f 212 90 91
f 212 91 213
f 212 213 214
f 212 214 93
f 215 17 213
f 215 213 91
f 215 91 18
f 215 18 17
f 216 17 149
f 217 44 153
f 217 153 152
f 218 37 150
f 218 152 37
f 219 151 152
f 219 152 153
f 219 153 4
f 219 4 89
f 219 89 38
f 219 38 151
f 220 3 154
f 220 159 3
f 221 172 154
f 221 154 45
f 221 45 172
f 222 107 106
f 222 195 194
f 222 194 155
f 222 155 157
f 223 95 188
f 224 46 160
f 224 160 48
f 224 48 166
f 224 166 46
f 225 97 160
f 225 160 46
f 225 46 97
f 226 227 96
f 226 96 160
f 226 160 97
f 226 97 94
f 228 47 98
f 228 98 12
f 228 162 104
f 228 104 47
f 229 100 51
f 229 51 165
f 230 103 166
f 230 229 165
f 230 165 103
f 231 101 100
f 231 100 229
f 231 229 230
f 231 230 166
f 231 166 99
f 231 99 101
f 232 174 170
f 232 170 173
f 232 173 167
f 232 167 164
f 233 45 173
f 233 173 170
f 233 170 45
f 234 105 174
f 234 108 105
f 235 175 107
f 235 107 222
f 235 222 157
f 236 116 176
f 236 237 58
f 236 58 114
f 236 114 116
f 238 19 57
f 239 109 19
f 240 5 178
f 240 178 189
f 241 240 189
f 241 189 188
f 241 188 95
f 241 95 5
f 242 179 12
f 242 12 98
f 243 244 184
f 243 184 180
f 243 180 182
f 245 183 110
f 246 13 183
f 246 183 184
f 247 181 245
f 247 245 110
f 248 178 109
f 249 250 186
f 251 186 250
f 252 253 111
f 252 111 11
f 254 111 253
f 254 253 6
f 254 6 37
f 255 12 112
f 255 190 162
f 256 106 102
f 256 102 190
f 256 190 192
f 256 192 191
f 256 191 195
f 256 195 222
f 256 222 106
f 257 112 193
f 257 193 195
f 257 195 191
f 257 191 112
f 258 27 130
f 258 130 204
f 258 204 129
f 258 129 127
f 258 127 27
f 259 39 38
f 259 38 89
f 259 89 139
f 259 139 210
f 259 210 84
f 259 84 39
f 260 214 213
f 260 213 216
f 260 216 149
f 261 17 216
f 261 216 213
f 261 213 17
f 262 263 93
f 262 93 214
f 262 214 260
f 264 44 217
f 264 149 44
f 265 93 263
f 265 150 93
f 266 150 265
f 266 265 263
f 266 263 217
f 266 217 152
f 266 152 218
f 266 218 150
f 267 157 159
f 267 159 220
f 267 220 154
f 268 96 227
f 268 227 269
f 268 98 49
f 268 49 96
f 270 94 95
f 270 95 223
f 270 223 271
f 270 271 269
f 270 269 227
f 270 227 226
f 270 226 94
f 272 174 232
f 272 232 164
f 272 164 168
f 272 168 108
f 272 108 234
f 272 234 174
f 273 244 243
f 274 237 244
f 274 244 273
f 274 238 57
f 274 57 58
f 274 58 237
f 275 276 182
f 277 239 19
f 277 19 238
f 278 109 239
f 279 240 241
f 279 241 5
f 279 5 240
f 280 179 281
f 282 280 281
f 282 281 271
f 282 271 223
f 282 223 188
f 282 188 187
f 283 242 98
f 283 98 268
f 283 268 269
f 283 269 271
f 283 271 281
f 284 285 273
f 284 273 243
f 284 243 182
f 286 180 183
f 286 183 245
f 286 245 181
f 286 181 180
f 287 246 184
f 287 184 244
f 287 244 237
f 287 237 236
f 287 236 176
f 288 13 246
f 288 246 287
f 288 287 176
f 288 176 13
f 289 248 109
f 290 178 248
f 290 189 178
f 291 252 11
f 291 11 7
f 292 254 37
f 292 37 36
f 293 192 190
f 293 190 255
f 293 255 112
f 293 112 192
f 294 12 255
f 294 255 162
f 294 162 228
f 294 228 12
f 295 263 262
f 295 149 264
f 295 264 217
f 295 217 263
f 296 235 157
f 296 157 267
f 296 267 154
f 296 154 172
f 296 172 175
f 296 175 235
f 297 277 238
f 297 238 274
f 297 274 273
f 297 273 285
f 297 285 239
f 298 275 182
f 299 275 298
f 299 251 250
f 300 239 285
f 300 278 239
f 301 285 284
f 301 284 182
f 301 182 276
f 302 109 278
f 303 247 110
f 304 179 242
f 304 242 283
f 304 283 281
f 304 281 179
f 305 248 289
f 305 289 109
f 305 250 249
f 306 249 290
f 306 290 248
f 306 248 305
f 306 305 249
f 307 249 186
f 307 186 185
f 307 185 189
f 307 189 290
f 307 290 249
f 308 253 252
f 308 252 291
f 308 291 7
f 308 7 6
f 308 6 253
f 309 40 148
f 309 292 36
f 309 36 40
f 310 149 295
f 310 295 262
f 310 262 260
f 310 260 149
f 311 277 297
f 311 297 239
f 311 239 277
f 312 182 186
f 312 186 251
f 312 251 299
f 312 299 298
f 312 298 182
f 313 278 300
f 313 302 278
f 314 299 250
f 314 250 305
f 314 305 109
f 314 109 302
f 314 302 275
f 314 275 299
f 315 280 282
f 315 282 187
f 315 182 181
f 315 181 247
f 315 247 303
f 315 303 280
f 316 179 280
f 316 280 303
f 316 303 110
f 316 110 179
f 317 147 52
f 317 309 148
f 317 148 88
f 317 88 147
f 318 292 309
f 318 52 111
f 319 313 300
f 319 300 285
f 319 285 301
f 320 186 182
f 320 182 315
f 320 315 187
f 320 187 186
f 321 292 318
f 321 318 111
f 321 111 254
f 321 254 292
f 322 317 52
f 322 52 318
f 322 318 309
f 322 309 317
f 323 276 275
f 323 275 302
f 323 302 313
f 323 313 319
f 323 319 301
f 323 301 276
