# Normalized convex hull collision mesh - generated by scripts/generate-collision-meshes.mjs (units: meters)
v 0.002439 -0.012500 0.007356
v -0.012500 -0.012500 0.000000
v 0.000000 -0.012500 -0.007500
v -0.001225 -0.012500 0.007464
v 0.012440 -0.012500 -0.000735
v -0.008839 -0.012500 -0.005303
v 0.000000 -0.012500 0.007500
v 0.008839 -0.012500 -0.005303
v 0.010393 -0.012500 0.004167
v 0.000000 -0.011764 0.007500
v 0.001225 -0.011764 0.007464
v -0.001225 -0.011720 0.007462
v 0.000000 -0.011720 0.007498
v 0.012440 -0.011764 -0.000735
v 0.012500 -0.011764 -0.000000
v 0.011962 -0.012500 0.002177
v 0.002439 -0.011764 0.007356
v 0.001225 -0.012500 0.007464
v 0.005892 -0.012500 0.006614
v -0.002435 0.012250 -0.001741
v -0.001795 0.012500 -0.001739
v -0.001894 0.012250 -0.001968
v -0.004784 -0.012500 -0.006929
v -0.008839 -0.012500 0.005303
v -0.001225 -0.011764 0.007464
v 0.011548 -0.012500 -0.002870
v 0.012500 -0.012500 0.000000
v 0.003629 -0.012500 0.007177
v 0.001225 -0.011720 0.007462
v 0.008837 -0.011720 0.005302
v 0.009660 -0.011720 0.004757
v 0.007302 0.004500 0.003618
v 0.007928 -0.011720 0.005796
v 0.008839 -0.012500 0.005303
v 0.000626 0.012500 -0.002011
v 0.002721 0.012500 0.001233
v 0.011548 -0.012500 0.002870
v -0.002721 0.012500 0.001233
v -0.011548 -0.012500 -0.002870
v -0.002757 0.005624 -0.005012
v -0.007302 0.004500 -0.003618
v -0.001296 0.012250 -0.002136
v -0.000658 0.012250 -0.002238
v -0.000931 0.004500 -0.005654
v 0.004784 -0.012500 -0.006929
v -0.006938 -0.011677 -0.006230
v -0.005887 -0.011677 -0.006608
v -0.006943 -0.011720 -0.006235
v -0.006945 -0.012500 -0.006236
v -0.001225 -0.012500 -0.007464
v -0.004784 -0.012500 0.006929
v -0.010393 -0.011764 0.004167
v -0.009663 -0.011764 0.004758
v -0.009660 -0.011720 0.004757
v -0.011024 -0.012500 0.003535
v 0.012260 -0.012500 -0.001463
v 0.012440 -0.012500 0.000735
v 0.004784 -0.012500 0.006929
v 0.005892 -0.011764 0.006614
v 0.002435 0.012250 0.001741
v 0.002757 0.005624 0.005012
v 0.002438 -0.011720 0.007354
v 0.001750 0.004500 0.005584
v 0.003628 -0.011720 0.007175
v 0.003629 -0.011764 0.007177
v 0.002757 0.004500 0.005436
v 0.006938 -0.011677 0.006230
v 0.010393 -0.011764 0.004167
v 0.009663 -0.011764 0.004758
v 0.006945 -0.012500 0.006236
v 0.007923 -0.011677 0.005792
v 0.009663 -0.012500 0.004758
v 0.008839 -0.011764 0.005303
v -0.000626 0.012500 -0.002011
v 0.003279 0.012500 -0.000560
v -0.000658 0.012250 0.002238
v -0.002363 0.004500 0.005502
v -0.001346 0.004500 0.005624
v 0.000626 0.012500 0.002011
v -0.008748 0.005074 0.001654
v -0.009060 0.004500 0.001654
v -0.006029 0.004500 0.004381
v -0.008353 0.005624 0.001654
v -0.010393 -0.012500 -0.004167
v -0.007918 0.004500 -0.003117
v -0.011021 -0.011720 -0.003535
v -0.008438 0.004500 -0.002579
v -0.003280 0.012250 -0.001136
v -0.003279 0.012500 -0.000560
v -0.003279 0.012500 0.000560
v -0.009465 0.004500 -0.000188
v -0.009442 0.004500 0.000434
v -0.003788 0.012250 0.000000
v -0.009170 0.004500 -0.001418
v -0.012257 -0.011720 -0.001463
v -0.009374 0.004500 -0.000808
v -0.002757 0.004500 -0.005436
v 0.002439 -0.012500 -0.007356
v 0.006945 -0.012500 -0.006236
v 0.005281 0.004500 -0.004716
v 0.004482 0.004500 -0.005005
v 0.001894 0.012250 -0.001968
v 0.006029 0.004500 -0.004381
v 0.007928 -0.011720 -0.005796
v 0.003639 0.004500 -0.005246
v 0.005891 -0.011720 -0.006613
v 0.001225 -0.011720 -0.007462
v 0.000000 0.004500 -0.005682
v 0.000932 0.004500 -0.005654
v 0.002438 -0.011720 -0.007354
v -0.003629 -0.012500 -0.007177
v -0.003629 -0.012500 0.007177
v -0.010384 -0.011677 0.004163
v -0.011014 -0.011677 0.003532
v -0.010393 -0.012500 0.004167
v -0.011024 -0.011764 0.003535
v 0.012437 -0.011720 -0.000735
v 0.012497 -0.011720 0.000000
v 0.008748 0.005074 -0.001654
v 0.008353 0.005624 -0.001654
v 0.010393 -0.012500 -0.004167
v 0.012260 -0.012500 0.001463
v 0.002902 0.012250 0.001461
v 0.007918 0.004500 0.003117
v 0.000723 0.004500 0.005665
v 0.000658 0.012250 0.002238
v -0.000314 0.004500 0.005679
v 0.002757 0.005074 0.005249
v 0.004782 -0.011720 0.006927
v 0.011024 -0.012500 0.003535
v 0.006945 -0.011764 0.006236
v 0.007930 -0.012500 0.005798
v 0.000000 0.012500 -0.002045
v 0.000658 0.012250 -0.002238
v -0.001232 0.012500 -0.001907
v 0.003279 0.012500 0.000560
v 0.003559 0.012250 0.000777
v 0.003730 0.012250 0.000395
v 0.001795 0.012500 -0.001739
v 0.001855 0.004500 -0.005572
v 0.002760 0.004500 -0.005435
v 0.001296 0.012250 -0.002136
v 0.000000 0.012250 -0.002273
v 0.012440 -0.011764 0.000735
v 0.008438 0.004500 0.002579
v 0.008857 0.004500 0.002010
v 0.011962 -0.011764 0.002177
v -0.002902 0.012250 0.001461
v -0.003280 0.012250 0.001136
v -0.002435 0.012250 0.001741
v 0.001894 0.012250 0.001968
v -0.011962 -0.012500 0.002177
v -0.009307 0.004500 0.001050
v -0.012437 -0.011720 0.000735
v -0.012257 -0.011720 0.001463
v -0.007923 -0.011677 -0.005792
v -0.007928 -0.011720 -0.005796
v -0.008837 -0.011720 -0.005302
v -0.009660 -0.011720 -0.004757
v -0.012260 -0.012500 -0.001463
v -0.011546 -0.011720 -0.002869
v -0.008857 0.004500 -0.002010
v -0.010391 -0.011720 -0.004166
v -0.009663 -0.012500 -0.004758
v -0.011024 -0.012500 -0.003535
v -0.002902 0.012250 -0.001461
v -0.003730 0.012250 -0.000395
v -0.003395 0.012500 0.000189
v -0.003052 0.012500 0.000912
v -0.003730 0.012250 0.000395
v -0.012437 -0.011720 -0.000735
v -0.001853 0.004500 -0.005572
v -0.002438 -0.011720 -0.007354
v -0.002757 0.005074 -0.005249
v -0.003628 -0.011720 -0.007175
v -0.004782 -0.011720 -0.006927
v 0.004782 -0.011720 -0.006927
v 0.003629 -0.012500 -0.007177
v 0.007930 -0.012500 -0.005798
v 0.006943 -0.011720 -0.006235
v 0.005892 -0.012500 -0.006614
v -0.001225 -0.011720 -0.007462
v -0.004784 -0.011764 -0.006929
v -0.005892 -0.011764 -0.006614
v -0.005891 -0.011720 -0.006613
v -0.006945 -0.011764 -0.006236
v -0.007930 -0.011764 -0.005798
v -0.005892 -0.012500 -0.006614
v -0.002439 -0.012500 -0.007356
v -0.004784 -0.011764 0.006929
v -0.002439 -0.012500 0.007356
v -0.009654 -0.011677 0.004754
v -0.010391 -0.011720 0.004166
v -0.009663 -0.012500 0.004758
v 0.009307 0.004500 -0.001050
v 0.011962 -0.012500 -0.002177
v 0.009654 -0.011677 -0.004754
v 0.010391 -0.011720 -0.004166
v 0.009660 -0.011720 -0.004757
v 0.008837 -0.011720 -0.005302
v 0.010384 -0.011677 -0.004163
v 0.009663 -0.012500 -0.004758
v 0.010393 -0.011764 -0.004167
v 0.000000 0.012250 0.002273
v 0.005891 -0.011720 0.006613
v 0.004784 -0.011764 0.006929
v 0.011021 -0.011720 0.003535
v 0.007930 -0.011764 0.005798
v 0.003052 0.012500 0.000912
v 0.003559 0.012250 -0.000777
v 0.003730 0.012250 -0.000395
v 0.003280 0.012250 -0.001136
v 0.002721 0.012500 -0.001233
v 0.003395 0.012500 -0.000189
v 0.003788 0.012250 -0.000000
v 0.001232 0.012500 -0.001907
v 0.012437 -0.011720 0.000735
v 0.012260 -0.011764 0.001463
v 0.012257 -0.011720 0.001463
v 0.011959 -0.011720 0.002177
v 0.003280 0.012250 0.001136
v -0.001296 0.012250 0.002136
v -0.001894 0.012250 0.001968
v -0.004299 0.004500 0.005063
v 0.001795 0.012500 0.001739
v 0.001296 0.012250 0.002136
v -0.011548 -0.011764 0.002870
v -0.012260 -0.012500 0.001463
v -0.007930 -0.012500 -0.005798
v -0.008839 -0.011764 -0.005303
v -0.010393 -0.011764 -0.004167
v -0.011548 -0.011764 -0.002870
v -0.011962 -0.011764 -0.002177
v -0.002721 0.012500 -0.001233
v -0.003559 0.012250 -0.000777
v -0.003395 0.012500 -0.000189
v -0.003559 0.012250 0.000777
v -0.012260 -0.011764 -0.001463
v -0.012497 -0.011720 0.000000
v -0.012440 -0.012500 -0.000735
v 0.002439 -0.011764 -0.007356
v 0.001225 -0.011764 -0.007464
v 0.003629 -0.011764 -0.007177
v 0.007930 -0.011764 -0.005798
v 0.005892 -0.011764 -0.006614
v -0.001225 -0.011764 -0.007464
v 0.000000 -0.011720 -0.007498
v 0.001225 -0.012500 -0.007464
v -0.002439 -0.011764 -0.007356
v -0.003351 0.004500 0.005314
v -0.004782 -0.011720 0.006927
v -0.003628 -0.011720 0.007175
v -0.007928 -0.011720 0.005796
v -0.006943 -0.011720 0.006235
v -0.006945 -0.012500 0.006236
v -0.005195 0.004500 0.004751
v -0.002438 -0.011720 0.007354
v -0.003629 -0.011764 0.007177
v 0.012257 -0.011720 -0.001463
v 0.009170 0.004500 0.001418
v 0.011962 -0.011764 -0.002177
v 0.011546 -0.011720 -0.002869
v 0.011959 -0.011720 -0.002177
v 0.008839 -0.011764 -0.005303
v 0.009060 0.004500 -0.001654
v 0.011024 -0.012500 -0.003535
v 0.009663 -0.011764 -0.004758
v 0.005887 -0.011677 0.006608
v 0.006943 -0.011720 0.006235
v 0.011024 -0.011764 0.003535
v 0.011546 -0.011720 0.002869
v 0.010391 -0.011720 0.004166
v 0.002435 0.012250 -0.001741
v 0.003052 0.012500 -0.000912
v 0.003395 0.012500 0.000189
v 0.009465 0.004500 0.000188
v -0.000626 0.012500 0.002011
v 0.002297 0.012500 0.001512
v 0.001232 0.012500 0.001907
v -0.011546 -0.011720 0.002869
v -0.011548 -0.012500 0.002870
v -0.012440 -0.012500 0.000735
v -0.012260 -0.011764 0.001463
v -0.011959 -0.011720 -0.002177
v -0.011962 -0.012500 -0.002177
v -0.011024 -0.011764 -0.003535
v -0.009663 -0.011764 -0.004758
v -0.003052 0.012500 -0.000912
v -0.002297 0.012500 -0.001512
v -0.012500 -0.011764 -0.000000
v 0.004784 -0.011764 -0.006929
v 0.003628 -0.011720 -0.007175
v 0.006945 -0.011764 -0.006236
v 0.000000 -0.011764 -0.007500
v -0.003629 -0.011764 -0.007177
v -0.008837 -0.011720 0.005302
v -0.005892 -0.011764 0.006614
v -0.007930 -0.012500 0.005798
v -0.007930 -0.011764 0.005798
v -0.002439 -0.011764 0.007356
v 0.012260 -0.011764 -0.001463
v 0.011548 -0.011764 -0.002870
v 0.011021 -0.011720 -0.003535
v 0.011548 -0.011764 0.002870
v 0.002297 0.012500 -0.001512
v 0.002902 0.012250 -0.001461
v 0.009442 0.004500 -0.000434
v 0.009374 0.004500 0.000808
v -0.001795 0.012500 0.001739
v 0.000000 0.012500 0.002045
v -0.011021 -0.011720 0.003535
v -0.011959 -0.011720 0.002177
v -0.012440 -0.011764 0.000735
v -0.012440 -0.011764 -0.000735
v -0.005891 -0.011720 0.006613
v -0.005892 -0.012500 0.006614
v -0.006945 -0.011764 0.006236
v -0.008839 -0.011764 0.005303
v 0.011024 -0.011764 -0.003535
v 0.011014 -0.011677 -0.003532
v -0.002297 0.012500 0.001512
v -0.001232 0.012500 0.001907
v -0.011962 -0.011764 0.002177
f 1 2 3
f 4 2 1
f 5 1 3
f 6 3 2
f 7 4 1
f 8 5 3
f 9 1 5
f 10 4 7
f 10 7 11
f 12 10 13
f 14 15 5
f 16 9 5
f 17 11 1
f 18 1 11
f 18 11 7
f 18 7 1
f 19 1 9
f 20 21 22
f 23 3 6
f 24 2 4
f 25 4 10
f 25 10 12
f 26 5 8
f 27 16 5
f 27 5 15
f 28 17 1
f 28 1 19
f 29 11 17
f 29 13 10
f 29 10 11
f 30 31 32
f 30 32 33
f 34 19 9
f 35 21 36
f 37 9 16
f 38 36 21
f 39 6 2
f 40 41 20
f 40 20 22
f 40 22 42
f 40 42 43
f 40 43 44
f 45 8 3
f 46 47 48
f 49 23 6
f 50 3 23
f 51 24 4
f 52 53 54
f 55 2 24
f 56 14 5
f 56 5 26
f 57 16 27
f 57 27 15
f 58 28 19
f 58 19 59
f 60 61 32
f 62 63 29
f 62 29 17
f 62 17 64
f 65 28 58
f 65 64 17
f 65 17 28
f 66 63 62
f 66 62 64
f 66 67 32
f 68 31 69
f 68 69 9
f 70 19 34
f 70 59 19
f 71 32 67
f 71 33 32
f 72 69 34
f 72 34 9
f 72 9 69
f 73 30 33
f 73 34 69
f 73 69 31
f 73 31 30
f 74 21 35
f 74 43 42
f 75 35 36
f 76 77 78
f 79 36 38
f 80 81 82
f 80 82 83
f 84 6 39
f 85 86 87
f 88 85 87
f 89 38 21
f 90 38 89
f 91 92 93
f 94 95 96
f 97 47 46
f 97 46 41
f 98 45 3
f 99 8 45
f 100 101 102
f 100 103 104
f 105 102 101
f 105 101 106
f 107 108 109
f 107 109 110
f 111 50 23
f 112 51 4
f 113 82 81
f 113 81 114
f 115 52 55
f 115 55 24
f 115 53 52
f 116 55 52
f 117 118 15
f 117 15 14
f 119 103 120
f 121 26 8
f 122 16 57
f 123 60 32
f 123 32 124
f 125 63 61
f 125 61 126
f 125 13 29
f 125 29 63
f 127 13 125
f 127 76 78
f 127 78 12
f 127 12 13
f 128 63 66
f 128 66 32
f 128 32 61
f 128 61 63
f 129 66 64
f 129 64 65
f 130 68 9
f 130 9 37
f 131 59 70
f 132 131 70
f 132 70 34
f 132 34 73
f 133 43 74
f 133 74 35
f 133 35 134
f 135 21 74
f 135 74 42
f 135 42 22
f 135 22 21
f 136 75 36
f 136 137 138
f 139 35 75
f 140 109 134
f 140 134 141
f 140 110 109
f 142 102 105
f 142 105 141
f 142 141 134
f 142 134 35
f 143 108 44
f 143 44 43
f 143 43 133
f 143 133 134
f 143 134 109
f 143 109 108
f 144 57 15
f 144 122 57
f 145 146 137
f 147 16 122
f 147 37 16
f 148 149 83
f 148 83 82
f 148 82 150
f 148 38 149
f 151 61 60
f 152 2 55
f 153 92 154
f 153 154 155
f 153 155 81
f 153 81 80
f 153 80 83
f 153 83 92
f 156 46 48
f 156 48 157
f 156 157 41
f 156 41 46
f 158 159 41
f 158 41 157
f 160 39 2
f 161 162 87
f 161 87 86
f 163 86 85
f 163 85 41
f 163 41 159
f 164 6 84
f 165 84 39
f 166 41 85
f 166 85 88
f 166 20 41
f 167 94 96
f 167 96 91
f 167 91 93
f 168 90 89
f 169 38 90
f 169 149 38
f 170 90 168
f 170 168 93
f 170 93 92
f 170 92 83
f 171 91 96
f 171 96 95
f 172 44 173
f 174 40 44
f 174 44 172
f 174 172 97
f 174 97 41
f 174 41 40
f 175 176 97
f 175 97 172
f 175 172 173
f 177 141 105
f 177 105 106
f 178 45 98
f 179 8 99
f 180 106 101
f 180 101 100
f 180 100 104
f 181 99 45
f 182 173 44
f 182 44 108
f 183 23 184
f 183 184 176
f 183 111 23
f 185 47 97
f 185 97 176
f 185 176 184
f 185 48 47
f 186 48 185
f 186 185 184
f 186 184 49
f 186 49 187
f 186 187 157
f 186 157 48
f 188 49 184
f 188 184 23
f 188 23 49
f 189 50 111
f 190 51 112
f 191 112 4
f 191 4 25
f 192 82 113
f 192 54 82
f 193 52 54
f 193 54 192
f 193 192 113
f 193 113 114
f 194 53 115
f 194 115 24
f 194 24 53
f 195 119 120
f 196 56 26
f 197 198 199
f 197 199 103
f 200 103 199
f 200 104 103
f 201 198 197
f 201 197 103
f 202 121 8
f 203 121 202
f 203 199 198
f 204 76 127
f 204 127 125
f 204 125 126
f 205 66 129
f 205 129 59
f 205 59 131
f 206 58 59
f 206 59 129
f 206 129 65
f 206 65 58
f 207 145 124
f 208 131 132
f 208 132 73
f 208 73 33
f 208 33 131
f 209 137 136
f 209 136 36
f 210 211 120
f 210 120 212
f 210 75 211
f 213 139 75
f 214 75 136
f 214 215 211
f 214 211 75
f 216 139 102
f 216 102 142
f 216 142 35
f 216 35 139
f 217 144 15
f 217 15 118
f 218 122 144
f 218 144 217
f 218 217 219
f 218 219 220
f 218 220 147
f 218 147 122
f 221 123 124
f 221 124 145
f 221 145 137
f 221 137 209
f 221 209 36
f 221 36 123
f 222 223 224
f 222 77 76
f 225 36 79
f 225 151 60
f 226 126 61
f 226 61 151
f 226 79 126
f 227 55 116
f 228 2 152
f 229 6 187
f 229 187 49
f 229 49 6
f 230 187 6
f 230 6 164
f 230 159 158
f 230 158 157
f 230 157 187
f 231 84 165
f 231 86 163
f 231 163 159
f 231 164 84
f 232 165 39
f 232 39 233
f 232 233 161
f 234 89 21
f 234 166 88
f 235 88 87
f 235 87 162
f 235 162 94
f 235 94 167
f 235 167 89
f 236 167 93
f 236 93 168
f 236 168 89
f 236 89 167
f 237 90 170
f 237 170 83
f 237 83 149
f 237 149 169
f 237 169 90
f 238 171 95
f 238 233 160
f 239 154 92
f 239 92 91
f 239 91 171
f 240 238 160
f 240 160 2
f 241 178 98
f 241 98 242
f 241 242 107
f 241 107 110
f 243 45 178
f 243 178 241
f 244 8 179
f 244 179 99
f 245 99 181
f 245 181 45
f 245 177 106
f 246 50 189
f 246 3 50
f 247 182 108
f 247 108 107
f 248 3 242
f 248 242 98
f 248 98 3
f 249 175 173
f 249 173 182
f 249 182 246
f 249 246 189
f 249 189 111
f 250 77 222
f 250 222 224
f 250 224 251
f 250 251 252
f 250 252 77
f 253 254 82
f 255 24 51
f 256 82 254
f 256 224 223
f 256 223 150
f 256 150 82
f 257 12 78
f 257 78 77
f 257 77 252
f 258 190 112
f 258 112 191
f 258 252 251
f 258 251 190
f 259 195 117
f 260 138 137
f 260 137 146
f 260 146 220
f 260 220 219
f 261 196 26
f 261 262 263
f 261 56 196
f 264 8 244
f 264 244 104
f 264 104 200
f 264 200 199
f 264 202 8
f 265 119 195
f 265 195 259
f 265 259 263
f 265 263 262
f 265 201 103
f 265 103 119
f 266 26 121
f 266 121 203
f 267 199 203
f 267 203 202
f 267 202 264
f 267 264 199
f 268 66 205
f 268 67 66
f 269 67 268
f 269 268 205
f 269 205 131
f 269 131 33
f 269 33 71
f 269 71 67
f 270 130 37
f 270 207 68
f 270 68 130
f 271 146 145
f 271 145 207
f 271 207 270
f 271 147 220
f 271 220 146
f 272 68 207
f 272 207 124
f 272 124 32
f 272 32 31
f 272 31 68
f 273 102 139
f 273 103 100
f 273 100 102
f 274 212 213
f 274 213 75
f 274 75 210
f 274 210 212
f 275 138 215
f 275 215 214
f 275 214 136
f 275 136 138
f 276 215 138
f 276 217 118
f 277 79 38
f 277 222 76
f 278 36 225
f 278 225 60
f 278 60 123
f 278 123 36
f 279 225 79
f 279 79 226
f 279 226 151
f 279 151 225
f 280 227 116
f 281 55 227
f 281 227 152
f 281 152 55
f 282 2 228
f 283 155 154
f 283 282 228
f 283 228 152
f 284 94 162
f 284 162 161
f 284 161 233
f 284 233 238
f 284 238 95
f 284 95 94
f 285 160 233
f 285 233 39
f 285 39 160
f 286 86 231
f 286 231 165
f 286 165 232
f 286 232 161
f 286 161 86
f 287 164 231
f 287 231 159
f 287 159 230
f 287 230 164
f 288 89 234
f 288 234 88
f 288 88 235
f 288 235 89
f 289 20 166
f 289 166 234
f 289 234 21
f 289 21 20
f 290 2 282
f 290 154 239
f 290 239 171
f 290 240 2
f 291 45 243
f 291 243 177
f 291 177 245
f 291 245 45
f 292 110 140
f 292 140 141
f 292 141 177
f 292 177 243
f 292 243 241
f 292 241 110
f 293 180 104
f 293 104 244
f 293 244 99
f 293 99 245
f 293 245 106
f 293 106 180
f 294 242 3
f 294 3 246
f 294 246 182
f 294 182 247
f 294 247 107
f 294 107 242
f 295 175 249
f 295 249 111
f 295 111 183
f 295 183 176
f 295 176 175
f 296 253 82
f 296 82 54
f 297 190 251
f 297 51 190
f 298 24 255
f 299 24 298
f 299 298 255
f 300 257 252
f 300 252 258
f 300 258 191
f 300 191 25
f 300 25 12
f 300 12 257
f 301 14 56
f 301 56 261
f 301 261 263
f 301 263 259
f 301 259 117
f 301 117 14
f 302 262 261
f 302 261 26
f 302 26 266
f 303 265 262
f 303 203 198
f 304 37 147
f 304 147 271
f 304 271 270
f 304 270 37
f 305 273 139
f 305 139 213
f 306 212 120
f 306 120 103
f 306 103 273
f 306 273 305
f 306 305 213
f 306 213 212
f 307 117 195
f 307 195 120
f 307 120 211
f 307 211 215
f 307 215 276
f 307 276 118
f 307 118 117
f 308 260 219
f 308 219 217
f 308 217 276
f 308 276 138
f 308 138 260
f 309 277 38
f 309 150 223
f 310 204 126
f 310 126 79
f 310 79 277
f 310 277 76
f 310 76 204
f 311 81 280
f 311 280 116
f 311 116 52
f 311 52 193
f 311 193 114
f 311 114 81
f 312 155 283
f 312 280 81
f 312 81 155
f 313 282 283
f 313 283 154
f 313 154 290
f 313 290 282
f 314 240 290
f 314 290 171
f 314 171 238
f 314 238 240
f 315 224 256
f 315 256 254
f 315 297 251
f 315 251 224
f 316 51 297
f 316 297 255
f 316 255 51
f 317 255 297
f 317 297 315
f 317 315 254
f 317 254 253
f 317 253 299
f 317 299 255
f 318 296 54
f 318 54 53
f 318 53 24
f 318 24 299
f 318 299 253
f 318 253 296
f 319 302 266
f 319 266 203
f 319 203 303
f 319 303 262
f 319 262 302
f 320 201 265
f 320 265 303
f 320 303 198
f 320 198 201
f 321 150 309
f 321 309 38
f 321 38 148
f 321 148 150
f 322 222 277
f 322 277 309
f 322 309 223
f 322 223 222
f 323 152 227
f 323 227 280
f 323 280 312
f 323 312 283
f 323 283 152
