# Normalized convex hull collision mesh - generated by scripts/generate-collision-meshes.mjs (units: meters)
v 0.027414 -0.038086 -0.024000
v -0.038185 0.018701 -0.024000
v 0.041186 0.014280 -0.024000
v -0.002696 -0.046227 -0.024000
v -0.020008 0.029342 -0.024000
v -0.045513 -0.009162 -0.024000
v -0.045681 -0.008839 -0.023970
v 0.027192 -0.038380 -0.023970
v 0.026975 -0.038668 -0.023883
v 0.046712 0.011843 -0.015696
v 0.045938 0.012469 -0.016681
v 0.025661 0.050000 0.000004
v 0.018404 0.034001 -0.024000
v -0.003142 0.038957 -0.020026
v -0.003499 0.038716 -0.020450
v 0.000102 0.050000 0.000004
v -0.025144 0.015933 0.024000
v -0.038185 -0.027532 0.024000
v 0.018404 -0.042832 0.024000
v -0.047330 0.000607 -0.019606
v -0.037991 0.019385 -0.023883
v -0.038086 0.019047 -0.023970
v -0.031497 -0.034804 -0.024000
v -0.031854 -0.034655 -0.023970
v -0.012942 -0.044578 0.024000
v -0.012623 -0.044786 0.023970
v 0.045315 0.015106 -0.009828
v 0.046657 0.012301 0.013770
v 0.045749 0.013979 -0.013376
v 0.045897 0.012429 -0.016815
v 0.042463 0.013155 -0.023297
v 0.019710 0.033912 -0.023646
v 0.019176 0.033946 -0.023883
v 0.027862 0.030534 -0.020558
v 0.028271 0.030512 -0.020167
v 0.018795 0.033973 -0.023970
v 0.008478 0.033238 -0.024000
v -0.011878 0.036445 -0.023646
v -0.012312 0.036158 -0.023883
v -0.047330 -0.009437 0.019606
v -0.038837 -0.032199 0.016681
v -0.037991 -0.028216 0.023883
v -0.027466 0.033522 0.001591
v -0.028431 0.032938 0.004075
v -0.023410 0.035576 -0.003550
v -0.037331 0.025858 -0.013851
v -0.024060 0.035348 -0.002213
v -0.012623 0.035955 -0.023970
v -0.032695 0.027250 -0.019606
v -0.011021 0.039528 -0.015951
v -0.011448 0.039436 -0.015583
v -0.013992 0.038824 -0.013340
v -0.045513 0.000331 0.024000
v -0.039461 0.019615 0.020167
v -0.045681 0.000008 0.023970
v -0.037861 -0.028690 0.023646
v -0.037756 -0.029102 0.023297
v -0.013555 0.037332 0.019606
v -0.031854 0.025824 0.023970
v -0.013108 0.037353 0.020026
v -0.039443 0.019834 0.020026
v -0.045846 -0.008524 -0.023883
v -0.046081 -0.008085 -0.023646
v -0.046951 0.000045 -0.020558
v -0.046291 -0.007707 -0.023297
v -0.047077 -0.000161 -0.020450
v -0.038086 -0.027878 0.023970
v -0.011878 -0.045276 0.023646
v -0.003255 -0.047469 0.020558
v -0.002925 -0.047692 0.020167
v -0.008153 -0.049465 0.014791
v -0.007011 -0.049532 0.013804
v -0.002714 -0.047907 0.019606
v 0.049893 -0.001601 0.001591
v 0.049822 -0.000547 0.004075
v 0.050000 -0.003960 0.000475
v 0.048440 0.006888 0.011914
v 0.047847 0.008184 0.014360
v 0.048863 0.004476 0.010596
v 0.045849 0.014099 -0.011058
v 0.042124 0.013445 -0.023646
v 0.041739 0.013784 -0.023883
v 0.020174 0.033889 -0.023297
v -0.003255 0.038639 -0.020558
v -0.011507 0.036699 -0.023297
v 0.049893 -0.002902 0.002963
v 0.049552 0.000708 0.006721
v -0.047275 -0.009032 0.020026
v -0.041327 -0.029040 0.013066
v -0.042387 -0.027987 0.010596
v -0.044446 -0.024661 0.006721
v -0.046120 -0.021375 0.002963
v -0.045170 -0.023567 0.004075
v -0.032718 0.029669 0.010596
v -0.031730 0.030649 0.008031
v -0.034796 0.028129 0.011914
v -0.035729 0.027013 0.014360
v -0.031747 0.030692 0.006072
v -0.033309 0.029509 0.008071
v -0.025279 0.034786 0.000475
v -0.028518 0.032842 0.002156
v -0.030120 0.031821 0.004066
v -0.021619 0.036370 -0.005430
v -0.040181 0.022457 -0.013376
v -0.041157 0.020442 -0.013340
v -0.041627 0.020552 -0.011012
v -0.012942 0.035748 -0.024000
v -0.010163 0.039703 -0.016681
v -0.045846 -0.000307 0.023883
v -0.046081 -0.000746 0.023646
v -0.046951 -0.008876 0.020558
v -0.039826 0.007793 0.024000
v -0.032800 -0.035428 0.020558
v 0.032038 0.005359 0.024000
v -0.004903 0.025979 0.024000
v -0.049748 -0.004998 -0.015830
v -0.049782 -0.005073 -0.015767
v -0.049299 -0.005978 -0.016681
v -0.047275 0.000201 -0.020026
v -0.039639 0.022403 -0.015583
v -0.042411 0.018909 -0.010957
v -0.042903 0.018379 -0.009692
v -0.013276 -0.046026 -0.020167
v -0.012883 -0.045920 -0.020558
v 0.019168 -0.044137 -0.020167
v 0.019394 -0.043825 -0.020558
v 0.019408 -0.044159 -0.020026
v -0.005483 -0.049227 -0.015583
v -0.005919 -0.049180 -0.015951
v 0.019051 -0.044406 -0.019606
v -0.002863 -0.049445 -0.013340
v 0.028172 -0.039543 0.020026
v 0.028584 -0.039384 0.019606
v 0.041465 -0.022859 0.023970
v 0.028271 -0.039342 0.020167
v 0.042197 -0.005404 -0.024000
v 0.041465 0.014029 -0.023970
v 0.024816 -0.044132 -0.014859
v 0.028029 -0.042307 -0.011058
v 0.025343 -0.043904 0.014712
v 0.026001 -0.043531 -0.013501
v 0.042476 -0.028531 0.005398
v 0.043157 -0.027431 0.008031
v 0.040915 -0.030612 0.004075
v 0.041592 -0.029493 0.006721
v 0.039856 -0.031469 0.005422
v 0.039310 -0.032458 0.002963
v -0.032202 -0.034511 -0.023883
v -0.032691 -0.034312 -0.023646
v -0.013555 -0.046163 -0.019606
v -0.036046 -0.035176 -0.015951
v -0.035746 -0.035467 -0.015583
v -0.032695 -0.036081 0.019606
v -0.032939 -0.035738 0.020026
v -0.011507 -0.045530 0.023297
v -0.003142 -0.047787 0.020026
v 0.016870 -0.047298 0.008031
v 0.018166 -0.046686 0.010596
v 0.014218 -0.047959 0.006721
v 0.020696 -0.045887 0.011914
v 0.015532 -0.047331 0.009304
v -0.007309 -0.049560 0.013770
v 0.049775 -0.000430 0.002156
v 0.047552 0.010026 -0.013851
v 0.049348 0.003197 0.006072
v 0.049552 0.001963 0.005398
v 0.048262 0.005796 0.013066
v 0.047106 0.011409 0.014712
v 0.046989 0.011587 0.014791
v 0.047221 0.010542 0.015767
v 0.047538 0.010090 -0.013770
v 0.049006 0.005023 0.008071
v 0.047847 0.009207 0.013280
v 0.048077 0.008590 0.012032
v 0.047494 0.010324 0.013987
v 0.045675 0.014436 -0.010648
v 0.046818 0.012065 -0.013501
v 0.046967 0.011723 -0.013905
v 0.027862 -0.039365 0.020558
v 0.027729 0.030737 -0.020450
v 0.045553 -0.022766 0.014360
v 0.044188 -0.024839 0.013066
v 0.049299 0.003205 0.008031
v 0.048863 0.005638 0.009371
v 0.049102 0.001998 0.009304
v 0.049614 -0.001824 0.005422
v -0.049956 -0.004821 0.014791
v -0.049830 -0.005859 0.013804
v -0.047134 -0.009210 0.020167
v -0.047077 -0.008670 0.020450
v -0.046291 -0.001124 0.023297
v -0.049912 -0.005596 0.013770
v -0.049070 -0.012277 -0.005805
v -0.048579 -0.014547 -0.004647
v -0.048199 -0.015539 -0.002169
v -0.050000 -0.004616 0.014712
v -0.049827 -0.007537 -0.011058
v -0.024416 -0.044071 0.000475
v -0.023358 -0.044516 0.002963
v -0.026798 -0.042736 -0.000837
v -0.027948 -0.042071 -0.003522
v -0.043540 -0.025733 0.009304
v -0.045453 -0.022301 0.005422
v -0.029486 0.032097 0.006721
v -0.036230 0.026991 0.012032
v -0.034804 0.028274 0.010059
v -0.038142 0.025116 -0.014711
v -0.037585 0.025663 0.013987
v -0.033821 0.029089 0.009371
v -0.037385 0.025815 -0.013770
v -0.033671 0.028534 0.013066
v -0.032095 0.030427 0.006299
v -0.030678 0.031470 0.005398
v -0.026950 0.033761 0.000346
v -0.049749 -0.003841 0.015830
v -0.038420 0.024815 0.014712
v -0.047254 0.009701 0.002963
v -0.039165 0.023763 0.013804
v -0.045931 0.013101 -0.000837
v -0.039771 0.019556 0.019606
v -0.033042 0.026513 -0.020450
v -0.032800 0.026597 -0.020558
v -0.037756 0.020272 -0.023297
v -0.038784 0.023349 -0.016815
v -0.038843 0.023361 -0.016681
v -0.037263 0.025882 -0.013930
v -0.038010 0.025193 -0.014859
v -0.038084 0.025163 -0.014787
v -0.032939 0.026907 -0.020026
v -0.038635 0.024286 -0.015696
v -0.038899 0.024259 -0.013501
v -0.040345 0.022476 -0.011058
v -0.040578 0.022170 -0.010648
v -0.037861 0.019859 -0.023646
v -0.039085 0.019764 0.020558
v -0.032202 0.025680 0.023883
v -0.032705 -0.035792 0.020167
v -0.033042 -0.035344 0.020450
v 0.042790 0.015106 0.019606
v 0.041186 -0.023110 0.024000
v 0.019176 -0.042777 0.023883
v 0.019710 -0.042742 0.023646
v -0.024311 0.016372 0.024000
v 0.017680 0.021803 0.024000
v -0.049793 -0.005148 -0.015696
v -0.050000 -0.004222 -0.014711
v -0.049246 -0.005953 -0.016815
v -0.047134 0.000380 -0.020167
v -0.041400 0.020109 -0.012961
v 0.019653 -0.043822 -0.020450
v 0.026422 -0.039428 -0.023297
v -0.021086 -0.045637 0.004075
v -0.019761 -0.046051 0.006721
v -0.015840 -0.047391 0.010596
v -0.018311 -0.046341 0.009304
v -0.003443 -0.046416 -0.023883
v 0.021991 -0.045129 0.014360
v 0.023096 -0.044952 0.013280
v 0.045989 0.006077 -0.020558
v 0.031653 -0.029861 -0.024000
v 0.005224 -0.049520 -0.005430
v 0.007204 -0.049332 -0.003550
v 0.005142 -0.049713 -0.003522
v 0.026229 -0.043345 0.013770
v 0.034059 -0.037816 -0.004647
v 0.032149 -0.039339 -0.005805
v 0.038646 -0.033332 0.000475
v 0.040227 -0.031462 0.001591
v 0.036792 -0.035241 -0.000837
v 0.042085 -0.029035 0.004066
v 0.043190 -0.027467 0.006072
v 0.044214 -0.025867 0.008071
v 0.032938 -0.038374 -0.009042
v 0.033168 -0.038515 -0.007100
v 0.031968 -0.039255 -0.009692
v 0.029955 -0.040899 -0.011012
v 0.024969 -0.044101 -0.014711
v 0.024240 -0.044440 0.013987
v 0.026676 -0.039073 -0.023646
v -0.043272 -0.026929 0.008031
v -0.041085 -0.030122 0.011914
v -0.046617 -0.020414 0.000475
v -0.045632 -0.022598 0.001591
v -0.039771 -0.028386 -0.019606
v -0.030053 -0.040727 -0.004647
v -0.038569 -0.033175 0.015767
v -0.037131 -0.034805 0.013804
v -0.037379 -0.034652 0.013770
v -0.032456 -0.038565 -0.010957
v -0.030850 -0.039818 -0.009042
v -0.031969 -0.039099 -0.009692
v -0.012312 -0.044989 0.023883
v -0.003499 -0.047546 0.020450
v -0.009174 -0.049109 0.015830
v -0.009261 -0.049126 0.015767
v 0.011496 -0.048455 0.005422
v 0.010381 -0.048893 0.002963
v 0.012911 -0.048420 0.004075
v 0.011786 -0.048667 0.001591
v 0.013029 -0.048357 0.002156
v 0.014918 -0.047898 0.004066
v 0.015573 -0.047741 0.005398
v 0.009257 -0.049173 0.000475
v 0.049863 -0.002128 0.000346
v 0.049607 0.001347 0.004066
v 0.049271 0.003604 0.006299
v 0.044744 0.005359 0.024000
v 0.027414 0.029255 0.024000
v 0.048582 0.006822 0.010059
v 0.048262 0.007980 0.010763
v 0.020174 -0.042719 0.023297
v 0.024482 -0.044093 0.015830
v 0.018795 -0.042804 0.023970
v 0.044538 -0.025313 0.009371
v 0.043719 -0.026202 0.010596
v 0.049924 -0.006510 -0.000837
v 0.047563 -0.018641 0.013804
v 0.047542 -0.018914 0.013770
v 0.046555 -0.014498 0.019606
v 0.047106 0.009541 0.016681
v 0.044819 0.006063 0.023883
v -0.049789 -0.007908 -0.010648
v -0.049703 -0.008650 -0.009828
v -0.025559 -0.043389 -0.002213
v -0.026100 -0.042989 -0.003550
v -0.009916 -0.049130 -0.013851
v -0.036701 0.026501 0.013280
v -0.035744 0.027442 0.010763
v -0.025248 0.034676 -0.001557
v -0.049957 -0.003477 0.013987
v -0.049487 -0.001355 0.014360
v -0.049052 0.002446 0.010596
v -0.049559 0.000048 0.011914
v -0.049871 -0.002317 0.013280
v -0.049029 0.003800 0.006072
v -0.049901 -0.003178 -0.013851
v -0.049109 0.003393 0.006299
v -0.048070 0.007341 0.002156
v -0.048578 0.005619 0.004066
v -0.047742 0.008478 0.001591
v -0.046857 0.010663 -0.001557
v -0.046420 0.011874 -0.002213
v -0.046958 0.010729 0.000475
v -0.045413 0.014250 -0.003522
v -0.049975 -0.005323 -0.013501
v -0.049952 -0.004086 -0.014859
v -0.049866 -0.003120 -0.013930
v -0.049392 0.001977 0.008071
v -0.037681 0.025261 0.015830
v -0.033118 0.025315 0.023297
v -0.048070 0.007465 0.004075
v -0.038531 0.024632 0.014791
v -0.032705 0.026961 -0.020167
v -0.041034 0.021551 -0.009828
v -0.042458 0.019495 -0.008439
v -0.039043 0.024013 0.013770
v -0.043104 0.018401 -0.005805
v -0.044735 0.015391 -0.002169
v -0.038496 0.024375 -0.015830
v -0.038575 0.024337 -0.015767
v -0.039376 0.022724 -0.015951
v -0.038649 0.024547 -0.013905
v -0.032691 0.025481 0.023646
v -0.039036 0.019995 0.020450
v -0.036648 0.025748 0.016681
v -0.021884 0.028354 0.024000
v -0.004401 0.037843 0.023297
v -0.003957 0.037719 0.023646
v 0.042691 0.014831 0.020167
v 0.027192 0.029549 0.023970
v -0.049346 -0.011059 -0.008439
v -0.041876 0.019439 -0.012197
v -0.001551 -0.049513 -0.012197
v -0.000781 -0.049670 -0.010957
v 0.001332 -0.049688 -0.009042
v 0.003125 -0.049606 -0.007598
v 0.003335 -0.049634 -0.007197
v -0.027750 -0.041971 -0.005430
v -0.006808 -0.049024 -0.016815
v -0.007851 -0.049353 -0.015767
v -0.004401 -0.046673 -0.023297
v -0.012683 -0.046069 -0.020450
v -0.005263 -0.049682 -0.013376
v -0.003074 -0.046322 -0.023970
v 0.023328 -0.044228 0.016681
v 0.019486 -0.045917 0.013066
v 0.049880 -0.003930 -0.001557
v 0.042790 -0.023936 -0.019606
v 0.027025 -0.042238 -0.015951
v 0.044875 -0.015379 -0.023646
v 0.044819 -0.014893 -0.023883
v 0.047254 0.011038 -0.014711
v 0.046727 0.011689 -0.015830
v 0.047261 0.010895 -0.014859
v 0.046352 0.006031 -0.020026
v 0.044744 -0.014190 -0.024000
v 0.046030 0.006310 -0.020450
v 0.046555 0.005667 -0.019606
v 0.006492 -0.049547 -0.000837
v 0.002584 -0.049917 -0.004647
v 0.003952 -0.049697 -0.005984
v 0.026437 -0.043148 0.013804
v 0.035875 -0.036159 -0.003522
v 0.034810 -0.037020 -0.002169
v 0.046625 -0.021182 -0.013851
v 0.031131 -0.040165 -0.008439
v 0.029023 -0.041653 -0.009828
v 0.028362 -0.042092 -0.010648
v 0.027882 -0.042238 -0.013376
v 0.029554 -0.040649 -0.013340
v 0.031307 -0.039600 -0.010957
v 0.030606 -0.039931 -0.012197
v 0.022470 -0.045266 0.012032
v 0.025580 -0.043514 -0.015830
v 0.025668 -0.043503 -0.015767
v 0.024897 -0.044126 -0.014787
v 0.025659 -0.043724 -0.013905
v 0.026285 -0.042669 -0.016681
v -0.045082 -0.023661 0.002156
v -0.039074 -0.032793 -0.013851
v -0.044258 -0.025279 0.004066
v -0.047502 -0.017994 -0.000837
v -0.047914 -0.016810 -0.003522
v -0.039085 -0.028594 -0.020558
v -0.033118 -0.034146 -0.023297
v -0.029062 -0.041264 -0.002169
v -0.040042 -0.031154 0.014360
v -0.039658 -0.032116 0.013280
v -0.038490 -0.033212 0.015830
v -0.022195 -0.044834 0.005422
v -0.029418 -0.040806 -0.007598
v -0.029278 -0.040951 -0.007197
v -0.009973 -0.049089 -0.013930
v -0.008946 -0.049334 -0.014859
v -0.032935 -0.037992 -0.012197
v -0.033575 -0.037448 -0.012961
v 0.023929 -0.044544 -0.013851
v -0.001314 -0.050000 -0.008439
v -0.003977 -0.049903 -0.009828
v 0.044782 0.005715 0.023970
v 0.046352 -0.014862 0.020026
v 0.047259 0.010475 0.015696
v 0.027729 -0.039567 0.020450
v 0.042156 -0.028241 0.009304
v 0.045094 -0.024106 0.011914
v 0.046274 -0.021982 0.013280
v 0.049659 -0.009036 -0.002169
v 0.049645 -0.010086 -0.004647
v 0.047293 -0.019656 0.014791
v -0.024327 -0.043992 -0.001557
v -0.022608 -0.044879 0.000346
v -0.049856 -0.001665 0.012032
v -0.049668 0.000154 0.010059
v -0.049300 -0.002862 0.016681
v -0.048982 0.001018 0.013066
v -0.047516 0.008964 0.000346
v -0.044328 0.016374 -0.004647
v -0.049987 -0.004955 -0.013905
v -0.049988 -0.004153 -0.014787
v -0.049912 -0.003243 -0.013770
v -0.049488 0.001355 0.009371
v -0.048757 0.005023 0.005398
v -0.048348 0.004849 0.009304
v -0.037610 0.025402 0.015696
v -0.002696 0.037396 0.024000
v 0.019394 0.034995 0.020558
v -0.003074 0.037491 0.023970
v -0.003443 0.037585 0.023883
v -0.012883 0.037089 0.020558
v 0.042891 0.014707 0.020026
v 0.042645 0.014460 0.020558
v -0.049454 -0.009762 -0.011012
v -0.048797 -0.013493 -0.007100
v -0.048900 -0.012175 -0.009692
v -0.048549 -0.013383 -0.009042
v -0.002425 -0.049471 -0.012961
v -0.009604 -0.049233 0.013987
v -0.011542 -0.048827 0.012032
v -0.008807 -0.049401 -0.014711
v -0.008880 -0.049378 -0.014787
v -0.013108 -0.046184 -0.020026
v -0.022123 -0.045167 0.001591
v -0.020952 -0.045658 0.002156
v -0.019182 -0.046414 0.004066
v -0.018569 -0.046679 0.005398
v -0.028849 -0.041361 -0.005984
v -0.010154 -0.048536 0.016681
v -0.011813 -0.048442 0.014360
v -0.014287 -0.047576 0.013066
v -0.009344 -0.049123 0.015696
v -0.006790 -0.049076 -0.016681
v -0.005199 -0.049821 -0.011058
v -0.007615 -0.049570 -0.013501
v 0.024362 -0.044203 0.015696
v 0.042691 -0.023662 -0.020167
v 0.047269 0.010969 -0.014787
v 0.044782 -0.014546 -0.023970
v 0.046286 0.005819 -0.020167
v 0.047541 0.009960 -0.013930
v 0.003720 -0.049748 -0.002169
v 0.025515 -0.043767 0.014791
v 0.037712 -0.034241 -0.002213
v 0.037186 -0.034657 -0.003550
v 0.040961 -0.030495 0.002156
v 0.047109 -0.018363 -0.016681
v 0.044930 -0.015800 -0.023297
v 0.046570 -0.021226 -0.013930
v 0.047014 -0.020345 -0.014859
v 0.034952 -0.036845 -0.005984
v 0.043417 -0.027109 0.006299
v 0.045156 -0.024241 0.010059
v 0.027393 -0.042018 -0.015583
v 0.029907 -0.040412 -0.012961
v 0.020649 -0.046026 0.010059
v 0.026235 -0.042640 -0.016815
v 0.025744 -0.043474 -0.015696
v -0.032028 -0.039276 -0.005805
v -0.043975 -0.025841 0.005398
v -0.042316 -0.028546 0.008071
v -0.043096 -0.027295 0.006299
v -0.037604 -0.034239 -0.015696
v -0.038414 -0.033651 -0.014711
v -0.037648 -0.034175 -0.015767
v -0.036641 -0.034586 -0.016681
v -0.039443 -0.028665 -0.020026
v -0.049235 -0.007179 -0.015583
v -0.049016 -0.009571 -0.013340
v -0.048897 -0.011481 -0.010957
v -0.038630 -0.033124 0.015696
v 0.023856 -0.044546 -0.013930
v 0.023995 -0.044521 -0.013770
v 0.011211 -0.048731 0.000346
v 0.009269 -0.049060 -0.001557
v 0.007901 -0.049321 -0.002213
v 0.000048 -0.049963 -0.005805
v 0.001409 -0.049930 -0.007100
v -0.000032 -0.049794 -0.009692
v 0.045989 -0.014907 0.020558
v 0.042124 -0.022275 0.023646
v 0.041739 -0.022615 0.023883
v 0.042463 -0.021986 0.023297
v 0.046015 -0.022590 0.012032
v 0.046790 -0.020919 0.013987
v 0.045727 -0.023165 0.010763
v 0.049924 -0.005205 -0.002213
v 0.046730 -0.020511 0.015830
v 0.046734 -0.020592 0.015767
v 0.047257 -0.019861 0.014712
v -0.049793 -0.003692 0.015696
v -0.046082 0.012430 -0.003550
v -0.043752 0.017309 -0.007100
v -0.044803 0.015183 -0.005984
v -0.049801 -0.001034 0.010763
v -0.048985 0.003776 0.008031
v -0.047396 0.008601 0.005422
v -0.037654 0.025338 0.015767
v 0.026676 0.030242 0.023646
v -0.012683 0.037238 0.020450
v -0.013276 0.037196 0.020167
v 0.047161 0.010602 0.015830
v 0.044930 0.006969 0.023297
v -0.049688 -0.007455 -0.013376
v -0.002732 -0.049872 -0.011012
v -0.017264 -0.047100 0.008031
v -0.013339 -0.048263 0.011914
v -0.014737 -0.047972 0.009371
v -0.013473 -0.048342 0.010059
v -0.008381 -0.049469 0.014712
v -0.008013 -0.049516 -0.013905
v -0.007926 -0.049309 -0.015830
v -0.007772 -0.049375 -0.015696
v -0.003957 -0.046550 -0.023646
v 0.024428 -0.044157 0.015767
v 0.042645 -0.023290 -0.020558
v 0.042891 -0.023538 -0.020026
v 0.046730 0.011770 -0.015767
v 0.038576 -0.033238 -0.001557
v 0.049057 -0.013603 -0.008439
v 0.048490 -0.015979 -0.009828
v 0.048673 -0.014855 -0.011012
v 0.049455 -0.011144 -0.007100
v 0.047050 -0.018370 -0.016815
v 0.035801 -0.035963 -0.005430
v 0.034434 -0.037159 -0.007197
v 0.018781 -0.046720 0.008071
v -0.030962 -0.040048 -0.007100
v -0.043322 -0.026937 0.006072
v -0.041951 -0.029079 0.009371
v -0.041243 -0.030104 0.010059
v -0.048104 -0.015738 -0.005984
v -0.047692 -0.016850 -0.005430
v -0.045801 -0.022093 0.000346
v -0.046493 -0.020405 -0.001557
v -0.047012 -0.019221 -0.002213
v -0.038474 -0.033519 -0.014859
v -0.038137 -0.033953 0.014712
v -0.039037 -0.032849 -0.013770
v -0.040106 -0.031608 0.012032
v -0.035898 -0.035945 -0.013376
v -0.037620 -0.034480 -0.013501
v -0.037888 -0.034205 -0.013905
v -0.036618 -0.034535 -0.016815
v -0.039036 -0.028826 -0.020450
v -0.039461 -0.028445 -0.020167
v -0.037675 -0.034098 -0.015830
v -0.049260 -0.006779 -0.015951
v -0.048967 -0.009968 -0.012961
v 0.021844 -0.045538 0.010763
v 0.046286 -0.014650 0.020167
v 0.045942 -0.021292 0.016681
v 0.046030 -0.015140 0.020450
v 0.046659 -0.021125 -0.013770
v 0.049815 -0.005833 -0.003550
v 0.049868 -0.007752 -0.003522
v 0.049645 -0.008819 -0.005984
v 0.049470 -0.009363 -0.007197
v 0.049402 -0.009546 -0.007598
v 0.049057 -0.012415 -0.009692
v 0.048794 -0.013066 -0.010957
v 0.049180 -0.011171 -0.009042
v -0.049782 -0.003766 0.015767
v -0.045271 0.014089 -0.005430
v -0.044435 0.015640 -0.007197
v -0.044303 0.015791 -0.007598
v -0.048287 0.006202 0.006721
v 0.026975 0.029837 0.023883
v -0.031497 0.025973 0.024000
v 0.042840 0.014305 0.020450
v 0.044875 0.006549 0.023646
v -0.004792 -0.049852 -0.010648
v -0.015392 -0.047778 0.008071
v -0.016871 -0.047278 0.006299
v -0.012213 -0.048668 0.010763
v -0.010841 -0.048954 0.013280
v 0.042840 -0.023136 -0.020450
v 0.039832 -0.031848 0.000346
v 0.049254 -0.012373 -0.005805
v 0.047372 -0.017598 -0.015951
v 0.047499 -0.017215 -0.015583
v 0.048490 -0.013732 -0.012197
v 0.048190 -0.014898 -0.013340
v 0.034254 -0.037260 -0.007598
v 0.016870 -0.047344 0.006072
v 0.019420 -0.046485 0.009371
v -0.048144 -0.015172 -0.007197
v -0.047145 -0.018597 -0.003550
v -0.039088 -0.032728 -0.013930
v -0.038454 -0.033591 -0.014787
v -0.037959 -0.034084 0.014791
v -0.038907 -0.033055 0.013987
v -0.040508 -0.031093 0.010763
v -0.033892 -0.037172 -0.013340
v -0.034093 -0.037575 -0.011012
v -0.048861 -0.010761 -0.012197
v 0.046716 -0.020666 0.015696
v 0.049674 -0.007645 -0.005430
v 0.048028 -0.017096 -0.013376
v 0.047109 -0.020231 -0.014711
v 0.048190 -0.017063 -0.011058
v -0.043484 0.017249 -0.009042
v -0.017296 -0.047135 0.006072
v -0.009849 -0.049151 -0.013770
v 0.048293 -0.014510 -0.012961
v 0.017296 -0.047204 0.006299
v -0.048149 -0.014979 -0.007598
v -0.033097 -0.038505 -0.008439
v -0.035068 -0.036869 -0.009828
v 0.047223 -0.019364 -0.015767
v 0.048293 -0.016703 -0.010648
v 0.047499 -0.019190 -0.013501
v -0.035947 -0.036089 -0.011058
v 0.047164 -0.019424 -0.015830
v 0.047261 -0.019297 -0.015696
v 0.047072 -0.020293 -0.014787
v 0.047372 -0.019539 -0.013905
v -0.035657 -0.036351 -0.010648
f 1 2 3
f 4 2 1
f 5 3 2
f 6 7 2
f 6 2 4
f 8 9 4
f 8 4 1
f 10 11 12
f 13 3 5
f 14 12 15
f 14 15 16
f 14 16 12
f 17 18 19
f 20 21 22
f 23 24 6
f 23 6 4
f 25 26 19
f 25 19 18
f 27 12 28
f 29 10 12
f 30 31 11
f 32 33 12
f 32 34 3
f 32 3 33
f 35 3 34
f 35 34 12
f 36 33 3
f 36 3 13
f 36 13 12
f 36 12 33
f 37 13 5
f 38 13 39
f 40 41 42
f 43 44 16
f 45 46 47
f 45 47 16
f 48 39 13
f 48 49 39
f 50 49 51
f 50 51 16
f 50 39 49
f 52 16 51
f 52 51 49
f 52 49 16
f 53 54 55
f 53 55 18
f 53 18 17
f 56 25 42
f 56 42 41
f 56 41 57
f 58 59 60
f 58 60 16
f 61 55 54
f 62 63 2
f 62 2 7
f 64 2 63
f 64 63 65
f 64 65 66
f 67 42 25
f 67 25 18
f 67 40 42
f 68 69 19
f 70 19 69
f 71 72 73
f 74 75 76
f 77 78 79
f 80 29 12
f 81 11 31
f 81 82 12
f 81 12 11
f 83 34 32
f 83 32 12
f 84 13 38
f 84 15 12
f 84 12 13
f 85 15 84
f 85 84 38
f 85 38 16
f 85 16 15
f 86 76 75
f 87 86 75
f 88 40 67
f 89 40 90
f 91 92 93
f 94 16 95
f 94 95 96
f 94 96 97
f 98 99 95
f 100 43 16
f 100 16 47
f 101 102 44
f 101 44 43
f 101 43 46
f 101 46 102
f 103 46 45
f 103 45 16
f 103 16 46
f 104 105 106
f 107 37 5
f 107 5 2
f 107 2 22
f 107 22 21
f 107 48 13
f 107 13 37
f 108 38 39
f 108 39 50
f 108 50 16
f 108 16 38
f 109 110 18
f 109 18 55
f 111 18 110
f 112 53 17
f 113 25 56
f 113 56 57
f 114 17 19
f 115 17 114
f 116 65 117
f 118 63 62
f 118 65 63
f 119 20 22
f 119 66 65
f 119 65 116
f 120 20 105
f 120 105 104
f 121 122 106
f 123 24 23
f 123 23 124
f 125 126 127
f 125 4 126
f 128 129 130
f 128 130 131
f 132 133 134
f 132 134 135
f 136 1 3
f 137 3 35
f 137 35 12
f 137 12 82
f 138 130 127
f 139 140 141
f 142 143 144
f 145 146 147
f 145 147 144
f 145 144 143
f 148 149 6
f 148 6 24
f 148 24 150
f 151 148 150
f 151 150 152
f 153 26 154
f 155 69 68
f 156 70 69
f 156 71 73
f 157 158 159
f 157 160 158
f 161 73 72
f 161 72 159
f 161 159 158
f 161 158 73
f 162 72 71
f 163 75 74
f 163 74 164
f 165 166 164
f 167 79 78
f 168 169 170
f 168 80 28
f 168 28 12
f 168 12 169
f 171 172 164
f 173 77 174
f 173 174 175
f 173 78 77
f 176 27 28
f 176 28 80
f 176 80 12
f 176 12 27
f 177 29 80
f 177 80 168
f 177 168 178
f 177 178 10
f 177 10 29
f 179 132 135
f 180 34 83
f 180 83 12
f 180 12 34
f 181 133 182
f 183 166 165
f 183 165 172
f 183 172 184
f 183 184 77
f 183 77 79
f 183 79 87
f 183 87 75
f 183 75 166
f 185 87 79
f 186 86 87
f 187 40 88
f 187 188 40
f 189 18 111
f 189 111 190
f 189 190 88
f 189 88 67
f 189 67 18
f 191 88 190
f 191 190 111
f 191 111 110
f 192 193 194
f 192 194 195
f 192 188 187
f 192 187 196
f 192 196 197
f 198 199 200
f 198 200 201
f 202 40 188
f 202 188 91
f 202 91 90
f 202 90 40
f 203 92 91
f 203 91 188
f 203 188 92
f 204 44 95
f 204 95 16
f 204 16 44
f 205 96 206
f 205 207 208
f 209 95 99
f 209 99 206
f 209 206 96
f 209 96 95
f 210 206 99
f 210 99 46
f 211 58 16
f 211 16 94
f 211 94 97
f 211 97 58
f 212 99 98
f 212 98 46
f 212 46 99
f 213 44 102
f 213 102 46
f 213 46 98
f 213 98 95
f 213 95 44
f 214 43 100
f 214 46 43
f 215 187 88
f 215 88 191
f 216 208 207
f 217 218 219
f 220 109 55
f 220 55 61
f 221 222 223
f 224 223 225
f 226 49 227
f 226 46 16
f 226 16 49
f 228 207 210
f 228 210 46
f 228 46 226
f 228 226 227
f 229 227 49
f 229 49 48
f 229 221 223
f 230 120 104
f 231 230 104
f 232 216 231
f 232 231 104
f 232 104 106
f 232 106 233
f 234 223 222
f 234 222 107
f 234 107 21
f 234 21 225
f 234 225 223
f 235 54 53
f 236 59 58
f 236 53 59
f 237 25 113
f 237 154 26
f 237 26 25
f 238 154 237
f 238 237 113
f 238 113 57
f 238 57 154
f 239 169 12
f 240 114 19
f 240 241 242
f 240 242 179
f 240 179 135
f 240 135 134
f 243 17 115
f 244 115 114
f 245 117 118
f 245 246 117
f 247 65 118
f 247 118 117
f 247 117 65
f 248 2 64
f 248 64 66
f 248 66 119
f 248 119 22
f 248 22 2
f 249 105 20
f 249 121 106
f 249 106 105
f 250 126 251
f 250 251 127
f 250 127 126
f 252 199 198
f 252 253 199
f 254 153 255
f 254 255 253
f 256 130 129
f 257 158 160
f 257 160 258
f 259 81 31
f 260 1 136
f 261 262 263
f 264 140 139
f 265 264 266
f 267 268 144
f 267 144 147
f 267 147 269
f 270 142 144
f 271 143 142
f 271 272 143
f 273 274 275
f 276 275 274
f 277 140 278
f 279 251 126
f 279 126 4
f 279 4 9
f 280 90 91
f 280 91 93
f 281 90 280
f 282 283 93
f 282 93 92
f 284 62 7
f 285 201 200
f 286 57 41
f 287 253 255
f 287 255 153
f 287 288 200
f 287 200 199
f 289 150 290
f 289 290 291
f 292 68 19
f 292 19 26
f 292 26 153
f 293 155 156
f 293 156 69
f 293 69 155
f 294 295 71
f 294 71 156
f 294 156 155
f 294 155 295
f 296 72 297
f 296 297 159
f 296 159 72
f 298 299 300
f 298 300 301
f 298 301 302
f 298 302 157
f 298 157 159
f 298 159 297
f 298 297 303
f 298 303 299
f 304 74 76
f 304 164 74
f 305 164 166
f 305 166 75
f 305 75 163
f 305 163 164
f 306 172 165
f 306 165 164
f 306 164 172
f 307 114 240
f 307 240 134
f 307 244 114
f 308 115 244
f 308 244 307
f 309 184 172
f 309 172 171
f 309 171 310
f 309 310 174
f 309 174 77
f 309 77 184
f 311 179 242
f 311 312 132
f 313 70 156
f 313 156 73
f 313 73 241
f 313 241 240
f 313 240 19
f 313 19 70
f 314 143 272
f 315 145 143
f 315 181 182
f 315 182 133
f 316 76 86
f 317 87 185
f 317 318 316
f 317 316 86
f 317 86 186
f 317 186 87
f 319 317 185
f 319 185 79
f 319 79 167
f 319 167 78
f 319 78 320
f 319 320 321
f 322 323 192
f 322 192 197
f 324 325 326
f 324 198 201
f 324 201 325
f 327 96 205
f 327 205 208
f 327 97 96
f 328 205 206
f 328 206 210
f 328 210 207
f 328 207 205
f 329 47 46
f 329 46 214
f 329 214 100
f 329 100 47
f 330 246 196
f 331 332 333
f 331 333 334
f 335 336 337
f 338 336 339
f 338 340 336
f 341 342 336
f 343 219 344
f 343 344 342
f 343 342 341
f 343 217 219
f 345 197 196
f 346 347 20
f 346 20 119
f 346 119 116
f 348 335 337
f 348 337 336
f 349 61 350
f 351 217 343
f 351 343 340
f 351 340 338
f 351 338 339
f 352 218 220
f 352 220 61
f 352 61 349
f 353 107 222
f 353 222 221
f 353 221 229
f 353 229 48
f 353 48 107
f 354 106 355
f 354 233 106
f 356 218 352
f 356 352 216
f 356 216 232
f 356 232 233
f 356 233 354
f 356 354 355
f 356 355 357
f 356 358 219
f 356 219 218
f 359 227 229
f 359 229 223
f 360 228 227
f 360 227 359
f 360 359 223
f 360 223 224
f 360 224 225
f 360 225 230
f 360 230 207
f 360 207 228
f 361 120 230
f 361 230 225
f 361 225 21
f 361 21 20
f 361 20 120
f 362 230 231
f 362 231 216
f 362 216 207
f 362 207 230
f 363 350 235
f 363 235 53
f 363 53 236
f 364 61 54
f 364 54 235
f 364 235 350
f 364 350 61
f 365 350 363
f 365 363 236
f 365 236 58
f 365 58 97
f 366 115 308
f 366 112 17
f 366 17 243
f 366 243 115
f 367 16 60
f 368 16 367
f 368 12 16
f 369 370 308
f 369 12 370
f 371 193 192
f 371 192 323
f 371 194 193
f 372 121 249
f 372 249 20
f 372 20 121
f 373 130 374
f 375 376 377
f 375 374 130
f 378 326 325
f 378 325 201
f 379 380 381
f 382 123 124
f 382 124 381
f 383 128 131
f 384 4 125
f 384 125 127
f 384 127 130
f 384 130 256
f 384 256 23
f 384 23 4
f 385 242 241
f 385 241 73
f 385 73 257
f 385 311 242
f 386 158 257
f 386 257 73
f 386 73 158
f 387 164 304
f 387 304 76
f 388 389 9
f 388 9 8
f 390 1 391
f 392 178 168
f 392 168 175
f 392 175 174
f 392 174 310
f 392 310 171
f 392 10 178
f 393 394 395
f 393 395 31
f 396 1 260
f 396 260 136
f 396 136 3
f 396 3 137
f 396 137 82
f 396 82 81
f 396 81 259
f 397 259 31
f 397 31 395
f 398 395 394
f 399 400 263
f 399 263 303
f 399 303 297
f 399 297 72
f 399 72 162
f 401 261 263
f 402 147 146
f 402 146 145
f 402 264 269
f 402 269 147
f 403 267 269
f 403 269 265
f 403 265 274
f 404 264 265
f 404 265 269
f 404 269 264
f 405 271 142
f 405 142 270
f 406 266 264
f 406 264 407
f 406 407 276
f 406 276 274
f 406 274 265
f 406 265 266
f 408 139 276
f 408 276 407
f 408 407 264
f 408 264 139
f 409 410 276
f 409 276 139
f 409 139 141
f 411 275 276
f 411 412 388
f 411 388 273
f 411 273 275
f 413 258 160
f 413 277 278
f 413 278 258
f 414 138 127
f 414 127 251
f 414 251 415
f 414 415 416
f 414 416 138
f 417 141 140
f 417 140 277
f 418 251 279
f 418 279 9
f 418 9 389
f 419 283 420
f 419 420 421
f 419 421 93
f 419 93 283
f 422 192 195
f 422 195 194
f 422 194 423
f 422 423 282
f 422 282 92
f 422 92 188
f 422 188 192
f 424 6 149
f 424 149 425
f 426 288 285
f 426 285 200
f 426 200 288
f 427 41 40
f 427 40 89
f 427 89 90
f 427 90 281
f 428 427 281
f 429 57 286
f 429 154 57
f 430 253 287
f 430 287 199
f 430 199 253
f 431 432 290
f 433 326 432
f 433 432 431
f 433 431 290
f 433 290 150
f 433 150 434
f 435 150 289
f 435 289 436
f 435 436 150
f 437 302 301
f 437 301 300
f 437 300 299
f 437 262 261
f 437 261 401
f 437 401 377
f 438 162 439
f 440 321 308
f 440 308 307
f 440 441 319
f 440 319 321
f 442 170 320
f 442 320 78
f 442 78 173
f 442 173 175
f 442 175 168
f 442 168 170
f 443 179 311
f 443 311 132
f 443 132 179
f 444 145 315
f 444 315 133
f 444 133 402
f 444 402 145
f 445 446 181
f 445 181 315
f 445 315 143
f 445 143 314
f 447 448 316
f 447 316 318
f 447 318 448
f 449 318 317
f 449 317 319
f 449 319 441
f 450 451 198
f 450 198 324
f 450 324 326
f 450 326 451
f 452 246 330
f 452 330 334
f 452 334 333
f 452 333 453
f 454 110 109
f 454 109 220
f 454 220 331
f 454 191 110
f 455 332 331
f 455 331 220
f 455 220 332
f 456 340 343
f 456 343 341
f 456 341 336
f 456 336 340
f 457 358 356
f 457 356 357
f 457 357 355
f 457 344 219
f 457 219 358
f 458 246 245
f 458 245 345
f 458 345 196
f 458 196 246
f 459 336 347
f 459 347 346
f 459 346 116
f 459 116 117
f 459 117 246
f 459 246 336
f 460 453 348
f 460 348 336
f 460 336 246
f 461 348 453
f 461 453 333
f 462 351 339
f 462 339 336
f 462 336 335
f 463 332 220
f 463 220 218
f 464 365 97
f 464 97 327
f 464 327 208
f 464 208 216
f 465 366 308
f 465 308 370
f 465 466 12
f 465 12 467
f 468 467 12
f 468 12 368
f 469 368 367
f 470 169 239
f 470 239 12
f 470 12 369
f 471 369 308
f 472 322 197
f 472 371 323
f 472 323 322
f 473 194 371
f 473 371 472
f 473 472 474
f 473 474 475
f 473 423 194
f 476 131 130
f 476 130 373
f 476 373 374
f 477 478 479
f 480 326 433
f 480 433 434
f 480 434 380
f 480 380 479
f 480 479 326
f 481 434 150
f 481 150 24
f 481 24 123
f 481 123 382
f 481 382 381
f 482 326 483
f 482 483 252
f 482 252 198
f 482 198 451
f 482 451 326
f 484 485 252
f 484 252 483
f 484 483 326
f 484 326 485
f 486 326 378
f 486 378 201
f 486 432 326
f 487 292 153
f 487 153 488
f 487 295 155
f 487 155 68
f 487 68 292
f 489 254 488
f 489 488 153
f 489 153 254
f 490 295 487
f 490 487 488
f 491 380 379
f 491 379 381
f 491 256 129
f 492 493 383
f 494 385 257
f 494 257 258
f 494 258 278
f 494 278 140
f 495 8 1
f 496 10 392
f 496 392 171
f 496 171 164
f 497 1 396
f 497 395 398
f 497 398 391
f 497 391 1
f 498 395 497
f 498 497 396
f 498 396 259
f 498 259 397
f 498 397 395
f 499 398 394
f 499 394 496
f 499 496 164
f 500 400 399
f 500 399 162
f 500 162 400
f 501 140 264
f 501 264 402
f 501 402 133
f 501 133 132
f 501 132 312
f 502 267 403
f 502 403 503
f 502 503 405
f 504 268 405
f 504 405 270
f 504 270 144
f 504 144 268
f 505 390 391
f 505 506 390
f 507 273 388
f 507 388 508
f 507 508 405
f 509 403 274
f 510 271 405
f 510 405 272
f 510 272 271
f 511 314 272
f 511 445 314
f 512 410 409
f 512 389 388
f 512 388 410
f 513 410 388
f 513 388 412
f 513 412 411
f 513 411 276
f 513 276 410
f 514 413 160
f 515 251 418
f 515 418 415
f 515 415 251
f 516 415 418
f 516 418 389
f 516 389 512
f 516 512 409
f 516 409 141
f 516 141 417
f 516 417 277
f 516 277 416
f 516 416 415
f 517 285 288
f 518 421 420
f 518 280 93
f 518 93 421
f 519 520 420
f 521 522 523
f 521 151 152
f 524 149 148
f 524 148 151
f 524 151 521
f 524 521 523
f 524 425 149
f 525 284 7
f 526 284 527
f 528 474 472
f 528 284 475
f 528 475 474
f 529 286 41
f 529 41 427
f 529 427 428
f 530 376 375
f 530 375 130
f 530 130 138
f 530 138 416
f 530 416 437
f 530 437 377
f 530 377 376
f 531 437 416
f 531 416 277
f 532 533 437
f 532 437 299
f 532 299 303
f 532 303 533
f 534 262 437
f 534 437 533
f 534 533 303
f 534 303 263
f 534 263 262
f 535 162 438
f 535 438 400
f 535 400 162
f 536 375 377
f 536 377 401
f 536 401 263
f 536 263 400
f 536 400 438
f 537 374 375
f 537 375 536
f 538 307 539
f 540 539 307
f 540 307 134
f 540 134 133
f 541 538 539
f 542 543 446
f 542 446 445
f 542 445 511
f 542 511 544
f 545 387 76
f 545 164 387
f 546 547 449
f 546 449 441
f 546 441 541
f 546 541 547
f 548 318 449
f 548 449 547
f 549 454 331
f 549 331 334
f 549 334 330
f 549 330 196
f 550 342 344
f 550 336 342
f 551 552 344
f 551 344 457
f 551 457 355
f 551 355 106
f 551 106 122
f 553 452 453
f 553 453 460
f 553 460 246
f 553 246 452
f 554 351 462
f 554 462 335
f 554 335 348
f 554 348 461
f 554 461 333
f 554 333 332
f 555 218 217
f 556 365 464
f 556 464 216
f 556 216 352
f 556 352 349
f 556 349 350
f 556 350 365
f 557 466 465
f 557 12 466
f 558 469 367
f 558 367 60
f 559 469 558
f 559 558 60
f 559 60 59
f 560 169 470
f 560 170 169
f 561 320 170
f 561 170 560
f 561 560 470
f 562 345 245
f 562 245 526
f 562 526 527
f 562 527 472
f 562 472 197
f 562 197 345
f 563 383 131
f 563 131 476
f 563 476 374
f 563 374 537
f 563 537 536
f 563 536 438
f 563 438 439
f 563 492 383
f 564 253 252
f 564 252 485
f 564 254 253
f 565 488 254
f 565 254 564
f 565 564 566
f 565 566 567
f 565 567 478
f 568 71 295
f 568 295 490
f 568 490 477
f 568 477 479
f 568 479 569
f 568 569 493
f 568 493 492
f 568 492 162
f 568 162 71
f 570 434 481
f 570 481 381
f 570 381 380
f 570 380 434
f 571 380 491
f 571 491 129
f 571 129 128
f 571 128 383
f 571 383 493
f 571 493 569
f 571 569 479
f 571 479 380
f 572 256 491
f 572 491 381
f 572 381 124
f 572 124 23
f 572 23 256
f 573 312 311
f 573 311 385
f 573 385 494
f 573 494 140
f 573 140 501
f 573 501 312
f 574 390 506
f 574 495 1
f 574 1 390
f 575 508 388
f 575 388 8
f 575 8 495
f 576 393 31
f 576 31 30
f 576 30 11
f 576 11 10
f 576 10 496
f 576 496 394
f 576 394 393
f 577 267 502
f 577 502 405
f 578 318 579
f 578 579 580
f 578 580 581
f 578 581 448
f 582 506 505
f 583 503 403
f 583 403 509
f 583 509 405
f 583 405 503
f 584 507 405
f 584 405 509
f 584 509 274
f 584 274 273
f 585 437 531
f 585 531 514
f 586 291 290
f 586 290 432
f 586 432 486
f 586 486 201
f 586 201 285
f 587 520 519
f 587 519 280
f 587 280 518
f 587 518 420
f 587 420 520
f 588 280 519
f 588 519 589
f 588 589 281
f 588 281 280
f 590 420 591
f 590 591 423
f 590 423 473
f 592 420 283
f 592 283 282
f 592 282 593
f 592 593 420
f 594 420 593
f 594 593 282
f 594 282 423
f 595 284 525
f 596 286 529
f 597 420 522
f 597 589 519
f 597 519 420
f 598 428 281
f 598 281 589
f 599 600 521
f 599 521 152
f 601 522 521
f 601 521 600
f 601 600 596
f 601 596 522
f 602 425 524
f 602 524 523
f 602 523 425
f 603 425 525
f 603 424 425
f 604 6 424
f 604 424 603
f 604 603 525
f 604 525 7
f 604 7 6
f 605 523 595
f 605 595 525
f 605 525 425
f 605 425 523
f 606 118 62
f 606 62 284
f 606 284 526
f 606 526 245
f 606 245 118
f 607 527 284
f 607 528 472
f 607 472 527
f 608 413 514
f 608 514 531
f 608 531 277
f 608 277 413
f 609 307 538
f 609 538 441
f 609 441 440
f 609 440 307
f 610 547 541
f 610 541 539
f 610 539 540
f 610 540 133
f 610 133 181
f 611 538 541
f 611 541 441
f 611 441 538
f 612 544 511
f 612 511 272
f 612 272 405
f 613 164 545
f 614 316 448
f 614 448 581
f 614 581 615
f 614 613 545
f 614 545 76
f 614 76 316
f 616 615 581
f 616 617 499
f 616 499 164
f 616 164 615
f 618 581 580
f 618 580 619
f 620 499 617
f 620 617 616
f 620 616 581
f 620 581 618
f 620 618 619
f 620 619 398
f 620 398 499
f 621 215 191
f 621 191 454
f 621 454 549
f 621 549 196
f 621 196 187
f 621 187 215
f 622 552 336
f 622 336 550
f 622 550 344
f 622 344 552
f 623 336 552
f 623 552 551
f 623 624 347
f 623 347 336
f 625 463 218
f 625 218 555
f 625 555 217
f 625 217 351
f 625 351 554
f 625 554 332
f 625 332 463
f 626 370 12
f 626 12 557
f 626 557 465
f 626 465 370
f 627 469 559
f 627 559 59
f 627 59 53
f 627 53 112
f 627 112 366
f 627 366 465
f 627 465 467
f 627 467 468
f 627 468 368
f 627 368 469
f 628 471 561
f 628 561 470
f 628 470 369
f 628 369 471
f 629 308 321
f 629 321 320
f 629 320 561
f 629 561 471
f 629 471 308
f 630 492 563
f 630 563 439
f 630 439 162
f 630 162 492
f 631 566 564
f 631 632 326
f 631 567 566
f 633 478 567
f 633 479 478
f 634 477 490
f 634 490 488
f 634 488 565
f 634 565 478
f 634 478 477
f 635 574 506
f 635 506 575
f 635 575 495
f 635 495 574
f 636 267 577
f 636 577 405
f 636 405 268
f 636 268 267
f 637 318 578
f 637 578 448
f 637 448 318
f 638 505 391
f 638 391 398
f 638 398 639
f 640 398 619
f 641 639 398
f 642 507 584
f 642 584 273
f 642 273 507
f 643 585 157
f 643 157 302
f 643 302 437
f 644 157 585
f 644 585 514
f 644 514 160
f 644 160 157
f 645 420 590
f 645 590 473
f 645 473 475
f 646 591 420
f 646 420 594
f 646 594 423
f 646 423 591
f 647 284 595
f 647 595 420
f 647 420 645
f 647 475 284
f 648 522 420
f 648 420 595
f 648 595 523
f 648 523 522
f 649 287 153
f 649 153 154
f 649 154 429
f 649 429 286
f 649 286 596
f 649 596 288
f 649 288 287
f 650 428 598
f 650 598 522
f 650 522 596
f 650 596 529
f 650 529 428
f 651 597 522
f 651 522 598
f 651 598 589
f 651 589 597
f 652 599 152
f 652 152 150
f 652 150 436
f 653 289 291
f 653 291 586
f 653 599 652
f 653 652 436
f 653 436 289
f 654 528 607
f 654 607 284
f 654 284 528
f 655 547 610
f 655 610 181
f 655 181 446
f 655 446 543
f 655 543 548
f 655 548 547
f 656 164 613
f 656 613 614
f 656 614 615
f 656 615 164
f 657 639 641
f 657 641 580
f 658 548 543
f 658 543 542
f 658 542 544
f 658 544 612
f 658 612 405
f 659 657 580
f 659 318 548
f 660 122 121
f 660 121 20
f 660 20 347
f 660 347 624
f 660 624 623
f 660 623 551
f 660 551 122
f 661 632 631
f 661 631 564
f 661 564 485
f 661 485 326
f 661 326 632
f 662 567 631
f 662 631 326
f 662 326 479
f 662 479 633
f 662 633 567
f 663 640 619
f 663 619 580
f 663 580 641
f 663 641 398
f 663 398 640
f 664 585 643
f 664 643 437
f 664 437 585
f 665 475 647
f 665 647 645
f 665 645 475
f 666 517 288
f 666 288 667
f 666 667 653
f 666 653 586
f 666 586 285
f 666 285 517
f 668 506 582
f 668 582 505
f 669 579 318
f 669 318 659
f 669 659 580
f 669 580 579
f 670 657 659
f 670 659 548
f 671 596 600
f 671 600 599
f 671 599 653
f 671 288 596
f 672 575 506
f 672 506 668
f 672 668 508
f 672 508 575
f 673 638 639
f 673 639 657
f 673 657 670
f 673 658 668
f 673 668 505
f 673 505 638
f 674 508 668
f 674 668 658
f 674 658 405
f 674 405 508
f 675 658 673
f 675 673 670
f 675 670 548
f 675 548 658
f 676 667 288
f 676 288 671
f 676 671 653
f 676 653 667
