# Normalized convex hull collision mesh - generated by scripts/generate-collision-meshes.mjs (units: meters)
v -0.007644 -0.010269 -0.012500
v -0.010340 -0.006863 -0.012500
v 0.006928 -0.010341 -0.012500
v -0.008388 0.010021 -0.012500
v 0.023740 -0.006944 0.012500
v -0.019572 0.015124 0.012500
v 0.013941 -0.020432 0.012500
v 0.013275 -0.004787 -0.012500
v -0.020432 -0.013941 0.012500
v -0.006944 0.023740 0.012500
v -0.009609 -0.009055 -0.012500
v 0.008504 0.009964 -0.012500
v -0.010269 0.007644 -0.012500
v 0.009179 -0.009506 -0.012500
v -0.006944 -0.023740 0.012500
v 0.020432 0.013941 0.012500
v -0.006863 -0.010340 -0.012500
v -0.009055 -0.009609 -0.012500
v 0.016086 0.000638 -0.012500
v -0.009609 0.009055 -0.012500
v 0.020432 -0.013941 0.012500
v 0.009725 -0.008899 -0.012500
v 0.007739 -0.010248 -0.012500
v 0.008307 -0.027933 -0.000894
v 0.009698 -0.027481 -0.000894
v 0.008485 -0.028482 0.000950
v 0.022428 -0.017275 -0.002450
v 0.017275 -0.022428 -0.002450
v 0.022468 -0.017228 -0.002458
v -0.000732 -0.026089 -0.004406
v -0.010269 -0.007644 -0.012500
v -0.020677 -0.015927 -0.004406
v -0.020591 -0.015864 0.012272
v -0.021552 -0.016563 0.011558
v -0.015864 -0.020591 0.012272
v -0.021451 -0.014681 0.012272
v -0.013941 -0.020432 0.012500
v 0.015379 0.022412 0.011558
v 0.008725 0.024485 0.012272
v 0.014681 0.021451 0.012272
v 0.008336 0.023288 0.012500
v -0.008388 -0.010021 -0.012500
v -0.008758 -0.024586 -0.004406
v -0.020677 0.015927 -0.004406
v -0.021537 0.014743 -0.004406
v -0.010021 0.008388 -0.012500
v -0.022468 0.017228 -0.002458
v -0.021631 0.016620 -0.003652
v -0.023328 0.016044 -0.002458
v -0.023139 0.017716 -0.000894
v 0.024724 0.000732 0.012500
v 0.024700 0.017042 0.002965
v 0.023841 0.018225 0.002965
v 0.023830 0.018218 0.005035
v 0.016086 0.004787 -0.012500
v 0.027268 0.000732 -0.003652
v 0.006944 -0.023740 0.012500
v -0.016563 -0.021552 0.011558
v -0.015379 -0.022412 0.011558
v -0.022401 -0.017180 0.010399
v -0.015996 -0.023261 0.010399
v 0.009877 -0.028030 0.000950
v 0.010018 -0.028268 0.005034
v 0.010022 -0.028280 0.002966
v 0.016981 -0.024720 0.005034
v 0.016795 -0.024465 0.007037
v 0.016443 -0.023980 0.008858
v 0.009921 -0.027968 0.007037
v 0.023288 -0.008336 0.012500
v 0.028303 -0.000732 -0.002458
v 0.028303 0.000732 -0.002458
v 0.008504 -0.009964 -0.012500
v 0.021631 -0.016620 -0.003652
v 0.022491 -0.015436 -0.003652
v 0.000732 -0.028303 -0.002458
v -0.000732 -0.028303 -0.002458
v 0.000732 -0.027268 -0.003652
v 0.000732 -0.029133 -0.000894
v 0.007731 -0.026160 -0.003652
v 0.007366 -0.025038 -0.004406
v 0.009122 -0.025708 -0.003652
v 0.017762 -0.023099 -0.000888
v -0.023049 -0.017725 0.008858
v -0.023089 -0.017679 0.008864
v -0.008571 -0.028745 0.005035
v -0.008515 -0.028770 0.002966
v -0.008511 -0.028758 0.005034
v -0.000793 -0.029980 0.005034
v -0.000793 -0.029993 0.002966
v -0.008425 -0.028495 0.000953
v 0.000732 -0.026089 -0.004406
v -0.007366 -0.025038 -0.004406
v -0.009122 -0.025708 -0.003652
v -0.021631 -0.016620 -0.003652
v -0.016620 -0.021631 -0.003652
v -0.015927 -0.020677 -0.004406
v -0.026089 -0.000732 -0.004406
v -0.010340 0.006863 -0.012500
v -0.024586 0.008758 -0.004406
v -0.022491 0.015436 -0.003652
v -0.026692 0.009442 -0.002458
v -0.023288 -0.008336 0.012500
v -0.024465 -0.016795 0.007037
v -0.024434 -0.016848 0.007041
v -0.023980 -0.016443 0.008858
v -0.029993 -0.000793 0.002966
v -0.029980 -0.000793 0.005034
v -0.030000 -0.000732 0.002965
v -0.028770 -0.008515 0.002966
v -0.028758 -0.008575 0.002965
v -0.028745 -0.008571 0.005035
v -0.028495 -0.008425 0.000953
v -0.023999 0.016532 -0.000894
v -0.022412 0.015379 0.011558
v -0.020591 0.015864 0.012272
v -0.021552 0.016563 0.011558
v -0.019572 -0.015124 0.012500
v -0.014681 -0.021451 0.012272
v -0.015864 0.020591 0.012272
v -0.014681 0.021451 0.012272
v -0.015379 0.022412 0.011558
v 0.006928 0.010341 -0.012500
v -0.009055 0.009609 -0.012500
v 0.015864 0.020591 0.012272
v 0.009092 0.025616 0.011558
v 0.015996 0.023261 0.010399
v 0.008025 0.027066 0.010399
v 0.007701 0.026068 0.011558
v 0.000732 0.028221 0.010399
v -0.000732 0.029071 0.008864
v -0.000732 0.028221 0.010399
v -0.000732 0.027172 0.011558
v 0.007333 0.024937 0.012272
v 0.000732 0.027172 0.011558
v 0.015124 0.019572 0.012500
v 0.016086 -0.004787 -0.012500
v 0.026160 -0.007731 -0.003652
v 0.025708 -0.009122 -0.003652
v -0.017228 0.022468 -0.002458
v 0.023740 0.006944 0.012500
v 0.027172 -0.000732 0.011558
v 0.028221 -0.000732 0.010399
v 0.027172 0.000732 0.011558
v 0.025983 -0.000732 0.012272
v 0.027066 0.008025 0.010399
v 0.026068 0.007701 0.011558
v 0.029987 0.000732 0.005035
v 0.030000 -0.000732 0.002965
v 0.030000 0.000732 0.002965
v 0.028306 0.009966 0.002965
v 0.028293 0.009962 0.005035
v 0.028745 0.008571 0.005035
v 0.023606 0.018055 0.000950
v 0.023799 0.018271 0.002966
v -0.000732 -0.025983 0.012272
v -0.007333 -0.024937 0.012272
v 0.008336 -0.023288 0.012500
v 0.008725 -0.024485 0.012272
v -0.023261 -0.015996 0.010399
v -0.017180 -0.022401 0.010399
v 0.009962 -0.028293 0.005035
v 0.016848 -0.024434 0.007041
v 0.017034 -0.024690 0.005035
v 0.018218 -0.023830 0.005035
v 0.008515 -0.028770 0.002966
v 0.008571 -0.028745 0.005035
v 0.008511 -0.028758 0.005034
v 0.028217 -0.000793 0.010391
v 0.029071 -0.000732 0.008864
v 0.023533 -0.018078 0.007037
v 0.018078 -0.023533 0.007037
v 0.023789 -0.018263 0.005034
v 0.023830 -0.018218 0.005035
v 0.018263 -0.023789 0.005034
v 0.000732 -0.028221 0.010399
v 0.000732 -0.027172 0.011558
v -0.000732 -0.028221 0.010399
v 0.014681 -0.021451 0.012272
v 0.015864 -0.020591 0.012272
v 0.015124 -0.019572 0.012500
v 0.027268 -0.000732 -0.003652
v 0.027144 -0.008050 -0.002458
v 0.027158 -0.007991 -0.002450
v 0.027933 -0.008307 -0.000894
v 0.026692 0.009442 -0.002458
v 0.027144 0.008050 -0.002458
v 0.025708 0.009122 -0.003652
v 0.026160 0.007731 -0.003652
v 0.029710 0.000732 0.000950
v 0.008758 -0.024586 -0.004406
v 0.015436 -0.022491 -0.003652
v 0.014743 -0.021537 -0.004406
v 0.015927 -0.020677 -0.004406
v 0.017228 -0.022468 -0.002458
v 0.016044 -0.023328 -0.002458
v 0.009442 -0.026692 -0.002458
v 0.000793 -0.028299 -0.002450
v 0.017716 -0.023139 -0.000894
v 0.018055 -0.023606 0.000950
v 0.016871 -0.024466 0.000950
v 0.018100 -0.023565 0.000953
v 0.008425 -0.028495 0.000953
v 0.000793 -0.029993 0.002966
v 0.000793 -0.029703 0.000953
v -0.009442 -0.026692 -0.002458
v -0.008050 -0.027144 -0.002458
v -0.008307 -0.027933 -0.000894
v -0.007991 -0.027158 -0.002450
v -0.000793 -0.028299 -0.002450
v -0.023574 -0.018032 0.007041
v -0.000793 -0.029665 0.007037
v -0.000793 -0.028217 0.010391
v -0.008025 -0.027066 0.010399
v -0.008247 -0.027947 -0.000888
v -0.000793 -0.029127 -0.000888
v -0.007731 -0.026160 -0.003652
v -0.010021 -0.008388 -0.012500
v -0.024586 -0.008758 -0.004406
v -0.022468 -0.017228 -0.002458
v -0.023139 -0.017716 -0.000894
v -0.023328 -0.016044 -0.002458
v -0.021537 -0.014743 -0.004406
v -0.014743 -0.021537 -0.004406
v -0.028293 -0.009962 0.005035
v -0.028280 -0.010022 0.002966
v -0.028268 -0.010018 0.005034
v -0.027993 -0.009865 0.007041
v -0.028303 0.000732 -0.002458
v -0.026160 0.007731 -0.003652
v -0.027268 0.000732 -0.003652
v -0.028303 -0.000732 -0.002458
v -0.029133 0.000732 -0.000894
v -0.026089 0.000732 -0.004406
v -0.025708 0.009122 -0.003652
v -0.024485 -0.008725 0.012272
v -0.024937 -0.007333 0.012272
v -0.023740 0.006944 0.012500
v -0.028221 0.000732 0.010399
v -0.027172 0.000732 0.011558
v -0.027066 0.008025 0.010399
v -0.029071 -0.000732 0.008864
v -0.028221 -0.000732 0.010399
v -0.016795 -0.024465 0.007037
v -0.016848 -0.024434 0.007041
v -0.016981 -0.024720 0.005034
v -0.010018 -0.028268 0.005034
v -0.009921 -0.027968 0.007037
v -0.023799 -0.018271 0.002966
v -0.018271 -0.023799 0.002966
v -0.018263 -0.023789 0.005034
v -0.029710 -0.000732 0.000950
v -0.029987 0.000732 0.005035
v -0.029671 0.000732 0.007041
v -0.029980 0.000793 0.005034
v -0.015436 -0.022491 -0.003652
v -0.016044 -0.023328 -0.002458
v -0.016532 -0.023999 -0.000894
v -0.017716 -0.023139 -0.000894
v -0.023999 -0.016532 -0.000894
v -0.024030 -0.016479 -0.000888
v -0.023565 -0.018100 0.000953
v -0.009122 0.025708 -0.003652
v -0.015436 0.022491 -0.003652
v -0.009442 0.026692 -0.002458
v -0.007731 0.026160 -0.003652
v -0.007366 0.025038 -0.004406
v -0.028268 0.010018 0.005034
v -0.024465 0.016795 0.007037
v -0.024720 0.016981 0.005034
v -0.028306 0.009966 0.002965
v -0.028745 0.008571 0.005035
v -0.028293 0.009962 0.005035
v -0.021451 0.014681 0.012272
v -0.024724 -0.000732 0.012500
v -0.027172 -0.000732 0.011558
v -0.026068 -0.007701 0.011558
v -0.025983 -0.000732 0.012272
v -0.027066 -0.008025 0.010399
v -0.008336 -0.023288 0.012500
v -0.015124 -0.019572 0.012500
v -0.008725 -0.024485 0.012272
v -0.013941 0.020432 0.012500
v -0.008725 0.024485 0.012272
v -0.009092 0.025616 0.011558
v -0.008025 0.027066 0.010399
v 0.007739 0.010248 -0.012500
v 0.000732 0.026089 -0.004406
v -0.006863 0.010340 -0.012500
v 0.007731 0.026160 -0.003652
v 0.000732 0.028303 -0.002458
v 0.008050 0.027144 -0.002458
v 0.009122 0.025708 -0.003652
v 0.023533 0.018078 0.007037
v 0.018078 0.023533 0.007037
v 0.017725 0.023049 0.008858
v 0.017227 0.022362 0.010391
v 0.017180 0.022401 0.010399
v 0.022401 0.017180 0.010399
v 0.022362 0.017227 0.010391
v 0.016563 0.021552 0.011558
v 0.017679 0.023089 0.008864
v 0.000732 0.025983 0.012272
v -0.000732 0.024724 0.012500
v 0.006944 0.023740 0.012500
v 0.013941 0.020432 0.012500
v -0.015927 0.020677 -0.004406
v -0.022428 0.017275 -0.002450
v -0.016044 0.023328 -0.002458
v -0.016620 0.021631 -0.003652
v 0.024937 -0.007333 0.012272
v 0.025983 0.000732 0.012272
v 0.024724 -0.000732 0.012500
v 0.023288 0.008336 0.012500
v 0.024485 0.008725 0.012272
v 0.028005 -0.009933 0.000953
v 0.028280 -0.010022 0.002966
v 0.024731 -0.016988 0.002966
v 0.024496 -0.016818 0.000953
v 0.028758 -0.008575 0.002965
v 0.028482 -0.008485 0.000950
v 0.028770 -0.008515 0.002966
v 0.028458 -0.008413 0.007037
v 0.028758 -0.008511 0.005034
v 0.029665 -0.000793 0.007037
v 0.029671 -0.000732 0.007041
v 0.029671 0.000732 0.007041
v 0.027888 0.008228 0.008858
v 0.029065 0.000793 0.008858
v 0.029665 0.000793 0.007037
v 0.028458 0.008413 0.007037
v 0.028221 0.000732 0.010399
v 0.028495 0.008425 0.000953
v 0.028482 0.008485 0.000950
v 0.028770 0.008515 0.002966
v 0.027947 0.008247 -0.000888
v 0.028758 0.008575 0.002965
v 0.029980 0.000793 0.005034
v 0.028280 0.010022 0.002966
v 0.015927 0.020677 -0.004406
v 0.014743 0.021537 -0.004406
v 0.009179 0.009506 -0.012500
v 0.023565 0.018100 0.000953
v 0.018271 0.023799 0.002966
v 0.023139 0.017716 -0.000894
v 0.007333 -0.024937 0.012272
v 0.007701 -0.026068 0.011558
v 0.009092 -0.025616 0.011558
v 0.000732 -0.024724 0.012500
v -0.000732 -0.027172 0.011558
v -0.007701 -0.026068 0.011558
v -0.009473 -0.026591 0.010391
v -0.009417 -0.026614 0.010399
v -0.023949 -0.016496 0.008864
v -0.022412 -0.015379 0.011558
v -0.022362 -0.017227 0.010391
v -0.017725 -0.023049 0.008858
v 0.017042 -0.024700 0.002965
v 0.018225 -0.023841 0.002965
v 0.009933 -0.028005 0.000953
v 0.009966 -0.028306 0.002965
v 0.018032 -0.023574 0.007041
v 0.017679 -0.023089 0.008864
v 0.008575 -0.028758 0.002965
v 0.023799 -0.018271 0.002966
v 0.023606 -0.018055 0.000950
v 0.023841 -0.018225 0.002965
v 0.024700 -0.017042 0.002965
v 0.023574 -0.018032 0.007041
v 0.024434 -0.016848 0.007041
v 0.024720 -0.016981 0.005034
v 0.016496 -0.023949 0.008864
v 0.017725 -0.023049 0.008858
v 0.009473 -0.026591 0.010391
v 0.009417 -0.026614 0.010399
v 0.009679 -0.027422 0.008864
v 0.008025 -0.027066 0.010399
v 0.024485 -0.008725 0.012272
v 0.025616 -0.009092 0.011558
v 0.027066 -0.008025 0.010399
v 0.026614 -0.009417 0.010399
v 0.023261 -0.015996 0.010399
v 0.026591 -0.009473 0.010391
v 0.023139 -0.017716 -0.000894
v 0.023999 -0.016532 -0.000894
v 0.023328 -0.016044 -0.002458
v 0.027481 -0.009698 -0.000894
v 0.024466 -0.016871 0.000950
v 0.027158 0.007991 -0.002450
v 0.027933 0.008307 -0.000894
v 0.028299 0.000793 -0.002450
v 0.029127 0.000793 -0.000888
v 0.029703 0.000793 0.000953
v 0.029133 -0.000732 -0.000894
v 0.029703 -0.000793 0.000953
v 0.029127 -0.000793 -0.000888
v 0.028299 -0.000793 -0.002450
v 0.027947 -0.008247 -0.000888
v 0.029710 -0.000732 0.000950
v 0.029993 -0.000793 0.002966
v 0.008050 -0.027144 -0.002458
v 0.016532 -0.023999 -0.000894
v 0.016479 -0.024030 -0.000888
v 0.009498 -0.026669 -0.002450
v 0.008247 -0.027947 -0.000888
v 0.023565 -0.018100 0.000953
v -0.000732 -0.030000 0.002965
v -0.000732 -0.029710 0.000950
v 0.000732 -0.029987 0.005035
v -0.000732 -0.029987 0.005035
v 0.000732 -0.030000 0.002965
v 0.000732 -0.029710 0.000950
v -0.000793 -0.029703 0.000953
v -0.000732 -0.029133 -0.000894
v -0.009498 -0.026669 -0.002450
v -0.009698 -0.027481 -0.000894
v -0.009755 -0.027457 -0.000888
v -0.009877 -0.028030 0.000950
v -0.023789 -0.018263 0.005034
v -0.018078 -0.023533 0.007037
v 0.000793 -0.029980 0.005034
v 0.000793 -0.029665 0.007037
v 0.008413 -0.028458 0.007037
v -0.008413 -0.028458 0.007037
v -0.009679 -0.027422 0.008864
v -0.009735 -0.027398 0.008858
v -0.008288 -0.027874 0.008864
v -0.007966 -0.027081 0.010391
v -0.000732 -0.029671 0.007041
v -0.008575 -0.028758 0.002965
v -0.009962 -0.028293 0.005035
v -0.010022 -0.028280 0.002966
v -0.008485 -0.028482 0.000950
v -0.000732 -0.027268 -0.003652
v -0.027268 -0.000732 -0.003652
v -0.026669 -0.009498 -0.002450
v -0.027481 -0.009698 -0.000894
v -0.026692 -0.009442 -0.002458
v -0.022491 -0.015436 -0.003652
v -0.028005 -0.009933 0.000953
v -0.024731 -0.016988 0.002966
v -0.028306 -0.009966 0.002965
v -0.027144 -0.008050 -0.002458
v -0.028482 -0.008485 0.000950
v -0.027947 -0.008247 -0.000888
v -0.025038 0.007366 -0.004406
v -0.025983 0.000732 0.012272
v -0.024937 0.007333 0.012272
v -0.029071 0.000732 0.008864
v -0.028217 0.000793 0.010391
v -0.029065 0.000793 0.008858
v -0.026591 -0.009473 0.010391
v -0.027398 -0.009735 0.008858
v -0.027968 -0.009921 0.007037
v -0.028217 -0.000793 0.010391
v -0.018055 -0.023606 0.000950
v -0.017042 -0.024700 0.002965
v -0.018225 -0.023841 0.002965
v -0.017034 -0.024690 0.005035
v -0.024720 -0.016981 0.005034
v -0.024700 -0.017042 0.002965
v -0.024690 -0.017034 0.005035
v -0.023830 -0.018218 0.005035
v -0.029133 -0.000732 -0.000894
v -0.029987 -0.000732 0.005035
v -0.029710 0.000732 0.000950
v -0.028758 0.008511 0.005034
v -0.028458 0.008413 0.007037
v -0.028445 -0.008473 0.007041
v -0.027874 -0.008288 0.008864
v -0.028458 -0.008413 0.007037
v -0.028758 -0.008511 0.005034
v -0.029665 -0.000793 0.007037
v -0.023606 -0.018055 0.000950
v -0.017762 -0.023099 -0.000888
v -0.017275 -0.022428 -0.002450
v -0.014743 0.021537 -0.004406
v -0.008758 0.024586 -0.004406
v -0.027081 0.007966 0.010391
v -0.028280 0.010022 0.002966
v -0.027481 0.009698 -0.000894
v -0.027933 0.008307 -0.000894
v -0.028482 0.008485 0.000950
v -0.024030 0.016479 -0.000888
v -0.023360 0.015992 -0.002450
v -0.027457 0.009755 -0.000888
v -0.028005 0.009933 0.000953
v -0.024496 0.016818 0.000953
v -0.023565 0.018100 0.000953
v -0.018271 0.023799 0.002966
v -0.018100 0.023565 0.000953
v -0.017716 0.023139 -0.000894
v -0.016532 0.023999 -0.000894
v -0.023533 0.018078 0.007037
v -0.018078 0.023533 0.007037
v -0.023789 0.018263 0.005034
v -0.009877 0.028030 0.000950
v -0.008485 0.028482 0.000950
v -0.009698 0.027481 -0.000894
v -0.008575 0.028758 0.002965
v -0.023288 0.008336 0.012500
v -0.023740 -0.006944 0.012500
v -0.009092 -0.025616 0.011558
v -0.015124 0.019572 0.012500
v -0.007333 0.024937 0.012272
v -0.008336 0.023288 0.012500
v -0.009417 0.026614 0.010399
v -0.009679 0.027422 0.008864
v -0.000793 0.028217 0.010391
v -0.007701 0.026068 0.011558
v -0.008288 0.027874 0.008864
v -0.007644 0.010269 -0.012500
v 0.000732 0.027268 -0.003652
v -0.000732 0.027268 -0.003652
v 0.008758 0.024586 -0.004406
v 0.007991 0.027158 -0.002450
v 0.017228 0.022468 -0.002458
v 0.016044 0.023328 -0.002458
v 0.017716 0.023139 -0.000894
v 0.015436 0.022491 -0.003652
v 0.009442 0.026692 -0.002458
v -0.000732 0.028303 -0.002458
v -0.000732 0.029133 -0.000894
v -0.000732 0.029710 0.000950
v 0.000732 0.029710 0.000950
v -0.000793 0.029703 0.000953
v -0.000732 0.030000 0.002965
v 0.024720 0.016981 0.005034
v 0.024731 0.016988 0.002966
v 0.023789 0.018263 0.005034
v 0.000793 0.029980 0.005034
v 0.000732 0.029987 0.005035
v 0.000732 0.029671 0.007041
v 0.000793 0.029665 0.007037
v 0.010018 0.028268 0.005034
v 0.016981 0.024720 0.005034
v 0.010022 0.028280 0.002966
v 0.009921 0.027968 0.007037
v 0.016795 0.024465 0.007037
v 0.027993 0.009865 0.007041
v 0.023089 0.017679 0.008864
v 0.023261 0.015996 0.010399
v 0.023949 0.016496 0.008864
v 0.026591 0.009473 0.010391
v 0.026614 0.009417 0.010399
v 0.021451 0.014681 0.012272
v 0.022412 0.015379 0.011558
v 0.019572 0.015124 0.012500
v 0.025616 0.009092 0.011558
v 0.021552 0.016563 0.011558
v 0.009417 0.026614 0.010399
v 0.016496 0.023949 0.008864
v -0.009865 0.027993 0.007041
v 0.000732 0.024724 0.012500
v -0.027888 0.008228 0.008858
v -0.029665 0.000793 0.007037
v -0.009755 0.027457 -0.000888
v 0.024937 0.007333 0.012272
v 0.028306 -0.009966 0.002965
v 0.028293 -0.009962 0.005035
v 0.028745 -0.008571 0.005035
v 0.027993 -0.009865 0.007041
v 0.028445 -0.008473 0.007041
v 0.027888 -0.008228 0.008858
v 0.029987 -0.000732 0.005035
v 0.027081 0.007966 0.010391
v 0.029071 0.000732 0.008864
v 0.029993 0.000793 0.002966
v 0.028758 0.008511 0.005034
v 0.024496 0.016818 0.000953
v 0.023999 0.016532 -0.000894
v 0.024030 0.016479 -0.000888
v 0.023328 0.016044 -0.002458
v 0.023360 0.015992 -0.002450
v 0.022491 0.015436 -0.003652
v 0.021631 0.016620 -0.003652
v 0.016620 0.021631 -0.003652
v 0.023099 0.017762 -0.000888
v 0.018032 0.023574 0.007041
v 0.018218 0.023830 0.005035
v 0.016848 0.024434 0.007041
v 0.017034 0.024690 0.005035
v 0.016988 0.024731 0.002966
v 0.018100 0.023565 0.000953
v -0.000732 -0.024724 0.012500
v 0.000732 -0.025983 0.012272
v -0.017227 -0.022362 0.010391
v 0.016988 -0.024731 0.002966
v 0.016818 -0.024496 0.000953
v 0.018271 -0.023799 0.002966
v 0.023049 -0.017725 0.008858
v 0.023089 -0.017679 0.008864
v 0.023949 -0.016496 0.008864
v 0.022401 -0.017180 0.010399
v 0.028268 -0.010018 0.005034
v 0.024690 -0.017034 0.005035
v 0.015379 -0.022412 0.011558
v 0.017180 -0.022401 0.010399
v 0.021552 -0.016563 0.011558
v 0.009735 -0.027398 0.008858
v 0.019572 -0.015124 0.012500
v 0.026068 -0.007701 0.011558
v 0.023294 -0.015944 0.010391
v 0.024030 -0.016479 -0.000888
v 0.028030 -0.009877 0.000950
v 0.026692 -0.009442 -0.002458
v 0.027481 0.009698 -0.000894
v 0.029133 0.000732 -0.000894
v 0.028495 -0.008425 0.000953
v 0.016620 -0.021631 -0.003652
v 0.015992 -0.023360 -0.002450
v 0.009755 -0.027457 -0.000888
v 0.000793 -0.029127 -0.000888
v 0.007991 -0.027158 -0.002450
v 0.023099 -0.017762 -0.000888
v -0.016479 -0.024030 -0.000888
v -0.017679 -0.023089 0.008864
v -0.016443 -0.023980 0.008858
v -0.018218 -0.023830 0.005035
v -0.023533 -0.018078 0.007037
v 0.008228 -0.027888 0.008858
v 0.000793 -0.029065 0.008858
v 0.009865 -0.027993 0.007041
v -0.008473 -0.028445 0.007041
v -0.008228 -0.027888 0.008858
v -0.000793 -0.029065 0.008858
v -0.009865 -0.027993 0.007041
v 0.000732 -0.029671 0.007041
v -0.000732 -0.029071 0.008864
v -0.016988 -0.024731 0.002966
v -0.016818 -0.024496 0.000953
v -0.009933 -0.028005 0.000953
v -0.009966 -0.028306 0.002965
v -0.026160 -0.007731 -0.003652
v -0.023360 -0.015992 -0.002450
v -0.027457 -0.009755 -0.000888
v -0.022428 -0.017275 -0.002450
v -0.017228 -0.022468 -0.002458
v -0.024496 -0.016818 0.000953
v -0.028770 0.008515 0.002966
v -0.029993 0.000793 0.002966
v -0.027158 -0.007991 -0.002450
v -0.027933 -0.008307 -0.000894
v -0.028030 -0.009877 0.000950
v -0.027947 0.008247 -0.000888
v -0.027144 0.008050 -0.002458
v -0.024724 0.000732 0.012500
v -0.026614 -0.009417 0.010399
v -0.023294 -0.015944 0.010391
v -0.027888 -0.008228 0.008858
v -0.016871 -0.024466 0.000950
v -0.018100 -0.023565 0.000953
v -0.023841 -0.018225 0.002965
v -0.029703 -0.000793 0.000953
v -0.029703 0.000793 0.000953
v -0.030000 0.000732 0.002965
v -0.029671 -0.000732 0.007041
v -0.023099 -0.017762 -0.000888
v -0.023830 0.018218 0.005035
v -0.028445 0.008473 0.007041
v -0.023261 0.015996 0.010399
v -0.025616 0.009092 0.011558
v -0.023949 0.016496 0.008864
v -0.023980 0.016443 0.008858
v -0.027993 0.009865 0.007041
v -0.027968 0.009921 0.007037
v -0.027398 0.009735 0.008858
v -0.026068 0.007701 0.011558
v -0.024485 0.008725 0.012272
v -0.024731 0.016988 0.002966
v -0.028030 0.009877 0.000950
v -0.026669 0.009498 -0.002450
v -0.023606 0.018055 0.000950
v -0.023799 0.018271 0.002966
v -0.023099 0.017762 -0.000888
v -0.017275 0.022428 -0.002450
v -0.023049 0.017725 0.008858
v -0.016871 0.024466 0.000950
v -0.009966 0.028306 0.002965
v -0.010022 0.028280 0.002966
v -0.020432 0.013941 0.012500
v -0.000732 0.025983 0.012272
v -0.007966 0.027081 0.010391
v -0.008228 0.027888 0.008858
v -0.000732 0.029987 0.005035
v -0.000793 0.029980 0.005034
v -0.008511 0.028758 0.005034
v -0.000793 0.029665 0.007037
v 0.000732 0.030000 0.002965
v -0.000732 0.026089 -0.004406
v 0.007366 0.025038 -0.004406
v 0.008485 0.028482 0.000950
v 0.008247 0.027947 -0.000888
v 0.008425 0.028495 0.000953
v 0.000793 0.028299 -0.002450
v 0.022468 0.017228 -0.002458
v 0.009698 0.027481 -0.000894
v 0.009877 0.028030 0.000950
v -0.008050 0.027144 -0.002458
v -0.008515 0.028770 0.002966
v -0.008425 0.028495 0.000953
v 0.024690 0.017034 0.005035
v 0.018263 0.023789 0.005034
v 0.000732 0.029071 0.008864
v 0.007966 0.027081 0.010391
v 0.008228 0.027888 0.008858
v 0.008288 0.027874 0.008864
v 0.008511 0.028758 0.005034
v 0.009962 0.028293 0.005035
v 0.028445 0.008473 0.007041
v 0.028268 0.010018 0.005034
v 0.024434 0.016848 0.007041
v 0.027874 0.008288 0.008864
v 0.023049 0.017725 0.008858
v 0.023980 0.016443 0.008858
v 0.027398 0.009735 0.008858
v 0.020591 0.015864 0.012272
v 0.009473 0.026591 0.010391
v 0.015944 0.023294 0.010391
v 0.009679 0.027422 0.008864
v 0.009735 0.027398 0.008858
v 0.016443 0.023980 0.008858
v -0.008473 0.028445 0.007041
v -0.027874 0.008288 0.008864
v -0.009498 0.026669 -0.002450
v -0.015992 0.023360 -0.002450
v 0.027874 -0.008288 0.008864
v 0.029065 -0.000793 0.008858
v 0.027081 -0.007966 0.010391
v 0.029980 -0.000793 0.005034
v 0.028217 0.000793 0.010391
v 0.024466 0.016871 0.000950
v 0.017042 0.024700 0.002965
v 0.016818 0.024496 0.000953
v 0.018055 0.023606 0.000950
v 0.017762 0.023099 -0.000888
v 0.016532 0.023999 -0.000894
v 0.016479 0.024030 -0.000888
v 0.009498 0.026669 -0.002450
v 0.022362 -0.017227 0.010391
v 0.024465 -0.016795 0.007037
v 0.015996 -0.023261 0.010399
v 0.022412 -0.015379 0.011558
v 0.016563 -0.021552 0.011558
v 0.000732 -0.029071 0.008864
v 0.000793 -0.028217 0.010391
v 0.020591 -0.015864 0.012272
v 0.027422 -0.009679 0.008864
v 0.027398 -0.009735 0.008858
v 0.026669 -0.009498 -0.002450
v 0.028005 0.009933 0.000953
v 0.026669 0.009498 -0.002450
v -0.015992 -0.023360 -0.002450
v -0.016496 -0.023949 0.008864
v -0.015944 -0.023294 0.010391
v -0.018032 -0.023574 0.007041
v 0.008288 -0.027874 0.008864
v -0.025708 -0.009122 -0.003652
v -0.025038 -0.007366 -0.004406
v -0.024466 -0.016871 0.000950
v -0.028758 0.008575 0.002965
v -0.029127 -0.000793 -0.000888
v -0.027158 0.007991 -0.002450
v -0.025616 -0.009092 0.011558
v -0.027422 -0.009679 0.008864
v -0.029065 -0.000793 0.008858
v -0.027081 -0.007966 0.010391
v -0.028495 0.008425 0.000953
v -0.029127 0.000793 -0.000888
v -0.024434 0.016848 0.007041
v -0.024690 0.017034 0.005035
v -0.018263 0.023789 0.005034
v -0.023294 0.015944 0.010391
v -0.026614 0.009417 0.010399
v -0.024700 0.017042 0.002965
v -0.024466 0.016871 0.000950
v -0.023841 0.018225 0.002965
v -0.017762 0.023099 -0.000888
v -0.016563 0.021552 0.011558
v -0.017180 0.022401 0.010399
v -0.015996 0.023261 0.010399
v -0.016496 0.023949 0.008864
v -0.017679 0.023089 0.008864
v -0.017725 0.023049 0.008858
v -0.023089 0.017679 0.008864
v -0.018055 0.023606 0.000950
v -0.016988 0.024731 0.002966
v -0.016981 0.024720 0.005034
v -0.009962 0.028293 0.005035
v -0.000793 0.029065 0.008858
v -0.000732 0.029671 0.007041
v 0.009966 0.028306 0.002965
v 0.008571 0.028745 0.005035
v 0.000732 0.029133 -0.000894
v 0.000793 0.029703 0.000953
v 0.000793 0.029127 -0.000888
v 0.017275 0.022428 -0.002450
v 0.008307 0.027933 -0.000894
v 0.009755 0.027457 -0.000888
v -0.000793 0.028299 -0.002450
v -0.007991 0.027158 -0.002450
v -0.008307 0.027933 -0.000894
v -0.000793 0.029993 0.002966
v 0.000793 0.029065 0.008858
v 0.008413 0.028458 0.007037
v 0.008575 0.028758 0.002965
v 0.024465 0.016795 0.007037
v 0.027422 0.009679 0.008864
v 0.023574 0.018032 0.007041
v 0.023294 0.015944 0.010391
v 0.009865 0.027993 0.007041
v -0.008413 0.028458 0.007037
v -0.016848 0.024434 0.007041
v -0.016479 0.024030 -0.000888
v 0.018225 0.023841 0.002965
v 0.016871 0.024466 0.000950
v 0.009933 0.028005 0.000953
v 0.015992 0.023360 -0.002450
v 0.017227 -0.022362 0.010391
v 0.027968 -0.009921 0.007037
v 0.023980 -0.016443 0.008858
v 0.015944 -0.023294 0.010391
v 0.007966 -0.027081 0.010391
v 0.021451 -0.014681 0.012272
v 0.027457 -0.009755 -0.000888
v 0.023360 -0.015992 -0.002450
v 0.028030 0.009877 0.000950
v 0.027457 0.009755 -0.000888
v 0.008473 -0.028445 0.007041
v -0.028299 -0.000793 -0.002450
v -0.028299 0.000793 -0.002450
v -0.018225 0.023841 0.002965
v -0.026591 0.009473 0.010391
v -0.027422 0.009679 0.008864
v -0.016443 0.023980 0.008858
v -0.022401 0.017180 0.010399
v -0.023574 0.018032 0.007041
v -0.009933 0.028005 0.000953
v -0.017042 0.024700 0.002965
v -0.010018 0.028268 0.005034
v -0.008571 0.028745 0.005035
v 0.022428 0.017275 -0.002450
v -0.008247 0.027947 -0.000888
v 0.000793 0.028217 0.010391
v 0.008515 0.028770 0.002966
v 0.027968 0.009921 0.007037
v 0.008473 0.028445 0.007041
v -0.018218 0.023830 0.005035
v -0.009735 0.027398 0.008858
v -0.009473 0.026591 0.010391
v -0.016795 0.024465 0.007037
v -0.017227 0.022362 0.010391
v -0.016818 0.024496 0.000953
v -0.000793 0.029127 -0.000888
v 0.000793 0.029993 0.002966
v -0.017034 0.024690 0.005035
v -0.018032 0.023574 0.007041
v -0.015944 0.023294 0.010391
v -0.009921 0.027968 0.007037
v -0.022362 0.017227 0.010391
f 1 2 3
f 4 3 2
f 5 6 7
f 8 3 4
f 9 7 6
f 10 6 5
f 11 2 1
f 12 8 4
f 13 4 2
f 14 3 8
f 15 7 9
f 16 10 5
f 17 1 3
f 18 11 1
f 19 8 12
f 20 4 13
f 21 5 7
f 22 14 8
f 23 3 14
f 24 25 26
f 27 28 29
f 30 1 17
f 30 17 3
f 31 2 11
f 32 11 18
f 33 34 35
f 33 9 36
f 37 15 9
f 38 39 40
f 41 10 16
f 42 18 1
f 42 1 43
f 44 20 45
f 46 45 20
f 46 20 13
f 47 48 49
f 47 49 50
f 51 16 5
f 52 53 54
f 55 19 12
f 55 56 19
f 57 7 15
f 58 59 35
f 58 35 34
f 58 34 60
f 58 61 59
f 62 26 25
f 63 64 65
f 66 67 68
f 66 68 63
f 66 63 65
f 69 5 21
f 70 56 71
f 72 23 14
f 73 74 29
f 75 76 77
f 75 78 76
f 79 75 77
f 79 80 81
f 82 28 27
f 83 60 84
f 85 86 87
f 88 87 86
f 88 86 89
f 90 89 86
f 91 77 30
f 91 30 3
f 91 3 23
f 91 23 80
f 91 80 79
f 91 79 77
f 92 43 1
f 92 1 30
f 92 93 43
f 94 32 95
f 96 95 32
f 96 32 18
f 97 2 31
f 98 2 97
f 98 13 2
f 99 45 46
f 99 46 13
f 100 48 44
f 100 44 45
f 100 45 99
f 100 101 49
f 100 49 48
f 102 9 6
f 103 104 105
f 106 107 108
f 109 110 111
f 109 107 106
f 109 106 112
f 113 50 49
f 114 115 116
f 117 37 9
f 117 9 33
f 117 33 35
f 118 35 59
f 118 37 35
f 119 115 6
f 119 120 121
f 119 116 115
f 122 12 4
f 123 20 44
f 123 4 20
f 124 38 40
f 125 38 126
f 125 127 128
f 125 39 38
f 129 130 131
f 129 131 132
f 133 41 39
f 133 39 125
f 133 125 128
f 134 133 128
f 134 128 127
f 134 127 129
f 134 129 132
f 135 41 16
f 136 19 56
f 136 137 138
f 136 138 74
f 136 74 73
f 136 14 22
f 136 22 8
f 136 8 19
f 139 48 47
f 140 16 51
f 141 142 143
f 141 143 144
f 145 146 143
f 147 148 149
f 150 151 152
f 153 53 52
f 154 53 153
f 154 54 53
f 155 15 156
f 157 7 57
f 157 57 158
f 157 158 7
f 159 84 60
f 159 60 34
f 160 61 58
f 160 58 60
f 161 64 63
f 162 163 164
f 162 67 66
f 162 66 65
f 162 65 163
f 165 166 167
f 168 169 142
f 170 171 172
f 170 172 173
f 174 172 171
f 174 171 164
f 175 176 177
f 178 179 7
f 178 7 158
f 180 7 179
f 180 21 7
f 181 56 70
f 181 70 137
f 181 137 136
f 181 136 56
f 182 137 70
f 182 70 183
f 182 183 184
f 182 138 137
f 185 186 187
f 188 56 55
f 188 55 187
f 188 187 186
f 188 186 71
f 188 71 56
f 189 149 148
f 190 81 80
f 190 80 23
f 190 23 72
f 190 191 81
f 192 191 190
f 192 190 72
f 192 72 14
f 192 14 136
f 192 136 193
f 192 193 191
f 194 195 191
f 194 73 29
f 194 29 28
f 196 81 191
f 196 191 195
f 196 25 24
f 196 79 81
f 197 78 75
f 198 199 200
f 198 195 194
f 198 194 28
f 198 28 82
f 198 82 201
f 198 201 199
f 202 26 165
f 202 165 203
f 202 203 204
f 205 93 206
f 205 206 207
f 208 207 206
f 208 206 76
f 208 76 209
f 210 84 104
f 211 87 88
f 212 177 213
f 214 215 90
f 214 207 208
f 214 208 209
f 214 209 215
f 216 206 93
f 216 93 92
f 216 92 30
f 216 76 206
f 217 218 31
f 217 31 11
f 219 220 221
f 219 221 94
f 219 94 95
f 222 218 217
f 222 217 11
f 222 11 32
f 223 42 43
f 223 96 18
f 223 18 42
f 224 111 110
f 224 225 226
f 224 226 227
f 224 227 111
f 228 229 230
f 228 230 231
f 228 231 232
f 233 13 98
f 233 98 97
f 233 97 230
f 233 230 229
f 234 229 101
f 234 101 100
f 234 100 99
f 234 99 229
f 235 36 9
f 235 9 102
f 235 102 236
f 237 102 6
f 238 239 240
f 238 241 242
f 238 242 239
f 243 244 245
f 243 245 246
f 243 246 247
f 248 249 250
f 251 106 108
f 252 253 254
f 255 93 205
f 255 205 256
f 255 256 95
f 255 95 96
f 255 96 223
f 255 223 43
f 255 43 93
f 257 258 256
f 259 221 220
f 259 260 221
f 261 249 248
f 262 263 264
f 262 264 265
f 262 265 266
f 267 268 269
f 270 271 272
f 273 115 114
f 274 102 237
f 275 276 236
f 275 236 277
f 275 277 239
f 275 239 242
f 275 242 278
f 275 278 276
f 279 156 15
f 279 15 37
f 280 37 117
f 280 117 35
f 280 35 37
f 281 156 279
f 281 279 37
f 281 37 118
f 281 118 59
f 282 120 119
f 282 6 10
f 283 120 282
f 283 284 121
f 283 121 120
f 285 132 131
f 286 12 122
f 286 122 287
f 288 122 4
f 289 290 291
f 289 291 292
f 293 294 295
f 296 297 298
f 296 295 297
f 299 295 296
f 299 296 298
f 300 38 124
f 300 298 297
f 300 297 126
f 300 126 38
f 301 295 294
f 301 126 297
f 301 297 295
f 302 133 134
f 302 134 132
f 303 10 41
f 304 133 302
f 304 303 41
f 304 41 133
f 305 41 135
f 305 135 124
f 305 124 40
f 305 40 39
f 305 39 41
f 306 123 44
f 306 44 48
f 307 139 47
f 307 47 50
f 308 264 263
f 308 263 139
f 309 48 139
f 309 139 263
f 309 263 306
f 309 306 48
f 310 141 144
f 310 144 5
f 310 5 69
f 311 140 51
f 311 51 144
f 311 144 143
f 312 5 144
f 312 144 51
f 312 51 5
f 313 16 140
f 313 140 314
f 313 314 16
f 315 316 317
f 315 317 318
f 319 320 321
f 322 323 324
f 325 147 326
f 325 326 169
f 325 169 324
f 327 328 329
f 327 329 330
f 331 142 169
f 331 145 143
f 331 143 142
f 332 333 334
f 332 335 333
f 336 150 152
f 336 152 334
f 336 334 333
f 336 333 150
f 337 147 149
f 337 329 326
f 337 326 147
f 338 151 150
f 339 55 340
f 341 12 340
f 341 340 55
f 341 55 12
f 342 343 154
f 342 154 153
f 342 153 344
f 345 158 57
f 345 176 346
f 345 346 347
f 345 347 158
f 348 57 15
f 349 177 176
f 349 176 155
f 349 155 156
f 349 156 350
f 349 350 213
f 349 213 177
f 351 352 61
f 353 84 159
f 353 159 105
f 353 105 104
f 353 104 84
f 354 159 34
f 354 34 33
f 354 33 36
f 354 36 235
f 355 83 356
f 355 160 60
f 355 60 83
f 357 358 164
f 357 164 163
f 357 163 65
f 357 200 199
f 357 199 358
f 359 64 62
f 360 64 161
f 360 161 166
f 360 26 62
f 360 62 64
f 361 171 362
f 361 362 162
f 361 162 164
f 361 164 171
f 363 26 360
f 363 360 166
f 363 166 165
f 363 165 26
f 364 172 174
f 364 365 366
f 364 366 173
f 364 173 172
f 367 173 366
f 367 366 365
f 367 318 317
f 368 173 369
f 368 170 173
f 370 367 317
f 370 317 316
f 371 67 162
f 371 162 362
f 372 362 171
f 372 171 170
f 373 374 375
f 376 375 374
f 376 374 347
f 376 347 346
f 376 346 176
f 376 176 175
f 377 378 310
f 377 310 69
f 377 69 21
f 379 168 142
f 379 142 141
f 379 378 380
f 381 382 380
f 381 380 378
f 383 27 29
f 383 384 365
f 385 384 383
f 385 383 29
f 385 29 74
f 386 184 320
f 386 182 184
f 387 365 384
f 387 318 367
f 387 367 365
f 388 71 186
f 389 333 335
f 389 335 388
f 389 388 186
f 389 186 185
f 390 71 388
f 390 388 335
f 391 390 335
f 391 335 332
f 391 332 392
f 393 394 395
f 393 70 71
f 396 70 393
f 396 393 395
f 396 183 70
f 397 183 396
f 397 396 395
f 397 320 184
f 397 184 183
f 398 394 393
f 398 393 189
f 398 189 148
f 398 148 399
f 398 399 394
f 400 75 79
f 400 79 196
f 400 196 24
f 401 195 198
f 401 198 200
f 401 200 402
f 401 402 195
f 403 196 195
f 403 25 196
f 404 24 26
f 404 26 202
f 405 365 364
f 405 364 201
f 405 201 82
f 405 383 365
f 406 89 407
f 406 408 409
f 406 409 88
f 406 88 89
f 410 408 406
f 410 406 407
f 411 204 203
f 411 203 410
f 411 410 407
f 411 407 78
f 411 78 204
f 412 90 215
f 412 407 89
f 412 89 90
f 413 78 407
f 413 407 412
f 413 412 215
f 413 215 209
f 413 209 76
f 413 76 78
f 414 256 205
f 415 416 414
f 415 414 205
f 415 205 207
f 415 207 417
f 415 417 416
f 418 248 250
f 419 356 83
f 419 418 250
f 420 167 421
f 420 408 410
f 420 410 203
f 420 203 165
f 420 165 167
f 422 421 167
f 422 167 166
f 423 85 87
f 423 87 211
f 424 352 351
f 424 351 425
f 424 426 213
f 424 213 352
f 427 212 213
f 428 211 88
f 428 88 409
f 428 409 408
f 429 86 85
f 429 85 430
f 431 430 246
f 431 246 245
f 432 90 86
f 432 86 429
f 432 429 417
f 432 417 207
f 432 207 214
f 432 214 90
f 433 77 76
f 433 76 216
f 433 216 30
f 433 30 77
f 434 230 97
f 434 231 230
f 435 436 437
f 435 437 221
f 438 94 221
f 438 221 437
f 438 218 222
f 438 222 32
f 438 32 94
f 439 440 225
f 441 225 224
f 441 224 110
f 442 437 436
f 443 441 110
f 443 110 109
f 443 109 112
f 443 112 444
f 445 13 233
f 445 233 229
f 445 229 99
f 445 99 13
f 446 277 274
f 446 237 447
f 446 447 239
f 446 239 277
f 448 241 238
f 448 253 241
f 449 450 448
f 449 448 238
f 449 238 240
f 451 452 105
f 453 103 105
f 453 105 452
f 453 452 227
f 453 227 226
f 453 226 103
f 454 278 242
f 454 242 241
f 455 258 257
f 455 456 457
f 455 457 249
f 458 245 244
f 458 456 245
f 459 226 225
f 459 225 440
f 459 440 460
f 459 460 461
f 459 461 104
f 459 104 103
f 459 103 226
f 462 248 418
f 462 210 104
f 462 104 461
f 462 461 460
f 463 251 232
f 463 232 231
f 464 253 252
f 464 252 108
f 464 108 107
f 465 251 108
f 465 232 251
f 466 467 271
f 468 227 469
f 468 469 470
f 468 470 111
f 468 111 227
f 471 111 470
f 471 470 472
f 471 472 107
f 471 107 109
f 471 109 111
f 473 259 220
f 473 220 261
f 473 261 248
f 474 475 258
f 476 4 123
f 476 123 306
f 476 306 263
f 477 4 476
f 477 476 263
f 477 263 262
f 477 262 266
f 478 449 240
f 479 267 269
f 479 270 272
f 479 272 267
f 480 101 481
f 480 481 482
f 483 113 49
f 483 49 484
f 483 485 486
f 483 486 487
f 488 489 490
f 491 492 308
f 491 308 139
f 493 494 495
f 496 497 498
f 499 497 496
f 500 237 6
f 500 447 237
f 501 236 102
f 501 102 274
f 501 274 277
f 501 277 236
f 502 59 61
f 502 61 352
f 502 352 213
f 502 213 350
f 502 350 156
f 502 156 281
f 502 281 59
f 503 6 282
f 503 282 119
f 503 119 6
f 504 284 283
f 504 283 10
f 505 10 283
f 505 283 282
f 505 282 10
f 506 284 285
f 506 285 507
f 508 285 131
f 508 131 130
f 509 132 285
f 509 285 284
f 509 284 504
f 509 504 132
f 510 507 285
f 511 288 4
f 511 4 477
f 511 477 266
f 512 513 290
f 512 290 289
f 512 289 287
f 512 287 513
f 514 289 292
f 514 340 12
f 514 12 286
f 515 291 290
f 516 517 518
f 519 517 516
f 519 339 340
f 519 340 514
f 519 514 292
f 520 517 519
f 520 519 292
f 520 292 291
f 521 513 265
f 521 522 290
f 521 290 513
f 523 524 522
f 523 522 525
f 523 526 524
f 527 528 52
f 527 338 528
f 529 294 293
f 529 293 54
f 529 54 154
f 529 154 343
f 530 531 532
f 530 532 533
f 534 535 536
f 534 537 538
f 534 538 535
f 539 152 151
f 540 298 541
f 540 541 542
f 543 541 544
f 545 314 546
f 545 16 314
f 547 135 16
f 547 124 135
f 548 146 145
f 548 145 544
f 548 544 541
f 548 541 546
f 548 546 314
f 549 546 541
f 549 541 298
f 549 298 300
f 549 300 124
f 550 127 125
f 550 125 126
f 551 126 301
f 552 507 510
f 553 302 303
f 553 303 304
f 553 304 302
f 554 450 449
f 554 449 478
f 554 478 240
f 555 450 554
f 555 554 467
f 555 467 466
f 555 466 254
f 555 254 253
f 555 253 448
f 555 448 450
f 556 496 498
f 557 140 311
f 557 311 143
f 557 143 146
f 557 146 548
f 557 548 314
f 557 314 140
f 558 320 319
f 558 319 559
f 558 559 316
f 560 323 322
f 560 561 559
f 560 559 319
f 560 319 321
f 560 321 323
f 562 561 560
f 562 560 322
f 563 322 324
f 564 148 147
f 564 147 325
f 565 327 145
f 566 331 169
f 566 169 326
f 566 326 329
f 566 329 328
f 567 334 337
f 567 337 149
f 567 149 189
f 567 189 392
f 567 392 332
f 567 332 334
f 568 152 330
f 568 330 329
f 568 329 337
f 568 337 334
f 568 334 152
f 569 52 528
f 570 344 153
f 570 571 572
f 570 572 344
f 573 572 571
f 574 187 55
f 574 55 575
f 574 575 572
f 574 572 185
f 574 185 187
f 576 55 339
f 576 339 519
f 576 519 516
f 576 516 575
f 576 575 55
f 577 342 344
f 578 294 579
f 578 301 294
f 580 551 301
f 580 301 578
f 580 578 579
f 580 535 538
f 581 535 580
f 581 580 579
f 582 536 535
f 583 342 577
f 583 343 342
f 584 155 348
f 584 348 15
f 584 15 155
f 585 345 57
f 585 57 348
f 585 348 155
f 585 155 176
f 585 176 345
f 586 160 355
f 586 355 356
f 586 356 160
f 587 64 359
f 587 357 65
f 587 65 64
f 588 200 357
f 588 357 587
f 588 587 359
f 588 359 402
f 588 402 200
f 589 358 199
f 589 199 201
f 589 201 364
f 589 364 174
f 589 174 164
f 589 164 358
f 590 372 170
f 591 592 381
f 591 381 593
f 591 593 590
f 591 590 170
f 591 170 368
f 591 368 369
f 591 369 592
f 594 370 316
f 594 316 559
f 594 559 561
f 595 173 367
f 595 367 370
f 595 370 369
f 595 369 173
f 596 178 158
f 596 158 347
f 596 179 178
f 597 362 372
f 598 597 593
f 598 593 381
f 599 67 373
f 599 373 375
f 599 68 67
f 600 180 179
f 600 21 180
f 601 141 310
f 601 310 378
f 601 378 379
f 601 379 141
f 602 382 381
f 603 384 385
f 603 315 318
f 603 318 387
f 603 387 384
f 604 386 320
f 604 320 558
f 604 558 316
f 604 316 315
f 605 385 74
f 605 74 138
f 605 138 182
f 605 182 386
f 606 333 389
f 606 389 185
f 607 71 390
f 607 390 391
f 607 391 392
f 607 392 189
f 607 189 393
f 607 393 71
f 608 394 399
f 608 399 321
f 608 321 320
f 608 320 397
f 608 397 395
f 608 395 394
f 609 136 73
f 609 73 194
f 609 194 191
f 609 191 193
f 609 193 136
f 610 402 403
f 610 403 195
f 610 195 402
f 611 25 403
f 611 403 402
f 611 402 359
f 611 359 62
f 611 62 25
f 612 197 404
f 612 404 202
f 612 202 204
f 612 204 78
f 612 78 197
f 613 400 24
f 613 24 404
f 613 404 197
f 613 197 75
f 613 75 400
f 614 383 405
f 614 405 82
f 614 82 27
f 614 27 383
f 615 257 256
f 615 414 416
f 616 160 356
f 616 356 419
f 616 61 160
f 617 244 243
f 617 243 247
f 617 247 425
f 617 425 351
f 618 419 250
f 618 250 249
f 618 249 457
f 618 457 456
f 618 456 458
f 618 458 244
f 619 210 462
f 619 462 418
f 619 418 419
f 619 419 83
f 619 83 84
f 619 84 210
f 620 621 421
f 620 421 422
f 622 166 161
f 622 161 63
f 622 63 68
f 622 68 599
f 622 599 375
f 623 85 423
f 623 423 426
f 624 625 212
f 624 212 427
f 624 427 213
f 624 213 426
f 624 426 423
f 624 423 211
f 624 211 625
f 626 247 246
f 626 246 430
f 626 430 85
f 626 85 623
f 626 623 426
f 626 426 424
f 626 424 425
f 626 425 247
f 627 428 408
f 627 408 420
f 627 420 421
f 628 625 211
f 628 211 428
f 628 428 627
f 628 175 177
f 628 177 212
f 628 212 625
f 629 431 245
f 629 245 456
f 629 456 630
f 631 417 431
f 631 431 629
f 631 629 630
f 631 630 615
f 631 615 416
f 631 416 417
f 632 429 430
f 632 430 431
f 632 431 417
f 632 417 429
f 633 437 442
f 633 442 231
f 633 231 434
f 633 434 97
f 634 260 435
f 634 435 221
f 634 221 260
f 635 436 435
f 635 435 260
f 635 260 439
f 636 219 475
f 636 475 474
f 636 220 219
f 637 95 256
f 637 256 258
f 637 258 475
f 637 475 219
f 637 219 95
f 638 440 439
f 638 439 260
f 638 460 440
f 639 640 254
f 639 254 466
f 639 466 271
f 641 231 442
f 642 444 641
f 642 641 442
f 642 442 436
f 642 436 443
f 642 443 444
f 643 436 635
f 643 635 439
f 643 439 225
f 643 225 441
f 643 441 443
f 643 443 436
f 644 482 481
f 645 101 229
f 645 229 228
f 645 481 101
f 646 237 446
f 646 446 274
f 646 274 237
f 647 451 159
f 648 159 451
f 648 451 105
f 648 105 159
f 649 469 278
f 649 472 470
f 649 470 469
f 650 630 456
f 650 456 455
f 650 455 257
f 650 257 615
f 650 615 630
f 651 261 474
f 651 474 258
f 651 258 455
f 651 455 249
f 651 249 261
f 652 248 462
f 652 462 460
f 652 460 473
f 652 473 248
f 653 251 463
f 653 112 106
f 653 106 251
f 654 232 465
f 654 465 640
f 655 640 465
f 655 465 108
f 655 108 252
f 655 252 254
f 655 254 640
f 656 464 107
f 656 107 472
f 656 472 241
f 656 241 253
f 656 253 464
f 657 220 636
f 657 636 474
f 657 474 261
f 657 261 220
f 658 493 495
f 659 271 467
f 660 661 114
f 660 114 116
f 660 662 663
f 664 267 272
f 664 272 271
f 664 271 659
f 665 268 267
f 665 267 664
f 665 664 666
f 665 666 663
f 665 663 268
f 667 239 447
f 667 447 661
f 667 661 240
f 667 240 239
f 668 273 114
f 668 114 661
f 668 661 447
f 668 447 500
f 669 487 486
f 669 486 479
f 669 479 269
f 670 486 485
f 670 485 480
f 670 480 482
f 670 482 270
f 670 270 479
f 670 479 486
f 671 101 480
f 671 480 485
f 671 485 483
f 671 483 484
f 671 484 49
f 671 49 101
f 672 488 50
f 672 50 113
f 673 495 489
f 673 489 488
f 673 488 672
f 673 658 495
f 674 50 488
f 674 488 490
f 674 307 50
f 675 307 674
f 675 491 139
f 675 139 307
f 676 494 493
f 677 492 491
f 678 499 496
f 678 496 679
f 680 273 668
f 680 668 500
f 680 500 6
f 680 6 115
f 680 115 273
f 681 132 504
f 681 504 10
f 681 10 303
f 681 303 302
f 681 302 132
f 682 285 508
f 683 510 285
f 683 285 682
f 683 682 508
f 684 532 531
f 684 531 526
f 685 686 687
f 685 684 526
f 688 531 530
f 688 524 526
f 688 526 531
f 689 287 122
f 689 122 288
f 689 288 511
f 689 511 266
f 689 266 265
f 689 265 513
f 689 513 287
f 690 289 514
f 690 514 286
f 690 286 287
f 690 287 289
f 691 692 693
f 694 692 515
f 694 515 290
f 695 575 516
f 695 344 572
f 695 572 575
f 696 691 697
f 696 520 291
f 698 264 498
f 698 521 265
f 698 265 264
f 699 686 685
f 699 700 497
f 699 497 499
f 701 527 52
f 701 52 54
f 702 579 294
f 702 294 529
f 702 529 343
f 702 343 579
f 703 533 532
f 703 532 130
f 703 130 129
f 704 127 705
f 706 705 127
f 707 530 533
f 708 534 536
f 709 330 152
f 709 152 539
f 710 539 151
f 710 151 338
f 710 338 527
f 711 540 542
f 711 527 701
f 711 701 54
f 712 327 330
f 712 330 709
f 712 709 539
f 712 145 327
f 713 295 299
f 713 299 298
f 713 298 540
f 713 540 293
f 713 293 295
f 714 542 541
f 714 543 715
f 714 711 542
f 716 545 546
f 716 546 549
f 716 549 124
f 716 124 547
f 716 547 16
f 716 16 545
f 717 550 126
f 717 126 718
f 719 706 127
f 719 127 550
f 719 550 717
f 719 717 720
f 721 720 717
f 721 717 718
f 721 718 126
f 721 126 551
f 721 551 580
f 721 580 538
f 721 538 537
f 721 537 720
f 722 552 510
f 723 664 659
f 723 659 467
f 723 467 554
f 723 554 240
f 724 264 308
f 724 308 725
f 724 556 498
f 724 498 264
f 726 561 562
f 726 562 322
f 726 322 563
f 726 563 379
f 727 168 563
f 727 563 324
f 727 324 169
f 727 169 168
f 728 379 563
f 728 563 168
f 728 168 379
f 729 323 321
f 729 321 399
f 729 399 148
f 729 148 564
f 729 564 325
f 729 325 324
f 729 324 323
f 730 327 565
f 730 565 145
f 730 145 331
f 730 331 566
f 730 566 328
f 730 328 327
f 731 569 571
f 731 571 570
f 731 570 153
f 731 153 52
f 731 52 569
f 732 582 535
f 732 535 581
f 732 581 579
f 733 582 732
f 734 343 583
f 734 583 518
f 735 518 583
f 735 583 577
f 736 518 517
f 736 517 737
f 736 734 518
f 738 520 696
f 738 517 520
f 739 372 590
f 739 590 593
f 739 593 597
f 740 370 594
f 740 369 370
f 741 596 347
f 741 347 374
f 741 374 373
f 741 67 371
f 741 371 362
f 741 362 597
f 742 378 377
f 742 598 381
f 742 381 378
f 743 179 596
f 743 596 741
f 743 741 597
f 743 597 598
f 743 598 179
f 744 175 628
f 744 628 627
f 744 627 421
f 744 421 621
f 745 175 744
f 745 744 621
f 745 621 620
f 745 376 175
f 746 21 600
f 746 600 179
f 746 179 598
f 746 598 742
f 747 561 726
f 747 726 379
f 747 379 380
f 747 380 382
f 747 382 748
f 747 748 561
f 749 385 605
f 749 605 386
f 750 569 528
f 750 528 338
f 750 571 569
f 751 573 571
f 751 606 185
f 751 185 572
f 751 572 573
f 752 414 615
f 752 615 256
f 752 256 414
f 753 244 617
f 753 617 61
f 753 61 616
f 753 616 244
f 754 61 617
f 754 617 351
f 754 351 61
f 755 419 618
f 755 618 244
f 755 244 616
f 755 616 419
f 756 620 422
f 756 622 375
f 756 375 376
f 756 376 620
f 757 438 437
f 757 437 633
f 757 633 218
f 757 218 438
f 758 218 633
f 758 633 97
f 758 97 31
f 758 31 218
f 759 259 473
f 759 473 460
f 759 460 638
f 759 638 260
f 759 260 259
f 760 270 482
f 760 482 639
f 760 639 271
f 760 271 270
f 761 444 112
f 761 112 653
f 761 653 463
f 762 644 481
f 762 481 645
f 762 645 228
f 763 276 278
f 763 278 647
f 763 647 159
f 763 159 354
f 763 354 235
f 763 235 236
f 763 236 276
f 764 469 227
f 764 227 452
f 764 452 451
f 764 451 647
f 764 647 278
f 764 278 469
f 765 241 472
f 765 472 649
f 765 649 454
f 765 454 241
f 766 454 649
f 766 649 278
f 766 278 454
f 767 654 640
f 767 640 639
f 767 639 482
f 767 482 644
f 768 232 654
f 768 654 767
f 768 767 644
f 769 268 663
f 769 663 662
f 769 658 770
f 769 770 269
f 769 269 268
f 771 495 494
f 771 489 495
f 772 660 663
f 773 661 660
f 773 240 661
f 774 487 669
f 774 669 269
f 774 269 770
f 774 770 658
f 775 487 774
f 775 774 672
f 775 672 113
f 775 113 483
f 775 483 487
f 776 672 774
f 776 774 658
f 776 658 673
f 776 673 672
f 777 491 675
f 777 675 674
f 777 674 490
f 777 490 491
f 778 779 116
f 778 116 119
f 778 119 121
f 780 781 782
f 780 782 779
f 780 779 778
f 780 778 121
f 780 121 284
f 780 284 506
f 783 782 494
f 783 494 676
f 783 779 782
f 784 769 662
f 784 662 660
f 784 676 493
f 785 677 491
f 785 491 490
f 785 490 489
f 786 787 679
f 788 499 678
f 788 678 679
f 789 130 687
f 789 687 683
f 789 683 508
f 789 508 130
f 790 532 684
f 790 684 685
f 790 685 687
f 790 687 130
f 790 130 532
f 791 536 697
f 791 697 691
f 791 792 708
f 791 708 536
f 793 694 290
f 793 290 522
f 793 522 524
f 793 524 794
f 795 692 694
f 795 694 793
f 795 793 794
f 795 794 693
f 795 693 692
f 796 695 516
f 796 516 518
f 796 518 735
f 796 735 577
f 797 691 696
f 797 696 291
f 797 291 515
f 797 515 692
f 797 692 691
f 798 737 738
f 798 738 696
f 798 696 697
f 799 522 521
f 800 799 521
f 800 521 698
f 801 800 698
f 801 698 498
f 801 498 497
f 802 526 523
f 802 523 525
f 802 525 700
f 802 700 699
f 802 699 685
f 802 685 526
f 803 705 533
f 803 533 703
f 804 792 707
f 804 707 533
f 804 533 705
f 804 705 706
f 805 792 791
f 805 791 691
f 806 710 527
f 806 527 711
f 806 711 714
f 807 715 543
f 807 543 544
f 807 544 145
f 807 145 712
f 807 712 539
f 807 539 715
f 808 540 711
f 808 711 54
f 808 54 293
f 808 293 540
f 809 543 714
f 809 714 541
f 809 541 543
f 810 537 534
f 810 534 708
f 810 708 792
f 810 706 719
f 810 719 720
f 810 720 537
f 811 683 687
f 811 687 686
f 811 722 510
f 811 510 683
f 812 782 781
f 813 492 677
f 813 556 724
f 813 724 725
f 813 725 308
f 813 308 492
f 814 343 734
f 814 734 732
f 814 732 579
f 814 579 343
f 815 732 734
f 815 734 736
f 815 736 737
f 815 737 733
f 815 733 732
f 816 536 582
f 816 582 733
f 816 733 737
f 816 737 798
f 816 798 697
f 816 697 536
f 817 517 738
f 817 738 737
f 817 737 517
f 818 372 739
f 818 739 597
f 818 597 372
f 819 561 748
f 819 740 594
f 819 594 561
f 820 592 369
f 820 369 740
f 820 740 819
f 820 819 748
f 820 748 382
f 820 382 602
f 820 602 381
f 820 381 592
f 821 67 741
f 821 741 373
f 821 373 67
f 822 376 745
f 822 745 620
f 822 620 376
f 823 377 21
f 823 21 746
f 823 746 742
f 823 742 377
f 824 603 749
f 824 749 386
f 824 386 604
f 824 604 315
f 824 315 603
f 825 385 749
f 825 749 603
f 825 603 385
f 826 150 333
f 826 333 606
f 826 750 338
f 826 338 150
f 827 571 750
f 827 750 826
f 827 826 606
f 827 606 751
f 827 751 571
f 828 622 756
f 828 756 422
f 828 422 166
f 828 166 622
f 829 231 641
f 829 641 444
f 829 444 761
f 829 761 463
f 829 463 231
f 830 762 228
f 830 228 232
f 830 232 768
f 830 768 644
f 830 644 762
f 831 785 489
f 832 772 663
f 832 663 666
f 832 773 660
f 832 660 772
f 833 666 664
f 833 664 723
f 833 723 240
f 833 240 773
f 833 773 832
f 833 832 666
f 834 812 781
f 834 781 780
f 835 660 116
f 835 116 779
f 835 676 784
f 835 784 660
f 836 769 784
f 836 784 493
f 836 493 658
f 836 658 769
f 837 496 556
f 837 556 813
f 837 786 679
f 837 679 496
f 838 677 785
f 838 785 831
f 838 787 786
f 839 552 788
f 839 788 679
f 839 679 787
f 840 722 811
f 840 811 686
f 840 686 699
f 840 699 499
f 840 499 788
f 840 788 552
f 840 552 722
f 841 695 796
f 841 796 577
f 841 577 344
f 841 344 695
f 842 799 800
f 842 800 801
f 842 801 497
f 842 497 700
f 843 129 127
f 843 127 704
f 843 704 705
f 843 705 803
f 843 803 703
f 843 703 129
f 844 530 707
f 844 707 792
f 844 792 805
f 844 805 691
f 844 691 693
f 845 710 806
f 845 806 714
f 845 714 715
f 845 715 539
f 845 539 710
f 846 804 706
f 846 706 810
f 846 810 792
f 846 792 804
f 847 771 494
f 847 838 831
f 847 831 489
f 847 489 771
f 848 507 552
f 849 506 507
f 849 507 848
f 849 848 834
f 849 780 506
f 850 812 834
f 850 839 787
f 850 787 812
f 851 835 779
f 851 779 783
f 851 783 676
f 852 677 838
f 852 838 786
f 852 786 837
f 852 837 813
f 852 813 677
f 853 525 522
f 853 522 799
f 853 799 842
f 853 842 700
f 853 700 525
f 854 794 524
f 854 524 688
f 854 688 530
f 854 530 844
f 854 844 693
f 854 693 794
f 855 787 838
f 855 838 847
f 855 847 812
f 855 812 787
f 856 494 782
f 856 782 812
f 856 812 847
f 856 847 494
f 857 780 849
f 857 849 834
f 857 834 780
f 858 848 552
f 858 552 839
f 858 839 850
f 858 850 834
f 858 834 848
f 859 835 851
f 859 851 676
f 859 676 835
