# Normalized convex hull collision mesh - generated by scripts/generate-collision-meshes.mjs (units: meters)
v 0.023994 0.025000 0.029499
v 0.019030 0.025000 -0.032500
v -0.019030 0.025000 0.032500
v -0.023994 0.025000 -0.029499
v -0.019030 0.025000 -0.032500
v -0.025000 0.025000 0.025747
v -0.025000 0.023519 -0.025747
v -0.025000 0.023519 0.025747
v 0.019030 0.025000 0.032500
v 0.025000 0.025000 -0.025747
v 0.025000 0.023519 0.025747
v 0.025000 0.023519 -0.025747
v -0.023251 0.023519 -0.030522
v -0.023994 0.023519 -0.029499
v -0.021315 0.025000 -0.031986
v -0.022948 -0.007408 0.002616
v -0.011409 -0.014790 0.025209
v -0.024546 0.023519 0.028331
v -0.025000 0.025000 -0.025747
v -0.024885 0.023519 0.027064
v -0.024546 0.025000 0.028331
v -0.024885 0.023519 -0.027064
v 0.019590 -0.009765 0.000000
v 0.025000 0.025000 0.025747
v 0.024546 0.025000 -0.028331
v 0.024885 0.023519 -0.027064
v 0.019590 -0.008575 -0.004224
v 0.024546 0.023519 -0.028331
v -0.023251 0.025000 -0.030522
v -0.022347 0.023519 -0.031362
v -0.021315 0.023519 -0.031986
v -0.020195 0.025000 -0.032370
v -0.024885 0.025000 0.027064
v -0.024546 0.023519 -0.028331
v -0.011409 -0.014790 -0.025209
v -0.022948 -0.007408 -0.002616
v -0.022948 -0.008321 -0.000356
v -0.022948 -0.008221 -0.001048
v -0.022948 -0.007751 -0.002212
v -0.024885 0.025000 -0.027064
v 0.021315 0.025000 0.031986
v -0.019030 0.023519 0.032500
v -0.020195 0.023519 0.032370
v -0.022347 0.025000 0.031362
v 0.019590 -0.009686 0.001202
v 0.024885 0.025000 0.027064
v 0.019590 -0.009076 -0.003368
v 0.019590 -0.009452 -0.002344
v 0.024885 0.025000 -0.027064
v -0.022347 0.025000 -0.031362
v -0.010554 -0.009888 -0.029118
v 0.000000 -0.009952 -0.030920
v -0.002552 -0.008253 -0.031219
v 0.000000 -0.008258 -0.031318
v -0.001903 -0.006605 -0.031390
v 0.000832 -0.006605 -0.031434
v -0.011409 -0.016240 -0.023664
v -0.024546 0.025000 -0.028331
v 0.020195 0.025000 0.032370
v 0.021315 0.023519 0.031986
v 0.020195 0.023519 0.032370
v 0.010030 -0.008267 0.029756
v -0.001903 -0.006605 0.031390
v 0.000832 -0.006605 0.031434
v -0.023251 0.023519 0.030522
v -0.010554 -0.010097 0.029047
v -0.022347 0.023519 0.031362
v -0.021315 0.025000 0.031986
v 0.023994 0.023519 0.029499
v 0.024546 0.023519 0.028331
v 0.023251 0.023519 0.030522
v 0.023251 0.025000 0.030522
v 0.024885 0.023519 0.027064
v 0.024546 0.025000 0.028331
v 0.011409 -0.022996 -0.006797
v 0.011879 -0.021907 -0.009053
v 0.011879 -0.022341 -0.006526
v 0.011879 -0.022633 -0.003939
v 0.011409 -0.023300 -0.004103
v 0.011879 -0.016615 -0.021758
v 0.019030 0.023519 -0.032500
v 0.022347 0.025000 -0.031362
v -0.020195 0.023519 -0.032370
v -0.007584 -0.008212 -0.030440
v -0.010030 -0.008267 -0.029756
v 0.000000 -0.013376 -0.029237
v 0.000000 -0.015054 -0.027932
v -0.002552 -0.013355 -0.029145
v -0.002552 -0.011651 -0.030136
v 0.000000 -0.011666 -0.030231
v -0.002552 -0.016639 -0.026236
v 0.000000 -0.016671 -0.026319
v -0.002552 -0.018163 -0.024336
v -0.005085 -0.016545 -0.025990
v -0.005085 -0.014948 -0.027582
v -0.007584 -0.016389 -0.025582
v -0.010030 -0.016059 -0.025146
v -0.007584 -0.014817 -0.027149
v -0.011409 -0.014334 0.025627
v -0.010554 -0.014554 0.026358
v -0.011409 -0.013256 0.026495
v -0.022948 -0.007751 0.002212
v -0.022948 -0.008321 0.000356
v -0.011409 -0.022996 0.006797
v -0.022948 -0.008221 0.001048
v -0.005085 -0.024696 0.002790
v -0.007584 -0.024485 -0.000000
v -0.005085 -0.024770 -0.000000
v 0.007584 -0.024186 0.005561
v 0.010030 -0.023913 0.004254
v 0.010030 -0.023598 0.007047
v -0.007584 -0.008212 0.030440
v -0.005085 -0.008237 0.030925
v -0.010030 -0.008267 0.029756
v 0.019030 0.023519 0.032500
v -0.021315 0.023519 0.031986
v -0.023994 0.023519 0.029499
v -0.011409 -0.011654 0.027510
v -0.023251 0.025000 0.030522
v -0.011409 -0.010000 0.028242
v -0.020195 0.025000 0.032370
v 0.011409 -0.011357 0.027664
v 0.010554 -0.008254 0.029520
v 0.010554 -0.009888 0.029118
v 0.022347 0.023519 0.031362
v 0.011879 -0.020347 -0.014642
v 0.011879 -0.019795 -0.016056
v 0.011879 -0.020628 -0.013840
v 0.011879 -0.019410 -0.016943
v 0.011879 -0.018842 -0.018126
v 0.019590 -0.009686 -0.001202
v 0.011409 -0.022544 -0.009430
v 0.023251 0.023519 -0.030522
v 0.022347 0.023519 -0.031362
v 0.010554 -0.010097 -0.029047
v 0.023994 0.023519 -0.029499
v 0.011409 -0.011654 -0.027510
v 0.011409 -0.013256 -0.026495
v 0.010554 -0.011798 -0.028294
v 0.010030 -0.011531 -0.028680
v 0.011879 -0.017779 -0.020033
v 0.011879 -0.015855 -0.022719
v 0.002552 -0.016639 -0.026236
v 0.021315 0.025000 -0.031986
v 0.002552 -0.008253 -0.031219
v 0.005085 -0.008237 -0.030925
v 0.005085 -0.009910 -0.030533
v -0.010554 -0.015984 -0.024947
v -0.010554 -0.016515 -0.024339
v -0.010030 -0.014618 -0.026568
v -0.010030 -0.013104 -0.027750
v -0.010554 -0.008254 -0.029520
v -0.010030 -0.009914 -0.029351
v -0.007584 -0.013186 -0.028418
v -0.007584 -0.009858 -0.030054
v -0.005085 -0.009910 -0.030533
v -0.005085 -0.011603 -0.029852
v -0.002552 -0.009942 -0.030823
v -0.019030 0.023519 -0.032500
v -0.005085 -0.008237 -0.030925
v 0.002552 -0.011651 -0.030136
v -0.011409 -0.022933 -0.007227
v -0.011409 -0.022422 -0.010013
v -0.010554 -0.023752 -0.004490
v -0.011409 -0.023277 -0.004366
v -0.010554 -0.021327 -0.015686
v -0.011409 -0.020919 -0.015251
v -0.010554 -0.020736 -0.017201
v -0.002552 -0.015027 -0.027844
v -0.005085 -0.024068 0.008544
v -0.002552 -0.024234 0.008625
v -0.002552 -0.023655 0.011538
v -0.007584 -0.019248 0.021612
v -0.010030 -0.019820 0.019575
v -0.007584 -0.020486 0.019264
v -0.022948 -0.008027 -0.001678
v -0.011409 -0.021748 -0.012697
v -0.010030 -0.018672 -0.021633
v -0.007584 -0.019248 -0.021612
v -0.010030 -0.019820 -0.019575
v -0.007584 -0.017874 -0.023728
v -0.010030 -0.017414 -0.023496
v -0.010554 -0.017905 -0.022500
v 0.010030 -0.018672 0.021633
v 0.007584 -0.019248 0.021612
v 0.010030 -0.019820 0.019575
v 0.007584 -0.020486 0.019264
v -0.002552 -0.008253 0.031219
v 0.002552 -0.008253 0.031219
v 0.000000 -0.009952 0.030920
v 0.002552 -0.009942 0.030823
v 0.005085 -0.008237 0.030925
v 0.005085 -0.014948 0.027582
v 0.002552 -0.015027 0.027844
v 0.002552 -0.016639 0.026236
v -0.005085 -0.016545 0.025990
v -0.007584 -0.016389 0.025582
v -0.005085 -0.018054 0.024107
v 0.000000 -0.018199 0.024412
v -0.002552 -0.019571 0.022165
v 0.000000 -0.019612 0.022235
v 0.002552 -0.018163 0.024336
v 0.007584 -0.022487 0.014038
v 0.010030 -0.022511 0.012417
v 0.010030 -0.021748 0.014946
v 0.007584 -0.021570 0.016725
v 0.010554 -0.023399 0.007433
v 0.010030 -0.023129 0.009776
v 0.000000 -0.020886 0.019820
v 0.000000 -0.022002 0.017207
v 0.002552 -0.021953 0.017153
v 0.002552 -0.020841 0.019757
v -0.002552 -0.020841 0.019757
v -0.007584 -0.021570 0.016725
v -0.007584 -0.022487 0.014038
v -0.005085 -0.021809 0.016991
v 0.002552 -0.022894 0.014397
v 0.000000 -0.023708 0.011575
v 0.002552 -0.023655 0.011538
v -0.002552 -0.022894 0.014397
v -0.005085 -0.024466 0.005650
v -0.007584 -0.024186 0.005561
v -0.002552 -0.024636 0.005704
v -0.007584 -0.024412 0.002746
v -0.010030 -0.023913 0.004254
v 0.002552 -0.024942 -0.000000
v 0.000000 -0.025000 -0.000000
v 0.002552 -0.024868 -0.002817
v -0.002552 -0.024868 0.002817
v 0.000000 -0.024693 0.005722
v 0.005085 -0.024068 0.008544
v 0.002552 -0.024234 0.008625
v 0.005085 -0.024466 0.005650
v -0.010554 -0.008360 0.029502
v -0.023994 0.025000 0.029499
v 0.010554 -0.011492 0.028453
v 0.010030 -0.011531 0.028680
v 0.010554 -0.013052 0.027530
v 0.022347 0.025000 0.031362
v 0.011409 -0.014334 0.025627
v 0.011879 -0.015855 0.022719
v 0.011879 -0.016615 0.021758
v 0.011879 -0.021334 -0.011499
v 0.011409 -0.010000 -0.028242
v 0.023251 0.025000 -0.030522
v 0.010554 -0.013446 -0.027251
v 0.007584 -0.011525 -0.029384
v 0.007584 -0.013186 -0.028418
v 0.011409 -0.018830 -0.019864
v 0.011409 -0.019352 -0.018881
v 0.010554 -0.019178 -0.020431
v 0.011879 -0.015359 -0.023286
v 0.011409 -0.015724 -0.024255
v 0.020195 0.025000 -0.032370
v 0.021315 0.023519 -0.031986
v -0.010554 -0.011492 -0.028453
v -0.011409 -0.015724 -0.024255
v -0.010554 -0.015024 -0.025928
v -0.010554 -0.014554 -0.026358
v -0.005085 -0.013291 -0.028871
v -0.007584 -0.011525 -0.029384
v 0.002552 -0.009942 -0.030823
v -0.005085 -0.018054 -0.024107
v -0.005085 -0.019449 -0.021956
v 0.005085 -0.022740 -0.014262
v 0.002552 -0.022894 -0.014397
v 0.005085 -0.021809 -0.016991
v 0.010554 -0.023776 -0.004220
v 0.010030 -0.023129 -0.009776
v 0.010030 -0.023598 -0.007047
v 0.007584 -0.023794 -0.008410
v 0.007584 -0.023229 -0.011250
v -0.010030 -0.023598 0.007047
v -0.010030 -0.023129 0.009776
v -0.010554 -0.023464 0.006991
v -0.010554 -0.023776 0.004220
v -0.010554 -0.022998 0.009699
v -0.011409 -0.021748 0.012697
v -0.011409 -0.021947 0.011977
v -0.010030 -0.016059 0.025146
v -0.010554 -0.016515 0.024339
v -0.010030 -0.017414 0.023496
v -0.007584 -0.017874 0.023728
v -0.005085 -0.019449 0.021956
v -0.010554 -0.020736 0.017201
v -0.011409 -0.020344 0.016724
v -0.011409 -0.020919 0.015251
v -0.010554 -0.021327 0.015686
v -0.010030 -0.018672 0.021633
v -0.010554 -0.019715 0.019419
v -0.010554 -0.020323 0.018152
v -0.010554 -0.017329 0.023310
v -0.011409 -0.017031 0.022663
v -0.011409 -0.023452 0.001372
v -0.010554 -0.023933 0.001411
v -0.011409 -0.021947 -0.011977
v -0.010554 -0.021628 -0.014827
v -0.011409 -0.020344 -0.016724
v -0.011409 -0.019943 -0.017648
v -0.011409 -0.021212 -0.014416
v -0.011409 -0.017031 -0.022663
v -0.011409 -0.017591 -0.021876
v -0.011409 -0.018244 -0.020867
v -0.011409 -0.018830 -0.019864
v -0.010554 -0.017329 -0.023310
v 0.019590 -0.008575 0.004224
v 0.019590 -0.009452 0.002344
v 0.011409 -0.023452 -0.001372
v 0.010554 -0.023752 0.004490
v 0.011409 -0.023450 0.001460
v 0.011409 -0.023277 0.004366
v 0.011409 -0.022933 0.007227
v 0.011879 -0.022611 0.004192
v 0.011879 -0.022281 0.006938
v 0.007584 -0.016389 0.025582
v 0.007584 -0.014817 0.027149
v 0.007584 -0.017874 0.023728
v 0.010030 -0.017414 0.023496
v 0.005085 -0.018054 0.024107
v 0.010030 -0.013104 0.027750
v 0.010030 -0.014618 0.026568
v -0.005085 -0.014948 0.027582
v -0.002552 -0.016639 0.026236
v -0.007584 -0.009858 0.030054
v -0.005085 -0.009910 0.030533
v -0.005085 -0.011603 0.029852
v 0.000000 -0.008258 0.031318
v 0.002552 -0.019571 0.022165
v 0.005085 -0.020707 0.019571
v -0.002552 -0.018163 0.024336
v 0.000000 -0.016671 0.026319
v 0.010030 -0.020849 0.017339
v 0.010554 -0.022180 0.013060
v 0.010554 -0.022385 0.012319
v 0.011409 -0.021947 0.011977
v 0.010554 -0.022873 0.010299
v 0.011409 -0.022422 0.010013
v -0.010030 -0.021748 0.014946
v -0.005085 -0.022740 0.014262
v -0.002552 -0.021953 0.017153
v 0.000000 -0.022945 0.014442
v 0.000000 -0.024290 0.008652
v 0.002552 -0.024636 0.005704
v 0.000000 -0.024926 0.002825
v 0.007584 -0.023794 0.008410
v 0.005085 -0.011603 0.029852
v 0.002552 -0.011651 0.030136
v 0.007584 -0.008212 0.030440
v 0.007584 -0.009858 0.030054
v 0.010030 -0.009914 0.029351
v 0.005085 -0.009910 0.030533
v 0.011409 -0.012874 0.026767
v 0.011879 -0.015359 0.023286
v 0.011409 -0.015724 0.024255
v 0.011879 -0.021143 -0.012190
v 0.011409 -0.021212 -0.014416
v 0.011409 -0.021947 -0.011977
v 0.010554 -0.022385 -0.012319
v 0.011409 -0.020919 -0.015251
v 0.010554 -0.021628 -0.014827
v 0.010554 -0.020736 -0.017201
v 0.011409 -0.020344 -0.016724
v 0.011409 -0.019943 -0.017648
v 0.010554 -0.020323 -0.018152
v 0.010554 -0.019715 -0.019419
v 0.010030 -0.019820 -0.019575
v 0.010030 -0.018672 -0.021633
v 0.023994 0.025000 -0.029499
v 0.011409 -0.014334 -0.025627
v 0.007584 -0.009858 -0.030054
v 0.011879 -0.018341 -0.019071
v 0.011409 -0.017031 -0.022663
v 0.010554 -0.018576 -0.021462
v 0.010554 -0.017905 -0.022500
v 0.005085 -0.016545 -0.025990
v 0.005085 -0.014948 -0.027582
v 0.007584 -0.016389 -0.025582
v 0.002552 -0.015027 -0.027844
v 0.005085 -0.011603 -0.029852
v -0.002552 -0.019571 -0.022165
v 0.005085 -0.018054 -0.024107
v 0.007584 -0.017874 -0.023728
v 0.007584 -0.020486 -0.019264
v 0.007584 -0.021570 -0.016725
v 0.010030 -0.017414 -0.023496
v 0.010030 -0.016059 -0.025146
v 0.010554 -0.016515 -0.024339
v 0.010554 -0.015024 -0.025928
v 0.010030 -0.014618 -0.026568
v 0.010030 -0.013104 -0.027750
v 0.007584 -0.014817 -0.027149
v 0.020195 0.023519 -0.032370
v 0.010030 -0.008267 -0.029756
v 0.010554 -0.008360 -0.029502
v -0.011409 -0.011357 -0.027664
v -0.011409 -0.012874 -0.026767
v -0.010030 -0.011531 -0.028680
v -0.011409 -0.014334 -0.025627
v -0.010554 -0.013052 -0.027530
v -0.010030 -0.023913 -0.004254
v -0.010554 -0.023930 -0.001502
v -0.007584 -0.024186 -0.005561
v -0.007584 -0.024412 -0.002746
v -0.010030 -0.024071 0.001422
v -0.007584 -0.020486 -0.019264
v -0.010030 -0.020849 -0.017339
v -0.007584 -0.021570 -0.016725
v -0.002552 -0.024868 -0.002817
v -0.005085 -0.024466 -0.005650
v -0.002552 -0.024636 -0.005704
v 0.000000 -0.024693 -0.005722
v -0.002552 -0.023655 -0.011538
v 0.000000 -0.023708 -0.011575
v 0.000000 -0.024290 -0.008652
v -0.010554 -0.020323 -0.018152
v -0.010554 -0.019715 -0.019419
v -0.011409 -0.019352 -0.018881
v 0.007584 -0.022487 -0.014038
v 0.010030 -0.021748 -0.014946
v 0.002552 -0.023655 -0.011538
v 0.010554 -0.023464 -0.006991
v 0.010030 -0.022511 -0.012417
v -0.007584 -0.023794 0.008410
v -0.007584 -0.023229 0.011250
v -0.011409 -0.022544 0.009430
v -0.010554 -0.015984 0.024947
v -0.005085 -0.020707 0.019571
v -0.022948 -0.008027 0.001678
v -0.011409 -0.021212 0.014416
v -0.010554 -0.019178 0.020431
v -0.010554 -0.018576 0.021462
v -0.011409 -0.018244 0.020867
v -0.010554 -0.017905 0.022500
v -0.011409 -0.023450 -0.001460
v -0.011409 -0.023300 0.004103
v -0.010030 -0.021748 -0.014946
v -0.010554 -0.019178 -0.020431
v -0.010554 -0.018576 -0.021462
v 0.011879 -0.017152 0.021002
v 0.019590 -0.009076 0.003368
v 0.011879 -0.019410 0.016943
v 0.011879 -0.019795 0.016056
v 0.011879 -0.021790 0.009613
v 0.011879 -0.021334 0.011499
v 0.011879 -0.020628 0.013840
v 0.011409 -0.020919 0.015251
v 0.011409 -0.021212 0.014416
v 0.011879 -0.022779 -0.001317
v 0.010554 -0.023933 -0.001411
v 0.010554 -0.017905 0.022500
v 0.011879 -0.018842 0.018126
v 0.011879 -0.018341 0.019071
v 0.005085 -0.016545 0.025990
v 0.010554 -0.014554 0.026358
v 0.010554 -0.015024 0.025928
v 0.011409 -0.014790 0.025209
v 0.010030 -0.016059 0.025146
v 0.002552 -0.013355 0.029145
v 0.000000 -0.013376 0.029237
v 0.000000 -0.011666 0.030231
v -0.002552 -0.015027 0.027844
v -0.007584 -0.014817 0.027149
v -0.010554 -0.013446 0.027251
v -0.010030 -0.009914 0.029351
v -0.010030 -0.011531 0.028680
v 0.005085 -0.019449 0.021956
v 0.010554 -0.021628 0.014827
v 0.011409 -0.021748 0.012697
v -0.010030 -0.020849 0.017339
v -0.010554 -0.022180 0.013060
v 0.005085 -0.021809 0.016991
v 0.005085 -0.022740 0.014262
v -0.005085 -0.023494 0.011430
v 0.002552 -0.024868 0.002817
v 0.007584 -0.023229 0.011250
v 0.007584 -0.011525 0.029384
v 0.007584 -0.013186 0.028418
v 0.010554 -0.022180 -0.013060
v 0.010554 -0.021327 -0.015686
v 0.010030 -0.020849 -0.017339
v 0.010030 -0.009914 -0.029351
v 0.007584 -0.008212 -0.030440
v 0.011409 -0.016240 -0.023664
v 0.011879 -0.017152 -0.021002
v 0.011409 -0.017591 -0.021876
v 0.005085 -0.013291 -0.028871
v 0.002552 -0.013355 -0.029145
v 0.002552 -0.018163 -0.024336
v 0.002552 -0.021953 -0.017153
v 0.002552 -0.020841 -0.019757
v 0.000000 -0.022002 -0.017207
v 0.000000 -0.020886 -0.019820
v -0.002552 -0.020841 -0.019757
v -0.002552 -0.021953 -0.017153
v 0.005085 -0.020707 -0.019571
v 0.005085 -0.019449 -0.021956
v 0.007584 -0.019248 -0.021612
v 0.010554 -0.017329 -0.023310
v 0.010554 -0.015984 -0.024947
v 0.010554 -0.014554 -0.026358
v 0.011409 -0.014790 -0.025209
v -0.010030 -0.024071 -0.001422
v -0.010030 -0.023598 -0.007047
v -0.010030 -0.023129 -0.009776
v -0.007584 -0.023794 -0.008410
v -0.007584 -0.022487 -0.014038
v -0.010030 -0.022511 -0.012417
v -0.005085 -0.020707 -0.019571
v -0.005085 -0.024696 -0.002790
v -0.002552 -0.024942 -0.000000
v 0.002552 -0.024636 -0.005704
v 0.000000 -0.024926 -0.002825
v -0.002552 -0.022894 -0.014397
v -0.005085 -0.023494 -0.011430
v -0.002552 -0.024234 -0.008625
v 0.005085 -0.023494 -0.011430
v 0.005085 -0.024068 -0.008544
v 0.010554 -0.022998 -0.009699
v 0.005085 -0.024770 -0.000000
v 0.007584 -0.024412 0.002746
v -0.010554 -0.015024 0.025928
v -0.011409 -0.015724 0.024255
v -0.011409 -0.019352 0.018881
v -0.011409 -0.017591 0.021876
v -0.007584 -0.023229 -0.011250
v -0.010554 -0.022873 -0.010299
v 0.011879 -0.017779 0.020033
v 0.011409 -0.017031 0.022663
v 0.011409 -0.019943 0.017648
v 0.011879 -0.020347 0.014642
v 0.011879 -0.021143 0.012190
v 0.011879 -0.022777 0.001402
v 0.010030 -0.024071 0.001422
v 0.007584 -0.024485 -0.000000
v 0.010554 -0.023930 0.001502
v 0.010554 -0.016515 0.024339
v 0.010554 -0.019178 0.020431
v -0.002552 -0.009942 0.030823
v 0.000000 -0.015054 0.027932
v -0.002552 -0.013355 0.029145
v -0.005085 -0.013291 0.028871
v -0.010030 -0.014618 0.026568
v -0.010030 -0.013104 0.027750
v -0.010554 -0.011798 0.028294
v 0.010554 -0.021327 0.015686
v 0.010554 -0.020736 0.017201
v -0.010030 -0.022511 0.012417
v -0.010554 -0.021628 0.014827
v 0.005085 -0.023494 0.011430
v 0.005085 -0.013291 0.028871
v 0.011409 -0.021748 -0.012697
v 0.011409 -0.018244 -0.020867
v 0.002552 -0.019571 -0.022165
v -0.005085 -0.021809 -0.016991
v 0.007584 -0.024186 -0.005561
v 0.002552 -0.024234 -0.008625
v -0.005085 -0.022740 -0.014262
v 0.000000 -0.022945 -0.014442
v -0.005085 -0.024068 -0.008544
v 0.005085 -0.024696 0.002790
v -0.011409 -0.016240 0.023664
v -0.011409 -0.019943 0.017648
v -0.011409 -0.018830 0.019864
v -0.010554 -0.022385 -0.012319
v -0.010554 -0.023399 -0.007433
v 0.011409 -0.018244 0.020867
v 0.011409 -0.018830 0.019864
v 0.011409 -0.019352 0.018881
v 0.011409 -0.020344 0.016724
v 0.010030 -0.024071 -0.001422
v 0.010554 -0.017329 0.023310
v 0.010554 -0.015984 0.024947
v 0.011409 -0.016240 0.023664
v 0.010554 -0.019715 0.019419
v -0.002552 -0.011651 0.030136
v -0.007584 -0.013186 0.028418
v -0.010554 -0.022385 0.012319
v 0.000000 -0.018199 -0.024412
v 0.000000 -0.019612 -0.022235
v 0.005085 -0.024696 -0.002790
v -0.010554 -0.022180 -0.013060
v 0.011409 -0.017591 0.021876
v 0.010554 -0.018576 0.021462
v 0.010030 -0.023913 -0.004254
v 0.010554 -0.020323 0.018152
v -0.007584 -0.011525 0.029384
v 0.005085 -0.024466 -0.005650
v 0.007584 -0.024412 -0.002746
f 1 2 3
f 4 3 2
f 5 4 2
f 6 7 8
f 6 3 4
f 9 1 3
f 10 11 12
f 10 2 1
f 13 14 4
f 15 4 5
f 16 17 18
f 19 7 6
f 19 6 4
f 20 6 8
f 20 16 18
f 21 3 6
f 21 20 18
f 22 7 19
f 23 12 11
f 24 11 10
f 24 10 1
f 25 2 10
f 26 27 28
f 26 28 25
f 26 10 12
f 29 4 15
f 29 13 4
f 30 13 29
f 30 15 31
f 32 31 15
f 32 15 5
f 33 20 21
f 33 21 6
f 33 6 20
f 34 35 36
f 34 36 22
f 34 4 14
f 37 7 38
f 37 8 7
f 39 7 22
f 39 22 36
f 40 34 22
f 40 22 19
f 40 19 4
f 41 1 9
f 42 3 43
f 42 9 3
f 44 3 21
f 45 23 11
f 46 11 24
f 46 24 1
f 47 27 26
f 47 26 12
f 47 12 48
f 49 10 26
f 49 26 25
f 49 25 10
f 50 15 30
f 50 30 29
f 50 29 15
f 51 13 30
f 51 30 31
f 52 53 54
f 55 54 53
f 55 56 54
f 57 39 36
f 58 34 40
f 58 40 4
f 58 4 34
f 59 60 41
f 59 41 9
f 61 60 59
f 61 59 9
f 61 62 60
f 63 64 42
f 65 66 67
f 65 67 44
f 68 3 44
f 68 44 67
f 69 70 1
f 69 1 71
f 72 71 1
f 72 1 41
f 73 11 46
f 73 46 70
f 74 70 46
f 74 46 1
f 74 1 70
f 75 76 77
f 75 77 78
f 75 78 79
f 80 28 27
f 81 5 2
f 82 2 25
f 83 32 5
f 83 84 85
f 83 85 31
f 83 31 32
f 86 87 88
f 86 88 89
f 86 89 90
f 91 87 92
f 91 93 94
f 95 91 94
f 96 97 98
f 96 98 95
f 96 95 94
f 99 100 101
f 99 101 18
f 99 18 17
f 102 16 20
f 102 20 8
f 103 104 105
f 103 105 8
f 103 8 37
f 106 107 108
f 109 110 111
f 112 113 43
f 112 43 114
f 115 61 9
f 115 9 42
f 115 42 64
f 116 114 43
f 116 43 68
f 116 68 67
f 116 67 66
f 117 101 118
f 117 118 65
f 117 21 18
f 117 18 101
f 119 117 65
f 119 65 44
f 119 44 21
f 120 66 65
f 120 65 118
f 120 118 66
f 121 3 68
f 121 68 43
f 121 43 3
f 122 69 71
f 123 124 60
f 123 60 62
f 125 60 124
f 125 124 71
f 125 71 72
f 125 41 60
f 126 127 47
f 126 47 48
f 126 48 128
f 129 47 127
f 129 130 47
f 131 23 78
f 131 78 77
f 131 77 76
f 131 76 48
f 131 48 12
f 131 12 23
f 132 76 75
f 133 134 82
f 133 135 134
f 136 137 133
f 136 25 28
f 138 137 136
f 138 136 28
f 139 140 135
f 139 135 137
f 141 27 47
f 142 28 80
f 143 92 87
f 144 2 82
f 144 82 134
f 145 56 81
f 145 146 147
f 145 52 54
f 145 54 56
f 148 97 149
f 150 151 98
f 150 98 97
f 152 31 85
f 152 85 153
f 152 153 51
f 152 51 31
f 154 95 98
f 154 98 151
f 155 153 85
f 155 85 84
f 155 156 157
f 158 52 90
f 158 90 89
f 158 89 157
f 158 157 156
f 158 156 53
f 158 53 52
f 159 55 53
f 159 53 83
f 159 83 5
f 159 5 81
f 159 81 56
f 159 56 55
f 160 84 83
f 160 83 53
f 160 53 156
f 160 156 155
f 160 155 84
f 161 86 90
f 162 38 163
f 162 164 165
f 162 165 37
f 162 37 38
f 166 167 168
f 169 87 91
f 169 91 95
f 169 95 88
f 169 88 87
f 170 171 172
f 173 174 175
f 176 177 38
f 176 38 7
f 176 7 39
f 178 179 180
f 178 181 179
f 182 181 178
f 182 178 183
f 182 149 97
f 182 97 96
f 182 96 181
f 184 185 186
f 187 186 185
f 188 63 42
f 188 42 43
f 188 43 113
f 189 190 191
f 189 192 61
f 189 61 115
f 189 115 64
f 193 194 195
f 196 197 198
f 199 200 201
f 199 202 195
f 203 204 205
f 203 205 206
f 207 208 111
f 209 210 211
f 209 211 212
f 209 201 200
f 209 200 213
f 214 215 216
f 214 216 175
f 217 211 210
f 218 219 217
f 218 220 172
f 221 222 106
f 221 223 171
f 221 171 170
f 221 170 222
f 224 107 106
f 224 106 222
f 224 222 225
f 226 227 228
f 229 106 108
f 229 223 221
f 229 221 106
f 230 223 229
f 230 171 223
f 231 219 232
f 231 232 233
f 231 233 109
f 234 114 116
f 234 116 66
f 235 117 119
f 235 119 21
f 235 21 117
f 236 124 237
f 236 237 238
f 236 238 122
f 236 122 71
f 236 71 124
f 239 41 125
f 239 125 72
f 239 72 41
f 240 70 69
f 241 242 70
f 243 48 76
f 244 135 133
f 244 133 137
f 244 137 135
f 245 136 133
f 245 133 82
f 245 82 25
f 246 139 137
f 246 137 138
f 247 140 248
f 249 250 251
f 252 28 142
f 252 142 253
f 252 253 28
f 254 2 144
f 254 81 2
f 255 254 144
f 255 144 134
f 255 134 135
f 256 13 51
f 257 57 36
f 257 36 35
f 257 35 148
f 257 148 149
f 257 149 57
f 258 148 35
f 258 259 150
f 258 150 97
f 258 97 148
f 260 88 95
f 260 95 154
f 260 154 157
f 260 157 89
f 260 89 88
f 261 153 155
f 261 155 157
f 261 157 154
f 262 52 145
f 262 145 147
f 262 161 90
f 262 90 52
f 263 181 96
f 263 96 94
f 263 94 93
f 263 264 179
f 263 179 181
f 265 266 267
f 268 75 79
f 269 270 271
f 269 271 272
f 273 274 275
f 273 225 222
f 276 225 273
f 276 273 275
f 276 275 104
f 277 275 274
f 278 105 279
f 280 281 282
f 280 282 197
f 283 173 198
f 283 198 197
f 283 197 282
f 284 200 198
f 284 198 173
f 284 173 175
f 285 286 287
f 285 287 288
f 289 173 283
f 289 283 282
f 289 174 173
f 290 291 174
f 292 281 293
f 292 282 281
f 294 295 276
f 294 103 37
f 296 38 177
f 296 163 38
f 297 167 166
f 298 167 176
f 298 176 299
f 298 299 168
f 298 168 167
f 300 177 176
f 300 176 167
f 300 167 297
f 301 183 302
f 301 302 39
f 301 39 57
f 301 57 149
f 303 304 39
f 303 39 302
f 305 149 182
f 305 182 183
f 305 183 301
f 305 301 149
f 306 73 70
f 306 70 242
f 307 45 11
f 308 268 79
f 308 79 78
f 309 310 311
f 309 311 312
f 309 312 207
f 309 207 111
f 309 111 110
f 313 23 45
f 313 45 314
f 313 314 312
f 313 312 311
f 315 316 193
f 317 318 315
f 317 315 319
f 317 319 185
f 317 185 184
f 317 184 318
f 320 316 321
f 320 321 238
f 320 238 237
f 322 197 196
f 322 196 323
f 324 112 114
f 324 113 112
f 325 188 113
f 325 113 324
f 325 324 326
f 327 188 190
f 327 190 189
f 327 189 64
f 327 64 63
f 327 63 188
f 328 212 329
f 328 319 202
f 328 202 199
f 328 199 201
f 328 201 209
f 328 209 212
f 330 198 200
f 330 200 199
f 330 199 323
f 330 323 196
f 330 196 198
f 331 323 199
f 331 199 195
f 332 206 205
f 332 186 187
f 332 187 206
f 333 205 204
f 333 204 334
f 333 334 335
f 336 208 207
f 336 207 312
f 336 312 337
f 336 337 335
f 336 335 334
f 336 334 204
f 336 204 208
f 338 215 214
f 339 220 216
f 339 216 215
f 340 216 220
f 340 220 210
f 340 210 209
f 340 209 213
f 340 213 216
f 341 220 218
f 341 218 217
f 341 217 210
f 341 210 220
f 342 171 230
f 342 230 232
f 342 232 219
f 342 219 218
f 342 218 172
f 342 172 171
f 343 233 232
f 343 232 230
f 344 230 229
f 344 229 227
f 345 111 208
f 345 231 109
f 345 109 111
f 346 191 347
f 348 192 349
f 348 349 62
f 348 62 61
f 348 61 192
f 350 124 123
f 350 123 62
f 350 62 349
f 350 237 124
f 351 191 346
f 351 346 349
f 351 349 192
f 351 192 189
f 351 189 191
f 352 122 238
f 352 238 240
f 352 240 69
f 352 69 122
f 353 354 241
f 353 241 70
f 353 70 354
f 355 128 48
f 355 48 243
f 355 356 128
f 357 132 358
f 357 355 243
f 357 243 76
f 357 76 132
f 359 126 128
f 359 128 356
f 359 356 360
f 359 361 362
f 359 362 127
f 359 127 126
f 363 129 127
f 363 127 362
f 363 362 361
f 363 361 364
f 363 364 250
f 363 250 130
f 363 130 129
f 365 364 366
f 365 366 251
f 365 251 250
f 365 250 364
f 367 251 366
f 368 136 245
f 368 245 25
f 368 25 136
f 369 138 28
f 370 147 146
f 371 130 250
f 371 250 249
f 371 141 47
f 371 47 130
f 372 142 80
f 373 251 367
f 373 367 374
f 375 143 376
f 375 376 377
f 378 376 143
f 378 143 87
f 379 161 262
f 379 262 147
f 379 147 370
f 379 370 247
f 379 247 248
f 380 264 263
f 380 263 93
f 381 375 377
f 381 377 382
f 383 384 267
f 385 382 377
f 385 377 386
f 385 386 387
f 385 374 367
f 385 367 382
f 388 386 389
f 390 246 389
f 390 248 140
f 390 140 139
f 390 139 246
f 391 377 376
f 391 376 248
f 391 248 390
f 391 390 389
f 391 389 386
f 391 386 377
f 392 254 255
f 392 255 393
f 392 146 145
f 392 145 81
f 392 81 254
f 394 393 255
f 394 255 135
f 395 396 14
f 395 14 13
f 395 13 256
f 397 153 261
f 397 261 154
f 397 154 151
f 397 256 51
f 397 51 153
f 398 259 258
f 398 258 35
f 398 35 34
f 398 34 14
f 398 14 396
f 399 256 397
f 399 397 151
f 399 151 150
f 399 150 259
f 399 259 398
f 399 398 396
f 399 396 395
f 399 395 256
f 400 401 164
f 400 402 403
f 404 107 224
f 404 224 225
f 404 225 276
f 404 276 295
f 405 180 179
f 405 179 264
f 406 180 405
f 406 405 407
f 406 166 168
f 408 409 410
f 411 408 410
f 412 413 414
f 415 168 299
f 415 416 180
f 415 180 406
f 415 406 168
f 417 416 415
f 417 415 299
f 417 299 176
f 417 176 39
f 417 39 304
f 418 384 419
f 418 265 267
f 418 267 384
f 420 413 266
f 420 414 413
f 421 75 268
f 421 268 270
f 421 270 269
f 421 132 75
f 422 358 269
f 422 269 272
f 422 272 418
f 422 418 419
f 423 424 274
f 423 274 273
f 423 273 222
f 423 222 170
f 425 104 275
f 425 275 277
f 425 279 105
f 425 105 104
f 426 281 280
f 427 213 200
f 427 200 284
f 427 284 175
f 427 175 216
f 427 216 213
f 428 102 8
f 428 8 105
f 428 105 278
f 428 278 429
f 428 429 287
f 428 287 286
f 430 289 431
f 430 431 432
f 430 290 174
f 430 174 289
f 433 431 289
f 433 289 282
f 433 282 292
f 433 292 293
f 434 37 165
f 434 165 164
f 434 164 401
f 434 401 295
f 434 295 294
f 434 294 37
f 435 104 103
f 435 103 294
f 435 294 276
f 435 276 104
f 436 297 166
f 436 166 406
f 436 406 407
f 437 416 417
f 437 417 304
f 437 304 303
f 437 178 180
f 437 180 416
f 438 183 178
f 438 178 437
f 438 437 303
f 438 303 302
f 438 302 183
f 439 306 242
f 440 73 306
f 440 441 442
f 440 307 11
f 440 11 73
f 443 314 45
f 443 45 307
f 443 307 444
f 443 444 335
f 443 335 337
f 443 337 312
f 443 312 314
f 445 446 447
f 448 308 78
f 448 78 23
f 449 268 308
f 449 308 310
f 450 318 184
f 451 441 440
f 451 440 452
f 453 195 202
f 453 202 319
f 453 319 315
f 453 315 193
f 453 193 195
f 454 238 321
f 454 321 455
f 454 455 240
f 454 240 238
f 456 240 455
f 456 354 70
f 456 70 240
f 457 315 318
f 457 455 321
f 457 321 316
f 457 316 315
f 458 347 459
f 458 194 193
f 460 459 347
f 460 347 191
f 460 191 190
f 461 322 323
f 462 280 197
f 462 197 322
f 463 118 101
f 463 101 100
f 464 66 465
f 464 324 114
f 464 114 234
f 464 234 66
f 466 185 319
f 466 319 328
f 466 328 329
f 466 329 187
f 466 187 185
f 467 205 333
f 467 333 447
f 467 447 446
f 468 447 333
f 468 333 335
f 469 285 288
f 469 288 338
f 469 338 214
f 469 214 175
f 469 175 174
f 469 174 291
f 469 291 285
f 470 429 278
f 470 278 279
f 471 206 187
f 471 187 329
f 471 329 212
f 471 212 211
f 471 211 217
f 471 217 472
f 471 472 203
f 471 203 206
f 473 424 423
f 473 423 170
f 473 170 172
f 473 172 220
f 473 220 339
f 473 339 215
f 473 215 424
f 474 233 343
f 474 343 230
f 474 230 344
f 474 344 227
f 474 227 226
f 475 345 208
f 475 208 204
f 475 204 203
f 476 237 350
f 476 350 349
f 476 349 346
f 477 316 320
f 477 320 237
f 477 237 476
f 477 476 346
f 477 193 316
f 478 360 356
f 478 357 358
f 478 358 422
f 478 422 419
f 478 419 360
f 479 361 359
f 479 359 360
f 479 360 419
f 480 361 479
f 480 479 419
f 480 419 384
f 480 384 383
f 480 383 366
f 480 366 364
f 480 364 361
f 481 135 140
f 481 140 247
f 481 247 370
f 481 370 393
f 481 393 394
f 481 394 135
f 482 393 370
f 482 370 146
f 482 146 392
f 482 392 393
f 483 142 372
f 483 372 387
f 483 387 253
f 483 253 142
f 484 372 80
f 484 80 27
f 484 27 141
f 485 372 484
f 485 484 141
f 485 373 374
f 485 374 372
f 486 161 379
f 486 379 248
f 486 248 376
f 487 86 161
f 487 161 486
f 487 486 376
f 487 376 378
f 487 378 87
f 487 87 86
f 488 375 381
f 488 143 375
f 489 490 267
f 489 267 266
f 489 266 491
f 492 493 380
f 492 490 489
f 492 489 491
f 492 491 494
f 492 494 493
f 495 496 383
f 495 383 267
f 495 267 490
f 497 367 366
f 497 366 383
f 497 383 496
f 497 496 381
f 497 381 382
f 497 382 367
f 498 374 385
f 498 385 387
f 498 387 372
f 498 372 374
f 499 386 388
f 499 253 387
f 499 387 386
f 500 246 138
f 500 138 369
f 500 369 388
f 500 388 389
f 500 389 246
f 501 253 499
f 501 499 388
f 501 388 369
f 501 369 28
f 501 28 253
f 502 401 400
f 502 400 403
f 502 403 107
f 502 107 404
f 502 404 295
f 502 295 401
f 503 504 505
f 503 505 402
f 503 402 400
f 503 400 164
f 506 507 436
f 506 436 407
f 508 405 264
f 508 264 380
f 508 380 493
f 509 403 402
f 509 402 409
f 509 409 408
f 509 408 108
f 509 108 107
f 509 107 403
f 510 108 408
f 510 408 227
f 510 227 229
f 510 229 108
f 511 228 411
f 512 408 411
f 512 411 228
f 512 228 227
f 512 227 408
f 513 494 491
f 513 413 412
f 513 412 514
f 515 410 409
f 515 412 414
f 515 414 411
f 515 411 410
f 516 265 418
f 516 418 272
f 516 272 271
f 516 271 517
f 516 517 420
f 516 420 266
f 516 266 265
f 518 358 132
f 518 132 421
f 518 421 269
f 518 269 358
f 519 474 226
f 519 226 228
f 520 110 109
f 521 100 99
f 521 99 17
f 521 17 426
f 521 426 280
f 522 281 426
f 522 426 17
f 522 17 16
f 523 102 428
f 523 291 290
f 523 290 430
f 524 432 431
f 524 431 433
f 524 433 293
f 524 293 102
f 524 102 432
f 525 504 507
f 525 507 506
f 525 506 514
f 525 514 505
f 525 505 504
f 526 163 296
f 526 507 504
f 526 162 163
f 527 452 440
f 527 440 306
f 527 306 439
f 528 439 242
f 528 242 241
f 529 441 451
f 529 442 441
f 530 440 442
f 530 442 446
f 530 446 445
f 530 445 307
f 530 307 440
f 531 307 445
f 531 445 447
f 531 447 468
f 531 468 335
f 531 335 444
f 531 444 307
f 532 313 311
f 532 311 310
f 532 310 308
f 532 308 448
f 532 448 23
f 532 23 313
f 533 110 520
f 533 520 534
f 535 309 110
f 535 110 533
f 535 533 449
f 535 449 310
f 535 310 309
f 536 457 318
f 537 184 186
f 538 325 326
f 538 460 190
f 538 190 188
f 538 188 325
f 539 331 195
f 539 195 194
f 539 194 458
f 539 458 459
f 539 461 323
f 539 323 331
f 540 322 461
f 540 461 539
f 540 539 459
f 541 322 540
f 542 100 521
f 542 521 280
f 542 280 462
f 542 462 543
f 542 543 463
f 542 463 100
f 544 463 543
f 544 543 465
f 544 465 66
f 544 66 118
f 544 118 463
f 545 205 467
f 545 467 446
f 545 446 546
f 545 546 332
f 545 332 205
f 547 274 424
f 547 424 215
f 547 215 338
f 547 338 470
f 548 288 287
f 548 287 429
f 548 429 470
f 548 470 338
f 548 338 288
f 549 472 217
f 549 217 219
f 549 219 231
f 549 231 345
f 549 345 475
f 549 475 203
f 549 203 472
f 550 458 193
f 550 193 477
f 550 477 346
f 550 346 347
f 550 347 458
f 551 357 478
f 551 478 356
f 551 356 355
f 551 355 357
f 552 249 251
f 552 251 373
f 552 373 485
f 552 485 141
f 552 141 371
f 552 371 249
f 553 496 495
f 553 495 490
f 553 490 492
f 553 488 381
f 553 381 496
f 554 494 513
f 554 506 407
f 554 407 405
f 554 405 508
f 554 508 493
f 554 493 494
f 555 517 271
f 555 271 270
f 556 414 420
f 556 420 517
f 556 511 411
f 556 411 414
f 557 506 554
f 557 554 513
f 557 513 514
f 557 514 506
f 558 266 413
f 558 413 513
f 558 513 491
f 558 491 266
f 559 505 514
f 559 514 412
f 559 412 515
f 559 515 409
f 559 409 402
f 559 402 505
f 560 233 474
f 560 474 519
f 560 519 534
f 560 534 520
f 560 520 109
f 560 109 233
f 561 281 522
f 561 522 16
f 561 16 102
f 561 102 293
f 561 293 281
f 562 286 285
f 562 285 291
f 562 291 523
f 562 523 428
f 562 428 286
f 563 432 102
f 563 102 523
f 563 523 430
f 563 430 432
f 564 507 526
f 564 526 296
f 565 503 164
f 565 164 162
f 565 162 526
f 565 526 504
f 565 504 503
f 566 567 452
f 566 452 527
f 566 537 567
f 568 567 537
f 568 529 451
f 568 451 452
f 568 452 567
f 569 446 442
f 569 442 529
f 569 529 546
f 569 546 446
f 570 449 533
f 570 533 534
f 570 268 449
f 571 450 528
f 571 528 536
f 571 536 318
f 571 318 450
f 572 457 536
f 572 536 354
f 572 354 456
f 572 456 455
f 572 455 457
f 573 354 536
f 573 536 528
f 573 528 241
f 573 241 354
f 574 568 537
f 574 537 186
f 575 460 538
f 575 538 326
f 575 326 541
f 575 541 540
f 575 540 459
f 575 459 460
f 576 465 543
f 576 543 462
f 576 462 322
f 576 322 541
f 576 541 326
f 577 277 274
f 577 274 547
f 577 547 470
f 577 470 279
f 577 279 425
f 577 425 277
f 578 488 553
f 578 380 93
f 578 93 91
f 578 91 92
f 578 92 143
f 578 143 488
f 579 380 578
f 579 578 553
f 579 553 492
f 579 492 380
f 580 519 228
f 580 534 519
f 581 436 507
f 581 507 564
f 581 564 296
f 581 296 177
f 581 177 300
f 581 300 297
f 581 297 436
f 582 439 528
f 582 528 450
f 582 566 527
f 582 527 439
f 583 537 566
f 583 566 582
f 583 582 450
f 583 450 184
f 583 184 537
f 584 268 570
f 584 555 270
f 584 270 268
f 585 529 568
f 585 568 574
f 585 574 186
f 585 186 332
f 585 332 546
f 585 546 529
f 586 465 576
f 586 576 326
f 586 326 324
f 586 324 464
f 586 464 465
f 587 511 556
f 587 556 517
f 587 517 555
f 587 555 580
f 587 580 228
f 587 228 511
f 588 580 555
f 588 555 584
f 588 584 570
f 588 570 534
f 588 534 580
