# Convex hull collision mesh — generated by scripts/generate-collision-meshes.mjs
v -150.837524 -5.557568 -8.970372
v -150.837524 7.317618 -8.970372
v -150.837524 7.217618 -9.470372
v -102.823792 -4.943238 -14.043633
v -102.823792 6.703209 -14.043633
v -102.823792 6.703209 -4.397186
v -150.837524 7.317618 -9.470372
v -147.611603 5.825774 -15.063656
v -108.033791 0.050830 3.779590
v -106.428917 -0.577432 3.779590
v -106.741035 2.379376 3.779590
v -147.611603 -4.065724 -3.377088
v -150.837524 -5.557568 -9.470372
v -106.751099 -0.619658 3.779590
v -105.494537 1.646689 3.779590
v -102.823792 -4.943238 -4.397186
v -120.894501 7.430736 -5.079207
v -147.517715 7.610584 -5.378226
v -103.000565 6.864465 -4.324753
v -107.866386 1.918249 3.779590
v -107.361702 -0.504215 3.779590
v -102.982315 -5.119070 -4.397186
v -120.894501 -6.866614 -9.448356
v -103.000565 -5.120014 -14.043633
v -120.894501 -6.693888 -10.862991
v -147.517715 -6.393031 -11.897153
v -120.844498 -6.378511 -11.876408
v -105.641495 -0.092209 3.779590
v -105.292007 1.036817 3.779590
v -147.592728 7.897094 -12.436377
v -147.592728 8.141230 -11.838930
v -147.592728 8.350963 -11.161257
v -147.517715 8.525146 -10.491055
v -120.894501 8.277514 -11.530979
v -103.000565 -5.084813 -14.149493
v -120.894501 -5.000401 -14.268450
v -103.000565 -5.057843 -14.178227
v -120.894501 -4.206217 -15.067820
v -147.602661 5.938342 -15.035715
v -147.517715 6.875182 -14.131644
v -120.894501 6.950305 -14.038462
v -103.000565 6.837803 -14.158238
v -147.517715 7.628578 -13.030822
v -147.592728 6.854038 -14.108430
v -147.570618 6.759835 -14.247443
v -120.894501 8.025084 -6.218712
v -120.844498 8.138230 -6.563430
v -147.517715 8.628905 -9.088652
v -147.517715 8.497161 -7.791478
v -120.894501 8.626672 -8.992797
v -120.894501 8.557653 -10.276637
v -147.614471 -4.065724 -15.057766
v -147.602661 -4.065724 -15.077822
v -147.598480 5.825774 -15.083069
v -107.068771 -0.592694 3.779590
v -107.839249 -0.185850 3.779590
v -120.894501 -5.969768 -5.595104
v -147.517715 -5.868528 -5.409922
v -120.894501 -6.264840 -12.222468
v -120.844498 -5.996752 -12.749091
v -103.000565 -5.104493 -14.116067
v -102.957420 -5.114669 -14.043633
v -103.000565 -5.119070 -14.061885
v -120.844498 -6.822469 -9.862868
v -103.000565 -5.116101 -14.080623
v -106.142670 2.236073 3.779590
v -106.124626 -0.467419 3.779590
v -105.359215 0.410325 3.779590
v -105.360901 1.354749 3.779590
v -120.873116 5.863276 -15.117062
v -147.517715 5.876137 -15.114364
v -120.853104 5.900279 -15.106988
v -103.000565 6.809070 -14.185208
v -102.875565 6.791597 -14.132021
v -120.894501 5.966267 -15.067820
v -103.000565 6.703209 -14.220409
v -120.894501 -4.065724 -15.120372
v -120.894501 5.825774 -15.120372
v -120.844498 7.242240 -13.609303
v -120.894501 7.729809 -12.845664
v -120.844498 8.582564 -9.862285
v -103.000565 6.859686 -14.125883
v -103.000565 6.874640 -14.086776
v -102.928131 6.864465 -14.043633
v -120.844498 8.403401 -10.992579
v -147.592728 7.606072 -13.007485
v -120.844498 8.137505 -11.879298
v -147.517715 8.165803 -11.862329
v -120.894501 -5.670271 -13.362195
v -147.567078 5.958273 -15.058629
v -147.561188 5.825774 -15.111059
v -147.573685 6.425685 -14.611190
v -147.517715 5.966267 -15.067820
v -147.592728 7.251168 -13.578179
v -120.844498 7.796526 -5.770166
v -147.517715 8.153081 -6.543591
v -120.894501 8.453922 -7.577661
v -147.592728 8.598959 -9.220372
v -147.592728 8.557511 -8.421533
v -120.844498 8.582446 -8.577048
v -103.000565 6.876072 -4.360197
v -102.957420 6.874640 -4.397186
v -147.561188 -4.065724 -3.329684
v -147.543610 5.825774 -3.323579
v -147.567078 5.825774 -3.332552
v -147.581238 -4.065724 -3.341493
v -147.592728 7.171898 -4.748877
v -147.592728 7.529627 -5.300584
v -147.592728 6.805997 -4.274181
v -108.033791 1.709142 3.779590
v -107.374580 2.258741 3.779590
v -147.517715 -4.065724 -15.120372
v -147.543610 -4.065724 -15.117165
v -147.528671 5.825774 -15.119805
v -147.517715 -4.116086 -15.114364
v -147.567078 -4.065724 -15.108191
v -147.586487 -4.065724 -15.095062
v -147.517715 -5.103739 -14.145518
v -147.592728 -5.769577 -13.140160
v -147.592728 -6.104270 -12.506946
v -147.592728 -5.411849 -13.691867
v -147.592728 -6.352826 -11.916260
v -107.615654 -0.368214 3.779590
v -147.517715 -4.116086 -3.326380
v -147.573685 -4.665635 -3.829554
v -147.517715 -6.737111 -10.649265
v -147.517715 -6.405753 -6.578415
v -120.894501 -6.797670 -8.164581
v -103.000565 -5.114669 -4.354043
v -120.844498 -6.377133 -6.560575
v -120.894501 -6.517553 -6.910065
v -102.918312 -5.099714 -14.043633
v -102.885963 -5.077832 -14.043633
v -102.894707 -5.084813 -4.397186
v -102.865974 -5.057843 -4.397186
v -103.000565 -5.077832 -4.282581
v -120.844498 -6.730769 -10.568384
v -105.679581 1.895229 3.779590
v -102.912178 6.791597 -4.272186
v -106.427505 2.337060 3.779590
v -103.000565 6.844784 -4.291326
v -105.292908 0.714806 3.779590
v -102.844086 6.703209 -4.314937
v -102.829132 6.703209 -4.354043
v -147.517715 5.825774 -15.120372
v -102.829132 -4.943238 -14.086776
v -102.839310 -5.015671 -14.043633
v -102.844086 -4.943238 -14.125883
v -102.912178 -5.031626 -14.168633
v -103.000565 -4.986381 -14.215064
v -102.928131 -4.943238 -14.204888
v -102.885956 6.703209 -14.178227
v -102.918312 6.703209 -14.200109
v -103.000565 6.740199 -14.216496
v -103.000565 6.721461 -14.219465
v -102.844086 6.785459 -14.043633
v -102.829132 6.746352 -14.043633
v -102.865974 6.817815 -14.043633
v -102.918312 6.859686 -4.397186
v -102.885956 6.837803 -4.397186
v -102.894707 6.844784 -14.043633
v -102.824730 6.721461 -4.397186
v -102.982315 6.879041 -14.043633
v -103.000565 6.879986 -4.397186
v -120.844498 7.862531 -12.534949
v -103.000565 -4.943238 -14.220409
v -147.517715 5.924325 -15.096338
v -120.870575 5.931298 -15.092556
v -120.882195 5.949124 -15.081261
v -120.844307 6.364100 -14.666882
v -147.570618 6.077209 -14.950371
v -147.569855 6.840158 -14.152637
v -147.592728 7.864320 -5.933798
v -147.592728 8.112876 -6.524484
v -120.844498 8.351828 -7.242015
v -147.592728 8.314424 -7.143919
v -103.000565 6.879041 -4.378934
v -147.539917 -4.065724 -3.322720
v -147.602661 5.825774 -3.362921
v -147.598480 -4.065724 -3.357674
v -107.651573 2.103485 3.779590
v -147.539917 5.825774 -15.118024
v -147.581238 5.825774 -15.099251
v -147.581238 -4.192356 -15.051884
v -147.592728 -5.045947 -14.166562
v -147.592728 -4.612032 -14.644323
v -147.517715 -5.850533 -13.062517
v -147.517715 -4.206217 -3.372924
v -147.570618 -4.999784 -4.193300
v -147.592728 -5.093988 -4.332314
v -147.592728 -5.491117 -4.862565
v -147.569855 -5.080108 -4.288106
v -147.592728 -5.846022 -5.433258
v -147.517715 -5.115132 -4.309100
v -147.517715 -6.868855 -9.352092
v -147.592728 -6.819569 -8.674305
v -147.592728 -6.554373 -11.296825
v -147.592728 -6.590912 -7.279487
v -102.928131 -5.104493 -4.397186
v -102.858994 -5.049098 -14.043633
v -105.478897 0.140221 3.779590
v -103.000565 -5.099714 -4.314937
v -105.857841 -0.300109 3.779590
v -105.898064 2.090559 3.779590
v -102.839310 6.775642 -4.397186
v -102.827705 -4.980227 -14.043633
v -102.829132 -4.986381 -4.397186
v -102.865974 -4.943238 -14.158238
v -103.000565 -5.025487 -14.200109
v -102.839310 6.703209 -14.116067
v -103.000565 6.775642 -14.204888
v -102.957420 6.703209 -14.215064
v -102.963577 6.876072 -14.043633
v -120.872871 -4.103658 -15.116984
v -120.875473 -4.179000 -15.087928
v -120.863945 -4.160211 -15.098373
v -147.543610 5.964162 -15.065399
v -147.586487 5.949657 -15.048723
v -147.592728 8.461505 -7.770162
v -120.844498 8.490639 -7.871300
v -147.611603 5.929045 -3.415717
v -147.598480 5.941786 -3.401069
v -147.586487 5.825774 -3.345681
v -147.614471 5.825774 -3.382978
v -147.517715 6.863789 -4.295225
v -107.064163 2.353549 3.779590
v -147.517715 5.924325 -3.344405
v -147.517715 5.876137 -3.326380
v -147.611603 -4.168995 -15.025026
v -147.598480 -4.181736 -15.039674
v -147.517715 -4.206217 -15.067820
v -147.567078 -4.198224 -3.382114
v -147.592728 -6.137044 -6.004367
v -147.592728 -6.797461 -10.019212
v -120.844498 -6.822439 -8.577604
v -147.592728 -6.701455 -10.670582
v -147.517715 -6.765095 -7.949688
v -102.963577 -5.116101 -4.397186
v -102.875565 -5.031626 -4.308798
v -102.839310 -4.943238 -4.324753
v -102.858994 6.809070 -4.397186
v -102.827705 6.740199 -4.397186
v -102.824730 -4.961490 -14.043633
v -102.894707 -4.943238 -14.185208
v -102.827705 6.703209 -14.080623
v -102.858994 6.703209 -14.149493
v -102.963577 -4.943238 -14.216496
v -120.853096 -4.140232 -15.106982
v -147.592728 6.372082 -3.796420
v -147.528671 -4.205845 -15.067391
v -147.586487 -4.189607 -3.392021
v -147.543610 -4.204112 -3.375344
v -147.592728 -6.381180 -6.601813
v -120.844498 -6.652847 -7.488968
v -102.844086 -5.025487 -4.397186
v -102.827705 -4.943238 -4.360197
v -102.824730 6.703209 -14.061885
v -102.982315 -4.943238 -14.219465
v -147.561188 5.960155 -3.379951
v -147.561188 -4.200105 -15.060793
v -147.602661 -4.178292 -3.405028
v -147.570618 -4.317159 -3.490373
v -147.517715 -4.164275 -3.344405
v -102.824730 -4.943238 -4.378934
v -147.528671 5.965895 -3.373352
v -147.581238 5.952406 -3.388860
v -147.539917 -4.204676 -15.066048
v -147.517715 -4.164275 -15.096338
v -147.539917 5.964726 -3.374696
f 1 2 3
f 4 5 6
f 7 3 2
f 8 3 7
f 9 10 11
f 12 2 1
f 13 1 3
f 13 3 8
f 14 10 9
f 15 11 10
f 16 4 6
f 17 18 11
f 17 11 19
f 20 9 11
f 21 14 9
f 22 23 24
f 25 26 27
f 28 15 10
f 29 15 28
f 30 7 31
f 32 33 34
f 32 31 7
f 32 7 33
f 35 36 37
f 38 37 36
f 39 8 7
f 40 41 42
f 40 43 41
f 44 45 7
f 46 19 47
f 48 7 2
f 48 49 50
f 48 51 33
f 52 8 53
f 52 53 13
f 52 13 8
f 54 53 8
f 54 8 39
f 55 14 21
f 56 21 9
f 57 14 58
f 59 27 26
f 59 60 61
f 59 61 27
f 62 22 24
f 63 24 23
f 63 23 64
f 63 62 24
f 65 61 62
f 65 62 63
f 65 63 25
f 65 25 27
f 65 27 61
f 66 11 15
f 67 28 10
f 68 29 28
f 69 15 29
f 70 71 72
f 73 42 74
f 73 75 42
f 76 77 78
f 79 41 43
f 79 43 80
f 79 42 41
f 81 51 48
f 81 48 50
f 82 42 79
f 82 79 80
f 82 34 83
f 82 83 84
f 82 84 74
f 82 74 42
f 85 51 83
f 85 83 34
f 85 34 33
f 85 33 51
f 86 7 30
f 86 30 43
f 87 34 82
f 88 31 32
f 88 32 34
f 88 34 87
f 88 80 43
f 88 43 30
f 88 30 31
f 89 35 61
f 89 61 60
f 90 71 91
f 92 75 93
f 92 7 45
f 92 45 40
f 92 40 42
f 94 44 7
f 94 7 86
f 94 86 43
f 94 43 40
f 95 17 19
f 95 19 46
f 95 46 18
f 95 18 17
f 96 46 47
f 96 97 49
f 96 18 46
f 98 7 48
f 98 48 33
f 98 33 7
f 99 49 48
f 99 48 2
f 99 2 49
f 100 49 97
f 100 50 49
f 101 19 102
f 101 47 19
f 103 104 105
f 106 103 105
f 107 18 108
f 107 108 2
f 107 2 109
f 110 20 104
f 110 9 20
f 111 20 11
f 112 78 77
f 113 114 112
f 113 112 115
f 113 115 116
f 113 116 91
f 117 53 54
f 118 36 35
f 118 35 89
f 119 120 13
f 119 13 121
f 122 13 120
f 122 120 26
f 123 21 56
f 123 56 124
f 123 124 21
f 125 14 55
f 126 25 64
f 126 64 23
f 126 26 25
f 127 57 58
f 128 22 129
f 130 57 127
f 130 127 131
f 132 133 134
f 132 62 61
f 135 134 133
f 136 67 10
f 137 25 63
f 137 63 64
f 137 64 25
f 138 66 15
f 138 15 139
f 140 11 66
f 141 19 11
f 141 11 140
f 141 140 66
f 141 66 139
f 141 139 19
f 142 29 68
f 143 69 29
f 143 29 144
f 143 139 15
f 143 15 69
f 145 114 71
f 145 71 70
f 145 70 78
f 145 78 112
f 145 112 114
f 146 147 148
f 149 133 132
f 149 132 61
f 149 61 35
f 149 35 37
f 149 150 151
f 149 148 147
f 152 153 74
f 154 70 72
f 155 70 154
f 155 76 78
f 155 78 70
f 156 157 74
f 156 74 158
f 159 102 19
f 159 19 139
f 159 139 160
f 159 84 102
f 161 84 159
f 161 159 160
f 161 160 158
f 161 158 74
f 161 74 84
f 162 6 5
f 162 5 157
f 162 144 6
f 163 83 51
f 163 51 81
f 163 81 50
f 163 50 164
f 163 164 102
f 165 80 88
f 165 88 87
f 165 87 82
f 165 82 80
f 166 77 76
f 167 71 90
f 167 168 72
f 167 72 71
f 169 75 73
f 169 73 168
f 169 168 167
f 169 167 93
f 169 93 75
f 170 75 92
f 170 92 42
f 170 42 75
f 171 7 92
f 172 44 94
f 172 94 40
f 172 40 45
f 172 45 44
f 173 18 96
f 173 96 174
f 173 174 2
f 173 2 108
f 173 108 18
f 175 97 96
f 175 96 47
f 175 47 101
f 175 101 97
f 176 2 174
f 176 174 96
f 176 96 49
f 177 164 50
f 177 50 100
f 177 97 101
f 177 101 102
f 177 102 164
f 178 9 110
f 178 110 104
f 178 104 103
f 178 103 124
f 178 124 56
f 178 56 9
f 179 12 180
f 181 20 111
f 182 114 113
f 182 113 91
f 182 91 71
f 182 71 114
f 183 91 116
f 183 116 117
f 183 117 54
f 183 90 91
f 184 117 116
f 185 186 118
f 185 118 121
f 185 121 13
f 185 13 186
f 187 89 60
f 187 60 59
f 187 59 26
f 187 26 120
f 187 120 119
f 187 119 121
f 187 121 118
f 187 118 89
f 188 125 55
f 189 125 1
f 190 1 191
f 190 191 192
f 190 192 189
f 190 189 1
f 193 58 191
f 193 191 1
f 194 14 125
f 194 125 189
f 194 189 192
f 194 192 191
f 194 191 58
f 194 58 14
f 195 196 1
f 195 1 13
f 195 126 23
f 195 128 196
f 197 26 126
f 197 13 122
f 197 122 26
f 198 131 127
f 199 62 132
f 199 132 134
f 200 135 133
f 200 133 149
f 200 149 147
f 201 68 28
f 202 14 57
f 202 57 130
f 202 130 131
f 202 131 129
f 202 129 199
f 202 136 10
f 202 10 14
f 203 28 67
f 204 66 138
f 204 138 139
f 204 139 66
f 205 139 143
f 205 143 144
f 205 157 156
f 206 147 146
f 206 207 147
f 208 148 149
f 209 150 149
f 209 149 37
f 210 146 148
f 210 74 157
f 211 73 74
f 211 74 153
f 211 154 72
f 211 72 168
f 211 168 73
f 212 153 151
f 212 76 155
f 212 155 154
f 212 154 211
f 212 211 153
f 213 84 83
f 213 83 163
f 213 163 102
f 213 102 84
f 214 77 166
f 214 166 150
f 214 115 112
f 214 112 77
f 215 216 209
f 215 209 37
f 215 37 38
f 217 93 167
f 217 167 90
f 217 90 171
f 217 171 92
f 217 92 93
f 218 39 7
f 218 7 171
f 218 171 90
f 218 90 183
f 218 183 54
f 218 54 39
f 219 2 176
f 219 176 49
f 219 49 2
f 220 97 177
f 220 177 100
f 220 100 97
f 221 2 179
f 221 179 222
f 221 222 2
f 223 106 105
f 223 222 179
f 223 179 180
f 223 180 106
f 224 12 179
f 224 179 2
f 224 2 12
f 225 11 18
f 225 18 107
f 225 107 109
f 226 11 225
f 226 227 111
f 226 111 11
f 228 227 105
f 228 105 104
f 228 104 20
f 228 20 181
f 228 181 111
f 228 111 227
f 229 13 53
f 230 13 229
f 230 229 53
f 230 53 117
f 230 117 184
f 230 184 186
f 230 186 13
f 231 38 36
f 231 36 118
f 231 215 38
f 232 124 103
f 232 103 106
f 233 127 58
f 233 58 193
f 233 193 1
f 234 126 195
f 234 195 13
f 234 13 126
f 235 128 195
f 235 195 23
f 235 23 22
f 235 22 128
f 236 13 197
f 236 197 126
f 236 126 13
f 237 131 198
f 237 198 1
f 237 1 196
f 237 196 128
f 238 62 199
f 238 199 129
f 238 129 22
f 238 22 62
f 239 68 201
f 239 201 28
f 239 28 203
f 239 203 67
f 239 67 136
f 239 136 202
f 239 202 199
f 239 199 134
f 239 134 135
f 240 142 68
f 240 68 239
f 240 239 207
f 241 139 205
f 241 205 156
f 241 156 158
f 241 158 160
f 241 160 139
f 242 162 157
f 242 157 205
f 242 205 144
f 242 144 162
f 243 4 16
f 243 16 207
f 243 207 206
f 243 206 146
f 243 146 4
f 244 151 153
f 244 153 152
f 244 152 208
f 244 208 149
f 244 149 151
f 245 146 210
f 245 210 157
f 246 208 152
f 246 152 74
f 246 74 210
f 246 210 148
f 246 148 208
f 247 212 151
f 247 151 150
f 248 115 214
f 248 214 150
f 248 150 209
f 248 209 216
f 249 225 109
f 249 109 2
f 249 2 222
f 250 231 118
f 250 118 186
f 251 232 106
f 251 106 180
f 252 125 188
f 253 127 233
f 253 233 1
f 253 1 198
f 253 198 127
f 254 131 237
f 254 237 128
f 254 128 129
f 254 129 131
f 255 207 239
f 255 239 135
f 255 135 200
f 255 200 147
f 255 147 207
f 256 144 29
f 256 29 142
f 256 142 240
f 256 240 207
f 257 4 146
f 257 146 245
f 257 245 157
f 257 157 5
f 257 5 4
f 258 76 212
f 258 212 247
f 258 247 150
f 258 150 166
f 258 166 76
f 259 105 227
f 260 184 116
f 260 186 184
f 261 12 1
f 261 1 251
f 261 251 180
f 261 180 12
f 262 125 252
f 262 252 232
f 262 232 251
f 262 251 1
f 262 1 125
f 263 124 232
f 263 232 252
f 263 252 188
f 263 188 55
f 263 55 21
f 263 21 124
f 264 6 144
f 264 144 256
f 264 256 207
f 264 207 16
f 264 16 6
f 265 226 225
f 265 225 249
f 265 227 226
f 266 222 223
f 266 223 105
f 266 105 259
f 266 259 249
f 266 249 222
f 267 250 186
f 267 186 260
f 268 115 248
f 268 248 216
f 268 216 215
f 268 215 231
f 268 231 250
f 268 250 267
f 268 267 260
f 268 260 116
f 268 116 115
f 269 259 227
f 269 227 265
f 269 265 249
f 269 249 259
