# Convex hull collision mesh — generated by scripts/generate-collision-meshes.mjs (units: meters)
v 0.036974 0.086135 0.080680
v 0.039663 0.086044 0.120680
v 0.039663 0.086044 0.080680
v 0.055938 0.061640 0.039680
v 0.055938 0.058640 0.039680
v 0.018938 0.058640 0.039680
v 0.062313 0.062640 0.047680
v 0.012564 0.057640 0.047680
v 0.012564 0.062640 0.047680
v 0.012965 0.055036 0.047680
v 0.011581 0.057422 0.080680
v 0.036295 0.059168 0.147780
v 0.037650 0.061625 0.147780
v 0.035990 0.060529 0.147780
v 0.037227 0.058655 0.147780
v 0.034290 0.085948 0.080680
v 0.034938 0.085014 0.047680
v 0.018938 0.061640 0.039680
v 0.018854 0.076861 0.047680
v 0.020717 0.078724 0.047680
v 0.017198 0.074813 0.047680
v 0.017972 0.077375 0.080680
v 0.039938 0.085014 0.047680
v 0.042542 0.084613 0.047680
v 0.011438 0.060140 0.080680
v 0.011578 0.062827 0.080680
v 0.011578 0.062827 0.120680
v 0.036096 0.059470 0.147780
v 0.045473 0.035412 0.120680
v 0.045473 0.035412 0.080680
v 0.048014 0.036387 0.080680
v 0.024438 0.037623 0.120680
v 0.026863 0.036387 0.080680
v 0.026863 0.036387 0.120680
v 0.029404 0.035412 0.080680
v 0.027326 0.037276 0.047680
v 0.032033 0.034708 0.120680
v 0.032033 0.034708 0.080680
v 0.034721 0.034282 0.120680
v 0.034721 0.034282 0.080680
v 0.032335 0.035666 0.047680
v 0.012007 0.054734 0.080680
v 0.012711 0.052105 0.080680
v 0.012007 0.054734 0.120680
v 0.012711 0.052105 0.120680
v 0.013686 0.049564 0.120680
v 0.013826 0.052468 0.122762
v 0.014882 0.052540 0.124548
v 0.014025 0.052532 0.123124
v 0.014758 0.050042 0.122762
v 0.018117 0.042742 0.120680
v 0.020041 0.040818 0.080680
v 0.020041 0.040818 0.120680
v 0.018117 0.042742 0.080680
v 0.016404 0.044857 0.120680
v 0.024215 0.079643 0.124927
v 0.024081 0.079840 0.124548
v 0.022747 0.078562 0.124927
v 0.036042 0.061790 0.147530
v 0.059180 0.074398 0.080680
v 0.052190 0.081550 0.080680
v 0.059180 0.074398 0.120680
v 0.034290 0.085948 0.120680
v 0.031640 0.085485 0.120680
v 0.031640 0.085485 0.080680
v 0.029788 0.083940 0.047680
v 0.029051 0.084750 0.080680
v 0.029051 0.084750 0.120680
v 0.038727 0.083907 0.124548
v 0.037438 0.084967 0.122762
v 0.037438 0.083942 0.124548
v 0.052190 0.081550 0.120680
v 0.042328 0.085676 0.120680
v 0.011581 0.057422 0.120680
v 0.012682 0.068086 0.120680
v 0.013636 0.070601 0.120680
v 0.012682 0.068086 0.080680
v 0.024171 0.082500 0.080680
v 0.021931 0.081009 0.080680
v 0.024171 0.082500 0.120680
v 0.019858 0.079295 0.080680
v 0.017972 0.077375 0.120680
v 0.022765 0.080380 0.047680
v 0.024976 0.081812 0.047680
v 0.014845 0.073005 0.080680
v 0.014845 0.073005 0.120680
v 0.061912 0.065243 0.047680
v 0.061239 0.067790 0.047680
v 0.062953 0.065139 0.080680
v 0.059111 0.072602 0.047680
v 0.057679 0.074813 0.047680
v 0.039938 0.035265 0.047680
v 0.013638 0.067790 0.047680
v 0.014575 0.070252 0.047680
v 0.038887 0.059751 0.147780
v 0.042844 0.034708 0.080680
v 0.040156 0.034282 0.120680
v 0.040156 0.034282 0.080680
v 0.045089 0.036339 0.047680
v 0.027340 0.037459 0.122762
v 0.027425 0.037650 0.123124
v 0.027111 0.038695 0.124548
v 0.028717 0.038250 0.124927
v 0.027215 0.038910 0.124927
v 0.029766 0.036528 0.122762
v 0.030797 0.036217 0.122762
v 0.031071 0.037205 0.124548
v 0.032277 0.035855 0.122762
v 0.029788 0.036339 0.047680
v 0.029404 0.035412 0.120680
v 0.033422 0.035640 0.122762
v 0.037438 0.034140 0.080680
v 0.024438 0.037623 0.080680
v 0.024976 0.038467 0.047680
v 0.022765 0.039899 0.047680
v 0.018680 0.045880 0.124927
v 0.035700 0.058662 0.147404
v 0.017248 0.047991 0.124927
v 0.020331 0.043935 0.124927
v 0.016053 0.050246 0.124927
v 0.015108 0.052616 0.124927
v 0.015836 0.050145 0.124548
v 0.017044 0.047868 0.124548
v 0.014922 0.047140 0.120680
v 0.016119 0.047831 0.123124
v 0.014193 0.055023 0.124548
v 0.014949 0.050127 0.123124
v 0.016404 0.044857 0.080680
v 0.036402 0.062037 0.147530
v 0.036612 0.061391 0.147780
v 0.024902 0.080092 0.124927
v 0.026401 0.080958 0.124927
v 0.049901 0.081812 0.047680
v 0.047551 0.083003 0.047680
v 0.056023 0.076861 0.047680
v 0.054160 0.078724 0.047680
v 0.063296 0.057422 0.120680
v 0.062870 0.054734 0.120680
v 0.063296 0.057422 0.080680
v 0.063438 0.060140 0.080680
v 0.036974 0.086135 0.120680
v 0.036094 0.084930 0.122762
v 0.033422 0.084640 0.122762
v 0.027326 0.083003 0.047680
v 0.032335 0.084613 0.047680
v 0.026553 0.083751 0.120680
v 0.025809 0.082075 0.122762
v 0.027111 0.081584 0.124548
v 0.027340 0.082820 0.122762
v 0.026289 0.081169 0.124548
v 0.038783 0.084930 0.122762
v 0.044080 0.084062 0.122762
v 0.044941 0.085034 0.120680
v 0.042600 0.084424 0.122762
v 0.042328 0.085676 0.080680
v 0.049898 0.082960 0.120680
v 0.045089 0.083940 0.047680
v 0.047473 0.084125 0.080680
v 0.013875 0.060140 0.124927
v 0.014013 0.057592 0.124927
v 0.035157 0.060187 0.147404
v 0.014023 0.062778 0.124927
v 0.035397 0.059121 0.147404
v 0.016295 0.075271 0.120680
v 0.015994 0.070467 0.124548
v 0.015096 0.070476 0.123124
v 0.014972 0.068001 0.124548
v 0.015197 0.067922 0.124927
v 0.016208 0.070364 0.124927
v 0.017285 0.072803 0.124548
v 0.016344 0.072832 0.123124
v 0.016295 0.075271 0.080680
v 0.015766 0.072602 0.047680
v 0.013636 0.070601 0.080680
v 0.048014 0.036387 0.120680
v 0.046628 0.037076 0.122762
v 0.034938 0.035265 0.047680
v 0.042542 0.035666 0.047680
v 0.047551 0.037276 0.047680
v 0.049901 0.038467 0.047680
v 0.052112 0.039899 0.047680
v 0.054160 0.041555 0.047680
v 0.057390 0.047603 0.124927
v 0.055861 0.045448 0.124927
v 0.057592 0.047476 0.124548
v 0.058669 0.049916 0.124927
v 0.039437 0.059038 0.147404
v 0.012965 0.065243 0.047680
v 0.022156 0.039105 0.120680
v 0.036561 0.058923 0.147780
v 0.038781 0.060809 0.147780
v 0.040077 0.036724 0.124927
v 0.041251 0.036886 0.124927
v 0.037667 0.057869 0.147404
v 0.038714 0.036611 0.124927
v 0.042682 0.037167 0.124927
v 0.043742 0.037435 0.124927
v 0.038203 0.057990 0.147404
v 0.037139 0.058037 0.147562
v 0.037117 0.057881 0.147404
v 0.036163 0.036611 0.124927
v 0.034800 0.036724 0.124927
v 0.037438 0.034140 0.120680
v 0.036094 0.035349 0.122762
v 0.042844 0.034708 0.120680
v 0.026289 0.039110 0.124548
v 0.028628 0.038028 0.124548
v 0.028249 0.037076 0.122762
v 0.034843 0.035449 0.122762
v 0.036150 0.036373 0.124548
v 0.015938 0.047726 0.122762
v 0.013776 0.057566 0.124548
v 0.028249 0.083203 0.122762
v 0.036150 0.083907 0.124548
v 0.034843 0.084831 0.122762
v 0.035235 0.060731 0.147404
v 0.014466 0.065383 0.124927
v 0.036511 0.061837 0.147681
v 0.035850 0.061607 0.147530
v 0.036018 0.061452 0.147681
v 0.020776 0.076802 0.124927
v 0.052112 0.080380 0.047680
v 0.060455 0.072232 0.080680
v 0.061516 0.069952 0.120680
v 0.061516 0.069952 0.080680
v 0.062351 0.067580 0.080680
v 0.062953 0.065139 0.120680
v 0.060302 0.070252 0.047680
v 0.063317 0.062651 0.080680
v 0.062313 0.057640 0.047680
v 0.061912 0.055036 0.047680
v 0.061239 0.052489 0.047680
v 0.062166 0.052105 0.080680
v 0.060302 0.050027 0.047680
v 0.062870 0.054734 0.080680
v 0.062166 0.052105 0.120680
v 0.062120 0.057455 0.122762
v 0.063438 0.060140 0.120680
v 0.032277 0.084424 0.122762
v 0.026553 0.083751 0.080680
v 0.025025 0.081641 0.122762
v 0.040077 0.083555 0.124927
v 0.041289 0.083628 0.124548
v 0.040103 0.083792 0.124548
v 0.038714 0.083669 0.124927
v 0.037438 0.083703 0.124927
v 0.037370 0.062351 0.147482
v 0.055889 0.076752 0.122762
v 0.054051 0.078590 0.122762
v 0.042735 0.083345 0.124548
v 0.043806 0.083074 0.124548
v 0.041455 0.084640 0.122762
v 0.047473 0.084125 0.120680
v 0.049898 0.082960 0.080680
v 0.044941 0.085034 0.080680
v 0.035897 0.059371 0.147755
v 0.036126 0.059024 0.147755
v 0.035758 0.059762 0.147755
v 0.035975 0.059811 0.147780
v 0.011438 0.060140 0.120680
v 0.035538 0.059192 0.147562
v 0.014426 0.055074 0.124927
v 0.011994 0.065485 0.120680
v 0.012757 0.062824 0.122762
v 0.016165 0.072939 0.122762
v 0.014906 0.070564 0.122762
v 0.013911 0.068067 0.122762
v 0.059955 0.047140 0.080680
v 0.059955 0.047140 0.120680
v 0.058473 0.044857 0.080680
v 0.057679 0.045466 0.047680
v 0.058883 0.049812 0.124548
v 0.059971 0.049715 0.122762
v 0.058473 0.044857 0.120680
v 0.050438 0.037623 0.080680
v 0.011994 0.065485 0.080680
v 0.022156 0.039105 0.080680
v 0.036431 0.058743 0.147755
v 0.035965 0.058887 0.147681
v 0.036715 0.058346 0.147681
v 0.036794 0.058542 0.147755
v 0.038938 0.060109 0.147780
v 0.039158 0.060036 0.147755
v 0.059680 0.052357 0.124927
v 0.044080 0.036217 0.122762
v 0.042600 0.035855 0.122762
v 0.041455 0.035640 0.122762
v 0.040034 0.035449 0.122762
v 0.039115 0.058592 0.147404
v 0.045221 0.037898 0.124927
v 0.046160 0.038250 0.124927
v 0.045300 0.037673 0.124548
v 0.041289 0.036651 0.124548
v 0.022184 0.042180 0.124927
v 0.022029 0.041999 0.124548
v 0.022598 0.041531 0.124548
v 0.036585 0.058023 0.147404
v 0.036307 0.058571 0.147681
v 0.036196 0.058417 0.147562
v 0.033588 0.036651 0.124548
v 0.032320 0.036060 0.123124
v 0.032142 0.036934 0.124548
v 0.032195 0.037167 0.124927
v 0.037438 0.036338 0.124548
v 0.046248 0.038028 0.124548
v 0.047452 0.037650 0.123124
v 0.047766 0.038695 0.124548
v 0.047537 0.037459 0.122762
v 0.023506 0.039591 0.122762
v 0.024775 0.039986 0.124548
v 0.025129 0.038820 0.123124
v 0.026401 0.039321 0.124927
v 0.025809 0.038205 0.122762
v 0.029656 0.037898 0.124927
v 0.029577 0.037673 0.124548
v 0.020158 0.043771 0.124548
v 0.020826 0.041690 0.122762
v 0.019144 0.043667 0.123124
v 0.018988 0.043527 0.122762
v 0.018490 0.045735 0.124548
v 0.017522 0.045670 0.123124
v 0.017353 0.045547 0.122762
v 0.013154 0.054978 0.122762
v 0.013686 0.049564 0.080680
v 0.014575 0.050027 0.047680
v 0.015766 0.047678 0.047680
v 0.018854 0.043418 0.047680
v 0.030797 0.084062 0.122762
v 0.029766 0.083752 0.122762
v 0.031071 0.083074 0.124548
v 0.033588 0.083628 0.124548
v 0.032195 0.083113 0.124927
v 0.033626 0.083393 0.124927
v 0.034800 0.083555 0.124927
v 0.043742 0.082844 0.124927
v 0.038003 0.062181 0.147566
v 0.045221 0.082381 0.124927
v 0.053511 0.079062 0.122762
v 0.037639 0.062279 0.147542
v 0.052130 0.078562 0.124927
v 0.052279 0.078749 0.124548
v 0.050662 0.079643 0.124927
v 0.052031 0.080225 0.122762
v 0.038761 0.061977 0.147425
v 0.056197 0.074400 0.124927
v 0.054546 0.076344 0.124927
v 0.039086 0.061540 0.147530
v 0.057629 0.072288 0.124927
v 0.052848 0.078281 0.124548
v 0.036125 0.060864 0.147780
v 0.036326 0.061455 0.147755
v 0.036613 0.061651 0.147755
v 0.036173 0.061308 0.147755
v 0.035930 0.060971 0.147755
v 0.035745 0.061074 0.147681
v 0.037160 0.062284 0.147530
v 0.027215 0.081370 0.124927
v 0.027425 0.082629 0.123124
v 0.028628 0.082251 0.124548
v 0.028717 0.082030 0.124927
v 0.036936 0.061553 0.147780
v 0.036861 0.061763 0.147755
v 0.036190 0.061616 0.147681
v 0.021931 0.081009 0.120680
v 0.023506 0.080689 0.122762
v 0.022845 0.080225 0.122762
v 0.022968 0.080056 0.123124
v 0.035545 0.061184 0.147530
v 0.022184 0.078099 0.124927
v 0.060455 0.072232 0.120680
v 0.058939 0.072553 0.122762
v 0.062351 0.067580 0.120680
v 0.061191 0.049564 0.120680
v 0.060644 0.054843 0.124548
v 0.060854 0.057501 0.124927
v 0.060411 0.054896 0.124927
v 0.061685 0.054803 0.122762
v 0.061481 0.054847 0.123124
v 0.060864 0.062687 0.124927
v 0.060451 0.065205 0.124927
v 0.039579 0.060445 0.147530
v 0.061091 0.057475 0.124548
v 0.061240 0.060140 0.124548
v 0.062266 0.060140 0.122762
v 0.063317 0.062651 0.120680
v 0.025129 0.081459 0.123124
v 0.041251 0.083393 0.124927
v 0.036163 0.083669 0.124927
v 0.054719 0.076508 0.124548
v 0.042557 0.084220 0.123124
v 0.040034 0.084831 0.122762
v 0.045110 0.083752 0.122762
v 0.035939 0.060171 0.147780
v 0.012611 0.060140 0.122762
v 0.035820 0.058765 0.147562
v 0.035708 0.059276 0.147681
v 0.017674 0.075164 0.122762
v 0.018829 0.074980 0.124548
v 0.017487 0.072676 0.124927
v 0.014109 0.068000 0.123124
v 0.014233 0.065436 0.124548
v 0.013786 0.062805 0.124548
v 0.056023 0.043418 0.047680
v 0.054836 0.040818 0.080680
v 0.059111 0.047678 0.047680
v 0.058712 0.047340 0.122762
v 0.049068 0.038205 0.122762
v 0.048587 0.039110 0.124548
v 0.052693 0.042180 0.124927
v 0.038696 0.058235 0.147404
v 0.056048 0.045299 0.124548
v 0.054269 0.043309 0.124548
v 0.056760 0.042742 0.120680
v 0.054836 0.040818 0.120680
v 0.052721 0.039105 0.080680
v 0.021366 0.041217 0.122762
v 0.036878 0.058748 0.147780
v 0.039144 0.060383 0.147755
v 0.039642 0.059548 0.147404
v 0.039597 0.060010 0.147530
v 0.039489 0.059589 0.147562
v 0.059905 0.052278 0.124548
v 0.061002 0.060140 0.124927
v 0.061101 0.062713 0.124548
v 0.039369 0.060023 0.147681
v 0.042735 0.036934 0.124548
v 0.045110 0.036528 0.122762
v 0.038783 0.035349 0.122762
v 0.038727 0.036373 0.124548
v 0.049975 0.040188 0.124927
v 0.048476 0.039321 0.124927
v 0.050102 0.039986 0.124548
v 0.050662 0.040636 0.124927
v 0.047662 0.038910 0.124927
v 0.037588 0.058647 0.147780
v 0.037196 0.058434 0.147755
v 0.037166 0.058225 0.147681
v 0.037611 0.058426 0.147755
v 0.040103 0.036487 0.124548
v 0.022747 0.041717 0.124927
v 0.036645 0.058170 0.147562
v 0.033626 0.036886 0.124927
v 0.034773 0.036487 0.124548
v 0.037438 0.036576 0.124927
v 0.024081 0.040439 0.124548
v 0.024215 0.040636 0.124927
v 0.022968 0.040223 0.123124
v 0.024902 0.040188 0.124927
v 0.025025 0.038639 0.122762
v 0.031135 0.037435 0.124927
v 0.029831 0.036726 0.123124
v 0.020966 0.041845 0.123124
v 0.013358 0.055021 0.123124
v 0.012747 0.057544 0.122762
v 0.014922 0.047140 0.080680
v 0.013638 0.052489 0.047680
v 0.020717 0.041555 0.047680
v 0.017198 0.045466 0.047680
v 0.029577 0.082606 0.124548
v 0.029656 0.082381 0.124927
v 0.031135 0.082844 0.124927
v 0.032142 0.083345 0.124548
v 0.034773 0.083792 0.124548
v 0.042682 0.083113 0.124927
v 0.038316 0.061356 0.147780
v 0.037711 0.062054 0.147681
v 0.037379 0.062073 0.147681
v 0.052693 0.078099 0.124927
v 0.051909 0.080056 0.123124
v 0.049975 0.080092 0.124927
v 0.035716 0.060175 0.147755
v 0.035505 0.060180 0.147681
v 0.036336 0.061157 0.147780
v 0.036714 0.062177 0.147530
v 0.037372 0.062301 0.147530
v 0.037288 0.061632 0.147780
v 0.037057 0.061819 0.147755
v 0.037217 0.061848 0.147755
v 0.019858 0.079295 0.120680
v 0.024775 0.080293 0.124548
v 0.035388 0.060690 0.147562
v 0.021366 0.079062 0.122762
v 0.061723 0.065301 0.122762
v 0.060684 0.065256 0.124548
v 0.059769 0.067664 0.124927
v 0.061050 0.067812 0.122762
v 0.061191 0.049564 0.080680
v 0.039373 0.061105 0.147530
v 0.058824 0.070034 0.124927
v 0.039169 0.061003 0.147681
v 0.039259 0.060792 0.147681
v 0.062130 0.062735 0.122762
v 0.055733 0.076612 0.123124
v 0.053911 0.078434 0.123124
v 0.045300 0.082606 0.124548
v 0.046160 0.082030 0.124927
v 0.047537 0.082820 0.122762
v 0.049068 0.082075 0.122762
v 0.013637 0.060140 0.124548
v 0.035552 0.059716 0.147681
v 0.035367 0.059674 0.147562
v 0.017840 0.075038 0.123124
v 0.019016 0.074831 0.124927
v 0.019414 0.077213 0.122762
v 0.019566 0.077069 0.123124
v 0.020608 0.076970 0.124548
v 0.013192 0.065477 0.122762
v 0.056760 0.042742 0.080680
v 0.058533 0.047448 0.123124
v 0.050438 0.037623 0.120680
v 0.052130 0.041717 0.124927
v 0.054100 0.043478 0.124927
v 0.055311 0.043210 0.123124
v 0.057203 0.045115 0.122762
v 0.038902 0.060468 0.147780
v 0.059781 0.049803 0.123124
v 0.060966 0.052212 0.122762
v 0.039353 0.060413 0.147681
v 0.043806 0.037205 0.124548
v 0.042557 0.036060 0.123124
v 0.037438 0.035313 0.122762
v 0.039298 0.059114 0.147562
v 0.039102 0.059693 0.147755
v 0.039306 0.059638 0.147681
v 0.039132 0.059206 0.147681
v 0.037651 0.058027 0.147562
v 0.036104 0.058289 0.147404
v 0.022845 0.040054 0.122762
v 0.029831 0.083553 0.123124
v 0.032320 0.084220 0.123124
v 0.037999 0.061531 0.147780
v 0.038211 0.061679 0.147755
v 0.037898 0.061800 0.147755
v 0.037681 0.061845 0.147755
v 0.048587 0.081169 0.124548
v 0.047662 0.081370 0.124927
v 0.048476 0.080958 0.124927
v 0.050102 0.080293 0.124548
v 0.049747 0.081459 0.123124
v 0.050796 0.079840 0.124548
v 0.037954 0.062003 0.147681
v 0.038408 0.062072 0.147530
v 0.038703 0.061893 0.147530
v 0.057524 0.074733 0.122762
v 0.035571 0.060641 0.147681
v 0.035212 0.059639 0.147404
v 0.035315 0.060184 0.147562
v 0.022598 0.078749 0.124548
v 0.061519 0.065258 0.123124
v 0.059994 0.067740 0.124548
v 0.039474 0.060869 0.147530
v 0.060119 0.070238 0.122762
v 0.059928 0.070153 0.123124
v 0.057833 0.072411 0.124548
v 0.058758 0.072449 0.123124
v 0.057355 0.074610 0.123124
v 0.045046 0.083553 0.123124
v 0.046628 0.083203 0.122762
v 0.049852 0.081641 0.122762
v 0.022029 0.078281 0.124548
v 0.013396 0.065432 0.123124
v 0.052721 0.039105 0.120680
v 0.049852 0.038639 0.122762
v 0.053511 0.041217 0.122762
v 0.054051 0.041690 0.122762
v 0.053911 0.041845 0.123124
v 0.052848 0.041999 0.124548
v 0.055463 0.043066 0.122762
v 0.057037 0.045241 0.123124
v 0.038928 0.061707 0.147530
v 0.038771 0.061541 0.147681
v 0.060768 0.052279 0.123124
v 0.045046 0.036726 0.123124
v 0.038265 0.058888 0.147780
v 0.038859 0.058828 0.147681
v 0.038947 0.059308 0.147755
v 0.038446 0.061537 0.147755
v 0.038625 0.061388 0.147755
v 0.038582 0.061111 0.147780
v 0.038980 0.060908 0.147755
v 0.037386 0.061861 0.147755
v 0.047766 0.081584 0.124548
v 0.047452 0.082629 0.123124
v 0.051371 0.080689 0.122762
v 0.038306 0.061868 0.147681
v 0.056387 0.074544 0.124548
v 0.035775 0.060586 0.147755
v 0.036790 0.061962 0.147681
v 0.037010 0.062026 0.147681
v 0.037190 0.062057 0.147681
v 0.036960 0.062248 0.147530
v 0.060852 0.067747 0.123124
v 0.059041 0.070134 0.124548
v 0.046248 0.082251 0.124548
v 0.020826 0.078590 0.122762
v 0.050796 0.040439 0.124548
v 0.049747 0.038820 0.123124
v 0.052031 0.040054 0.122762
v 0.052279 0.041531 0.124548
v 0.037941 0.058726 0.147780
v 0.038387 0.058702 0.147755
v 0.038998 0.058699 0.147562
v 0.038752 0.059415 0.147780
v 0.038704 0.058971 0.147755
v 0.038016 0.058517 0.147755
v 0.038087 0.058318 0.147681
v 0.038608 0.058367 0.147562
v 0.037632 0.058215 0.147681
v 0.038150 0.058139 0.147562
v 0.039060 0.060721 0.147755
v 0.038912 0.061392 0.147681
v 0.038570 0.061708 0.147681
v 0.020966 0.078434 0.123124
v 0.051371 0.039591 0.122762
v 0.051909 0.040223 0.123124
v 0.038540 0.059122 0.147780
v 0.038504 0.058526 0.147681
v 0.038751 0.061255 0.147755
f 1 2 3
f 4 5 6
f 4 7 5
f 8 9 6
f 8 6 10
f 8 10 11
f 12 13 14
f 15 13 12
f 16 1 17
f 18 6 9
f 18 19 20
f 18 17 4
f 18 4 6
f 21 22 19
f 21 19 18
f 23 24 4
f 23 4 17
f 23 17 1
f 23 1 3
f 25 26 9
f 25 9 8
f 25 8 11
f 25 27 26
f 28 12 14
f 29 30 31
f 32 33 34
f 35 33 36
f 35 34 33
f 37 35 38
f 37 38 39
f 40 39 38
f 40 38 41
f 42 43 44
f 42 44 11
f 42 11 10
f 45 44 43
f 45 43 46
f 45 46 47
f 45 47 44
f 48 49 47
f 50 48 47
f 50 47 46
f 51 52 53
f 54 52 51
f 54 51 55
f 56 57 58
f 56 58 59
f 60 61 62
f 63 1 16
f 63 16 64
f 65 66 67
f 65 67 64
f 65 64 16
f 68 64 67
f 69 70 71
f 72 62 61
f 73 3 2
f 74 25 11
f 74 11 44
f 75 76 77
f 78 79 80
f 81 22 82
f 81 79 20
f 81 20 19
f 81 19 22
f 83 20 79
f 83 79 78
f 83 78 84
f 83 84 18
f 83 18 20
f 85 76 86
f 87 4 88
f 87 89 7
f 87 7 4
f 90 91 60
f 90 4 91
f 92 6 5
f 93 94 18
f 95 13 15
f 96 30 29
f 96 97 98
f 96 99 30
f 100 101 102
f 103 104 102
f 105 106 107
f 108 106 37
f 109 41 38
f 109 38 35
f 109 35 36
f 109 36 6
f 109 6 41
f 110 35 37
f 110 37 106
f 110 106 105
f 110 34 35
f 111 108 37
f 111 37 39
f 112 39 40
f 112 92 98
f 112 98 97
f 113 33 32
f 114 36 33
f 114 33 113
f 114 113 115
f 114 115 6
f 114 6 36
f 116 117 118
f 116 119 117
f 120 121 48
f 120 48 122
f 123 124 55
f 123 118 120
f 123 120 122
f 123 122 125
f 126 47 49
f 126 49 48
f 126 48 121
f 127 48 50
f 127 50 122
f 127 122 48
f 128 54 55
f 128 55 124
f 129 56 59
f 130 14 13
f 131 57 56
f 131 56 129
f 131 129 132
f 133 4 134
f 135 136 61
f 135 61 60
f 135 60 91
f 135 91 4
f 135 4 136
f 137 138 139
f 137 139 140
f 141 1 63
f 141 63 142
f 141 142 70
f 141 2 1
f 143 63 64
f 144 67 66
f 144 66 18
f 144 18 84
f 145 18 66
f 145 66 65
f 145 65 16
f 145 16 17
f 145 17 18
f 146 80 147
f 146 147 148
f 146 148 149
f 146 68 67
f 146 78 80
f 150 148 147
f 150 131 132
f 151 2 141
f 151 141 70
f 151 70 69
f 152 153 73
f 152 73 154
f 155 3 73
f 155 73 153
f 155 24 23
f 155 23 3
f 156 72 61
f 157 158 134
f 157 134 4
f 157 4 24
f 159 160 161
f 159 161 162
f 163 121 120
f 163 120 118
f 163 118 117
f 164 82 22
f 164 85 86
f 165 166 167
f 165 167 168
f 165 168 169
f 165 170 171
f 172 85 164
f 172 164 22
f 172 22 21
f 173 94 85
f 173 85 172
f 173 172 21
f 173 21 18
f 173 18 94
f 174 77 76
f 174 76 85
f 174 85 94
f 174 94 93
f 174 93 77
f 175 29 31
f 175 176 29
f 177 41 6
f 177 6 92
f 177 92 112
f 177 112 40
f 177 40 41
f 178 99 96
f 178 96 98
f 178 98 92
f 178 92 5
f 178 5 99
f 179 99 5
f 179 5 180
f 179 180 31
f 179 31 30
f 179 30 99
f 181 180 5
f 181 5 182
f 183 184 185
f 183 185 186
f 183 186 187
f 183 187 184
f 188 93 18
f 188 18 9
f 188 9 26
f 189 53 52
f 189 113 32
f 190 15 12
f 191 13 95
f 192 193 194
f 192 194 195
f 196 197 198
f 196 198 194
f 196 194 193
f 199 200 194
f 201 200 202
f 203 204 39
f 203 39 112
f 203 112 97
f 205 97 96
f 205 96 29
f 206 102 104
f 207 101 100
f 207 103 102
f 207 102 101
f 208 207 100
f 208 100 34
f 208 34 110
f 208 110 105
f 209 111 39
f 209 39 204
f 209 204 210
f 211 124 123
f 211 123 125
f 211 125 122
f 211 122 50
f 211 50 46
f 211 46 124
f 212 126 160
f 213 68 146
f 213 146 149
f 214 71 70
f 214 70 142
f 215 63 143
f 215 214 142
f 215 142 63
f 216 168 217
f 216 217 162
f 216 162 161
f 218 129 59
f 219 220 59
f 221 219 59
f 222 136 4
f 222 4 133
f 222 133 61
f 222 61 136
f 223 60 62
f 223 224 225
f 223 90 60
f 226 88 225
f 226 225 224
f 226 227 89
f 226 89 87
f 226 87 88
f 228 90 223
f 228 223 225
f 228 225 88
f 228 88 4
f 228 4 90
f 229 140 7
f 229 7 89
f 229 89 227
f 230 139 231
f 230 231 5
f 230 5 7
f 230 7 140
f 230 140 139
f 232 233 234
f 232 234 5
f 232 5 231
f 235 139 138
f 235 138 233
f 235 233 232
f 235 232 231
f 235 231 139
f 236 233 138
f 237 138 137
f 238 137 140
f 238 140 229
f 239 143 64
f 240 78 146
f 240 146 67
f 240 67 144
f 240 144 84
f 240 84 78
f 241 150 147
f 241 147 80
f 242 243 244
f 242 244 69
f 242 69 245
f 246 71 214
f 246 247 245
f 246 245 69
f 246 69 71
f 248 72 249
f 248 62 72
f 250 251 152
f 250 152 154
f 252 73 2
f 252 244 243
f 252 243 154
f 252 154 73
f 253 156 158
f 253 158 153
f 254 158 156
f 254 156 61
f 254 61 133
f 254 133 134
f 254 134 158
f 255 155 153
f 255 153 158
f 255 158 157
f 255 157 24
f 255 24 155
f 256 257 12
f 256 12 28
f 256 28 258
f 259 258 28
f 259 28 14
f 260 27 25
f 260 25 74
f 261 163 117
f 262 126 121
f 262 160 126
f 263 27 264
f 263 75 77
f 263 26 27
f 265 171 170
f 265 170 164
f 265 164 86
f 265 86 165
f 265 165 171
f 266 76 167
f 266 167 166
f 266 166 165
f 266 165 86
f 266 86 76
f 267 167 76
f 267 76 75
f 268 269 270
f 268 270 271
f 272 269 273
f 272 186 185
f 274 270 269
f 275 31 180
f 275 180 181
f 275 175 31
f 276 77 93
f 276 93 188
f 276 188 26
f 276 26 263
f 276 263 77
f 277 113 189
f 277 189 52
f 277 115 113
f 278 257 279
f 278 280 281
f 278 281 190
f 278 190 12
f 278 12 257
f 282 191 95
f 282 95 283
f 284 187 186
f 285 286 205
f 285 205 29
f 287 97 205
f 287 205 286
f 288 97 287
f 289 184 187
f 290 291 198
f 290 198 197
f 290 197 292
f 290 292 291
f 293 196 193
f 293 193 192
f 293 287 286
f 294 119 295
f 294 295 296
f 294 117 119
f 297 200 199
f 297 104 103
f 298 279 299
f 298 299 280
f 298 280 278
f 298 278 279
f 300 301 108
f 300 108 111
f 302 301 300
f 302 300 303
f 302 107 106
f 302 106 108
f 302 108 301
f 304 210 204
f 304 201 210
f 305 291 292
f 305 292 176
f 305 306 307
f 305 307 291
f 308 307 306
f 308 306 305
f 308 305 176
f 308 176 175
f 309 189 32
f 310 311 206
f 312 206 104
f 312 104 297
f 313 32 34
f 313 34 100
f 313 100 102
f 313 102 206
f 314 297 103
f 314 103 207
f 315 207 208
f 315 208 105
f 315 314 207
f 316 53 317
f 316 295 119
f 316 318 319
f 316 319 51
f 316 51 53
f 320 123 321
f 320 55 51
f 320 51 319
f 320 319 318
f 320 318 316
f 320 316 119
f 320 119 116
f 320 116 118
f 320 118 123
f 322 55 320
f 322 320 321
f 322 321 123
f 322 123 55
f 323 44 47
f 323 47 126
f 323 74 44
f 324 124 46
f 324 46 43
f 325 6 326
f 325 326 324
f 325 324 43
f 327 52 54
f 327 54 128
f 328 239 64
f 328 64 68
f 329 330 328
f 329 328 68
f 331 143 239
f 331 332 333
f 331 333 334
f 335 336 337
f 335 251 250
f 338 249 72
f 339 242 245
f 339 245 247
f 340 341 342
f 343 341 338
f 343 338 72
f 344 340 342
f 345 346 347
f 345 347 348
f 349 249 338
f 349 338 341
f 350 14 130
f 351 352 218
f 351 130 352
f 353 354 350
f 353 351 220
f 353 220 355
f 353 355 354
f 356 247 334
f 356 334 333
f 357 148 150
f 357 150 132
f 357 132 129
f 358 149 148
f 359 213 149
f 359 149 358
f 359 358 148
f 359 148 357
f 359 357 360
f 361 130 13
f 361 352 130
f 362 218 352
f 362 352 361
f 363 220 351
f 363 351 218
f 363 218 59
f 363 59 220
f 364 80 79
f 364 79 81
f 365 80 364
f 365 364 366
f 365 366 57
f 367 57 366
f 368 169 168
f 368 168 216
f 368 355 220
f 368 220 219
f 369 59 58
f 369 221 59
f 370 224 223
f 370 223 62
f 370 62 371
f 372 227 226
f 372 226 224
f 373 233 236
f 373 273 269
f 373 269 268
f 374 375 376
f 377 138 237
f 377 378 374
f 377 374 236
f 377 236 138
f 379 380 381
f 382 375 374
f 382 374 378
f 382 378 377
f 382 377 237
f 382 237 383
f 382 383 375
f 384 383 237
f 384 237 137
f 384 137 238
f 385 384 238
f 385 238 229
f 385 229 227
f 386 150 241
f 387 243 242
f 387 242 339
f 388 334 247
f 388 247 246
f 388 246 214
f 388 214 334
f 389 346 345
f 389 248 249
f 390 243 250
f 390 250 154
f 390 154 243
f 391 244 252
f 391 252 2
f 391 2 151
f 391 151 69
f 391 69 244
f 392 253 153
f 392 153 152
f 392 152 251
f 393 258 259
f 393 259 14
f 394 264 27
f 394 27 260
f 394 260 74
f 395 279 261
f 395 261 117
f 395 299 279
f 396 256 258
f 396 261 279
f 396 279 257
f 396 257 256
f 397 164 170
f 397 398 82
f 397 82 164
f 399 170 165
f 399 165 169
f 399 169 368
f 399 398 170
f 400 167 267
f 401 217 168
f 401 168 167
f 401 167 400
f 401 400 267
f 401 267 75
f 401 402 162
f 401 162 217
f 403 182 5
f 403 5 271
f 403 271 270
f 403 404 182
f 405 268 271
f 405 271 5
f 405 5 234
f 406 269 272
f 406 185 274
f 406 274 269
f 407 307 308
f 407 308 175
f 407 408 307
f 409 289 410
f 411 184 412
f 411 185 184
f 413 414 404
f 413 270 274
f 415 404 414
f 415 275 181
f 415 181 182
f 415 182 404
f 416 53 189
f 416 296 295
f 416 295 317
f 416 317 53
f 417 190 281
f 417 15 190
f 418 282 283
f 419 187 284
f 419 284 376
f 419 376 375
f 419 375 420
f 419 420 421
f 422 273 373
f 422 374 376
f 422 376 284
f 422 284 186
f 422 186 272
f 423 383 424
f 423 424 379
f 423 379 381
f 423 381 420
f 423 420 375
f 423 375 383
f 425 421 420
f 425 420 381
f 425 418 283
f 426 196 293
f 426 286 285
f 426 197 196
f 427 285 29
f 427 29 176
f 427 176 292
f 428 203 97
f 428 97 288
f 429 195 304
f 429 304 428
f 429 428 288
f 430 410 431
f 430 431 408
f 430 408 432
f 430 432 433
f 430 433 410
f 434 198 291
f 434 291 307
f 434 307 408
f 434 408 431
f 434 431 410
f 434 410 198
f 435 95 15
f 436 281 280
f 436 280 437
f 436 438 435
f 436 435 15
f 436 15 417
f 436 417 281
f 439 288 287
f 439 287 293
f 439 293 192
f 439 192 195
f 439 195 429
f 439 429 288
f 440 294 296
f 441 280 299
f 441 299 297
f 441 297 199
f 441 199 437
f 441 437 280
f 442 303 300
f 442 300 202
f 442 202 200
f 442 200 303
f 443 209 210
f 443 210 201
f 443 201 202
f 443 202 300
f 443 300 111
f 443 111 209
f 444 201 304
f 444 304 195
f 444 195 194
f 444 194 200
f 444 200 201
f 445 309 310
f 445 446 440
f 445 440 296
f 445 296 447
f 448 310 206
f 448 206 312
f 448 446 445
f 448 445 310
f 449 311 310
f 449 310 309
f 449 309 32
f 449 32 313
f 449 313 206
f 449 206 311
f 450 303 200
f 450 200 297
f 450 297 314
f 450 314 315
f 450 315 107
f 450 107 302
f 450 302 303
f 451 107 315
f 451 315 105
f 451 105 107
f 452 295 316
f 452 316 317
f 452 317 295
f 453 212 323
f 453 323 126
f 453 126 212
f 454 74 323
f 454 323 212
f 454 394 74
f 455 128 124
f 455 124 324
f 455 324 326
f 456 10 6
f 456 6 325
f 456 325 43
f 456 43 42
f 456 42 10
f 457 52 327
f 457 327 6
f 457 6 115
f 457 115 277
f 457 277 52
f 458 326 6
f 458 6 327
f 458 327 128
f 458 128 455
f 458 455 326
f 459 329 68
f 459 68 213
f 459 213 359
f 459 359 360
f 459 360 460
f 459 460 461
f 459 461 330
f 462 332 331
f 462 239 328
f 462 328 330
f 462 330 461
f 462 461 332
f 463 215 143
f 463 143 331
f 463 331 334
f 463 334 214
f 463 214 215
f 464 336 335
f 464 335 250
f 464 250 243
f 464 243 387
f 464 387 339
f 464 339 336
f 465 13 191
f 466 336 339
f 466 339 467
f 468 346 389
f 468 389 349
f 468 349 341
f 468 341 340
f 468 340 344
f 469 341 343
f 470 344 342
f 471 472 258
f 471 258 393
f 471 393 14
f 473 130 351
f 473 351 353
f 473 353 350
f 473 350 130
f 474 460 360
f 474 360 357
f 474 357 129
f 474 129 218
f 474 461 460
f 475 339 247
f 475 247 356
f 475 356 467
f 475 467 339
f 476 361 13
f 477 362 361
f 477 361 476
f 477 476 478
f 479 364 81
f 479 81 82
f 480 241 80
f 480 80 365
f 480 365 57
f 480 57 131
f 480 131 150
f 480 150 386
f 480 386 241
f 481 355 368
f 481 368 216
f 481 216 161
f 482 364 479
f 483 227 372
f 483 424 227
f 484 380 379
f 484 379 424
f 484 483 372
f 484 485 380
f 486 484 372
f 486 372 224
f 487 233 373
f 487 373 268
f 487 268 405
f 487 405 234
f 487 234 233
f 488 489 348
f 488 348 347
f 488 490 491
f 492 384 385
f 492 385 227
f 492 227 424
f 492 424 383
f 492 383 384
f 493 248 389
f 494 349 389
f 494 389 249
f 494 249 349
f 495 251 335
f 495 335 337
f 495 337 496
f 497 498 156
f 497 156 253
f 499 159 162
f 499 162 402
f 499 402 264
f 499 264 394
f 499 394 454
f 499 454 212
f 499 212 160
f 499 160 159
f 500 472 501
f 500 501 261
f 500 261 396
f 500 396 258
f 500 258 472
f 502 398 397
f 502 397 170
f 502 170 398
f 503 368 219
f 503 219 221
f 503 221 398
f 503 398 399
f 503 399 368
f 504 398 505
f 504 479 82
f 504 82 398
f 506 221 369
f 506 479 504
f 506 504 505
f 506 505 398
f 506 398 221
f 507 263 264
f 507 264 402
f 507 401 75
f 507 75 263
f 508 404 403
f 508 403 270
f 508 270 413
f 508 413 404
f 509 185 406
f 509 406 272
f 509 272 185
f 510 407 175
f 510 175 275
f 510 275 415
f 511 409 410
f 511 410 433
f 512 412 184
f 512 184 289
f 512 289 409
f 512 409 412
f 513 411 412
f 514 411 413
f 514 413 274
f 514 274 185
f 515 282 418
f 515 191 282
f 516 273 422
f 516 422 272
f 516 272 273
f 517 236 374
f 517 422 373
f 517 373 236
f 518 491 418
f 518 418 425
f 518 425 381
f 518 381 491
f 519 197 426
f 519 426 285
f 519 285 427
f 519 292 197
f 520 286 426
f 520 426 293
f 520 293 286
f 521 203 428
f 521 428 304
f 521 304 204
f 521 204 203
f 522 187 419
f 522 419 421
f 522 289 187
f 523 283 95
f 524 425 283
f 524 283 523
f 524 525 522
f 524 522 421
f 524 421 425
f 526 194 198
f 526 437 199
f 526 199 194
f 527 299 395
f 527 395 117
f 527 117 294
f 527 294 440
f 527 440 446
f 527 446 448
f 527 448 312
f 527 312 297
f 527 297 299
f 528 189 309
f 528 309 445
f 528 445 447
f 528 447 296
f 528 296 416
f 528 416 189
f 529 329 459
f 529 459 330
f 529 330 329
f 530 239 462
f 530 462 331
f 530 331 239
f 531 13 465
f 531 465 532
f 531 532 533
f 531 533 13
f 534 13 533
f 534 533 466
f 534 466 467
f 535 536 537
f 535 537 470
f 535 470 538
f 535 538 539
f 540 538 470
f 540 470 342
f 540 342 341
f 540 341 469
f 540 469 343
f 541 336 466
f 541 466 533
f 542 543 344
f 542 344 470
f 542 470 537
f 542 537 536
f 542 536 496
f 542 496 337
f 542 337 336
f 544 62 248
f 545 355 481
f 545 481 472
f 546 160 262
f 546 262 121
f 546 121 163
f 546 163 261
f 546 261 501
f 546 501 161
f 546 161 160
f 547 472 481
f 547 481 161
f 547 161 501
f 547 501 472
f 548 58 57
f 548 57 367
f 548 367 366
f 548 366 364
f 548 364 482
f 548 369 58
f 549 483 484
f 549 484 424
f 549 424 483
f 550 486 224
f 550 485 484
f 551 485 489
f 551 489 488
f 551 488 491
f 551 491 381
f 551 381 380
f 551 380 485
f 552 553 550
f 552 550 224
f 552 224 370
f 554 348 489
f 554 555 371
f 554 371 62
f 554 62 544
f 554 544 556
f 554 345 348
f 557 251 495
f 557 495 392
f 557 392 251
f 558 497 253
f 558 253 392
f 558 392 495
f 559 72 156
f 559 156 498
f 559 498 535
f 559 535 539
f 559 539 538
f 560 506 369
f 560 369 548
f 560 548 482
f 561 401 507
f 561 507 402
f 561 402 401
f 562 510 415
f 562 415 414
f 563 407 510
f 563 408 407
f 564 414 565
f 564 562 414
f 566 565 412
f 567 564 565
f 567 565 566
f 567 566 412
f 567 412 409
f 568 414 413
f 568 413 411
f 568 411 513
f 568 513 412
f 568 412 565
f 568 565 414
f 569 411 514
f 569 514 185
f 569 185 411
f 570 543 571
f 570 571 347
f 570 347 346
f 570 346 468
f 570 468 344
f 570 344 543
f 572 422 517
f 572 517 374
f 572 374 422
f 573 292 519
f 573 519 427
f 573 427 292
f 574 95 435
f 575 522 525
f 576 575 525
f 576 525 524
f 576 524 523
f 576 523 95
f 577 465 578
f 577 578 571
f 577 532 465
f 579 578 465
f 579 465 191
f 580 491 490
f 581 476 13
f 581 13 534
f 581 534 467
f 581 467 478
f 581 478 476
f 582 497 583
f 582 536 535
f 582 535 498
f 582 498 497
f 584 72 559
f 584 559 538
f 584 538 540
f 584 540 343
f 584 343 72
f 585 542 336
f 585 336 541
f 585 541 533
f 585 533 532
f 585 532 577
f 586 345 554
f 586 554 556
f 586 556 544
f 586 544 248
f 586 248 493
f 586 493 389
f 586 389 345
f 587 471 14
f 587 14 350
f 587 350 354
f 587 354 355
f 587 355 545
f 587 545 472
f 587 472 471
f 588 218 362
f 588 362 477
f 588 477 589
f 588 474 218
f 590 589 477
f 590 477 478
f 590 478 467
f 590 467 356
f 591 474 588
f 591 588 589
f 591 589 590
f 591 590 356
f 591 356 333
f 591 333 332
f 591 332 461
f 591 461 474
f 592 486 550
f 592 550 484
f 592 484 486
f 593 489 485
f 593 485 550
f 593 550 553
f 593 553 552
f 593 552 370
f 593 370 371
f 593 371 555
f 593 555 554
f 593 554 489
f 594 496 536
f 594 536 582
f 594 582 583
f 594 583 497
f 594 497 558
f 594 558 495
f 594 495 496
f 595 560 482
f 595 482 479
f 595 479 506
f 596 433 432
f 596 511 433
f 597 408 563
f 597 563 432
f 597 432 408
f 598 562 564
f 599 511 596
f 599 598 564
f 599 564 567
f 599 567 409
f 599 409 511
f 600 601 574
f 600 574 435
f 602 522 575
f 602 410 289
f 602 289 522
f 603 576 95
f 603 95 574
f 604 575 576
f 604 576 603
f 604 601 575
f 605 606 601
f 605 601 600
f 605 600 435
f 605 435 438
f 607 410 602
f 608 437 526
f 608 526 606
f 608 606 605
f 608 605 438
f 608 438 436
f 608 436 437
f 609 198 410
f 609 410 607
f 609 606 526
f 609 526 198
f 610 491 580
f 610 580 191
f 610 191 515
f 610 515 418
f 610 418 491
f 611 580 490
f 611 490 488
f 611 488 347
f 611 347 571
f 612 543 542
f 612 542 585
f 612 585 577
f 612 577 571
f 612 571 543
f 613 560 595
f 613 595 506
f 613 506 560
f 614 562 598
f 614 598 596
f 614 596 432
f 614 432 563
f 614 563 510
f 614 510 562
f 615 598 599
f 615 599 596
f 615 596 598
f 616 574 601
f 616 601 604
f 616 604 603
f 616 603 574
f 617 575 601
f 617 601 606
f 617 606 609
f 617 609 607
f 617 607 602
f 617 602 575
f 618 578 579
f 618 579 191
f 618 191 580
f 618 580 611
f 618 611 571
f 618 571 578
