# Convex hull collision mesh — generated by scripts/generate-collision-meshes.mjs
v -1.028518 -39.389999 -0.390065
v 0.729435 -39.389999 -0.823362
v 0.000000 -39.389999 1.100000
v 16.873772 -24.416952 -5.051676
v 16.569244 -24.416952 -5.975263
v 17.564211 -21.900000 -6.120337
v 18.100225 -21.900000 -4.282740
v 18.100225 15.100000 -4.282740
v -14.750000 35.621567 -0.682311
v -15.100000 35.735580 -0.232175
v 14.750000 35.735580 -0.232175
v -15.941758 -21.900000 -9.582293
v -14.872505 15.100000 -11.169987
v -14.872505 -21.900000 -11.169987
v -13.645736 15.100000 -12.639379
v -12.274446 15.100000 -13.974906
v -12.274446 -21.900000 -13.974906
v -17.235588 15.100000 6.992462
v -17.235588 -21.900000 6.992462
v -16.425655 15.100000 8.726846
v -18.444540 15.100000 -2.399785
v -18.444540 -21.900000 -2.399785
v -18.593508 15.100000 -0.491413
v -18.100225 15.100000 -4.282740
v -16.306786 26.250000 7.260249
v -16.976358 26.250000 5.515954
v -14.750000 35.735580 0.232175
v 0.729435 -39.389999 0.823362
v 0.000000 -39.389999 -1.100000
v -5.654153 15.100000 -17.719778
v -3.803036 -21.900000 -18.207056
v -5.654153 -21.900000 -17.719778
v 1.028518 -39.389999 -0.390065
v 15.100000 35.735580 -0.232175
v 3.803036 15.100000 -18.207056
v 5.654153 15.100000 -17.719778
v 5.654153 -21.900000 -17.719778
v 11.321890 -24.416952 -13.492903
v 12.274446 -21.900000 -13.974906
v 12.811766 -24.416952 -12.087277
v 12.559838 -25.026588 -11.849596
v 18.444540 -21.900000 -2.399785
v -17.459934 26.250000 -3.711224
v -15.100000 35.621567 -0.682311
v -15.941758 15.100000 -9.582293
v -16.842173 15.100000 -7.893113
v -15.458553 26.250000 -8.925000
v -14.440953 26.250000 -10.491967
v -10.773155 15.100000 -15.162425
v -17.862976 15.100000 5.184022
v -17.459934 26.250000 3.711224
v -18.301178 15.100000 3.320677
v -18.545551 15.100000 1.422163
v -18.545551 -21.900000 1.422163
v 0.000000 26.250000 17.850000
v 2.000000 29.862839 17.378693
v -2.000000 29.970755 17.360376
v 10.000131 15.100000 15.683029
v 8.335329 15.100000 16.627756
v 10.000131 -21.900000 15.683029
v 11.559020 15.100000 14.572202
v -9.157765 -21.900000 -16.189358
v -9.157765 15.100000 -16.189358
v -0.511195 -39.389999 0.974002
v 0.263247 -39.389999 -1.068036
v 4.417224 -25.539183 -16.197470
v 6.113885 -25.539183 -15.636185
v -2.801702 -24.416952 -17.389482
v -1.911641 -21.900000 -18.501503
v -2.044830 -24.416952 -17.494637
v -3.803036 15.100000 -18.207056
v -7.445386 15.100000 -17.044830
v 1.028518 -39.389999 0.390065
v 0.905282 -39.389999 -0.624871
v 14.232596 -25.539183 -8.905227
v 14.539683 -25.539183 -8.394490
v 15.098534 -25.539183 -7.341944
v 13.645736 -21.900000 -12.639379
v 14.872505 15.100000 -11.169987
v 14.872505 -21.900000 -11.169987
v 14.128385 -24.416952 -10.518192
v 12.274446 15.100000 -13.974906
v 10.773155 15.100000 -15.162425
v 14.232769 29.972610 -10.139067
v 14.261549 29.750000 -10.141905
v 13.152868 29.750000 -11.543485
v 17.564211 15.100000 -6.120337
v 16.842173 15.100000 -7.893113
v 16.842173 -21.900000 -7.893113
v 17.361712 29.972610 -1.985785
v 17.752216 26.250000 -1.865833
v 17.459934 26.250000 -3.711224
v 15.100000 35.735580 0.232175
v -14.750000 35.621567 0.682311
v -3.711224 26.250000 -17.459934
v -1.865833 26.250000 -17.752216
v 2.000000 30.718721 -16.628113
v -2.000000 30.725201 -16.598835
v 15.253941 -24.416952 -8.806867
v 15.840244 -24.416952 -7.702615
v 16.425655 15.100000 8.726846
v 17.235588 -21.900000 6.992462
v 17.235588 15.100000 6.992462
v 18.444540 15.100000 -2.399785
v 18.545551 -21.900000 1.422163
v 18.545551 15.100000 1.422163
v 18.301178 15.100000 3.320677
v -15.441760 15.100000 10.368802
v -15.441760 -21.900000 10.368802
v -14.294319 15.100000 11.900943
v -14.440953 26.250000 10.491967
v -2.886253 15.100000 18.374699
v 2.886253 15.100000 18.374699
v -1.865833 26.250000 17.752216
v -3.711224 26.250000 17.459934
v -4.759454 15.100000 17.980757
v 2.886253 -21.900000 18.374699
v -4.759454 -21.900000 17.980757
v 0.511195 -39.389999 0.974002
v -11.943981 26.250000 -13.265135
v -17.752216 26.250000 -1.865833
v -14.970366 30.382778 -8.619205
v -15.100000 35.400517 -1.090671
v -13.997104 30.382778 -10.123423
v -16.976358 26.250000 -5.515954
v -17.111477 29.750000 -3.667067
v -16.306786 26.250000 -7.260249
v -14.179957 29.750000 -10.255672
v -16.873772 -24.416952 -5.051676
v -17.564211 -21.900000 -6.120337
v -16.569244 -24.416952 -5.975263
v -16.842173 -21.900000 -7.893113
v -18.100225 -21.900000 -4.282740
v -17.564211 15.100000 -6.120337
v -18.593508 -21.900000 -0.491413
v -17.583935 -24.416952 -1.024148
v -18.301178 -21.900000 3.320677
v -1.091980 -39.389999 0.132590
v -17.583935 -24.416952 1.024148
v -17.752216 26.250000 1.865833
v -16.656879 29.750000 5.366413
v -5.515954 26.250000 16.976358
v -5.176436 29.750000 16.716892
v -6.704502 29.750000 16.164766
v -7.260249 26.250000 16.306786
v -7.451616 29.990744 15.801737
v -2.000000 29.750000 17.385338
v -3.946986 29.990744 17.018894
v 1.865833 26.250000 17.752216
v 3.711224 26.250000 17.459934
v -15.100000 35.621567 0.682311
v 4.759454 15.100000 17.980757
v -10.773155 -21.900000 -15.162425
v -4.634219 -24.416952 -16.993164
v -6.024252 -24.416952 -16.551497
v -0.511195 -39.389999 -0.974002
v -13.645736 -21.900000 -12.639379
v -12.619478 -24.416952 -12.287896
v -13.854110 -24.416952 -10.876914
v -11.241863 -24.416952 -13.559650
v -13.581685 -25.026588 -10.663033
v -14.638153 -25.026588 -9.158980
v -14.931768 -24.416952 -9.342692
v -14.953991 -25.026588 -8.633691
v -14.539683 -25.539183 -8.394490
v -15.098534 -25.539183 -7.341944
v 0.511195 -39.389999 -0.974002
v 7.741273 -25.539183 -14.897737
v -2.004621 -25.026588 -17.150625
v -2.670514 -25.539183 -16.575230
v -1.949082 -25.539183 -16.675459
v -0.893546 -25.539183 -16.765186
v -4.543092 -25.026588 -16.659014
v -3.982132 -25.026588 -16.801937
v -1.911641 15.100000 -18.501503
v -0.000000 15.100000 -18.600000
v -7.260249 26.250000 -16.306786
v 14.539683 -25.539183 8.394490
v 15.415913 -25.539183 6.649776
v 15.793399 -25.539183 -5.695475
v 16.083668 -25.539183 -4.815134
v 17.110508 -24.416952 -4.180209
v 16.541969 -25.026588 -4.952341
v 12.211862 -25.539183 -11.521297
v 10.791749 -25.539183 -12.861105
v 1.091980 -39.389999 -0.132590
v 13.850567 -25.026588 -10.311365
v 14.638153 -25.026588 -9.158980
v 13.645736 15.100000 -12.639379
v 13.265135 26.250000 -11.943981
v 10.491967 26.250000 -14.440953
v 7.445386 -21.900000 -17.044830
v 9.157765 -21.900000 -16.189358
v 8.121561 -24.416952 -15.629583
v 6.414227 -24.416952 -16.404308
v 10.773155 -21.900000 -15.162425
v 14.440953 26.250000 -10.491967
v 15.458553 26.250000 -8.925000
v 16.306786 26.250000 -7.260249
v 15.941758 15.100000 -9.582293
v 16.173214 -24.416952 -6.976444
v 15.855187 -25.026588 -6.839260
v 15.528766 -25.026588 -7.551152
v 17.862976 15.100000 5.184022
v 17.752216 26.250000 1.865833
v 17.850000 26.250000 0.000000
v 15.100000 35.621567 0.682311
v 10.157910 30.533329 13.782827
v 15.100000 35.400517 1.090671
v -3.884902 29.988091 -17.033844
v -2.108440 30.196814 -17.266371
v -2.117726 29.988091 -17.342421
v -2.000000 29.869921 -17.378048
v 3.711224 26.250000 -17.459934
v 1.865833 26.250000 -17.752216
v 0.000000 26.250000 -17.850000
v 1.911641 15.100000 -18.501503
v 1.911641 -21.900000 -18.501503
v 5.515954 26.250000 -16.976358
v 5.176436 29.750000 -16.716892
v 7.445386 15.100000 -17.044830
v 7.260249 26.250000 -16.306786
v 4.634219 -24.416952 -16.993164
v 6.288099 -25.026588 -16.081738
v 7.961860 -25.026588 -15.322247
v -0.000000 -21.900000 -18.600000
v 3.803036 -21.900000 -18.207056
v 4.062006 -24.416952 -17.138954
v 1.949082 -25.539183 -16.675459
v 0.893546 -25.539183 -16.765186
v 2.004621 -25.026588 -17.150625
v 2.670514 -25.539183 -16.575230
v 3.982132 -25.026588 -16.801937
v 2.801702 -24.416952 -17.389482
v 11.099258 -25.026588 -13.227581
v 9.545409 -25.026588 -14.389149
v 14.931768 -24.416952 -9.342692
v 14.953991 -25.026588 -8.633691
v 14.294319 15.100000 11.900943
v 14.294319 -21.900000 11.900943
v 15.441760 15.100000 10.368802
v 18.593508 15.100000 -0.491413
v 18.301178 -21.900000 3.320677
v 18.593508 -21.900000 -0.491413
v -12.995487 -21.900000 13.307039
v -11.559020 -21.900000 14.572202
v -11.559020 15.100000 14.572202
v -13.265135 26.250000 11.943981
v -10.000131 -21.900000 15.683029
v -8.925000 26.250000 15.458553
v -8.335329 15.100000 16.627756
v -6.582248 -21.900000 17.396379
v 8.335329 -21.900000 16.627756
v 6.582248 -21.900000 17.396379
v 10.297703 -25.026588 13.860727
v 10.504256 -24.416952 14.138749
v 9.488581 -25.026588 14.426686
v 9.678905 -24.416952 14.716060
v 11.559020 -21.900000 14.572202
v -13.265135 26.250000 -11.943981
v -11.513815 30.537868 -12.664288
v -12.755162 30.537868 -11.413059
v -2.000000 30.196812 -17.279268
v -17.374584 29.970282 -1.875000
v -17.083357 29.988091 -3.661041
v -2.051839 30.653934 -16.802855
v -3.764034 30.653934 -16.503880
v -2.000000 30.537703 -16.998463
v -2.074648 30.537868 -16.989641
v -3.805876 30.537868 -16.687344
v -2.093858 30.382778 -17.146963
v -16.539429 30.196814 -5.387054
v -17.008444 30.196814 -3.644987
v -17.346142 -24.416952 -3.058593
v -16.760576 -25.539183 0.976192
v -16.783031 -25.539183 -0.446931
v -1.028518 -39.389999 0.390065
v -17.607492 -24.416952 -0.468887
v -17.238167 -25.026588 -1.004009
v -17.346142 -24.416952 3.058593
v -17.005051 -25.026588 2.998449
v -16.425655 -21.900000 8.726846
v -15.407845 -24.416952 8.534750
v -17.361712 29.972610 1.985785
v -17.117321 29.750000 3.639684
v -16.539959 30.183529 5.406423
v -15.910406 30.183529 7.046888
v -15.100000 35.400517 1.090671
v -16.022738 29.750000 7.037180
v -6.582248 15.100000 17.396379
v -6.693234 29.990744 16.137598
v -6.663908 30.197979 16.066895
v -3.603750 29.750000 17.124924
v -5.167736 29.990744 16.688799
v -15.100000 35.735580 0.232175
v -2.000000 30.721319 16.615213
v -2.000000 30.645693 16.824366
v 2.000000 30.651817 16.813526
v 2.094572 30.375509 17.152803
v 2.000000 30.375372 17.163914
v 2.109082 30.186039 17.271631
v 2.000000 30.185648 17.283792
v 2.000000 30.533276 17.004354
v 2.075346 30.533329 16.995365
v 15.441760 -21.900000 10.368802
v 16.173214 -24.416952 6.976444
v 16.863777 -24.416952 5.084943
v -4.062006 -24.416952 -17.138954
v -9.678905 -24.416952 -14.716060
v -7.905029 -24.416952 -15.740208
v -9.488581 -25.026588 -14.426686
v -7.445386 -21.900000 -17.044830
v -5.905792 -25.026588 -16.226030
v -11.020805 -25.026588 -13.293016
v -9.225696 -25.539183 -14.026989
v -10.715469 -25.539183 -12.924727
v -13.205399 -25.539183 -10.367609
v -15.253941 -24.416952 -8.806867
v -15.840244 -24.416952 -7.702615
v -5.273028 -25.539183 15.939418
v -5.905792 -25.026588 16.226030
v -5.742169 -25.539183 15.776481
v 9.280950 -25.539183 -13.990491
v -2.746610 -25.026588 -17.047539
v -3.871805 -25.539183 -16.336432
v -0.263247 -39.389999 -1.068036
v -5.742169 -25.539183 -15.776481
v -8.925000 26.250000 -15.458553
v 14.953991 -25.026588 8.633691
v 13.466830 -25.539183 10.025684
v 15.253941 -24.416952 8.806867
v 0.905282 -39.389999 0.624871
v 12.634896 -25.539183 11.055735
v 15.415913 -25.539183 -6.649776
v 17.346142 -24.416952 -3.058593
v 17.457903 -24.416952 -2.337792
v 16.243429 -25.026588 -5.857767
v 16.774050 -25.026588 -4.098011
v 16.640446 -25.539183 -2.228326
v 16.533918 -25.539183 -2.915376
v 13.466830 -25.539183 -10.025684
v 8.925000 26.250000 -15.458553
v 9.574584 29.750000 -14.648458
v 9.736874 -24.416952 -14.677770
v 12.871993 30.530878 -11.294338
v 15.100000 35.400517 -1.090671
v 12.989948 30.372919 -11.398969
v 15.941758 -21.900000 -9.582293
v 17.459934 26.250000 3.711224
v 17.399263 29.750000 -1.875000
v 16.976358 26.250000 -5.515954
v 16.656879 29.750000 -5.366413
v 5.515954 26.250000 16.976358
v 8.925000 26.250000 15.458553
v 3.869045 30.186039 16.964315
v 11.762648 29.750000 12.957242
v 11.943981 26.250000 13.265135
v 13.265135 26.250000 11.943981
v 11.517693 30.533329 12.668552
v 12.759459 30.533329 11.416903
v 15.458553 26.250000 8.925000
v 16.544468 30.186039 5.388696
v 15.897344 30.186039 7.073328
v 16.615440 29.974091 5.411811
v 2.052372 30.651840 16.807222
v 3.765012 30.651840 16.508169
v 5.437958 30.651840 16.035074
v 7.053573 30.651840 15.392923
v 8.594824 30.651840 14.588489
v 12.109583 29.871527 -12.623139
v 13.134118 29.972616 -11.526853
v -5.515954 26.250000 -16.976358
v -3.789953 29.750000 -17.084679
v 5.062716 30.538099 -16.349644
v 5.109561 30.383286 -16.500929
v 3.866774 30.538099 -16.673033
v 5.007084 30.654028 -16.169987
v 14.750000 35.621567 -0.682311
v 6.704502 29.750000 -16.164766
v 7.451616 29.990744 -15.801737
v 3.871805 -25.539183 -16.336432
v 2.746610 -25.026588 -17.047539
v 4.543092 -25.026588 -16.659014
v 12.995487 15.100000 13.307039
v 14.128385 -24.416952 10.518192
v 17.862976 -21.900000 5.184022
v 17.308737 -24.416952 3.263626
v 17.607492 -24.416952 -0.468887
v -14.294319 -21.900000 11.900943
v -14.129946 -25.026588 9.925074
v -13.738469 -25.539183 9.650095
v -12.634896 -25.539183 11.055735
v -12.995487 15.100000 13.307039
v -11.943981 26.250000 13.265135
v -10.491967 26.250000 14.440953
v -12.989948 30.372919 11.398969
v -14.075865 30.372952 10.027292
v -10.000131 15.100000 15.683029
v -8.174776 29.750000 15.473301
v 0.000000 -25.539183 16.788980
v 1.784559 -25.539183 16.693867
v -2.886253 -21.900000 18.374699
v -4.062006 -24.416952 17.138954
v -2.044830 -24.416952 17.494637
v -8.335329 -21.900000 16.627756
v -8.941891 -24.416952 15.175184
v 0.000000 -24.416950 17.613733
v 4.759454 -21.900000 17.980757
v 3.723237 -24.416952 17.215723
v 10.791749 -25.539183 12.861105
v 10.012400 -25.539183 13.476710
v 11.388165 -25.539183 12.336109
v 8.941891 -24.416952 15.175184
v 12.995487 -21.900000 13.307039
v 9.225696 -25.539183 14.026989
v 8.523191 -25.539183 14.464615
v -2.000000 30.382780 -17.158163
v -13.020015 29.988091 -11.650044
v -14.156656 29.988091 -10.238819
v -14.094576 30.196814 -10.193920
v -13.041446 29.750000 -11.669220
v -5.436545 30.653934 -16.030907
v -10.154490 30.537868 -13.778187
v -10.248519 30.382778 -13.905770
v -17.399263 29.750000 -1.875000
v -2.000000 30.653223 -16.808765
v 2.000000 30.641800 -16.833931
v -2.026546 30.725723 -16.595734
v -3.867866 30.196814 -16.959146
v -15.074616 30.196814 -8.679228
v -15.892501 30.196814 -7.071173
v -16.639622 29.750000 -5.419688
v -15.988773 29.750000 -7.114008
v -15.962500 29.988091 -7.102318
v -17.110508 -24.416952 -4.180209
v -17.457903 -24.416952 -2.337792
v -16.760576 -25.539183 -0.976192
v -1.091980 -39.389999 -0.132590
v -16.640446 -25.539183 -2.228326
v -16.533918 -25.539183 -2.915376
v -16.309319 -25.539183 -3.984473
v -17.238167 -25.026588 1.004009
v -17.862976 -21.900000 5.184022
v -16.873772 -24.416952 5.051676
v -17.399263 29.750000 1.875000
v -17.374369 29.970282 1.875000
v -17.000864 30.183529 3.710831
v -16.610077 29.972610 5.429342
v -2.000000 30.526798 17.012314
v -5.667178 30.383286 16.317823
v -5.615220 30.538099 16.168219
v -6.557212 30.538099 15.809647
v -5.706588 30.197979 16.431299
v -15.015339 30.372952 8.556643
v -3.597693 29.990744 17.096142
v -2.000000 30.180525 17.287256
v -3.581930 30.197979 17.021238
v -5.731701 29.990744 16.503609
v -17.301706 30.179583 1.875000
v -6.485158 30.654028 15.635922
v -5.553517 30.654028 15.990553
v -5.007084 30.654028 16.169987
v -3.866774 30.538099 16.673033
v -3.824284 30.654028 16.489820
v 2.000000 30.725029 16.601480
v -3.485850 30.654028 16.564667
v 2.118129 29.974091 17.345722
v 2.000000 29.973955 17.359140
v 16.425655 -21.900000 8.726846
v -7.749587 -25.026588 -15.430696
v -0.905282 -39.389999 -0.624871
v -12.371331 -25.026588 -12.046269
v -16.173214 -24.416952 -6.976444
v -15.415913 -25.539183 -6.649776
v -15.793399 -25.539183 -5.695475
v -16.541969 -25.026588 -4.952341
v -16.774050 -25.026588 -4.098011
v -16.243429 -25.026588 -5.857767
v -1.949082 -25.539183 16.675459
v 0.937441 -24.416952 -17.588770
v 0.000000 -25.026588 -17.267382
v 0.000000 -24.416952 -17.613733
v -4.417224 -25.539183 -16.197470
v -10.491967 26.250000 -14.440953
v -10.357319 29.750000 -14.105884
v 15.855187 -25.026588 6.839260
v 16.309319 -25.539183 -3.984473
v 17.005051 -25.026588 -2.998449
v 1.091980 -39.389999 0.132590
v 16.783031 -25.539183 -0.446931
v 16.968382 -25.026588 3.199451
v 9.157765 15.100000 -16.189358
v 9.087285 29.990744 -14.921217
v 9.558493 29.990744 -14.623839
v 8.174776 29.750000 -15.473301
v 17.117321 29.750000 -3.639684
v 15.100000 35.621567 -0.682311
v 17.288422 30.183529 -1.977402
v 17.000864 30.183529 -3.710831
v 10.404390 30.538099 -13.590093
v 5.553517 30.654028 -15.990553
v 16.539959 30.183529 -5.406423
v 15.221508 29.750000 -8.634563
v 14.075865 30.372952 -10.027292
v 11.826588 30.537924 -12.372113
v 11.788541 30.538099 -12.408557
v 6.582248 15.100000 17.396379
v 10.491967 26.250000 14.440953
v 7.260249 26.250000 16.306786
v 12.877657 30.375509 11.522665
v 12.966869 30.186039 11.602490
v 14.001870 30.375509 10.126870
v 16.306786 26.250000 7.260249
v 14.440953 26.250000 10.491967
v 3.842426 30.375509 16.847601
v 8.691034 30.533329 14.751793
v 8.771544 30.375509 14.888448
v 10.045461 30.651840 13.630250
v 10.652581 30.538099 -13.396436
v 10.751150 30.383286 -13.520393
v 9.364244 30.538099 -14.326651
v 9.516614 30.197979 -14.559767
v 10.500663 30.383286 -13.715842
v 9.450891 30.383286 -14.459216
v 11.897620 30.383286 -12.523374
v 11.943981 26.250000 -13.265135
v 10.891862 29.750000 -13.697349
v 13.078899 30.183521 -11.477872
v 12.092894 29.990648 -12.608335
v 12.033080 29.990744 -12.665956
v 2.000000 29.969860 -17.360525
v 3.485850 30.654028 -16.564667
v 3.524580 30.538099 -16.748711
v 5.731701 29.990744 -16.503609
v 6.557212 30.538099 -15.809647
v 6.617887 30.383286 -15.955934
v 5.667178 30.383286 -16.317823
v 13.850567 -25.026588 10.311365
v 17.583935 -24.416952 -1.024148
v 17.238167 -25.026588 -1.004009
v 17.557581 -24.416952 1.405331
v -14.413367 -24.416952 10.124152
v -11.947604 -24.416952 12.942117
v -12.109583 29.871527 12.623139
v -12.871993 30.530878 11.294338
v -5.532063 -24.416952 16.722437
v 0.000000 -25.026588 17.267382
v 0.000000 -23.845314 17.790340
v 12.811766 -24.416952 12.087277
v 11.947604 -24.416952 12.942117
v 0.263247 -39.389999 1.068036
v 5.742169 -25.539183 15.776481
v 3.548899 -25.539183 16.409607
v 6.937411 -25.539183 15.288630
v 8.766059 -25.026588 14.876782
v 5.532063 -24.416952 16.722437
v 3.650024 -25.026588 16.877197
v 7.278210 -24.416952 16.039679
v -12.962919 30.196814 -11.598956
v -5.496980 30.537868 -16.209112
v -5.547881 30.382778 -16.359205
v -7.196154 30.382778 -15.704075
v -10.365341 29.988091 -14.064282
v -8.868511 29.988091 -15.053034
v -8.840576 29.750000 -15.102788
v -7.278183 29.988091 -15.883085
v -5.539136 29.750000 -16.600241
v -5.611121 29.988091 -16.545683
v -7.228736 29.750000 -15.937232
v -17.850000 26.250000 0.000000
v -3.841118 30.382778 -16.841866
v -15.141014 29.988091 -8.717456
v -15.782595 30.382778 -7.022272
v -16.612278 29.988091 -5.410781
v -17.114614 -25.026588 -2.291822
v -17.261261 -25.026588 -0.459667
v -16.083668 -25.539183 4.815134
v -15.467889 -25.539183 6.527962
v -15.908645 -25.026588 6.713975
v -14.686380 -25.539183 8.135115
v -17.072935 29.972610 3.726562
v -15.458553 26.250000 8.925000
v -14.261549 29.750000 10.141905
v -15.221508 29.750000 8.634563
v -15.977855 29.972610 7.076761
v -5.062716 30.538099 16.349644
v -5.145094 30.197979 16.615679
v -15.801712 30.372952 6.998746
v -15.118625 30.183529 8.615500
v -14.172688 30.183529 10.096267
v -17.288422 30.183529 1.977402
v -17.301691 30.179632 -1.875000
v -9.574584 29.750000 14.648458
v -10.620216 29.990744 13.872004
v 2.026854 30.725149 16.598251
v -3.524580 30.538099 16.748711
v -3.557193 30.383286 16.903687
v 3.789953 29.750000 17.084679
v -7.534881 -25.539183 -15.003181
v -12.028579 -25.539183 -11.712523
v -14.232596 -25.539183 -8.905227
v -15.528766 -25.026588 -7.551152
v -16.083668 -25.539183 -4.815134
v -7.905029 -24.416952 15.740208
v -6.937411 -25.539183 15.288630
v -7.135092 -25.026588 15.724277
v -9.225696 -25.539183 14.026989
v -8.523191 -25.539183 14.464615
v -8.766059 -25.026588 14.876782
v -3.982132 -25.026588 16.801937
v -0.263247 -39.389999 1.068036
v 0.000000 -25.539183 -16.788980
v -0.919008 -25.026588 -17.242908
v 2.044830 -24.416952 -17.494637
v 0.919008 -25.026588 -17.242908
v 17.114614 -25.026588 -2.291822
v 16.760576 -25.539183 -0.976192
v 16.735456 -25.539183 1.339527
v 16.498264 -25.539183 3.110809
v 16.532171 -25.026588 4.984954
v 10.873556 29.990744 -13.674328
v 10.620216 29.990744 -13.872004
v 8.161036 29.990744 -15.447296
v 8.125280 30.197979 -15.379616
v 17.072935 29.972610 -3.726562
v 17.299126 30.184902 1.875000
v 6.485158 30.654028 -15.635922
v 7.219965 30.654028 -15.310502
v 7.907331 30.654028 -14.967079
v 8.804785 30.654028 -14.457355
v 15.182716 29.972610 -8.652024
v 15.015339 30.372952 -8.556643
v 15.118625 30.183529 -8.615500
v 14.172688 30.183529 -10.096267
v 7.228736 29.750000 15.937232
v 7.279568 29.974091 15.886108
v 5.612189 29.974091 16.548832
v 5.539136 29.750000 16.600241
v 13.022493 29.974091 11.652262
v 14.159350 29.974091 10.240768
v 14.098870 30.186039 10.197026
v 15.079210 30.186039 8.681872
v 8.840576 29.750000 15.102788
v 8.870199 29.974091 15.055900
v 11.704918 30.186039 12.874486
v 15.143895 29.974091 8.719115
v 14.975465 30.375509 8.622141
v 10.357319 29.750000 14.105884
v 8.832312 30.186039 14.991590
v 10.323031 30.186039 14.006874
v 16.976358 26.250000 5.515954
v 16.639622 29.750000 5.419688
v 15.965538 29.974091 7.103670
v 14.179957 29.750000 10.255672
v 3.807158 30.533329 16.692963
v 8.902612 30.538099 -14.617985
v 9.261344 30.654028 -14.169222
v 11.945500 30.383221 -12.477593
v 11.980358 30.197979 -12.610462
v 2.000000 30.365086 -17.172260
v 2.000000 29.750000 -17.385338
v -2.000000 29.988083 -17.356359
v 3.824284 30.654028 -16.489820
v 6.663908 30.197979 -16.066895
v 7.367731 30.383286 -15.623853
v 5.615220 30.538099 -16.168219
v -12.994926 -25.026588 11.370767
v -12.559838 -25.026588 11.849596
v -11.099258 -25.026588 13.227581
v -11.388165 -25.539183 12.336109
v -10.791749 -25.539183 12.861105
v -12.811766 -24.416952 12.087277
v -13.152868 29.750000 11.543485
v -14.232769 29.972610 10.139067
v -10.891862 29.750000 13.697349
v -2.004621 -25.026588 17.150625
v 13.255581 -24.416952 11.598845
v 12.211862 -25.539183 11.521297
v 11.321890 -24.416952 13.492903
v 5.273028 -25.539183 15.939418
v 1.872225 -24.416952 17.513948
v 7.534881 -25.539183 15.003181
v 7.749587 -25.026588 15.430696
v 7.135092 -25.026588 15.724277
v 5.423282 -25.026588 16.393610
v 7.905029 -24.416952 15.740208
v 6.024252 -24.416952 16.551497
v -12.873273 30.382778 -11.518743
v -7.130130 30.537868 -15.559992
v -5.586515 30.196814 -16.473127
v -7.246266 30.196814 -15.813434
v -8.829620 30.196814 -14.987023
v -8.768559 30.382778 -14.883379
v -11.762648 29.750000 -12.957242
v -15.165936 29.750000 -8.731804
v -17.005051 -25.026588 -2.998449
v -16.533918 -25.539183 2.915376
v -16.227743 -24.416952 6.848646
v -16.541969 -25.026588 4.952341
v -15.104868 -25.026588 8.366924
v -2.000000 30.368912 17.169302
v -3.902554 30.383286 16.827309
v -15.182716 29.972610 8.652024
v -8.804785 30.654028 14.457355
v -7.907331 30.654028 14.967079
v -7.219965 30.654028 15.310502
v -11.788541 30.538099 12.408557
v -10.652581 30.538099 13.396436
v -10.751150 30.383286 13.520393
v -10.500663 30.383286 13.715842
v -11.897620 30.383286 12.523374
v -10.825915 30.197979 13.614416
v -10.404390 30.538099 13.590093
v -9.364244 30.538099 14.326651
v -8.161036 29.990744 15.447296
v -9.087285 29.990744 14.921217
v -8.125280 30.197979 15.379616
v -9.047470 30.197979 14.855842
v -9.516614 30.197979 14.559767
v -10.573686 30.197979 13.811225
v 3.885642 29.974091 17.037086
v -0.729435 -39.389999 -0.823362
v -15.855187 -25.026588 -6.839260
v -7.749587 -25.026588 15.430696
v -7.278210 -24.416952 16.039679
v -0.729435 -39.389999 0.823362
v -10.012400 -25.539183 13.476710
v -3.871805 -25.539183 16.336432
v -5.423282 -25.026588 16.393610
v -0.937441 -24.416952 -17.588770
v 17.212334 -25.026588 1.377697
v 16.074141 -25.539183 4.846844
v 10.573686 30.197979 -13.811225
v 9.047470 30.197979 -14.855842
v 17.374561 29.967480 -1.875000
v 17.392815 29.862383 1.875000
v 17.013626 30.186039 3.646097
v 15.977855 29.972610 -7.076761
v 13.041446 29.750000 11.669220
v 10.252008 30.375509 13.910506
v 11.755129 29.974091 12.929713
v 11.624388 30.375509 12.785909
v 15.165936 29.750000 8.731804
v 15.787970 30.375509 7.024663
v 7.995186 30.538099 -15.133372
v 8.069166 30.383286 -15.273402
v 12.035381 30.197748 -12.557321
v 3.946986 29.990744 -17.018894
v 5.145094 30.197979 -16.615679
v 2.000000 30.521873 -17.018562
v 2.000000 30.178097 -17.288408
v 3.557193 30.383286 -16.903687
v 6.693234 29.990744 -16.137598
v 7.418968 30.197979 -15.732504
v -10.297703 -25.026588 13.860727
v -11.712669 -25.026588 12.687625
v -13.255581 -24.416952 11.598845
v -11.945500 30.383221 12.477593
v -12.035381 30.197748 12.557321
v -11.980358 30.197979 12.610462
v -13.134118 29.972616 11.526853
v -10.873556 29.990744 13.674328
v 12.994926 -25.026588 11.370767
v 12.559838 -25.026588 11.849596
v 11.712669 -25.026588 12.687625
v 11.099258 -25.026588 13.227581
v 1.835410 -25.026588 17.169558
v 5.905792 -25.026588 16.226030
v -11.620431 30.382778 -12.781556
v -11.701352 30.196814 -12.870564
v -8.688108 30.537868 -14.746826
v -8.592590 30.653934 -14.584697
v -7.051740 30.653934 -15.388923
v -10.319887 30.196814 -14.002606
v -11.752892 29.988091 -12.927253
v -5.109561 30.383286 16.500929
v -3.929693 30.197979 16.944328
v -9.261344 30.654028 14.169222
v -11.826588 30.537924 12.372113
v -6.617887 30.383286 15.955934
v -7.367731 30.383286 15.623853
v -7.995186 30.538099 15.133372
v -7.418968 30.197979 15.732504
v -9.558493 29.990744 14.623839
v -7.534881 -25.539183 15.003181
v -6.024252 -24.416952 16.551497
v -0.905282 -39.389999 0.624871
v -12.211862 -25.539183 11.521297
v 17.261261 -25.026588 -0.459667
v 10.825915 30.197979 -13.614416
v 8.984987 30.383286 -14.753245
v 17.303259 30.174156 -1.875000
v 17.373722 29.973436 1.875000
v 17.086609 29.974091 3.661738
v 16.022738 29.750000 -7.037180
v 15.910406 30.183529 -7.046888
v 16.610077 29.972610 -5.429342
v 7.198604 30.375509 15.709423
v 5.498831 30.533329 16.214571
v 5.549770 30.375509 16.364777
v 7.248474 30.186039 15.818253
v 5.588217 30.186039 16.478148
v 10.367314 29.974091 14.066958
v 15.988773 29.750000 7.114008
v 7.300182 30.538099 -15.480611
v 3.603750 29.750000 -17.124924
v 5.167736 29.990744 -16.688799
v 3.929693 30.197979 -16.944328
v 5.706588 30.197979 -16.431299
v 3.902554 30.383286 -16.827309
v 3.581930 30.197979 -17.021238
v -9.488581 -25.026588 14.426686
v -10.504256 -24.416952 14.138749
v -12.092894 29.990648 12.608335
v -13.078899 30.183521 11.477872
v -8.984987 30.383286 14.753245
v -7.300182 30.538099 15.480611
v -8.902612 30.538099 14.617985
v 17.111477 29.750000 3.667067
v 15.801712 30.372952 -6.998746
v 7.132531 30.533329 15.565232
v 3.597693 29.990744 -17.096142
v -11.321890 -24.416952 13.492903
v -9.678905 -24.416952 14.716060
v -12.033080 29.990744 12.665956
v -9.450891 30.383286 14.459216
v -8.069166 30.383286 15.273402
f 1 2 3
f 4 5 6
f 4 6 7
f 8 7 6
f 9 10 11
f 12 13 14
f 15 16 17
f 15 14 13
f 18 19 20
f 21 22 23
f 21 24 22
f 25 26 18
f 25 18 20
f 27 11 10
f 28 3 2
f 29 2 1
f 30 31 32
f 33 28 2
f 34 11 27
f 34 9 11
f 35 36 37
f 38 39 40
f 38 40 41
f 42 7 8
f 43 24 21
f 44 10 9
f 45 13 12
f 45 12 46
f 45 46 47
f 45 47 48
f 45 48 13
f 49 17 16
f 50 19 18
f 50 18 26
f 50 26 51
f 50 51 52
f 53 23 54
f 53 54 52
f 55 56 57
f 58 59 60
f 58 60 61
f 62 49 63
f 64 1 3
f 65 66 67
f 65 2 29
f 68 31 69
f 68 69 70
f 71 31 30
f 71 69 31
f 72 30 32
f 72 62 63
f 73 28 33
f 74 75 76
f 74 76 77
f 74 77 33
f 74 33 2
f 78 79 80
f 78 40 39
f 81 41 40
f 81 40 78
f 81 78 80
f 82 78 39
f 82 39 83
f 84 85 86
f 87 8 6
f 87 6 88
f 89 88 6
f 90 91 92
f 93 34 27
f 93 27 94
f 95 96 71
f 95 71 30
f 97 98 44
f 97 44 9
f 99 89 100
f 101 102 103
f 104 42 8
f 104 8 92
f 104 92 91
f 105 106 107
f 108 20 109
f 110 111 108
f 110 108 109
f 112 113 55
f 112 55 114
f 112 114 115
f 112 115 116
f 112 117 113
f 118 112 116
f 119 3 28
f 120 16 15
f 121 43 21
f 121 21 23
f 122 123 124
f 125 43 126
f 125 24 43
f 127 47 46
f 128 48 47
f 129 130 131
f 132 130 46
f 132 46 12
f 133 24 130
f 133 130 129
f 133 22 24
f 134 46 130
f 134 130 24
f 134 24 125
f 134 125 127
f 134 127 46
f 135 22 136
f 135 54 23
f 135 23 22
f 137 50 52
f 137 52 54
f 138 1 64
f 139 54 135
f 140 53 52
f 140 52 51
f 141 51 26
f 142 116 115
f 142 115 143
f 144 145 142
f 144 146 145
f 147 114 55
f 147 55 57
f 147 115 114
f 148 143 115
f 149 56 55
f 149 55 113
f 149 113 150
f 149 150 56
f 151 94 27
f 152 150 113
f 152 113 117
f 153 17 49
f 153 49 62
f 154 155 32
f 154 32 31
f 156 29 1
f 157 17 158
f 157 158 159
f 157 159 14
f 157 14 15
f 157 15 17
f 160 158 17
f 160 17 153
f 161 162 159
f 163 12 14
f 163 14 159
f 163 159 162
f 164 165 166
f 164 163 162
f 167 2 65
f 167 65 67
f 167 67 168
f 169 68 70
f 170 169 171
f 172 29 171
f 172 171 169
f 173 155 154
f 173 154 174
f 175 176 69
f 175 69 71
f 175 71 96
f 177 72 63
f 178 73 179
f 180 181 33
f 182 4 7
f 183 4 182
f 183 5 4
f 184 74 2
f 184 2 185
f 184 185 41
f 186 73 33
f 187 41 81
f 187 81 188
f 187 188 75
f 189 78 82
f 189 190 79
f 189 79 78
f 191 82 83
f 192 193 194
f 192 194 195
f 192 195 37
f 192 37 36
f 196 39 38
f 196 193 83
f 196 83 39
f 197 85 198
f 197 79 190
f 197 190 86
f 197 86 85
f 199 87 88
f 199 88 198
f 200 79 197
f 200 197 198
f 200 198 88
f 200 88 89
f 200 80 79
f 201 5 202
f 201 202 203
f 201 203 100
f 201 100 89
f 201 89 6
f 201 6 5
f 204 103 102
f 205 107 106
f 205 106 206
f 207 208 209
f 207 93 94
f 210 211 212
f 213 96 95
f 214 35 215
f 214 36 35
f 216 96 213
f 216 176 175
f 216 175 96
f 217 176 216
f 217 216 215
f 217 215 35
f 217 35 218
f 217 218 176
f 219 36 214
f 219 214 220
f 221 36 219
f 221 219 222
f 221 193 192
f 221 192 36
f 223 37 195
f 224 225 168
f 224 168 67
f 224 67 66
f 224 223 195
f 224 195 194
f 224 194 225
f 226 176 218
f 226 69 176
f 227 37 223
f 227 223 228
f 227 218 35
f 227 35 37
f 229 230 231
f 229 231 232
f 229 232 65
f 229 65 29
f 229 29 230
f 233 228 223
f 234 228 233
f 234 218 227
f 234 227 228
f 235 38 41
f 235 41 185
f 235 185 236
f 237 81 80
f 237 188 81
f 238 203 77
f 238 77 76
f 238 76 75
f 238 75 188
f 238 188 237
f 238 237 99
f 238 99 100
f 238 100 203
f 239 240 241
f 242 42 104
f 242 104 91
f 242 91 206
f 242 206 106
f 242 106 105
f 243 105 107
f 243 107 204
f 244 42 242
f 244 242 105
f 245 246 247
f 248 111 110
f 249 247 246
f 250 251 145
f 252 118 116
f 253 60 59
f 253 59 254
f 255 256 257
f 258 257 256
f 258 256 60
f 259 60 256
f 259 61 60
f 260 120 15
f 260 15 13
f 260 13 48
f 261 262 123
f 263 212 211
f 264 265 126
f 266 267 44
f 266 268 269
f 270 267 266
f 270 266 269
f 270 269 271
f 272 273 44
f 272 44 123
f 274 22 133
f 275 276 138
f 277 138 64
f 278 139 135
f 278 135 136
f 278 136 279
f 280 137 54
f 280 54 139
f 280 139 281
f 282 283 109
f 282 109 20
f 282 20 19
f 284 140 51
f 284 51 285
f 286 287 288
f 289 26 25
f 290 251 252
f 290 252 116
f 290 116 142
f 290 142 145
f 290 145 251
f 291 292 146
f 291 146 144
f 293 147 57
f 293 148 115
f 293 115 147
f 294 143 148
f 295 151 27
f 295 27 10
f 296 207 94
f 296 94 151
f 296 297 298
f 299 300 301
f 302 301 300
f 303 300 299
f 303 299 304
f 303 304 298
f 303 298 297
f 305 101 241
f 305 241 240
f 306 307 102
f 308 68 174
f 308 174 154
f 308 154 31
f 308 31 68
f 309 153 62
f 309 62 310
f 309 310 311
f 309 311 160
f 309 160 153
f 312 32 155
f 312 155 310
f 312 310 62
f 312 62 72
f 312 72 32
f 313 155 173
f 314 158 160
f 314 160 311
f 314 311 315
f 314 315 316
f 317 162 161
f 318 163 164
f 318 164 319
f 318 319 132
f 318 132 12
f 318 12 163
f 320 321 322
f 323 236 185
f 323 185 2
f 323 2 167
f 323 167 168
f 323 168 225
f 323 225 236
f 324 169 170
f 324 170 174
f 324 174 68
f 324 68 169
f 325 174 170
f 326 29 156
f 326 156 327
f 326 325 170
f 326 170 171
f 326 171 29
f 328 177 63
f 328 63 49
f 329 330 178
f 329 178 179
f 329 306 331
f 332 73 178
f 332 178 330
f 332 330 333
f 332 333 28
f 332 28 73
f 334 77 203
f 334 203 202
f 334 202 180
f 334 180 33
f 334 33 77
f 335 182 7
f 335 7 42
f 335 42 336
f 337 180 202
f 337 202 5
f 337 5 183
f 337 183 181
f 337 181 180
f 338 183 182
f 339 186 340
f 341 184 41
f 341 41 187
f 341 187 75
f 341 75 74
f 341 74 184
f 342 343 191
f 342 191 83
f 344 236 225
f 344 225 194
f 344 194 193
f 344 193 196
f 344 196 38
f 344 38 235
f 344 235 236
f 345 346 347
f 348 80 200
f 348 200 89
f 348 89 99
f 348 99 237
f 348 237 80
f 349 204 107
f 349 107 205
f 350 206 91
f 350 91 90
f 351 87 199
f 351 352 92
f 351 92 8
f 351 8 87
f 353 150 152
f 354 59 58
f 355 299 301
f 356 357 358
f 359 360 209
f 359 209 208
f 361 241 101
f 362 209 363
f 362 363 364
f 362 207 209
f 365 366 207
f 365 298 304
f 365 304 366
f 367 368 207
f 367 207 366
f 369 207 368
f 370 86 190
f 371 86 370
f 371 84 86
f 372 95 30
f 372 30 72
f 372 72 177
f 373 210 212
f 373 212 213
f 373 213 95
f 373 95 372
f 373 372 210
f 374 375 376
f 374 376 377
f 378 97 9
f 378 9 34
f 379 380 222
f 379 222 219
f 381 232 233
f 381 233 66
f 381 66 65
f 381 65 232
f 382 231 234
f 382 234 233
f 382 233 232
f 382 232 231
f 383 224 66
f 383 66 233
f 383 233 223
f 383 223 224
f 384 240 239
f 384 239 358
f 384 358 357
f 384 357 61
f 384 61 259
f 385 331 305
f 385 305 240
f 385 329 331
f 386 102 307
f 386 307 387
f 386 387 243
f 386 243 204
f 386 204 102
f 388 244 105
f 389 245 110
f 389 110 109
f 390 391 392
f 393 248 110
f 393 110 245
f 393 245 247
f 394 248 393
f 394 393 247
f 394 247 395
f 396 288 397
f 398 247 249
f 398 249 251
f 398 251 250
f 398 250 395
f 398 395 247
f 399 250 145
f 399 145 146
f 400 3 401
f 402 118 403
f 402 403 404
f 402 117 112
f 402 112 118
f 405 249 406
f 405 252 251
f 405 251 249
f 407 402 404
f 408 117 409
f 408 254 152
f 408 152 117
f 410 255 411
f 410 411 28
f 410 28 412
f 413 257 258
f 413 258 60
f 413 60 253
f 414 240 384
f 414 384 259
f 415 411 255
f 415 255 257
f 415 416 119
f 415 119 28
f 415 28 411
f 417 271 269
f 417 269 268
f 417 263 211
f 417 211 271
f 418 419 420
f 421 128 419
f 421 419 418
f 421 260 48
f 421 48 128
f 422 267 270
f 422 44 267
f 423 424 261
f 423 261 123
f 423 123 44
f 425 43 121
f 425 264 126
f 425 126 43
f 426 97 427
f 426 427 268
f 426 268 266
f 426 98 97
f 428 98 426
f 428 426 266
f 428 266 44
f 428 44 98
f 429 211 210
f 430 122 124
f 430 124 420
f 431 272 123
f 431 122 430
f 432 433 127
f 432 127 125
f 432 125 126
f 432 434 433
f 435 274 133
f 435 133 129
f 436 22 274
f 436 136 22
f 437 276 279
f 438 1 138
f 438 138 276
f 438 276 437
f 438 437 439
f 438 439 440
f 438 440 441
f 438 441 1
f 442 139 278
f 442 276 275
f 442 275 281
f 442 281 139
f 443 137 280
f 443 280 444
f 443 444 19
f 443 19 50
f 443 50 137
f 445 140 284
f 445 284 446
f 447 286 288
f 447 288 151
f 448 286 447
f 448 141 26
f 448 26 289
f 448 287 286
f 449 300 303
f 449 303 297
f 450 451 452
f 450 292 453
f 454 397 288
f 455 148 293
f 455 293 57
f 455 57 456
f 455 456 457
f 455 457 148
f 458 291 144
f 458 144 142
f 458 142 143
f 458 143 294
f 458 453 292
f 458 292 291
f 459 151 295
f 459 264 446
f 459 446 284
f 460 452 451
f 460 451 461
f 460 461 151
f 462 461 451
f 462 463 464
f 462 464 151
f 462 151 461
f 465 207 296
f 465 296 298
f 466 464 463
f 466 297 296
f 466 296 151
f 466 151 464
f 467 355 301
f 468 57 56
f 468 56 467
f 468 467 301
f 468 301 302
f 468 302 456
f 468 456 57
f 469 102 101
f 469 101 305
f 469 305 331
f 469 331 306
f 469 306 102
f 470 315 311
f 470 311 310
f 470 310 155
f 470 155 313
f 471 1 166
f 471 166 165
f 471 156 1
f 472 161 159
f 472 159 158
f 472 158 314
f 473 131 130
f 473 130 132
f 473 132 319
f 474 166 1
f 474 1 475
f 476 441 477
f 476 477 435
f 476 435 129
f 476 129 131
f 476 131 478
f 479 3 400
f 480 481 482
f 480 482 226
f 480 226 218
f 483 325 326
f 483 326 327
f 483 327 313
f 483 313 173
f 483 173 174
f 483 174 325
f 484 328 49
f 484 49 16
f 484 16 120
f 484 120 485
f 486 306 329
f 486 329 179
f 486 307 306
f 487 181 183
f 487 183 338
f 487 340 186
f 487 186 33
f 487 33 181
f 488 340 487
f 488 487 338
f 488 338 182
f 488 182 335
f 489 186 490
f 489 73 186
f 491 387 307
f 492 221 222
f 492 222 342
f 492 342 83
f 492 83 193
f 492 193 221
f 493 343 342
f 493 494 343
f 495 493 342
f 495 342 222
f 495 222 380
f 496 90 92
f 497 34 498
f 497 498 499
f 497 499 346
f 497 346 500
f 497 501 377
f 497 97 378
f 497 378 34
f 502 346 499
f 503 199 198
f 503 198 85
f 504 347 346
f 505 346 345
f 505 506 346
f 507 353 152
f 507 152 254
f 507 254 59
f 508 61 357
f 508 354 58
f 508 58 61
f 509 353 507
f 509 507 59
f 509 59 354
f 510 511 512
f 510 512 209
f 510 209 360
f 513 361 101
f 513 101 103
f 514 241 361
f 514 358 239
f 514 239 241
f 515 304 299
f 515 299 355
f 516 517 208
f 516 208 369
f 516 369 368
f 518 207 369
f 518 369 208
f 518 208 207
f 519 506 520
f 519 500 346
f 519 346 506
f 521 497 500
f 522 494 493
f 523 500 519
f 523 519 520
f 523 524 521
f 523 521 500
f 525 520 506
f 526 82 191
f 526 191 527
f 526 527 370
f 526 370 190
f 526 190 189
f 526 189 82
f 528 347 504
f 529 528 371
f 529 371 370
f 529 370 530
f 531 216 213
f 532 427 97
f 532 97 497
f 532 376 533
f 532 533 427
f 534 379 219
f 534 219 220
f 535 536 537
f 538 333 330
f 538 330 329
f 538 329 385
f 539 336 42
f 539 42 244
f 539 244 388
f 539 388 540
f 541 388 105
f 541 105 243
f 541 243 387
f 542 109 283
f 542 283 390
f 542 389 109
f 543 246 245
f 544 248 394
f 545 288 396
f 546 403 118
f 546 118 252
f 547 400 401
f 547 407 404
f 547 479 400
f 548 402 407
f 548 407 117
f 548 117 402
f 549 240 414
f 550 549 414
f 550 414 259
f 551 119 552
f 551 553 401
f 551 401 3
f 551 3 119
f 554 552 119
f 555 257 413
f 555 416 415
f 555 415 257
f 556 254 408
f 556 408 409
f 556 409 557
f 558 253 254
f 559 418 420
f 560 561 562
f 560 422 270
f 563 564 485
f 565 328 484
f 565 484 485
f 565 485 564
f 565 564 566
f 567 372 177
f 567 568 210
f 567 210 372
f 569 566 568
f 569 568 567
f 569 567 177
f 569 177 328
f 569 328 565
f 569 565 566
f 570 140 445
f 570 445 446
f 570 446 264
f 570 264 425
f 570 425 121
f 570 121 23
f 570 23 53
f 570 53 140
f 571 270 271
f 571 271 211
f 571 211 429
f 571 561 560
f 571 560 270
f 572 419 128
f 572 433 434
f 572 434 431
f 572 431 430
f 572 430 420
f 572 420 419
f 573 122 431
f 573 431 123
f 573 123 122
f 574 265 273
f 574 273 272
f 574 272 431
f 574 431 434
f 574 434 432
f 574 432 126
f 574 126 265
f 575 440 439
f 575 439 437
f 575 437 279
f 575 279 136
f 575 136 436
f 575 436 274
f 576 279 276
f 576 276 442
f 576 442 278
f 576 278 279
f 577 277 578
f 577 138 277
f 579 577 578
f 580 578 277
f 581 285 51
f 581 51 141
f 581 141 448
f 581 448 447
f 581 284 285
f 582 20 108
f 582 108 111
f 582 111 583
f 582 583 584
f 582 584 25
f 582 25 20
f 585 289 25
f 585 25 584
f 585 287 448
f 585 448 289
f 586 463 462
f 586 462 451
f 587 450 453
f 587 453 458
f 587 458 294
f 588 454 288
f 588 288 287
f 589 590 397
f 589 397 454
f 589 454 588
f 589 588 287
f 589 287 585
f 591 447 151
f 591 151 459
f 591 459 284
f 591 284 581
f 591 581 447
f 592 10 44
f 592 44 273
f 592 273 265
f 592 265 264
f 592 264 459
f 592 459 295
f 592 295 10
f 593 594 395
f 593 395 250
f 595 365 207
f 595 207 465
f 595 465 298
f 595 298 365
f 596 449 297
f 596 297 466
f 596 466 463
f 596 597 449
f 598 467 56
f 598 56 150
f 599 327 156
f 599 156 315
f 599 315 470
f 599 470 313
f 599 313 327
f 600 471 317
f 600 317 161
f 600 161 472
f 600 472 314
f 600 314 316
f 601 317 471
f 601 471 165
f 601 165 164
f 601 164 162
f 601 162 317
f 602 473 319
f 602 319 164
f 602 164 166
f 602 166 474
f 603 475 1
f 603 1 441
f 603 441 476
f 603 476 478
f 603 478 475
f 604 405 406
f 605 322 321
f 605 321 606
f 605 64 322
f 607 64 608
f 607 608 609
f 610 403 546
f 610 404 403
f 611 3 479
f 611 320 322
f 611 322 64
f 611 64 3
f 612 172 481
f 612 481 230
f 612 230 29
f 612 29 172
f 613 169 70
f 613 481 172
f 613 172 169
f 614 234 231
f 614 480 218
f 614 218 234
f 615 481 480
f 615 480 614
f 615 614 231
f 615 231 230
f 615 230 481
f 616 336 539
f 616 539 540
f 616 339 340
f 616 340 488
f 616 488 335
f 616 335 336
f 617 339 616
f 617 616 540
f 617 540 490
f 617 490 186
f 617 186 339
f 618 619 489
f 618 489 490
f 620 491 307
f 620 307 486
f 621 370 527
f 621 530 370
f 622 343 494
f 622 494 522
f 622 621 527
f 622 527 191
f 622 191 343
f 623 493 495
f 623 495 380
f 623 624 493
f 625 499 498
f 625 498 90
f 625 90 496
f 625 496 92
f 625 92 352
f 626 93 207
f 626 34 93
f 627 501 497
f 627 497 628
f 629 628 497
f 629 497 630
f 631 503 85
f 631 85 84
f 632 633 504
f 632 504 346
f 634 84 371
f 634 371 528
f 634 528 504
f 634 504 633
f 634 633 631
f 634 631 84
f 635 509 354
f 635 354 636
f 637 509 635
f 637 635 636
f 637 638 353
f 637 353 509
f 639 640 511
f 641 512 511
f 641 511 640
f 641 640 642
f 641 642 512
f 643 644 636
f 643 636 354
f 643 354 508
f 645 511 510
f 645 639 511
f 646 363 642
f 646 642 640
f 647 209 512
f 647 512 642
f 647 642 363
f 648 508 357
f 648 357 356
f 648 644 643
f 648 643 508
f 649 644 650
f 649 650 517
f 651 204 349
f 651 652 513
f 651 513 103
f 651 103 204
f 653 363 646
f 653 652 364
f 653 364 363
f 654 640 639
f 654 514 361
f 654 646 640
f 655 366 304
f 655 304 515
f 655 367 366
f 656 629 630
f 656 521 524
f 657 497 521
f 657 521 656
f 657 656 630
f 657 630 497
f 658 505 345
f 658 345 347
f 658 525 506
f 658 506 505
f 659 525 658
f 659 529 530
f 660 263 417
f 661 216 531
f 661 214 215
f 661 215 216
f 662 212 263
f 662 531 213
f 662 213 212
f 663 377 376
f 663 376 532
f 663 532 497
f 663 497 377
f 664 536 665
f 664 537 536
f 666 501 627
f 666 627 535
f 666 535 537
f 666 537 375
f 666 375 374
f 666 374 377
f 666 377 501
f 667 390 392
f 667 392 668
f 669 670 671
f 672 668 543
f 672 543 245
f 672 245 389
f 673 674 583
f 673 583 111
f 673 111 248
f 673 248 544
f 675 544 394
f 675 394 395
f 675 395 594
f 676 479 547
f 676 547 404
f 676 404 610
f 677 240 549
f 677 538 385
f 677 385 240
f 678 412 28
f 678 28 333
f 679 550 259
f 679 259 256
f 680 553 551
f 680 551 552
f 680 557 553
f 681 557 409
f 681 409 117
f 681 117 407
f 681 407 547
f 682 554 119
f 682 119 416
f 683 684 554
f 683 554 682
f 683 682 416
f 683 416 555
f 683 555 413
f 683 558 684
f 685 556 557
f 685 557 680
f 686 253 558
f 686 558 683
f 686 683 413
f 686 413 253
f 687 556 685
f 687 684 558
f 687 558 254
f 687 254 556
f 688 262 261
f 688 559 420
f 688 420 124
f 688 124 123
f 688 123 262
f 689 422 560
f 689 560 562
f 690 561 571
f 690 571 429
f 690 429 210
f 690 210 568
f 690 568 566
f 690 566 691
f 690 691 562
f 690 562 561
f 692 691 566
f 692 566 564
f 692 564 563
f 692 424 693
f 692 693 562
f 692 562 691
f 694 120 260
f 694 260 421
f 694 563 485
f 694 485 120
f 695 47 127
f 695 127 433
f 695 433 572
f 695 572 128
f 695 128 47
f 696 440 575
f 696 575 274
f 696 274 435
f 696 435 477
f 696 477 441
f 696 441 440
f 697 138 577
f 697 577 281
f 697 281 275
f 697 275 138
f 698 283 282
f 698 282 19
f 698 19 444
f 698 444 579
f 698 579 283
f 699 577 579
f 699 579 444
f 699 444 280
f 699 280 281
f 699 281 577
f 700 390 283
f 700 283 579
f 700 579 578
f 700 578 580
f 700 580 391
f 700 391 390
f 701 456 302
f 701 302 300
f 701 300 449
f 701 449 597
f 701 597 457
f 701 457 456
f 702 597 596
f 702 596 463
f 702 457 597
f 703 674 590
f 703 590 589
f 703 589 585
f 703 585 584
f 703 584 583
f 703 583 674
f 704 705 151
f 706 460 151
f 706 151 705
f 707 708 288
f 709 710 708
f 709 708 707
f 709 707 711
f 709 711 712
f 713 714 151
f 713 151 288
f 713 288 708
f 713 708 710
f 713 710 714
f 715 399 146
f 716 399 715
f 716 715 717
f 716 717 718
f 716 718 719
f 716 593 250
f 716 250 399
f 720 712 594
f 720 594 719
f 720 710 709
f 720 709 712
f 721 353 638
f 721 638 637
f 721 355 467
f 721 467 598
f 721 598 150
f 721 150 353
f 722 471 600
f 722 600 316
f 722 316 315
f 722 315 156
f 722 156 471
f 723 473 602
f 723 602 474
f 723 474 475
f 723 475 478
f 723 478 131
f 723 131 473
f 724 604 406
f 724 406 609
f 724 609 608
f 724 605 606
f 725 252 405
f 725 405 604
f 725 604 724
f 725 724 606
f 726 64 607
f 726 607 727
f 726 727 671
f 726 671 670
f 726 277 64
f 728 479 676
f 728 676 610
f 728 610 320
f 728 320 611
f 728 611 479
f 729 321 320
f 729 320 610
f 729 610 546
f 730 482 481
f 730 481 613
f 730 613 70
f 730 70 69
f 730 69 226
f 730 226 482
f 731 388 541
f 731 541 387
f 731 387 491
f 731 491 619
f 731 619 618
f 731 618 490
f 732 179 73
f 732 73 489
f 732 489 619
f 732 619 491
f 732 491 620
f 732 620 486
f 732 486 179
f 733 523 520
f 733 622 522
f 733 522 524
f 733 524 523
f 734 524 522
f 734 522 493
f 734 493 624
f 735 350 90
f 735 206 350
f 736 349 205
f 736 205 206
f 736 206 735
f 737 362 364
f 737 626 207
f 737 207 362
f 738 199 503
f 738 503 631
f 738 631 633
f 739 514 654
f 739 654 639
f 739 356 358
f 739 358 514
f 740 208 517
f 740 517 650
f 740 650 645
f 741 356 739
f 741 739 639
f 741 639 645
f 741 645 650
f 742 359 208
f 742 208 740
f 742 740 645
f 742 645 510
f 742 510 360
f 742 360 359
f 743 653 646
f 743 646 654
f 743 654 361
f 743 361 513
f 744 209 647
f 744 647 363
f 744 363 209
f 745 629 656
f 745 656 746
f 745 628 629
f 747 347 528
f 747 528 529
f 747 529 659
f 747 659 658
f 747 658 347
f 748 220 214
f 749 375 537
f 750 268 427
f 750 427 533
f 750 660 417
f 750 417 268
f 751 531 662
f 751 662 263
f 751 263 660
f 752 660 750
f 752 750 533
f 753 534 664
f 753 664 380
f 753 380 379
f 753 379 534
f 754 624 623
f 754 623 380
f 754 380 664
f 754 664 665
f 754 665 746
f 754 746 624
f 755 727 607
f 755 669 671
f 755 671 727
f 756 668 670
f 756 670 669
f 756 669 543
f 756 543 668
f 757 542 390
f 757 390 667
f 757 667 668
f 757 668 672
f 757 672 389
f 757 389 542
f 758 396 759
f 758 711 707
f 758 545 396
f 760 712 711
f 760 711 758
f 760 758 759
f 761 590 674
f 761 674 673
f 761 673 544
f 762 544 675
f 762 675 594
f 762 594 712
f 763 333 538
f 763 538 677
f 764 678 333
f 764 333 763
f 764 763 677
f 764 677 549
f 764 549 550
f 764 550 765
f 764 765 412
f 764 412 678
f 766 679 256
f 766 256 255
f 766 255 410
f 766 410 412
f 766 412 765
f 766 765 550
f 766 550 679
f 767 557 681
f 767 681 547
f 767 547 401
f 767 401 553
f 767 553 557
f 768 684 687
f 768 687 685
f 768 685 680
f 768 680 552
f 768 552 554
f 768 554 684
f 769 688 261
f 769 261 424
f 769 770 559
f 769 559 688
f 771 693 424
f 771 424 423
f 771 423 44
f 771 44 772
f 771 689 562
f 771 562 693
f 773 44 422
f 773 422 689
f 773 689 771
f 773 771 772
f 773 772 44
f 774 424 692
f 774 692 563
f 774 563 770
f 774 770 769
f 774 769 424
f 775 418 559
f 775 559 770
f 775 770 563
f 775 563 694
f 775 694 421
f 775 421 418
f 776 586 451
f 776 451 450
f 776 450 587
f 776 587 702
f 776 702 463
f 776 463 586
f 777 457 702
f 777 702 587
f 777 587 294
f 777 294 148
f 777 148 457
f 778 704 151
f 778 151 714
f 779 545 758
f 779 758 707
f 779 707 288
f 779 288 545
f 780 450 452
f 780 781 292
f 780 292 450
f 782 706 705
f 783 292 781
f 783 717 715
f 783 715 146
f 783 146 292
f 784 594 593
f 784 593 716
f 784 716 719
f 784 719 594
f 785 605 724
f 785 724 608
f 785 608 64
f 785 64 605
f 786 252 725
f 786 725 606
f 786 606 321
f 786 321 729
f 786 729 546
f 786 546 252
f 787 391 580
f 787 580 277
f 787 277 726
f 787 726 392
f 787 392 391
f 788 392 726
f 788 726 670
f 788 670 668
f 788 668 392
f 789 388 731
f 789 731 490
f 789 490 540
f 789 540 388
f 790 659 530
f 790 530 621
f 790 621 622
f 790 622 733
f 790 733 520
f 790 520 525
f 790 525 659
f 791 746 656
f 791 656 524
f 791 524 734
f 791 734 624
f 791 624 746
f 792 498 34
f 792 34 626
f 792 735 90
f 792 90 498
f 793 736 735
f 793 735 792
f 793 792 626
f 794 736 793
f 794 793 626
f 794 626 737
f 794 737 364
f 795 351 199
f 795 199 738
f 796 346 502
f 796 738 633
f 797 352 351
f 797 351 795
f 797 795 738
f 797 738 796
f 797 796 502
f 797 502 499
f 797 499 625
f 797 625 352
f 798 517 516
f 798 649 517
f 799 655 515
f 799 515 800
f 799 800 798
f 799 367 655
f 801 636 644
f 801 644 649
f 801 649 798
f 802 355 721
f 802 721 637
f 802 637 636
f 802 636 801
f 802 801 798
f 802 798 800
f 802 800 515
f 802 515 355
f 803 648 356
f 803 356 741
f 803 741 650
f 803 650 644
f 803 644 648
f 804 653 743
f 804 743 513
f 804 513 652
f 804 652 653
f 805 665 536
f 805 536 535
f 805 535 627
f 805 627 628
f 805 628 745
f 805 745 746
f 805 746 665
f 806 661 531
f 806 748 214
f 806 214 661
f 807 748 808
f 807 808 749
f 807 749 534
f 807 534 220
f 807 220 748
f 809 664 534
f 809 534 749
f 809 749 537
f 809 537 664
f 810 376 375
f 810 375 749
f 810 749 808
f 810 752 533
f 810 533 376
f 811 751 660
f 811 660 752
f 811 752 810
f 811 810 808
f 811 808 748
f 812 609 406
f 812 755 607
f 812 607 609
f 813 249 246
f 813 669 755
f 813 755 812
f 814 761 544
f 814 760 759
f 815 396 397
f 815 397 590
f 815 590 761
f 815 761 814
f 815 814 759
f 815 759 396
f 816 718 717
f 817 452 460
f 817 460 706
f 817 706 782
f 817 781 780
f 817 780 452
f 818 704 778
f 818 778 714
f 818 782 705
f 818 705 704
f 819 736 794
f 819 794 364
f 819 364 652
f 819 652 651
f 819 651 349
f 819 349 736
f 820 632 346
f 820 346 796
f 820 796 633
f 820 633 632
f 821 368 367
f 821 367 799
f 821 799 798
f 821 798 516
f 821 516 368
f 822 748 806
f 822 806 531
f 822 531 751
f 822 751 811
f 822 811 748
f 823 543 669
f 823 669 813
f 823 813 246
f 823 246 543
f 824 249 813
f 824 813 812
f 824 812 406
f 824 406 249
f 825 762 712
f 825 712 760
f 825 760 814
f 825 814 544
f 825 544 762
f 826 710 720
f 826 720 719
f 826 719 718
f 826 718 816
f 826 816 818
f 826 818 714
f 826 714 710
f 827 781 817
f 827 817 782
f 827 782 818
f 827 818 816
f 827 816 717
f 827 717 783
f 827 783 781
