# Normalized convex hull collision mesh - generated by scripts/generate-collision-meshes.mjs (units: meters)
v 0.000000 -0.004000 -0.008000
v -0.004000 -0.000000 -0.008000
v 0.004000 -0.000000 -0.008000
v -0.000000 0.004000 -0.008000
v -0.003900 -0.000890 -0.008000
v -0.002828 0.002828 -0.008000
v -0.003387 -0.002128 -0.008000
v -0.003975 -0.000448 -0.007385
v -0.003900 -0.000890 -0.007385
v -0.004000 -0.000000 -0.007385
v -0.004000 -0.000000 0.004000
v -0.003975 0.000448 0.004000
v -0.001321 0.003776 -0.008000
v -0.003776 0.001321 -0.008000
v 0.002828 0.002828 -0.008000
v 0.000448 -0.003975 -0.007385
v -0.000000 -0.004000 0.004000
v 0.002828 -0.002828 -0.008000
v -0.002128 -0.003387 -0.007385
v -0.002494 -0.003127 0.004000
v -0.002494 -0.003127 -0.007385
v -0.000448 -0.003975 -0.007385
v -0.003776 -0.001321 -0.008000
v -0.003127 -0.002494 0.004000
v -0.003387 -0.002128 0.004000
v -0.003975 -0.000448 -0.008000
v -0.000448 0.003975 -0.007385
v -0.000000 0.004000 -0.007385
v 0.000000 0.004000 0.004000
v -0.003975 0.000448 -0.008000
v 0.003776 0.001321 -0.008000
v 0.003604 0.001736 0.004000
v 0.003776 0.001321 -0.007385
v 0.003975 -0.000448 0.004000
v 0.003927 -0.000706 0.004068
v 0.003900 -0.000890 0.004000
v 0.000890 0.003900 -0.008000
v 0.000890 -0.003900 -0.007385
v 0.001321 -0.003776 -0.007385
v 0.001321 -0.003776 0.004000
v 0.003776 -0.001321 -0.008000
v 0.001321 -0.003776 -0.008000
v 0.000448 -0.003975 0.004000
v 0.000136 -0.000358 0.007977
v 0.000806 -0.003829 0.004192
v 0.001253 -0.003707 0.004192
v -0.000448 -0.003975 -0.008000
v -0.002494 -0.003127 -0.008000
v -0.000890 -0.003900 -0.007385
v -0.003525 -0.001698 0.004192
v -0.000339 -0.000178 0.007977
v -0.003693 -0.001292 0.004192
v -0.003604 -0.001736 0.004000
v -0.003387 0.002128 -0.008000
v -0.003975 -0.000448 0.004000
v -0.002494 0.003127 -0.007385
v -0.002828 0.002828 0.004000
v -0.002128 0.003387 -0.008000
v -0.002128 0.003387 -0.007385
v -0.001736 0.003604 -0.007385
v -0.002128 0.003387 0.004000
v -0.000448 0.003975 -0.008000
v -0.003900 0.000890 -0.008000
v -0.003776 0.001321 0.004000
v 0.003900 0.000890 -0.007385
v 0.003387 0.002128 -0.008000
v 0.003387 0.002128 0.004000
v 0.004000 -0.000000 -0.007385
v 0.003975 0.000448 0.004000
v -0.000890 0.003900 0.004000
v 0.000448 0.003975 0.004000
v 0.002494 0.003127 -0.007385
v 0.002828 0.002828 0.004000
v 0.002128 0.003387 -0.008000
v 0.002128 0.003387 -0.007385
v 0.002494 0.003127 0.004000
v 0.002494 -0.003127 0.004000
v 0.002828 -0.002828 0.004000
v 0.003127 -0.002494 0.004000
v 0.003776 -0.001321 -0.007385
v 0.003604 -0.001736 0.004000
v 0.003975 -0.000448 -0.008000
v 0.000890 -0.003900 -0.008000
v 0.000890 -0.003900 0.004000
v 0.001736 -0.003604 -0.007385
v 0.002128 -0.003387 -0.008000
v 0.002128 -0.003387 -0.007385
v 0.001683 -0.003532 0.004192
v 0.000240 -0.000212 0.008000
v 0.000240 0.000212 0.008000
v -0.000320 0.000000 0.008000
v 0.000354 -0.003974 0.004068
v -0.001736 -0.003604 0.004000
v -0.001736 -0.003604 -0.007385
v -0.001321 -0.003776 -0.007385
v -0.003127 -0.002494 -0.008000
v -0.002828 -0.002828 -0.007385
v -0.001321 -0.003776 -0.008000
v -0.003738 -0.001308 0.004134
v -0.003815 -0.000871 0.004192
v -0.003776 -0.001321 0.004000
v -0.003604 -0.001736 -0.008000
v -0.003595 -0.001731 0.004068
v -0.003766 -0.001318 0.004068
v -0.000113 0.000299 0.008000
v -0.003245 0.002186 0.004192
v -0.003313 0.002082 0.004192
v -0.000339 0.000178 0.007977
v -0.003127 0.002494 0.004000
v -0.003387 0.002128 0.004000
v -0.003604 0.001736 -0.007385
v -0.003861 -0.000881 0.004134
v -0.002494 0.003127 -0.008000
v -0.001736 0.003604 -0.008000
v -0.002494 0.003127 0.004000
v -0.003900 0.000890 0.004000
v 0.003975 0.000448 -0.008000
v 0.003604 0.001736 -0.008000
v 0.003127 0.002494 -0.007385
v -0.000890 0.003900 -0.008000
v -0.001321 0.003776 0.004000
v 0.000000 0.003990 0.004068
v 0.000448 0.003975 -0.008000
v 0.002494 0.003127 -0.008000
v 0.002488 -0.003119 0.004068
v 0.002128 -0.003387 0.004000
v 0.003900 -0.000890 -0.008000
v 0.000448 -0.003975 -0.008000
v 0.002494 -0.003127 -0.008000
v 0.001736 -0.003604 -0.008000
v 0.000217 0.000315 0.007977
v 0.002465 0.003038 0.004192
v 0.002089 0.003309 0.004192
v 0.001698 0.003525 0.004192
v 0.003436 0.002029 0.004068
v 0.003171 0.002421 0.004068
v 0.000339 0.000178 0.007977
v 0.003525 0.001698 0.004192
v 0.003369 0.001990 0.004192
v 0.003110 0.002374 0.004192
v 0.003776 -0.001321 0.004000
v 0.003890 -0.000888 0.004068
v 0.001268 -0.003752 0.004134
v 0.000816 -0.003875 0.004134
v 0.000286 -0.000254 0.007977
v 0.002440 -0.003059 0.004192
v 0.002767 -0.002767 0.004192
v 0.003313 -0.002082 0.004192
v 0.000339 -0.000178 0.007977
v -0.000117 -0.003959 0.004134
v 0.000000 -0.003960 0.004134
v 0.000000 -0.003913 0.004192
v -0.000118 -0.003988 0.004068
v 0.000352 -0.003945 0.004134
v 0.000822 -0.003904 0.004068
v -0.000890 -0.003900 0.004000
v -0.002828 -0.002828 -0.008000
v -0.000890 -0.003900 -0.008000
v -0.002128 -0.003387 -0.008000
v -0.003568 -0.001718 0.004134
v -0.002828 -0.002828 0.004000
v -0.002693 -0.002944 0.004068
v -0.002821 -0.002821 0.004068
v -0.000283 0.000149 0.008000
v -0.003668 0.001362 0.004192
v -0.003713 0.001379 0.004134
v -0.003850 0.000930 0.004134
v -0.003803 0.000919 0.004192
v -0.003022 0.002605 0.004068
v -0.003119 0.002488 0.004068
v -0.003127 0.002494 -0.008000
v -0.003000 0.002585 0.004134
v -0.003096 0.002469 0.004134
v -0.003059 0.002440 0.004192
v -0.003604 0.001736 -0.008000
v -0.003965 -0.000447 0.004068
v -0.003935 -0.000443 0.004134
v -0.003900 -0.000890 0.004000
v -0.003890 -0.000888 0.004068
v -0.000371 -0.000092 0.007977
v -0.000371 0.000092 0.007977
v -0.000328 0.000081 0.007998
v -0.000299 0.000157 0.007998
v 0.003900 0.000890 -0.008000
v 0.003127 0.002494 -0.008000
v 0.003127 0.002494 0.004000
v -0.001736 0.003604 0.004000
v -0.001052 0.003849 0.004068
v 0.001736 0.003604 -0.008000
v 0.001308 0.003738 0.004134
v 0.001292 0.003693 0.004192
v 0.001718 0.003568 0.004134
v 0.000881 0.003861 0.004134
v 0.000871 0.003815 0.004192
v 0.000890 0.003900 0.004000
v 0.001321 0.003776 0.004000
v 0.000447 0.003965 0.004068
v 0.001736 -0.003604 0.004000
v 0.003387 -0.002128 -0.008000
v 0.000136 0.000358 0.007977
v 0.000046 0.000380 0.007977
v 0.003148 0.002403 0.004134
v 0.002842 0.002759 0.004134
v 0.002807 0.002725 0.004192
v 0.000286 0.000254 0.007977
v 0.003935 -0.000443 0.004134
v 0.003898 -0.000701 0.004134
v 0.004000 -0.000000 0.004000
v 0.003990 0.000000 0.004068
v 0.003983 -0.000236 0.004068
v 0.003906 0.000232 0.004192
v 0.000383 -0.000000 0.007977
v 0.003913 0.000000 0.004192
v 0.003816 -0.001165 0.004068
v 0.003766 -0.001318 0.004068
v 0.003738 -0.001308 0.004134
v 0.002800 -0.002800 0.004134
v -0.000113 -0.000299 0.008000
v 0.000283 0.000149 0.008000
v 0.000328 0.000172 0.007987
v 0.000311 0.000077 0.008000
v 0.003059 -0.002440 0.004192
v 0.002469 -0.003096 0.004134
v 0.002082 -0.003313 0.004192
v 0.000000 -0.003990 0.004068
v 0.000347 -0.003897 0.004192
v -0.000136 -0.000358 0.007977
v -0.001889 -0.003427 0.004192
v -0.001698 -0.003525 0.004192
v -0.000448 -0.003975 0.004000
v -0.001736 -0.003604 -0.008000
v -0.002800 -0.002800 0.004134
v -0.003378 -0.002123 0.004068
v -0.002488 -0.003119 0.004068
v -0.002128 -0.003387 0.004000
v 0.000113 0.000299 0.008000
v -0.002326 0.003242 0.004068
v -0.000210 0.000304 0.007987
v -0.000131 0.000346 0.007987
v -0.000217 0.000315 0.007977
v -0.000328 0.000172 0.007987
v -0.000240 0.000212 0.008000
v -0.003990 -0.000000 0.004068
v -0.003878 0.000937 0.004068
v -0.003933 0.000468 0.004134
v -0.003481 0.001787 0.004192
v -0.003285 0.002212 0.004134
v -0.003604 0.001736 0.004000
v -0.003550 0.001822 0.004068
v -0.003740 0.001389 0.004068
v -0.000286 0.000254 0.007977
v -0.002641 0.002887 0.004192
v -0.000311 0.000077 0.008000
v 0.002863 0.002779 0.004068
v -0.001318 0.003766 0.004068
v 0.001321 0.003776 -0.008000
v 0.002128 0.003387 0.004000
v 0.002130 0.003374 0.004068
v 0.002495 0.003075 0.004134
v 0.002114 0.003349 0.004134
v -0.000117 0.003959 0.004134
v -0.000116 0.003911 0.004192
v 0.000000 0.003913 0.004192
v 0.000000 0.003960 0.004134
v -0.000438 0.003888 0.004192
v -0.000443 0.003935 0.004134
v -0.000578 0.003870 0.004192
v -0.000888 0.003890 0.004068
v -0.000881 0.003861 0.004134
v -0.000448 0.003975 0.004000
v 0.000438 0.003888 0.004192
v 0.000443 0.003935 0.004134
v 0.000888 0.003890 0.004068
v 0.001318 0.003766 0.004068
v 0.002123 -0.003378 0.004068
v 0.001278 -0.003780 0.004068
v 0.003127 -0.002494 -0.008000
v 0.003387 -0.002128 0.004000
v 0.003604 -0.001736 -0.008000
v 0.003581 0.001577 0.004192
v 0.003624 0.001597 0.004134
v 0.003693 0.001292 0.004192
v 0.003595 0.001731 0.004068
v 0.003651 0.001608 0.004068
v 0.003410 0.002014 0.004134
v 0.000277 0.000245 0.007987
v 0.003983 0.000236 0.004068
v 0.003953 -0.000235 0.004134
v 0.003965 -0.000447 0.004068
v 0.003953 0.000235 0.004134
v 0.003935 0.000443 0.004134
v 0.000371 0.000092 0.007977
v 0.000359 0.000089 0.007987
v 0.003851 0.000692 0.004192
v 0.003815 0.000871 0.004192
v 0.003888 0.000438 0.004192
v 0.003900 0.000890 0.004000
v 0.003738 0.001308 0.004134
v 0.003898 0.000701 0.004134
v 0.003595 -0.001731 0.004068
v 0.003378 -0.002123 0.004068
v 0.003581 -0.001577 0.004192
v 0.003693 -0.001292 0.004192
v 0.002821 -0.002821 0.004068
v -0.000283 -0.000149 0.008000
v 0.000113 -0.000299 0.008000
v 0.000299 -0.000157 0.007998
v 0.000266 -0.000235 0.007994
v 0.000314 -0.000165 0.007994
v 0.000371 -0.000092 0.007977
v 0.003888 -0.000438 0.004192
v 0.000359 -0.000089 0.007987
v 0.000328 -0.000172 0.007987
v 0.000277 -0.000245 0.007987
v 0.003096 -0.002469 0.004134
v 0.000192 -0.000278 0.007998
v 0.000120 -0.000316 0.007998
v -0.000881 -0.003861 0.004134
v -0.000585 -0.003917 0.004134
v -0.000578 -0.003870 0.004192
v -0.000046 -0.000380 0.007977
v -0.000438 -0.003888 0.004192
v 0.000046 -0.000380 0.007977
v -0.003000 -0.002585 0.004134
v -0.003096 -0.002469 0.004134
v -0.003119 -0.002488 0.004068
v -0.002767 -0.002767 0.004192
v -0.003059 -0.002440 0.004192
v -0.003245 -0.002186 0.004192
v -0.000286 -0.000254 0.007977
v -0.002107 -0.003353 0.004134
v -0.002082 -0.003313 0.004192
v -0.002309 -0.003218 0.004134
v -0.002281 -0.003179 0.004192
v -0.000116 -0.003911 0.004192
v -0.000447 -0.003965 0.004068
v -0.001321 -0.003776 0.004000
v -0.001500 -0.003697 0.004068
v -0.003313 -0.002082 0.004192
v -0.003022 -0.002605 0.004068
v -0.003309 -0.002229 0.004068
v -0.002469 -0.003096 0.004134
v -0.002440 -0.003059 0.004192
v -0.002326 -0.003242 0.004068
v -0.002123 -0.003378 0.004068
v 0.000039 0.000318 0.008000
v 0.000041 0.000335 0.007998
v -0.002693 0.002944 0.004068
v -0.000201 0.000292 0.007994
v -0.000266 0.000235 0.007994
v -0.000192 0.000278 0.007998
v -0.000314 0.000165 0.007994
v -0.000871 0.003815 0.004192
v -0.001031 0.003774 0.004192
v -0.000136 0.000358 0.007977
v -0.001292 0.003693 0.004192
v -0.001471 0.003626 0.004192
v -0.001889 0.003427 0.004192
v -0.000041 0.000335 0.007998
v -0.000043 0.000352 0.007994
v 0.000045 0.000367 0.007987
v -0.000045 0.000367 0.007987
v -0.000182 0.000263 0.008000
v -0.000253 0.000224 0.007998
v -0.003960 -0.000000 0.004134
v -0.003913 -0.000000 0.004192
v -0.003962 0.000472 0.004068
v -0.003309 0.002229 0.004068
v -0.003523 0.001808 0.004134
v -0.000277 0.000245 0.007987
v -0.002767 0.002767 0.004192
v -0.003885 0.000463 0.004192
v -0.000383 -0.000000 0.007977
v -0.003888 -0.000438 0.004192
v -0.001500 0.003697 0.004068
v -0.001044 0.003820 0.004134
v 0.001736 0.003604 0.004000
v 0.002514 0.003098 0.004068
v -0.000118 0.003988 0.004068
v -0.000585 0.003917 0.004134
v -0.000589 0.003946 0.004068
v 0.001703 -0.003575 0.004134
v 0.003568 0.001718 0.004134
v 0.000253 0.000224 0.007998
v 0.000299 0.000157 0.007998
v 0.000210 0.000304 0.007987
v 0.003965 0.000447 0.004068
v 0.003906 -0.000232 0.004192
v 0.003960 0.000000 0.004134
v 0.003927 0.000706 0.004068
v 0.003890 0.000888 0.004068
v 0.003776 0.001321 0.004000
v 0.003651 -0.001608 0.004068
v 0.003525 -0.001698 0.004192
v 0.003568 -0.001718 0.004134
v 0.003624 -0.001597 0.004134
v 0.003119 -0.002488 0.004068
v -0.000359 -0.000089 0.007987
v -0.000370 -0.000000 0.007987
v -0.000328 -0.000081 0.007998
v -0.000344 -0.000085 0.007994
v -0.000299 -0.000157 0.007998
v -0.000240 -0.000212 0.008000
v -0.000039 -0.000318 0.008000
v 0.000283 -0.000149 0.008000
v 0.000344 -0.000085 0.007994
v 0.000355 -0.000000 0.007994
v 0.000338 -0.000000 0.007998
v 0.000370 -0.000000 0.007987
v 0.003353 -0.002107 0.004134
v 0.000210 -0.000304 0.007987
v 0.000253 -0.000224 0.007998
v 0.000182 -0.000263 0.008000
v -0.000131 -0.000346 0.007987
v -0.000126 -0.000332 0.007994
v -0.000201 -0.000292 0.007994
v -0.000871 -0.003815 0.004192
v 0.000131 -0.000346 0.007987
v -0.002964 -0.002554 0.004192
v -0.002641 -0.002887 0.004192
v -0.000328 -0.000172 0.007987
v -0.000192 -0.000278 0.007998
v -0.000120 -0.000316 0.007998
v -0.000217 -0.000315 0.007977
v -0.000443 -0.003935 0.004134
v -0.000589 -0.003946 0.004068
v -0.001926 -0.003494 0.004068
v -0.001912 -0.003468 0.004134
v -0.001718 -0.003568 0.004134
v -0.003353 -0.002107 0.004134
v -0.002821 0.002821 0.004068
v -0.002082 0.003313 0.004192
v -0.002281 0.003179 0.004192
v -0.000126 0.000332 0.007994
v -0.000359 0.000089 0.007987
v -0.000046 0.000380 0.007977
v -0.000039 0.000318 0.008000
v 0.000043 0.000352 0.007994
v 0.000126 0.000332 0.007994
v -0.003378 0.002123 0.004068
v -0.002964 0.002554 0.004192
v -0.001698 0.003525 0.004192
v -0.001926 0.003494 0.004068
v -0.001488 0.003670 0.004134
v -0.001718 0.003568 0.004134
v 0.001731 0.003595 0.004068
v -0.000447 0.003965 0.004068
v 0.002107 -0.003353 0.004134
v 0.001716 -0.003602 0.004068
v 0.000344 0.000085 0.007994
v 0.000314 0.000165 0.007994
v 0.000266 0.000235 0.007994
v 0.000120 0.000316 0.007998
v 0.000131 0.000346 0.007987
v 0.003766 0.001318 0.004068
v 0.003742 0.001143 0.004192
v 0.003788 0.001157 0.004134
v 0.003861 0.000881 0.004134
v -0.000338 -0.000000 0.007998
v -0.000311 -0.000077 0.008000
v 0.000041 -0.000335 0.007998
v 0.003861 -0.000881 0.004134
v 0.003742 -0.001143 0.004192
v 0.003815 -0.000871 0.004192
v 0.003851 -0.000692 0.004192
v 0.000320 0.000000 0.008000
v 0.000328 -0.000081 0.007998
v 0.000201 -0.000292 0.007994
v 0.000217 -0.000315 0.007977
v -0.001488 -0.003670 0.004134
v -0.001308 -0.003738 0.004134
v -0.001318 -0.003766 0.004068
v -0.001031 -0.003774 0.004192
v -0.001292 -0.003693 0.004192
v -0.002673 -0.002922 0.004134
v -0.000266 -0.000235 0.007994
v -0.000182 -0.000263 0.008000
v -0.000210 -0.000304 0.007987
v -0.001731 -0.003595 0.004068
v -0.003285 -0.002212 0.004134
v -0.002673 0.002922 0.004134
v -0.002800 0.002800 0.004134
v -0.002440 0.003059 0.004192
v -0.002469 0.003096 0.004134
v -0.002309 0.003218 0.004134
v -0.002107 0.003353 0.004134
v -0.002488 0.003119 0.004068
v -0.000120 0.000316 0.007998
v -0.003353 0.002107 0.004134
v -0.002123 0.003378 0.004068
v -0.001912 0.003468 0.004134
v -0.001731 0.003595 0.004068
v -0.001308 0.003738 0.004134
v 0.000328 0.000081 0.007998
v 0.000201 0.000292 0.007994
v 0.000182 0.000263 0.008000
v 0.003816 0.001165 0.004068
v -0.000344 0.000085 0.007994
v -0.000041 -0.000335 0.007998
v 0.000039 -0.000318 0.008000
v 0.000126 -0.000332 0.007994
v 0.003788 -0.001157 0.004134
v 0.000311 -0.000077 0.008000
v -0.001471 -0.003626 0.004192
v -0.001052 -0.003849 0.004068
v -0.000253 -0.000224 0.007998
v -0.000314 -0.000165 0.007994
v -0.000277 -0.000245 0.007987
v 0.000192 0.000278 0.007998
v -0.000355 -0.000000 0.007994
v -0.000045 -0.000367 0.007987
v -0.000888 -0.003890 0.004068
v -0.001044 -0.003820 0.004134
v 0.000045 -0.000367 0.007987
v -0.000043 -0.000352 0.007994
v 0.000043 -0.000352 0.007994
f 1 2 3
f 4 3 2
f 5 2 1
f 6 4 2
f 7 5 1
f 8 5 9
f 8 10 2
f 11 10 8
f 12 10 11
f 12 2 10
f 13 4 6
f 14 6 2
f 15 3 4
f 16 17 1
f 18 1 3
f 19 20 21
f 22 1 17
f 23 5 7
f 23 9 5
f 24 25 7
f 26 5 8
f 26 8 2
f 26 2 5
f 27 28 4
f 27 29 28
f 30 14 2
f 30 2 12
f 31 3 15
f 32 33 31
f 34 35 36
f 37 15 4
f 38 39 40
f 41 18 3
f 42 1 18
f 42 39 38
f 43 16 38
f 43 17 16
f 44 45 46
f 47 1 22
f 47 7 1
f 48 7 47
f 48 19 21
f 49 47 22
f 50 51 52
f 53 7 25
f 54 6 14
f 55 8 9
f 55 11 8
f 56 6 57
f 58 56 59
f 58 59 60
f 58 13 6
f 61 60 59
f 61 59 56
f 62 27 4
f 62 4 13
f 63 14 30
f 63 30 12
f 63 64 14
f 65 31 33
f 66 67 32
f 66 31 15
f 68 34 3
f 68 3 69
f 70 27 62
f 71 28 29
f 71 4 28
f 72 73 15
f 74 75 72
f 74 15 37
f 76 73 72
f 76 72 75
f 77 18 78
f 79 78 18
f 80 81 41
f 80 41 36
f 82 34 36
f 82 41 3
f 82 3 34
f 83 1 42
f 83 42 38
f 83 38 16
f 84 43 38
f 84 38 40
f 85 39 42
f 85 40 39
f 86 77 87
f 86 87 85
f 86 42 18
f 88 44 46
f 89 90 91
f 92 17 43
f 93 19 94
f 93 94 95
f 96 7 48
f 96 24 7
f 97 24 96
f 97 48 21
f 97 21 20
f 98 95 94
f 98 48 47
f 98 49 95
f 99 50 52
f 99 52 100
f 101 23 53
f 101 9 23
f 102 7 53
f 102 53 23
f 102 23 7
f 103 99 104
f 103 104 101
f 103 101 53
f 103 53 25
f 105 91 90
f 106 107 108
f 109 54 110
f 109 57 6
f 111 110 54
f 111 14 64
f 112 99 100
f 113 56 58
f 113 58 6
f 113 6 56
f 114 13 58
f 114 58 60
f 114 60 13
f 115 61 56
f 115 56 57
f 116 64 63
f 116 63 12
f 117 3 31
f 117 65 69
f 117 69 3
f 118 31 66
f 118 66 32
f 118 32 31
f 119 15 73
f 119 67 66
f 120 13 70
f 120 70 62
f 120 62 13
f 121 70 13
f 121 13 60
f 122 71 29
f 123 4 71
f 123 71 37
f 123 37 4
f 124 15 74
f 124 74 72
f 124 72 15
f 125 77 78
f 126 87 77
f 126 77 125
f 126 85 87
f 127 41 82
f 127 82 36
f 127 36 41
f 128 1 83
f 128 83 16
f 128 16 1
f 129 77 86
f 129 86 18
f 129 18 77
f 130 42 86
f 130 86 85
f 130 85 42
f 131 132 133
f 131 133 134
f 135 67 136
f 135 32 67
f 137 138 139
f 137 139 140
f 141 80 36
f 141 81 80
f 142 36 35
f 143 88 46
f 143 46 45
f 143 45 144
f 145 146 147
f 145 148 149
f 150 151 152
f 153 151 150
f 154 92 144
f 154 152 151
f 155 144 92
f 155 92 43
f 155 43 84
f 156 49 22
f 156 95 49
f 157 48 97
f 157 97 96
f 157 96 48
f 158 49 98
f 158 98 47
f 158 47 49
f 159 19 48
f 159 48 98
f 159 94 19
f 160 99 103
f 160 50 99
f 161 97 20
f 161 24 97
f 162 163 161
f 162 161 20
f 164 91 105
f 165 166 167
f 165 167 168
f 169 57 109
f 169 109 170
f 171 54 109
f 171 109 6
f 171 6 54
f 172 169 170
f 172 170 173
f 174 172 173
f 174 173 106
f 175 14 111
f 175 111 54
f 175 54 14
f 176 112 177
f 178 55 9
f 178 9 101
f 179 99 112
f 179 112 176
f 179 176 55
f 179 55 178
f 179 178 101
f 179 101 104
f 179 104 99
f 180 100 52
f 180 52 51
f 181 108 165
f 181 165 168
f 182 164 183
f 184 65 117
f 184 117 31
f 184 31 65
f 185 15 119
f 185 119 66
f 185 66 15
f 186 136 67
f 186 67 119
f 186 119 73
f 187 121 60
f 187 60 61
f 188 70 121
f 189 74 37
f 189 75 74
f 190 191 134
f 190 134 192
f 190 193 194
f 190 194 191
f 195 196 37
f 195 37 71
f 197 71 122
f 198 40 85
f 198 85 126
f 199 18 41
f 200 191 194
f 200 194 201
f 200 131 134
f 200 134 191
f 202 140 139
f 202 135 136
f 202 203 204
f 202 204 140
f 205 204 132
f 205 132 131
f 205 137 140
f 205 140 204
f 206 207 35
f 208 68 69
f 208 209 210
f 208 210 34
f 208 34 68
f 211 212 213
f 214 215 141
f 214 141 36
f 214 36 142
f 214 216 215
f 217 147 146
f 218 89 91
f 219 90 89
f 220 137 205
f 221 219 89
f 222 148 145
f 222 145 147
f 222 147 217
f 223 125 217
f 223 217 146
f 223 146 224
f 225 92 154
f 225 154 151
f 225 151 153
f 225 153 17
f 225 17 92
f 226 152 154
f 226 154 144
f 226 144 45
f 227 228 229
f 230 156 22
f 230 22 17
f 230 17 153
f 231 94 159
f 231 159 98
f 231 98 94
f 232 163 162
f 233 103 25
f 234 162 20
f 235 19 93
f 235 20 19
f 236 105 90
f 237 61 115
f 238 239 240
f 241 108 181
f 242 164 105
f 243 11 55
f 243 55 176
f 243 176 177
f 243 12 11
f 244 245 167
f 244 64 116
f 246 108 107
f 246 165 108
f 247 173 170
f 247 107 106
f 247 106 173
f 248 111 64
f 248 249 110
f 248 110 111
f 250 166 249
f 250 249 248
f 250 248 64
f 250 64 244
f 250 244 167
f 250 167 166
f 251 240 252
f 251 174 106
f 251 106 108
f 251 108 241
f 251 238 240
f 253 164 182
f 253 182 91
f 253 91 164
f 254 203 202
f 254 202 136
f 254 136 186
f 254 186 73
f 255 188 121
f 256 196 189
f 256 189 37
f 256 37 196
f 257 75 189
f 257 258 76
f 257 76 75
f 259 132 204
f 259 204 203
f 259 203 254
f 260 133 132
f 260 132 259
f 260 192 134
f 260 134 133
f 261 262 263
f 261 263 264
f 265 262 261
f 265 261 266
f 265 266 267
f 268 70 188
f 268 188 269
f 270 29 27
f 270 27 70
f 271 194 193
f 271 263 201
f 271 201 194
f 272 264 263
f 272 263 271
f 272 271 193
f 272 193 197
f 272 197 122
f 272 122 264
f 273 195 71
f 273 71 197
f 273 197 193
f 273 193 190
f 273 190 274
f 273 274 196
f 273 196 195
f 275 198 126
f 275 126 125
f 276 143 144
f 276 144 155
f 276 155 84
f 276 84 40
f 277 18 199
f 277 199 79
f 277 79 18
f 278 79 199
f 278 199 81
f 279 81 199
f 279 199 41
f 279 41 81
f 280 281 138
f 280 138 137
f 280 137 282
f 283 281 284
f 283 284 32
f 283 32 135
f 285 135 202
f 285 202 139
f 286 220 205
f 287 209 208
f 287 208 69
f 288 210 209
f 289 210 288
f 289 288 206
f 289 206 35
f 289 35 34
f 289 34 210
f 290 209 287
f 290 291 211
f 290 211 213
f 292 293 212
f 292 294 295
f 292 282 137
f 292 137 220
f 292 220 293
f 296 291 294
f 296 294 292
f 296 292 212
f 296 212 211
f 296 211 291
f 297 65 33
f 297 69 65
f 298 281 280
f 298 280 282
f 298 284 281
f 299 294 291
f 300 301 278
f 300 278 81
f 302 216 303
f 302 303 149
f 304 217 125
f 304 125 78
f 305 218 91
f 306 89 218
f 307 308 309
f 310 311 212
f 310 212 312
f 310 149 303
f 313 149 310
f 313 310 312
f 313 309 308
f 313 308 314
f 313 314 145
f 313 145 149
f 315 148 222
f 315 222 217
f 316 306 317
f 318 319 320
f 321 320 322
f 323 321 152
f 323 152 226
f 323 226 45
f 323 45 44
f 324 325 326
f 324 232 327
f 328 325 324
f 328 329 325
f 330 51 329
f 330 329 328
f 331 332 333
f 334 333 332
f 335 152 321
f 335 321 322
f 335 322 150
f 335 150 152
f 336 230 153
f 337 95 156
f 337 338 93
f 337 93 95
f 339 50 160
f 339 329 51
f 339 51 50
f 340 161 163
f 340 163 232
f 340 232 324
f 340 324 326
f 340 326 24
f 340 24 161
f 341 233 25
f 341 25 24
f 341 24 326
f 342 234 333
f 342 333 334
f 342 334 343
f 344 234 20
f 344 20 235
f 344 235 345
f 344 345 331
f 344 331 333
f 344 333 234
f 346 105 236
f 346 236 347
f 348 115 57
f 349 239 238
f 349 350 351
f 352 350 241
f 352 183 350
f 353 267 269
f 353 269 354
f 355 353 354
f 355 354 356
f 355 356 357
f 355 358 240
f 355 240 239
f 359 346 347
f 359 347 360
f 361 201 362
f 361 362 360
f 363 351 242
f 363 242 105
f 363 105 351
f 364 350 183
f 364 183 164
f 364 164 242
f 364 242 351
f 364 351 350
f 365 366 245
f 365 245 243
f 365 243 177
f 365 177 366
f 367 12 243
f 367 243 245
f 367 245 244
f 367 244 116
f 367 116 12
f 368 247 170
f 368 170 109
f 368 109 110
f 369 246 107
f 369 249 166
f 369 166 165
f 369 165 246
f 370 350 349
f 370 349 238
f 370 238 251
f 370 251 241
f 370 241 350
f 371 251 252
f 372 245 366
f 372 366 373
f 372 373 181
f 372 181 168
f 372 168 167
f 372 167 245
f 374 177 112
f 374 112 100
f 374 100 180
f 374 180 373
f 374 373 366
f 374 366 177
f 375 255 121
f 375 121 187
f 376 269 188
f 376 354 269
f 377 257 189
f 377 189 196
f 378 76 258
f 378 258 260
f 378 260 259
f 378 259 254
f 378 254 73
f 378 73 76
f 379 122 29
f 379 29 270
f 379 266 261
f 379 261 264
f 379 264 122
f 380 269 267
f 380 267 266
f 381 268 269
f 381 269 380
f 381 380 266
f 381 270 70
f 381 70 268
f 382 88 143
f 382 224 88
f 383 138 281
f 383 281 283
f 383 283 135
f 383 135 285
f 383 285 139
f 383 139 138
f 384 90 219
f 384 219 385
f 386 286 205
f 386 205 131
f 387 291 290
f 387 290 287
f 387 287 69
f 388 311 206
f 388 206 288
f 388 288 213
f 388 213 212
f 388 212 311
f 389 288 209
f 389 209 290
f 389 290 213
f 389 213 288
f 390 69 297
f 390 297 391
f 390 299 291
f 390 291 387
f 390 387 69
f 392 297 33
f 392 33 32
f 392 32 284
f 393 141 215
f 393 215 216
f 393 300 81
f 393 81 141
f 394 302 149
f 394 149 148
f 394 148 395
f 396 216 302
f 396 302 394
f 396 394 395
f 396 395 300
f 396 300 393
f 396 393 216
f 397 79 278
f 397 278 301
f 397 315 217
f 397 217 304
f 397 304 78
f 397 78 79
f 398 399 373
f 398 373 180
f 400 401 402
f 400 402 305
f 403 218 305
f 404 306 218
f 405 221 89
f 406 309 313
f 406 313 312
f 406 312 407
f 406 407 408
f 406 307 309
f 409 212 293
f 409 293 407
f 409 407 312
f 409 312 212
f 410 148 315
f 410 315 397
f 410 397 301
f 410 301 300
f 410 300 395
f 410 395 148
f 411 145 314
f 412 89 316
f 412 316 308
f 412 308 307
f 412 307 405
f 412 405 89
f 413 306 316
f 413 316 89
f 413 89 306
f 414 227 321
f 414 415 416
f 417 318 320
f 417 320 321
f 417 321 227
f 418 323 44
f 419 327 330
f 419 330 328
f 419 328 324
f 419 324 327
f 420 330 327
f 421 51 330
f 421 401 398
f 421 398 180
f 421 180 51
f 422 423 218
f 422 416 415
f 422 415 423
f 424 330 420
f 424 420 343
f 424 343 334
f 424 334 332
f 424 332 228
f 424 228 227
f 424 227 414
f 425 150 322
f 425 322 320
f 425 320 319
f 425 336 153
f 425 153 150
f 426 156 230
f 426 230 336
f 426 336 425
f 426 425 319
f 426 319 318
f 427 345 235
f 427 235 93
f 428 228 332
f 428 332 331
f 428 331 345
f 428 345 427
f 428 429 229
f 428 229 228
f 430 233 341
f 430 339 160
f 430 160 103
f 430 103 233
f 431 348 57
f 431 57 169
f 432 240 358
f 432 433 240
f 434 360 362
f 434 362 239
f 434 239 349
f 434 349 351
f 434 359 360
f 435 181 373
f 435 373 399
f 435 241 181
f 436 355 239
f 436 239 362
f 436 362 201
f 436 201 263
f 436 263 262
f 436 262 265
f 436 265 267
f 436 267 353
f 436 353 355
f 437 346 359
f 437 359 105
f 437 105 346
f 438 347 439
f 438 439 361
f 438 361 360
f 438 360 347
f 440 368 110
f 440 110 249
f 441 174 251
f 441 251 371
f 441 371 172
f 441 172 174
f 442 355 357
f 442 358 355
f 443 187 61
f 444 445 442
f 444 442 357
f 446 274 190
f 446 190 192
f 446 192 260
f 446 260 258
f 446 258 257
f 446 257 377
f 446 377 196
f 446 196 274
f 447 379 270
f 447 270 381
f 447 381 266
f 447 266 379
f 448 224 382
f 448 275 125
f 448 125 223
f 448 223 224
f 449 276 40
f 449 40 198
f 449 198 275
f 449 275 448
f 449 448 382
f 449 382 143
f 449 143 276
f 450 407 293
f 450 293 220
f 450 220 451
f 450 451 385
f 450 408 407
f 452 451 220
f 452 220 286
f 452 384 385
f 452 385 451
f 453 439 347
f 453 347 236
f 454 200 201
f 454 201 361
f 454 361 439
f 454 386 131
f 454 131 200
f 455 392 284
f 455 284 298
f 456 282 292
f 456 292 295
f 456 457 298
f 456 298 282
f 458 299 390
f 458 390 391
f 458 391 457
f 458 457 456
f 458 456 295
f 458 295 294
f 458 294 299
f 459 401 400
f 459 400 91
f 459 91 182
f 460 91 400
f 460 400 305
f 460 305 91
f 461 317 306
f 462 142 35
f 462 35 207
f 463 303 216
f 463 462 464
f 463 464 310
f 463 310 303
f 465 311 310
f 465 310 464
f 465 464 462
f 465 462 207
f 465 207 206
f 465 206 311
f 466 221 405
f 467 307 406
f 467 406 408
f 467 408 466
f 467 405 307
f 468 308 316
f 468 418 411
f 468 411 314
f 468 314 308
f 469 44 88
f 469 88 224
f 469 224 146
f 469 146 145
f 469 145 411
f 469 411 418
f 469 418 44
f 470 229 429
f 470 338 471
f 472 471 338
f 472 338 337
f 473 474 471
f 473 318 417
f 473 417 227
f 473 227 474
f 475 232 162
f 475 162 234
f 475 234 342
f 475 342 343
f 475 343 420
f 475 420 327
f 475 327 232
f 476 416 422
f 477 403 422
f 477 422 218
f 477 218 403
f 478 330 424
f 478 424 414
f 478 414 416
f 479 338 470
f 479 470 429
f 479 429 428
f 479 428 427
f 479 427 93
f 479 93 338
f 480 325 329
f 480 329 339
f 480 339 430
f 480 430 341
f 480 341 326
f 480 326 325
f 481 371 252
f 482 172 371
f 482 371 481
f 482 481 348
f 482 348 431
f 482 431 169
f 482 169 172
f 483 240 433
f 483 433 484
f 483 484 481
f 483 481 252
f 483 252 240
f 485 486 237
f 485 484 433
f 485 433 432
f 485 432 486
f 487 348 481
f 487 481 484
f 487 484 485
f 487 485 237
f 487 237 115
f 487 115 348
f 488 105 359
f 488 359 434
f 488 434 351
f 488 351 105
f 489 369 107
f 489 107 247
f 489 247 368
f 489 368 440
f 489 440 249
f 489 249 369
f 490 237 486
f 490 443 61
f 490 61 237
f 491 443 490
f 491 490 486
f 491 486 432
f 491 432 358
f 491 358 442
f 491 442 445
f 492 375 187
f 492 187 443
f 492 443 491
f 492 491 445
f 492 445 444
f 492 444 375
f 493 356 354
f 493 354 376
f 493 376 188
f 493 188 255
f 493 255 375
f 493 375 444
f 493 444 357
f 493 357 356
f 494 221 466
f 494 466 408
f 494 408 450
f 494 450 385
f 494 385 219
f 494 219 221
f 495 386 454
f 495 454 439
f 495 452 286
f 495 286 386
f 496 236 90
f 497 457 391
f 497 391 297
f 497 297 392
f 497 392 455
f 497 455 298
f 497 298 457
f 498 459 182
f 498 182 183
f 498 183 352
f 498 352 241
f 498 241 435
f 499 423 415
f 499 461 404
f 499 404 218
f 499 218 423
f 500 404 461
f 500 461 306
f 500 306 404
f 501 418 468
f 501 468 316
f 501 316 317
f 501 317 461
f 502 462 463
f 502 463 216
f 502 216 214
f 502 214 142
f 502 142 462
f 503 405 467
f 503 467 466
f 503 466 405
f 504 474 227
f 504 227 229
f 504 229 470
f 504 470 471
f 504 471 474
f 505 471 472
f 505 472 337
f 505 337 156
f 506 403 305
f 506 305 402
f 506 402 476
f 506 476 422
f 506 422 403
f 507 421 476
f 507 476 402
f 507 402 401
f 507 401 421
f 508 330 478
f 508 478 416
f 508 416 476
f 508 476 421
f 508 421 330
f 509 453 236
f 509 236 496
f 509 496 90
f 509 90 384
f 509 384 452
f 509 452 495
f 509 495 439
f 509 439 453
f 510 399 398
f 510 398 401
f 510 401 459
f 510 459 498
f 510 498 435
f 510 435 399
f 511 321 323
f 511 415 414
f 511 414 321
f 512 426 318
f 512 318 505
f 512 505 156
f 512 156 426
f 513 471 505
f 513 505 318
f 513 318 473
f 513 473 471
f 514 511 323
f 514 323 418
f 514 418 501
f 515 511 514
f 515 461 499
f 515 499 415
f 515 415 511
f 516 461 515
f 516 515 514
f 516 514 501
f 516 501 461
