# Normalized convex hull collision mesh - generated by scripts/generate-collision-meshes.mjs (units: meters)
v 0.000524 -0.004000 -0.047500
v 0.000524 0.004000 -0.047500
v 0.012905 -0.004000 -0.047500
v 0.000524 -0.006866 -0.046270
v -0.025000 0.001330 -0.010383
v -0.025000 -0.004445 -0.006415
v -0.025000 -0.002485 0.009564
v 0.000524 -0.024313 0.011205
v 0.012905 -0.023463 0.016614
v 0.000524 -0.023463 0.016614
v 0.012905 -0.006866 -0.046270
v -0.016238 -0.004667 -0.044005
v 0.000524 -0.009637 -0.044401
v 0.012905 -0.012275 -0.041921
v 0.000524 -0.012275 -0.041921
v 0.000524 -0.014743 -0.038862
v 0.012905 -0.017009 -0.035267
v 0.000524 -0.017009 -0.035267
v 0.021857 -0.020661 -0.020872
v 0.012905 -0.020808 -0.026674
v 0.021900 -0.019687 -0.024048
v 0.021857 -0.010844 -0.039768
v 0.021900 -0.010836 -0.039739
v 0.021857 -0.013255 -0.036962
v 0.012905 -0.024313 0.011205
v 0.021900 -0.022175 0.013869
v 0.012905 -0.019039 0.031185
v 0.012905 -0.017009 0.035267
v 0.000524 -0.017009 0.035267
v 0.000524 -0.020808 0.026674
v 0.012905 -0.020808 0.026674
v 0.012905 -0.004000 0.047500
v 0.000524 0.004000 0.047500
v 0.000524 -0.004000 0.047500
v -0.025000 0.002582 0.009468
v 0.000524 0.020808 0.026674
v 0.012905 0.022289 0.021794
v 0.000524 0.022289 0.021794
v -0.025000 -0.003560 -0.008209
v 0.012905 0.019039 -0.031185
v 0.000524 0.017009 -0.035267
v 0.000524 0.019039 -0.031185
v 0.000524 -0.022289 -0.021794
v 0.000524 -0.020808 -0.026674
v 0.000524 -0.019039 -0.031185
v -0.016238 -0.016499 -0.031758
v -0.016238 -0.019870 -0.023543
v 0.000524 -0.024828 0.005642
v 0.000524 -0.025000 -0.000000
v 0.012905 -0.025000 -0.000000
v -0.016238 -0.022162 0.014050
v 0.000524 -0.014743 0.038862
v 0.012905 0.004000 -0.047500
v 0.021857 -0.005584 -0.043607
v -0.016238 -0.009832 -0.040730
v 0.012905 -0.009637 -0.044401
v -0.016238 -0.014464 -0.035242
v 0.012905 -0.014743 -0.038862
v 0.012905 -0.019039 -0.031185
v 0.021857 -0.019203 -0.025513
v 0.012905 -0.024828 -0.005642
v 0.000524 -0.024313 -0.011205
v 0.000524 -0.023463 -0.016614
v 0.012905 -0.024313 -0.011205
v 0.012905 -0.023463 -0.016614
v 0.012905 -0.024828 0.005642
v 0.012905 -0.022289 0.021794
v 0.021857 -0.021817 0.015926
v 0.000524 -0.019039 0.031185
v -0.016238 -0.016499 0.031758
v 0.021857 0.013255 0.036962
v 0.012905 0.014743 0.038862
v 0.012905 0.012275 0.041921
v 0.012905 -0.006866 0.046270
v 0.021857 -0.008274 0.041993
v 0.012905 -0.009637 0.044401
v 0.021900 -0.008583 0.041728
v -0.025000 0.000000 0.010693
v -0.016351 -0.004667 0.043749
v -0.016275 0.000000 0.044806
v 0.012905 0.023463 0.016614
v 0.012905 0.024313 0.011205
v 0.000524 0.024313 0.011205
v 0.012905 0.020808 0.026674
v 0.012905 0.019039 0.031185
v -0.025000 0.004572 -0.006074
v -0.016238 0.022162 -0.014050
v -0.016238 0.022862 -0.008982
v 0.000524 0.024313 -0.011205
v 0.012905 0.024828 0.005642
v 0.000524 0.024828 -0.005642
v 0.000524 0.025000 0.000000
v 0.012905 0.024828 -0.005642
v -0.016206 0.023305 -0.000902
v 0.000524 0.020808 -0.026674
v -0.016238 0.018310 -0.027840
v 0.000524 0.022289 -0.021794
v 0.012905 0.022289 -0.021794
v 0.000524 0.023463 -0.016614
v -0.016238 0.021161 -0.018925
v -0.016206 0.000299 -0.044890
v -0.025000 -0.001277 -0.010407
v 0.000524 0.012275 -0.041921
v 0.012905 0.012275 -0.041921
v 0.000524 0.009637 -0.044401
v 0.012905 0.020808 -0.026674
v -0.016325 -0.022092 -0.014005
v -0.016312 -0.022809 -0.008982
v -0.016351 -0.022730 -0.008982
v -0.016238 -0.021161 -0.018925
v -0.016238 -0.018310 -0.027840
v -0.016325 -0.019807 -0.023468
v -0.016325 -0.018252 -0.027752
v -0.025000 -0.005092 0.004277
v -0.016238 -0.021161 0.018925
v -0.016325 -0.019778 0.023560
v -0.016325 -0.021058 0.019011
v 0.012905 -0.014743 0.038862
v 0.012905 -0.012275 0.041921
v 0.012905 0.006866 -0.046270
v 0.021857 -0.002813 -0.044584
v 0.021900 -0.002811 -0.044553
v 0.021857 -0.008274 -0.041993
v 0.000524 -0.024828 -0.005642
v -0.016206 -0.023305 -0.000902
v -0.016238 -0.022862 -0.008982
v 0.012905 -0.022289 -0.021794
v 0.021857 -0.019203 0.025513
v 0.021900 -0.019687 0.024048
v 0.021900 -0.019189 0.025495
v 0.000524 -0.022289 0.021794
v -0.016238 -0.019870 0.023543
v 0.021900 -0.021801 0.015915
v 0.021857 -0.020661 0.020872
v -0.016238 -0.018310 0.027840
v 0.021900 0.022904 0.008410
v 0.000524 0.006866 0.046270
v 0.012905 0.006866 0.046270
v -0.016238 0.007299 0.042658
v -0.016238 0.004667 0.044005
v 0.012905 0.009637 0.044401
v 0.012905 0.004000 0.047500
v 0.021857 0.015473 0.033617
v 0.021857 -0.005584 0.043607
v -0.016206 0.000000 0.044912
v -0.016325 0.004667 0.043859
v -0.016283 0.004800 0.043915
v -0.025000 0.001330 0.010383
v -0.016325 0.004789 0.043811
v -0.016325 0.007382 0.042455
v -0.025000 -0.001277 0.010407
v -0.016238 0.019870 0.023543
v -0.016238 0.022162 0.014050
v -0.016238 0.022862 0.008982
v 0.000524 0.023463 0.016614
v 0.021900 -0.019189 -0.025495
v 0.021857 -0.015473 -0.033617
v 0.022029 -0.022549 -0.008280
v 0.024962 -0.001898 -0.000444
v 0.022029 -0.022911 -0.002774
v -0.025000 0.002582 -0.009468
v -0.016206 0.023305 0.000902
v 0.012905 0.025000 0.000000
v 0.000524 0.024828 0.005642
v 0.012905 0.023463 -0.016614
v 0.021857 0.020661 -0.020872
v 0.021900 0.019687 -0.024048
v -0.025000 0.005515 0.001289
v -0.016238 0.004667 -0.044005
v -0.016206 -0.000638 -0.044811
v -0.025000 0.000000 -0.010693
v -0.016275 0.000294 -0.044784
v -0.016275 -0.000629 -0.044706
v -0.025000 -0.002485 -0.009564
v -0.016325 -0.007382 -0.042455
v -0.016325 -0.009877 -0.040532
v 0.000524 0.014743 -0.038862
v -0.016238 0.012231 -0.038247
v 0.021857 0.013255 -0.036962
v 0.021900 0.011233 -0.039328
v 0.012905 0.017009 -0.035267
v -0.016276 -0.022848 -0.008982
v -0.016275 -0.023250 -0.000889
v -0.016275 -0.023250 0.000889
v -0.016283 -0.021144 -0.018910
v -0.016325 -0.021093 -0.018865
v -0.016238 -0.022162 -0.014050
v -0.016283 -0.018295 -0.027818
v -0.016238 -0.022862 0.008982
v -0.025000 -0.005092 -0.004277
v -0.016325 -0.022057 0.014209
v -0.016325 -0.022761 0.009217
v -0.016325 -0.022786 0.008982
v 0.000524 -0.009637 0.044401
v 0.021857 -0.015473 0.033617
v 0.012905 0.009637 -0.044401
v 0.021857 0.008274 -0.041993
v 0.000524 0.006866 -0.046270
v 0.021857 0.000000 -0.044912
v -0.016283 -0.016486 -0.031732
v -0.016283 -0.014474 -0.035180
v -0.016325 -0.014440 -0.035097
v 0.021900 -0.020646 -0.020857
v 0.021857 -0.022655 0.010748
v 0.021900 -0.023271 0.002818
v 0.021857 -0.023163 0.005414
v 0.021976 -0.020532 0.020742
v 0.021976 -0.019578 0.023915
v 0.021940 -0.019645 0.023997
v 0.021940 -0.020602 0.020813
v 0.021940 -0.021053 0.019068
v 0.021900 -0.021098 0.019109
v -0.016325 -0.018234 0.027794
v -0.016283 -0.016486 0.031732
v -0.016325 -0.016447 0.031657
v -0.016283 -0.018278 0.027860
v 0.021900 0.022175 0.013869
v 0.021900 0.023271 0.002818
v 0.021857 0.019203 0.025513
v 0.021900 0.019687 0.024048
v 0.021900 0.017966 0.028607
v 0.000524 0.019039 0.031185
v -0.016238 0.016499 0.031758
v 0.000524 0.017009 0.035267
v 0.012905 0.017009 0.035267
v 0.021857 0.008274 0.041993
v 0.000524 0.009637 0.044401
v -0.016238 0.009832 0.040730
v 0.021857 0.000000 0.044912
v 0.021857 -0.013255 0.036962
v 0.021900 -0.011233 0.039328
v 0.021857 -0.010844 0.039768
v 0.021900 -0.005799 0.043470
v -0.016325 0.009877 0.040533
v -0.016283 0.009901 0.040629
v -0.016238 0.012231 0.038247
v -0.016283 0.004667 0.043967
v -0.016283 0.007400 0.042556
v -0.016238 0.021161 0.018925
v 0.021857 -0.017465 -0.029782
v 0.025000 0.000884 -0.001921
v 0.025000 0.001324 -0.000309
v 0.025000 -0.001324 0.000309
v 0.025000 -0.001324 -0.000309
v 0.024962 -0.000458 0.003573
v 0.022029 -0.008451 0.041083
v 0.024962 -0.000888 0.003258
v 0.024962 -0.001788 0.001305
v 0.022029 -0.021832 0.013654
v 0.022029 -0.022549 0.008280
v 0.022029 -0.011059 0.038720
v -0.016238 0.016499 -0.031758
v -0.016283 0.022815 -0.009239
v -0.016325 0.018234 -0.027794
v -0.016325 0.019778 -0.023560
v -0.016238 0.019870 -0.023543
v -0.016325 0.021058 -0.019012
v -0.016283 0.021108 -0.019057
v -0.016242 0.023291 0.000899
v 0.024962 0.001898 -0.000444
v 0.022029 0.022911 -0.002774
v 0.022029 0.022911 0.002774
v 0.021857 0.023333 0.000000
v 0.012905 0.024313 -0.011205
v 0.021900 0.022175 -0.013869
v 0.021857 0.021817 -0.015926
v -0.025000 0.005195 -0.003792
v -0.016325 0.022057 -0.014209
v -0.025000 0.005515 -0.001289
v -0.016275 0.023250 0.000889
v -0.025000 0.004572 0.006074
v -0.016351 0.022729 0.008982
v -0.016276 0.004667 -0.043978
v -0.016242 -0.000636 -0.044784
v -0.016238 -0.007299 -0.042658
v -0.016325 -0.004789 -0.043810
v -0.016325 -0.012240 -0.038069
v 0.021857 0.017465 -0.029782
v 0.021900 0.017966 -0.028607
v 0.021900 0.015961 -0.032716
v 0.021900 0.017453 -0.029761
v 0.021857 0.019203 -0.025513
v 0.021857 0.015473 -0.033617
v -0.016242 -0.023291 -0.000899
v -0.016283 -0.022144 -0.014038
v -0.016283 -0.019855 -0.023524
v -0.016206 -0.023305 0.000902
v -0.016283 -0.022815 0.009239
v -0.016283 -0.022109 0.014243
v -0.016325 -0.014418 0.035130
v -0.016283 -0.014452 0.035214
v -0.016325 -0.012193 0.038125
v -0.016238 -0.014464 0.035242
v 0.000524 -0.012275 0.041921
v -0.016238 -0.009832 0.040730
v 0.000524 -0.006866 0.046270
v 0.021857 -0.017465 0.029782
v 0.021857 0.005584 -0.043607
v 0.021857 0.010844 -0.039768
v -0.016238 0.007299 -0.042658
v -0.016283 0.007293 -0.042624
v 0.021857 0.002813 -0.044584
v 0.021900 0.002922 -0.044526
v 0.021900 -0.008268 -0.041963
v -0.016325 -0.016447 -0.031657
v 0.021900 -0.021098 -0.019109
v 0.021857 -0.021817 -0.015926
v 0.021976 -0.021681 -0.015827
v 0.022006 -0.020886 -0.018917
v 0.022006 -0.021582 -0.015755
v 0.021976 -0.022053 -0.013792
v 0.021940 -0.021755 -0.015881
v 0.021900 -0.022904 0.008410
v 0.021857 -0.023333 0.000000
v 0.021900 -0.023317 0.000000
v 0.021900 -0.020646 0.020857
v -0.025000 -0.004445 0.006415
v -0.016283 -0.019825 0.023616
v 0.021857 0.022655 0.010748
v 0.021857 0.021817 0.015926
v 0.021857 0.023163 0.005414
v 0.021940 0.019149 0.025441
v 0.021940 0.017928 0.028547
v -0.016238 0.014464 0.035242
v 0.021857 0.017465 0.029782
v 0.021857 0.005584 0.043607
v 0.000524 0.012275 0.041921
v 0.021857 -0.002813 0.044584
v 0.021900 -0.013705 0.036308
v -0.016242 0.000000 0.044885
v -0.016283 0.021144 0.018910
v -0.016325 0.022092 0.014005
v -0.016325 0.021094 0.018866
v 0.022006 -0.022673 0.008325
v 0.021900 -0.013245 -0.036935
v 0.021976 -0.015376 -0.033408
v 0.021940 -0.015429 -0.033522
v 0.021976 -0.013172 -0.036731
v 0.022006 -0.015306 -0.033255
v 0.024962 -0.001788 -0.001305
v 0.022006 -0.013112 -0.036564
v 0.024962 -0.001268 -0.002754
v 0.021940 -0.019645 -0.023997
v 0.021940 -0.020602 -0.020813
v 0.025000 0.001247 0.000910
v 0.024990 0.001524 0.001113
v 0.024990 0.001341 0.001782
v 0.025000 0.001247 -0.000910
v 0.024990 -0.001618 -0.000378
v 0.021900 -0.022904 -0.008410
v 0.021857 -0.022655 -0.010748
v 0.022029 -0.005709 0.042797
v 0.022029 -0.002877 0.043837
v 0.024962 -0.001268 0.002754
v 0.022029 -0.015714 0.032210
v 0.022029 -0.017688 0.028165
v 0.021976 -0.019083 0.025354
v 0.024990 -0.000390 0.003046
v 0.024990 0.000000 0.003137
v 0.024962 -0.001898 0.000444
v 0.024990 -0.001524 0.001113
v 0.022029 -0.013493 0.035747
v 0.022006 -0.013567 0.035944
v -0.016238 0.009832 -0.040730
v -0.025000 0.003684 -0.008004
v -0.016325 0.016447 -0.031657
v -0.016325 0.014418 -0.035131
v -0.016325 0.012193 -0.038126
v -0.016325 0.009801 -0.040601
v -0.016238 0.014464 -0.035242
v -0.016283 0.022842 -0.008982
v -0.016325 0.022761 -0.009217
v -0.016325 0.022786 -0.008982
v -0.016283 0.022109 -0.014243
v -0.016283 0.018278 -0.027860
v -0.016283 0.016486 -0.031732
v 0.021976 0.023142 0.002802
v 0.021976 0.023188 0.000000
v 0.021940 0.023267 0.000000
v 0.022006 0.023037 -0.002790
v 0.024962 0.001898 0.000444
v 0.022029 0.022549 0.008280
v 0.024990 0.001618 -0.000378
v 0.021900 0.020646 -0.020857
v 0.021900 0.023317 0.000000
v 0.021857 0.022655 -0.010748
v -0.016275 0.023250 -0.000889
v -0.016325 0.019808 0.023469
v -0.016312 0.022808 0.008982
v -0.025000 0.005195 0.003792
v -0.016242 0.000298 -0.044863
v -0.016351 0.004667 -0.043750
v -0.016283 -0.007400 -0.042556
v -0.016283 -0.009901 -0.040629
v -0.016325 -0.004667 -0.043859
v -0.016238 -0.012231 -0.038247
v -0.016283 -0.012269 -0.038159
v 0.021940 0.019149 -0.025441
v 0.021976 0.019083 -0.025354
v 0.021976 0.017867 -0.028449
v 0.012905 0.014743 -0.038862
v -0.016283 -0.022843 0.008982
v -0.016283 -0.021108 0.019057
v -0.016238 -0.012231 0.038247
v -0.016238 -0.007299 0.042658
v 0.021900 -0.017966 0.028607
v 0.021900 0.005799 -0.043470
v 0.021900 0.008583 -0.041728
v 0.021900 0.000000 -0.044880
v 0.021940 -0.002805 -0.044458
v 0.021940 0.000000 -0.044785
v 0.021940 -0.005568 -0.043483
v 0.021976 -0.002795 -0.044307
v 0.021900 -0.005580 -0.043576
v 0.021940 -0.021053 -0.019068
v 0.021900 -0.021801 -0.015915
v 0.022029 -0.021832 -0.013654
v 0.021900 -0.023147 0.005410
v 0.021900 -0.023271 -0.002818
v 0.021940 -0.023267 0.000000
v 0.021976 -0.023188 0.000000
v 0.021976 -0.023142 0.002802
v 0.022006 -0.021582 0.015755
v 0.022029 -0.020771 0.018813
v 0.021976 -0.022053 0.013792
v 0.021976 -0.021681 0.015827
v 0.021940 -0.022591 0.010718
v 0.021976 -0.022514 0.010681
v 0.021940 -0.022129 0.013839
v 0.021940 -0.021755 0.015881
v -0.025000 -0.003560 0.008209
v 0.021976 0.015376 0.033408
v 0.022006 0.015306 0.033255
v 0.022006 0.017277 0.029462
v 0.021900 0.021098 0.019109
v 0.024962 0.001573 0.002090
v 0.022006 0.018996 0.025238
v 0.022029 0.017688 0.028165
v 0.022029 0.019382 0.023676
v 0.021900 0.019189 0.025495
v -0.025000 0.003684 0.008004
v -0.016283 0.014474 0.035181
v 0.021900 0.005580 0.043576
v 0.000524 0.014743 0.038862
v 0.021900 -0.002922 0.044526
v 0.024990 0.001081 0.002348
v 0.024990 0.000390 0.003046
v 0.024962 0.000888 0.003258
v 0.024962 0.000458 0.003573
v 0.021940 -0.013676 0.036232
v 0.021940 -0.008565 0.041640
v 0.022006 -0.011120 0.038933
v -0.016238 0.018310 0.027840
v -0.016283 0.018295 0.027818
v 0.021900 -0.022639 0.010740
v 0.021976 -0.022777 0.008363
v 0.021940 -0.013217 -0.036857
v 0.021900 -0.015462 -0.033593
v 0.021900 -0.017453 -0.029761
v 0.021976 -0.017356 -0.029596
v 0.021940 -0.008251 -0.041875
v 0.021976 -0.010776 -0.039520
v 0.024962 -0.000888 -0.003258
v 0.022029 -0.010668 -0.039124
v 0.021940 -0.019149 -0.025441
v 0.021976 -0.020532 -0.020742
v 0.022006 -0.019489 -0.023806
v 0.022006 -0.020438 -0.020647
v 0.025000 0.001097 -0.001458
v 0.024990 0.001341 -0.001782
v 0.022029 0.002767 0.043863
v 0.022029 0.005494 0.042902
v 0.021976 -0.005767 0.043230
v 0.021976 -0.008536 0.041498
v 0.024962 -0.001573 0.002090
v 0.022029 -0.019382 0.023676
v 0.022006 -0.020438 0.020647
v 0.024990 -0.001341 0.001782
v 0.022006 -0.019489 0.023806
v 0.025000 0.000000 0.002566
v 0.024990 -0.001618 0.000378
v 0.022029 -0.022911 0.002774
v -0.016283 0.009825 -0.040697
v -0.016283 0.012222 -0.038216
v -0.016283 0.014452 -0.035214
v -0.016283 0.019825 -0.023616
v 0.021940 0.023098 0.005398
v 0.021976 0.023019 0.005380
v 0.022006 0.023037 0.002790
v 0.022006 0.022673 0.008325
v 0.022029 0.021832 0.013654
v 0.024990 0.001524 -0.001113
v 0.024962 0.001788 -0.001305
v 0.024990 0.001618 0.000378
v 0.021900 0.021098 -0.019109
v 0.021940 0.022129 -0.013839
v 0.021976 0.022053 -0.013792
v 0.021940 0.021755 -0.015881
v 0.022006 0.021953 -0.013729
v 0.022006 0.021582 -0.015755
v 0.021976 0.022514 -0.010681
v 0.022029 0.022549 -0.008280
v -0.016242 0.023291 -0.000899
v -0.016283 0.019855 0.023524
v -0.016325 0.018252 0.027752
v -0.016325 0.016447 0.031657
v -0.016283 0.022145 0.014038
v -0.016312 0.004667 -0.043902
v -0.016325 0.007276 -0.042523
v -0.016283 -0.004800 -0.043914
v 0.025000 -0.000620 -0.002272
v 0.024990 0.001081 -0.002348
v 0.024962 0.000888 -0.003258
v 0.024962 0.000458 -0.003573
v 0.022029 0.008451 -0.041083
v 0.022029 0.013493 -0.035747
v 0.024962 0.001268 -0.002754
v 0.024990 0.000758 -0.002778
v 0.021940 0.013676 -0.036232
v 0.021940 0.011209 -0.039245
v 0.024962 0.001573 -0.002090
v 0.022029 0.017688 -0.028165
v 0.021900 0.019189 -0.025495
v 0.021940 0.017928 -0.028547
v 0.021900 0.013705 -0.036308
v -0.016242 -0.023291 0.000899
v -0.016283 -0.012222 0.038216
v -0.016325 -0.009801 0.040601
v -0.016325 -0.007276 0.042523
v -0.016238 -0.004667 0.044005
v 0.021940 -0.019149 0.025441
v 0.021976 -0.017867 0.028449
v 0.021940 0.008565 -0.041640
v 0.021900 -0.022175 -0.013869
v 0.022006 -0.021953 -0.013729
v 0.021940 -0.023098 0.005398
v 0.021857 -0.023163 -0.005414
v 0.022006 -0.023037 -0.002790
v 0.021940 -0.023221 -0.002812
v 0.021940 -0.023098 -0.005398
v 0.022006 -0.020886 0.018917
v 0.022006 -0.021953 0.013729
v 0.021940 0.017416 0.029698
v 0.021940 0.019645 0.023997
v 0.021976 0.019083 0.025354
v 0.021857 0.020661 0.020872
v 0.021940 0.021755 0.015881
v 0.021940 0.021053 0.019068
v 0.021976 0.021681 0.015827
v 0.022006 0.021953 0.013729
v 0.021976 0.022514 0.010681
v 0.021976 0.020532 0.020742
v 0.021940 0.020602 0.020813
v 0.024962 0.001788 0.001305
v 0.022029 0.020771 0.018813
v 0.024962 0.001268 0.002754
v 0.022006 0.013112 0.036564
v 0.021976 0.017867 0.028449
v -0.016283 0.016486 0.031732
v -0.016325 0.014440 0.035098
v 0.022006 0.005524 0.043138
v 0.022029 0.008140 0.041314
v 0.022006 0.008185 0.041542
v 0.021940 0.008251 0.041875
v 0.021940 0.005568 0.043483
v 0.021857 0.010844 0.039768
v 0.021900 0.010836 0.039739
v 0.021900 0.013245 0.036935
v 0.021940 0.013217 0.036857
v 0.021976 0.013172 0.036731
v 0.022029 0.010668 0.039124
v 0.021940 -0.011209 0.039245
v 0.022006 -0.017277 -0.029462
v 0.022029 -0.017688 -0.028165
v 0.022029 -0.019382 -0.023676
v 0.022029 -0.020771 -0.018813
v 0.022006 -0.005524 -0.043138
v 0.022006 -0.002782 -0.044105
v 0.022029 -0.002767 -0.043863
v 0.022029 -0.005494 -0.042902
v 0.021940 -0.010813 -0.039655
v 0.022006 -0.010727 -0.039340
v 0.022029 -0.008140 -0.041314
v 0.021900 -0.017966 -0.028607
v 0.021976 -0.019578 -0.023915
v 0.021976 -0.020981 -0.019003
v 0.021900 -0.022639 -0.010740
v 0.021940 -0.022591 -0.010718
v 0.021940 -0.022855 -0.008392
v 0.024962 0.000000 0.003680
v 0.022029 0.000000 0.044185
v 0.022006 0.000000 0.044429
v 0.021940 -0.005786 0.043378
v 0.022006 -0.005740 0.043033
v 0.021940 -0.002916 0.044432
v 0.025000 -0.001247 0.000910
v 0.022006 -0.018996 0.025238
v 0.025000 0.000884 0.001921
v 0.022006 -0.023037 0.002790
v 0.021900 0.022639 0.010740
v 0.021900 0.023147 0.005410
v 0.021940 0.022855 0.008392
v 0.021940 0.023221 0.002812
v 0.021976 0.022777 0.008363
v 0.021976 0.023142 -0.002802
v 0.021900 0.023271 -0.002818
v 0.021857 0.023163 -0.005414
v 0.021900 0.022904 -0.008410
v 0.025000 0.001324 0.000309
v 0.021900 0.021801 -0.015915
v 0.022029 0.020771 -0.018813
v 0.022006 0.020438 -0.020647
v 0.021940 0.021053 -0.019068
v 0.022006 0.022673 -0.008325
v 0.022029 0.021832 -0.013654
v -0.016276 0.022848 0.008982
v -0.016283 -0.004667 -0.043968
v 0.024990 0.000390 -0.003046
v 0.021940 0.015928 -0.032647
v 0.022029 0.019382 -0.023676
v 0.022029 0.015714 -0.032210
v 0.022006 0.013567 -0.035944
v 0.022006 0.015801 -0.032387
v -0.016283 -0.009824 0.040697
v -0.016312 -0.004667 0.043901
v -0.016276 -0.004667 0.043978
v 0.022006 -0.017277 0.029462
v 0.021976 0.000000 -0.044632
v 0.022006 0.000000 -0.044429
v 0.022029 0.000000 -0.044185
v 0.021940 0.002916 -0.044432
v 0.021976 0.005767 -0.043230
v 0.021976 0.002906 -0.044280
v 0.022029 0.011059 -0.038720
v 0.022006 0.011120 -0.038933
v 0.022029 0.005709 -0.042797
v 0.022029 0.002877 -0.043837
v 0.022006 0.008497 -0.041309
v 0.021976 0.011171 -0.039111
v 0.021976 0.013629 -0.036108
v 0.021940 0.005786 -0.043378
v 0.024962 -0.000458 -0.003573
v 0.021940 -0.022129 -0.013839
v 0.022006 -0.022673 -0.008325
v 0.021940 -0.023221 0.002812
v 0.021976 -0.023019 0.005380
v 0.021940 -0.022855 0.008392
v 0.021900 -0.023147 -0.005410
v 0.021976 -0.023142 -0.002802
v 0.021976 -0.020981 0.019003
v 0.021940 0.015429 0.033522
v 0.021976 0.017356 0.029596
v 0.021900 0.017453 0.029761
v 0.021900 0.020646 0.020857
v 0.021940 0.022129 0.013839
v 0.021900 0.021801 0.015915
v 0.021976 0.019578 0.023915
v 0.021976 0.020981 0.019003
v 0.022006 0.021582 0.015755
v 0.022006 0.017785 0.028320
v -0.016325 0.012240 0.038069
v 0.021976 0.010776 0.039520
v 0.021900 0.008268 0.041963
v 0.021976 -0.011171 0.039111
v 0.022006 -0.017785 -0.028320
v 0.024962 -0.001573 -0.002090
v 0.021976 -0.005549 -0.043335
v 0.021976 -0.008223 -0.041732
v 0.022006 -0.008185 -0.041542
v 0.021940 -0.017416 -0.029698
v 0.021857 0.002813 0.044584
v 0.021900 0.002811 0.044553
v 0.021940 0.002805 0.044458
v 0.021976 0.002795 0.044307
v 0.022006 -0.008497 0.041309
v 0.022006 -0.002893 0.044078
v 0.025000 -0.000884 0.001921
v 0.022006 -0.017785 0.028320
v 0.025000 0.001097 0.001458
v 0.025000 0.000319 0.002492
v 0.024990 0.000758 0.002778
v 0.021900 0.023147 -0.005410
v 0.021940 0.023098 -0.005398
v 0.021940 0.023221 -0.002812
v 0.021940 0.022591 -0.010718
v 0.021940 0.019645 -0.023997
v 0.021976 0.019578 -0.023915
v 0.021976 0.021681 -0.015827
v 0.021940 0.022855 -0.008392
v 0.024990 -0.001081 -0.002348
v 0.024990 -0.001341 -0.001782
v 0.025000 -0.001097 -0.001458
v 0.024990 -0.001524 -0.001113
v 0.025000 0.000620 -0.002272
v 0.021976 0.015873 -0.032535
v 0.021940 0.017416 -0.029698
v 0.022006 0.018996 -0.025238
v 0.022006 0.017785 -0.028320
v -0.016283 -0.007293 0.042624
v 0.022006 0.002893 -0.044078
v 0.021976 0.008536 -0.041498
v 0.024990 -0.000390 -0.003046
v 0.024962 0.000000 -0.003680
v 0.021976 -0.022514 -0.010681
v 0.021976 -0.023019 -0.005380
v 0.021900 0.015462 0.033593
v 0.021976 0.022053 0.013792
v 0.021940 0.022591 0.010718
v 0.022006 0.019489 0.023806
v 0.022006 0.020438 0.020647
v 0.022006 0.020886 0.018917
v -0.016283 0.012269 0.038159
v 0.021940 0.010813 0.039655
v 0.021976 0.008223 0.041732
v 0.022006 0.010727 0.039340
v 0.021976 -0.013629 0.036108
v 0.021976 -0.019083 -0.025354
v 0.022006 -0.018996 -0.025238
v 0.021900 0.000000 0.044880
v 0.021940 0.000000 0.044785
v 0.022006 0.002782 0.044105
v 0.021976 0.005549 0.043335
v 0.021976 0.000000 0.044632
v 0.024990 -0.001081 0.002348
v 0.025000 -0.000620 0.002272
v 0.025000 -0.001097 0.001458
v 0.025000 0.000620 0.002272
v 0.021900 0.022639 -0.010740
v 0.021940 0.020602 -0.020813
v 0.021976 0.020981 -0.019003
v 0.021976 0.022777 -0.008363
v 0.025000 -0.000884 -0.001921
v 0.025000 -0.001247 -0.000910
v 0.025000 0.000000 -0.002566
v 0.022006 0.017277 -0.029462
v 0.022006 0.019489 -0.023806
v 0.021900 -0.015961 0.032716
v 0.021940 -0.015928 0.032647
v 0.022006 -0.015801 0.032387
v 0.022006 0.005740 -0.043033
v 0.024990 -0.000758 -0.002778
v 0.024990 0.000000 -0.003137
v 0.021976 -0.022777 -0.008363
v 0.021976 -0.017867 -0.028449
v 0.021976 -0.002906 0.044280
v 0.025000 -0.000319 0.002492
v 0.024990 -0.000758 0.002778
v 0.021976 0.020532 -0.020742
v 0.022006 0.020886 -0.018917
v 0.021976 0.023019 -0.005380
v 0.025000 -0.000319 -0.002492
v 0.025000 0.000319 -0.002492
v 0.021976 0.017356 -0.029596
v 0.021940 -0.017928 0.028547
v 0.021940 -0.017416 0.029698
v 0.021976 -0.017356 0.029596
v 0.021900 -0.017453 0.029761
v 0.021976 -0.015873 0.032535
v 0.021940 -0.017928 -0.028547
f 1 2 3
f 1 3 4
f 5 6 7
f 8 9 10
f 11 4 3
f 12 1 4
f 13 14 15
f 13 4 11
f 16 15 14
f 17 18 16
f 19 20 21
f 22 23 24
f 22 24 14
f 25 26 9
f 25 9 8
f 27 28 29
f 30 31 27
f 32 33 34
f 35 5 7
f 36 37 38
f 39 6 5
f 40 41 42
f 43 44 20
f 45 20 44
f 45 46 18
f 45 18 17
f 47 44 43
f 48 25 8
f 48 49 50
f 51 8 10
f 52 29 28
f 53 3 2
f 54 11 3
f 55 13 15
f 56 14 13
f 56 13 11
f 56 22 14
f 57 16 18
f 57 18 46
f 58 17 16
f 58 16 14
f 58 14 24
f 59 20 45
f 59 45 17
f 60 21 20
f 60 20 59
f 61 50 49
f 62 63 64
f 62 64 61
f 65 64 63
f 65 63 43
f 66 25 48
f 66 48 50
f 67 31 30
f 67 10 9
f 68 9 26
f 69 29 70
f 69 30 27
f 69 27 29
f 71 72 73
f 74 32 34
f 75 74 76
f 75 76 77
f 78 35 7
f 78 79 80
f 81 38 37
f 81 82 83
f 84 37 36
f 84 36 85
f 86 5 35
f 87 88 89
f 90 83 82
f 91 92 93
f 91 93 89
f 91 89 88
f 91 88 94
f 91 94 92
f 95 42 96
f 95 97 98
f 95 40 42
f 99 98 97
f 99 97 100
f 99 100 87
f 99 87 89
f 101 2 1
f 102 39 5
f 103 104 105
f 106 40 95
f 106 95 98
f 107 108 109
f 110 47 43
f 110 43 63
f 111 46 45
f 111 45 44
f 111 44 47
f 112 6 113
f 114 7 6
f 115 51 10
f 116 114 117
f 118 119 52
f 118 52 28
f 120 53 2
f 121 122 54
f 121 54 3
f 123 23 22
f 123 22 56
f 123 56 11
f 123 11 54
f 124 49 125
f 124 125 126
f 124 126 62
f 124 62 61
f 124 61 49
f 127 65 43
f 127 43 20
f 127 20 19
f 128 31 129
f 128 129 130
f 128 27 31
f 131 10 67
f 131 67 30
f 131 30 132
f 131 132 115
f 131 115 10
f 133 68 26
f 134 129 31
f 134 31 67
f 135 132 30
f 135 30 69
f 135 69 70
f 136 90 82
f 137 33 138
f 137 139 140
f 137 140 33
f 141 137 138
f 142 138 33
f 142 33 32
f 143 72 71
f 144 32 74
f 145 33 140
f 145 34 33
f 146 78 80
f 147 140 139
f 148 35 78
f 148 78 146
f 148 146 149
f 148 149 150
f 148 150 35
f 151 79 78
f 151 78 7
f 152 36 38
f 153 83 154
f 155 38 81
f 155 81 83
f 155 83 153
f 156 21 60
f 157 17 58
f 157 58 24
f 158 159 160
f 161 5 86
f 162 92 94
f 163 93 92
f 163 92 90
f 164 83 90
f 164 90 92
f 164 92 162
f 164 162 154
f 164 154 83
f 165 98 99
f 165 99 89
f 166 167 106
f 166 106 98
f 168 86 35
f 169 2 101
f 170 101 1
f 170 1 12
f 171 172 173
f 171 102 5
f 174 39 102
f 174 102 175
f 174 175 176
f 177 104 103
f 177 103 178
f 179 180 104
f 181 177 41
f 181 41 40
f 182 126 125
f 183 184 114
f 183 109 108
f 185 47 110
f 185 107 186
f 185 186 112
f 187 185 110
f 187 110 63
f 187 63 62
f 187 62 126
f 187 126 182
f 188 111 47
f 188 112 113
f 189 48 8
f 189 8 51
f 190 109 183
f 190 183 114
f 190 114 6
f 190 6 112
f 190 112 186
f 190 186 107
f 190 107 109
f 191 117 114
f 191 114 192
f 193 192 114
f 193 114 184
f 194 119 76
f 194 76 74
f 195 118 28
f 196 197 120
f 196 120 105
f 196 105 104
f 198 105 120
f 198 120 2
f 198 2 169
f 199 122 121
f 199 121 3
f 199 3 53
f 200 46 111
f 200 111 188
f 200 188 113
f 201 57 46
f 201 46 200
f 201 200 202
f 203 19 21
f 204 26 25
f 205 206 66
f 205 66 50
f 207 208 209
f 207 209 210
f 211 207 210
f 212 68 133
f 212 134 67
f 212 67 9
f 212 9 68
f 213 214 215
f 216 214 213
f 216 135 70
f 216 70 214
f 217 82 81
f 218 163 90
f 219 220 84
f 219 84 85
f 219 85 221
f 222 223 224
f 222 224 85
f 222 85 36
f 225 85 224
f 225 224 72
f 225 72 143
f 226 141 138
f 227 137 141
f 227 141 73
f 227 228 139
f 227 139 137
f 229 142 32
f 230 231 119
f 230 119 118
f 232 76 119
f 232 119 231
f 232 231 77
f 232 77 76
f 233 144 74
f 233 74 75
f 233 75 77
f 234 35 150
f 235 228 236
f 237 146 80
f 237 140 147
f 237 147 149
f 237 149 146
f 238 150 149
f 238 149 147
f 238 147 139
f 238 139 228
f 238 228 235
f 238 235 234
f 238 234 150
f 239 152 38
f 239 38 155
f 239 155 153
f 240 17 157
f 240 59 17
f 241 242 243
f 244 241 243
f 245 246 247
f 248 249 250
f 251 247 246
f 252 42 41
f 252 96 42
f 253 88 87
f 254 86 255
f 256 97 95
f 256 95 96
f 256 100 97
f 257 255 86
f 258 100 256
f 259 162 94
f 260 261 262
f 263 163 218
f 264 265 165
f 264 165 89
f 264 89 93
f 266 165 265
f 267 86 168
f 267 268 257
f 267 257 86
f 269 267 168
f 269 168 270
f 271 168 35
f 272 270 168
f 273 169 101
f 274 173 172
f 274 170 12
f 275 4 13
f 275 13 55
f 275 12 4
f 276 175 102
f 277 202 39
f 277 39 174
f 277 174 176
f 278 40 279
f 278 280 181
f 278 181 40
f 281 280 278
f 281 278 279
f 282 106 167
f 282 279 40
f 282 40 106
f 283 181 280
f 284 184 183
f 284 183 108
f 284 108 182
f 284 182 125
f 285 185 187
f 285 187 182
f 285 182 108
f 285 108 107
f 285 107 185
f 286 112 188
f 286 188 47
f 286 47 185
f 286 185 112
f 287 48 189
f 287 284 125
f 287 125 49
f 287 49 48
f 288 192 193
f 288 189 51
f 289 117 191
f 289 191 192
f 289 192 288
f 289 288 51
f 289 51 115
f 290 215 214
f 290 214 291
f 290 291 292
f 293 70 29
f 293 29 52
f 293 291 214
f 293 214 70
f 294 52 119
f 294 119 194
f 295 294 194
f 296 194 74
f 296 74 34
f 297 28 27
f 298 53 120
f 299 196 104
f 299 104 180
f 300 105 198
f 300 198 169
f 300 169 273
f 300 273 301
f 302 199 53
f 302 53 298
f 302 298 303
f 304 23 123
f 305 6 39
f 305 39 202
f 305 202 200
f 305 200 113
f 305 113 6
f 306 307 65
f 306 65 127
f 306 127 19
f 306 19 203
f 308 309 310
f 308 310 311
f 308 311 312
f 313 204 25
f 313 25 66
f 313 66 206
f 314 315 205
f 314 205 50
f 316 210 209
f 316 209 129
f 316 129 134
f 316 134 212
f 316 212 211
f 316 211 210
f 317 114 116
f 317 116 213
f 317 213 215
f 317 7 114
f 318 116 117
f 318 132 135
f 318 135 216
f 318 216 213
f 318 213 116
f 319 82 217
f 319 136 82
f 320 217 81
f 321 218 90
f 321 90 136
f 322 221 323
f 324 224 223
f 325 221 85
f 325 85 225
f 325 225 143
f 326 226 138
f 326 138 142
f 327 236 228
f 327 228 227
f 327 227 73
f 327 73 72
f 328 229 32
f 328 32 144
f 329 231 230
f 329 230 118
f 329 118 195
f 330 145 140
f 330 140 237
f 330 237 80
f 331 152 239
f 331 239 153
f 331 332 333
f 334 250 249
f 335 24 23
f 335 157 24
f 336 337 338
f 336 338 339
f 340 159 158
f 341 339 338
f 342 339 341
f 343 344 203
f 343 203 21
f 345 243 242
f 345 346 347
f 348 242 241
f 349 244 243
f 350 61 64
f 350 64 351
f 352 246 245
f 352 245 353
f 354 355 356
f 357 209 208
f 358 359 245
f 358 245 247
f 360 159 349
f 360 361 248
f 360 248 250
f 360 160 159
f 362 247 251
f 362 251 363
f 362 363 355
f 362 355 354
f 362 354 247
f 364 103 105
f 364 105 300
f 364 178 103
f 365 86 254
f 365 254 366
f 365 366 367
f 365 161 86
f 368 161 365
f 368 365 367
f 368 369 161
f 370 252 41
f 370 41 177
f 370 177 178
f 371 88 253
f 372 373 371
f 372 371 253
f 372 268 267
f 372 267 269
f 372 269 373
f 374 268 372
f 374 372 253
f 374 253 87
f 374 87 100
f 374 100 258
f 374 258 257
f 374 257 268
f 375 96 252
f 375 252 376
f 375 376 366
f 375 366 254
f 377 378 379
f 380 262 261
f 381 260 262
f 381 262 382
f 383 242 348
f 383 260 381
f 384 167 166
f 385 263 218
f 386 265 264
f 387 373 269
f 387 269 270
f 387 270 259
f 387 371 373
f 388 333 271
f 389 259 270
f 389 270 272
f 389 272 332
f 390 168 271
f 390 271 333
f 390 333 332
f 390 332 272
f 390 272 168
f 391 273 101
f 391 101 170
f 391 170 274
f 391 274 172
f 392 171 5
f 392 172 171
f 393 394 176
f 393 176 175
f 393 175 276
f 393 275 55
f 393 55 394
f 395 171 173
f 395 276 102
f 395 102 171
f 396 55 15
f 396 15 16
f 396 16 57
f 396 394 55
f 397 394 396
f 397 396 57
f 397 57 201
f 397 201 202
f 397 202 277
f 397 277 176
f 397 176 394
f 398 399 400
f 401 181 283
f 401 179 104
f 401 104 177
f 401 177 181
f 402 189 288
f 402 288 193
f 402 193 184
f 403 117 289
f 403 289 115
f 403 115 132
f 403 132 318
f 403 318 117
f 404 291 293
f 404 293 52
f 404 52 294
f 404 294 295
f 405 295 194
f 405 194 296
f 406 128 130
f 406 297 27
f 406 27 128
f 407 303 298
f 407 298 120
f 407 120 197
f 408 197 196
f 408 196 299
f 408 299 180
f 408 407 197
f 409 122 199
f 409 199 302
f 409 302 303
f 410 122 409
f 410 409 411
f 412 122 410
f 412 410 413
f 414 54 122
f 414 122 412
f 414 304 123
f 414 123 54
f 415 308 312
f 415 312 306
f 415 306 203
f 415 203 344
f 416 307 306
f 416 306 312
f 417 310 340
f 417 340 158
f 418 313 206
f 418 206 205
f 419 315 314
f 419 314 50
f 419 50 61
f 420 421 422
f 423 249 248
f 423 248 424
f 425 423 426
f 425 427 428
f 429 26 427
f 429 427 425
f 430 133 26
f 430 26 429
f 430 429 425
f 430 425 426
f 430 426 211
f 430 211 212
f 430 212 133
f 431 290 292
f 431 292 7
f 431 7 317
f 431 317 215
f 431 215 290
f 432 433 434
f 435 320 81
f 435 81 37
f 436 347 346
f 437 438 436
f 437 436 439
f 440 221 322
f 440 322 220
f 440 220 219
f 440 219 221
f 441 271 35
f 442 324 223
f 443 226 326
f 444 324 236
f 444 236 327
f 444 327 72
f 444 72 224
f 444 224 324
f 445 328 144
f 445 144 233
f 446 347 436
f 447 448 449
f 447 449 359
f 450 231 329
f 451 77 231
f 451 233 77
f 452 251 246
f 452 363 251
f 453 222 36
f 453 36 152
f 453 152 454
f 453 454 223
f 453 223 222
f 455 313 427
f 455 427 26
f 455 26 204
f 455 204 313
f 456 334 428
f 456 428 427
f 457 338 337
f 457 335 23
f 458 157 335
f 458 335 457
f 458 457 337
f 458 240 157
f 459 240 458
f 459 458 337
f 460 337 336
f 460 336 339
f 461 304 414
f 461 414 412
f 461 23 304
f 462 341 338
f 462 338 457
f 463 342 341
f 463 341 464
f 465 343 21
f 465 21 156
f 466 344 343
f 466 467 468
f 466 468 309
f 466 415 344
f 469 470 348
f 469 348 241
f 471 449 472
f 473 451 474
f 475 476 477
f 475 477 424
f 475 424 248
f 475 248 361
f 475 361 478
f 475 354 356
f 479 357 208
f 479 208 207
f 479 207 477
f 479 477 476
f 480 359 358
f 480 243 345
f 480 447 359
f 481 361 360
f 481 360 349
f 481 349 243
f 482 160 360
f 482 360 250
f 482 250 334
f 483 178 364
f 483 364 300
f 483 300 301
f 484 178 483
f 484 483 369
f 484 369 368
f 484 368 367
f 485 376 252
f 485 252 370
f 485 370 178
f 485 178 484
f 485 484 367
f 485 367 366
f 485 366 376
f 486 255 257
f 486 257 258
f 486 258 256
f 486 256 96
f 486 96 375
f 486 375 254
f 486 254 255
f 487 488 377
f 489 262 380
f 489 380 378
f 489 378 377
f 489 377 488
f 490 382 262
f 490 262 489
f 490 489 488
f 490 491 382
f 492 493 260
f 492 260 383
f 492 383 348
f 492 348 470
f 494 346 345
f 494 242 383
f 494 383 381
f 494 381 346
f 495 384 166
f 495 166 98
f 495 98 165
f 495 165 266
f 496 497 498
f 496 498 265
f 499 500 497
f 499 497 501
f 502 261 260
f 502 260 493
f 503 94 88
f 503 88 371
f 503 371 387
f 503 387 259
f 503 259 94
f 504 152 331
f 504 331 333
f 504 333 388
f 504 454 152
f 505 454 504
f 505 504 388
f 505 388 271
f 505 271 441
f 505 441 506
f 505 506 454
f 507 389 332
f 507 332 331
f 507 331 153
f 508 273 391
f 508 391 172
f 508 172 392
f 508 301 273
f 509 301 508
f 509 508 392
f 509 392 5
f 509 5 161
f 509 161 369
f 509 369 483
f 509 483 301
f 510 12 275
f 510 275 393
f 510 393 276
f 510 276 395
f 511 241 244
f 512 470 469
f 512 469 241
f 513 514 515
f 513 516 517
f 513 517 512
f 513 512 518
f 519 520 180
f 521 517 522
f 521 493 492
f 521 492 470
f 521 470 512
f 521 512 517
f 523 282 167
f 523 167 398
f 523 398 279
f 523 279 282
f 524 279 398
f 524 398 400
f 525 179 401
f 525 401 283
f 525 283 280
f 525 280 519
f 525 519 180
f 525 180 179
f 526 287 189
f 526 189 402
f 526 402 184
f 526 184 284
f 526 284 287
f 527 291 404
f 527 292 291
f 528 7 292
f 529 79 151
f 529 151 7
f 529 7 528
f 530 34 145
f 530 405 296
f 530 296 34
f 531 406 130
f 531 130 129
f 531 129 209
f 531 209 357
f 532 531 357
f 533 407 408
f 533 408 180
f 533 180 520
f 534 351 64
f 534 64 65
f 534 65 307
f 534 307 416
f 534 416 312
f 535 311 310
f 535 310 417
f 536 418 205
f 537 419 61
f 537 61 350
f 538 160 482
f 539 419 540
f 539 420 315
f 539 315 419
f 541 477 207
f 541 426 423
f 541 423 424
f 541 424 477
f 542 249 423
f 542 423 425
f 542 425 428
f 542 428 334
f 542 334 249
f 543 323 221
f 544 322 545
f 544 220 322
f 546 435 37
f 546 37 84
f 546 84 220
f 547 435 548
f 547 548 549
f 550 491 490
f 550 490 551
f 552 548 553
f 552 553 544
f 554 381 382
f 554 382 491
f 554 555 436
f 554 436 346
f 554 346 381
f 556 434 433
f 556 433 557
f 556 557 448
f 556 448 446
f 556 446 436
f 556 436 438
f 556 438 434
f 558 437 545
f 558 545 322
f 558 322 323
f 558 323 543
f 559 506 442
f 559 442 223
f 559 223 454
f 559 454 506
f 560 442 506
f 560 506 441
f 561 471 472
f 562 563 561
f 562 561 472
f 562 472 449
f 562 449 448
f 564 443 565
f 566 73 141
f 566 141 226
f 566 226 567
f 566 567 71
f 566 71 73
f 568 71 567
f 568 567 569
f 568 143 71
f 570 557 433
f 570 433 432
f 571 448 557
f 571 563 562
f 571 562 448
f 572 451 231
f 572 231 450
f 573 460 339
f 573 339 342
f 573 342 574
f 575 468 467
f 576 309 468
f 576 340 310
f 576 310 309
f 577 413 578
f 577 578 579
f 577 579 580
f 581 461 462
f 581 462 457
f 581 457 23
f 581 23 461
f 582 464 341
f 582 341 462
f 583 463 464
f 583 577 580
f 584 465 156
f 584 156 60
f 584 60 59
f 584 59 240
f 584 240 459
f 585 467 466
f 585 466 343
f 586 415 466
f 586 466 309
f 586 309 308
f 586 308 415
f 587 351 534
f 587 534 588
f 587 588 350
f 587 350 351
f 589 350 588
f 590 449 471
f 590 471 591
f 590 591 353
f 590 353 245
f 590 245 359
f 590 359 449
f 592 591 471
f 593 451 473
f 593 233 451
f 594 246 352
f 594 473 474
f 595 445 233
f 595 233 593
f 595 593 473
f 596 243 480
f 596 478 361
f 596 361 481
f 596 481 243
f 597 532 357
f 597 357 479
f 597 479 476
f 597 476 475
f 597 475 356
f 598 480 345
f 599 421 538
f 599 538 482
f 599 482 334
f 599 422 421
f 600 319 217
f 600 136 319
f 601 136 602
f 601 602 487
f 601 487 218
f 601 218 321
f 601 321 136
f 603 218 487
f 603 487 377
f 603 377 379
f 603 379 385
f 603 385 218
f 604 551 490
f 604 490 488
f 604 488 487
f 604 487 602
f 605 379 378
f 605 378 380
f 606 607 93
f 606 93 163
f 606 163 263
f 606 263 385
f 608 386 264
f 608 264 93
f 608 93 607
f 609 242 494
f 609 494 345
f 609 345 242
f 610 498 495
f 610 495 266
f 610 266 265
f 610 265 498
f 611 493 521
f 611 521 612
f 611 500 493
f 613 495 498
f 613 384 495
f 614 380 261
f 614 261 502
f 614 499 501
f 615 499 614
f 615 614 502
f 615 502 493
f 615 493 500
f 615 500 499
f 616 154 162
f 616 162 259
f 616 259 389
f 616 389 507
f 616 507 153
f 616 153 154
f 617 274 12
f 617 12 510
f 617 510 395
f 617 395 173
f 617 173 274
f 618 514 513
f 618 513 518
f 619 519 280
f 619 280 281
f 620 612 521
f 621 517 516
f 621 516 622
f 621 622 623
f 621 522 517
f 624 295 405
f 624 529 528
f 624 528 292
f 624 292 527
f 624 527 404
f 624 404 295
f 625 79 529
f 625 330 80
f 625 80 79
f 626 330 625
f 626 405 530
f 626 530 145
f 626 145 330
f 627 356 355
f 628 413 410
f 628 410 411
f 629 630 579
f 629 579 578
f 629 578 413
f 629 413 628
f 631 303 407
f 631 632 633
f 631 633 628
f 631 628 411
f 631 411 409
f 631 409 303
f 634 513 515
f 634 515 635
f 634 635 622
f 634 622 516
f 634 516 513
f 636 514 637
f 636 515 514
f 638 635 515
f 639 635 638
f 639 533 520
f 639 520 519
f 639 519 640
f 639 640 622
f 639 622 635
f 641 407 533
f 641 533 632
f 641 632 631
f 641 631 407
f 642 463 583
f 642 583 580
f 642 580 579
f 643 588 534
f 643 534 312
f 643 312 311
f 643 311 588
f 644 158 160
f 644 160 538
f 644 535 417
f 644 417 158
f 645 422 536
f 645 536 205
f 645 205 315
f 645 315 420
f 645 420 422
f 646 456 536
f 646 536 422
f 646 422 599
f 646 599 334
f 646 334 456
f 647 313 418
f 647 418 536
f 647 536 456
f 647 456 427
f 647 427 313
f 648 419 537
f 648 537 350
f 648 350 589
f 648 589 540
f 648 540 419
f 649 538 421
f 649 421 420
f 649 420 539
f 649 539 540
f 650 211 426
f 650 426 541
f 650 541 207
f 650 207 211
f 651 432 543
f 651 569 570
f 651 570 432
f 652 434 558
f 652 558 543
f 652 543 432
f 652 432 434
f 653 325 143
f 653 651 543
f 653 543 221
f 653 221 325
f 654 435 546
f 654 546 220
f 654 220 544
f 654 544 553
f 654 553 548
f 654 548 435
f 655 217 547
f 656 435 547
f 656 547 217
f 656 217 320
f 656 320 435
f 657 552 544
f 657 544 545
f 658 549 548
f 658 548 552
f 659 555 554
f 659 554 491
f 659 491 550
f 660 438 437
f 660 437 558
f 660 558 434
f 660 434 438
f 661 35 234
f 661 560 441
f 661 441 35
f 662 557 570
f 662 570 569
f 663 226 443
f 663 443 564
f 663 564 567
f 663 567 226
f 664 451 572
f 664 572 450
f 664 363 452
f 664 474 451
f 665 573 574
f 666 468 575
f 666 574 342
f 666 340 576
f 666 576 468
f 667 412 413
f 667 413 577
f 668 461 412
f 668 412 667
f 668 667 577
f 668 462 461
f 669 582 462
f 669 462 668
f 669 668 577
f 669 577 583
f 669 583 464
f 669 464 582
f 670 584 459
f 670 459 337
f 670 337 460
f 671 326 142
f 671 142 229
f 672 443 326
f 672 326 671
f 672 671 229
f 672 673 565
f 672 565 443
f 674 565 673
f 675 246 594
f 675 594 474
f 675 474 664
f 675 664 452
f 675 452 246
f 676 353 591
f 676 591 592
f 676 473 594
f 676 594 352
f 676 352 353
f 677 596 480
f 678 532 597
f 678 597 356
f 678 356 627
f 678 627 532
f 679 347 446
f 679 446 598
f 679 598 345
f 679 345 347
f 680 480 598
f 680 447 480
f 681 446 448
f 681 448 447
f 682 607 606
f 682 606 683
f 682 608 607
f 684 379 605
f 684 605 683
f 684 683 606
f 684 606 385
f 684 385 379
f 685 501 497
f 685 497 496
f 685 496 265
f 686 687 399
f 686 399 398
f 686 398 167
f 686 167 384
f 688 613 498
f 688 498 497
f 688 497 500
f 689 608 682
f 689 682 683
f 689 685 608
f 690 691 666
f 690 666 342
f 690 342 463
f 692 691 690
f 692 511 244
f 693 340 666
f 693 666 691
f 693 349 159
f 693 159 340
f 694 241 511
f 694 618 518
f 694 518 512
f 694 512 241
f 695 519 619
f 695 623 622
f 695 622 640
f 695 640 519
f 696 524 400
f 696 695 619
f 696 619 281
f 696 281 279
f 696 279 524
f 697 698 400
f 697 400 399
f 697 620 521
f 697 521 522
f 697 522 698
f 699 529 624
f 699 624 405
f 699 405 626
f 699 626 625
f 699 625 529
f 700 633 632
f 700 636 637
f 700 637 630
f 700 630 629
f 700 629 628
f 700 628 633
f 701 533 639
f 701 639 638
f 701 632 533
f 702 463 642
f 703 630 637
f 703 637 514
f 703 642 579
f 703 579 630
f 704 588 311
f 704 311 535
f 704 535 644
f 705 644 538
f 705 538 649
f 705 649 540
f 706 651 653
f 706 653 143
f 706 143 568
f 706 568 569
f 706 569 651
f 707 549 659
f 707 659 550
f 707 550 551
f 707 655 547
f 707 547 549
f 708 600 217
f 708 217 655
f 708 655 707
f 708 707 551
f 708 551 604
f 708 604 602
f 708 602 136
f 708 136 600
f 709 437 439
f 709 552 657
f 709 657 545
f 709 545 437
f 710 552 709
f 710 709 439
f 710 439 436
f 710 436 555
f 711 658 552
f 711 552 710
f 711 710 555
f 711 555 659
f 711 659 549
f 711 549 658
f 712 235 236
f 712 236 324
f 712 324 442
f 712 442 560
f 712 560 661
f 712 661 234
f 712 234 235
f 713 564 662
f 713 662 569
f 713 569 567
f 713 567 564
f 714 563 662
f 714 662 564
f 714 564 565
f 714 561 563
f 715 571 557
f 715 557 662
f 715 662 563
f 715 563 571
f 716 363 664
f 716 664 450
f 717 467 585
f 717 585 343
f 717 343 465
f 718 467 717
f 718 665 574
f 718 574 666
f 718 666 575
f 718 575 467
f 719 720 673
f 719 673 672
f 719 672 229
f 719 229 328
f 719 328 445
f 719 445 595
f 719 595 720
f 721 561 674
f 721 674 592
f 721 592 471
f 721 471 561
f 722 565 674
f 722 674 561
f 722 561 714
f 722 714 565
f 723 720 595
f 723 676 592
f 723 592 674
f 723 674 673
f 723 673 720
f 724 247 354
f 724 354 475
f 724 475 478
f 725 724 677
f 725 677 480
f 726 596 677
f 726 677 724
f 726 724 478
f 726 478 596
f 727 680 598
f 727 598 446
f 727 446 681
f 727 681 447
f 727 447 680
f 728 608 685
f 728 685 265
f 728 265 386
f 728 386 608
f 729 686 384
f 729 384 613
f 730 613 688
f 731 614 501
f 731 501 685
f 731 685 689
f 731 689 683
f 732 511 692
f 732 692 690
f 732 690 511
f 733 692 244
f 733 244 349
f 733 349 693
f 733 693 691
f 733 691 692
f 734 694 511
f 735 400 698
f 735 698 522
f 735 522 621
f 735 621 623
f 736 612 620
f 736 620 697
f 736 697 399
f 736 399 687
f 737 738 450
f 737 450 329
f 737 329 195
f 737 195 28
f 737 28 297
f 739 355 363
f 739 627 355
f 740 636 700
f 740 700 632
f 740 632 701
f 740 701 638
f 740 638 515
f 740 515 636
f 741 690 463
f 741 463 702
f 741 702 511
f 741 511 690
f 742 618 734
f 742 734 702
f 742 702 642
f 742 642 703
f 742 703 514
f 742 514 618
f 743 589 588
f 743 588 704
f 743 704 644
f 743 644 705
f 743 705 540
f 743 540 589
f 744 665 718
f 744 718 717
f 744 717 465
f 744 670 460
f 744 460 573
f 744 573 665
f 745 676 723
f 745 723 595
f 745 595 473
f 745 473 676
f 746 358 725
f 746 725 480
f 746 480 358
f 747 724 725
f 747 725 358
f 747 358 247
f 747 247 724
f 748 686 729
f 748 729 613
f 748 613 730
f 748 612 736
f 748 736 687
f 748 687 686
f 749 500 611
f 749 611 612
f 749 612 748
f 749 748 730
f 749 730 688
f 749 688 500
f 750 605 380
f 750 380 614
f 750 614 731
f 750 731 683
f 750 683 605
f 751 702 734
f 751 734 511
f 751 511 702
f 752 694 734
f 752 734 618
f 752 618 694
f 753 695 696
f 753 696 400
f 753 400 735
f 753 735 623
f 753 623 695
f 754 532 755
f 754 755 406
f 754 406 531
f 754 531 532
f 756 627 739
f 756 755 532
f 756 532 627
f 757 755 738
f 757 738 737
f 757 737 297
f 757 297 406
f 757 406 755
f 758 716 450
f 758 450 738
f 758 738 755
f 758 755 756
f 758 756 739
f 758 739 363
f 758 363 716
f 759 584 670
f 759 670 744
f 759 744 465
f 759 465 584
