# Normalized convex hull collision mesh - generated by scripts/generate-collision-meshes.mjs (units: meters)
v 0.001484 -0.004420 0.000100
v 0.005956 -0.003858 0.001793
v 0.005018 -0.000968 0.012500
v 0.001484 -0.003191 -0.012500
v -0.005170 0.003191 -0.012500
v 0.001484 0.003191 -0.012500
v 0.005956 0.003757 -0.011310
v 0.005021 0.000967 0.012500
v 0.004698 0.000535 0.012500
v -0.005170 -0.004355 0.000345
v -0.005170 -0.004701 -0.001201
v 0.004698 -0.000535 0.012500
v 0.005960 -0.003871 0.001684
v 0.001484 -0.004999 -0.004997
v 0.005956 -0.003872 -0.011076
v -0.005170 -0.003191 -0.012500
v 0.005383 -0.000107 0.012500
v -0.005170 -0.003868 0.001801
v 0.001484 -0.004773 -0.001640
v -0.005170 -0.004933 -0.003015
v 0.001496 -0.004861 -0.002406
v -0.006000 -0.004154 -0.005026
v -0.006000 0.004089 -0.004365
v -0.006000 0.004154 -0.005026
v -0.005194 0.003191 -0.012425
v 0.004863 0.000890 0.012500
v 0.004866 -0.000893 0.012500
v 0.001484 -0.004954 -0.003299
v 0.001489 0.003215 -0.012496
v -0.005170 0.003224 -0.012492
v 0.001494 0.003239 -0.012482
v 0.001484 0.004420 -0.009491
v 0.001496 0.004105 -0.010501
v -0.005170 0.004355 -0.009736
v -0.005184 0.003578 -0.011826
v 0.001484 0.003282 -0.012430
v -0.005170 0.003282 -0.012430
v -0.005184 0.003794 -0.011345
v 0.005242 -0.000761 0.012500
v -0.006000 0.004154 -0.004365
v 0.005956 0.003804 -0.011289
v 0.001490 0.003259 -0.012463
v 0.001496 -0.004683 -0.001177
v 0.005956 -0.003868 0.001741
v -0.005189 -0.004892 -0.006614
v -0.005170 -0.004915 -0.006586
v -0.006000 -0.004154 -0.004365
v -0.005170 -0.005000 -0.004870
v -0.005194 -0.003191 -0.012417
v 0.004793 0.000789 0.012500
v 0.004939 -0.000950 0.012500
v 0.004746 -0.000688 0.012500
v 0.005956 -0.003757 -0.011310
v 0.005960 -0.003757 -0.011308
v 0.005956 -0.003811 -0.011283
v 0.005978 -0.003815 -0.011241
v 0.005956 -0.003831 -0.011254
v 0.005956 -0.003849 -0.011216
v 0.005956 -0.003862 -0.011172
v 0.005967 -0.003868 -0.011076
v 0.001496 -0.004970 -0.003846
v 0.001496 -0.004970 -0.005546
v 0.001484 -0.004887 -0.006869
v 0.005956 -0.003869 -0.011125
v -0.005170 0.003868 -0.011192
v 0.005956 0.003844 -0.011227
v -0.005183 0.003277 -0.012418
v -0.005181 0.003191 -0.012488
v -0.005186 0.003191 -0.012472
v 0.001496 0.003539 -0.011900
v 0.005286 0.000655 0.012500
v 0.005956 0.003861 0.001780
v 0.001484 0.004227 0.000782
v 0.005956 0.003849 0.001824
v 0.005967 0.003868 0.001684
v 0.005956 0.003869 0.001733
v 0.006000 -0.003757 0.001684
v 0.006000 -0.003757 -0.011076
v 0.006000 0.003757 -0.011076
v 0.005965 -0.003869 0.001684
v 0.005099 -0.000940 0.012500
v 0.004940 0.000951 0.012500
v -0.005170 0.003861 0.001819
v -0.005173 0.003282 0.003038
v -0.005189 0.003544 0.002479
v -0.005181 0.003278 0.003030
v -0.005176 0.003281 0.003037
v -0.005190 0.003266 0.003002
v -0.005170 0.004343 0.000386
v -0.005189 0.004060 0.001219
v 0.005996 -0.003804 -0.011076
v 0.005995 -0.003757 -0.011185
v 0.005999 -0.003757 -0.011133
v 0.005956 0.003858 -0.011185
v 0.005974 0.003861 -0.011076
v 0.005956 0.003868 -0.011133
v 0.005996 0.003757 -0.011172
v 0.005991 0.003757 -0.011216
v 0.001487 0.003271 -0.012448
v -0.005189 -0.004528 -0.000442
v -0.005189 -0.004821 -0.002128
v -0.005189 -0.004111 0.001069
v -0.005189 -0.004954 -0.005752
v -0.005189 -0.004968 -0.003973
v -0.005190 -0.003266 -0.012393
v -0.005187 -0.003191 -0.012467
v -0.005186 -0.003273 -0.012409
v 0.004740 0.000670 0.012500
v 0.004802 -0.000805 0.012500
v 0.005967 0.003757 -0.011303
v 0.005976 0.003757 -0.011283
v 0.005987 0.003814 -0.011193
v 0.001488 -0.003264 -0.012457
v 0.001484 -0.003282 -0.012430
v 0.001484 -0.003794 -0.011373
v -0.005170 -0.004693 -0.008236
v -0.005170 -0.004343 -0.009778
v 0.001484 -0.004610 -0.008667
v 0.001484 -0.004227 -0.010174
v 0.005976 -0.003858 -0.011076
v 0.005984 -0.003844 -0.011076
v 0.005956 -0.003871 -0.011100
v -0.005189 0.004111 -0.010460
v -0.005189 0.004340 -0.009705
v 0.001484 0.003917 -0.011069
v 0.005956 0.003871 0.001708
v 0.005956 0.003872 0.001684
v -0.005176 0.003191 -0.012497
v -0.005177 -0.003191 -0.012496
v -0.005192 0.003264 -0.012388
v -0.005177 0.003281 -0.012427
v 0.005171 0.000875 0.012500
v 0.005978 0.003814 0.001849
v 0.005383 0.000101 0.012500
v 0.005999 -0.003757 0.001733
v 0.005999 0.003757 0.001741
v 0.006000 -0.003757 0.001708
v 0.006000 0.003757 0.001684
v 0.005175 -0.000869 0.012500
v 0.005987 -0.003815 0.001801
v 0.005366 -0.000303 0.012500
v 0.005974 -0.003862 0.001684
v -0.005170 0.003224 0.003101
v -0.005189 0.003824 0.001847
v -0.005192 0.003191 0.003052
v -0.005194 0.003191 0.003026
v -0.005186 0.003273 0.003018
v -0.005183 0.003191 0.003092
v 0.001484 0.004999 -0.004395
v -0.005189 0.004291 0.000489
v 0.005991 -0.003826 -0.011076
v 0.005999 -0.003781 -0.011076
v 0.005965 0.003869 -0.011076
v 0.005982 0.003849 -0.011076
v 0.005989 0.003831 -0.011076
v 0.005999 0.003757 -0.011125
v -0.005189 -0.004340 0.000314
v -0.005189 -0.004685 -0.001232
v -0.005189 -0.003855 0.001770
v -0.005194 -0.003191 0.003033
v -0.005183 -0.003191 -0.012484
v -0.005194 -0.003258 -0.012374
v -0.005192 -0.003191 -0.012444
v 0.005956 0.003781 -0.011304
v 0.005956 0.003826 -0.011263
v 0.001489 -0.003216 -0.012496
v 0.001491 -0.003252 -0.012471
v 0.001494 -0.003239 -0.012482
v -0.005170 -0.003255 -0.012468
v -0.005189 -0.003544 -0.011870
v -0.005189 -0.003824 -0.011238
v 0.001496 -0.004684 -0.008209
v -0.005189 -0.004797 -0.007442
v -0.005189 -0.004507 -0.009043
v -0.005189 -0.004291 -0.009881
v 0.001496 -0.004437 -0.009363
v -0.005189 -0.004060 -0.010610
v 0.001496 -0.004911 -0.006479
v -0.005183 0.003846 -0.011220
v -0.005173 0.003191 -0.012499
v -0.005190 0.003191 -0.012451
v -0.005184 0.003354 -0.012275
v -0.005170 0.003255 -0.012468
v 0.005099 0.000940 0.012500
v 0.005232 0.000781 0.012500
v 0.005995 0.003811 -0.011076
v 0.005366 0.000306 0.012500
v 0.005999 0.003781 0.001684
v 0.005996 0.003804 0.001684
v 0.005956 -0.003844 0.001836
v 0.005996 -0.003757 0.001780
v 0.005296 -0.000627 0.012500
v 0.005982 -0.003849 0.001684
v -0.005177 0.003191 0.003104
v -0.005170 0.003255 0.003077
v -0.005194 0.003258 0.002982
v 0.005974 -0.003757 -0.011289
v 0.005982 -0.003757 -0.011263
v 0.005989 -0.003757 -0.011227
v 0.005984 0.003757 -0.011254
v 0.006000 -0.003769 -0.011076
v 0.005999 -0.003785 0.001684
v 0.005960 0.003871 -0.011076
v 0.005976 0.003858 0.001684
v 0.006000 0.003757 -0.011100
v -0.005183 -0.003846 0.001828
v -0.005192 -0.003264 0.002997
v -0.005187 0.003191 0.003075
v -0.005170 -0.003255 0.003077
v -0.005170 -0.003282 0.003039
v 0.005956 0.003769 -0.011308
v 0.005956 -0.003785 -0.011303
v -0.005170 -0.003224 -0.012492
v -0.005181 -0.003278 -0.012421
v -0.005170 -0.003861 -0.011211
v -0.005173 -0.003282 -0.012430
v -0.005189 -0.004667 -0.008262
v -0.005189 0.003855 -0.011161
v -0.005187 0.003271 -0.012405
v 0.005995 0.003757 0.001793
v 0.005333 0.000495 0.012500
v 0.005999 0.003785 -0.011076
v 0.006000 0.003769 0.001684
v 0.005336 -0.000477 0.012500
v 0.005989 -0.003831 0.001684
v 0.001484 0.004887 -0.002523
v 0.001496 0.004821 -0.002079
v -0.005170 0.004701 -0.008190
v -0.005170 0.005000 -0.004522
v 0.005984 0.003844 0.001684
v -0.005184 -0.003578 0.002435
v -0.005184 -0.003354 0.002884
v -0.005176 -0.003191 0.003105
v -0.005170 -0.003224 0.003101
v -0.005183 -0.003277 0.003027
v 0.005965 -0.003757 -0.011304
v -0.005176 -0.003281 -0.012428
v -0.005170 -0.003282 -0.012430
v 0.005995 -0.003811 0.001684
v 0.001496 0.004683 -0.001181
v 0.001484 0.004610 -0.000725
v 0.001496 0.004463 -0.000132
v 0.001496 0.004970 -0.003845
v 0.001484 0.004954 -0.006093
v 0.001496 0.004854 -0.007040
v -0.005170 0.004933 -0.006377
v -0.005189 0.004821 -0.007263
v -0.005189 0.004528 -0.008950
v -0.005189 0.004981 -0.004696
v 0.005991 0.003826 0.001684
v -0.005184 -0.003794 0.001954
v -0.005177 -0.003281 0.003036
v -0.005181 -0.003191 0.003096
v 0.001496 0.004911 -0.002911
v 0.001496 0.004970 -0.005545
v 0.001484 0.004773 -0.007752
v 0.001496 0.004683 -0.008213
v -0.005189 0.004685 -0.008159
v 0.001496 0.004505 -0.009080
v -0.005170 0.004693 -0.001155
v -0.005170 0.004915 -0.002806
v -0.005189 0.004797 -0.001949
v -0.005186 -0.003191 0.003081
v -0.005189 0.004507 -0.000348
v -0.005189 0.004667 -0.001130
v -0.005189 0.004954 -0.003639
v -0.005189 0.004892 -0.002777
v -0.005190 -0.003191 0.003059
v -0.005187 -0.003271 0.003014
f 1 2 3
f 4 5 6
f 4 6 7
f 8 9 3
f 10 11 1
f 10 1 3
f 12 3 9
f 13 14 15
f 16 5 4
f 17 8 3
f 18 10 3
f 19 20 21
f 22 23 24
f 22 24 25
f 26 9 8
f 27 3 12
f 28 21 20
f 29 6 5
f 29 5 30
f 29 30 31
f 32 33 34
f 35 36 37
f 35 24 38
f 39 17 3
f 40 24 23
f 41 31 42
f 43 11 19
f 43 19 2
f 43 2 1
f 43 1 11
f 44 2 19
f 44 19 21
f 44 21 28
f 44 28 13
f 45 46 22
f 47 23 22
f 48 47 22
f 48 46 14
f 49 22 25
f 50 9 26
f 51 3 27
f 52 27 12
f 53 4 7
f 53 7 54
f 55 56 57
f 58 57 56
f 58 56 59
f 60 13 15
f 61 13 28
f 61 28 48
f 61 48 14
f 61 14 13
f 62 14 46
f 62 46 63
f 64 59 60
f 65 66 35
f 65 35 38
f 67 30 68
f 67 68 69
f 70 36 35
f 70 35 66
f 70 66 36
f 71 8 17
f 72 73 8
f 72 8 74
f 72 75 76
f 77 78 79
f 80 13 60
f 80 44 13
f 81 39 3
f 81 3 2
f 82 83 84
f 82 26 8
f 82 8 83
f 85 86 87
f 85 87 84
f 85 84 83
f 88 85 40
f 89 90 83
f 89 83 8
f 89 8 73
f 91 56 92
f 91 92 93
f 94 66 33
f 94 33 32
f 95 94 96
f 97 93 92
f 97 92 98
f 99 37 36
f 100 11 10
f 101 47 20
f 101 20 19
f 101 19 11
f 102 10 18
f 103 46 48
f 103 48 22
f 103 22 46
f 104 47 48
f 104 48 28
f 104 28 20
f 104 20 47
f 105 106 107
f 108 9 50
f 109 27 52
f 110 41 111
f 110 54 7
f 112 66 94
f 112 94 95
f 112 97 98
f 112 111 41
f 113 55 57
f 113 57 114
f 115 114 57
f 115 57 58
f 116 117 118
f 116 63 46
f 119 58 59
f 120 60 59
f 120 59 56
f 120 56 121
f 122 63 64
f 122 64 60
f 122 60 15
f 122 15 14
f 122 14 62
f 123 124 34
f 123 34 65
f 123 24 124
f 125 33 66
f 125 66 65
f 125 65 34
f 125 34 33
f 126 75 127
f 126 76 75
f 128 129 68
f 128 68 30
f 130 25 24
f 131 35 37
f 132 8 71
f 133 74 132
f 133 72 74
f 134 135 136
f 134 71 17
f 134 17 135
f 137 136 135
f 138 136 137
f 138 137 77
f 138 77 79
f 139 39 81
f 139 140 39
f 141 17 39
f 142 80 60
f 142 60 120
f 142 140 2
f 142 2 44
f 142 44 80
f 143 108 50
f 143 50 26
f 144 90 40
f 144 40 85
f 144 85 83
f 144 83 90
f 145 40 146
f 147 85 88
f 147 148 86
f 147 86 85
f 149 126 127
f 150 90 89
f 150 40 90
f 151 56 91
f 151 121 56
f 152 91 93
f 153 75 95
f 153 95 96
f 154 155 112
f 154 112 95
f 156 93 97
f 157 47 100
f 157 100 10
f 157 10 102
f 157 102 47
f 158 11 100
f 158 100 47
f 158 47 101
f 158 101 11
f 159 47 102
f 160 145 146
f 160 146 40
f 160 40 23
f 160 23 47
f 161 68 129
f 161 107 106
f 161 106 69
f 161 69 68
f 162 105 22
f 163 106 105
f 163 105 162
f 163 162 22
f 163 22 49
f 163 49 25
f 164 41 110
f 164 29 31
f 164 31 41
f 165 66 112
f 165 112 41
f 165 41 42
f 165 42 99
f 165 99 36
f 165 36 66
f 166 16 4
f 166 4 53
f 167 168 55
f 167 55 113
f 167 113 169
f 167 169 168
f 170 171 22
f 170 22 105
f 170 105 107
f 172 64 63
f 172 63 116
f 172 116 118
f 172 118 59
f 172 59 64
f 173 116 46
f 173 46 45
f 173 45 22
f 174 117 116
f 174 22 175
f 174 175 117
f 176 118 117
f 176 117 119
f 176 119 59
f 176 59 118
f 177 117 175
f 177 175 22
f 177 22 171
f 178 63 122
f 178 122 62
f 178 62 63
f 179 123 65
f 179 65 38
f 180 5 16
f 180 16 129
f 180 129 128
f 180 128 30
f 180 30 5
f 181 25 130
f 181 69 106
f 181 106 163
f 181 163 25
f 182 35 131
f 182 131 67
f 182 24 35
f 183 30 67
f 183 67 131
f 183 131 37
f 183 37 99
f 183 99 42
f 183 42 31
f 183 31 30
f 184 8 132
f 184 132 74
f 184 74 8
f 185 71 133
f 185 133 132
f 185 132 71
f 186 112 155
f 187 71 134
f 188 189 136
f 190 2 140
f 190 140 139
f 190 139 81
f 190 81 2
f 191 135 17
f 191 17 141
f 191 141 140
f 192 141 39
f 192 39 140
f 193 140 142
f 193 142 120
f 193 120 121
f 194 9 108
f 194 108 143
f 194 143 148
f 195 82 84
f 195 84 87
f 195 87 86
f 195 86 148
f 195 148 143
f 195 143 26
f 196 40 145
f 196 145 88
f 196 88 40
f 197 111 198
f 197 198 56
f 197 110 111
f 199 92 56
f 199 56 198
f 199 98 92
f 200 98 199
f 200 199 198
f 200 198 111
f 200 111 112
f 200 112 98
f 201 152 93
f 201 93 78
f 201 78 77
f 202 91 152
f 202 152 201
f 202 201 77
f 202 77 137
f 202 137 135
f 202 135 191
f 202 191 140
f 203 149 127
f 203 127 75
f 203 75 153
f 203 153 96
f 204 75 72
f 204 72 133
f 204 154 95
f 204 95 75
f 205 78 93
f 205 93 156
f 205 79 78
f 206 159 102
f 206 102 18
f 207 160 47
f 208 148 147
f 208 147 88
f 208 88 145
f 209 210 51
f 209 51 27
f 211 7 6
f 211 6 29
f 211 29 164
f 211 164 110
f 211 110 7
f 212 55 168
f 212 168 166
f 212 166 53
f 212 53 54
f 212 197 56
f 212 56 55
f 213 169 161
f 213 161 129
f 213 129 16
f 213 16 166
f 213 166 168
f 213 168 169
f 214 170 107
f 214 107 161
f 214 161 169
f 215 115 58
f 215 58 119
f 215 119 117
f 215 117 177
f 215 177 171
f 215 171 170
f 215 170 216
f 217 22 174
f 217 174 116
f 217 116 173
f 217 173 22
f 218 24 123
f 218 123 179
f 218 179 38
f 218 38 24
f 219 130 24
f 219 24 182
f 219 182 67
f 219 67 69
f 219 69 181
f 219 181 130
f 220 136 189
f 220 189 133
f 220 187 134
f 220 134 136
f 221 71 187
f 221 187 220
f 221 220 133
f 221 133 71
f 222 186 189
f 222 189 188
f 222 79 205
f 222 205 156
f 222 156 97
f 222 97 112
f 222 112 186
f 223 138 79
f 223 79 222
f 223 222 188
f 223 188 136
f 223 136 138
f 224 141 192
f 224 192 140
f 224 140 141
f 225 140 193
f 225 193 121
f 225 121 151
f 195 82 195
f 195 195 26
f 195 26 82
f 226 227 76
f 226 76 126
f 228 32 34
f 229 24 40
f 230 155 154
f 230 154 204
f 230 204 133
f 231 232 47
f 231 18 3
f 231 3 51
f 231 51 210
f 233 52 12
f 233 12 9
f 233 9 194
f 234 109 52
f 234 52 233
f 234 235 209
f 234 209 27
f 234 27 109
f 236 197 212
f 236 212 54
f 236 54 110
f 236 110 197
f 237 170 214
f 237 214 169
f 237 169 216
f 237 216 170
f 238 115 215
f 238 215 216
f 238 216 169
f 238 169 113
f 238 113 114
f 238 114 115
f 239 91 202
f 239 202 140
f 239 140 225
f 239 225 151
f 239 151 91
f 240 76 227
f 240 241 72
f 240 72 76
f 242 73 72
f 242 72 241
f 242 241 89
f 242 89 73
f 243 126 149
f 244 203 96
f 244 96 245
f 244 245 246
f 244 246 229
f 247 24 246
f 248 228 34
f 248 34 124
f 248 124 24
f 249 24 229
f 249 229 246
f 249 246 24
f 250 155 230
f 250 230 133
f 250 133 189
f 250 189 186
f 250 186 155
f 251 159 206
f 251 206 18
f 251 18 231
f 251 231 47
f 251 47 159
f 252 209 235
f 252 235 232
f 252 232 231
f 252 231 210
f 252 210 209
f 253 235 234
f 253 234 233
f 253 233 194
f 253 194 148
f 254 126 243
f 254 243 226
f 254 226 126
f 255 203 244
f 255 244 229
f 255 229 149
f 255 149 203
f 256 245 96
f 256 96 94
f 256 94 257
f 256 257 228
f 256 228 247
f 256 247 246
f 256 246 245
f 258 228 248
f 258 248 24
f 258 24 247
f 258 247 228
f 259 228 257
f 259 257 94
f 259 94 32
f 259 32 228
f 260 241 240
f 260 240 227
f 260 227 226
f 260 89 241
f 261 262 260
f 261 260 226
f 261 226 243
f 261 243 149
f 261 149 229
f 263 235 253
f 263 253 148
f 263 148 208
f 264 89 260
f 264 40 150
f 264 150 89
f 265 40 264
f 265 264 260
f 265 260 262
f 265 262 40
f 266 40 261
f 266 261 229
f 266 229 40
f 267 262 261
f 267 261 40
f 267 40 262
f 268 145 160
f 268 160 207
f 268 263 208
f 268 208 145
f 269 235 263
f 269 263 268
f 269 268 207
f 269 207 47
f 269 47 232
f 269 232 235
