# Convex hull collision mesh — generated by scripts/generate-collision-meshes.mjs (units: meters)
v -0.000000 0.005000 0.000000
v 0.005000 -0.000000 0.000000
v -0.005000 -0.000000 0.000000
v 0.000000 -0.005000 0.000000
v 0.002169 0.004505 0.000000
v -0.003536 0.003536 0.000000
v -0.003536 -0.003536 0.000000
v 0.004234 0.002660 0.000000
v 0.001113 0.004875 0.000000
v -0.004719 -0.001651 0.000000
v -0.001651 -0.004719 0.000000
v 0.004969 0.000560 0.019500
v 0.005000 -0.000000 0.001000
v 0.003536 -0.003536 0.000000
v 0.003117 0.003909 0.000000
v 0.000560 0.004969 0.019500
v 0.000000 0.005000 0.001000
v 0.000000 0.005000 0.019500
v -0.002169 0.004505 0.000000
v -0.005000 -0.000000 0.001000
v -0.004969 0.000560 0.019500
v -0.000560 -0.004969 0.019500
v -0.000000 -0.005000 0.019500
v -0.004969 -0.000560 0.000000
v -0.004719 -0.001651 0.019500
v -0.004875 -0.001113 0.019500
v -0.004234 -0.002660 0.000000
v -0.002660 -0.004234 0.000000
v 0.004719 0.001651 0.000000
v 0.004719 -0.001651 0.000000
v 0.002660 -0.004234 0.000000
v -0.000142 -0.000374 0.026000
v -0.000048 0.000397 0.026000
v -0.000400 0.000000 0.026000
v 0.003909 0.003117 0.000000
v 0.003117 0.003909 0.001000
v 0.002660 0.004234 0.019500
v 0.002660 0.004234 0.000000
v 0.001651 0.004719 0.000000
v 0.001651 0.004719 0.001000
v 0.000560 0.004969 0.000000
v 0.001113 0.004875 0.001000
v -0.000560 0.004969 0.000000
v -0.002660 0.004234 0.001000
v -0.002169 0.004505 0.001000
v -0.003536 0.003536 0.001000
v -0.003117 0.003909 0.001000
v -0.003117 0.003909 0.000000
v -0.001651 0.004719 0.001000
v -0.001113 0.004875 0.019500
v -0.001113 0.004875 0.001000
v -0.000354 0.000186 0.026000
v -0.000142 0.000374 0.026000
v -0.000051 0.000419 0.025997
v -0.004987 -0.000000 0.019611
v -0.004952 0.000590 0.019611
v -0.004719 0.001651 0.000000
v -0.000560 -0.004969 0.000000
v -0.004875 -0.001113 0.000000
v -0.004505 -0.002169 0.000000
v -0.003909 -0.003117 0.001000
v -0.003536 -0.003536 0.019500
v -0.003117 -0.003909 0.001000
v -0.002660 -0.004234 0.019500
v -0.002169 -0.004505 0.000000
v -0.001651 -0.004719 0.019500
v -0.001113 -0.004875 0.019500
v 0.004969 0.000560 0.000000
v 0.002103 -0.004416 0.019812
v 0.000170 -0.000447 0.025962
v 0.001566 -0.004633 0.019812
v 0.000560 -0.004969 0.019500
v 0.001007 -0.004786 0.019812
v 0.004969 -0.000560 0.001000
v 0.001651 -0.004719 0.000000
v 0.003117 -0.003909 0.000000
v 0.003117 -0.003909 0.019500
v 0.004234 -0.002660 0.000000
v 0.004505 -0.002169 0.019500
v 0.004234 -0.002660 0.019500
v 0.004141 -0.002602 0.019812
v 0.003824 -0.003049 0.019812
v 0.003870 -0.003087 0.019717
v 0.003536 0.003536 0.000000
v 0.002169 0.004505 0.019500
v -0.003536 0.003536 0.019500
v -0.002660 0.004234 0.000000
v -0.001113 0.004875 0.000000
v -0.001651 0.004719 0.019500
v -0.000560 0.004969 0.001000
v -0.000388 0.000096 0.026000
v -0.000374 0.000196 0.025997
v -0.000316 0.000280 0.025997
v -0.000332 0.000294 0.025990
v -0.000299 0.000265 0.026000
v -0.000150 0.000395 0.025997
v -0.000157 0.000415 0.025990
v -0.005000 -0.000000 0.019500
v -0.004969 0.000560 0.000000
v -0.004234 -0.002660 0.019500
v -0.000148 -0.004985 0.019611
v -0.000558 -0.004956 0.019611
v -0.000548 -0.004860 0.019812
v -0.000145 -0.004889 0.019812
v -0.000058 -0.000475 0.025962
v -0.000170 -0.000447 0.025962
v -0.001088 -0.004768 0.019812
v -0.004708 -0.001647 0.019611
v -0.004494 -0.002164 0.019611
v -0.004673 -0.001635 0.019717
v -0.003909 -0.003117 0.000000
v -0.003117 -0.003909 0.000000
v -0.003117 -0.003909 0.019500
v -0.002169 -0.004505 0.019500
v -0.001315 -0.004811 0.019611
v -0.001647 -0.004708 0.019611
v -0.000736 -0.004933 0.019611
v -0.001113 -0.004875 0.000000
v 0.004875 0.001113 0.019500
v 0.004505 0.002169 0.000000
v 0.004505 0.002169 0.019500
v 0.000058 -0.000475 0.025962
v 0.004969 -0.000560 0.000000
v 0.004719 -0.001651 0.001000
v 0.004875 -0.001113 0.019500
v 0.005000 -0.000000 0.019500
v 0.000560 -0.004969 0.000000
v 0.001113 -0.004875 0.019500
v 0.001651 -0.004719 0.019500
v 0.001597 -0.004725 0.019611
v 0.002169 -0.004505 0.001000
v 0.000252 0.000365 0.025990
v 0.000263 0.000381 0.025978
v 0.000164 0.000432 0.025978
v 0.000051 0.000419 0.025997
v 0.000053 0.000440 0.025990
v 0.000056 0.000459 0.025978
v -0.000056 0.000459 0.025978
v 0.000058 0.000475 0.025962
v 0.000170 0.000447 0.025962
v 0.002122 0.004407 0.019812
v 0.001615 0.004616 0.019812
v -0.004919 -0.000554 0.019717
v -0.004860 -0.000548 0.019812
v -0.004891 -0.000000 0.019812
v -0.000464 -0.000114 0.025962
v -0.004768 -0.001088 0.019812
v 0.000464 -0.000114 0.025962
v 0.004860 -0.000548 0.019812
v 0.000478 -0.000000 0.025962
v 0.000227 0.000329 0.026000
v -0.000354 -0.000186 0.026000
v 0.002129 -0.004469 0.019717
v 0.002602 -0.004141 0.019812
v 0.003909 -0.003117 0.019500
v 0.004505 -0.002169 0.000000
v 0.000272 0.000394 0.025962
v 0.000358 0.000317 0.025962
v 0.003509 0.003407 0.019812
v 0.003082 0.003798 0.019812
v 0.000272 -0.000394 0.025962
v 0.000358 -0.000317 0.025962
v 0.003458 -0.003458 0.019812
v 0.004494 -0.002164 0.019611
v 0.004564 -0.002011 0.019611
v 0.004223 -0.002653 0.019611
v 0.004891 0.000000 0.019812
v 0.004882 0.000290 0.019812
v 0.004860 0.000548 0.019812
v 0.003536 0.003536 0.019500
v 0.003143 0.003873 0.019611
v 0.003579 0.003474 0.019611
v 0.000554 0.004919 0.019717
v 0.000548 0.004860 0.019812
v 0.001102 0.004826 0.019717
v 0.000558 0.004956 0.019611
v -0.001651 0.004719 0.000000
v -0.004916 0.000586 0.019717
v -0.004857 0.000578 0.019812
v -0.000240 0.000348 0.025997
v -0.000053 0.000440 0.025990
v -0.000263 0.000381 0.025978
v -0.000272 0.000394 0.025962
v -0.000358 0.000317 0.025962
v -0.000346 0.000307 0.025978
v 0.000000 0.004987 0.019611
v 0.000000 0.004950 0.019717
v -0.002169 0.004505 0.019500
v -0.001315 0.004811 0.019611
v -0.000410 0.000101 0.025997
v -0.000431 0.000106 0.025990
v -0.004969 -0.000560 0.001000
v -0.003301 0.003609 0.019812
v -0.003458 0.003458 0.019812
v -0.003705 0.003193 0.019812
v -0.003824 0.003049 0.019812
v -0.004875 0.001113 0.001000
v -0.004719 0.001651 0.019500
v -0.004407 -0.002122 0.019812
v -0.004141 -0.002602 0.019812
v -0.000423 -0.000222 0.025962
v -0.003909 -0.003117 0.019500
v -0.004223 -0.002653 0.019611
v -0.004505 -0.002169 0.019500
v -0.004057 -0.002732 0.019812
v -0.000358 -0.000317 0.025962
v -0.000409 -0.000215 0.025978
v 0.000443 -0.004968 0.019611
v -0.000722 -0.004837 0.019812
v -0.001102 -0.004826 0.019717
v -0.001615 -0.004616 0.019812
v -0.001838 -0.004532 0.019812
v -0.002361 -0.004283 0.019812
v -0.000272 -0.000394 0.025962
v -0.002602 -0.004141 0.019812
v -0.002390 -0.004335 0.019717
v -0.002908 -0.004052 0.019611
v -0.002408 -0.004368 0.019611
v -0.002164 -0.004494 0.019611
v -0.001110 -0.004862 0.019611
v 0.004234 0.002660 0.019500
v 0.004719 0.001651 0.001000
v 0.004875 0.001113 0.000000
v 0.000164 -0.000432 0.025978
v 0.004875 -0.001113 0.000000
v 0.004979 0.000295 0.019611
v 0.001113 -0.004875 0.000000
v 0.002169 -0.004505 0.000000
v 0.002660 -0.004234 0.019500
v 0.000157 0.000415 0.025990
v 0.000150 0.000395 0.025997
v 0.001088 0.004768 0.019812
v 0.003119 0.003844 0.019717
v 0.003552 0.003448 0.019717
v -0.001874 -0.004622 0.019611
v -0.001861 -0.004588 0.019717
v -0.004950 -0.000000 0.019717
v -0.004969 -0.000560 0.019500
v -0.004862 -0.001110 0.019611
v -0.000478 -0.000000 0.025962
v 0.000142 0.000374 0.026000
v 0.000240 0.000348 0.025997
v 0.000332 0.000294 0.025990
v 0.000299 -0.000265 0.026000
v -0.000299 -0.000265 0.026000
v -0.000316 -0.000280 0.025997
v -0.000240 -0.000348 0.025997
v -0.000263 -0.000381 0.025978
v -0.000346 -0.000307 0.025978
v -0.000252 -0.000365 0.025990
v 0.001585 -0.004690 0.019717
v 0.003110 -0.003899 0.019611
v 0.002653 -0.004223 0.019611
v 0.002634 -0.004192 0.019717
v 0.003087 -0.003870 0.019717
v 0.003909 -0.003117 0.000000
v 0.002611 0.004136 0.019812
v 0.000346 0.000307 0.025978
v 0.003888 0.002968 0.019812
v 0.000423 0.000222 0.025962
v 0.003049 -0.003824 0.019812
v 0.004530 -0.001996 0.019717
v 0.004476 -0.001972 0.019812
v 0.004407 -0.002122 0.019812
v 0.004673 -0.001635 0.019717
v 0.003117 0.003909 0.019500
v 0.002662 0.004217 0.019611
v 0.001651 0.004719 0.019500
v 0.002164 0.004494 0.019611
v 0.001647 0.004708 0.019611
v 0.001635 0.004673 0.019717
v 0.002148 0.004460 0.019717
v -0.003909 0.003117 0.001000
v -0.004234 0.002660 0.001000
v -0.004234 0.002660 0.019500
v -0.004505 0.002169 0.001000
v -0.004234 0.002660 0.000000
v -0.000409 0.000215 0.025978
v -0.000449 0.000111 0.025978
v -0.000227 0.000329 0.026000
v -0.001088 0.004768 0.019812
v -0.001102 0.004826 0.019717
v -0.001289 0.004718 0.019812
v -0.000170 0.000447 0.025962
v -0.000252 0.000365 0.025990
v -0.000164 0.000432 0.025978
v -0.000058 0.000475 0.025962
v -0.000145 0.004889 0.019812
v -0.000548 0.004860 0.019812
v 0.000000 0.004891 0.019812
v -0.000560 0.004969 0.019500
v -0.003117 0.003909 0.019500
v -0.004875 0.001113 0.000000
v -0.004875 0.001113 0.019500
v -0.004404 0.002261 0.019717
v -0.004641 0.001724 0.019717
v -0.004585 0.001703 0.019812
v -0.004351 0.002233 0.019812
v -0.004616 -0.001615 0.019812
v -0.004460 -0.002148 0.019717
v -0.004137 -0.002786 0.019611
v -0.003366 -0.003680 0.019611
v -0.003527 -0.003527 0.019611
v -0.003778 -0.003256 0.019611
v -0.003824 -0.003049 0.019812
v -0.003870 -0.003087 0.019717
v -0.003501 -0.003501 0.019717
v -0.003341 -0.003653 0.019717
v -0.003458 -0.003458 0.019812
v -0.000374 -0.000196 0.025997
v 0.000434 -0.004872 0.019812
v 0.001027 -0.004881 0.019611
v -0.000051 -0.000419 0.025997
v -0.000053 -0.000440 0.025990
v 0.000051 -0.000419 0.025997
v 0.000053 -0.000440 0.025990
v -0.000056 -0.000459 0.025978
v -0.000164 -0.000432 0.025978
v 0.000240 -0.000348 0.025997
v 0.000316 -0.000280 0.025997
v 0.000332 -0.000294 0.025990
v 0.000252 -0.000365 0.025990
v 0.000346 -0.000307 0.025978
v -0.000731 -0.004896 0.019717
v -0.001635 -0.004673 0.019717
v -0.001289 -0.004718 0.019812
v -0.002148 -0.004460 0.019717
v -0.002634 -0.004192 0.019717
v 0.004476 0.001972 0.019812
v 0.004616 0.001615 0.019812
v 0.004719 0.001651 0.019500
v 0.003909 0.003117 0.019500
v 0.000263 -0.000381 0.025978
v 0.004814 -0.000865 0.019812
v 0.004768 -0.001088 0.019812
v 0.004969 -0.000560 0.019500
v 0.004909 -0.000882 0.019611
v 0.004942 0.000293 0.019717
v 0.004956 0.000558 0.019611
v 0.002169 -0.004505 0.019500
v -0.004826 -0.001102 0.019717
v -0.004956 -0.000558 0.019611
v 0.000048 0.000397 0.026000
v 0.000142 -0.000374 0.026000
v 0.000374 -0.000196 0.025997
v 0.000449 -0.000111 0.025978
v 0.000443 -0.000000 0.025990
v 0.000422 -0.000000 0.025997
v 0.000431 -0.000106 0.025990
v 0.000464 0.000114 0.025962
v 0.004814 0.000865 0.019812
v 0.004768 0.001088 0.019812
v 0.000449 0.000111 0.025978
v -0.000227 -0.000329 0.026000
v -0.000157 -0.000415 0.025990
v -0.000332 -0.000294 0.025990
v -0.003301 -0.003609 0.019812
v -0.003049 -0.003824 0.019812
v -0.003087 -0.003870 0.019717
v 0.003536 -0.003536 0.019500
v 0.003527 -0.003527 0.019611
v 0.003899 -0.003110 0.019611
v 0.003501 -0.003501 0.019717
v 0.002643 0.004186 0.019717
v 0.004211 0.002487 0.019812
v 0.000423 -0.000222 0.025962
v 0.004708 -0.001647 0.019611
v 0.004678 -0.001428 0.019812
v 0.004460 -0.002148 0.019717
v 0.001113 0.004875 0.019500
v -0.003909 0.003117 0.019500
v -0.004505 0.002169 0.019500
v -0.004505 0.002169 0.000000
v -0.003909 0.003117 0.000000
v -0.000393 0.000206 0.025990
v -0.000722 0.004837 0.019812
v -0.000736 0.004933 0.019611
v -0.001874 0.004622 0.019611
v -0.002122 0.004407 0.019812
v -0.001838 0.004532 0.019812
v -0.003366 0.003680 0.019611
v -0.003527 0.003527 0.019611
v -0.003501 0.003501 0.019717
v -0.002660 0.004234 0.019500
v -0.003341 0.003653 0.019717
v -0.002602 0.004141 0.019812
v -0.002851 0.003974 0.019812
v -0.004848 0.001171 0.019611
v -0.000464 0.000114 0.025962
v -0.004754 0.001149 0.019812
v -0.004141 0.002602 0.019812
v -0.004106 0.002766 0.019717
v -0.004192 0.002634 0.019717
v -0.004106 -0.002766 0.019717
v -0.004192 -0.002634 0.019717
v -0.003110 -0.003899 0.019611
v -0.003899 -0.003110 0.019611
v -0.003750 -0.003232 0.019717
v -0.000410 -0.000101 0.025997
v 0.000000 -0.004891 0.019812
v 0.001020 -0.004844 0.019717
v -0.000048 -0.000397 0.026000
v 0.000157 -0.000415 0.025990
v 0.000056 -0.000459 0.025978
v -0.000554 -0.004919 0.019717
v -0.001305 -0.004775 0.019717
v -0.002122 -0.004407 0.019812
v -0.002653 -0.004223 0.019611
v 0.004673 0.001635 0.019717
v 0.003964 0.003026 0.019611
v 0.002145 -0.004503 0.019611
v 0.000316 0.000280 0.025997
v 0.000374 0.000196 0.025997
v 0.000388 0.000096 0.026000
v 0.000409 0.000215 0.025978
v 0.000227 -0.000329 0.026000
v 0.000462 -0.000000 0.025978
v 0.000431 0.000106 0.025990
v -0.000150 -0.000395 0.025997
v -0.000393 -0.000206 0.025990
v -0.002886 -0.004022 0.019717
v 0.004407 0.002122 0.019812
v 0.000409 -0.000215 0.025978
v 0.004862 -0.001110 0.019611
v 0.004719 -0.001651 0.019500
v 0.004616 -0.001615 0.019812
v 0.004735 -0.001446 0.019717
v 0.004192 -0.002634 0.019717
v 0.001110 0.004862 0.019611
v -0.004675 0.001737 0.019611
v -0.001110 0.004862 0.019611
v -0.000731 0.004896 0.019717
v -0.001305 0.004775 0.019717
v -0.001647 0.004708 0.019611
v -0.002164 0.004494 0.019611
v -0.002148 0.004460 0.019717
v -0.002390 0.004335 0.019717
v -0.002408 0.004368 0.019611
v -0.002908 0.004052 0.019611
v -0.003049 0.003824 0.019812
v -0.002361 0.004283 0.019812
v -0.004812 0.001163 0.019717
v -0.000423 0.000222 0.025962
v -0.003778 0.003256 0.019611
v -0.003899 0.003110 0.019611
v -0.003870 0.003087 0.019717
v -0.004137 0.002786 0.019611
v -0.004223 0.002653 0.019611
v -0.003705 -0.003193 0.019812
v -0.000422 -0.000000 0.025997
v -0.000388 -0.000096 0.026000
v 0.000000 -0.004987 0.019611
v 0.000000 -0.004950 0.019717
v 0.000440 -0.004931 0.019717
v 0.000048 -0.000397 0.026000
v 0.000150 -0.000395 0.025997
v -0.000147 -0.004948 0.019717
v 0.004678 0.001428 0.019812
v 0.004564 0.002011 0.019611
v 0.003935 0.003004 0.019717
v 0.004263 0.002517 0.019717
v 0.004294 0.002536 0.019611
v 0.004979 -0.000295 0.019611
v 0.004919 -0.000554 0.019717
v 0.004872 -0.000876 0.019717
v 0.004882 -0.000290 0.019812
v 0.004942 -0.000293 0.019717
v 0.004826 0.001102 0.019717
v 0.004708 0.001647 0.019611
v 0.004770 0.001457 0.019611
v 0.004862 0.001110 0.019611
v 0.000299 0.000265 0.026000
v 0.000388 -0.000096 0.026000
v 0.000410 0.000101 0.025997
v 0.000393 0.000206 0.025990
v -0.002851 -0.003974 0.019812
v 0.000393 -0.000206 0.025990
v 0.004826 -0.001102 0.019717
v 0.004770 -0.001457 0.019611
v -0.004437 0.002277 0.019611
v -0.000554 0.004919 0.019717
v -0.001635 0.004673 0.019717
v -0.002653 0.004223 0.019611
v -0.002886 0.004022 0.019717
v -0.003087 0.003870 0.019717
v -0.003110 0.003899 0.019611
v -0.004057 0.002732 0.019812
v -0.003750 0.003232 0.019717
v -0.000462 -0.000000 0.025978
v 0.004460 0.002148 0.019717
v 0.004987 0.000000 0.019611
v 0.004956 -0.000558 0.019611
v 0.004919 0.000554 0.019717
v 0.004909 0.000882 0.019611
v 0.004735 0.001446 0.019717
v 0.000354 0.000186 0.026000
v 0.000400 0.000000 0.026000
v 0.000354 -0.000186 0.026000
v 0.000410 -0.000101 0.025997
v -0.000147 0.004948 0.019717
v -0.000558 0.004956 0.019611
v -0.001615 0.004616 0.019812
v -0.001861 0.004588 0.019717
v -0.002634 0.004192 0.019717
v -0.000431 -0.000106 0.025990
v -0.000449 -0.000111 0.025978
v 0.004530 0.001996 0.019717
v 0.004494 0.002164 0.019611
v 0.004950 0.000000 0.019717
v 0.004872 0.000876 0.019717
v -0.000148 0.004985 0.019611
v -0.000443 -0.000000 0.025990
f 1 2 3
f 4 3 2
f 5 2 1
f 6 1 3
f 7 3 4
f 8 2 5
f 9 5 1
f 10 3 7
f 11 7 4
f 12 13 2
f 14 4 2
f 15 8 5
f 16 1 17
f 16 17 18
f 19 1 6
f 20 21 3
f 22 4 23
f 24 3 10
f 24 20 3
f 25 26 10
f 27 10 7
f 28 7 11
f 29 2 8
f 30 14 2
f 31 4 14
f 32 33 34
f 35 8 15
f 36 15 37
f 38 37 15
f 38 15 5
f 38 5 37
f 39 9 40
f 39 40 5
f 39 5 9
f 41 1 16
f 41 16 9
f 41 9 1
f 42 9 16
f 42 40 9
f 43 1 19
f 43 18 17
f 43 17 1
f 44 45 19
f 46 47 6
f 48 47 44
f 48 19 6
f 48 6 47
f 49 19 45
f 50 51 49
f 50 43 51
f 52 34 33
f 53 52 33
f 53 33 54
f 55 56 21
f 57 6 3
f 58 4 22
f 58 11 4
f 59 26 24
f 59 24 10
f 59 10 26
f 60 10 27
f 60 25 10
f 61 7 62
f 63 62 7
f 64 63 28
f 65 64 28
f 65 28 11
f 65 11 66
f 67 66 11
f 67 58 22
f 68 2 29
f 68 12 2
f 69 70 71
f 72 23 4
f 73 71 70
f 74 2 13
f 75 4 31
f 76 14 77
f 76 77 31
f 76 31 14
f 78 79 80
f 78 14 30
f 81 82 83
f 84 35 15
f 84 15 36
f 85 5 40
f 85 37 5
f 86 47 46
f 87 19 48
f 87 48 44
f 87 44 19
f 88 43 19
f 88 49 51
f 88 51 43
f 89 50 49
f 89 49 45
f 90 43 50
f 90 18 43
f 91 34 52
f 92 52 93
f 92 93 94
f 95 52 53
f 95 93 52
f 96 53 54
f 96 54 97
f 98 20 24
f 98 55 21
f 98 21 20
f 99 57 3
f 99 3 21
f 100 27 61
f 100 60 27
f 101 102 22
f 101 22 23
f 103 104 105
f 106 107 105
f 108 25 109
f 108 109 110
f 111 7 61
f 111 61 27
f 111 27 7
f 112 28 63
f 112 63 7
f 112 7 28
f 113 63 64
f 113 62 63
f 114 64 65
f 114 65 66
f 115 116 66
f 115 66 67
f 117 67 22
f 117 22 102
f 118 58 67
f 118 67 11
f 118 11 58
f 119 12 68
f 120 8 121
f 120 121 29
f 120 29 8
f 122 73 70
f 123 2 74
f 123 30 2
f 124 79 30
f 125 124 30
f 125 123 74
f 126 74 13
f 126 13 12
f 127 4 75
f 127 72 4
f 128 72 127
f 128 75 129
f 128 129 130
f 131 129 75
f 132 133 134
f 135 54 33
f 135 136 54
f 137 138 136
f 139 138 137
f 139 137 134
f 140 141 142
f 140 139 134
f 143 144 145
f 146 144 147
f 148 149 150
f 151 33 32
f 152 32 34
f 153 154 69
f 155 78 80
f 156 79 78
f 156 78 30
f 156 30 79
f 157 141 140
f 157 140 134
f 157 134 133
f 158 159 160
f 158 160 157
f 158 157 133
f 161 70 69
f 161 69 154
f 162 82 81
f 162 163 82
f 164 80 79
f 164 79 165
f 166 80 164
f 167 168 150
f 169 150 168
f 170 35 84
f 170 84 36
f 170 171 172
f 173 174 175
f 173 175 176
f 177 49 88
f 177 88 19
f 177 19 49
f 178 56 55
f 178 145 179
f 180 94 93
f 180 93 95
f 180 53 96
f 180 96 97
f 181 54 136
f 181 136 138
f 181 138 97
f 181 97 54
f 182 183 184
f 182 184 185
f 186 187 173
f 186 173 176
f 186 176 16
f 186 16 18
f 188 89 45
f 188 45 44
f 189 50 89
f 190 91 52
f 190 52 92
f 190 92 191
f 190 34 91
f 192 98 24
f 192 24 26
f 193 194 184
f 193 184 183
f 195 196 184
f 195 184 194
f 197 99 21
f 197 198 57
f 199 200 201
f 202 100 61
f 202 61 62
f 203 109 100
f 204 60 100
f 204 100 109
f 204 109 25
f 204 25 60
f 205 206 201
f 205 201 200
f 207 201 206
f 207 146 201
f 208 23 72
f 209 107 210
f 209 103 105
f 209 105 107
f 211 106 212
f 213 106 214
f 213 214 215
f 213 215 216
f 217 113 64
f 218 64 114
f 218 114 219
f 218 219 216
f 220 115 67
f 220 67 117
f 220 117 210
f 220 210 115
f 221 8 35
f 221 121 8
f 222 119 29
f 222 29 121
f 223 29 119
f 223 119 68
f 223 68 29
f 224 122 70
f 224 70 161
f 225 123 125
f 225 125 30
f 225 30 123
f 226 126 12
f 227 75 128
f 227 128 127
f 227 127 75
f 228 31 131
f 228 131 75
f 228 75 31
f 229 131 31
f 229 31 77
f 230 132 134
f 230 134 137
f 230 137 136
f 230 136 135
f 230 135 231
f 232 175 174
f 232 174 139
f 232 139 140
f 232 140 142
f 233 160 159
f 233 159 234
f 233 234 172
f 233 172 171
f 235 236 219
f 235 219 114
f 235 114 66
f 235 66 116
f 237 55 143
f 237 143 145
f 237 145 178
f 237 178 55
f 238 98 192
f 238 192 26
f 238 55 98
f 239 238 26
f 239 26 25
f 239 25 108
f 239 108 110
f 240 179 145
f 240 145 144
f 240 144 146
f 241 33 151
f 241 231 135
f 242 132 230
f 242 230 231
f 242 231 241
f 242 241 151
f 242 243 132
f 244 151 32
f 245 32 152
f 245 152 246
f 247 245 246
f 248 206 214
f 249 206 248
f 249 248 250
f 249 207 206
f 251 71 73
f 251 153 69
f 251 69 71
f 252 253 229
f 252 229 77
f 254 253 252
f 254 252 255
f 254 255 154
f 254 154 153
f 256 78 155
f 256 155 14
f 256 14 78
f 257 141 157
f 257 157 160
f 258 158 133
f 258 133 132
f 258 132 243
f 259 159 158
f 259 158 260
f 261 163 162
f 261 162 161
f 261 161 154
f 261 154 255
f 262 263 264
f 262 164 165
f 262 165 265
f 262 265 263
f 266 171 170
f 266 170 36
f 266 36 37
f 266 37 267
f 266 267 171
f 268 40 42
f 268 85 40
f 269 85 268
f 269 268 270
f 269 267 37
f 269 37 85
f 271 142 141
f 271 141 272
f 271 272 269
f 271 269 270
f 271 175 232
f 271 232 142
f 273 46 6
f 273 274 275
f 273 86 46
f 276 275 274
f 276 57 198
f 277 276 274
f 277 274 273
f 277 6 57
f 278 94 185
f 278 185 184
f 278 279 191
f 280 53 180
f 280 180 95
f 280 95 53
f 281 282 283
f 281 283 284
f 285 94 180
f 285 180 97
f 285 182 185
f 285 185 94
f 286 284 183
f 286 183 182
f 286 182 285
f 286 285 97
f 286 97 138
f 287 288 289
f 287 281 284
f 287 284 286
f 287 286 138
f 287 138 139
f 290 174 173
f 290 173 187
f 290 288 287
f 290 287 139
f 290 139 174
f 291 18 90
f 291 90 50
f 292 47 86
f 292 44 47
f 293 99 197
f 293 197 57
f 293 57 99
f 294 198 197
f 294 197 21
f 294 21 56
f 295 296 297
f 295 297 298
f 299 110 199
f 299 199 201
f 299 201 146
f 299 146 147
f 299 147 110
f 300 200 199
f 300 199 110
f 300 110 109
f 301 203 100
f 301 100 202
f 302 303 62
f 302 62 113
f 304 202 62
f 304 62 303
f 305 206 205
f 305 205 306
f 307 308 309
f 307 304 303
f 307 303 302
f 307 302 308
f 310 246 152
f 311 73 122
f 312 128 130
f 312 208 72
f 312 72 128
f 313 314 315
f 316 315 314
f 317 316 314
f 317 105 122
f 318 106 105
f 318 105 317
f 318 250 248
f 318 248 214
f 318 214 106
f 319 320 244
f 321 320 319
f 321 319 322
f 321 322 323
f 324 209 210
f 324 210 117
f 325 236 235
f 325 235 116
f 325 116 115
f 325 211 212
f 325 212 236
f 326 106 211
f 326 211 325
f 326 210 107
f 326 107 106
f 327 216 219
f 327 219 236
f 328 216 215
f 329 260 330
f 331 119 222
f 331 222 121
f 332 170 172
f 332 221 35
f 332 35 170
f 333 322 224
f 333 224 161
f 333 161 162
f 333 162 323
f 333 323 322
f 334 149 148
f 334 148 335
f 336 74 126
f 336 337 125
f 336 125 74
f 338 168 167
f 339 338 226
f 339 226 12
f 340 129 131
f 340 131 229
f 340 229 253
f 341 239 110
f 341 110 147
f 341 147 144
f 341 144 143
f 342 238 239
f 342 239 341
f 342 341 143
f 342 143 55
f 342 55 238
f 343 33 241
f 343 241 135
f 343 135 33
f 344 244 32
f 345 320 321
f 346 148 150
f 347 348 349
f 347 349 346
f 350 150 169
f 350 169 351
f 350 351 352
f 350 330 260
f 350 353 150
f 354 245 247
f 354 247 32
f 354 32 245
f 355 314 313
f 355 247 250
f 355 250 318
f 355 318 317
f 355 317 314
f 356 246 310
f 356 207 249
f 356 249 250
f 356 250 247
f 356 247 246
f 357 206 309
f 357 309 308
f 357 308 358
f 357 358 214
f 357 214 206
f 359 358 308
f 360 14 155
f 360 361 252
f 360 252 77
f 360 77 14
f 362 361 360
f 362 360 155
f 362 155 80
f 362 80 166
f 363 163 261
f 363 261 255
f 363 255 252
f 363 252 361
f 363 361 362
f 363 362 83
f 363 83 82
f 363 82 163
f 364 233 171
f 364 171 267
f 364 267 269
f 364 269 272
f 364 272 141
f 364 141 257
f 364 257 160
f 364 160 233
f 365 259 260
f 366 162 81
f 366 81 264
f 366 264 263
f 367 265 165
f 368 335 148
f 369 164 262
f 369 262 264
f 369 264 81
f 370 268 42
f 370 42 16
f 371 86 273
f 371 273 275
f 372 275 276
f 372 276 198
f 373 276 277
f 373 277 57
f 373 57 276
f 374 6 277
f 374 277 273
f 374 273 6
f 375 94 278
f 375 278 191
f 375 191 92
f 375 92 94
f 376 281 287
f 376 287 289
f 376 282 281
f 377 291 50
f 378 89 188
f 379 284 380
f 381 382 383
f 381 292 86
f 381 86 382
f 384 188 44
f 384 44 292
f 385 381 383
f 385 383 194
f 385 194 193
f 386 387 183
f 388 198 294
f 388 294 56
f 388 56 178
f 389 297 390
f 389 390 179
f 389 179 240
f 389 240 279
f 389 279 278
f 391 392 393
f 391 393 295
f 391 295 298
f 394 306 205
f 394 205 200
f 395 203 301
f 395 301 394
f 395 394 200
f 395 200 300
f 395 300 109
f 395 109 203
f 396 359 308
f 396 308 302
f 396 302 113
f 396 113 217
f 397 301 202
f 397 202 304
f 397 306 394
f 397 394 301
f 398 305 306
f 398 306 397
f 398 397 304
f 398 304 307
f 398 307 309
f 399 310 152
f 400 311 122
f 400 122 105
f 400 105 104
f 401 251 73
f 401 73 311
f 401 208 312
f 401 312 130
f 401 130 251
f 402 32 313
f 402 313 315
f 402 344 32
f 403 322 319
f 403 315 316
f 403 224 322
f 404 316 317
f 404 317 122
f 404 122 224
f 404 224 403
f 404 403 316
f 405 102 101
f 405 103 209
f 405 209 324
f 405 324 117
f 405 117 102
f 406 210 326
f 406 326 325
f 406 325 115
f 406 115 210
f 407 212 106
f 407 106 213
f 407 213 216
f 407 216 327
f 407 327 236
f 407 236 212
f 408 218 216
f 408 216 328
f 408 328 217
f 408 217 64
f 408 64 218
f 409 329 330
f 410 221 332
f 410 332 172
f 411 130 129
f 411 129 340
f 411 340 253
f 411 253 254
f 411 254 153
f 411 153 251
f 411 251 130
f 412 413 243
f 412 243 242
f 414 151 244
f 415 260 158
f 415 158 258
f 415 258 243
f 415 353 350
f 415 350 260
f 416 244 344
f 416 344 319
f 416 319 244
f 417 150 353
f 417 353 347
f 417 347 346
f 417 346 150
f 418 348 347
f 418 347 353
f 418 353 415
f 419 32 247
f 419 247 355
f 419 355 313
f 419 313 32
f 420 207 356
f 420 356 310
f 421 328 215
f 421 359 396
f 421 396 217
f 421 217 328
f 422 365 260
f 422 260 329
f 423 346 349
f 423 321 323
f 423 323 162
f 423 162 366
f 423 366 148
f 423 148 346
f 424 125 337
f 425 79 124
f 425 124 125
f 425 367 165
f 425 165 79
f 426 263 265
f 426 265 368
f 426 368 148
f 426 148 366
f 426 366 263
f 427 368 265
f 428 166 164
f 428 164 369
f 428 369 81
f 428 81 83
f 428 83 362
f 428 362 166
f 429 176 175
f 429 175 271
f 429 271 270
f 429 270 268
f 429 268 370
f 429 370 16
f 429 16 176
f 430 372 198
f 430 198 388
f 431 189 282
f 431 282 377
f 431 377 50
f 431 50 189
f 432 377 282
f 432 282 376
f 433 283 282
f 433 282 189
f 434 89 378
f 434 189 89
f 435 378 188
f 436 435 437
f 436 437 379
f 438 437 435
f 438 435 188
f 438 188 384
f 439 384 292
f 440 385 193
f 440 193 183
f 440 183 387
f 441 379 437
f 441 437 386
f 441 386 183
f 441 183 284
f 441 284 379
f 442 390 297
f 442 297 296
f 442 296 430
f 442 430 388
f 442 388 178
f 442 178 179
f 442 179 390
f 443 297 389
f 443 389 278
f 443 278 184
f 443 391 298
f 443 298 297
f 444 382 86
f 444 86 371
f 444 383 382
f 445 444 371
f 445 392 446
f 447 392 445
f 447 445 371
f 447 371 275
f 447 275 448
f 447 448 393
f 447 393 392
f 449 305 398
f 449 398 309
f 449 309 206
f 449 206 305
f 450 190 191
f 450 399 34
f 450 34 190
f 451 34 399
f 451 399 152
f 451 152 34
f 452 453 101
f 452 101 23
f 452 23 208
f 454 311 400
f 454 400 453
f 454 453 452
f 454 452 208
f 454 208 401
f 454 401 311
f 455 344 402
f 455 402 315
f 455 315 344
f 456 344 315
f 456 315 403
f 456 403 319
f 456 319 344
f 457 453 400
f 457 400 104
f 457 104 103
f 457 103 405
f 457 405 101
f 457 101 453
f 458 409 330
f 458 330 350
f 458 350 352
f 459 331 121
f 460 259 365
f 460 365 461
f 460 410 172
f 460 172 234
f 460 234 159
f 460 159 259
f 462 221 410
f 462 410 460
f 462 460 461
f 462 121 221
f 463 336 126
f 464 465 337
f 464 149 334
f 464 334 465
f 466 149 464
f 466 464 467
f 466 467 167
f 466 167 150
f 466 150 149
f 468 458 352
f 468 352 351
f 469 331 459
f 469 459 409
f 470 331 469
f 470 469 409
f 470 471 119
f 470 119 331
f 472 151 414
f 472 412 242
f 472 242 151
f 473 414 244
f 474 348 418
f 474 418 413
f 475 413 418
f 475 418 415
f 475 415 243
f 475 243 413
f 476 358 359
f 476 359 421
f 476 421 215
f 476 215 214
f 476 214 358
f 477 345 321
f 477 321 423
f 477 423 349
f 477 349 345
f 478 465 334
f 478 334 335
f 478 335 368
f 478 368 427
f 478 427 424
f 478 424 337
f 478 337 465
f 479 367 425
f 479 425 125
f 479 125 424
f 479 424 427
f 479 427 265
f 479 265 367
f 480 295 393
f 480 393 448
f 480 448 275
f 480 275 372
f 480 372 430
f 480 430 296
f 480 296 295
f 481 377 432
f 481 432 376
f 481 376 289
f 482 283 433
f 482 433 189
f 482 189 434
f 482 434 378
f 483 437 438
f 483 438 384
f 483 384 439
f 484 387 386
f 485 385 440
f 485 440 387
f 485 387 484
f 486 381 385
f 486 385 485
f 486 485 484
f 486 484 439
f 486 439 292
f 486 292 381
f 487 391 443
f 487 443 184
f 487 184 196
f 487 196 446
f 487 446 392
f 487 392 391
f 488 383 444
f 488 444 445
f 488 445 446
f 488 446 196
f 488 196 195
f 488 195 194
f 488 194 383
f 489 279 240
f 490 462 461
f 490 461 365
f 490 365 422
f 491 226 338
f 491 467 463
f 491 463 126
f 491 126 226
f 492 463 467
f 492 467 464
f 492 464 337
f 492 337 336
f 492 336 463
f 493 169 168
f 493 168 338
f 493 338 339
f 493 351 169
f 494 471 468
f 494 493 339
f 494 339 12
f 494 12 119
f 494 119 471
f 495 468 471
f 495 471 470
f 495 470 409
f 495 409 458
f 495 458 468
f 496 413 412
f 496 412 472
f 496 472 414
f 496 414 474
f 496 474 413
f 497 414 473
f 497 348 474
f 497 474 414
f 498 473 244
f 498 244 320
f 498 320 345
f 499 349 348
f 499 348 497
f 499 497 473
f 499 473 498
f 499 498 345
f 499 345 349
f 500 288 290
f 500 290 187
f 500 481 289
f 500 289 288
f 501 377 481
f 501 291 377
f 502 283 482
f 502 482 380
f 502 380 284
f 502 284 283
f 503 436 379
f 503 379 380
f 503 380 482
f 503 482 378
f 503 378 435
f 503 435 436
f 504 437 483
f 504 483 439
f 504 439 484
f 504 484 386
f 504 386 437
f 505 399 450
f 505 207 420
f 505 420 310
f 505 310 399
f 506 146 207
f 506 207 505
f 506 489 240
f 506 240 146
f 507 329 409
f 507 409 459
f 507 490 422
f 507 422 329
f 508 462 490
f 508 490 507
f 508 507 459
f 508 459 121
f 508 121 462
f 509 467 491
f 509 491 338
f 509 338 167
f 509 167 467
f 510 493 494
f 510 494 468
f 510 468 351
f 510 351 493
f 511 186 18
f 511 18 291
f 511 291 501
f 511 501 481
f 511 481 500
f 511 500 187
f 511 187 186
f 512 489 506
f 512 506 505
f 512 505 450
f 512 450 191
f 512 191 279
f 512 279 489
