# Convex hull collision mesh — generated by scripts/generate-collision-meshes.mjs
v 0.000000 -4.582576 -2.000000
v 0.000000 0.000000 5.000000
v 0.000000 0.000000 -5.000000
v 80.400002 -17.135490 14.581667
v 80.400002 -18.726852 12.472168
v 119.400002 -18.726852 12.472168
v 0.000000 -2.236355 -4.471992
v 0.000000 -4.000385 2.999486
v 27.244673 -4.200000 20.456448
v 27.483059 0.000000 20.950485
v 119.400002 3.600000 22.210133
v 80.400002 3.600000 22.210133
v 119.400002 -3.600000 22.210133
v 80.400002 -3.600000 22.210133
v 80.400002 -6.179058 21.634909
v 80.400002 11.047104 19.601315
v 80.400002 8.672891 20.761286
v 119.400002 11.047104 19.601315
v 0.000000 4.114919 2.840324
v 80.400002 -20.059927 10.190648
v 80.400002 -21.881481 5.239353
v 119.400002 -21.881481 5.239353
v 80.400002 -21.116327 7.768574
v 27.600000 -19.946026 6.569327
v 80.400002 -22.344835 2.637868
v 119.400002 -17.135490 14.581667
v 147.600006 -17.282661 11.929359
v 27.483059 -20.925327 -0.415910
v 27.483059 -20.925327 0.415910
v 0.000000 -4.000385 -2.999486
v 27.600000 -19.044500 8.849124
v 0.000000 -2.236355 4.471992
v 0.000000 -4.582576 2.000000
v 27.325232 -18.952173 8.889423
v 27.325232 -17.800280 11.016205
v 27.483059 -0.565971 -20.903751
v 27.483059 0.265046 -20.940290
v 0.000000 3.315613 -3.742554
v 80.400002 -13.268950 18.170992
v 119.400002 -13.268950 18.170992
v 80.400002 -11.047104 19.601315
v 119.400002 6.179058 21.634909
v 147.600006 0.000000 21.000000
v 147.600006 -2.531270 20.846886
v 27.700001 0.000000 21.000000
v 27.600000 4.200000 20.575714
v 157.469910 -0.681761 -1.298986
v 157.469910 -0.972818 -1.098084
v 157.381165 -0.799631 -1.523569
v 119.400002 22.344835 2.637868
v 80.400002 22.344835 2.637868
v 119.400002 21.881481 5.239353
v 80.400002 13.268950 18.170992
v 119.400002 15.307786 16.490047
v 80.400002 15.307786 16.490047
v 0.000000 2.323616 4.427280
v 0.000000 4.675081 1.773024
v 80.400002 -22.344835 -2.637868
v 80.400002 -21.881481 -5.239353
v 119.400002 -22.344835 -2.637868
v 119.400002 -21.116327 7.768574
v 147.600006 -13.925576 15.718726
v 147.733505 -12.334648 16.977186
v 147.733505 -9.752195 -18.581257
v 147.600006 -9.759187 -18.594576
v 147.600006 -7.446702 -19.635342
v 80.400002 -20.059927 -10.190648
v 119.400002 -20.059927 -10.190648
v 119.400002 -21.116327 -7.768574
v 27.600000 -17.883427 11.008319
v 119.400002 -15.307786 16.490047
v 147.600006 -15.718726 13.925576
v 27.245056 -20.456795 -4.200000
v 0.000000 -3.204107 -3.838450
v 27.325232 -11.016205 -17.800280
v 27.325232 -12.995921 -16.410751
v 27.325232 -17.826700 -10.973400
v 27.325232 -18.984091 -8.821054
v 27.325232 -16.426353 -12.976194
v 0.000000 -3.204107 3.838450
v 27.325232 -14.802140 14.802140
v 27.325232 -16.410751 12.995921
v 27.325249 -20.507689 4.200000
v 0.000000 -1.148921 -4.866208
v 27.325232 -6.643968 -19.851055
v 80.400002 -6.179058 -21.634909
v 27.600000 -4.200000 -20.575714
v 80.400002 -3.600000 -22.210133
v 119.400002 -6.179058 -21.634909
v 27.700001 -0.574092 -20.952597
v 0.000000 2.323616 -4.427280
v 119.400002 21.881481 -5.239353
v 119.400002 21.116327 -7.768574
v 80.400002 21.881481 -5.239353
v 119.400002 22.344835 -2.637868
v 27.600000 20.575714 -4.200000
v 27.600000 19.946026 -6.569327
v 119.400002 20.059927 -10.190648
v 119.400002 18.726852 -12.472168
v 80.400002 20.059927 -10.190648
v 80.400002 21.116327 -7.768574
v 80.400002 6.179058 -21.634909
v 80.400002 3.600000 -22.210133
v 27.600000 4.200000 -20.575714
v 27.600000 6.569327 -19.946026
v 119.400002 6.179058 -21.634909
v 119.400002 11.047104 -19.601315
v 80.400002 11.047104 -19.601315
v 119.400002 13.268950 -18.170992
v 147.600006 11.929359 -17.282661
v 27.600000 8.849124 -19.044500
v 27.600000 11.008319 -17.883427
v 147.733505 12.334648 -16.977186
v 147.600006 13.925576 -15.718726
v 147.600006 15.718726 -13.925576
v 119.400002 17.135490 -14.581667
v 147.733505 16.169188 -13.376315
v 119.400002 -6.179058 21.634909
v 119.400002 -8.672891 20.761286
v 147.600006 -7.446702 19.635342
v 119.400002 -11.047104 19.601315
v 80.400002 -8.672891 20.761286
v 27.600000 -8.849124 19.044500
v 27.600000 -6.569327 19.946026
v 27.459097 6.659784 19.898312
v 27.325844 6.644068 19.851355
v 27.325844 4.309880 20.485235
v 27.600000 8.849124 19.044500
v 27.459097 8.910585 18.997290
v 27.600000 6.569327 19.946026
v 80.400002 6.179058 21.634909
v 119.400002 8.672891 20.761286
v 147.600006 5.025629 20.389778
v 27.588739 0.000000 20.987465
v 147.600006 -9.759187 18.594576
v 147.600006 -5.025629 20.389778
v 147.600006 9.759187 18.594576
v 147.733505 9.752195 18.581257
v 147.600006 11.929359 17.282661
v 147.600006 15.718726 13.925576
v 147.600006 13.925576 15.718726
v 147.733505 13.915601 15.707466
v 147.600006 -5.025629 -20.389778
v 119.400002 3.600000 -22.210133
v 147.600006 2.531270 -20.846886
v 147.600006 0.000000 -21.000000
v 148.140579 5.138015 -20.011248
v 148.140579 7.605575 -19.209490
v 157.381165 0.411781 -1.670661
v 148.140579 2.589426 -20.497417
v 157.381165 -0.411781 -1.670661
v 148.140579 -4.944341 -20.059978
v 148.140579 -2.490328 -20.509693
v 157.500000 -0.287179 -1.165130
v 157.500000 0.000000 -1.200000
v 157.500000 -0.987581 0.681678
v 157.500000 0.987581 0.681678
v 147.733505 20.943548 1.317656
v 147.733505 20.984957 0.000000
v 147.600006 21.000000 0.000000
v 147.600006 20.846886 2.531270
v 27.325844 19.883057 6.548588
v 27.244673 20.456448 4.200000
v 27.600000 17.883427 11.008319
v 80.400002 20.059927 10.190648
v 27.600000 19.044500 8.849124
v 80.400002 22.344835 -2.637868
v 27.700001 20.974482 -0.421878
v 119.400002 22.500000 0.000000
v 27.600000 13.017486 16.478624
v 27.600000 14.849242 14.849242
v 119.400002 13.268950 18.170992
v 0.000000 4.963544 0.602683
v 27.483059 20.925327 0.415910
v 80.400002 -22.500000 -0.000000
v 27.700001 -20.974482 -0.421878
v 119.400002 -22.344835 2.637868
v 119.400002 -20.059927 10.190648
v 147.733505 -18.987757 8.934960
v 147.600006 -18.594576 9.759187
v 147.600006 -11.929359 -17.282661
v 119.400002 -11.047104 -19.601315
v 119.400002 -8.672891 -20.761286
v 80.400002 -11.047104 -19.601315
v 80.400002 -13.268950 -18.170992
v 119.400002 -18.726852 -12.472168
v 119.400002 -21.881481 -5.239353
v 147.733505 -19.957880 -6.484708
v 80.400002 -21.116327 -7.768574
v 27.600000 -19.946026 -6.569327
v 27.458767 -17.842587 11.042388
v 80.400002 -15.307786 16.490047
v 27.600000 -13.017486 16.478624
v 147.733505 -14.365191 15.297375
v 27.600000 -20.575714 -4.200000
v 27.481695 -20.563408 -4.200000
v 27.588739 -20.962036 -0.420367
v 27.368515 -20.527748 -4.200000
v 27.600000 -11.008319 -17.883427
v 27.600000 -8.849124 -19.044500
v 27.325232 -8.889423 -18.952173
v 27.458767 -16.465395 -13.007035
v 27.325232 -14.802140 -14.802140
v 27.600000 -17.883427 -11.008319
v 27.600000 -16.478624 -13.017486
v 27.600000 -11.008319 17.883427
v 27.458767 -13.007035 16.465395
v 27.325232 -10.973400 17.826700
v 27.325232 -8.821054 18.984091
v 0.000000 -1.148921 4.866208
v 27.600000 -14.849242 14.849242
v 27.325232 -19.851055 6.643968
v 27.600000 -20.575714 4.200000
v 27.245056 4.200000 -20.456795
v 27.325249 -4.200000 -20.507689
v 80.400002 -8.672891 -20.761286
v 27.700001 0.268850 -20.989658
v 27.588739 0.267887 -20.977160
v 27.588739 -0.572036 -20.940229
v 147.733505 20.943548 -1.317656
v 147.600006 20.846886 -2.531270
v 147.600006 17.282661 -11.929359
v 147.733505 17.718185 -11.244302
v 27.600000 19.044500 -8.849124
v 27.600000 17.883427 -11.008319
v 147.600006 18.594576 -9.759187
v 147.733505 18.987757 -8.934960
v 147.600006 19.635342 -7.446702
v 119.400002 8.672891 -20.761286
v 80.400002 17.135490 -14.581667
v 80.400002 15.307786 -16.490047
v 80.400002 13.268950 -18.170992
v 27.600000 13.017486 -16.478624
v 80.400002 8.672891 -20.761286
v 119.400002 15.307786 -16.490047
v 147.860336 15.674251 -13.886174
v 147.974091 16.079918 -13.302464
v 147.974091 15.620745 -13.838773
v 147.600006 -11.929359 17.282661
v 27.600000 -4.200000 20.575714
v 27.325232 -6.548489 19.882757
v 27.326130 4.200000 20.507477
v 0.000000 1.196578 4.854709
v 27.459097 4.320075 20.533691
v 147.600006 2.531270 20.846886
v 147.860336 -12.308565 16.941286
v 147.860336 -14.334814 15.265027
v 147.733505 -5.218747 20.325676
v 147.860336 -5.207711 20.282694
v 147.860336 -2.624551 20.775459
v 157.381165 -0.799631 1.523569
v 157.381165 -0.411781 1.670661
v 148.140579 -7.605575 19.209490
v 148.069092 11.801030 17.096745
v 148.140579 9.601335 18.293814
v 157.381165 0.799631 1.523569
v 148.140579 7.326254 19.317745
v 147.600006 7.446702 19.635342
v 147.733505 11.920815 17.270281
v 80.400002 17.135490 14.581667
v 119.400002 -3.600000 -22.210133
v 147.733505 -7.441368 -19.621275
v 147.860336 -7.425632 -19.579784
v 157.381165 1.141009 -1.287933
v 148.140579 14.142969 -15.060733
v 148.140579 15.919058 -13.169390
v 157.381165 0.000000 -1.720660
v 148.140579 0.000000 -20.660330
v 157.469910 -1.371692 -0.520214
v 157.469910 -1.456329 -0.176830
v 157.381165 -1.708115 -0.207403
v 157.381165 -1.608845 -0.610155
v 148.140579 -18.694025 -8.796741
v 157.381165 -1.416076 -0.977447
v 157.500000 -0.557668 -1.062547
v 148.069092 15.549633 -13.775772
v 157.469910 0.000000 -1.467025
v 157.469910 0.351082 -1.424396
v 157.500000 0.987581 -0.681678
v 80.400002 21.116327 7.768574
v 119.400002 21.116327 7.768574
v 27.325844 18.984377 8.821187
v 80.400002 22.500000 0.000000
v 0.000000 3.315613 3.742554
v 27.325844 11.016371 17.800547
v 27.700001 20.974482 0.421878
v 27.600000 20.575714 4.200000
v 27.368164 20.527472 4.200000
v 0.000000 4.963544 -0.602683
v 27.700001 -20.974482 0.421878
v 147.600006 -19.635342 7.446702
v 147.733505 -20.943548 -1.317656
v 147.600006 -20.846886 -2.531270
v 119.400002 -22.500000 -0.000000
v 147.600006 -21.000000 0.000000
v 157.381165 -1.141009 -1.287933
v 148.069092 -11.801030 -17.096745
v 147.860336 -9.731573 -18.541964
v 148.140579 -9.601335 -18.293814
v 148.069092 -9.654202 -18.394547
v 148.069092 -7.366595 -19.424116
v 80.400002 -18.726852 -12.472168
v 80.400002 -17.135490 -14.581667
v 147.600006 -17.282661 -11.929359
v 147.733505 -17.718185 -11.244302
v 27.600000 -19.044500 -8.849124
v 27.458767 -18.997217 8.910551
v 27.600000 -16.478624 13.017486
v 27.325232 -19.882757 -6.548489
v 27.458767 -11.042388 -17.842587
v 27.458767 -17.869068 -10.999481
v 27.458767 -8.842019 19.029211
v 27.458767 -10.999481 17.869068
v 27.325232 -12.976194 16.426353
v 27.458767 -14.837321 14.837321
v 27.325232 -20.484926 4.309815
v 27.368515 4.200000 -20.527748
v 27.325844 6.548588 -19.883057
v 27.325844 8.821187 -18.984377
v 0.000000 1.196578 -4.854709
v 27.600000 -6.569327 -19.946026
v 27.458767 -4.320058 -20.533613
v 147.974091 20.869099 0.000000
v 148.069092 20.733101 -1.304416
v 147.974091 20.827919 -1.310382
v 147.733505 20.831953 -2.529457
v 147.860336 20.899260 -1.314870
v 27.459097 19.898312 -6.659784
v 27.459097 17.842653 -11.042430
v 27.600000 16.478624 -13.017486
v 27.459097 16.449818 -13.026858
v 147.860336 17.680717 -11.220525
v 147.860336 17.233761 -11.895606
v 147.600006 9.759187 -18.594576
v 80.400002 18.726852 -12.472168
v 27.459097 8.842053 -19.029284
v 147.733505 14.365191 -15.297375
v 147.860336 14.334814 -15.265027
v 147.860336 12.308565 -16.941286
v 147.860336 16.134995 -13.348029
v 27.481529 -4.200000 20.563309
v 27.459209 4.200000 20.558117
v 147.733505 -2.630112 20.819485
v 147.733505 -10.109580 18.389257
v 147.860336 -10.088202 18.350370
v 148.140579 -5.138015 20.011248
v 148.140579 -2.589426 20.497417
v 148.069092 -5.166307 20.121437
v 147.733505 -7.725078 19.511320
v 148.069092 -7.647454 19.315264
v 147.974091 -7.682428 19.403597
v 147.974091 -5.189934 20.213457
v 147.974091 -2.615592 20.704540
v 147.733505 -16.169188 13.376315
v 147.733505 -18.581257 9.752195
v 157.469910 -1.456329 0.176830
v 148.069092 4.971566 20.170437
v 148.140579 4.944341 20.059978
v 147.860336 11.895606 17.233761
v 147.860336 9.731573 18.541964
v 147.974091 9.698354 18.478670
v 80.400002 18.726852 12.472168
v 119.400002 18.726852 12.472168
v 119.400002 17.135490 14.581667
v 27.600000 16.478624 13.017486
v 119.400002 20.059927 10.190648
v 147.600006 -2.531270 -20.846886
v 147.600006 5.025629 -20.389778
v 157.381165 0.799631 -1.523569
v 148.140579 9.953190 -18.104786
v 157.469910 0.972818 -1.098084
v 157.381165 1.416076 -0.977447
v 148.069092 17.096745 -11.801030
v 148.140579 12.143837 -16.714558
v 148.069092 12.210706 -16.806595
v 148.069092 -4.971566 -20.170437
v 148.069092 -2.504040 -20.622627
v 147.733505 2.630112 -20.819485
v 147.733505 -18.987757 -8.934960
v 148.140579 -15.919058 -13.169390
v 148.069092 -15.549633 -13.775772
v 157.469910 -1.207338 -0.833365
v 148.069092 -19.424116 -7.366595
v 148.140579 -19.649141 -6.384393
v 148.069092 -19.757338 -6.419548
v 157.500000 -1.122020 -0.425526
v 147.733505 16.169188 13.376315
v 147.733505 20.613255 3.932189
v 148.069092 20.406128 3.892677
v 148.140579 20.294378 3.871360
v 148.140579 20.619562 1.297273
v 148.069092 16.006714 -13.241906
v 147.974091 14.285881 -15.212918
v 147.974091 12.266548 -16.883455
v 147.733505 19.957880 -6.484708
v 147.600006 20.389778 -5.025629
v 147.733505 19.621275 -7.441368
v 157.469910 -0.351082 -1.424396
v 157.381165 0.411781 1.670661
v 157.469910 -0.351082 1.424396
v 157.469910 0.000000 1.467025
v 157.500000 0.000000 1.200000
v 157.500000 0.557668 -1.062547
v 157.469910 0.351082 1.424396
v 27.600000 19.946026 6.569327
v 80.400002 21.881481 5.239353
v 27.459097 19.029284 8.842053
v 27.325844 17.826967 10.973565
v 27.325844 8.889557 18.952459
v 27.600000 11.008319 17.883427
v 27.325844 12.996116 16.410999
v 27.325844 14.802363 14.802363
v 27.588739 20.962036 0.420367
v 27.325844 20.485235 -4.309880
v 27.325844 19.851355 -6.644068
v 0.000000 4.675081 -1.773024
v 27.588739 -20.962036 0.420367
v 147.733505 -19.957880 6.484708
v 147.600006 -20.389778 5.025629
v 157.381165 -1.708115 0.207403
v 147.600006 -20.389778 -5.025629
v 148.140579 -20.294378 -3.871360
v 147.733505 -20.831953 -2.529457
v 147.733505 -20.943548 1.317656
v 147.600006 -20.846886 2.531270
v 147.733505 -20.613255 3.932189
v 148.140579 -7.326254 -19.317745
v 147.974091 -9.698354 -18.478670
v 148.069092 -13.775772 -15.549633
v 147.860336 -11.895606 -17.233761
v 27.600000 -13.017486 -16.478624
v 80.400002 -15.307786 -16.490047
v 27.600000 -14.849242 -14.849242
v 119.400002 -15.307786 -16.490047
v 147.733505 -17.270281 -11.920815
v 27.458767 -16.449755 13.026809
v 27.458767 -19.930012 -6.564053
v 27.458767 -8.910551 -18.997217
v 27.458767 -19.029211 -8.842019
v 27.458767 -6.564053 19.930012
v 27.458767 -19.898237 6.659759
v 27.458767 -20.533613 4.320058
v 27.481695 4.200000 -20.563408
v 27.458776 -4.200000 -20.558468
v 27.325232 -4.309815 -20.484926
v 27.458767 -6.659759 -19.898237
v 148.069092 20.733101 1.304416
v 147.974091 20.716940 2.515492
v 147.860336 20.899260 1.314870
v 147.860336 20.787901 2.524108
v 147.860336 20.787901 -2.524108
v 147.860336 20.940580 0.000000
v 147.733505 17.270281 -11.920815
v 147.974091 17.174932 -11.855000
v 147.974091 17.620363 -11.182222
v 147.733505 18.581257 -9.752195
v 147.860336 18.541964 -9.731573
v 27.325844 10.973565 -17.826967
v 27.325844 12.976389 -16.426601
v 27.459097 10.999523 -17.869137
v 27.459097 13.007085 -16.465458
v 27.325844 14.802363 -14.802363
v 147.733505 15.707466 -13.915601
v 27.368164 -4.200000 20.527472
v 148.069092 -10.007996 18.204477
v 148.069092 -2.603684 20.610285
v 148.140579 0.000000 20.660330
v 148.069092 0.000000 20.774094
v 147.860336 -7.708742 19.470060
v 147.860336 -18.947605 8.916066
v 157.381165 -1.141009 1.287933
v 148.140579 -14.142969 15.060733
v 148.140579 -15.919058 13.169390
v 157.469910 -0.972818 1.098084
v 148.140579 -12.143837 16.714558
v 157.469910 -1.371692 0.520214
v 157.381165 -1.608845 0.610155
v 148.069092 -18.394547 9.654202
v 148.140579 -17.444094 11.070358
v 148.069092 -17.540148 11.131316
v 148.069092 9.654202 18.394547
v 148.069092 7.366595 19.424116
v 147.860336 13.886174 15.674251
v 147.860336 15.674251 13.886174
v 147.733505 2.529457 20.831953
v 147.974091 0.000000 20.869099
v 147.860336 2.524108 20.787901
v 147.860336 0.000000 20.940580
v 147.974091 11.855000 17.174932
v 148.069092 13.775772 15.549633
v 147.600006 18.594576 9.759187
v 147.733505 17.718185 11.244302
v 147.733505 -5.022029 -20.375172
v 147.860336 -5.011409 -20.332087
v 147.733505 0.000000 -20.984957
v 147.860336 -2.524108 -20.787901
v 147.860336 0.000000 -20.940580
v 147.974091 0.000000 -20.869099
v 147.600006 7.446702 -19.635342
v 148.069092 2.603684 -20.610285
v 147.974091 2.615592 -20.704540
v 147.974091 5.189934 -20.213457
v 157.469910 0.681761 -1.298986
v 147.860336 2.624551 -20.775459
v 147.860336 5.207711 -20.282694
v 147.600006 -18.594576 -9.759187
v 148.069092 -16.006714 -13.241906
v 157.500000 -1.191251 0.144644
v 157.500000 -0.987581 -0.681678
v 147.733505 15.707466 13.915601
v 147.600006 17.282661 11.929359
v 147.600006 20.389778 5.025629
v 147.733505 20.375172 5.022029
v 148.069092 14.220846 -15.143662
v 157.500000 1.191251 0.144644
v 157.381165 1.708115 0.207403
v 157.469910 1.456329 0.176830
v 157.381165 1.708115 -0.207403
v 157.381165 1.608845 0.610155
v 147.860336 19.579784 -7.425632
v 147.860336 19.915676 -6.470995
v 157.381165 0.000000 1.720660
v 148.140579 2.490328 20.509693
v 157.469910 -0.681761 1.298986
v 157.500000 0.557668 1.062547
v 157.500000 0.795747 -0.898213
v 157.500000 0.287179 -1.165130
v 157.381165 1.141009 1.287933
v 157.469910 0.972818 1.098084
v 157.381165 1.416076 0.977447
v 148.140579 15.919058 13.169390
v 157.469910 1.371692 0.520214
v 147.733505 20.831953 2.529457
v 147.860336 20.569666 3.923874
v 27.481529 20.563309 4.200000
v 27.459097 19.930088 6.564078
v 27.459097 17.869137 10.999523
v 27.325844 16.426601 12.976389
v 27.459097 11.042430 17.842653
v 27.483059 20.925327 -0.415910
v 0.000000 4.114919 -2.840324
v 27.325844 18.952459 -8.889557
v 27.325844 17.800547 -11.016371
v 148.140579 -18.694025 8.796741
v 148.069092 -18.796963 8.845179
v 147.733505 -20.613255 -3.932189
v 148.140579 -20.294378 3.871360
v 148.140579 -19.649141 6.384393
v 147.974091 -7.400284 -19.512947
v 147.974091 -4.994302 -20.262680
v 147.974091 -13.838773 -15.620745
v 147.733505 -11.920815 -17.270281
v 27.458767 -13.026809 -16.449755
v 119.400002 -13.268950 -18.170992
v 27.458776 -20.558468 4.200000
v 27.459097 6.564078 -19.930088
v 147.974091 20.827919 1.310382
v 147.974091 20.716940 -2.515492
v 147.974091 20.499451 -3.910479
v 147.974091 10.053765 -18.287731
v 147.860336 10.088202 -18.350370
v 147.733505 10.109580 -18.389257
v 27.600000 14.849242 -14.849242
v 147.974091 -10.053765 18.287731
v 147.974091 -12.266548 16.883455
v 148.140579 -9.953190 18.104786
v 148.069092 -12.210706 16.806595
v 148.069092 -14.220846 15.143662
v 147.974091 -14.285881 15.212918
v 147.860336 -15.674251 13.886174
v 147.974091 -15.620745 13.838773
v 148.069092 -15.549633 13.775772
v 148.069092 -16.006714 13.241906
v 147.733505 -17.718185 11.244302
v 147.733505 -17.270281 11.920815
v 147.860336 -17.233761 11.895606
v 147.733505 -15.707466 13.915601
v 147.733505 -19.621275 7.441368
v 157.381165 -1.416076 0.977447
v 147.974091 -18.882925 8.885631
v 147.974091 -19.512947 7.400284
v 147.860336 -18.541964 9.731573
v 147.860336 5.011409 20.332087
v 147.733505 0.000000 20.984957
v 147.974091 13.838773 15.620745
v 147.733505 -2.529457 -20.831953
v 147.974091 -2.515492 -20.716940
v 147.733505 7.725078 -19.511320
v 147.733505 5.218747 -20.325676
v 148.069092 5.166307 -20.121437
v 148.069092 0.000000 -20.774094
v 157.381165 1.608845 -0.610155
v 148.140579 18.694025 -8.796741
v 148.140579 19.649141 -6.384393
v 148.140579 20.294378 -3.871360
v 157.469910 1.371692 -0.520214
v 148.140579 17.444094 -11.070358
v 148.069092 -18.394547 -9.654202
v 147.974091 -18.478670 -9.698354
v 148.069092 -17.540148 -11.131316
v 148.140579 -17.444094 -11.070358
v 147.600006 -19.635342 -7.446702
v 147.733505 -19.621275 -7.441368
v 147.974091 -19.847692 -6.448906
v 147.974091 -19.512947 -7.400284
v 148.069092 -17.096745 -11.801030
v 147.974091 -17.174932 -11.855000
v 147.860336 -17.233761 -11.895606
v 147.860336 -17.680717 -11.220525
v 157.500000 -1.122020 0.425526
v 157.500000 -1.191251 -0.144644
v 157.500000 -0.795747 -0.898213
v 147.860336 16.134995 13.348029
v 147.860336 17.233761 11.895606
v 147.733505 17.270281 11.920815
v 147.733505 19.957880 6.484708
v 147.600006 19.635342 7.446702
v 148.069092 17.096745 11.801030
v 148.140579 17.444094 11.070358
v 147.860336 20.332087 5.011409
v 157.469910 1.207338 -0.833365
v 157.469910 1.456329 -0.176830
v 147.974091 2.515492 20.716940
v 157.500000 -0.557668 1.062547
v 157.500000 0.287179 1.165130
v 157.500000 0.795747 0.898213
v 157.469910 0.681761 1.298986
v 148.069092 15.549633 13.775772
v 157.469910 1.207338 0.833365
v 157.500000 1.122020 0.425526
v 27.459097 16.465458 13.007085
v 27.459097 14.837378 14.837378
v 27.459097 13.026858 16.449818
v 27.588739 20.962036 -0.420367
v 27.325844 16.410999 -12.996116
v 27.459097 18.997290 -8.910585
v 148.069092 -19.424116 7.366595
v 147.733505 -20.375172 -5.022029
v 148.140579 -20.619562 -1.297273
v 148.069092 -20.733101 1.304416
v 148.069092 -20.733101 -1.304416
v 147.860336 -20.899260 1.314870
v 147.860336 -20.940580 0.000000
v 147.974091 -20.827919 1.310382
v 147.860336 -20.787901 2.524108
v 147.733505 -20.984957 0.000000
v 147.860336 -20.899260 -1.314870
v 147.974091 -20.716940 2.515492
v 147.974091 -20.499451 3.910479
v 147.733505 -20.831953 2.529457
v 147.860336 -20.569666 3.923874
v 147.860336 -20.332087 5.011409
v 147.860336 -19.915676 6.470995
v 147.974091 -20.262680 4.994302
v 147.733505 -20.375172 5.022029
v 147.974091 -11.855000 -17.174932
v 147.860336 -13.886174 -15.674251
v 27.458767 -14.837321 -14.837321
v 119.400002 -17.135490 -14.581667
v 147.600006 -15.718726 -13.925576
v 147.860336 -15.674251 -13.886174
v 147.600006 -13.925576 -15.718726
v 147.860336 20.332087 -5.011409
v 147.974091 20.262680 -4.994302
v 148.140579 20.619562 -1.297273
v 148.069092 20.406128 -3.892677
v 148.069092 10.007996 -18.204477
v 27.459097 14.837378 -14.837378
v 147.974091 -16.079918 13.302464
v 147.974091 -17.174932 11.855000
v 148.069092 -17.096745 11.801030
v 157.469910 -1.207338 0.833365
v 147.974091 -18.478670 9.698354
v 147.733505 5.022029 20.375172
v 147.974091 7.400284 19.512947
v 147.860336 7.708742 -19.470060
v 148.069092 19.424116 -7.366595
v 148.069092 17.540148 -11.131316
v 147.860336 18.947605 -8.916066
v 147.974091 19.512947 -7.400284
v 147.974091 18.882925 -8.885631
v 147.974091 -17.620363 -11.182222
v 147.860336 -18.541964 -9.731573
v 147.860336 -18.947605 -8.916066
v 148.069092 -18.796963 -8.845179
v 147.860336 -19.579784 -7.425632
v 147.860336 -19.915676 -6.470995
v 147.974091 -20.262680 -4.994302
v 147.733505 18.987757 8.934960
v 147.860336 19.579784 7.425632
v 147.860336 18.947605 8.916066
v 148.140579 19.649141 6.384393
v 148.069092 19.757338 6.419548
v 148.069092 19.424116 7.366595
v 148.140579 18.694025 8.796741
v 148.069092 17.540148 11.131316
v 147.974091 17.174932 11.855000
v 147.974091 20.499451 3.910479
v 147.860336 19.915676 6.470995
v 157.500000 1.122020 -0.425526
v 147.974091 19.847692 -6.448906
v 148.069092 2.504040 20.622627
v 147.974091 4.994302 20.262680
v 157.500000 -0.795747 0.898213
v 157.500000 -0.287179 1.165130
v 147.974091 15.620745 13.838773
v 148.069092 16.006714 13.241906
v 27.459209 20.558117 -4.200000
v 147.860336 -20.569666 -3.923874
v 148.140579 -20.619562 1.297273
v 148.069092 -20.406128 -3.892677
v 147.974091 -20.716940 -2.515492
v 147.974091 -20.499451 -3.910479
v 147.974091 -20.827919 -1.310382
v 147.860336 -20.787901 -2.524108
v 148.069092 -20.406128 3.892677
v 147.860336 -19.579784 7.425632
v 148.069092 -19.757338 6.419548
v 147.733505 -16.169188 -13.376315
v 147.974091 -16.079918 -13.302464
v 147.733505 -13.915601 -15.707466
v 147.733505 20.613255 -3.932189
v 147.860336 -16.134995 13.348029
v 147.974091 -17.620363 11.182222
v 147.860336 7.425632 19.579784
v 147.974091 7.682428 -19.403597
v 148.069092 18.796963 -8.845179
v 147.733505 -18.581257 -9.752195
v 147.974091 -18.882925 -8.885631
v 147.860336 17.680717 11.220525
v 147.733505 18.581257 9.752195
v 147.860336 18.541964 9.731573
v 147.733505 19.621275 7.441368
v 147.974091 19.512947 7.400284
v 147.974091 18.882925 8.885631
v 148.069092 18.394547 9.654202
v 147.974091 19.847692 6.448906
v 157.500000 1.191251 -0.144644
v 148.069092 19.757338 -6.419548
v 147.974091 16.079918 13.302464
v 27.326130 20.507477 -4.200000
v 27.459097 20.533691 -4.320075
v 147.860336 -20.332087 -5.011409
v 147.974091 -20.869099 0.000000
v 147.974091 -19.847692 6.448906
v 147.733505 -15.707466 -13.915601
v 147.974091 -15.620745 -13.838773
v 147.860336 -16.134995 -13.348029
v 147.860336 20.569666 -3.923874
v 147.733505 20.375172 -5.022029
v 147.860336 -17.680717 11.220525
v 147.733505 7.441368 19.621275
v 148.069092 7.647454 -19.315264
v 147.974091 18.478670 -9.698354
v 148.069092 18.394547 -9.654202
v 147.974091 17.620363 11.182222
v 148.069092 18.796963 8.845179
v 147.974091 20.262680 4.994302
v 147.974091 18.478670 9.698354
f 1 2 3
f 4 5 6
f 7 1 3
f 8 2 1
f 9 10 2
f 11 12 13
f 14 15 13
f 14 13 12
f 16 17 18
f 19 3 2
f 20 6 5
f 21 22 23
f 21 23 24
f 21 25 22
f 26 4 6
f 26 6 27
f 28 29 1
f 30 1 7
f 31 23 20
f 31 24 23
f 32 2 8
f 33 34 35
f 33 35 8
f 33 8 1
f 33 1 29
f 36 3 37
f 38 3 19
f 39 40 41
f 42 12 11
f 43 11 13
f 43 13 44
f 45 14 12
f 45 12 46
f 47 48 49
f 50 51 52
f 53 16 18
f 53 54 55
f 56 19 2
f 57 38 19
f 58 59 60
f 61 20 23
f 61 23 22
f 62 63 40
f 64 65 66
f 67 68 69
f 70 31 20
f 70 20 5
f 71 4 26
f 71 62 40
f 71 40 39
f 72 71 26
f 73 28 1
f 74 30 7
f 74 7 75
f 74 75 76
f 77 78 1
f 77 1 30
f 77 30 79
f 80 32 8
f 80 8 81
f 82 81 8
f 82 8 35
f 83 33 29
f 84 85 7
f 84 7 3
f 86 87 88
f 86 88 89
f 90 88 87
f 91 3 38
f 92 93 94
f 92 94 95
f 96 94 97
f 98 99 100
f 98 100 93
f 101 94 93
f 101 93 100
f 101 97 94
f 102 103 104
f 102 104 105
f 102 106 103
f 107 108 109
f 107 109 110
f 111 112 108
f 113 110 109
f 113 109 114
f 115 116 117
f 118 15 119
f 118 119 120
f 118 13 15
f 121 119 41
f 121 41 40
f 122 41 119
f 122 119 15
f 122 123 41
f 124 123 122
f 124 122 15
f 125 126 127
f 128 129 125
f 128 125 130
f 128 130 17
f 128 17 16
f 131 12 42
f 131 42 17
f 131 17 130
f 131 130 46
f 131 46 12
f 132 18 17
f 132 17 42
f 133 42 11
f 134 45 46
f 135 119 121
f 136 13 118
f 136 44 13
f 137 138 139
f 137 139 18
f 137 18 132
f 140 54 141
f 140 141 142
f 143 66 89
f 144 145 146
f 144 88 103
f 144 103 106
f 147 148 149
f 147 149 150
f 151 152 153
f 154 155 156
f 157 156 155
f 158 159 160
f 158 50 161
f 162 163 57
f 164 165 166
f 167 94 96
f 167 96 168
f 167 95 94
f 169 95 167
f 169 51 50
f 169 50 158
f 169 158 160
f 170 53 55
f 170 55 171
f 172 54 53
f 172 53 18
f 172 18 139
f 172 139 141
f 172 141 54
f 173 38 57
f 173 57 163
f 173 163 174
f 175 176 58
f 175 58 60
f 177 22 25
f 177 25 175
f 178 61 179
f 178 179 180
f 178 180 6
f 178 6 20
f 178 20 61
f 181 182 65
f 181 65 64
f 183 89 66
f 183 66 65
f 183 65 182
f 183 182 184
f 183 86 89
f 185 184 182
f 186 68 67
f 187 59 69
f 187 69 188
f 187 60 59
f 189 59 190
f 189 67 69
f 189 69 59
f 191 82 35
f 191 35 34
f 192 4 71
f 192 71 39
f 192 39 193
f 194 62 71
f 194 71 72
f 194 63 62
f 195 58 176
f 195 176 196
f 195 196 190
f 195 190 59
f 195 59 58
f 197 196 176
f 197 29 28
f 198 28 73
f 198 196 197
f 198 197 28
f 199 184 185
f 199 200 184
f 201 75 7
f 201 7 85
f 202 77 79
f 203 79 30
f 203 30 74
f 203 74 76
f 204 202 205
f 206 207 193
f 206 193 39
f 206 39 41
f 206 41 123
f 208 32 80
f 208 209 32
f 210 9 2
f 210 2 32
f 211 4 192
f 211 192 193
f 212 34 33
f 213 25 21
f 213 21 24
f 214 37 3
f 215 84 3
f 215 3 36
f 216 86 183
f 216 183 184
f 216 184 200
f 217 103 88
f 217 88 90
f 217 104 103
f 218 217 90
f 219 36 37
f 219 37 218
f 219 218 90
f 219 90 87
f 220 221 95
f 220 95 169
f 220 169 160
f 220 160 159
f 222 99 223
f 222 117 116
f 222 116 99
f 224 100 225
f 224 97 101
f 224 101 100
f 226 223 99
f 226 99 98
f 227 226 98
f 227 98 93
f 227 93 228
f 229 108 107
f 229 106 102
f 230 99 116
f 230 116 231
f 232 108 112
f 232 112 233
f 232 233 231
f 232 231 109
f 232 109 108
f 234 102 105
f 234 105 111
f 234 111 108
f 234 108 229
f 234 229 102
f 235 116 115
f 235 114 109
f 235 109 231
f 235 231 116
f 236 237 238
f 239 121 40
f 239 40 63
f 240 14 45
f 240 124 15
f 240 15 14
f 241 9 210
f 241 210 32
f 241 32 209
f 242 2 10
f 243 56 2
f 243 2 242
f 243 242 127
f 243 127 126
f 243 126 56
f 244 46 130
f 244 130 125
f 244 125 127
f 245 133 11
f 245 11 43
f 246 63 194
f 246 194 247
f 248 249 250
f 248 136 118
f 248 118 120
f 251 252 253
f 254 255 256
f 257 256 255
f 258 138 137
f 258 137 132
f 258 132 42
f 258 42 133
f 259 139 138
f 259 142 141
f 259 141 139
f 260 55 54
f 260 171 55
f 261 143 89
f 261 89 88
f 261 88 144
f 261 144 146
f 262 263 64
f 262 64 66
f 264 265 266
f 267 268 150
f 267 150 149
f 267 151 153
f 267 153 268
f 269 270 271
f 272 273 274
f 272 274 269
f 272 269 271
f 275 154 156
f 275 48 47
f 276 238 237
f 276 266 265
f 277 151 267
f 277 267 149
f 277 149 278
f 277 278 155
f 279 157 155
f 280 165 281
f 280 281 52
f 280 166 165
f 282 162 57
f 282 57 19
f 283 51 169
f 283 169 167
f 283 167 168
f 284 19 56
f 285 284 56
f 286 287 51
f 286 51 283
f 286 283 168
f 288 163 162
f 288 174 163
f 289 38 173
f 289 173 174
f 290 197 176
f 290 176 175
f 290 175 25
f 290 25 213
f 291 179 61
f 292 60 293
f 294 177 175
f 294 175 60
f 294 60 292
f 294 292 295
f 296 49 48
f 296 48 274
f 296 297 49
f 298 64 263
f 299 49 297
f 299 297 300
f 301 299 300
f 302 303 186
f 302 186 67
f 302 67 204
f 302 204 205
f 302 205 303
f 304 305 186
f 306 204 67
f 306 67 189
f 306 189 190
f 307 31 70
f 307 70 191
f 307 191 34
f 308 191 70
f 308 70 5
f 308 5 4
f 308 4 211
f 309 198 73
f 309 73 1
f 309 1 78
f 310 75 201
f 310 76 75
f 311 77 202
f 311 202 204
f 312 209 208
f 312 206 123
f 312 123 124
f 312 241 209
f 313 206 312
f 313 312 208
f 313 208 207
f 313 207 206
f 314 207 208
f 314 208 80
f 314 80 81
f 315 211 193
f 315 193 207
f 315 207 314
f 315 314 81
f 315 81 82
f 316 212 33
f 316 33 83
f 317 218 37
f 317 37 214
f 318 317 214
f 318 91 319
f 320 91 318
f 320 318 214
f 320 214 3
f 320 3 91
f 321 322 87
f 321 87 86
f 321 86 216
f 321 216 200
f 323 324 325
f 326 221 220
f 327 220 159
f 328 97 224
f 329 225 330
f 329 330 331
f 332 333 223
f 334 229 107
f 335 99 230
f 335 230 330
f 335 330 225
f 335 225 100
f 335 100 99
f 336 111 105
f 336 318 319
f 336 112 111
f 337 114 235
f 337 235 115
f 337 338 339
f 337 339 113
f 337 113 114
f 340 237 236
f 340 236 117
f 340 117 333
f 340 333 237
f 341 124 240
f 341 240 45
f 341 45 134
f 342 242 10
f 342 10 134
f 342 134 46
f 342 46 244
f 342 244 127
f 342 127 242
f 343 136 248
f 343 248 250
f 343 44 136
f 344 239 63
f 344 63 246
f 344 246 345
f 344 135 121
f 344 121 239
f 346 252 347
f 346 348 253
f 346 253 252
f 349 135 344
f 349 248 120
f 349 120 119
f 349 119 135
f 350 253 348
f 350 348 351
f 352 351 348
f 352 353 250
f 352 250 249
f 354 72 26
f 354 26 27
f 355 180 179
f 356 271 270
f 357 358 257
f 359 360 361
f 359 142 259
f 359 259 138
f 359 138 360
f 362 165 164
f 362 260 363
f 362 363 165
f 364 363 260
f 364 260 54
f 364 54 140
f 365 171 260
f 365 260 362
f 365 362 164
f 366 281 165
f 366 165 363
f 367 143 261
f 367 261 146
f 368 144 106
f 368 145 144
f 369 149 148
f 369 148 370
f 369 264 371
f 369 278 149
f 372 371 264
f 372 264 266
f 372 266 373
f 374 264 369
f 374 369 370
f 374 370 375
f 374 375 265
f 374 265 264
f 376 377 153
f 376 153 152
f 378 145 368
f 379 69 68
f 380 381 296
f 380 296 274
f 382 269 274
f 382 274 48
f 383 273 272
f 383 272 384
f 383 384 385
f 386 270 269
f 386 269 382
f 386 275 156
f 387 364 140
f 388 161 50
f 388 50 52
f 389 390 391
f 392 266 276
f 392 276 237
f 392 237 373
f 392 373 266
f 393 338 236
f 393 236 238
f 393 375 394
f 393 394 339
f 393 339 338
f 395 228 93
f 395 93 92
f 395 92 396
f 397 228 395
f 397 227 228
f 398 151 277
f 398 277 155
f 398 155 154
f 398 154 275
f 398 275 47
f 398 47 49
f 398 49 151
f 399 256 257
f 399 257 358
f 400 401 252
f 400 252 251
f 402 401 400
f 402 156 157
f 403 279 155
f 404 401 402
f 404 256 399
f 404 399 401
f 405 166 280
f 406 51 287
f 406 287 405
f 406 405 280
f 406 280 52
f 406 52 51
f 407 166 405
f 407 162 282
f 407 164 166
f 408 282 19
f 409 285 56
f 409 56 126
f 409 126 125
f 409 125 129
f 410 128 16
f 410 16 53
f 410 53 170
f 410 129 128
f 411 284 285
f 411 412 284
f 413 286 168
f 413 174 288
f 414 328 415
f 416 38 289
f 416 289 414
f 416 414 415
f 417 197 290
f 417 290 213
f 417 29 197
f 418 291 61
f 418 61 22
f 418 22 419
f 420 271 356
f 421 187 188
f 422 384 272
f 422 272 271
f 423 292 293
f 424 425 177
f 424 177 294
f 424 294 295
f 426 22 177
f 426 177 425
f 426 419 22
f 427 151 49
f 427 49 299
f 427 299 301
f 427 301 376
f 427 376 152
f 427 152 151
f 428 298 263
f 428 301 300
f 428 300 297
f 429 297 296
f 429 296 381
f 430 64 298
f 430 298 428
f 431 310 199
f 431 199 185
f 431 185 432
f 433 431 432
f 433 432 303
f 433 303 205
f 434 303 432
f 434 432 185
f 435 305 304
f 436 191 308
f 436 308 211
f 436 211 315
f 436 315 82
f 436 82 191
f 437 190 196
f 437 196 198
f 437 198 309
f 438 200 199
f 438 199 310
f 438 310 201
f 439 306 190
f 439 190 437
f 439 437 309
f 439 309 78
f 439 78 77
f 439 77 311
f 439 311 204
f 439 204 306
f 440 241 312
f 440 312 124
f 440 124 341
f 441 24 31
f 441 31 307
f 441 307 34
f 441 34 212
f 441 212 316
f 442 213 24
f 442 24 441
f 442 441 316
f 442 316 83
f 443 218 317
f 443 105 104
f 443 104 217
f 443 217 218
f 444 219 87
f 444 87 322
f 444 322 215
f 444 215 36
f 444 36 219
f 445 215 322
f 445 85 84
f 445 84 215
f 446 322 321
f 446 321 200
f 446 200 438
f 446 438 201
f 446 201 85
f 446 85 445
f 446 445 322
f 447 324 323
f 447 448 389
f 447 389 391
f 447 391 324
f 449 158 450
f 449 159 158
f 451 326 220
f 451 220 327
f 451 327 325
f 452 323 325
f 452 325 327
f 452 327 159
f 452 159 449
f 453 222 223
f 453 223 333
f 453 333 117
f 453 117 222
f 454 333 332
f 454 373 237
f 454 237 333
f 455 454 332
f 456 223 226
f 456 226 227
f 456 457 332
f 456 332 223
f 458 91 38
f 458 38 459
f 458 319 91
f 460 112 336
f 460 336 319
f 460 319 458
f 460 458 459
f 461 233 112
f 461 112 460
f 461 460 459
f 462 461 459
f 462 459 38
f 463 236 338
f 463 338 337
f 463 337 115
f 463 115 117
f 463 117 236
f 464 10 9
f 464 9 241
f 464 241 440
f 464 440 341
f 464 341 134
f 464 134 10
f 465 253 350
f 466 347 467
f 466 467 468
f 466 353 352
f 466 352 348
f 466 348 346
f 466 346 347
f 469 351 352
f 469 352 249
f 469 249 248
f 469 248 349
f 469 349 344
f 469 344 345
f 470 355 179
f 471 472 473
f 471 474 251
f 471 251 475
f 471 475 472
f 476 477 420
f 476 420 356
f 478 479 480
f 481 254 361
f 481 255 254
f 482 357 257
f 482 257 255
f 482 255 481
f 482 481 361
f 483 142 359
f 483 484 142
f 485 133 245
f 485 245 43
f 486 487 488
f 486 488 250
f 486 250 353
f 486 353 466
f 486 466 468
f 489 254 490
f 489 483 359
f 489 359 361
f 489 361 254
f 491 366 363
f 491 363 492
f 493 494 263
f 493 263 262
f 493 262 66
f 493 66 143
f 495 146 145
f 495 145 378
f 496 495 497
f 496 497 498
f 499 106 229
f 500 501 502
f 500 147 150
f 500 150 268
f 500 498 501
f 503 278 369
f 503 369 371
f 503 371 403
f 503 403 278
f 504 501 498
f 504 498 497
f 504 497 495
f 504 495 378
f 504 505 502
f 504 502 501
f 506 379 68
f 506 68 186
f 506 186 305
f 507 381 380
f 508 356 270
f 508 386 156
f 509 275 386
f 509 386 382
f 509 382 48
f 510 484 387
f 510 387 140
f 510 140 142
f 510 142 484
f 511 363 364
f 511 364 387
f 511 492 363
f 512 513 388
f 512 388 52
f 514 276 265
f 514 265 375
f 514 375 393
f 514 393 238
f 514 238 276
f 515 157 279
f 516 517 518
f 516 518 391
f 516 391 390
f 516 390 519
f 520 227 397
f 520 397 395
f 520 395 521
f 522 252 401
f 522 401 399
f 522 467 347
f 522 347 252
f 523 467 522
f 523 522 399
f 523 399 358
f 523 358 357
f 523 468 467
f 524 400 251
f 524 251 474
f 525 402 157
f 526 279 403
f 526 403 371
f 526 371 279
f 527 278 403
f 527 403 155
f 527 155 278
f 528 256 529
f 528 529 530
f 528 530 531
f 528 490 254
f 528 254 256
f 532 517 516
f 532 516 519
f 532 519 530
f 533 388 534
f 533 534 450
f 533 450 158
f 533 158 161
f 533 161 388
f 535 405 287
f 535 287 286
f 535 286 413
f 535 413 288
f 536 162 407
f 536 407 405
f 536 405 535
f 536 535 288
f 536 288 162
f 537 407 282
f 537 282 408
f 537 164 407
f 538 19 284
f 538 284 412
f 538 537 408
f 538 408 19
f 539 285 409
f 539 409 129
f 539 129 410
f 539 410 170
f 539 411 285
f 540 174 413
f 540 289 174
f 541 38 416
f 542 543 541
f 542 541 416
f 542 416 415
f 542 415 328
f 542 329 543
f 544 478 545
f 546 423 293
f 546 293 60
f 546 60 187
f 546 187 421
f 547 420 477
f 547 477 548
f 549 301 428
f 549 428 263
f 549 263 494
f 549 494 550
f 549 550 376
f 549 376 301
f 551 429 381
f 552 181 64
f 552 64 430
f 553 310 431
f 553 431 433
f 553 76 310
f 554 434 185
f 554 185 182
f 554 182 181
f 555 417 213
f 555 213 442
f 555 442 83
f 555 83 29
f 555 29 417
f 556 318 336
f 556 336 105
f 556 105 443
f 556 443 317
f 556 317 318
f 557 448 447
f 557 447 323
f 557 323 452
f 557 452 449
f 557 449 450
f 557 450 448
f 558 559 451
f 558 451 325
f 558 325 324
f 560 394 375
f 560 561 339
f 560 339 394
f 562 110 113
f 562 113 339
f 562 339 561
f 562 334 107
f 562 107 110
f 563 330 230
f 563 230 231
f 563 231 233
f 563 233 461
f 563 331 330
f 564 465 350
f 564 350 351
f 564 351 469
f 564 469 345
f 564 345 246
f 564 246 565
f 566 251 253
f 566 253 465
f 566 475 251
f 567 475 566
f 567 566 465
f 567 465 564
f 567 564 565
f 567 568 472
f 567 472 475
f 569 247 570
f 569 570 571
f 569 571 568
f 569 568 567
f 569 567 565
f 569 565 246
f 569 246 247
f 572 573 473
f 572 473 472
f 572 472 568
f 572 568 571
f 574 27 6
f 574 6 180
f 574 180 355
f 575 27 574
f 575 574 576
f 575 576 354
f 575 354 27
f 577 354 570
f 577 570 247
f 577 247 194
f 577 194 72
f 577 72 354
f 578 291 418
f 578 179 291
f 579 479 478
f 579 478 544
f 579 544 477
f 579 477 476
f 579 474 471
f 579 471 473
f 580 470 581
f 580 581 545
f 582 355 470
f 583 485 487
f 584 488 487
f 584 487 485
f 584 485 43
f 584 43 44
f 584 44 343
f 584 343 250
f 584 250 488
f 585 483 489
f 585 489 490
f 585 484 483
f 586 495 496
f 586 496 494
f 586 494 493
f 586 493 143
f 586 143 367
f 586 367 146
f 586 146 495
f 587 377 376
f 587 376 550
f 587 550 494
f 587 494 496
f 587 496 498
f 588 334 562
f 588 499 229
f 588 229 334
f 589 368 106
f 589 106 499
f 589 499 588
f 589 505 504
f 589 504 378
f 589 378 368
f 590 147 500
f 590 500 502
f 590 148 147
f 591 498 500
f 591 500 268
f 591 268 153
f 591 153 377
f 591 377 587
f 591 587 498
f 592 372 593
f 592 594 595
f 592 595 518
f 592 518 596
f 592 596 372
f 597 372 373
f 598 599 600
f 598 600 601
f 598 601 274
f 598 274 273
f 602 69 379
f 602 379 603
f 602 603 188
f 602 188 69
f 604 605 383
f 604 383 385
f 606 380 274
f 606 274 601
f 606 601 600
f 606 600 607
f 606 507 380
f 608 607 609
f 608 609 305
f 608 305 435
f 610 476 356
f 610 356 508
f 610 508 156
f 611 386 508
f 611 508 270
f 611 270 386
f 612 275 509
f 612 509 48
f 612 48 275
f 613 614 387
f 613 387 484
f 615 511 387
f 615 387 614
f 615 614 492
f 615 492 511
f 616 513 512
f 616 512 52
f 616 52 281
f 616 281 617
f 618 531 530
f 618 530 619
f 620 513 616
f 620 534 388
f 620 388 513
f 621 372 596
f 621 279 371
f 621 371 372
f 622 517 515
f 622 596 518
f 622 518 517
f 623 487 486
f 623 486 468
f 623 583 487
f 624 156 402
f 624 400 524
f 624 524 474
f 625 402 525
f 625 525 404
f 625 404 402
f 626 529 525
f 626 525 157
f 626 157 529
f 627 404 525
f 627 525 529
f 627 529 256
f 627 256 404
f 628 490 528
f 628 528 531
f 628 585 490
f 629 529 157
f 629 532 530
f 629 530 529
f 630 515 517
f 630 517 532
f 630 532 629
f 630 629 157
f 630 157 515
f 631 538 412
f 631 412 632
f 631 632 171
f 631 171 365
f 631 365 164
f 631 164 537
f 631 537 538
f 633 411 539
f 633 539 170
f 633 170 171
f 633 171 632
f 633 632 412
f 633 412 411
f 634 168 96
f 634 540 413
f 634 413 168
f 635 543 329
f 635 329 331
f 635 331 462
f 635 462 38
f 635 38 541
f 635 541 543
f 636 224 225
f 636 225 329
f 636 329 542
f 636 542 328
f 636 328 224
f 637 548 477
f 637 477 544
f 637 544 545
f 637 545 581
f 638 546 421
f 638 421 188
f 639 271 420
f 639 640 641
f 639 422 271
f 642 643 644
f 642 644 645
f 642 645 424
f 646 295 292
f 646 292 647
f 646 647 643
f 646 643 642
f 646 642 424
f 646 424 295
f 648 649 645
f 648 645 644
f 648 644 640
f 650 425 424
f 650 424 645
f 650 426 425
f 651 426 650
f 651 650 645
f 651 645 649
f 651 649 652
f 651 652 426
f 653 418 652
f 654 652 649
f 655 419 426
f 655 426 652
f 655 652 418
f 655 418 419
f 656 430 428
f 656 428 297
f 656 297 429
f 656 429 551
f 656 551 657
f 656 657 430
f 658 203 76
f 658 76 553
f 658 553 433
f 658 433 205
f 658 205 202
f 658 202 79
f 658 79 203
f 659 186 303
f 659 303 434
f 659 434 660
f 659 304 186
f 661 657 551
f 662 660 434
f 662 434 554
f 662 554 181
f 662 181 552
f 663 559 664
f 663 521 395
f 665 518 595
f 665 324 391
f 665 391 518
f 666 664 559
f 666 559 558
f 666 558 324
f 666 324 665
f 666 665 595
f 666 595 594
f 667 370 148
f 667 560 375
f 667 375 370
f 668 462 331
f 668 331 563
f 668 563 461
f 668 461 462
f 669 571 570
f 669 576 670
f 669 573 572
f 669 572 571
f 671 479 579
f 671 579 473
f 671 473 573
f 671 573 669
f 671 669 670
f 671 670 480
f 671 480 479
f 672 474 579
f 672 579 476
f 672 476 610
f 672 610 156
f 672 156 474
f 673 580 545
f 673 545 478
f 673 478 480
f 673 582 470
f 673 470 580
f 674 485 583
f 674 258 133
f 674 133 485
f 675 482 361
f 675 357 482
f 676 561 560
f 676 502 505
f 676 505 589
f 676 589 588
f 676 588 562
f 676 562 561
f 677 594 592
f 677 592 593
f 678 597 373
f 678 373 454
f 678 454 455
f 679 227 520
f 679 520 680
f 679 680 681
f 679 457 456
f 679 456 227
f 682 600 599
f 682 599 609
f 682 609 607
f 682 607 600
f 683 609 599
f 683 599 684
f 685 383 605
f 685 599 598
f 685 598 273
f 685 273 383
f 686 603 379
f 686 379 684
f 686 684 605
f 686 605 604
f 686 604 687
f 686 687 188
f 686 188 603
f 688 604 385
f 689 617 281
f 689 281 366
f 689 366 491
f 690 689 691
f 692 519 390
f 692 390 389
f 692 389 693
f 692 693 694
f 692 694 519
f 695 530 519
f 695 519 694
f 696 697 618
f 696 618 619
f 698 389 448
f 698 448 450
f 698 450 534
f 698 534 620
f 699 620 616
f 699 616 690
f 700 279 621
f 700 621 596
f 700 596 622
f 700 515 279
f 701 521 663
f 701 663 664
f 701 677 680
f 701 680 520
f 701 520 521
f 702 523 357
f 702 357 623
f 702 623 468
f 702 468 523
f 703 583 623
f 703 623 357
f 703 357 675
f 703 675 583
f 704 156 624
f 704 624 474
f 704 474 156
f 705 400 624
f 705 624 402
f 705 402 400
f 706 484 585
f 706 585 628
f 707 628 531
f 707 531 618
f 708 540 634
f 708 634 96
f 709 423 546
f 710 640 639
f 710 639 420
f 710 420 547
f 711 641 712
f 711 712 713
f 711 713 688
f 711 688 385
f 711 385 384
f 711 384 422
f 711 422 639
f 711 639 641
f 714 643 647
f 714 712 641
f 715 423 709
f 715 709 713
f 715 713 712
f 715 712 714
f 715 714 647
f 715 647 292
f 715 292 423
f 716 547 548
f 716 654 649
f 716 649 648
f 716 648 640
f 716 640 710
f 716 710 547
f 717 578 418
f 717 418 653
f 717 581 470
f 717 470 179
f 717 179 578
f 718 654 716
f 718 716 548
f 718 548 637
f 719 304 659
f 719 659 660
f 719 608 435
f 719 435 304
f 720 507 606
f 720 606 607
f 720 607 608
f 720 381 507
f 721 660 662
f 721 662 552
f 721 552 430
f 721 430 657
f 721 657 661
f 722 396 92
f 722 92 95
f 722 95 221
f 722 221 326
f 723 354 576
f 723 576 669
f 723 669 570
f 723 570 354
f 724 673 480
f 724 480 670
f 725 360 138
f 725 674 583
f 725 583 675
f 725 675 361
f 725 361 360
f 726 590 502
f 726 502 676
f 726 676 560
f 727 681 680
f 727 680 677
f 727 677 593
f 728 305 609
f 728 609 683
f 728 683 684
f 728 684 379
f 728 379 506
f 728 506 305
f 729 684 599
f 729 599 685
f 729 685 605
f 729 605 684
f 730 614 697
f 730 492 614
f 731 689 491
f 731 491 492
f 731 492 730
f 731 730 732
f 731 732 691
f 731 691 689
f 733 617 689
f 733 689 690
f 733 690 616
f 733 616 617
f 734 690 691
f 735 734 691
f 736 696 619
f 736 619 530
f 736 530 695
f 737 620 699
f 737 699 690
f 737 690 734
f 737 734 694
f 737 694 693
f 738 515 700
f 738 700 622
f 738 622 515
f 739 594 677
f 739 677 701
f 739 701 664
f 739 664 666
f 739 666 594
f 740 697 614
f 740 614 613
f 740 613 484
f 740 484 706
f 740 706 628
f 740 628 707
f 740 707 618
f 740 618 697
f 741 540 708
f 741 708 414
f 741 414 289
f 741 289 540
f 742 97 328
f 742 328 414
f 742 414 708
f 742 708 96
f 742 96 97
f 743 638 188
f 743 188 687
f 743 687 604
f 743 604 688
f 743 688 713
f 743 713 709
f 743 709 546
f 743 546 638
f 744 644 643
f 744 643 714
f 744 714 641
f 744 641 640
f 744 640 644
f 745 581 717
f 745 717 653
f 745 653 652
f 745 652 654
f 745 654 718
f 745 718 637
f 745 637 581
f 746 661 719
f 746 719 660
f 746 660 721
f 746 721 661
f 747 381 720
f 747 720 661
f 747 661 551
f 747 551 381
f 748 719 661
f 748 661 720
f 748 720 608
f 748 608 719
f 749 451 559
f 749 559 663
f 749 663 722
f 749 722 326
f 749 326 451
f 750 396 722
f 750 722 663
f 750 663 395
f 750 395 396
f 751 576 574
f 751 574 355
f 751 355 582
f 751 582 673
f 751 673 724
f 751 724 670
f 751 670 576
f 752 258 674
f 752 674 725
f 752 725 138
f 752 138 258
f 753 148 590
f 753 590 726
f 753 726 560
f 753 560 667
f 753 667 148
f 754 455 332
f 754 332 457
f 754 457 679
f 754 679 681
f 754 681 727
f 754 678 455
f 755 597 678
f 755 678 754
f 755 754 727
f 755 727 593
f 755 593 372
f 755 372 597
f 756 730 697
f 756 697 696
f 757 736 695
f 757 695 694
f 757 694 734
f 757 734 735
f 758 698 620
f 758 620 737
f 758 737 693
f 758 693 389
f 758 389 698
f 759 736 757
f 759 757 735
f 759 735 691
f 759 691 732
f 759 732 730
f 759 730 756
f 759 756 696
f 759 696 736
