# Convex hull collision mesh — generated by scripts/generate-collision-meshes.mjs
v -0.650927 9.413772 21.500000
v -1.113401 4.761621 21.500000
v 2.356264 6.164524 21.500000
v 18.398655 -1.933777 0.000000
v 18.500000 0.000000 -29.000000
v 18.500000 0.000000 0.000000
v 2.982394 6.675463 21.000000
v 1.209666 4.812145 21.500000
v 1.616727 8.906881 21.500000
v -2.487738 7.247308 21.500000
v -18.398655 -1.933777 0.000000
v -18.500000 0.000000 0.000000
v -18.500000 0.000000 -29.000000
v -16.900591 -7.524628 -29.000000
v -17.594545 -5.716815 0.000000
v -17.594545 -5.716815 -29.000000
v 0.800000 9.675000 -56.881569
v -0.800000 -9.675000 -56.881569
v -0.800000 9.675000 -56.881569
v 1.500000 10.281218 -56.531570
v 14.038644 -8.669861 -51.000000
v 16.021469 -9.250000 -29.000000
v 14.966814 -10.874027 -29.000000
v 16.900591 -7.524628 0.000000
v 16.900591 -7.524628 -29.000000
v -1.933777 -18.398655 0.000000
v -0.000000 -18.500000 -29.000000
v -0.000000 -18.500000 0.000000
v 0.054359 4.500591 21.500000
v 2.078346 4.836559 21.000000
v 12.378916 -13.748179 0.000000
v 13.748179 -12.378916 0.000000
v 12.378916 -13.748179 -29.000000
v 2.487738 6.752692 21.500000
v -1.698103 8.834788 21.500000
v -0.536068 9.951716 21.000000
v -5.716815 17.594545 0.000000
v -1.201354 9.748954 21.000000
v -18.095730 -3.846366 -29.000000
v -2.910456 6.272508 21.000000
v -2.664723 5.621867 21.000000
v -2.317712 6.062871 21.500000
v -3.846366 -18.095730 -29.000000
v -3.846366 -18.095730 0.000000
v -5.716815 -17.594545 0.000000
v -13.748179 -12.378916 -29.000000
v -12.378916 -13.748179 -29.000000
v -13.748179 -12.378916 0.000000
v -14.966814 -10.874027 -29.000000
v 0.800000 -9.675000 -56.881569
v 1.500000 -10.281218 -56.531570
v 12.995448 -10.167021 -51.000000
v 10.167021 -12.995448 -51.000000
v -13.748179 12.378916 0.000000
v -13.748179 12.378916 -29.000000
v -14.966814 10.874027 0.000000
v 0.000000 10.800833 -56.231571
v -1.500000 12.675000 -55.149521
v 1.500000 12.675000 -55.149521
v 0.000000 16.379583 -51.325447
v 1.808670 16.279419 -51.325447
v 1.500000 12.801848 -55.057358
v -3.846366 18.095730 0.000000
v -5.716815 17.594545 -29.000000
v -1.500000 10.281218 -56.531570
v -15.796492 3.553900 -51.461941
v -7.524628 16.900591 0.000000
v -12.378916 13.748179 -29.000000
v -10.167021 12.995448 -51.000000
v -18.398655 1.933777 0.000000
v -13.776024 8.507674 -51.461941
v -14.631216 6.934469 -51.461941
v 18.398655 1.933777 -29.000000
v 14.966814 -10.874027 0.000000
v 2.827517 5.997428 21.000000
v 17.594545 -5.716815 0.000000
v 18.398655 -1.933777 -29.000000
v 18.095730 -3.846366 -29.000000
v 7.524628 -16.900591 0.000000
v 7.524628 -16.900591 -29.000000
v 9.250000 -16.021469 0.000000
v 5.716815 -17.594545 0.000000
v 1.933777 -18.398655 0.000000
v 10.874027 -14.966814 0.000000
v -0.545368 4.560210 21.500000
v 1.698103 5.165212 21.500000
v 13.748179 -12.378916 -29.000000
v 16.021469 9.250000 0.000000
v 16.900591 7.524628 0.000000
v 16.021469 9.250000 -29.000000
v 2.811561 8.046481 21.000000
v -1.209666 9.187855 21.500000
v -2.356264 7.835476 21.500000
v -1.802072 9.398445 21.000000
v -1.977789 8.902876 21.255579
v -0.054359 9.499409 21.500000
v -18.095730 -3.846366 0.000000
v -18.398655 -1.933777 -29.000000
v -16.097630 -3.621650 -51.000000
v -1.764503 4.573783 21.000000
v -9.250000 -16.021469 0.000000
v -2.474633 6.644767 21.500000
v -1.616727 5.093119 21.500000
v -2.026094 5.535438 21.500000
v -2.275770 5.045296 21.000000
v -14.966814 -10.874027 0.000000
v -16.021469 -9.250000 0.000000
v -16.900591 -7.524628 0.000000
v -16.021469 -9.250000 -29.000000
v -14.910139 -7.066664 -51.000000
v -14.038644 -8.669861 -51.000000
v -5.716815 -17.594545 -29.000000
v -7.524628 -16.900591 -29.000000
v -7.524628 -16.900591 0.000000
v -9.250000 -16.021469 -29.000000
v -10.874027 -14.966814 -29.000000
v -8.669861 -14.038644 -51.000000
v -10.874027 -14.966814 0.000000
v -10.167021 -12.995448 -51.000000
v -10.159892 -12.988319 -51.098362
v 14.910139 -7.066664 -51.000000
v 15.821473 -3.559521 -51.450485
v 16.117771 -1.790711 -51.450485
v 15.331671 -5.284796 -51.450485
v 12.967694 -10.139268 -51.192390
v 10.127575 -12.956001 -51.227886
v 12.926743 -10.098315 -51.294903
v 0.750000 12.746922 -55.102295
v 3.595220 15.980149 -51.325447
v 5.337798 15.485435 -51.325447
v 0.000000 18.500000 0.000000
v 0.000000 18.500000 -29.000000
v -1.933777 18.398655 -29.000000
v 1.933777 18.398655 -29.000000
v -10.019868 12.848295 -51.404629
v -12.870023 10.041596 -51.380810
v -10.081209 12.909636 -51.325413
v -8.517241 13.890146 -51.404762
v -12.926743 10.098315 -51.294903
v -10.156833 12.985260 -51.117558
v -12.988319 10.159892 -51.098362
v -5.377039 15.599277 -51.000000
v -3.621650 16.097630 -51.000000
v -16.092321 1.787884 -51.461941
v -14.966814 10.874027 -29.000000
v -16.021469 9.250000 -29.000000
v -18.095730 3.846366 -29.000000
v -16.097630 3.621650 -51.000000
v -16.399099 1.821967 -51.000000
v -16.900591 7.524628 0.000000
v -17.594545 5.716815 0.000000
v -18.095730 3.846366 0.000000
v -2.518829 7.376998 21.452690
v -12.800600 9.972173 -51.445389
v -15.307463 5.276451 -51.461941
v 10.041596 12.870023 -51.380810
v 16.900591 7.524628 -29.000000
v 14.910139 7.066664 -51.000000
v 17.594545 5.716815 -29.000000
v 16.021469 -9.250000 0.000000
v 2.520670 5.373279 21.000000
v 18.095730 -3.846366 0.000000
v 17.594545 -5.716815 -29.000000
v 1.933777 -18.398655 -29.000000
v 1.821967 -16.399099 -51.000000
v 3.846366 -18.095730 -29.000000
v 3.846366 -18.095730 0.000000
v 10.874027 -14.966814 -29.000000
v 8.669861 -14.038644 -51.000000
v 0.650927 4.586228 21.500000
v 1.524318 4.416117 21.000000
v 14.966814 10.874027 -29.000000
v 18.398655 1.933777 0.000000
v 18.095730 3.846366 0.000000
v 17.594545 5.716815 0.000000
v 2.317712 7.937129 21.500000
v 2.495032 8.665777 21.000000
v -2.087852 8.375090 21.500000
v -12.378916 13.748179 0.000000
v -10.874027 14.966814 0.000000
v -16.500000 0.000000 -51.000000
v -16.399099 -1.821967 -51.000000
v -2.675283 6.935757 21.323973
v -12.775428 -9.947001 -51.461575
v -12.848295 -10.019868 -51.404629
v -13.890146 -8.517241 -51.404762
v -15.599277 -5.377039 -51.000000
v -15.596236 -5.342711 -51.117622
v -3.621650 -16.097630 -51.000000
v -1.933777 -18.398655 -29.000000
v -12.378916 -13.748179 0.000000
v -12.995448 -10.167021 -51.000000
v -12.985260 -10.156833 -51.117558
v 10.156833 -12.985260 -51.117558
v -1.500000 -10.281218 -56.531570
v -9.972173 -12.800600 -51.445389
v 1.500000 -12.675000 -55.149521
v 10.019868 -12.848295 -51.404629
v 0.750000 -12.699571 -55.134701
v -0.750000 -12.675000 -55.149521
v 10.081209 -12.909636 -51.325413
v 8.596393 -14.019229 -51.228058
v 14.654355 -6.945436 -51.450485
v 12.800600 -9.972173 -51.445389
v 16.399099 -1.821967 -51.000000
v 12.988319 -10.159892 -51.098362
v 0.750000 12.699571 -55.134701
v 5.716815 17.594545 -29.000000
v 7.524628 16.900591 0.000000
v 7.524628 16.900591 -29.000000
v 0.735724 12.856666 -55.002419
v -0.739790 12.840820 -55.019482
v -0.750000 12.746922 -55.102295
v -1.500000 12.801848 -55.057358
v -3.574885 15.984711 -51.325447
v -1.798314 16.280567 -51.325447
v -6.940754 14.741284 -51.404762
v -3.846366 18.095730 -29.000000
v 1.113401 9.238379 21.500000
v -1.933777 18.398655 0.000000
v -7.022724 14.915378 -51.117622
v -7.066664 14.910139 -51.000000
v -8.669861 14.038644 -51.000000
v -9.250000 16.021469 -29.000000
v -12.967694 10.139268 -51.192390
v -7.524628 16.900591 -29.000000
v -10.874027 14.966814 -29.000000
v -9.250000 16.021469 0.000000
v -16.385153 1.820418 -51.117622
v -16.485968 0.000000 -51.117622
v -16.043932 3.609570 -51.228058
v -16.344397 1.815889 -51.228058
v -15.980149 3.595220 -51.325447
v -12.995448 10.167021 -51.000000
v -18.398655 1.933777 -29.000000
v -17.594545 5.716815 -29.000000
v -16.021469 9.250000 0.000000
v 12.775428 9.947001 -51.461575
v 13.890146 8.517241 -51.404762
v 13.803015 8.463814 -51.461941
v 15.599277 5.377039 -51.000000
v 16.097630 3.621650 -51.000000
v 15.596236 5.342711 -51.117622
v 14.741284 6.940754 -51.404762
v 14.819129 6.977406 -51.325447
v 14.878278 7.005256 -51.228058
v 15.495593 5.308235 -51.325447
v 14.019229 8.596393 -51.228058
v 14.054187 8.617828 -51.117622
v 15.801001 3.533799 -51.461941
v 15.317505 5.247228 -51.461941
v 16.093456 1.777646 -51.461941
v 16.195045 1.788867 -51.404762
v 18.095730 3.846366 -29.000000
v 16.399099 1.821967 -51.000000
v 2.087852 5.624910 21.500000
v 15.599277 -5.377039 -51.000000
v 9.250000 -16.021469 -29.000000
v 13.748179 12.378916 -29.000000
v 12.995448 10.167021 -51.000000
v 12.378916 13.748179 -29.000000
v 14.038644 8.669861 -51.000000
v 2.976979 7.370941 21.000000
v 2.026094 8.464562 21.500000
v 12.378916 13.748179 0.000000
v 10.874027 14.966814 -29.000000
v -16.386307 -1.809994 -51.117622
v -10.139268 -12.967694 -51.192390
v -10.041596 -12.870023 -51.380810
v -12.909636 -10.081209 -51.325413
v -10.098315 -12.926743 -51.294903
v -8.662488 -14.026705 -51.117622
v -7.066664 -14.910139 -51.000000
v -0.000000 -16.500000 -51.000000
v -1.500000 -12.801848 -55.057358
v -1.808670 -16.279419 -51.325447
v -3.595220 -15.980149 -51.325447
v -5.337798 -15.485435 -51.325447
v -7.015092 -14.801326 -51.325447
v -0.000000 -16.379583 -51.325447
v -5.377039 -15.599277 -51.000000
v -1.821967 -16.399099 -51.000000
v 8.617828 -14.054187 -51.117622
v 5.716815 -17.594545 -29.000000
v 0.000000 -10.800833 -56.231571
v -13.803015 -8.463814 -51.461941
v 8.517241 -13.890146 -51.404762
v 6.940754 -14.741284 -51.404762
v 1.500000 -12.801848 -55.057358
v -0.000000 -16.444962 -51.228058
v 12.870023 -10.041596 -51.380810
v 13.878471 -8.570943 -51.390915
v 13.797810 -8.521130 -51.450485
v 14.027977 -8.663274 -51.111259
v 16.097630 -3.621650 -51.000000
v 16.386639 -1.820583 -51.111259
v 16.487465 0.000000 -51.111259
v 16.085398 -3.618899 -51.111259
v 15.913964 -3.580329 -51.390915
v 8.606589 13.936191 -51.325447
v 10.098315 12.926743 -51.294903
v 9.250000 16.021469 -29.000000
v 7.066664 14.910139 -51.000000
v 5.377039 15.599277 -51.000000
v 3.846366 18.095730 -29.000000
v 1.821967 16.399099 -51.000000
v 3.846366 18.095730 0.000000
v 0.750000 12.723557 -55.118950
v 0.746300 12.804739 -55.054668
v 0.000000 16.500000 -51.000000
v 1.820418 16.385153 -51.117622
v 1.815889 16.344397 -51.228058
v -1.821967 16.399099 -51.000000
v -1.809994 16.386307 -51.117622
v 0.158030 9.995835 21.000000
v 1.933777 18.398655 0.000000
v 5.716815 17.594545 0.000000
v -8.617828 14.054187 -51.117622
v -13.991815 8.640941 -51.228058
v -3.589154 16.048512 -51.228058
v -1.805491 16.345549 -51.228058
v -3.598104 16.088530 -51.117622
v -5.342711 15.596236 -51.117622
v -5.329422 15.557442 -51.228058
v -5.308235 15.495593 -51.325447
v -16.083939 3.618570 -51.117622
v -16.279419 1.808670 -51.325447
v -15.404091 5.309759 -51.404762
v -15.485435 5.337798 -51.325447
v -16.900591 7.524628 -29.000000
v -14.910139 7.066664 -51.000000
v -15.599277 5.377039 -51.000000
v -2.163339 8.379575 21.434132
v 9.972173 12.800600 -51.445389
v 12.956001 10.127575 -51.227886
v 14.648814 6.897216 -51.461941
v 15.414196 5.280351 -51.404762
v 14.915378 7.022724 -51.117622
v 15.557442 5.329422 -51.228058
v 13.963495 8.562218 -51.325447
v 16.216942 0.000000 -51.450485
v 16.311745 0.000000 -51.390915
v 16.048512 3.589154 -51.228058
v 16.500000 0.000000 -51.000000
v 14.898811 -7.061296 -51.111259
v 2.474633 7.355233 21.500000
v 1.483896 9.607307 21.000000
v 14.966814 10.874027 0.000000
v -15.801001 -3.533799 -51.461941
v -16.093456 -1.777646 -51.461941
v -15.317505 -5.247228 -51.461941
v -15.900743 -3.556107 -51.404762
v -16.195045 -1.788867 -51.404762
v -16.191336 0.000000 -51.461941
v -16.345549 -1.805491 -51.228058
v -12.956001 -10.127575 -51.227886
v -14.019229 -8.596393 -51.228058
v -14.054187 -8.617828 -51.117622
v -14.878278 -7.005256 -51.228058
v -15.495593 -5.308235 -51.325447
v -14.819129 -6.977406 -51.325447
v -13.963495 -8.562218 -51.325447
v -15.414196 -5.280351 -51.404762
v -7.043092 -14.860404 -51.228058
v -7.060655 -14.897460 -51.117622
v -8.640941 -13.991815 -51.228058
v -1.500000 -12.675000 -55.149521
v -8.561379 -13.862985 -51.404762
v -6.978242 -14.723576 -51.404762
v 0.739790 -12.840820 -55.019482
v -5.372467 -15.586012 -51.117622
v -3.618570 -16.083939 -51.117622
v -3.609570 -16.043932 -51.228058
v -1.820418 -16.385153 -51.117622
v -0.000000 -16.485968 -51.117622
v 7.066664 -14.910139 -51.000000
v 1.805491 -16.345549 -51.228058
v 3.621650 -16.097630 -51.000000
v -14.741284 -6.940754 -51.404762
v 8.562218 -13.963495 -51.325447
v 13.996514 -8.643844 -51.216942
v 14.811565 -7.019946 -51.311745
v 14.865395 -7.045458 -51.216942
v 15.421299 -5.315691 -51.390915
v 16.349886 -1.816499 -51.216942
v 16.450485 0.000000 -51.216942
v 16.049320 -3.610782 -51.216942
v 8.561379 13.862985 -51.404762
v 6.978242 14.723576 -51.404762
v 7.015092 14.801326 -51.325447
v 7.043092 14.860404 -51.228058
v 8.669861 14.038644 -51.000000
v 7.060655 14.897460 -51.117622
v -0.750000 12.699571 -55.134701
v 0.000000 16.485968 -51.117622
v 0.545368 9.439790 21.500000
v -8.562218 13.963495 -51.325447
v -8.596393 14.019229 -51.228058
v -10.127575 12.956001 -51.227886
v -14.897460 7.060655 -51.117622
v -13.936191 8.606589 -51.325447
v -14.038644 8.669861 -51.000000
v -6.977406 14.819129 -51.325447
v -15.896207 3.576334 -51.404762
v -15.586012 5.372467 -51.117622
v 12.985260 10.156833 -51.117558
v 10.159892 12.988319 -51.098362
v 10.139268 12.967694 -51.192390
v 12.909636 10.081209 -51.325413
v 16.088530 3.598104 -51.117622
v 15.984711 3.574885 -51.325447
v 16.280567 1.798314 -51.325447
v 15.587425 -5.372954 -51.111259
v 10.874027 14.966814 0.000000
v 2.044404 9.195544 21.000000
v 13.748179 12.378916 0.000000
v -16.293543 0.000000 -51.404762
v -16.444962 0.000000 -51.228058
v -16.379583 0.000000 -51.325447
v -16.280567 -1.798314 -51.325447
v -16.048512 -3.589154 -51.228058
v -14.915378 -7.022724 -51.117622
v -15.557442 -5.329422 -51.228058
v -16.088530 -3.598104 -51.117622
v -8.606589 -13.936191 -51.325447
v -0.750000 -12.746922 -55.102295
v -0.746300 -12.804739 -55.054668
v -0.735724 -12.856666 -55.002419
v -5.359103 -15.547243 -51.228058
v -1.815889 -16.344397 -51.228058
v 7.022724 -14.915378 -51.117622
v 5.377039 -15.599277 -51.000000
v 1.798314 -16.280567 -51.325447
v 3.589154 -16.048512 -51.228058
v 1.809994 -16.386307 -51.117622
v -14.648814 -6.897216 -51.461941
v 13.945831 -8.612543 -51.311745
v 15.496148 -5.341491 -51.311745
v 15.991204 -3.597707 -51.311745
v 14.740024 -6.986038 -51.390915
v 16.290682 -1.809922 -51.311745
v 10.167021 12.995448 -51.000000
v 5.372467 15.586012 -51.117622
v 3.609570 16.043932 -51.228058
v 3.618570 16.083939 -51.117622
v 3.621650 16.097630 -51.000000
v -0.750000 12.723557 -55.118950
v 0.000000 16.444962 -51.228058
v 0.843634 9.878938 21.000000
v -14.801326 7.015092 -51.325447
v -13.862985 8.561379 -51.404762
v -14.026705 8.662488 -51.117622
v -7.005256 14.878278 -51.228058
v -15.547243 5.359103 -51.228058
v 8.640941 13.991815 -51.228058
v 12.848295 10.019868 -51.404629
v 15.900743 3.556107 -51.404762
v 16.386307 1.809994 -51.117622
v 16.390915 0.000000 -51.311745
v 15.552464 -5.360903 -51.216942
v 9.250000 16.021469 0.000000
v -16.193905 1.799169 -51.404762
v -15.984711 -3.574885 -51.325447
v -0.750000 -12.723557 -55.118950
v 0.750000 -12.746922 -55.102295
v 7.005256 -14.878278 -51.228058
v 5.342711 -15.596236 -51.117622
v 3.574885 -15.984711 -51.325447
v 5.308235 -15.495593 -51.325447
v 3.598104 -16.088530 -51.117622
v 16.211994 -1.801179 -51.390915
v 5.359103 15.547243 -51.228058
v -14.860404 7.043092 -51.228058
v -14.723576 6.978242 -51.404762
v 8.662488 14.026705 -51.117622
v 16.345549 1.805491 -51.228058
v -0.750000 -12.699571 -55.134701
v 0.750000 -12.723557 -55.118950
v 6.977406 -14.819129 -51.325447
v 5.329422 -15.557442 -51.228058
f 1 2 3
f 4 5 6
f 4 6 7
f 8 3 2
f 9 1 3
f 10 2 1
f 11 12 13
f 14 15 16
f 17 18 19
f 17 19 20
f 21 22 23
f 24 22 25
f 26 27 28
f 29 8 2
f 29 26 28
f 30 31 32
f 33 32 31
f 34 9 3
f 34 3 7
f 35 10 1
f 36 37 38
f 36 38 1
f 39 16 15
f 40 15 41
f 40 12 11
f 42 40 41
f 42 2 10
f 43 26 44
f 45 43 44
f 46 47 48
f 46 48 49
f 50 51 18
f 50 18 17
f 52 21 23
f 52 33 53
f 54 55 56
f 57 58 59
f 57 59 20
f 60 61 62
f 63 64 37
f 63 37 36
f 65 58 57
f 65 57 20
f 65 20 19
f 65 19 66
f 67 37 64
f 67 38 37
f 68 55 54
f 68 69 55
f 70 13 12
f 71 65 72
f 73 6 5
f 74 23 22
f 74 32 23
f 75 7 3
f 76 24 25
f 76 75 24
f 77 4 78
f 77 5 4
f 79 80 81
f 79 81 8
f 79 82 80
f 83 28 27
f 83 29 28
f 84 33 31
f 84 8 81
f 85 44 26
f 85 26 29
f 85 29 2
f 85 2 45
f 85 45 44
f 86 84 31
f 86 31 30
f 86 3 8
f 87 32 33
f 87 33 52
f 87 52 23
f 87 23 32
f 88 89 90
f 91 89 88
f 92 35 1
f 92 1 38
f 93 10 35
f 94 95 35
f 94 35 92
f 94 92 38
f 94 54 56
f 94 56 95
f 96 36 1
f 96 1 9
f 97 11 39
f 97 39 15
f 97 15 40
f 97 40 11
f 98 39 11
f 98 11 13
f 99 16 39
f 100 101 2
f 102 40 42
f 102 42 10
f 103 2 42
f 103 100 2
f 104 105 103
f 104 103 42
f 104 42 41
f 104 41 105
f 106 105 41
f 106 41 107
f 106 107 49
f 106 49 48
f 106 48 105
f 108 15 14
f 108 14 107
f 108 107 41
f 108 41 15
f 109 14 110
f 109 110 111
f 109 111 49
f 109 49 107
f 109 107 14
f 112 43 45
f 112 45 113
f 114 101 113
f 114 113 45
f 114 45 2
f 114 2 101
f 115 101 116
f 115 116 117
f 115 113 101
f 118 47 116
f 118 116 101
f 118 101 100
f 118 100 103
f 119 116 47
f 119 47 46
f 119 120 117
f 119 117 116
f 121 25 22
f 121 22 21
f 122 50 123
f 122 124 51
f 122 51 50
f 125 126 127
f 128 62 59
f 129 130 62
f 129 62 61
f 131 132 133
f 131 134 132
f 135 58 65
f 135 136 137
f 135 138 58
f 139 137 136
f 140 141 69
f 142 64 143
f 144 66 19
f 145 146 56
f 145 56 55
f 147 148 149
f 150 151 93
f 152 151 147
f 152 147 70
f 153 10 93
f 153 93 151
f 153 151 152
f 153 152 70
f 154 65 71
f 154 136 135
f 154 135 65
f 155 72 65
f 155 65 66
f 156 20 59
f 157 158 90
f 157 90 89
f 157 89 159
f 160 74 22
f 160 22 24
f 161 30 32
f 161 32 74
f 161 74 160
f 161 160 24
f 161 24 75
f 161 75 3
f 162 4 7
f 162 7 75
f 162 75 76
f 162 76 78
f 162 78 4
f 163 78 76
f 163 76 25
f 164 165 166
f 164 166 83
f 164 83 27
f 167 83 166
f 167 166 82
f 168 169 53
f 168 53 33
f 168 33 84
f 168 84 81
f 170 29 83
f 170 83 167
f 170 167 82
f 170 82 79
f 170 79 8
f 170 8 29
f 171 84 86
f 171 86 8
f 171 8 84
f 172 88 90
f 173 6 73
f 173 73 174
f 175 89 91
f 175 91 174
f 175 174 159
f 175 159 89
f 176 9 34
f 177 176 91
f 177 91 88
f 178 93 35
f 178 35 95
f 179 54 94
f 179 94 180
f 179 180 68
f 179 68 54
f 181 98 13
f 182 98 181
f 182 99 39
f 182 39 98
f 183 40 102
f 183 102 10
f 183 10 153
f 183 153 70
f 183 70 12
f 183 12 40
f 184 185 186
f 187 110 14
f 187 14 16
f 187 16 99
f 187 99 188
f 189 43 112
f 190 27 26
f 190 26 43
f 191 47 118
f 191 118 103
f 191 103 105
f 191 105 48
f 191 48 47
f 192 193 120
f 192 120 119
f 192 119 46
f 192 46 49
f 192 49 111
f 192 111 193
f 194 126 125
f 194 53 169
f 195 196 185
f 195 185 184
f 195 18 51
f 197 51 198
f 197 199 200
f 201 126 202
f 201 127 126
f 203 51 124
f 204 198 51
f 205 77 78
f 206 52 53
f 206 53 194
f 206 194 125
f 206 21 52
f 207 59 58
f 208 209 210
f 211 62 212
f 211 212 60
f 211 60 62
f 213 62 128
f 214 215 216
f 214 216 60
f 214 60 212
f 214 62 213
f 214 213 58
f 214 58 138
f 214 138 217
f 218 63 133
f 218 143 64
f 218 64 63
f 219 96 9
f 220 63 36
f 220 131 133
f 220 133 63
f 221 222 142
f 223 140 69
f 223 224 222
f 225 141 140
f 226 64 142
f 226 142 222
f 226 222 224
f 226 224 67
f 226 67 64
f 227 68 180
f 227 180 224
f 227 224 223
f 227 223 69
f 227 69 68
f 228 67 224
f 228 224 180
f 228 180 94
f 228 94 38
f 228 38 67
f 229 230 181
f 229 181 149
f 229 149 148
f 229 231 232
f 233 232 231
f 234 145 55
f 234 55 69
f 234 69 141
f 235 70 147
f 235 147 149
f 235 149 181
f 235 181 13
f 235 13 70
f 236 148 147
f 236 147 151
f 236 151 150
f 237 146 150
f 237 95 56
f 237 56 146
f 238 239 240
f 238 240 20
f 241 158 157
f 241 157 159
f 241 159 242
f 241 242 243
f 244 239 245
f 244 240 239
f 246 247 245
f 248 249 246
f 250 17 20
f 250 20 251
f 250 252 17
f 253 252 250
f 254 73 255
f 254 255 242
f 254 242 159
f 254 159 174
f 254 174 73
f 256 86 30
f 256 30 161
f 256 161 3
f 256 3 86
f 257 163 25
f 257 25 121
f 258 169 168
f 258 168 81
f 258 81 80
f 259 172 260
f 259 260 261
f 262 260 172
f 262 172 90
f 262 90 158
f 262 158 249
f 263 34 7
f 263 7 6
f 263 6 173
f 263 173 174
f 263 174 91
f 264 176 177
f 264 9 176
f 265 259 261
f 265 261 266
f 267 182 181
f 267 181 230
f 268 120 193
f 269 196 195
f 269 185 196
f 270 185 269
f 270 269 271
f 272 117 120
f 272 120 268
f 273 113 115
f 273 115 117
f 274 164 27
f 274 27 190
f 274 165 164
f 275 276 277
f 275 277 278
f 275 278 279
f 275 280 276
f 281 189 112
f 281 112 113
f 281 113 273
f 282 274 190
f 282 190 43
f 282 43 189
f 283 202 126
f 283 126 194
f 283 194 169
f 284 80 82
f 284 82 166
f 285 195 51
f 285 51 197
f 285 197 200
f 286 195 184
f 286 184 186
f 287 288 289
f 287 289 197
f 287 197 198
f 290 276 280
f 291 127 201
f 291 201 198
f 291 198 204
f 291 204 292
f 293 292 204
f 293 204 51
f 293 51 203
f 293 203 292
f 294 21 206
f 294 206 125
f 295 205 78
f 295 78 163
f 295 163 257
f 296 297 205
f 296 205 295
f 296 295 298
f 299 122 123
f 300 301 156
f 302 303 210
f 302 210 209
f 304 208 210
f 304 210 303
f 305 306 134
f 305 134 307
f 305 307 208
f 308 213 128
f 308 128 59
f 308 59 207
f 309 62 214
f 309 214 212
f 309 212 62
f 310 132 134
f 310 134 306
f 310 306 311
f 310 133 132
f 312 129 61
f 313 143 218
f 313 218 133
f 313 133 310
f 313 310 314
f 315 36 96
f 315 131 220
f 315 220 36
f 316 131 315
f 316 315 307
f 316 307 134
f 316 134 131
f 317 208 307
f 317 209 208
f 318 140 223
f 318 223 222
f 318 222 221
f 319 225 139
f 320 321 216
f 320 216 215
f 322 143 313
f 322 313 314
f 322 314 321
f 322 321 320
f 323 142 143
f 323 143 322
f 323 322 320
f 323 320 324
f 323 221 142
f 325 324 320
f 325 320 215
f 325 215 214
f 326 231 229
f 326 229 148
f 327 232 233
f 328 233 329
f 330 236 150
f 330 150 146
f 330 146 331
f 332 148 236
f 332 236 330
f 332 330 331
f 333 178 95
f 333 95 237
f 333 237 150
f 333 150 93
f 333 93 178
f 334 20 156
f 335 249 248
f 336 20 240
f 336 240 244
f 336 244 251
f 336 251 20
f 337 244 245
f 337 245 247
f 337 250 251
f 337 251 244
f 338 243 246
f 338 246 249
f 338 249 158
f 338 158 241
f 338 241 243
f 339 247 246
f 339 246 243
f 340 245 239
f 340 248 246
f 340 246 245
f 341 50 17
f 341 17 252
f 341 252 253
f 341 253 342
f 341 342 123
f 341 123 50
f 343 247 339
f 343 339 243
f 344 297 255
f 344 255 73
f 344 73 5
f 344 5 77
f 344 77 205
f 344 205 297
f 345 257 121
f 345 121 21
f 345 21 294
f 346 176 34
f 346 34 263
f 346 263 91
f 346 91 176
f 347 219 9
f 348 88 172
f 348 172 259
f 348 177 88
f 349 350 18
f 349 18 195
f 349 195 351
f 349 352 353
f 349 353 350
f 354 144 19
f 354 19 18
f 354 18 350
f 355 267 230
f 356 268 193
f 356 357 270
f 356 270 271
f 356 271 268
f 358 357 356
f 358 356 193
f 358 193 111
f 358 111 110
f 359 357 358
f 359 360 361
f 362 186 185
f 362 185 270
f 362 270 357
f 362 357 359
f 362 359 361
f 362 361 186
f 363 361 360
f 363 352 349
f 363 349 351
f 364 279 278
f 365 272 364
f 365 281 273
f 365 273 117
f 365 117 272
f 366 272 268
f 366 268 271
f 366 364 272
f 367 269 195
f 367 195 285
f 367 285 200
f 367 200 199
f 367 275 368
f 367 368 269
f 369 368 275
f 369 275 279
f 370 289 280
f 371 372 189
f 371 189 281
f 371 281 365
f 371 373 372
f 374 372 373
f 374 290 375
f 374 375 274
f 374 274 282
f 374 282 189
f 374 189 372
f 376 258 80
f 376 283 169
f 376 169 258
f 377 375 290
f 378 284 166
f 378 166 165
f 379 361 363
f 379 363 351
f 379 286 186
f 379 186 361
f 380 287 198
f 380 198 201
f 380 201 202
f 381 382 383
f 381 383 345
f 381 345 294
f 381 294 125
f 381 125 127
f 384 124 122
f 384 122 299
f 384 203 124
f 385 386 297
f 385 297 296
f 385 296 298
f 385 298 387
f 388 59 62
f 388 62 389
f 388 389 300
f 388 300 156
f 388 156 59
f 390 389 62
f 390 62 130
f 390 130 391
f 390 391 300
f 390 300 389
f 392 303 302
f 392 302 266
f 393 304 303
f 393 303 392
f 394 308 207
f 394 207 58
f 395 321 314
f 395 314 310
f 395 310 311
f 396 315 96
f 396 96 219
f 397 137 398
f 397 138 135
f 397 135 137
f 399 140 318
f 399 318 398
f 399 398 137
f 399 137 139
f 399 139 225
f 399 225 140
f 400 332 331
f 401 319 139
f 401 139 136
f 402 146 145
f 402 145 234
f 402 234 141
f 402 400 331
f 402 331 146
f 403 217 138
f 403 138 397
f 403 325 214
f 403 214 217
f 404 233 328
f 404 328 155
f 404 155 66
f 405 326 148
f 405 148 332
f 405 332 400
f 405 231 326
f 406 249 335
f 406 407 260
f 406 260 262
f 406 262 249
f 408 407 406
f 408 406 335
f 408 335 301
f 409 156 301
f 409 301 335
f 409 335 248
f 409 248 340
f 410 343 243
f 410 243 242
f 410 242 255
f 411 337 247
f 411 247 343
f 412 411 343
f 412 342 253
f 413 257 345
f 413 387 298
f 413 298 295
f 413 295 257
f 414 265 266
f 414 266 302
f 415 265 414
f 415 414 347
f 415 347 9
f 415 9 264
f 415 264 177
f 416 265 415
f 416 415 177
f 416 177 348
f 416 348 259
f 416 259 265
f 417 354 350
f 417 350 353
f 418 355 230
f 418 230 229
f 418 229 232
f 418 232 327
f 418 327 419
f 420 353 352
f 420 421 355
f 420 355 418
f 420 418 419
f 420 419 417
f 420 417 353
f 422 110 187
f 422 187 188
f 422 188 359
f 422 359 358
f 422 358 110
f 423 360 359
f 423 359 188
f 423 188 421
f 423 421 360
f 424 267 355
f 424 355 421
f 424 421 188
f 424 188 99
f 424 99 182
f 424 182 267
f 425 368 369
f 425 369 279
f 425 279 364
f 425 364 366
f 425 366 271
f 425 271 269
f 425 269 368
f 426 275 367
f 426 289 275
f 427 289 370
f 427 370 275
f 427 275 289
f 428 275 370
f 428 370 280
f 428 280 275
f 429 364 278
f 429 278 277
f 429 277 373
f 429 373 371
f 429 371 365
f 429 365 364
f 430 276 290
f 430 290 374
f 430 374 373
f 430 373 277
f 430 277 276
f 431 283 376
f 432 284 378
f 432 431 376
f 432 376 80
f 432 80 284
f 433 280 289
f 433 434 377
f 433 377 290
f 433 290 280
f 435 375 377
f 435 165 274
f 435 274 375
f 436 195 286
f 436 286 379
f 436 379 351
f 436 351 195
f 437 292 382
f 437 382 381
f 437 381 127
f 437 127 291
f 437 291 292
f 438 439 387
f 438 383 382
f 438 384 299
f 438 299 439
f 440 203 384
f 440 384 438
f 440 438 382
f 440 382 292
f 440 292 203
f 441 386 385
f 441 385 387
f 441 387 439
f 441 439 299
f 442 407 392
f 442 392 266
f 442 266 261
f 442 261 260
f 442 260 407
f 443 304 393
f 444 312 311
f 444 311 445
f 444 445 443
f 444 129 312
f 446 306 305
f 446 305 208
f 446 208 304
f 446 304 443
f 446 443 445
f 446 445 311
f 446 311 306
f 447 213 308
f 447 308 394
f 447 394 58
f 447 58 213
f 448 321 395
f 448 395 311
f 448 311 312
f 448 312 61
f 448 61 60
f 448 60 216
f 448 216 321
f 449 347 209
f 449 209 317
f 449 317 307
f 449 307 315
f 449 315 396
f 449 396 219
f 449 219 347
f 450 328 329
f 451 71 72
f 451 401 136
f 451 136 154
f 451 154 71
f 452 400 402
f 452 402 141
f 452 141 225
f 452 225 319
f 453 398 318
f 453 318 221
f 453 221 323
f 453 323 324
f 453 324 325
f 453 325 403
f 453 403 397
f 453 397 398
f 454 329 233
f 454 233 231
f 454 231 405
f 454 405 400
f 455 300 391
f 455 408 301
f 455 301 300
f 456 156 409
f 456 409 340
f 456 340 239
f 456 239 238
f 456 238 20
f 456 20 334
f 456 334 156
f 457 337 411
f 457 411 412
f 457 412 253
f 457 253 250
f 457 250 337
f 458 255 297
f 458 297 386
f 458 410 255
f 459 342 412
f 459 386 441
f 459 441 342
f 460 383 438
f 460 438 387
f 460 387 413
f 460 413 345
f 460 345 383
f 461 347 414
f 461 414 302
f 461 302 209
f 461 209 347
f 462 327 233
f 462 233 404
f 462 404 66
f 462 66 144
f 462 144 354
f 462 354 417
f 462 417 419
f 462 419 327
f 463 421 420
f 463 420 352
f 463 352 363
f 463 363 360
f 463 360 421
f 464 426 367
f 465 289 426
f 465 426 464
f 465 197 289
f 466 380 202
f 466 202 283
f 466 283 431
f 467 466 431
f 467 431 432
f 467 432 378
f 468 434 433
f 468 433 289
f 468 289 469
f 468 469 434
f 470 434 467
f 470 467 378
f 470 378 165
f 470 165 435
f 470 435 377
f 470 377 434
f 471 123 342
f 471 342 441
f 471 441 299
f 471 299 123
f 472 130 129
f 472 129 444
f 472 444 443
f 472 443 393
f 472 393 391
f 472 391 130
f 473 319 401
f 473 401 450
f 473 450 329
f 473 329 454
f 473 454 400
f 473 400 452
f 473 452 319
f 474 450 401
f 474 401 451
f 474 451 72
f 474 72 155
f 474 155 328
f 474 328 450
f 475 393 392
f 475 392 407
f 475 407 408
f 475 408 455
f 475 455 391
f 475 391 393
f 476 412 343
f 476 343 410
f 476 410 458
f 476 458 386
f 476 386 459
f 476 459 412
f 477 199 464
f 477 464 367
f 477 367 199
f 478 199 197
f 478 197 465
f 478 465 464
f 478 464 199
f 479 380 466
f 479 466 469
f 479 469 289
f 479 289 288
f 479 288 287
f 479 287 380
f 480 469 466
f 480 466 467
f 480 467 434
f 480 434 469
