# Normalized convex hull collision mesh - generated by scripts/generate-collision-meshes.mjs (units: meters)
v -0.015433 0.008111 -0.013830
v -0.016305 -0.009619 -0.011363
v -0.016305 0.008111 -0.011363
v -0.017004 0.008111 -0.008774
v -0.004608 -0.009619 0.026425
v -0.002794 -0.009619 0.027000
v -0.002794 0.008111 0.027000
v -0.009681 0.008111 0.023069
v -0.011190 0.008111 0.021447
v -0.009681 -0.009619 0.023069
v -0.008069 -0.009619 0.024449
v -0.010157 0.013455 0.021255
v -0.008640 0.013455 0.022741
v 0.010429 -0.009619 -0.021980
v 0.010429 0.008111 -0.021980
v 0.011883 0.008111 -0.020245
v 0.007208 0.008111 -0.024729
v 0.007208 -0.009619 -0.024729
v 0.005474 0.008111 -0.025714
v 0.005340 0.013455 -0.024629
v 0.007029 0.013455 -0.023651
v 0.001851 0.008111 -0.026856
v 0.001806 0.013455 -0.025762
v 0.003682 0.008111 -0.026426
v -0.000000 -0.009619 -0.027000
v -0.000000 0.008111 -0.027000
v -0.014279 0.017945 -0.000832
v -0.014618 0.018000 -0.000175
v 0.014618 0.017945 -0.000832
v 0.014279 0.018000 -0.000175
v 0.014279 0.018000 0.000504
v 0.002794 -0.009619 0.027000
v 0.004608 -0.009619 0.026425
v 0.004608 0.008111 0.026425
v -0.015433 -0.009619 -0.013830
v -0.014398 -0.009619 -0.016149
v 0.010157 0.013455 -0.020926
v 0.008640 0.013455 -0.022412
v 0.011563 0.013455 -0.019209
v 0.016305 -0.009619 -0.011363
v 0.015433 -0.009619 -0.013830
v 0.015433 0.008111 -0.013830
v 0.014398 -0.009619 -0.016149
v 0.003593 0.013455 -0.025335
v -0.006372 -0.009619 0.025571
v -0.006372 0.008111 0.025571
v -0.011190 -0.009619 0.021447
v -0.013838 0.008111 0.017545
v -0.012842 0.013455 0.017608
v -0.013980 0.013455 0.015488
v -0.014949 0.008111 0.015308
v -0.013838 -0.009619 0.017545
v -0.014618 0.017945 0.001161
v -0.001936 0.015597 0.024430
v 0.014279 0.017945 0.001161
v -0.004608 0.008111 0.026425
v -0.003593 0.013455 0.025664
v -0.001806 0.013455 0.026091
v -0.005340 0.013455 0.024958
v -0.007029 0.013455 0.023980
v -0.008069 0.008111 0.024449
v -0.011563 0.013455 0.019538
v 0.000000 -0.018000 0.001771
v -0.000255 -0.018000 0.001724
v 0.000255 -0.018000 -0.001395
v 0.017293 0.008111 0.007736
v 0.016903 0.013455 0.005585
v 0.016434 0.013455 0.008220
v 0.017717 0.008111 0.005014
v 0.017293 -0.009619 0.007736
v 0.017954 -0.009619 0.002242
v 0.017954 0.008111 0.002242
v 0.017717 -0.009619 0.005014
v 0.016997 -0.010825 0.002217
v -0.000996 -0.018000 -0.000405
v 0.003682 -0.009619 -0.026426
v 0.008865 -0.009619 -0.023479
v 0.014618 0.017945 0.001161
v 0.015786 0.013455 0.010768
v 0.014965 0.013455 0.013199
v 0.015901 0.008111 0.012910
v 0.016565 0.015132 0.005520
v 0.016541 0.015239 0.005512
v 0.016085 0.015239 0.008068
v 0.017186 0.013455 0.002889
v 0.016108 0.015132 0.008080
v 0.015478 0.015132 0.010554
v 0.002794 0.008111 0.027000
v 0.014949 0.008111 0.015308
v 0.013838 0.008111 0.017545
v 0.013838 -0.009619 0.017545
v 0.015901 -0.009619 0.012910
v 0.011190 0.008111 0.021447
v 0.009681 0.008111 0.023069
v 0.009681 -0.009619 0.023069
v 0.006372 0.008111 0.025571
v 0.005340 0.013455 0.024958
v 0.003593 0.013455 0.025664
v 0.001806 0.013455 0.026091
v 0.003762 0.015239 0.025046
v 0.001936 0.015186 0.025545
v 0.007047 0.015239 0.023366
v 0.008640 0.013455 0.022741
v 0.008558 0.015132 0.022222
v 0.008587 0.015239 0.022153
v -0.014965 0.013455 0.013199
v -0.016903 0.013455 -0.005256
v -0.017522 0.008111 -0.006090
v -0.017856 0.008111 -0.003340
v -0.017186 0.013455 -0.002560
v -0.015279 0.015435 -0.010091
v -0.014618 0.017839 -0.001428
v -0.014493 0.015435 -0.012423
v -0.014455 -0.010825 -0.013480
v -0.008865 -0.009619 -0.023479
v -0.007208 0.008111 -0.024729
v -0.007208 -0.009619 -0.024729
v -0.008865 0.008111 -0.023479
v 0.001936 0.015596 -0.024120
v 0.003375 0.015565 -0.024027
v 0.001936 0.015559 -0.024421
v -0.007029 0.013455 -0.023651
v 0.014398 0.008111 -0.016149
v 0.011883 -0.009619 -0.020245
v 0.006490 0.015132 -0.023443
v 0.005549 0.015247 -0.023938
v 0.007214 0.015247 -0.022913
v 0.001936 0.015132 -0.025226
v -0.008656 -0.010825 0.022327
v -0.007653 -0.010825 0.023152
v -0.015901 -0.009619 0.012910
v -0.016685 0.008111 0.010377
v -0.016685 -0.009619 0.010377
v -0.012581 -0.009619 0.019599
v -0.011566 -0.010825 0.019066
v -0.012733 0.015132 0.017023
v -0.017186 0.013455 0.002889
v -0.017954 0.008111 0.002242
v -0.017717 0.008111 0.005014
v -0.016903 0.013455 0.005585
v -0.007914 0.015132 0.022763
v -0.008797 0.015247 0.021956
v -0.009269 0.015132 0.021558
v -0.014618 0.018000 0.000504
v -0.003489 0.015132 0.025175
v -0.003821 0.015247 0.025020
v -0.001936 0.015132 0.025555
v -0.001936 0.015238 0.025519
v 0.000000 0.013455 0.026234
v -0.005011 0.015132 0.024579
v -0.005549 0.015247 0.024267
v -0.012581 0.008111 0.019599
v -0.011723 0.015190 0.018600
v -0.012715 0.015238 0.016999
v -0.017004 -0.009619 -0.008774
v -0.018000 0.008111 -0.000553
v -0.018000 -0.009619 -0.000553
v 0.000255 -0.018000 0.001724
v 0.001057 -0.018000 0.000358
v 0.006372 -0.009619 0.025571
v 0.014949 -0.009619 0.015308
v 0.014767 -0.010825 0.013027
v 0.016685 0.008111 0.010377
v 0.015657 -0.010825 0.010353
v 0.016756 -0.010825 0.004931
v 0.018000 -0.009619 -0.000553
v -0.005474 -0.009619 -0.025714
v -0.005832 -0.010825 -0.024008
v -0.003682 0.008111 -0.026426
v -0.003682 -0.009619 -0.026426
v 0.001851 -0.009619 -0.026856
v 0.008985 -0.011363 -0.020268
v 0.009241 -0.011117 -0.020850
v 0.010447 -0.011363 -0.018619
v 0.004276 -0.011363 -0.023491
v 0.005919 -0.011363 -0.022671
v 0.006087 -0.011117 -0.023322
v 0.007494 -0.011363 -0.021593
v 0.004398 -0.011117 -0.024165
v 0.008865 0.008111 -0.023479
v 0.014618 0.018000 -0.000175
v 0.014618 0.017839 0.001757
v 0.012352 0.015507 0.016838
v 0.012467 0.015431 0.016993
v 0.011150 0.015507 0.018666
v 0.003645 0.015564 0.024274
v 0.001987 0.015564 0.024711
v 0.001936 0.015599 0.024410
v 0.015456 0.015239 0.010539
v 0.015390 0.015341 0.010495
v 0.014660 0.015239 0.012898
v 0.014598 0.015341 0.012844
v 0.014497 0.015431 0.012757
v 0.016838 0.015186 0.002903
v 0.017280 0.013455 0.000165
v 0.016820 0.015236 -0.002574
v -0.003932 -0.010825 0.025195
v 0.000000 -0.010551 0.026147
v 0.000000 -0.010825 0.025889
v 0.002051 0.015239 0.025497
v 0.003746 0.015341 0.024940
v 0.010157 0.013455 0.021255
v 0.011563 0.013455 0.019538
v 0.012581 0.008111 0.019599
v 0.012842 0.013455 0.017608
v 0.008069 0.008111 0.024449
v 0.003669 0.015132 0.025116
v -0.003468 0.015346 0.025023
v -0.001936 0.015428 0.025240
v -0.003444 0.015435 0.024852
v -0.003778 0.015435 0.024740
v -0.004981 0.015346 0.024431
v -0.004946 0.015435 0.024263
v -0.005486 0.015435 0.023996
v 0.006998 0.015132 0.023440
v -0.015901 0.008111 0.012910
v -0.016080 0.015238 0.008094
v -0.016012 0.015339 0.008060
v -0.016458 0.015339 0.005584
v -0.015403 0.015339 0.010456
v -0.015786 0.013455 0.010768
v -0.016434 0.013455 0.008220
v -0.016434 0.013455 -0.007891
v -0.014618 0.017945 -0.000832
v -0.001986 0.015565 -0.024375
v -0.003644 0.015565 -0.023939
v -0.005263 0.015565 -0.023248
v -0.009830 0.015509 -0.019958
v -0.011146 0.015509 -0.018331
v -0.012348 0.015509 -0.016504
v -0.014965 0.013455 -0.012870
v -0.013980 0.013455 -0.015159
v -0.016011 0.015346 -0.007703
v -0.009921 0.015435 -0.020144
v -0.007653 -0.010825 -0.022823
v -0.009370 -0.010825 -0.021328
v -0.010429 -0.009619 -0.021980
v -0.010429 0.008111 -0.021980
v -0.011883 -0.009619 -0.020245
v -0.014398 0.008111 -0.016149
v -0.013210 0.008111 -0.018295
v -0.013210 -0.009619 -0.018295
v -0.012842 0.013455 -0.017279
v -0.011563 0.013455 -0.019209
v -0.001851 0.008111 -0.026856
v -0.001806 0.013455 -0.025762
v -0.001936 0.015565 -0.024384
v -0.001936 0.015509 -0.024661
v -0.003744 0.015346 -0.024604
v -0.003761 0.015246 -0.024713
v -0.005408 0.015346 -0.023894
v -0.003684 0.015509 -0.024207
v -0.003593 0.013455 -0.025335
v -0.001936 0.015189 -0.025215
v 0.007914 0.015132 -0.022434
v 0.009269 0.015132 -0.021229
v 0.013210 0.008111 -0.018295
v 0.012842 0.013455 -0.017279
v 0.013980 0.013455 -0.015159
v 0.012733 0.015132 -0.016694
v 0.006480 0.015247 -0.023404
v 0.000000 0.013455 -0.025905
v 0.001936 0.015237 -0.025190
v 0.005011 0.015132 -0.024250
v 0.003821 0.015247 -0.024691
v 0.003489 0.015132 -0.024846
v -0.000495 -0.018000 0.001587
v -0.010169 -0.010825 0.020814
v -0.007502 -0.011117 0.022700
v -0.007046 -0.010825 0.023590
v -0.017717 -0.009619 0.005014
v -0.015710 -0.010825 0.010167
v -0.016335 -0.010825 0.007542
v -0.015401 -0.011117 0.009970
v -0.017293 0.008111 0.007736
v -0.016808 0.015238 0.003065
v -0.016571 0.015132 0.005480
v -0.010281 0.015247 0.020424
v -0.009213 0.015346 0.021428
v -0.010236 0.015346 0.020335
v -0.010480 0.015346 0.020048
v -0.010526 0.015247 0.020135
v -0.006451 0.015346 0.023630
v -0.006480 0.015247 0.023733
v -0.007214 0.015247 0.023242
v -0.003375 0.015565 0.024357
v -0.001936 0.015561 0.024736
v -0.006278 0.015565 0.023000
v -0.006990 0.015565 0.022525
v -0.003743 0.015509 0.024515
v -0.017856 -0.009619 -0.003340
v -0.017280 0.013455 0.000165
v 0.014477 -0.011117 0.012774
v 0.013408 -0.011117 0.015224
v 0.013037 -0.011363 0.014807
v 0.014076 -0.011363 0.012424
v 0.014924 -0.011363 0.009876
v 0.000876 -0.018000 0.001077
v 0.016006 -0.011363 -0.004093
v 0.015789 -0.011363 -0.005655
v 0.016462 -0.011117 -0.004215
v 0.013677 -0.010825 0.015526
v 0.012832 -0.010825 0.017104
v 0.012403 -0.010825 0.017817
v 0.011190 -0.009619 0.021447
v 0.010169 -0.010825 0.020814
v 0.008069 -0.009619 0.024449
v 0.012580 -0.011117 0.016771
v 0.009186 -0.011117 0.021234
v 0.008486 -0.011117 0.021891
v 0.008931 -0.011363 0.020650
v 0.008656 -0.010825 0.022327
v 0.016685 -0.009619 0.010377
v 0.016004 -0.011117 0.007445
v 0.015561 -0.011363 0.007243
v 0.016427 -0.011117 0.004837
v 0.016325 -0.010825 0.007591
v 0.017522 -0.009619 -0.006090
v 0.017004 -0.009619 -0.008774
v 0.017522 0.008111 -0.006090
v 0.017856 -0.009619 -0.003340
v 0.010960 -0.010825 -0.019541
v -0.000706 -0.018000 -0.001038
v -0.009186 -0.011117 -0.020905
v 0.005474 -0.009619 -0.025714
v 0.006209 -0.010825 -0.023793
v 0.002712 -0.010825 -0.025232
v 0.001941 -0.011117 -0.024883
v 0.001980 -0.010825 -0.025386
v 0.003932 -0.010825 -0.024866
v 0.001887 -0.011363 -0.024189
v 0.000865 -0.011363 -0.024320
v 0.002585 -0.011363 -0.024043
v 0.003748 -0.011363 -0.023694
v 0.007708 -0.011117 -0.022213
v 0.007862 -0.010825 -0.022662
v 0.014618 0.018000 0.000504
v 0.016747 0.015340 0.002903
v 0.013555 0.015431 0.014954
v 0.013649 0.015341 0.015057
v 0.015284 0.015431 0.010424
v 0.016016 0.015341 0.008034
v 0.008320 0.015564 0.021470
v 0.006828 0.015564 0.022645
v 0.008414 0.015507 0.021709
v 0.009834 0.015507 0.020294
v 0.008550 0.015341 0.022059
v 0.009994 0.015341 0.020621
v 0.005323 0.015507 0.023845
v 0.003686 0.015507 0.024544
v 0.003720 0.015431 0.024770
v 0.005373 0.015431 0.024065
v 0.001936 0.015564 0.024720
v 0.001936 0.015507 0.024999
v 0.001962 0.015599 0.024406
v 0.013778 0.015238 -0.014643
v 0.012715 0.015238 -0.016670
v 0.017856 0.008111 -0.003340
v 0.017004 0.008111 -0.008774
v 0.016434 0.013455 -0.007891
v 0.016903 0.013455 -0.005256
v 0.017186 0.013455 -0.002560
v 0.016125 0.015132 -0.007673
v 0.016528 0.015238 -0.005278
v 0.016737 0.015339 -0.002723
v 0.016458 0.015339 -0.005255
v 0.014682 0.015132 0.012917
v 0.013727 0.015132 0.015143
v 0.013707 0.015239 0.015121
v 0.013980 0.013455 0.015488
v 0.016819 0.015239 0.002903
v 0.016844 0.015132 -0.002574
v 0.003604 -0.010825 0.025307
v 0.001728 -0.011363 0.024545
v 0.003436 -0.011363 0.024130
v 0.001777 -0.011117 0.025240
v 0.000000 -0.011363 0.024684
v 0.003534 -0.011117 0.024813
v 0.000000 -0.011117 0.025383
v -0.005355 -0.010825 0.024587
v -0.001980 -0.010825 0.025715
v 0.002042 0.015341 0.025389
v 0.011331 0.015341 0.018967
v 0.011380 0.015239 0.019048
v 0.010036 0.015239 0.020709
v 0.002009 0.015507 0.024986
v -0.001936 0.015504 0.025010
v 0.001936 0.015431 0.025232
v -0.003483 0.015247 0.025133
v -0.005003 0.015247 0.024538
v -0.003804 0.015346 0.024911
v 0.005433 0.015239 0.024333
v 0.005410 0.015341 0.024230
v 0.007029 0.013455 0.023980
v -0.016125 0.015132 0.008002
v -0.015468 0.015238 0.010500
v -0.006827 0.015565 -0.022310
v -0.008318 0.015565 -0.021136
v -0.015786 0.013455 -0.010439
v -0.016108 0.015132 -0.007751
v -0.013645 0.015346 -0.014723
v -0.012549 0.015346 -0.016775
v -0.012604 0.015246 -0.016850
v -0.013705 0.015246 -0.014789
v -0.013727 0.015132 -0.014813
v -0.015385 0.015346 -0.010163
v -0.016082 0.015246 -0.007738
v -0.012462 0.015435 -0.016658
v -0.011387 0.015132 -0.018759
v -0.011250 0.015435 -0.018502
v -0.011328 0.015346 -0.018632
v -0.007502 -0.011117 -0.022371
v -0.007294 -0.011363 -0.021747
v -0.008931 -0.011363 -0.020321
v -0.011883 0.008111 -0.020245
v -0.010157 0.013455 -0.020926
v -0.012217 -0.010825 -0.017781
v -0.001962 0.015599 -0.024073
v -0.005474 0.008111 -0.025714
v -0.003669 0.015132 -0.024787
v -0.002050 0.015246 -0.025163
v -0.005362 0.015132 -0.024079
v -0.006998 0.015132 -0.023111
v -0.005371 0.015435 -0.023727
v -0.006966 0.015435 -0.022771
v -0.007015 0.015346 -0.022930
v -0.007046 0.015246 -0.023032
v -0.008548 0.015346 -0.021723
v 0.011707 0.015247 -0.018249
v 0.012661 0.015339 -0.016598
v 0.013210 -0.009619 -0.018295
v 0.006451 0.015346 -0.023301
v 0.005003 0.015247 -0.024209
v 0.001936 0.015502 -0.024690
v 0.001936 0.015337 -0.025084
v -0.001936 0.015346 -0.025071
v 0.001936 0.015426 -0.024915
v 0.003483 0.015247 -0.024804
v -0.000876 -0.018000 0.001077
v -0.013300 -0.011363 0.014258
v -0.014218 -0.011363 0.012046
v -0.010960 -0.010825 0.019870
v -0.010745 -0.011117 0.019483
v -0.009370 -0.010825 0.021657
v -0.009186 -0.011117 0.021234
v -0.009969 -0.011117 0.020408
v -0.010447 -0.011363 0.018948
v -0.017293 -0.009619 0.007736
v -0.016792 -0.010825 0.004631
v -0.016462 -0.011117 0.004544
v -0.017023 -0.010825 0.001660
v -0.012232 -0.011363 0.016311
v -0.011339 -0.011117 0.018694
v -0.011598 0.015346 0.018582
v -0.011518 0.015435 0.018454
v -0.016737 0.015339 0.003052
v -0.016528 0.015238 0.005607
v -0.009253 0.015247 0.021522
v -0.010544 0.015132 0.020169
v -0.005524 0.015346 0.024162
v -0.006490 0.015132 0.023772
v -0.012661 0.015339 0.016927
v -0.012575 0.015430 0.016812
v -0.013627 0.015430 0.014809
v -0.003702 0.015565 0.024247
v -0.004847 0.015565 0.023780
v -0.004901 0.015509 0.024042
v -0.003412 0.015509 0.024625
v -0.017045 -0.010825 -0.000520
v -0.017954 -0.009619 0.002242
v -0.016844 0.015132 -0.002574
v -0.016820 0.015237 -0.002574
v -0.016844 0.015132 0.002903
v 0.015349 -0.011117 0.010153
v 0.005105 -0.011363 0.023443
v 0.005250 -0.011117 0.024107
v 0.005559 -0.011363 0.023205
v 0.005717 -0.011117 0.023862
v 0.016792 -0.010825 -0.004302
v 0.016564 -0.010825 -0.005940
v 0.016901 -0.010825 -0.003250
v 0.016201 -0.011363 0.002121
v 0.016247 -0.011363 -0.000488
v 0.000495 -0.018000 0.001587
v 0.000706 -0.018000 0.001367
v 0.000996 -0.018000 0.000734
v 0.010960 -0.010825 0.019870
v 0.007046 -0.010825 0.023590
v 0.012159 -0.011117 0.017470
v 0.012232 -0.011363 0.016311
v 0.009693 -0.011363 0.019847
v 0.009370 -0.010825 0.021657
v 0.009426 -0.010825 -0.021272
v -0.004486 -0.010825 -0.024653
v -0.004398 -0.011117 -0.024165
v -0.003932 -0.010825 -0.024866
v -0.002712 -0.010825 -0.025232
v -0.001851 -0.009619 -0.026856
v -0.001980 -0.010825 -0.025386
v -0.016335 -0.010825 -0.007213
v -0.016040 -0.010825 -0.008562
v -0.017522 -0.009619 -0.006090
v -0.016564 -0.010825 -0.005940
v -0.016792 -0.010825 -0.004302
v -0.016568 -0.011117 -0.003183
v -0.016901 -0.010825 -0.003250
v -0.016226 -0.011363 -0.001261
v -0.016109 -0.011363 -0.003090
v -0.016006 -0.011363 -0.004093
v -0.014171 -0.011117 -0.013212
v -0.014477 -0.011117 -0.012445
v -0.000495 -0.018000 -0.001258
v -0.005559 -0.011363 -0.022876
v -0.000876 -0.018000 -0.000748
v -0.012784 -0.011363 -0.014977
v -0.011645 -0.011363 -0.016941
v -0.010373 -0.011363 -0.018712
v 0.004486 -0.010825 -0.024653
v 0.003855 -0.011117 -0.024374
v 0.016471 0.015341 0.005489
v 0.009925 0.015431 0.020480
v 0.009725 0.015564 0.020071
v 0.006969 0.015431 0.023107
v 0.005264 0.015564 0.023583
v 0.016080 0.015238 -0.007765
v 0.015511 0.015132 -0.010113
v 0.015468 0.015238 -0.010171
v 0.015403 0.015339 -0.010127
v 0.016012 0.015339 -0.007731
v 0.013720 0.015339 -0.014581
v 0.013806 0.015132 -0.014647
v 0.014698 0.015238 -0.012471
v 0.014736 0.015132 -0.012446
v 0.014618 0.017839 -0.001428
v 0.012575 0.015430 -0.016483
v 0.012461 0.015506 -0.016330
v 0.011449 0.015509 -0.017904
v 0.018000 0.008111 -0.000553
v 0.015786 0.013455 -0.010439
v 0.016751 0.015335 -0.002574
v 0.006990 0.015565 -0.022196
v 0.007655 0.015565 -0.021694
v 0.007740 0.015509 -0.021937
v 0.006278 0.015565 -0.022671
v 0.012607 0.015239 0.017182
v 0.016808 0.015238 -0.002736
v 0.001812 -0.010825 0.025743
v -0.005832 -0.010825 0.024337
v 0.002028 0.015431 0.025215
v 0.001936 0.015340 0.025407
v 0.010027 0.015132 0.020766
v 0.005362 0.015132 0.024408
v -0.015511 0.015132 0.010442
v -0.013778 0.015238 0.014972
v -0.014736 0.015132 0.012775
v -0.006903 0.015509 -0.022560
v -0.014658 0.015246 -0.012567
v -0.016565 0.015132 -0.005191
v -0.016538 0.015246 -0.005182
v -0.016466 0.015346 -0.005159
v -0.013550 0.015435 -0.014620
v -0.011378 0.015246 -0.018715
v -0.012625 0.015132 -0.016878
v -0.010027 0.015132 -0.020437
v -0.014767 -0.010825 -0.012698
v -0.015335 -0.010825 -0.011085
v -0.015657 -0.010825 -0.010024
v -0.014617 -0.011363 -0.010558
v -0.014076 -0.011363 -0.012095
v -0.014924 -0.011363 -0.009547
v -0.005717 -0.011117 -0.023533
v -0.004276 -0.011363 -0.023491
v -0.010883 -0.010825 -0.019639
v -0.001936 0.015599 -0.024077
v -0.002041 0.015346 -0.025052
v -0.001936 0.015246 -0.025184
v -0.001936 0.015435 -0.024894
v -0.002027 0.015435 -0.024878
v -0.003719 0.015435 -0.024432
v -0.002008 0.015509 -0.024648
v -0.005340 0.013455 -0.024629
v -0.005432 0.015246 -0.024000
v -0.008489 0.015435 -0.021572
v -0.008640 0.013455 -0.022412
v 0.011651 0.015346 -0.018175
v 0.011598 0.015346 -0.018253
v 0.010544 0.015132 -0.019840
v 0.011723 0.015190 -0.018271
v 0.005524 0.015346 -0.023833
v 0.003468 0.015346 -0.024694
v -0.007294 -0.011363 0.022076
v -0.006716 -0.011363 0.022493
v -0.008251 -0.011363 0.021289
v -0.008486 -0.011117 0.021891
v -0.001057 -0.018000 -0.000029
v -0.016247 -0.011363 -0.000488
v -0.015789 -0.011363 -0.005655
v -0.009693 -0.011363 0.019847
v -0.001887 -0.011363 0.024518
v -0.003748 -0.011363 0.024023
v -0.016226 -0.011363 0.001590
v -0.016006 -0.011363 0.004422
v -0.012403 -0.010825 0.017817
v -0.012832 -0.010825 0.017104
v -0.013953 -0.010825 0.014950
v -0.011025 -0.011363 0.018181
v -0.011651 0.015346 0.018504
v -0.011649 0.015247 0.018663
v -0.016749 0.015338 0.002903
v -0.006407 0.015435 0.023467
v -0.007133 0.015435 0.022983
v -0.014618 0.017839 0.001757
v -0.015297 0.015430 0.010386
v -0.014536 0.015430 0.012661
v -0.012461 0.015506 0.016659
v -0.011564 0.015435 0.018388
v -0.011412 0.015509 0.018287
v -0.005376 0.015565 0.023518
v -0.017023 -0.010825 -0.001331
v 0.008251 -0.011363 0.021289
v 0.007294 -0.011363 0.022076
v 0.016335 -0.010825 -0.007213
v 0.016014 -0.011117 -0.007068
v 0.016040 -0.010825 -0.008562
v 0.016239 -0.011117 -0.005820
v 0.015972 -0.011363 0.004708
v 0.016568 -0.011117 -0.003183
v 0.016109 -0.011363 -0.003090
v 0.017045 -0.010825 -0.000520
v 0.016226 -0.011363 -0.001261
v 0.016688 -0.011117 -0.001302
v 0.016663 -0.011117 0.002177
v 0.010745 -0.011117 0.019483
v 0.012581 -0.009619 0.019599
v 0.005832 -0.010825 0.024337
v 0.006907 -0.011117 0.023129
v 0.011566 -0.010825 0.019066
v 0.011822 -0.011363 0.016991
v 0.011025 -0.011363 0.018181
v 0.000876 -0.018000 -0.000748
v 0.010745 -0.011117 -0.019154
v 0.000908 -0.010825 -0.025523
v 0.000000 -0.010825 -0.025560
v -0.016462 -0.011117 -0.004215
v -0.013778 -0.011363 -0.012841
v -0.013412 -0.010825 -0.015721
v -0.000255 -0.018000 -0.001395
v 0.002659 -0.011117 -0.024733
v 0.011253 0.015431 0.018838
v 0.008492 0.015431 0.021908
v 0.006905 0.015507 0.022897
v 0.007017 0.015341 0.023266
v 0.013627 0.015430 -0.014480
v 0.014536 0.015430 -0.012332
v 0.014636 0.015339 -0.012418
v 0.015297 0.015430 -0.010057
v 0.014965 0.013455 -0.012870
v 0.016305 0.008111 -0.011363
v 0.008524 0.015565 -0.020950
v 0.009149 0.015435 -0.020953
v 0.009065 0.015509 -0.020759
v 0.010165 0.015435 -0.019867
v 0.007182 0.015346 -0.022812
v 0.007901 0.015247 -0.022396
v 0.007866 0.015346 -0.022297
v 0.004901 0.015509 -0.023713
v 0.005436 0.015509 -0.023448
v 0.004946 0.015435 -0.023934
v 0.005486 0.015435 -0.023667
v 0.006407 0.015435 -0.023138
v 0.006348 0.015509 -0.022925
v 0.012553 0.015341 0.017109
v 0.012625 0.015132 0.017207
v 0.016571 0.015132 -0.005151
v -0.006907 -0.011117 0.023129
v -0.001936 0.015338 0.025412
v 0.001936 0.015239 0.025517
v 0.011387 0.015132 0.019088
v -0.013806 0.015132 0.014976
v -0.013720 0.015339 0.014910
v -0.014698 0.015238 0.012800
v -0.005322 0.015509 -0.023508
v -0.015478 0.015132 -0.010225
v -0.014682 0.015132 -0.012588
v -0.014593 0.015346 -0.012511
v -0.010034 0.015246 -0.020376
v -0.015349 -0.011117 -0.009824
v -0.015725 -0.011117 -0.008391
v -0.015289 -0.011363 -0.008153
v -0.010669 -0.011117 -0.019249
v -0.008411 0.015509 -0.021373
v -0.008558 0.015132 -0.021892
v 0.010526 0.015247 -0.019806
v 0.010281 0.015247 -0.020095
v 0.009253 0.015247 -0.021193
v 0.011564 0.015435 -0.018058
v 0.011518 0.015435 -0.018125
v 0.010072 0.015509 -0.019683
v 0.010313 0.015509 -0.019400
v 0.010408 0.015435 -0.019581
v 0.011412 0.015509 -0.017958
v 0.004981 0.015346 -0.024102
v 0.003444 0.015435 -0.024523
v -0.016014 -0.011117 0.007397
v -0.008931 -0.011363 0.020650
v -0.000706 -0.018000 0.001367
v -0.011822 -0.011363 0.016991
v -0.001941 -0.011117 0.025212
v -0.012159 -0.011117 0.017470
v -0.012580 -0.011117 0.016771
v -0.013679 -0.011117 0.014660
v -0.014916 -0.010825 0.012629
v -0.014949 -0.009619 0.015308
v -0.010408 0.015435 0.019910
v -0.011707 0.015247 0.018578
v -0.016820 0.015237 0.002903
v -0.016749 0.015338 -0.002574
v -0.007901 0.015247 0.022725
v -0.007866 0.015346 0.022626
v -0.007182 0.015346 0.023141
v -0.008524 0.015565 0.021279
v -0.008966 0.015565 0.020858
v -0.008618 0.015509 0.021513
v -0.007067 0.015509 0.022773
v -0.007812 0.015435 0.022471
v -0.006348 0.015509 0.023254
v -0.011449 0.015509 0.018233
v -0.016688 -0.011117 0.001631
v -0.016710 -0.011117 -0.000507
v -0.016688 -0.011117 -0.001302
v 0.007502 -0.011117 0.022700
v 0.006716 -0.011363 0.022493
v 0.015570 -0.011363 -0.006868
v 0.017023 -0.010825 -0.001331
v 0.016710 -0.011117 -0.000507
v 0.009969 -0.011117 0.020408
v 0.011339 -0.011117 0.018694
v 0.010447 -0.011363 0.018948
v 0.005355 -0.010825 0.024587
v 0.000495 -0.018000 -0.001258
v 0.012403 -0.010825 -0.017488
v -0.000908 -0.010825 -0.025523
v -0.000890 -0.011117 -0.025018
v 0.000000 -0.011117 -0.025054
v -0.000865 -0.011363 -0.024320
v -0.001941 -0.011117 -0.024883
v -0.001887 -0.011363 -0.024189
v -0.002659 -0.011117 -0.024733
v -0.002585 -0.011363 -0.024043
v -0.003855 -0.011117 -0.024374
v -0.016239 -0.011117 -0.005820
v -0.011976 -0.011117 -0.017429
v 0.008966 0.015565 -0.020529
v 0.008618 0.015509 -0.021184
v 0.007812 0.015435 -0.022142
v 0.007133 0.015435 -0.022653
v 0.004847 0.015565 -0.023451
v 0.007067 0.015509 -0.022444
v -0.005250 -0.011117 0.024107
v -0.014636 0.015339 0.012747
v -0.015453 0.015246 -0.010208
v -0.009990 0.015346 -0.020286
v -0.015033 -0.011117 -0.010864
v -0.015570 -0.011363 -0.006868
v -0.008585 0.015246 -0.021820
v 0.011649 0.015247 -0.018334
v 0.010236 0.015346 -0.020006
v 0.010480 0.015346 -0.019719
v 0.003804 0.015346 -0.024582
v 0.003412 0.015509 -0.024296
v -0.015570 -0.011363 0.007197
v -0.014974 -0.011363 0.009698
v -0.014623 -0.011117 0.012384
v -0.009149 0.015435 0.021282
v -0.007655 0.015565 0.022023
v -0.007740 0.015509 0.022266
v -0.005436 0.015509 0.023778
v 0.007653 -0.010825 0.023152
v 0.001057 -0.018000 -0.000029
v 0.015725 -0.011117 -0.008391
v 0.015289 -0.011363 -0.008153
v 0.014455 -0.010825 -0.013480
v 0.000706 -0.018000 -0.001038
v 0.011822 -0.011363 -0.016662
v 0.012159 -0.011117 -0.017141
v 0.013037 -0.011363 -0.014478
v 0.013408 -0.011117 -0.014895
v 0.013677 -0.010825 -0.015197
v 0.014171 -0.011117 -0.013212
v 0.000000 -0.018000 -0.001442
v 0.000890 -0.011117 -0.025018
v 0.000000 -0.011363 -0.024355
v -0.003748 -0.011363 -0.023694
v -0.013148 -0.011117 -0.015408
v 0.008797 0.015247 -0.021627
v 0.008759 0.015346 -0.021532
v 0.008698 0.015435 -0.021382
v 0.005376 0.015565 -0.023189
v 0.003702 0.015565 -0.023918
v -0.005559 -0.011363 0.023205
v -0.003855 -0.011117 0.024703
v -0.005717 -0.011117 0.023862
v -0.016014 -0.011117 -0.007068
v 0.009213 0.015346 -0.021099
v 0.003778 0.015435 -0.024411
v -0.001057 -0.018000 0.000358
v -0.010072 0.015509 0.020012
v -0.008759 0.015346 0.021861
v 0.015657 -0.010825 -0.010024
v 0.015335 -0.010825 -0.011085
v 0.014767 -0.010825 -0.012698
v 0.000996 -0.018000 -0.000405
v 0.015033 -0.011117 -0.010864
v 0.013778 -0.011363 -0.012841
v 0.014076 -0.011363 -0.012095
v 0.003743 0.015509 -0.024186
v -0.005105 -0.011363 0.023443
v -0.000996 -0.018000 0.000734
v -0.010313 0.015509 0.019729
v -0.009065 0.015509 0.021088
v -0.010165 0.015435 0.020196
v -0.008698 0.015435 0.021711
v 0.015349 -0.011117 -0.009824
v 0.014617 -0.011363 -0.010558
v 0.014477 -0.011117 -0.012445
v 0.014924 -0.011363 -0.009547
f 1 2 3
f 4 3 2
f 5 6 7
f 8 9 10
f 8 10 11
f 12 9 8
f 12 8 13
f 14 15 16
f 17 18 19
f 17 19 20
f 17 20 21
f 22 23 24
f 22 25 26
f 27 28 29
f 30 29 28
f 30 28 31
f 32 33 34
f 32 7 6
f 35 1 36
f 35 2 1
f 37 15 38
f 37 39 16
f 37 16 15
f 40 41 42
f 43 42 41
f 44 20 19
f 44 19 24
f 44 24 23
f 45 5 46
f 45 46 11
f 47 10 9
f 48 49 50
f 51 52 48
f 51 48 50
f 53 54 55
f 53 55 31
f 56 7 57
f 56 46 5
f 56 5 7
f 58 57 7
f 59 60 46
f 59 46 56
f 59 56 57
f 61 60 13
f 61 13 8
f 61 8 11
f 61 11 46
f 61 46 60
f 62 9 12
f 63 64 65
f 66 67 68
f 69 67 66
f 69 66 70
f 69 71 72
f 73 71 69
f 73 69 70
f 74 71 73
f 75 65 64
f 76 22 24
f 76 24 19
f 77 18 17
f 77 15 14
f 78 31 55
f 78 55 54
f 79 80 81
f 82 68 67
f 82 83 84
f 85 67 69
f 85 69 72
f 86 68 82
f 86 82 84
f 86 87 79
f 86 79 68
f 88 7 32
f 88 32 34
f 89 90 91
f 89 92 81
f 89 81 80
f 93 94 95
f 96 97 34
f 96 34 33
f 98 99 88
f 98 88 34
f 98 34 97
f 98 97 100
f 98 101 99
f 102 103 104
f 102 104 105
f 106 51 50
f 107 108 109
f 107 109 110
f 111 112 113
f 114 35 36
f 115 116 117
f 118 116 115
f 119 29 120
f 119 120 121
f 119 27 29
f 122 116 118
f 123 42 43
f 124 14 16
f 125 21 20
f 125 20 126
f 125 127 21
f 128 44 23
f 129 11 10
f 130 11 129
f 131 132 133
f 134 135 47
f 134 47 9
f 134 48 52
f 136 50 49
f 137 138 139
f 137 139 140
f 141 142 13
f 141 13 60
f 143 12 13
f 143 13 142
f 144 53 31
f 144 31 28
f 145 146 57
f 147 57 58
f 147 148 145
f 147 145 57
f 149 99 101
f 149 101 148
f 149 148 147
f 149 147 58
f 149 58 7
f 149 7 88
f 149 88 99
f 150 151 59
f 150 59 57
f 150 57 146
f 152 48 134
f 152 134 9
f 152 9 62
f 152 62 49
f 152 49 48
f 153 154 136
f 153 136 49
f 153 49 62
f 155 108 4
f 155 4 2
f 156 110 109
f 156 109 157
f 156 157 138
f 158 63 65
f 159 158 65
f 160 96 33
f 161 162 92
f 161 92 89
f 161 89 91
f 163 70 66
f 163 66 68
f 163 68 79
f 163 79 81
f 163 81 92
f 164 92 162
f 165 73 70
f 165 74 73
f 166 72 71
f 167 168 117
f 167 117 116
f 167 169 170
f 171 25 22
f 171 22 76
f 172 173 174
f 175 176 65
f 177 178 176
f 177 176 175
f 177 175 179
f 180 15 77
f 180 77 17
f 180 17 21
f 180 21 38
f 180 38 15
f 181 29 30
f 181 30 31
f 182 183 184
f 182 185 183
f 186 78 187
f 188 78 54
f 189 87 86
f 189 86 84
f 189 84 190
f 189 190 191
f 192 191 190
f 192 190 193
f 194 83 82
f 194 82 67
f 194 67 85
f 195 196 194
f 195 194 85
f 195 85 72
f 197 6 5
f 198 6 199
f 198 199 32
f 198 32 6
f 200 100 201
f 202 103 94
f 202 94 93
f 202 93 203
f 202 104 103
f 204 203 93
f 204 91 90
f 204 90 205
f 204 205 203
f 206 96 160
f 206 95 94
f 206 94 103
f 207 101 98
f 207 98 100
f 207 100 200
f 207 200 101
f 208 209 210
f 208 210 211
f 212 211 213
f 212 213 214
f 215 103 102
f 216 51 106
f 216 132 131
f 216 131 51
f 217 218 219
f 217 220 218
f 221 222 132
f 221 132 216
f 221 216 106
f 223 4 108
f 223 108 107
f 224 27 119
f 224 225 226
f 224 226 227
f 224 228 112
f 224 28 27
f 229 230 112
f 229 112 228
f 231 232 1
f 231 1 3
f 233 224 112
f 234 229 228
f 235 236 115
f 235 115 117
f 235 117 168
f 237 118 115
f 237 115 236
f 238 118 237
f 238 237 239
f 240 241 36
f 240 36 1
f 240 1 232
f 242 36 241
f 242 241 239
f 243 244 241
f 243 241 240
f 243 240 232
f 245 26 25
f 245 170 169
f 245 169 246
f 247 121 248
f 247 248 225
f 247 119 121
f 249 250 251
f 252 227 226
f 252 226 225
f 253 254 246
f 253 246 169
f 255 38 21
f 255 21 127
f 256 37 38
f 257 16 39
f 257 39 258
f 257 258 123
f 257 123 43
f 257 124 16
f 259 42 123
f 259 123 258
f 259 258 260
f 261 127 125
f 261 125 126
f 262 254 263
f 262 263 128
f 262 128 23
f 262 23 22
f 262 22 26
f 262 26 245
f 262 245 246
f 262 246 254
f 264 20 44
f 264 44 265
f 264 126 20
f 266 128 263
f 266 265 44
f 266 44 128
f 267 75 64
f 268 10 47
f 269 130 129
f 270 11 130
f 270 130 269
f 270 45 11
f 271 139 138
f 272 131 133
f 272 133 273
f 272 273 274
f 275 222 140
f 275 140 139
f 275 139 271
f 275 133 132
f 275 132 222
f 276 137 140
f 276 140 277
f 278 12 143
f 278 279 280
f 278 280 281
f 278 281 282
f 283 284 151
f 285 284 283
f 285 141 60
f 286 287 54
f 286 54 53
f 288 53 289
f 290 213 211
f 291 157 109
f 291 109 108
f 292 110 156
f 292 156 138
f 292 138 137
f 293 294 295
f 293 295 296
f 293 296 297
f 293 164 162
f 298 158 159
f 298 296 295
f 299 300 301
f 302 162 161
f 302 161 91
f 302 91 303
f 302 303 294
f 302 294 293
f 302 293 162
f 304 303 91
f 305 95 306
f 305 204 93
f 305 93 95
f 307 95 206
f 307 206 160
f 308 294 303
f 309 310 311
f 312 95 307
f 312 310 309
f 313 92 164
f 313 70 163
f 313 163 92
f 314 315 316
f 317 70 313
f 317 313 164
f 317 314 316
f 317 316 165
f 317 165 70
f 318 319 320
f 318 320 321
f 322 14 124
f 323 65 75
f 324 236 235
f 325 76 19
f 325 19 18
f 325 18 326
f 327 328 329
f 327 329 171
f 327 171 76
f 327 76 330
f 331 332 328
f 331 328 333
f 331 333 65
f 334 175 65
f 334 65 333
f 335 173 172
f 335 172 178
f 335 178 177
f 336 18 77
f 336 335 177
f 336 177 326
f 336 326 18
f 337 78 338
f 337 338 181
f 337 181 31
f 337 31 78
f 339 340 192
f 339 192 193
f 339 193 182
f 339 182 184
f 341 190 182
f 341 182 193
f 341 193 190
f 342 190 84
f 342 78 182
f 342 182 190
f 343 344 345
f 343 78 344
f 346 182 78
f 346 343 345
f 346 185 182
f 347 105 348
f 349 350 351
f 349 351 352
f 353 188 54
f 353 54 287
f 353 287 354
f 355 78 188
f 355 188 353
f 355 353 187
f 355 187 78
f 356 260 357
f 358 166 321
f 358 321 320
f 359 360 320
f 359 320 319
f 359 319 40
f 361 362 358
f 361 358 320
f 361 320 360
f 361 360 363
f 361 363 364
f 365 366 29
f 365 29 181
f 365 364 366
f 367 191 368
f 367 368 80
f 367 80 79
f 367 79 87
f 367 87 189
f 367 189 191
f 369 368 191
f 369 191 192
f 369 192 340
f 370 89 80
f 370 80 368
f 370 205 90
f 370 90 89
f 371 338 83
f 371 83 194
f 371 194 196
f 372 196 195
f 372 195 362
f 373 33 32
f 374 375 376
f 374 377 63
f 374 63 158
f 374 158 375
f 378 376 375
f 379 377 374
f 379 374 376
f 380 197 5
f 380 5 45
f 381 379 199
f 381 199 6
f 381 6 197
f 382 200 201
f 383 348 384
f 385 384 348
f 385 348 105
f 386 351 350
f 386 350 186
f 386 186 187
f 386 187 353
f 386 353 354
f 387 209 388
f 387 388 354
f 387 354 287
f 387 210 209
f 389 208 146
f 389 146 145
f 389 145 148
f 390 212 151
f 390 151 150
f 390 150 146
f 391 208 211
f 391 211 212
f 391 212 390
f 391 390 146
f 391 146 208
f 392 215 102
f 393 201 100
f 393 100 392
f 393 392 102
f 393 352 351
f 393 351 201
f 394 206 103
f 394 103 215
f 394 215 392
f 394 392 97
f 394 97 96
f 394 96 206
f 395 222 217
f 395 140 222
f 396 220 217
f 397 398 224
f 397 224 227
f 399 223 400
f 399 231 3
f 399 3 4
f 399 4 223
f 401 402 403
f 401 403 404
f 405 232 231
f 406 111 113
f 406 407 233
f 406 233 112
f 406 112 111
f 408 402 401
f 408 112 230
f 408 230 229
f 409 244 243
f 410 229 234
f 410 411 402
f 410 402 408
f 410 408 229
f 412 413 414
f 412 414 324
f 412 324 235
f 412 235 168
f 415 241 244
f 415 244 416
f 415 416 238
f 415 238 239
f 415 239 241
f 417 242 239
f 418 247 225
f 418 225 224
f 419 253 169
f 419 169 167
f 419 167 116
f 420 254 253
f 420 250 421
f 420 421 254
f 422 122 423
f 424 251 425
f 426 427 428
f 426 428 425
f 426 425 251
f 426 251 427
f 429 430 357
f 431 124 257
f 431 257 43
f 432 127 261
f 432 261 126
f 433 126 264
f 433 264 265
f 434 248 121
f 435 436 437
f 438 265 266
f 438 266 263
f 438 263 435
f 439 440 441
f 439 75 267
f 442 135 443
f 442 443 268
f 442 268 47
f 442 47 135
f 444 129 10
f 444 10 268
f 444 268 445
f 444 445 129
f 446 445 268
f 446 268 443
f 446 443 447
f 448 273 133
f 448 133 275
f 448 275 271
f 448 271 449
f 448 449 273
f 450 449 451
f 452 440 439
f 453 443 135
f 454 281 455
f 456 219 53
f 457 219 456
f 457 456 276
f 457 276 277
f 457 277 140
f 457 140 395
f 457 395 217
f 457 217 219
f 458 142 279
f 458 279 278
f 458 278 143
f 458 143 142
f 459 12 278
f 459 278 282
f 459 282 153
f 459 153 62
f 459 62 12
f 460 212 214
f 460 214 283
f 460 283 151
f 460 151 212
f 461 284 285
f 461 285 60
f 461 60 59
f 461 59 151
f 461 151 284
f 462 463 464
f 465 466 290
f 465 290 286
f 465 286 53
f 465 53 466
f 467 213 290
f 467 290 466
f 468 210 387
f 468 387 287
f 468 287 286
f 468 286 290
f 468 290 211
f 468 211 210
f 469 451 157
f 470 271 138
f 470 138 157
f 470 157 451
f 470 451 449
f 470 449 271
f 471 110 292
f 471 292 472
f 471 107 110
f 473 292 137
f 473 137 276
f 474 164 293
f 474 293 297
f 474 297 315
f 474 315 314
f 474 314 317
f 474 317 164
f 475 476 378
f 475 378 375
f 475 375 158
f 475 158 477
f 475 477 478
f 475 478 476
f 479 301 480
f 479 480 318
f 479 318 321
f 479 321 481
f 482 159 483
f 484 477 158
f 484 158 298
f 485 311 484
f 485 484 298
f 486 297 296
f 486 296 298
f 486 298 159
f 486 159 315
f 486 315 297
f 487 305 306
f 488 307 160
f 489 308 303
f 489 303 304
f 490 295 294
f 490 294 308
f 490 308 489
f 490 485 298
f 490 298 295
f 491 311 485
f 492 95 312
f 492 312 309
f 492 309 306
f 492 306 95
f 493 173 335
f 493 335 336
f 493 336 77
f 493 77 14
f 493 14 322
f 494 495 168
f 494 168 167
f 494 167 170
f 494 170 496
f 497 496 170
f 498 499 497
f 498 497 170
f 498 170 245
f 498 245 25
f 500 155 501
f 502 291 108
f 502 108 155
f 502 155 500
f 502 500 503
f 504 505 506
f 504 506 291
f 504 291 502
f 504 502 503
f 507 505 508
f 509 508 505
f 510 511 114
f 512 413 513
f 512 65 323
f 512 323 414
f 512 414 413
f 514 515 516
f 514 516 323
f 514 323 75
f 517 414 323
f 517 323 516
f 518 330 76
f 518 76 325
f 518 325 326
f 518 326 177
f 518 177 179
f 519 179 175
f 519 175 334
f 519 334 333
f 519 327 330
f 519 330 518
f 519 518 179
f 520 83 338
f 520 338 78
f 520 78 342
f 520 342 84
f 520 84 83
f 521 348 383
f 522 343 346
f 522 346 78
f 522 78 343
f 523 352 393
f 523 349 352
f 524 78 186
f 524 186 350
f 524 350 349
f 524 344 78
f 525 364 363
f 525 363 360
f 525 360 526
f 525 526 527
f 525 527 528
f 525 528 529
f 525 529 366
f 525 366 364
f 530 356 357
f 530 357 430
f 531 259 260
f 531 260 356
f 532 533 531
f 532 531 356
f 532 356 530
f 532 527 533
f 534 29 366
f 534 366 529
f 534 529 528
f 534 535 536
f 534 536 537
f 538 166 358
f 538 358 362
f 538 362 195
f 538 195 72
f 538 72 166
f 539 526 360
f 539 360 359
f 539 533 527
f 539 527 526
f 540 365 181
f 540 181 338
f 540 338 371
f 540 371 196
f 541 542 543
f 541 544 29
f 541 29 542
f 545 383 384
f 545 368 369
f 546 364 365
f 546 365 540
f 546 540 196
f 546 196 372
f 546 372 362
f 546 362 361
f 547 376 378
f 547 378 373
f 547 373 32
f 547 32 199
f 547 199 379
f 547 379 376
f 548 380 45
f 548 45 270
f 549 351 386
f 549 386 354
f 549 354 388
f 549 388 382
f 549 382 201
f 549 201 351
f 550 382 388
f 550 388 209
f 551 385 105
f 551 105 104
f 551 104 202
f 551 202 203
f 552 97 392
f 552 392 100
f 552 100 97
f 553 222 221
f 553 221 396
f 553 396 217
f 553 217 222
f 554 136 154
f 555 396 221
f 555 221 106
f 556 397 227
f 557 404 405
f 557 401 404
f 558 400 223
f 558 223 107
f 558 107 471
f 558 471 472
f 558 472 559
f 558 559 407
f 558 407 400
f 560 224 233
f 560 233 407
f 560 407 559
f 561 113 112
f 561 112 408
f 561 408 401
f 562 403 402
f 562 402 411
f 563 403 562
f 563 562 409
f 563 409 243
f 563 243 232
f 563 232 405
f 563 405 404
f 563 404 403
f 564 416 244
f 564 244 409
f 565 35 114
f 565 114 511
f 565 511 566
f 565 566 2
f 565 2 35
f 567 2 566
f 567 501 155
f 567 155 2
f 568 569 514
f 568 514 75
f 568 75 570
f 568 511 569
f 571 495 572
f 571 572 513
f 571 513 413
f 571 413 412
f 571 412 168
f 571 168 495
f 573 236 324
f 573 417 239
f 573 239 237
f 573 237 236
f 574 119 247
f 574 247 418
f 574 418 224
f 574 224 119
f 575 436 421
f 575 421 250
f 575 250 249
f 576 263 254
f 576 254 421
f 576 421 436
f 576 436 435
f 576 435 263
f 577 437 436
f 577 436 575
f 577 575 578
f 577 248 434
f 577 434 437
f 579 252 578
f 579 578 575
f 579 575 249
f 579 249 251
f 579 251 424
f 580 248 577
f 580 577 578
f 580 578 252
f 580 252 225
f 580 225 248
f 581 122 422
f 581 422 250
f 581 250 420
f 581 420 253
f 581 253 419
f 581 419 116
f 581 116 122
f 582 250 422
f 582 422 423
f 582 423 427
f 582 427 251
f 582 251 250
f 583 425 428
f 583 428 234
f 584 122 118
f 584 118 238
f 584 238 416
f 584 423 122
f 585 430 429
f 585 429 586
f 585 535 430
f 587 39 37
f 588 260 258
f 588 258 39
f 588 39 587
f 588 429 357
f 588 357 260
f 589 432 126
f 590 265 438
f 590 438 435
f 590 435 437
f 591 592 269
f 591 269 593
f 591 593 267
f 591 267 592
f 594 593 269
f 594 269 129
f 594 129 445
f 595 596 507
f 595 507 508
f 595 508 509
f 595 509 597
f 595 597 75
f 595 75 439
f 598 446 447
f 599 63 377
f 599 377 379
f 599 600 64
f 599 64 63
f 601 602 450
f 603 135 134
f 603 134 52
f 603 52 604
f 605 604 52
f 606 447 443
f 606 443 453
f 607 463 462
f 608 282 281
f 608 281 454
f 608 153 282
f 609 276 456
f 609 456 53
f 609 53 144
f 610 611 283
f 610 283 214
f 612 53 219
f 612 219 218
f 612 218 220
f 612 220 613
f 612 613 614
f 612 614 464
f 612 464 463
f 612 463 615
f 616 455 617
f 616 615 463
f 616 463 607
f 616 607 454
f 616 454 455
f 618 466 53
f 618 53 288
f 619 469 157
f 619 157 291
f 619 291 506
f 619 506 505
f 620 621 484
f 620 484 311
f 620 311 310
f 622 480 623
f 622 623 624
f 622 624 319
f 622 319 318
f 622 318 480
f 625 301 300
f 625 300 623
f 625 623 480
f 625 480 301
f 626 315 159
f 626 159 482
f 626 316 315
f 627 628 299
f 627 299 301
f 627 301 479
f 627 479 481
f 629 166 71
f 629 71 74
f 630 628 627
f 630 627 631
f 630 631 483
f 632 482 483
f 632 629 74
f 632 74 165
f 632 165 316
f 632 316 626
f 632 626 482
f 633 487 306
f 634 304 91
f 634 91 204
f 634 204 305
f 635 476 478
f 635 478 636
f 635 636 488
f 635 488 160
f 637 487 633
f 637 489 304
f 637 304 634
f 637 634 305
f 637 305 487
f 638 639 485
f 638 485 490
f 638 490 489
f 638 489 639
f 640 159 65
f 641 174 173
f 641 173 493
f 641 493 322
f 642 643 25
f 642 25 171
f 642 171 329
f 644 505 504
f 644 504 503
f 644 597 509
f 644 509 505
f 645 569 511
f 645 511 510
f 645 510 515
f 645 515 514
f 645 514 569
f 646 510 114
f 646 114 36
f 646 36 242
f 646 242 417
f 647 65 512
f 647 512 513
f 647 513 572
f 648 328 327
f 648 327 519
f 648 519 333
f 648 333 328
f 649 185 346
f 649 346 521
f 649 521 383
f 649 383 184
f 649 184 183
f 649 183 185
f 650 345 523
f 650 523 347
f 650 347 348
f 650 348 521
f 650 521 346
f 650 346 345
f 651 344 524
f 651 524 349
f 651 349 523
f 651 523 345
f 651 345 344
f 652 102 105
f 652 105 347
f 652 347 523
f 652 523 393
f 652 393 102
f 653 535 534
f 653 534 654
f 653 530 430
f 653 430 535
f 655 528 527
f 655 527 532
f 655 532 530
f 655 530 653
f 655 653 654
f 656 654 534
f 656 534 528
f 656 528 655
f 656 655 654
f 657 533 539
f 657 42 259
f 657 259 531
f 657 531 533
f 658 42 657
f 658 657 539
f 658 539 359
f 658 359 40
f 658 40 42
f 659 542 29
f 660 661 662
f 663 127 432
f 664 255 127
f 664 127 663
f 664 663 665
f 666 667 668
f 669 668 667
f 669 670 432
f 669 432 589
f 671 670 669
f 671 669 667
f 671 667 544
f 672 383 545
f 672 545 369
f 672 369 340
f 672 340 339
f 672 339 184
f 672 184 383
f 673 205 370
f 673 370 368
f 673 368 545
f 673 545 384
f 674 364 546
f 674 546 361
f 674 361 364
f 675 269 592
f 675 548 270
f 675 270 269
f 676 550 209
f 676 209 208
f 676 208 389
f 676 389 148
f 677 200 382
f 677 382 550
f 677 550 676
f 677 676 148
f 677 148 101
f 677 101 200
f 678 384 385
f 678 385 551
f 678 551 203
f 678 203 205
f 678 205 673
f 678 673 384
f 679 50 136
f 679 136 554
f 679 555 106
f 679 106 50
f 680 462 464
f 680 554 154
f 680 154 462
f 681 396 555
f 681 555 679
f 681 679 554
f 681 554 680
f 682 424 425
f 682 425 556
f 682 556 227
f 682 227 252
f 682 252 579
f 682 579 424
f 683 399 400
f 684 231 399
f 684 399 683
f 684 683 557
f 684 557 405
f 684 405 231
f 685 113 561
f 685 561 401
f 685 401 557
f 685 557 406
f 685 406 113
f 686 562 411
f 686 564 409
f 686 409 562
f 687 688 501
f 687 501 567
f 689 688 687
f 689 687 570
f 689 570 75
f 690 517 516
f 690 417 573
f 690 573 324
f 690 324 414
f 690 414 517
f 691 398 397
f 691 397 556
f 691 556 425
f 691 425 583
f 691 583 234
f 691 234 228
f 691 228 224
f 691 224 398
f 692 427 423
f 692 423 584
f 692 584 416
f 692 416 564
f 693 588 587
f 694 256 695
f 694 693 587
f 694 587 37
f 694 37 256
f 696 536 535
f 696 535 585
f 696 585 586
f 696 586 697
f 696 537 536
f 698 661 29
f 698 29 534
f 698 534 699
f 698 699 662
f 698 662 661
f 700 662 699
f 701 537 696
f 701 696 697
f 701 697 700
f 701 700 699
f 701 699 534
f 701 534 537
f 702 668 669
f 702 669 589
f 702 589 126
f 702 126 433
f 703 590 437
f 703 437 434
f 704 274 273
f 704 273 449
f 704 449 450
f 705 445 446
f 705 446 598
f 705 267 593
f 705 593 594
f 705 594 445
f 706 267 705
f 706 705 598
f 706 598 447
f 706 447 606
f 706 606 707
f 706 707 452
f 706 452 439
f 706 439 267
f 708 600 599
f 708 599 379
f 708 379 381
f 709 710 452
f 709 452 707
f 709 707 606
f 709 606 453
f 709 453 135
f 709 135 603
f 709 603 604
f 709 604 710
f 711 440 452
f 711 452 710
f 711 710 604
f 711 604 605
f 712 272 274
f 712 711 605
f 712 131 272
f 713 131 712
f 713 712 605
f 713 605 52
f 713 52 51
f 713 51 131
f 714 281 280
f 714 617 455
f 714 455 281
f 715 607 462
f 715 462 154
f 715 154 153
f 715 153 608
f 715 608 454
f 715 454 607
f 716 276 609
f 716 609 472
f 716 472 292
f 716 292 473
f 716 473 276
f 717 28 224
f 717 224 560
f 717 560 559
f 717 559 472
f 717 472 609
f 717 609 144
f 717 144 28
f 718 719 142
f 718 142 141
f 718 141 285
f 720 283 611
f 720 719 718
f 720 718 285
f 720 285 283
f 721 53 722
f 721 722 723
f 724 611 610
f 724 288 289
f 725 719 720
f 725 720 611
f 725 611 724
f 726 288 724
f 726 724 610
f 726 610 214
f 727 617 612
f 727 612 615
f 727 615 616
f 727 616 617
f 728 601 450
f 728 450 451
f 728 451 469
f 728 469 729
f 728 729 596
f 728 596 601
f 730 619 505
f 730 505 507
f 730 507 596
f 730 596 729
f 730 729 469
f 730 469 619
f 731 310 312
f 731 488 636
f 731 621 620
f 731 620 310
f 732 477 484
f 732 484 621
f 732 621 731
f 732 731 636
f 732 636 478
f 732 478 477
f 733 623 300
f 734 321 166
f 734 166 629
f 734 629 631
f 734 631 627
f 734 627 481
f 734 481 321
f 735 631 629
f 735 629 632
f 735 632 483
f 735 483 631
f 736 633 306
f 736 306 309
f 736 309 311
f 736 311 491
f 737 489 637
f 737 637 633
f 737 633 639
f 737 639 489
f 738 639 633
f 738 633 736
f 738 736 491
f 738 491 485
f 738 485 639
f 739 33 373
f 739 373 378
f 739 378 476
f 739 476 635
f 739 635 160
f 739 160 33
f 740 640 65
f 740 65 176
f 740 176 178
f 740 178 172
f 741 322 124
f 741 124 431
f 742 743 499
f 742 499 498
f 742 498 25
f 742 25 643
f 744 745 743
f 744 743 742
f 744 742 643
f 744 643 642
f 746 499 743
f 746 743 745
f 746 745 747
f 746 748 497
f 746 497 499
f 749 748 746
f 749 746 747
f 749 747 647
f 750 496 497
f 750 497 748
f 750 748 749
f 750 572 495
f 750 495 494
f 750 494 496
f 751 597 644
f 751 644 503
f 752 646 417
f 752 417 690
f 752 690 516
f 753 659 29
f 753 29 661
f 754 661 660
f 754 543 542
f 754 542 659
f 754 659 753
f 754 753 661
f 755 543 754
f 755 665 663
f 756 755 663
f 756 663 432
f 756 432 670
f 757 667 666
f 758 541 543
f 758 543 755
f 758 755 756
f 758 756 670
f 758 670 671
f 758 671 544
f 758 544 541
f 759 380 548
f 760 220 396
f 760 396 681
f 760 681 680
f 760 680 464
f 760 464 614
f 760 614 613
f 760 613 220
f 761 407 406
f 761 406 557
f 761 557 683
f 761 683 400
f 761 400 407
f 762 234 428
f 762 428 686
f 762 686 411
f 762 411 410
f 762 410 234
f 763 566 511
f 763 511 568
f 763 568 570
f 763 570 687
f 763 687 567
f 763 567 566
f 764 688 689
f 764 689 75
f 764 75 597
f 765 686 428
f 765 428 427
f 765 427 692
f 765 692 564
f 765 564 686
f 766 429 588
f 766 588 693
f 766 586 429
f 767 660 662
f 767 662 700
f 768 586 766
f 768 766 693
f 768 693 694
f 768 694 767
f 768 767 700
f 768 700 697
f 768 697 586
f 769 265 590
f 769 702 433
f 769 433 265
f 770 703 434
f 770 434 121
f 770 121 120
f 771 772 274
f 771 274 704
f 771 704 450
f 771 450 602
f 773 711 712
f 773 712 274
f 773 274 772
f 773 772 441
f 773 441 440
f 773 440 711
f 774 280 279
f 775 289 53
f 775 53 721
f 775 721 723
f 776 723 725
f 776 725 724
f 776 724 289
f 776 289 775
f 776 775 723
f 777 618 288
f 777 288 726
f 777 726 214
f 777 214 213
f 777 213 467
f 777 467 466
f 777 466 618
f 778 488 731
f 778 731 312
f 778 312 307
f 778 307 488
f 779 300 299
f 779 299 628
f 779 628 630
f 779 630 483
f 779 483 159
f 779 159 640
f 780 623 733
f 780 733 781
f 780 624 623
f 782 43 41
f 783 174 784
f 783 784 640
f 783 640 740
f 783 740 172
f 783 172 174
f 785 641 322
f 785 322 741
f 785 784 174
f 785 174 641
f 786 640 784
f 786 784 785
f 786 785 787
f 788 43 782
f 788 782 789
f 788 789 787
f 788 787 785
f 788 785 741
f 788 741 431
f 788 431 43
f 790 647 747
f 790 747 745
f 790 332 331
f 790 331 65
f 790 65 647
f 791 328 332
f 791 332 744
f 791 744 642
f 791 642 329
f 791 329 328
f 792 745 744
f 792 744 332
f 792 332 790
f 792 790 745
f 793 572 750
f 793 750 749
f 793 749 647
f 793 647 572
f 794 515 510
f 794 510 646
f 794 646 752
f 794 752 516
f 794 516 515
f 795 664 665
f 795 665 796
f 795 695 256
f 795 256 38
f 795 38 255
f 795 255 664
f 797 660 796
f 797 796 665
f 797 665 755
f 797 755 754
f 797 754 660
f 798 544 667
f 798 667 757
f 798 757 29
f 798 29 544
f 799 29 757
f 799 120 29
f 800 592 267
f 800 267 64
f 801 708 381
f 801 381 197
f 801 197 380
f 801 380 759
f 801 600 708
f 802 675 592
f 802 592 800
f 802 759 548
f 802 548 675
f 803 751 503
f 803 503 500
f 803 500 501
f 803 501 688
f 803 688 764
f 803 764 597
f 803 597 751
f 804 695 795
f 804 795 796
f 804 796 660
f 804 660 767
f 804 767 694
f 804 694 695
f 805 668 702
f 805 702 769
f 805 769 590
f 805 590 703
f 805 703 770
f 806 595 439
f 806 771 602
f 806 602 601
f 806 601 596
f 806 596 595
f 807 53 612
f 808 774 279
f 808 279 142
f 808 142 719
f 809 810 40
f 809 40 319
f 809 319 624
f 811 782 41
f 811 41 40
f 811 40 810
f 812 781 733
f 812 733 300
f 812 300 779
f 812 779 640
f 813 810 809
f 814 815 640
f 814 640 786
f 814 786 787
f 814 787 789
f 816 666 668
f 816 668 805
f 816 805 770
f 816 770 120
f 816 120 799
f 816 799 757
f 816 757 666
f 817 600 801
f 817 801 759
f 817 759 802
f 817 802 800
f 817 800 64
f 817 64 600
f 818 772 771
f 818 771 806
f 818 806 439
f 818 439 441
f 818 441 772
f 819 617 714
f 819 807 612
f 819 612 617
f 820 722 53
f 820 53 807
f 820 774 723
f 820 723 722
f 821 774 820
f 821 820 807
f 821 807 819
f 821 819 714
f 821 714 280
f 821 280 774
f 822 725 723
f 822 723 774
f 822 774 808
f 822 808 719
f 822 719 725
f 823 813 809
f 823 809 624
f 823 624 780
f 823 780 781
f 824 812 640
f 824 640 815
f 825 789 782
f 825 782 811
f 825 811 810
f 825 810 813
f 825 813 824
f 825 824 815
f 825 815 814
f 825 814 789
f 826 823 781
f 826 781 812
f 826 812 824
f 826 824 813
f 826 813 823
