# Normalized convex hull collision mesh - generated by scripts/generate-collision-meshes.mjs (units: meters)
v -0.008815 0.008256 -0.012500
v 0.008815 0.008256 -0.012500
v 0.008815 -0.003895 -0.012500
v -0.013735 0.005053 -0.002244
v -0.013750 -0.002842 -0.001751
v -0.013737 0.005108 -0.001508
v -0.008815 -0.003895 -0.012500
v 0.008982 0.006368 -0.012478
v -0.013227 0.008256 -0.005512
v -0.013227 0.008256 0.002495
v -0.008982 -0.003895 -0.012478
v 0.008815 -0.003953 -0.012482
v -0.008815 0.008303 -0.012384
v -0.013750 -0.002842 -0.001266
v -0.011696 0.008256 -0.009203
v -0.011594 0.008307 -0.009136
v -0.010981 0.008256 -0.010316
v -0.010735 0.007655 0.012471
v 0.008815 -0.003895 0.009483
v 0.010735 0.007655 0.012471
v -0.010809 0.007779 0.012500
v 0.010809 0.007779 0.012500
v -0.010809 0.007906 0.012500
v 0.013735 0.005053 -0.000773
v 0.013750 -0.002842 -0.001266
v 0.013737 0.005108 -0.001508
v 0.001024 0.010000 -0.001095
v 0.000262 0.010000 -0.002639
v -0.000726 0.010000 -0.000637
v -0.001024 0.010000 -0.001921
v -0.000636 0.009573 0.005658
v -0.009840 0.008353 0.012125
v 0.009840 0.008353 0.012125
v 0.013735 -0.003895 -0.000794
v 0.013750 -0.002842 -0.001751
v -0.008974 -0.003976 -0.012443
v -0.009123 -0.003976 -0.012382
v -0.009139 -0.003895 -0.012413
v -0.008982 0.006368 -0.012478
v -0.008982 0.008256 -0.012478
v -0.004072 0.009569 -0.007271
v -0.004059 0.009574 -0.007249
v -0.004059 0.009567 -0.007277
v 0.004059 0.009567 -0.007277
v -0.011071 -0.003895 0.007171
v -0.010266 -0.003953 0.008200
v -0.011926 -0.003953 0.005740
v -0.011814 -0.003895 0.005981
v -0.012444 -0.003895 0.004719
v -0.010731 0.008141 0.012005
v -0.010875 0.008029 0.012061
v -0.010591 0.008141 0.012415
v -0.010526 0.008236 0.011925
v -0.010735 0.008029 0.012471
v 0.010735 0.008029 0.012471
v -0.010949 0.007779 0.012090
v -0.010949 0.007906 0.012090
v -0.013320 0.005053 0.002131
v -0.010222 -0.003895 0.008278
v -0.009265 -0.003953 0.009279
v 0.010809 0.007906 0.012500
v 0.010949 0.007906 0.012090
v 0.013320 0.006237 -0.005148
v 0.013227 0.008256 -0.005512
v 0.013596 0.005053 -0.003707
v 0.013344 -0.003895 -0.005047
v 0.013320 0.005053 -0.005148
v 0.013598 -0.002316 -0.003692
v 0.013604 -0.002434 -0.003654
v 0.013604 -0.003895 -0.003645
v 0.013735 0.005053 -0.002244
v 0.013735 -0.003895 -0.002223
v 0.010981 0.006368 -0.010316
v 0.011071 -0.003895 -0.010188
v 0.010222 -0.003895 -0.011295
v 0.012824 0.008256 -0.006791
v 0.012824 0.006368 -0.006791
v 0.012444 -0.003895 -0.007736
v 0.012313 0.008256 -0.008025
v 0.000262 0.010000 -0.000378
v 0.001024 0.010000 -0.001921
v 0.009973 0.008339 -0.011201
v 0.009111 0.008339 -0.012117
v 0.004807 0.009574 -0.006565
v -0.013735 0.005053 -0.000773
v -0.013735 -0.003895 -0.000794
v -0.013320 0.006237 0.002131
v -0.013596 0.005053 0.000690
v -0.013598 -0.002316 0.000675
v -0.013604 -0.002434 0.000637
v -0.010172 0.008256 -0.011355
v -0.009276 0.008256 -0.012309
v -0.010172 0.006368 -0.011355
v -0.010884 0.008307 -0.010239
v -0.004812 0.009574 -0.006566
v -0.009111 0.008339 -0.012117
v -0.009984 0.008340 -0.011173
v -0.000509 0.010000 -0.002540
v -0.010385 0.008236 0.012336
v -0.001554 0.009574 0.005496
v 0.000633 0.009574 0.005652
v 0.000665 0.009574 0.005649
v -0.000622 0.009577 0.005628
v 0.008815 -0.004009 0.009411
v 0.008815 -0.003953 0.009465
v -0.008815 -0.004009 0.009411
v 0.011926 -0.003953 -0.008757
v 0.011814 -0.003895 -0.008997
v 0.012313 0.006368 -0.008025
v 0.013691 -0.002788 -0.000140
v 0.013604 -0.003895 0.000628
v 0.013661 -0.003953 -0.003023
v 0.000262 -0.010000 -0.000378
v 0.000726 -0.010000 -0.002380
v 0.001024 -0.010000 -0.001095
v 0.008982 -0.003895 -0.012478
v 0.009139 0.006368 -0.012413
v 0.009276 -0.003895 -0.012309
v 0.009276 0.006368 -0.012309
v 0.009265 -0.003953 -0.012296
v -0.012313 0.008256 -0.008025
v -0.013168 0.008283 -0.005512
v -0.013683 0.005108 -0.002797
v -0.013691 -0.002788 -0.002877
v -0.013596 0.005053 -0.003707
v -0.013320 0.006237 -0.005148
v -0.013344 -0.003895 -0.005047
v -0.013440 -0.003953 -0.004520
v -0.013604 -0.003895 -0.003645
v -0.013598 -0.002316 -0.003692
v -0.008815 -0.004009 -0.012428
v 0.008815 -0.004009 -0.012428
v 0.000000 -0.009895 -0.002964
v -0.008883 -0.004049 -0.012357
v -0.008815 -0.003953 -0.012482
v -0.009276 0.006368 -0.012309
v -0.009139 0.006368 -0.012413
v -0.013735 -0.003895 -0.002223
v -0.013664 -0.002724 -0.003154
v -0.013639 -0.002639 -0.003384
v -0.011156 -0.003953 0.007016
v -0.009139 -0.003895 0.009396
v -0.008982 -0.003895 0.009461
v -0.008815 -0.003953 0.009465
v -0.009276 -0.003895 0.009293
v 0.013320 0.006237 0.002131
v 0.013317 0.006265 0.002140
v 0.013320 0.005053 0.002131
v 0.013693 -0.002791 -0.002859
v 0.013227 0.008256 0.002495
v 0.013596 0.005053 0.000690
v 0.002508 0.009574 0.005171
v 0.003364 0.009574 0.004730
v 0.004153 0.009574 0.004167
v 0.011696 0.006368 -0.009203
v 0.012672 0.008303 -0.006885
v 0.012165 0.008303 -0.008078
v 0.012045 0.008339 -0.008013
v 0.011445 0.008339 -0.009140
v 0.005938 0.009574 -0.004946
v 0.012546 0.008339 -0.006832
v 0.000901 0.010000 -0.002170
v 0.005426 0.009574 -0.005798
v 0.005406 0.009578 -0.005782
v 0.006333 0.009574 -0.004025
v 0.006309 0.009578 -0.004016
v 0.006602 0.009574 -0.003055
v 0.004095 0.009574 -0.007236
v 0.004789 0.009578 -0.006547
v 0.010981 0.008256 -0.010316
v -0.013683 0.005108 -0.000220
v -0.013693 -0.002791 -0.000158
v -0.013318 0.006263 0.002139
v -0.013344 -0.003895 0.002030
v -0.008815 0.008339 -0.012240
v -0.010778 0.008340 -0.010154
v -0.010082 0.008307 -0.011268
v -0.004095 0.009574 -0.007236
v -0.000726 0.010000 -0.002380
v -0.000000 0.010000 -0.002673
v 0.004059 0.009578 -0.007219
v -0.012979 0.008337 0.002495
v -0.012962 0.008340 -0.005512
v -0.013101 0.008307 -0.005512
v -0.001024 0.010000 -0.001095
v -0.003313 0.009578 0.004731
v -0.002455 0.009578 0.005165
v -0.010130 0.008308 0.012237
v -0.005963 0.009574 0.001889
v -0.002465 0.009574 0.005193
v 0.000622 0.009577 0.005627
v 0.000614 0.009579 0.005612
v -0.000000 0.010000 -0.000344
v 0.011156 -0.003953 -0.010033
v 0.011882 -0.004009 -0.008730
v 0.013661 -0.003953 0.000006
v 0.013716 -0.002828 -0.000451
v 0.013683 0.005108 -0.000220
v 0.013440 -0.003953 -0.004520
v 0.013390 -0.004009 -0.004509
v 0.013327 -0.003953 -0.005042
v 0.013537 -0.004009 -0.003634
v 0.013457 -0.004059 -0.003622
v 0.013311 -0.004059 -0.004491
v 0.013249 0.006364 -0.005429
v 0.013227 0.006368 -0.005512
v 0.013269 0.006353 -0.005350
v 0.013287 0.006336 -0.005280
v 0.011057 -0.003953 0.007160
v 0.010222 -0.003895 0.008278
v 0.010210 -0.003953 0.008266
v 0.010949 0.007779 0.012090
v 0.012956 -0.003895 0.003398
v 0.012444 -0.003895 0.004719
v 0.011814 -0.003895 0.005981
v -0.011071 -0.003895 -0.010188
v 0.001126 -0.009895 -0.002335
v 0.000907 -0.009895 -0.002598
v 0.010167 -0.004059 -0.011123
v -0.009231 -0.004009 0.009239
v 0.000726 -0.010000 -0.000637
v 0.009139 -0.003895 -0.012413
v -0.012824 0.008256 -0.006791
v -0.012204 0.008307 -0.007967
v -0.011814 -0.003895 -0.008997
v -0.013603 -0.002430 -0.003657
v -0.013327 -0.003953 -0.005042
v -0.013074 -0.003953 -0.005986
v 0.008815 0.008339 -0.012240
v -0.013716 -0.002828 -0.002566
v -0.013735 -0.002316 -0.002239
v -0.013735 -0.002842 -0.002236
v -0.013661 -0.003953 -0.003023
v -0.013735 -0.003953 -0.001508
v -0.008815 -0.003895 0.009483
v 0.013716 -0.002829 -0.002556
v 0.013683 0.005108 -0.002797
v 0.013168 0.008283 0.002495
v 0.013101 0.008307 0.002495
v 0.010526 0.008236 0.011925
v 0.013115 0.008302 -0.005512
v 0.012979 0.008337 -0.005512
v 0.010731 0.008141 0.012005
v 0.010385 0.008236 0.012336
v 0.003298 0.009579 0.004702
v 0.000726 0.010000 -0.000637
v 0.013076 0.008303 -0.005649
v 0.010271 0.008308 0.011827
v 0.005471 0.009574 0.002716
v 0.005952 0.009578 0.001845
v 0.005451 0.009578 0.002700
v 0.012962 0.008340 0.002495
v 0.006741 0.009574 -0.002055
v 0.005916 0.009578 -0.004933
v 0.000509 0.010000 -0.002540
v 0.010753 0.008339 -0.010206
v 0.004072 0.009569 -0.007271
v 0.008922 0.008339 -0.012226
v 0.010172 0.008256 -0.011355
v 0.011696 0.008256 -0.009203
v -0.013716 -0.002829 -0.000460
v -0.013604 -0.003895 0.000628
v -0.009139 0.008256 -0.012413
v -0.009087 0.008303 -0.012311
v -0.009023 0.008339 -0.012184
v -0.005433 0.009574 -0.005795
v -0.009203 0.008303 -0.012224
v -0.004078 0.009578 -0.007212
v -0.004792 0.009578 -0.006545
v -0.005410 0.009578 -0.005777
v -0.000901 0.010000 -0.002170
v -0.006749 0.009574 -0.001019
v -0.013076 0.008303 0.002632
v -0.004106 0.009578 0.004172
v -0.004816 0.009578 0.003501
v -0.005454 0.009574 0.002748
v -0.005431 0.009578 0.002730
v -0.005938 0.009578 0.001874
v -0.000901 0.010000 -0.000847
v -0.010271 0.008308 0.011827
v 0.001602 0.009574 0.005479
v -0.000509 0.010000 -0.000477
v 0.009015 -0.004049 0.009304
v 0.000327 -0.009895 -0.000095
v 0.000636 -0.009895 -0.000219
v 0.008982 -0.003895 0.009461
v 0.009276 -0.003895 0.009293
v 0.009265 -0.003953 0.009279
v 0.011049 -0.004059 -0.009951
v 0.010266 -0.003953 -0.011217
v 0.013735 -0.003953 -0.001508
v 0.013344 -0.003895 0.002030
v 0.013598 -0.002316 0.000675
v 0.013588 -0.003953 0.000625
v 0.013735 -0.002316 -0.000778
v 0.013617 -0.002538 0.000538
v 0.013639 -0.002639 0.000367
v 0.013664 -0.002724 0.000137
v 0.012568 -0.003953 -0.007403
v 0.012940 -0.003953 -0.006408
v 0.012521 -0.004009 -0.007381
v 0.012956 -0.003895 -0.006414
v 0.012892 -0.004009 -0.006390
v 0.013026 -0.004009 -0.005969
v 0.012815 -0.004059 -0.006361
v 0.013074 -0.003953 -0.005986
v 0.013278 -0.004009 -0.005029
v 0.013588 -0.003953 -0.003642
v 0.013302 0.006314 -0.005222
v 0.012383 -0.004009 0.004688
v 0.011686 -0.004059 0.005899
v 0.012309 -0.004059 0.004651
v 0.012815 -0.004059 0.003344
v 0.001126 -0.009895 -0.000681
v 0.010172 -0.004009 0.008230
v 0.011071 -0.003895 0.007171
v -0.010222 -0.003895 -0.011295
v 0.009231 -0.004009 -0.012256
v 0.012447 -0.004059 -0.007346
v 0.000901 -0.010000 -0.002170
v 0.001358 -0.009895 -0.001333
v 0.013529 -0.004059 -0.000009
v 0.013457 -0.004059 0.000605
v -0.008883 -0.004049 0.009340
v -0.009015 -0.004049 0.009304
v -0.000327 -0.009895 -0.000095
v -0.008974 -0.003976 0.009427
v -0.001126 -0.009895 -0.002335
v -0.010951 -0.004059 -0.010093
v -0.010112 -0.004059 -0.011189
v -0.000907 -0.009895 -0.000419
v -0.010167 -0.004059 0.008106
v -0.001126 -0.009895 -0.000681
v -0.011811 -0.004059 0.005670
v -0.012447 -0.004059 0.004330
v -0.001279 -0.009895 -0.000992
v 0.000000 -0.009895 -0.000053
v 0.000509 -0.010000 -0.000477
v -0.012712 0.008307 -0.006744
v -0.012587 0.008340 -0.006693
v -0.012085 0.008340 -0.007904
v -0.012956 -0.003895 -0.006414
v -0.011799 -0.003953 -0.008988
v -0.011756 -0.004009 -0.008960
v -0.012383 -0.004009 -0.007705
v -0.011696 0.006368 -0.009203
v -0.013617 -0.002538 -0.003555
v -0.013227 0.006368 -0.005512
v -0.011016 -0.004009 -0.010145
v -0.009015 -0.004049 -0.012321
v -0.009231 -0.004009 -0.012256
v -0.009176 -0.004059 -0.012192
v 0.008955 0.008303 -0.012365
v 0.009023 0.008339 -0.012184
v 0.009087 0.008303 -0.012311
v 0.009203 0.008303 -0.012224
v -0.013390 -0.004009 -0.004509
v -0.013311 -0.004059 -0.004491
v -0.013537 -0.004009 -0.003634
v -0.013588 -0.003953 -0.003642
v -0.013718 -0.003953 -0.002222
v 0.013666 -0.002729 -0.003137
v 0.013640 -0.002646 -0.003369
v 0.013619 -0.002546 -0.003544
v 0.013735 -0.002316 -0.002239
v 0.010875 0.008029 0.012061
v 0.010591 0.008141 0.012415
v 0.002444 0.009579 0.005135
v 0.000509 0.010000 -0.000477
v 0.000901 0.010000 -0.000847
v 0.004794 0.009579 0.003478
v 0.012946 0.008339 -0.005608
v 0.010130 0.008308 0.012237
v 0.005974 0.009574 0.001857
v 0.006359 0.009574 0.000932
v 0.006618 0.009574 -0.000041
v 0.001087 0.010000 -0.001649
v 0.006746 0.009574 -0.001043
v 0.006721 0.009578 -0.001045
v 0.006594 0.009578 -0.000046
v 0.000726 0.010000 -0.002380
v 0.010860 0.008303 -0.010293
v 0.004059 0.009574 -0.007249
v 0.004073 0.009576 -0.007229
v 0.010172 0.006368 -0.011355
v -0.013666 -0.002729 0.000121
v -0.013640 -0.002646 0.000353
v -0.013735 -0.002316 -0.000778
v -0.013390 -0.004009 0.001493
v -0.013311 -0.004059 0.001475
v -0.013199 -0.004059 0.001991
v -0.013619 -0.002546 0.000527
v -0.013661 -0.003953 0.000006
v -0.008955 0.008303 -0.012365
v -0.011480 0.008340 -0.009061
v -0.004073 0.009576 -0.007229
v -0.000262 0.010000 -0.002639
v -0.006617 0.009574 -0.000014
v -0.006588 0.009578 -0.000020
v -0.001087 0.010000 -0.001368
v -0.013115 0.008302 0.002495
v -0.004837 0.009574 0.003523
v 0.000663 0.009578 0.005623
v -0.001548 0.009578 0.005466
v 0.008883 -0.004049 0.009340
v 0.009139 -0.003895 0.009396
v 0.008974 -0.003976 0.009427
v 0.011115 -0.004009 -0.010001
v 0.013718 -0.003953 -0.000795
v 0.013311 -0.004059 0.001475
v 0.013199 -0.004059 0.001991
v 0.013390 -0.004009 0.001493
v 0.013537 -0.004009 0.000618
v 0.013735 -0.002842 -0.000780
v 0.013603 -0.002430 0.000640
v 0.001358 -0.009895 -0.001684
v 0.013603 -0.004059 -0.001508
v 0.013199 -0.004059 -0.005008
v 0.013610 -0.004009 -0.003017
v 0.013586 -0.004059 -0.002215
v 0.013668 -0.004009 -0.002219
v 0.013718 -0.003953 -0.002222
v 0.013684 -0.004009 -0.001508
v 0.013312 0.006287 -0.005178
v 0.012940 -0.003953 0.003392
v 0.011799 -0.003953 0.005971
v 0.010951 -0.004059 0.007077
v 0.000901 -0.010000 -0.000847
v 0.009231 -0.004009 0.009239
v -0.010981 0.006368 -0.010316
v -0.009276 -0.003895 -0.012309
v 0.000636 -0.009895 -0.002797
v 0.009135 -0.004049 -0.012252
v 0.009015 -0.004049 -0.012321
v 0.000327 -0.009895 -0.002922
v 0.008883 -0.004049 -0.012357
v 0.009176 -0.004059 -0.012192
v 0.001279 -0.009895 -0.002025
v 0.011811 -0.004059 -0.008687
v 0.001279 -0.009895 -0.000992
v -0.009176 -0.004059 0.009175
v -0.009135 -0.004049 0.009236
v -0.010228 -0.004009 0.008164
v -0.009123 -0.003976 0.009365
v 0.000000 -0.010000 -0.002673
v -0.013457 -0.004059 -0.003622
v -0.000907 -0.009895 -0.002598
v -0.013199 -0.004059 -0.005008
v -0.011686 -0.004059 -0.008916
v -0.000636 -0.009895 -0.000219
v -0.000726 -0.010000 -0.000637
v -0.012815 -0.004059 0.003344
v -0.012521 -0.004009 0.004365
v -0.001358 -0.009895 -0.001333
v -0.011882 -0.004009 0.005713
v -0.006341 0.009574 -0.004014
v -0.012444 -0.003895 -0.007736
v -0.012940 -0.003953 -0.006408
v -0.013255 0.006362 -0.005407
v -0.013272 0.006351 -0.005338
v -0.013320 0.005053 -0.005148
v -0.013301 0.006315 -0.005224
v -0.013311 0.006291 -0.005183
v -0.013288 0.006335 -0.005276
v -0.011057 -0.003953 -0.010177
v -0.000327 -0.009895 -0.002922
v -0.010210 -0.003953 -0.011283
v 0.008982 0.008256 -0.012478
v 0.008815 0.008303 -0.012384
v 0.010072 0.008303 -0.011298
v -0.013278 -0.004009 0.002012
v -0.013327 -0.003953 0.002025
v -0.012956 -0.003895 0.003398
v -0.012568 -0.003953 0.004386
v -0.012940 -0.003953 0.003392
v 0.013735 -0.002842 -0.002236
v 0.001541 0.009579 0.005434
v 0.004087 0.009579 0.004147
v 0.004860 0.009574 0.003491
v 0.006336 0.009578 0.000924
v 0.006578 0.009578 -0.003050
v 0.006716 0.009578 -0.002053
v 0.001087 0.010000 -0.001368
v 0.004078 0.009578 -0.007212
v 0.011560 0.008303 -0.009217
v -0.013735 -0.002842 -0.000780
v -0.013440 -0.003953 0.001504
v -0.013718 -0.003953 -0.000795
v -0.013610 -0.004009 0.000000
v -0.013668 -0.004009 -0.000797
v -0.008922 0.008339 -0.012226
v -0.005946 0.009574 -0.004939
v -0.004059 0.009578 -0.007219
v -0.006353 0.009574 0.000962
v -0.001087 0.010000 -0.001649
v -0.006581 0.009578 -0.003033
v -0.000262 0.010000 -0.000378
v 0.010228 -0.004009 -0.011181
v 0.013668 -0.004009 -0.000797
v 0.012948 -0.004059 0.002926
v 0.013026 -0.004009 0.002953
v 0.013278 -0.004009 0.002012
v 0.001024 -0.010000 -0.001921
v 0.001087 -0.010000 -0.001368
v 0.013529 -0.004059 -0.003008
v 0.013318 0.006263 -0.005156
v 0.012429 -0.003953 0.004711
v 0.012892 -0.004009 0.003374
v 0.010112 -0.004059 0.008172
v 0.011756 -0.004009 0.005944
v 0.009176 -0.004059 0.009175
v 0.009123 -0.003976 0.009365
v -0.009265 -0.003953 -0.012296
v 0.008974 -0.003976 -0.012443
v 0.012948 -0.004059 -0.005943
v -0.011115 -0.004009 0.006984
v 0.000509 -0.010000 -0.002540
v -0.009135 -0.004049 -0.012252
v -0.000726 -0.010000 -0.002380
v -0.013278 -0.004009 -0.005029
v -0.000262 -0.010000 -0.000378
v -0.001024 -0.010000 -0.001095
v -0.012892 -0.004009 0.003374
v -0.012948 -0.004059 0.002926
v -0.013586 -0.004059 -0.000802
v -0.013529 -0.004059 -0.000009
v -0.001358 -0.009895 -0.001684
v -0.001279 -0.009895 -0.002025
v -0.006609 0.009574 -0.003040
v -0.006314 0.009578 -0.004004
v -0.012313 0.006368 -0.008025
v -0.012824 0.006368 -0.006791
v -0.012429 -0.003953 -0.007728
v -0.013241 0.006367 -0.005459
v -0.013317 0.006265 -0.005157
v -0.010172 -0.004009 -0.011247
v 0.009139 0.008256 -0.012413
v -0.013537 -0.004009 0.000618
v -0.006326 0.009578 0.000952
v -0.012946 0.008339 0.002591
v -0.006717 0.009578 -0.002033
v 0.013586 -0.004059 -0.000802
v 0.013610 -0.004009 0.000000
v 0.013074 -0.003953 0.002969
v 0.013327 -0.003953 0.002025
v 0.001087 -0.010000 -0.001649
v 0.011016 -0.004009 0.007128
v 0.000907 -0.009895 -0.000419
v 0.009135 -0.004049 0.009236
v 0.009123 -0.003976 -0.012382
v -0.011049 -0.004059 0.006934
v 0.000262 -0.010000 -0.002639
v -0.000636 -0.009895 -0.002797
v -0.000262 -0.010000 -0.002639
v 0.000000 -0.010000 -0.000344
v -0.000509 -0.010000 -0.000477
v -0.000901 -0.010000 -0.000847
v -0.013074 -0.003953 0.002969
v -0.013684 -0.004009 -0.001508
v -0.013668 -0.004009 -0.002219
v -0.001024 -0.010000 -0.001921
v -0.013529 -0.004059 -0.003008
v -0.005921 0.009578 -0.004924
v -0.013026 -0.004009 -0.005969
v -0.012309 -0.004059 -0.007668
v -0.012815 -0.004059 -0.006361
v 0.009276 0.008256 -0.012309
v -0.013457 -0.004059 0.000605
v -0.013588 -0.003953 0.000625
v -0.006720 0.009578 -0.001022
v -0.006746 0.009574 -0.002035
v 0.013440 -0.003953 0.001504
v -0.000509 -0.010000 -0.002540
v -0.013026 -0.004009 0.002953
v -0.013586 -0.004059 -0.002215
v -0.000901 -0.010000 -0.002170
v -0.001087 -0.010000 -0.001368
v -0.013610 -0.004009 -0.003017
v -0.012892 -0.004009 -0.006390
v -0.012948 -0.004059 -0.005943
v -0.013603 -0.004059 -0.001508
v -0.001087 -0.010000 -0.001649
f 1 2 3
f 4 5 6
f 7 1 3
f 8 3 2
f 9 4 6
f 9 6 10
f 11 1 7
f 12 7 3
f 13 2 1
f 14 6 5
f 15 16 17
f 18 19 20
f 18 20 21
f 22 20 19
f 22 23 21
f 22 21 20
f 24 25 26
f 27 28 29
f 30 29 28
f 31 32 33
f 34 25 24
f 35 26 25
f 36 37 11
f 38 11 37
f 39 1 11
f 39 11 38
f 40 1 39
f 40 39 38
f 41 42 43
f 44 43 42
f 45 46 21
f 47 48 21
f 47 21 49
f 50 10 51
f 50 51 52
f 50 52 53
f 54 51 23
f 54 23 55
f 54 55 52
f 54 52 51
f 56 21 23
f 57 58 56
f 57 56 23
f 57 23 51
f 57 51 10
f 59 46 60
f 59 21 46
f 61 55 23
f 61 23 22
f 61 22 62
f 63 64 65
f 63 65 66
f 63 66 67
f 68 66 65
f 68 65 69
f 68 69 70
f 68 70 66
f 71 64 26
f 71 26 35
f 71 35 72
f 73 74 75
f 76 77 78
f 76 78 79
f 80 27 29
f 81 28 27
f 82 83 84
f 85 6 14
f 85 14 86
f 85 10 6
f 87 10 88
f 87 58 57
f 89 88 90
f 91 92 93
f 94 91 17
f 94 17 16
f 95 96 97
f 98 30 28
f 99 53 52
f 100 32 31
f 101 31 33
f 101 33 102
f 103 100 31
f 103 31 101
f 103 101 102
f 104 105 106
f 107 108 78
f 109 78 108
f 109 108 79
f 109 79 78
f 110 111 34
f 112 70 72
f 113 114 115
f 116 3 8
f 116 8 117
f 116 12 3
f 118 117 119
f 118 75 120
f 121 16 15
f 122 9 10
f 123 124 4
f 123 4 9
f 125 123 9
f 125 9 126
f 127 128 129
f 127 129 130
f 127 130 125
f 127 125 126
f 131 12 132
f 131 132 133
f 131 133 134
f 131 134 36
f 135 7 12
f 135 12 131
f 135 131 36
f 135 36 11
f 135 11 7
f 136 92 38
f 136 93 92
f 137 40 38
f 137 38 92
f 138 5 4
f 138 124 129
f 139 124 123
f 139 123 125
f 139 125 140
f 139 140 129
f 139 129 124
f 141 48 47
f 141 46 45
f 141 45 21
f 141 21 48
f 142 143 21
f 144 105 19
f 144 106 105
f 145 21 59
f 145 59 60
f 145 60 142
f 145 142 21
f 146 147 62
f 146 62 148
f 149 72 70
f 150 62 147
f 150 147 146
f 150 146 151
f 150 24 26
f 150 26 64
f 152 33 153
f 154 153 33
f 155 108 74
f 156 76 79
f 156 79 157
f 158 159 160
f 158 161 156
f 158 156 157
f 158 157 159
f 162 28 81
f 163 160 159
f 163 82 84
f 163 84 164
f 165 161 158
f 165 158 160
f 165 166 167
f 168 84 83
f 169 162 164
f 169 164 84
f 170 74 73
f 170 73 75
f 171 88 10
f 171 10 85
f 172 171 85
f 173 10 87
f 173 87 57
f 173 57 10
f 174 88 89
f 174 56 58
f 174 58 87
f 174 87 88
f 175 41 43
f 175 43 44
f 176 94 16
f 177 91 94
f 177 94 176
f 177 176 97
f 177 97 96
f 178 96 95
f 179 30 98
f 180 98 28
f 180 28 181
f 182 183 184
f 185 29 30
f 186 32 187
f 188 33 32
f 188 32 189
f 190 32 100
f 190 100 187
f 190 187 32
f 191 192 103
f 191 103 102
f 193 80 29
f 193 103 192
f 194 74 108
f 194 108 107
f 194 107 195
f 196 34 111
f 197 24 110
f 197 110 34
f 198 110 24
f 198 24 150
f 198 150 151
f 199 200 201
f 199 201 66
f 199 66 70
f 202 200 199
f 202 203 204
f 202 204 200
f 205 206 64
f 205 64 207
f 205 207 66
f 205 66 206
f 208 66 207
f 208 207 64
f 209 210 211
f 212 22 213
f 212 148 62
f 212 62 22
f 214 213 22
f 214 22 215
f 216 15 17
f 217 114 218
f 217 218 219
f 220 60 46
f 221 113 115
f 222 116 117
f 222 117 118
f 222 118 120
f 223 9 122
f 224 16 121
f 224 121 223
f 225 121 15
f 226 125 130
f 226 130 129
f 227 128 127
f 227 127 228
f 229 13 175
f 229 175 44
f 230 124 138
f 230 231 4
f 230 4 124
f 232 231 230
f 232 230 138
f 232 138 4
f 232 4 231
f 233 138 129
f 234 86 14
f 234 14 5
f 234 5 138
f 235 18 21
f 235 21 143
f 235 143 144
f 235 144 19
f 235 19 18
f 236 72 149
f 236 149 71
f 237 71 149
f 237 65 64
f 237 64 71
f 238 239 240
f 238 150 64
f 241 242 239
f 241 239 238
f 241 238 64
f 243 150 238
f 243 238 240
f 244 243 240
f 244 188 99
f 244 99 52
f 245 152 153
f 246 27 80
f 247 242 241
f 247 241 64
f 247 64 76
f 247 76 156
f 248 244 240
f 248 240 239
f 249 250 251
f 252 239 242
f 252 248 239
f 253 242 167
f 254 160 163
f 254 163 164
f 254 164 162
f 254 162 81
f 254 81 166
f 254 166 165
f 254 165 160
f 255 28 162
f 256 82 163
f 256 163 159
f 257 258 229
f 257 229 44
f 259 170 75
f 259 118 119
f 260 155 74
f 260 74 170
f 260 157 79
f 260 79 108
f 260 108 155
f 261 86 172
f 261 172 85
f 262 172 86
f 262 174 89
f 262 89 90
f 263 264 40
f 263 40 137
f 263 137 92
f 265 96 178
f 266 97 176
f 266 95 97
f 267 264 263
f 267 263 92
f 267 92 91
f 267 91 177
f 267 177 96
f 267 96 265
f 267 265 264
f 268 179 98
f 269 179 268
f 269 268 178
f 269 178 95
f 269 95 266
f 269 266 270
f 271 30 179
f 271 179 269
f 271 269 270
f 272 183 182
f 273 10 50
f 273 50 53
f 274 275 32
f 274 32 186
f 274 29 275
f 276 189 32
f 276 277 278
f 276 278 189
f 279 29 185
f 279 185 278
f 279 278 277
f 279 277 275
f 279 275 29
f 280 99 188
f 280 273 53
f 280 53 99
f 281 102 33
f 281 33 152
f 282 193 29
f 282 29 274
f 282 274 186
f 282 186 187
f 283 284 285
f 286 22 19
f 286 19 105
f 287 288 211
f 287 211 210
f 287 210 22
f 289 217 219
f 290 75 74
f 290 74 194
f 290 120 75
f 291 72 35
f 291 35 25
f 291 25 34
f 292 111 293
f 292 293 151
f 292 151 146
f 292 146 148
f 292 148 212
f 292 212 213
f 294 196 111
f 295 24 197
f 296 111 297
f 296 297 151
f 298 110 198
f 298 198 151
f 298 151 297
f 298 297 111
f 298 111 110
f 299 300 301
f 299 301 195
f 299 195 107
f 299 107 78
f 302 77 76
f 302 76 64
f 302 64 206
f 302 206 66
f 302 300 299
f 302 299 78
f 302 78 77
f 303 301 300
f 303 304 305
f 303 305 301
f 306 304 303
f 306 303 300
f 306 300 302
f 306 302 66
f 306 66 201
f 307 304 306
f 307 306 201
f 307 201 200
f 308 70 112
f 308 112 202
f 308 202 199
f 308 199 70
f 309 67 66
f 309 66 208
f 309 208 64
f 310 311 312
f 310 312 313
f 314 312 311
f 315 209 211
f 316 22 210
f 316 210 209
f 316 215 22
f 317 17 91
f 317 91 93
f 318 120 290
f 319 301 305
f 319 195 301
f 320 114 217
f 320 115 114
f 321 322 323
f 324 325 326
f 327 144 143
f 327 325 324
f 327 324 106
f 327 106 144
f 328 329 330
f 331 332 333
f 334 335 336
f 334 336 333
f 337 104 106
f 337 106 324
f 337 324 326
f 338 113 221
f 338 285 284
f 338 284 113
f 339 184 183
f 339 183 340
f 339 224 223
f 339 223 122
f 339 122 184
f 341 16 224
f 341 224 339
f 341 339 340
f 342 228 127
f 342 9 223
f 343 225 216
f 343 344 345
f 346 216 225
f 346 225 15
f 346 15 216
f 347 140 125
f 347 125 226
f 347 226 129
f 347 129 140
f 348 9 342
f 348 342 127
f 349 329 344
f 349 344 343
f 350 37 36
f 350 36 134
f 351 352 330
f 353 229 258
f 354 355 353
f 354 353 258
f 354 258 168
f 354 168 83
f 356 355 354
f 356 354 83
f 356 83 82
f 357 128 227
f 357 358 359
f 357 359 128
f 360 359 233
f 360 233 129
f 360 129 128
f 360 128 359
f 361 138 233
f 361 234 138
f 362 149 70
f 362 70 363
f 362 363 65
f 362 65 237
f 362 237 149
f 364 65 363
f 364 363 70
f 364 70 69
f 364 69 65
f 365 236 71
f 366 150 243
f 366 55 61
f 366 61 62
f 366 62 150
f 367 243 244
f 367 244 52
f 367 52 55
f 367 55 366
f 367 366 243
f 368 152 245
f 368 281 152
f 369 246 80
f 369 80 368
f 369 368 245
f 370 27 246
f 370 251 250
f 370 250 27
f 371 251 370
f 371 370 246
f 372 161 165
f 372 165 167
f 372 167 242
f 372 242 247
f 372 247 156
f 372 156 161
f 373 33 188
f 373 188 244
f 373 244 248
f 374 250 249
f 374 249 33
f 374 33 373
f 375 248 252
f 375 250 374
f 375 374 373
f 375 373 248
f 376 375 252
f 377 81 27
f 378 252 242
f 378 242 253
f 378 379 380
f 378 380 376
f 378 376 252
f 381 255 162
f 381 162 169
f 382 170 259
f 382 82 256
f 382 256 159
f 383 42 384
f 383 384 168
f 383 168 258
f 383 258 257
f 383 257 44
f 383 44 42
f 385 118 259
f 385 259 75
f 385 75 118
f 386 172 262
f 386 262 387
f 386 387 88
f 386 88 171
f 386 171 172
f 388 261 85
f 389 390 391
f 392 387 262
f 392 262 90
f 392 90 88
f 392 88 387
f 393 262 86
f 394 13 1
f 394 1 40
f 394 40 264
f 394 264 265
f 394 175 13
f 395 16 341
f 395 266 176
f 395 176 16
f 396 181 384
f 396 384 42
f 396 42 178
f 396 178 268
f 397 268 98
f 397 98 180
f 398 399 272
f 398 272 182
f 400 185 30
f 400 399 185
f 401 10 273
f 401 273 182
f 401 182 184
f 401 184 122
f 401 122 10
f 402 275 277
f 402 277 276
f 402 276 32
f 402 32 275
f 403 191 102
f 403 102 281
f 403 80 193
f 403 193 192
f 403 192 191
f 404 100 103
f 404 187 100
f 405 284 283
f 405 104 337
f 405 337 284
f 406 288 287
f 406 287 22
f 406 22 286
f 407 286 105
f 407 105 104
f 407 104 405
f 407 405 283
f 408 290 194
f 408 194 195
f 408 195 289
f 409 291 34
f 409 34 196
f 410 411 321
f 410 321 323
f 410 412 411
f 413 323 322
f 413 196 294
f 413 412 410
f 413 410 323
f 414 34 24
f 414 24 295
f 414 295 197
f 414 197 34
f 415 293 111
f 415 111 296
f 415 296 151
f 415 151 293
f 416 204 203
f 416 417 321
f 418 204 416
f 418 304 307
f 418 307 200
f 418 200 204
f 419 202 112
f 420 417 416
f 420 419 421
f 422 72 291
f 422 421 419
f 422 419 112
f 422 112 72
f 423 417 420
f 423 420 421
f 423 421 422
f 423 422 291
f 423 291 409
f 424 67 309
f 424 309 64
f 425 213 214
f 426 215 316
f 426 316 209
f 426 214 215
f 427 314 311
f 428 115 314
f 428 314 221
f 428 221 115
f 429 315 211
f 429 211 288
f 430 17 317
f 430 317 216
f 430 216 17
f 431 136 38
f 431 317 93
f 431 93 136
f 432 433 218
f 434 433 432
f 434 432 435
f 436 133 132
f 436 434 435
f 436 435 133
f 437 433 318
f 437 318 219
f 437 219 218
f 437 218 433
f 438 319 305
f 438 418 416
f 439 195 319
f 439 319 438
f 439 438 217
f 439 217 289
f 439 289 195
f 440 313 312
f 440 312 314
f 440 314 115
f 440 115 321
f 440 321 411
f 441 220 332
f 441 332 331
f 441 331 442
f 441 442 220
f 443 332 220
f 443 220 46
f 444 142 60
f 444 60 220
f 444 220 442
f 444 442 325
f 444 325 327
f 444 327 143
f 444 143 142
f 445 114 113
f 445 133 435
f 446 359 358
f 447 328 330
f 447 330 352
f 448 358 357
f 449 344 329
f 449 329 328
f 449 345 344
f 450 326 325
f 450 325 442
f 450 442 331
f 451 331 333
f 451 445 113
f 452 336 335
f 452 335 453
f 454 336 391
f 454 391 390
f 455 453 335
f 455 335 334
f 455 141 47
f 456 341 340
f 456 340 183
f 457 225 343
f 457 223 121
f 458 228 342
f 458 342 457
f 459 460 9
f 459 127 460
f 461 462 127
f 461 127 126
f 463 9 462
f 463 462 461
f 464 460 127
f 464 127 462
f 464 462 9
f 464 9 460
f 465 349 343
f 465 343 216
f 465 216 317
f 466 133 445
f 466 350 134
f 466 134 133
f 467 317 431
f 467 465 317
f 468 2 353
f 468 353 355
f 468 117 8
f 468 8 2
f 469 13 229
f 469 229 353
f 469 353 2
f 469 2 13
f 470 356 82
f 470 82 382
f 470 382 259
f 471 472 389
f 471 389 391
f 473 21 56
f 473 56 174
f 474 49 21
f 474 21 473
f 474 473 475
f 474 475 453
f 474 453 455
f 474 455 47
f 474 47 49
f 476 236 365
f 476 365 71
f 476 71 72
f 476 72 236
f 477 281 368
f 477 368 80
f 477 80 403
f 477 403 281
f 478 154 371
f 478 371 246
f 478 246 369
f 478 369 245
f 478 245 153
f 478 153 154
f 479 33 249
f 479 249 251
f 479 251 371
f 479 371 154
f 479 154 33
f 480 27 250
f 480 250 375
f 480 375 376
f 480 376 380
f 480 380 27
f 481 167 166
f 481 166 81
f 481 81 377
f 482 253 167
f 482 167 481
f 482 481 377
f 482 377 379
f 482 379 378
f 482 378 253
f 483 379 377
f 483 377 27
f 483 27 380
f 483 380 379
f 484 181 28
f 484 28 255
f 484 255 381
f 484 381 169
f 484 169 84
f 484 84 168
f 484 168 384
f 484 384 181
f 485 260 170
f 485 170 382
f 485 382 159
f 485 159 157
f 485 157 260
f 486 261 388
f 486 388 85
f 486 85 86
f 486 86 261
f 487 389 472
f 487 472 174
f 487 174 262
f 488 393 86
f 488 86 234
f 489 393 488
f 489 488 490
f 491 175 394
f 491 394 265
f 491 265 178
f 491 178 42
f 491 42 41
f 491 41 175
f 492 266 395
f 492 395 341
f 492 341 456
f 492 270 266
f 493 396 268
f 493 268 397
f 493 397 180
f 493 180 181
f 493 181 396
f 494 280 188
f 494 188 189
f 494 399 398
f 495 400 30
f 495 30 496
f 497 193 282
f 497 282 187
f 497 187 404
f 497 404 103
f 497 103 193
f 498 219 318
f 498 318 290
f 498 290 408
f 498 408 289
f 498 289 219
f 499 423 409
f 500 411 501
f 500 501 313
f 500 313 440
f 500 440 411
f 502 501 411
f 502 411 412
f 503 320 217
f 503 217 438
f 503 438 416
f 503 115 320
f 504 115 503
f 504 416 321
f 504 321 115
f 505 203 202
f 505 202 419
f 505 419 420
f 505 420 416
f 505 416 203
f 506 63 67
f 506 67 424
f 506 424 64
f 506 64 63
f 507 310 425
f 507 425 214
f 507 214 426
f 507 426 310
f 508 313 501
f 508 425 310
f 508 310 313
f 509 314 427
f 509 427 315
f 509 315 429
f 510 427 311
f 510 311 310
f 510 310 426
f 511 509 429
f 512 407 283
f 512 429 288
f 512 288 406
f 512 406 286
f 512 286 407
f 513 37 351
f 513 351 467
f 513 467 431
f 513 431 38
f 513 38 37
f 514 12 116
f 514 434 436
f 514 436 132
f 514 132 12
f 515 418 438
f 515 438 305
f 515 305 304
f 515 304 418
f 516 141 455
f 516 443 46
f 516 46 141
f 517 114 445
f 517 435 432
f 517 432 218
f 517 218 114
f 518 447 352
f 518 352 351
f 518 351 37
f 518 37 350
f 519 328 447
f 519 445 451
f 520 227 228
f 520 448 357
f 520 357 227
f 521 451 113
f 522 336 454
f 522 519 451
f 522 333 336
f 523 452 453
f 523 453 475
f 524 336 452
f 524 391 336
f 525 454 526
f 525 526 489
f 525 489 490
f 527 446 358
f 527 358 448
f 527 448 528
f 529 496 456
f 529 456 183
f 530 492 456
f 530 456 496
f 530 496 30
f 531 225 457
f 531 457 121
f 531 121 225
f 532 223 457
f 532 457 342
f 532 342 223
f 533 345 458
f 533 458 457
f 533 457 343
f 533 343 345
f 534 348 127
f 534 127 459
f 534 459 9
f 534 9 348
f 535 126 9
f 535 9 463
f 535 463 461
f 535 461 126
f 536 330 329
f 536 329 349
f 536 349 465
f 536 465 467
f 536 467 351
f 536 351 330
f 537 119 117
f 537 117 468
f 537 468 355
f 537 355 356
f 538 389 487
f 538 393 489
f 538 489 526
f 538 390 389
f 539 278 185
f 539 185 399
f 539 399 494
f 539 494 189
f 539 189 278
f 540 182 273
f 540 273 280
f 540 280 494
f 540 494 398
f 540 398 182
f 541 495 496
f 542 417 423
f 542 423 499
f 542 322 321
f 542 321 417
f 543 196 413
f 543 413 322
f 543 322 542
f 543 542 499
f 543 499 409
f 543 409 196
f 544 501 502
f 544 292 213
f 544 213 425
f 544 425 508
f 544 508 501
f 545 292 544
f 545 544 502
f 545 502 412
f 546 416 504
f 546 504 503
f 546 503 416
f 547 209 315
f 547 315 427
f 547 427 510
f 547 510 426
f 547 426 209
f 548 314 509
f 548 509 511
f 548 285 338
f 548 338 221
f 548 221 314
f 549 283 285
f 549 285 548
f 549 548 511
f 549 511 429
f 549 429 512
f 549 512 283
f 550 222 120
f 550 120 318
f 550 318 433
f 550 433 434
f 550 434 514
f 550 514 116
f 550 116 222
f 551 334 333
f 551 333 332
f 551 332 443
f 551 443 516
f 551 516 455
f 551 455 334
f 552 435 517
f 552 517 445
f 552 445 435
f 553 447 518
f 553 518 350
f 553 350 466
f 554 445 519
f 554 466 445
f 555 337 326
f 555 326 521
f 555 521 113
f 555 113 284
f 555 284 337
f 556 450 331
f 556 331 451
f 556 451 521
f 556 521 326
f 556 326 450
f 557 333 522
f 557 522 451
f 557 451 333
f 558 523 475
f 558 475 473
f 558 473 174
f 558 174 472
f 558 472 471
f 559 525 490
f 559 490 488
f 559 488 234
f 559 234 361
f 559 361 560
f 561 519 522
f 561 527 528
f 561 528 328
f 562 446 527
f 562 359 446
f 563 492 530
f 563 530 30
f 563 30 271
f 563 271 270
f 563 270 492
f 564 520 228
f 564 448 520
f 565 345 449
f 565 449 328
f 565 328 528
f 565 528 566
f 565 566 345
f 567 259 119
f 567 119 537
f 567 537 356
f 567 356 470
f 567 470 259
f 568 390 538
f 568 538 526
f 568 526 454
f 568 454 390
f 569 262 393
f 569 393 538
f 569 538 487
f 569 487 262
f 570 400 495
f 570 495 541
f 570 541 272
f 570 272 399
f 570 399 400
f 571 529 183
f 571 183 272
f 571 272 541
f 571 541 496
f 571 496 529
f 572 294 111
f 572 111 292
f 572 292 545
f 572 545 412
f 572 412 413
f 572 413 294
f 573 553 466
f 573 466 554
f 573 554 519
f 573 519 447
f 573 447 553
f 574 523 558
f 574 558 471
f 574 471 391
f 574 391 524
f 574 524 452
f 574 452 523
f 575 559 560
f 575 562 527
f 576 519 561
f 576 561 328
f 576 328 519
f 577 561 522
f 577 522 454
f 577 454 527
f 578 359 562
f 578 562 575
f 578 575 560
f 578 560 361
f 578 361 233
f 578 233 359
f 579 458 345
f 579 345 566
f 579 566 564
f 579 564 228
f 579 228 458
f 580 448 564
f 580 564 566
f 580 566 528
f 580 528 448
f 581 525 559
f 581 559 575
f 581 575 527
f 581 527 454
f 581 454 525
f 582 561 577
f 582 577 527
f 582 527 561
