# Convex hull collision mesh — generated by scripts/generate-collision-meshes.mjs
v -16.000000 21.000000 22.000000
v -16.000000 0.000000 22.000000
v -14.966332 14.004033 55.000000
v -16.000000 0.000000 -22.000000
v -15.000000 0.000000 -23.000000
v 15.000000 0.000000 -23.000000
v -3.019226 -14.000000 -9.000000
v -15.000000 21.000000 -23.000000
v -3.116683 -14.000000 -8.663989
v -3.175658 -14.000000 -8.319138
v -14.367435 9.359097 55.000000
v -12.811745 13.000000 56.890915
v -14.765601 10.877480 55.000000
v -14.966332 12.434313 55.000000
v 13.000000 22.000000 20.000000
v 16.000000 21.000000 22.000000
v 16.000000 21.000000 -22.000000
v -15.974928 0.000000 -22.222521
v -15.623489 0.000000 -22.781832
v -15.781832 0.000000 -22.623489
v -15.465642 21.000000 -22.884974
v -15.433884 0.000000 -22.900969
v -15.222521 0.000000 -22.974928
v 7.000000 13.250000 57.000000
v -2.348870 25.462879 55.000000
v -12.500000 13.250000 57.000000
v 2.992010 -14.000000 -8.248943
v -15.974928 0.000000 22.222521
v -13.778370 7.904098 55.000000
v -1.784959 -14.000000 -5.370723
v 15.747478 21.000000 -22.664288
v 15.707107 21.014694 -22.707108
v 15.884974 21.000000 -22.465641
v 13.000000 22.000000 -20.000000
v 15.465642 21.000000 -22.884974
v 15.664287 21.000000 -22.747478
v 15.000000 21.000000 -23.000000
v -15.900969 0.000000 -22.433884
v -15.884974 21.000000 -22.465641
v -5.467383 25.162041 55.000000
v -6.972223 24.715412 55.000000
v -8.407596 24.080015 55.000000
v -14.367435 17.079248 55.000000
v -13.778370 18.534248 55.000000
v -12.069215 21.159971 55.000000
v -10.977187 22.287579 55.000000
v -12.611260 13.250000 56.987461
v 16.000000 0.000000 -22.000000
v 2.828427 -14.000000 -9.000000
v 15.970818 21.000000 22.239819
v 15.974928 0.000000 22.222521
v 9.508498 13.219173 55.000000
v -9.749930 3.172063 55.000000
v -8.407596 2.358332 55.000000
v -13.008080 6.536371 55.000000
v -12.069215 5.278375 55.000000
v -15.900969 0.000000 22.433884
v -2.820068 -14.000000 -6.491261
v 1.162916 -14.000000 -5.136703
v 7.000000 13.000000 57.000000
v 0.743962 24.962854 55.000000
v 2.217095 24.420729 55.000000
v 15.970818 21.000000 -22.239819
v -13.000000 22.000000 -20.000000
v -2.741501 25.469173 23.000000
v -4.281907 25.371937 23.000000
v -1.201096 25.371937 23.000000
v -7.265289 24.603279 23.000000
v 15.239820 21.000000 -22.970818
v -3.917783 25.412567 55.000000
v -14.765601 15.560866 55.000000
v -13.008080 19.901976 55.000000
v -9.749930 23.266283 55.000000
v -12.811745 13.250000 56.890915
v 16.000000 0.000000 22.000000
v 15.781832 0.000000 -22.623489
v 9.407927 14.785668 55.000000
v -12.611260 13.000000 56.987461
v -3.195400 -14.000000 -7.969836
v -5.467383 1.276306 55.000000
v -3.917783 1.025779 55.000000
v -3.100102 -14.000000 -7.207101
v -1.093525 -14.000000 -5.034918
v -2.348870 0.975467 55.000000
v -0.786403 1.126196 55.000000
v 2.361856 -14.000000 -6.079890
v 4.896249 3.641737 55.000000
v 3.608808 2.743674 55.000000
v 15.900969 0.000000 22.433884
v 6.058278 4.697062 55.000000
v 0.743962 1.475492 55.000000
v 8.613229 8.622152 55.000000
v 9.107861 10.111904 55.000000
v 0.314856 25.081770 23.000000
v -0.786403 25.312151 55.000000
v 3.608808 23.694672 55.000000
v 7.932153 19.230463 55.000000
v 8.613229 17.816195 55.000000
v -15.239820 21.000000 -22.970818
v -15.707107 21.014694 -22.707108
v -5.797858 25.081770 23.000000
v -16.000000 21.000000 -22.000000
v -12.716942 13.250000 56.950481
v 15.974928 0.000000 -22.222521
v 15.433884 0.000000 -22.900969
v 9.107861 16.326443 55.000000
v -10.977187 4.150768 55.000000
v -6.972223 1.722935 55.000000
v -2.372514 -14.000000 -5.866328
v -12.500000 13.000000 57.000000
v 0.427160 -14.000000 -4.914197
v -0.340724 -14.000000 -4.879559
v 1.821308 -14.000000 -5.533398
v 2.751326 -14.000000 -6.742581
v 7.111260 13.000000 56.987461
v 2.217095 2.017619 55.000000
v 7.075816 5.892319 55.000000
v 4.896249 22.796608 55.000000
v 6.058278 21.741285 55.000000
v 7.075816 20.546026 55.000000
v -15.664287 21.000000 -22.747478
v -15.747478 21.000000 -22.664288
v -15.970818 21.000000 -22.239819
v -12.716942 13.000000 56.950481
v 15.900969 0.000000 -22.433884
v 15.222521 0.000000 -22.974928
v 15.623489 0.000000 -22.781832
v 2.965772 -14.000000 -7.480726
v 7.311745 13.000000 56.890915
v 7.932153 7.207883 55.000000
v 7.216942 13.250000 56.950481
v 7.311745 13.250000 56.890915
v 9.407927 11.652678 55.000000
v 7.111260 13.250000 56.987461
v 7.216942 13.000000 56.950481
f 1 2 3
f 1 4 2
f 5 6 7
f 5 8 6
f 9 7 10
f 11 12 13
f 14 2 13
f 14 13 12
f 14 12 3
f 14 3 2
f 15 16 17
f 18 7 9
f 18 9 10
f 18 10 4
f 19 7 20
f 19 21 22
f 19 22 7
f 23 8 5
f 23 5 7
f 23 7 22
f 24 25 26
f 27 10 7
f 28 29 11
f 28 11 13
f 28 13 2
f 30 10 27
f 31 32 33
f 34 33 32
f 34 32 35
f 34 15 17
f 36 35 32
f 37 8 34
f 37 6 8
f 38 20 7
f 38 7 18
f 38 39 20
f 40 41 26
f 42 26 41
f 42 41 1
f 43 44 1
f 45 46 1
f 47 26 42
f 47 46 45
f 48 17 16
f 49 27 7
f 49 7 6
f 50 51 16
f 52 51 50
f 53 28 54
f 55 29 28
f 55 28 56
f 57 54 28
f 58 10 30
f 59 30 27
f 60 24 26
f 61 24 62
f 61 62 50
f 61 50 16
f 61 16 15
f 63 33 34
f 63 34 17
f 64 34 8
f 65 34 64
f 65 64 66
f 65 25 67
f 65 67 34
f 68 1 41
f 69 37 34
f 69 34 35
f 70 66 40
f 70 40 26
f 70 26 25
f 70 25 65
f 70 65 66
f 71 43 1
f 71 1 3
f 72 45 1
f 72 1 44
f 73 46 47
f 73 47 42
f 73 42 1
f 73 1 46
f 74 43 71
f 74 71 3
f 74 3 12
f 75 27 48
f 75 48 16
f 75 16 51
f 76 32 31
f 76 31 33
f 77 52 50
f 78 53 54
f 78 26 47
f 79 10 58
f 79 28 2
f 79 2 4
f 79 4 10
f 80 30 81
f 82 57 28
f 82 28 79
f 82 79 58
f 82 58 54
f 82 54 57
f 83 30 59
f 83 81 30
f 84 59 85
f 84 85 60
f 86 59 27
f 87 88 89
f 87 89 90
f 91 60 85
f 92 89 51
f 92 51 93
f 94 34 67
f 94 61 15
f 94 15 34
f 95 25 24
f 95 24 61
f 95 61 94
f 95 94 67
f 95 67 25
f 96 50 62
f 97 98 50
f 99 21 64
f 99 64 8
f 99 8 23
f 99 23 22
f 99 22 21
f 100 39 64
f 100 64 21
f 100 19 20
f 101 40 66
f 101 66 64
f 101 68 41
f 101 41 40
f 102 18 4
f 102 4 1
f 102 1 68
f 102 68 101
f 102 101 64
f 103 47 45
f 103 45 72
f 103 72 44
f 103 44 43
f 103 43 74
f 103 74 12
f 103 78 47
f 104 63 17
f 104 17 48
f 104 48 27
f 104 27 49
f 105 69 35
f 106 77 50
f 106 50 98
f 107 53 78
f 107 78 56
f 107 56 28
f 107 28 53
f 108 54 58
f 109 30 80
f 109 80 108
f 109 108 58
f 109 58 30
f 110 78 54
f 110 54 108
f 110 108 80
f 110 80 81
f 110 81 84
f 110 84 60
f 110 60 26
f 110 26 78
f 111 59 84
f 111 83 59
f 112 83 111
f 112 111 84
f 112 84 81
f 112 81 83
f 113 59 86
f 113 86 91
f 113 91 85
f 113 85 59
f 114 51 89
f 114 86 27
f 115 88 87
f 115 87 90
f 115 24 60
f 116 60 91
f 116 91 86
f 116 86 114
f 116 114 89
f 116 89 88
f 116 88 115
f 116 115 60
f 117 115 90
f 117 90 89
f 118 119 50
f 118 50 96
f 120 97 50
f 120 50 119
f 121 19 100
f 121 100 21
f 121 21 19
f 122 39 100
f 122 100 20
f 122 20 39
f 123 18 102
f 123 102 64
f 123 64 39
f 123 39 38
f 123 38 18
f 124 78 103
f 124 103 12
f 124 12 11
f 124 11 29
f 124 29 55
f 124 55 56
f 124 56 78
f 125 76 33
f 125 33 63
f 125 63 104
f 125 104 49
f 125 49 76
f 126 69 105
f 126 105 49
f 126 49 6
f 126 6 37
f 126 37 69
f 127 36 32
f 127 32 76
f 127 76 49
f 127 49 105
f 127 105 35
f 127 35 36
f 128 51 114
f 128 114 27
f 128 27 75
f 128 75 51
f 129 92 93
f 130 117 89
f 130 89 92
f 131 98 97
f 131 97 120
f 132 77 106
f 132 106 98
f 132 98 131
f 132 131 129
f 132 129 52
f 132 52 77
f 133 52 129
f 133 129 93
f 133 93 51
f 133 51 52
f 134 119 118
f 134 118 96
f 134 96 62
f 134 62 24
f 134 24 115
f 134 115 131
f 134 131 120
f 134 120 119
f 135 129 131
f 135 131 115
f 135 115 117
f 135 117 130
f 135 130 92
f 135 92 129
