# Normalized convex hull collision mesh - generated by scripts/generate-collision-meshes.mjs (units: meters)
v -0.000375 0.021000 -0.007968
v 0.001797 0.020926 0.016454
v 0.001797 0.020926 -0.007968
v 0.014942 0.001213 -0.033000
v 0.014942 -0.001210 -0.033000
v -0.014942 -0.001210 -0.033000
v 0.020091 0.002021 -0.028116
v -0.020091 -0.002018 -0.028116
v -0.020091 0.002021 -0.028116
v -0.019767 -0.004121 -0.028116
v -0.020885 -0.002194 -0.007968
v -0.000923 -0.000783 0.033000
v 0.000171 0.001201 0.033000
v -0.001170 0.000316 0.033000
v -0.000171 -0.001198 0.033000
v -0.002543 0.020849 -0.007968
v -0.002019 0.020094 -0.028116
v -0.014942 0.001213 -0.033000
v -0.015011 0.013509 -0.028116
v -0.013506 0.015013 -0.028116
v -0.016348 0.011854 -0.028116
v -0.015723 0.013924 -0.007968
v 0.002019 0.020094 -0.028116
v 0.004122 0.019770 -0.028116
v -0.021000 0.000002 -0.007968
v -0.020888 0.002172 -0.007968
v -0.020888 0.002172 0.016454
v -0.001084 -0.000539 0.033000
v 0.006489 -0.019972 0.016454
v 0.006489 -0.019972 -0.007968
v 0.008541 -0.019184 -0.007968
v -0.010500 -0.018186 0.016454
v -0.008541 -0.019184 -0.007968
v -0.008541 -0.019184 0.016454
v -0.006489 -0.019972 -0.007968
v -0.008168 -0.018466 -0.028116
v -0.004366 -0.020541 0.016454
v -0.004366 -0.020541 -0.007968
v -0.002195 -0.020885 0.016454
v -0.002195 -0.020885 -0.007968
v -0.004122 -0.019767 -0.028116
v -0.020541 -0.004365 -0.007968
v -0.019972 -0.006488 -0.007968
v -0.020541 -0.004365 0.016454
v -0.019972 -0.006488 0.016454
v -0.019184 -0.008540 0.016454
v -0.019071 -0.006195 0.017725
v -0.018218 -0.006137 0.018816
v -0.018911 -0.006143 0.017946
v -0.018319 -0.008155 0.017725
v -0.015606 -0.014051 0.016454
v -0.014052 -0.015606 -0.007968
v -0.014052 -0.015606 0.016454
v -0.015606 -0.014051 -0.007968
v -0.016989 -0.012343 0.016454
v -0.010681 0.015756 0.019047
v -0.010789 0.015915 0.018816
v -0.011866 0.014883 0.019047
v -0.001128 0.001335 0.032847
v 0.017560 0.011519 -0.007968
v 0.011915 0.017296 -0.007968
v 0.017560 0.011519 0.016454
v -0.002543 0.020849 0.016454
v -0.004684 0.020474 0.016454
v -0.004684 0.020474 -0.007968
v -0.006179 0.019227 -0.028116
v -0.006774 0.019881 -0.007968
v -0.006774 0.019881 0.016454
v 0.001041 0.019200 0.018816
v -0.000000 0.020056 0.017725
v -0.000000 0.019228 0.018816
v 0.011915 0.017296 0.016454
v 0.003949 0.020629 0.016454
v -0.020885 -0.002194 0.016454
v -0.019995 0.006420 0.016454
v -0.019225 0.008452 0.016454
v -0.019995 0.006420 -0.007968
v -0.010716 0.018063 -0.007968
v -0.012525 0.016859 -0.007968
v -0.010716 0.018063 0.016454
v -0.014200 0.015474 -0.007968
v -0.015723 0.013924 0.016454
v -0.011852 0.016351 -0.028116
v -0.010066 0.017508 -0.028116
v -0.018249 0.010394 -0.007968
v -0.018249 0.010394 0.016454
v 0.019767 0.004124 -0.028116
v 0.019224 0.006181 -0.028116
v 0.020608 0.004040 -0.007968
v 0.017505 0.010068 -0.028116
v 0.016348 0.011854 -0.028116
v 0.002019 -0.020091 -0.028116
v -0.019224 0.006181 -0.028116
v -0.018467 0.008170 -0.028116
v 0.001170 -0.000313 0.033000
v 0.004366 -0.020541 -0.007968
v 0.002195 -0.020885 0.016454
v 0.002195 -0.020885 -0.007968
v 0.006179 -0.019223 -0.028116
v -0.008156 -0.018319 0.017725
v -0.008087 -0.018165 0.017946
v -0.008341 -0.017321 0.018816
v -0.007045 -0.017680 0.019047
v -0.008258 -0.017147 0.019047
v -0.006197 -0.019071 0.017725
v -0.005365 -0.019322 0.017725
v -0.005143 -0.018524 0.018816
v -0.004169 -0.019614 0.017725
v -0.006179 -0.019223 -0.028116
v -0.006489 -0.019972 0.016454
v -0.003244 -0.019788 0.017725
v -0.000000 -0.021000 -0.007968
v -0.010500 -0.018186 -0.007968
v -0.010066 -0.017504 -0.028116
v -0.011852 -0.016348 -0.028116
v -0.015151 -0.011517 0.019047
v -0.001404 -0.001192 0.032770
v -0.016308 -0.009811 0.019047
v -0.013817 -0.013088 0.019047
v -0.017273 -0.007990 0.019047
v -0.018036 -0.006076 0.019047
v -0.017448 -0.008071 0.018816
v -0.016473 -0.009910 0.018816
v -0.018187 -0.010499 0.016454
v -0.017220 -0.009941 0.017946
v -0.018775 -0.004131 0.018816
v -0.018165 -0.008086 0.017946
v -0.016989 -0.012343 -0.007968
v -0.000837 0.001534 0.032847
v -0.000667 0.001013 0.033000
v -0.010126 0.016118 0.019047
v -0.008915 0.016818 0.019047
v 0.010066 0.017508 -0.028116
v 0.008168 0.018470 -0.028116
v 0.015011 0.013509 -0.028116
v 0.013506 0.015013 -0.028116
v 0.020885 -0.002194 0.016454
v 0.020541 -0.004365 0.016454
v 0.020885 -0.002194 -0.007968
v 0.021000 0.000002 -0.007968
v -0.000375 0.021000 0.016454
v -0.001086 0.020027 0.017725
v -0.003244 0.019792 0.017725
v -0.008168 0.018470 -0.028116
v -0.004122 0.019770 -0.028116
v -0.008792 0.019074 0.016454
v -0.009393 0.017720 0.017725
v -0.008341 0.017324 0.018816
v -0.008156 0.018322 0.017725
v -0.009005 0.016988 0.018816
v 0.001086 0.020027 0.017725
v 0.005365 0.019325 0.017725
v 0.006060 0.020110 0.016454
v 0.004169 0.019618 0.017725
v 0.003949 0.020629 -0.007968
v 0.010064 0.018435 0.016454
v 0.006179 0.019227 -0.028116
v 0.008105 0.019376 -0.007968
v -0.019032 0.000002 0.019047
v -0.018921 -0.002056 0.019047
v -0.001843 0.000040 0.032770
v -0.018913 0.002133 0.019047
v -0.001649 -0.000821 0.032770
v -0.017077 0.012224 0.016454
v -0.017321 0.008344 0.018816
v -0.018046 0.008351 0.017946
v -0.018146 0.006352 0.018816
v -0.017964 0.006288 0.019047
v -0.017147 0.008260 0.019047
v -0.016278 0.010231 0.018816
v -0.017038 0.010254 0.017946
v -0.017077 0.012224 -0.007968
v -0.017505 0.010068 -0.028116
v -0.019225 0.008452 -0.007968
v 0.008541 -0.019184 0.016454
v 0.007422 -0.018628 0.017725
v -0.002019 -0.020091 -0.028116
v 0.004122 -0.019767 -0.028116
v 0.008168 -0.018466 -0.028116
v 0.010066 -0.017504 -0.028116
v 0.011852 -0.016348 -0.028116
v 0.013506 -0.015010 -0.028116
v 0.016115 -0.010125 0.019047
v 0.014880 -0.011866 0.019047
v 0.016278 -0.010227 0.018816
v 0.017147 -0.008257 0.019047
v 0.001614 -0.000888 0.032770
v -0.019767 0.004124 -0.028116
v -0.012343 -0.016989 0.016454
v -0.000709 -0.000981 0.033000
v 0.001084 0.000542 0.033000
v 0.002131 -0.018912 0.019047
v 0.003079 -0.018781 0.019047
v 0.000184 -0.001832 0.032770
v 0.001030 -0.019004 0.019047
v 0.004235 -0.018555 0.019047
v 0.005092 -0.018338 0.019047
v 0.000618 -0.001735 0.032770
v -0.000242 -0.001696 0.032867
v -0.000260 -0.001823 0.032770
v -0.001030 -0.019004 0.019047
v -0.002131 -0.018912 0.019047
v -0.000000 -0.021000 0.016454
v -0.001086 -0.020023 0.017725
v 0.004366 -0.020541 0.016454
v -0.009005 -0.016985 0.018816
v -0.007116 -0.017859 0.018816
v -0.007422 -0.018628 0.017725
v -0.002096 -0.019943 0.017725
v -0.001041 -0.019196 0.018816
v -0.017366 -0.010025 0.017725
v -0.019112 -0.002077 0.018816
v -0.007422 0.018632 0.017725
v -0.001041 0.019200 0.018816
v -0.002096 0.019946 0.017725
v -0.001780 0.000480 0.032770
v -0.018555 0.004237 0.019047
v -0.000749 0.001373 0.032940
v -0.001283 0.001187 0.032847
v -0.001148 0.001061 0.032940
v -0.013458 0.013461 0.019047
v 0.011852 0.016351 -0.028116
v 0.018591 0.009769 -0.007968
v 0.019447 0.007928 0.016454
v 0.019447 0.007928 -0.007968
v 0.020122 0.006012 -0.007968
v 0.020608 0.004040 0.016454
v 0.018467 0.008170 -0.028116
v 0.020902 0.002030 -0.007968
v 0.020091 -0.002018 -0.028116
v 0.019767 -0.004121 -0.028116
v 0.019224 -0.006178 -0.028116
v 0.019972 -0.006488 -0.007968
v 0.018467 -0.008167 -0.028116
v 0.020541 -0.004365 -0.007968
v 0.019972 -0.006488 0.016454
v 0.019935 -0.002167 0.017725
v 0.021000 0.000002 0.016454
v -0.004169 0.019618 0.017725
v -0.008792 0.019074 -0.007968
v -0.010026 0.017369 0.017725
v 0.002131 0.018916 0.019047
v 0.003110 0.018975 0.018816
v 0.002152 0.019107 0.018816
v 0.001030 0.019007 0.019047
v -0.000000 0.019035 0.019047
v -0.000055 0.001788 0.032818
v 0.014902 0.013421 0.017725
v 0.013418 0.014905 0.017725
v 0.004278 0.018746 0.018816
v 0.005143 0.018527 0.018816
v 0.003244 0.019792 0.017725
v 0.008105 0.019376 0.016454
v 0.010064 0.018435 -0.007968
v 0.006060 0.020110 -0.007968
v -0.001245 -0.000619 0.032985
v -0.001060 -0.000899 0.032985
v -0.001357 -0.000303 0.032985
v -0.001182 -0.000264 0.033000
v -0.021000 0.000002 0.016454
v -0.001535 -0.000764 0.032867
v -0.018587 -0.004090 0.019047
v -0.020551 0.004319 0.016454
v -0.019935 0.002170 0.017725
v -0.017182 0.010341 0.017725
v -0.018199 0.008422 0.017725
v -0.019003 0.006405 0.017725
v 0.018187 -0.010499 -0.007968
v 0.018187 -0.010499 0.016454
v 0.016989 -0.012343 -0.007968
v 0.016348 -0.011851 -0.028116
v 0.017321 -0.008340 0.018816
v 0.018199 -0.008419 0.017725
v 0.016989 -0.012343 0.016454
v 0.010500 -0.018186 -0.007968
v -0.020551 0.004319 -0.007968
v -0.012343 -0.016989 -0.007968
v -0.000814 -0.001127 0.032985
v -0.001190 -0.001010 0.032940
v -0.000584 -0.001447 0.032940
v -0.000520 -0.001289 0.032985
v 0.001211 -0.000023 0.033000
v 0.001389 -0.000082 0.032985
v 0.017964 -0.006285 0.019047
v 0.005365 -0.019322 0.017725
v 0.004169 -0.019614 0.017725
v 0.003244 -0.019788 0.017725
v 0.002096 -0.019943 0.017725
v 0.001354 -0.001249 0.032770
v 0.006286 -0.017964 0.019047
v 0.007045 -0.017680 0.019047
v 0.006349 -0.018146 0.018816
v 0.003110 -0.018971 0.018816
v -0.012321 -0.014505 0.019047
v -0.012446 -0.014652 0.018816
v -0.011986 -0.015030 0.018816
v -0.000689 -0.001708 0.032770
v -0.000914 -0.001265 0.032940
v -0.001003 -0.001390 0.032867
v -0.003110 -0.018971 0.018816
v -0.004134 -0.019449 0.017946
v -0.004278 -0.018742 0.018816
v -0.004235 -0.018555 0.019047
v -0.000000 -0.019224 0.018816
v 0.007116 -0.017859 0.018816
v 0.008087 -0.018165 0.017946
v 0.008341 -0.017321 0.018816
v 0.008156 -0.018319 0.017725
v -0.011253 -0.016597 0.017725
v -0.010228 -0.016278 0.018816
v -0.009942 -0.017220 0.017946
v -0.008915 -0.016815 0.019047
v -0.009393 -0.017716 0.017725
v -0.006286 -0.017964 0.019047
v -0.006349 -0.018146 0.018816
v -0.013957 -0.013220 0.018816
v -0.013418 -0.014902 0.017725
v -0.014777 -0.013304 0.017946
v -0.014902 -0.013417 0.017725
v -0.015305 -0.011634 0.018816
v -0.016086 -0.011687 0.017946
v -0.016223 -0.011786 0.017725
v -0.019614 -0.004168 0.017725
v -0.019184 -0.008540 -0.007968
v -0.018467 -0.008167 -0.028116
v -0.017505 -0.010065 -0.028116
v -0.015011 -0.013505 -0.028116
v -0.005365 0.019325 0.017725
v -0.006197 0.019074 0.017725
v -0.005143 0.018527 0.018816
v -0.003110 0.018975 0.018816
v -0.004235 0.018558 0.019047
v -0.003079 0.018785 0.019047
v -0.002131 0.018916 0.019047
v 0.005092 0.018342 0.019047
v 0.000456 0.001651 0.032869
v 0.006286 0.017967 0.019047
v 0.012982 0.015286 0.017725
v 0.000162 0.001730 0.032854
v 0.011866 0.014883 0.019047
v 0.011986 0.015033 0.018816
v 0.010681 0.015756 0.019047
v 0.011787 0.016226 0.017725
v 0.001068 0.001486 0.032783
v 0.015151 0.011520 0.019047
v 0.013817 0.013091 0.019047
v 0.001331 0.001133 0.032847
v 0.016308 0.009815 0.019047
v 0.012446 0.014655 0.018816
v -0.001061 0.000587 0.033000
v -0.000899 0.001064 0.032985
v -0.000667 0.001223 0.032985
v -0.001022 0.000946 0.032985
v -0.001218 0.000674 0.032985
v -0.001368 0.000756 0.032940
v -0.000225 0.001734 0.032847
v -0.008258 0.017150 0.019047
v -0.008087 0.018168 0.017946
v -0.007116 0.017862 0.018816
v -0.007045 0.017684 0.019047
v -0.000406 0.001143 0.033000
v -0.000466 0.001313 0.032985
v -0.001009 0.001194 0.032940
v -0.012525 0.016859 0.016454
v -0.011253 0.016600 0.017725
v -0.011787 0.016226 0.017725
v -0.011687 0.016089 0.017946
v -0.001529 0.000845 0.032847
v -0.012321 0.014508 0.019047
v 0.018591 0.009769 0.016454
v 0.017366 0.010029 0.017725
v 0.020122 0.006012 0.016454
v 0.019184 -0.008540 0.016454
v 0.018743 -0.004277 0.018816
v 0.018913 -0.002129 0.019047
v 0.018555 -0.004234 0.019047
v 0.019584 -0.004309 0.017725
v 0.019419 -0.004273 0.017946
v 0.018921 0.002060 0.019047
v 0.018587 0.004093 0.019047
v 0.001729 0.000249 0.032847
v 0.019104 -0.002151 0.018816
v 0.019225 0.000002 0.018816
v 0.020053 0.000002 0.017725
v 0.020902 0.002030 0.016454
v -0.009942 0.017223 0.017946
v 0.003079 0.018785 0.019047
v -0.001030 0.019007 0.019047
v 0.013957 0.013224 0.018816
v 0.004134 0.019453 0.017946
v 0.002096 0.019946 0.017725
v 0.006197 0.019074 0.017725
v -0.001211 0.000027 0.033000
v -0.020053 0.000002 0.017725
v -0.001307 -0.001109 0.032867
v -0.001398 -0.000696 0.032940
v -0.015964 0.012138 0.017725
v -0.015030 0.011989 0.018816
v -0.016115 0.010128 0.019047
v -0.018843 0.006351 0.017946
v -0.018743 0.004280 0.018816
v -0.019104 0.002154 0.018816
v 0.015011 -0.013505 -0.028116
v 0.014052 -0.015606 -0.007968
v 0.017505 -0.010065 -0.028116
v 0.017182 -0.010337 0.017725
v 0.009393 -0.017716 0.017725
v 0.009005 -0.016985 0.018816
v 0.012321 -0.014505 0.019047
v 0.001015 -0.001537 0.032770
v 0.015030 -0.011986 0.018816
v 0.013594 -0.013593 0.018816
v 0.015606 -0.014051 0.016454
v 0.014052 -0.015606 0.016454
v 0.012343 -0.016989 -0.007968
v -0.012982 -0.015283 0.017725
v -0.000453 -0.001122 0.033000
v 0.001377 0.000198 0.032985
v 0.001780 -0.000476 0.032770
v 0.001743 -0.000103 0.032847
v 0.001656 -0.000443 0.032867
v 0.018146 -0.006348 0.018816
v 0.019032 0.000002 0.019047
v 0.019112 0.002080 0.018816
v 0.001559 -0.000092 0.032940
v 0.004278 -0.018742 0.018816
v 0.006197 -0.019071 0.017725
v 0.001086 -0.020023 0.017725
v 0.001041 -0.019196 0.018816
v 0.010126 -0.016115 0.019047
v 0.008915 -0.016815 0.019047
v 0.010228 -0.016278 0.018816
v 0.010681 -0.015752 0.019047
v 0.008258 -0.017147 0.019047
v 0.000121 -0.001204 0.033000
v -0.000196 -0.001376 0.032985
v -0.000220 -0.001545 0.032940
v 0.000139 -0.001383 0.032985
v 0.002152 -0.019104 0.018816
v -0.011866 -0.014879 0.019047
v -0.000641 -0.001589 0.032867
v -0.003079 -0.018781 0.019047
v -0.002152 -0.019104 0.018816
v -0.000000 -0.019032 0.019047
v -0.010789 -0.015912 0.018816
v -0.010681 -0.015752 0.019047
v -0.011687 -0.016086 0.017946
v -0.010126 -0.016115 0.019047
v -0.010026 -0.017366 0.017725
v -0.005092 -0.018338 0.019047
v -0.006144 -0.018910 0.017946
v -0.013305 -0.014776 0.017946
v -0.019449 -0.004133 0.017946
v -0.019943 -0.002095 0.017725
v -0.018187 -0.010499 -0.007968
v -0.019224 -0.006178 -0.028116
v -0.013506 -0.015010 -0.028116
v -0.016348 -0.011851 -0.028116
v -0.006349 0.018149 0.018816
v -0.006286 0.017967 0.019047
v -0.005092 0.018342 0.019047
v -0.004278 0.018746 0.018816
v -0.002152 0.019107 0.018816
v 0.004235 0.018558 0.019047
v 0.000709 0.000984 0.033000
v 0.000220 0.001548 0.032940
v -0.000048 0.001563 0.032940
v 0.012321 0.014508 0.019047
v 0.011687 0.016089 0.017946
v 0.010126 0.016118 0.019047
v -0.001391 0.000030 0.032985
v -0.001562 0.000034 0.032940
v -0.000890 0.000824 0.033000
v -0.000585 0.001647 0.032847
v -0.000054 0.001747 0.032847
v -0.000121 0.001207 0.033000
v -0.000308 0.001359 0.032985
v -0.000179 0.001381 0.032985
v -0.014200 0.015474 0.016454
v -0.010228 0.016281 0.018816
v -0.001656 0.000446 0.032867
v -0.012982 0.015286 0.017725
v 0.019614 0.004171 0.017725
v 0.018775 0.004135 0.018816
v 0.018036 0.006079 0.019047
v 0.019071 0.006199 0.017725
v 0.019184 -0.008540 -0.007968
v 0.001563 0.000781 0.032847
v 0.017273 0.007994 0.019047
v 0.001398 0.000699 0.032940
v 0.001470 0.000529 0.032940
v 0.016473 0.009914 0.018816
v 0.017220 0.009944 0.017946
v 0.019943 0.002098 0.017725
v 0.014777 0.013308 0.017946
v 0.013305 0.014779 0.017946
v 0.006349 0.018149 0.018816
v 0.007045 0.017684 0.019047
v 0.008156 0.018322 0.017725
v 0.009393 0.017720 0.017725
v -0.019225 0.000002 0.018816
v -0.001524 -0.000341 0.032940
v -0.001673 -0.000374 0.032867
v -0.015829 0.012036 0.017946
v -0.014880 0.011869 0.019047
v -0.014558 0.013793 0.017725
v -0.014436 0.013677 0.017946
v -0.013594 0.013597 0.018816
v -0.019584 0.004313 0.017725
v 0.015606 -0.014051 -0.007968
v 0.017038 -0.010250 0.017946
v 0.010500 -0.018186 0.016454
v 0.011866 -0.014879 0.019047
v 0.013458 -0.013457 0.019047
v 0.014436 -0.013673 0.017946
v 0.015964 -0.012135 0.017725
v 0.001182 0.000267 0.033000
v 0.018046 -0.008348 0.017946
v 0.019003 -0.006402 0.017725
v 0.001546 0.000223 0.032940
v 0.005143 -0.018524 0.018816
v 0.004134 -0.019449 0.017946
v -0.000000 -0.020053 0.017725
v 0.001502 -0.000827 0.032867
v 0.001344 -0.000359 0.032985
v 0.001509 -0.000403 0.032940
v 0.001368 -0.000753 0.032940
v 0.000172 -0.001705 0.032867
v -0.001078 -0.001493 0.032770
v -0.011787 -0.016223 0.017725
v -0.006144 0.018914 0.017946
v -0.004134 0.019453 0.017946
v 0.000453 0.001125 0.033000
v 0.000624 0.001245 0.032985
v 0.000371 0.001343 0.032985
v 0.000196 0.001379 0.032985
v 0.009005 0.016988 0.018816
v 0.008258 0.017150 0.019047
v 0.008915 0.016818 0.019047
v 0.010228 0.016281 0.018816
v 0.009942 0.017223 0.017946
v 0.010789 0.015915 0.018816
v 0.000417 0.001507 0.032940
v 0.000783 0.001563 0.032847
v 0.001022 0.001418 0.032847
v 0.016223 0.011789 0.017725
v 0.016086 0.011690 0.017946
v -0.001509 0.000407 0.032940
v -0.001798 -0.000402 0.032770
v -0.001715 0.000037 0.032867
v -0.011986 0.015033 0.018816
v 0.019449 0.004136 0.017946
v 0.018218 0.006141 0.018816
v 0.001644 0.000591 0.032847
v 0.018319 0.008158 0.017725
v 0.018165 0.008090 0.017946
v 0.006144 0.018914 0.017946
v 0.007422 0.018632 0.017725
v 0.010026 0.017369 0.017725
v -0.012446 0.014655 0.018816
v -0.019419 0.004276 0.017946
v 0.012343 -0.016989 0.016454
v 0.010026 -0.017366 0.017725
v 0.012982 -0.015283 0.017725
v 0.013418 -0.014902 0.017725
v 0.013305 -0.014776 0.017946
v 0.012446 -0.014652 0.018816
v 0.014558 -0.013790 0.017725
v 0.015829 -0.012032 0.017946
v 0.001203 0.001267 0.032847
v 0.001076 0.001134 0.032940
v 0.018843 -0.006348 0.017946
v 0.006144 -0.018910 0.017946
v 0.000667 -0.001009 0.033000
v 0.001148 -0.001058 0.032940
v 0.001218 -0.000670 0.032985
v 0.000814 0.001130 0.032985
v 0.000959 0.001010 0.032985
v 0.000923 0.000786 0.033000
v 0.001245 0.000623 0.032985
v -0.000043 0.001392 0.032985
v 0.008341 0.017324 0.018816
v 0.008087 0.018168 0.017946
v 0.011253 0.016600 0.017725
v 0.000701 0.001398 0.032940
v 0.015305 0.011637 0.018816
v -0.001344 0.000363 0.032985
v -0.000524 0.001473 0.032940
v -0.000346 0.001525 0.032940
v -0.000201 0.001551 0.032940
v -0.000387 0.001705 0.032847
v 0.018911 0.006147 0.017946
v 0.017448 0.008075 0.018816
v 0.007116 0.017862 0.018816
v -0.013418 0.014905 0.017725
v 0.010789 -0.015912 0.018816
v 0.009942 -0.017220 0.017946
v 0.011787 -0.016223 0.017725
v 0.011986 -0.015030 0.018816
v 0.000406 -0.001140 0.033000
v 0.000767 -0.001159 0.032985
v 0.001260 -0.001162 0.032867
v 0.001061 -0.000583 0.033000
v 0.001022 -0.000942 0.032985
v 0.000466 -0.001309 0.032985
v 0.000524 -0.001470 0.032940
v 0.000945 -0.001430 0.032867
v 0.000156 -0.001553 0.032940
v 0.000575 -0.001614 0.032867
v 0.001310 0.000471 0.032985
v 0.001190 0.001013 0.032940
v 0.000914 0.001269 0.032940
v -0.013305 0.014779 0.017946
v 0.011253 -0.016597 0.017725
v 0.011687 -0.016086 0.017946
v 0.000890 -0.000820 0.033000
v 0.000861 -0.001302 0.032940
v 0.001060 0.000903 0.032985
f 1 2 3
f 4 5 6
f 4 7 5
f 8 9 6
f 8 6 10
f 8 10 11
f 12 13 14
f 15 13 12
f 16 1 17
f 18 6 9
f 18 19 20
f 18 17 4
f 18 4 6
f 21 22 19
f 21 19 18
f 23 24 4
f 23 4 17
f 23 17 1
f 23 1 3
f 25 26 9
f 25 9 8
f 25 8 11
f 25 27 26
f 28 12 14
f 29 30 31
f 32 33 34
f 35 33 36
f 35 34 33
f 37 35 38
f 37 38 39
f 40 39 38
f 40 38 41
f 42 43 44
f 42 44 11
f 42 11 10
f 45 44 43
f 45 43 46
f 45 46 47
f 45 47 44
f 48 49 47
f 50 48 47
f 50 47 46
f 51 52 53
f 54 52 51
f 54 51 55
f 56 57 58
f 56 58 59
f 60 61 62
f 63 1 16
f 63 16 64
f 65 66 67
f 65 67 64
f 65 64 16
f 68 64 67
f 69 70 71
f 72 62 61
f 73 3 2
f 74 25 11
f 74 11 44
f 75 76 77
f 78 79 80
f 81 22 82
f 81 79 20
f 81 20 19
f 81 19 22
f 83 20 79
f 83 79 78
f 83 78 84
f 83 84 18
f 83 18 20
f 85 76 86
f 87 4 88
f 87 89 7
f 87 7 4
f 90 91 60
f 90 4 91
f 92 6 5
f 93 94 18
f 95 13 15
f 96 30 29
f 96 97 98
f 96 99 30
f 100 101 102
f 103 104 102
f 105 106 107
f 108 106 37
f 109 41 38
f 109 38 35
f 109 35 36
f 109 36 6
f 109 6 41
f 110 35 37
f 110 37 106
f 110 106 105
f 110 34 35
f 111 108 37
f 111 37 39
f 112 39 40
f 112 92 98
f 112 98 97
f 113 33 32
f 114 36 33
f 114 33 113
f 114 113 115
f 114 115 6
f 114 6 36
f 116 117 118
f 116 119 117
f 120 121 48
f 120 48 122
f 123 124 55
f 123 118 120
f 123 120 122
f 123 122 125
f 126 47 49
f 126 49 48
f 126 48 121
f 127 48 50
f 127 50 122
f 127 122 48
f 128 54 55
f 128 55 124
f 129 56 59
f 130 14 13
f 131 57 56
f 131 56 129
f 131 129 132
f 133 4 134
f 135 136 61
f 135 61 60
f 135 60 91
f 135 91 4
f 135 4 136
f 137 138 139
f 137 139 140
f 141 1 63
f 141 63 142
f 141 142 70
f 141 2 1
f 143 63 64
f 144 67 66
f 144 66 18
f 144 18 84
f 145 18 66
f 145 66 65
f 145 65 16
f 145 16 17
f 145 17 18
f 146 80 147
f 146 147 148
f 146 148 149
f 146 68 67
f 146 78 80
f 150 148 147
f 150 131 132
f 151 2 141
f 151 141 70
f 151 70 69
f 152 153 73
f 152 73 154
f 155 3 73
f 155 73 153
f 155 24 23
f 155 23 3
f 156 72 61
f 157 158 134
f 157 134 4
f 157 4 24
f 159 160 161
f 159 161 162
f 163 121 120
f 163 120 118
f 163 118 117
f 164 82 22
f 164 85 86
f 165 166 167
f 165 167 168
f 165 168 169
f 165 170 171
f 172 85 164
f 172 164 22
f 172 22 21
f 173 94 85
f 173 85 172
f 173 172 21
f 173 21 18
f 173 18 94
f 174 77 76
f 174 76 85
f 174 85 94
f 174 94 93
f 174 93 77
f 175 29 31
f 175 176 29
f 177 41 6
f 177 6 92
f 177 92 112
f 177 112 40
f 177 40 41
f 178 99 96
f 178 96 98
f 178 98 92
f 178 92 5
f 178 5 99
f 179 99 5
f 179 5 180
f 179 180 31
f 179 31 30
f 179 30 99
f 181 180 5
f 181 5 182
f 183 184 185
f 183 185 186
f 183 186 187
f 183 187 184
f 188 93 18
f 188 18 9
f 188 9 26
f 189 53 52
f 189 113 32
f 190 15 12
f 191 13 95
f 192 193 194
f 192 194 195
f 196 197 198
f 196 198 194
f 196 194 193
f 199 200 194
f 201 200 202
f 203 204 39
f 203 39 112
f 203 112 97
f 205 97 96
f 205 96 29
f 206 102 104
f 207 101 100
f 207 103 102
f 207 102 101
f 208 207 100
f 208 100 34
f 208 34 110
f 208 110 105
f 209 111 39
f 209 39 204
f 209 204 210
f 211 124 123
f 211 123 125
f 211 125 122
f 211 122 50
f 211 50 46
f 211 46 124
f 212 126 160
f 213 68 146
f 213 146 149
f 214 71 70
f 214 70 142
f 215 63 143
f 215 214 142
f 215 142 63
f 216 168 217
f 216 217 162
f 216 162 161
f 218 129 59
f 219 220 59
f 221 219 59
f 222 136 4
f 222 4 133
f 222 133 61
f 222 61 136
f 223 60 62
f 223 224 225
f 223 90 60
f 226 88 225
f 226 225 224
f 226 227 89
f 226 89 87
f 226 87 88
f 228 90 223
f 228 223 225
f 228 225 88
f 228 88 4
f 228 4 90
f 229 140 7
f 229 7 89
f 229 89 227
f 230 139 231
f 230 231 5
f 230 5 7
f 230 7 140
f 230 140 139
f 232 233 234
f 232 234 5
f 232 5 231
f 235 139 138
f 235 138 233
f 235 233 232
f 235 232 231
f 235 231 139
f 236 233 138
f 237 138 137
f 238 137 140
f 238 140 229
f 239 143 64
f 240 78 146
f 240 146 67
f 240 67 144
f 240 144 84
f 240 84 78
f 241 150 147
f 241 147 80
f 242 243 244
f 242 244 69
f 242 69 245
f 246 71 214
f 246 247 245
f 246 245 69
f 246 69 71
f 248 72 249
f 248 62 72
f 250 251 152
f 250 152 154
f 252 73 2
f 252 244 243
f 252 243 154
f 252 154 73
f 253 156 158
f 253 158 153
f 254 158 156
f 254 156 61
f 254 61 133
f 254 133 134
f 254 134 158
f 255 155 153
f 255 153 158
f 255 158 157
f 255 157 24
f 255 24 155
f 256 257 12
f 256 12 28
f 256 28 258
f 259 258 28
f 259 28 14
f 260 27 25
f 260 25 74
f 261 163 117
f 262 126 121
f 262 160 126
f 263 27 264
f 263 75 77
f 263 26 27
f 265 171 170
f 265 170 164
f 265 164 86
f 265 86 165
f 265 165 171
f 266 76 167
f 266 167 166
f 266 166 165
f 266 165 86
f 266 86 76
f 267 167 76
f 267 76 75
f 268 269 270
f 268 270 271
f 272 269 273
f 272 186 185
f 274 270 269
f 275 31 180
f 275 180 181
f 275 175 31
f 276 77 93
f 276 93 188
f 276 188 26
f 276 26 263
f 276 263 77
f 277 113 189
f 277 189 52
f 277 115 113
f 278 257 279
f 278 280 281
f 278 281 190
f 278 190 12
f 278 12 257
f 282 191 95
f 282 95 283
f 284 187 186
f 285 286 205
f 285 205 29
f 287 97 205
f 287 205 286
f 288 97 287
f 289 184 187
f 290 291 198
f 290 198 197
f 290 197 292
f 290 292 291
f 293 196 193
f 293 193 192
f 293 287 286
f 294 119 295
f 294 295 296
f 294 117 119
f 297 200 199
f 297 104 103
f 298 279 299
f 298 299 280
f 298 280 278
f 298 278 279
f 300 301 108
f 300 108 111
f 302 301 300
f 302 300 303
f 302 107 106
f 302 106 108
f 302 108 301
f 304 210 204
f 304 201 210
f 305 291 292
f 305 292 176
f 305 306 307
f 305 307 291
f 308 307 306
f 308 306 305
f 308 305 176
f 308 176 175
f 309 189 32
f 310 311 206
f 312 206 104
f 312 104 297
f 313 32 34
f 313 34 100
f 313 100 102
f 313 102 206
f 314 297 103
f 314 103 207
f 315 207 208
f 315 208 105
f 315 314 207
f 316 53 317
f 316 295 119
f 316 318 319
f 316 319 51
f 316 51 53
f 320 123 321
f 320 55 51
f 320 51 319
f 320 319 318
f 320 318 316
f 320 316 119
f 320 119 116
f 320 116 118
f 320 118 123
f 322 55 320
f 322 320 321
f 322 321 123
f 322 123 55
f 323 44 47
f 323 47 126
f 323 74 44
f 324 124 46
f 324 46 43
f 325 6 326
f 325 326 324
f 325 324 43
f 327 52 54
f 327 54 128
f 328 239 64
f 328 64 68
f 329 330 328
f 329 328 68
f 331 143 239
f 331 332 333
f 331 333 334
f 335 336 337
f 335 251 250
f 338 249 72
f 339 242 245
f 339 245 247
f 340 341 342
f 343 341 338
f 343 338 72
f 344 340 342
f 345 346 347
f 345 347 348
f 349 249 338
f 349 338 341
f 350 14 130
f 351 352 218
f 351 130 352
f 353 354 350
f 353 351 220
f 353 220 355
f 353 355 354
f 356 247 334
f 356 334 333
f 357 148 150
f 357 150 132
f 357 132 129
f 358 149 148
f 359 213 149
f 359 149 358
f 359 358 148
f 359 148 357
f 359 357 360
f 361 130 13
f 361 352 130
f 362 218 352
f 362 352 361
f 363 220 351
f 363 351 218
f 363 218 59
f 363 59 220
f 364 80 79
f 364 79 81
f 365 80 364
f 365 364 366
f 365 366 57
f 367 57 366
f 368 169 168
f 368 168 216
f 368 355 220
f 368 220 219
f 369 59 58
f 369 221 59
f 370 224 223
f 370 223 62
f 370 62 371
f 372 227 226
f 372 226 224
f 373 233 236
f 373 273 269
f 373 269 268
f 374 375 376
f 377 138 237
f 377 378 374
f 377 374 236
f 377 236 138
f 379 380 381
f 382 375 374
f 382 374 378
f 382 378 377
f 382 377 237
f 382 237 383
f 382 383 375
f 384 383 237
f 384 237 137
f 384 137 238
f 385 384 238
f 385 238 229
f 385 229 227
f 386 150 241
f 387 243 242
f 387 242 339
f 388 334 247
f 388 247 246
f 388 246 214
f 388 214 334
f 389 346 345
f 389 248 249
f 390 243 250
f 390 250 154
f 390 154 243
f 391 244 252
f 391 252 2
f 391 2 151
f 391 151 69
f 391 69 244
f 392 253 153
f 392 153 152
f 392 152 251
f 393 258 259
f 393 259 14
f 394 264 27
f 394 27 260
f 394 260 74
f 395 279 261
f 395 261 117
f 395 299 279
f 396 256 258
f 396 261 279
f 396 279 257
f 396 257 256
f 397 164 170
f 397 398 82
f 397 82 164
f 399 170 165
f 399 165 169
f 399 169 368
f 399 398 170
f 400 167 267
f 401 217 168
f 401 168 167
f 401 167 400
f 401 400 267
f 401 267 75
f 401 402 162
f 401 162 217
f 403 182 5
f 403 5 271
f 403 271 270
f 403 404 182
f 405 268 271
f 405 271 5
f 405 5 234
f 406 269 272
f 406 185 274
f 406 274 269
f 407 307 308
f 407 308 175
f 407 408 307
f 409 289 410
f 411 184 412
f 411 185 184
f 413 414 404
f 413 270 274
f 415 404 414
f 415 275 181
f 415 181 182
f 415 182 404
f 416 53 189
f 416 296 295
f 416 295 317
f 416 317 53
f 417 190 281
f 417 15 190
f 418 282 283
f 419 187 284
f 419 284 376
f 419 376 375
f 419 375 420
f 419 420 421
f 422 273 373
f 422 374 376
f 422 376 284
f 422 284 186
f 422 186 272
f 423 383 424
f 423 424 379
f 423 379 381
f 423 381 420
f 423 420 375
f 423 375 383
f 425 421 420
f 425 420 381
f 425 418 283
f 426 196 293
f 426 286 285
f 426 197 196
f 427 285 29
f 427 29 176
f 427 176 292
f 428 203 97
f 428 97 288
f 429 195 304
f 429 304 428
f 429 428 288
f 430 410 431
f 430 431 408
f 430 408 432
f 430 432 433
f 430 433 410
f 434 198 291
f 434 291 307
f 434 307 408
f 434 408 431
f 434 431 410
f 434 410 198
f 435 95 15
f 436 281 280
f 436 280 437
f 436 438 435
f 436 435 15
f 436 15 417
f 436 417 281
f 439 288 287
f 439 287 293
f 439 293 192
f 439 192 195
f 439 195 429
f 439 429 288
f 440 294 296
f 441 280 299
f 441 299 297
f 441 297 199
f 441 199 437
f 441 437 280
f 442 303 300
f 442 300 202
f 442 202 200
f 442 200 303
f 443 209 210
f 443 210 201
f 443 201 202
f 443 202 300
f 443 300 111
f 443 111 209
f 444 201 304
f 444 304 195
f 444 195 194
f 444 194 200
f 444 200 201
f 445 309 310
f 445 446 440
f 445 440 296
f 445 296 447
f 448 310 206
f 448 206 312
f 448 446 445
f 448 445 310
f 449 311 310
f 449 310 309
f 449 309 32
f 449 32 313
f 449 313 206
f 449 206 311
f 450 303 200
f 450 200 297
f 450 297 314
f 450 314 315
f 450 315 107
f 450 107 302
f 450 302 303
f 451 107 315
f 451 315 105
f 451 105 107
f 452 295 316
f 452 316 317
f 452 317 295
f 453 212 323
f 453 323 126
f 453 126 212
f 454 74 323
f 454 323 212
f 454 394 74
f 455 128 124
f 455 124 324
f 455 324 326
f 456 10 6
f 456 6 325
f 456 325 43
f 456 43 42
f 456 42 10
f 457 52 327
f 457 327 6
f 457 6 115
f 457 115 277
f 457 277 52
f 458 326 6
f 458 6 327
f 458 327 128
f 458 128 455
f 458 455 326
f 459 329 68
f 459 68 213
f 459 213 359
f 459 359 360
f 459 360 460
f 459 460 461
f 459 461 330
f 462 332 331
f 462 239 328
f 462 328 330
f 462 330 461
f 462 461 332
f 463 215 143
f 463 143 331
f 463 331 334
f 463 334 214
f 463 214 215
f 464 336 335
f 464 335 250
f 464 250 243
f 464 243 387
f 464 387 339
f 464 339 336
f 465 13 191
f 466 336 339
f 466 339 467
f 468 346 389
f 468 389 349
f 468 349 341
f 468 341 340
f 468 340 344
f 469 341 343
f 470 344 342
f 471 472 258
f 471 258 393
f 471 393 14
f 473 130 351
f 473 351 353
f 473 353 350
f 473 350 130
f 474 460 360
f 474 360 357
f 474 357 129
f 474 129 218
f 474 461 460
f 475 339 247
f 475 247 356
f 475 356 467
f 475 467 339
f 476 361 13
f 477 362 361
f 477 361 476
f 477 476 478
f 479 364 81
f 479 81 82
f 480 241 80
f 480 80 365
f 480 365 57
f 480 57 131
f 480 131 150
f 480 150 386
f 480 386 241
f 481 355 368
f 481 368 216
f 481 216 161
f 482 364 479
f 483 227 372
f 483 424 227
f 484 380 379
f 484 379 424
f 484 483 372
f 484 485 380
f 486 484 372
f 486 372 224
f 487 233 373
f 487 373 268
f 487 268 405
f 487 405 234
f 487 234 233
f 488 489 348
f 488 348 347
f 488 490 491
f 492 348 489
f 492 371 62
f 492 345 348
f 493 371 492
f 494 384 385
f 494 385 227
f 494 227 424
f 494 424 383
f 494 383 384
f 495 248 389
f 496 349 389
f 496 389 249
f 496 249 349
f 497 251 335
f 497 335 337
f 497 337 498
f 499 500 156
f 499 156 253
f 501 159 162
f 501 162 402
f 501 402 264
f 501 264 394
f 501 394 454
f 501 454 212
f 501 212 160
f 501 160 159
f 502 472 503
f 502 503 261
f 502 261 396
f 502 396 258
f 502 258 472
f 504 398 397
f 504 397 170
f 504 170 398
f 505 368 219
f 505 219 221
f 505 221 398
f 505 398 399
f 505 399 368
f 506 398 507
f 506 479 82
f 506 82 398
f 508 221 369
f 508 479 506
f 508 506 507
f 508 507 398
f 508 398 221
f 509 263 264
f 509 264 402
f 509 401 75
f 509 75 263
f 510 404 403
f 510 403 270
f 510 270 413
f 510 413 404
f 511 185 406
f 511 406 272
f 511 272 185
f 512 407 175
f 512 175 275
f 512 275 415
f 513 409 410
f 513 410 433
f 514 412 184
f 514 184 289
f 514 289 409
f 514 409 412
f 515 411 412
f 516 411 413
f 516 413 274
f 516 274 185
f 517 282 418
f 517 191 282
f 518 273 422
f 518 422 272
f 518 272 273
f 519 236 374
f 519 422 373
f 519 373 236
f 520 491 418
f 520 418 425
f 520 425 381
f 520 381 491
f 521 197 426
f 521 426 285
f 521 285 427
f 521 292 197
f 522 286 426
f 522 426 293
f 522 293 286
f 523 203 428
f 523 428 304
f 523 304 204
f 523 204 203
f 524 187 419
f 524 419 421
f 524 289 187
f 525 283 95
f 526 425 283
f 526 283 525
f 526 527 524
f 526 524 421
f 526 421 425
f 528 194 198
f 528 437 199
f 528 199 194
f 529 299 395
f 529 395 117
f 529 117 294
f 529 294 440
f 529 440 446
f 529 446 448
f 529 448 312
f 529 312 297
f 529 297 299
f 530 189 309
f 530 309 445
f 530 445 447
f 530 447 296
f 530 296 416
f 530 416 189
f 531 329 459
f 531 459 330
f 531 330 329
f 532 239 462
f 532 462 331
f 532 331 239
f 533 13 465
f 533 465 534
f 533 534 535
f 533 535 13
f 536 13 535
f 536 535 466
f 536 466 467
f 537 538 539
f 537 539 470
f 537 470 540
f 537 540 541
f 542 540 470
f 542 470 342
f 542 342 341
f 542 341 469
f 542 469 343
f 543 336 466
f 543 466 535
f 544 545 344
f 544 344 470
f 544 470 539
f 544 539 538
f 544 538 498
f 544 498 337
f 544 337 336
f 546 547 492
f 546 492 62
f 546 62 248
f 548 355 481
f 548 481 472
f 549 160 262
f 549 262 121
f 549 121 163
f 549 163 261
f 549 261 503
f 549 503 161
f 549 161 160
f 550 472 481
f 550 481 161
f 550 161 503
f 550 503 472
f 551 58 57
f 551 57 367
f 551 367 366
f 551 366 364
f 551 364 482
f 551 369 58
f 552 483 484
f 552 484 424
f 552 424 483
f 553 486 224
f 553 485 484
f 554 485 489
f 554 489 488
f 554 488 491
f 554 491 381
f 554 381 380
f 554 380 485
f 555 556 553
f 555 553 224
f 555 224 370
f 557 251 497
f 557 497 392
f 557 392 251
f 558 499 253
f 558 253 392
f 558 392 497
f 559 72 156
f 559 156 500
f 559 500 537
f 559 537 541
f 559 541 540
f 560 508 369
f 560 369 551
f 560 551 482
f 561 401 509
f 561 509 402
f 561 402 401
f 562 512 415
f 562 415 414
f 563 407 512
f 563 408 407
f 564 414 565
f 564 562 414
f 566 565 412
f 567 564 565
f 567 565 566
f 567 566 412
f 567 412 409
f 568 414 413
f 568 413 411
f 568 411 515
f 568 515 412
f 568 412 565
f 568 565 414
f 569 411 516
f 569 516 185
f 569 185 411
f 570 545 571
f 570 571 347
f 570 347 346
f 570 346 468
f 570 468 344
f 570 344 545
f 572 422 519
f 572 519 374
f 572 374 422
f 573 292 521
f 573 521 427
f 573 427 292
f 574 95 435
f 575 524 527
f 576 575 527
f 576 527 526
f 576 526 525
f 576 525 95
f 577 465 578
f 577 578 571
f 577 534 465
f 579 578 465
f 579 465 191
f 580 491 490
f 581 476 13
f 581 13 536
f 581 536 467
f 581 467 478
f 581 478 476
f 582 499 583
f 582 538 537
f 582 537 500
f 582 500 499
f 584 72 559
f 584 559 540
f 584 540 542
f 584 542 343
f 584 343 72
f 585 544 336
f 585 336 543
f 585 543 535
f 585 535 534
f 585 534 577
f 586 345 492
f 586 492 547
f 586 547 546
f 586 546 248
f 586 248 495
f 586 495 389
f 586 389 345
f 587 471 14
f 587 14 350
f 587 350 354
f 587 354 355
f 587 355 548
f 587 548 472
f 587 472 471
f 588 218 362
f 588 362 477
f 588 477 589
f 588 474 218
f 590 589 477
f 590 477 478
f 590 478 467
f 590 467 356
f 591 474 588
f 591 588 589
f 591 589 590
f 591 590 356
f 591 356 333
f 591 333 332
f 591 332 461
f 591 461 474
f 592 486 553
f 592 553 484
f 592 484 486
f 593 489 485
f 593 485 553
f 593 553 556
f 593 556 555
f 593 555 370
f 593 370 371
f 593 371 493
f 593 493 492
f 593 492 489
f 594 498 538
f 594 538 582
f 594 582 583
f 594 583 499
f 594 499 558
f 594 558 497
f 594 497 498
f 595 560 482
f 595 482 479
f 595 479 508
f 596 433 432
f 596 513 433
f 597 408 563
f 597 563 432
f 597 432 408
f 598 562 564
f 599 513 596
f 599 598 564
f 599 564 567
f 599 567 409
f 599 409 513
f 600 601 574
f 600 574 435
f 602 524 575
f 602 410 289
f 602 289 524
f 603 576 95
f 603 95 574
f 604 575 576
f 604 576 603
f 604 601 575
f 605 606 601
f 605 601 600
f 605 600 435
f 605 435 438
f 607 410 602
f 608 437 528
f 608 528 606
f 608 606 605
f 608 605 438
f 608 438 436
f 608 436 437
f 609 198 410
f 609 410 607
f 609 606 528
f 609 528 198
f 610 491 580
f 610 580 191
f 610 191 517
f 610 517 418
f 610 418 491
f 611 580 490
f 611 490 488
f 611 488 347
f 611 347 571
f 612 545 544
f 612 544 585
f 612 585 577
f 612 577 571
f 612 571 545
f 613 560 595
f 613 595 508
f 613 508 560
f 614 562 598
f 614 598 596
f 614 596 432
f 614 432 563
f 614 563 512
f 614 512 562
f 615 598 599
f 615 599 596
f 615 596 598
f 616 574 601
f 616 601 604
f 616 604 603
f 616 603 574
f 617 575 601
f 617 601 606
f 617 606 609
f 617 609 607
f 617 607 602
f 617 602 575
f 618 578 579
f 618 579 191
f 618 191 580
f 618 580 611
f 618 611 571
f 618 571 578
