# Normalized convex hull collision mesh - generated by scripts/generate-collision-meshes.mjs (units: meters)
v 0.046349 0.020591 -0.015000
v -0.048864 -0.005797 -0.015000
v -0.048864 0.020591 -0.015000
v 0.052299 0.020591 0.013750
v 0.068500 -0.007860 0.003750
v 0.052299 0.020591 -0.013750
v 0.046349 0.020682 -0.014969
v 0.046349 -0.005797 -0.015000
v 0.046349 -0.005879 -0.014975
v -0.051446 -0.005797 -0.014876
v -0.052574 0.020591 -0.014727
v -0.051446 0.020591 -0.014876
v -0.050188 -0.005797 -0.014969
v -0.054814 0.020591 -0.013750
v -0.068500 -0.008426 0.000439
v -0.054814 0.020591 0.013750
v -0.068500 -0.008426 0.007039
v -0.006177 -0.021000 0.009439
v -0.028492 -0.021000 0.009439
v -0.021893 -0.021000 -0.001961
v -0.048864 0.020591 0.015000
v 0.046349 0.020591 0.015000
v -0.048864 0.020682 0.014969
v 0.067782 -0.008510 -0.001404
v 0.067782 -0.008510 0.001096
v 0.067078 -0.008727 -0.003750
v -0.053678 -0.005891 -0.014426
v -0.054523 -0.005830 -0.014122
v -0.054225 -0.005797 -0.014292
v -0.053516 0.020591 -0.014529
v -0.053678 0.020629 -0.014476
v -0.053516 -0.005797 -0.014529
v -0.052574 -0.005797 -0.014727
v -0.048864 -0.005879 -0.014975
v 0.046349 0.020846 -0.014727
v -0.048864 0.020911 -0.014529
v 0.046349 0.020911 -0.014529
v 0.046349 0.021000 -0.013750
v -0.048864 0.020990 -0.014028
v -0.048864 0.021000 -0.013750
v 0.046349 0.021000 0.013750
v -0.050188 0.020591 -0.014969
v -0.048864 0.020682 -0.014969
v 0.046349 0.020769 -0.014876
v -0.052361 0.020694 -0.014712
v -0.048864 0.021000 0.013750
v -0.050188 0.020990 0.013750
v -0.048864 0.020990 0.014028
v -0.050188 0.020990 -0.013750
v -0.051446 0.020960 -0.013750
v -0.052574 0.020911 -0.013750
v -0.053516 0.020846 -0.013750
v -0.053516 0.020846 0.013750
v 0.052150 0.020591 0.014028
v 0.052008 0.020611 0.014132
v 0.068332 -0.008312 0.003750
v 0.046349 -0.005879 0.014975
v 0.068500 -0.007860 -0.001250
v 0.067078 -0.008727 0.003750
v 0.067768 -0.008506 0.003925
v 0.040398 -0.015515 0.006125
v -0.027190 -0.021000 0.001537
v -0.028492 -0.021000 -0.000101
v -0.054225 -0.005925 -0.014125
v -0.067945 -0.008881 0.007039
v -0.054523 -0.005861 -0.014082
v -0.068271 -0.008565 0.000176
v -0.054665 -0.005797 -0.014028
v -0.067380 -0.008964 0.000078
v -0.053678 -0.005829 -0.014478
v -0.006177 -0.021000 -0.000101
v 0.048188 0.020711 -0.014881
v 0.047673 0.020591 -0.014969
v 0.048931 0.020591 -0.014876
v -0.052361 -0.005885 -0.014725
v -0.050703 -0.005949 -0.014843
v -0.048864 0.020769 -0.014876
v -0.050703 0.020768 -0.014809
v 0.047673 0.020990 -0.013750
v -0.050703 0.020652 -0.014924
v -0.052361 0.020786 -0.014568
v -0.054665 0.020682 -0.013750
v -0.054665 0.020591 -0.014028
v 0.052008 -0.005814 0.014133
v 0.051710 0.020591 0.014292
v 0.051001 0.020591 0.014529
v 0.051163 0.020666 0.014449
v 0.049846 -0.005927 0.014680
v 0.051163 -0.005861 0.014458
v 0.051163 -0.005920 0.014381
v -0.048864 -0.005879 0.014975
v -0.050188 -0.005797 0.014969
v 0.046349 -0.005797 0.015000
v 0.046349 0.020682 0.014969
v -0.050703 -0.005849 0.014928
v -0.054523 0.020711 0.013869
v -0.054523 0.020711 -0.013869
v -0.050188 0.020591 0.014969
v -0.050703 0.020652 0.014924
v -0.050703 0.020768 0.014809
v 0.068471 -0.008080 -0.003904
v 0.067782 -0.008510 0.003596
v -0.068208 -0.008665 0.006808
v -0.068271 -0.008565 0.007301
v -0.068155 -0.008406 0.007399
v -0.068229 -0.008257 0.007301
v -0.067380 -0.008964 0.007399
v -0.053678 -0.005891 0.014426
v -0.067402 -0.008699 0.007601
v -0.012777 -0.021000 -0.001961
v 0.051001 0.020591 -0.014529
v 0.051710 0.020591 -0.014292
v 0.051710 -0.005797 -0.014292
v 0.049846 0.020643 -0.014749
v 0.050059 0.020591 -0.014727
v -0.050703 -0.005849 -0.014928
v -0.048864 0.020846 -0.014727
v 0.048931 0.020960 -0.013750
v 0.048188 0.020961 -0.014117
v 0.050059 0.020911 0.013750
v 0.050059 0.020911 -0.013750
v -0.048864 0.020960 -0.014292
v -0.050703 0.020938 -0.014290
v -0.050703 0.020866 -0.014591
v -0.052361 0.020859 -0.014344
v -0.052361 0.020906 -0.014062
v -0.053678 0.020805 -0.014084
v -0.053678 0.020700 -0.014405
v -0.054225 0.020769 -0.013750
v 0.052008 0.020681 0.014023
v 0.052150 0.020682 -0.013750
v 0.067970 -0.008016 0.004125
v 0.051710 -0.005797 0.014292
v 0.051001 -0.005797 0.014529
v 0.050059 0.020591 0.014727
v 0.048931 0.020591 0.014876
v 0.048931 -0.005797 0.014876
v -0.048864 -0.005797 0.015000
v 0.047673 -0.005797 0.014969
v 0.048188 -0.005900 0.014896
v 0.046349 0.020990 0.014028
v 0.049846 0.020886 0.014209
v 0.049846 0.020918 0.013908
v 0.048188 0.020961 0.014117
v 0.048188 0.020906 0.014449
v 0.049846 0.020825 0.014465
v 0.047673 0.020591 0.014969
v 0.048188 0.020820 0.014712
v -0.054665 0.020682 0.013750
v -0.054523 0.020630 0.014117
v -0.054225 0.020591 0.014292
v -0.048864 0.020960 0.014292
v -0.050703 0.020938 0.014290
v -0.051446 0.020591 0.014876
v -0.052574 0.020591 0.014727
v -0.052574 -0.005797 0.014727
v -0.048864 0.020769 0.014876
v 0.068500 -0.007860 -0.003750
v 0.068332 -0.008312 -0.003750
v 0.068471 -0.008080 0.003596
v -0.067135 -0.009097 0.007301
v -0.067945 -0.008881 0.000439
v 0.040398 -0.015515 -0.006125
v 0.051163 -0.005920 -0.014381
v 0.067328 -0.008606 -0.003990
v 0.048931 -0.005797 -0.014876
v 0.052008 -0.005814 -0.014133
v 0.052008 -0.005846 -0.014105
v 0.051001 0.020846 0.013750
v 0.049846 0.020918 -0.013908
v 0.047673 0.020990 0.013750
v 0.046349 0.020960 -0.014292
v -0.050703 0.020975 -0.013936
v -0.054523 0.020630 -0.014117
v -0.053678 0.020829 -0.013865
v -0.054225 0.020769 0.013750
v 0.052150 0.020682 0.013750
v 0.052008 0.020704 0.013925
v 0.052008 0.020649 0.014094
v 0.052008 0.020611 -0.014132
v 0.051710 0.020769 -0.013750
v 0.051710 0.020769 0.013750
v 0.067864 -0.008212 0.004125
v 0.067642 -0.008357 0.004125
v 0.052008 -0.005846 0.014105
v 0.050059 -0.005797 0.014727
v 0.051163 0.020733 0.014344
v 0.049846 0.020741 0.014651
v 0.048188 0.020711 0.014881
v -0.053516 0.020591 0.014529
v -0.051446 -0.005797 0.014876
v -0.052361 -0.005885 0.014725
v -0.054665 0.020591 0.014028
v -0.052574 0.020911 0.013750
v -0.050703 0.020975 0.013936
v -0.052361 0.020906 0.014062
v -0.053678 0.020805 0.014084
v 0.046349 0.020960 0.014292
v 0.067782 -0.008510 -0.003904
v -0.067135 -0.009097 0.000176
v 0.032689 -0.015775 -0.006125
v 0.048188 -0.005900 -0.014896
v 0.049846 -0.005927 -0.014680
v 0.047673 -0.005797 -0.014969
v 0.050059 -0.005797 -0.014727
v 0.068260 -0.008190 -0.003990
v 0.051163 0.020666 -0.014449
v 0.051163 0.020820 0.013977
v 0.048931 0.020960 0.013750
v 0.046349 0.020990 -0.014028
v -0.054225 0.020591 -0.014292
v -0.054523 0.020694 -0.013977
v 0.052008 0.020716 0.013810
v 0.052150 0.020591 -0.014028
v 0.052008 0.020681 -0.014023
v 0.068332 -0.007964 -0.003990
v 0.051001 0.020846 -0.013750
v 0.051163 0.020820 -0.013977
v 0.049846 -0.005841 0.014752
v -0.048864 0.020846 0.014727
v 0.046349 0.020846 0.014727
v -0.050703 0.020866 0.014591
v 0.046349 0.020769 0.014876
v 0.049846 0.020643 0.014749
v -0.053678 -0.005829 0.014478
v -0.052361 0.020694 0.014712
v -0.051446 0.020960 0.013750
v -0.054523 0.020694 0.013977
v -0.053678 0.020700 0.014405
v -0.053678 0.020829 0.013865
v 0.046349 0.020911 0.014529
v 0.067929 -0.008399 -0.003990
v 0.051163 -0.005861 -0.014458
v 0.048188 0.020820 -0.014712
v 0.049846 0.020886 -0.014209
v 0.049846 0.020741 -0.014651
v 0.051163 0.020733 -0.014344
v 0.049846 0.020825 -0.014465
v 0.051163 0.020786 0.014182
v -0.054523 0.020666 -0.014062
v -0.053678 0.020761 -0.014270
v 0.052008 0.020716 -0.013810
v 0.052008 0.020649 -0.014094
v -0.054225 -0.005797 0.014292
v -0.053516 -0.005797 0.014529
v -0.053678 0.020629 0.014476
v -0.052361 0.020859 0.014344
v -0.054523 0.020666 0.014062
v -0.048864 0.020911 0.014529
v 0.051001 -0.005797 -0.014529
v 0.049846 -0.005841 -0.014752
v 0.048188 0.020906 -0.014449
v 0.051163 0.020786 -0.014182
v 0.052008 0.020704 -0.013925
v -0.053678 0.020761 0.014270
v -0.052361 0.020786 0.014568
f 1 2 3
f 4 5 6
f 7 1 3
f 8 2 1
f 8 9 2
f 10 11 12
f 13 10 12
f 13 3 2
f 14 15 16
f 17 16 15
f 18 19 20
f 21 22 23
f 24 25 26
f 27 28 29
f 30 31 11
f 30 11 32
f 33 11 10
f 33 32 11
f 34 13 2
f 34 2 9
f 34 9 20
f 35 36 37
f 38 39 40
f 38 40 41
f 42 3 13
f 42 13 12
f 43 3 42
f 43 44 7
f 43 7 3
f 45 11 31
f 45 12 11
f 46 47 48
f 46 48 41
f 46 41 40
f 46 40 47
f 49 40 39
f 49 50 47
f 49 47 40
f 51 52 53
f 54 55 5
f 54 5 4
f 56 25 24
f 57 19 18
f 58 6 5
f 59 60 61
f 59 61 26
f 59 26 25
f 62 20 19
f 63 20 62
f 63 62 19
f 63 64 27
f 63 27 20
f 65 63 19
f 66 28 27
f 66 27 64
f 66 64 63
f 67 68 28
f 67 28 66
f 67 66 69
f 70 27 29
f 70 31 30
f 70 30 32
f 71 18 20
f 71 61 18
f 72 7 44
f 73 1 7
f 73 7 72
f 73 72 74
f 73 8 1
f 75 20 27
f 75 27 70
f 75 70 32
f 75 32 33
f 75 33 10
f 76 34 20
f 76 20 75
f 77 35 44
f 77 44 43
f 77 43 78
f 79 38 41
f 80 12 45
f 80 45 78
f 80 78 43
f 80 43 42
f 80 42 12
f 81 78 45
f 82 14 16
f 83 14 82
f 83 28 68
f 83 68 67
f 83 67 15
f 83 15 14
f 84 55 85
f 86 85 87
f 88 18 61
f 88 61 89
f 90 60 89
f 90 89 61
f 90 61 60
f 91 19 57
f 91 92 19
f 93 22 21
f 93 91 57
f 94 23 22
f 95 19 92
f 96 97 82
f 98 21 23
f 98 23 99
f 98 92 21
f 100 99 23
f 101 58 5
f 102 60 59
f 102 59 25
f 102 25 56
f 102 56 60
f 103 65 17
f 103 17 15
f 104 105 106
f 104 106 17
f 104 17 65
f 107 19 108
f 107 109 104
f 107 104 65
f 110 71 20
f 110 20 9
f 111 112 113
f 114 111 115
f 114 115 74
f 114 74 72
f 116 34 76
f 116 76 75
f 116 75 10
f 116 10 13
f 116 13 34
f 117 36 35
f 117 35 77
f 117 77 78
f 118 119 79
f 118 120 121
f 122 36 123
f 122 123 39
f 122 37 36
f 124 78 81
f 124 81 125
f 124 125 123
f 124 123 36
f 124 36 117
f 124 117 78
f 126 51 50
f 126 123 125
f 126 125 127
f 128 81 45
f 128 45 31
f 129 127 97
f 129 97 96
f 130 54 4
f 131 4 6
f 132 5 55
f 132 55 84
f 132 56 5
f 133 84 85
f 133 85 86
f 134 89 133
f 134 133 86
f 135 136 137
f 135 134 86
f 138 91 93
f 138 93 21
f 138 21 92
f 138 92 91
f 139 93 57
f 139 57 18
f 139 18 140
f 139 140 137
f 139 137 136
f 139 22 93
f 141 41 48
f 142 143 144
f 142 144 145
f 142 145 146
f 147 94 22
f 147 22 139
f 147 139 136
f 148 146 145
f 149 96 82
f 149 82 16
f 150 105 151
f 152 141 48
f 152 48 153
f 154 92 98
f 154 98 99
f 154 155 156
f 157 100 23
f 157 23 94
f 158 58 101
f 158 6 58
f 159 101 56
f 159 56 24
f 160 56 101
f 160 101 5
f 160 5 56
f 161 19 107
f 161 107 65
f 161 65 19
f 162 65 103
f 162 103 15
f 162 15 67
f 162 67 69
f 162 63 65
f 163 71 110
f 163 164 165
f 163 26 61
f 163 61 71
f 166 73 74
f 166 74 115
f 167 168 113
f 167 113 112
f 169 120 143
f 169 121 120
f 170 119 118
f 170 118 121
f 171 118 79
f 171 79 41
f 171 41 141
f 171 141 144
f 172 37 122
f 172 122 39
f 173 123 126
f 173 126 50
f 173 50 49
f 173 49 39
f 173 39 123
f 174 28 83
f 175 127 129
f 175 53 52
f 175 52 51
f 175 51 126
f 175 126 127
f 176 175 129
f 176 129 96
f 177 178 130
f 177 130 4
f 177 4 131
f 179 55 54
f 179 54 130
f 179 87 85
f 179 85 55
f 180 167 112
f 181 169 182
f 183 132 84
f 183 84 184
f 183 184 60
f 183 60 56
f 183 56 132
f 185 60 184
f 185 184 84
f 185 84 133
f 185 133 89
f 185 89 60
f 186 134 135
f 186 135 137
f 187 87 179
f 187 179 130
f 188 87 187
f 188 187 146
f 188 146 148
f 189 147 136
f 189 188 148
f 189 94 147
f 190 156 155
f 191 95 92
f 191 92 154
f 191 154 156
f 191 19 95
f 192 19 191
f 192 191 156
f 193 16 17
f 193 17 106
f 193 106 105
f 193 105 150
f 193 149 16
f 194 50 51
f 194 51 53
f 195 196 153
f 195 153 48
f 195 48 47
f 197 176 96
f 198 141 152
f 198 145 144
f 198 144 141
f 199 26 163
f 199 163 165
f 199 159 24
f 199 24 26
f 200 63 162
f 200 162 69
f 200 69 66
f 200 66 63
f 201 9 163
f 201 163 110
f 201 110 9
f 202 163 9
f 202 203 163
f 204 73 166
f 204 166 202
f 204 202 9
f 204 9 8
f 204 8 73
f 205 166 115
f 205 115 111
f 206 167 101
f 206 101 159
f 207 112 111
f 207 111 114
f 208 178 182
f 208 182 169
f 208 169 143
f 208 143 142
f 209 143 120
f 209 120 118
f 209 118 171
f 209 171 144
f 209 144 143
f 210 38 79
f 210 79 119
f 210 119 172
f 210 172 39
f 210 39 38
f 211 31 70
f 211 70 29
f 211 29 28
f 211 28 174
f 211 174 128
f 211 128 31
f 212 82 97
f 212 97 127
f 212 83 82
f 213 182 178
f 213 178 177
f 213 177 131
f 213 181 182
f 214 6 158
f 214 158 101
f 214 101 180
f 215 131 6
f 215 6 214
f 216 167 180
f 216 180 101
f 216 101 167
f 217 169 181
f 217 181 218
f 217 218 170
f 217 170 121
f 217 121 169
f 219 88 89
f 219 89 134
f 219 134 186
f 219 186 137
f 219 137 140
f 219 140 18
f 219 18 88
f 220 157 221
f 220 222 100
f 220 100 157
f 223 94 189
f 223 189 148
f 223 148 221
f 223 221 157
f 223 157 94
f 224 87 188
f 224 188 189
f 224 189 136
f 224 136 135
f 224 135 86
f 224 86 87
f 225 108 19
f 225 19 192
f 225 109 107
f 225 107 108
f 226 155 154
f 226 154 99
f 226 99 100
f 227 50 194
f 227 194 196
f 227 196 195
f 227 195 47
f 227 47 50
f 228 197 96
f 228 96 149
f 228 149 193
f 229 150 151
f 230 53 175
f 230 175 176
f 230 176 197
f 230 197 196
f 230 196 194
f 230 194 53
f 231 221 148
f 231 148 145
f 231 145 198
f 231 198 152
f 231 220 221
f 232 168 167
f 232 167 206
f 232 206 159
f 232 159 199
f 232 199 165
f 233 164 163
f 233 163 203
f 233 113 168
f 233 168 232
f 233 232 165
f 233 165 164
f 234 35 37
f 234 72 44
f 234 44 35
f 235 170 218
f 235 119 170
f 236 237 207
f 236 207 114
f 236 114 72
f 236 72 234
f 236 234 238
f 236 238 237
f 239 187 130
f 239 130 178
f 239 178 208
f 239 208 142
f 239 142 146
f 239 146 187
f 240 174 83
f 240 83 212
f 240 128 174
f 241 128 240
f 241 240 212
f 241 212 127
f 241 127 125
f 241 125 81
f 241 81 128
f 242 181 213
f 242 213 131
f 243 180 112
f 243 112 207
f 243 207 237
f 243 237 215
f 243 215 214
f 243 214 180
f 244 151 105
f 244 105 104
f 244 104 109
f 244 109 225
f 244 225 151
f 245 156 190
f 245 190 225
f 245 225 192
f 245 192 156
f 246 151 225
f 246 225 190
f 246 190 155
f 246 155 226
f 246 226 229
f 246 229 151
f 247 222 153
f 247 153 196
f 247 196 197
f 248 150 229
f 248 228 193
f 248 193 150
f 249 220 231
f 249 231 152
f 249 152 153
f 249 153 222
f 249 222 220
f 250 111 113
f 250 113 233
f 250 205 111
f 251 205 250
f 251 250 233
f 251 233 203
f 251 203 202
f 251 202 166
f 251 166 205
f 252 119 235
f 252 235 238
f 252 238 234
f 252 234 37
f 252 37 172
f 252 172 119
f 253 238 235
f 253 235 218
f 253 215 237
f 253 237 238
f 254 215 253
f 254 253 218
f 254 218 181
f 254 181 242
f 254 242 131
f 254 131 215
f 255 247 197
f 255 197 228
f 255 228 248
f 255 248 229
f 256 226 100
f 256 100 222
f 256 222 247
f 256 247 255
f 256 255 229
f 256 229 226
