# Convex hull collision mesh — generated by scripts/generate-collision-meshes.mjs
v 22.700001 0.000000 -1.600000
v 22.700001 0.000000 0.000000
v 0.000000 0.000000 -1.500000
v 22.700001 12.750000 -1.600000
v 22.700001 12.750000 0.100000
v 0.000000 12.750000 -1.500000
v 0.500000 2.325000 -1.600000
v -1.589901 6.690422 0.041654
v -1.589901 2.763642 3.183405
v -1.589901 9.601130 3.282362
v 17.127779 0.761792 2.129367
v 17.127779 5.661792 2.129367
v 0.000000 0.000000 0.000000
v 5.810099 9.884559 3.251089
v 0.000000 12.750000 0.000000
v -1.589901 3.261130 3.282362
v 0.641529 11.350243 -1.600000
v 0.750000 1.375000 -1.600000
v -1.589901 2.538889 0.260743
v -1.589901 10.520370 0.422415
v 22.700001 0.000000 0.100000
v 11.527780 0.761792 2.129367
v 5.810099 2.739616 3.173169
v 5.810099 9.635947 3.281896
v 4.560099 3.261130 3.282362
v -1.589901 3.007513 3.257383
v 0.500000 11.125000 -1.600000
v 21.200001 12.750000 -1.600000
v 21.200001 0.000000 -1.600000
v 0.506268 1.569370 -1.600000
v -1.589901 3.261130 0.041654
v -1.589901 1.961130 1.341654
v -1.589901 10.802174 2.479850
v -1.589901 9.854748 0.066633
v 21.200001 0.000000 0.100000
v 5.810099 2.977702 3.251089
v 5.810099 3.226313 3.281896
v 5.810099 7.531130 3.282362
v 5.960099 11.031131 2.682362
v 5.160099 11.031131 2.682362
v 21.200001 12.750000 0.100000
v 4.560099 3.226313 3.281896
v 4.560099 3.237917 3.282155
v 0.524758 11.233471 -1.600000
v 0.750000 11.375000 -1.600000
v 0.500000 1.625000 -1.600000
v 0.594128 1.429542 -1.600000
v -1.589901 2.763642 0.140610
v -1.589901 2.060087 2.479850
v -1.589901 2.060087 0.844165
v -1.589901 10.901131 1.341654
v -1.589901 10.323372 3.063272
v -1.589901 9.601130 0.041654
v -1.589901 10.323372 0.260743
v 5.810099 5.331131 3.282362
v 4.560099 9.601130 3.282362
v 4.560099 3.249523 3.282310
v 0.554542 11.280872 -1.600000
v 0.506268 11.180631 -1.600000
v 0.694370 11.368732 -1.600000
v 0.554542 1.469128 -1.600000
v 0.641529 1.399758 -1.600000
v -1.589901 3.007513 0.066633
v -1.589901 2.538889 3.063272
v -1.589901 1.961130 1.982362
v -1.589901 2.180220 2.704603
v -1.589901 1.986109 1.088036
v -1.589901 2.341892 0.422415
v -1.589901 10.901131 1.982362
v -1.589901 10.802174 0.844165
v -1.589901 9.854748 3.257383
v 4.560099 9.635947 3.281896
v -1.589901 10.682041 2.704603
v 5.810099 10.122645 3.173169
v -1.589901 10.098619 0.140610
v 4.560099 9.624344 3.282155
v 0.594128 11.320457 -1.600000
v 0.524758 1.516529 -1.600000
v 0.694370 1.381268 -1.600000
v -1.589901 1.986109 2.235979
v -1.589901 2.341892 2.901601
v -1.589901 2.180220 0.619413
v -1.589901 10.876151 2.235979
v -1.589901 10.682041 0.619413
v -1.589901 10.876151 1.088036
v -1.589901 10.520370 2.901601
v -1.589901 10.098619 3.183405
v 4.560099 9.612738 3.282310
f 1 2 3
f 1 4 2
f 5 2 4
f 5 4 6
f 7 3 6
f 7 4 1
f 8 9 10
f 8 6 3
f 11 5 12
f 13 3 2
f 14 12 5
f 15 5 6
f 16 10 9
f 17 4 7
f 18 7 1
f 19 9 8
f 20 8 10
f 21 2 5
f 21 5 11
f 21 11 22
f 21 13 2
f 23 9 22
f 23 22 11
f 24 12 14
f 25 10 16
f 26 16 9
f 27 17 7
f 27 7 6
f 28 4 17
f 28 6 4
f 29 3 18
f 29 18 1
f 29 1 3
f 30 7 18
f 31 19 8
f 31 8 3
f 32 9 19
f 32 3 13
f 33 20 10
f 34 8 20
f 35 13 21
f 35 21 22
f 35 22 13
f 36 37 26
f 36 26 9
f 36 9 23
f 36 23 11
f 36 11 37
f 38 12 24
f 38 10 25
f 38 11 12
f 39 5 40
f 41 15 40
f 41 40 5
f 41 5 15
f 42 16 26
f 42 26 37
f 42 37 43
f 42 43 16
f 44 17 27
f 45 6 28
f 45 28 17
f 46 7 30
f 46 30 3
f 46 3 7
f 47 30 18
f 48 19 31
f 48 3 19
f 49 9 32
f 50 32 19
f 51 20 33
f 51 15 6
f 52 33 10
f 53 8 34
f 53 34 6
f 53 6 8
f 54 34 20
f 54 20 6
f 55 37 11
f 55 11 38
f 55 38 25
f 55 25 37
f 56 10 38
f 56 38 24
f 57 25 16
f 57 16 43
f 57 43 37
f 57 37 25
f 58 17 44
f 58 44 6
f 59 6 44
f 59 44 27
f 59 27 6
f 60 6 45
f 60 45 17
f 60 17 6
f 61 30 47
f 61 47 3
f 62 3 47
f 62 47 18
f 63 3 48
f 63 48 31
f 63 31 3
f 64 9 49
f 64 22 9
f 65 49 32
f 65 32 13
f 66 64 49
f 66 49 13
f 66 13 22
f 67 32 50
f 67 50 3
f 67 3 32
f 68 50 19
f 68 19 3
f 69 15 51
f 69 51 33
f 70 20 51
f 71 52 10
f 71 10 72
f 71 72 24
f 71 24 14
f 73 33 52
f 73 40 15
f 73 15 33
f 74 39 40
f 74 40 52
f 74 14 5
f 74 5 39
f 75 34 54
f 75 54 6
f 75 6 34
f 76 24 72
f 76 72 10
f 77 17 58
f 77 58 6
f 77 6 17
f 78 30 61
f 78 61 3
f 78 3 30
f 79 3 62
f 79 62 18
f 79 18 3
f 80 49 65
f 80 65 13
f 80 13 49
f 81 64 66
f 81 66 22
f 81 22 64
f 82 50 68
f 82 68 3
f 82 3 50
f 83 15 69
f 83 69 33
f 83 33 15
f 84 20 70
f 84 70 6
f 84 6 20
f 85 6 70
f 85 70 51
f 85 51 6
f 86 40 73
f 86 73 52
f 86 52 40
f 87 71 14
f 87 14 74
f 87 74 52
f 87 52 71
f 88 56 24
f 88 24 76
f 88 76 10
f 88 10 56
