# Convex hull collision mesh — generated by scripts/generate-collision-meshes.mjs
v -17.017666 17.356623 -1.200000
v 18.000000 15.250000 -1.200000
v -18.000000 -15.250000 -1.200000
v 17.023592 -17.360504 -1.200000
v -5.500000 -8.350000 2.900000
v 13.892478 -1.383244 2.900000
v -5.687047 -1.215451 2.900000
v 18.000000 -15.266590 -1.200000
v -15.250000 -18.000000 -1.200000
v -18.000000 -15.250000 0.000000
v -18.000000 15.250000 0.000000
v -18.000000 15.250000 -1.200000
v -15.250000 18.000000 -1.200000
v -5.800000 -8.050000 2.900000
v 17.633793 -16.633295 -1.200000
v 17.500000 5.750000 0.700000
v 17.400000 5.750000 0.800000
v 17.400000 -10.050000 0.800000
v -15.250000 -18.000000 0.000000
v -15.727532 -17.958221 0.000000
v 15.266590 -18.000000 0.000000
v -7.900000 -10.072252 2.597493
v -10.900000 -10.072252 2.597493
v 15.266590 -18.000000 -1.200000
v -17.356623 -17.017666 -1.200000
v -10.930521 -6.454834 2.595106
v -17.834154 16.190556 -1.200000
v 7.600000 -1.150000 2.900000
v 1.600000 7.450000 2.400000
v -1.900000 7.450000 2.400000
v -16.190556 17.834154 -1.200000
v 17.958221 15.727532 -1.200000
v -5.734550 -8.237047 2.900000
v -5.800000 -1.450000 2.900000
v -10.900000 -6.450000 2.600000
v 17.360504 -17.023592 -1.200000
v 17.023592 -17.360504 0.000000
v -10.904834 -10.080522 2.595106
v 15.741241 -17.958473 0.000000
v 13.730165 -8.320291 2.900000
v 16.201471 -17.835155 -1.200000
v 16.201471 -17.835155 0.000000
v -17.834154 -16.190556 -1.200000
v -16.190556 -17.834154 -1.200000
v -10.930521 -10.054834 2.595106
v -10.922252 -0.550000 2.597493
v -10.930521 -0.545166 2.595106
v -17.356623 17.017666 -1.200000
v -17.958221 15.727532 -1.200000
v -10.900000 -0.550000 2.600000
v -5.500000 -1.150000 2.900000
v 18.000000 -15.266590 0.000000
v 17.958473 -15.741241 0.000000
v 17.835155 -16.201471 -1.200000
v 15.250000 18.000000 -1.200000
v 13.730165 -1.179709 2.900000
v 18.000000 15.250000 0.000000
v -10.900000 -10.050000 2.600000
v -7.895166 -10.080522 2.595106
v 13.600000 -8.350000 2.900000
v 17.633793 -16.633295 0.000000
v 13.900000 -1.450000 2.900000
v 16.633295 -17.633793 0.000000
v 15.741241 -17.958473 -1.200000
v -17.631569 -16.625000 -1.200000
v -17.834154 -16.190556 0.000000
v -17.356623 -17.017666 0.000000
v -17.958221 -15.727532 -1.200000
v -15.727532 -17.958221 -1.200000
v -10.927533 -10.064029 2.595106
v -17.631569 16.625000 -1.200000
v -5.630165 -1.179709 2.900000
v -5.770291 -1.319835 2.900000
v -15.250000 18.000000 0.000000
v -15.727532 17.958221 0.000000
v -15.727532 17.958221 -1.200000
v 17.500000 -10.050000 0.700000
v 17.958473 -15.741241 -1.200000
v 17.017666 17.356623 -1.200000
v 13.600000 -1.150000 2.900000
v 13.834550 -1.262953 2.900000
v -5.770291 -8.180165 2.900000
v -5.566756 -8.342479 2.900000
v -10.922252 -10.050000 2.597493
v 13.666757 -8.342479 2.900000
v 5.200000 -10.072252 2.597493
v 13.870291 -8.180165 2.900000
v 16.633295 -17.633793 -1.200000
v -17.631569 -16.625000 0.000000
v -17.958221 -15.727532 0.000000
v -16.190556 -17.834154 0.000000
v -16.625000 -17.631569 0.000000
v -17.017666 -17.356623 -1.200000
v -10.921851 -10.071851 2.595106
v -5.566756 -1.157522 2.900000
v -5.792479 -1.383244 2.900000
v -5.734550 -1.262953 2.900000
v -16.625000 17.631569 -1.200000
v -16.625000 17.631569 0.000000
v -16.190556 17.834154 0.000000
v -17.356623 17.017666 0.000000
v -10.900000 -0.527748 2.597493
v 15.250000 18.000000 0.000000
v 15.727532 17.958221 0.000000
v 16.190556 17.834154 -1.200000
v 17.631569 16.625000 -1.200000
v 13.666757 -1.157522 2.900000
v 17.631569 16.625000 0.000000
v 17.834154 16.190556 0.000000
v 17.356623 17.017666 0.000000
v 17.958221 15.727532 0.000000
v -5.792479 -8.116756 2.900000
v -5.687047 -8.284550 2.900000
v 5.204834 -10.080522 2.595106
v 13.834550 -8.237047 2.900000
v 13.892478 -8.116756 2.900000
v 17.835155 -16.201471 0.000000
v -17.017666 -17.356623 0.000000
v -16.625000 -17.631569 -1.200000
v -10.914029 -10.077534 2.595106
v -17.958221 15.727532 0.000000
v -17.834154 16.190556 0.000000
v -17.017666 17.356623 0.000000
v 15.727532 17.958221 -1.200000
v 17.834154 16.190556 -1.200000
v 17.356623 17.017666 -1.200000
v 17.017666 17.356623 0.000000
v 16.625000 17.631569 0.000000
v 16.625000 17.631569 -1.200000
v 16.190556 17.834154 0.000000
v 13.870291 -1.319835 2.900000
v -5.630165 -8.320291 2.900000
v 13.787047 -8.284550 2.900000
v 17.360504 -17.023592 0.000000
v 13.900000 -8.050000 2.900000
v -17.631569 16.625000 0.000000
v 13.787047 -1.215451 2.900000
f 1 2 3
f 4 3 2
f 5 6 7
f 8 4 2
f 9 3 4
f 10 11 3
f 12 3 11
f 12 1 3
f 13 2 1
f 14 5 7
f 15 4 8
f 16 17 18
f 19 20 9
f 19 9 21
f 22 5 23
f 24 21 9
f 24 9 4
f 25 3 9
f 26 11 10
f 27 1 12
f 28 29 30
f 28 7 6
f 31 13 1
f 32 2 13
f 33 5 14
f 34 14 7
f 35 14 34
f 36 4 15
f 36 37 4
f 38 20 19
f 38 19 21
f 38 22 23
f 39 21 24
f 40 6 5
f 41 42 39
f 41 24 4
f 43 3 25
f 44 25 9
f 45 46 26
f 45 26 10
f 47 11 26
f 47 26 46
f 48 1 27
f 49 27 12
f 49 12 11
f 50 46 35
f 50 35 34
f 51 7 28
f 51 28 30
f 52 18 53
f 52 53 8
f 52 8 2
f 54 15 8
f 55 32 13
f 56 28 6
f 57 16 52
f 57 52 2
f 57 2 32
f 57 17 16
f 58 14 35
f 58 35 46
f 59 22 38
f 59 38 21
f 60 21 39
f 60 40 5
f 60 5 22
f 61 36 15
f 61 15 54
f 62 6 40
f 62 18 17
f 63 40 42
f 63 42 41
f 63 4 37
f 64 24 41
f 64 41 39
f 64 39 24
f 65 66 43
f 65 43 25
f 65 25 67
f 68 3 43
f 68 43 66
f 68 10 3
f 69 20 44
f 69 44 9
f 69 9 20
f 70 45 66
f 71 48 27
f 72 30 50
f 72 50 7
f 72 7 51
f 73 34 7
f 74 55 13
f 74 13 75
f 74 75 30
f 74 30 29
f 76 31 75
f 76 75 13
f 76 13 31
f 77 18 52
f 77 52 16
f 77 16 18
f 78 53 54
f 78 54 8
f 78 8 53
f 79 32 55
f 80 28 56
f 80 29 28
f 81 56 6
f 82 58 33
f 82 33 14
f 83 5 33
f 83 58 23
f 83 23 5
f 84 45 70
f 84 58 46
f 84 46 45
f 85 40 60
f 85 60 39
f 85 39 42
f 85 42 40
f 86 60 22
f 86 22 59
f 87 62 40
f 88 4 63
f 88 63 41
f 88 41 4
f 89 66 65
f 89 65 67
f 89 67 70
f 89 70 66
f 90 10 68
f 90 68 66
f 90 66 45
f 90 45 10
f 91 20 38
f 91 92 44
f 91 44 20
f 93 25 44
f 93 67 25
f 94 23 58
f 94 58 84
f 94 84 70
f 94 70 67
f 95 30 72
f 95 72 51
f 95 51 30
f 96 34 73
f 96 73 50
f 96 50 34
f 97 50 73
f 97 73 7
f 97 7 50
f 98 1 99
f 98 99 31
f 98 31 1
f 100 75 31
f 100 31 99
f 100 99 30
f 100 30 75
f 101 48 71
f 101 46 50
f 101 1 48
f 102 30 99
f 102 50 30
f 103 74 29
f 103 29 104
f 103 104 55
f 103 55 74
f 105 79 55
f 106 32 79
f 107 29 80
f 107 80 56
f 107 56 29
f 108 109 106
f 108 106 110
f 108 110 81
f 111 57 32
f 111 32 109
f 111 109 6
f 111 6 62
f 111 62 17
f 111 17 57
f 112 58 82
f 112 82 14
f 112 14 58
f 113 83 33
f 113 33 58
f 114 21 60
f 114 60 86
f 114 86 59
f 114 59 21
f 115 61 87
f 115 87 40
f 116 62 87
f 116 53 18
f 117 53 116
f 117 116 87
f 117 87 61
f 117 61 54
f 117 54 53
f 118 67 93
f 118 93 92
f 118 94 67
f 119 92 93
f 119 93 44
f 119 44 92
f 120 38 23
f 120 23 94
f 120 94 118
f 120 118 92
f 120 92 91
f 120 91 38
f 121 11 47
f 121 47 46
f 121 27 49
f 121 49 11
f 122 27 121
f 122 121 46
f 122 71 27
f 123 101 50
f 123 50 102
f 123 102 99
f 123 99 1
f 123 1 101
f 124 104 105
f 124 105 55
f 124 55 104
f 125 32 106
f 125 106 109
f 125 109 32
f 126 110 106
f 126 106 79
f 126 79 110
f 127 79 128
f 127 81 110
f 127 110 79
f 129 105 128
f 129 128 79
f 129 79 105
f 130 104 29
f 130 29 56
f 130 56 128
f 130 128 105
f 130 105 104
f 131 6 109
f 131 109 108
f 131 108 81
f 131 81 6
f 132 83 113
f 132 113 58
f 132 58 83
f 133 37 115
f 133 115 40
f 133 40 63
f 133 63 37
f 134 61 115
f 134 115 37
f 134 37 36
f 134 36 61
f 135 62 116
f 135 116 18
f 135 18 62
f 136 101 71
f 136 71 122
f 136 122 46
f 136 46 101
f 137 56 81
f 137 81 127
f 137 127 128
f 137 128 56
