# Normalized convex hull collision mesh - generated by scripts/generate-collision-meshes.mjs (units: meters)
v 0.055821 0.031868 -0.021000
v -0.058850 -0.008971 -0.021000
v -0.058850 0.031868 -0.021000
v 0.062988 0.031868 0.019250
v 0.082500 -0.012164 0.005250
v 0.062988 0.031868 -0.019250
v 0.055821 -0.008971 -0.021000
v 0.055821 -0.009098 -0.020965
v 0.055821 0.032362 -0.020341
v 0.055821 0.032262 -0.020618
v -0.058850 0.032362 -0.020341
v -0.082500 -0.013041 0.009854
v -0.066017 0.031868 0.019250
v -0.082500 -0.013041 0.000614
v -0.007439 -0.032500 0.013214
v -0.034316 -0.032500 0.013214
v -0.026367 -0.032500 -0.002746
v -0.058850 0.031868 0.021000
v 0.055821 0.031868 0.021000
v -0.058850 0.032008 0.020956
v -0.034316 -0.032500 -0.000141
v 0.048654 -0.024012 -0.008575
v 0.048654 -0.024012 0.008575
v -0.060445 0.032484 -0.019250
v -0.061960 0.032437 -0.019250
v -0.060445 0.032484 0.019250
v -0.058850 0.032500 -0.019250
v -0.058850 0.032484 -0.019639
v 0.055821 0.032500 -0.019250
v 0.055821 0.032500 0.019250
v -0.058850 0.032437 -0.020009
v -0.058850 0.032008 -0.020956
v -0.058850 0.032262 -0.020618
v 0.055821 0.032142 -0.020827
v 0.062809 0.031868 0.019639
v 0.062638 0.031898 0.019784
v 0.082298 -0.012864 0.005250
v 0.081636 -0.013171 0.001535
v 0.081636 -0.013171 -0.001965
v 0.080788 -0.013506 0.005250
v 0.081619 -0.013163 0.005495
v 0.055821 -0.009098 0.020965
v -0.064649 -0.009117 -0.020196
v 0.039370 -0.024413 -0.008575
v -0.007439 -0.032500 -0.000141
v -0.058850 -0.009098 -0.020965
v 0.082500 -0.012164 -0.001750
v 0.055821 0.032008 -0.020956
v 0.058036 0.032053 -0.020833
v 0.061620 -0.009162 -0.020133
v 0.081089 -0.013318 -0.005587
v -0.066017 0.031868 -0.019250
v -0.065838 0.031868 -0.019639
v 0.057416 0.032484 -0.019250
v -0.058850 0.032142 -0.020827
v -0.061065 0.032141 -0.020733
v -0.061065 0.032293 -0.020427
v -0.063063 0.032168 -0.020395
v -0.063063 0.032282 -0.020082
v -0.061065 0.031962 -0.020894
v -0.061960 -0.008971 -0.020827
v -0.063319 0.031868 -0.020618
v -0.061960 0.031868 -0.020827
v -0.082149 -0.013411 0.009531
v -0.082224 -0.013256 0.010222
v -0.082084 -0.013009 0.010359
v -0.082173 -0.012778 0.010222
v 0.081636 -0.013171 0.005035
v 0.062638 -0.008997 0.019786
v 0.062279 0.031868 0.020009
v 0.061425 0.031868 0.020341
v 0.061620 0.031982 0.020228
v 0.060034 -0.009172 0.020552
v 0.061620 -0.009070 0.020242
v 0.061620 -0.009162 0.020133
v -0.058850 -0.009098 0.020965
v -0.060445 -0.008971 0.020956
v 0.055821 -0.008971 0.021000
v -0.061065 -0.009052 0.020899
v -0.060445 0.031868 0.020956
v -0.061065 0.031962 0.020894
v -0.058850 0.032142 0.020827
v 0.055821 0.032142 0.020827
v -0.065667 -0.009071 -0.019714
v -0.080856 -0.014078 0.000247
v -0.081832 -0.013744 0.000614
v -0.015388 -0.032500 -0.002746
v 0.082465 -0.012506 -0.005465
v 0.080788 -0.013506 -0.005250
v 0.061620 -0.009070 -0.020242
v 0.060034 -0.009172 -0.020552
v -0.058850 0.032500 0.019250
v -0.058850 0.032484 0.019639
v -0.065308 0.032142 0.019250
v -0.065308 0.032142 -0.019250
v -0.065667 0.032053 0.019417
v -0.065838 0.031868 0.019639
v -0.065838 0.032008 0.019250
v -0.065667 0.031982 -0.019687
v -0.065667 0.031928 -0.019764
v 0.058931 0.032437 -0.019250
v 0.060290 0.032362 0.019250
v 0.060290 0.032362 -0.019250
v 0.055821 0.032484 -0.019639
v -0.064649 0.032199 -0.019717
v -0.063063 0.032354 -0.019687
v -0.061065 0.032462 -0.019510
v -0.063319 0.032362 -0.019250
v -0.064454 0.032262 0.019250
v -0.063319 0.032362 0.019250
v -0.060445 0.031868 -0.020956
v -0.064454 0.031868 -0.020341
v -0.064649 0.031926 -0.020266
v -0.064454 -0.008971 -0.020341
v -0.064649 -0.009021 -0.020269
v -0.063063 0.032026 -0.020596
v -0.061065 -0.009207 -0.020781
v -0.063319 -0.008971 -0.020618
v -0.081151 -0.013873 0.010359
v -0.081178 -0.013462 0.010642
v -0.080856 -0.014078 0.010222
v -0.064649 -0.009117 0.020196
v -0.081832 -0.013744 0.009854
v 0.062638 0.032006 0.019632
v 0.062809 0.032008 -0.019250
v 0.081861 -0.012406 0.005775
v 0.062279 -0.008971 0.020009
v 0.061425 -0.008971 0.020341
v 0.060290 0.031868 0.020618
v 0.058931 0.031868 0.020827
v 0.058931 -0.008971 0.020827
v -0.058850 -0.008971 0.021000
v 0.057416 -0.008971 0.020956
v 0.058036 -0.009131 0.020855
v 0.055821 0.032484 0.019639
v 0.060034 0.032323 0.019893
v 0.060034 0.032373 0.019471
v 0.058036 0.032440 0.019764
v 0.058036 0.032354 0.020228
v 0.060034 0.032229 0.020251
v 0.055821 0.032008 0.020956
v 0.058036 0.032053 0.020833
v -0.064649 0.032199 0.019717
v -0.061960 0.031868 0.020827
v -0.063063 0.032026 0.020596
v -0.063319 0.031868 0.020618
v -0.063319 -0.008971 0.020618
v -0.061065 0.032293 0.020427
v -0.058850 0.032362 0.020341
v -0.061065 0.032403 0.020006
v -0.065308 -0.009169 -0.019775
v -0.082224 -0.013256 0.000247
v -0.065838 -0.008971 -0.019639
v -0.065308 -0.008971 -0.020009
v 0.082500 -0.012164 -0.005250
v 0.082298 -0.012864 -0.005250
v 0.082465 -0.012506 0.005035
v 0.057416 0.031868 -0.020956
v 0.058036 -0.009131 -0.020855
v 0.061425 -0.008971 -0.020341
v 0.062279 0.031868 -0.020009
v 0.062279 -0.008971 -0.020009
v 0.062638 -0.009048 -0.019747
v -0.061065 0.032462 0.019510
v -0.058850 0.032437 0.020009
v -0.065667 0.032053 -0.019417
v 0.058036 0.032221 -0.020596
v 0.061425 0.032262 0.019250
v 0.057416 0.032484 0.019250
v -0.064649 0.032130 -0.019977
v -0.061065 0.032403 -0.020006
v -0.064649 0.032235 -0.019411
v -0.060445 -0.008971 -0.020956
v -0.063063 -0.009107 -0.020615
v 0.062809 0.032008 0.019250
v 0.062638 0.032042 0.019496
v 0.062638 0.031956 0.019732
v 0.062279 0.032142 -0.019250
v 0.062279 0.032142 0.019250
v 0.081734 -0.012709 0.005775
v 0.081466 -0.012933 0.005775
v 0.062638 -0.009048 0.019747
v 0.060290 -0.008971 0.020618
v 0.061620 0.032086 0.020082
v 0.057416 0.031868 0.020956
v 0.060034 0.031948 0.020648
v 0.058036 0.032221 0.020596
v -0.064454 0.031868 0.020341
v -0.061960 -0.008971 0.020827
v -0.063063 -0.009107 0.020615
v -0.063063 0.032282 0.020082
v -0.063063 0.032168 0.020395
v -0.064649 0.032235 0.019411
v -0.061065 0.032141 0.020733
v -0.058850 0.032262 0.020618
v -0.065667 -0.009023 -0.019771
v -0.081151 -0.013873 0.000109
v -0.065308 0.031868 -0.020009
v 0.081636 -0.013171 -0.005465
v 0.060034 0.032100 -0.020511
v 0.060034 0.032229 -0.020251
v 0.061620 0.032086 -0.020082
v 0.057416 -0.008971 -0.020956
v 0.058931 -0.008971 -0.020827
v 0.058931 0.031868 -0.020827
v 0.060290 0.031868 -0.020618
v 0.060290 -0.008971 -0.020618
v 0.061425 0.031868 -0.020341
v 0.081812 -0.012998 -0.005587
v 0.062638 -0.008997 -0.019786
v 0.062638 0.031898 -0.019784
v -0.061960 0.032437 0.019250
v 0.055821 0.032437 0.020009
v -0.065667 0.032026 0.019568
v -0.065667 0.031982 0.019687
v -0.065667 0.031928 0.019764
v -0.065308 0.031868 0.020009
v -0.065838 0.032008 -0.019250
v 0.061620 0.032168 -0.019855
v 0.060034 0.032323 -0.019893
v 0.061620 0.032221 -0.019568
v 0.061620 0.032221 0.019568
v 0.058036 0.032354 -0.020228
v 0.060034 0.032373 -0.019471
v 0.058931 0.032437 0.019250
v -0.064649 0.032036 -0.020167
v -0.065667 0.032026 -0.019568
v -0.064454 0.032262 -0.019250
v -0.061065 -0.009052 -0.020899
v 0.062638 0.032061 0.019335
v 0.062809 0.031868 -0.019639
v 0.061425 0.032262 -0.019250
v 0.060034 -0.009040 0.020653
v 0.060034 0.032100 0.020511
v 0.055821 0.032262 0.020618
v -0.064649 -0.009021 0.020269
v -0.064649 0.032036 0.020167
v -0.063063 0.032354 0.019687
v 0.060034 0.031948 -0.020648
v 0.060034 -0.009040 -0.020653
v 0.082211 -0.012675 -0.005587
v 0.082298 -0.012326 -0.005587
v 0.062638 0.031956 -0.019732
v 0.062638 0.032042 -0.019496
v 0.061620 0.032168 0.019855
v 0.055821 0.032437 -0.020009
v 0.062638 0.032061 -0.019335
v 0.055821 0.032362 0.020341
v -0.065308 -0.008971 0.020009
v -0.064454 -0.008971 0.020341
v -0.064649 0.031926 0.020266
v -0.064649 0.032130 0.019977
v 0.061620 0.031982 -0.020228
v 0.062638 0.032006 -0.019632
v 0.058036 0.032440 -0.019764
f 1 2 3
f 4 5 6
f 7 2 1
f 7 8 2
f 9 10 11
f 12 13 14
f 15 16 17
f 18 19 20
f 21 17 16
f 22 23 15
f 24 25 26
f 24 26 27
f 24 27 28
f 29 28 27
f 29 27 30
f 31 9 11
f 32 1 3
f 33 10 34
f 33 11 10
f 35 36 5
f 35 5 4
f 37 38 39
f 40 41 23
f 40 23 22
f 40 39 38
f 42 16 15
f 43 17 21
f 44 8 22
f 45 22 15
f 45 15 17
f 46 8 17
f 46 2 8
f 47 6 5
f 48 34 49
f 48 1 32
f 48 32 34
f 50 51 22
f 52 53 14
f 52 14 13
f 54 29 30
f 55 32 56
f 55 56 33
f 55 33 34
f 55 34 32
f 57 11 33
f 57 33 56
f 57 56 58
f 57 58 59
f 60 56 32
f 61 62 63
f 64 12 14
f 65 66 67
f 65 67 12
f 68 41 40
f 68 40 38
f 68 38 37
f 68 37 41
f 69 36 70
f 71 70 72
f 73 15 23
f 73 23 74
f 75 41 74
f 75 74 23
f 75 23 41
f 76 16 42
f 76 77 16
f 78 19 18
f 78 76 42
f 79 16 77
f 80 18 20
f 80 20 81
f 80 77 18
f 82 20 83
f 84 21 85
f 86 64 14
f 86 85 21
f 86 21 16
f 87 22 45
f 87 45 17
f 87 17 8
f 87 8 44
f 87 44 22
f 88 47 5
f 89 40 22
f 89 39 40
f 90 51 50
f 90 50 22
f 90 22 91
f 92 26 93
f 92 93 30
f 92 30 27
f 92 27 26
f 94 95 96
f 97 13 12
f 97 12 67
f 97 67 66
f 98 52 13
f 98 13 97
f 99 100 53
f 101 102 103
f 104 29 54
f 104 31 28
f 104 28 29
f 105 106 59
f 107 24 28
f 107 106 25
f 107 25 24
f 108 109 110
f 108 110 25
f 108 25 106
f 111 3 2
f 111 61 63
f 111 63 60
f 111 60 32
f 111 32 3
f 112 113 62
f 112 62 114
f 112 114 115
f 112 115 113
f 116 58 56
f 116 56 60
f 116 60 63
f 116 63 62
f 116 62 113
f 117 46 17
f 118 62 61
f 118 114 62
f 119 120 65
f 119 121 16
f 119 16 122
f 123 64 86
f 123 86 16
f 123 16 121
f 123 121 119
f 123 119 65
f 123 65 12
f 123 12 64
f 124 35 4
f 125 4 6
f 126 5 36
f 126 36 69
f 126 37 5
f 127 69 70
f 127 70 71
f 128 74 127
f 128 127 71
f 129 130 131
f 129 128 71
f 132 76 78
f 132 78 18
f 132 18 77
f 132 77 76
f 133 78 42
f 133 42 15
f 133 15 134
f 133 134 131
f 133 131 130
f 133 19 78
f 135 30 93
f 136 137 138
f 136 138 139
f 136 139 140
f 141 142 83
f 141 83 20
f 141 20 19
f 143 94 96
f 144 77 80
f 144 80 81
f 144 81 145
f 144 145 146
f 144 146 147
f 148 149 150
f 151 21 84
f 151 84 43
f 151 43 21
f 152 86 14
f 152 14 53
f 152 53 153
f 154 115 43
f 155 47 88
f 155 6 47
f 156 88 37
f 156 37 39
f 157 37 88
f 157 88 5
f 157 5 37
f 158 1 48
f 158 48 49
f 158 7 1
f 159 22 8
f 159 91 22
f 160 161 162
f 160 162 90
f 163 90 162
f 164 150 93
f 164 93 26
f 165 93 150
f 165 150 149
f 165 135 93
f 166 95 105
f 166 98 96
f 166 96 95
f 167 10 9
f 167 49 34
f 167 34 10
f 168 102 137
f 168 103 102
f 169 101 54
f 169 54 30
f 169 30 135
f 169 135 138
f 170 105 59
f 170 59 58
f 171 31 11
f 171 11 57
f 171 57 59
f 171 59 106
f 171 106 107
f 171 107 28
f 171 28 31
f 172 105 95
f 172 95 94
f 172 108 106
f 172 106 105
f 173 61 111
f 173 111 2
f 173 2 46
f 174 117 17
f 174 17 43
f 174 43 115
f 174 115 114
f 174 114 118
f 174 118 61
f 175 176 124
f 175 124 4
f 175 4 125
f 177 36 35
f 177 35 124
f 177 72 70
f 177 70 36
f 178 168 179
f 180 126 69
f 180 69 181
f 180 181 41
f 180 41 37
f 180 37 126
f 182 41 181
f 182 181 69
f 182 69 127
f 182 127 74
f 182 74 41
f 183 128 129
f 183 129 131
f 184 72 177
f 184 177 124
f 185 130 142
f 185 142 141
f 185 141 19
f 185 19 133
f 185 133 130
f 186 129 71
f 186 71 72
f 186 142 130
f 186 130 129
f 187 83 142
f 187 140 139
f 188 147 146
f 189 79 77
f 189 77 144
f 189 144 147
f 189 16 79
f 190 16 189
f 190 189 147
f 191 192 148
f 191 148 150
f 193 109 172
f 193 172 94
f 193 94 143
f 193 110 109
f 194 145 81
f 194 81 20
f 194 20 82
f 194 148 192
f 194 192 145
f 195 149 148
f 195 148 194
f 195 194 82
f 195 82 83
f 196 84 152
f 196 152 153
f 196 153 53
f 196 53 100
f 196 154 43
f 196 43 84
f 197 85 86
f 197 86 152
f 197 152 84
f 197 84 85
f 198 113 115
f 198 115 154
f 198 154 196
f 198 196 100
f 199 89 22
f 199 22 51
f 199 156 39
f 199 39 89
f 200 201 202
f 200 49 167
f 200 167 201
f 203 7 158
f 203 158 204
f 203 204 159
f 203 159 8
f 203 8 7
f 205 206 204
f 205 204 158
f 205 158 49
f 207 206 160
f 207 204 206
f 208 161 160
f 208 160 206
f 209 90 163
f 209 156 199
f 209 199 51
f 209 51 90
f 210 209 163
f 210 163 162
f 210 162 161
f 210 161 211
f 212 25 110
f 212 164 26
f 212 26 25
f 213 139 138
f 213 138 135
f 213 135 165
f 213 165 149
f 214 98 97
f 214 97 215
f 214 143 96
f 214 96 98
f 216 215 97
f 216 97 66
f 216 66 217
f 218 52 98
f 218 98 166
f 218 53 52
f 219 202 201
f 219 201 220
f 219 220 221
f 222 176 179
f 222 179 168
f 222 168 137
f 222 137 136
f 223 167 9
f 223 220 201
f 223 201 167
f 224 221 220
f 224 101 103
f 225 137 102
f 225 102 101
f 225 101 169
f 225 169 138
f 225 138 137
f 226 116 113
f 226 113 198
f 226 198 100
f 226 100 99
f 226 99 170
f 226 170 58
f 226 58 116
f 227 166 105
f 227 105 170
f 227 170 99
f 227 99 53
f 227 53 218
f 227 218 166
f 228 108 172
f 228 172 109
f 228 109 108
f 229 117 174
f 229 174 61
f 229 61 173
f 229 173 46
f 229 46 117
f 230 179 176
f 230 176 175
f 230 175 125
f 230 178 179
f 231 6 155
f 231 155 88
f 231 88 211
f 232 168 178
f 232 178 221
f 232 221 224
f 232 224 103
f 232 103 168
f 233 73 74
f 233 74 128
f 233 128 183
f 233 183 131
f 233 131 134
f 233 134 15
f 233 15 73
f 234 184 140
f 234 140 187
f 234 187 142
f 234 142 186
f 234 186 72
f 234 72 184
f 235 83 187
f 235 149 195
f 235 195 83
f 236 122 16
f 236 16 190
f 236 120 119
f 236 119 122
f 237 215 216
f 237 216 217
f 237 145 192
f 238 164 212
f 238 212 110
f 238 110 193
f 238 193 143
f 238 143 191
f 238 191 150
f 238 150 164
f 239 208 206
f 239 206 205
f 239 205 49
f 239 49 200
f 240 90 91
f 240 91 159
f 240 159 204
f 240 204 207
f 240 207 160
f 240 160 90
f 241 209 210
f 241 210 88
f 241 88 156
f 241 156 209
f 242 88 210
f 242 210 211
f 242 211 88
f 243 231 211
f 243 211 161
f 244 219 221
f 244 221 178
f 245 184 124
f 245 124 176
f 245 176 222
f 245 222 136
f 245 136 140
f 245 140 184
f 246 223 9
f 246 9 31
f 246 31 104
f 247 178 230
f 247 230 125
f 247 125 244
f 247 244 178
f 248 139 213
f 248 213 149
f 248 149 235
f 248 235 187
f 248 187 139
f 249 217 66
f 249 66 65
f 249 65 120
f 249 120 236
f 249 236 217
f 250 147 188
f 250 188 236
f 250 236 190
f 250 190 147
f 251 217 236
f 251 236 188
f 251 188 146
f 251 146 145
f 251 145 237
f 251 237 217
f 252 191 143
f 252 143 214
f 252 214 215
f 252 215 237
f 252 237 192
f 252 192 191
f 253 208 239
f 253 239 200
f 253 200 202
f 253 202 243
f 253 243 161
f 253 161 208
f 254 243 202
f 254 202 219
f 254 219 244
f 254 244 125
f 254 125 6
f 254 6 231
f 254 231 243
f 255 223 246
f 255 246 104
f 255 104 54
f 255 54 101
f 255 101 224
f 255 224 220
f 255 220 223
