# Normalized convex hull collision mesh - generated by scripts/generate-collision-meshes.mjs (units: meters)
v 0.044063 0.019460 0.001500
v -0.044063 -0.019460 0.001500
v 0.044063 -0.019460 0.001500
v -0.055000 0.003000 -0.001488
v -0.055000 0.029000 -0.001488
v -0.055000 -0.003000 -0.001500
v 0.055000 0.022504 -0.000332
v 0.055000 0.003000 -0.001488
v 0.055000 0.003000 -0.001500
v -0.055000 -0.029000 -0.001488
v -0.055000 -0.019710 -0.000258
v 0.048774 -0.003000 -0.001500
v 0.055000 0.029000 -0.001488
v 0.055000 -0.003000 -0.001488
v 0.055000 -0.021570 -0.000291
v -0.053962 -0.030000 -0.001488
v 0.044322 -0.030000 -0.000258
v -0.044322 -0.030000 -0.000258
v -0.054193 -0.029975 -0.001488
v -0.046251 -0.030000 -0.000291
v -0.044063 -0.029750 -0.000170
v 0.010678 0.024601 -0.001500
v -0.044063 0.023750 0.001227
v -0.045158 0.023750 0.001211
v -0.044063 0.021618 0.001432
v 0.044063 0.021618 0.001432
v 0.046301 -0.019460 0.001432
v 0.048514 -0.019460 0.001227
v 0.048514 0.019460 0.001227
v -0.055000 0.021570 -0.000291
v 0.053962 0.030000 -0.001026
v -0.053962 0.030000 -0.001488
v 0.044322 0.030000 -0.000258
v 0.055000 -0.003000 -0.001500
v 0.044063 -0.021618 0.001432
v 0.052077 -0.030000 -0.000762
v -0.048223 -0.030000 -0.000390
v -0.044063 -0.027840 0.000422
v 0.044063 -0.027840 0.000422
v 0.044063 -0.025832 0.000889
v 0.044900 -0.029142 0.000024
v -0.012745 0.024204 -0.001500
v 0.011720 0.024377 -0.001500
v 0.046301 0.019460 0.001432
v 0.044063 0.023750 0.001227
v 0.045158 0.023750 0.001211
v 0.050675 -0.019460 0.000889
v 0.051683 -0.021618 0.000608
v 0.052759 -0.019460 0.000422
v 0.052759 0.019460 0.000422
v 0.054741 0.019460 -0.000170
v 0.053450 0.021072 0.000190
v -0.054897 -0.029434 -0.001488
v -0.054774 -0.029623 -0.001488
v -0.044322 0.030000 -0.000258
v 0.044063 0.029750 -0.000170
v -0.055000 0.029000 -0.001026
v -0.054741 -0.019460 -0.000170
v -0.052759 -0.019460 0.000422
v -0.052759 0.019460 0.000422
v -0.054741 0.019460 -0.000170
v -0.053450 0.021072 0.000190
v 0.055000 0.025378 -0.000553
v 0.050636 0.021618 0.000825
v 0.048223 0.030000 -0.000390
v 0.053962 0.030000 -0.001488
v 0.054193 0.029975 -0.001488
v 0.054897 0.029434 -0.001488
v 0.054774 0.029623 -0.001488
v 0.054838 0.029507 -0.001083
v 0.044063 -0.023750 0.001227
v -0.044063 -0.023750 0.001227
v 0.047393 -0.021618 0.001279
v 0.055000 -0.029000 -0.001026
v 0.053962 -0.030000 -0.001488
v 0.054193 -0.029975 -0.001488
v -0.044063 -0.021618 0.001432
v -0.045177 -0.021618 0.001415
v -0.046288 0.021618 0.001364
v -0.046301 0.019460 0.001432
v -0.044063 0.019460 0.001500
v -0.046301 -0.019460 0.001432
v -0.047393 -0.021618 0.001279
v -0.054609 -0.029782 -0.001488
v -0.044900 -0.029142 0.000024
v 0.044063 -0.029750 -0.000170
v -0.011535 0.024550 -0.001500
v -0.054193 0.029975 -0.001488
v 0.011293 0.024534 -0.001500
v 0.046288 0.021618 0.001364
v 0.053450 -0.021072 0.000190
v 0.054741 -0.019460 -0.000170
v 0.055000 0.019710 -0.000258
v -0.054974 -0.029223 -0.001488
v -0.055000 -0.022504 -0.000332
v -0.050675 0.019460 0.000889
v -0.052077 0.030000 -0.000762
v -0.055000 0.026217 -0.000644
v -0.055000 0.019710 -0.000258
v 0.055000 0.027183 -0.000762
v 0.050675 0.019460 0.000889
v 0.052054 0.022666 0.000432
v 0.054169 0.029976 -0.001055
v 0.046251 0.030000 -0.000291
v 0.051074 0.030000 -0.000644
v 0.054974 0.029223 -0.001488
v 0.045177 -0.021618 0.001415
v 0.046249 -0.023750 0.001160
v 0.047221 -0.030000 -0.000332
v 0.045736 -0.028507 0.000190
v 0.045125 -0.025832 0.000873
v 0.047390 -0.027161 0.000432
v 0.054413 -0.029901 -0.001488
v -0.047335 0.023750 0.001077
v -0.051074 -0.030000 -0.000644
v -0.045736 -0.028507 0.000190
v -0.045125 -0.025832 0.000873
v -0.044063 -0.025832 0.000889
v -0.046249 -0.023750 0.001160
v -0.010845 0.024601 -0.001500
v -0.012186 0.024411 -0.001500
v 0.048488 0.021618 0.001160
v 0.049474 0.023750 0.000812
v 0.055000 -0.026217 -0.000644
v 0.050521 -0.023750 0.000631
v 0.055000 -0.019710 -0.000258
v -0.055000 -0.029000 -0.001026
v -0.053450 -0.021072 0.000190
v -0.051683 -0.021618 0.000608
v -0.050675 -0.019460 0.000889
v -0.048514 0.019460 0.001227
v -0.054413 0.029901 -0.001488
v -0.054609 0.029782 -0.001488
v -0.054488 0.029844 -0.001083
v -0.055000 0.003000 -0.001500
v -0.054774 0.029623 -0.001488
v -0.053962 0.030000 -0.001026
v -0.049006 0.025728 0.000554
v -0.047221 0.030000 -0.000332
v -0.044900 0.029142 0.000024
v -0.044063 0.027840 0.000422
v 0.044063 0.027840 0.000422
v -0.054897 0.029434 -0.001488
v -0.054975 0.029200 -0.001055
v -0.054906 0.029390 -0.001074
v -0.054797 0.029565 -0.001085
v -0.055000 0.023470 -0.000390
v -0.052054 0.022666 0.000432
v 0.055000 0.029000 -0.001026
v 0.050567 0.024224 0.000554
v 0.054609 0.029782 -0.001488
v 0.044900 0.029142 0.000024
v 0.044063 0.025832 0.000889
v 0.046185 0.025832 0.000825
v 0.049006 0.025728 0.000554
v 0.054548 0.029804 -0.001085
v 0.054367 0.029909 -0.001074
v 0.047335 0.023750 0.001077
v 0.045081 0.027840 0.000406
v 0.049570 -0.021618 0.001009
v 0.048411 -0.023750 0.000961
v 0.050204 -0.030000 -0.000553
v 0.055000 -0.029000 -0.001488
v -0.044063 0.025832 0.000889
v -0.047390 -0.027161 0.000432
v -0.048411 -0.023750 0.000961
v 0.055000 -0.023470 -0.000390
v -0.054934 -0.029326 -0.001068
v -0.055000 -0.025378 -0.000553
v -0.048514 -0.019460 0.001227
v -0.050636 0.021618 0.000825
v -0.054301 0.029937 -0.001068
v -0.054134 0.029984 -0.001050
v -0.044063 0.029750 -0.000170
v -0.054656 0.029718 -0.001088
v -0.054974 0.029223 -0.001488
v 0.054934 0.029326 -0.001068
v 0.054707 0.029668 -0.001088
v 0.054413 0.029901 -0.001488
v 0.047390 0.027161 0.000432
v 0.048282 0.025832 0.000631
v 0.047238 -0.025832 0.000744
v 0.053962 -0.030000 -0.001026
v -0.047238 -0.025832 0.000744
v -0.049570 -0.021618 0.001009
v -0.050521 -0.023750 0.000631
v 0.052054 -0.022666 0.000432
v -0.054838 -0.029507 -0.001083
v -0.048488 0.021618 0.001160
v -0.049474 0.023750 0.000812
v -0.046185 0.025832 0.000825
v -0.045736 0.028507 0.000190
v -0.050204 0.030000 -0.000553
v -0.047390 0.027161 0.000432
v 0.054983 0.029166 -0.001050
v 0.045736 0.028507 0.000190
v 0.049006 -0.025728 0.000554
v 0.054974 -0.029223 -0.001488
v 0.054897 -0.029434 -0.001488
v 0.054609 -0.029782 -0.001488
v -0.050567 -0.024224 0.000554
v -0.052054 -0.022666 0.000432
v -0.055000 -0.027183 -0.000762
v -0.054707 -0.029668 -0.001088
v -0.050567 0.024224 0.000554
v -0.048282 0.025832 0.000631
v -0.045081 0.027840 0.000406
v 0.050567 -0.024224 0.000554
v 0.054656 -0.029718 -0.001088
v 0.054774 -0.029623 -0.001488
v -0.054983 -0.029166 -0.001050
v -0.053962 -0.030000 -0.001026
v -0.054413 -0.029901 -0.001488
v -0.054548 -0.029804 -0.001085
v -0.054367 -0.029909 -0.001074
v 0.054301 -0.029937 -0.001068
v -0.054169 -0.029976 -0.001055
v -0.049006 -0.025728 0.000554
v 0.054488 -0.029844 -0.001083
v 0.054134 -0.029984 -0.001050
v 0.054975 -0.029200 -0.001055
v 0.054906 -0.029390 -0.001074
v 0.054797 -0.029565 -0.001085
f 1 2 3
f 4 5 6
f 7 8 9
f 10 4 6
f 11 4 10
f 11 5 4
f 12 6 9
f 13 7 9
f 14 8 7
f 14 9 8
f 15 14 7
f 16 17 18
f 16 19 6
f 16 6 12
f 20 16 18
f 21 18 17
f 22 9 6
f 23 24 25
f 26 23 25
f 26 25 1
f 27 28 29
f 27 1 3
f 30 5 11
f 31 32 33
f 34 9 14
f 34 14 15
f 34 16 12
f 34 12 9
f 35 3 2
f 36 17 16
f 37 16 20
f 38 39 40
f 41 39 38
f 42 22 6
f 43 9 22
f 44 26 1
f 44 1 27
f 44 27 29
f 45 23 26
f 45 26 46
f 47 29 28
f 47 48 49
f 47 49 50
f 51 7 52
f 51 52 50
f 51 50 49
f 53 6 54
f 55 56 33
f 55 33 32
f 57 5 30
f 58 59 60
f 61 11 58
f 61 58 60
f 61 60 62
f 61 62 30
f 63 52 7
f 63 7 13
f 64 50 52
f 65 31 33
f 66 32 31
f 66 31 67
f 66 67 22
f 66 22 32
f 68 9 69
f 68 69 70
f 71 35 72
f 71 72 40
f 73 28 27
f 74 34 15
f 75 36 16
f 75 16 34
f 75 34 76
f 77 35 2
f 77 2 78
f 77 78 72
f 77 72 35
f 79 80 25
f 79 25 24
f 81 25 80
f 81 80 2
f 81 2 1
f 81 1 25
f 82 2 80
f 82 83 78
f 82 78 2
f 84 54 6
f 85 20 18
f 85 18 21
f 85 21 41
f 85 41 38
f 86 17 41
f 86 41 21
f 86 21 17
f 87 22 42
f 87 88 32
f 89 43 22
f 89 22 67
f 90 46 26
f 90 26 44
f 91 49 48
f 92 51 49
f 92 49 91
f 92 91 15
f 93 7 51
f 93 51 92
f 93 15 7
f 94 10 6
f 94 6 53
f 95 11 10
f 95 58 11
f 96 60 59
f 97 55 32
f 98 57 30
f 99 11 61
f 99 61 30
f 99 30 11
f 100 63 13
f 101 47 50
f 101 50 64
f 101 29 47
f 102 63 100
f 102 64 52
f 102 52 63
f 103 67 31
f 104 65 33
f 105 31 65
f 106 9 68
f 106 13 9
f 107 35 71
f 107 71 108
f 107 108 73
f 107 73 27
f 107 27 3
f 107 3 35
f 109 41 17
f 109 17 36
f 110 41 109
f 110 39 41
f 111 39 110
f 111 110 112
f 111 108 71
f 111 71 40
f 111 40 39
f 113 76 34
f 114 79 24
f 115 16 37
f 116 38 117
f 116 37 20
f 116 20 85
f 116 85 38
f 118 40 72
f 118 72 117
f 118 117 38
f 118 38 40
f 119 117 72
f 119 72 78
f 119 78 83
f 120 22 87
f 120 87 32
f 120 32 22
f 121 88 87
f 121 87 42
f 122 90 44
f 122 44 29
f 122 29 101
f 122 101 64
f 122 64 123
f 124 74 15
f 124 125 74
f 126 15 93
f 126 93 92
f 126 92 15
f 127 95 10
f 128 59 58
f 128 58 95
f 128 129 59
f 130 96 59
f 130 59 129
f 131 96 130
f 131 82 80
f 132 133 134
f 132 88 121
f 132 121 42
f 135 6 5
f 135 136 133
f 135 133 132
f 135 132 42
f 135 42 6
f 137 138 97
f 137 97 32
f 139 55 97
f 140 55 139
f 140 141 142
f 143 144 145
f 143 145 146
f 143 146 136
f 143 136 135
f 147 62 148
f 147 148 98
f 147 98 30
f 147 30 62
f 149 100 13
f 150 123 64
f 150 64 102
f 150 102 100
f 150 100 149
f 151 69 9
f 152 104 33
f 152 33 56
f 152 56 140
f 152 140 142
f 153 23 45
f 153 45 46
f 153 46 154
f 153 142 141
f 155 123 150
f 155 156 157
f 155 157 103
f 155 103 31
f 158 154 46
f 158 46 90
f 158 90 122
f 158 122 123
f 159 142 153
f 159 153 154
f 159 152 142
f 160 125 48
f 160 48 47
f 160 47 28
f 160 28 73
f 161 125 160
f 161 160 73
f 161 73 108
f 162 112 110
f 162 110 109
f 162 109 36
f 162 36 112
f 163 34 74
f 164 24 23
f 164 23 153
f 164 153 141
f 165 115 37
f 165 37 116
f 165 116 117
f 166 119 83
f 167 91 48
f 167 124 15
f 167 15 91
f 168 94 53
f 169 95 127
f 169 128 95
f 170 82 131
f 170 131 130
f 170 83 82
f 171 148 62
f 171 62 60
f 171 60 96
f 172 134 138
f 172 88 132
f 172 132 134
f 173 88 172
f 173 172 138
f 173 138 137
f 173 137 32
f 173 32 88
f 174 55 140
f 174 140 56
f 174 56 55
f 175 134 133
f 175 133 136
f 175 136 146
f 175 138 134
f 176 144 143
f 176 143 135
f 176 135 5
f 176 5 57
f 176 57 144
f 177 70 150
f 177 106 68
f 177 68 70
f 178 156 155
f 178 155 150
f 178 150 70
f 178 70 69
f 178 69 151
f 178 151 156
f 179 157 156
f 179 156 151
f 179 151 9
f 179 9 43
f 179 43 89
f 179 89 67
f 179 67 103
f 179 103 157
f 180 105 65
f 180 159 154
f 181 155 31
f 181 31 105
f 181 105 180
f 181 180 154
f 181 154 158
f 181 158 123
f 181 123 155
f 182 161 108
f 182 108 111
f 182 111 112
f 183 36 75
f 184 119 166
f 184 165 117
f 184 117 119
f 185 166 83
f 185 83 170
f 185 170 130
f 185 130 129
f 186 166 185
f 186 185 129
f 187 124 167
f 187 167 48
f 187 48 125
f 187 125 124
f 188 168 53
f 188 53 54
f 189 131 80
f 189 80 79
f 189 79 114
f 189 171 96
f 189 96 131
f 190 171 189
f 190 189 114
f 191 114 24
f 191 24 164
f 192 140 139
f 193 97 194
f 193 194 192
f 193 192 139
f 193 139 97
f 195 149 13
f 195 13 106
f 195 106 177
f 195 177 150
f 195 150 149
f 196 159 180
f 196 180 65
f 196 65 104
f 196 104 152
f 196 152 159
f 197 36 183
f 197 161 182
f 197 182 112
f 197 112 36
f 198 163 74
f 198 199 34
f 198 34 163
f 200 113 34
f 201 168 188
f 201 166 186
f 202 186 129
f 202 129 128
f 202 128 169
f 203 127 201
f 203 201 186
f 203 186 202
f 203 202 169
f 203 169 127
f 204 201 188
f 204 188 54
f 204 54 84
f 205 146 145
f 205 145 144
f 205 144 57
f 205 57 98
f 205 98 148
f 205 148 171
f 205 171 190
f 205 190 138
f 205 138 175
f 205 175 146
f 206 138 190
f 206 190 114
f 206 114 191
f 206 191 194
f 206 194 97
f 206 97 138
f 207 141 140
f 207 140 192
f 207 192 194
f 207 194 191
f 207 191 164
f 207 164 141
f 208 125 161
f 208 161 197
f 208 74 125
f 209 208 197
f 210 209 200
f 210 200 34
f 210 34 199
f 211 168 201
f 211 201 127
f 211 127 10
f 211 10 94
f 211 94 168
f 212 16 115
f 212 19 16
f 213 84 6
f 213 6 19
f 214 204 84
f 214 84 213
f 214 213 215
f 216 76 113
f 217 215 213
f 217 213 19
f 217 19 212
f 218 184 166
f 218 166 201
f 218 201 204
f 218 204 214
f 218 214 215
f 218 215 217
f 218 217 212
f 218 212 115
f 218 115 165
f 218 165 184
f 219 200 209
f 219 209 197
f 219 197 216
f 219 216 113
f 219 113 200
f 220 76 216
f 220 216 197
f 220 197 183
f 220 183 75
f 220 75 76
f 221 198 74
f 221 74 208
f 221 208 222
f 221 222 199
f 221 199 198
f 223 209 210
f 223 210 199
f 223 199 222
f 223 222 208
f 223 208 209
