# Convex hull collision mesh — generated by scripts/generate-collision-meshes.mjs
v -17.504845 -26.169418 -25.000000
v -13.000000 29.000000 -25.000000
v 13.000000 -29.000000 -25.000000
v 18.000000 -24.000000 -25.000000
v -18.000000 24.000000 -25.000000
v -13.000000 -29.000000 -25.000000
v 16.117449 -27.909157 -25.000000
v 17.504845 26.169418 -25.000000
v 27.000000 -34.000000 0.000000
v -18.000000 -24.000000 -25.000000
v -34.000000 -27.000000 0.000000
v -15.169418 -28.504845 -25.000000
v -15.169418 28.504845 -25.000000
v -32.820286 30.888992 0.000000
v -32.820286 30.888992 19.000000
v -31.949747 31.949747 0.000000
v 27.000000 34.000000 19.000000
v -27.000000 34.000000 0.000000
v -27.000000 34.000000 19.000000
v -31.949747 31.949747 19.000000
v 33.865498 28.365633 0.000000
v 34.000000 27.000000 19.000000
v 34.000000 27.000000 0.000000
v 17.504845 -26.169418 -25.000000
v 13.000000 29.000000 -25.000000
v 18.000000 24.000000 -25.000000
v -1.149287 -19.732504 45.938850
v 27.000000 -34.000000 19.000000
v 1.149287 -19.732504 45.938850
v 34.000000 -27.000000 0.000000
v -27.000000 -34.000000 0.000000
v 5.982387 16.976780 47.000000
v 1.660830 -17.923216 47.000000
v 18.000000 -0.000000 47.000000
v -33.865498 -28.365633 0.000000
v -34.000000 -27.000000 19.000000
v -34.000000 27.000000 19.000000
v -33.865498 28.365633 19.000000
v -33.865498 28.365633 0.000000
v -34.000000 27.000000 0.000000
v -33.467155 29.678783 0.000000
v -16.909157 27.117449 -25.000000
v -0.608693 19.756571 45.938850
v -30.888992 32.820286 19.000000
v -28.365633 33.865498 0.000000
v 33.467155 29.678783 0.000000
v 32.820286 30.888992 0.000000
v 16.909157 -27.117449 -25.000000
v 32.820286 -30.888992 0.000000
v 31.949747 -31.949747 0.000000
v 15.169418 28.504845 -25.000000
v 27.000000 34.000000 0.000000
v 17.874640 25.112604 -25.000000
v -19.765945 0.000000 45.938850
v -15.303908 -9.475779 47.000000
v 34.000000 -27.000000 19.000000
v 19.765945 0.000000 45.938850
v 33.865498 -28.365633 19.000000
v 33.865498 -28.365633 0.000000
v 15.169418 -28.504845 -25.000000
v 14.112605 -28.874640 -25.000000
v 29.678783 -33.467155 0.000000
v 28.365633 -33.865498 0.000000
v 30.888992 -32.820286 0.000000
v -27.000000 -34.000000 19.000000
v -28.365633 -33.865498 19.000000
v -28.365633 -33.865498 0.000000
v 31.949747 -31.949747 19.000000
v -33.467155 -29.678783 0.000000
v -32.820286 -30.888992 0.000000
v -17.874640 -25.112604 -25.000000
v -16.909157 -27.117449 -25.000000
v -31.949747 -31.949747 0.000000
v -31.949747 -31.949747 19.000000
v -30.888992 -32.820286 0.000000
v -33.467155 29.678783 19.000000
v -16.117449 27.909157 -25.000000
v -17.504845 26.169418 -25.000000
v -30.888992 32.820286 0.000000
v -29.678783 33.467155 0.000000
v -28.365633 33.865498 19.000000
v -14.112605 28.874640 -25.000000
v 32.820286 30.888992 19.000000
v 31.949747 31.949747 19.000000
v 16.117449 27.909157 -25.000000
v 31.949747 31.949747 0.000000
v 1.133033 -19.453428 46.338142
v 33.467155 -29.678783 0.000000
v 17.874640 -25.112604 -25.000000
v -29.678783 -33.467155 0.000000
v -14.112605 -28.874640 -25.000000
v 14.691545 10.399929 47.000000
v -7.016146 16.576300 47.000000
v -14.927445 12.525615 46.338142
v -13.372376 14.173891 46.338142
v 33.467155 -29.678783 19.000000
v 11.711129 -13.669289 47.000000
v 30.888992 -32.820286 19.000000
v 12.678206 -14.798065 46.338142
v -16.117449 -27.909157 -25.000000
v -30.888992 -32.820286 19.000000
v -17.874640 25.112604 -25.000000
v 1.149287 19.732504 45.938850
v 1.823771 19.681627 45.938850
v -29.678783 33.467155 19.000000
v -3.031931 19.532024 45.938850
v -2.989051 19.255785 46.338142
v 16.909157 27.117449 -25.000000
v 30.888992 32.820286 19.000000
v 14.112605 28.874640 -25.000000
v 29.678783 33.467155 0.000000
v 28.365633 33.865498 19.000000
v 3.432320 19.465656 45.938850
v -33.467155 -29.678783 19.000000
v -7.016146 -16.576300 47.000000
v -12.530411 12.922415 47.000000
v -14.645669 12.289175 46.657955
v 18.897848 -4.752999 46.338142
v 18.170525 -7.039299 46.338142
v 17.167753 -9.218888 46.338142
v 12.156342 -14.188942 46.879295
v 11.937172 -13.933126 46.969593
v 11.157485 -14.987103 46.879295
v 1.111646 -19.086216 46.657955
v 1.764038 -19.037006 46.657955
v -1.111646 -19.086216 46.657955
v 11.711129 13.669289 47.000000
v -5.332705 18.742516 46.338142
v -7.595522 17.945129 46.338142
v -5.232043 18.388723 46.657955
v -2.761050 17.786978 47.000000
v -2.932628 18.892303 46.657955
v 33.467155 29.678783 19.000000
v 17.413679 8.745479 46.338142
v 18.311224 6.664740 46.338142
v 30.888992 32.820286 0.000000
v 28.365633 33.865498 0.000000
v 29.678783 33.467155 19.000000
v 5.588761 18.667763 46.338142
v -17.693516 -3.307491 47.000000
v -32.820286 -30.888992 19.000000
v -33.865498 -28.365633 19.000000
v -18.569407 -5.907353 46.338142
v -2.761050 -17.786978 47.000000
v -3.432320 -19.465656 45.938850
v -3.383777 -19.190355 46.338142
v -1.133033 -19.453428 46.338142
v -3.319904 -18.828108 46.657955
v -15.181473 -12.216486 46.338142
v -11.743177 -15.550480 46.338142
v -10.847424 -14.364310 47.000000
v 1.823771 -19.681627 45.938850
v 1.797978 -19.403271 46.338142
v 28.365633 -33.865498 19.000000
v 3.432320 -19.465656 45.938850
v -15.303908 9.475779 47.000000
v -9.743198 16.875715 46.338142
v -9.342145 16.181070 46.879295
v -9.559281 16.557161 46.657955
v -11.157485 14.987103 46.879295
v -14.312997 12.010031 46.879295
v -15.610497 10.267185 46.879295
v -13.119953 13.906339 46.657955
v 16.784500 -6.502350 47.000000
v 19.632296 2.294686 45.938850
v 19.486397 0.000000 46.338142
v 19.616129 -2.429003 45.938850
v 18.541122 -4.663280 46.657955
v 18.973654 -2.349447 46.657955
v 32.820286 -30.888992 19.000000
v 16.843687 -9.044868 46.657955
v 11.416814 -15.335443 46.657955
v 5.982387 -16.976780 47.000000
v 8.023291 -16.112940 47.000000
v 7.267045 -16.846903 46.969593
v -16.280647 10.707950 46.338142
v 14.927445 12.525615 46.338142
v 15.904737 11.258730 46.338142
v 12.678206 14.798065 46.338142
v 8.023291 16.112940 47.000000
v 6.476398 18.378681 46.338142
v 7.718167 17.892723 46.338142
v 1.133033 19.453428 46.338142
v 1.797978 19.403271 46.338142
v 16.784500 6.502350 47.000000
v 15.973326 10.505822 46.657955
v 15.604511 11.046206 46.657955
v 15.610497 10.267185 46.879295
v 16.280647 10.707950 46.338142
v -19.632296 -2.294686 45.938850
v -19.429392 -3.631983 45.938850
v -17.702715 -8.144541 46.338142
v -17.368549 -7.990801 46.657955
v -17.965572 -6.538933 46.657955
v -18.961138 -4.493872 46.338142
v -4.925934 -17.312862 47.000000
v -3.185997 -18.068689 46.969593
v -0.554311 -17.991463 47.000000
v -29.678783 -33.467155 19.000000
v 29.678783 -33.467155 19.000000
v 5.588761 -18.667763 46.338142
v -10.847424 14.364310 47.000000
v -17.693516 3.307491 47.000000
v -11.636469 15.630490 46.338142
v -7.282873 17.206467 46.879295
v -7.151568 16.896248 46.969593
v -5.021012 17.647026 46.969593
v -9.173714 15.889338 46.969593
v -10.956324 14.716897 46.969593
v -12.590769 13.345435 46.969593
v -14.054945 11.793499 46.969593
v -12.821939 13.590461 46.879295
v 17.863569 -2.211989 47.000000
v 33.865498 28.365633 19.000000
v 19.338699 -2.394650 46.338142
v 19.168953 -4.821185 45.938850
v 18.119968 -4.557355 46.879295
v 16.280647 -10.707950 46.338142
v 17.827528 -6.906421 46.657955
v 11.636469 -15.630490 46.338142
v 1.086395 -18.652679 46.879295
v 5.358715 -17.899355 46.879295
v 3.997188 -18.251719 46.879295
v 4.090093 -18.675936 46.657955
v 5.483265 -18.315382 46.657955
v 8.685834 -17.443506 46.338142
v 9.743198 -16.875715 46.338142
v 8.521876 -17.114235 46.657955
v 7.718167 -17.892723 46.338142
v 9.559281 -16.557161 46.657955
v 10.956324 -14.716897 46.969593
v 10.134477 -15.294459 46.969593
v 9.942570 -15.004843 47.000000
v 9.173714 -15.889338 46.969593
v 9.342145 -16.181070 46.879295
v -17.413679 8.745479 46.338142
v 13.302160 12.126521 47.000000
v 14.645669 12.289175 46.657955
v 10.320548 15.575269 46.879295
v 10.134477 15.294459 46.969593
v 11.157485 14.987103 46.879295
v 10.560424 15.937280 46.657955
v 9.743198 16.875715 46.338142
v 10.763603 16.243906 46.338142
v 11.636469 15.630490 46.338142
v 13.372376 14.173891 46.338142
v 13.119953 13.906339 46.657955
v 7.267045 16.846903 46.969593
v 6.209814 17.622171 46.879295
v 6.097856 17.304457 46.969593
v 8.178152 16.423944 46.969593
v 9.942570 15.004843 47.000000
v 11.937172 13.933126 46.969593
v 12.156342 14.188942 46.879295
v -4.925934 17.312862 47.000000
v 1.660830 17.923216 47.000000
v -0.600085 19.477154 46.338142
v 4.168785 19.035254 46.338142
v 5.483265 18.315382 46.657955
v 1.764038 19.037006 46.657955
v 1.111646 19.086216 46.657955
v 17.084972 8.580395 46.657955
v -19.632296 2.294686 45.938850
v -18.569407 5.907353 46.338142
v -18.603220 4.409044 46.657955
v -18.218882 5.795843 46.657955
v -16.395861 -8.234310 46.969593
v -15.599298 -9.658676 46.969593
v -17.152956 -5.456748 47.000000
v -19.728456 -1.216810 45.938850
v -18.366156 -3.433229 46.879295
v -18.557955 -2.169114 46.879295
v -18.989290 -2.219530 46.657955
v -18.793032 -3.513027 46.657955
v -15.885704 -9.836012 46.879295
v -16.696892 -8.385494 46.879295
v -16.254929 -10.064626 46.657955
v -14.894900 -11.985882 46.657955
v -17.084972 -8.580395 46.657955
v -17.557489 -6.390404 46.879295
v -17.805046 -5.664193 46.879295
v -17.240942 -6.275190 46.969593
v -17.413679 -8.745479 46.338142
v -18.311224 -6.664740 46.338142
v -19.154604 -3.580616 46.338142
v -5.262102 -17.576643 46.969593
v -7.267045 -16.846903 46.969593
v -5.358715 -17.899355 46.879295
v -3.244493 -18.400434 46.879295
v -13.565142 -13.989516 46.338142
v -14.023450 -11.284629 47.000000
v -14.294125 -11.502439 46.969593
v 4.168785 -19.035254 46.338142
v 6.476398 -18.378681 46.338142
v -17.965860 1.108096 47.000000
v -11.416814 15.335443 46.657955
v -7.452146 17.606390 46.657955
v -9.000000 15.588457 47.000000
v -15.329052 10.082076 46.969593
v -14.023450 11.284629 47.000000
v 17.456345 -4.390447 47.000000
v 17.965572 6.538933 46.657955
v 17.557489 6.390404 46.879295
v 18.603220 4.409044 46.657955
v 18.989290 2.219530 46.657955
v 18.557955 2.169114 46.879295
v 18.961138 4.493872 46.338142
v 18.542673 -2.296081 46.879295
v 17.793280 -4.475189 46.969593
v 17.108467 -6.627855 46.969593
v 18.208363 -2.254684 46.969593
v 17.422583 -6.749544 46.879295
v 13.302160 -12.126521 47.000000
v 15.858219 -8.515684 47.000000
v 12.438887 -14.518730 46.657955
v 13.119953 -13.906339 46.657955
v 10.763603 -16.243906 46.338142
v -1.066808 -18.316387 46.969593
v 3.244493 -18.400434 46.879295
v 3.319904 -18.828108 46.657955
v 7.572476 -17.554972 46.657955
v 5.262102 -17.576643 46.969593
v 3.925122 -17.922653 46.969593
v 6.209814 -17.622171 46.879295
v 10.320548 -15.575269 46.879295
v 8.328305 -16.725491 46.879295
v 3.850796 -17.583269 47.000000
v -17.084972 8.580395 46.657955
v 15.250060 10.795294 46.879295
v 9.173714 15.889338 46.969593
v 6.354146 18.031757 46.657955
v 7.572476 17.554972 46.657955
v 8.685834 17.443506 46.338142
v 11.416814 15.335443 46.657955
v 14.400620 13.127900 46.338142
v 10.956324 14.716897 46.969593
v 12.590769 13.345435 46.969593
v 13.558912 12.360582 46.969593
v -2.866014 18.463171 46.879295
v -0.565010 18.338726 46.969593
v -0.575384 18.675428 46.879295
v -0.588757 19.109495 46.657955
v -0.554311 17.991463 47.000000
v 3.383777 19.190355 46.338142
v 3.319904 18.828108 46.657955
v 4.090093 18.675936 46.657955
v 15.858219 8.515684 47.000000
v 16.395861 8.234310 46.969593
v 18.223370 2.130006 46.969593
v 17.852871 4.231208 46.969593
v 17.863569 2.211989 47.000000
v 17.240942 6.275190 46.969593
v 18.180653 4.308894 46.879295
v 16.696892 8.385494 46.879295
v -19.449438 -1.199600 46.338142
v -19.429392 3.631983 45.938850
v -19.154604 3.580616 46.338142
v -18.961138 4.493872 46.338142
v -18.989290 2.219530 46.657955
v -19.449438 1.199600 46.338142
v -19.082300 1.176956 46.657955
v -16.352375 -7.523286 47.000000
v -18.648853 -1.150222 46.879295
v -18.223370 -2.130006 46.969593
v -19.118563 0.000000 46.657955
v -18.684290 0.000000 46.879295
v -18.648853 1.150222 46.879295
v -18.557955 2.169114 46.879295
v -18.035028 -3.371331 46.969593
v -17.852871 -4.231208 46.969593
v -18.180653 -4.308894 46.879295
v -18.603220 -4.409044 46.657955
v -14.556568 -11.713627 46.879295
v -13.006769 -13.413675 46.879295
v -16.974030 -7.809292 46.879295
v -16.567669 -10.258265 46.338142
v -11.521508 -15.256942 46.657955
v -11.259801 -14.910386 46.879295
v -7.400469 -17.156216 46.879295
v -7.572476 -17.554972 46.657955
v -9.000000 -15.588457 47.000000
v -12.772267 -13.171837 46.969593
v -11.056795 -14.641563 46.969593
v 3.383777 -19.190355 46.338142
v -16.352375 7.523286 47.000000
v -17.965860 -1.108096 47.000000
v 19.118563 0.000000 46.657955
v 18.684290 0.000000 46.879295
v 19.233152 4.558341 45.938850
v 19.354637 2.262233 46.338142
v 16.461088 -8.839417 46.879295
v 12.821939 -13.590461 46.879295
v 13.807858 -12.587525 46.879295
v 13.558912 -12.360582 46.969593
v 14.691545 -10.399929 47.000000
v 14.927445 -12.525615 46.338142
v 14.400620 -13.127900 46.338142
v 13.372376 -14.173891 46.338142
v -1.086395 -18.652679 46.879295
v 6.354146 -18.031757 46.657955
v 6.097856 -17.304457 46.969593
v 10.560424 -15.937280 46.657955
v 7.400469 -17.156216 46.879295
v 8.178152 -16.423944 46.969593
v -15.973326 10.505822 46.657955
v -18.311224 6.664740 46.338142
v 14.975114 10.600663 46.969593
v 8.521876 17.114235 46.657955
v 8.328305 16.725491 46.879295
v 7.400469 17.156216 46.879295
v 9.342145 16.181070 46.879295
v 12.438887 14.518730 46.657955
v 14.128788 12.880093 46.657955
v 13.807858 12.587525 46.879295
v 12.821939 13.590461 46.879295
v -2.814342 18.130295 46.969593
v -5.113199 17.971029 46.879295
v 5.358715 17.899355 46.879295
v 3.850796 17.583269 47.000000
v 18.347427 0.000000 46.969593
v 17.456345 4.390447 47.000000
v -19.354637 -2.262233 46.338142
v -19.728456 1.216810 45.938850
v -19.486397 0.000000 46.338142
v -18.793032 3.513027 46.657955
v -19.354637 2.262233 46.338142
v -16.668001 -7.668497 46.969593
v -18.347427 0.000000 46.969593
v -18.312628 1.129484 46.969593
v -19.082300 -1.176956 46.657955
v -17.484034 -5.562072 46.969593
v -18.218882 -5.795843 46.657955
v -5.588761 -18.667763 46.338142
v -7.718167 -17.892723 46.338142
v -9.743198 -16.875715 46.338142
v -13.309080 -13.725444 46.657955
v -9.342145 -16.181070 46.879295
v -12.530411 -12.922415 47.000000
v -17.152956 5.456748 47.000000
v -17.240942 6.275190 46.969593
v 16.164307 -8.680050 46.969593
v 14.054945 -11.793499 46.969593
v 14.975114 -10.600663 46.969593
v 12.590769 -13.345435 46.969593
v 15.973326 -10.505822 46.657955
v 15.904737 -11.258730 46.338142
v 3.185997 -18.068689 46.969593
v 1.692887 -18.269161 46.969593
v 1.066808 -18.316387 46.969593
v 1.723969 -18.604588 46.879295
v -17.965572 6.538933 46.657955
v -17.702715 8.144541 46.338142
v -17.805046 5.664193 46.879295
v -17.557489 6.390404 46.879295
v -18.180653 4.308894 46.879295
v -16.696892 8.385494 46.879295
v 15.329052 10.082076 46.969593
v 14.312997 12.010031 46.879295
v 9.559281 16.557161 46.657955
v 3.244493 18.400434 46.879295
v 1.723969 18.604588 46.879295
v 5.262102 17.576643 46.969593
v 3.925122 17.922653 46.969593
v 1.066808 18.316387 46.969593
v 1.086395 18.652679 46.879295
v -18.366156 3.433229 46.879295
v -18.035028 3.371331 46.969593
v -18.312628 -1.129484 46.969593
v -5.483265 -18.315382 46.657955
v -9.173714 -15.889338 46.969593
v -9.559281 -16.557161 46.657955
v -18.223370 2.130006 46.969593
v -17.852871 4.231208 46.969593
v 15.329052 -10.082076 46.969593
v 14.312997 -12.010031 46.879295
v 15.250060 -10.795294 46.879295
v 15.610497 -10.267185 46.879295
v -17.368549 7.990801 46.657955
v -16.668001 7.668497 46.969593
v 14.054945 11.793499 46.969593
v 3.997188 18.251719 46.879295
v 3.185997 18.068689 46.969593
v -17.484034 5.562072 46.969593
v 14.645669 -12.289175 46.657955
v -16.974030 7.809292 46.879295
v -16.395861 8.234310 46.969593
v 1.692887 18.269161 46.969593
v 14.128788 -12.880093 46.657955
v 15.604511 -11.046206 46.657955
f 1 2 3
f 4 3 2
f 5 2 1
f 6 1 3
f 7 3 4
f 8 4 2
f 9 6 3
f 10 11 5
f 10 5 1
f 12 1 6
f 13 2 5
f 14 15 16
f 17 18 19
f 20 16 15
f 21 22 23
f 24 7 4
f 25 8 2
f 25 2 18
f 26 4 8
f 26 21 23
f 26 23 4
f 27 28 29
f 30 23 22
f 30 4 23
f 31 6 9
f 31 9 28
f 32 33 34
f 35 11 10
f 36 37 11
f 36 11 35
f 38 39 37
f 40 11 37
f 40 37 39
f 40 39 5
f 40 5 11
f 41 39 38
f 41 15 14
f 42 13 5
f 42 14 16
f 43 17 19
f 44 16 20
f 45 18 2
f 45 19 18
f 46 8 47
f 48 7 24
f 48 24 49
f 48 49 50
f 48 50 7
f 51 8 25
f 52 25 18
f 52 18 17
f 53 21 26
f 53 26 8
f 53 8 46
f 53 46 21
f 54 37 36
f 55 33 32
f 56 22 57
f 56 58 30
f 56 30 22
f 59 4 30
f 59 30 58
f 60 3 7
f 61 3 60
f 61 60 62
f 63 9 3
f 63 3 61
f 63 61 62
f 63 28 9
f 64 62 60
f 64 60 7
f 64 7 50
f 65 66 31
f 65 31 28
f 65 28 27
f 65 27 66
f 67 6 31
f 67 31 66
f 68 64 50
f 68 50 49
f 69 1 70
f 71 1 69
f 71 69 35
f 71 35 10
f 71 10 1
f 72 1 12
f 72 73 70
f 72 70 1
f 74 70 73
f 74 73 75
f 76 15 41
f 76 41 38
f 77 13 42
f 77 42 16
f 78 41 14
f 78 14 42
f 78 42 5
f 79 16 44
f 79 44 80
f 79 80 13
f 79 13 77
f 79 77 16
f 81 19 45
f 81 45 80
f 82 13 80
f 82 80 45
f 82 45 2
f 82 2 13
f 83 46 47
f 83 47 84
f 85 8 51
f 86 84 47
f 87 27 29
f 88 59 58
f 88 49 24
f 89 4 59
f 89 59 88
f 89 88 24
f 89 24 4
f 90 67 66
f 90 75 12
f 91 6 67
f 91 67 90
f 91 90 12
f 91 12 6
f 92 32 34
f 93 55 32
f 94 95 20
f 94 20 15
f 96 49 88
f 96 88 58
f 97 34 33
f 98 68 99
f 98 62 64
f 98 64 68
f 100 75 73
f 100 73 72
f 100 72 12
f 100 12 75
f 101 74 75
f 101 75 90
f 102 39 41
f 102 41 78
f 102 78 5
f 102 5 39
f 103 104 17
f 103 17 43
f 105 81 80
f 105 80 44
f 106 43 19
f 106 19 81
f 106 81 107
f 106 107 43
f 108 8 85
f 108 85 86
f 108 86 47
f 108 47 8
f 109 84 86
f 110 111 51
f 110 51 25
f 112 17 104
f 112 104 113
f 112 52 17
f 114 35 69
f 114 69 70
f 115 33 55
f 116 55 93
f 117 95 94
f 118 119 96
f 118 96 58
f 120 96 119
f 121 122 123
f 124 87 125
f 124 126 87
f 127 32 92
f 128 81 105
f 128 105 129
f 128 130 107
f 128 107 81
f 131 93 32
f 132 107 130
f 133 21 46
f 133 46 83
f 134 135 133
f 134 133 83
f 136 111 109
f 136 109 86
f 136 86 85
f 136 85 51
f 136 51 111
f 137 52 112
f 137 112 111
f 137 111 110
f 137 110 25
f 137 25 52
f 138 109 111
f 138 111 112
f 138 112 139
f 140 55 116
f 141 114 70
f 141 70 74
f 142 36 35
f 142 35 114
f 142 114 143
f 144 33 115
f 145 27 146
f 145 146 66
f 145 66 27
f 147 126 146
f 147 146 27
f 147 27 87
f 147 87 126
f 148 146 126
f 149 141 74
f 150 74 101
f 151 115 55
f 152 29 28
f 152 87 29
f 153 87 152
f 153 125 87
f 154 155 152
f 154 152 28
f 154 28 63
f 154 63 62
f 156 140 116
f 157 129 105
f 157 105 44
f 158 159 160
f 161 117 162
f 163 95 117
f 164 34 97
f 165 166 57
f 165 57 22
f 167 58 56
f 167 56 57
f 168 119 118
f 168 118 169
f 170 68 49
f 170 49 96
f 170 96 120
f 171 120 119
f 172 121 123
f 173 97 33
f 174 97 173
f 174 173 175
f 176 94 15
f 176 117 94
f 177 178 83
f 177 83 84
f 179 84 109
f 180 32 127
f 181 182 138
f 181 138 139
f 183 103 43
f 183 184 104
f 183 104 103
f 185 92 34
f 186 187 188
f 189 178 187
f 189 187 186
f 189 134 83
f 189 83 178
f 190 36 142
f 190 142 191
f 192 193 194
f 195 142 143
f 196 197 144
f 196 144 115
f 198 33 144
f 199 101 90
f 199 90 66
f 200 201 154
f 200 154 62
f 200 62 98
f 202 116 93
f 203 140 156
f 204 157 44
f 204 44 20
f 204 20 95
f 205 159 158
f 205 206 207
f 208 93 206
f 208 206 205
f 208 205 158
f 208 158 160
f 208 160 209
f 210 116 202
f 210 202 209
f 211 116 210
f 211 161 162
f 212 161 211
f 212 211 210
f 212 210 209
f 212 209 160
f 212 163 117
f 212 117 161
f 213 34 164
f 214 133 135
f 214 165 22
f 214 22 21
f 214 21 133
f 215 166 169
f 215 169 118
f 215 118 167
f 215 167 57
f 215 57 166
f 216 58 167
f 216 167 118
f 216 118 58
f 217 168 169
f 218 120 171
f 218 170 120
f 219 168 217
f 219 171 119
f 219 119 168
f 220 98 99
f 220 99 172
f 221 124 125
f 221 126 124
f 222 223 224
f 222 224 225
f 226 227 228
f 226 228 229
f 226 229 200
f 226 200 98
f 226 98 227
f 230 228 227
f 231 232 123
f 231 123 122
f 231 122 97
f 233 232 231
f 233 231 97
f 233 97 174
f 234 235 232
f 234 232 233
f 234 233 174
f 236 15 76
f 236 176 15
f 237 127 92
f 238 187 178
f 238 178 177
f 239 240 241
f 239 241 242
f 243 242 244
f 243 244 109
f 245 179 109
f 245 109 244
f 246 84 179
f 246 179 247
f 248 249 250
f 248 250 32
f 248 32 180
f 248 180 251
f 252 180 127
f 253 254 241
f 255 207 206
f 255 206 93
f 255 93 131
f 256 131 32
f 257 183 43
f 257 43 107
f 258 139 112
f 258 259 139
f 260 184 183
f 260 183 261
f 262 135 134
f 262 134 189
f 262 189 186
f 262 186 188
f 263 38 37
f 264 76 38
f 265 266 264
f 267 268 55
f 269 55 140
f 270 54 36
f 270 36 190
f 271 272 273
f 271 273 274
f 275 268 267
f 275 267 276
f 275 277 278
f 279 277 275
f 279 275 276
f 279 193 192
f 280 281 194
f 280 282 281
f 283 279 192
f 283 192 114
f 283 114 141
f 284 143 114
f 284 114 192
f 284 192 194
f 285 142 195
f 285 274 273
f 285 190 191
f 285 191 142
f 286 287 288
f 286 288 197
f 286 197 196
f 286 196 115
f 286 115 287
f 289 197 288
f 289 148 126
f 290 149 74
f 290 74 150
f 291 55 268
f 291 268 292
f 291 151 55
f 293 154 201
f 293 201 225
f 293 225 224
f 294 201 200
f 294 200 229
f 295 140 203
f 296 163 212
f 296 212 160
f 296 160 159
f 296 159 157
f 296 157 204
f 296 204 95
f 296 95 163
f 297 129 157
f 297 157 159
f 297 159 205
f 297 205 130
f 297 130 128
f 297 128 129
f 298 202 93
f 298 93 208
f 298 208 209
f 298 209 202
f 299 211 162
f 300 116 211
f 300 211 299
f 300 299 156
f 300 156 116
f 301 213 164
f 302 303 304
f 302 304 135
f 302 135 262
f 302 262 303
f 305 304 306
f 307 214 135
f 307 135 304
f 308 217 169
f 309 310 217
f 309 217 308
f 309 308 311
f 309 311 213
f 309 213 301
f 309 301 164
f 309 164 310
f 312 171 219
f 312 219 217
f 312 217 310
f 313 164 97
f 314 164 313
f 314 310 164
f 315 172 99
f 315 99 316
f 315 121 172
f 317 227 98
f 317 98 220
f 317 220 172
f 318 198 144
f 318 144 197
f 318 197 289
f 319 320 224
f 319 224 223
f 319 125 320
f 321 229 228
f 322 323 223
f 322 223 222
f 322 222 324
f 325 232 235
f 325 235 230
f 325 123 232
f 326 321 228
f 326 228 230
f 326 230 235
f 327 323 322
f 327 322 173
f 327 173 33
f 328 176 236
f 329 188 187
f 330 251 180
f 330 180 252
f 330 252 240
f 331 181 139
f 331 139 259
f 331 249 332
f 331 332 182
f 331 182 181
f 333 243 109
f 333 109 138
f 333 138 182
f 334 179 245
f 334 245 244
f 334 244 242
f 334 242 241
f 334 241 254
f 335 84 246
f 335 177 84
f 336 240 252
f 336 252 127
f 336 127 253
f 336 253 241
f 336 241 240
f 337 253 127
f 337 127 237
f 337 237 338
f 339 340 341
f 339 132 130
f 342 132 339
f 342 339 341
f 342 261 183
f 342 183 257
f 342 257 107
f 342 107 132
f 343 131 256
f 344 113 104
f 344 104 184
f 344 184 260
f 344 260 345
f 344 258 112
f 344 112 113
f 346 259 258
f 346 258 344
f 346 344 345
f 347 185 348
f 347 92 185
f 349 306 350
f 351 34 349
f 351 349 350
f 351 185 34
f 352 348 185
f 352 350 303
f 352 303 348
f 353 304 303
f 353 303 350
f 353 350 306
f 353 306 304
f 354 348 303
f 354 303 262
f 354 262 188
f 354 188 348
f 355 54 270
f 355 270 190
f 356 38 263
f 356 263 357
f 356 357 38
f 358 38 357
f 358 357 265
f 358 265 264
f 358 264 38
f 359 360 361
f 362 267 55
f 362 55 269
f 362 269 282
f 363 272 364
f 363 273 272
f 365 363 366
f 365 361 360
f 367 361 365
f 367 365 366
f 367 368 359
f 367 359 361
f 369 364 272
f 369 272 271
f 369 140 364
f 370 269 140
f 370 140 369
f 370 369 271
f 370 271 371
f 370 371 281
f 372 281 371
f 372 371 271
f 372 271 274
f 372 274 285
f 372 285 195
f 372 195 143
f 373 292 268
f 373 268 275
f 373 275 278
f 373 374 292
f 375 193 279
f 375 279 276
f 375 276 267
f 375 282 280
f 375 280 194
f 375 194 193
f 376 277 279
f 376 279 283
f 376 283 141
f 376 141 149
f 376 149 278
f 376 278 277
f 377 378 374
f 379 380 288
f 379 288 287
f 381 287 115
f 381 115 151
f 382 292 374
f 382 374 378
f 382 378 383
f 382 383 151
f 384 320 125
f 384 125 153
f 384 153 152
f 384 152 155
f 384 155 154
f 384 154 293
f 384 293 224
f 384 224 320
f 385 203 156
f 386 364 140
f 386 140 295
f 387 388 308
f 387 308 169
f 387 169 166
f 387 166 305
f 387 305 306
f 387 306 388
f 389 214 307
f 389 165 214
f 390 305 166
f 390 166 165
f 390 165 389
f 390 389 307
f 390 307 304
f 390 304 305
f 391 171 312
f 391 312 310
f 392 393 394
f 392 122 121
f 392 121 315
f 392 315 316
f 395 314 313
f 396 397 68
f 396 68 170
f 398 99 68
f 398 68 397
f 398 316 99
f 399 126 221
f 399 221 318
f 399 318 289
f 399 289 126
f 400 225 201
f 400 201 294
f 400 294 229
f 400 229 321
f 400 321 324
f 400 324 222
f 400 222 225
f 401 173 322
f 401 322 324
f 401 324 175
f 401 175 173
f 402 172 123
f 402 123 325
f 402 325 230
f 402 230 227
f 402 227 317
f 402 317 172
f 403 321 326
f 403 175 324
f 403 324 321
f 404 234 174
f 404 174 175
f 404 175 403
f 404 403 326
f 404 326 235
f 404 235 234
f 405 176 328
f 405 328 162
f 405 162 117
f 405 117 176
f 406 264 266
f 406 76 264
f 407 188 329
f 408 332 409
f 408 243 333
f 408 333 182
f 408 182 332
f 410 249 248
f 410 248 251
f 410 251 409
f 410 409 332
f 410 332 249
f 411 330 240
f 411 240 239
f 411 409 251
f 411 251 330
f 412 179 334
f 412 334 254
f 412 247 179
f 413 414 238
f 413 238 177
f 413 177 335
f 413 335 246
f 413 246 247
f 415 254 253
f 415 253 337
f 415 337 338
f 415 338 414
f 415 414 413
f 415 413 247
f 415 247 412
f 415 412 254
f 416 340 339
f 416 339 207
f 416 207 255
f 416 255 131
f 416 131 343
f 416 343 340
f 417 207 339
f 417 339 130
f 417 130 205
f 417 205 207
f 418 249 331
f 418 331 259
f 418 259 346
f 419 256 32
f 420 311 308
f 420 308 388
f 420 388 306
f 420 306 349
f 420 349 34
f 420 34 213
f 420 213 311
f 421 185 351
f 421 351 350
f 421 350 352
f 421 352 185
f 422 285 273
f 422 273 355
f 422 355 190
f 422 190 285
f 423 54 360
f 423 360 263
f 423 263 37
f 423 37 54
f 424 355 365
f 424 365 360
f 424 360 54
f 424 54 355
f 425 265 357
f 425 357 359
f 426 360 359
f 426 359 357
f 426 357 263
f 426 263 360
f 427 267 362
f 427 362 282
f 427 282 375
f 427 375 267
f 428 366 363
f 428 386 295
f 428 295 429
f 428 429 367
f 428 367 366
f 430 363 365
f 430 365 355
f 430 355 273
f 430 273 363
f 431 269 370
f 431 370 281
f 431 281 282
f 431 282 269
f 432 281 372
f 432 372 143
f 432 143 284
f 432 284 194
f 432 194 281
f 433 434 199
f 433 199 66
f 433 66 146
f 435 434 380
f 435 377 150
f 435 150 101
f 435 101 199
f 435 199 434
f 436 290 150
f 436 150 377
f 436 377 374
f 436 374 373
f 436 373 278
f 436 278 149
f 436 149 290
f 437 380 379
f 437 379 287
f 438 291 292
f 438 292 382
f 438 382 151
f 438 151 291
f 439 203 385
f 439 385 440
f 441 391 310
f 441 310 314
f 442 443 395
f 442 395 313
f 442 313 394
f 442 394 393
f 444 122 392
f 444 392 394
f 444 394 313
f 444 313 97
f 444 97 122
f 445 218 171
f 446 396 170
f 446 170 218
f 447 33 448
f 447 319 223
f 447 223 323
f 447 323 327
f 447 327 33
f 449 198 318
f 449 318 221
f 449 448 33
f 449 33 198
f 450 319 447
f 450 447 448
f 450 448 449
f 450 449 221
f 450 221 125
f 450 125 319
f 451 406 266
f 452 236 76
f 452 76 406
f 452 406 451
f 452 328 236
f 453 440 454
f 453 454 451
f 453 451 266
f 453 266 265
f 453 265 455
f 456 162 328
f 457 188 407
f 457 407 92
f 457 92 347
f 457 347 348
f 457 348 188
f 458 407 329
f 458 329 187
f 458 187 238
f 458 238 414
f 459 242 243
f 459 243 408
f 459 408 409
f 459 409 411
f 459 411 239
f 459 239 242
f 460 345 260
f 460 260 461
f 460 346 345
f 462 250 249
f 462 249 418
f 462 463 419
f 462 419 32
f 462 32 250
f 464 340 343
f 464 343 256
f 465 261 342
f 465 342 341
f 465 341 340
f 465 340 464
f 465 464 461
f 465 461 260
f 465 260 261
f 466 368 467
f 466 455 265
f 466 265 425
f 466 425 359
f 466 359 368
f 468 364 386
f 468 386 428
f 468 428 363
f 468 363 364
f 469 148 289
f 469 289 288
f 469 288 380
f 469 380 434
f 469 434 433
f 469 433 146
f 469 146 148
f 470 383 378
f 470 378 437
f 470 437 287
f 470 287 381
f 470 381 151
f 470 151 383
f 471 377 435
f 471 435 380
f 471 380 437
f 471 437 378
f 471 378 377
f 472 295 203
f 472 203 467
f 472 467 368
f 472 368 367
f 472 367 429
f 472 429 295
f 473 467 203
f 473 203 439
f 473 453 455
f 473 455 466
f 473 466 467
f 474 391 441
f 474 441 314
f 474 314 395
f 474 395 443
f 475 476 443
f 475 443 442
f 475 442 393
f 477 445 171
f 477 171 391
f 477 391 474
f 477 474 443
f 477 443 476
f 478 328 452
f 478 452 451
f 479 440 385
f 480 338 237
f 480 237 92
f 480 92 407
f 480 407 458
f 480 458 414
f 480 414 338
f 481 418 346
f 481 346 460
f 481 463 462
f 481 462 418
f 482 463 481
f 482 481 460
f 482 460 461
f 482 256 419
f 482 419 463
f 483 440 453
f 483 453 473
f 483 473 439
f 483 439 440
f 484 396 446
f 484 475 393
f 485 454 440
f 485 440 479
f 485 456 328
f 485 328 478
f 485 478 451
f 485 451 454
f 486 156 299
f 486 299 162
f 486 162 456
f 486 456 485
f 486 485 479
f 486 479 385
f 486 385 156
f 487 464 256
f 487 256 482
f 487 482 461
f 487 461 464
f 488 397 396
f 488 396 484
f 488 484 393
f 488 393 392
f 488 392 316
f 488 316 398
f 488 398 397
f 489 445 477
f 489 477 476
f 489 476 475
f 489 475 484
f 489 484 446
f 489 446 218
f 489 218 445
