# Normalized convex hull collision mesh - generated by scripts/generate-collision-meshes.mjs (units: meters)
v -0.010297 -0.015394 -0.027500
v -0.007647 0.017059 -0.027500
v 0.008923 -0.016768 -0.027500
v -0.010588 0.014118 -0.027500
v -0.007647 -0.017059 -0.027500
v 0.015882 -0.020000 -0.008403
v -0.015882 -0.020000 -0.008403
v 0.010297 0.015394 -0.027500
v -0.015882 -0.020000 0.006111
v -0.008923 -0.016768 -0.027500
v -0.020000 -0.015882 0.006111
v -0.020000 0.015882 0.006111
v -0.020000 0.015882 -0.008403
v -0.011627 0.000000 0.026689
v -0.020000 -0.015882 -0.008403
v -0.019921 -0.016686 -0.008403
v 0.007647 -0.017059 -0.027500
v 0.008923 0.016768 -0.027500
v -0.000326 0.010583 0.027500
v -0.004127 -0.009751 0.027500
v 0.010588 -0.000000 0.027500
v 0.005849 -0.008826 0.027500
v 0.015882 -0.020000 0.006111
v -0.015882 0.020000 0.006111
v -0.000358 0.011622 0.026689
v 0.015882 0.020000 0.006111
v -0.019306 0.018170 0.006111
v -0.018794 0.018794 0.006111
v -0.019306 0.018170 -0.008403
v -0.019687 0.017458 0.006111
v -0.019921 0.016686 0.006111
v -0.009481 0.016417 -0.027500
v -0.019921 0.016686 -0.008403
v -0.016686 -0.019921 -0.008403
v -0.019921 -0.016686 0.006111
v -0.019687 -0.017458 0.006111
v -0.011605 -0.000716 0.026689
v -0.010588 -0.014118 -0.027500
v 0.010588 -0.014118 -0.027500
v 0.009481 -0.016417 -0.027500
v 0.008302 -0.016985 -0.027500
v 0.015882 0.020000 -0.008403
v 0.020000 0.015882 -0.008403
v 0.020000 0.015882 0.006111
v 0.020000 -0.015882 0.006111
v 0.006889 0.008041 0.027500
v -0.016686 -0.019921 0.006111
v 0.000676 -0.011607 0.026689
v 0.016686 -0.019921 0.006111
v -0.010568 0.000652 0.027500
v -0.017458 0.019687 0.006111
v -0.005731 0.009927 0.026994
v -0.004468 0.010556 0.026994
v -0.008923 0.016768 -0.027500
v -0.010297 0.015394 -0.027500
v -0.018170 0.019306 -0.008403
v -0.017458 0.019687 -0.008403
v -0.019687 0.017458 -0.008403
v -0.008302 -0.016985 -0.027500
v -0.011548 -0.001350 0.026689
v -0.011441 -0.000706 0.026994
v -0.011463 0.000000 0.026994
v -0.011385 -0.001331 0.026994
v -0.011246 0.000000 0.027239
v -0.010514 -0.014772 -0.027500
v 0.010297 -0.015394 -0.027500
v 0.017458 -0.019687 -0.008403
v 0.017458 -0.019687 0.006111
v 0.019306 0.018170 -0.008403
v 0.019687 0.017458 -0.008403
v 0.009481 0.016417 -0.027500
v -0.015882 0.020000 -0.008403
v 0.007647 0.017059 -0.027500
v 0.019921 0.016686 -0.008403
v 0.020000 -0.015882 -0.008403
v 0.019921 -0.016686 -0.008403
v 0.010588 0.014118 -0.027500
v 0.000977 -0.010543 0.027500
v -0.001990 -0.011288 0.026994
v -0.003288 -0.010981 0.026994
v -0.002019 -0.011450 0.026689
v -0.000676 -0.011607 0.026689
v -0.000666 -0.011443 0.026994
v 0.003288 -0.010981 0.026994
v 0.003225 -0.010774 0.027239
v 0.002452 -0.011197 0.026994
v -0.006845 0.009194 0.026994
v -0.007866 0.008338 0.026994
v 0.018794 0.018794 0.006111
v 0.018794 0.018794 -0.008403
v -0.010923 0.003475 0.026994
v -0.011225 -0.000692 0.027239
v -0.010970 -0.000677 0.027408
v -0.010916 -0.001276 0.027408
v -0.010720 -0.001253 0.027477
v -0.007371 0.007601 0.027500
v -0.008249 -0.006638 0.027500
v -0.008302 0.016985 -0.027500
v -0.010514 0.014772 -0.027500
v -0.009947 0.015951 -0.027500
v -0.018794 0.018794 -0.008403
v -0.018170 0.019306 0.006111
v -0.019687 -0.017458 -0.008403
v -0.019306 -0.018170 -0.008403
v -0.009947 -0.015951 -0.027500
v 0.010514 -0.014772 -0.027500
v 0.009947 -0.015951 -0.027500
v 0.018794 -0.018794 -0.008403
v 0.019306 -0.018170 -0.008403
v 0.019306 -0.018170 0.006111
v 0.016686 -0.019921 -0.008403
v 0.018170 -0.019306 -0.008403
v 0.009947 0.015951 -0.027500
v 0.011627 0.000000 0.026689
v 0.011539 -0.001429 0.026689
v 0.010514 0.014772 -0.027500
v 0.009873 0.003825 0.027500
v 0.019921 -0.016686 0.006111
v 0.011276 -0.002836 0.026689
v 0.010099 -0.005423 0.026994
v 0.010689 -0.004141 0.026994
v 0.009908 -0.005321 0.027239
v 0.009328 -0.005009 0.027500
v 0.010487 -0.004063 0.027239
v -0.001624 -0.010463 0.027500
v 0.018170 0.019306 0.006111
v 0.017458 0.019687 -0.008403
v 0.017458 0.019687 0.006111
v 0.019921 0.016686 0.006111
v 0.016686 0.019921 -0.008403
v 0.016686 0.019921 0.006111
v 0.001073 0.011577 0.026689
v 0.003288 0.010981 0.026994
v 0.002452 0.011197 0.026994
v 0.003519 0.009986 0.027500
v -0.011441 0.000706 0.026994
v -0.011225 0.000692 0.027239
v -0.011548 0.001350 0.026689
v -0.011385 0.001331 0.026994
v -0.011154 0.002643 0.026994
v -0.010243 0.005144 0.026994
v -0.009577 0.006299 0.026994
v -0.010413 0.004791 0.026994
v -0.010923 -0.003475 0.026994
v -0.010772 -0.000664 0.027477
v -0.009619 0.004425 0.027500
v -0.004127 0.009751 0.027500
v -0.010090 -0.003210 0.027500
v -0.003137 0.011025 0.026994
v -0.001783 0.011489 0.026689
v -0.001758 0.011327 0.026994
v -0.001655 0.010665 0.027477
v -0.000332 0.010787 0.027477
v -0.016686 0.019921 -0.008403
v -0.017458 -0.019687 -0.008403
v -0.018170 -0.019306 -0.008403
v -0.009481 -0.016417 -0.027500
v 0.019687 -0.017458 -0.008403
v 0.018170 -0.019306 0.006111
v 0.011116 -0.002796 0.026994
v 0.011548 0.001350 0.026689
v -0.005396 0.009347 0.027477
v -0.004207 0.009939 0.027477
v -0.006716 0.009021 0.027239
v -0.007718 0.008180 0.027239
v -0.006563 0.008816 0.027408
v -0.005623 0.009740 0.027239
v 0.009577 -0.006299 0.026994
v 0.009356 -0.006623 0.026994
v 0.009179 -0.006498 0.027239
v 0.010467 -0.002632 0.027477
v 0.010659 -0.002681 0.027408
v 0.010907 -0.001351 0.027408
v 0.010249 -0.003970 0.027408
v 0.007317 -0.008540 0.027239
v 0.006716 -0.009021 0.027239
v 0.007458 -0.008705 0.026994
v 0.007718 -0.008180 0.027239
v -0.000326 -0.010583 0.027500
v -0.003225 -0.010774 0.027239
v -0.001909 -0.010824 0.027408
v -0.003152 -0.010529 0.027408
v -0.001874 -0.010629 0.027477
v -0.000654 -0.011227 0.027239
v -0.000639 -0.010972 0.027408
v -0.007979 -0.008229 0.026994
v -0.008930 -0.007186 0.026994
v -0.018794 -0.018794 0.006111
v -0.006908 -0.009147 0.026994
v -0.018170 -0.019306 0.006111
v -0.005731 -0.009927 0.026994
v -0.019306 -0.018170 0.006111
v -0.018794 -0.018794 -0.008403
v -0.007513 -0.007748 0.027477
v -0.008408 -0.006766 0.027477
v -0.007651 -0.007890 0.027408
v -0.005294 -0.009170 0.027500
v -0.006623 -0.008771 0.027408
v 0.003519 -0.009986 0.027500
v 0.006212 -0.009375 0.027239
v 0.006563 -0.008816 0.027408
v 0.006332 -0.009555 0.026994
v 0.001990 -0.011288 0.026994
v 0.001038 -0.011198 0.027239
v 0.001058 -0.011414 0.026994
v 0.002019 -0.011450 0.026689
v 0.000639 -0.010972 0.027408
v 0.003810 -0.010811 0.026994
v 0.004540 -0.010525 0.026994
v 0.008615 0.007229 0.027239
v 0.008311 0.007577 0.027239
v 0.008122 0.007404 0.027408
v 0.008781 0.007368 0.026994
v 0.008471 0.007722 0.026994
v 0.018170 0.019306 -0.008403
v 0.019687 0.017458 0.006111
v 0.010771 0.003920 0.026994
v 0.011314 0.002681 0.026689
v 0.011385 0.001331 0.026994
v 0.008302 0.016985 -0.027500
v 0.002019 0.011450 0.026689
v 0.003225 0.010774 0.027239
v 0.003152 0.010529 0.027408
v 0.003738 0.010607 0.027239
v 0.004720 0.009478 0.027500
v -0.010970 0.000677 0.027408
v -0.011605 0.000716 0.026689
v -0.011429 0.002136 0.026689
v -0.008781 0.007368 0.026994
v -0.010771 -0.003920 0.026994
v -0.010413 -0.004791 0.026994
v -0.011154 -0.002643 0.026994
v -0.010943 -0.002594 0.027239
v -0.010771 0.003920 0.026994
v -0.008268 0.006937 0.027477
v -0.007406 0.007850 0.027477
v -0.010050 0.005047 0.027239
v -0.010217 0.004700 0.027239
v -0.010090 0.003210 0.027500
v -0.008249 0.006638 0.027500
v -0.009017 0.005931 0.027477
v -0.009645 0.004844 0.027477
v -0.009805 0.004511 0.027477
v -0.009746 -0.006034 0.026994
v -0.008762 -0.007051 0.027239
v -0.009562 -0.005920 0.027239
v -0.009176 -0.005682 0.027477
v -0.010050 -0.005047 0.027239
v -0.010568 -0.000652 0.027500
v -0.004384 0.010357 0.027239
v -0.016686 0.019921 0.006111
v -0.001624 0.010463 0.027500
v 0.006845 -0.009194 0.026994
v 0.005731 -0.009927 0.026994
v 0.005623 -0.009740 0.027239
v 0.010907 -0.002743 0.027239
v 0.019687 -0.017458 0.006111
v 0.007542 0.007994 0.027408
v 0.007718 0.008180 0.027239
v 0.008642 0.006118 0.027500
v 0.008419 0.007065 0.027408
v -0.006445 0.008657 0.027477
v -0.005495 0.009518 0.027408
v 0.008781 -0.007368 0.026994
v 0.007866 -0.008338 0.026994
v 0.009396 -0.006180 0.027239
v 0.007542 -0.007994 0.027408
v 0.007825 -0.007133 0.027500
v 0.010268 -0.002583 0.027500
v 0.010711 -0.001326 0.027477
v 0.010064 -0.003899 0.027477
v -0.004454 -0.010326 0.027239
v -0.002898 -0.010184 0.027500
v -0.000628 -0.010774 0.027477
v -0.001953 -0.011075 0.027239
v -0.007829 -0.008074 0.027239
v -0.017458 -0.019687 0.006111
v -0.006381 -0.008450 0.027500
v 0.004720 -0.009478 0.027500
v 0.005495 -0.009518 0.027408
v 0.004899 -0.009839 0.027408
v 0.001073 -0.011577 0.026689
v 0.000666 -0.011443 0.026994
v 0.002406 -0.010986 0.027239
v 0.003152 -0.010529 0.027408
v 0.000654 -0.011227 0.027239
v 0.009396 0.006180 0.027239
v 0.009183 0.006040 0.027408
v 0.010050 0.005047 0.027239
v 0.009577 0.006299 0.026994
v 0.009822 0.004933 0.027408
v 0.009356 0.006623 0.026994
v 0.007458 0.008705 0.026994
v 0.006845 0.009194 0.026994
v 0.006332 0.009555 0.026994
v 0.005731 0.009927 0.026994
v 0.019306 0.018170 0.006111
v 0.010243 0.005144 0.026994
v -0.000353 0.011457 0.026994
v 0.002265 0.010343 0.027500
v 0.000977 0.010543 0.027500
v 0.001874 0.010629 0.027477
v 0.003095 0.010339 0.027477
v 0.002351 0.010736 0.027408
v 0.003587 0.010179 0.027477
v 0.003810 0.010811 0.026994
v 0.004540 0.010525 0.026994
v 0.005109 0.010261 0.026994
v 0.003653 0.010366 0.027408
v 0.005013 0.010067 0.027239
v 0.005849 0.008826 0.027500
v 0.006445 0.008657 0.027477
v 0.005961 0.008997 0.027477
v -0.011170 0.001306 0.027239
v -0.010991 0.000000 0.027408
v -0.010916 0.001276 0.027408
v -0.010804 0.002020 0.027408
v -0.011429 -0.002136 0.026689
v -0.011170 -0.001306 0.027239
v -0.011267 -0.002106 0.026994
v -0.007542 0.007994 0.027408
v -0.009396 0.006180 0.027239
v -0.010720 0.001253 0.027477
v -0.010142 0.003691 0.027477
v -0.009002 0.005574 0.027500
v -0.010243 -0.005144 0.026994
v -0.008563 -0.006890 0.027408
v -0.009345 -0.005786 0.027408
v -0.009619 -0.004425 0.027500
v -0.010142 -0.003691 0.027477
v -0.010568 -0.003846 0.027239
v -0.010408 -0.001946 0.027500
v -0.009805 -0.004511 0.027477
v -0.009985 -0.004594 0.027408
v -0.004284 0.010121 0.027408
v -0.002954 0.010381 0.027477
v -0.002898 0.010184 0.027500
v 0.005109 -0.010261 0.026994
v 0.011376 -0.001409 0.026994
v 0.009328 0.005009 0.027500
v 0.009017 0.005931 0.027477
v 0.007022 0.008196 0.027477
v 0.007406 0.007850 0.027477
v 0.007825 0.007133 0.027500
v 0.008268 0.006937 0.027477
v 0.010568 0.003846 0.027239
v 0.010943 0.002594 0.027239
v 0.011154 0.002643 0.026994
v 0.010508 0.001301 0.027500
v 0.010916 0.001276 0.027408
v 0.010695 0.002535 0.027408
v 0.010502 0.002489 0.027477
v -0.005294 0.009170 0.027500
v -0.006381 0.008450 0.027500
v 0.008615 -0.007229 0.027239
v 0.018794 -0.018794 0.006111
v 0.008471 -0.007722 0.026994
v 0.009183 -0.006040 0.027408
v 0.007151 -0.008346 0.027408
v 0.007406 -0.007850 0.027477
v 0.007976 -0.007271 0.027477
v 0.010508 -0.001301 0.027500
v 0.009873 -0.003825 0.027500
v -0.004540 -0.010525 0.026994
v -0.003095 -0.010339 0.027477
v 0.000628 -0.010774 0.027477
v 0.000996 -0.010747 0.027477
v -0.006777 -0.008975 0.027239
v -0.007371 -0.007601 0.027500
v -0.006504 -0.008613 0.027477
v 0.003095 -0.010339 0.027477
v 0.003587 -0.010179 0.027477
v 0.002265 -0.010343 0.027500
v 0.002309 -0.010543 0.027477
v 0.005396 -0.009347 0.027477
v 0.004811 -0.009661 0.027477
v 0.004353 -0.010092 0.027408
v 0.003738 -0.010607 0.027239
v 0.009645 0.004844 0.027477
v 0.009179 0.006498 0.027239
v 0.007317 0.008540 0.027239
v 0.007866 0.008338 0.026994
v 0.002406 0.010986 0.027239
v 0.000676 0.011607 0.026689
v 0.001990 0.011288 0.026994
v 0.001058 0.011414 0.026994
v 0.001038 0.011198 0.027239
v 0.001953 0.011075 0.027239
v -0.001686 0.010861 0.027408
v -0.003008 0.010571 0.027408
v -0.003078 0.010817 0.027239
v -0.001725 0.011113 0.027239
v 0.002309 0.010543 0.027477
v -0.000338 0.010986 0.027408
v 0.000628 0.010774 0.027477
v 0.001909 0.010824 0.027408
v 0.001014 0.010944 0.027408
v 0.004275 0.009910 0.027477
v 0.004811 0.009661 0.027477
v 0.004353 0.010092 0.027408
v 0.005396 0.009347 0.027477
v 0.004454 0.010326 0.027239
v -0.009985 0.004594 0.027408
v -0.010328 0.003759 0.027408
v -0.010717 0.003409 0.027239
v -0.011267 0.002106 0.026994
v -0.011055 -0.002066 0.027239
v -0.008419 0.007065 0.027408
v -0.008615 0.007229 0.027239
v -0.010793 0.000000 0.027477
v -0.010408 0.001946 0.027500
v -0.010502 0.002489 0.027477
v -0.009822 -0.004933 0.027408
v -0.009002 -0.005574 0.027500
v -0.010717 -0.003409 0.027239
v -0.010217 -0.004700 0.027239
v -0.010502 -0.002489 0.027477
v -0.009645 -0.004844 0.027477
v 0.011463 0.000000 0.026994
v 0.007976 0.007271 0.027477
v 0.008809 0.006236 0.027477
v 0.010328 0.003759 0.027408
v 0.010268 0.002583 0.027500
v 0.010720 0.001253 0.027477
v 0.008311 -0.007577 0.027239
v 0.009683 -0.005200 0.027408
v 0.008268 -0.006937 0.027477
v 0.006889 -0.008041 0.027500
v 0.006445 -0.008657 0.027477
v -0.004353 -0.010092 0.027408
v -0.005495 -0.009518 0.027408
v -0.005623 -0.009740 0.027239
v 0.002351 -0.010736 0.027408
v 0.001909 -0.010824 0.027408
v 0.001874 -0.010629 0.027477
v 0.001014 -0.010944 0.027408
v 0.001953 -0.011075 0.027239
v 0.006071 -0.009162 0.027408
v 0.004275 -0.009910 0.027477
v 0.004454 -0.010326 0.027239
v 0.003653 -0.010366 0.027408
v 0.010142 0.003691 0.027477
v 0.007151 0.008346 0.027408
v 0.006716 0.009021 0.027239
v 0.000666 0.011443 0.026994
v 0.000654 0.011227 0.027239
v -0.000346 0.011241 0.027239
v 0.000996 0.010747 0.027477
v 0.000639 0.010972 0.027408
v 0.005495 0.009518 0.027408
v -0.009183 0.006040 0.027408
v -0.010943 0.002594 0.027239
v -0.010568 0.003846 0.027239
v -0.010804 -0.002020 0.027408
v -0.010695 -0.002535 0.027408
v -0.010772 0.000664 0.027477
v -0.010285 0.003272 0.027477
v -0.010609 0.001983 0.027477
v -0.010474 -0.003332 0.027408
v -0.010609 -0.001983 0.027477
v -0.010285 -0.003272 0.027477
v 0.011170 0.001306 0.027239
v 0.011161 -0.001382 0.027239
v 0.008971 0.006350 0.027408
v 0.010793 0.000000 0.027477
v 0.010991 0.000000 0.027408
v 0.009508 -0.005106 0.027477
v 0.008642 -0.006118 0.027500
v 0.008122 -0.007404 0.027408
v 0.007022 -0.008196 0.027477
v -0.005396 -0.009347 0.027477
v -0.004275 -0.009910 0.027477
v 0.005961 -0.008997 0.027477
v 0.005013 -0.010067 0.027239
v 0.006212 0.009375 0.027239
v 0.004899 0.009839 0.027408
v 0.006563 0.008816 0.027408
v -0.009822 0.004933 0.027408
v -0.011055 0.002066 0.027239
v -0.010695 0.002535 0.027408
v -0.010328 -0.003759 0.027408
v 0.011246 0.000000 0.027239
v 0.009017 -0.005931 0.027477
v 0.008419 -0.007065 0.027408
v 0.005623 0.009740 0.027239
v 0.006071 0.009162 0.027408
v -0.010474 0.003332 0.027408
v 0.008809 -0.006236 0.027477
v 0.008971 -0.006350 0.027408
f 1 2 3
f 4 2 1
f 5 1 3
f 6 7 5
f 8 3 2
f 9 7 6
f 10 1 5
f 11 12 13
f 11 14 12
f 15 16 11
f 15 11 13
f 15 13 4
f 17 6 5
f 17 5 3
f 18 8 2
f 19 20 21
f 22 21 20
f 23 9 6
f 24 25 26
f 27 28 29
f 27 29 30
f 31 13 12
f 32 2 4
f 33 13 31
f 33 31 30
f 33 4 13
f 34 7 9
f 34 5 7
f 35 11 16
f 35 16 36
f 37 14 11
f 38 16 15
f 38 15 4
f 38 4 1
f 39 3 8
f 40 3 39
f 41 17 3
f 42 24 26
f 43 44 45
f 46 19 21
f 47 34 9
f 48 9 23
f 49 23 6
f 50 20 19
f 51 52 53
f 54 2 32
f 55 32 4
f 56 57 54
f 56 54 32
f 56 51 57
f 58 29 55
f 58 33 30
f 58 30 29
f 59 5 34
f 59 10 5
f 60 37 11
f 60 11 35
f 61 62 14
f 61 14 37
f 61 37 60
f 61 60 63
f 61 64 62
f 65 16 38
f 65 38 1
f 66 40 39
f 67 68 49
f 67 41 3
f 69 70 8
f 71 8 18
f 72 24 42
f 72 42 2
f 73 2 42
f 73 18 2
f 74 44 43
f 75 76 39
f 75 39 43
f 75 43 45
f 75 45 76
f 77 74 43
f 77 43 39
f 77 39 8
f 78 22 20
f 79 80 47
f 79 47 81
f 82 9 48
f 82 48 83
f 82 83 79
f 82 79 81
f 82 81 47
f 82 47 9
f 84 85 86
f 84 86 49
f 84 49 68
f 87 28 88
f 89 69 90
f 91 30 31
f 92 64 61
f 93 94 95
f 93 64 92
f 96 50 19
f 97 20 50
f 98 2 54
f 98 54 57
f 99 33 58
f 99 58 55
f 99 55 4
f 99 4 33
f 100 32 55
f 100 55 29
f 101 29 28
f 101 28 56
f 101 56 32
f 101 32 100
f 101 100 29
f 102 51 56
f 102 56 28
f 102 28 87
f 102 87 52
f 102 52 51
f 103 1 104
f 103 104 36
f 103 36 16
f 103 16 65
f 103 65 1
f 105 104 1
f 105 1 10
f 106 66 39
f 106 39 76
f 107 40 66
f 107 108 40
f 109 108 107
f 109 107 66
f 109 110 108
f 111 6 17
f 111 17 41
f 111 41 67
f 111 67 49
f 111 49 6
f 112 40 108
f 112 68 67
f 112 67 3
f 112 3 40
f 113 69 8
f 113 8 71
f 113 71 90
f 113 90 69
f 114 115 45
f 114 45 44
f 116 74 77
f 116 77 8
f 116 8 70
f 116 70 74
f 117 46 21
f 118 45 115
f 118 115 119
f 118 76 45
f 120 121 122
f 123 21 22
f 124 122 121
f 125 78 20
f 126 89 90
f 126 127 128
f 129 44 74
f 129 74 70
f 130 128 127
f 130 73 42
f 130 42 26
f 131 128 130
f 131 130 26
f 132 131 26
f 133 128 131
f 133 131 134
f 135 19 46
f 136 14 62
f 136 62 64
f 136 64 137
f 138 136 139
f 138 31 12
f 140 91 31
f 141 142 27
f 141 27 30
f 141 30 143
f 144 35 36
f 145 93 95
f 146 50 96
f 147 96 19
f 148 97 50
f 149 51 53
f 150 151 25
f 150 25 24
f 152 19 153
f 154 72 2
f 154 2 98
f 154 98 57
f 154 57 51
f 154 24 72
f 155 156 10
f 155 10 59
f 155 59 34
f 155 34 47
f 157 10 156
f 157 105 10
f 158 76 118
f 158 110 109
f 158 109 66
f 158 66 106
f 158 106 76
f 159 68 112
f 159 112 108
f 160 118 119
f 160 119 115
f 161 114 44
f 161 44 129
f 162 147 163
f 164 87 88
f 164 88 165
f 164 166 167
f 164 167 52
f 164 52 87
f 168 169 110
f 168 110 120
f 168 120 122
f 168 170 169
f 171 172 173
f 174 122 124
f 174 124 172
f 175 176 177
f 175 177 178
f 179 78 125
f 180 181 182
f 180 80 79
f 183 182 181
f 184 79 83
f 184 185 181
f 186 187 188
f 186 188 189
f 190 191 189
f 190 189 188
f 190 188 156
f 190 156 155
f 192 104 188
f 192 188 187
f 192 36 104
f 193 156 188
f 193 188 104
f 193 104 105
f 193 105 157
f 193 157 156
f 194 195 196
f 197 20 97
f 198 194 196
f 199 22 78
f 200 176 201
f 200 202 176
f 203 204 205
f 203 206 49
f 203 49 86
f 207 185 184
f 208 68 209
f 208 84 68
f 210 211 212
f 213 214 211
f 213 211 210
f 213 89 214
f 215 127 126
f 215 126 90
f 215 90 71
f 215 71 18
f 215 18 127
f 216 217 129
f 216 129 70
f 216 70 69
f 218 219 161
f 218 161 129
f 220 18 73
f 220 73 130
f 220 130 127
f 220 127 18
f 221 131 132
f 222 223 224
f 222 224 133
f 222 133 134
f 225 135 46
f 226 137 64
f 227 14 136
f 227 136 138
f 227 138 12
f 227 12 14
f 228 31 138
f 229 88 28
f 229 28 27
f 229 27 142
f 230 144 36
f 230 36 231
f 232 35 144
f 233 232 144
f 234 143 30
f 234 30 91
f 235 96 236
f 237 142 141
f 237 141 143
f 237 143 238
f 239 50 146
f 240 146 96
f 240 96 235
f 240 235 241
f 242 243 146
f 244 192 187
f 245 246 244
f 245 244 187
f 247 195 97
f 248 244 246
f 249 148 50
f 249 145 95
f 250 149 53
f 250 53 52
f 250 52 167
f 251 151 150
f 251 150 24
f 251 24 154
f 251 154 51
f 251 51 149
f 251 149 151
f 252 19 152
f 252 147 19
f 253 202 159
f 253 159 177
f 253 177 176
f 253 176 202
f 254 159 202
f 254 202 200
f 254 200 255
f 256 124 121
f 256 121 160
f 256 172 124
f 257 118 160
f 257 160 121
f 257 121 120
f 257 120 110
f 257 110 158
f 257 158 118
f 258 212 211
f 258 211 259
f 260 46 117
f 261 210 212
f 262 162 166
f 263 167 166
f 263 166 162
f 264 110 169
f 265 178 177
f 266 170 168
f 266 168 122
f 267 175 178
f 268 123 22
f 269 21 123
f 270 171 173
f 271 174 172
f 271 172 171
f 272 180 182
f 273 183 125
f 273 125 20
f 274 185 207
f 274 179 125
f 274 125 183
f 274 183 181
f 274 181 185
f 275 79 184
f 275 184 181
f 275 181 180
f 275 180 79
f 276 245 187
f 276 187 186
f 276 186 189
f 277 191 190
f 277 190 155
f 277 155 47
f 277 47 80
f 278 197 97
f 279 22 199
f 280 281 255
f 282 49 206
f 282 206 203
f 282 203 205
f 282 48 23
f 282 23 49
f 283 83 48
f 283 48 282
f 283 282 205
f 283 205 204
f 283 184 83
f 284 85 285
f 284 203 86
f 284 86 85
f 286 204 207
f 286 207 184
f 286 184 283
f 286 283 204
f 287 288 289
f 287 289 290
f 291 289 288
f 292 213 210
f 293 89 126
f 293 126 294
f 295 294 126
f 295 126 296
f 297 89 213
f 297 213 292
f 297 292 290
f 297 216 69
f 297 69 89
f 298 289 217
f 298 217 216
f 298 216 297
f 298 297 290
f 298 290 289
f 299 25 151
f 300 19 135
f 301 19 300
f 301 300 302
f 303 223 304
f 303 300 135
f 303 135 305
f 306 133 224
f 306 224 307
f 306 307 128
f 306 128 133
f 308 128 307
f 308 296 126
f 308 126 128
f 309 223 303
f 309 303 305
f 309 224 223
f 310 296 308
f 310 308 307
f 311 225 46
f 311 46 312
f 311 312 313
f 314 139 136
f 314 136 137
f 314 137 226
f 315 226 64
f 315 64 93
f 316 317 314
f 316 314 226
f 318 60 35
f 319 92 61
f 319 61 63
f 319 94 93
f 319 93 92
f 320 232 233
f 320 319 63
f 320 63 60
f 320 60 318
f 320 318 35
f 320 35 232
f 321 235 236
f 321 236 262
f 321 262 166
f 321 166 164
f 321 164 165
f 322 142 237
f 323 316 226
f 324 239 146
f 324 146 243
f 325 146 240
f 325 240 241
f 325 241 242
f 325 242 146
f 326 192 244
f 326 244 248
f 326 248 231
f 326 231 36
f 326 36 192
f 327 195 247
f 327 245 276
f 327 276 196
f 327 196 195
f 328 246 245
f 328 245 327
f 328 327 247
f 328 248 246
f 329 148 330
f 329 97 148
f 331 230 231
f 332 148 249
f 332 249 95
f 333 329 330
f 333 330 334
f 335 163 336
f 335 250 167
f 335 167 263
f 335 263 162
f 335 162 163
f 337 147 252
f 337 252 152
f 337 152 336
f 337 336 163
f 337 163 147
f 338 68 159
f 338 159 254
f 338 209 68
f 339 115 114
f 339 160 115
f 340 341 260
f 340 260 117
f 342 312 46
f 342 46 343
f 342 343 258
f 344 343 46
f 344 46 260
f 345 344 260
f 345 261 212
f 346 347 217
f 346 217 289
f 348 218 129
f 348 129 217
f 348 217 347
f 348 347 219
f 348 219 218
f 349 117 21
f 350 347 351
f 350 351 352
f 353 147 162
f 353 162 262
f 353 96 147
f 354 96 353
f 354 353 262
f 354 262 236
f 354 236 96
f 355 264 169
f 355 169 170
f 356 159 108
f 356 108 110
f 356 110 264
f 356 264 357
f 356 357 265
f 356 265 177
f 356 177 159
f 358 170 266
f 358 266 122
f 359 201 176
f 359 176 175
f 359 175 267
f 360 361 268
f 360 267 361
f 362 269 171
f 362 171 270
f 362 21 269
f 363 269 123
f 363 123 271
f 363 271 171
f 363 171 269
f 364 191 277
f 364 277 80
f 364 80 180
f 364 180 272
f 364 272 191
f 365 182 183
f 365 183 273
f 365 273 20
f 366 367 78
f 366 78 179
f 366 179 274
f 366 274 207
f 368 198 196
f 368 196 276
f 368 276 189
f 368 189 191
f 369 194 278
f 369 278 97
f 369 97 195
f 369 195 194
f 370 278 194
f 370 194 198
f 371 372 199
f 373 374 371
f 373 371 199
f 373 199 78
f 375 22 279
f 376 377 281
f 376 281 280
f 376 280 375
f 376 375 279
f 378 85 84
f 378 84 208
f 378 208 209
f 378 285 85
f 379 341 340
f 379 340 117
f 379 291 288
f 379 288 341
f 380 287 290
f 380 290 292
f 380 292 210
f 380 210 261
f 380 288 287
f 381 259 293
f 381 258 259
f 382 214 89
f 382 89 293
f 382 293 259
f 382 259 211
f 382 211 214
f 383 222 134
f 383 304 223
f 383 223 222
f 384 132 26
f 384 26 25
f 385 134 131
f 385 131 221
f 385 221 132
f 385 132 386
f 385 386 387
f 385 387 388
f 385 388 383
f 385 383 134
f 389 336 152
f 389 152 153
f 390 335 336
f 390 336 389
f 391 149 250
f 391 250 335
f 391 335 390
f 391 390 389
f 391 389 392
f 391 392 151
f 391 151 149
f 393 302 300
f 393 300 303
f 393 303 304
f 393 304 302
f 394 389 153
f 395 153 19
f 395 19 301
f 396 304 383
f 396 383 388
f 396 388 387
f 396 387 397
f 396 397 302
f 396 302 304
f 398 305 135
f 398 135 225
f 398 225 399
f 398 399 400
f 398 400 309
f 398 309 305
f 401 399 225
f 401 225 311
f 401 311 313
f 402 224 309
f 402 309 400
f 402 310 307
f 402 307 224
f 403 237 238
f 403 404 324
f 403 324 243
f 403 243 242
f 405 234 91
f 406 139 314
f 406 140 31
f 406 31 228
f 406 228 138
f 406 138 139
f 407 319 320
f 407 320 233
f 408 235 321
f 409 142 322
f 409 408 321
f 409 321 165
f 409 165 88
f 409 88 229
f 409 229 142
f 410 315 93
f 410 93 145
f 410 145 249
f 410 249 50
f 410 226 315
f 411 323 50
f 411 50 239
f 412 411 239
f 413 334 248
f 413 248 328
f 414 97 329
f 414 247 97
f 415 144 230
f 415 230 331
f 415 233 144
f 416 248 334
f 416 334 331
f 416 331 231
f 416 231 248
f 417 148 332
f 418 329 333
f 418 333 334
f 418 334 413
f 418 413 328
f 418 328 247
f 418 247 414
f 418 414 329
f 419 339 114
f 419 114 161
f 419 161 219
f 420 344 345
f 420 345 212
f 420 212 258
f 420 258 343
f 420 343 344
f 421 341 288
f 421 261 345
f 421 345 260
f 421 260 341
f 422 291 379
f 422 352 351
f 422 351 347
f 422 347 346
f 422 346 289
f 422 289 291
f 423 117 349
f 423 349 352
f 424 349 21
f 424 350 352
f 424 352 349
f 425 178 265
f 425 265 357
f 425 357 264
f 425 264 355
f 425 267 178
f 426 358 122
f 426 122 174
f 426 174 271
f 427 268 361
f 428 22 429
f 428 360 268
f 428 268 22
f 430 431 272
f 430 272 182
f 432 431 198
f 432 198 368
f 432 368 191
f 432 191 272
f 432 272 431
f 433 285 371
f 433 371 374
f 433 434 284
f 433 284 285
f 435 434 433
f 435 433 374
f 435 374 373
f 435 373 78
f 435 78 367
f 436 204 434
f 436 434 435
f 436 435 367
f 436 367 366
f 436 366 207
f 436 207 204
f 437 284 434
f 437 434 204
f 437 204 203
f 437 203 284
f 438 280 255
f 438 255 200
f 438 200 201
f 439 377 376
f 439 376 279
f 439 279 199
f 439 199 372
f 440 281 377
f 440 378 209
f 441 285 378
f 441 378 440
f 441 440 377
f 441 377 439
f 441 439 372
f 441 372 371
f 441 371 285
f 442 352 422
f 442 422 379
f 442 379 117
f 442 117 423
f 442 423 352
f 443 342 258
f 443 258 381
f 444 294 295
f 444 443 381
f 444 381 293
f 444 293 294
f 445 446 387
f 445 387 386
f 445 386 132
f 445 132 384
f 445 384 25
f 445 25 299
f 447 392 389
f 447 389 394
f 447 446 445
f 447 445 299
f 447 299 151
f 447 151 392
f 448 397 395
f 448 395 301
f 448 301 302
f 448 302 397
f 449 394 153
f 449 153 395
f 449 395 397
f 449 397 387
f 449 387 446
f 449 446 447
f 449 447 394
f 450 399 401
f 450 401 313
f 451 241 235
f 451 235 408
f 451 408 409
f 451 409 322
f 451 322 237
f 451 242 241
f 452 140 406
f 452 405 91
f 452 91 140
f 453 238 143
f 453 143 234
f 453 234 405
f 453 404 403
f 453 403 238
f 454 455 417
f 454 94 319
f 454 319 407
f 454 407 233
f 454 233 455
f 456 323 226
f 456 226 410
f 456 410 50
f 456 50 323
f 457 412 239
f 457 239 324
f 458 323 411
f 458 411 412
f 458 412 317
f 458 317 316
f 458 316 323
f 459 455 233
f 459 233 415
f 459 415 331
f 459 417 455
f 460 95 94
f 460 94 454
f 460 454 417
f 460 417 332
f 460 332 95
f 461 148 417
f 461 417 459
f 461 459 330
f 461 330 148
f 462 419 219
f 462 219 347
f 462 347 350
f 463 173 172
f 463 172 256
f 463 256 160
f 463 160 339
f 463 339 419
f 464 261 421
f 464 421 288
f 464 288 380
f 464 380 261
f 465 270 173
f 465 173 466
f 465 466 350
f 465 350 424
f 465 424 21
f 465 21 362
f 465 362 270
f 467 426 271
f 467 271 123
f 468 268 427
f 468 123 268
f 469 267 425
f 469 425 355
f 469 427 361
f 469 361 267
f 470 360 428
f 470 428 429
f 470 429 201
f 470 201 359
f 470 359 267
f 470 267 360
f 471 197 278
f 471 278 370
f 471 370 198
f 471 198 431
f 472 365 20
f 472 20 197
f 472 197 471
f 472 471 431
f 472 431 430
f 472 430 182
f 472 182 365
f 473 429 22
f 473 22 375
f 473 375 280
f 473 280 438
f 473 438 201
f 473 201 429
f 474 281 440
f 474 440 209
f 474 209 338
f 474 338 254
f 474 254 255
f 474 255 281
f 475 444 295
f 475 295 296
f 476 400 399
f 476 399 450
f 476 310 402
f 476 402 400
f 477 312 342
f 477 342 443
f 477 443 444
f 477 444 475
f 477 313 312
f 478 403 242
f 478 242 451
f 478 451 237
f 478 237 403
f 479 314 317
f 479 317 452
f 479 452 406
f 479 406 314
f 480 452 317
f 480 317 412
f 481 334 330
f 481 330 459
f 481 459 331
f 481 331 334
f 482 466 173
f 482 173 463
f 482 463 419
f 482 419 462
f 482 462 350
f 482 350 466
f 483 467 123
f 483 123 468
f 483 358 426
f 483 426 467
f 484 427 469
f 484 469 355
f 484 355 170
f 485 310 476
f 485 476 450
f 485 475 296
f 485 296 310
f 486 450 313
f 486 313 477
f 486 477 475
f 486 475 485
f 486 485 450
f 487 405 452
f 487 452 480
f 487 480 412
f 487 412 457
f 487 457 324
f 487 324 404
f 487 404 453
f 487 453 405
f 488 427 484
f 488 358 483
f 488 483 468
f 488 468 427
f 489 358 488
f 489 488 484
f 489 484 170
f 489 170 358
