# Convex hull collision mesh — generated by scripts/generate-collision-meshes.mjs
v 37.000000 -10.500000 1.000000
v -37.000000 -10.474928 0.777479
v 37.000000 -10.474928 0.777479
v -37.000000 -10.500000 16.000000
v 37.000000 -10.500000 16.000000
v 37.222523 -10.474928 16.000000
v -36.000000 -10.500000 10.000000
v 37.000000 10.500000 16.000000
v -37.000000 10.500000 1.000000
v -31.000000 10.500000 12.500000
v -31.000000 10.427470 16.758272
v -11.000000 10.427470 16.758272
v -36.000000 10.500000 10.000000
v 37.000000 -9.328427 18.828426
v 37.000000 -8.722281 19.325878
v 30.845013 -9.040411 19.089710
v 37.433884 10.014651 17.692568
v 37.222523 10.081286 17.724657
v 37.433884 9.743537 18.167263
v 37.623489 9.907312 17.640875
v 39.994534 -4.909597 1.000000
v 39.994534 -5.090403 1.000000
v 39.994534 -5.090403 -4.000000
v 37.000000 -10.195518 17.530733
v 31.000000 -9.862921 18.165817
v -37.000000 -10.195518 17.530733
v 37.222523 -10.474928 1.000000
v -37.000000 -10.400969 0.566116
v -37.000000 -10.281832 0.376510
v -37.126556 -10.299057 0.412215
v -37.293892 -10.404509 0.690983
v -37.900970 -6.500000 19.433884
v -37.974930 6.500000 19.222521
v -37.974930 -6.500000 19.222521
v -37.781830 -6.500000 19.623489
v -37.781830 6.500000 19.623489
v -38.000000 -6.500000 19.000000
v -38.000000 6.500000 19.000000
v -39.994534 -5.090403 1.000000
v -39.994534 -4.909597 1.000000
v 37.000000 10.423141 16.780361
v 37.000000 10.500000 1.000000
v -37.000000 10.474928 0.777479
v -37.000000 10.500000 16.000000
v 39.747341 -5.561383 -4.000000
v 39.250000 -5.750000 -4.000000
v 39.951263 -5.265954 1.000000
v 37.900970 -9.933884 16.000000
v 37.900970 -9.933884 1.000000
v 37.974930 -9.660601 16.628683
v 37.781830 -10.123489 1.000000
v 37.974930 -8.778666 18.278666
v 37.974930 -9.019468 18.009209
v 37.900970 -8.928123 18.428122
v 37.900970 -9.184718 18.140991
v 11.185898 8.961194 19.153177
v -30.814102 8.961194 19.153177
v 37.000000 8.722281 19.325878
v 30.814102 8.961195 19.153175
v -37.000000 9.328427 18.828426
v 36.000000 9.328427 18.828426
v 30.956631 9.432906 18.719938
v -11.043369 9.432906 18.719938
v 37.000000 9.825878 18.222281
v 37.974930 9.722521 16.000000
v 37.974930 9.722521 1.000000
v 37.000000 -9.825878 18.222281
v 30.991787 -9.678395 18.428539
v -30.991787 -9.678395 18.428539
v 37.222523 -10.081286 17.724657
v 30.963581 -9.469550 18.679882
v -36.000000 -9.825878 18.222281
v 11.000000 -10.212512 17.489044
v -37.000000 -10.423141 16.780361
v -36.000000 -10.423141 16.780361
v -37.433884 -10.400969 16.000000
v -37.623489 -10.281832 16.000000
v -37.623489 -10.281832 1.000000
v 37.433884 -10.400969 1.000000
v -39.951263 -5.265954 1.000000
v -37.974930 -9.641726 16.717079
v -39.598541 -5.664092 -4.000000
v -37.781830 -10.123489 16.000000
v -36.000000 6.500000 20.000000
v 36.000000 -6.500000 20.000000
v 37.000000 6.500000 20.000000
v -37.900970 -7.169918 19.367903
v -37.900970 6.500000 19.433884
v -37.900970 7.264111 19.347790
v -37.781830 7.306303 19.532640
v -37.781830 7.886650 19.347668
v -37.623489 -6.500000 19.781832
v 31.000000 10.427470 16.758272
v -37.000000 10.423141 16.780361
v -11.000000 10.212512 17.489044
v -37.000000 9.825878 18.222281
v -37.367287 10.220840 0.412215
v -37.559017 10.269421 0.690983
v -37.293892 10.404509 0.690983
v -37.000000 10.400969 0.566116
v 37.000000 10.400969 0.566116
v -37.000000 10.281832 0.376510
v 39.951263 -5.265954 -4.000000
v 37.000000 10.281832 0.376510
v 37.126556 10.299057 0.412215
v 37.000000 10.123489 0.218169
v 37.000000 9.933884 0.099031
v -37.000000 9.933884 0.099031
v 37.974930 -9.722521 16.000000
v 37.433884 -10.400969 16.000000
v 37.222523 -10.398551 16.775471
v 37.623489 -10.281832 1.000000
v 37.000000 -10.423141 16.780361
v 38.000000 6.500000 19.000000
v 37.974930 6.500000 19.222521
v 37.974930 -6.500000 19.222521
v 37.900970 -6.500000 19.433884
v 37.974930 -8.509209 18.519468
v 37.974930 -8.290337 18.679428
v 11.185900 -8.961189 19.153181
v -11.185900 -8.961189 19.153181
v -30.845013 -9.040411 19.089710
v 36.000000 8.722281 19.325878
v 30.578558 8.508307 19.459293
v 37.000000 8.030734 19.695518
v -37.000000 8.030734 19.695518
v -30.247906 8.082277 19.673744
v -30.578556 8.508305 19.459293
v -37.000000 8.722281 19.325878
v -37.433884 6.500000 19.900969
v -37.433884 -6.500000 19.900969
v 28.000000 7.100000 19.954744
v 37.000000 7.280361 19.923141
v 29.847748 7.721716 19.808859
v 37.222523 7.275470 19.898550
v -29.403584 7.442367 19.887409
v -37.000000 7.280361 19.923141
v 37.000000 9.328427 18.828426
v 37.222523 9.805032 18.208351
v 37.000000 -6.500000 20.000000
v 14.000000 -7.100000 19.954744
v 37.000000 -7.280361 19.923141
v 37.222523 -6.500000 19.974928
v 37.974930 9.641726 16.717079
v 37.900970 9.847789 16.764111
v 37.781830 10.032641 16.806303
v 37.900970 9.593822 17.489906
v 37.900970 9.933884 16.000000
v 37.781830 10.123489 16.000000
v 37.222523 -9.805032 18.208351
v -37.000000 -9.328427 18.828426
v -31.000000 -9.862921 18.165817
v -31.000000 -10.212512 17.489044
v -37.000000 -10.500000 1.000000
v -37.433884 -10.400969 1.000000
v -37.559017 -10.269421 0.690983
v 37.293892 -10.404509 0.690983
v -37.974930 -9.722521 16.000000
v -37.900970 -9.933884 16.000000
v -37.367287 -10.220840 0.412215
v -39.867237 -5.426049 -4.000000
v -39.250000 -5.750000 -4.000000
v -37.000000 -10.123489 0.218169
v -29.000000 -0.000000 20.000000
v -36.000000 -6.500000 20.000000
v 12.152294 -7.721684 19.808870
v 36.000000 -8.030734 19.695518
v 37.000000 -8.030734 19.695518
v -36.000000 -8.030734 19.695518
v -37.000000 -8.030734 19.695518
v -37.000000 -7.280361 19.923141
v -37.222523 -7.275470 19.898550
v -29.839657 -7.715635 19.810804
v -37.222523 -8.708352 19.305031
v -37.222523 -8.224657 19.581285
v -37.433884 -8.667262 19.243538
v -37.222523 -8.978327 19.107723
v -37.433884 -8.192567 19.514652
v -37.222523 -10.375268 16.884504
v -37.781830 -10.032641 16.806303
v -37.974930 -9.477221 17.233206
v -37.974930 -9.403391 17.398199
v -37.900970 -8.407763 18.855169
v -37.781830 -8.513103 19.012821
v -37.900970 -7.989906 19.093822
v -37.974930 -9.179428 17.790337
v -37.974930 -9.019468 18.009209
v -37.781830 -8.072173 19.264652
v -37.900970 -7.814090 19.172495
v -37.781830 -7.886650 19.347668
v -37.974930 -7.898200 18.903391
v -37.974930 -7.128683 19.160601
v -38.000000 -7.167563 18.924784
v -37.623489 7.341537 19.687014
v -37.974930 7.217078 19.141726
v -37.623489 -7.237799 19.709166
v -37.974930 9.722521 16.000000
v -37.974930 9.722521 1.000000
v 37.433884 10.303164 16.868048
v 37.222523 10.375268 16.884504
v 37.781830 10.123489 1.000000
v 37.000000 10.474928 0.777479
v -37.433884 10.326013 16.761042
v -37.222523 10.398551 16.775471
v -37.433884 10.400969 16.000000
v -37.433884 10.104025 17.492836
v -37.222523 10.172355 17.521139
v 37.000000 10.195518 17.530733
v -31.000000 10.212512 17.489044
v -30.956631 9.432906 18.719938
v -37.000000 10.123489 0.218169
v -37.048340 9.805212 0.048943
v 37.000000 9.722521 0.025072
v -37.000000 9.722521 0.025072
v -37.126556 10.299057 0.412215
v 39.867237 -5.426049 -4.000000
v 37.293892 10.404509 0.690983
v 37.367287 10.220840 0.412215
v 37.623489 -10.281832 16.000000
v 31.000000 -10.427470 16.758272
v 31.000000 -10.212512 17.489044
v 38.000000 -6.500000 19.000000
v 38.000000 -7.167563 18.924784
v 30.247908 8.082279 19.673744
v -37.222523 8.978327 19.107723
v -11.421442 8.508307 19.459293
v 37.900970 6.500000 19.433884
v 37.900970 7.169918 19.367903
v 37.781830 6.500000 19.623489
v -37.000000 -6.500000 20.000000
v -37.222523 7.384505 19.875269
v -37.433884 7.368047 19.803164
v 29.403587 7.442369 19.887407
v -29.847744 7.721714 19.808861
v 37.222523 8.978327 19.107723
v 37.222523 9.310699 18.810698
v 37.222523 8.708352 19.305031
v 37.974930 7.128683 19.160601
v 37.222523 8.224657 19.581285
v 37.222523 9.607724 18.478327
v 37.433884 9.549900 18.432215
v 37.974930 -7.217078 19.141726
v 37.222523 -7.384505 19.875269
v 37.222523 -8.021139 19.672354
v 37.433884 -6.500000 19.900969
v 37.433884 -7.368047 19.803164
v 37.623489 -6.500000 19.781832
v 37.433884 6.500000 19.900969
v 28.000000 -7.100000 19.954744
v 13.530892 -7.136461 19.949039
v 37.222523 6.500000 19.974928
v 37.433884 7.261041 19.826014
v 37.623489 6.500000 19.781832
v 37.623489 7.237799 19.709166
v 38.000000 9.424784 16.667562
v 38.000000 9.202907 17.301651
v 37.222523 -9.607724 18.478327
v -30.963581 -9.469550 18.679882
v -37.222523 -10.474928 16.000000
v -37.222523 -10.474928 1.000000
v 37.769421 -10.059017 0.690983
v 39.598541 -5.664092 -4.000000
v 37.000000 -10.281832 0.376510
v -39.747341 -5.561383 -4.000000
v -37.900970 -9.933884 1.000000
v -39.994534 -5.090403 -4.000000
v -39.429485 -5.728206 -4.000000
v 13.068393 -7.246224 19.929777
v 30.620476 -8.575850 19.419188
v 36.000000 -8.722281 19.325878
v -29.258604 -7.372212 19.903748
v -12.596488 -7.442330 19.887417
v 29.839657 -7.715635 19.810804
v -37.222523 -8.021139 19.672354
v -37.433884 -7.992836 19.604025
v -12.152294 -7.721684 19.808870
v -37.000000 -8.722281 19.325878
v -37.433884 -10.303164 16.868048
v -37.900970 -9.672495 17.314091
v -37.781830 -9.847668 17.386650
v -37.974930 -8.290337 18.679428
v -37.974930 -8.509209 18.519468
v -37.974930 -8.778666 18.278666
v -37.900970 -8.928123 18.428122
v -37.900970 -8.640991 18.684719
v -37.781830 -9.062194 18.562195
v -37.974930 -7.733205 18.977221
v -37.623489 6.500000 19.781832
v -38.000000 7.167563 18.924784
v -38.000000 7.801651 18.702906
v -37.974930 7.733205 18.977221
v -37.781830 -7.206908 19.553865
v -37.433884 -7.261041 19.826014
v -37.572060 10.072062 0.412215
v -37.345493 9.975529 0.190983
v -38.000000 8.370469 18.345495
v -38.000000 8.845494 17.870470
v -37.974930 8.290337 18.679428
v -37.974930 9.477221 17.233206
v -38.000000 9.424784 16.667562
v -37.900970 9.933884 1.000000
v -37.781830 10.123489 16.000000
v -37.781830 10.123489 1.000000
v -37.904507 9.793893 0.690983
v -37.769421 10.059017 0.690983
v -37.433884 10.400969 1.000000
v -37.222523 10.474928 16.000000
v 37.623489 10.187013 16.841537
v 37.222523 10.474928 16.000000
v 31.000000 10.212512 17.489044
v -37.000000 10.195518 17.530733
v -37.181637 10.059017 0.190983
v 37.048340 9.805212 0.048943
v 37.140289 9.775336 0.048943
v 37.222523 10.474928 1.000000
v 37.433884 10.400969 1.000000
v 37.623489 10.281832 1.000000
v 37.345493 9.975529 0.190983
v 37.475529 9.845491 0.190983
v 37.218510 9.718508 0.048943
v 37.433884 -9.743537 18.167263
v 37.433884 -9.549900 18.432215
v 37.974930 -9.179428 17.790337
v 37.974930 -9.403391 17.398199
v 37.974930 -9.477221 17.233206
v 37.900970 -9.593822 17.489906
v 37.781830 -10.123489 16.000000
v -31.000000 -10.427470 16.758272
v 37.623489 -7.341537 19.687014
v 37.623489 -7.947244 19.493958
v 37.781830 -6.500000 19.623489
v 37.781830 -7.306303 19.532640
v 37.781830 -7.886650 19.347668
v 37.222523 -8.978327 19.107723
v -37.623489 7.947244 19.493958
v -11.752093 8.082279 19.673744
v -37.222523 -6.500000 19.974928
v -37.000000 6.500000 20.000000
v -28.000000 -7.100000 19.954744
v -37.222523 8.021139 19.672354
v 28.469164 7.136470 19.949039
v -13.530836 7.136470 19.949039
v -13.068283 7.246259 19.929771
v 12.596416 7.442367 19.887409
v 12.152255 7.721714 19.808861
v 37.433884 8.667262 19.243538
v 37.433884 8.192567 19.514652
v 37.974930 9.403391 17.398199
v 37.974930 9.179428 17.790337
v 38.000000 8.845494 17.870470
v 38.000000 8.370469 18.345495
v 38.000000 7.167563 18.924784
v 37.974930 8.290337 18.679428
v 37.900970 8.407763 18.855169
v 37.900970 7.989906 19.093822
v 37.974930 8.509209 18.519468
v 37.781830 8.513103 19.012821
v 37.433884 9.258402 18.758402
v 37.781830 9.764651 17.572174
v 37.623489 9.644478 18.101072
v 37.222523 8.021139 19.672354
v 37.433884 7.992836 19.604025
v 37.974930 -7.733205 18.977221
v 37.900970 -7.264111 19.347790
v 37.900970 -7.814090 19.172495
v 37.781830 -9.062194 18.562195
v 37.900970 -8.407763 18.855169
v 37.900970 -7.989906 19.093822
v 37.781830 -8.513103 19.012821
v 37.433884 -8.192567 19.514652
v 37.433884 -8.667262 19.243538
v 37.623489 -8.601073 19.144478
v 37.222523 -8.224657 19.581285
v 28.637817 -7.167722 19.943874
v -37.222523 -9.310699 18.810698
v -11.043369 -9.432905 18.719938
v 37.559017 -10.269421 0.690983
v 37.000000 -10.123489 0.218169
v 37.367287 -10.220840 0.412215
v 37.000000 -10.400969 0.566116
v 39.429485 -5.728206 -4.000000
v -39.951263 -5.265954 -4.000000
v -37.769421 -10.059017 0.690983
v -39.994534 -4.909597 -4.000000
v 30.292788 -8.131563 19.652122
v 11.421449 -8.508296 19.459299
v -30.292788 -8.131563 19.652122
v 11.752112 -8.082258 19.673752
v 29.258604 -7.372212 19.903748
v -37.781830 -8.759209 18.832958
v -37.623489 -8.857933 18.956755
v -30.620476 -8.575850 19.419188
v -37.623489 -8.601073 19.144478
v -37.623489 -8.140875 19.407312
v -37.623489 -7.947244 19.493958
v -37.623489 -9.993957 17.447245
v -37.433884 -10.104025 17.492836
v -37.433884 -10.014651 17.692568
v -37.781830 -9.764651 17.572174
v -37.900970 -9.847789 16.764111
v -37.900970 -9.184718 18.140991
v -37.781830 -9.332958 18.259209
v -37.433884 8.667262 19.243538
v -37.623489 8.601073 19.144478
v -37.433884 8.192567 19.514652
v -37.974930 7.898200 18.903391
v -37.900970 7.989906 19.093822
v -37.900970 7.814090 19.172495
v -38.000000 9.202907 17.301651
v -37.623489 10.281832 1.000000
v -37.222523 10.474928 1.000000
v -37.900970 9.933884 16.000000
v -37.781830 10.053865 16.706907
v 37.623489 10.281832 16.000000
v 37.720840 9.867286 0.412215
v 37.559017 9.681636 0.190983
v 37.900970 9.933884 1.000000
v 37.904507 9.793893 0.690983
v -37.222523 10.081286 17.724657
v -37.222523 9.805032 18.208351
v -37.433884 9.743537 18.167263
v 31.000000 9.862921 18.165817
v -37.623489 9.456755 18.357933
v -37.433884 9.549900 18.432215
v -37.623489 9.644478 18.101072
v -37.433884 9.258402 18.758402
v -37.623489 9.174159 18.674158
v -37.140289 9.775336 0.048943
v 37.181637 10.059017 0.190983
v 37.222523 -10.172355 17.521139
v 37.900970 -9.355170 17.907764
v 37.623489 -9.456755 18.357933
v 37.623489 -9.644478 18.101072
v 37.781830 -9.512821 18.013103
v 37.623489 -9.174159 18.674158
v 37.623489 -9.907312 17.640875
v 37.623489 -8.140875 19.407312
v 37.433884 -9.258402 18.758402
v 37.222523 -9.310699 18.810698
v -37.623489 8.140875 19.407312
v -37.433884 7.992836 19.604025
v -37.222523 6.500000 19.974928
v -28.000000 7.100000 19.954744
v -37.222523 8.224657 19.581285
v -28.931711 7.246258 19.929771
v 28.931717 7.246259 19.929771
v 37.623489 8.601073 19.144478
v 37.781830 8.759209 18.832958
v 37.623489 8.140875 19.407312
v 38.000000 7.801651 18.702906
v 37.974930 7.733205 18.977221
v 37.900970 7.814090 19.172495
v 37.781830 8.072173 19.264652
v 37.433884 8.932215 19.049900
v 37.900970 8.640991 18.684719
v 37.781830 9.062194 18.562195
v 37.623489 9.456755 18.357933
v 37.623489 9.174159 18.674158
v 37.781830 9.332958 18.259209
v 37.781830 9.512821 18.013103
v 37.974930 -7.898200 18.903391
v 37.781830 -8.759209 18.832958
v 37.433884 -7.992836 19.604025
v 37.222523 -8.708352 19.305031
v -13.068393 -7.246224 19.929777
v -28.637817 -7.167722 19.943874
v -37.222523 -10.172355 17.521139
v -37.000000 -9.825878 18.222281
v -37.433884 -9.258402 18.758402
v 11.043369 -9.432905 18.719938
v 37.126556 -10.299057 0.412215
v -37.781830 -10.123489 1.000000
v -37.720840 9.867286 0.412215
v -39.747341 -4.438617 -4.000000
v -11.752112 -8.082258 19.673752
v 12.596488 -7.442330 19.887417
v -11.421449 -8.508296 19.459299
v -37.623489 -10.187013 16.841537
v -37.900970 -9.355170 17.907764
v -37.781830 -9.512821 18.013103
v -37.974930 8.778666 18.278666
v -37.900970 8.640991 18.684719
v -37.900970 8.928123 18.428122
v -37.974930 9.019468 18.009209
v -37.623489 10.281832 16.000000
v -37.900970 9.867903 16.669918
v -37.781830 9.847668 17.386650
v -37.623489 9.907312 17.640875
v -37.623489 8.857933 18.956755
v -37.900970 8.407763 18.855169
v -37.781830 8.513103 19.012821
v 37.433884 10.400969 16.000000
v 37.572060 10.072062 0.412215
v -37.900970 9.184718 18.140991
v -37.781830 9.332958 18.259209
v -37.900970 9.355170 17.907764
v -37.781830 9.512821 18.013103
v -37.974930 9.403391 17.398199
v -37.900970 9.593822 17.489906
v -37.433884 10.014651 17.692568
v -31.000000 9.862921 18.165817
v -37.222523 9.310699 18.810698
v 37.781830 -10.053865 16.706907
v 37.623489 -9.993957 17.447245
v 37.623489 -10.209165 16.737799
v 37.433884 -10.326013 16.761042
v 37.781830 -9.332958 18.259209
v 37.433884 -10.014651 17.692568
v 37.781830 -8.072173 19.264652
v 37.433884 -8.932215 19.049900
v -37.781830 8.072173 19.264652
v -37.222523 8.708352 19.305031
v -28.469162 7.136469 19.949039
v 37.623489 8.857933 18.956755
v 37.974930 7.898200 18.903391
v 37.623489 7.947244 19.493958
v 37.781830 7.206908 19.553865
v 37.900970 8.928123 18.428122
v 37.900970 -8.640991 18.684719
v -13.530892 -7.136461 19.949039
v -37.222523 -10.081286 17.724657
v -37.222523 -9.805032 18.208351
v -37.433884 -9.743537 18.167263
v -37.222523 -9.607724 18.478327
v -37.433884 -9.549900 18.432215
v -37.623489 -9.456755 18.357933
v -37.433884 -8.932215 19.049900
v -39.951263 -4.734046 -4.000000
v -37.559017 9.681636 0.190983
v -37.218510 9.718508 0.048943
v -39.429485 -4.271794 -4.000000
v -37.900970 -9.593822 17.489906
v -37.974930 8.509209 18.519468
v -37.974930 9.660601 16.628683
v -37.900970 9.672495 17.314091
v -37.623489 9.993957 17.447245
v -37.781830 9.062194 18.562195
v -37.433884 8.932215 19.049900
v 37.559017 10.269421 0.690983
v -37.781830 9.764651 17.572174
v -37.974930 9.179428 17.790337
v -37.222523 9.607724 18.478327
v 37.900970 -9.672495 17.314091
v 37.900970 -9.867903 16.669918
v 37.433884 -10.104025 17.492836
v 37.623489 -8.857933 18.956755
v 37.781830 7.886650 19.347668
v 37.974930 8.778666 18.278666
v 37.900970 9.355170 17.907764
v -37.623489 -9.644478 18.101072
v -37.623489 -9.174159 18.674158
v -39.867237 -4.573951 -4.000000
v -37.475529 9.845491 0.190983
v -39.250000 -4.250000 -4.000000
v -39.598541 -4.335908 -4.000000
v -37.623489 10.209165 16.737799
v -37.781830 8.759209 18.832958
v 37.769421 10.059017 0.690983
v 37.781830 -9.764651 17.572174
v 37.974930 9.019468 18.009209
v 37.900970 9.184718 18.140991
v -37.623489 -9.907312 17.640875
v 39.250000 -4.250000 -4.000000
v 37.781830 -9.847668 17.386650
v 39.429485 -4.271794 -4.000000
v 39.747341 -4.438617 -4.000000
v 39.951263 -4.734046 -4.000000
v 39.598541 -4.335908 -4.000000
v 39.994534 -4.909597 -4.000000
v 39.867237 -4.573951 -4.000000
f 1 2 3
f 4 1 5
f 6 5 1
f 7 1 4
f 8 9 10
f 11 12 8
f 13 10 9
f 14 15 16
f 17 18 19
f 20 17 19
f 21 22 23
f 24 25 26
f 27 1 3
f 27 6 1
f 28 3 2
f 29 28 30
f 31 30 28
f 31 28 2
f 32 33 34
f 32 35 36
f 37 34 33
f 38 39 37
f 38 37 33
f 40 39 38
f 41 12 11
f 42 9 8
f 42 43 9
f 44 10 13
f 44 13 9
f 44 11 8
f 44 8 10
f 45 46 23
f 47 48 49
f 47 23 22
f 50 47 22
f 51 49 48
f 52 53 22
f 54 55 53
f 54 53 52
f 56 57 58
f 56 58 59
f 56 60 57
f 61 62 60
f 61 60 56
f 63 62 64
f 63 60 62
f 65 21 66
f 67 14 68
f 67 68 69
f 67 25 24
f 67 24 70
f 71 69 68
f 71 68 14
f 72 25 67
f 72 67 69
f 73 74 75
f 73 24 26
f 76 77 78
f 79 6 27
f 80 81 39
f 82 23 46
f 83 78 77
f 84 85 86
f 87 32 34
f 88 36 89
f 88 89 33
f 88 33 32
f 88 32 36
f 90 91 89
f 90 89 36
f 92 36 35
f 93 12 41
f 93 41 8
f 93 8 12
f 94 11 44
f 94 41 11
f 95 41 94
f 96 63 64
f 97 98 99
f 100 99 43
f 100 43 101
f 100 101 102
f 103 45 23
f 103 23 47
f 103 47 49
f 104 105 106
f 104 106 102
f 104 102 101
f 104 101 105
f 107 108 106
f 109 47 50
f 109 48 47
f 110 111 6
f 110 6 79
f 110 79 112
f 113 5 6
f 113 6 111
f 113 111 24
f 113 73 75
f 114 115 116
f 114 22 21
f 117 116 115
f 118 52 22
f 118 22 119
f 120 15 121
f 120 121 16
f 120 16 15
f 122 14 16
f 122 16 121
f 123 58 57
f 124 58 123
f 124 125 58
f 126 127 128
f 129 126 128
f 129 124 123
f 129 123 57
f 129 57 60
f 130 92 131
f 132 86 133
f 132 84 86
f 134 133 125
f 135 125 133
f 136 137 133
f 138 59 58
f 138 64 62
f 138 62 61
f 138 61 56
f 138 56 59
f 139 19 18
f 139 18 64
f 140 85 141
f 140 142 143
f 140 143 86
f 140 86 85
f 144 21 65
f 145 146 147
f 145 147 144
f 148 149 146
f 148 146 145
f 148 145 144
f 148 144 65
f 148 65 66
f 150 67 70
f 151 14 122
f 152 25 72
f 152 26 25
f 153 74 73
f 153 73 26
f 153 26 74
f 154 2 1
f 154 1 7
f 154 7 4
f 155 76 78
f 155 78 156
f 155 156 31
f 157 79 27
f 157 27 3
f 158 81 80
f 158 80 159
f 158 159 81
f 160 30 31
f 160 31 156
f 161 23 82
f 162 163 29
f 162 82 46
f 162 46 163
f 164 85 84
f 165 141 85
f 165 85 164
f 165 164 84
f 166 167 168
f 166 169 167
f 170 171 172
f 170 169 166
f 170 173 171
f 174 175 176
f 174 176 177
f 178 176 175
f 179 74 26
f 180 83 77
f 180 159 83
f 181 182 39
f 181 39 81
f 183 184 185
f 186 187 39
f 186 39 182
f 188 185 184
f 189 185 188
f 189 188 190
f 189 191 185
f 192 34 37
f 192 37 39
f 192 39 193
f 192 87 34
f 194 91 90
f 194 90 36
f 195 33 89
f 195 38 33
f 196 92 35
f 197 198 40
f 199 200 18
f 199 18 17
f 199 17 20
f 201 149 148
f 202 101 43
f 202 43 42
f 203 204 205
f 203 206 207
f 203 207 204
f 208 64 18
f 208 18 200
f 208 200 41
f 209 208 95
f 209 95 94
f 210 63 96
f 210 96 60
f 210 60 63
f 211 102 106
f 211 106 108
f 212 108 107
f 212 213 214
f 215 97 99
f 215 99 100
f 215 100 102
f 215 102 211
f 216 45 103
f 216 103 49
f 217 101 202
f 217 218 105
f 217 105 101
f 219 110 112
f 219 112 51
f 220 5 113
f 220 113 75
f 220 75 74
f 220 4 5
f 221 73 113
f 221 113 24
f 221 24 73
f 222 223 22
f 222 22 114
f 222 114 116
f 224 126 125
f 224 125 124
f 225 129 60
f 226 124 129
f 226 129 128
f 226 224 124
f 227 115 228
f 227 229 117
f 227 117 115
f 230 141 165
f 230 165 84
f 231 232 130
f 231 137 126
f 233 133 134
f 234 125 126
f 234 126 137
f 234 137 136
f 235 236 138
f 235 138 58
f 235 58 237
f 238 115 114
f 238 228 115
f 239 237 58
f 239 58 125
f 240 138 236
f 240 241 19
f 240 19 139
f 240 139 64
f 240 64 138
f 242 223 222
f 242 222 116
f 243 142 168
f 243 168 244
f 243 143 142
f 245 143 243
f 245 243 246
f 245 246 247
f 245 247 248
f 245 248 143
f 249 142 140
f 249 140 141
f 249 141 250
f 251 135 133
f 251 133 86
f 251 86 143
f 251 143 248
f 251 248 252
f 251 252 135
f 253 229 254
f 253 254 252
f 253 252 248
f 253 248 247
f 253 247 229
f 255 21 144
f 255 144 256
f 255 256 21
f 257 14 67
f 257 67 150
f 258 151 69
f 258 69 71
f 259 76 155
f 259 154 4
f 259 4 74
f 259 74 179
f 260 154 259
f 260 259 155
f 260 155 31
f 260 31 2
f 260 2 154
f 261 51 112
f 261 45 216
f 261 216 49
f 261 49 51
f 262 46 45
f 263 28 29
f 263 29 163
f 264 82 160
f 264 160 156
f 264 161 82
f 265 159 80
f 265 83 159
f 266 39 40
f 266 23 161
f 266 80 39
f 267 30 160
f 267 160 82
f 267 82 162
f 267 162 29
f 267 29 30
f 268 171 142
f 269 15 168
f 270 15 269
f 270 121 15
f 271 173 272
f 271 142 171
f 271 171 173
f 273 272 173
f 273 173 166
f 273 166 168
f 273 168 142
f 274 175 170
f 274 170 172
f 274 275 178
f 274 178 175
f 276 173 170
f 276 170 166
f 276 166 173
f 277 122 121
f 277 121 270
f 277 270 269
f 277 170 175
f 277 175 174
f 277 174 177
f 277 177 151
f 277 151 122
f 278 77 76
f 278 76 259
f 278 259 179
f 279 180 280
f 279 181 81
f 281 191 39
f 281 39 282
f 281 183 185
f 281 185 191
f 283 282 39
f 283 39 187
f 283 187 284
f 285 183 281
f 285 281 282
f 285 282 283
f 285 283 284
f 285 284 286
f 285 184 183
f 287 191 189
f 287 189 87
f 287 87 192
f 287 192 193
f 287 193 39
f 287 39 191
f 288 130 232
f 288 232 194
f 288 194 36
f 288 36 92
f 288 92 130
f 289 40 38
f 289 38 195
f 289 290 40
f 291 195 89
f 291 290 289
f 291 289 195
f 292 87 189
f 292 189 190
f 292 196 35
f 292 35 32
f 292 32 87
f 293 131 92
f 293 92 196
f 293 275 274
f 293 274 172
f 294 97 295
f 294 98 97
f 296 297 40
f 296 40 290
f 296 290 298
f 299 300 40
f 301 302 303
f 301 304 198
f 301 198 197
f 305 304 301
f 305 301 303
f 305 98 294
f 306 99 98
f 307 44 9
f 307 306 205
f 307 205 204
f 307 204 94
f 307 94 44
f 308 199 20
f 308 20 146
f 309 42 8
f 309 8 41
f 309 41 200
f 309 200 199
f 310 95 208
f 310 208 41
f 310 41 95
f 311 208 209
f 311 209 94
f 311 94 204
f 311 204 207
f 312 295 97
f 312 97 215
f 312 215 211
f 312 211 108
f 313 213 212
f 313 212 107
f 313 107 314
f 315 42 309
f 315 309 316
f 315 316 217
f 315 217 202
f 315 202 42
f 317 149 201
f 318 319 320
f 318 320 314
f 321 150 70
f 321 322 257
f 321 257 150
f 323 324 22
f 323 22 53
f 325 50 22
f 325 22 324
f 325 324 326
f 327 219 51
f 327 51 48
f 328 4 220
f 328 220 74
f 328 74 4
f 329 246 330
f 329 247 246
f 331 247 329
f 331 329 332
f 331 117 229
f 331 229 247
f 333 332 329
f 333 329 330
f 334 15 14
f 335 194 232
f 335 91 194
f 336 127 126
f 336 126 224
f 336 224 226
f 336 226 128
f 336 128 127
f 337 131 293
f 337 293 172
f 337 172 171
f 337 171 230
f 337 130 131
f 338 337 230
f 338 230 84
f 338 84 132
f 339 141 230
f 339 230 171
f 339 250 141
f 340 231 126
f 341 342 132
f 341 132 133
f 343 342 341
f 343 133 137
f 344 136 133
f 344 133 233
f 344 233 134
f 344 234 136
f 345 125 234
f 345 234 344
f 345 344 134
f 345 134 125
f 346 235 237
f 346 237 239
f 346 239 347
f 348 144 147
f 348 349 256
f 348 256 144
f 350 351 21
f 350 21 256
f 350 256 349
f 352 238 114
f 352 114 21
f 353 354 355
f 353 351 356
f 357 355 354
f 358 241 240
f 358 240 236
f 358 236 235
f 359 147 146
f 359 146 20
f 360 359 20
f 360 20 19
f 361 135 252
f 361 252 362
f 361 362 347
f 361 347 239
f 361 239 125
f 361 125 135
f 363 22 223
f 363 223 242
f 364 117 331
f 364 331 332
f 364 332 333
f 364 333 365
f 364 365 363
f 364 363 242
f 364 242 116
f 364 116 117
f 366 55 54
f 367 368 369
f 367 119 368
f 370 371 372
f 373 371 370
f 373 370 244
f 373 244 168
f 373 168 15
f 374 142 249
f 374 249 250
f 374 268 142
f 375 151 177
f 376 151 258
f 376 258 71
f 376 14 151
f 377 45 261
f 377 261 112
f 377 112 79
f 377 79 157
f 378 46 263
f 378 263 163
f 378 163 46
f 379 262 45
f 379 45 377
f 379 377 157
f 380 28 263
f 380 157 3
f 380 3 28
f 381 262 379
f 381 263 46
f 381 46 262
f 382 161 265
f 382 265 80
f 382 80 266
f 382 266 161
f 383 156 78
f 383 265 161
f 383 161 264
f 383 264 156
f 384 198 304
f 384 23 266
f 384 266 40
f 384 40 198
f 385 386 269
f 385 269 168
f 385 387 386
f 388 169 170
f 388 387 385
f 388 385 168
f 388 168 167
f 388 167 169
f 389 273 142
f 389 142 271
f 389 271 272
f 390 184 285
f 390 285 286
f 390 286 391
f 392 387 170
f 392 170 277
f 392 277 269
f 392 269 386
f 393 184 390
f 393 390 391
f 393 391 176
f 393 176 178
f 393 178 394
f 393 394 188
f 393 188 184
f 395 188 394
f 395 394 178
f 395 178 275
f 395 275 293
f 395 293 196
f 395 196 292
f 395 292 190
f 395 190 188
f 396 278 397
f 396 397 398
f 396 280 180
f 399 279 280
f 399 280 396
f 400 180 279
f 400 279 81
f 400 81 159
f 400 159 180
f 401 402 286
f 401 286 284
f 401 284 187
f 403 404 405
f 406 298 290
f 406 290 291
f 406 407 298
f 408 407 406
f 408 406 291
f 408 291 89
f 408 89 91
f 409 299 40
f 409 40 297
f 410 303 302
f 410 205 306
f 410 306 98
f 410 98 305
f 410 305 303
f 411 306 307
f 411 307 9
f 411 9 43
f 411 43 99
f 411 99 306
f 412 413 302
f 412 302 301
f 412 301 197
f 414 149 317
f 414 317 316
f 414 199 308
f 414 308 146
f 414 146 149
f 415 416 319
f 417 66 418
f 417 201 148
f 417 148 66
f 419 420 96
f 419 96 311
f 419 311 207
f 419 421 420
f 422 208 311
f 422 96 64
f 422 64 208
f 423 424 421
f 423 421 425
f 426 424 423
f 426 423 427
f 428 295 312
f 428 312 108
f 428 108 212
f 429 107 106
f 429 106 105
f 429 105 218
f 429 218 318
f 429 318 314
f 429 314 107
f 430 70 24
f 430 24 111
f 431 326 324
f 431 324 323
f 431 323 53
f 431 53 55
f 432 433 434
f 432 366 435
f 432 322 321
f 432 321 433
f 436 433 321
f 437 330 370
f 437 370 372
f 438 322 432
f 438 432 435
f 438 257 322
f 439 257 438
f 439 438 334
f 439 334 14
f 439 14 257
f 440 335 405
f 440 405 404
f 441 405 335
f 441 335 232
f 441 232 231
f 441 231 340
f 441 340 405
f 442 337 338
f 442 338 137
f 442 137 231
f 442 231 130
f 442 130 337
f 443 137 338
f 443 338 132
f 443 132 342
f 444 403 405
f 444 405 340
f 444 340 126
f 444 126 129
f 445 343 137
f 446 133 343
f 446 343 341
f 446 341 133
f 447 357 448
f 447 346 347
f 447 347 449
f 450 351 353
f 450 352 21
f 450 21 351
f 451 452 228
f 451 228 238
f 451 238 352
f 451 352 450
f 453 452 355
f 453 355 357
f 453 357 447
f 453 447 449
f 454 358 235
f 454 235 346
f 455 354 353
f 455 353 356
f 455 456 448
f 455 448 357
f 455 357 354
f 457 241 358
f 457 358 458
f 457 458 456
f 457 456 459
f 457 360 19
f 457 19 241
f 460 359 360
f 460 360 457
f 460 457 459
f 461 119 22
f 461 22 363
f 461 363 365
f 461 365 368
f 461 368 119
f 462 369 372
f 463 246 243
f 463 243 244
f 463 244 370
f 463 370 330
f 463 330 246
f 464 334 371
f 464 371 373
f 464 373 15
f 464 15 334
f 465 171 268
f 465 268 374
f 466 339 171
f 466 171 465
f 466 465 374
f 466 374 250
f 467 398 397
f 467 397 278
f 467 278 179
f 467 179 26
f 468 72 69
f 468 69 151
f 468 26 152
f 468 152 72
f 469 375 177
f 470 14 376
f 470 376 71
f 470 71 14
f 471 379 157
f 471 157 380
f 471 380 263
f 471 263 381
f 471 381 379
f 472 265 383
f 472 383 78
f 472 78 83
f 472 83 265
f 473 304 305
f 473 305 294
f 474 23 384
f 475 387 388
f 475 388 170
f 475 170 387
f 476 273 389
f 476 389 272
f 476 272 273
f 477 387 392
f 477 392 386
f 477 386 387
f 478 278 396
f 478 396 180
f 478 180 77
f 478 77 278
f 479 399 480
f 479 480 402
f 479 402 401
f 479 401 187
f 479 187 186
f 479 186 182
f 481 482 483
f 481 483 484
f 481 484 297
f 481 297 296
f 485 205 410
f 485 410 302
f 485 302 413
f 485 203 205
f 486 487 413
f 486 413 412
f 486 412 197
f 488 425 421
f 489 404 403
f 489 426 427
f 490 407 491
f 490 491 482
f 490 482 298
f 490 298 407
f 492 309 199
f 492 199 414
f 492 414 316
f 492 316 309
f 493 318 218
f 493 415 319
f 493 319 318
f 494 495 496
f 494 496 484
f 494 484 483
f 497 496 495
f 497 495 423
f 497 423 425
f 498 299 409
f 498 496 499
f 498 499 299
f 500 488 421
f 500 421 419
f 500 419 207
f 500 207 206
f 501 96 422
f 501 422 311
f 501 311 96
f 502 426 225
f 502 225 60
f 503 327 48
f 503 504 505
f 503 505 219
f 503 219 327
f 506 111 110
f 506 110 219
f 506 219 505
f 506 505 504
f 506 430 111
f 507 366 432
f 507 432 434
f 507 434 431
f 507 431 55
f 507 55 366
f 508 70 430
f 508 504 436
f 508 436 321
f 508 321 70
f 509 333 330
f 509 330 437
f 509 437 372
f 509 372 369
f 509 369 368
f 509 368 365
f 509 365 333
f 510 371 334
f 510 334 438
f 511 491 407
f 511 407 408
f 511 408 91
f 511 91 335
f 511 335 440
f 511 440 404
f 511 404 491
f 512 225 403
f 512 403 444
f 512 444 129
f 512 129 225
f 513 343 445
f 513 445 137
f 513 137 443
f 513 443 342
f 513 342 343
f 514 458 358
f 514 358 454
f 514 454 346
f 514 346 447
f 514 447 448
f 514 448 456
f 514 456 458
f 515 355 452
f 515 452 451
f 515 451 450
f 515 450 353
f 515 353 355
f 516 453 449
f 516 449 347
f 516 347 362
f 516 362 252
f 516 252 254
f 517 228 452
f 517 516 254
f 517 254 229
f 517 229 227
f 517 227 228
f 518 456 455
f 519 54 52
f 519 52 118
f 519 118 119
f 519 119 367
f 519 367 369
f 519 369 462
f 519 462 366
f 519 366 54
f 520 339 466
f 520 466 250
f 520 250 339
f 521 26 468
f 521 468 522
f 521 522 523
f 521 523 398
f 521 398 467
f 521 467 26
f 524 522 468
f 524 468 151
f 524 151 375
f 524 375 469
f 524 469 525
f 524 525 523
f 524 523 522
f 526 402 480
f 526 523 525
f 526 525 469
f 526 286 402
f 527 176 391
f 527 391 469
f 527 469 177
f 527 177 176
f 528 384 304
f 528 304 473
f 528 473 529
f 528 474 384
f 530 428 474
f 530 295 428
f 531 23 474
f 531 428 212
f 532 399 479
f 532 479 182
f 532 182 181
f 532 181 279
f 532 279 399
f 533 298 482
f 533 482 481
f 533 481 296
f 533 296 298
f 534 299 486
f 534 486 197
f 534 197 40
f 534 40 300
f 534 300 299
f 535 487 486
f 535 486 299
f 535 299 499
f 536 413 487
f 536 488 500
f 536 500 206
f 536 206 203
f 537 489 427
f 537 427 423
f 537 423 495
f 537 495 494
f 537 494 483
f 537 483 482
f 538 426 489
f 538 489 403
f 538 403 225
f 538 225 426
f 539 217 316
f 539 316 317
f 539 493 218
f 539 218 217
f 540 499 496
f 540 496 497
f 540 497 425
f 540 425 488
f 540 488 536
f 540 536 487
f 540 487 535
f 540 535 499
f 541 297 484
f 541 484 496
f 541 496 498
f 541 498 409
f 541 409 297
f 542 420 421
f 542 421 424
f 542 424 426
f 542 426 502
f 542 502 60
f 542 60 96
f 542 96 420
f 543 325 326
f 544 50 325
f 544 325 543
f 544 503 48
f 544 48 109
f 544 109 50
f 545 506 504
f 545 504 508
f 545 508 430
f 545 430 506
f 546 371 510
f 546 510 438
f 546 438 435
f 546 435 366
f 546 366 462
f 546 462 372
f 546 372 371
f 547 453 516
f 547 516 517
f 547 517 452
f 547 452 453
f 548 356 351
f 548 351 350
f 548 518 455
f 548 455 356
f 549 147 359
f 549 359 460
f 549 460 459
f 549 349 348
f 549 348 147
f 550 523 526
f 550 526 480
f 550 480 399
f 551 391 286
f 551 286 526
f 551 526 469
f 551 469 391
f 552 474 528
f 553 295 530
f 553 530 474
f 553 474 552
f 553 552 528
f 553 528 529
f 553 529 473
f 553 473 294
f 553 294 295
f 554 214 213
f 554 23 531
f 554 531 212
f 554 212 214
f 555 428 531
f 555 531 474
f 555 474 428
f 556 413 536
f 556 536 203
f 556 203 485
f 556 485 413
f 557 489 537
f 557 537 482
f 557 482 491
f 557 491 404
f 557 404 489
f 558 201 417
f 558 417 418
f 558 418 415
f 558 415 493
f 558 493 539
f 558 539 317
f 558 317 201
f 559 543 326
f 559 326 431
f 559 431 434
f 559 434 433
f 559 433 436
f 559 436 504
f 560 349 549
f 560 518 548
f 560 548 350
f 560 350 349
f 561 518 560
f 561 560 549
f 561 549 459
f 561 459 456
f 561 456 518
f 562 398 523
f 562 523 550
f 562 550 399
f 562 399 396
f 562 396 398
f 563 23 554
f 563 554 213
f 563 213 313
f 564 503 544
f 564 544 543
f 564 543 559
f 564 559 504
f 564 504 503
f 565 23 563
f 565 563 313
f 565 313 314
f 566 320 319
f 566 23 565
f 566 314 320
f 567 416 415
f 567 415 418
f 567 23 566
f 567 319 416
f 568 314 566
f 568 566 565
f 568 565 314
f 569 66 21
f 569 21 23
f 569 23 567
f 569 567 418
f 569 418 66
f 570 319 567
f 570 567 566
f 570 566 319
