# Convex hull collision mesh — generated by scripts/generate-collision-meshes.mjs (units: meters)
v 0.026500 0.001500 -0.000010
v 0.026500 0.011252 0.000987
v 0.026500 0.001500 0.000000
v 0.026500 -0.014500 0.000394
v 0.021230 -0.009730 0.002550
v 0.021230 0.009730 0.002550
v -0.021230 0.009730 0.002550
v -0.023500 -0.001500 -0.000010
v 0.001554 0.009365 -0.000010
v 0.026500 0.014500 0.000000
v 0.005441 0.012267 -0.000010
v -0.026500 0.009855 0.001050
v -0.026500 0.014500 0.000000
v -0.026500 -0.014500 0.000000
v -0.026000 -0.015000 0.000394
v 0.026000 -0.015000 0.000000
v 0.021355 -0.015000 0.001050
v -0.026100 -0.014988 0.000370
v -0.026111 -0.014987 0.000000
v 0.026500 -0.009855 0.001050
v 0.026500 -0.014500 0.000000
v 0.024189 -0.015000 0.000798
v -0.021230 -0.009730 0.002550
v -0.022309 -0.009730 0.002492
v -0.021767 -0.010809 0.002477
v 0.021230 -0.010809 0.002492
v -0.026000 -0.015000 0.000000
v 0.023500 -0.001500 -0.000010
v -0.023500 0.001500 -0.000010
v -0.026500 -0.001500 -0.000010
v 0.026487 0.014611 0.000000
v 0.005647 0.012189 -0.000010
v -0.022835 -0.010809 0.002361
v -0.023612 -0.012864 0.001743
v -0.026359 -0.014834 0.000341
v -0.026282 -0.014902 0.000344
v -0.026195 -0.014955 0.000353
v -0.026500 0.010785 0.001022
v -0.026500 -0.012689 0.000798
v -0.026000 0.015000 0.000394
v -0.021355 0.015000 0.001050
v 0.021355 0.015000 0.001050
v 0.021634 0.014571 0.001291
v 0.021230 0.013920 0.001630
v 0.021721 0.013920 0.001617
v 0.021230 0.012916 0.002029
v -0.021230 0.011875 0.002317
v 0.021230 0.011875 0.002317
v -0.022309 0.009730 0.002492
v -0.023375 0.009730 0.002317
v 0.025420 -0.009730 0.001630
v 0.026375 0.009730 0.001125
v 0.025420 0.009730 0.001630
v 0.022835 -0.010809 0.002361
v 0.022284 -0.011875 0.002260
v 0.023325 -0.011875 0.002090
v 0.021230 -0.011875 0.002317
v 0.021742 -0.012916 0.002015
v -0.021230 -0.010809 0.002492
v -0.005872 0.012206 -0.000010
v -0.026500 0.001500 -0.000010
v -0.023884 -0.010809 0.002131
v -0.023325 -0.011875 0.002090
v -0.023375 -0.009730 0.002317
v -0.024416 -0.009730 0.002029
v -0.021355 -0.015000 0.001050
v -0.025753 0.010536 0.001432
v -0.025420 0.009730 0.001630
v -0.024398 0.010809 0.001974
v -0.024342 -0.011875 0.001808
v -0.021230 0.013920 0.001630
v -0.026500 0.014500 0.000394
v 0.026000 0.015000 0.000000
v 0.021230 0.014875 0.001125
v 0.021758 0.011875 0.002303
v 0.025753 0.010536 0.001432
v 0.024398 0.010809 0.001974
v 0.025080 0.011333 0.001639
v 0.021230 0.010809 0.002492
v 0.022303 0.010809 0.002434
v 0.022309 0.009730 0.002492
v 0.023375 0.009730 0.002317
v 0.023363 0.010809 0.002260
v 0.023375 -0.009730 0.002317
v -0.021230 0.010809 0.002492
v -0.024416 0.009730 0.002029
v 0.026500 0.009855 0.001050
v 0.026375 -0.009730 0.001125
v 0.026500 -0.001500 -0.000010
v 0.022760 -0.012916 0.001905
v 0.022309 -0.009730 0.002492
v -0.021230 -0.011875 0.002317
v -0.004916 0.012267 -0.000010
v -0.026312 -0.014891 0.000000
v -0.026391 -0.014812 0.000000
v -0.026450 -0.014717 0.000000
v -0.026375 0.009730 0.001125
v -0.026375 -0.009730 0.001125
v -0.026500 -0.009855 0.001050
v -0.023235 -0.015000 0.000937
v -0.024364 -0.012112 0.001743
v -0.026500 -0.013592 0.000619
v -0.024189 0.015000 0.000798
v -0.021230 0.014875 0.001125
v -0.005558 0.012275 -0.000010
v -0.026111 0.014987 0.000000
v -0.006141 0.012102 -0.000010
v -0.026500 0.013108 0.000721
v -0.024364 0.012112 0.001743
v -0.023612 0.012864 0.001743
v -0.026334 0.014859 0.000341
v -0.026000 0.015000 0.000000
v -0.005225 0.012301 -0.000010
v 0.022036 0.014253 0.001432
v 0.026000 0.015000 0.000394
v 0.026100 0.014988 0.000370
v 0.026111 0.014987 0.000000
v 0.026500 0.013592 0.000619
v 0.024416 0.009730 0.002029
v 0.026500 0.014500 0.000394
v -0.022303 0.010809 0.002434
v -0.021230 0.012916 0.002029
v 0.023884 -0.010809 0.002131
v 0.024342 -0.011875 0.001808
v 0.024902 -0.010809 0.001789
v 0.024416 -0.009730 0.002029
v 0.026500 -0.011735 0.000937
v 0.026111 -0.014987 0.000000
v 0.025092 -0.015000 0.000619
v 0.022833 -0.013580 0.001639
v 0.022036 -0.014253 0.001432
v 0.021767 -0.010809 0.002477
v -0.026217 -0.014950 0.000000
v -0.026487 -0.014611 0.000000
v -0.025420 -0.009730 0.001630
v -0.025753 -0.010536 0.001432
v -0.025080 -0.011333 0.001639
v -0.026500 -0.011252 0.000987
v -0.024608 -0.015000 0.000721
v -0.026500 -0.014500 0.000394
v -0.025092 0.015000 0.000619
v -0.022752 0.015000 0.000987
v -0.022833 0.013580 0.001639
v 0.005145 0.012301 -0.000010
v -0.025080 0.011333 0.001639
v -0.023837 0.011875 0.001963
v 0.026217 0.014950 0.000000
v 0.026312 0.014891 0.000000
v 0.023235 0.015000 0.000937
v 0.023837 0.011875 0.001963
v 0.026500 0.012689 0.000798
v 0.026450 0.014717 0.000000
v -0.023363 0.010809 0.002260
v -0.022807 0.011875 0.002189
v -0.021758 0.011875 0.002303
v 0.026500 -0.013108 0.000721
v 0.024364 -0.012112 0.001743
v 0.026500 -0.010785 0.001022
v 0.026217 -0.014950 0.000000
v 0.026312 -0.014891 0.000000
v 0.026391 -0.014812 0.000000
v 0.026450 -0.014717 0.000000
v 0.026487 -0.014611 0.000000
v 0.021230 -0.014875 0.001125
v 0.021634 -0.014571 0.001291
v 0.022752 -0.015000 0.000987
v -0.021634 -0.014571 0.001291
v -0.021230 -0.013920 0.001630
v 0.021230 -0.012916 0.002029
v 0.021230 -0.013920 0.001630
v -0.022833 -0.013580 0.001639
v -0.022284 -0.011875 0.002260
v -0.021742 -0.012916 0.002015
v -0.024902 -0.010809 0.001789
v -0.026468 -0.014663 0.000358
v -0.026492 -0.014583 0.000374
v -0.021634 0.014571 0.001291
v -0.022253 0.012916 0.001974
v -0.023263 0.012916 0.001808
v -0.026083 0.014992 0.000374
v -0.026163 0.014968 0.000358
v -0.026450 0.014717 0.000000
v -0.026391 0.014812 0.000000
v -0.026312 0.014891 0.000000
v -0.026500 0.011735 0.000937
v 0.022833 0.013580 0.001639
v 0.022285 0.015000 0.001022
v 0.024364 0.012112 0.001743
v 0.022807 0.011875 0.002189
v 0.026391 0.014812 0.000000
v 0.025080 -0.011333 0.001639
v 0.026488 -0.014600 0.000370
v 0.026455 -0.014695 0.000353
v 0.023612 -0.012864 0.001743
v 0.025753 -0.010536 0.001432
v -0.021230 -0.014875 0.001125
v -0.022285 -0.015000 0.001022
v -0.021230 -0.012916 0.002029
v -0.022036 -0.014253 0.001432
v -0.022760 -0.012916 0.001905
v -0.026422 -0.014753 0.000346
v -0.021721 0.013920 0.001617
v -0.026487 0.014611 0.000000
v -0.026217 0.014950 0.000000
v -0.026253 0.014922 0.000346
v 0.022253 0.012916 0.001974
v 0.024608 0.015000 0.000721
v 0.026359 0.014834 0.000341
v 0.023263 0.012916 0.001808
v 0.026000 -0.015000 0.000394
v -0.022036 0.014253 0.001432
v -0.026402 0.014782 0.000344
v -0.026455 0.014695 0.000353
v -0.026488 0.014600 0.000370
v 0.026468 0.014663 0.000358
v 0.026195 0.014955 0.000353
v 0.023612 0.012864 0.001743
v 0.026253 -0.014922 0.000346
v 0.026422 0.014753 0.000346
v 0.026492 0.014583 0.000374
v 0.026282 0.014902 0.000344
v 0.026163 -0.014968 0.000358
v 0.026334 -0.014859 0.000341
v 0.026083 -0.014992 0.000374
v 0.026402 -0.014782 0.000344
f 1 2 3
f 4 1 3
f 4 3 2
f 5 6 7
f 8 9 1
f 10 2 1
f 11 1 9
f 11 9 8
f 12 13 14
f 15 16 17
f 15 18 19
f 20 4 2
f 21 1 4
f 22 17 16
f 23 24 25
f 23 26 5
f 23 5 7
f 23 7 24
f 27 8 16
f 27 16 15
f 27 15 19
f 28 16 8
f 28 8 1
f 29 11 8
f 30 14 13
f 30 29 8
f 30 8 27
f 30 27 19
f 31 10 1
f 32 1 11
f 33 25 24
f 34 35 36
f 34 36 37
f 34 37 18
f 34 18 15
f 38 13 12
f 39 12 14
f 40 41 42
f 43 44 45
f 46 45 44
f 46 47 48
f 49 50 24
f 49 24 7
f 51 52 53
f 54 55 56
f 57 58 55
f 59 26 23
f 59 23 25
f 59 57 26
f 60 11 29
f 61 29 30
f 61 30 13
f 61 60 29
f 62 63 33
f 64 65 62
f 64 62 33
f 64 33 24
f 64 24 50
f 64 50 65
f 66 15 17
f 67 68 69
f 70 63 62
f 71 46 44
f 71 44 43
f 72 13 38
f 73 40 42
f 74 43 42
f 74 42 41
f 75 46 48
f 76 53 52
f 76 52 2
f 77 53 76
f 77 76 78
f 79 7 6
f 79 80 75
f 79 75 48
f 79 48 47
f 81 82 83
f 81 83 80
f 81 80 79
f 81 79 6
f 81 6 5
f 81 84 82
f 85 49 7
f 85 7 79
f 85 79 47
f 86 65 50
f 86 69 68
f 86 68 65
f 87 2 52
f 87 52 20
f 87 20 2
f 88 52 51
f 88 20 52
f 89 28 1
f 89 1 21
f 89 16 28
f 90 56 55
f 90 55 58
f 91 54 84
f 91 84 81
f 91 81 5
f 92 57 59
f 92 59 25
f 93 11 60
f 94 36 35
f 94 35 95
f 94 95 30
f 96 30 95
f 97 12 98
f 97 98 68
f 97 68 67
f 97 67 38
f 97 38 12
f 99 98 12
f 99 12 39
f 100 15 66
f 101 34 63
f 101 63 70
f 101 35 34
f 102 101 70
f 102 39 14
f 103 41 40
f 104 43 74
f 104 74 41
f 105 60 106
f 105 11 93
f 105 93 60
f 107 60 61
f 108 72 38
f 109 110 111
f 109 72 108
f 112 40 73
f 112 113 105
f 112 105 106
f 114 43 45
f 115 73 42
f 115 116 117
f 115 117 73
f 118 2 10
f 119 82 84
f 119 51 53
f 119 53 77
f 119 77 83
f 119 83 82
f 120 118 10
f 121 49 85
f 122 47 46
f 122 46 71
f 123 54 56
f 123 56 124
f 123 124 125
f 123 84 54
f 126 84 123
f 126 123 125
f 126 125 51
f 126 51 119
f 126 119 84
f 127 4 20
f 128 16 89
f 129 22 16
f 130 131 22
f 130 22 129
f 130 90 58
f 130 58 131
f 132 26 57
f 132 57 55
f 132 55 54
f 132 54 91
f 132 91 5
f 132 5 26
f 133 37 36
f 133 36 94
f 133 94 30
f 133 30 19
f 133 19 18
f 133 18 37
f 134 14 30
f 134 30 96
f 135 68 98
f 135 98 136
f 135 65 68
f 137 136 39
f 137 39 102
f 137 102 70
f 138 136 98
f 138 98 99
f 138 99 39
f 138 39 136
f 139 15 100
f 139 34 15
f 140 101 102
f 140 102 14
f 141 103 40
f 141 40 110
f 142 41 103
f 143 103 141
f 144 11 105
f 144 105 113
f 144 113 112
f 144 112 73
f 144 73 117
f 144 117 11
f 145 69 109
f 145 109 108
f 145 67 69
f 146 110 109
f 146 109 69
f 147 148 1
f 147 1 32
f 147 32 11
f 147 11 117
f 147 117 116
f 149 115 42
f 150 83 77
f 151 2 118
f 151 118 78
f 151 78 76
f 151 76 2
f 152 31 1
f 153 69 86
f 153 86 50
f 153 50 49
f 153 49 121
f 153 121 154
f 153 154 146
f 153 146 69
f 155 47 122
f 155 154 121
f 155 121 85
f 155 85 47
f 156 124 4
f 156 4 127
f 157 4 124
f 157 124 56
f 158 127 20
f 158 20 88
f 159 128 89
f 159 89 160
f 161 89 162
f 161 160 89
f 163 21 4
f 163 162 89
f 163 89 21
f 164 17 165
f 164 66 17
f 166 22 131
f 166 131 165
f 166 165 17
f 166 17 22
f 167 165 168
f 167 164 165
f 169 58 57
f 169 57 92
f 170 131 58
f 170 58 169
f 170 169 168
f 170 168 165
f 170 165 131
f 171 34 139
f 171 139 100
f 172 173 92
f 172 92 25
f 172 25 33
f 172 33 63
f 174 62 65
f 174 65 135
f 174 135 136
f 174 136 137
f 174 137 70
f 174 70 62
f 175 134 96
f 176 134 175
f 176 175 101
f 176 101 140
f 176 140 14
f 176 14 134
f 177 104 41
f 177 41 142
f 177 71 43
f 177 43 104
f 178 154 155
f 178 155 122
f 179 110 146
f 179 146 154
f 179 154 178
f 179 178 143
f 179 143 141
f 179 141 110
f 180 40 112
f 180 112 106
f 180 106 181
f 180 181 110
f 180 110 40
f 182 183 61
f 184 61 183
f 184 183 111
f 185 67 145
f 185 145 108
f 185 108 38
f 185 38 67
f 186 149 114
f 186 114 45
f 187 114 149
f 187 149 42
f 187 42 43
f 187 43 114
f 188 78 118
f 188 118 120
f 188 150 77
f 188 77 78
f 189 83 150
f 189 75 80
f 189 80 83
f 190 152 1
f 190 1 148
f 191 124 156
f 191 156 127
f 191 127 125
f 191 125 124
f 192 4 157
f 192 157 193
f 192 193 162
f 192 162 163
f 192 163 4
f 194 90 130
f 194 130 129
f 194 157 56
f 194 56 90
f 195 51 125
f 195 125 127
f 195 127 158
f 195 158 88
f 195 88 51
f 196 164 167
f 196 167 66
f 196 66 164
f 197 66 167
f 197 100 66
f 198 173 168
f 198 168 169
f 198 169 92
f 198 92 173
f 199 167 168
f 199 168 173
f 199 173 171
f 199 171 100
f 199 100 197
f 199 197 167
f 200 34 171
f 200 171 173
f 200 173 172
f 200 172 63
f 200 63 34
f 201 95 35
f 201 35 101
f 201 101 175
f 201 175 96
f 201 96 95
f 202 143 178
f 202 178 122
f 202 122 71
f 202 71 177
f 203 13 72
f 203 182 61
f 203 61 13
f 204 106 60
f 204 60 107
f 204 107 61
f 204 61 184
f 204 181 106
f 205 181 204
f 205 204 184
f 205 184 111
f 205 111 110
f 205 110 181
f 206 46 75
f 206 75 189
f 206 186 45
f 206 45 46
f 207 149 186
f 207 115 149
f 208 190 148
f 209 186 206
f 209 206 189
f 209 189 150
f 209 115 207
f 209 207 186
f 210 194 129
f 210 129 16
f 211 142 103
f 211 103 143
f 211 143 202
f 211 202 177
f 211 177 142
f 212 183 182
f 212 182 213
f 212 213 109
f 212 109 111
f 212 111 183
f 214 213 182
f 214 182 203
f 214 203 72
f 214 72 109
f 214 109 213
f 215 31 152
f 216 147 116
f 217 188 208
f 217 216 116
f 217 116 115
f 217 115 209
f 217 209 150
f 217 150 188
f 218 159 160
f 219 190 208
f 219 208 188
f 219 188 215
f 219 215 152
f 219 152 190
f 220 31 215
f 220 215 188
f 220 188 120
f 220 120 10
f 220 10 31
f 221 216 217
f 221 217 208
f 221 208 148
f 221 148 147
f 221 147 216
f 222 128 159
f 222 159 218
f 222 218 194
f 223 157 194
f 223 194 218
f 223 218 160
f 223 160 161
f 224 128 222
f 224 222 194
f 224 194 210
f 224 210 16
f 224 16 128
f 225 193 157
f 225 157 223
f 225 223 161
f 225 161 162
f 225 162 193
