# Normalized convex hull collision mesh - generated by scripts/generate-collision-meshes.mjs (units: meters)
v 0.035523 0.016669 -0.012000
v -0.037450 -0.004693 -0.012000
v -0.037450 0.016669 -0.012000
v 0.040084 0.016669 0.011000
v 0.052500 -0.006363 0.003000
v 0.040084 0.016669 -0.011000
v 0.035523 0.016743 -0.011975
v 0.035523 -0.004693 -0.012000
v 0.035523 -0.004759 -0.011980
v -0.039429 -0.004693 -0.011901
v -0.040294 0.016669 -0.011782
v -0.039429 0.016669 -0.011901
v -0.038465 -0.004693 -0.011975
v -0.042011 0.016669 -0.011000
v -0.052500 -0.006821 0.000351
v -0.042011 0.016669 0.011000
v -0.052500 -0.006821 0.005631
v -0.004734 -0.017000 0.007551
v -0.021837 -0.017000 0.007551
v -0.016779 -0.017000 -0.001569
v -0.037450 0.016669 0.012000
v 0.035523 0.016669 0.012000
v -0.037450 0.016743 0.011975
v 0.051950 -0.006889 -0.001123
v 0.051950 -0.006889 0.000877
v 0.051410 -0.007065 -0.003000
v -0.041140 -0.004769 -0.011541
v -0.041788 -0.004720 -0.011298
v -0.041559 -0.004693 -0.011434
v -0.041016 0.016669 -0.011623
v -0.041140 0.016700 -0.011581
v -0.041016 -0.004693 -0.011623
v -0.040294 -0.004693 -0.011782
v -0.037450 -0.004759 -0.011980
v 0.035523 0.016875 -0.011782
v -0.037450 0.016928 -0.011623
v 0.035523 0.016928 -0.011623
v 0.035523 0.017000 -0.011000
v -0.037450 0.016992 -0.011223
v -0.037450 0.017000 -0.011000
v 0.035523 0.017000 0.011000
v -0.038465 0.016669 -0.011975
v -0.037450 0.016743 -0.011975
v 0.035523 0.016813 -0.011901
v -0.040131 0.016752 -0.011769
v -0.037450 0.017000 0.011000
v -0.038465 0.016992 0.011000
v -0.037450 0.016992 0.011223
v -0.038465 0.016992 -0.011000
v -0.039429 0.016967 -0.011000
v -0.040294 0.016928 -0.011000
v -0.041016 0.016875 -0.011000
v -0.041016 0.016875 0.011000
v 0.039969 0.016669 0.011223
v 0.039860 0.016685 0.011305
v 0.052371 -0.006729 0.003000
v 0.035523 -0.004759 0.011980
v 0.052500 -0.006363 -0.001000
v 0.051410 -0.007065 0.003000
v 0.051939 -0.006886 0.003140
v 0.030962 -0.012560 0.004900
v -0.020839 -0.017000 0.001230
v -0.021837 -0.017000 -0.000080
v -0.041559 -0.004796 -0.011300
v -0.052075 -0.007189 0.005631
v -0.041788 -0.004745 -0.011265
v -0.052324 -0.006934 0.000141
v -0.041897 -0.004693 -0.011223
v -0.051641 -0.007257 0.000062
v -0.041140 -0.004719 -0.011582
v -0.004734 -0.017000 -0.000080
v 0.036538 0.016669 -0.011975
v 0.037502 0.016669 -0.011901
v 0.037502 -0.004693 -0.011901
v -0.040131 -0.004764 -0.011780
v -0.038860 -0.004816 -0.011875
v -0.037450 0.016813 -0.011901
v -0.038860 0.016812 -0.011847
v 0.036538 0.016992 -0.011000
v -0.038860 0.016718 -0.011939
v -0.040131 0.016827 -0.011655
v -0.041897 0.016743 -0.011000
v -0.041897 0.016669 -0.011223
v 0.039860 -0.004706 0.011306
v 0.039632 0.016669 0.011434
v 0.039088 0.016669 0.011623
v 0.039212 0.016729 0.011559
v 0.038203 -0.004798 0.011744
v 0.039212 -0.004744 0.011567
v 0.039212 -0.004792 0.011505
v -0.037450 -0.004759 0.011980
v -0.038465 -0.004693 0.011975
v 0.035523 -0.004693 0.012000
v 0.035523 0.016743 0.011975
v -0.038860 -0.004735 0.011942
v -0.041788 0.016766 0.011095
v -0.041788 0.016766 -0.011095
v -0.038465 0.016669 0.011975
v -0.038860 0.016718 0.011939
v -0.038860 0.016812 0.011847
v 0.052477 -0.006541 -0.003123
v 0.051950 -0.006889 0.002877
v -0.052276 -0.007015 0.005446
v -0.052324 -0.006934 0.005841
v -0.052236 -0.006805 0.005919
v -0.052292 -0.006684 0.005841
v -0.051641 -0.007257 0.005919
v -0.041140 -0.004769 0.011541
v -0.051659 -0.007042 0.006081
v -0.009792 -0.017000 -0.001569
v 0.036538 -0.004693 -0.011975
v 0.036932 -0.004776 -0.011917
v 0.038366 0.016669 -0.011782
v 0.036932 0.016766 -0.011905
v -0.038860 -0.004735 -0.011942
v -0.037450 0.016875 -0.011782
v 0.037502 0.016967 -0.011000
v 0.036932 0.016968 -0.011294
v 0.038366 0.016928 0.011000
v 0.038366 0.016928 -0.011000
v -0.037450 0.016967 -0.011434
v -0.038860 0.016950 -0.011432
v -0.038860 0.016892 -0.011672
v -0.040131 0.016886 -0.011476
v -0.040131 0.016924 -0.011250
v -0.041140 0.016842 -0.011267
v -0.041140 0.016757 -0.011524
v -0.041559 0.016813 -0.011000
v 0.039860 0.016742 0.011219
v 0.039969 0.016743 -0.011000
v 0.052093 -0.006489 0.003300
v 0.039632 -0.004693 0.011434
v 0.039088 -0.004693 0.011623
v 0.038366 0.016669 0.011782
v 0.037502 0.016669 0.011901
v 0.037502 -0.004693 0.011901
v -0.037450 -0.004693 0.012000
v 0.036538 -0.004693 0.011975
v 0.036932 -0.004776 0.011917
v 0.035523 0.016992 0.011223
v 0.038203 0.016908 0.011367
v 0.038203 0.016934 0.011127
v 0.036932 0.016968 0.011294
v 0.036932 0.016924 0.011559
v 0.038203 0.016858 0.011572
v 0.036538 0.016669 0.011975
v 0.036932 0.016854 0.011769
v -0.041897 0.016743 0.011000
v -0.041788 0.016701 0.011294
v -0.041559 0.016669 0.011434
v -0.037450 0.016967 0.011434
v -0.038860 0.016950 0.011432
v -0.039429 0.016669 0.011901
v -0.040294 0.016669 0.011782
v -0.040294 -0.004693 0.011782
v -0.037450 0.016813 0.011901
v 0.052500 -0.006363 -0.003000
v 0.052371 -0.006729 -0.003000
v 0.052477 -0.006541 0.002877
v -0.051454 -0.007364 0.005841
v -0.052075 -0.007189 0.000351
v 0.030962 -0.012560 -0.004900
v 0.036932 0.016854 -0.011769
v 0.039088 0.016875 0.011000
v 0.038203 0.016934 -0.011127
v 0.036538 0.016992 0.011000
v 0.035523 0.016967 -0.011434
v -0.038860 0.016980 -0.011149
v -0.041788 0.016701 -0.011294
v -0.041140 0.016861 -0.011092
v -0.041559 0.016813 0.011000
v 0.039969 0.016743 0.011000
v 0.039860 0.016760 0.011140
v 0.039860 0.016716 0.011275
v 0.039860 0.016770 -0.011048
v 0.052013 -0.006648 0.003300
v 0.051842 -0.006765 0.003300
v 0.039860 -0.004733 0.011284
v 0.038366 -0.004693 0.011782
v 0.039212 0.016784 0.011476
v 0.038203 0.016791 0.011721
v 0.036932 0.016766 0.011905
v -0.041016 0.016669 0.011623
v -0.039429 -0.004693 0.011901
v -0.040131 -0.004764 0.011780
v -0.041897 0.016669 0.011223
v -0.040294 0.016928 0.011000
v -0.038860 0.016980 0.011149
v -0.040131 0.016924 0.011250
v -0.041140 0.016842 0.011267
v 0.035523 0.016967 0.011434
v 0.051950 -0.006889 -0.003123
v 0.051602 -0.006967 -0.003192
v 0.039860 -0.004706 -0.011306
v 0.052371 -0.006447 -0.003192
v 0.039632 -0.004693 -0.011434
v 0.039632 0.016669 -0.011434
v 0.038366 -0.004693 -0.011782
v -0.051454 -0.007364 0.000141
v 0.025054 -0.012770 -0.004900
v 0.038203 0.016791 -0.011721
v 0.038203 0.016858 -0.011572
v 0.036932 0.016924 -0.011559
v 0.039088 0.016875 -0.011000
v 0.039212 0.016854 -0.011182
v 0.039632 0.016813 0.011000
v 0.039212 0.016854 0.011182
v 0.038203 0.016908 -0.011367
v 0.037502 0.016967 0.011000
v 0.035523 0.016992 -0.011223
v -0.041559 0.016669 -0.011434
v -0.041788 0.016752 -0.011182
v 0.039860 0.016770 0.011048
v 0.039969 0.016669 -0.011223
v 0.039860 0.016742 -0.011219
v 0.039860 0.016716 -0.011275
v 0.038203 -0.004729 0.011802
v -0.037450 0.016875 0.011782
v 0.035523 0.016875 0.011782
v -0.038860 0.016892 0.011672
v 0.035523 0.016813 0.011901
v 0.038203 0.016711 0.011799
v -0.041140 -0.004719 0.011582
v -0.040131 0.016752 0.011769
v -0.039429 0.016967 0.011000
v -0.041788 0.016752 0.011182
v -0.041140 0.016757 0.011524
v -0.041140 0.016861 0.011092
v 0.035523 0.016928 0.011623
v 0.052062 -0.006799 -0.003192
v 0.039088 -0.004693 -0.011623
v 0.039088 0.016669 -0.011623
v 0.038203 0.016711 -0.011799
v 0.039632 0.016813 -0.011000
v 0.039212 0.016827 0.011345
v -0.041788 0.016729 -0.011250
v -0.041140 0.016807 -0.011416
v 0.039860 0.016685 -0.011305
v 0.039860 0.016760 -0.011140
v 0.039212 0.016784 -0.011476
v -0.041559 -0.004693 0.011434
v -0.041016 -0.004693 0.011623
v -0.041140 0.016700 0.011581
v -0.040131 0.016886 0.011476
v -0.041788 0.016729 0.011250
v -0.037450 0.016928 0.011623
v 0.039860 -0.004733 -0.011284
v 0.052316 -0.006630 -0.003192
v 0.039212 -0.004744 -0.011567
v 0.039212 0.016729 -0.011559
v 0.039212 0.016827 -0.011345
v -0.041140 0.016807 0.011416
v -0.040131 0.016827 0.011655
v 0.039212 -0.004792 -0.011505
v 0.038203 -0.004798 -0.011744
v 0.038203 -0.004729 -0.011802
f 1 2 3
f 4 5 6
f 7 1 3
f 8 2 1
f 8 9 2
f 10 11 12
f 13 10 12
f 13 3 2
f 14 15 16
f 17 16 15
f 18 19 20
f 21 22 23
f 24 25 26
f 27 28 29
f 30 31 11
f 30 11 32
f 33 11 10
f 33 32 11
f 34 13 2
f 34 2 9
f 34 9 20
f 35 36 37
f 38 39 40
f 38 40 41
f 42 3 13
f 42 13 12
f 43 3 42
f 43 44 7
f 43 7 3
f 45 11 31
f 45 12 11
f 46 47 48
f 46 48 41
f 46 41 40
f 46 40 47
f 49 40 39
f 49 50 47
f 49 47 40
f 51 52 53
f 54 55 5
f 54 5 4
f 56 25 24
f 57 19 18
f 58 6 5
f 59 60 61
f 59 61 26
f 59 26 25
f 62 20 19
f 63 20 62
f 63 62 19
f 63 64 27
f 63 27 20
f 65 63 19
f 66 28 27
f 66 27 64
f 66 64 63
f 67 68 28
f 67 28 66
f 67 66 69
f 70 27 29
f 70 31 30
f 70 30 32
f 71 18 20
f 71 61 18
f 72 1 7
f 72 73 74
f 72 8 1
f 75 20 27
f 75 27 70
f 75 70 32
f 75 32 33
f 75 33 10
f 76 34 20
f 76 20 75
f 77 35 44
f 77 44 43
f 77 43 78
f 79 38 41
f 80 12 45
f 80 45 78
f 80 78 43
f 80 43 42
f 80 42 12
f 81 78 45
f 82 14 16
f 83 14 82
f 83 28 68
f 83 68 67
f 83 15 14
f 84 55 85
f 86 85 87
f 88 18 61
f 88 61 89
f 90 60 89
f 90 89 61
f 90 61 60
f 91 19 57
f 91 92 19
f 93 22 21
f 93 91 57
f 94 23 22
f 95 19 92
f 96 97 82
f 98 21 23
f 98 23 99
f 98 92 21
f 100 99 23
f 101 58 5
f 102 60 59
f 102 59 25
f 102 25 56
f 102 56 60
f 103 65 17
f 103 17 15
f 104 105 106
f 104 106 17
f 104 17 65
f 107 19 108
f 107 109 104
f 107 104 65
f 110 71 20
f 110 20 9
f 111 8 72
f 111 72 74
f 111 74 112
f 111 112 9
f 111 9 8
f 113 74 73
f 114 73 72
f 114 72 7
f 114 7 44
f 115 34 76
f 115 76 75
f 115 75 10
f 115 10 13
f 115 13 34
f 116 36 35
f 116 35 77
f 116 77 78
f 117 118 79
f 117 119 120
f 121 36 122
f 121 122 39
f 121 37 36
f 123 78 81
f 123 81 124
f 123 124 122
f 123 122 36
f 123 36 116
f 123 116 78
f 125 51 50
f 125 122 124
f 125 124 126
f 127 81 45
f 127 45 31
f 128 126 97
f 128 97 96
f 83 15 83
f 83 83 67
f 83 67 15
f 129 54 4
f 130 4 6
f 131 5 55
f 131 55 84
f 131 56 5
f 132 84 85
f 132 85 86
f 133 89 132
f 133 132 86
f 134 135 136
f 134 133 86
f 137 91 93
f 137 93 21
f 137 21 92
f 137 92 91
f 138 93 57
f 138 57 18
f 138 18 139
f 138 139 136
f 138 136 135
f 138 22 93
f 140 41 48
f 141 142 143
f 141 143 144
f 141 144 145
f 146 94 22
f 146 22 138
f 146 138 135
f 147 145 144
f 148 96 82
f 148 82 16
f 149 105 150
f 151 140 48
f 151 48 152
f 153 92 98
f 153 98 99
f 153 154 155
f 156 100 23
f 156 23 94
f 157 58 101
f 157 6 58
f 158 101 56
f 158 56 24
f 159 56 101
f 159 101 5
f 159 5 56
f 160 19 107
f 160 107 65
f 160 65 19
f 161 65 103
f 161 103 15
f 161 15 67
f 161 67 69
f 161 63 65
f 162 71 110
f 162 9 112
f 162 26 61
f 162 61 71
f 163 35 37
f 163 114 44
f 163 44 35
f 164 119 142
f 164 120 119
f 165 118 117
f 165 117 120
f 166 117 79
f 166 79 41
f 166 41 140
f 166 140 143
f 167 37 121
f 167 121 39
f 168 122 125
f 168 125 50
f 168 50 49
f 168 49 39
f 168 39 122
f 169 28 83
f 170 126 128
f 170 53 52
f 170 52 51
f 170 51 125
f 170 125 126
f 171 170 128
f 171 128 96
f 172 173 129
f 172 129 4
f 172 4 130
f 174 55 54
f 174 54 129
f 174 87 85
f 174 85 55
f 175 172 130
f 176 131 84
f 176 84 177
f 176 177 60
f 176 60 56
f 176 56 131
f 178 60 177
f 178 177 84
f 178 84 132
f 178 132 89
f 178 89 60
f 179 133 134
f 179 134 136
f 180 87 174
f 180 174 129
f 181 87 180
f 181 180 145
f 181 145 147
f 182 146 135
f 182 181 147
f 182 94 146
f 183 155 154
f 184 95 92
f 184 92 153
f 184 153 155
f 184 19 95
f 185 19 184
f 185 184 155
f 186 16 17
f 186 17 106
f 186 106 105
f 186 105 149
f 186 148 16
f 187 50 51
f 187 51 53
f 188 189 152
f 188 152 48
f 188 48 47
f 190 171 96
f 191 140 151
f 191 144 143
f 191 143 140
f 192 26 162
f 192 162 193
f 192 158 24
f 192 24 26
f 194 195 101
f 194 196 197
f 198 74 113
f 199 63 161
f 199 161 69
f 199 69 66
f 199 66 63
f 200 9 162
f 200 162 110
f 200 110 9
f 201 114 163
f 201 163 202
f 203 202 163
f 203 163 37
f 203 37 167
f 203 167 118
f 204 205 165
f 204 165 120
f 204 120 164
f 204 164 206
f 207 173 206
f 207 206 164
f 207 164 142
f 207 142 141
f 208 202 203
f 208 203 118
f 208 118 165
f 208 165 205
f 209 142 119
f 209 119 117
f 209 117 166
f 209 166 143
f 209 143 142
f 210 38 79
f 210 79 118
f 210 118 167
f 210 167 39
f 210 39 38
f 211 31 70
f 211 70 29
f 211 29 28
f 211 28 169
f 211 169 127
f 211 127 31
f 212 82 97
f 212 97 126
f 212 83 82
f 213 172 175
f 213 175 206
f 213 206 173
f 213 173 172
f 214 6 157
f 214 157 101
f 215 130 6
f 215 6 214
f 215 214 216
f 217 88 89
f 217 89 133
f 217 133 179
f 217 179 136
f 217 136 139
f 217 139 18
f 217 18 88
f 218 156 219
f 218 220 100
f 218 100 156
f 221 94 182
f 221 182 147
f 221 147 219
f 221 219 156
f 221 156 94
f 222 87 181
f 222 181 182
f 222 182 135
f 222 135 134
f 222 134 86
f 222 86 87
f 223 108 19
f 223 19 185
f 223 109 107
f 223 107 108
f 224 154 153
f 224 153 99
f 224 99 100
f 225 50 187
f 225 187 189
f 225 189 188
f 225 188 47
f 225 47 50
f 226 190 96
f 226 96 148
f 226 148 186
f 227 149 150
f 228 53 170
f 228 170 171
f 228 171 190
f 228 190 189
f 228 189 187
f 228 187 53
f 229 219 147
f 229 147 144
f 229 144 191
f 229 191 151
f 229 218 219
f 230 158 192
f 230 192 193
f 231 198 113
f 231 197 196
f 232 197 231
f 232 231 113
f 233 73 114
f 233 114 201
f 233 232 113
f 233 113 73
f 234 205 204
f 234 204 206
f 234 206 175
f 235 180 129
f 235 129 173
f 235 173 207
f 235 207 141
f 235 141 145
f 235 145 180
f 236 169 83
f 236 83 212
f 236 127 169
f 237 127 236
f 237 236 212
f 237 212 126
f 237 126 124
f 237 124 81
f 237 81 127
f 238 195 194
f 238 194 197
f 238 197 216
f 238 216 214
f 238 214 101
f 238 101 195
f 239 175 130
f 239 130 215
f 239 205 234
f 239 234 175
f 240 201 202
f 240 215 216
f 241 150 105
f 241 105 104
f 241 104 109
f 241 109 223
f 241 223 150
f 242 155 183
f 242 183 223
f 242 223 185
f 242 185 155
f 243 150 223
f 243 223 183
f 243 183 154
f 243 154 224
f 243 224 227
f 243 227 150
f 244 220 152
f 244 152 189
f 244 189 190
f 245 149 227
f 245 226 186
f 245 186 149
f 246 218 229
f 246 229 151
f 246 151 152
f 246 152 220
f 246 220 218
f 247 194 230
f 247 196 194
f 248 101 158
f 248 158 230
f 248 230 194
f 248 194 101
f 249 231 196
f 249 196 247
f 249 247 230
f 249 230 193
f 250 197 232
f 250 232 233
f 250 233 201
f 250 201 240
f 250 240 216
f 250 216 197
f 251 205 239
f 251 239 215
f 251 215 240
f 251 240 202
f 251 202 208
f 251 208 205
f 252 244 190
f 252 190 226
f 252 226 245
f 252 245 227
f 253 224 100
f 253 100 220
f 253 220 244
f 253 244 252
f 253 252 227
f 253 227 224
f 254 162 249
f 254 249 193
f 254 193 162
f 255 249 162
f 255 162 112
f 256 249 255
f 256 255 112
f 256 112 74
f 256 74 198
f 256 198 231
f 256 231 249
