# Convex hull collision mesh — generated by scripts/generate-collision-meshes.mjs
v -21.500000 2.000000 10.500000
v -21.500000 0.000000 10.500000
v 21.500000 2.000000 10.500000
v 0.500000 9.500000 9.500000
v -20.746756 13.000000 -0.588936
v -21.500000 2.000000 -10.500000
v 15.746980 0.000000 9.463663
v -13.632233 0.000000 -9.701938
v -21.500000 0.000000 -10.500000
v 0.054958 9.500000 9.449856
v 14.500000 0.000000 9.900000
v 20.552362 0.000000 8.447272
v -14.500000 0.000000 -9.900000
v 20.731491 0.000000 -9.174032
v 21.500000 2.000000 -10.500000
v 1.800000 14.000000 -9.453939
v 10.500000 12.000000 -9.500000
v -20.669163 13.000000 0.050103
v 18.317867 13.010000 2.929918
v 18.887863 13.010000 2.630760
v 20.439657 0.000000 9.375471
v 20.816355 0.000000 8.950269
v 20.320000 0.000000 -9.390000
v 18.608892 13.000000 -4.291824
v -19.848419 13.010000 1.779781
v -20.214102 13.010000 1.250000
v -19.402491 13.010000 2.244043
v -20.490065 13.000000 0.668420
v 0.506617 14.000000 -8.385154
v 2.192605 14.000000 -7.778683
v -17.071867 13.010000 3.237029
v 17.071867 13.010000 3.237029
v 8.500000 9.500000 9.500000
v 8.945042 9.500000 9.449856
v 9.367767 9.500000 9.301938
v -18.016672 13.000000 -4.544146
v -18.608892 13.000000 -4.291824
v 20.746756 13.000000 -0.588936
v 20.669163 13.000000 0.050103
v 20.320000 0.000000 9.390000
v 21.500000 0.000000 -10.500000
v 20.651562 0.000000 9.264256
v 18.016672 13.000000 -4.544146
v 19.152969 13.000000 -3.947771
v 17.707262 13.010000 3.133767
v -18.887863 13.010000 2.630760
v -18.317867 13.010000 2.929918
v 2.009749 14.000000 -7.639677
v 0.807395 14.000000 -9.221317
v 1.200000 14.000000 -7.546061
v 0.661081 14.000000 -7.955744
v 2.440974 14.000000 -8.838480
v 20.720835 13.000000 -1.232147
v 20.592072 13.000000 -1.862870
v 21.500000 0.000000 10.500000
v 19.402491 13.010000 2.244043
v 20.490065 13.000000 0.668420
v 20.214102 13.010000 1.250000
v 1.200000 14.000000 -9.453939
v 1.800000 14.000000 -7.546061
v -17.707262 13.010000 3.133767
v 0.990251 14.000000 -7.639677
v 0.807395 14.000000 -7.778683
v 0.559026 14.000000 -8.161520
v 2.440974 14.000000 -8.161520
v 2.192605 14.000000 -9.221317
v 20.363802 13.000000 -2.464770
v 20.041935 13.000000 -3.022259
v 19.848419 13.010000 1.779781
v -20.720835 13.000000 -1.232147
v 0.661081 14.000000 -9.044255
v -19.634809 13.000000 -3.520897
v 0.990251 14.000000 -9.360323
v 2.338919 14.000000 -7.955744
v 2.493383 14.000000 -8.614846
v 2.493383 14.000000 -8.385154
v 19.634809 13.000000 -3.520897
v 2.338919 14.000000 -9.044255
v 2.009749 14.000000 -9.360323
v -19.152969 13.000000 -3.947771
v -20.041935 13.000000 -3.022259
v -20.363802 13.000000 -2.464770
v -20.592072 13.000000 -1.862870
v 0.506617 14.000000 -8.614846
v 0.559026 14.000000 -8.838480
f 1 2 3
f 1 3 4
f 1 5 6
f 1 6 2
f 7 2 8
f 9 8 2
f 9 2 6
f 10 1 4
f 11 2 7
f 12 11 7
f 12 7 8
f 13 8 9
f 14 12 8
f 14 8 13
f 14 13 9
f 15 9 6
f 15 6 16
f 15 16 17
f 18 5 1
f 19 3 20
f 21 11 12
f 22 12 14
f 22 21 12
f 23 14 9
f 24 15 17
f 25 26 1
f 25 1 27
f 28 26 18
f 28 18 1
f 28 1 26
f 29 5 18
f 29 18 26
f 29 30 16
f 31 4 32
f 31 10 4
f 33 34 32
f 33 32 4
f 33 4 3
f 33 3 34
f 35 3 19
f 35 19 34
f 35 34 3
f 36 6 37
f 38 39 3
f 38 3 15
f 40 11 21
f 41 15 3
f 41 22 14
f 41 14 23
f 41 23 9
f 41 9 15
f 42 21 22
f 43 16 24
f 43 24 17
f 43 17 16
f 44 15 24
f 45 32 34
f 45 34 19
f 46 27 1
f 46 1 47
f 48 30 29
f 48 19 20
f 49 29 16
f 50 31 32
f 50 48 29
f 51 50 29
f 51 26 25
f 52 16 30
f 53 38 15
f 53 15 54
f 55 22 41
f 55 41 3
f 55 3 2
f 55 2 11
f 55 11 40
f 55 40 21
f 55 21 42
f 55 42 22
f 56 20 3
f 56 30 48
f 56 48 20
f 57 39 58
f 57 58 3
f 57 3 39
f 59 6 36
f 59 36 37
f 59 49 16
f 59 16 6
f 60 48 50
f 60 50 32
f 60 32 45
f 60 45 19
f 60 19 48
f 61 31 50
f 61 50 47
f 61 47 1
f 61 1 10
f 61 10 31
f 62 50 51
f 62 27 46
f 62 46 47
f 62 47 50
f 63 27 62
f 63 62 51
f 63 51 25
f 63 25 27
f 64 26 51
f 64 51 29
f 64 29 26
f 65 52 30
f 66 16 52
f 67 52 54
f 67 54 15
f 67 15 68
f 69 30 56
f 69 56 3
f 69 3 58
f 70 6 5
f 71 49 72
f 71 29 49
f 73 49 59
f 73 59 37
f 74 58 65
f 74 65 30
f 74 30 69
f 74 69 58
f 75 52 65
f 75 38 53
f 75 53 54
f 75 54 52
f 76 39 38
f 76 38 75
f 76 75 65
f 76 65 58
f 76 58 39
f 77 44 66
f 77 68 15
f 77 15 44
f 78 68 77
f 78 77 66
f 78 66 52
f 78 52 67
f 78 67 68
f 79 24 16
f 79 16 66
f 79 66 44
f 79 44 24
f 80 6 72
f 80 72 49
f 80 49 73
f 80 73 37
f 80 37 6
f 81 82 71
f 81 71 72
f 81 72 6
f 81 6 82
f 83 82 6
f 83 6 70
f 84 29 71
f 84 83 70
f 84 70 5
f 84 5 29
f 85 83 84
f 85 84 71
f 85 71 82
f 85 82 83
