# Normalized convex hull collision mesh - generated by scripts/generate-collision-meshes.mjs (units: meters)
v 0.020000 -0.007857 -0.006000
v 0.020000 -0.011000 -0.006000
v -0.020000 -0.007857 -0.006000
v 0.001674 0.011000 -0.005402
v 0.009767 0.007857 -0.005429
v 0.020000 -0.007857 0.006000
v 0.000471 0.011000 -0.004792
v 0.001870 0.011000 -0.005349
v 0.020000 -0.011000 0.006000
v 0.012681 -0.011000 0.005544
v -0.020000 -0.011000 -0.006000
v -0.020000 -0.007857 0.006000
v 0.002176 0.011000 -0.004546
v 0.017311 0.009429 -0.002452
v 0.019299 0.009429 -0.000337
v 0.019275 0.009429 -0.000704
v -0.019299 0.009429 -0.000337
v 0.000751 0.011000 -0.005269
v 0.007907 0.003929 0.005429
v -0.020000 -0.011000 0.006000
v 0.002271 0.011000 -0.005051
v 0.001116 0.011000 -0.004312
v 0.016760 0.009429 -0.002597
v 0.018804 0.009444 0.000714
v 0.018464 0.009444 0.001017
v -0.017311 0.009429 -0.002452
v -0.016760 0.009429 -0.002597
v -0.017817 0.009429 -0.002256
v 0.001116 0.011000 -0.005402
v -0.015881 0.009444 0.001850
v 0.015881 0.009444 0.001850
v 0.002319 0.011000 -0.004792
v 0.018049 0.009444 0.001282
v 0.008321 0.003929 0.005400
v 0.018943 0.009429 -0.001408
v 0.018644 0.009429 -0.001727
v 0.017817 0.009429 -0.002256
v 0.002176 0.011000 -0.005168
v 0.019227 0.009429 0.000029
v -0.019227 0.009429 0.000029
v -0.018804 0.009444 0.000714
v -0.019275 0.009429 -0.000704
v -0.018265 0.009429 -0.002012
v 0.000615 0.011000 -0.005168
v 0.000921 0.011000 -0.005349
v -0.016472 0.009444 0.001791
v -0.017040 0.009444 0.001674
v 0.000051 0.003929 0.005400
v 0.002319 0.011000 -0.004923
v 0.002271 0.011000 -0.004664
v 0.001870 0.011000 -0.004366
v 0.002040 0.011000 -0.004445
v 0.008714 0.003929 0.005315
v 0.017040 0.009444 0.001674
v 0.016472 0.009444 0.001791
v 0.019155 0.009429 -0.001064
v 0.018265 0.009429 -0.002012
v 0.019061 0.009429 0.000382
v -0.017570 0.009444 0.001503
v -0.018049 0.009444 0.001282
v 0.000615 0.011000 -0.004546
v -0.019061 0.009429 0.000382
v -0.018644 0.009429 -0.001727
v -0.018943 0.009429 -0.001408
v -0.019155 0.009429 -0.001064
v 0.000465 0.003929 0.005429
v 0.001674 0.011000 -0.004312
v 0.017570 0.009444 0.001503
v 0.002040 0.011000 -0.005269
v 0.000921 0.011000 -0.004366
v 0.000520 0.011000 -0.004664
v -0.018464 0.009444 0.001017
v 0.000471 0.011000 -0.004923
v 0.000751 0.011000 -0.004445
v 0.000520 0.011000 -0.005051
f 1 2 3
f 1 3 4
f 1 4 5
f 1 6 2
f 7 8 4
f 9 10 2
f 9 2 6
f 11 2 10
f 11 3 2
f 12 3 11
f 12 9 6
f 13 8 7
f 14 1 5
f 15 6 1
f 15 1 16
f 17 3 12
f 18 7 4
f 19 12 6
f 20 10 9
f 20 9 12
f 20 12 11
f 20 11 10
f 21 8 13
f 22 13 7
f 23 4 14
f 23 14 5
f 23 5 4
f 14 8 14
f 14 14 4
f 14 4 8
f 24 25 6
f 24 13 25
f 26 27 3
f 26 3 28
f 29 3 27
f 29 27 26
f 29 18 4
f 29 4 3
f 30 19 31
f 30 31 22
f 32 21 13
f 33 6 25
f 34 19 6
f 34 31 19
f 35 1 36
f 37 14 8
f 37 1 14
f 38 21 35
f 38 35 36
f 38 8 21
f 39 15 32
f 39 32 24
f 39 6 15
f 40 17 12
f 40 41 7
f 40 7 17
f 42 3 17
f 43 28 3
f 43 18 28
f 44 18 43
f 44 7 18
f 45 18 29
f 45 29 26
f 45 26 28
f 45 28 18
f 46 30 22
f 46 22 47
f 46 47 12
f 48 30 46
f 48 46 12
f 49 21 32
f 49 32 15
f 49 15 16
f 50 24 32
f 50 32 13
f 50 13 24
f 51 13 22
f 52 13 51
f 52 51 33
f 52 33 25
f 52 25 13
f 53 54 34
f 53 34 6
f 53 6 54
f 55 31 34
f 55 34 54
f 56 1 35
f 56 35 21
f 56 21 49
f 56 49 16
f 56 16 1
f 57 38 36
f 57 36 1
f 57 1 37
f 58 6 39
f 58 39 24
f 58 24 6
f 59 60 12
f 59 12 47
f 61 22 7
f 62 41 40
f 62 40 12
f 62 12 41
f 63 64 44
f 63 44 43
f 63 43 3
f 63 3 64
f 65 64 3
f 65 3 42
f 66 30 48
f 66 48 12
f 66 12 19
f 66 19 30
f 67 31 55
f 67 55 54
f 67 54 51
f 67 51 22
f 67 22 31
f 68 33 51
f 68 51 54
f 68 54 6
f 68 6 33
f 69 8 38
f 69 38 57
f 69 57 37
f 69 37 8
f 70 60 59
f 70 59 47
f 70 47 22
f 70 22 61
f 71 41 61
f 71 61 7
f 71 7 41
f 72 61 41
f 72 41 12
f 72 12 60
f 73 7 44
f 73 65 42
f 73 42 17
f 73 17 7
f 74 60 70
f 74 70 61
f 74 61 72
f 74 72 60
f 75 65 73
f 75 73 44
f 75 44 64
f 75 64 65
