# Convex hull collision mesh — generated by scripts/generate-collision-meshes.mjs
v -42.500000 -0.800000 25.000000
v -42.500000 -0.800000 -25.000000
v -41.000000 -2.250000 5.680000
v 35.006023 -2.900000 -24.889999
v 36.174999 -2.900000 -23.721024
v 33.325001 -2.900000 -11.778976
v 29.636698 -2.637191 26.000853
v 36.174999 -2.900000 -11.778976
v 42.500000 -0.800000 -25.000000
v 33.325001 -2.900000 -23.721024
v 14.361836 -2.200000 -26.001837
v 39.500000 -0.800000 -28.000000
v -34.361835 -2.200000 -26.001837
v 41.370468 -0.800000 -27.345495
v 40.167564 0.800000 -27.924784
v 45.375969 14.118441 -25.684088
v 40.801651 0.800000 -27.702906
v -39.500000 -0.800000 -28.000000
v -39.500000 0.800000 -28.000000
v 28.863243 16.292479 12.750000
v 28.940001 16.299999 -4.950000
v -34.361835 9.100000 -26.001837
v -42.500000 0.800000 -25.000000
v 35.483303 -2.637191 26.000853
v 35.600903 -2.626176 26.007214
v 11.853721 0.886847 30.287046
v 34.119240 -2.900000 -11.404239
v 42.500000 -0.800000 25.000000
v 45.500000 0.700000 25.350000
v -41.000000 -2.250000 -5.830000
v 34.493977 -2.900000 -24.889999
v 45.750000 1.900000 -23.120001
v 45.500000 1.000000 -25.500000
v 45.500000 14.100000 -25.500000
v 40.167564 -0.800000 -27.924784
v 39.500000 0.800000 -28.000000
v 45.386776 14.100000 -25.680193
v 45.386776 1.000000 -25.680193
v 46.490002 7.733244 26.442478
v 46.490002 7.500000 25.950001
v 46.490002 7.529709 11.719835
v 39.500000 -0.800000 28.000000
v 11.847995 0.934003 30.334549
v 45.500000 0.700000 12.650000
v 45.386776 0.819806 -24.750000
v -39.500000 -0.800000 28.000000
v -40.167564 -0.800000 27.924784
v 11.753127 1.715311 30.400000
v 13.520979 2.009569 30.400000
v 9.966226 1.577944 30.400000
v 13.033774 6.022057 30.400000
v -40.167564 -0.800000 -27.924784
v 45.344505 14.100000 -25.694986
v 24.350000 14.300000 -25.500000
v 45.799999 16.520000 21.750000
v 46.000000 16.520000 21.750000
v 45.799999 17.000000 6.250000
v 45.799999 17.000000 -4.250000
v 29.030001 16.299999 25.350000
v -41.370468 -0.800000 27.345495
v -41.845493 -0.800000 26.870470
v 9.109269 5.054752 30.400000
v 35.006023 -2.900000 -10.610000
v 42.424786 -0.800000 -25.667562
v 42.202908 -0.800000 -26.301651
v 41.845493 -0.800000 -26.870470
v 46.099998 1.380000 -4.250000
v 40.801651 -0.800000 -27.702906
v 46.490002 7.529709 26.280165
v 40.801651 -0.800000 27.702906
v 35.713062 -2.593639 26.025999
v 39.500000 0.800000 28.000000
v 40.167564 0.800000 27.924784
v 30.530001 15.900000 25.900000
v 28.930000 15.900000 25.900000
v 11.158861 6.609530 30.370291
v 29.030001 16.234549 25.537046
v -34.470001 3.960000 29.500000
v -34.759277 3.927406 29.500000
v 45.500000 16.299999 25.350000
v 45.500000 16.292479 25.416756
v 24.350000 14.144505 -25.694986
v 24.350000 14.256367 -25.624699
v 24.350000 14.224698 -25.656366
v 46.099998 17.000000 6.250000
v 46.490002 7.800000 11.550000
v 45.494987 14.100000 -25.544504
v 28.930000 16.299999 25.250000
v -42.424786 -0.800000 25.667562
v -42.424786 0.800000 25.667562
v -42.500000 0.800000 25.000000
v 10.542567 6.324544 30.400000
v 11.152005 0.934003 30.334549
v -40.167564 0.800000 -27.924784
v -40.801651 -0.800000 -27.702906
v -41.370468 -0.800000 -27.345495
v -41.370468 0.800000 -27.345495
v -42.424786 0.800000 -25.667562
v -41.845493 -0.800000 -26.870470
v -42.202908 -0.800000 -26.301651
v 34.493977 -2.900000 -10.610000
v 45.456367 1.000000 -25.624699
v 46.490002 7.500000 11.850000
v 46.099998 1.387522 -4.316756
v 45.424698 0.843634 -24.750000
v 42.202908 -0.800000 26.301651
v 40.167564 -0.800000 27.924784
v 13.071696 1.523004 30.392479
v 12.481105 1.213038 30.392479
v 11.825449 1.119686 30.400000
v 11.841139 0.990470 30.370291
v 14.200000 3.800000 30.400000
v -18.655512 0.800000 29.799999
v -34.759277 0.832594 29.500000
v 8.878457 3.153848 30.400000
v 11.841139 6.609530 30.370291
v 45.500000 16.234549 25.537046
v 28.863243 15.900000 25.892479
v 31.381834 16.299999 25.450140
v 29.030001 16.292479 25.416756
v 24.350000 14.186777 -25.680193
v 46.099998 17.000000 -4.250000
v 46.490002 10.500000 26.150000
v 45.750000 3.800000 -23.120001
v 46.099998 15.270165 -6.220291
v 28.930000 16.299999 12.750000
v 28.863243 16.292479 25.250000
v -42.202908 -0.800000 26.301651
v -41.845493 0.800000 26.870470
v -40.801651 -0.800000 27.702906
v -35.770000 2.660000 29.500000
v -40.801651 0.800000 27.702906
v 11.825449 6.480314 30.400000
v 9.479021 5.590431 30.400000
v 11.146279 0.886847 30.287046
v -40.801651 0.800000 -27.702906
v -42.424786 -0.800000 -25.667562
v -42.202908 0.800000 -26.301651
v 45.480194 1.000000 -25.586777
v 45.467224 14.101578 -25.609695
v 45.424698 14.100000 -25.656366
v 46.490002 7.565451 11.662953
v 46.099998 1.445451 -4.437047
v 46.490002 7.507522 11.783244
v 45.480194 0.913223 -24.750000
v 46.099998 1.380000 6.250000
v 46.000000 1.620000 21.750000
v 46.490002 7.612953 26.384550
v 46.000000 1.655638 21.891819
v 45.930000 3.440000 25.799999
v 45.500000 0.933244 25.642479
v 41.370468 -0.800000 27.345495
v 42.424786 -0.800000 25.667562
v 13.570947 1.965301 30.392479
v 11.174551 1.119686 30.400000
v 11.166504 1.053416 30.392479
v 12.457433 1.275456 30.400000
v 11.833496 1.053416 30.392479
v 11.158861 0.990470 30.370291
v 14.121543 3.153848 30.400000
v -34.470001 0.800000 29.500000
v -35.034050 0.928741 29.500000
v -35.280537 1.083619 29.500000
v -18.746243 0.809242 29.799999
v 9.479021 2.009569 30.400000
v 45.500000 16.130165 25.620291
v 45.500000 16.066757 25.642479
v 45.930000 14.700000 25.799999
v 29.030001 16.270290 25.480165
v 36.900002 16.299999 25.450140
v 24.317631 14.292031 -25.545565
v 24.350000 14.294986 -25.544504
v 45.799999 16.992479 -4.316756
v 46.490002 10.492478 11.783244
v 46.490002 10.266756 26.442478
v 46.099998 15.327047 -6.184549
v 46.099998 15.374550 -6.137047
v 45.299999 14.226546 -25.654875
v -39.900002 6.280000 11.000000
v 8.878457 4.446152 30.400000
v -42.202908 0.800000 26.301651
v -41.370468 0.800000 27.345495
v -35.280537 3.676381 29.500000
v 12.457433 6.324544 30.400000
v 11.166504 6.546584 30.392479
v 11.833496 6.546584 30.392479
v 12.481105 6.386962 30.392479
v -41.845493 0.800000 -26.870470
v 45.480194 14.100000 -25.586777
v 45.484089 14.118441 -25.575970
v 45.494987 1.000000 -25.544504
v 45.424698 1.000000 -25.656366
v 45.456367 14.100000 -25.624699
v 46.490002 7.669835 11.579709
v 46.099998 1.409709 -4.380165
v 46.099998 3.005450 -6.137047
v 46.099998 3.052953 -6.184549
v 45.456367 0.875302 -24.750000
v 46.490002 7.500000 26.150000
v 46.490002 7.565451 26.337048
v 46.490002 7.669835 26.420290
v 46.000000 1.629046 21.823114
v 41.845493 -0.800000 26.870470
v 45.500000 0.765451 25.537046
v 13.033774 1.577944 30.400000
v 13.890731 2.545247 30.400000
v 13.890731 5.054752 30.400000
v 13.949841 5.085776 30.392479
v 10.542567 1.275456 30.400000
v 45.500000 16.187046 25.584549
v 46.000000 16.510954 21.823114
v 46.490002 10.470290 26.280165
v 46.000000 16.484362 21.891819
v 45.500000 16.270290 25.480165
v 45.494987 14.144505 -25.500000
v 46.099998 16.970291 -4.380165
v 46.490002 10.500000 11.850000
v 46.099998 16.934549 -4.437047
v 13.570947 5.634699 30.392479
v 46.490002 7.800000 26.450001
v 13.071696 6.076996 30.392479
v 46.099998 15.206757 -6.242478
v 46.099998 15.140000 -6.250000
v 46.490002 10.200000 11.550000
v 45.299999 14.160840 -25.690521
v 45.453941 14.165388 -25.609665
v 45.453941 14.209665 -25.565388
v 45.460014 14.192179 -25.576801
v 45.415470 14.215470 -25.615471
v -40.950001 6.280000 -6.000000
v -34.361835 9.100000 -22.998163
v 8.800000 3.800000 30.400000
v -35.737408 1.810723 29.500000
v -35.737408 2.949277 29.500000
v -35.486382 1.289463 29.500000
v -35.034050 3.831259 29.500000
v 9.966226 6.022057 30.400000
v 11.174551 6.480314 30.400000
v 46.490002 7.733244 11.557522
v 46.099998 3.173244 -6.242478
v 46.099998 3.109835 -6.220291
v 46.490002 7.612953 11.615451
v 45.500000 0.869835 25.620291
v 45.500000 0.729709 25.480165
v 46.490002 7.507522 26.216757
v 14.121543 4.446152 30.400000
v 46.490002 10.387047 26.384550
v 46.490002 10.492478 26.216757
v 45.484089 14.175969 -25.518440
v 45.467224 14.209696 -25.501577
v 45.489944 14.144277 -25.544277
v 46.490002 10.200000 26.450001
v 13.520979 5.590431 30.400000
v 46.490002 10.330165 11.579709
v 45.299999 14.189443 -25.678885
v 45.299999 14.130787 -25.697617
v 24.350000 14.280193 -25.586777
v 45.299999 14.280706 -25.585705
v 45.299999 14.295116 -25.543924
v 45.344276 14.144277 -25.689945
v 45.427151 14.159315 -25.642529
v 45.442528 14.159315 -25.627151
v 45.460014 14.176802 -25.592178
v -40.950001 6.280000 6.000000
v -35.770000 2.100000 29.500000
v -35.641258 3.224049 29.500000
v 9.109269 2.545247 30.400000
v 45.500000 0.812953 25.584549
v 45.500000 0.707522 25.416756
v 46.490002 10.330165 26.420290
v 46.490002 10.434549 26.337048
v 46.099998 16.992479 -4.316756
v 45.456367 14.224698 -25.500000
v 46.490002 10.266756 11.557522
v 46.490002 10.387047 11.615451
v 45.359314 14.242528 -25.627151
v 45.359314 14.227151 -25.642529
v 45.380478 14.212476 -25.644474
v 45.318439 14.175969 -25.684088
v 45.409664 14.165388 -25.653942
v -35.486382 3.470537 29.500000
v -35.641258 1.535951 29.500000
v 45.480194 14.186777 -25.500000
v 46.490002 10.434549 11.662953
v 45.299999 14.257471 -25.623301
v 45.341309 14.203647 -25.665985
v 45.376801 14.192179 -25.660015
v 45.392178 14.176802 -25.660015
v 45.344276 14.289945 -25.544277
v 45.375969 14.284088 -25.518440
v 45.424698 14.256367 -25.500000
v 46.490002 10.470290 11.719835
v 45.427151 14.242528 -25.559315
v 45.365387 14.253942 -25.609665
v 45.376801 14.260015 -25.592178
v 45.392178 14.260015 -25.576801
v 45.442528 14.227151 -25.559315
v 45.409695 14.267225 -25.501577
v 45.318439 14.284088 -25.575970
v 45.409664 14.253942 -25.565388
f 1 2 3
f 4 5 6
f 7 3 6
f 8 6 5
f 8 5 9
f 10 4 6
f 10 6 3
f 11 12 4
f 11 4 13
f 11 13 12
f 14 5 4
f 15 16 17
f 18 12 13
f 18 19 12
f 20 21 22
f 23 2 1
f 24 8 25
f 24 26 7
f 27 6 8
f 28 25 8
f 28 8 9
f 28 9 29
f 30 13 10
f 30 10 3
f 30 3 2
f 31 4 10
f 31 10 13
f 31 13 4
f 32 33 34
f 35 4 12
f 35 12 15
f 35 15 17
f 36 15 12
f 36 12 19
f 37 38 17
f 37 17 16
f 39 40 41
f 42 43 26
f 42 26 24
f 42 24 25
f 44 29 9
f 44 9 45
f 46 47 7
f 48 49 50
f 51 50 49
f 52 19 18
f 52 18 13
f 53 16 15
f 54 22 21
f 55 56 57
f 58 54 21
f 59 55 57
f 60 61 3
f 62 50 51
f 63 24 7
f 63 6 27
f 63 27 8
f 63 8 24
f 64 5 65
f 64 45 9
f 64 9 5
f 66 65 5
f 66 5 14
f 67 29 44
f 68 4 35
f 68 35 17
f 68 17 38
f 68 14 4
f 69 40 39
f 70 25 71
f 72 42 73
f 74 75 76
f 77 75 74
f 78 76 75
f 78 75 79
f 78 79 76
f 80 81 56
f 82 19 22
f 83 84 22
f 85 58 57
f 85 57 56
f 86 39 41
f 87 34 33
f 88 59 57
f 88 57 58
f 89 90 1
f 89 1 3
f 91 23 1
f 91 1 90
f 92 62 51
f 93 26 43
f 94 22 19
f 94 19 52
f 95 96 97
f 95 94 52
f 95 52 13
f 95 13 96
f 98 2 23
f 99 96 13
f 99 13 100
f 99 97 96
f 101 6 63
f 101 63 7
f 101 7 6
f 102 65 66
f 102 66 14
f 103 40 67
f 103 41 40
f 104 103 67
f 104 67 33
f 104 33 32
f 105 67 44
f 105 44 45
f 106 71 25
f 107 73 42
f 107 42 25
f 107 25 70
f 108 109 42
f 110 48 50
f 110 49 48
f 111 93 43
f 111 43 42
f 112 42 72
f 112 51 49
f 113 46 93
f 114 47 46
f 115 50 62
f 116 74 76
f 117 77 74
f 118 75 77
f 118 77 79
f 118 79 75
f 119 77 117
f 119 56 55
f 119 55 59
f 119 59 120
f 121 82 22
f 121 22 84
f 122 58 85
f 123 39 86
f 123 122 85
f 123 85 56
f 124 86 32
f 124 32 34
f 124 34 125
f 126 20 88
f 126 88 58
f 126 58 21
f 126 21 20
f 127 79 120
f 127 120 59
f 127 59 88
f 127 88 20
f 127 20 22
f 128 90 89
f 128 89 3
f 128 3 61
f 129 128 61
f 129 61 60
f 130 131 132
f 130 132 60
f 130 60 3
f 130 3 7
f 130 7 47
f 133 92 51
f 134 62 92
f 135 26 93
f 135 93 46
f 135 46 7
f 135 7 26
f 136 94 95
f 136 95 97
f 136 97 22
f 136 22 94
f 137 2 98
f 137 98 100
f 137 100 13
f 137 13 30
f 137 30 2
f 138 99 100
f 138 100 98
f 138 98 22
f 139 65 102
f 139 102 140
f 141 37 16
f 141 38 37
f 142 86 41
f 143 142 41
f 144 103 104
f 144 104 41
f 144 41 103
f 145 33 67
f 146 147 29
f 146 29 67
f 146 67 40
f 148 69 39
f 149 69 150
f 151 39 70
f 152 70 71
f 153 106 25
f 153 25 28
f 153 28 29
f 154 49 108
f 154 108 42
f 154 42 49
f 155 156 110
f 155 110 50
f 155 114 156
f 157 49 110
f 157 109 108
f 158 109 157
f 158 157 110
f 158 110 156
f 158 156 111
f 158 111 42
f 158 42 109
f 159 93 111
f 159 111 156
f 159 156 113
f 159 113 93
f 160 42 112
f 160 112 49
f 161 114 46
f 161 46 113
f 162 163 47
f 162 47 114
f 162 50 163
f 164 156 114
f 164 114 161
f 164 161 113
f 164 113 156
f 165 50 115
f 165 163 50
f 166 167 168
f 166 74 116
f 166 116 167
f 169 77 119
f 169 119 120
f 169 120 79
f 169 79 77
f 170 81 80
f 170 80 56
f 170 56 119
f 170 119 117
f 171 22 54
f 171 54 172
f 173 58 122
f 173 172 54
f 173 54 58
f 174 123 86
f 175 168 167
f 175 39 123
f 176 34 177
f 176 125 34
f 178 84 83
f 179 79 127
f 180 115 62
f 181 128 129
f 181 179 90
f 181 90 128
f 182 183 129
f 182 129 60
f 182 60 132
f 184 133 51
f 185 76 79
f 185 116 76
f 186 116 185
f 186 185 133
f 186 133 184
f 186 184 187
f 186 187 167
f 186 167 116
f 188 99 138
f 188 138 22
f 188 22 97
f 188 97 99
f 189 190 139
f 189 139 140
f 189 140 190
f 191 87 33
f 191 33 105
f 191 105 45
f 191 45 64
f 191 64 65
f 191 65 139
f 191 139 190
f 191 190 87
f 192 38 141
f 192 141 102
f 192 102 14
f 192 14 68
f 192 68 38
f 193 140 102
f 193 102 141
f 194 86 142
f 195 104 32
f 195 32 143
f 195 143 41
f 195 41 104
f 196 142 143
f 196 143 32
f 196 32 197
f 196 197 142
f 198 105 33
f 198 33 145
f 198 145 67
f 198 67 105
f 199 147 146
f 199 146 40
f 199 40 69
f 200 69 148
f 200 148 150
f 200 150 69
f 201 150 148
f 201 148 39
f 201 39 151
f 202 69 149
f 203 204 152
f 203 152 71
f 203 71 106
f 205 49 157
f 205 157 108
f 205 108 49
f 206 42 160
f 206 160 49
f 206 49 42
f 207 72 208
f 207 51 112
f 209 155 50
f 209 50 162
f 209 162 114
f 209 114 155
f 210 117 74
f 210 74 166
f 210 166 168
f 210 168 117
f 211 56 81
f 212 211 213
f 212 213 168
f 212 175 123
f 214 81 170
f 214 170 117
f 214 117 168
f 214 168 213
f 214 213 211
f 214 211 81
f 215 216 34
f 215 34 87
f 217 123 174
f 217 122 123
f 218 177 34
f 218 34 216
f 219 208 72
f 220 39 175
f 220 73 107
f 220 107 70
f 220 70 39
f 221 51 219
f 221 219 175
f 221 175 167
f 221 167 187
f 221 187 184
f 221 184 51
f 222 223 124
f 222 124 125
f 224 124 223
f 224 223 222
f 224 174 86
f 224 86 124
f 225 82 121
f 226 190 140
f 227 228 229
f 230 22 98
f 230 98 23
f 230 23 91
f 231 22 230
f 231 179 127
f 231 127 22
f 232 115 180
f 232 233 115
f 234 131 232
f 234 232 180
f 234 132 131
f 235 163 165
f 235 47 163
f 236 179 181
f 236 181 129
f 236 129 183
f 236 92 79
f 236 79 179
f 237 92 236
f 237 236 183
f 237 183 134
f 237 134 92
f 238 92 133
f 238 133 185
f 238 185 79
f 238 79 92
f 239 32 86
f 239 86 194
f 239 194 240
f 239 240 32
f 241 240 194
f 241 194 197
f 241 197 32
f 241 32 240
f 242 197 194
f 242 194 142
f 242 142 197
f 243 151 70
f 243 70 152
f 243 150 201
f 243 201 151
f 244 204 203
f 244 202 149
f 244 149 150
f 244 150 204
f 245 199 69
f 245 69 202
f 245 202 147
f 245 147 199
f 246 72 207
f 246 207 112
f 246 112 72
f 247 175 212
f 248 211 212
f 248 212 123
f 248 123 56
f 248 56 211
f 249 228 227
f 249 227 250
f 251 228 249
f 251 249 215
f 251 215 87
f 251 87 190
f 252 175 219
f 252 219 72
f 252 72 73
f 252 73 220
f 252 220 175
f 253 207 208
f 253 208 219
f 253 219 51
f 253 51 207
f 254 125 176
f 254 174 224
f 254 222 125
f 255 225 121
f 255 121 84
f 255 84 178
f 256 53 15
f 256 15 36
f 256 36 19
f 256 19 82
f 256 82 225
f 257 172 258
f 257 83 22
f 257 22 171
f 257 171 172
f 259 172 173
f 260 16 53
f 260 53 256
f 260 256 225
f 261 193 141
f 262 193 261
f 262 261 229
f 262 229 226
f 262 226 140
f 262 140 193
f 263 228 251
f 263 251 190
f 263 190 226
f 263 226 229
f 263 229 228
f 264 179 231
f 264 231 230
f 264 230 91
f 264 91 90
f 264 90 179
f 265 233 232
f 265 232 131
f 265 131 130
f 265 130 47
f 265 47 233
f 266 132 234
f 266 234 180
f 266 180 62
f 267 235 165
f 267 165 115
f 268 204 150
f 268 150 243
f 268 243 152
f 268 152 204
f 269 106 153
f 269 153 29
f 269 29 147
f 269 147 202
f 269 202 244
f 269 244 203
f 269 203 106
f 270 175 247
f 270 247 168
f 270 168 175
f 271 168 247
f 271 247 212
f 271 212 168
f 272 215 249
f 272 250 273
f 272 259 173
f 272 173 122
f 272 122 217
f 272 217 174
f 272 174 216
f 272 216 215
f 274 222 254
f 274 254 224
f 274 224 222
f 275 174 254
f 275 254 176
f 275 176 177
f 276 277 178
f 278 277 276
f 278 276 229
f 279 260 225
f 279 225 255
f 280 229 261
f 280 261 141
f 280 141 16
f 281 134 183
f 281 183 182
f 281 182 132
f 281 132 266
f 281 266 62
f 281 62 134
f 282 233 47
f 282 47 235
f 282 235 267
f 282 267 115
f 282 115 233
f 283 250 272
f 283 272 249
f 283 249 250
f 284 218 216
f 284 174 275
f 284 275 177
f 284 177 218
f 285 276 178
f 285 178 83
f 285 83 257
f 285 257 258
f 286 178 277
f 286 277 278
f 286 278 287
f 286 287 260
f 286 260 279
f 286 279 255
f 286 255 178
f 288 260 287
f 288 287 278
f 288 278 229
f 288 229 280
f 288 280 16
f 288 16 260
f 289 272 290
f 289 259 272
f 291 272 273
f 292 174 284
f 292 284 216
f 292 216 174
f 293 291 273
f 294 276 285
f 294 295 229
f 294 229 276
f 296 229 295
f 296 295 289
f 296 289 290
f 297 229 293
f 297 293 273
f 297 273 250
f 297 250 227
f 297 227 229
f 298 291 293
f 298 290 272
f 298 272 291
f 299 258 172
f 299 172 259
f 299 259 289
f 299 289 295
f 299 295 294
f 299 294 285
f 299 285 258
f 300 293 229
f 300 229 296
f 300 296 290
f 300 290 298
f 300 298 293
