# Normalized convex hull collision mesh - generated by scripts/generate-collision-meshes.mjs (units: meters)
v -0.012500 0.009000 -0.001894
v -0.012500 -0.009000 -0.001894
v -0.012500 0.009000 -0.000210
v 0.012500 0.009000 -0.001894
v 0.012500 -0.009000 -0.000210
v 0.012500 -0.009000 -0.001894
v -0.011469 -0.000341 0.001421
v -0.011469 -0.001796 0.001421
v -0.001369 0.004106 0.002000
v -0.010712 -0.008768 -0.002000
v -0.011655 -0.007763 -0.002000
v -0.011060 -0.007763 -0.002000
v -0.012500 -0.009000 -0.000210
v 0.012500 0.009000 -0.000210
v 0.011624 -0.007520 -0.002000
v -0.011385 -0.008434 -0.002000
v 0.009048 -0.002362 0.000947
v -0.001369 0.005906 0.002000
v -0.010712 -0.008768 -0.000105
v 0.010712 -0.008768 -0.002000
v -0.010712 -0.006757 -0.002000
v 0.011655 -0.007763 -0.002000
v -0.010963 -0.008709 -0.002000
v -0.011532 -0.008233 -0.002000
v 0.010712 -0.008768 -0.000105
v -0.008337 -0.001838 0.001421
v -0.011425 -0.001838 0.001421
v -0.011385 -0.007091 -0.002000
v 0.010712 -0.006757 -0.002000
v 0.011385 -0.008434 -0.002000
v -0.011192 -0.008596 -0.002000
v -0.011624 -0.008005 -0.002000
v 0.002440 0.005906 0.001989
v 0.002440 0.004106 0.001989
v 0.002074 0.004106 0.002000
v 0.010963 -0.008709 -0.000105
v -0.010963 -0.006816 -0.002000
v -0.011532 -0.007292 -0.002000
v 0.011192 -0.006929 -0.002000
v 0.010963 -0.008709 -0.002000
v 0.011532 -0.008233 -0.002000
v 0.009048 -0.001350 0.000947
v 0.002074 0.005906 0.002000
v -0.011192 -0.006929 -0.002000
v -0.011624 -0.007520 -0.002000
v 0.010963 -0.006816 -0.002000
v 0.011532 -0.007292 -0.002000
v 0.011192 -0.008596 -0.002000
v 0.011624 -0.008005 -0.002000
v 0.011385 -0.007091 -0.002000
f 1 2 3
f 4 1 3
f 5 6 4
f 5 2 6
f 7 3 8
f 7 8 9
f 10 6 2
f 11 12 10
f 11 2 1
f 13 2 5
f 13 8 3
f 13 3 2
f 14 5 4
f 14 4 3
f 15 10 12
f 15 12 11
f 16 11 10
f 17 5 14
f 18 14 3
f 18 3 7
f 18 7 9
f 19 13 5
f 20 10 15
f 20 6 10
f 21 1 4
f 21 15 11
f 22 20 15
f 22 15 4
f 22 4 6
f 23 16 10
f 23 10 2
f 24 11 16
f 24 16 2
f 25 26 19
f 25 19 5
f 25 17 26
f 27 8 13
f 27 13 19
f 27 19 26
f 27 26 9
f 27 9 8
f 28 21 11
f 29 15 21
f 29 21 4
f 30 20 22
f 31 16 23
f 31 23 2
f 31 2 16
f 32 11 24
f 32 24 2
f 32 2 11
f 33 34 17
f 35 9 26
f 35 26 17
f 35 17 34
f 35 34 33
f 35 18 9
f 36 17 25
f 36 25 5
f 36 5 17
f 37 21 28
f 37 1 21
f 38 1 28
f 38 28 11
f 39 15 29
f 40 20 30
f 40 6 20
f 41 6 30
f 41 30 22
f 42 14 33
f 42 33 17
f 42 17 14
f 43 18 35
f 43 35 33
f 43 33 14
f 43 14 18
f 44 1 37
f 44 37 28
f 44 28 1
f 45 1 38
f 45 38 11
f 45 11 1
f 46 4 39
f 46 39 29
f 46 29 4
f 47 15 39
f 47 4 15
f 48 6 40
f 48 40 30
f 48 30 6
f 49 6 41
f 49 41 22
f 49 22 6
f 50 4 47
f 50 47 39
f 50 39 4
