# Normalized convex hull collision mesh - generated by scripts/generate-collision-meshes.mjs (units: meters)
v -0.013045 -0.051650 0.035776
v -0.051650 -0.051650 0.000000
v -0.013045 -0.051650 -0.035776
v -0.040178 -0.051650 0.026207
v -0.037674 -0.051650 -0.028324
v -0.029151 -0.051650 0.033207
v -0.051052 -0.051650 0.006495
v 0.020589 -0.051650 0.001632
v 0.051650 -0.040987 0.001723
v 0.051650 -0.045023 0.000000
v 0.051650 -0.037819 0.000000
v -0.048864 0.051650 -0.004758
v 0.016331 0.051650 0.010936
v -0.015512 0.051650 -0.033436
v -0.026051 -0.051650 -0.034300
v -0.047969 -0.051650 -0.015769
v -0.046389 -0.051650 0.018632
v 0.010331 -0.051650 -0.025066
v 0.014479 -0.051650 0.020007
v 0.002558 -0.051650 0.031055
v 0.051650 -0.040987 -0.001723
v -0.021889 0.051650 0.032831
v -0.033729 0.051650 -0.028128
v -0.019616 -0.051650 -0.035627
v -0.050310 -0.051650 -0.009675
v 0.009954 0.051650 -0.021896
v 0.005637 0.048855 0.027790
v 0.002963 0.048855 0.029608
v -0.019616 -0.051650 0.035627
v -0.034987 -0.051650 0.030207
v -0.051500 -0.051650 0.003261
v -0.049279 -0.051650 0.012775
v 0.018807 -0.051650 -0.011236
v -0.000363 -0.051650 -0.032557
v 0.018807 -0.051650 0.011236
v 0.007927 -0.051650 0.027294
v 0.051650 -0.044117 0.001151
v 0.003105 0.030311 0.029835
v 0.000251 0.030311 0.031412
v 0.051650 -0.038725 0.001151
v -0.036341 0.051650 0.026282
v -0.044693 0.051650 -0.016718
v -0.016334 -0.051650 -0.035850
v -0.032138 -0.051650 -0.031839
v -0.051052 -0.051650 -0.006495
v -0.010913 0.039583 -0.034658
v -0.012249 0.030311 -0.034941
v -0.012274 0.048855 -0.034675
v -0.009063 0.048855 -0.034231
v -0.009014 0.030311 -0.034494
v -0.015512 0.030311 0.035091
v -0.012249 0.030311 0.034941
v -0.015512 0.048855 0.034824
v -0.002834 0.048855 0.032472
v -0.005834 0.030311 0.033752
v -0.002737 0.030311 0.032721
v -0.022864 -0.051650 0.035109
v -0.032138 -0.051650 0.031839
v 0.016188 -0.051650 -0.017218
v 0.020290 -0.051650 -0.004883
v 0.051650 -0.044117 -0.001151
v 0.002558 -0.051650 -0.031055
v 0.000251 0.030311 -0.031412
v 0.003105 0.030311 -0.029835
v -0.006556 -0.051650 -0.034741
v 0.020290 -0.051650 0.004883
v 0.016188 -0.051650 0.017218
v 0.010331 -0.051650 0.025066
v 0.051650 -0.042698 0.001623
v 0.051650 -0.044918 0.000415
v -0.000363 -0.051650 0.032557
v 0.002103 0.039583 0.030274
v 0.009954 0.051650 0.021896
v -0.028035 0.051650 0.031041
v -0.047354 0.051650 0.010936
v -0.050310 -0.051650 0.009675
v -0.042477 -0.051650 -0.023873
v -0.049279 -0.051650 -0.012775
v -0.049526 0.030311 -0.009603
v -0.029151 -0.051650 -0.033207
v -0.031275 0.030311 -0.031412
v -0.034987 -0.051650 -0.030207
v -0.012180 0.049482 -0.034623
v -0.012206 0.050603 -0.034350
v -0.008899 0.050074 -0.034047
v -0.012190 0.050074 -0.034516
v -0.015512 0.050074 -0.034673
v -0.002988 0.051650 -0.031041
v 0.017234 0.051650 -0.007883
v 0.051650 -0.038232 -0.000807
v -0.008878 0.049482 -0.034152
v -0.005908 0.048855 -0.033494
v -0.016334 -0.051650 0.035850
v -0.006556 -0.051650 0.034741
v -0.009014 0.030311 0.034494
v -0.010913 0.039583 0.034658
v -0.009063 0.048855 0.034231
v -0.005908 0.048855 0.033494
v -0.005919 0.049482 0.033453
v -0.006394 0.039583 0.033766
v 0.005546 0.050074 0.027670
v 0.008102 0.049482 0.025703
v 0.008029 0.050074 0.025624
v -0.002030 0.039583 0.032296
v -0.026051 -0.051650 0.034300
v -0.037674 -0.051650 0.028324
v -0.036823 0.030311 0.028003
v -0.039336 0.030311 0.025933
v -0.034128 0.030311 0.029835
v -0.033987 0.048855 0.029608
v -0.036661 0.048855 0.027790
v -0.042477 -0.051650 0.023873
v -0.045579 0.030311 0.018473
v -0.043733 0.030311 0.021147
v -0.043518 0.048855 0.020986
v -0.047168 0.030311 0.015641
v -0.047969 -0.051650 0.015769
v 0.014479 -0.051650 -0.020007
v 0.017635 -0.051650 -0.014286
v 0.019694 -0.051650 -0.008093
v 0.020589 -0.051650 -0.001632
v 0.051650 -0.044918 -0.000415
v 0.051650 -0.042698 -0.001623
v -0.009777 -0.051650 -0.035405
v -0.002737 0.030311 -0.032721
v -0.005834 0.030311 -0.033752
v 0.019694 -0.051650 0.008093
v 0.017635 -0.051650 0.014286
v 0.005329 -0.051650 0.029296
v 0.051650 -0.041855 0.001723
v 0.012521 -0.051650 0.022630
v 0.002103 0.039583 -0.030274
v 0.000131 0.048855 -0.031173
v 0.051650 -0.037924 0.000415
v 0.051650 -0.040144 0.001623
v 0.010392 0.049482 0.023432
v 0.010312 0.050074 0.023359
v -0.002988 0.051650 0.031041
v -0.022001 0.051375 0.033412
v -0.021946 0.051580 0.033129
v -0.025173 0.051375 0.032649
v -0.022010 0.030311 0.034494
v -0.025091 0.051580 0.032372
v -0.028149 0.051580 0.031322
v -0.049169 0.051650 0.001591
v -0.042959 0.051650 0.019395
v -0.050876 0.030311 0.000000
v -0.051500 -0.051650 -0.003261
v -0.050725 0.030311 -0.003238
v -0.049092 0.051044 0.008084
v -0.048959 0.050603 0.009443
v -0.048747 0.051044 0.009383
v -0.049526 0.030311 0.009603
v -0.028287 0.030311 -0.032721
v -0.015512 0.030311 -0.035091
v -0.040178 -0.051650 -0.026207
v -0.040977 0.051650 -0.021896
v -0.050274 0.030311 -0.006448
v -0.048488 0.030311 -0.012676
v -0.047168 0.030311 -0.015641
v -0.046927 0.048855 -0.015522
v -0.046021 0.039583 -0.017479
v -0.034128 0.030311 -0.029835
v -0.015512 0.050603 -0.034506
v -0.015512 0.051044 -0.034287
v -0.009135 0.051650 -0.032831
v 0.018146 0.051650 0.001591
v 0.016331 0.051650 -0.010936
v 0.017192 0.051580 -0.009233
v -0.005777 0.051044 -0.032898
v -0.005714 0.050603 -0.033108
v -0.008972 0.051044 -0.033668
v -0.008931 0.050603 -0.033883
v -0.002834 0.048855 -0.032472
v -0.015512 0.051375 -0.034027
v -0.012252 0.051375 -0.033873
v -0.012227 0.051044 -0.034132
v -0.003410 -0.051650 0.033789
v -0.009777 -0.051650 0.035405
v 0.005612 0.049482 0.027756
v 0.000131 0.048855 0.031173
v -0.025190 0.030311 0.033752
v -0.025116 0.048855 0.033494
v -0.028189 0.048855 0.032472
v -0.036710 0.051375 0.026747
v -0.034051 0.051375 0.028626
v -0.033894 0.051580 0.028383
v -0.036958 0.039583 0.027733
v -0.031275 0.030311 0.031412
v -0.044554 -0.051650 0.021341
v -0.041646 0.030311 0.023641
v -0.040423 0.039583 0.024719
v -0.041447 0.048855 0.023460
v -0.046021 0.039583 0.017479
v -0.046927 0.048855 0.015522
v -0.045867 0.049482 0.017390
v -0.048059 0.039583 0.013378
v 0.007927 -0.051650 -0.027294
v 0.012521 -0.051650 -0.022630
v 0.051650 -0.041855 -0.001723
v 0.005329 -0.051650 -0.029296
v -0.003410 -0.051650 -0.033789
v -0.006394 0.039583 -0.033766
v 0.051650 -0.043467 0.001428
v 0.051650 -0.044610 0.000807
v 0.014198 0.050074 0.018253
v 0.014750 0.050074 0.017337
v 0.014054 0.050603 0.018165
v 0.012952 0.050074 0.020113
v 0.051650 -0.039375 0.001428
v 0.013670 0.051650 0.016718
v 0.013934 0.051580 0.016869
v 0.014925 0.051580 0.015039
v 0.013397 0.051580 0.017761
v 0.013644 0.051375 0.017913
v 0.015185 0.051375 0.015167
v 0.015768 0.050074 0.015455
v -0.028257 0.051375 0.031590
v -0.018796 0.051044 0.034132
v -0.022051 0.051044 0.033668
v -0.018817 0.050603 0.034350
v -0.018833 0.050074 0.034516
v -0.015512 0.050074 0.034673
v -0.024630 0.039583 0.033766
v -0.018775 0.030311 0.034941
v -0.039155 0.048855 0.025735
v -0.037112 0.050074 0.027255
v -0.043483 0.049482 0.020960
v -0.044064 0.049482 0.020175
v -0.045350 0.048855 0.018332
v -0.025005 0.051650 0.032081
v -0.048258 0.051650 0.007883
v -0.048934 0.051580 0.006199
v -0.048555 0.051580 0.007954
v -0.040977 0.051650 0.021896
v -0.044693 0.051650 0.016718
v -0.042645 0.051580 0.020332
v -0.045627 0.050603 0.017253
v -0.045078 0.050603 0.018165
v -0.045436 0.051044 0.017144
v -0.046641 0.050603 0.015381
v -0.050725 0.030311 0.003238
v -0.049306 0.050603 0.008135
v -0.049694 0.050603 0.006341
v -0.022864 -0.051650 -0.035109
v -0.022010 0.030311 -0.034494
v -0.025190 0.030311 -0.033752
v -0.015512 0.048855 -0.034824
v -0.018775 0.030311 -0.034941
v -0.020110 0.039583 -0.034658
v -0.018750 0.048855 -0.034675
v -0.025005 0.051650 -0.032081
v -0.036570 0.050074 -0.027670
v -0.033964 0.049482 -0.029571
v -0.036635 0.049482 -0.027756
v -0.038614 0.051375 -0.025146
v -0.036335 0.051044 -0.027362
v -0.038791 0.051044 -0.025339
v -0.041047 0.051044 -0.023099
v -0.036341 0.051650 -0.026282
v -0.036002 0.051580 -0.026924
v -0.047354 0.051650 -0.010936
v -0.050440 0.039583 -0.004563
v -0.050456 0.048855 -0.003213
v -0.050009 0.048855 -0.006399
v -0.048059 0.039583 -0.013378
v -0.048236 0.048855 -0.012580
v -0.045579 0.030311 -0.018473
v -0.041646 0.030311 -0.023641
v -0.043733 0.030311 -0.021147
v -0.041447 0.048855 -0.023460
v -0.040423 0.039583 -0.024719
v -0.043518 0.048855 -0.020986
v -0.044554 -0.051650 -0.021341
v -0.041335 0.050074 -0.023359
v -0.039053 0.050074 -0.025624
v -0.041415 0.049482 -0.023432
v -0.041920 0.050074 -0.022706
v -0.041793 0.050603 -0.022597
v -0.036823 0.030311 -0.028003
v 0.017531 0.051580 0.007954
v 0.017814 0.051375 0.008022
v 0.018197 0.051375 0.006253
v 0.017911 0.051580 0.006199
v 0.018454 0.051044 0.006300
v 0.018691 0.051044 0.004880
v 0.005318 0.051650 -0.026282
v -0.005932 0.051580 -0.032372
v -0.002875 0.051580 -0.031322
v -0.012280 0.051580 -0.033586
v -0.015512 0.051580 -0.033739
v 0.019115 0.050603 0.003184
v 0.019224 0.050603 0.001642
v 0.017234 0.051650 0.007883
v 0.017192 0.051580 0.009233
v 0.018283 0.050603 -0.008135
v 0.017936 0.050603 -0.009443
v 0.018068 0.051044 -0.008084
v 0.051650 -0.037924 -0.000415
v 0.051650 -0.039375 -0.001428
v 0.017350 0.050603 -0.011286
v 0.013670 0.051650 -0.016718
v 0.013397 0.051580 -0.017761
v 0.013934 0.051580 -0.016869
v 0.007952 0.051580 -0.024418
v 0.005507 0.051580 -0.026520
v 0.012374 0.050074 -0.020895
v 0.010897 0.050074 -0.022706
v 0.012952 0.050074 -0.020113
v 0.012815 0.050603 -0.020016
v 0.014054 0.050603 -0.018165
v -0.005636 0.049482 -0.033372
v -0.002030 0.039583 -0.032296
v -0.002525 0.050074 -0.032190
v 0.002963 0.048855 -0.029608
v 0.005637 0.048855 -0.027790
v -0.012274 0.048855 0.034675
v -0.012278 0.049482 0.034633
v -0.015512 0.049482 0.034781
v -0.012288 0.050074 0.034526
v -0.009091 0.050074 0.034083
v -0.012303 0.050603 0.034359
v -0.009071 0.049482 0.034189
v 0.007916 0.050603 0.025500
v 0.002941 0.049482 0.029571
v 0.002884 0.050074 0.029480
v -0.002889 0.050074 0.032332
v 0.000064 0.050074 0.031038
v -0.002950 0.050603 0.032176
v -0.005995 0.050603 0.033189
v -0.030952 0.051650 0.029719
v -0.034403 0.050074 0.029169
v -0.031524 0.050074 0.030819
v -0.031446 0.050603 0.030670
v -0.039357 0.051044 0.024815
v -0.041047 0.051044 0.023099
v -0.039509 0.050603 0.024973
v -0.036530 0.051580 0.026520
v -0.031155 0.048855 0.031173
v -0.028499 0.050074 0.032190
v -0.028287 0.030311 0.032721
v -0.043461 0.039583 0.021281
v -0.046792 0.050074 0.015455
v -0.048488 0.030311 0.012676
v -0.048236 0.048855 0.012580
v 0.051650 -0.043467 -0.001428
v 0.051650 -0.044610 -0.000807
v 0.015420 0.051044 0.015283
v 0.014413 0.051044 0.017144
v 0.015617 0.050603 0.015381
v 0.010979 0.049482 0.022777
v 0.010897 0.050074 0.022706
v 0.011936 0.051650 0.019395
v 0.011622 0.051580 0.020332
v 0.015139 0.051650 0.013890
v 0.016194 0.051580 0.012188
v 0.014186 0.051375 0.017014
v 0.014604 0.050603 0.017253
v 0.012185 0.051580 0.019570
v 0.016274 0.050074 0.014404
v -0.012309 0.051650 0.033284
v -0.025387 0.049482 0.033372
v -0.022145 0.049482 0.034152
v -0.025356 0.050074 0.033269
v -0.025247 0.051044 0.032898
v -0.028354 0.051044 0.031831
v -0.022125 0.050074 0.034047
v -0.031225 0.051375 0.030245
v -0.028436 0.050603 0.032034
v -0.015512 0.051375 0.034027
v -0.012348 0.051375 0.033882
v -0.012374 0.051580 0.033595
v -0.015512 0.050603 0.034506
v -0.018750 0.048855 0.034675
v -0.039700 0.049482 0.025172
v -0.045313 0.049482 0.018310
v -0.048864 0.051650 0.004758
v -0.049513 0.051580 0.000000
v -0.049474 0.051580 -0.001605
v -0.049804 0.051375 0.000000
v -0.049169 0.051650 -0.001591
v -0.046162 0.051650 0.013890
v -0.044420 0.051580 0.017761
v -0.044958 0.051580 0.016869
v -0.043397 0.050074 0.020895
v -0.043976 0.050074 0.020113
v -0.041211 0.050603 0.023247
v -0.041335 0.050074 0.023359
v -0.046443 0.051044 0.015283
v -0.045948 0.051580 0.015039
v -0.044667 0.051375 0.017913
v -0.045210 0.051375 0.017014
v -0.043838 0.050603 0.020016
v -0.043262 0.050603 0.020795
v -0.043086 0.051044 0.020663
v -0.043659 0.051044 0.019889
v -0.045221 0.050074 0.018253
v -0.050274 0.030311 0.006448
v -0.049541 0.039583 0.009048
v -0.050009 0.048855 0.006399
v -0.049860 0.050074 0.006371
v -0.049266 0.048855 0.009530
v -0.050524 0.049482 0.001655
v -0.050456 0.048855 0.003213
v -0.050606 0.048855 0.000000
v -0.049477 0.051044 0.006300
v -0.049714 0.051044 0.004880
v -0.050027 0.051044 0.001631
v -0.050066 0.051044 0.000000
v -0.033126 0.039583 -0.030274
v -0.033987 0.048855 -0.029608
v -0.031155 0.048855 -0.031173
v -0.024630 0.039583 -0.033766
v -0.015512 0.049482 -0.034781
v -0.018736 0.050074 -0.034526
v -0.033702 0.051044 -0.029152
v -0.033818 0.050603 -0.029338
v -0.033564 0.051375 -0.028931
v -0.030914 0.051044 -0.030693
v -0.027794 0.051580 -0.031460
v -0.024817 0.051580 -0.032451
v -0.033411 0.051580 -0.028685
v -0.039336 0.030311 -0.025933
v -0.036958 0.039583 -0.027733
v -0.039155 0.048855 -0.025735
v -0.038939 0.050603 -0.025500
v -0.036177 0.051375 -0.027154
v -0.038418 0.051580 -0.024933
v -0.040639 0.051580 -0.022730
v -0.040854 0.051375 -0.022924
v -0.042959 0.051650 -0.019395
v -0.044420 0.051580 -0.017761
v -0.044958 0.051580 -0.016869
v -0.045948 0.051580 -0.015039
v -0.044667 0.051375 -0.017913
v -0.045210 0.051375 -0.017014
v -0.046162 0.051650 -0.013890
v -0.046440 0.051580 -0.014016
v -0.047217 0.051580 -0.012188
v -0.048258 0.051650 -0.007883
v -0.048215 0.051580 -0.009233
v -0.048934 0.051580 -0.006199
v -0.049368 0.051580 -0.003113
v -0.048635 0.049482 -0.011376
v -0.049266 0.048855 -0.009530
v -0.049541 0.039583 -0.009048
v -0.049470 0.050074 -0.008175
v -0.049966 0.049482 -0.006391
v -0.049860 0.050074 -0.006371
v -0.049306 0.050603 -0.008135
v -0.050206 0.049482 -0.004950
v -0.050414 0.049482 -0.003209
v -0.045350 0.048855 -0.018332
v -0.043461 0.039583 -0.021281
v -0.046389 -0.051650 -0.018632
v -0.042002 0.049482 -0.022777
v 0.018283 0.050603 0.008135
v 0.017936 0.050603 0.009443
v -0.006018 0.051650 -0.032081
v -0.009022 0.051375 -0.033412
v -0.005850 0.051375 -0.032649
v -0.009077 0.051580 -0.033129
v -0.012309 0.051650 -0.033284
v 0.018909 0.050603 0.004911
v 0.018895 0.051044 0.003164
v 0.018634 0.051375 0.003140
v 0.018431 0.051375 0.004843
v 0.018345 0.051580 0.003113
v 0.019115 0.050603 -0.003184
v 0.019224 0.050603 -0.001642
v 0.018909 0.050603 -0.004911
v 0.018691 0.051044 -0.004880
v 0.018146 0.051650 -0.001591
v 0.017841 0.051650 0.004758
v 0.018671 0.050603 -0.006341
v 0.016915 0.050603 -0.012465
v 0.017723 0.051044 -0.009383
v 0.017471 0.051375 -0.009312
v 0.018197 0.051375 -0.006253
v 0.018144 0.051580 -0.004802
v 0.018431 0.051375 -0.004843
v 0.011622 0.051580 -0.020332
v 0.010185 0.051580 -0.022094
v 0.014925 0.051580 -0.015039
v 0.015139 0.051650 -0.013890
v 0.015417 0.051580 -0.014016
v 0.009616 0.051580 -0.022730
v 0.007741 0.051650 -0.024198
v 0.010024 0.051044 -0.023099
v 0.008486 0.050603 -0.024973
v 0.008333 0.051044 -0.024815
v 0.010769 0.050603 -0.022597
v 0.010603 0.051044 -0.022453
v 0.051650 -0.038725 -0.001151
v 0.014750 0.050074 -0.017337
v 0.015768 0.050074 -0.015455
v 0.016274 0.050074 -0.014404
v 0.014198 0.050074 -0.018253
v -0.002587 0.050603 -0.032034
v 0.000500 0.050074 -0.030819
v 0.000423 0.050603 -0.030670
v -0.005667 0.050074 -0.033269
v 0.002871 0.051580 -0.028383
v 0.003028 0.051375 -0.028626
v 0.000202 0.051375 -0.030245
v -0.018649 0.051580 -0.033595
v 0.007395 0.051580 0.024933
v 0.004979 0.051580 0.026924
v 0.007591 0.051375 0.025146
v 0.005318 0.051650 0.026282
v 0.007767 0.051044 0.025339
v 0.010024 0.051044 0.023099
v 0.010769 0.050603 0.022597
v 0.012239 0.050603 0.020795
v 0.012063 0.051044 0.020663
v 0.000112 0.049482 0.031135
v -0.003029 0.051044 0.031972
v -0.000110 0.051044 0.030693
v -0.000226 0.051375 0.030460
v -0.000011 0.050603 0.030889
v 0.002541 0.051375 0.028931
v -0.000356 0.051580 0.030202
v -0.005949 0.050074 0.033350
v -0.033729 0.051650 0.028128
v -0.037008 0.050603 0.027124
v -0.039176 0.051375 0.024627
v -0.040854 0.051375 0.022924
v -0.040639 0.051580 0.022730
v -0.033126 0.039583 0.030274
v -0.028993 0.039583 0.032296
v -0.047297 0.050074 0.014404
v -0.047938 0.050603 0.012465
v -0.048095 0.050074 0.012525
v 0.016121 0.050603 0.014334
v 0.016915 0.050603 0.012465
v 0.016709 0.051044 0.012386
v 0.017142 0.051044 0.011214
v 0.016465 0.051375 0.012292
v 0.013867 0.051044 0.018050
v 0.012635 0.051044 0.019889
v 0.012815 0.050603 0.020016
v 0.012374 0.050074 0.020895
v 0.016620 0.051580 0.011035
v 0.017350 0.050603 0.011286
v 0.017723 0.051044 0.009383
v 0.012422 0.051375 0.019738
v 0.051650 -0.038232 0.000807
v -0.025309 0.050603 0.033108
v -0.031092 0.051580 0.029988
v -0.012323 0.051044 0.034141
v -0.009162 0.051044 0.033704
v -0.021960 0.048855 0.034231
v -0.018844 0.049482 0.034623
v -0.041415 0.049482 0.023432
v -0.039625 0.050074 0.025094
v -0.041208 0.051580 0.022094
v -0.038764 0.051650 0.024198
v -0.042002 0.049482 0.022777
v -0.041920 0.050074 0.022706
v -0.048495 0.051375 0.009312
v -0.048837 0.051375 0.008022
v -0.046209 0.051375 0.015167
v -0.047144 0.050603 0.014334
v -0.047217 0.051580 0.012188
v -0.044890 0.051044 0.018050
v -0.043445 0.051375 0.019738
v -0.042877 0.051375 0.020506
v -0.045773 0.050074 0.017337
v -0.049932 0.050603 0.004911
v -0.050138 0.050603 0.003184
v -0.049470 0.050074 0.008175
v -0.049966 0.049482 0.006391
v -0.048635 0.049482 0.011376
v -0.050440 0.039583 0.004563
v -0.050206 0.049482 0.004950
v -0.050415 0.050074 -0.001650
v -0.050306 0.050074 -0.003199
v -0.050455 0.050074 0.000000
v -0.050286 0.050603 0.000000
v -0.050247 0.050603 0.001642
v -0.049368 0.051580 0.003113
v -0.049455 0.051375 0.004843
v -0.049657 0.051375 0.003140
v -0.049918 0.051044 0.003164
v -0.049765 0.051375 0.001619
v -0.049765 0.051375 -0.001619
v -0.050138 0.050603 -0.003184
v -0.048165 0.051044 0.011214
v -0.047918 0.051375 0.011129
v -0.048374 0.050603 0.011286
v -0.047488 0.051375 0.012292
v -0.036661 0.048855 -0.027790
v -0.033907 0.050074 -0.029480
v -0.031087 0.050074 -0.031038
v -0.031012 0.050603 -0.030889
v -0.028993 0.039583 -0.032296
v -0.028035 0.051650 -0.031041
v -0.030797 0.051375 -0.030460
v -0.039126 0.049482 -0.025703
v -0.036468 0.050603 -0.027537
v -0.041211 0.050603 -0.023247
v -0.038764 0.051650 -0.024198
v -0.041626 0.051044 -0.022453
v -0.043086 0.051044 -0.020663
v -0.043262 0.050603 -0.020795
v -0.043838 0.050603 -0.020016
v -0.042645 0.051580 -0.020332
v -0.043659 0.051044 -0.019889
v -0.045627 0.050603 -0.017253
v -0.046792 0.050074 -0.015455
v -0.046641 0.050603 -0.015381
v -0.047643 0.051580 -0.011035
v -0.048495 0.051375 -0.009312
v -0.047918 0.051375 -0.011129
v -0.047488 0.051375 -0.012292
v -0.046705 0.051375 -0.014135
v -0.048555 0.051580 -0.007954
v -0.049220 0.051375 -0.006253
v -0.049167 0.051580 -0.004802
v -0.049455 0.051375 -0.004843
v -0.049575 0.049482 -0.008200
v -0.050524 0.049482 -0.001655
v -0.050099 0.050074 -0.004935
v -0.049932 0.050603 -0.004911
v -0.049694 0.050603 -0.006341
v -0.049714 0.051044 -0.004880
v -0.049477 0.051044 -0.006300
v -0.049918 0.051044 -0.003164
v -0.047396 0.049482 -0.014449
v -0.047938 0.050603 -0.012465
v -0.048533 0.050074 -0.011341
v -0.048374 0.050603 -0.011286
v -0.046209 0.051375 -0.015167
v -0.049092 0.051044 -0.008084
v -0.048747 0.051044 -0.009383
v -0.048959 0.050603 -0.009443
v -0.049121 0.050074 -0.009489
v -0.044064 0.049482 -0.020175
v -0.045313 0.049482 -0.018310
v 0.018671 0.050603 0.006341
v 0.019003 0.051044 0.001631
v 0.018144 0.051580 0.004802
v 0.018634 0.051375 -0.003140
v 0.017841 0.051650 -0.004758
v 0.018451 0.051580 0.001605
v 0.051650 -0.040144 -0.001623
v 0.010312 0.050074 -0.023359
v 0.008602 0.050074 -0.025094
v 0.008677 0.049482 -0.025172
v 0.017072 0.050074 -0.012525
v 0.017142 0.051044 -0.011214
v 0.016709 0.051044 -0.012386
v 0.016465 0.051375 -0.012292
v 0.017531 0.051580 -0.007954
v 0.017814 0.051375 -0.008022
v 0.018454 0.051044 -0.006300
v 0.011936 0.051650 -0.019395
v 0.012635 0.051044 -0.019889
v 0.016194 0.051580 -0.012188
v 0.008153 0.051375 -0.024627
v 0.009831 0.051375 -0.022924
v 0.014604 0.050603 -0.017253
v 0.014413 0.051044 -0.017144
v -0.002669 0.051044 -0.031831
v 0.003380 0.050074 -0.029169
v 0.003289 0.050603 -0.029028
v 0.003170 0.051044 -0.028844
v 0.002706 0.051650 -0.028128
v -0.000071 0.051650 -0.029719
v 0.000069 0.051580 -0.029988
v -0.021889 0.051650 -0.032831
v -0.021813 0.051375 -0.033448
v -0.018700 0.051044 -0.034141
v -0.021861 0.051044 -0.033704
v -0.025116 0.048855 -0.033494
v -0.018746 0.049482 -0.034633
v -0.021960 0.048855 -0.034231
v -0.021952 0.049482 -0.034189
v 0.007741 0.051650 0.024198
v 0.002706 0.051650 0.028128
v 0.010187 0.050603 0.023247
v 0.010603 0.051044 0.022453
v 0.010405 0.051375 0.022283
v 0.009616 0.051580 0.022730
v -0.002850 0.049482 0.032432
v -0.003124 0.051375 0.031730
v 0.002679 0.051044 0.029152
v 0.002795 0.050603 0.029338
v 0.002388 0.051580 0.028685
v -0.031345 0.051044 0.030476
v -0.034193 0.051044 0.028844
v -0.036872 0.051044 0.026952
v -0.034312 0.050603 0.029028
v -0.038975 0.051580 0.024418
v -0.046889 0.049482 0.015503
v -0.047396 0.049482 0.014449
v 0.015417 0.051580 0.014016
v 0.015682 0.051375 0.014135
v 0.015920 0.051044 0.014243
v 0.018068 0.051044 0.008084
v 0.017471 0.051375 0.009312
v 0.011854 0.051375 0.020506
v 0.017072 0.050074 0.012525
v -0.022093 0.050603 0.033883
v -0.009122 0.050603 0.033919
v -0.015512 0.051044 0.034287
v -0.015512 0.051650 0.033436
v -0.015512 0.051580 0.033739
v -0.018744 0.051580 0.033586
v -0.018771 0.051375 0.033873
v -0.020110 0.039583 0.034658
v -0.041428 0.051375 0.022283
v -0.041626 0.051044 0.022453
v -0.046943 0.051044 0.014243
v -0.046705 0.051375 0.014135
v -0.048215 0.051580 0.009233
v -0.046440 0.051580 0.014016
v -0.043208 0.051580 0.019570
v -0.041793 0.050603 0.022597
v -0.049575 0.049482 0.008200
v -0.048196 0.049482 0.012564
v -0.048533 0.050074 0.011341
v -0.050414 0.049482 0.003209
v -0.050099 0.050074 0.004935
v -0.049167 0.051580 0.004802
v -0.049220 0.051375 0.006253
v -0.049474 0.051580 0.001605
v -0.049657 0.051375 -0.003140
v -0.050247 0.050603 -0.001642
v -0.027899 0.051375 -0.031730
v -0.030667 0.051580 -0.030202
v -0.041428 0.051375 -0.022283
v -0.042877 0.051375 -0.020506
v -0.043397 0.050074 -0.020895
v -0.043976 0.050074 -0.020113
v -0.043445 0.051375 -0.019738
v -0.045436 0.051044 -0.017144
v -0.046443 0.051044 -0.015283
v -0.045221 0.050074 -0.018253
v -0.048165 0.051044 -0.011214
v -0.047732 0.051044 -0.012386
v -0.049225 0.049482 -0.009518
v -0.050563 0.049482 0.000000
v -0.048196 0.049482 -0.012564
v -0.046889 0.049482 -0.015503
v -0.047144 0.050603 -0.014334
v -0.048837 0.051375 -0.008022
v 0.019263 0.050603 0.000000
v 0.018345 0.051580 -0.003113
v 0.019003 0.051044 -0.001631
v 0.018742 0.051375 0.001619
v 0.018780 0.051375 0.000000
v 0.008131 0.048855 -0.025735
v 0.010979 0.049482 -0.022777
v 0.010187 0.050603 -0.023247
v 0.016894 0.051375 -0.011129
v 0.017911 0.051580 -0.006199
v 0.012185 0.051580 -0.019570
v 0.012422 0.051375 -0.019738
v 0.012239 0.050603 -0.020795
v 0.013867 0.051044 -0.018050
v 0.011854 0.051375 -0.020506
v 0.015920 0.051044 -0.014243
v -0.002767 0.051375 -0.031590
v 0.000322 0.051044 -0.030476
v 0.005848 0.051044 -0.026952
v -0.018715 0.051650 -0.033284
v -0.018720 0.050603 -0.034359
v -0.021759 0.051580 -0.033164
v -0.018676 0.051375 -0.033882
v -0.000071 0.051650 0.029719
v 0.010185 0.051580 0.022094
v 0.009831 0.051375 0.022924
v -0.003229 0.051580 0.031460
v 0.005312 0.051044 0.027362
v 0.016894 0.051375 0.011129
v -0.018715 0.051650 0.033284
v -0.047732 0.051044 0.012386
v -0.047643 0.051580 0.011035
v -0.049121 0.050074 0.009489
v -0.050415 0.050074 0.001650
v -0.050306 0.050074 0.003199
v -0.050027 0.051044 -0.001631
v -0.024896 0.051375 -0.032728
v -0.030952 0.051650 -0.029719
v -0.041208 0.051580 -0.022094
v -0.043483 0.049482 -0.020960
v -0.043208 0.051580 -0.019570
v -0.044890 0.051044 -0.018050
v -0.048095 0.050074 -0.012525
v -0.045867 0.049482 -0.017390
v -0.046943 0.051044 -0.014243
v 0.018895 0.051044 -0.003164
v 0.018490 0.051580 0.000000
v 0.018742 0.051375 -0.001619
v 0.019042 0.051044 0.000000
v 0.006089 0.050074 -0.027255
v 0.010392 0.049482 -0.023432
v 0.016620 0.051580 -0.011035
v 0.012063 0.051044 -0.020663
v 0.013644 0.051375 -0.017913
v 0.014186 0.051375 -0.017014
v 0.010405 0.051375 -0.022283
v 0.015185 0.051375 -0.015167
v 0.015420 0.051044 -0.015283
v 0.016121 0.050603 -0.014334
v 0.005686 0.051375 -0.026747
v -0.031136 0.049482 -0.031135
v -0.028135 0.050074 -0.032332
v -0.028174 0.049482 -0.032432
v -0.028189 0.048855 -0.032472
v -0.009135 0.051650 0.032831
v 0.005154 0.051375 0.027154
v 0.005445 0.050603 0.027537
v -0.049225 0.049482 0.009518
v -0.024968 0.051044 -0.032978
v -0.045078 0.050603 -0.018165
v -0.047297 0.050074 -0.014404
v -0.045773 0.050074 -0.017337
v 0.018451 0.051580 -0.001605
v 0.005985 0.050603 -0.027124
v 0.015682 0.051375 -0.014135
v 0.015617 0.050603 -0.015381
v -0.028074 0.050603 -0.032176
v -0.006055 0.051044 0.032978
v -0.009264 0.051580 0.033164
v -0.021902 0.050603 -0.033919
v -0.027994 0.051044 -0.031972
v -0.006127 0.051375 0.032728
v -0.009211 0.051375 0.033448
v -0.006018 0.051650 0.032081
v -0.006207 0.051580 0.032451
v -0.025104 0.049482 -0.033453
v -0.025074 0.050074 -0.033350
v -0.021932 0.050074 -0.034083
v -0.025028 0.050603 -0.033189
f 1 2 3
f 4 2 1
f 5 3 2
f 6 4 1
f 7 2 4
f 8 1 3
f 9 10 11
f 12 13 14
f 15 3 5
f 16 5 2
f 17 7 4
f 18 8 3
f 19 1 8
f 20 1 19
f 21 11 10
f 22 13 12
f 23 12 14
f 24 3 15
f 25 16 2
f 26 14 13
f 27 28 9
f 29 6 1
f 30 4 6
f 31 2 7
f 32 7 17
f 33 8 18
f 34 18 3
f 35 19 8
f 36 20 19
f 37 10 9
f 38 39 20
f 38 20 9
f 38 9 28
f 40 9 11
f 41 22 12
f 42 12 23
f 43 3 24
f 44 15 5
f 45 25 2
f 46 47 48
f 46 48 49
f 50 47 46
f 50 46 49
f 51 1 52
f 51 52 53
f 54 55 56
f 57 6 29
f 58 30 6
f 59 33 18
f 60 8 33
f 61 21 10
f 62 18 34
f 62 34 63
f 62 63 64
f 62 64 21
f 65 34 3
f 66 35 8
f 66 8 10
f 67 19 35
f 67 10 19
f 68 36 19
f 69 37 9
f 70 10 37
f 70 36 68
f 71 20 39
f 71 39 56
f 71 1 20
f 72 39 38
f 72 38 28
f 73 13 22
f 74 22 41
f 75 41 12
f 76 7 32
f 77 5 16
f 78 25 79
f 78 16 25
f 80 15 44
f 80 44 81
f 82 44 5
f 83 49 48
f 84 85 86
f 84 86 87
f 88 14 26
f 89 26 13
f 90 11 21
f 91 49 83
f 91 83 86
f 91 86 85
f 91 92 49
f 93 1 51
f 93 29 1
f 94 1 71
f 94 55 95
f 96 52 95
f 96 95 97
f 98 99 97
f 98 55 54
f 98 54 99
f 100 55 98
f 100 98 97
f 100 97 95
f 100 95 55
f 101 102 103
f 104 54 56
f 104 56 39
f 105 6 57
f 106 30 107
f 106 4 30
f 108 4 106
f 108 106 107
f 109 30 58
f 109 110 111
f 109 111 107
f 109 107 30
f 112 17 4
f 113 114 115
f 113 116 17
f 117 17 116
f 117 32 17
f 118 10 59
f 118 59 18
f 119 33 59
f 119 59 10
f 119 10 33
f 120 10 60
f 120 60 33
f 120 33 10
f 121 8 60
f 121 60 10
f 121 10 8
f 122 61 10
f 123 21 61
f 124 50 65
f 124 65 3
f 124 3 47
f 124 47 50
f 125 63 34
f 126 65 50
f 127 35 66
f 127 66 10
f 127 10 35
f 128 10 67
f 128 67 35
f 128 35 10
f 129 69 20
f 129 20 36
f 130 20 69
f 130 69 9
f 130 9 20
f 131 19 10
f 131 10 70
f 131 70 68
f 131 68 19
f 132 64 63
f 132 63 133
f 134 40 11
f 135 9 40
f 136 102 135
f 136 103 102
f 137 103 136
f 138 73 22
f 139 140 141
f 142 57 29
f 143 74 144
f 143 141 140
f 145 75 12
f 146 41 75
f 147 2 31
f 148 2 147
f 148 147 149
f 148 149 45
f 148 45 2
f 150 151 152
f 153 76 32
f 154 15 80
f 154 80 81
f 155 47 3
f 155 3 43
f 156 5 77
f 157 42 23
f 158 45 149
f 158 79 25
f 158 25 45
f 159 160 16
f 159 16 78
f 159 78 79
f 161 162 160
f 163 81 44
f 163 44 82
f 164 165 84
f 164 84 87
f 166 14 88
f 167 89 13
f 168 26 89
f 168 89 169
f 170 171 172
f 173 172 171
f 173 171 85
f 173 85 84
f 173 84 172
f 174 125 126
f 174 126 92
f 175 176 165
f 177 84 165
f 177 165 176
f 177 176 172
f 177 172 84
f 178 56 55
f 178 55 94
f 178 94 71
f 178 71 56
f 179 1 94
f 179 94 95
f 179 95 52
f 179 52 1
f 180 27 9
f 180 9 135
f 180 135 102
f 180 102 101
f 181 39 72
f 181 72 28
f 181 54 104
f 181 104 39
f 182 105 57
f 182 57 142
f 182 183 184
f 185 186 187
f 188 108 107
f 188 107 111
f 189 109 58
f 189 58 6
f 190 17 112
f 190 112 114
f 190 114 113
f 190 113 17
f 191 192 193
f 191 114 112
f 191 112 4
f 191 4 108
f 191 108 192
f 194 116 113
f 195 116 194
f 195 194 196
f 197 116 195
f 198 122 18
f 198 18 62
f 199 118 18
f 199 18 122
f 199 122 10
f 199 10 118
f 200 21 123
f 200 123 62
f 200 62 21
f 201 62 123
f 201 198 62
f 202 65 126
f 202 126 125
f 202 125 34
f 202 34 65
f 203 49 92
f 203 92 126
f 203 126 50
f 203 50 49
f 204 69 129
f 204 129 37
f 204 37 69
f 205 70 37
f 205 37 129
f 205 129 36
f 205 36 70
f 206 207 208
f 206 208 209
f 206 209 40
f 206 40 207
f 210 40 209
f 210 136 135
f 210 135 40
f 211 13 73
f 212 213 211
f 212 211 214
f 212 214 215
f 212 216 213
f 217 207 40
f 218 141 143
f 218 143 144
f 219 220 221
f 222 223 221
f 224 183 182
f 224 182 142
f 225 51 53
f 225 142 29
f 225 29 93
f 225 93 51
f 226 111 227
f 226 193 192
f 226 192 108
f 226 108 188
f 226 188 111
f 228 229 115
f 230 113 115
f 230 115 229
f 230 196 194
f 230 194 113
f 231 22 74
f 231 74 143
f 231 143 140
f 231 140 22
f 232 75 145
f 232 233 234
f 235 41 146
f 236 146 75
f 237 235 146
f 238 239 240
f 238 240 241
f 242 147 31
f 242 31 7
f 243 151 150
f 243 150 244
f 245 246 24
f 245 24 15
f 247 246 245
f 247 245 15
f 247 15 154
f 248 48 47
f 248 47 155
f 249 24 246
f 249 246 250
f 249 250 251
f 249 251 248
f 249 248 155
f 249 155 43
f 249 43 24
f 252 23 14
f 253 254 255
f 256 257 258
f 259 256 258
f 260 157 23
f 260 23 261
f 262 12 42
f 263 149 264
f 263 265 158
f 263 158 149
f 266 159 267
f 266 161 160
f 266 160 159
f 268 160 162
f 269 77 270
f 269 271 272
f 269 156 77
f 273 270 268
f 274 268 270
f 274 270 77
f 274 77 16
f 275 276 277
f 275 278 279
f 280 163 82
f 280 82 5
f 281 282 283
f 281 283 284
f 285 286 283
f 287 88 26
f 288 88 289
f 290 176 175
f 290 175 291
f 290 291 14
f 292 134 11
f 292 11 293
f 294 167 13
f 294 13 295
f 294 295 281
f 294 281 284
f 296 297 298
f 299 11 90
f 299 90 297
f 299 297 296
f 300 90 21
f 301 297 90
f 302 26 168
f 303 302 304
f 305 306 287
f 307 300 308
f 309 300 307
f 309 307 310
f 311 309 310
f 312 174 92
f 312 92 91
f 313 125 174
f 313 174 133
f 313 133 63
f 313 63 125
f 314 174 312
f 314 133 174
f 315 316 21
f 315 21 64
f 315 64 132
f 315 132 133
f 317 52 96
f 317 96 97
f 317 97 318
f 317 53 52
f 319 53 317
f 319 317 318
f 319 223 222
f 320 318 321
f 320 321 322
f 320 322 223
f 320 223 319
f 320 319 318
f 323 97 99
f 323 99 321
f 323 321 318
f 323 318 97
f 324 103 137
f 324 101 103
f 325 28 27
f 325 27 180
f 325 180 101
f 325 101 326
f 327 328 329
f 330 327 329
f 331 74 41
f 332 110 333
f 332 333 334
f 332 227 111
f 332 111 110
f 335 336 337
f 338 185 187
f 338 187 41
f 339 333 110
f 339 184 340
f 339 340 333
f 341 189 6
f 341 6 105
f 341 105 182
f 341 182 184
f 342 115 114
f 342 114 191
f 342 191 193
f 342 193 115
f 343 238 241
f 344 153 32
f 344 32 117
f 344 117 116
f 344 116 197
f 344 197 345
f 346 61 201
f 346 201 123
f 346 123 61
f 347 122 198
f 347 198 201
f 347 201 61
f 347 61 122
f 348 216 349
f 348 349 350
f 351 136 210
f 351 210 352
f 351 352 137
f 351 137 136
f 353 214 211
f 353 211 73
f 353 73 354
f 355 13 211
f 355 211 213
f 355 356 13
f 357 215 349
f 357 349 216
f 357 216 212
f 357 212 215
f 358 350 349
f 358 349 208
f 358 208 207
f 358 207 217
f 358 217 350
f 359 214 353
f 359 353 354
f 360 217 40
f 361 138 22
f 362 363 364
f 362 364 340
f 362 340 184
f 362 184 183
f 362 183 363
f 365 141 218
f 365 218 366
f 365 220 139
f 365 139 141
f 367 364 363
f 367 363 222
f 367 222 221
f 368 187 186
f 369 366 334
f 369 334 333
f 369 333 340
f 370 371 372
f 373 223 322
f 373 221 223
f 374 225 53
f 374 53 319
f 375 193 226
f 375 226 227
f 376 196 230
f 376 230 229
f 377 233 232
f 377 232 145
f 378 379 380
f 381 379 378
f 381 378 145
f 381 145 12
f 382 236 75
f 383 146 236
f 383 236 384
f 385 386 229
f 385 229 228
f 387 388 337
f 387 337 336
f 389 241 240
f 390 384 236
f 390 236 382
f 391 392 240
f 391 383 384
f 391 384 392
f 393 394 395
f 393 395 396
f 393 396 239
f 393 239 386
f 393 386 385
f 393 385 394
f 397 376 229
f 397 229 386
f 397 386 239
f 398 242 7
f 398 7 76
f 398 76 153
f 398 153 399
f 398 399 400
f 401 243 244
f 402 399 153
f 403 242 404
f 403 405 147
f 403 147 242
f 406 407 244
f 406 244 150
f 408 380 409
f 410 163 411
f 410 411 412
f 410 412 81
f 410 81 163
f 413 246 247
f 414 83 48
f 414 48 248
f 414 248 251
f 414 415 87
f 414 87 86
f 414 86 83
f 416 417 257
f 416 257 418
f 416 419 417
f 420 252 421
f 422 418 261
f 422 261 23
f 423 424 280
f 423 280 5
f 423 5 156
f 423 156 269
f 423 269 272
f 425 424 423
f 425 423 272
f 425 272 271
f 425 271 277
f 426 258 257
f 426 253 276
f 426 276 275
f 426 259 258
f 427 257 256
f 427 256 261
f 427 261 418
f 427 418 257
f 428 261 256
f 428 256 429
f 428 260 261
f 430 256 259
f 430 429 256
f 431 432 42
f 431 42 157
f 433 434 42
f 433 42 432
f 435 436 433
f 435 433 432
f 437 262 42
f 437 42 434
f 437 434 438
f 439 262 437
f 439 437 438
f 440 12 262
f 440 262 441
f 440 442 12
f 443 379 381
f 443 381 12
f 444 267 159
f 444 159 79
f 444 79 445
f 446 445 79
f 446 79 158
f 446 158 265
f 447 448 449
f 447 449 450
f 451 265 263
f 451 263 264
f 451 264 452
f 451 449 448
f 451 448 265
f 453 273 268
f 453 268 162
f 454 269 270
f 454 270 273
f 454 273 271
f 454 271 269
f 455 268 274
f 455 274 16
f 455 16 160
f 455 160 268
f 456 278 275
f 456 275 277
f 456 277 271
f 456 271 273
f 457 458 134
f 459 88 288
f 459 166 88
f 460 172 176
f 460 170 172
f 461 170 460
f 462 288 461
f 462 461 460
f 462 460 176
f 462 176 290
f 462 166 459
f 462 459 288
f 463 166 462
f 463 462 290
f 463 290 14
f 463 14 166
f 464 134 292
f 464 292 286
f 465 466 286
f 465 286 292
f 467 286 466
f 467 283 286
f 468 467 466
f 469 470 11
f 469 11 299
f 469 299 471
f 472 469 471
f 473 89 167
f 474 167 294
f 474 294 284
f 474 468 167
f 475 296 298
f 475 472 471
f 475 471 299
f 475 299 296
f 476 301 90
f 477 478 298
f 477 298 297
f 479 480 481
f 479 481 472
f 482 483 26
f 484 304 302
f 485 486 484
f 485 484 302
f 485 302 168
f 487 26 483
f 488 26 487
f 488 487 305
f 488 305 287
f 488 287 26
f 489 490 491
f 492 307 308
f 492 489 493
f 494 300 309
f 494 495 496
f 494 496 497
f 494 497 90
f 494 90 300
f 498 309 311
f 498 311 495
f 498 495 494
f 498 494 309
f 499 314 171
f 500 133 314
f 500 314 499
f 500 499 501
f 500 315 133
f 502 171 314
f 502 314 312
f 502 312 91
f 502 91 85
f 502 85 171
f 503 504 505
f 503 287 306
f 506 291 175
f 506 14 291
f 507 508 509
f 510 508 507
f 510 73 138
f 511 324 512
f 511 512 509
f 513 514 515
f 513 137 352
f 516 328 327
f 516 54 181
f 516 181 28
f 516 28 325
f 516 325 326
f 516 326 328
f 517 329 518
f 517 518 519
f 520 518 329
f 520 329 328
f 521 522 519
f 523 99 327
f 523 327 330
f 523 330 321
f 523 321 99
f 524 187 331
f 524 331 41
f 524 41 187
f 525 227 332
f 526 527 336
f 526 336 335
f 526 185 338
f 526 528 527
f 529 109 189
f 529 189 339
f 529 339 110
f 529 110 109
f 530 339 189
f 530 189 341
f 530 341 184
f 530 184 339
f 531 532 533
f 534 348 350
f 534 350 217
f 534 217 360
f 534 360 535
f 536 535 537
f 536 537 538
f 539 349 215
f 539 215 540
f 539 540 208
f 539 208 349
f 541 208 540
f 541 540 515
f 541 515 514
f 541 209 208
f 542 209 541
f 542 541 514
f 542 514 513
f 542 513 352
f 542 352 210
f 542 210 209
f 543 295 13
f 543 13 356
f 543 356 538
f 544 458 537
f 544 537 535
f 545 537 458
f 546 214 359
f 546 359 354
f 546 515 540
f 546 540 215
f 546 215 214
f 547 360 40
f 547 40 134
f 547 134 458
f 547 458 544
f 547 544 535
f 548 365 366
f 548 366 369
f 548 369 340
f 548 340 364
f 548 364 367
f 548 220 365
f 549 144 74
f 549 74 331
f 549 331 187
f 549 187 368
f 549 368 218
f 549 218 144
f 550 322 551
f 552 363 183
f 552 183 224
f 552 224 142
f 553 363 552
f 553 552 374
f 553 374 319
f 553 319 222
f 553 222 363
f 554 193 375
f 554 375 388
f 555 388 375
f 555 375 227
f 555 227 525
f 555 525 337
f 555 337 388
f 556 528 235
f 556 235 237
f 557 41 235
f 557 235 528
f 558 228 115
f 558 115 193
f 558 193 554
f 558 554 388
f 558 388 559
f 558 559 385
f 558 385 228
f 560 561 150
f 560 150 152
f 560 234 561
f 562 392 384
f 562 384 390
f 562 389 240
f 562 240 392
f 563 241 389
f 563 532 531
f 563 531 343
f 563 343 241
f 564 382 75
f 565 396 391
f 565 391 240
f 565 240 239
f 565 239 396
f 566 391 396
f 566 396 395
f 566 395 567
f 566 567 237
f 566 383 391
f 568 238 343
f 568 196 376
f 568 376 397
f 568 397 239
f 568 239 238
f 569 401 244
f 569 244 407
f 569 407 570
f 571 151 243
f 571 243 401
f 571 401 572
f 573 402 153
f 573 153 344
f 573 344 345
f 574 404 242
f 574 242 398
f 574 398 400
f 575 572 401
f 575 404 574
f 575 574 400
f 575 400 572
f 576 577 452
f 576 578 579
f 580 570 408
f 580 408 409
f 580 409 579
f 581 377 145
f 582 581 583
f 582 583 407
f 584 407 583
f 584 583 408
f 584 408 570
f 584 570 407
f 585 380 408
f 585 408 583
f 585 583 581
f 586 380 379
f 586 379 443
f 587 577 576
f 588 589 560
f 588 560 152
f 588 152 151
f 588 151 590
f 588 590 532
f 588 591 589
f 592 280 424
f 592 424 425
f 592 255 254
f 592 254 411
f 592 411 163
f 592 163 280
f 593 417 594
f 593 254 253
f 593 253 417
f 595 594 417
f 595 417 419
f 596 154 81
f 596 81 412
f 597 252 420
f 597 23 252
f 598 419 416
f 598 416 418
f 599 255 592
f 599 592 425
f 599 425 277
f 599 277 276
f 599 276 253
f 599 253 255
f 600 253 426
f 600 426 257
f 600 257 417
f 600 417 253
f 601 279 259
f 601 259 426
f 601 426 275
f 601 275 279
f 602 157 260
f 602 260 428
f 602 428 429
f 602 429 157
f 603 259 279
f 603 279 604
f 605 606 604
f 605 604 279
f 607 431 157
f 608 604 606
f 609 610 611
f 612 262 439
f 612 613 441
f 612 441 262
f 614 613 612
f 615 614 612
f 615 612 439
f 615 439 438
f 615 438 616
f 617 442 440
f 617 440 441
f 617 441 613
f 617 618 442
f 619 442 618
f 619 618 620
f 619 620 443
f 619 443 12
f 619 12 442
f 621 445 446
f 621 446 265
f 621 265 448
f 621 448 447
f 622 576 452
f 622 452 264
f 622 264 149
f 622 149 147
f 622 147 405
f 623 577 587
f 623 587 624
f 623 624 449
f 623 449 451
f 623 451 452
f 623 452 577
f 625 450 449
f 625 449 624
f 626 620 618
f 626 618 627
f 626 627 625
f 626 625 624
f 626 624 587
f 626 587 628
f 629 161 266
f 629 266 267
f 630 631 632
f 633 616 438
f 633 438 434
f 633 434 433
f 633 433 436
f 634 627 618
f 634 613 635
f 634 450 625
f 634 625 627
f 636 450 634
f 636 634 635
f 636 632 631
f 636 631 637
f 636 637 447
f 636 447 450
f 638 273 453
f 638 453 639
f 640 134 464
f 640 464 286
f 640 286 285
f 640 457 134
f 641 466 465
f 641 465 292
f 641 292 293
f 642 467 468
f 642 468 474
f 642 474 284
f 642 284 283
f 642 283 467
f 643 472 481
f 644 89 473
f 645 167 468
f 646 21 316
f 646 300 21
f 647 492 308
f 648 490 647
f 648 647 649
f 650 497 476
f 650 476 90
f 650 90 497
f 651 301 476
f 651 476 652
f 651 652 653
f 651 478 477
f 651 477 297
f 651 297 301
f 654 169 89
f 654 478 169
f 655 478 654
f 655 654 479
f 655 479 298
f 655 298 478
f 656 298 479
f 656 479 472
f 656 472 475
f 656 475 298
f 657 302 303
f 657 482 26
f 657 26 302
f 658 311 310
f 659 653 486
f 659 486 485
f 659 485 168
f 660 305 487
f 660 487 661
f 660 661 489
f 660 489 491
f 660 306 305
f 662 495 311
f 662 311 663
f 662 496 495
f 664 501 499
f 664 499 171
f 664 171 170
f 665 315 500
f 665 500 501
f 665 501 666
f 665 316 315
f 667 666 501
f 668 287 503
f 668 88 287
f 669 88 668
f 669 668 503
f 670 289 88
f 670 88 669
f 670 669 503
f 670 503 505
f 671 252 14
f 671 421 252
f 672 673 674
f 675 413 247
f 676 415 414
f 676 414 251
f 677 250 246
f 677 246 413
f 677 413 675
f 677 678 676
f 677 676 251
f 677 251 250
f 679 73 510
f 679 510 507
f 680 510 138
f 680 508 510
f 681 324 137
f 681 137 513
f 681 513 512
f 681 512 324
f 682 512 513
f 682 513 515
f 682 515 683
f 682 683 512
f 684 507 509
f 684 73 679
f 684 679 507
f 685 54 516
f 685 516 327
f 685 327 99
f 685 99 54
f 686 517 519
f 687 521 519
f 687 519 518
f 688 326 101
f 688 687 518
f 688 518 520
f 688 520 328
f 688 328 326
f 689 522 521
f 689 521 508
f 689 508 680
f 690 368 186
f 690 186 691
f 690 691 334
f 690 334 366
f 690 366 218
f 690 218 368
f 692 185 526
f 692 526 335
f 692 335 337
f 692 337 525
f 692 691 186
f 692 186 185
f 693 691 692
f 693 692 525
f 693 525 332
f 693 332 334
f 693 334 691
f 694 528 526
f 694 526 338
f 694 338 41
f 694 41 557
f 694 557 528
f 695 195 196
f 695 196 568
f 695 568 343
f 695 343 531
f 696 345 197
f 696 197 195
f 696 195 695
f 696 695 531
f 696 531 533
f 697 356 355
f 697 355 213
f 697 213 216
f 697 216 698
f 697 698 538
f 697 538 356
f 699 348 534
f 699 534 535
f 699 535 536
f 699 536 538
f 699 538 698
f 699 698 216
f 699 216 348
f 700 457 640
f 700 640 285
f 700 285 283
f 700 283 282
f 700 545 458
f 700 458 457
f 701 537 545
f 701 545 700
f 701 700 282
f 701 282 281
f 701 281 295
f 701 295 543
f 702 683 515
f 702 515 546
f 702 546 354
f 702 354 683
f 703 360 547
f 703 547 535
f 703 535 360
f 704 220 548
f 704 548 367
f 704 367 221
f 704 221 220
f 705 321 330
f 705 551 322
f 705 322 321
f 706 219 221
f 706 221 373
f 706 373 322
f 706 322 550
f 706 550 371
f 706 371 370
f 707 361 22
f 707 372 361
f 708 372 707
f 708 707 709
f 708 709 370
f 708 370 372
f 710 139 220
f 710 220 219
f 710 219 706
f 710 706 370
f 710 370 709
f 710 709 140
f 710 140 139
f 711 225 374
f 711 374 552
f 711 552 142
f 711 142 225
f 712 567 395
f 712 395 713
f 712 713 336
f 712 336 527
f 712 527 528
f 712 528 556
f 712 556 237
f 712 237 567
f 714 389 562
f 714 562 715
f 714 715 591
f 714 532 563
f 714 563 389
f 716 234 560
f 716 75 232
f 716 232 234
f 717 715 562
f 717 562 390
f 717 390 382
f 717 382 564
f 717 564 591
f 717 591 715
f 718 383 566
f 718 566 237
f 718 237 146
f 718 146 383
f 719 394 385
f 719 385 559
f 719 559 388
f 719 388 387
f 719 387 336
f 719 336 713
f 719 713 395
f 719 395 394
f 720 571 572
f 720 572 400
f 720 400 399
f 720 399 402
f 721 533 573
f 721 573 345
f 721 345 696
f 721 696 533
f 722 590 151
f 722 573 533
f 722 533 532
f 722 532 590
f 723 403 404
f 723 404 575
f 724 569 570
f 724 723 575
f 724 575 401
f 724 401 569
f 725 581 582
f 725 233 377
f 725 377 581
f 726 406 150
f 726 150 561
f 726 561 234
f 726 234 233
f 726 233 725
f 726 725 582
f 726 582 407
f 726 407 406
f 727 378 380
f 727 380 585
f 727 585 581
f 727 581 145
f 727 145 378
f 728 620 626
f 728 626 628
f 728 586 443
f 728 443 620
f 729 579 409
f 729 587 576
f 729 576 579
f 730 598 420
f 731 597 420
f 731 420 598
f 731 598 418
f 731 418 422
f 732 259 603
f 732 603 604
f 732 604 733
f 732 733 607
f 732 429 430
f 732 430 259
f 734 278 456
f 734 638 735
f 734 735 606
f 734 606 605
f 734 605 279
f 734 279 278
f 736 435 432
f 736 607 733
f 736 733 604
f 736 604 608
f 736 608 435
f 737 738 633
f 737 633 436
f 737 436 435
f 737 609 611
f 737 611 738
f 739 735 638
f 739 638 639
f 740 635 613
f 740 613 614
f 740 614 615
f 740 615 741
f 740 741 630
f 740 630 632
f 740 632 636
f 740 636 635
f 742 444 445
f 742 445 621
f 742 621 447
f 742 447 637
f 742 637 631
f 742 631 444
f 743 578 576
f 743 576 622
f 743 622 405
f 743 405 403
f 744 629 267
f 744 267 444
f 745 161 629
f 746 738 611
f 746 611 610
f 747 613 634
f 747 634 618
f 747 618 617
f 747 617 613
f 748 293 11
f 748 11 470
f 749 480 644
f 749 644 473
f 749 643 481
f 749 481 480
f 750 470 469
f 751 466 641
f 751 641 752
f 751 752 645
f 751 645 468
f 751 468 466
f 753 649 646
f 753 646 316
f 754 647 308
f 754 308 300
f 755 492 647
f 755 647 490
f 755 490 489
f 755 489 492
f 756 478 651
f 756 651 653
f 757 480 479
f 757 479 654
f 757 654 89
f 757 89 644
f 757 644 480
f 758 482 657
f 758 657 303
f 758 303 759
f 758 759 482
f 760 310 307
f 760 307 492
f 761 663 311
f 761 311 658
f 762 482 759
f 763 652 476
f 763 653 652
f 764 289 670
f 764 670 505
f 764 664 170
f 764 170 461
f 764 461 288
f 764 288 289
f 765 501 664
f 765 664 764
f 765 764 505
f 765 505 504
f 765 504 667
f 765 667 501
f 766 660 491
f 766 491 490
f 766 666 667
f 766 667 504
f 767 671 14
f 767 14 506
f 768 164 87
f 768 87 415
f 768 674 673
f 768 673 165
f 768 165 164
f 769 506 672
f 769 421 671
f 769 671 767
f 769 767 506
f 770 673 672
f 770 672 506
f 770 506 175
f 770 175 165
f 770 165 673
f 771 522 689
f 771 689 680
f 771 680 138
f 771 138 522
f 772 354 73
f 772 73 684
f 772 684 683
f 772 683 354
f 773 683 684
f 773 684 509
f 773 509 512
f 773 512 683
f 774 686 519
f 774 519 522
f 774 522 138
f 775 511 509
f 775 521 687
f 775 687 688
f 775 324 511
f 776 537 701
f 776 701 543
f 776 543 538
f 776 538 537
f 777 709 707
f 777 707 22
f 777 22 140
f 777 140 709
f 778 588 532
f 778 532 714
f 778 714 591
f 778 591 588
f 779 589 591
f 779 591 564
f 779 564 75
f 779 75 716
f 779 716 560
f 779 560 589
f 780 722 151
f 780 151 571
f 781 403 723
f 781 570 580
f 781 580 579
f 781 579 578
f 781 578 743
f 781 743 403
f 782 723 724
f 782 724 570
f 782 570 781
f 782 781 723
f 783 628 587
f 783 587 729
f 783 729 409
f 783 409 380
f 783 380 586
f 783 586 728
f 783 728 628
f 784 421 769
f 784 769 672
f 784 730 420
f 784 420 421
f 785 23 597
f 785 597 731
f 785 731 422
f 785 422 23
f 786 429 732
f 786 732 607
f 786 607 157
f 786 157 429
f 787 638 734
f 787 734 456
f 787 456 273
f 787 273 638
f 788 607 736
f 788 736 432
f 788 432 431
f 788 431 607
f 789 737 435
f 789 435 608
f 790 631 630
f 790 629 744
f 790 744 444
f 790 444 631
f 791 639 453
f 791 453 162
f 791 162 161
f 791 161 745
f 792 741 615
f 792 615 616
f 792 616 633
f 792 633 738
f 792 738 746
f 792 746 630
f 792 630 741
f 793 472 643
f 793 643 750
f 793 750 469
f 793 469 472
f 794 645 752
f 794 473 167
f 794 167 645
f 795 643 749
f 795 752 750
f 795 750 643
f 796 750 752
f 796 752 641
f 796 641 293
f 796 293 748
f 796 748 470
f 796 470 750
f 797 649 753
f 797 753 316
f 797 316 665
f 797 648 649
f 798 647 754
f 798 754 300
f 798 300 646
f 798 646 649
f 798 649 647
f 799 659 168
f 799 168 169
f 799 169 478
f 799 478 756
f 799 756 653
f 799 653 659
f 800 762 759
f 800 759 658
f 800 658 310
f 800 310 760
f 800 760 492
f 800 492 493
f 801 759 303
f 801 303 304
f 801 304 802
f 801 802 663
f 801 663 761
f 801 761 658
f 801 658 759
f 803 661 487
f 803 487 483
f 803 483 482
f 803 482 762
f 803 762 800
f 803 800 493
f 803 493 489
f 803 489 661
f 804 484 486
f 804 763 805
f 804 805 663
f 804 663 802
f 804 802 304
f 804 304 484
f 806 497 496
f 806 805 763
f 806 763 476
f 806 476 497
f 807 660 766
f 807 766 504
f 807 504 503
f 807 503 306
f 807 306 660
f 808 412 411
f 808 411 254
f 808 254 593
f 808 593 594
f 809 810 808
f 809 808 594
f 811 154 596
f 811 596 412
f 811 412 808
f 811 808 810
f 811 675 247
f 811 247 154
f 812 138 361
f 813 508 521
f 813 521 775
f 813 775 509
f 813 509 508
f 814 101 324
f 814 324 775
f 814 775 688
f 814 688 101
f 815 720 402
f 815 402 573
f 815 573 722
f 815 722 780
f 815 780 571
f 815 571 720
f 816 784 672
f 816 672 674
f 817 606 735
f 817 735 739
f 817 609 737
f 817 737 789
f 817 789 608
f 817 608 606
f 818 746 610
f 818 610 745
f 818 745 629
f 818 629 790
f 818 790 630
f 818 630 746
f 819 639 791
f 819 791 745
f 819 745 610
f 819 610 609
f 819 609 817
f 819 817 739
f 819 739 639
f 820 794 752
f 820 752 795
f 820 795 749
f 820 749 473
f 820 473 794
f 821 666 766
f 821 766 490
f 821 490 648
f 821 648 797
f 821 797 665
f 821 665 666
f 822 653 763
f 822 763 804
f 822 804 486
f 822 486 653
f 823 662 663
f 823 663 805
f 823 805 806
f 823 806 496
f 823 496 662
f 824 809 594
f 824 594 595
f 824 595 419
f 825 551 705
f 825 705 330
f 825 330 329
f 825 329 517
f 826 812 361
f 826 361 372
f 827 816 674
f 827 674 768
f 828 730 784
f 828 784 816
f 828 816 824
f 828 824 419
f 828 419 598
f 828 598 730
f 829 825 517
f 829 517 686
f 829 686 774
f 830 371 550
f 830 550 551
f 830 551 825
f 830 825 829
f 830 829 826
f 830 826 372
f 830 372 371
f 831 774 138
f 831 138 812
f 832 826 829
f 832 829 774
f 832 774 831
f 832 831 812
f 832 812 826
f 833 810 809
f 833 809 834
f 833 678 677
f 833 677 675
f 833 675 811
f 833 811 810
f 835 678 833
f 835 833 834
f 835 827 768
f 835 768 415
f 835 415 676
f 835 676 678
f 836 824 816
f 836 816 827
f 836 827 835
f 836 835 834
f 836 834 809
f 836 809 824
