# Normalized convex hull collision mesh - generated by scripts/generate-collision-meshes.mjs (units: meters)
v -0.027500 0.006000 -0.006000
v -0.027500 0.006000 0.003600
v 0.020625 0.006000 -0.006000
v -0.027500 -0.006000 -0.006000
v -0.027500 -0.006000 0.003600
v 0.020625 -0.006000 -0.006000
v 0.027500 0.001227 0.003640
v 0.020625 -0.006000 0.003600
v 0.020625 0.006000 0.003680
v 0.027500 -0.001525 0.004133
v 0.027500 0.001508 0.004236
v 0.012040 0.004628 0.005979
v 0.027500 -0.001299 0.003653
v 0.027500 0.001474 0.003830
v 0.012299 0.005972 0.004117
v 0.012157 0.005919 0.004412
v 0.011883 0.005818 0.004760
v 0.020590 0.005972 0.004113
v 0.027500 -0.001227 0.003640
v 0.027500 -0.001474 0.003830
v 0.027500 0.001367 0.003690
v 0.027500 0.001525 0.004027
v 0.012356 0.005993 0.003898
v 0.020505 0.005905 0.004472
v 0.020347 0.005780 0.004861
v 0.027500 -0.000608 0.004409
v 0.027500 -0.001367 0.004470
v 0.027500 -0.001367 0.003690
v 0.027500 -0.001525 0.004027
v 0.027500 0.001426 0.003751
v 0.027500 0.001299 0.003653
v 0.027500 0.001525 0.004133
v 0.027500 0.001508 0.003924
v 0.012375 0.006000 0.003680
v 0.020617 0.005993 0.003894
v 0.011472 0.005666 0.005106
v 0.012015 -0.005867 0.004611
v 0.020505 -0.005905 0.004472
v 0.020347 -0.005780 0.004861
v 0.020617 -0.005993 0.003894
v 0.020590 -0.005972 0.004113
v 0.012353 -0.005992 0.003914
v 0.011467 -0.004826 0.005922
v 0.011335 -0.005052 0.005806
v 0.019465 -0.005080 0.005788
v 0.019067 -0.004764 0.005944
v 0.018631 0.004418 0.006000
v 0.019067 0.004764 0.005944
v 0.027500 0.001426 0.004409
v 0.011335 0.005052 0.005806
v 0.011146 0.005265 0.005640
v 0.027500 -0.001426 0.004409
v 0.020120 -0.005599 0.005223
v 0.027500 -0.001426 0.003751
v 0.027500 -0.001508 0.003924
v 0.010906 0.005457 0.005430
v 0.019824 0.005364 0.005539
v 0.012173 -0.005925 0.004384
v 0.012375 -0.006000 0.003680
v 0.011355 -0.005623 0.005184
v 0.010906 -0.005457 0.005430
v 0.012037 -0.004629 0.005979
v 0.012577 -0.004418 0.006000
v 0.011146 -0.005265 0.005640
v 0.012577 0.004418 0.006000
v 0.018631 -0.004418 0.006000
v 0.027500 0.001474 0.004330
v 0.027500 0.001227 0.004520
v 0.020120 0.005599 0.005223
v 0.011467 0.004826 0.005922
v 0.019465 0.005080 0.005788
v 0.027500 -0.001508 0.004236
v 0.027500 -0.001474 0.004330
v 0.012286 -0.005967 0.004150
v 0.020625 -0.006000 0.003680
v 0.011738 -0.005764 0.004898
v 0.019824 -0.005364 0.005539
v 0.027500 -0.001227 0.004520
v 0.027500 0.001367 0.004470
v 0.027500 -0.001299 0.004507
v 0.027500 0.001299 0.004507
f 1 2 3
f 1 3 4
f 1 4 2
f 5 2 4
f 6 4 3
f 6 3 7
f 6 5 4
f 8 5 6
f 9 3 2
f 10 8 6
f 11 10 7
f 12 2 5
f 13 7 10
f 14 11 7
f 15 2 16
f 17 16 2
f 18 15 16
f 19 7 13
f 19 13 6
f 19 6 7
f 20 13 10
f 21 14 7
f 22 11 14
f 22 3 9
f 23 2 15
f 23 15 18
f 24 11 18
f 24 18 16
f 24 16 17
f 24 17 25
f 26 10 11
f 27 10 26
f 28 13 20
f 28 6 13
f 29 20 10
f 29 10 6
f 30 14 21
f 30 21 3
f 30 3 14
f 31 3 21
f 31 21 7
f 31 7 3
f 32 11 22
f 32 22 9
f 33 3 22
f 33 22 14
f 33 14 3
f 34 2 23
f 34 9 2
f 35 9 34
f 35 34 23
f 35 23 18
f 35 18 11
f 35 11 32
f 35 32 9
f 36 17 2
f 36 25 17
f 37 38 39
f 40 41 42
f 40 42 5
f 43 5 44
f 45 46 43
f 45 43 44
f 47 46 48
f 47 48 12
f 49 27 26
f 49 26 11
f 50 51 2
f 52 10 27
f 52 27 53
f 52 53 39
f 54 6 28
f 54 28 20
f 54 20 6
f 55 20 29
f 55 29 6
f 55 6 20
f 56 51 57
f 56 36 2
f 56 2 51
f 58 41 38
f 58 38 37
f 58 37 5
f 59 40 5
f 59 5 8
f 60 39 53
f 60 53 61
f 60 61 5
f 62 5 43
f 62 43 46
f 62 63 12
f 62 12 5
f 64 45 44
f 64 44 5
f 64 5 61
f 65 63 47
f 65 47 12
f 65 12 63
f 66 46 47
f 66 47 63
f 66 63 62
f 66 62 46
f 67 24 25
f 67 25 49
f 67 49 11
f 67 11 24
f 68 27 49
f 68 48 46
f 69 25 36
f 69 36 56
f 69 56 57
f 69 49 25
f 70 50 2
f 70 2 12
f 70 12 48
f 71 57 51
f 71 51 50
f 71 50 70
f 71 70 48
f 72 10 52
f 72 38 41
f 72 41 40
f 72 40 10
f 73 38 72
f 73 72 52
f 73 52 39
f 73 39 38
f 74 41 58
f 74 58 5
f 74 5 42
f 74 42 41
f 75 40 59
f 75 59 8
f 75 8 10
f 75 10 40
f 76 39 60
f 76 60 5
f 76 5 37
f 76 37 39
f 77 53 27
f 77 45 64
f 77 64 61
f 77 61 53
f 78 27 68
f 78 68 46
f 79 68 49
f 79 49 69
f 79 69 57
f 80 45 77
f 80 77 27
f 80 27 78
f 80 78 46
f 80 46 45
f 81 71 48
f 81 48 68
f 81 68 79
f 81 79 57
f 81 57 71
