# Normalized convex hull collision mesh - generated by scripts/generate-collision-meshes.mjs (units: meters)
v 0.034773 -0.004219 -0.020500
v -0.002819 -0.034887 -0.020500
v 0.002819 0.034887 -0.020500
v -0.034773 0.004219 -0.020500
v 0.027133 0.022136 -0.020500
v -0.021043 0.027980 -0.020500
v -0.031646 -0.015004 -0.020500
v 0.033645 0.009738 -0.020500
v 0.021043 -0.027980 -0.020500
v -0.016279 -0.030991 -0.020500
v 0.034773 0.004219 -0.020500
v 0.016279 0.030991 -0.020500
v 0.030335 -0.017500 -0.020500
v -0.008383 0.033983 -0.020500
v -0.030335 0.017500 -0.020500
v -0.001256 -0.024241 0.020500
v 0.024021 -0.003625 0.020500
v 0.003628 0.024001 0.020500
v -0.034321 -0.007001 -0.020500
v -0.031646 -0.015004 -0.002035
v -0.032752 -0.012411 -0.002035
v 0.031646 0.015004 -0.020500
v 0.035000 0.001409 -0.020500
v 0.008383 0.033983 -0.020500
v 0.013730 -0.032199 -0.020500
v -0.002819 0.034887 -0.020500
v 0.020870 0.012424 0.020500
v -0.024021 0.003625 0.020500
v -0.018721 -0.029582 -0.020500
v -0.018721 -0.029582 -0.002035
v -0.008383 -0.033983 -0.020500
v -0.013730 -0.032199 -0.020500
v -0.013730 -0.032199 -0.002035
v -0.035000 -0.001409 -0.020500
v -0.032752 -0.012411 -0.020500
v 0.028828 0.019882 -0.020500
v 0.032752 0.012411 -0.020500
v 0.031646 0.015004 -0.002035
v 0.021043 0.027980 -0.020500
v 0.035000 -0.001409 -0.020500
v 0.035000 -0.001409 -0.002035
v 0.034773 0.004219 -0.002035
v 0.034321 0.007001 -0.002035
v 0.034321 0.007001 -0.020500
v 0.011092 0.033199 -0.020500
v 0.008383 0.033983 -0.002035
v 0.014420 -0.019535 0.020500
v 0.034773 -0.004219 -0.002035
v 0.032752 -0.012411 -0.020500
v 0.005619 -0.034547 -0.020500
v 0.008383 -0.033983 -0.002035
v 0.008038 -0.032427 0.012126
v 0.005619 -0.034547 -0.002035
v 0.016279 -0.030991 -0.020500
v 0.013730 -0.032199 -0.002035
v 0.002819 0.034887 -0.002035
v -0.000000 0.035000 -0.002035
v 0.005619 0.034547 -0.020500
v 0.011092 0.033199 -0.002035
v -0.005619 0.034547 -0.020500
v -0.000000 0.035000 -0.020500
v -0.016279 0.030991 -0.020500
v -0.027133 0.022136 -0.020500
v 0.032752 0.012411 -0.002035
v 0.024267 0.001127 0.020500
v -0.014420 0.019535 0.020500
v -0.005619 -0.034547 -0.020500
v -0.008383 -0.033983 -0.002035
v -0.011092 -0.033199 -0.020500
v -0.016279 -0.030991 -0.002035
v -0.011370 -0.031488 0.011557
v -0.008194 -0.032325 0.012494
v -0.011326 -0.031367 0.012494
v -0.005619 -0.034547 -0.002035
v -0.018043 -0.016253 0.020500
v -0.035000 0.001409 -0.020500
v -0.035000 0.001409 -0.002035
v -0.033645 -0.009738 -0.020500
v -0.034321 -0.007001 -0.002035
v -0.034773 -0.004219 -0.002035
v -0.027133 -0.022136 -0.020500
v -0.028828 -0.019882 -0.020500
v -0.027133 -0.022136 -0.002035
v 0.030335 0.017500 -0.020500
v 0.025263 0.024245 -0.020500
v 0.025263 0.024245 -0.002035
v 0.018721 0.029582 -0.020500
v 0.021043 0.027980 -0.002035
v 0.016279 0.030991 -0.002035
v 0.035000 0.001409 -0.002035
v 0.013730 0.032199 -0.020500
v 0.027133 -0.022136 -0.020500
v 0.025263 -0.024245 -0.020500
v 0.025263 -0.024245 -0.002035
v 0.023228 -0.026198 -0.002035
v 0.031646 -0.015004 -0.020500
v 0.031646 -0.015004 -0.002035
v 0.033645 -0.009738 -0.020500
v 0.033645 -0.009738 -0.002035
v 0.033318 -0.003374 0.011696
v 0.034321 -0.007001 -0.002035
v 0.032752 -0.012411 -0.002035
v 0.031499 -0.011361 0.011696
v 0.032323 -0.008751 0.011696
v 0.032930 -0.006083 0.011696
v 0.002819 -0.034887 -0.020500
v 0.011092 -0.033199 -0.002035
v 0.008383 -0.033983 -0.020500
v 0.022422 -0.024854 0.011696
v 0.021043 -0.027980 -0.002035
v 0.019878 -0.026929 0.011696
v 0.018721 -0.029582 -0.002035
v 0.018721 -0.029582 -0.020500
v -0.008383 0.033983 -0.002035
v 0.005619 0.034547 -0.002035
v -0.013730 0.032199 -0.020500
v -0.013730 0.032199 -0.002035
v -0.016279 0.030991 -0.002035
v -0.023228 0.026198 -0.002035
v -0.021043 0.027980 -0.002035
v -0.018721 0.029582 -0.020500
v -0.028828 0.019882 -0.020500
v -0.027133 0.022136 -0.002035
v -0.030335 0.017500 -0.002035
v -0.028828 0.019882 -0.002035
v -0.025916 0.018235 0.016529
v -0.031646 0.015004 -0.020500
v -0.032412 0.007945 0.012494
v -0.032752 0.012411 -0.002035
v -0.033645 0.009738 -0.002035
v 0.019474 -0.014511 0.020500
v 0.012544 0.020787 0.020500
v 0.024261 -0.001255 0.020500
v 0.025736 -0.000494 0.020378
v 0.025610 -0.002593 0.020378
v -0.011092 -0.033199 -0.002035
v -0.013404 -0.030679 0.011557
v -0.007572 -0.029869 0.017592
v -0.007301 -0.028799 0.018604
v -0.010465 -0.028983 0.017592
v -0.017403 -0.022544 0.019418
v -0.018288 -0.020054 0.020014
v -0.019192 -0.021045 0.019418
v -0.020026 -0.021960 0.018604
v -0.018159 -0.023524 0.018604
v -0.033645 -0.009738 -0.002035
v -0.032519 -0.008048 0.011557
v -0.034773 -0.004219 -0.020500
v -0.022564 -0.024744 0.011557
v -0.023228 -0.026198 -0.002035
v -0.020461 -0.026506 0.011557
v -0.021043 -0.027980 -0.002035
v -0.018225 -0.028088 0.011557
v -0.025263 -0.024245 -0.002035
v -0.024883 -0.022415 0.011557
v -0.023228 -0.026198 -0.020500
v -0.030335 -0.017500 -0.020500
v 0.009757 0.030133 0.016529
v 0.012118 0.029265 0.016529
v 0.013730 0.032199 -0.002035
v 0.033645 0.009738 -0.002035
v 0.018721 0.029582 -0.002035
v 0.023228 0.026198 -0.020500
v -0.000084 -0.032218 0.015653
v -0.000083 -0.031754 0.016408
v -0.001667 -0.032175 0.015653
v -0.011252 -0.031162 0.013432
v -0.008072 -0.031841 0.014292
v -0.011157 -0.030898 0.014292
v -0.013152 -0.030104 0.014292
v -0.004919 -0.029299 0.018604
v -0.010091 -0.027946 0.018604
v -0.011896 -0.027227 0.018604
v -0.015052 -0.027967 0.016408
v -0.016410 -0.027193 0.016408
v -0.015272 -0.028375 0.015653
v -0.012900 -0.029527 0.015653
v -0.010943 -0.030306 0.015653
v -0.020382 -0.026404 0.012494
v -0.018155 -0.027980 0.012494
v 0.017235 -0.019104 0.020378
v 0.016117 -0.021834 0.020014
v 0.018180 -0.020152 0.020014
v 0.008124 -0.022876 0.020500
v 0.028828 -0.019882 -0.020500
v 0.028828 -0.019882 -0.002035
v 0.027133 -0.022136 -0.002035
v 0.023228 -0.026198 -0.020500
v 0.033482 -0.000642 0.011696
v 0.034321 -0.007001 -0.020500
v 0.031340 -0.011303 0.012766
v 0.026845 -0.020004 0.011696
v 0.026174 -0.020873 0.011696
v 0.030335 -0.017500 -0.002035
v 0.029227 -0.016335 0.011696
v 0.030235 -0.014386 0.011696
v 0.027793 -0.018667 0.011696
v 0.027653 -0.018572 0.012766
v -0.000000 -0.035000 -0.020500
v 0.011092 -0.033199 -0.020500
v 0.016279 -0.030991 -0.002035
v 0.024379 -0.022940 0.011696
v -0.011092 0.033199 -0.002035
v -0.014664 0.028078 0.016529
v 0.004866 0.031296 0.016529
v -0.025263 0.024245 -0.002035
v -0.023228 0.026198 -0.020500
v -0.018721 0.029582 -0.002035
v -0.018922 0.025408 0.016529
v -0.031573 -0.011194 0.011557
v -0.024202 -0.019095 0.017592
v -0.022903 -0.020632 0.017592
v -0.023335 -0.018411 0.018604
v -0.028828 -0.019882 -0.002035
v -0.026293 -0.020745 0.011557
v -0.031646 0.015004 -0.002035
v -0.031675 0.008791 0.014292
v -0.033645 0.009738 -0.020500
v -0.034321 0.007001 -0.002035
v -0.034773 0.004219 -0.002035
v -0.033126 0.004999 0.011557
v -0.032591 0.007754 0.011557
v -0.035000 -0.001409 -0.002035
v -0.033499 -0.000468 0.011557
v 0.025706 -0.001330 0.020378
v 0.027117 -0.001403 0.020014
v 0.023549 -0.005960 0.020500
v 0.025312 -0.004676 0.020378
v 0.021933 -0.010436 0.020500
v 0.008245 0.022833 0.020500
v 0.016597 0.026983 0.016529
v 0.018043 0.016253 0.020500
v 0.014523 0.019458 0.020500
v 0.022895 0.008117 0.020500
v 0.021988 0.010320 0.020500
v 0.022931 0.011685 0.020378
v -0.022705 0.022099 0.016529
v -0.008124 0.022876 0.020500
v 0.004375 0.028134 0.019418
v 0.006667 0.026300 0.020014
v 0.006997 0.027600 0.019418
v -0.008226 -0.032450 0.011557
v -0.014404 -0.030223 0.011557
v -0.015868 -0.029482 0.011557
v -0.013265 -0.030362 0.013432
v -0.013352 -0.030561 0.012494
v -0.001643 -0.031712 0.016408
v -0.002600 -0.030702 0.017592
v -0.002679 -0.031641 0.016408
v -0.002718 -0.032103 0.015653
v -0.005258 -0.031317 0.016408
v -0.005335 -0.031774 0.015653
v -0.022083 -0.019893 0.018604
v -0.019693 -0.025511 0.015653
v -0.020078 -0.026009 0.014292
v -0.017884 -0.027561 0.014292
v -0.017541 -0.027034 0.015653
v -0.022141 -0.024280 0.014292
v -0.024625 -0.022183 0.013432
v -0.022331 -0.024488 0.013432
v -0.023581 -0.005836 0.020500
v -0.021043 -0.027980 -0.020500
v -0.025263 -0.024245 -0.020500
v 0.028828 0.019882 -0.002035
v 0.028769 0.017127 0.011696
v 0.026957 0.019854 0.011696
v -0.008141 -0.032114 0.013432
v -0.017299 -0.028667 0.011557
v -0.018037 -0.027797 0.013432
v -0.001595 -0.030771 0.017592
v -0.000080 -0.030812 0.017592
v -0.000078 -0.029709 0.018604
v -0.002507 -0.029603 0.018604
v -0.018834 -0.024398 0.017592
v -0.010445 -0.021915 0.020500
v -0.010298 -0.023572 0.020378
v -0.011067 -0.023221 0.020378
v -0.009670 -0.026782 0.019418
v -0.011400 -0.026094 0.019418
v -0.006997 -0.027600 0.019418
v -0.006667 -0.026300 0.020014
v -0.004714 -0.028079 0.019418
v -0.007803 -0.030782 0.016408
v -0.007917 -0.031232 0.015653
v -0.014134 -0.029656 0.014292
v -0.015570 -0.028929 0.014292
v -0.015703 -0.029177 0.013432
v -0.016975 -0.028129 0.014292
v -0.013863 -0.029088 0.015653
v 0.017957 -0.016349 0.020500
v 0.003501 -0.024020 0.020500
v 0.015279 -0.020699 0.020378
v 0.010175 -0.023625 0.020378
v 0.008209 -0.024377 0.020378
v 0.010329 -0.021970 0.020500
v 0.030680 -0.003107 0.017592
v 0.029581 -0.002996 0.018604
v 0.029399 -0.004437 0.018604
v 0.033452 0.001553 0.011696
v 0.033113 -0.004997 0.011696
v 0.032945 -0.004972 0.012766
v 0.033443 -0.001730 0.011696
v 0.029880 -0.014217 0.013640
v 0.030799 -0.011108 0.014619
v 0.029563 -0.014067 0.014619
v 0.026709 -0.019903 0.012766
v 0.026041 -0.020768 0.012766
v 0.026530 -0.019769 0.013640
v 0.030082 -0.014314 0.012766
v 0.028533 -0.017191 0.012766
v 0.028678 -0.017278 0.011696
v 0.028983 -0.013791 0.015901
v 0.028577 -0.015972 0.014619
v 0.028017 -0.015659 0.015901
v 0.019078 -0.021148 0.019418
v 0.025734 -0.019176 0.015901
v 0.024102 -0.019221 0.017592
v 0.025090 -0.020009 0.015901
v 0.017140 -0.028746 0.011696
v 0.010734 -0.024921 0.020014
v 0.008660 -0.025714 0.020014
v 0.010680 -0.031714 0.011696
v 0.022158 -0.024562 0.013640
v 0.023837 -0.022430 0.014619
v 0.021923 -0.024302 0.014619
v 0.023370 -0.021991 0.015901
v 0.024256 -0.022824 0.012766
v -0.011092 0.033199 -0.020500
v -0.007620 0.030742 0.016529
v -0.005156 0.031249 0.016529
v -0.010036 0.030042 0.016529
v -0.002819 0.034887 -0.002035
v -0.000147 0.031671 0.016529
v -0.012389 0.029152 0.016529
v -0.025263 0.024245 -0.020500
v -0.031777 -0.000444 0.016408
v -0.030804 -0.001431 0.017592
v -0.030834 -0.000431 0.017592
v -0.032975 -0.005914 0.011557
v -0.033024 -0.004806 0.012494
v -0.033152 -0.004824 0.011557
v -0.032848 -0.005891 0.012494
v -0.024942 -0.019679 0.016408
v -0.025306 -0.019966 0.015653
v -0.023949 -0.021573 0.015653
v -0.025949 -0.019124 0.015653
v -0.025800 -0.020356 0.014292
v -0.022477 -0.024648 0.012494
v -0.026456 -0.019497 0.014292
v -0.030549 -0.013741 0.011557
v -0.030432 -0.013688 0.012494
v -0.031452 -0.011151 0.012494
v -0.030335 -0.017500 -0.002035
v -0.027902 -0.018529 0.011557
v -0.026021 -0.020530 0.013432
v -0.026192 -0.020665 0.012494
v -0.027282 0.016124 0.016529
v -0.026408 0.015910 0.017592
v -0.027703 0.013534 0.017592
v -0.026711 0.013049 0.018604
v -0.032752 0.012411 -0.020500
v -0.034321 0.007001 -0.020500
v -0.032998 0.004980 0.012494
v 0.025452 -0.003841 0.020378
v 0.027015 -0.002736 0.020014
v 0.026848 -0.004052 0.020014
v 0.028457 -0.001472 0.019418
v 0.022851 -0.008238 0.020500
v 0.010445 0.021915 0.020500
v 0.009841 0.023766 0.020378
v 0.008359 0.025813 0.020014
v 0.006321 0.024933 0.020378
v 0.008772 0.027089 0.019418
v 0.014403 0.028213 0.016529
v 0.013258 0.027819 0.017592
v 0.019551 0.014408 0.020500
v 0.020720 0.015261 0.020378
v 0.025713 0.001194 0.020378
v 0.025473 0.003701 0.020378
v 0.023581 0.005836 0.020500
v 0.024530 0.007797 0.020378
v 0.023810 0.009774 0.020378
v 0.022114 0.013164 0.020378
v -0.020804 0.012534 0.020500
v -0.020879 0.023829 0.016529
v -0.022089 0.021500 0.017592
v -0.024387 0.020231 0.016529
v 0.001922 0.025648 0.020378
v 0.002028 0.027055 0.020014
v 0.001331 0.025686 0.020378
v 0.003952 0.025415 0.020378
v 0.005965 0.023530 0.020500
v -0.001128 0.024247 0.020500
v 0.004169 0.026809 0.020014
v -0.010329 0.021970 0.020500
v -0.014348 -0.030106 0.012494
v -0.005102 -0.030387 0.017592
v -0.000000 -0.035000 -0.002035
v -0.022363 -0.017644 0.019418
v -0.022932 -0.016900 0.019418
v -0.021164 -0.019064 0.019418
v -0.017289 -0.026644 0.016408
v -0.021717 -0.023815 0.015653
v -0.021404 -0.023472 0.016408
v -0.024416 -0.021994 0.014292
v -0.028861 -0.007142 0.018604
v -0.028021 -0.009935 0.018604
v -0.027659 -0.006845 0.019418
v -0.029265 -0.005248 0.018604
v -0.024267 -0.001127 0.020500
v -0.021988 -0.010320 0.020500
v -0.020167 -0.018167 0.020014
v -0.014082 -0.026165 0.018604
v -0.015353 -0.025442 0.018604
v -0.015923 -0.026386 0.017592
v -0.016175 -0.024928 0.018604
v 0.027769 0.006385 0.019418
v 0.028198 0.004097 0.019418
v 0.029423 0.004275 0.018604
v 0.027133 0.022136 -0.002035
v 0.030335 0.017500 -0.002035
v 0.023228 0.026198 -0.002035
v 0.024848 0.022180 0.012766
v 0.024316 0.022380 0.013753
v 0.007956 -0.032098 0.013640
v 0.004738 -0.032504 0.014292
v 0.004778 -0.032783 0.013432
v 0.004810 -0.032998 0.012494
v -0.005543 -0.033014 0.011557
v -0.002771 -0.032730 0.014292
v -0.017233 -0.028556 0.012494
v -0.020250 -0.026232 0.013432
v -0.001537 -0.029669 0.018604
v -0.001473 -0.028433 0.019418
v -0.019410 -0.025144 0.016408
v -0.020769 -0.022775 0.017592
v -0.014523 -0.019458 0.020500
v -0.002402 -0.028370 0.019418
v -0.002289 -0.027034 0.020014
v -0.004492 -0.026757 0.020014
v -0.010786 -0.029870 0.016408
v -0.012715 -0.029102 0.016408
v -0.014255 -0.029910 0.013432
v -0.016650 -0.027590 0.015653
v -0.014605 -0.027137 0.017592
v -0.013258 -0.027819 0.017592
v -0.012337 -0.028239 0.017592
v -0.013664 -0.028670 0.016408
v -0.000074 -0.028471 0.019418
v 0.001323 -0.028441 0.019418
v 0.001261 -0.027102 0.020014
v -0.000071 -0.027131 0.020014
v 0.002148 -0.027046 0.020014
v 0.002036 -0.025639 0.020378
v 0.019767 -0.018600 0.020014
v 0.020744 -0.019520 0.019418
v 0.016267 -0.018028 0.020500
v 0.020119 -0.016044 0.020378
v 0.020804 -0.012534 0.020500
v 0.022465 -0.012556 0.020378
v 0.001128 -0.024247 0.020500
v 0.013890 -0.021654 0.020378
v 0.028698 -0.007770 0.018604
v 0.029005 -0.010461 0.017592
v 0.029764 -0.008058 0.017592
v 0.030323 -0.005601 0.017592
v 0.030195 -0.010890 0.015901
v 0.030491 -0.004602 0.017592
v 0.033140 0.004815 0.011696
v 0.032764 -0.006052 0.012766
v 0.031604 -0.008556 0.014619
v 0.031129 -0.011227 0.013640
v 0.031943 -0.008648 0.013640
v 0.027467 -0.018447 0.013640
v 0.028341 -0.017075 0.013640
v 0.025592 -0.020409 0.014619
v 0.029079 -0.016252 0.012766
v 0.027841 -0.013247 0.017592
v 0.026844 -0.012773 0.018604
v 0.028041 -0.016894 0.014619
v 0.027175 -0.018252 0.014619
v 0.028883 -0.016143 0.013640
v 0.021645 -0.020368 0.018604
v 0.023239 -0.018532 0.018604
v 0.026643 -0.017894 0.015901
v 0.018071 -0.028171 0.011696
v 0.010944 -0.023280 0.020378
v 0.012073 -0.022715 0.020378
v 0.013238 -0.030736 0.011696
v 0.022308 -0.024728 0.012766
v 0.021494 -0.023825 0.015901
v 0.020647 -0.022886 0.017592
v 0.019055 -0.025814 0.015901
v -0.005619 0.034547 -0.002035
v -0.002660 0.031559 0.016529
v 0.002367 0.031583 0.016529
v 0.002303 0.030726 0.017592
v -0.028046 -0.005030 0.019418
v -0.028364 -0.002723 0.019418
v -0.028464 -0.001322 0.019418
v -0.029701 -0.001379 0.018604
v -0.029730 -0.000416 0.018604
v -0.028492 -0.000398 0.019418
v -0.031635 -0.003037 0.016408
v -0.032096 -0.003081 0.015653
v -0.031448 -0.004576 0.016408
v -0.033466 -0.001554 0.011557
v -0.033120 -0.001538 0.013432
v -0.032838 -0.001525 0.014292
v -0.032870 -0.000459 0.014292
v -0.033152 -0.000463 0.013432
v -0.032394 -0.008017 0.012494
v -0.031280 -0.005610 0.016408
v -0.031737 -0.005691 0.015653
v -0.030848 -0.007634 0.016408
v -0.031298 -0.007746 0.015653
v -0.031909 -0.007897 0.014292
v -0.030388 -0.010774 0.015653
v -0.029597 -0.002841 0.018604
v -0.030981 -0.010984 0.014292
v -0.023604 -0.021263 0.016408
v -0.027378 -0.018182 0.014292
v -0.028241 -0.016812 0.014292
v -0.028483 -0.016956 0.013432
v -0.029324 -0.016189 0.011557
v -0.026683 -0.019664 0.013432
v -0.024787 -0.022328 0.012494
v -0.026962 -0.019870 0.011557
v -0.028475 0.013911 0.016529
v -0.032100 0.008291 0.013432
v -0.032140 0.008134 0.013432
v -0.031867 0.008065 0.014292
v -0.032505 0.004906 0.014292
v -0.031257 0.007911 0.015653
v -0.033425 0.002268 0.011557
v -0.032784 0.004948 0.013432
v 0.028489 -0.000547 0.019418
v 0.029727 -0.000570 0.018604
v 0.029701 0.001379 0.018604
v 0.028464 0.001322 0.019418
v 0.024515 -0.011665 0.020014
v 0.023698 -0.013245 0.020014
v 0.024212 -0.008732 0.020378
v 0.024845 -0.006726 0.020378
v 0.025540 -0.009211 0.020014
v 0.028175 -0.004252 0.019418
v 0.026208 -0.007095 0.020014
v 0.026802 -0.009667 0.019418
v 0.007924 0.024471 0.020378
v 0.011789 0.028471 0.017592
v 0.016362 0.017942 0.020500
v 0.018686 0.025582 0.016529
v 0.016146 0.026251 0.017592
v 0.019641 0.024908 0.016473
v 0.020606 0.024276 0.016293
v 0.024822 0.018282 0.017592
v 0.027578 0.016418 0.015901
v 0.025841 0.019032 0.015901
v 0.025085 0.005768 0.020378
v 0.026461 0.006085 0.020014
v 0.025875 0.008225 0.020014
v 0.026870 0.003904 0.020014
v 0.027148 -0.000521 0.020014
v 0.024040 0.003498 0.020500
v 0.024259 0.008601 0.020378
v 0.023298 0.010935 0.020378
v -0.023660 0.010131 0.020378
v -0.024393 0.011917 0.020014
v -0.024958 0.010687 0.020014
v -0.025599 0.012506 0.019418
v -0.028429 0.001929 0.019418
v -0.028175 0.004252 0.019418
v -0.029399 0.004437 0.018604
v -0.029664 0.002013 0.018604
v -0.027150 -0.000379 0.020014
v -0.027622 0.006991 0.019418
v -0.016267 0.018028 0.020500
v -0.016956 0.019351 0.020378
v -0.019474 0.014511 0.020500
v -0.023253 0.014010 0.020014
v -0.020313 0.023183 0.017592
v -0.022794 0.020752 0.017592
v -0.016846 0.026828 0.016529
v -0.015802 0.025165 0.018604
v -0.017649 0.023909 0.018604
v -0.016914 0.022913 0.019418
v -0.003501 0.024020 0.020500
v 0.001256 0.024241 0.020500
v -0.002160 0.025629 0.020378
v -0.003710 0.025452 0.020378
v -0.001195 0.025692 0.020378
v 0.002128 0.028392 0.019418
v 0.001473 0.028433 0.019418
v -0.006183 0.024943 0.020382
v -0.008150 0.024397 0.020378
v -0.010061 0.023674 0.020378
v -0.012434 0.020853 0.020500
v -0.013681 0.021787 0.020378
v -0.016117 0.021834 0.020014
v -0.014431 0.022982 0.020014
v -0.017886 0.020413 0.020014
v 0.002640 -0.033241 0.012494
v 0.004828 -0.033125 0.011557
v 0.002650 -0.033370 0.011557
v 0.002819 -0.034887 -0.002035
v -0.016776 -0.025854 0.017592
v -0.026854 -0.009521 0.019418
v -0.024760 -0.011137 0.020014
v -0.025590 -0.009073 0.020014
v -0.024261 0.001255 0.020500
v -0.025738 -0.000360 0.020378
v -0.026357 -0.006523 0.020014
v -0.026726 -0.004793 0.020014
v -0.024986 -0.006183 0.020378
v -0.024259 -0.008601 0.020378
v -0.023472 -0.010558 0.020378
v -0.025336 -0.004544 0.020378
v -0.025472 -0.003707 0.020378
v -0.027028 -0.002595 0.020014
v -0.028197 -0.004103 0.019418
v -0.024040 -0.003498 0.020500
v -0.021438 -0.014237 0.020378
v -0.023327 -0.013887 0.020014
v -0.022614 -0.015018 0.020014
v -0.021310 -0.016814 0.020014
v -0.021852 -0.016104 0.020014
v -0.012783 -0.026823 0.018604
v 0.030516 0.004434 0.017592
v 0.030052 0.006910 0.017592
v 0.031284 0.007194 0.015901
v 0.025176 0.022065 0.011696
v 0.029833 0.015202 0.011696
v 0.030311 0.014226 0.011696
v 0.030157 0.014154 0.012766
v -0.002819 -0.034887 -0.002035
v -0.005521 -0.032886 0.012494
v -0.005439 -0.032394 0.014292
v -0.000086 -0.032847 0.014292
v 0.001526 -0.032812 0.014292
v -0.000086 -0.033128 0.013432
v -0.017120 -0.028370 0.013432
v -0.015806 -0.029368 0.012494
v 0.001497 -0.032183 0.015653
v 0.007823 -0.031559 0.015080
v -0.012544 -0.020787 0.020500
v -0.005965 -0.023530 0.020500
v -0.013496 -0.025076 0.019418
v -0.014714 -0.024382 0.019418
v -0.015501 -0.023890 0.019418
v -0.014021 -0.023234 0.020014
v -0.017337 -0.019012 0.020378
v -0.019118 -0.017222 0.020378
v -0.016584 -0.021483 0.020014
v -0.015721 -0.020366 0.020378
v -0.009215 -0.025521 0.020014
v -0.010863 -0.024865 0.020014
v -0.011674 -0.024495 0.020014
v 0.003710 -0.025452 0.020378
v 0.003913 -0.026848 0.020014
v 0.005840 -0.023562 0.020500
v 0.006188 -0.024966 0.020378
v 0.018739 -0.017633 0.020378
v 0.021222 -0.016924 0.020014
v 0.023253 -0.014010 0.020014
v 0.024868 -0.013899 0.019418
v 0.021363 -0.014348 0.020378
v 0.029237 -0.005401 0.018604
v 0.028020 -0.005176 0.019418
v 0.027503 -0.007446 0.019418
v 0.027967 -0.010087 0.018604
v 0.029693 -0.001536 0.018604
v 0.030796 -0.001593 0.017592
v 0.025949 -0.014503 0.018604
v 0.025462 -0.015341 0.018604
v 0.025727 -0.012241 0.019418
v 0.023835 -0.017760 0.018604
v 0.032635 0.007505 0.011696
v 0.032543 -0.006011 0.013640
v 0.032198 -0.005948 0.014619
v 0.032159 -0.008707 0.012766
v 0.031567 -0.005831 0.015901
v 0.024093 -0.022671 0.013640
v 0.026248 -0.019559 0.014619
v 0.026913 -0.015042 0.017592
v 0.026408 -0.015910 0.017592
v 0.022449 -0.021124 0.017592
v 0.019907 -0.022067 0.018604
v 0.025593 -0.017189 0.017592
v 0.027491 -0.016563 0.015901
v 0.013171 -0.030580 0.012766
v 0.014166 -0.030133 0.012766
v 0.014238 -0.030286 0.011696
v -0.000138 0.029708 0.018604
v 0.001537 0.029669 0.018604
v -0.009764 0.029227 0.017592
v -0.032209 -0.001496 0.015653
v -0.031746 -0.001474 0.016408
v -0.033348 -0.003202 0.011557
v -0.033220 -0.003189 0.012494
v -0.033337 -0.001548 0.012494
v -0.033003 -0.003168 0.013432
v -0.029933 -0.007408 0.017592
v -0.029062 -0.010304 0.017592
v -0.032809 -0.004774 0.013432
v -0.032723 -0.003142 0.014292
v -0.032530 -0.004734 0.014292
v -0.031908 -0.004643 0.015653
v -0.030696 -0.002947 0.017592
v -0.030515 -0.004440 0.017592
v -0.029422 -0.004281 0.018604
v -0.026991 -0.014901 0.017592
v -0.028979 -0.013035 0.016408
v -0.027817 -0.015357 0.016408
v -0.029976 -0.013483 0.014292
v -0.031247 -0.011078 0.013432
v -0.032183 -0.007965 0.013432
v -0.025576 -0.018849 0.016408
v -0.026468 -0.017577 0.016408
v -0.027701 -0.016490 0.015653
v -0.027613 -0.018337 0.013432
v -0.028670 -0.017067 0.012494
v -0.029893 0.007566 0.017592
v -0.030491 0.004602 0.017592
v -0.030807 0.007797 0.016408
v -0.031424 0.004742 0.016408
v -0.028344 0.012137 0.017592
v -0.029202 0.012504 0.016424
v -0.027329 0.011702 0.018604
v -0.031707 0.002152 0.016408
v -0.031883 0.004812 0.015653
v -0.032798 0.002226 0.014292
v -0.032170 0.002183 0.015653
v -0.033370 -0.000466 0.012494
v 0.023240 -0.011058 0.020378
v 0.028349 -0.002871 0.019418
v 0.026701 -0.004932 0.020014
v 0.008736 0.024194 0.020378
v 0.013478 0.021912 0.020378
v 0.010381 0.025070 0.020014
v 0.012783 0.026823 0.018604
v 0.014012 0.027447 0.017592
v 0.013510 0.026465 0.018604
v 0.015568 0.025311 0.018604
v 0.004734 0.030447 0.017592
v 0.009493 0.029316 0.017592
v 0.007572 0.029869 0.017592
v 0.009153 0.028266 0.018604
v 0.007335 0.030811 0.016529
v 0.023604 0.022676 0.014619
v 0.019946 0.023498 0.017592
v 0.019085 0.024202 0.017592
v 0.020877 0.022677 0.017592
v 0.027154 0.008631 0.019418
v 0.028021 0.009935 0.018604
v 0.026854 0.009521 0.019418
v 0.027124 0.001260 0.020014
v -0.022851 0.008238 0.020500
v -0.023125 0.011297 0.020378
v -0.022044 0.013281 0.020378
v -0.026848 0.004052 0.020014
v -0.025452 0.003841 0.020378
v -0.024953 0.006315 0.020378
v -0.026322 0.006662 0.020014
v -0.018438 0.017947 0.020378
v -0.017957 0.016349 0.020500
v -0.019027 0.017323 0.020378
v -0.019805 0.016429 0.020378
v -0.020635 0.015376 0.020378
v -0.022201 0.015621 0.020014
v -0.021767 0.016219 0.020014
v -0.023298 0.016393 0.019418
v -0.019450 0.018931 0.020014
v -0.020071 0.018273 0.020014
v -0.018770 0.021422 0.019418
v -0.021298 0.020730 0.018604
v -0.020411 0.019867 0.019418
v -0.025462 0.015341 0.018604
v -0.024310 0.017105 0.018604
v -0.019586 0.022353 0.018604
v -0.018304 0.024797 0.017592
v -0.016389 0.026100 0.017592
v -0.024720 0.018420 0.017592
v -0.021978 0.020009 0.018604
v -0.022876 0.018977 0.018604
v -0.021924 0.018187 0.019418
v -0.015783 0.026470 0.017592
v -0.013755 0.026338 0.018604
v -0.014266 0.027317 0.017592
v -0.013111 0.027889 0.017592
v 0.001404 0.027095 0.020014
v -0.000126 0.027131 0.020014
v -0.000119 0.025720 0.020378
v -0.000132 0.028471 0.019418
v -0.005840 0.023562 0.020500
v -0.006517 0.026292 0.020030
v -0.011908 0.022802 0.020378
v -0.015279 0.020699 0.020378
v -0.014584 0.024459 0.019418
v -0.013182 0.025242 0.019418
v 0.002623 -0.033025 0.013432
v -0.023731 -0.015760 0.019418
v -0.024763 -0.016444 0.018604
v -0.023928 -0.017634 0.018604
v -0.027112 -0.012195 0.018604
v -0.026024 -0.014368 0.018604
v -0.029951 -0.010619 0.016408
v -0.025682 0.001743 0.020378
v -0.022895 -0.008117 0.020500
v -0.027124 -0.001260 0.020014
v -0.025623 -0.002460 0.020378
v -0.026870 -0.003910 0.020014
v -0.022530 -0.012439 0.020378
v -0.023766 -0.013121 0.020014
v -0.020202 -0.015939 0.020378
v -0.020870 -0.012424 0.020500
v 0.028975 0.006663 0.018604
v 0.025243 0.021988 0.011696
v 0.028624 0.017040 0.012766
v 0.029682 0.015125 0.012766
v 0.028431 0.016925 0.013640
v 0.021631 0.021960 0.017592
v 0.001555 -0.033439 0.011557
v -0.000087 -0.033475 0.011557
v -0.002824 -0.033356 0.011557
v -0.001732 -0.033430 0.011557
v -0.005485 -0.032672 0.013432
v -0.002795 -0.033011 0.013432
v -0.001700 -0.032803 0.014292
v -0.001714 -0.033084 0.013432
v 0.002551 -0.032117 0.015653
v 0.004580 -0.031423 0.016408
v 0.002514 -0.031655 0.016408
v 0.001475 -0.031720 0.016408
v 0.006528 -0.026335 0.020014
v 0.014652 -0.022842 0.020014
v 0.011544 -0.024557 0.020014
v 0.012736 -0.023962 0.020014
v 0.009088 -0.026985 0.019418
v 0.010443 -0.031009 0.014619
v 0.010555 -0.031341 0.013640
v 0.004647 -0.031882 0.015653
v -0.001404 -0.027095 0.020014
v -0.000067 -0.025720 0.020378
v -0.001331 -0.025686 0.020378
v -0.002170 -0.025628 0.020378
v -0.004259 -0.025366 0.020378
v -0.008245 -0.022833 0.020500
v -0.003628 -0.024001 0.020500
v -0.006321 -0.024933 0.020378
v -0.012251 -0.025706 0.019418
v -0.016362 -0.017942 0.020500
v -0.012192 -0.022652 0.020378
v -0.013292 -0.022026 0.020378
v -0.014003 -0.021581 0.020378
v 0.024402 -0.014702 0.019418
v 0.022535 -0.015135 0.020014
v 0.022842 -0.017021 0.019418
v 0.021767 -0.016219 0.020014
v 0.020635 -0.015376 0.020378
v 0.022044 -0.013281 0.020378
v 0.012434 -0.020853 0.020500
v 0.013175 -0.022096 0.020378
v 0.030976 0.012715 0.011696
v 0.031560 0.011189 0.011696
v 0.031912 0.010144 0.011696
v 0.031742 -0.004790 0.015901
v 0.031938 -0.003234 0.015901
v 0.030985 -0.008389 0.015901
v 0.025866 -0.020628 0.013640
v 0.018304 -0.024797 0.017592
v 0.016045 -0.025012 0.018604
v 0.016641 -0.025941 0.017592
v 0.024720 -0.018420 0.017592
v 0.024676 -0.016573 0.018604
v 0.019777 -0.026793 0.012766
v 0.019644 -0.026612 0.013640
v 0.017054 -0.028601 0.012766
v 0.015628 -0.029403 0.012766
v 0.010626 -0.031553 0.012766
v 0.013082 -0.030375 0.013640
v 0.015707 -0.029552 0.011696
v 0.001595 0.030771 0.017592
v -0.012053 0.028361 0.017592
v -0.011621 0.027345 0.018604
v -0.009414 0.028180 0.018604
v -0.032241 -0.000451 0.015653
v -0.030352 -0.005443 0.017592
v -0.032634 -0.005852 0.013432
v -0.026492 -0.015771 0.017592
v -0.028774 -0.015886 0.014292
v -0.029020 -0.016022 0.013432
v -0.030233 -0.013599 0.013432
v -0.025682 -0.017055 0.017592
v -0.024817 -0.018289 0.017592
v -0.026854 -0.017833 0.015653
v -0.029402 -0.013225 0.015653
v -0.027302 -0.016253 0.016408
v -0.029210 -0.016127 0.012494
v -0.028781 -0.017134 0.011557
v -0.027794 -0.018458 0.012494
v -0.029899 0.011296 0.016125
v -0.030561 0.010274 0.015653
v -0.030121 0.010126 0.016408
v -0.029726 0.011231 0.016408
v -0.029227 0.009826 0.017592
v -0.026191 0.011215 0.019418
v -0.026653 0.010070 0.019418
v -0.030766 0.002088 0.017592
v -0.031068 0.008622 0.015653
v -0.031157 0.009446 0.015035
v -0.030855 0.009354 0.015653
v -0.033296 0.002260 0.012494
v 0.015388 0.020618 0.020378
v 0.015931 0.020202 0.020378
v 0.009215 0.025521 0.020014
v 0.010894 0.026309 0.019418
v 0.011367 0.027452 0.018604
v 0.014920 0.024257 0.019418
v 0.012338 0.024168 0.020014
v 0.014217 0.023115 0.020014
v 0.002221 0.029626 0.018604
v 0.010465 0.028983 0.017592
v 0.022734 0.023080 0.015341
v 0.018431 0.021713 0.019418
v 0.017563 0.020691 0.020014
v 0.019291 0.020955 0.019418
v 0.018435 0.024700 0.017592
v 0.018401 0.023335 0.018604
v 0.026492 0.015771 0.017592
v 0.025543 0.015206 0.018604
v 0.027471 0.013998 0.017592
v 0.024479 0.014573 0.019418
v 0.022937 0.016893 0.019418
v 0.021857 0.016098 0.020014
v 0.023934 0.017627 0.018604
v 0.026357 0.010819 0.019418
v 0.025791 0.012105 0.019418
v 0.025116 0.010310 0.020014
v 0.027502 0.011289 0.018604
v 0.025590 0.009073 0.020014
v 0.026487 0.013497 0.018604
v -0.025398 0.009596 0.020014
v -0.025735 0.008652 0.020014
v -0.024397 0.008202 0.020378
v -0.021933 0.010436 0.020500
v -0.023549 0.005960 0.020500
v -0.024802 0.006883 0.020378
v -0.027091 0.001838 0.020014
v -0.021046 0.014808 0.020378
v -0.022842 0.017021 0.019418
v -0.021062 0.019176 0.019418
v -0.020891 0.017331 0.020014
v -0.024402 0.014702 0.019418
v -0.023726 0.019682 0.017592
v -0.025213 0.017740 0.017592
v -0.015218 0.025522 0.018604
v -0.001323 0.028441 0.019418
v -0.001380 0.029677 0.018604
v -0.003913 0.026848 0.020014
v -0.006835 0.027576 0.019452
v -0.010944 0.023280 0.020378
v -0.013175 0.022096 0.020378
v -0.013898 0.023308 0.020014
v -0.015144 0.024117 0.019418
v -0.012641 0.026890 0.018604
v 0.001539 -0.033093 0.013432
v 0.002601 -0.032744 0.014292
v -0.025543 -0.015206 0.018604
v -0.024941 -0.013769 0.019418
v -0.028119 -0.012648 0.017592
v -0.025713 -0.001194 0.020378
v -0.022114 -0.013164 0.020378
v -0.019551 -0.014408 0.020500
v 0.028334 0.009006 0.018604
v 0.024946 0.021730 0.013640
v 0.024682 0.021499 0.014619
v 0.026640 0.019620 0.013640
v 0.028130 0.016746 0.014619
v 0.029170 0.014864 0.014619
v 0.026820 0.019753 0.012766
v 0.029482 0.015023 0.013640
v 0.029955 0.014059 0.013640
v 0.028598 0.014572 0.015901
v 0.030591 0.009724 0.015901
v 0.028524 0.011709 0.017592
v 0.029062 0.010304 0.017592
v 0.023244 0.020247 0.017592
v 0.023612 0.021731 0.015901
v 0.022681 0.020875 0.017592
v 0.021869 0.020128 0.018604
v -0.001726 -0.033301 0.012494
v -0.000087 -0.033346 0.012494
v 0.002440 -0.030716 0.017592
v 0.011753 -0.027289 0.018604
v 0.013111 -0.027889 0.017592
v 0.012641 -0.026890 0.018604
v 0.012190 -0.028303 0.017592
v 0.009835 -0.029203 0.017592
v 0.012690 -0.029463 0.015901
v 0.013898 -0.023308 0.020014
v 0.006851 -0.027636 0.019418
v 0.001195 -0.025692 0.020378
v -0.008736 -0.024194 0.020378
v -0.012860 -0.023895 0.020014
v -0.014771 -0.022765 0.020014
v 0.022271 -0.017761 0.019418
v 0.033274 -0.001721 0.012766
v 0.032724 -0.004939 0.013640
v 0.032577 -0.003299 0.014619
v 0.032700 -0.001692 0.014619
v 0.030831 -0.000592 0.017592
v 0.030819 0.012651 0.012766
v 0.031401 0.011133 0.012766
v 0.031751 0.010093 0.012766
v 0.013946 -0.026238 0.018604
v 0.015376 -0.023970 0.019418
v 0.016914 -0.022913 0.019418
v 0.017649 -0.023909 0.018604
v 0.023649 -0.015883 0.019418
v 0.017323 -0.027005 0.015901
v 0.016431 -0.027556 0.015901
v 0.017669 -0.027545 0.014619
v 0.019436 -0.026330 0.014619
v 0.017980 -0.028029 0.012766
v 0.015522 -0.029205 0.013640
v 0.012944 -0.030053 0.014619
v -0.004444 0.030490 0.017592
v -0.001432 0.030779 0.017592
v -0.011137 0.026207 0.019418
v -0.009022 0.027007 0.019418
v -0.008598 0.025735 0.020014
v -0.010613 0.024973 0.020014
v -0.032357 -0.005803 0.014292
v -0.028223 -0.015581 0.015653
v -0.026858 -0.019793 0.012494
v -0.028844 0.010898 0.017592
v -0.027455 0.007620 0.019418
v -0.027267 0.008266 0.019418
v -0.028648 0.007951 0.018604
v -0.028181 0.009474 0.018604
v -0.028823 0.007295 0.018604
v -0.029509 0.008946 0.017592
v -0.030411 0.009220 0.016408
v -0.033079 0.002245 0.013432
v 0.016805 0.021311 0.020014
v 0.016233 0.021749 0.020014
v 0.017035 0.022824 0.019418
v 0.009670 0.026782 0.019418
v 0.011674 0.024495 0.020014
v 0.011696 0.022911 0.020378
v 0.012948 0.025362 0.019418
v 0.004565 0.029356 0.018604
v 0.022518 0.022861 0.015901
v 0.024084 0.022166 0.014619
v 0.024198 0.021078 0.015901
v 0.026357 0.019412 0.014619
v 0.018933 0.017425 0.020378
v 0.018556 0.017826 0.020378
v 0.023327 0.013887 0.020014
v 0.019232 0.022657 0.018604
v 0.017775 0.023815 0.018604
v 0.021479 0.018709 0.019418
v 0.020958 0.019289 0.019418
v 0.026912 0.012631 0.018604
v 0.025384 0.012935 0.019418
v -0.026162 0.007261 0.020014
v -0.025983 0.007877 0.020014
v -0.024077 0.009097 0.020378
v -0.024632 0.007468 0.020378
v -0.023835 0.017760 0.018604
v -0.002279 0.027035 0.020014
v -0.002391 0.028371 0.019418
v -0.011544 0.024557 0.020014
v 0.001549 -0.033310 0.012494
v -0.025983 -0.011687 0.019418
v -0.024479 -0.014573 0.019418
v -0.020716 -0.015267 0.020378
v 0.029386 0.009341 0.017592
v 0.025115 0.021877 0.012766
v 0.029637 0.013910 0.014619
v 0.030288 0.012433 0.014619
v 0.030859 0.010941 0.014619
v 0.031203 0.009918 0.014619
v 0.032972 0.004791 0.012766
v 0.032750 0.004758 0.013640
v 0.033059 0.001535 0.013640
v 0.033283 0.001546 0.012766
v 0.022412 0.019522 0.018604
v -0.002814 -0.033227 0.012494
v 0.013649 -0.029032 0.015901
v 0.015057 -0.028329 0.015901
v 0.015783 -0.026470 0.017592
v 0.001432 -0.030779 0.017592
v 0.002352 -0.029616 0.018604
v 0.004285 -0.029399 0.018604
v 0.004444 -0.030490 0.017592
v 0.007414 -0.029908 0.017592
v 0.007148 -0.028837 0.018604
v 0.007640 -0.030823 0.016408
v 0.009482 -0.028157 0.018604
v 0.011264 -0.026153 0.019418
v 0.012115 -0.025770 0.019418
v 0.004106 -0.028174 0.019418
v 0.033089 -0.000635 0.013640
v 0.033313 -0.000639 0.012766
v 0.033149 -0.003357 0.012766
v 0.032377 -0.004886 0.014619
v 0.032252 0.007416 0.013640
v 0.032403 0.004708 0.014619
v 0.032096 -0.000616 0.015901
v 0.032067 0.001489 0.015901
v 0.030804 0.001431 0.017592
v 0.032709 0.001519 0.014619
v 0.014584 -0.024459 0.019418
v 0.017859 -0.027840 0.013640
v 0.016939 -0.028408 0.013640
v 0.014071 -0.029930 0.013640
v -0.007130 0.028764 0.018663
v -0.007394 0.029828 0.017681
v -0.004285 0.029399 0.018604
v -0.002588 0.030703 0.017592
v -0.000143 0.030812 0.017592
v -0.012115 0.025770 0.019418
v -0.027007 0.009079 0.019418
v -0.027811 0.010507 0.018604
v -0.029712 0.008246 0.017592
v -0.028452 0.008626 0.018604
v -0.030621 0.008498 0.016408
v 0.017635 0.022364 0.019418
v 0.010091 0.027946 0.018604
v 0.011067 0.023221 0.020378
v 0.012251 0.025706 0.019418
v 0.007301 0.028799 0.018604
v 0.023141 0.022231 0.015901
v 0.022229 0.021355 0.017592
v 0.021733 0.023607 0.015901
v 0.016650 0.019615 0.020378
v 0.017427 0.018930 0.020378
v 0.018056 0.018331 0.020378
v 0.019403 0.016901 0.020378
v 0.024189 0.012326 0.020014
v 0.019972 0.018381 0.020014
v 0.019047 0.019337 0.020014
v 0.019988 0.020292 0.019418
v 0.021433 0.020590 0.018604
v 0.027911 0.013100 0.017592
v -0.001261 0.027102 0.020014
v -0.012562 0.024053 0.020014
v 0.029056 0.013637 0.015901
v 0.029694 0.012189 0.015901
v 0.030254 0.010726 0.015901
v 0.030612 0.012566 0.013640
v 0.031537 0.010025 0.013640
v 0.031768 0.004616 0.015901
v 0.014464 -0.027213 0.017592
v 0.015218 -0.025522 0.018604
v 0.001380 -0.029677 0.018604
v 0.010238 -0.030401 0.015901
v 0.002254 -0.028382 0.019418
v 0.033050 -0.001710 0.013640
v 0.031910 0.007338 0.014619
v 0.032470 0.007467 0.012766
v 0.032059 -0.001659 0.015901
v 0.032738 -0.000628 0.014619
v 0.013365 -0.025146 0.019418
v 0.016759 -0.028107 0.014619
v 0.015358 -0.028895 0.014619
v 0.013922 -0.029613 0.014619
v -0.004106 0.028174 0.019418
v -0.002495 0.029604 0.018604
v 0.024577 0.011535 0.020014
v 0.020467 0.017828 0.020014
v 0.020541 0.019733 0.019418
v 0.019574 0.018804 0.020014
v 0.018382 0.019968 0.020014
v 0.020129 0.021865 0.018604
v 0.031190 0.011058 0.013640
v 0.032926 -0.003334 0.013640
v 0.020856 0.021174 0.018604
f 1 2 3
f 4 3 2
f 5 1 3
f 6 3 4
f 7 4 2
f 8 1 5
f 9 2 1
f 10 7 2
f 11 1 8
f 12 5 3
f 13 9 1
f 14 3 6
f 15 6 4
f 16 17 18
f 19 4 7
f 20 21 7
f 22 8 5
f 23 1 11
f 24 12 3
f 25 2 9
f 26 3 14
f 27 18 17
f 28 16 18
f 29 10 30
f 29 7 10
f 31 10 2
f 32 10 31
f 33 10 32
f 34 4 19
f 35 19 7
f 35 7 21
f 36 22 5
f 37 8 22
f 37 22 38
f 39 5 12
f 40 1 23
f 40 23 41
f 40 41 1
f 42 23 11
f 42 11 43
f 44 8 43
f 44 43 11
f 44 11 8
f 45 12 24
f 45 24 46
f 47 17 16
f 48 1 41
f 49 13 1
f 50 2 25
f 51 52 53
f 51 53 50
f 54 25 9
f 54 55 25
f 56 3 57
f 58 3 56
f 58 46 24
f 58 24 3
f 59 45 46
f 60 26 14
f 61 3 26
f 61 26 57
f 61 57 3
f 62 14 6
f 63 6 15
f 64 8 37
f 64 37 38
f 65 27 17
f 66 28 18
f 67 68 31
f 67 31 2
f 69 33 32
f 69 32 31
f 69 31 68
f 70 10 33
f 70 30 10
f 71 72 73
f 74 68 67
f 74 67 2
f 75 16 28
f 76 4 34
f 76 34 77
f 76 77 4
f 78 19 35
f 78 35 21
f 78 79 19
f 80 19 79
f 81 7 29
f 82 7 81
f 82 81 83
f 84 22 36
f 84 38 22
f 85 5 39
f 85 86 5
f 87 88 39
f 87 39 12
f 87 12 89
f 90 23 42
f 90 41 23
f 91 12 45
f 91 45 59
f 91 89 12
f 92 9 13
f 93 9 92
f 93 92 94
f 93 94 95
f 96 13 49
f 96 49 97
f 96 97 13
f 98 99 49
f 98 49 1
f 100 48 41
f 101 99 98
f 101 1 48
f 102 99 103
f 102 97 49
f 102 49 99
f 104 103 99
f 104 99 101
f 104 101 105
f 106 2 50
f 106 50 53
f 107 25 55
f 108 107 51
f 108 51 50
f 108 50 25
f 109 95 94
f 110 95 109
f 110 109 111
f 110 111 112
f 110 112 9
f 110 9 95
f 113 112 54
f 113 54 9
f 113 9 112
f 114 60 14
f 115 46 58
f 115 58 56
f 116 14 62
f 116 62 117
f 118 117 62
f 119 120 6
f 121 6 120
f 121 118 62
f 121 62 6
f 122 123 63
f 122 63 15
f 122 15 124
f 125 126 123
f 125 123 122
f 125 122 124
f 127 15 4
f 127 124 15
f 128 129 130
f 131 17 47
f 132 18 27
f 133 134 65
f 133 65 17
f 133 17 135
f 136 33 69
f 136 69 68
f 136 71 33
f 137 33 71
f 138 139 140
f 141 142 143
f 141 143 144
f 141 144 145
f 146 79 78
f 146 78 21
f 146 147 79
f 148 19 80
f 148 80 34
f 148 34 19
f 149 150 151
f 152 30 153
f 152 153 151
f 152 151 150
f 152 29 30
f 154 83 81
f 154 150 149
f 154 149 155
f 154 155 83
f 156 152 150
f 156 150 154
f 156 81 29
f 157 7 82
f 157 20 7
f 158 159 59
f 158 59 46
f 160 59 159
f 160 89 91
f 160 91 59
f 161 43 8
f 161 8 64
f 162 88 87
f 162 87 89
f 163 86 85
f 163 85 39
f 163 39 88
f 164 165 166
f 167 73 72
f 167 168 169
f 167 169 170
f 171 139 138
f 172 173 140
f 172 140 139
f 174 175 176
f 177 170 169
f 177 169 178
f 179 151 153
f 179 153 180
f 181 182 183
f 184 47 16
f 185 186 92
f 185 92 13
f 185 13 186
f 187 94 92
f 187 92 186
f 188 9 93
f 188 93 95
f 188 95 9
f 189 41 90
f 190 1 101
f 190 101 98
f 190 98 1
f 191 103 104
f 192 193 187
f 192 187 186
f 194 97 195
f 194 186 13
f 194 13 97
f 196 195 97
f 196 97 102
f 196 102 103
f 197 198 192
f 197 192 186
f 199 2 106
f 200 107 108
f 200 108 25
f 200 25 107
f 201 55 54
f 201 54 112
f 202 109 94
f 202 94 187
f 202 187 193
f 203 114 14
f 203 116 117
f 204 117 118
f 205 115 56
f 206 63 123
f 207 206 119
f 207 119 6
f 207 6 63
f 208 118 121
f 208 121 120
f 208 120 209
f 210 147 146
f 210 146 21
f 211 212 213
f 214 157 82
f 214 82 83
f 215 83 155
f 216 124 127
f 216 127 129
f 216 129 128
f 216 217 124
f 218 130 129
f 218 127 4
f 218 219 130
f 220 221 219
f 220 219 4
f 220 4 77
f 222 219 221
f 222 128 130
f 222 130 219
f 223 224 77
f 223 77 34
f 223 34 80
f 225 135 226
f 225 134 133
f 225 133 135
f 227 17 131
f 227 228 17
f 229 227 131
f 230 18 132
f 231 162 89
f 232 132 27
f 233 132 232
f 234 27 65
f 235 27 234
f 236 27 235
f 237 119 206
f 238 66 18
f 239 240 241
f 242 72 71
f 242 71 136
f 242 136 68
f 243 70 33
f 243 33 137
f 243 244 70
f 245 167 170
f 246 73 167
f 246 167 245
f 246 137 71
f 246 71 73
f 247 248 249
f 247 249 250
f 247 250 166
f 247 166 165
f 251 252 250
f 251 250 249
f 251 249 248
f 253 213 212
f 254 255 256
f 254 256 257
f 258 255 254
f 258 259 260
f 261 75 28
f 262 152 156
f 262 156 29
f 262 29 152
f 263 81 156
f 263 156 154
f 263 154 81
f 264 84 36
f 264 36 5
f 265 264 266
f 267 168 167
f 267 167 72
f 268 180 153
f 268 153 30
f 268 30 70
f 268 70 244
f 269 256 255
f 269 179 180
f 270 248 247
f 270 247 165
f 270 165 271
f 270 271 272
f 273 171 248
f 274 145 144
f 275 16 75
f 276 275 277
f 278 279 173
f 278 173 172
f 278 172 139
f 278 139 280
f 278 280 281
f 282 281 280
f 282 280 139
f 282 139 171
f 283 251 138
f 284 252 251
f 284 251 283
f 284 178 169
f 284 169 168
f 285 170 177
f 285 176 286
f 285 286 287
f 288 286 176
f 288 257 256
f 288 256 269
f 288 287 286
f 289 174 176
f 289 176 285
f 289 285 177
f 290 131 47
f 291 184 16
f 292 181 47
f 292 182 181
f 293 184 294
f 295 184 293
f 295 47 184
f 296 297 298
f 299 189 90
f 299 90 42
f 300 100 301
f 300 301 105
f 300 105 101
f 300 101 48
f 300 48 100
f 302 100 41
f 302 41 189
f 303 304 305
f 306 307 193
f 306 193 192
f 306 192 198
f 306 198 308
f 306 308 307
f 309 196 103
f 309 103 191
f 310 198 197
f 311 194 195
f 311 195 310
f 311 310 197
f 311 197 186
f 311 186 194
f 312 305 304
f 313 303 305
f 313 305 312
f 313 312 314
f 315 183 182
f 316 317 318
f 319 201 112
f 320 293 294
f 320 294 321
f 322 52 51
f 322 51 107
f 322 107 55
f 323 324 325
f 326 325 324
f 326 318 317
f 327 109 202
f 327 202 193
f 327 193 307
f 328 116 203
f 328 203 14
f 328 14 116
f 329 330 114
f 329 114 203
f 329 203 331
f 332 57 26
f 332 26 60
f 332 333 57
f 334 331 203
f 334 203 117
f 334 117 204
f 335 206 207
f 335 207 63
f 335 63 206
f 336 337 338
f 339 79 147
f 339 340 341
f 339 341 80
f 339 80 79
f 342 340 339
f 343 212 211
f 344 345 343
f 344 343 346
f 344 346 347
f 348 149 151
f 348 151 179
f 348 260 259
f 348 155 149
f 349 347 346
f 350 351 352
f 350 352 210
f 350 210 21
f 350 21 20
f 353 20 157
f 353 157 214
f 353 214 354
f 355 259 347
f 356 259 355
f 356 215 155
f 357 358 126
f 357 126 125
f 357 125 124
f 359 360 358
f 359 358 357
f 361 127 218
f 361 218 129
f 361 129 127
f 362 219 218
f 362 218 4
f 362 4 219
f 363 128 222
f 363 222 221
f 364 135 17
f 364 17 228
f 365 226 135
f 365 135 364
f 365 364 366
f 365 367 226
f 368 227 229
f 369 370 230
f 369 230 132
f 371 240 372
f 371 373 241
f 371 241 240
f 374 231 89
f 374 89 160
f 374 160 159
f 374 159 375
f 376 232 27
f 376 27 377
f 378 379 65
f 378 65 134
f 380 234 65
f 380 381 234
f 382 235 234
f 383 27 236
f 383 377 27
f 384 28 66
f 385 209 120
f 385 120 119
f 385 119 237
f 385 237 386
f 387 237 206
f 387 206 123
f 387 123 126
f 388 389 390
f 391 389 388
f 391 388 18
f 391 372 240
f 392 372 391
f 392 391 18
f 392 18 230
f 393 238 18
f 394 240 239
f 394 389 391
f 394 391 240
f 395 66 238
f 396 244 243
f 396 243 137
f 396 137 246
f 397 138 251
f 397 251 248
f 397 248 171
f 397 171 138
f 398 2 199
f 398 199 106
f 399 400 213
f 401 399 213
f 401 213 253
f 401 253 144
f 401 144 143
f 402 254 257
f 402 257 175
f 403 404 345
f 403 345 258
f 403 258 254
f 403 254 404
f 405 259 258
f 405 258 345
f 405 345 344
f 405 344 347
f 405 347 259
f 406 407 408
f 406 408 409
f 410 261 28
f 411 75 261
f 412 399 401
f 412 401 143
f 412 143 142
f 413 414 415
f 416 145 274
f 416 415 414
f 416 141 145
f 417 418 419
f 420 266 264
f 420 264 5
f 420 5 86
f 421 264 265
f 421 38 84
f 421 84 264
f 422 88 423
f 422 86 163
f 422 163 88
f 424 423 88
f 424 88 162
f 425 426 427
f 425 427 428
f 425 428 52
f 429 242 68
f 429 68 74
f 429 72 242
f 430 166 250
f 430 250 252
f 431 269 180
f 431 180 268
f 432 179 269
f 432 269 255
f 432 255 258
f 432 258 260
f 432 260 348
f 432 348 179
f 433 270 272
f 433 272 434
f 433 434 273
f 433 273 248
f 433 248 270
f 435 254 402
f 435 402 274
f 435 404 254
f 436 404 435
f 436 435 274
f 436 274 144
f 436 144 253
f 436 253 212
f 437 275 75
f 438 273 434
f 438 434 439
f 438 439 282
f 438 282 171
f 438 171 273
f 440 281 282
f 440 282 439
f 441 442 177
f 441 177 178
f 441 178 284
f 441 284 283
f 441 283 138
f 441 138 140
f 443 245 170
f 443 170 285
f 443 285 287
f 443 287 396
f 443 396 246
f 443 246 245
f 444 257 288
f 444 288 176
f 444 176 175
f 444 175 257
f 445 174 446
f 445 413 415
f 445 415 175
f 445 175 174
f 447 140 173
f 447 442 441
f 447 441 140
f 448 442 447
f 448 447 446
f 448 446 174
f 448 174 289
f 448 289 177
f 448 177 442
f 449 450 451
f 449 451 452
f 449 452 434
f 449 434 272
f 453 454 451
f 453 451 450
f 455 183 315
f 455 315 456
f 455 181 183
f 457 290 47
f 457 47 181
f 458 131 290
f 459 460 229
f 459 229 131
f 461 454 291
f 461 291 16
f 462 182 292
f 462 292 47
f 463 464 465
f 463 465 466
f 467 465 464
f 467 312 304
f 468 296 298
f 468 298 466
f 469 299 42
f 469 42 43
f 470 105 301
f 470 104 105
f 471 467 304
f 472 191 473
f 472 473 471
f 472 471 304
f 472 304 303
f 472 303 309
f 472 309 191
f 474 308 198
f 474 198 310
f 474 310 475
f 476 318 326
f 476 326 324
f 477 310 195
f 477 195 196
f 477 196 309
f 478 314 312
f 478 312 467
f 478 467 464
f 478 464 479
f 480 481 474
f 480 474 475
f 480 313 314
f 482 303 313
f 482 313 480
f 482 480 475
f 482 475 310
f 482 310 477
f 482 477 309
f 482 309 303
f 483 317 484
f 483 456 315
f 485 481 480
f 486 319 112
f 486 112 111
f 487 488 295
f 487 295 293
f 489 322 55
f 490 109 327
f 490 327 323
f 491 326 492
f 491 492 493
f 491 325 326
f 494 114 330
f 494 332 60
f 494 60 114
f 495 333 332
f 495 332 494
f 495 494 330
f 496 497 205
f 496 205 56
f 496 56 57
f 496 57 333
f 498 409 408
f 499 500 501
f 502 338 337
f 502 337 501
f 502 501 500
f 502 500 503
f 504 505 506
f 507 224 223
f 508 509 510
f 508 510 511
f 512 147 210
f 512 210 352
f 512 342 339
f 512 339 147
f 513 506 514
f 513 514 515
f 516 515 514
f 516 514 517
f 516 517 518
f 516 518 515
f 519 499 501
f 520 518 517
f 521 212 343
f 521 343 345
f 521 345 404
f 521 404 436
f 521 436 212
f 522 523 524
f 522 349 346
f 525 350 20
f 525 20 353
f 526 349 522
f 526 355 347
f 526 347 349
f 527 259 356
f 527 356 155
f 527 155 348
f 527 348 259
f 528 215 356
f 528 354 214
f 528 214 83
f 528 83 215
f 529 359 357
f 529 357 124
f 529 124 217
f 530 128 531
f 530 217 216
f 530 216 128
f 532 217 530
f 532 530 531
f 532 531 533
f 532 533 534
f 535 221 220
f 535 220 77
f 535 77 224
f 535 363 221
f 536 533 531
f 536 531 128
f 536 128 363
f 537 367 538
f 539 419 418
f 539 418 540
f 539 540 537
f 539 537 538
f 541 460 542
f 543 368 229
f 544 228 227
f 544 227 368
f 544 368 543
f 544 543 545
f 546 365 366
f 546 298 297
f 547 545 548
f 547 544 545
f 549 371 372
f 549 372 392
f 549 392 230
f 550 375 159
f 551 233 232
f 552 231 553
f 552 162 231
f 554 555 552
f 556 557 558
f 559 379 560
f 559 560 561
f 559 561 381
f 559 381 380
f 562 560 379
f 562 418 417
f 562 417 560
f 563 226 367
f 563 367 537
f 563 378 134
f 563 134 225
f 563 225 226
f 564 379 559
f 564 559 380
f 564 380 65
f 564 65 379
f 565 381 561
f 565 382 234
f 565 234 381
f 566 236 235
f 566 235 382
f 567 568 569
f 570 569 568
f 571 572 573
f 571 573 574
f 571 574 502
f 571 502 503
f 571 503 575
f 576 573 572
f 577 66 578
f 577 384 66
f 579 384 577
f 580 570 568
f 581 209 385
f 581 385 386
f 582 237 387
f 582 386 237
f 583 204 118
f 583 118 208
f 583 208 209
f 584 585 586
f 587 238 393
f 588 393 18
f 588 18 388
f 588 388 390
f 589 590 587
f 589 587 393
f 589 393 591
f 592 593 389
f 592 389 394
f 592 394 239
f 594 595 238
f 594 587 590
f 596 395 238
f 596 238 595
f 597 66 395
f 597 598 66
f 599 598 600
f 599 601 578
f 602 428 427
f 603 428 602
f 603 602 604
f 603 53 52
f 603 52 428
f 605 398 106
f 605 106 53
f 605 53 603
f 605 603 604
f 606 415 416
f 606 416 274
f 606 274 402
f 606 402 175
f 606 175 415
f 607 608 609
f 607 609 408
f 607 408 407
f 610 611 410
f 610 410 28
f 612 613 498
f 612 498 408
f 612 408 609
f 612 609 614
f 612 614 613
f 615 261 614
f 615 614 609
f 615 609 608
f 615 608 616
f 617 614 261
f 617 618 613
f 617 613 614
f 619 499 620
f 621 618 617
f 621 617 261
f 621 261 410
f 622 623 624
f 625 626 400
f 625 400 399
f 625 399 412
f 627 173 279
f 627 413 445
f 627 445 446
f 627 446 447
f 627 447 173
f 628 419 539
f 629 419 628
f 629 628 630
f 631 420 86
f 631 86 422
f 631 422 423
f 632 633 38
f 632 38 421
f 632 421 265
f 632 634 633
f 635 74 2
f 635 2 398
f 636 267 72
f 636 72 429
f 637 168 267
f 637 430 252
f 637 252 284
f 637 284 168
f 638 639 164
f 638 164 166
f 638 640 639
f 641 269 431
f 641 287 288
f 641 288 269
f 642 244 396
f 642 396 287
f 642 287 641
f 642 641 431
f 642 431 268
f 642 268 244
f 643 164 639
f 643 165 164
f 644 426 425
f 645 275 437
f 646 16 275
f 647 648 414
f 647 414 413
f 647 413 627
f 649 141 416
f 649 416 414
f 649 414 648
f 649 648 650
f 651 75 652
f 651 652 412
f 651 412 142
f 653 654 651
f 653 651 142
f 653 142 141
f 653 141 649
f 655 276 656
f 655 656 279
f 655 279 278
f 655 278 281
f 657 279 656
f 657 656 276
f 657 276 277
f 658 454 453
f 658 453 659
f 658 291 454
f 660 184 291
f 660 291 658
f 660 658 661
f 660 661 294
f 660 294 184
f 662 455 663
f 662 663 458
f 662 458 290
f 662 290 457
f 662 457 181
f 662 181 455
f 664 665 542
f 664 542 460
f 666 459 131
f 667 668 463
f 667 463 466
f 667 466 298
f 667 298 546
f 667 546 668
f 669 548 463
f 669 463 668
f 669 547 548
f 670 479 464
f 670 464 463
f 670 463 548
f 670 548 479
f 671 296 672
f 671 538 367
f 671 367 297
f 671 297 296
f 673 479 665
f 673 665 674
f 675 548 545
f 675 545 541
f 675 541 542
f 675 542 665
f 675 665 479
f 675 479 548
f 676 484 317
f 677 469 43
f 677 43 161
f 678 679 471
f 678 471 473
f 678 473 470
f 678 470 301
f 680 104 470
f 680 470 473
f 680 473 191
f 680 191 104
f 681 466 465
f 681 471 679
f 682 327 307
f 682 476 324
f 682 324 323
f 682 323 327
f 683 481 485
f 683 485 316
f 683 316 318
f 683 318 476
f 683 308 474
f 683 474 481
f 684 314 478
f 684 478 479
f 684 479 673
f 684 673 674
f 684 674 685
f 684 685 314
f 686 317 483
f 686 492 326
f 686 326 317
f 687 492 686
f 687 686 483
f 687 483 315
f 688 485 685
f 688 685 674
f 689 314 685
f 689 685 485
f 689 485 480
f 689 480 314
f 690 489 691
f 692 691 489
f 692 489 55
f 692 55 201
f 693 593 694
f 695 329 331
f 696 510 509
f 697 696 505
f 697 505 504
f 697 337 336
f 698 80 341
f 698 341 340
f 698 340 699
f 698 507 223
f 698 223 80
f 700 507 698
f 700 698 699
f 700 699 701
f 700 701 508
f 700 508 511
f 700 224 507
f 702 513 515
f 702 703 407
f 702 407 406
f 702 406 409
f 704 701 699
f 704 699 340
f 705 509 508
f 705 508 701
f 705 701 704
f 705 704 706
f 705 505 696
f 705 696 509
f 707 505 705
f 707 705 706
f 707 706 514
f 707 514 506
f 707 506 505
f 708 337 697
f 708 697 504
f 708 504 506
f 708 506 709
f 708 519 501
f 708 501 337
f 710 409 498
f 710 498 620
f 710 620 499
f 710 499 519
f 710 519 708
f 710 708 709
f 710 709 409
f 711 712 713
f 714 518 520
f 715 714 520
f 715 520 517
f 715 517 716
f 715 716 512
f 715 512 352
f 715 352 351
f 717 718 346
f 717 346 343
f 719 523 522
f 720 524 721
f 720 526 522
f 720 522 524
f 722 723 573
f 722 724 725
f 722 725 723
f 726 359 529
f 726 529 727
f 726 360 359
f 728 570 360
f 728 360 726
f 729 723 725
f 730 725 724
f 730 724 534
f 730 534 533
f 730 533 731
f 730 731 732
f 730 732 729
f 730 729 725
f 733 535 224
f 733 224 700
f 733 700 511
f 734 541 545
f 734 545 543
f 734 543 229
f 734 229 460
f 734 460 541
f 735 367 365
f 735 365 546
f 735 546 297
f 735 297 367
f 736 366 364
f 736 364 228
f 736 228 544
f 736 544 547
f 736 547 669
f 736 669 668
f 736 668 546
f 736 546 366
f 737 549 230
f 737 230 370
f 738 132 233
f 739 737 370
f 740 375 550
f 741 375 740
f 741 740 742
f 741 742 743
f 741 743 553
f 741 553 231
f 741 231 374
f 741 374 375
f 744 205 497
f 745 158 746
f 745 746 747
f 748 205 744
f 748 744 746
f 748 746 158
f 748 158 46
f 748 46 115
f 748 115 205
f 749 424 162
f 749 162 552
f 750 554 751
f 750 752 555
f 750 555 554
f 753 754 755
f 753 755 561
f 753 561 560
f 753 560 417
f 756 540 418
f 756 418 562
f 756 562 379
f 756 379 378
f 756 378 563
f 756 563 537
f 756 537 540
f 757 28 384
f 758 759 580
f 758 580 568
f 758 568 567
f 758 384 759
f 760 572 571
f 760 761 762
f 760 762 763
f 760 763 576
f 760 576 572
f 764 577 578
f 765 579 577
f 765 577 764
f 765 764 766
f 767 768 579
f 767 579 765
f 767 765 766
f 769 770 771
f 769 771 580
f 772 773 766
f 772 766 764
f 772 764 578
f 772 578 601
f 774 775 776
f 774 776 772
f 774 772 601
f 774 601 599
f 774 599 586
f 774 586 585
f 777 360 570
f 777 771 778
f 777 778 358
f 777 358 360
f 779 775 774
f 779 774 585
f 779 581 386
f 779 386 775
f 780 781 583
f 780 583 209
f 780 209 581
f 780 581 779
f 780 779 585
f 780 585 584
f 780 584 781
f 782 387 126
f 783 775 386
f 783 386 582
f 783 784 785
f 783 776 775
f 786 781 584
f 786 787 788
f 786 788 204
f 786 204 583
f 786 583 781
f 789 334 204
f 789 204 788
f 789 788 787
f 790 593 791
f 790 390 389
f 790 389 593
f 792 390 790
f 792 790 791
f 792 591 393
f 792 393 588
f 792 588 390
f 793 791 593
f 793 593 693
f 794 587 594
f 794 594 238
f 794 238 587
f 795 595 594
f 795 594 590
f 796 597 395
f 797 598 599
f 797 599 578
f 797 578 66
f 797 66 598
f 798 799 787
f 800 602 427
f 800 427 426
f 801 802 400
f 801 400 626
f 801 626 624
f 801 624 623
f 803 213 400
f 803 400 802
f 804 407 703
f 804 711 805
f 806 518 712
f 806 712 703
f 806 703 702
f 806 702 515
f 806 515 518
f 807 761 760
f 807 575 611
f 807 611 610
f 807 610 28
f 807 28 761
f 808 411 261
f 808 261 615
f 808 615 616
f 808 616 411
f 809 500 499
f 809 499 619
f 809 611 575
f 809 575 503
f 809 503 500
f 810 619 618
f 810 618 621
f 810 621 410
f 811 613 618
f 811 618 619
f 811 619 620
f 811 620 498
f 811 498 613
f 812 616 608
f 812 608 813
f 812 813 623
f 812 411 616
f 814 625 412
f 814 412 652
f 814 652 75
f 815 411 812
f 815 75 411
f 816 419 629
f 816 417 419
f 817 266 420
f 817 420 631
f 818 632 265
f 818 265 266
f 819 634 632
f 819 632 818
f 819 818 820
f 821 555 752
f 822 823 398
f 822 398 605
f 822 605 604
f 824 429 74
f 824 74 635
f 825 824 635
f 825 635 398
f 825 398 823
f 826 636 827
f 826 827 430
f 826 430 637
f 826 637 267
f 826 267 636
f 828 430 827
f 828 827 829
f 828 829 640
f 828 640 638
f 828 638 166
f 828 166 430
f 830 831 832
f 830 643 639
f 833 165 643
f 833 643 830
f 833 830 832
f 834 321 294
f 834 294 661
f 834 661 658
f 834 658 659
f 835 182 462
f 836 837 488
f 836 488 487
f 836 487 293
f 836 293 320
f 838 321 834
f 838 320 321
f 839 644 425
f 839 425 840
f 841 426 644
f 841 831 830
f 841 830 426
f 842 439 434
f 842 434 452
f 843 461 16
f 843 16 844
f 843 844 842
f 843 842 452
f 843 452 451
f 845 846 440
f 845 440 439
f 845 439 842
f 845 842 844
f 845 844 16
f 847 646 275
f 847 275 276
f 848 16 646
f 848 646 846
f 848 846 845
f 848 845 16
f 849 846 646
f 849 646 847
f 849 655 281
f 849 281 440
f 849 440 846
f 850 279 657
f 850 657 647
f 850 647 627
f 850 627 279
f 851 437 75
f 851 75 651
f 851 651 654
f 851 654 437
f 852 275 645
f 852 645 853
f 852 657 277
f 852 277 275
f 854 437 654
f 854 853 645
f 854 645 437
f 855 665 664
f 855 664 856
f 855 674 665
f 857 856 858
f 857 858 663
f 859 858 856
f 859 856 666
f 859 666 131
f 859 131 458
f 859 458 663
f 859 663 858
f 860 664 460
f 860 460 459
f 860 459 666
f 860 666 856
f 860 856 664
f 861 47 295
f 861 295 488
f 861 488 862
f 861 862 462
f 861 462 47
f 863 864 64
f 863 64 38
f 863 38 633
f 863 633 634
f 865 677 161
f 865 161 64
f 865 64 864
f 866 867 296
f 866 296 468
f 866 468 466
f 866 466 681
f 866 681 679
f 868 467 471
f 868 471 681
f 868 681 465
f 868 465 467
f 869 308 683
f 869 683 476
f 869 476 682
f 869 682 307
f 869 307 308
f 870 492 687
f 870 871 872
f 870 872 493
f 870 493 492
f 873 316 485
f 873 485 688
f 873 676 317
f 873 317 316
f 874 676 873
f 874 873 688
f 874 688 674
f 874 674 855
f 874 857 676
f 875 111 109
f 875 109 490
f 875 490 323
f 875 323 876
f 875 486 111
f 877 878 319
f 877 319 486
f 879 322 489
f 879 489 690
f 879 840 425
f 879 425 52
f 879 52 322
f 880 840 879
f 880 879 690
f 880 690 691
f 881 319 878
f 881 878 691
f 881 691 692
f 881 692 201
f 881 201 319
f 882 497 496
f 882 496 333
f 882 693 694
f 883 334 789
f 883 789 884
f 883 884 885
f 883 885 695
f 883 695 331
f 883 331 334
f 886 732 731
f 886 731 510
f 886 510 696
f 886 696 697
f 886 697 336
f 886 336 729
f 886 729 732
f 887 513 702
f 887 702 409
f 887 409 709
f 887 709 506
f 887 506 513
f 888 342 512
f 888 512 716
f 888 716 517
f 888 704 340
f 888 340 342
f 889 805 711
f 889 711 713
f 890 523 719
f 890 891 524
f 890 524 523
f 892 714 715
f 892 715 351
f 892 891 890
f 892 890 714
f 893 802 889
f 894 211 213
f 894 213 803
f 894 803 802
f 894 802 893
f 894 893 718
f 894 718 717
f 894 717 343
f 894 343 211
f 895 346 718
f 895 718 719
f 895 719 522
f 895 522 346
f 896 712 518
f 896 518 714
f 896 714 890
f 896 713 712
f 897 713 719
f 897 719 718
f 897 718 893
f 897 893 889
f 897 889 713
f 898 891 892
f 898 892 351
f 898 351 350
f 898 350 525
f 898 721 524
f 898 524 891
f 899 353 354
f 899 354 721
f 899 721 898
f 899 898 525
f 899 525 353
f 900 720 721
f 900 721 354
f 901 902 903
f 901 727 529
f 901 529 902
f 904 727 901
f 904 901 903
f 904 903 905
f 906 570 728
f 906 728 907
f 906 569 570
f 908 338 502
f 908 502 574
f 908 574 573
f 908 573 723
f 908 723 729
f 908 729 336
f 908 336 338
f 909 534 724
f 910 217 532
f 910 532 534
f 910 534 909
f 910 909 911
f 910 911 902
f 910 902 529
f 910 529 217
f 912 363 535
f 912 535 733
f 913 738 233
f 913 233 914
f 915 737 739
f 915 739 916
f 915 371 549
f 915 549 737
f 917 916 740
f 917 740 550
f 918 919 920
f 918 743 742
f 921 694 593
f 921 593 592
f 921 592 239
f 921 744 497
f 921 497 882
f 921 882 694
f 922 158 745
f 922 745 747
f 922 550 159
f 922 159 158
f 923 749 552
f 924 925 926
f 927 553 743
f 927 751 554
f 927 554 552
f 927 552 553
f 928 751 927
f 929 930 931
f 929 931 557
f 929 557 556
f 932 933 934
f 935 930 929
f 935 929 556
f 935 933 932
f 935 932 930
f 936 937 938
f 936 938 755
f 936 755 754
f 936 754 939
f 940 565 561
f 940 561 755
f 940 755 938
f 940 938 382
f 940 382 565
f 941 930 932
f 941 931 930
f 942 569 906
f 942 906 907
f 942 907 943
f 942 567 569
f 944 942 943
f 945 757 384
f 945 384 758
f 945 758 567
f 945 567 757
f 946 28 757
f 946 947 762
f 946 762 761
f 946 761 28
f 948 575 807
f 948 807 760
f 948 760 571
f 948 571 575
f 949 759 384
f 949 384 579
f 949 579 768
f 949 768 770
f 949 770 769
f 949 769 580
f 949 580 759
f 950 771 770
f 951 776 783
f 951 783 785
f 951 773 772
f 951 772 776
f 952 773 951
f 952 951 785
f 952 785 950
f 952 950 770
f 952 770 768
f 952 768 767
f 952 767 766
f 952 766 773
f 953 771 777
f 953 777 570
f 953 570 580
f 953 580 771
f 954 582 387
f 954 387 782
f 954 782 784
f 954 784 783
f 954 783 582
f 955 358 778
f 955 778 782
f 955 782 126
f 955 126 358
f 956 787 786
f 956 786 584
f 956 584 798
f 956 798 787
f 957 791 793
f 957 793 693
f 957 693 958
f 959 960 795
f 959 795 590
f 961 796 395
f 961 395 596
f 962 598 597
f 962 597 796
f 963 600 598
f 963 598 962
f 963 798 600
f 964 586 599
f 964 599 600
f 964 600 798
f 964 798 584
f 964 584 586
f 965 884 789
f 965 789 787
f 965 787 799
f 966 800 639
f 966 639 640
f 967 639 800
f 967 800 426
f 967 426 830
f 967 830 639
f 968 802 801
f 968 805 889
f 968 889 802
f 969 813 608
f 969 623 813
f 970 711 804
f 970 804 703
f 970 703 712
f 970 712 711
f 971 809 619
f 971 619 810
f 971 810 410
f 971 410 611
f 971 611 809
f 972 622 815
f 972 815 812
f 972 812 623
f 972 623 622
f 973 814 75
f 973 75 815
f 973 815 622
f 974 754 753
f 974 753 417
f 974 417 816
f 975 424 976
f 975 976 977
f 975 423 424
f 978 557 979
f 978 979 820
f 978 820 977
f 980 818 266
f 980 977 820
f 980 820 818
f 981 820 979
f 981 982 634
f 981 634 819
f 981 819 820
f 983 979 557
f 983 557 931
f 984 629 630
f 985 939 754
f 985 754 986
f 987 988 989
f 987 989 990
f 987 935 556
f 987 556 558
f 991 992 640
f 991 640 829
f 991 829 827
f 991 825 823
f 991 823 992
f 993 832 831
f 994 995 996
f 997 995 994
f 997 998 999
f 997 999 995
f 1000 835 462
f 1000 462 862
f 1000 862 488
f 1000 488 837
f 1001 838 834
f 1001 834 659
f 1002 461 843
f 1002 843 451
f 1002 451 454
f 1002 454 461
f 1003 276 655
f 1003 655 849
f 1003 849 847
f 1003 847 276
f 1004 650 648
f 1004 648 647
f 1004 647 657
f 1004 657 852
f 1004 852 853
f 1004 853 650
f 1005 653 649
f 1005 649 650
f 1005 650 853
f 1005 853 854
f 1005 854 654
f 1005 654 653
f 1006 484 676
f 1006 676 857
f 1006 857 663
f 1006 663 455
f 1006 455 456
f 1006 456 483
f 1006 483 484
f 1007 302 189
f 1007 100 302
f 1008 678 301
f 1009 1010 867
f 1009 867 866
f 1011 539 538
f 1011 538 671
f 1011 671 672
f 1012 1013 864
f 1012 864 863
f 1012 863 634
f 1014 677 865
f 1014 865 864
f 1014 864 1013
f 1015 996 995
f 1016 182 835
f 1017 315 182
f 1017 182 1016
f 1017 1016 871
f 1018 871 870
f 1018 870 687
f 1018 687 315
f 1018 315 1017
f 1018 1017 871
f 1019 857 874
f 1019 874 855
f 1019 855 856
f 1019 856 857
f 1020 1021 1022
f 1020 1022 493
f 1020 493 872
f 1020 872 1021
f 1023 493 1022
f 1023 876 323
f 1023 323 325
f 1023 325 491
f 1023 491 493
f 1024 877 486
f 1024 486 875
f 1025 691 878
f 1026 839 840
f 1026 840 880
f 1026 999 839
f 1027 495 330
f 1028 333 495
f 1029 1030 885
f 1029 885 884
f 1029 884 965
f 1031 795 960
f 1031 960 1030
f 1031 1030 1029
f 1031 1029 1032
f 1031 1032 596
f 1031 596 595
f 1031 595 795
f 1033 706 704
f 1033 704 888
f 1033 888 517
f 1033 517 514
f 1033 514 706
f 1034 719 713
f 1034 713 896
f 1034 896 890
f 1034 890 719
f 1035 528 356
f 1035 356 355
f 1035 355 526
f 1035 526 720
f 1035 720 900
f 1035 900 354
f 1035 354 528
f 1036 726 727
f 1036 727 904
f 1036 904 905
f 1036 728 726
f 1037 1038 1039
f 1037 1039 576
f 1040 1036 905
f 1041 573 576
f 1041 576 1039
f 1041 1039 722
f 1041 722 573
f 1042 1040 905
f 1043 911 909
f 1043 1042 905
f 1043 905 903
f 1043 903 902
f 1043 902 911
f 1044 536 363
f 1044 363 912
f 1044 912 733
f 1044 733 511
f 1044 511 510
f 1044 510 731
f 1044 731 533
f 1044 533 536
f 1045 914 925
f 1046 738 913
f 1046 913 914
f 1046 914 1045
f 1046 1047 918
f 1046 918 920
f 1046 920 738
f 1048 373 371
f 1048 371 915
f 1048 915 916
f 1048 916 917
f 1048 747 373
f 1049 739 370
f 1049 916 739
f 1050 920 919
f 1050 919 1049
f 1050 369 132
f 1050 132 738
f 1050 738 920
f 1051 919 918
f 1051 918 742
f 1051 1049 919
f 1052 746 744
f 1052 744 921
f 1052 921 239
f 1053 555 821
f 1054 749 923
f 1054 923 988
f 1054 976 424
f 1054 424 749
f 1055 558 976
f 1055 976 1054
f 1055 1054 988
f 1055 988 987
f 1055 987 558
f 1056 977 976
f 1056 976 558
f 1056 558 557
f 1056 557 978
f 1056 978 977
f 1057 1058 232
f 1059 383 236
f 1059 932 934
f 1059 934 377
f 1059 377 383
f 1060 752 750
f 1060 750 751
f 1060 751 928
f 1060 928 924
f 1060 924 926
f 1061 743 918
f 1061 918 1047
f 1061 1047 928
f 1061 928 927
f 1061 927 743
f 1062 934 933
f 1062 933 935
f 1062 990 1063
f 1064 939 985
f 1064 931 941
f 1064 937 936
f 1064 936 939
f 1065 937 1064
f 1065 1064 941
f 1065 941 932
f 1065 932 1059
f 1066 1067 1038
f 1066 1038 1037
f 1066 1037 576
f 1066 576 763
f 1066 763 762
f 1066 762 947
f 1068 567 942
f 1068 942 944
f 1068 944 757
f 1068 757 567
f 1069 757 944
f 1069 944 943
f 1069 943 1067
f 1069 1067 1066
f 1069 1066 947
f 1069 947 946
f 1069 946 757
f 1070 784 782
f 1070 782 778
f 1070 778 771
f 1070 771 950
f 1070 950 785
f 1070 785 784
f 1071 1072 959
f 1071 959 590
f 1071 590 589
f 1073 1032 1029
f 1073 961 596
f 1073 596 1032
f 1074 992 823
f 1074 823 822
f 1074 822 604
f 1074 604 602
f 1074 602 800
f 1074 800 966
f 1074 966 640
f 1074 640 992
f 1075 607 407
f 1075 407 804
f 1075 804 805
f 1075 805 969
f 1075 969 608
f 1075 608 607
f 1076 968 801
f 1076 801 623
f 1076 623 969
f 1076 969 805
f 1076 805 968
f 1077 814 973
f 1077 973 622
f 1077 622 624
f 1077 624 626
f 1077 626 625
f 1077 625 814
f 1078 629 984
f 1078 986 754
f 1078 754 974
f 1078 974 816
f 1078 816 629
f 1079 817 631
f 1079 631 423
f 1079 423 975
f 1079 975 977
f 1079 977 980
f 1079 980 266
f 1079 266 817
f 1080 1081 982
f 1080 982 981
f 1080 981 979
f 1082 984 1083
f 1084 1085 1086
f 1084 1086 1087
f 1084 1087 299
f 1084 299 469
f 1084 469 677
f 1088 935 987
f 1088 987 990
f 1088 990 1062
f 1088 1062 935
f 1089 824 825
f 1089 825 991
f 1089 991 827
f 1089 827 636
f 1089 636 429
f 1089 429 824
f 1090 1091 995
f 1090 995 999
f 1092 1091 1021
f 1092 1021 872
f 1093 833 832
f 1093 832 993
f 1093 272 271
f 1093 271 165
f 1093 165 833
f 1094 993 1095
f 1096 1095 993
f 1096 993 831
f 1096 831 1097
f 1096 1097 1098
f 1096 1098 1095
f 1099 998 1097
f 1099 1097 831
f 1099 831 841
f 1099 841 644
f 1100 1098 1097
f 1100 1097 998
f 1100 998 997
f 1100 997 994
f 1100 838 1001
f 1100 1001 1098
f 1101 1102 836
f 1101 836 320
f 1101 320 838
f 1101 838 1100
f 1101 1100 994
f 1101 994 996
f 1101 996 1102
f 1103 1094 1095
f 1103 1095 1098
f 1103 1098 1001
f 1103 1001 659
f 1103 659 453
f 1104 1087 1086
f 1105 1087 1104
f 1105 1104 1007
f 1105 1007 189
f 1105 189 299
f 1105 299 1087
f 1106 301 100
f 1106 100 1007
f 1107 1009 866
f 1107 866 679
f 1107 679 678
f 1107 678 1008
f 1108 1085 1084
f 1108 1109 1085
f 1110 1111 1011
f 1112 1011 1111
f 1112 1111 628
f 1112 628 539
f 1112 539 1011
f 1113 1086 1085
f 1113 1085 1109
f 1113 1109 1111
f 1113 1111 1110
f 1113 1104 1086
f 1114 871 1016
f 1114 1016 835
f 1114 835 1000
f 1115 876 1023
f 1115 1023 1022
f 1115 877 1024
f 1115 1024 875
f 1115 875 876
f 1116 877 1115
f 1116 1115 1022
f 1116 1025 878
f 1116 878 877
f 1117 1026 880
f 1117 880 691
f 1117 691 1025
f 1118 885 1030
f 1118 1030 960
f 1119 329 695
f 1119 695 885
f 1119 885 1118
f 1119 1118 1120
f 1119 1120 1027
f 1119 1027 330
f 1119 330 329
f 1121 1027 1120
f 1121 958 1028
f 1121 1028 495
f 1121 495 1027
f 1122 693 882
f 1122 882 333
f 1122 333 1028
f 1122 1028 958
f 1122 958 693
f 1123 799 1073
f 1123 1073 1029
f 1123 1029 965
f 1123 965 799
f 1124 907 1040
f 1124 1040 1038
f 1124 1038 1067
f 1124 1067 943
f 1124 943 907
f 1125 728 1036
f 1125 1036 1040
f 1125 1040 907
f 1125 907 728
f 1126 1042 1043
f 1126 722 1039
f 1127 1040 1042
f 1127 1042 1126
f 1127 1126 1039
f 1127 1039 1038
f 1127 1038 1040
f 1128 724 722
f 1128 722 1126
f 1128 1126 1043
f 1128 1043 909
f 1128 909 724
f 1129 924 928
f 1129 928 1047
f 1129 1047 1046
f 1129 1046 1045
f 1129 1045 925
f 1129 925 924
f 1130 747 1048
f 1130 1048 917
f 1130 917 550
f 1130 550 922
f 1130 922 747
f 1131 370 369
f 1131 369 1050
f 1131 1050 1049
f 1131 1049 370
f 1132 740 916
f 1132 916 1049
f 1132 1049 1051
f 1132 1051 742
f 1132 742 740
f 1133 746 1052
f 1133 1052 239
f 1133 239 241
f 1133 241 373
f 1133 373 747
f 1133 747 746
f 1134 923 1053
f 1134 1053 821
f 1134 821 1135
f 1134 1135 989
f 1134 989 988
f 1134 988 923
f 1136 555 1053
f 1136 1053 923
f 1136 923 552
f 1136 552 555
f 1137 551 1138
f 1137 1138 925
f 1137 925 914
f 1137 914 233
f 1137 233 551
f 1139 1138 551
f 1139 551 232
f 1139 232 1058
f 1140 377 934
f 1140 1057 232
f 1140 232 376
f 1140 376 377
f 1141 937 1065
f 1141 1065 1059
f 1141 1059 236
f 1142 1058 1057
f 1142 1057 1140
f 1142 1062 1063
f 1143 1138 1139
f 1143 1139 1058
f 1143 1144 926
f 1145 990 989
f 1145 989 1135
f 1145 1135 821
f 1146 931 1064
f 1146 1064 985
f 1147 591 792
f 1147 792 791
f 1147 791 957
f 1147 957 1072
f 1147 1072 1071
f 1147 1071 589
f 1147 589 591
f 1148 963 962
f 1148 962 796
f 1148 796 961
f 1148 961 1073
f 1148 1073 799
f 1148 799 798
f 1148 798 963
f 1149 983 931
f 1149 931 1146
f 1149 1146 985
f 1149 985 1150
f 1149 1150 1081
f 1149 1081 1080
f 1149 1080 979
f 1149 979 983
f 1151 1150 985
f 1151 985 986
f 1151 986 1078
f 1151 1078 984
f 1151 984 1082
f 1151 1082 1081
f 1151 1081 1150
f 1152 1013 1012
f 1152 1012 634
f 1152 634 982
f 1152 982 1081
f 1153 1014 1013
f 1153 1082 1083
f 1153 1083 1108
f 1153 1108 1014
f 1154 1111 1109
f 1154 1109 630
f 1154 630 628
f 1154 628 1111
f 1155 995 1091
f 1155 1091 1092
f 1155 1015 995
f 1156 871 1114
f 1156 1015 1155
f 1156 1155 1092
f 1156 1092 872
f 1156 872 871
f 1157 1093 993
f 1157 993 1094
f 1157 1094 450
f 1157 450 449
f 1157 449 272
f 1157 272 1093
f 1158 839 999
f 1158 999 998
f 1158 998 1099
f 1158 1099 644
f 1158 644 839
f 1159 1094 1103
f 1159 1103 453
f 1159 453 450
f 1159 450 1094
f 1160 1007 1104
f 1160 1104 1010
f 1161 630 1109
f 1161 1109 1108
f 1161 1108 1083
f 1161 1083 984
f 1161 984 630
f 1162 677 1014
f 1162 1014 1108
f 1162 1108 1084
f 1162 1084 677
f 1163 1110 1011
f 1163 1011 672
f 1163 672 296
f 1163 296 867
f 1163 867 1010
f 1164 1010 1104
f 1164 1104 1113
f 1164 1113 1110
f 1164 1110 1163
f 1164 1163 1010
f 1165 837 836
f 1165 836 1102
f 1165 1102 996
f 1165 996 1015
f 1165 1015 1156
f 1165 1156 1114
f 1165 1114 1000
f 1165 1000 837
f 1166 1116 1022
f 1166 1022 1021
f 1166 1021 1091
f 1166 1091 1167
f 1166 1167 1025
f 1166 1025 1116
f 1168 1167 1091
f 1168 1091 1090
f 1168 1090 999
f 1168 999 1026
f 1168 1026 1117
f 1168 1117 1025
f 1168 1025 1167
f 1169 1072 1120
f 1169 1120 1118
f 1169 1118 960
f 1169 960 959
f 1169 959 1072
f 1170 958 1121
f 1170 1121 1120
f 1170 1120 1072
f 1170 1072 957
f 1170 957 958
f 1171 937 1141
f 1171 1141 236
f 1171 236 566
f 1171 566 382
f 1171 382 938
f 1171 938 937
f 1172 934 1062
f 1172 1062 1142
f 1172 1142 1140
f 1172 1140 934
f 1173 1144 1143
f 1173 1142 1063
f 1173 1063 990
f 1173 990 1145
f 1173 1145 1144
f 1174 1142 1173
f 1174 1173 1143
f 1174 1143 1058
f 1174 1058 1142
f 1175 1138 1143
f 1175 1143 926
f 1175 926 925
f 1175 925 1138
f 1176 752 1060
f 1176 1060 926
f 1176 821 752
f 1177 1152 1081
f 1177 1081 1082
f 1177 1082 1153
f 1177 1153 1013
f 1177 1013 1152
f 1178 1008 301
f 1178 301 1106
f 1178 1106 1007
f 1178 1007 1160
f 1178 1160 1010
f 1178 1010 1009
f 1178 1009 1107
f 1178 1107 1008
f 1179 1144 1145
f 1179 1145 821
f 1179 821 1176
f 1179 1176 926
f 1179 926 1144
