# Convex hull collision mesh — generated by scripts/generate-collision-meshes.mjs (units: meters)
v -0.005850 -0.001307 0.024532
v -0.002850 -0.000307 0.015532
v 0.021650 -0.001307 0.024532
v 0.003729 0.013740 0.033032
v 0.013850 0.003193 0.033032
v 0.014349 0.014018 0.033032
v 0.008650 0.017693 0.015532
v 0.020997 0.004350 0.015532
v 0.009650 -0.000307 0.015532
v -0.005850 -0.001307 0.026032
v 0.003824 0.003494 0.033032
v -0.006850 0.026693 0.026032
v -0.006850 0.026693 0.024532
v -0.006850 -0.000307 0.026032
v -0.000850 0.010693 0.015532
v 0.017650 0.015693 0.015532
v 0.019349 0.032872 0.022075
v -0.003608 0.032872 0.022075
v 0.018892 0.032872 0.022488
v 0.021872 -0.001282 0.024532
v -0.006850 -0.000307 0.024532
v 0.006392 0.032872 0.022488
v 0.021650 0.027693 0.026032
v 0.013850 0.014193 0.033032
v 0.014650 0.013393 0.033032
v 0.003650 0.003993 0.033032
v 0.004450 0.003193 0.033032
v -0.002850 0.003693 0.015532
v -0.004580 0.025572 0.021082
v -0.003705 0.032572 0.021957
v -0.006751 0.027127 0.024532
v 0.020997 0.007000 0.015532
v 0.022650 0.026693 0.024532
v 0.012650 0.017693 0.015532
v 0.022650 -0.000307 0.024532
v 0.022084 -0.001208 0.024532
v -0.006284 -0.001208 0.024532
v -0.006474 -0.001089 0.024532
v -0.006825 -0.000530 0.024532
v -0.006751 -0.000741 0.024532
v -0.003608 0.032872 0.022488
v 0.022432 0.027316 0.026032
v 0.022273 0.027475 0.026032
v 0.021872 0.027668 0.026032
v -0.005850 0.027693 0.026032
v 0.014571 0.013740 0.033032
v 0.020997 0.007000 0.028532
v 0.020997 0.004350 0.028532
v 0.014650 0.003993 0.033032
v -0.003705 0.020122 0.028607
v -0.006751 -0.000741 0.026032
v -0.006632 -0.000931 0.026032
v -0.006632 -0.000931 0.024532
v -0.006284 -0.001208 0.026032
v -0.006825 0.026915 0.024532
v 0.019445 0.032572 0.021957
v 0.022551 0.027127 0.024532
v 0.022625 0.026915 0.024532
v 0.022625 0.026915 0.026032
v 0.022650 -0.000307 0.026032
v -0.006073 -0.001282 0.024532
v 0.022084 0.027594 0.026032
v 0.014028 0.014173 0.033032
v 0.019349 0.032872 0.022488
v 0.004450 0.014193 0.033032
v 0.014475 0.013892 0.033032
v 0.014630 0.013571 0.033032
v 0.022551 0.027127 0.026032
v 0.022650 0.026693 0.026032
v 0.003650 0.013393 0.033032
v -0.003705 0.019472 0.028607
v 0.003729 0.003646 0.033032
v -0.006825 -0.000530 0.026032
v -0.006474 -0.001089 0.026032
v 0.004103 0.003272 0.033032
v 0.004272 0.003213 0.033032
v -0.006073 -0.001282 0.026032
v 0.014197 0.014114 0.033032
v -0.006751 0.027127 0.026032
v -0.006073 0.027668 0.026032
v 0.003951 0.014018 0.033032
v 0.003670 0.013571 0.033032
v 0.003670 0.003815 0.033032
v 0.003951 0.003367 0.033032
v 0.014197 0.003272 0.033032
v 0.021650 -0.001307 0.026032
v 0.022273 -0.001089 0.024532
v 0.022432 -0.000931 0.024532
v 0.022273 -0.001089 0.026032
v 0.022625 -0.000530 0.024532
v -0.006825 0.026915 0.026032
v -0.006632 0.027316 0.026032
v -0.006474 0.027475 0.026032
v 0.004272 0.014173 0.033032
v 0.014475 0.003494 0.033032
v 0.022084 -0.001208 0.026032
v 0.022551 -0.000741 0.024532
v 0.022551 -0.000741 0.026032
v 0.022625 -0.000530 0.026032
v 0.003824 0.013892 0.033032
v -0.006284 0.027594 0.026032
v 0.014571 0.003646 0.033032
v 0.022432 -0.000931 0.026032
v 0.014349 0.003367 0.033032
v 0.021872 -0.001282 0.026032
v 0.004103 0.014114 0.033032
v 0.014630 0.003815 0.033032
v 0.014028 0.003213 0.033032
f 1 2 3
f 4 5 6
f 7 8 2
f 9 2 8
f 9 3 2
f 10 1 3
f 11 5 4
f 12 13 14
f 15 7 2
f 16 8 7
f 17 7 18
f 17 18 19
f 20 3 9
f 21 13 2
f 21 14 13
f 22 23 19
f 22 19 18
f 24 4 6
f 25 6 5
f 26 11 4
f 27 5 11
f 27 10 5
f 28 29 15
f 28 15 2
f 28 2 13
f 28 13 29
f 30 7 15
f 30 15 29
f 30 31 18
f 30 18 7
f 32 8 16
f 32 33 8
f 34 7 17
f 34 16 7
f 35 8 33
f 36 20 9
f 36 9 8
f 37 38 2
f 39 14 21
f 39 21 2
f 39 2 40
f 41 23 22
f 41 22 18
f 41 18 31
f 42 43 6
f 44 23 24
f 45 24 23
f 45 23 41
f 46 6 25
f 47 25 48
f 49 48 25
f 49 25 5
f 50 12 14
f 51 39 40
f 51 40 52
f 53 38 52
f 53 52 40
f 53 40 2
f 53 2 38
f 54 38 37
f 55 31 30
f 55 30 29
f 55 29 13
f 55 13 12
f 56 17 57
f 56 32 16
f 56 16 34
f 56 34 17
f 58 32 56
f 58 56 57
f 58 57 59
f 58 59 33
f 58 33 32
f 60 47 48
f 60 35 33
f 61 1 10
f 61 54 37
f 61 37 2
f 61 2 1
f 62 6 43
f 63 62 44
f 63 44 24
f 63 24 6
f 64 44 62
f 64 62 43
f 64 43 42
f 64 57 17
f 64 17 19
f 64 19 23
f 64 23 44
f 65 24 45
f 65 4 24
f 66 6 46
f 66 46 42
f 66 42 6
f 67 59 46
f 67 46 25
f 67 25 59
f 68 42 46
f 68 46 59
f 68 59 57
f 68 57 64
f 68 64 42
f 69 25 47
f 69 47 60
f 69 60 33
f 69 33 59
f 69 59 25
f 70 50 26
f 70 26 4
f 71 26 50
f 71 50 14
f 71 14 26
f 72 11 26
f 72 51 52
f 72 52 11
f 73 14 39
f 73 39 51
f 74 38 54
f 74 52 38
f 75 27 11
f 76 27 75
f 76 75 54
f 76 10 27
f 77 54 61
f 77 61 10
f 77 10 76
f 77 76 54
f 78 62 63
f 78 63 6
f 78 6 62
f 79 31 55
f 79 50 4
f 79 41 31
f 80 65 45
f 80 45 41
f 81 4 65
f 82 50 70
f 82 70 4
f 82 4 50
f 83 72 26
f 83 26 14
f 83 14 73
f 83 73 51
f 83 51 72
f 84 74 54
f 84 54 75
f 84 75 11
f 84 11 52
f 84 52 74
f 85 49 5
f 86 10 3
f 86 3 20
f 86 5 10
f 87 88 89
f 87 89 36
f 87 36 8
f 87 8 88
f 90 35 60
f 90 8 35
f 91 12 50
f 91 50 79
f 91 79 55
f 91 55 12
f 92 79 4
f 92 81 93
f 92 93 41
f 92 41 79
f 94 81 65
f 94 65 80
f 95 49 85
f 96 36 89
f 96 20 36
f 97 88 8
f 97 8 90
f 97 90 98
f 97 98 88
f 99 98 90
f 99 90 60
f 99 60 48
f 99 48 98
f 100 81 92
f 100 92 4
f 100 4 81
f 101 93 81
f 101 94 80
f 101 80 41
f 101 41 93
f 102 49 95
f 102 98 48
f 103 98 102
f 103 102 95
f 103 89 88
f 103 88 98
f 104 89 103
f 104 103 95
f 104 95 85
f 104 85 96
f 104 96 89
f 105 5 86
f 105 86 20
f 105 20 96
f 106 94 101
f 106 101 81
f 106 81 94
f 107 49 102
f 107 102 48
f 107 48 49
f 108 85 5
f 108 5 105
f 108 105 96
f 108 96 85
