# Normalized convex hull collision mesh - generated by scripts/generate-collision-meshes.mjs (units: meters)
v -0.010000 0.001525 -0.003000
v -0.010000 -0.000960 -0.003000
v -0.010000 0.001525 0.003000
v 0.009822 -0.002664 -0.003000
v -0.010000 -0.002664 -0.003000
v -0.003546 -0.003161 0.003000
v 0.009822 0.001525 0.003000
v 0.009822 0.001525 -0.003000
v 0.010000 0.004894 -0.001055
v 0.006442 -0.003161 -0.003000
v 0.009240 0.004869 0.001571
v -0.010000 -0.002664 0.003000
v 0.009822 -0.002664 0.003000
v -0.008462 0.001986 0.000820
v 0.009396 0.004895 0.001555
v 0.007825 -0.004985 0.000267
v -0.008002 -0.004985 0.000267
v -0.006619 -0.003161 0.003000
v 0.010000 0.004894 0.001064
v -0.008411 -0.004908 0.000248
v -0.008312 -0.004948 0.000248
v -0.008433 0.001994 -0.001961
v 0.009389 0.004902 0.001551
v 0.009382 0.004908 0.001545
v 0.009229 0.004883 0.001561
v 0.009234 0.004876 0.001567
v 0.008003 -0.004958 -0.000283
v 0.006442 -0.003161 0.003000
v -0.006619 -0.003161 -0.003000
v 0.007825 -0.004985 -0.000267
v -0.008302 -0.004941 0.000267
v -0.008189 -0.004969 0.000267
v -0.008181 -0.004958 0.000283
v 0.010000 0.004902 0.001064
v 0.009983 0.004899 0.001174
v 0.008251 -0.004898 0.000248
v 0.008165 -0.004938 0.000248
v 0.008372 -0.004799 0.000203
v 0.008330 -0.004853 0.000203
v -0.008508 -0.004853 0.000203
v -0.008441 -0.004902 0.000203
v -0.008496 -0.004860 0.000226
v -0.008486 -0.004858 0.000248
v -0.008419 -0.004912 0.000226
v -0.008440 0.001992 -0.000811
v 0.009218 0.004894 -0.001524
v -0.008346 0.002013 -0.001935
v 0.008330 -0.004853 -0.000203
v 0.008263 -0.004902 0.000203
v 0.007937 -0.004967 -0.000283
v 0.008154 -0.004931 0.000267
v 0.008054 -0.004960 0.000267
v 0.007937 -0.004967 0.000283
v -0.008002 -0.004985 -0.000267
v -0.008066 -0.004983 -0.000267
v -0.008063 -0.004972 -0.000283
v 0.010000 0.004902 -0.001055
v 0.009996 0.004910 0.001064
v 0.008260 -0.004901 0.000226
v 0.008174 -0.004943 0.000203
v 0.009240 0.004869 -0.001562
v 0.009396 0.004895 -0.001546
v -0.008549 -0.004799 0.000203
v -0.008508 -0.004853 -0.000203
v 0.009221 0.004892 -0.001535
v 0.009224 0.004888 -0.001544
v 0.009845 0.004885 0.001375
v 0.009734 0.004867 0.001455
v 0.009849 0.004877 0.001374
v 0.009224 0.004888 0.001553
v 0.009221 0.004892 0.001543
v 0.000225 0.003419 0.000521
v -0.008346 0.002013 -0.000809
v -0.008346 0.002013 0.001944
v -0.008474 0.001982 0.001981
v 0.008172 -0.004942 0.000226
v 0.008066 -0.004973 0.000226
v 0.008174 -0.004943 -0.000203
v 0.008068 -0.004974 -0.000203
v 0.008372 -0.004799 -0.000203
v 0.008318 -0.004860 -0.000226
v 0.008263 -0.004902 -0.000203
v 0.008242 -0.004912 -0.000226
v 0.007885 -0.004972 -0.000283
v 0.008233 -0.004908 -0.000248
v 0.007825 -0.005000 0.000203
v 0.007825 -0.005000 -0.000203
v 0.007950 -0.004994 -0.000203
v -0.008002 -0.005000 0.000203
v -0.000089 -0.004993 0.000248
v 0.008043 -0.004950 0.000283
v 0.007885 -0.004972 0.000283
v -0.000089 -0.004993 -0.000248
v -0.008114 -0.004967 -0.000283
v -0.008114 -0.004967 0.000283
v -0.008120 -0.004978 0.000267
v -0.008066 -0.004983 0.000267
v 0.009983 0.004899 -0.001166
v 0.009931 0.004891 -0.001271
v 0.008327 -0.004853 0.000226
v 0.009734 0.004867 -0.001446
v 0.009683 0.004934 -0.001446
v 0.009845 0.004885 -0.001366
v 0.009849 0.004877 -0.001366
v 0.009793 0.004952 -0.001366
v 0.009234 0.004876 -0.001558
v -0.008441 -0.004902 -0.000203
v -0.008352 -0.004943 -0.000203
v -0.008549 -0.004799 -0.000203
v 0.000225 0.003419 -0.000512
v 0.009217 0.004895 -0.001513
v 0.009979 0.004907 0.001175
v 0.009927 0.004898 0.001280
v 0.009931 0.004891 0.001279
v 0.009876 0.004965 0.001280
v 0.009375 0.004913 0.001537
v -0.008412 0.002000 0.001963
v 0.008012 -0.004969 -0.000267
v 0.008124 -0.004941 -0.000267
v 0.008141 -0.004953 -0.000226
v 0.007888 -0.004983 -0.000267
v 0.008308 -0.004858 -0.000248
v -0.008352 -0.004943 0.000203
v -0.008246 -0.004974 0.000203
v 0.008061 -0.004968 0.000248
v 0.008022 -0.004981 -0.000226
v 0.007892 -0.004996 -0.000226
v 0.008068 -0.004974 0.000203
v 0.007825 -0.004998 0.000226
v 0.007892 -0.004996 0.000226
v 0.007888 -0.004983 0.000267
v -0.000089 -0.005000 -0.000203
v 0.007825 -0.004993 -0.000248
v -0.008350 -0.004942 -0.000226
v -0.008331 -0.004931 -0.000267
v -0.008231 -0.004960 -0.000267
v -0.008343 -0.004938 -0.000248
v -0.008221 -0.004950 -0.000283
v -0.008063 -0.004972 0.000283
v 0.009876 0.004965 -0.001271
v 0.009996 0.004910 -0.001055
v 0.009945 0.004977 -0.001055
v 0.009786 0.004959 -0.001366
v 0.009776 0.004965 -0.001363
v 0.009858 0.004979 -0.001269
v -0.008504 -0.004853 -0.000226
v 0.009551 0.004912 -0.001508
v 0.009389 0.004902 -0.001543
v 0.009229 0.004883 -0.001552
v 0.009382 0.004908 -0.001537
v 0.009363 0.004918 -0.001509
v 0.009358 0.004918 -0.001498
v 0.009375 0.004913 -0.001529
v 0.009218 0.004894 0.001532
v 0.009217 0.004895 0.001521
v 0.009831 0.004996 0.001163
v 0.009846 0.004984 0.001275
v 0.009858 0.004979 0.001278
v 0.009896 0.004992 0.001172
v 0.009869 0.004972 0.001279
v 0.009920 0.004981 0.001174
v 0.009927 0.004974 0.001175
v 0.009369 0.004916 0.001528
v 0.008135 -0.004948 -0.000248
v 0.007942 -0.004978 -0.000267
v -0.008319 -0.004953 0.000226
v -0.008246 -0.004974 -0.000203
v -0.008127 -0.004994 -0.000203
v -0.008196 -0.004977 0.000248
v -0.008124 -0.004987 0.000248
v -0.008127 -0.004994 0.000203
v 0.008018 -0.004977 -0.000248
v 0.007946 -0.004987 -0.000248
v 0.007949 -0.004992 -0.000226
v 0.007950 -0.004994 0.000203
v -0.008002 -0.004998 0.000226
v 0.007825 -0.004993 0.000248
v 0.007942 -0.004978 0.000267
v 0.007946 -0.004987 0.000248
v -0.000089 -0.004998 -0.000226
v 0.007891 -0.004991 -0.000248
v 0.007825 -0.004998 -0.000226
v 0.009920 0.004981 -0.001166
v 0.009937 0.004984 -0.001055
v 0.009927 0.004898 -0.001271
v -0.008429 -0.004898 -0.000248
v 0.009897 0.004998 0.001064
v 0.009897 0.004998 -0.001055
v 0.009880 0.005000 0.001064
v 0.009369 0.004916 -0.001520
v 0.009683 0.004934 0.001455
v 0.009551 0.004912 0.001516
v 0.009544 0.004919 0.001515
v 0.009536 0.004926 0.001512
v 0.009800 0.004990 0.001263
v 0.009724 0.004977 0.001351
v 0.009816 0.004989 0.001268
v 0.009864 0.004997 0.001168
v 0.009909 0.004987 0.001173
v 0.009926 0.004990 0.001064
v 0.009937 0.004984 0.001064
v 0.009945 0.004977 0.001064
v 0.009363 0.004918 0.001518
v 0.009500 0.004940 0.001481
v -0.008068 -0.004991 -0.000248
v -0.008120 -0.004978 -0.000267
v -0.008124 -0.004987 -0.000248
v -0.008244 -0.004973 -0.000226
v -0.008200 -0.004981 0.000226
v 0.007949 -0.004992 0.000226
v -0.008002 -0.004993 0.000248
v -0.008126 -0.004992 0.000226
v 0.007891 -0.004991 0.000248
v 0.009869 0.004972 -0.001271
v 0.009979 0.004907 -0.001166
v 0.009913 0.004995 -0.001055
v -0.008438 -0.004901 -0.000226
v 0.009667 0.004947 -0.001443
v 0.009518 0.004936 -0.001491
v 0.009765 0.004971 -0.001360
v 0.009657 0.004953 -0.001438
v 0.009896 0.004992 -0.001164
v 0.009880 0.005000 -0.001055
v 0.009863 0.005000 -0.001055
v 0.009864 0.004997 -0.001160
v 0.009846 0.004998 0.001064
v 0.009846 0.004998 -0.001055
v 0.009847 0.004997 -0.001157
v 0.009831 0.004996 -0.001155
v 0.009786 0.004959 0.001374
v 0.009518 0.004936 0.001499
v 0.009785 0.004988 0.001258
v 0.009710 0.004976 0.001344
v 0.009881 0.004996 0.001170
v 0.009831 0.004987 0.001272
v 0.009358 0.004918 0.001507
v 0.009492 0.004940 0.001471
v -0.008002 -0.004998 -0.000226
v -0.008002 -0.004993 -0.000248
v -0.008239 -0.004968 -0.000248
v -0.008068 -0.004991 0.000248
v -0.008070 -0.004996 0.000226
v 0.009927 0.004974 -0.001166
v 0.009926 0.004990 -0.001055
v 0.009913 0.004995 0.001064
v 0.009676 0.004941 -0.001446
v 0.009509 0.004939 -0.001482
v 0.009527 0.004932 -0.001498
v 0.009536 0.004926 -0.001503
v 0.009846 0.004984 -0.001267
v 0.009752 0.004974 -0.001355
v 0.009831 0.004987 -0.001263
v 0.009909 0.004987 -0.001165
v 0.009881 0.004996 -0.001162
v 0.009847 0.004997 0.001166
v 0.009724 0.004977 -0.001342
v 0.009710 0.004976 -0.001335
v 0.009785 0.004988 -0.001250
v 0.009611 0.004960 -0.001407
v 0.009816 0.004989 -0.001259
v 0.009738 0.004977 -0.001349
v 0.009793 0.004952 0.001375
v 0.009776 0.004965 0.001372
v 0.009509 0.004939 0.001491
v 0.009611 0.004960 0.001416
v 0.009622 0.004960 0.001425
v -0.008070 -0.004996 -0.000226
v -0.008002 -0.005000 -0.000203
v 0.009645 0.004957 -0.001432
v 0.009544 0.004919 -0.001507
v 0.009863 0.005000 0.001064
v 0.009500 0.004940 -0.001473
v 0.009800 0.004990 -0.001255
v 0.009765 0.004971 0.001368
v -0.008126 -0.004992 -0.000226
v 0.009634 0.004960 -0.001424
v 0.009492 0.004940 -0.001463
v 0.009752 0.004974 0.001363
v 0.009667 0.004947 0.001451
v 0.009622 0.004960 -0.001416
v 0.009738 0.004977 0.001357
v 0.009676 0.004941 0.001454
v 0.009527 0.004932 0.001506
v 0.009645 0.004957 0.001440
v 0.009634 0.004960 0.001433
v 0.009657 0.004953 0.001447
f 1 2 3
f 1 4 2
f 5 2 4
f 5 3 2
f 6 7 3
f 8 4 1
f 8 9 4
f 10 5 4
f 11 3 7
f 12 6 3
f 12 3 5
f 13 7 6
f 13 4 9
f 14 1 3
f 15 11 7
f 16 6 17
f 18 6 12
f 18 17 6
f 19 7 13
f 19 13 9
f 20 21 12
f 22 1 14
f 23 11 15
f 23 24 25
f 26 11 23
f 26 23 25
f 26 25 3
f 26 3 11
f 27 10 4
f 28 6 16
f 28 13 6
f 29 10 30
f 29 5 10
f 31 21 32
f 31 32 12
f 31 12 21
f 33 18 12
f 33 12 32
f 34 7 19
f 34 19 9
f 34 35 7
f 36 13 37
f 38 13 39
f 38 4 13
f 40 41 42
f 40 42 12
f 43 42 20
f 43 20 12
f 43 12 42
f 44 21 20
f 44 20 42
f 44 42 41
f 45 22 14
f 46 1 22
f 46 22 47
f 48 39 49
f 48 38 39
f 50 10 27
f 51 13 52
f 51 52 37
f 51 37 13
f 53 13 28
f 54 55 29
f 54 29 30
f 56 29 55
f 57 58 34
f 57 34 9
f 57 9 8
f 59 13 36
f 59 36 37
f 59 60 49
f 61 62 8
f 61 8 1
f 63 12 5
f 63 40 12
f 64 41 40
f 64 40 63
f 65 1 46
f 65 66 1
f 67 68 7
f 67 7 69
f 70 71 3
f 70 3 25
f 70 25 24
f 72 47 73
f 72 73 74
f 75 14 3
f 76 77 60
f 76 60 59
f 76 59 37
f 76 37 77
f 78 49 60
f 78 60 79
f 80 38 48
f 80 48 4
f 80 4 38
f 81 4 48
f 82 83 81
f 82 81 48
f 82 48 49
f 82 49 78
f 82 78 83
f 84 10 50
f 85 81 83
f 86 87 88
f 86 89 87
f 90 16 17
f 91 13 53
f 91 53 52
f 91 52 13
f 92 53 28
f 93 54 30
f 94 29 56
f 94 56 55
f 94 5 29
f 95 33 32
f 95 32 96
f 95 18 33
f 97 95 96
f 97 17 18
f 98 57 8
f 98 8 99
f 100 39 13
f 100 13 59
f 100 59 49
f 100 49 39
f 101 102 103
f 101 103 8
f 101 8 102
f 104 8 103
f 104 103 99
f 104 99 8
f 105 103 102
f 106 62 61
f 106 61 1
f 107 41 64
f 107 108 41
f 109 5 64
f 109 64 63
f 109 63 5
f 110 47 72
f 111 46 47
f 112 113 35
f 112 35 34
f 112 34 58
f 114 69 7
f 114 7 35
f 114 35 113
f 114 113 67
f 114 67 69
f 115 67 113
f 115 113 112
f 116 70 24
f 117 74 73
f 117 73 47
f 117 47 22
f 117 22 45
f 117 45 14
f 117 14 75
f 117 75 3
f 118 27 4
f 118 4 119
f 118 50 27
f 120 83 78
f 120 78 79
f 121 30 10
f 121 10 84
f 121 84 50
f 122 81 85
f 122 85 4
f 122 4 81
f 123 44 41
f 123 41 108
f 123 108 124
f 125 77 37
f 125 37 52
f 126 79 88
f 126 120 79
f 127 88 87
f 128 88 79
f 128 79 60
f 128 60 77
f 129 86 130
f 129 89 86
f 131 53 92
f 131 92 28
f 131 28 16
f 132 87 89
f 133 93 30
f 134 108 107
f 135 136 137
f 135 137 5
f 135 5 136
f 138 5 94
f 138 94 136
f 138 136 5
f 139 95 97
f 139 97 18
f 139 18 95
f 140 103 105
f 141 142 58
f 141 58 57
f 143 144 145
f 143 140 105
f 143 105 102
f 146 107 64
f 146 64 5
f 147 102 8
f 148 62 106
f 149 66 150
f 149 150 148
f 149 148 106
f 149 106 1
f 149 1 66
f 151 46 111
f 151 111 152
f 153 150 66
f 154 155 74
f 154 74 117
f 154 117 3
f 154 3 71
f 156 110 72
f 157 158 159
f 160 115 161
f 160 161 158
f 162 161 115
f 162 115 112
f 163 70 116
f 163 154 71
f 163 71 70
f 164 85 83
f 164 83 120
f 164 120 126
f 164 118 119
f 164 119 4
f 164 4 85
f 165 121 50
f 165 50 118
f 166 21 44
f 166 44 123
f 166 123 124
f 167 168 124
f 167 124 108
f 169 32 21
f 169 170 96
f 169 96 32
f 171 168 89
f 171 124 168
f 172 118 164
f 172 164 126
f 172 173 165
f 172 165 118
f 174 88 127
f 174 173 172
f 174 172 126
f 174 126 88
f 175 130 86
f 175 86 88
f 175 88 128
f 176 89 129
f 176 129 90
f 177 16 90
f 177 90 129
f 177 129 130
f 178 53 131
f 178 179 125
f 178 125 52
f 178 52 53
f 180 93 133
f 180 87 132
f 181 121 165
f 181 165 173
f 181 173 174
f 181 174 127
f 181 127 133
f 181 133 30
f 181 30 121
f 182 87 180
f 182 180 133
f 182 133 127
f 182 127 87
f 183 184 142
f 185 99 103
f 185 103 140
f 185 98 99
f 186 5 137
f 186 137 134
f 187 188 189
f 190 153 66
f 190 66 65
f 190 65 46
f 190 46 151
f 191 68 67
f 191 7 68
f 192 7 191
f 193 15 7
f 193 7 192
f 193 192 191
f 193 194 23
f 193 23 15
f 195 196 197
f 198 187 189
f 199 200 159
f 199 159 158
f 199 158 161
f 199 161 200
f 201 200 161
f 201 142 184
f 201 184 200
f 202 58 142
f 202 142 201
f 202 201 161
f 202 161 162
f 202 162 112
f 202 112 58
f 203 154 163
f 203 163 204
f 203 155 154
f 205 55 54
f 206 94 55
f 206 55 205
f 206 205 207
f 206 136 94
f 208 134 137
f 208 167 108
f 208 108 134
f 209 166 124
f 209 124 171
f 209 169 21
f 209 21 166
f 210 77 125
f 210 125 179
f 210 130 175
f 210 175 128
f 210 128 77
f 211 90 17
f 211 176 90
f 212 170 169
f 212 169 209
f 212 209 171
f 213 179 178
f 213 178 131
f 213 131 16
f 213 16 177
f 213 177 130
f 213 130 210
f 213 210 179
f 214 145 183
f 214 183 140
f 214 140 143
f 214 143 145
f 215 98 185
f 215 185 140
f 215 142 141
f 215 141 57
f 215 57 98
f 216 188 187
f 217 146 5
f 217 5 186
f 217 186 134
f 217 134 107
f 217 107 146
f 218 144 143
f 219 153 190
f 220 144 218
f 220 218 221
f 220 145 144
f 222 188 216
f 223 224 189
f 223 189 188
f 223 188 225
f 226 224 227
f 226 227 156
f 228 224 223
f 228 223 225
f 228 227 224
f 229 110 156
f 229 156 227
f 229 227 228
f 230 160 158
f 230 115 160
f 231 163 116
f 232 195 156
f 232 233 196
f 232 196 195
f 234 159 187
f 234 187 198
f 234 198 197
f 234 197 235
f 234 235 157
f 234 157 159
f 236 237 155
f 236 155 203
f 236 203 204
f 236 204 237
f 238 180 132
f 238 93 180
f 239 93 238
f 239 205 54
f 239 54 93
f 240 136 206
f 240 206 207
f 240 208 137
f 240 137 136
f 241 97 96
f 241 96 170
f 241 170 212
f 241 211 17
f 241 17 97
f 242 89 176
f 242 176 211
f 242 211 241
f 242 241 212
f 242 212 171
f 242 171 89
f 243 183 142
f 243 142 215
f 243 215 140
f 243 140 183
f 244 184 183
f 244 222 216
f 244 216 200
f 244 200 184
f 245 200 216
f 245 216 187
f 245 187 159
f 245 159 200
f 246 218 143
f 246 143 102
f 247 219 190
f 248 153 219
f 248 221 218
f 248 218 249
f 248 249 148
f 248 148 150
f 248 150 153
f 250 145 220
f 250 220 251
f 250 251 252
f 250 222 145
f 253 145 222
f 253 222 244
f 253 244 183
f 253 183 145
f 254 225 188
f 254 188 222
f 254 222 250
f 254 250 252
f 255 198 189
f 255 226 156
f 255 156 195
f 255 195 197
f 255 197 198
f 256 257 258
f 259 258 257
f 259 257 256
f 259 111 47
f 259 47 110
f 259 110 229
f 259 229 258
f 260 252 251
f 260 251 261
f 260 261 256
f 260 228 225
f 260 225 254
f 260 254 252
f 262 67 115
f 262 115 230
f 262 230 191
f 262 191 67
f 263 230 158
f 264 204 163
f 264 163 231
f 265 237 204
f 265 204 266
f 265 266 196
f 265 196 233
f 265 233 232
f 265 232 156
f 265 156 72
f 265 72 74
f 265 74 155
f 265 155 237
f 267 205 239
f 267 239 238
f 268 89 168
f 268 168 267
f 268 267 238
f 268 238 132
f 268 132 89
f 269 221 248
f 269 248 219
f 269 251 220
f 269 220 221
f 270 246 102
f 270 102 147
f 270 147 8
f 270 8 62
f 270 62 148
f 270 148 249
f 270 249 218
f 270 218 246
f 271 226 255
f 271 255 189
f 271 189 224
f 271 224 226
f 272 151 152
f 272 247 190
f 272 190 151
f 273 258 229
f 273 229 228
f 273 228 260
f 273 260 256
f 273 256 258
f 274 263 158
f 274 158 157
f 275 207 205
f 275 205 267
f 275 267 168
f 275 168 167
f 275 167 208
f 275 208 240
f 275 240 207
f 276 247 272
f 276 256 261
f 276 261 251
f 276 251 269
f 276 269 219
f 276 219 247
f 277 259 272
f 277 272 152
f 277 152 111
f 277 111 259
f 278 274 157
f 278 157 235
f 278 235 197
f 279 194 193
f 279 230 263
f 279 263 274
f 280 259 256
f 280 256 276
f 280 276 272
f 280 272 259
f 281 278 197
f 281 197 196
f 282 191 230
f 282 230 279
f 282 279 193
f 282 193 191
f 283 194 279
f 283 231 116
f 283 116 24
f 283 24 23
f 283 23 194
f 284 231 283
f 284 274 278
f 285 266 204
f 285 204 264
f 285 264 231
f 285 231 284
f 285 284 278
f 285 278 281
f 285 281 196
f 285 196 266
f 286 279 274
f 286 274 284
f 286 284 283
f 286 283 279
