# Normalized convex hull collision mesh - generated by scripts/generate-collision-meshes.mjs (units: meters)
v 0.003564 0.011000 -0.004528
v 0.004101 0.010966 0.001566
v 0.004101 0.010966 0.001415
v 0.004864 0.010821 0.001566
v 0.004101 0.010963 0.001574
v 0.004864 0.010818 0.001574
v 0.004330 0.010934 -0.004528
v 0.003331 0.010995 0.001566
v 0.008629 0.008034 -0.004528
v 0.008879 0.007676 0.001415
v 0.008905 0.007633 -0.004528
v 0.007854 -0.007118 -0.005000
v 0.002165 -0.009345 -0.005000
v 0.002294 0.009379 -0.005000
v 0.010964 -0.001109 -0.004528
v 0.011000 -0.000084 -0.004528
v 0.010991 -0.000569 0.001415
v -0.002969 -0.005409 0.001590
v -0.003313 -0.004398 0.001590
v -0.010997 -0.000085 -0.002321
v -0.003897 -0.001131 0.001590
v -0.003937 -0.000002 0.001590
v -0.011000 -0.000020 -0.002313
v -0.003779 -0.002248 0.001590
v 0.002381 0.000021 0.004985
v -0.003897 0.001126 0.001590
v 0.002505 -0.000766 0.004985
v -0.003584 -0.003340 0.001590
v -0.010999 -0.000054 -0.002316
v 0.001810 -0.010685 0.001590
v 0.003109 -0.001569 0.004985
v 0.001073 -0.010369 0.001590
v 0.003377 -0.001670 0.004985
v 0.002566 -0.010887 0.001590
v -0.002565 0.006365 0.001582
v -0.002557 0.006357 0.001590
v -0.002087 0.007252 0.001582
v 0.002681 0.001134 0.004985
v 0.002520 0.000803 0.004985
v -0.002969 0.005404 0.001590
v -0.003313 0.004393 0.001590
v 0.002489 0.000356 0.005000
v 0.002923 -0.001292 0.005000
v 0.002577 0.000708 0.005000
v 0.002418 0.000425 0.004985
v -0.003779 0.002243 0.001590
v 0.002403 0.000021 0.004993
v -0.003584 0.003336 0.001590
v -0.002970 -0.000002 -0.005000
v 0.007892 0.007065 -0.005000
v 0.010971 0.000945 -0.004528
v 0.010912 0.001691 0.001566
v 0.010991 0.000564 0.001566
v 0.010975 0.000471 -0.004686
v 0.010933 0.001365 -0.004640
v 0.002877 0.001414 0.004976
v 0.001073 0.010364 0.001590
v 0.000361 0.009939 0.001590
v -0.000317 0.009407 0.001590
v 0.008879 0.007676 0.001566
v 0.009367 0.006860 -0.004528
v 0.007038 0.009708 0.001566
v 0.007698 0.009125 0.001566
v 0.007092 0.009668 -0.004528
v 0.005094 0.010752 -0.004528
v 0.004864 0.010821 0.001415
v 0.009578 0.006425 -0.004656
v 0.009778 0.006029 -0.004528
v 0.009387 0.006825 0.001566
v 0.009833 0.005902 0.001566
v 0.002869 -0.009507 -0.005000
v 0.009132 -0.004817 -0.005000
v 0.005613 -0.010565 0.001566
v 0.005649 -0.010550 -0.004528
v 0.006341 -0.010193 0.001566
v 0.006375 -0.010174 -0.004528
v 0.007038 -0.009713 0.001566
v -0.010954 0.000395 -0.002421
v -0.001550 0.008063 0.001582
v -0.010950 -0.000420 -0.002430
v -0.001550 -0.008068 0.001582
v -0.010954 -0.000400 -0.002421
v -0.010945 -0.000432 -0.002440
v -0.000963 -0.008799 0.001574
v 0.000058 -0.009761 -0.002210
v -0.000149 -0.009585 -0.004528
v 0.000193 -0.009851 -0.004528
v 0.003898 -0.001465 0.005000
v -0.002087 -0.007257 0.001582
v -0.002080 -0.007248 0.001590
v -0.001544 -0.008057 0.001590
v 0.002660 -0.001104 0.004985
v -0.002977 -0.005415 0.001582
v -0.002565 -0.006370 0.001582
v -0.010957 -0.000374 -0.002413
v 0.002410 -0.000383 0.004985
v 0.002432 -0.000376 0.004993
v -0.002557 -0.006362 0.001590
v 0.004099 -0.010946 0.001590
v 0.004861 -0.010800 0.001590
v 0.003654 -0.001673 0.004985
v 0.004160 -0.010962 -0.004528
v 0.004544 -0.010899 -0.004528
v 0.004101 -0.010971 0.001566
v 0.003331 -0.011000 0.001566
v 0.003773 -0.010995 -0.004528
v 0.000361 -0.009943 0.001590
v -0.000317 -0.009412 0.001590
v 0.000544 -0.010092 -0.004528
v 0.001067 -0.010393 0.001566
v 0.000354 -0.009966 0.001566
v -0.002080 0.007243 0.001590
v -0.002977 0.005411 0.001582
v 0.002467 0.000406 0.004998
v 0.001810 0.010680 0.001590
v 0.001067 0.010388 0.001566
v 0.001806 0.010705 0.001566
v 0.001439 0.010561 -0.004528
v 0.001067 0.010388 0.001415
v 0.002563 0.010908 0.001566
v 0.002803 0.010950 -0.004528
v -0.001727 -0.005623 -0.005000
v 0.005557 0.009070 -0.005000
v -0.001692 0.005690 -0.005000
v 0.003915 0.010968 -0.004656
v 0.010865 0.002078 -0.004528
v 0.010782 0.002633 -0.004528
v 0.010755 0.002799 0.001566
v 0.010991 0.000564 0.001415
v 0.010928 0.001514 -0.004528
v 0.010989 0.000286 -0.004640
v 0.000355 0.009959 0.001574
v 0.000354 0.009961 0.001566
v -0.000063 0.009660 0.000273
v -0.000230 0.009521 -0.002409
v -0.000221 0.009528 0.000362
v 0.008877 0.007674 0.001574
v 0.008312 0.008443 0.001574
v 0.008314 0.008445 0.001566
v 0.008339 0.008413 -0.004528
v 0.008314 0.008445 0.001415
v 0.007037 0.009706 0.001574
v 0.005613 0.010560 0.001566
v 0.005613 0.010560 0.001415
v 0.003331 0.010995 0.001415
v 0.003331 0.010984 0.001582
v 0.002566 0.010883 0.001590
v 0.003332 0.010970 0.001590
v 0.004099 0.010941 0.001590
v 0.010212 0.004916 0.001566
v 0.010521 0.003878 0.001566
v 0.010425 0.004239 -0.004528
v 0.010132 0.005152 -0.004528
v 0.009833 0.005902 0.001415
v 0.009901 0.005716 -0.004652
v 0.009133 0.007245 -0.004656
v 0.010681 0.003182 -0.004528
v 0.010521 0.003878 0.001415
v 0.010592 0.003554 -0.004640
v 0.010538 0.003736 -0.004686
v 0.010437 0.004075 -0.004727
v 0.010330 0.004496 -0.004686
v 0.007728 0.009096 -0.004528
v 0.007698 0.009125 0.001415
v 0.009387 0.006825 0.001415
v 0.009884 0.001914 -0.005000
v 0.010743 -0.002819 -0.004652
v 0.010678 -0.003209 -0.004528
v 0.010580 -0.003605 -0.004652
v 0.010755 -0.002804 0.001415
v 0.010755 -0.002804 0.001566
v 0.010864 -0.002115 -0.004528
v 0.007698 -0.009130 0.001566
v 0.008314 -0.008450 0.001566
v 0.008312 -0.008448 0.001574
v 0.009509 -0.006591 -0.004528
v 0.009734 -0.006127 -0.004528
v 0.009387 -0.006830 0.001566
v 0.009387 -0.006830 0.001415
v 0.007030 -0.009691 0.001590
v 0.003923 -0.001578 0.004985
v 0.006334 -0.010170 0.001590
v 0.007065 -0.009693 -0.004528
v 0.006567 -0.010040 -0.004640
v 0.006340 -0.010190 0.001574
v 0.005609 -0.010541 0.001590
v 0.006341 -0.010193 0.001415
v -0.010950 0.000415 -0.002430
v -0.010999 0.000049 -0.002316
v -0.001554 -0.008074 0.001574
v -0.000063 -0.009665 -0.002316
v -0.000221 -0.009533 -0.002405
v -0.000960 -0.008792 0.001582
v -0.010993 -0.000111 -0.002328
v -0.010990 -0.000131 -0.002337
v -0.010980 -0.000147 -0.002359
v -0.010971 0.000126 -0.002380
v -0.010990 0.000126 -0.002337
v 0.002586 -0.000737 0.005000
v 0.002459 -0.000367 0.004998
v 0.002550 -0.000732 0.004998
v 0.002525 -0.000751 0.004993
v 0.002698 -0.001055 0.004998
v 0.004101 -0.010971 0.001415
v 0.001068 -0.010390 0.001574
v 0.001806 -0.010709 0.001566
v 0.001264 -0.010490 -0.004528
v 0.000355 -0.009964 0.001574
v -0.000326 -0.009434 0.001566
v -0.000965 -0.008802 0.001566
v 0.000165 -0.009840 -0.000078
v 0.000165 -0.009840 -0.001965
v 0.000136 -0.009819 0.000051
v 0.000136 -0.009819 -0.002092
v 0.000354 -0.009966 0.001415
v 0.001067 -0.010393 0.001415
v 0.000954 -0.010321 -0.004640
v 0.000110 -0.009777 -0.004640
v 0.009373 -0.006814 0.001590
v 0.009819 -0.005893 0.001590
v 0.004376 -0.001123 0.004985
v 0.009833 -0.005907 0.001566
v 0.004470 0.000708 0.005000
v 0.010895 0.001687 0.001590
v 0.004667 -0.000017 0.004985
v 0.010974 0.000563 0.001590
v 0.010984 0.000563 0.001582
v 0.010912 -0.001695 0.001566
v 0.010912 -0.001695 0.001415
v 0.002540 0.000788 0.004993
v 0.002698 0.001112 0.004993
v 0.002719 0.001084 0.004998
v 0.002889 0.001357 0.004993
v -0.000506 0.009076 -0.004839
v -0.000265 0.009132 -0.004903
v -0.000677 0.008861 -0.004861
v -0.000906 0.008694 -0.004823
v 0.000777 0.010227 -0.004528
v 0.000594 0.010099 -0.004656
v 0.000420 0.010004 -0.004528
v 0.001806 0.010705 0.001415
v 0.001807 0.010702 0.001574
v -0.003501 -0.001461 -0.004959
v -0.003586 -0.001785 -0.004927
v -0.003641 -0.001190 -0.004928
v -0.000310 -0.007714 -0.005000
v 0.003643 0.009551 -0.005000
v -0.000720 0.007232 -0.005000
v -0.002622 0.003080 -0.005000
v 0.004714 0.010857 -0.004528
v 0.003110 0.010972 -0.004640
v 0.002628 0.010909 -0.004640
v 0.003332 0.010852 -0.004830
v 0.003848 0.010853 -0.004823
v 0.003399 0.010727 -0.004893
v 0.010974 -0.000567 0.001590
v 0.010895 -0.001691 0.001590
v 0.010912 0.001691 0.001415
v 0.010932 -0.000002 -0.004795
v 0.010945 0.000858 -0.004727
v 0.010930 0.001289 -0.004686
v 0.010974 -0.000555 -0.004686
v 0.010926 -0.001373 -0.004686
v 0.000357 0.009951 0.001582
v 0.000157 0.009830 -0.000014
v 0.000165 0.009835 -0.000078
v 0.000136 0.009814 0.000050
v 0.000354 0.009961 0.001415
v 0.000058 0.009756 0.000167
v -0.000960 0.008788 0.001582
v -0.000963 0.008794 0.001574
v -0.001544 0.008053 0.001590
v -0.000954 0.008777 0.001590
v -0.000070 0.009654 -0.002321
v 0.000071 0.009754 -0.004528
v 0.007038 0.009708 0.001415
v 0.006468 0.010111 -0.004528
v 0.007034 0.009698 0.001582
v 0.006334 0.010165 0.001590
v 0.007030 0.009686 0.001590
v 0.005611 0.010549 0.001582
v 0.005609 0.010536 0.001590
v 0.005613 0.010558 0.001574
v 0.006341 0.010188 0.001566
v 0.003331 0.010992 0.001574
v 0.004100 0.010955 0.001582
v 0.010212 0.004916 0.001415
v 0.007734 0.008724 -0.004903
v 0.007814 0.008460 -0.004939
v 0.007129 0.009186 -0.004928
v 0.008486 0.008204 -0.004656
v 0.009237 0.007037 -0.004707
v 0.008737 0.007859 -0.004656
v 0.010852 0.002116 -0.004640
v 0.010755 0.002799 0.001415
v 0.010705 0.003016 -0.004640
v 0.010060 0.005320 -0.004640
v 0.010183 0.004951 -0.004686
v 0.010019 0.005399 -0.004686
v 0.010271 0.004719 -0.004640
v 0.006942 0.009771 -0.004640
v 0.007360 0.009429 -0.004640
v 0.007169 0.009575 -0.004686
v 0.004389 0.001096 0.004985
v 0.009819 0.005888 0.001590
v 0.009373 0.006809 0.001590
v 0.008866 0.007658 0.001590
v 0.009385 0.006823 0.001574
v 0.007295 -0.007779 -0.005000
v 0.008198 -0.007004 -0.004998
v 0.007135 -0.008260 -0.004998
v 0.006174 -0.008726 -0.005000
v 0.002994 -0.009902 -0.004995
v 0.002617 -0.009844 -0.004995
v 0.002760 -0.009974 -0.004991
v 0.003134 -0.010202 -0.004981
v 0.002360 -0.010075 -0.004981
v 0.009971 -0.001145 -0.005000
v 0.008365 -0.006364 -0.005000
v 0.005092 -0.010112 -0.004967
v 0.005747 -0.009766 -0.004975
v 0.005627 -0.010035 -0.004950
v 0.006099 -0.009657 -0.004967
v 0.010826 -0.002324 -0.004640
v 0.010801 -0.002426 -0.004686
v 0.010876 -0.001875 -0.004686
v 0.007698 -0.009130 0.001415
v 0.007657 -0.009170 -0.004528
v 0.008879 -0.007681 0.001566
v 0.008877 -0.007679 0.001574
v 0.009012 -0.007468 -0.004528
v 0.008879 -0.007681 0.001415
v 0.008218 -0.008563 -0.004528
v 0.008314 -0.008450 0.001415
v 0.007038 -0.009713 0.001415
v 0.007327 -0.009462 -0.004640
v 0.007037 -0.009710 0.001574
v 0.004864 -0.010825 0.001566
v 0.004924 -0.010808 -0.004528
v 0.005613 -0.010565 0.001415
v 0.006158 -0.009878 -0.004928
v 0.006621 -0.009463 -0.004950
v -0.003677 -0.000002 -0.004932
v -0.010881 0.000015 -0.002589
v -0.003698 0.000366 -0.004923
v -0.003585 -0.000002 -0.004956
v -0.001554 0.008069 0.001574
v -0.000326 0.009429 0.001566
v -0.010931 -0.000420 -0.002473
v -0.001658 -0.007625 -0.004872
v -0.001374 -0.008119 -0.004832
v 0.000055 -0.009758 0.000173
v 0.003380 -0.001638 0.004993
v 0.003117 -0.001539 0.004993
v 0.003127 -0.001500 0.004998
v 0.003384 -0.001597 0.004998
v 0.004169 -0.001390 0.004985
v 0.004359 -0.001102 0.004993
v 0.004156 -0.001363 0.004993
v 0.007688 -0.009109 0.001590
v 0.008303 -0.008431 0.001590
v 0.002865 -0.001377 0.004985
v 0.002878 -0.001350 0.004993
v -0.000954 -0.008781 0.001590
v -0.000325 -0.009431 0.001574
v -0.011000 0.000015 -0.002313
v 0.002431 0.000020 0.004998
v 0.002494 -0.000388 0.005000
v 0.002894 -0.001316 0.004998
v 0.002732 -0.001045 0.005000
v 0.002677 -0.001082 0.004993
v 0.003332 -0.010975 0.001590
v 0.003331 -0.010988 0.001582
v 0.004100 -0.010959 0.001582
v 0.004101 -0.010968 0.001574
v 0.003331 -0.010997 0.001574
v 0.002563 -0.010912 0.001566
v 0.002004 -0.010775 -0.004528
v 0.002563 -0.010912 0.001415
v 0.001807 -0.010707 0.001574
v 0.001806 -0.010709 0.001415
v 0.000357 -0.009956 0.001582
v -0.000070 -0.009659 0.000280
v -0.000231 -0.009524 0.000366
v 0.000157 -0.009834 -0.002029
v -0.001046 -0.008431 -0.004872
v -0.000294 -0.009431 -0.004686
v 0.000341 -0.009944 -0.004640
v 0.000309 -0.009823 -0.004795
v 0.000635 -0.010099 -0.004727
v 0.000418 -0.009981 -0.004686
v 0.001165 -0.010415 -0.004686
v 0.001710 -0.010664 -0.004640
v 0.002948 -0.010852 -0.004809
v 0.002703 -0.010714 -0.004872
v 0.003140 -0.010839 -0.004832
v 0.008866 -0.007663 0.001590
v 0.008309 -0.008441 0.001582
v 0.009833 -0.005907 0.001415
v 0.009826 -0.005901 0.001582
v 0.004636 0.000383 0.004985
v 0.010910 0.001690 0.001574
v 0.010989 0.000564 0.001574
v 0.002565 0.000768 0.004998
v 0.002440 0.000417 0.004993
v 0.001131 0.010401 -0.004656
v 0.000982 0.010304 -0.004707
v 0.002117 0.010803 -0.004528
v 0.002329 0.010844 -0.004652
v 0.001815 0.010691 -0.004656
v 0.002564 0.010896 0.001582
v -0.002407 -0.003893 -0.005000
v -0.003543 -0.000729 -0.004961
v -0.003505 -0.002363 -0.004928
v -0.003345 -0.002609 -0.004959
v -0.003407 -0.002942 -0.004927
v -0.003282 -0.003506 -0.004928
v -0.003379 -0.003241 -0.004915
v 0.001761 -0.009472 -0.004998
v -0.000653 -0.008641 -0.004930
v -0.000424 -0.008649 -0.004962
v -0.000313 -0.008984 -0.004928
v -0.001271 -0.006445 -0.005000
v -0.002003 -0.005505 -0.004998
v 0.000934 -0.008763 -0.005000
v 0.004932 0.009323 -0.005000
v 0.005348 0.009571 -0.004995
v -0.002925 0.001118 -0.005000
v 0.004930 0.010785 -0.004656
v 0.005420 0.010621 -0.004656
v 0.005815 0.010469 -0.004528
v 0.005579 0.010537 -0.004707
v 0.005077 0.010451 -0.004903
v 0.005331 0.010532 -0.004823
v 0.005649 0.010335 -0.004862
v 0.003414 0.010984 -0.004652
v 0.002969 0.010870 -0.004795
v 0.003166 0.010917 -0.004763
v 0.002551 0.010751 -0.004837
v 0.002686 0.010860 -0.004763
v 0.006852 0.008203 -0.005000
v 0.006012 0.009243 -0.004995
v 0.005557 0.009643 -0.004988
v 0.006475 0.008931 -0.004995
v 0.006583 0.008725 -0.004998
v 0.010991 -0.000569 0.001566
v 0.010984 -0.000568 0.001582
v 0.010900 -0.000544 -0.004823
v 0.010912 -0.000817 -0.004795
v 0.010910 0.000813 -0.004795
v 0.010848 0.001623 -0.004795
v 0.010870 0.001080 -0.004823
v 0.010944 -0.000915 -0.004727
v 0.010988 -0.000398 -0.004640
v 0.010982 -0.000043 -0.004686
v 0.001068 0.010385 0.001574
v 0.000056 0.009753 -0.002215
v 0.006340 0.010186 0.001574
v 0.010519 0.003877 0.001574
v 0.010197 0.004905 0.001590
v 0.010504 0.003869 0.001590
v 0.010205 0.004911 0.001582
v 0.007188 0.009335 -0.004872
v 0.006695 0.009597 -0.004912
v 0.010897 0.001742 -0.004640
v 0.010658 0.003204 -0.004686
v 0.010403 0.000847 -0.004985
v 0.010571 -0.000002 -0.004967
v 0.010343 -0.000002 -0.004991
v 0.009988 0.002433 -0.004998
v 0.010266 0.001494 -0.004991
v 0.010187 0.000496 -0.004998
v 0.009671 0.004352 -0.004991
v 0.009792 0.003371 -0.004998
v 0.009160 0.005255 -0.004998
v 0.008400 0.006305 -0.005000
v 0.009222 0.004583 -0.005000
v 0.010480 0.002335 -0.004950
v 0.010259 0.003055 -0.004967
v 0.010413 0.003125 -0.004928
v 0.010168 0.003834 -0.004950
v 0.007489 0.009296 -0.004686
v 0.007477 0.009269 -0.004745
v 0.004372 0.001075 0.004993
v 0.004186 0.001368 0.004985
v 0.008873 0.007668 0.001582
v 0.009826 0.005896 0.001582
v -0.000503 -0.008859 -0.004917
v -0.000596 -0.008792 -0.004910
v 0.000091 -0.009409 -0.004910
v -0.000087 -0.009264 -0.004910
v 0.000025 -0.009269 -0.004930
v 0.000192 -0.009462 -0.004917
v -0.000375 -0.009130 -0.004872
v 0.001500 -0.010177 -0.004930
v 0.001721 -0.010076 -0.004962
v 0.001919 -0.010345 -0.004928
v 0.006461 -0.009199 -0.004985
v 0.007926 -0.007665 -0.004991
v 0.008302 -0.007159 -0.004991
v 0.007454 -0.008356 -0.004985
v 0.008163 -0.007709 -0.004975
v 0.007604 -0.008368 -0.004975
v 0.007776 -0.007847 -0.004991
v 0.007632 -0.008012 -0.004991
v 0.004236 -0.009497 -0.005000
v 0.003523 -0.010036 -0.004991
v 0.003746 -0.009927 -0.004995
v 0.004287 -0.009973 -0.004991
v 0.002139 -0.010240 -0.004959
v 0.010850 -0.000002 -0.004872
v 0.010733 -0.000002 -0.004928
v 0.010775 0.000798 -0.004903
v 0.007918 -0.008109 -0.004967
v 0.008376 -0.007697 -0.004950
v 0.008018 -0.008295 -0.004928
v 0.007621 -0.008844 -0.004903
v 0.008091 -0.008429 -0.004872
v 0.010016 -0.000096 -0.005000
v 0.009692 -0.002998 -0.005000
v 0.010185 -0.000590 -0.004998
v 0.010339 -0.000403 -0.004991
v 0.010332 -0.000603 -0.004991
v 0.010284 -0.001350 -0.004991
v 0.009863 -0.003421 -0.004995
v 0.010019 -0.002715 -0.004995
v 0.009929 -0.003457 -0.004991
v 0.009723 -0.003845 -0.004996
v 0.009949 -0.002661 -0.004998
v 0.008775 -0.005617 -0.005000
v 0.005606 -0.009689 -0.004985
v 0.005360 -0.009667 -0.004991
v 0.005846 -0.009439 -0.004991
v 0.008190 -0.008562 -0.004686
v 0.008142 -0.008523 -0.004795
v 0.008457 -0.008231 -0.004686
v 0.008381 -0.008347 -0.004640
v 0.007697 -0.009009 -0.004795
v 0.007692 -0.009080 -0.004727
v 0.007229 -0.009443 -0.004795
v 0.010129 -0.005160 -0.004528
v 0.010277 -0.004701 -0.004640
v 0.010212 -0.004921 0.001415
v 0.010212 -0.004921 0.001566
v 0.010446 -0.004168 -0.004528
v 0.010521 -0.003883 0.001415
v 0.009643 -0.006300 -0.004640
v 0.010167 -0.002284 -0.004991
v 0.010913 -0.001621 -0.004640
v 0.008740 -0.007878 -0.004528
v 0.008914 -0.007604 -0.004640
v 0.008469 -0.007845 -0.004903
v 0.007453 -0.009333 -0.004686
v 0.007156 -0.009590 -0.004686
v 0.007034 -0.009703 0.001582
v 0.005253 -0.010693 -0.004640
v 0.004354 -0.010922 -0.004640
v 0.004609 -0.010874 -0.004640
v 0.004864 -0.010825 0.001415
v 0.005613 -0.010562 0.001574
v 0.003233 -0.010677 -0.004908
v 0.003129 -0.010597 -0.004927
v 0.003330 -0.010657 -0.004915
v -0.002582 -0.005646 -0.004928
v -0.002715 -0.005414 -0.004917
v -0.002781 -0.005136 -0.004930
v -0.002566 -0.005315 -0.004962
v -0.002355 -0.005806 -0.004962
v -0.010882 -0.000054 -0.002587
v -0.003239 -0.003815 -0.004917
v -0.002459 -0.006045 -0.004910
v -0.002342 -0.006289 -0.004910
v -0.010884 -0.000085 -0.002582
v -0.010881 -0.000020 -0.002589
v -0.003641 0.001185 -0.004928
v -0.003501 0.001456 -0.004959
v -0.000965 0.008797 0.001566
v -0.000325 0.009427 0.001574
v -0.000932 0.008746 -0.004763
v -0.010936 0.000428 -0.002462
v -0.000847 0.008854 -0.004745
v -0.001208 0.008367 -0.004809
v -0.001365 0.008127 -0.004832
v -0.010931 0.000415 -0.002473
v -0.010906 0.000138 -0.002533
v -0.010906 -0.000143 -0.002533
v -0.010957 0.000369 -0.002413
v -0.010941 0.000432 -0.002451
v -0.000247 0.009479 -0.004656
v -0.000398 0.009323 -0.004707
v -0.010936 -0.000432 -0.002462
v -0.000915 -0.008710 -0.004809
v -0.000765 -0.008959 -0.004727
v -0.002205 -0.006723 -0.004872
v 0.003396 -0.001554 0.005000
v 0.003651 -0.001640 0.004993
v 0.003915 -0.001547 0.004993
v 0.003905 -0.001508 0.004998
v 0.004553 -0.000388 0.005000
v 0.004532 -0.000793 0.004985
v 0.010197 -0.004910 0.001590
v 0.010504 -0.003874 0.001590
v -0.010997 0.000080 -0.002321
v 0.002461 -0.000016 0.005000
v 0.004863 -0.010814 0.001582
v 0.001808 -0.010698 0.001582
v -0.000322 -0.009424 0.001582
v -0.000763 -0.008619 -0.004910
v -0.000447 -0.009311 -0.004640
v -0.000588 -0.009160 -0.004686
v -0.000097 -0.009575 -0.004727
v 0.000119 -0.009664 -0.004809
v 0.000345 -0.009715 -0.004872
v 0.000804 -0.010222 -0.004686
v 0.001936 -0.010727 -0.004686
v 0.003386 -0.011000 -0.004528
v 0.003331 -0.011000 0.001415
v 0.002690 -0.010934 -0.004528
v 0.002921 -0.010955 -0.004640
v 0.002694 -0.010834 -0.004795
v 0.002187 -0.010780 -0.004727
v 0.002445 -0.010770 -0.004809
v 0.008873 -0.007673 0.001582
v 0.009385 -0.006828 0.001574
v 0.009831 -0.005905 0.001574
v 0.010205 -0.004916 0.001582
v 0.010521 -0.003883 0.001566
v 0.007694 0.009116 0.001582
v 0.007688 0.009104 0.001590
v 0.008303 0.008426 0.001590
v 0.004165 0.001390 0.004985
v 0.002908 0.001271 0.005000
v 0.004497 0.000728 0.004998
v 0.004351 0.001048 0.004998
v 0.010738 0.002793 0.001590
v -0.001046 0.008428 -0.004872
v -0.000949 0.008508 -0.004883
v -0.000551 0.009172 -0.004720
v 0.002006 0.010734 -0.004707
v 0.001509 0.010526 -0.004751
v 0.001668 0.010617 -0.004707
v 0.002185 0.010779 -0.004720
v 0.001312 0.010468 -0.004707
v 0.001906 0.010599 -0.004823
v 0.002078 0.010649 -0.004826
v 0.001661 0.010488 -0.004839
v 0.002885 0.010934 -0.004686
v 0.002541 0.010879 -0.004686
v 0.002563 0.010908 0.001415
v 0.002564 0.010905 0.001574
v 0.001808 0.010693 0.001582
v -0.001575 -0.007503 -0.004928
v -0.001845 -0.007072 -0.004930
v -0.001612 -0.007171 -0.004962
v -0.001273 -0.007914 -0.004930
v -0.001447 -0.007752 -0.004917
v -0.001877 -0.006736 -0.004962
v -0.002114 -0.006616 -0.004928
v -0.001380 -0.007874 -0.004910
v -0.001228 -0.008074 -0.004910
v -0.002759 -0.004804 -0.004962
v -0.002926 -0.004299 -0.004962
v -0.002827 -0.004502 -0.004967
v -0.001407 -0.006936 -0.004991
v -0.001300 -0.007098 -0.004991
v -0.001609 -0.006799 -0.004985
v -0.001664 -0.006518 -0.004991
v -0.003161 -0.001379 -0.004995
v -0.003254 -0.001126 -0.004991
v -0.003261 -0.000002 -0.004993
v -0.003118 -0.000539 -0.004998
v -0.003480 0.001158 -0.004967
v -0.002117 -0.004737 -0.005000
v -0.002814 -0.002083 -0.005000
v -0.002385 -0.004568 -0.004998
v -0.002679 -0.003626 -0.004998
v -0.003235 -0.003172 -0.004959
v -0.002833 -0.003974 -0.004985
v -0.002505 -0.004957 -0.004985
v -0.003129 -0.003428 -0.004967
v -0.003149 -0.002831 -0.004981
v -0.000500 -0.008260 -0.004985
v -0.000105 -0.008499 -0.004991
v 0.000150 -0.008867 -0.004985
v 0.002006 -0.009786 -0.004991
v 0.001546 -0.009737 -0.004985
v 0.001955 -0.010113 -0.004967
v 0.001196 -0.009791 -0.004967
v 0.001090 -0.009144 -0.004998
v 0.000413 -0.008688 -0.004998
v 0.000344 -0.008880 -0.004991
v 0.000564 -0.009043 -0.004991
v -0.000090 -0.008959 -0.004962
v 0.000257 -0.009243 -0.004962
v -0.000811 -0.007117 -0.005000
v -0.000224 -0.008127 -0.004998
v 0.001541 -0.009100 -0.005000
v 0.000290 -0.008287 -0.005000
v 0.004651 0.009801 -0.004995
v 0.004835 0.009910 -0.004988
v 0.005030 0.010052 -0.004975
v 0.004369 0.010157 -0.004980
v 0.002996 0.009521 -0.005000
v 0.003335 0.009813 -0.004998
v 0.003013 0.010006 -0.004991
v 0.003327 0.010212 -0.004981
v 0.003331 0.010030 -0.004991
v -0.001232 0.006504 -0.005000
v -0.001019 0.007191 -0.004998
v 0.002641 0.009731 -0.004998
v -0.002816 0.002060 -0.005000
v -0.002959 0.000559 -0.005000
v 0.002976 0.010750 -0.004872
v 0.001583 0.010413 -0.004862
v 0.002151 0.010507 -0.004903
v 0.002605 0.010126 -0.004981
v 0.003688 0.010136 -0.004986
v 0.003324 0.010365 -0.004967
v 0.003866 0.010085 -0.004988
v 0.004209 0.010046 -0.004988
v 0.004015 0.009915 -0.004995
v 0.005219 0.010675 -0.004707
v 0.005136 0.010675 -0.004751
v 0.006110 0.010303 -0.004656
v 0.006341 0.010188 0.001415
v 0.004101 0.010807 -0.004839
v 0.004183 0.010755 -0.004862
v 0.005729 0.010444 -0.004751
v 0.006097 0.010007 -0.004903
v 0.006468 0.009784 -0.004903
v 0.005887 0.009987 -0.004935
v 0.006484 0.009916 -0.004846
v 0.004892 0.010507 -0.004903
v 0.005058 0.010280 -0.004945
v 0.007598 0.008546 -0.004959
v 0.008058 0.008051 -0.004956
v 0.007390 0.008670 -0.004967
v 0.007310 0.008851 -0.004956
v 0.006863 0.009813 -0.004686
v 0.006607 0.009928 -0.004779
v 0.006334 0.010090 -0.004789
v 0.003610 0.010699 -0.004903
v 0.003983 0.010678 -0.004903
v 0.004345 0.010630 -0.004903
v 0.004532 0.010595 -0.004903
v 0.002984 0.010578 -0.004928
v 0.007184 0.008208 -0.004998
v 0.007821 0.007671 -0.004995
v 0.008225 0.007539 -0.004980
v 0.007621 0.008151 -0.004986
v 0.008607 0.007305 -0.004956
v 0.006224 0.008687 -0.005000
v 0.010910 -0.001695 0.001574
v 0.001069 0.010377 0.001582
v 0.000165 0.009835 -0.001965
v 0.000136 0.009814 -0.002093
v 0.006338 0.010178 0.001582
v 0.010513 0.003874 0.001582
v 0.010210 0.004915 0.001574
v 0.004542 0.000762 0.004985
v 0.007558 0.008937 -0.004893
v 0.007963 0.008682 -0.004823
v 0.007484 0.009148 -0.004837
v 0.006960 0.009617 -0.004823
v 0.010874 0.001854 -0.004686
v 0.010904 0.001572 -0.004686
v 0.010815 0.002003 -0.004779
v 0.010767 0.001605 -0.004872
v 0.010652 0.001579 -0.004928
v 0.010614 0.002380 -0.004903
v 0.010666 0.002397 -0.004872
v 0.010711 0.002932 -0.004686
v 0.010334 0.000507 -0.004991
v 0.010266 0.002185 -0.004985
v 0.009723 0.002843 -0.005000
v 0.008845 0.005472 -0.005000
v 0.010552 0.002359 -0.004928
v 0.010492 0.001544 -0.004967
v 0.010201 0.004728 -0.004795
v 0.010422 0.003981 -0.004795
v 0.010033 0.005137 -0.004823
v 0.010071 0.005167 -0.004763
v 0.010603 0.003212 -0.004795
v 0.010772 0.002498 -0.004727
v 0.009468 0.006612 -0.004707
v 0.009975 0.005362 -0.004795
v 0.009859 0.005464 -0.004861
v 0.009773 0.005695 -0.004855
v 0.009528 0.006323 -0.004823
v 0.008026 0.008761 -0.004656
v 0.007608 0.009196 -0.004652
v 0.004173 0.001341 0.004993
v 0.009381 0.006818 0.001582
v -0.000164 -0.009173 -0.004917
v -0.000739 -0.008861 -0.004832
v 0.005320 -0.009458 -0.004998
v 0.006558 -0.008748 -0.004998
v 0.006751 -0.008294 -0.005000
v 0.006583 -0.009347 -0.004967
v 0.007214 -0.008442 -0.004991
v 0.003587 -0.009554 -0.005000
v 0.003367 -0.009930 -0.004995
v 0.002734 -0.010307 -0.004967
v 0.003523 -0.010371 -0.004967
v 0.010829 0.000804 -0.004872
v 0.007544 -0.008677 -0.004950
v 0.006882 -0.009637 -0.004849
v 0.006739 -0.009824 -0.004795
v 0.008189 -0.007489 -0.004985
v 0.009982 0.000965 -0.005000
v 0.009863 -0.002084 -0.005000
v 0.009417 -0.004610 -0.004998
v 0.010085 -0.001805 -0.004998
v 0.004686 -0.010074 -0.004981
v 0.004312 -0.010306 -0.004967
v 0.003912 -0.010202 -0.004981
v 0.004907 -0.010239 -0.004959
v 0.005668 -0.010229 -0.004903
v 0.006201 -0.010038 -0.004872
v 0.005683 -0.010304 -0.004872
v 0.005154 -0.010512 -0.004872
v 0.007915 -0.008874 -0.004686
v 0.008019 -0.008777 -0.004640
v 0.007516 -0.009097 -0.004849
v 0.009856 -0.005830 -0.004640
v 0.009702 -0.006148 -0.004686
v 0.010181 -0.004958 -0.004686
v 0.010093 -0.005078 -0.004779
v 0.010282 -0.004546 -0.004763
v 0.010016 -0.005367 -0.004727
v 0.010341 -0.004464 -0.004686
v 0.009491 -0.006607 -0.004640
v 0.010640 -0.000787 -0.004950
v 0.010495 -0.001548 -0.004967
v 0.009670 -0.004358 -0.004991
v 0.009699 -0.004266 -0.004991
v 0.010339 -0.004143 -0.004837
v 0.010126 -0.004681 -0.004872
v 0.010364 -0.003727 -0.004893
v 0.010736 -0.002816 -0.004686
v 0.010780 -0.002420 -0.004745
v 0.010809 -0.002156 -0.004763
v 0.009644 -0.006142 -0.004795
v 0.009477 -0.006610 -0.004686
v 0.009311 -0.006890 -0.004727
v 0.009409 -0.006561 -0.004823
v 0.009576 -0.006074 -0.004872
v 0.009825 -0.005668 -0.004823
v 0.009158 -0.006959 -0.004849
v 0.008953 -0.007414 -0.004795
v 0.008893 -0.007332 -0.004872
v 0.008631 -0.007970 -0.004727
v 0.009124 -0.007245 -0.004686
v 0.008994 -0.007458 -0.004686
v 0.008689 -0.007053 -0.004967
v 0.008984 -0.006216 -0.004985
v 0.009346 -0.005843 -0.004967
v 0.009101 -0.006546 -0.004950
v 0.008807 -0.007215 -0.004928
v 0.009208 -0.006672 -0.004903
v 0.009480 -0.005977 -0.004928
v 0.009823 -0.005353 -0.004903
v 0.008391 -0.008117 -0.004849
v 0.008678 -0.007778 -0.004823
v 0.006338 -0.010182 0.001582
v 0.007697 -0.009127 0.001574
v 0.004097 -0.010957 -0.004640
v 0.005052 -0.010744 -0.004686
v 0.004640 -0.010852 -0.004686
v 0.004820 -0.010789 -0.004727
v 0.005415 -0.010619 -0.004686
v 0.005949 -0.010382 -0.004686
v 0.006309 -0.010185 -0.004686
v 0.006231 -0.010150 -0.004795
v 0.006562 -0.009908 -0.004823
v 0.006704 -0.009716 -0.004872
v 0.006855 -0.009802 -0.004727
v 0.003523 -0.010609 -0.004928
v 0.002924 -0.010625 -0.004915
v 0.002716 -0.010543 -0.004928
v -0.002354 -0.006133 -0.004930
v -0.003126 -0.004086 -0.004930
v -0.002502 -0.005913 -0.004917
v -0.010971 -0.000131 -0.002380
v -0.003686 0.000763 -0.004922
v -0.003585 0.001789 -0.004927
v -0.003434 0.002033 -0.004959
v -0.003505 0.002357 -0.004928
v -0.003409 0.002925 -0.004927
v -0.003282 0.003500 -0.004928
v -0.003235 0.003166 -0.004959
v -0.003381 0.003225 -0.004915
v -0.003245 0.003802 -0.004915
v -0.003139 0.004061 -0.004927
v -0.002356 0.004054 -0.005000
v -0.002792 0.003501 -0.004995
v -0.001986 0.005538 -0.004998
v -0.002490 0.004510 -0.004995
v -0.000322 0.009419 0.001582
v -0.001097 0.008522 -0.004795
v -0.000830 0.008819 -0.004795
v -0.010927 0.000395 -0.002482
v -0.010924 0.000369 -0.002489
v -0.010980 0.000142 -0.002359
v -0.010945 0.000428 -0.002440
v -0.010924 -0.000374 -0.002489
v -0.001221 -0.008353 -0.004809
v -0.010941 -0.000437 -0.002451
v -0.002009 -0.006877 -0.004917
v 0.003651 -0.001554 0.005000
v 0.003149 -0.001465 0.005000
v 0.003648 -0.001599 0.004998
v 0.004316 -0.001045 0.005000
v 0.004631 -0.000417 0.004985
v 0.010738 -0.002798 0.001590
v -0.010993 0.000106 -0.002328
v 0.004864 -0.010822 0.001574
v 0.005611 -0.010554 0.001582
v 0.001069 -0.010382 0.001582
v 0.002564 -0.010910 0.001574
v -0.001144 -0.008150 -0.004917
v -0.000973 -0.008296 -0.004928
v -0.000834 -0.008513 -0.004917
v 0.000244 -0.009859 -0.004686
v -0.000051 -0.009496 -0.004832
v 0.001077 -0.010291 -0.004795
v 0.001246 -0.010358 -0.004809
v 0.001399 -0.010503 -0.004727
v 0.001565 -0.010593 -0.004686
v 0.002460 -0.010880 -0.004640
v 0.009381 -0.006823 0.001582
v 0.010210 -0.004920 0.001574
v 0.010519 -0.003882 0.001574
v 0.007697 0.009123 0.001574
v 0.008309 0.008436 0.001582
v 0.004170 0.001414 0.004976
v 0.004158 0.001357 0.004993
v 0.004149 0.001315 0.004998
v 0.002882 0.001390 0.004985
v 0.002898 0.001315 0.004998
v 0.002719 0.001019 0.005000
v 0.004140 0.001271 0.005000
v 0.010904 0.001689 0.001582
v -0.001658 0.007622 -0.004872
v -0.001367 0.007888 -0.004910
v -0.001844 0.007071 -0.004930
v -0.001955 0.007001 -0.004910
v -0.001819 0.007224 -0.004910
v -0.001215 0.008087 -0.004910
v -0.001135 0.008158 -0.004917
v 0.000280 0.009890 -0.004656
v -0.000067 0.009606 -0.004707
v 0.000078 0.009690 -0.004751
v -0.000339 0.009253 -0.004826
v 0.002164 0.010672 -0.004828
v 0.002269 0.010699 -0.004828
v 0.002481 0.010746 -0.004830
v 0.002544 0.010847 -0.004745
v 0.002423 0.010605 -0.004893
v -0.001342 -0.007569 -0.004962
v -0.001738 -0.007323 -0.004917
v -0.001461 -0.007335 -0.004967
v -0.001987 -0.006468 -0.004967
v -0.003318 -0.000279 -0.004990
v -0.003392 -0.000282 -0.004984
v -0.003272 0.000854 -0.004991
v -0.003158 0.001412 -0.004995
v -0.003101 0.001902 -0.004995
v -0.003254 0.001121 -0.004991
v -0.003473 -0.000002 -0.004975
v -0.003451 0.000436 -0.004977
v -0.003480 -0.001163 -0.004967
v -0.003348 -0.002310 -0.004967
v -0.003322 -0.001714 -0.004981
v -0.002931 -0.001049 -0.005000
v -0.002641 -0.003004 -0.005000
v -0.002092 -0.005914 -0.004985
v -0.002328 -0.005160 -0.004991
v -0.002515 -0.004669 -0.004991
v -0.003079 -0.003761 -0.004962
v -0.002622 -0.004357 -0.004991
v -0.000307 -0.008306 -0.004991
v 0.002252 -0.009756 -0.004995
v 0.001722 -0.009682 -0.004991
v 0.000844 -0.009366 -0.004985
v 0.001271 -0.009475 -0.004991
v 0.000466 -0.009345 -0.004967
v 0.001341 -0.009911 -0.004962
v 0.000010 -0.008604 -0.004991
v -0.000227 -0.008783 -0.004967
v 0.004291 0.009484 -0.005000
v 0.005227 0.009780 -0.004988
v 0.005768 0.009685 -0.004980
v 0.004696 0.010312 -0.004956
v 0.004453 0.010413 -0.004949
v 0.004103 0.010421 -0.004956
v 0.003490 0.009930 -0.004995
v 0.002752 0.009970 -0.004991
v 0.001710 0.010109 -0.004956
v 0.001313 0.010061 -0.004935
v 0.002172 0.010337 -0.004945
v 0.000660 0.009697 -0.004935
v 0.000314 0.009328 -0.004956
v 0.000059 0.009406 -0.004903
v 0.000385 0.009649 -0.004903
v 0.001108 0.010089 -0.004903
v 0.000337 0.008321 -0.005000
v 0.001598 0.009120 -0.005000
v 0.001465 0.010407 -0.004839
v 0.001201 0.010310 -0.004823
v 0.000977 0.010170 -0.004839
v 0.004495 0.009994 -0.004988
v 0.004218 0.010889 -0.004751
v 0.004721 0.010793 -0.004751
v 0.004472 0.010773 -0.004823
v 0.005035 0.010734 -0.004707
v 0.006667 0.009965 -0.004652
v 0.006664 0.009954 -0.004686
v 0.006252 0.010202 -0.004707
v 0.004284 0.010782 -0.004839
v 0.006658 0.009782 -0.004855
v 0.006021 0.010223 -0.004823
v 0.005926 0.010378 -0.004707
v 0.005429 0.010324 -0.004903
v 0.004967 0.010652 -0.004823
v 0.006770 0.009349 -0.004950
v 0.006361 0.009598 -0.004955
v 0.006447 0.009547 -0.004954
v 0.006841 0.009746 -0.004795
v 0.006981 0.009674 -0.004763
v 0.006854 0.009785 -0.004745
v 0.003264 0.010968 -0.004686
v 0.003560 0.010958 -0.004720
v 0.003707 0.010961 -0.004707
v 0.003760 0.010551 -0.004939
v 0.002372 0.010417 -0.004940
v 0.002719 0.010391 -0.004956
v 0.003212 0.010448 -0.004956
v 0.002996 0.010341 -0.004967
v 0.007389 0.007674 -0.005000
v 0.007386 0.008144 -0.004995
v 0.010989 -0.000569 0.001574
v 0.010904 -0.001694 0.001582
v 0.010875 -0.000813 -0.004837
v 0.010851 -0.001627 -0.004795
v 0.010831 -0.000808 -0.004872
v 0.010753 0.002799 0.001574
v 0.010747 0.002796 0.001582
v 0.009831 0.005900 0.001574
v 0.004522 0.000747 0.004993
v 0.007229 0.009440 -0.004795
v 0.007526 0.009120 -0.004830
v 0.008748 0.006754 -0.004980
v 0.009102 0.006478 -0.004956
v 0.008033 0.008394 -0.004903
v 0.008923 0.006978 -0.004935
v 0.008941 0.006839 -0.004949
v 0.010746 0.002424 -0.004795
v 0.010839 0.002133 -0.004686
v 0.010734 0.002144 -0.004849
v 0.010710 0.002412 -0.004837
v 0.010289 0.001254 -0.004991
v 0.009592 0.004585 -0.004991
v 0.009501 0.003736 -0.005000
v 0.010638 0.000783 -0.004950
v 0.010041 0.004876 -0.004883
v 0.010296 0.003908 -0.004903
v 0.010022 0.004601 -0.004928
v 0.009814 0.005302 -0.004914
v 0.010330 0.004219 -0.004823
v 0.010387 0.003961 -0.004837
v 0.010346 0.003937 -0.004872
v 0.010525 0.003176 -0.004872
v 0.009342 0.006806 -0.004751
v 0.009787 0.005930 -0.004720
v 0.009722 0.005543 -0.004912
v 0.007734 0.009039 -0.004720
v 0.007860 0.008917 -0.004707
v 0.008165 0.008577 -0.004707
v 0.004157 0.001307 0.004998
v 0.001893 -0.010513 -0.004872
v 0.002393 -0.010556 -0.004908
v 0.002306 -0.010462 -0.004927
v 0.006625 -0.008942 -0.004991
v 0.006730 -0.008862 -0.004991
v 0.006162 -0.009257 -0.004991
v 0.004793 -0.009756 -0.004995
v 0.004878 -0.009345 -0.005000
v 0.006016 -0.009344 -0.004991
v 0.006935 -0.008694 -0.004991
v 0.002532 -0.010337 -0.004959
v 0.002927 -0.010402 -0.004959
v 0.010871 0.000538 -0.004849
v 0.009869 -0.005393 -0.004872
v 0.009908 -0.005426 -0.004837
v 0.010107 -0.004412 -0.004920
v 0.007049 -0.008984 -0.004967
v 0.007130 -0.009190 -0.004928
v 0.006681 -0.009645 -0.004903
v 0.007586 -0.008767 -0.004928
v 0.009165 -0.005244 -0.004998
v 0.008658 -0.006388 -0.004996
v 0.008522 -0.006826 -0.004991
v 0.009431 -0.003974 -0.005000
v 0.004775 -0.010697 -0.004832
v 0.004991 -0.010669 -0.004809
v 0.003523 -0.010781 -0.004872
v 0.005128 -0.010344 -0.004928
v 0.004736 -0.010462 -0.004927
v 0.007651 -0.008909 -0.004872
v 0.009909 -0.005675 -0.004686
v 0.009940 -0.005453 -0.004795
v 0.009986 -0.005181 -0.004849
v 0.009269 -0.007038 -0.004528
v 0.010352 -0.001878 -0.004981
v 0.010280 -0.002374 -0.004981
v 0.010566 -0.003494 -0.004763
v 0.010454 -0.003984 -0.004745
v 0.010459 -0.004050 -0.004686
v 0.010321 -0.004451 -0.004745
v 0.010394 -0.004060 -0.004804
v 0.010753 -0.002684 -0.004707
v 0.010666 -0.002970 -0.004779
v 0.009592 -0.006381 -0.004686
v 0.009314 -0.006797 -0.004795
v 0.009285 -0.006763 -0.004837
v 0.008861 -0.007665 -0.004686
v 0.008561 -0.007991 -0.004795
v 0.008536 -0.007951 -0.004837
v 0.009250 -0.006722 -0.004872
v 0.009704 -0.005252 -0.004950
v 0.008506 -0.007903 -0.004872
v 0.007694 -0.009120 0.001582
v 0.004450 -0.010891 -0.004686
v 0.003561 -0.010990 -0.004640
v 0.005172 -0.010629 -0.004795
v 0.006093 -0.010322 -0.004640
v 0.006723 -0.009776 -0.004837
v 0.006659 -0.009963 -0.004686
v 0.003029 -0.010661 -0.004908
v -0.002125 -0.006282 -0.004962
v -0.003214 -0.003969 -0.004910
v -0.003136 -0.004245 -0.004910
v -0.003083 -0.004367 -0.004917
v -0.002973 -0.004605 -0.004928
v -0.002912 -0.004891 -0.004917
v -0.002779 -0.005295 -0.004910
v -0.002205 0.006719 -0.004872
v -0.010888 0.000106 -0.002574
v -0.002892 0.003907 -0.004981
v -0.002914 0.003311 -0.004991
v -0.003149 0.002825 -0.004981
v -0.002555 0.004939 -0.004981
v -0.002080 0.005935 -0.004985
v -0.002252 0.005336 -0.004991
v -0.010884 0.000080 -0.002582
v -0.002333 0.006303 -0.004910
v -0.003345 0.002604 -0.004959
v -0.003322 0.001709 -0.004981
v -0.003126 0.002230 -0.004991
v -0.002652 0.004007 -0.004995
v -0.002329 0.004946 -0.004995
v -0.002052 0.004895 -0.005000
v -0.002107 0.005660 -0.004991
v -0.001987 0.006464 -0.004967
v -0.002118 0.006290 -0.004962
v -0.001870 0.006744 -0.004962
v -0.001532 0.006406 -0.004998
v -0.010927 -0.000400 -0.002482
v -0.001096 -0.008525 -0.004795
v -0.002267 -0.006400 -0.004917
v 0.004140 -0.001329 0.004998
v 0.004587 0.000366 0.004998
v 0.004614 0.000376 0.004993
v 0.004644 -0.000017 0.004993
v 0.004582 -0.000399 0.004998
v 0.004488 -0.000758 0.004998
v 0.004610 -0.000409 0.004993
v 0.002564 -0.010901 0.001582
v 0.000072 -0.009731 -0.004686
v 0.001306 -0.010146 -0.004917
v 0.001390 -0.010208 -0.004910
v 0.000637 -0.009798 -0.004910
v 0.000749 -0.009786 -0.004930
v 0.000825 -0.009913 -0.004910
v -0.000244 -0.009369 -0.004809
v 0.001875 -0.010630 -0.004795
v 0.001104 -0.010178 -0.004872
v 0.001461 -0.010423 -0.004832
v 0.000866 -0.010159 -0.004809
v 0.002690 -0.010908 -0.004686
v 0.010513 -0.003879 0.001582
v 0.004861 0.010796 0.001590
v 0.004328 0.001019 0.005000
v -0.001438 0.007761 -0.004917
v -0.002114 0.006612 -0.004928
v -0.001461 0.007332 -0.004967
v -0.000150 0.009032 -0.004945
v -0.000510 0.008868 -0.004912
v 0.000854 0.010205 -0.004751
v 0.000377 0.009826 -0.004823
v 0.000461 0.009963 -0.004751
v 0.000389 0.009944 -0.004707
v -0.000418 0.009179 -0.004828
v 0.002844 0.010593 -0.004920
v -0.000747 -0.008310 -0.004962
v -0.001954 -0.007006 -0.004910
v -0.000881 -0.007665 -0.004991
v -0.000730 -0.007848 -0.004991
v -0.001081 -0.007575 -0.004985
v -0.003329 -0.000847 -0.004987
v -0.003258 0.000291 -0.004993
v -0.003126 -0.002235 -0.004991
v -0.003511 -0.001019 -0.004964
v -0.003434 -0.002039 -0.004959
v -0.001902 -0.006084 -0.004991
v -0.002125 -0.005627 -0.004991
v -0.002445 -0.005519 -0.004967
v -0.002252 -0.005341 -0.004991
v -0.002816 -0.003706 -0.004991
v -0.002925 -0.002938 -0.004995
v -0.000617 -0.007977 -0.004991
v 0.001356 -0.009518 -0.004991
v 0.001036 -0.009346 -0.004991
v 0.001257 0.009958 -0.004949
v 0.001819 0.010400 -0.004903
v 0.000729 0.009875 -0.004903
v -0.000212 0.007813 -0.005000
v 0.000921 0.008748 -0.005000
v 0.002438 0.009801 -0.004995
v 0.002426 0.009903 -0.004991
v 0.002621 0.009946 -0.004991
v 0.004508 0.010886 -0.004656
v 0.006488 0.010013 -0.004771
v 0.005758 0.010329 -0.004839
v 0.005777 0.010172 -0.004903
v 0.007333 0.008542 -0.004981
v 0.007265 0.008389 -0.004991
v 0.007048 0.008980 -0.004967
v 0.006713 0.009369 -0.004953
v 0.005189 0.010057 -0.004969
v 0.005508 0.010040 -0.004956
v 0.005781 0.009964 -0.004949
v 0.007918 0.008230 -0.004955
v 0.007846 0.008317 -0.004954
v 0.007700 0.008478 -0.004954
v 0.006536 0.009489 -0.004954
v 0.006187 0.009695 -0.004956
v 0.006707 0.009080 -0.004981
v 0.006728 0.009900 -0.004707
v 0.003265 0.010936 -0.004745
v 0.004418 0.010492 -0.004935
v 0.003923 0.010449 -0.004955
v 0.003833 0.010461 -0.004954
v 0.003651 0.010469 -0.004954
v 0.002734 0.010204 -0.004977
v 0.002330 0.010170 -0.004972
v 0.003218 0.010261 -0.004977
v 0.007758 0.007946 -0.004988
v 0.008023 0.007623 -0.004988
v 0.010747 -0.002801 0.001582
v 0.010655 -0.001584 -0.004928
v 0.010725 -0.001864 -0.004883
v 0.010770 -0.001609 -0.004872
v 0.010766 -0.002143 -0.004823
v 0.010660 -0.002557 -0.004861
v 0.010846 -0.001080 -0.004849
v 0.007395 0.009329 -0.004763
v 0.008557 0.006862 -0.004988
v 0.008887 0.007571 -0.004751
v 0.008213 0.008307 -0.004862
v 0.008356 0.007730 -0.004949
v 0.008313 0.008050 -0.004903
v 0.008346 0.007841 -0.004935
v 0.008437 0.007717 -0.004935
v 0.008831 0.007023 -0.004949
v 0.009929 0.003798 -0.004985
v 0.009738 0.004140 -0.004991
v 0.009930 0.003445 -0.004991
v 0.010238 0.001753 -0.004991
v 0.010131 0.002487 -0.004991
v 0.010041 0.002956 -0.004991
v 0.009208 0.005356 -0.004995
v 0.009445 0.004983 -0.004991
v 0.009702 0.004668 -0.004981
v 0.009518 0.005158 -0.004981
v 0.009762 0.004614 -0.004977
v 0.009739 0.005119 -0.004953
v 0.010237 0.003874 -0.004928
v 0.010127 0.004676 -0.004872
v 0.010439 0.003701 -0.004849
v 0.010680 0.002680 -0.004823
v 0.009672 0.006197 -0.004707
v 0.010000 0.005384 -0.004745
v 0.009434 0.005933 -0.004945
v 0.008264 0.008424 -0.004751
v 0.002192 -0.010506 -0.004908
v 0.001696 -0.010313 -0.004917
v 0.002501 -0.010555 -0.004915
v 0.004460 -0.009837 -0.004995
v 0.005041 -0.009785 -0.004991
v 0.005571 -0.009069 -0.005000
v 0.003324 -0.010434 -0.004959
v 0.003722 -0.010434 -0.004959
v 0.010873 0.000809 -0.004837
v 0.009849 -0.003761 -0.004991
v 0.010222 -0.002909 -0.004977
v 0.010417 -0.002319 -0.004964
v 0.006653 -0.009561 -0.004928
v 0.007188 -0.009339 -0.004872
v 0.009099 -0.005778 -0.004991
v 0.009547 -0.004712 -0.004991
v 0.008565 -0.006756 -0.004991
v 0.004582 -0.010773 -0.004809
v 0.004515 -0.010336 -0.004959
v 0.004330 -0.010542 -0.004928
v 0.004541 -0.010555 -0.004915
v 0.005649 -0.010140 -0.004928
v 0.004942 -0.010455 -0.004915
v 0.004848 -0.010507 -0.004908
v 0.007835 -0.008824 -0.004823
v 0.010200 -0.004733 -0.004795
v 0.009090 -0.007324 -0.004640
v 0.010230 -0.001845 -0.004991
v 0.010402 -0.000914 -0.004985
v 0.010615 -0.003247 -0.004771
v 0.010549 -0.003249 -0.004846
v 0.010337 -0.004247 -0.004809
v 0.009768 -0.005307 -0.004928
v 0.010021 -0.004606 -0.004928
v 0.010057 -0.004129 -0.004956
v 0.004258 -0.010922 -0.004686
v 0.003702 -0.010881 -0.004809
v 0.003918 -0.010838 -0.004832
v 0.003199 -0.010946 -0.004727
v 0.005876 -0.010303 -0.004823
v 0.005697 -0.010367 -0.004837
v 0.005516 -0.010424 -0.004849
v -0.002878 -0.005033 -0.004910
v -0.002496 0.005921 -0.004917
v -0.002582 0.005641 -0.004928
v -0.002719 0.005409 -0.004915
v -0.002791 0.005126 -0.004927
v -0.002587 0.005300 -0.004959
v -0.002780 0.004788 -0.004959
v -0.003129 0.003422 -0.004967
v -0.002827 0.004497 -0.004967
v -0.002952 0.004260 -0.004959
v -0.002785 0.005290 -0.004908
v -0.002916 0.002975 -0.004995
v -0.002622 0.004351 -0.004991
v -0.001883 0.006116 -0.004991
v -0.001809 0.006255 -0.004991
v -0.001644 0.006548 -0.004991
v -0.010888 -0.000111 -0.002574
v 0.004124 -0.001292 0.005000
v 0.004461 -0.000737 0.005000
v 0.004338 -0.001074 0.004998
v 0.004513 -0.000778 0.004993
v 0.004586 -0.000016 0.005000
v 0.000980 -0.009723 -0.004962
v 0.000613 -0.009497 -0.004962
v 0.001143 -0.010016 -0.004928
v 0.000395 -0.009560 -0.004928
v -0.000418 -0.009232 -0.004795
v 0.001644 -0.010530 -0.004809
v 0.002258 -0.010695 -0.004832
v 0.000930 -0.009951 -0.004917
v 0.001585 -0.010292 -0.004910
v 0.000688 -0.010021 -0.004832
v 0.002347 -0.010840 -0.004686
v 0.004863 0.010809 0.001582
v -0.001739 0.007319 -0.004917
v -0.001259 0.007929 -0.004930
v -0.002010 0.006873 -0.004917
v -0.002346 0.006146 -0.004930
v -0.001605 0.007179 -0.004962
v -0.000719 0.008156 -0.004977
v -0.000641 0.008175 -0.004981
v -0.001049 0.007614 -0.004985
v -0.000000 0.008335 -0.004998
v -0.000567 0.008030 -0.004991
v -0.000358 0.008471 -0.004981
v -0.000392 0.008850 -0.004938
v -0.000331 0.008834 -0.004950
v -0.000448 0.008698 -0.004953
v 0.000684 0.010134 -0.004707
v 0.000061 0.009568 -0.004839
v 0.000610 0.009980 -0.004823
v 0.000215 0.009822 -0.004707
v -0.001818 -0.007229 -0.004910
v -0.001166 -0.007289 -0.004991
v -0.000872 -0.008111 -0.004967
v -0.003100 -0.001916 -0.004995
v -0.001809 -0.006259 -0.004991
v -0.002914 -0.003317 -0.004991
v -0.002665 -0.004224 -0.004991
v 0.000684 -0.009126 -0.004991
v 0.001416 0.010034 -0.004949
v 0.000629 0.009599 -0.004949
v 0.000713 0.009653 -0.004949
v 0.001431 0.010245 -0.004903
v 0.004404 0.010886 -0.004707
v 0.004596 0.010849 -0.004707
v 0.005583 0.010408 -0.004839
v 0.006395 0.009217 -0.004986
v 0.006651 0.008918 -0.004991
v 0.006934 0.008690 -0.004991
v 0.006237 0.009275 -0.004988
v 0.006822 0.009052 -0.004977
v 0.007242 0.008693 -0.004977
v 0.004921 0.010145 -0.004969
v 0.005939 0.009884 -0.004949
v 0.004361 0.010430 -0.004949
v 0.003541 0.010439 -0.004959
v 0.002591 0.010278 -0.004967
v 0.010753 -0.002803 0.001574
v 0.010402 -0.002811 -0.004950
v 0.010436 -0.002539 -0.004953
v 0.010340 -0.003217 -0.004945
v 0.010147 -0.003413 -0.004972
v 0.010276 -0.003579 -0.004940
v 0.010228 -0.003819 -0.004936
v 0.010458 -0.003240 -0.004903
v 0.010477 -0.002286 -0.004953
v 0.010714 -0.000795 -0.004928
v 0.010441 -0.003656 -0.004857
v 0.010584 -0.002426 -0.004914
v 0.010545 -0.002692 -0.004912
v 0.010751 -0.002410 -0.004795
v 0.008289 0.007264 -0.004988
v 0.009233 0.006052 -0.004969
v 0.009289 0.005835 -0.004975
v 0.008583 0.008011 -0.004751
v 0.008785 0.007762 -0.004707
v 0.008634 0.007839 -0.004823
v 0.008453 0.007864 -0.004903
v 0.008590 0.007674 -0.004903
v 0.008892 0.007423 -0.004839
v 0.009349 0.006404 -0.004903
v 0.009098 0.006869 -0.004903
v 0.008424 0.007637 -0.004949
v 0.008288 0.007821 -0.004949
v 0.010086 0.003787 -0.004967
v 0.008347 0.006961 -0.004995
v 0.009032 0.006022 -0.004988
v 0.009618 0.005582 -0.004938
v 0.009641 0.005367 -0.004953
v 0.009876 0.004498 -0.004967
v 0.009671 0.005138 -0.004964
v 0.008408 0.008279 -0.004707
v 0.008552 0.008089 -0.004707
v 0.008447 0.008095 -0.004823
v 0.002100 -0.010455 -0.004915
v 0.004083 -0.009898 -0.004995
v 0.010061 -0.003887 -0.004967
v 0.009940 -0.004055 -0.004977
v 0.009944 -0.003582 -0.004988
v 0.009964 -0.003830 -0.004981
v 0.009875 -0.004503 -0.004967
v 0.009290 -0.005360 -0.004991
v 0.009499 -0.005096 -0.004985
v 0.008790 -0.006374 -0.004991
v 0.004352 -0.010833 -0.004795
v 0.003921 -0.010596 -0.004927
v 0.004119 -0.010401 -0.004959
v 0.004343 -0.010713 -0.004872
v 0.007677 -0.008964 -0.004837
v 0.010269 -0.001498 -0.004991
v 0.010402 -0.001770 -0.004977
v 0.004066 -0.010946 -0.004686
v 0.003362 -0.010882 -0.004809
v 0.003036 -0.010953 -0.004686
v 0.003648 -0.010974 -0.004686
v 0.005692 -0.010483 -0.004727
v -0.002451 0.006059 -0.004910
v -0.002445 0.005515 -0.004967
v -0.002973 0.004600 -0.004928
v -0.003089 0.004354 -0.004915
v -0.002915 0.004886 -0.004915
v -0.003104 0.003719 -0.004959
v -0.003348 0.002305 -0.004967
v -0.002883 0.005028 -0.004908
v -0.010882 0.000049 -0.002587
v -0.003018 0.002445 -0.004995
v -0.001387 0.006964 -0.004991
v -0.001300 0.007095 -0.004991
v 0.004558 0.000356 0.005000
v 0.004616 -0.000017 0.004998
v 0.000555 -0.009721 -0.004917
v -0.000576 -0.009062 -0.004809
v 0.002036 -0.010664 -0.004809
v 0.000483 -0.009924 -0.004809
v -0.000973 0.008293 -0.004928
v -0.002261 0.006408 -0.004917
v -0.002349 0.005815 -0.004962
v -0.001575 0.007500 -0.004928
v -0.000872 0.008107 -0.004967
v -0.000022 0.008449 -0.004995
v 0.000289 0.008904 -0.004988
v 0.000495 0.008885 -0.004995
v -0.000730 0.007845 -0.004991
v -0.000832 0.007722 -0.004991
v -0.001120 0.007351 -0.004991
v -0.000519 0.008532 -0.004964
v 0.002201 0.010109 -0.004975
v 0.001997 0.009844 -0.004988
v 0.002037 0.010118 -0.004969
v 0.001853 0.009632 -0.004995
v 0.002485 0.009981 -0.004988
v 0.000597 0.009131 -0.004988
v 0.000506 0.010022 -0.004707
v -0.000180 0.009398 -0.004823
v 0.000785 0.010062 -0.004839
v -0.001046 -0.007959 -0.004962
v -0.003016 -0.002460 -0.004995
v 0.004089 0.010932 -0.004707
v 0.004846 0.010788 -0.004707
v 0.007156 0.008493 -0.004991
v 0.005885 0.009480 -0.004988
v 0.010184 -0.003175 -0.004975
v 0.010620 -0.002835 -0.004855
v 0.010777 -0.000802 -0.004903
v 0.010476 -0.003618 -0.004837
v 0.010453 -0.002774 -0.004938
v 0.009006 0.007423 -0.004707
v 0.008647 0.007960 -0.004707
v 0.009071 0.007167 -0.004823
v 0.008873 0.007246 -0.004903
v 0.009547 0.005998 -0.004903
v 0.009370 0.005612 -0.004977
v 0.008835 0.006145 -0.004995
v 0.009562 0.005596 -0.004950
v 0.008158 0.008428 -0.004839
v 0.009514 -0.005327 -0.004975
v 0.009158 -0.005654 -0.004991
v 0.004126 -0.010624 -0.004915
v 0.003720 -0.010657 -0.004915
v 0.003819 -0.010676 -0.004908
v 0.004647 -0.010557 -0.004908
v 0.004117 -0.010849 -0.004809
v 0.003523 -0.010901 -0.004795
v 0.003454 -0.010975 -0.004686
v 0.005707 -0.010419 -0.004795
v -0.001595 0.006818 -0.004985
v -0.001326 0.007588 -0.004962
v -0.000631 0.008535 -0.004950
v -0.000326 0.008282 -0.004991
v 0.000089 0.009035 -0.004969
v 0.001150 0.009305 -0.004995
v 0.000998 0.009772 -0.004956
v 0.000892 0.010078 -0.004862
v 0.010422 -0.003862 -0.004830
v 0.009232 0.006854 -0.004839
v 0.008796 0.006462 -0.004988
v 0.008300 0.008254 -0.004839
v 0.004023 -0.010660 -0.004908
v 0.003884 -0.010943 -0.004727
v -0.001029 0.007977 -0.004962
v -0.000594 0.008549 -0.004953
v -0.000017 0.008879 -0.004975
v 0.001418 0.009751 -0.004980
v 0.000556 0.009766 -0.004903
v 0.010360 -0.004096 -0.004830
v 0.009276 0.006708 -0.004862
v -0.000133 0.008747 -0.004977
v 0.001630 0.009703 -0.004988
v 0.001286 0.009543 -0.004988
v 0.000928 0.009344 -0.004988
v 0.009359 0.006618 -0.004839
v 0.000721 0.009363 -0.004980
f 1 2 3
f 4 2 5
f 4 5 6
f 7 1 3
f 7 3 2
f 7 2 4
f 8 2 1
f 8 5 2
f 9 10 11
f 12 13 14
f 15 16 17
f 18 19 20
f 21 22 23
f 21 23 24
f 25 26 22
f 25 22 21
f 27 28 19
f 27 19 18
f 29 23 20
f 29 20 19
f 29 19 28
f 29 28 24
f 29 24 23
f 30 31 32
f 33 31 30
f 33 30 34
f 35 36 37
f 38 36 39
f 40 39 36
f 40 41 39
f 42 43 44
f 45 46 26
f 45 26 25
f 45 25 47
f 45 39 41
f 45 41 48
f 45 48 46
f 49 14 13
f 50 12 14
f 51 52 53
f 54 55 51
f 56 57 58
f 56 58 59
f 60 10 9
f 60 61 11
f 60 11 10
f 62 63 64
f 65 66 4
f 67 61 68
f 69 70 68
f 69 61 60
f 71 13 12
f 72 12 50
f 73 74 75
f 76 77 75
f 78 37 79
f 80 81 82
f 80 83 84
f 85 86 87
f 88 44 43
f 89 82 81
f 89 81 90
f 91 92 90
f 91 90 81
f 93 18 20
f 93 20 94
f 95 83 80
f 95 80 82
f 96 25 21
f 96 21 24
f 96 24 28
f 96 28 27
f 97 47 25
f 97 25 96
f 97 96 27
f 98 94 89
f 98 89 90
f 98 90 92
f 98 92 27
f 98 27 18
f 98 18 93
f 98 93 94
f 99 100 101
f 102 103 104
f 105 106 104
f 107 31 108
f 107 32 31
f 109 110 111
f 112 37 36
f 112 36 38
f 112 79 37
f 113 40 36
f 113 36 35
f 114 42 44
f 115 57 56
f 116 117 118
f 116 118 119
f 120 8 121
f 122 49 13
f 123 50 14
f 124 14 49
f 125 1 7
f 126 127 128
f 126 128 52
f 129 16 51
f 129 51 53
f 129 53 16
f 130 52 51
f 130 51 55
f 131 54 51
f 131 51 16
f 132 116 133
f 134 135 136
f 137 69 60
f 137 60 138
f 139 63 138
f 139 138 60
f 139 60 9
f 139 9 140
f 139 140 141
f 142 63 62
f 143 144 65
f 143 65 4
f 145 121 8
f 145 8 1
f 146 147 148
f 146 148 149
f 150 151 152
f 150 153 70
f 154 70 153
f 154 153 68
f 154 68 70
f 155 68 153
f 155 67 68
f 156 11 61
f 157 151 128
f 158 151 157
f 158 157 159
f 158 159 152
f 158 152 151
f 160 161 162
f 160 162 152
f 160 152 159
f 163 164 63
f 163 63 139
f 163 139 141
f 163 141 140
f 165 61 69
f 165 69 68
f 165 68 61
f 166 72 50
f 167 168 169
f 170 171 168
f 172 171 170
f 172 170 168
f 172 168 167
f 173 174 175
f 176 177 178
f 176 178 179
f 180 181 182
f 183 173 77
f 183 76 184
f 185 73 75
f 186 182 181
f 186 181 101
f 186 101 100
f 187 76 75
f 188 78 79
f 189 46 48
f 189 48 41
f 190 81 80
f 190 80 84
f 190 84 81
f 191 192 86
f 191 86 85
f 193 91 81
f 193 81 84
f 194 20 23
f 194 23 195
f 194 195 95
f 194 95 82
f 194 82 89
f 194 89 94
f 194 94 20
f 196 195 197
f 196 95 195
f 198 197 195
f 198 195 23
f 199 43 42
f 200 97 201
f 202 27 92
f 202 201 97
f 202 97 27
f 203 199 201
f 204 106 102
f 204 102 104
f 204 104 106
f 205 110 206
f 207 206 110
f 208 111 110
f 208 110 205
f 208 209 111
f 210 83 209
f 210 209 84
f 210 84 83
f 211 212 111
f 211 111 213
f 214 85 87
f 215 212 109
f 215 109 111
f 215 111 212
f 216 110 109
f 216 109 217
f 216 217 207
f 216 207 110
f 218 87 86
f 219 220 221
f 222 178 177
f 223 44 88
f 224 225 226
f 224 226 227
f 228 229 15
f 228 171 172
f 228 172 229
f 230 39 45
f 230 38 39
f 231 38 230
f 231 230 232
f 231 233 38
f 234 235 236
f 237 234 236
f 238 119 118
f 238 239 240
f 238 240 133
f 238 133 116
f 238 116 119
f 241 118 117
f 242 120 117
f 243 244 245
f 246 122 13
f 247 123 14
f 248 14 124
f 249 124 49
f 250 7 4
f 250 4 66
f 250 66 65
f 251 121 145
f 251 145 1
f 251 252 121
f 253 254 255
f 256 227 226
f 256 226 225
f 256 225 257
f 258 52 130
f 258 130 126
f 258 126 52
f 259 260 54
f 261 54 260
f 261 55 54
f 262 15 263
f 264 59 58
f 264 58 57
f 265 133 266
f 265 267 133
f 268 266 133
f 268 133 240
f 269 134 133
f 269 133 267
f 270 271 79
f 272 273 270
f 272 270 79
f 272 79 112
f 272 112 38
f 274 275 135
f 274 135 134
f 276 64 277
f 276 277 62
f 276 62 64
f 278 279 280
f 281 282 279
f 283 143 4
f 283 4 6
f 284 142 62
f 284 62 277
f 285 146 5
f 285 5 8
f 285 8 120
f 286 5 146
f 286 146 149
f 287 153 150
f 287 150 152
f 288 289 290
f 291 140 9
f 292 156 61
f 293 11 156
f 293 291 9
f 293 9 11
f 294 127 126
f 295 127 157
f 295 157 128
f 295 128 127
f 296 159 157
f 296 157 127
f 296 127 294
f 297 298 299
f 297 299 155
f 297 155 153
f 300 162 298
f 300 298 297
f 300 297 153
f 300 153 287
f 300 287 152
f 300 152 162
f 301 277 64
f 302 303 301
f 302 301 64
f 302 64 63
f 302 63 164
f 302 164 163
f 304 305 306
f 304 306 307
f 308 70 69
f 308 69 137
f 309 12 310
f 309 310 311
f 309 71 12
f 312 71 309
f 313 314 71
f 313 315 314
f 316 317 315
f 318 72 166
f 319 310 12
f 319 12 72
f 320 321 322
f 323 322 321
f 324 325 326
f 324 172 167
f 324 167 325
f 327 173 328
f 329 178 330
f 329 330 175
f 329 175 174
f 331 178 329
f 331 329 332
f 333 334 174
f 333 174 173
f 333 173 327
f 333 327 328
f 335 76 183
f 335 183 77
f 335 77 76
f 336 173 183
f 336 328 173
f 337 185 75
f 337 75 77
f 337 77 173
f 338 104 103
f 338 339 73
f 340 74 73
f 341 322 323
f 341 323 342
f 343 344 345
f 343 345 346
f 347 271 188
f 347 188 79
f 347 79 271
f 348 132 133
f 348 133 134
f 348 134 136
f 349 350 351
f 352 213 111
f 352 191 85
f 352 85 214
f 352 214 213
f 353 33 101
f 353 354 31
f 353 31 33
f 355 354 353
f 355 353 356
f 357 221 358
f 357 358 359
f 357 181 180
f 357 180 360
f 357 360 361
f 357 361 221
f 362 108 31
f 362 31 354
f 362 354 363
f 362 92 91
f 364 108 362
f 364 362 91
f 364 91 193
f 365 209 208
f 365 84 209
f 366 198 23
f 366 23 22
f 366 22 26
f 366 26 46
f 366 46 189
f 367 114 47
f 367 47 97
f 367 97 200
f 367 42 114
f 368 199 42
f 368 200 201
f 368 201 199
f 369 363 354
f 369 354 355
f 369 355 43
f 370 199 203
f 370 203 369
f 370 369 43
f 370 43 199
f 371 202 92
f 371 92 362
f 371 362 363
f 371 363 369
f 371 369 203
f 371 203 201
f 371 201 202
f 372 34 373
f 372 373 99
f 372 99 101
f 372 101 33
f 372 33 34
f 374 99 373
f 375 104 338
f 375 374 373
f 375 105 104
f 376 105 375
f 376 375 373
f 377 206 378
f 377 378 379
f 377 105 376
f 380 205 206
f 380 206 377
f 381 206 207
f 381 378 206
f 382 32 107
f 382 107 108
f 382 365 208
f 382 208 205
f 383 191 352
f 383 352 111
f 383 111 209
f 383 209 384
f 383 384 192
f 383 192 191
f 385 212 211
f 385 211 213
f 385 213 214
f 385 214 87
f 385 87 109
f 385 109 212
f 386 351 350
f 387 218 86
f 388 87 218
f 388 109 87
f 389 390 391
f 392 207 217
f 393 378 381
f 393 381 207
f 394 395 396
f 397 221 361
f 397 361 398
f 397 219 221
f 399 222 177
f 400 220 219
f 401 225 224
f 402 227 403
f 402 403 53
f 402 53 52
f 402 52 128
f 404 232 230
f 404 230 114
f 404 114 44
f 405 114 230
f 405 230 45
f 405 45 47
f 405 47 114
f 406 238 118
f 406 407 239
f 406 239 238
f 408 121 252
f 408 252 409
f 408 409 410
f 408 410 118
f 408 118 241
f 408 241 117
f 408 117 120
f 411 147 146
f 411 115 147
f 412 49 122
f 413 243 245
f 413 245 343
f 413 343 346
f 414 415 416
f 417 418 416
f 419 13 71
f 419 71 314
f 420 421 422
f 423 424 122
f 423 122 246
f 425 246 13
f 426 427 123
f 426 123 247
f 428 249 49
f 429 250 65
f 429 65 430
f 431 432 430
f 431 430 65
f 431 65 144
f 431 144 143
f 431 143 284
f 433 434 435
f 436 251 1
f 436 1 125
f 437 438 253
f 437 439 440
f 437 440 438
f 441 50 123
f 442 427 443
f 442 444 445
f 442 445 123
f 442 123 427
f 446 17 16
f 446 16 53
f 446 53 403
f 446 228 15
f 446 15 17
f 447 403 227
f 447 227 256
f 447 256 257
f 448 259 449
f 450 260 259
f 451 261 260
f 451 260 450
f 451 450 452
f 453 449 259
f 453 259 262
f 453 262 263
f 454 16 15
f 454 15 262
f 454 131 16
f 455 54 131
f 455 131 454
f 455 454 262
f 455 262 259
f 455 259 54
f 456 116 132
f 456 132 264
f 456 242 117
f 456 117 116
f 457 275 274
f 457 274 134
f 457 134 269
f 458 283 281
f 458 142 284
f 458 284 143
f 458 143 283
f 459 151 150
f 459 128 151
f 460 461 462
f 460 462 305
f 463 290 464
f 465 130 55
f 465 294 126
f 465 126 130
f 466 160 159
f 466 159 296
f 467 468 469
f 470 471 472
f 473 474 475
f 476 166 50
f 477 166 476
f 477 475 474
f 478 479 480
f 481 480 479
f 482 483 303
f 482 303 302
f 484 304 485
f 486 308 137
f 486 137 138
f 487 305 462
f 487 306 305
f 488 489 420
f 488 420 422
f 490 491 492
f 490 492 493
f 494 386 489
f 494 489 488
f 494 491 490
f 495 496 497
f 498 323 321
f 499 310 500
f 501 502 503
f 504 310 499
f 504 501 505
f 504 505 311
f 504 311 310
f 506 71 312
f 507 508 509
f 507 316 315
f 507 315 313
f 510 497 496
f 511 259 448
f 511 512 513
f 514 515 516
f 514 503 502
f 514 502 515
f 517 516 518
f 519 318 166
f 520 72 318
f 521 318 519
f 521 519 472
f 521 472 469
f 521 469 522
f 521 522 523
f 521 523 524
f 525 526 527
f 525 528 529
f 525 529 526
f 530 310 319
f 530 319 72
f 531 321 320
f 531 532 533
f 531 498 321
f 534 535 536
f 534 536 537
f 538 535 539
f 538 539 540
f 541 542 543
f 541 543 544
f 541 544 222
f 541 222 399
f 545 544 543
f 545 543 542
f 545 169 168
f 545 168 546
f 547 177 176
f 548 527 526
f 549 172 324
f 549 324 326
f 549 326 263
f 549 263 15
f 549 15 229
f 549 229 172
f 550 537 536
f 550 536 551
f 550 551 331
f 550 331 332
f 550 332 329
f 550 329 174
f 550 174 334
f 550 334 333
f 550 333 537
f 552 516 515
f 552 518 516
f 553 328 336
f 553 540 539
f 554 540 553
f 554 553 336
f 554 336 183
f 555 180 182
f 556 74 340
f 556 340 73
f 556 73 339
f 557 103 102
f 558 103 557
f 558 339 103
f 559 339 338
f 559 338 103
f 559 103 339
f 560 338 73
f 560 73 185
f 561 562 563
f 564 565 566
f 564 566 567
f 564 567 568
f 569 416 418
f 569 418 417
f 569 417 570
f 571 572 573
f 574 344 343
f 574 343 245
f 574 245 244
f 574 244 414
f 574 414 416
f 574 416 569
f 574 569 573
f 574 573 344
f 575 576 346
f 577 271 348
f 578 264 132
f 578 132 348
f 578 348 271
f 579 580 581
f 582 583 584
f 582 584 580
f 585 573 586
f 585 586 197
f 587 78 188
f 587 580 585
f 587 585 197
f 588 275 589
f 588 589 590
f 588 581 580
f 588 348 136
f 588 136 135
f 588 135 275
f 591 592 593
f 591 83 95
f 591 95 586
f 591 586 573
f 594 573 572
f 595 88 43
f 596 353 101
f 597 359 598
f 597 598 596
f 597 596 101
f 597 101 181
f 597 181 357
f 597 357 359
f 599 223 88
f 600 221 220
f 600 220 601
f 600 601 602
f 603 366 189
f 603 189 41
f 603 41 40
f 603 40 113
f 603 113 35
f 604 367 200
f 604 200 368
f 604 368 42
f 604 42 367
f 605 100 99
f 605 99 374
f 605 374 375
f 606 205 380
f 607 365 382
f 607 382 108
f 607 108 364
f 607 364 193
f 607 193 84
f 607 84 365
f 608 420 489
f 608 489 386
f 609 610 387
f 609 387 86
f 611 612 389
f 613 494 490
f 613 490 493
f 614 392 217
f 614 217 109
f 614 109 388
f 614 388 391
f 614 391 390
f 615 378 393
f 616 106 105
f 616 105 617
f 618 105 377
f 618 377 379
f 618 379 378
f 618 619 616
f 618 616 617
f 618 617 105
f 620 621 622
f 620 622 395
f 620 395 394
f 623 397 398
f 623 398 175
f 623 175 330
f 624 178 222
f 624 222 625
f 624 625 400
f 624 623 330
f 624 330 178
f 626 400 625
f 626 602 601
f 626 601 220
f 626 220 400
f 627 544 545
f 627 545 546
f 627 546 168
f 627 168 171
f 628 278 280
f 628 280 629
f 628 142 278
f 630 628 629
f 630 629 485
f 630 485 304
f 630 304 307
f 631 485 629
f 631 629 280
f 631 149 148
f 632 44 223
f 633 484 634
f 633 634 223
f 635 461 401
f 635 401 224
f 636 583 582
f 636 582 237
f 636 237 236
f 636 236 637
f 638 581 588
f 638 588 590
f 639 640 641
f 639 641 410
f 639 410 409
f 639 409 642
f 643 641 640
f 643 407 406
f 643 406 118
f 643 118 410
f 643 410 641
f 644 640 639
f 644 639 642
f 644 642 645
f 644 645 646
f 644 646 640
f 647 438 440
f 647 252 251
f 648 642 409
f 648 409 252
f 648 252 647
f 649 121 408
f 649 408 120
f 649 120 121
f 650 285 120
f 650 120 242
f 650 242 411
f 650 411 146
f 650 146 285
f 651 115 411
f 651 411 242
f 651 242 456
f 652 653 654
f 652 655 656
f 657 653 658
f 657 654 653
f 659 660 386
f 659 386 350
f 659 350 656
f 659 656 655
f 659 655 660
f 661 662 663
f 661 567 566
f 664 665 666
f 664 666 667
f 664 667 424
f 664 424 423
f 664 423 665
f 668 669 670
f 668 670 671
f 672 346 576
f 673 412 122
f 673 122 424
f 674 49 412
f 675 676 412
f 675 412 673
f 675 673 424
f 677 417 416
f 677 416 415
f 678 679 663
f 678 663 680
f 678 680 681
f 682 683 684
f 685 315 317
f 685 317 686
f 687 686 317
f 687 510 496
f 688 686 687
f 688 687 496
f 689 690 425
f 691 692 684
f 691 690 692
f 693 694 492
f 693 492 422
f 693 422 421
f 695 665 423
f 695 423 246
f 695 246 696
f 697 419 689
f 697 689 425
f 697 425 13
f 697 13 419
f 698 246 425
f 698 425 690
f 698 690 696
f 698 696 246
f 699 427 426
f 699 700 427
f 701 700 702
f 703 704 247
f 703 247 14
f 705 706 707
f 708 709 248
f 708 248 124
f 710 704 703
f 710 703 14
f 711 249 428
f 712 671 428
f 712 428 49
f 712 49 671
f 713 439 437
f 713 437 253
f 713 253 255
f 714 645 715
f 714 646 645
f 716 706 705
f 717 706 718
f 717 718 702
f 717 702 719
f 717 719 707
f 717 707 706
f 720 699 721
f 720 721 719
f 720 719 702
f 722 429 430
f 722 430 432
f 722 432 723
f 724 431 277
f 725 277 431
f 725 431 284
f 725 284 277
f 726 727 254
f 728 434 723
f 728 723 432
f 729 730 731
f 729 732 730
f 733 433 734
f 735 736 737
f 738 290 289
f 738 735 737
f 739 301 303
f 740 732 741
f 742 255 254
f 742 254 727
f 742 727 743
f 744 743 727
f 744 727 745
f 746 255 742
f 747 748 50
f 747 441 445
f 749 750 737
f 749 737 736
f 749 736 751
f 752 445 441
f 752 441 123
f 752 123 445
f 753 171 228
f 753 228 446
f 754 57 115
f 754 115 651
f 754 651 456
f 754 456 264
f 754 264 57
f 755 265 266
f 755 266 268
f 755 268 240
f 755 267 265
f 756 267 755
f 756 755 240
f 756 240 275
f 756 275 457
f 756 457 269
f 756 269 267
f 757 279 278
f 757 278 142
f 757 142 458
f 757 458 281
f 757 281 279
f 758 459 462
f 758 462 461
f 759 462 459
f 759 459 150
f 759 150 70
f 760 304 484
f 760 401 461
f 760 461 460
f 760 460 305
f 760 305 304
f 761 288 290
f 761 290 463
f 761 762 288
f 763 761 463
f 763 463 764
f 765 294 465
f 766 261 451
f 766 765 465
f 766 465 55
f 766 55 261
f 767 765 766
f 767 766 451
f 768 513 769
f 768 769 770
f 768 770 771
f 768 451 452
f 772 466 296
f 772 296 294
f 773 467 469
f 773 469 472
f 774 467 471
f 775 166 477
f 775 474 470
f 775 470 166
f 776 475 477
f 776 477 476
f 776 476 475
f 777 770 769
f 777 769 478
f 777 478 480
f 777 480 770
f 778 468 467
f 778 467 774
f 778 774 479
f 778 479 478
f 778 478 769
f 779 162 161
f 779 161 780
f 779 781 782
f 779 782 298
f 779 298 162
f 783 780 161
f 783 161 160
f 783 160 466
f 783 466 772
f 783 772 784
f 785 292 61
f 785 61 67
f 786 782 781
f 786 781 787
f 786 787 788
f 786 788 789
f 790 163 140
f 790 140 291
f 791 163 790
f 791 482 302
f 791 302 163
f 792 634 484
f 792 484 485
f 793 306 487
f 793 487 308
f 793 308 486
f 793 486 307
f 793 307 306
f 794 491 494
f 794 494 488
f 794 488 422
f 794 422 492
f 794 492 491
f 795 386 494
f 795 592 386
f 796 312 797
f 796 533 532
f 798 309 311
f 798 311 797
f 798 797 312
f 798 312 309
f 799 323 498
f 799 342 323
f 800 505 501
f 800 311 505
f 801 71 506
f 802 508 507
f 802 507 313
f 802 313 71
f 802 71 801
f 802 801 508
f 803 316 804
f 803 510 687
f 803 687 317
f 803 317 316
f 805 511 513
f 805 513 768
f 805 768 452
f 806 503 514
f 806 514 516
f 807 540 808
f 809 502 501
f 809 501 504
f 809 504 499
f 809 499 500
f 810 472 519
f 810 519 166
f 810 166 470
f 810 470 472
f 811 529 520
f 811 520 318
f 812 529 528
f 813 318 521
f 813 521 524
f 813 548 526
f 813 526 529
f 813 529 811
f 813 811 318
f 814 320 815
f 814 531 320
f 816 509 814
f 816 814 815
f 816 815 804
f 816 804 316
f 816 316 507
f 816 507 509
f 817 320 322
f 817 815 320
f 818 341 819
f 818 819 820
f 821 818 820
f 822 328 553
f 822 553 539
f 822 539 535
f 822 535 534
f 823 333 328
f 823 328 822
f 823 822 534
f 823 534 537
f 823 537 333
f 824 538 540
f 825 541 399
f 825 399 177
f 825 177 547
f 825 547 826
f 827 542 541
f 828 829 827
f 828 827 830
f 831 542 827
f 831 545 542
f 832 547 176
f 833 834 468
f 833 468 512
f 835 812 528
f 835 528 836
f 837 838 839
f 840 325 167
f 840 167 169
f 841 842 326
f 841 326 325
f 843 844 845
f 843 846 847
f 843 847 848
f 849 850 851
f 852 536 535
f 853 845 844
f 853 844 832
f 853 854 850
f 853 850 845
f 855 502 809
f 855 856 857
f 855 857 858
f 855 515 502
f 859 851 552
f 859 552 515
f 859 515 855
f 859 855 858
f 860 851 859
f 860 859 858
f 861 862 847
f 861 847 860
f 861 860 858
f 861 858 857
f 863 535 518
f 864 851 850
f 865 185 337
f 865 337 555
f 865 555 182
f 866 173 175
f 866 337 173
f 867 557 102
f 867 102 106
f 868 556 339
f 868 339 558
f 868 558 869
f 868 869 870
f 871 556 868
f 871 872 74
f 871 74 556
f 873 872 874
f 875 874 819
f 875 819 876
f 875 808 874
f 877 808 540
f 877 540 554
f 878 563 562
f 879 880 562
f 881 572 571
f 881 564 568
f 882 570 417
f 883 565 564
f 883 564 881
f 883 881 571
f 883 571 573
f 883 573 565
f 884 196 197
f 884 197 586
f 884 586 95
f 884 95 196
f 885 345 344
f 885 344 575
f 885 575 346
f 885 346 345
f 886 887 576
f 886 576 575
f 886 575 344
f 888 887 886
f 888 886 344
f 888 344 889
f 890 891 889
f 890 889 892
f 890 893 894
f 895 249 896
f 895 124 249
f 897 895 898
f 899 270 273
f 899 273 59
f 899 59 264
f 899 264 578
f 899 578 271
f 899 271 270
f 900 580 579
f 900 237 582
f 900 582 580
f 901 237 900
f 901 900 579
f 901 579 581
f 901 581 638
f 901 234 237
f 902 903 580
f 902 580 584
f 904 198 587
f 904 587 197
f 904 197 198
f 905 188 271
f 905 271 577
f 905 577 348
f 905 348 588
f 905 588 580
f 905 580 587
f 905 587 188
f 906 591 573
f 907 351 386
f 907 386 592
f 907 591 349
f 907 349 351
f 908 610 609
f 908 609 86
f 908 86 192
f 908 192 384
f 908 384 209
f 908 209 83
f 908 83 591
f 908 591 593
f 908 593 610
f 909 658 653
f 910 598 88
f 910 88 595
f 911 355 356
f 911 356 595
f 911 595 43
f 911 43 355
f 912 353 596
f 912 596 598
f 912 598 910
f 912 910 595
f 912 595 356
f 912 356 353
f 913 599 88
f 914 602 915
f 914 915 257
f 914 257 225
f 914 600 602
f 916 366 603
f 916 603 35
f 916 35 37
f 916 37 78
f 916 78 587
f 916 587 198
f 916 198 366
f 917 338 560
f 917 560 605
f 917 605 375
f 917 375 338
f 918 186 100
f 918 100 605
f 918 605 560
f 918 560 185
f 918 185 865
f 918 865 182
f 918 182 186
f 919 32 382
f 919 382 205
f 919 205 606
f 919 606 30
f 919 30 32
f 920 377 376
f 920 376 373
f 920 380 377
f 921 660 655
f 921 655 922
f 921 386 660
f 923 420 608
f 923 608 386
f 923 386 921
f 923 921 922
f 923 922 420
f 924 391 388
f 924 388 218
f 924 611 389
f 924 389 391
f 925 494 613
f 925 613 612
f 926 392 614
f 926 614 390
f 926 927 928
f 926 928 392
f 929 615 393
f 929 393 207
f 929 207 392
f 929 392 928
f 930 619 618
f 930 618 378
f 931 219 397
f 931 397 623
f 931 623 624
f 931 624 400
f 931 400 219
f 932 626 625
f 932 625 222
f 932 222 544
f 933 626 932
f 933 932 544
f 933 544 627
f 933 627 171
f 934 63 142
f 934 142 628
f 934 628 138
f 934 138 63
f 935 628 630
f 935 630 307
f 935 307 486
f 935 486 138
f 935 138 628
f 936 279 282
f 936 631 280
f 936 280 279
f 937 938 792
f 937 792 485
f 937 485 631
f 937 631 233
f 937 233 938
f 939 56 59
f 939 59 273
f 939 273 272
f 939 272 38
f 939 38 233
f 939 233 631
f 939 631 148
f 939 148 147
f 939 147 115
f 939 115 56
f 940 233 231
f 940 231 232
f 940 232 632
f 940 632 938
f 940 938 233
f 941 44 632
f 941 632 232
f 941 232 404
f 941 404 44
f 942 938 632
f 942 632 223
f 943 224 227
f 943 227 402
f 944 902 584
f 944 584 583
f 944 583 636
f 944 636 945
f 946 947 948
f 949 945 636
f 949 636 637
f 949 637 950
f 951 275 240
f 951 240 239
f 951 589 275
f 952 589 951
f 952 953 590
f 952 590 589
f 954 235 234
f 954 638 590
f 955 642 956
f 955 715 645
f 955 645 642
f 957 439 956
f 957 440 439
f 958 440 957
f 958 957 956
f 958 956 642
f 958 642 648
f 958 648 647
f 958 647 440
f 959 715 955
f 959 955 956
f 959 956 439
f 959 439 713
f 960 655 652
f 960 652 654
f 961 653 652
f 961 652 656
f 961 656 350
f 962 963 666
f 962 960 654
f 962 654 657
f 962 657 963
f 964 965 966
f 964 670 669
f 967 968 711
f 967 711 428
f 967 428 671
f 967 966 969
f 967 969 968
f 970 413 346
f 971 966 965
f 971 965 970
f 971 970 346
f 971 346 672
f 972 970 965
f 973 243 972
f 973 972 974
f 973 974 681
f 973 681 680
f 973 680 677
f 973 677 415
f 975 49 674
f 975 674 671
f 975 671 49
f 976 676 674
f 976 674 412
f 976 412 676
f 977 666 963
f 978 979 675
f 978 675 424
f 978 679 979
f 980 677 680
f 980 680 663
f 980 663 662
f 980 662 882
f 980 882 417
f 980 417 677
f 981 679 678
f 981 675 979
f 981 979 679
f 982 683 682
f 982 696 683
f 983 315 685
f 983 419 314
f 983 314 315
f 984 419 983
f 984 983 685
f 984 685 686
f 985 986 686
f 985 686 688
f 985 688 987
f 985 987 684
f 985 684 692
f 988 688 496
f 988 496 495
f 989 683 696
f 989 696 690
f 989 690 691
f 989 691 684
f 989 684 683
f 990 684 987
f 990 987 694
f 990 694 693
f 990 693 421
f 990 682 684
f 991 704 721
f 991 721 699
f 991 699 426
f 991 426 247
f 991 247 704
f 992 700 701
f 992 701 993
f 992 993 443
f 992 443 427
f 992 427 700
f 994 995 734
f 994 702 996
f 997 704 710
f 997 710 705
f 997 705 707
f 997 707 719
f 997 719 721
f 997 721 704
f 998 716 705
f 999 1000 1001
f 1002 1003 1004
f 1002 1004 1005
f 1006 1000 1002
f 1007 14 248
f 1008 14 1007
f 1008 710 14
f 1009 1010 640
f 1009 640 646
f 1009 646 714
f 1009 1011 1010
f 1012 699 720
f 1012 720 702
f 1012 702 700
f 1012 700 699
f 1013 1014 1015
f 1013 726 254
f 1016 429 722
f 1016 722 723
f 1017 724 277
f 1017 277 301
f 1017 301 739
f 1017 739 1018
f 1019 724 1017
f 1019 1017 1018
f 1020 727 726
f 1020 726 1013
f 1020 1013 1015
f 1020 1015 745
f 1020 745 727
f 1021 463 464
f 1021 464 730
f 1021 730 732
f 1021 764 463
f 1022 741 732
f 1022 732 729
f 1022 728 741
f 1023 724 1019
f 1023 1019 741
f 1023 741 728
f 1023 728 432
f 1023 432 431
f 1023 431 724
f 1024 433 435
f 1024 731 734
f 1024 734 433
f 1025 1015 1014
f 1025 1014 723
f 1025 723 434
f 1025 434 433
f 1025 433 733
f 1025 733 745
f 1025 745 1015
f 1026 290 738
f 1026 464 290
f 1027 730 464
f 1027 464 1028
f 1027 731 730
f 1029 764 1021
f 1029 1021 732
f 1029 732 740
f 1029 1030 764
f 1031 739 303
f 1031 303 1030
f 1031 1030 1029
f 1031 1029 740
f 1032 436 1033
f 1032 647 251
f 1032 251 436
f 1034 1013 254
f 1034 254 1033
f 1034 1033 436
f 1034 436 125
f 1035 746 742
f 1035 742 743
f 1036 746 1037
f 1036 1037 1001
f 1036 1001 715
f 1036 715 959
f 1038 1037 746
f 1038 746 1035
f 1039 1037 1038
f 1039 1038 718
f 1040 441 747
f 1040 747 50
f 1040 50 441
f 1041 748 747
f 1042 447 753
f 1042 753 446
f 1042 446 403
f 1042 403 447
f 1043 753 447
f 1043 447 257
f 1044 448 449
f 1045 449 453
f 1045 453 263
f 1045 263 326
f 1045 326 842
f 1046 511 448
f 1046 448 1044
f 1047 128 459
f 1047 402 128
f 1048 635 224
f 1048 224 943
f 1048 943 402
f 1048 402 1047
f 1048 1047 459
f 1048 459 758
f 1048 758 461
f 1048 461 635
f 1049 487 462
f 1049 462 759
f 1049 759 70
f 1049 70 308
f 1049 308 487
f 1050 401 760
f 1050 760 484
f 1050 484 633
f 1051 763 764
f 1051 764 1030
f 1052 762 761
f 1052 761 763
f 1052 763 1051
f 1053 749 751
f 1053 751 1054
f 1055 289 288
f 1056 1054 1057
f 1058 784 767
f 1058 783 784
f 1059 765 767
f 1059 767 784
f 1059 784 772
f 1059 772 294
f 1059 294 765
f 1060 1061 1058
f 1060 1058 767
f 1060 767 451
f 1060 451 768
f 1060 768 771
f 1060 771 1061
f 1062 467 773
f 1062 773 472
f 1062 472 471
f 1062 471 467
f 1063 473 475
f 1064 474 775
f 1064 775 477
f 1064 477 474
f 1065 512 468
f 1065 468 778
f 1065 778 769
f 1065 769 513
f 1065 513 512
f 1066 787 781
f 1066 1067 1068
f 1066 1068 1069
f 1066 1069 787
f 1070 1071 1072
f 1070 779 780
f 1070 780 1071
f 1073 771 770
f 1073 770 480
f 1073 480 1067
f 1073 1067 1072
f 1074 292 785
f 1075 155 299
f 1075 786 789
f 1076 788 787
f 1076 787 1069
f 1077 483 482
f 1077 482 791
f 1077 762 1052
f 1077 1052 483
f 1078 762 1077
f 1078 1077 791
f 1078 791 790
f 1079 1078 790
f 1079 790 291
f 1080 634 792
f 1080 792 938
f 1080 938 942
f 1081 1082 395
f 1083 497 510
f 1084 1085 498
f 1084 498 1086
f 1084 1086 797
f 1084 797 1085
f 1087 796 532
f 1088 796 506
f 1088 506 312
f 1089 1086 498
f 1089 498 531
f 1089 531 533
f 1089 533 796
f 1089 796 797
f 1089 797 1086
f 1090 1085 797
f 1090 797 311
f 1090 311 800
f 1090 800 501
f 1090 501 498
f 1090 498 1085
f 1091 880 1083
f 1091 1083 510
f 1091 510 803
f 1092 562 880
f 1092 880 1091
f 1092 1091 803
f 1092 803 804
f 1093 450 259
f 1093 259 511
f 1093 511 805
f 1094 862 838
f 1094 1095 848
f 1094 848 847
f 1094 847 862
f 1096 838 862
f 1096 839 838
f 1097 799 498
f 1097 498 501
f 1097 501 503
f 1097 503 806
f 1097 806 1098
f 1097 1098 342
f 1097 342 799
f 1099 876 819
f 1099 819 341
f 1100 517 1098
f 1100 1098 806
f 1100 806 516
f 1100 516 517
f 1101 530 72
f 1101 72 812
f 1101 1102 310
f 1101 310 530
f 1103 855 809
f 1103 809 500
f 1103 500 310
f 1103 310 1102
f 1104 520 529
f 1104 529 812
f 1104 812 72
f 1104 72 520
f 1105 821 1106
f 1107 561 563
f 1107 396 395
f 1108 1109 817
f 1108 817 322
f 1110 517 518
f 1111 825 826
f 1111 826 843
f 1111 830 827
f 1111 827 541
f 1111 541 825
f 1112 848 1095
f 1112 828 830
f 1112 830 1111
f 1112 1111 843
f 1112 843 848
f 1113 828 1112
f 1113 1112 1095
f 1113 1095 1094
f 1113 1094 838
f 1114 832 176
f 1114 176 179
f 1114 179 178
f 1114 178 331
f 1115 1116 548
f 1117 840 169
f 1117 169 1118
f 1119 1118 169
f 1119 169 545
f 1119 545 831
f 1120 1118 1119
f 1120 1119 831
f 1120 831 827
f 1120 827 829
f 1121 1117 1118
f 1121 1118 1120
f 1122 840 1123
f 1122 1123 841
f 1122 841 325
f 1122 325 840
f 1124 844 843
f 1124 843 826
f 1124 826 547
f 1124 547 832
f 1124 832 844
f 1125 846 843
f 1125 843 845
f 1125 845 850
f 1125 850 849
f 1125 849 1126
f 1125 1126 846
f 1127 854 551
f 1127 551 536
f 1127 536 852
f 1127 852 850
f 1127 850 854
f 1128 1129 864
f 1128 864 850
f 1128 850 852
f 1128 852 535
f 1128 535 863
f 1128 863 1129
f 1130 1126 849
f 1130 849 851
f 1130 851 860
f 1130 860 847
f 1130 847 846
f 1130 846 1126
f 1131 861 857
f 1132 552 851
f 1132 851 864
f 1132 864 1129
f 1132 1129 863
f 1132 863 518
f 1132 518 552
f 1133 398 361
f 1133 361 360
f 1133 360 180
f 1133 180 555
f 1133 555 337
f 1133 337 866
f 1133 866 175
f 1133 175 398
f 1134 870 869
f 1134 869 558
f 1134 558 557
f 1135 616 619
f 1135 867 106
f 1135 106 616
f 1136 871 868
f 1136 868 870
f 1136 870 1106
f 1137 76 187
f 1137 187 75
f 1137 75 74
f 1137 74 872
f 1137 872 873
f 1137 873 184
f 1137 184 76
f 1138 807 808
f 1138 808 875
f 1138 875 876
f 1138 876 807
f 1139 184 873
f 1139 873 874
f 1139 874 808
f 1139 808 877
f 1139 877 554
f 1139 554 183
f 1139 183 184
f 1140 561 1107
f 1140 1107 395
f 1140 395 879
f 1140 879 562
f 1140 562 561
f 1141 963 657
f 1141 657 658
f 1141 658 881
f 1141 881 568
f 1141 568 963
f 1142 570 882
f 1142 882 569
f 1142 569 570
f 1143 569 882
f 1143 882 1144
f 1143 1144 569
f 1145 1144 882
f 1145 882 662
f 1145 662 661
f 1145 661 566
f 1145 566 1146
f 1145 1146 569
f 1145 569 1144
f 1147 565 573
f 1147 566 565
f 1148 1149 902
f 1148 902 944
f 1148 944 948
f 1148 948 947
f 1150 1151 1152
f 1153 1154 1155
f 1156 1149 1148
f 1156 1148 1157
f 1156 344 573
f 1156 573 585
f 1156 585 580
f 1156 580 903
f 1156 903 902
f 1156 902 1149
f 1158 887 888
f 1158 888 889
f 1158 889 891
f 1159 969 966
f 1159 966 971
f 1159 971 672
f 1160 968 969
f 1160 969 1159
f 1160 1159 1152
f 1160 1152 1151
f 1161 898 895
f 1161 895 896
f 1161 896 1151
f 1162 897 898
f 1163 895 897
f 1163 897 124
f 1163 124 895
f 1164 897 1162
f 1164 1162 1155
f 1164 1155 1154
f 1165 1166 1167
f 1168 709 708
f 1168 708 124
f 1168 124 897
f 1169 591 906
f 1169 906 573
f 1169 594 350
f 1169 350 349
f 1169 349 591
f 1170 591 907
f 1170 907 592
f 1170 592 591
f 1171 572 881
f 1171 881 658
f 1171 658 909
f 1171 909 594
f 1171 594 572
f 1172 598 359
f 1172 88 598
f 1173 633 223
f 1173 1050 633
f 1174 401 1050
f 1174 1050 1173
f 1174 1173 1175
f 1174 1175 225
f 1174 225 401
f 1176 599 1177
f 1178 1176 1177
f 1178 914 225
f 1178 225 1175
f 1179 34 30
f 1179 30 606
f 1179 606 380
f 1179 380 920
f 1179 920 373
f 1179 373 34
f 1180 611 924
f 1180 924 218
f 1180 218 387
f 1180 387 611
f 1181 495 1182
f 1183 1184 1185
f 1183 1185 613
f 1186 494 925
f 1186 925 612
f 1186 612 611
f 1187 621 615
f 1187 615 929
f 1187 929 928
f 1188 1181 1182
f 1188 1081 1189
f 1188 1189 927
f 1188 613 1185
f 1190 1188 927
f 1190 927 926
f 1190 926 390
f 1191 619 930
f 1192 602 626
f 1192 626 933
f 1193 149 631
f 1193 631 936
f 1193 936 282
f 1193 282 281
f 1194 634 1080
f 1194 1080 942
f 1194 942 223
f 1194 223 634
f 1195 944 945
f 1196 946 1167
f 1196 1167 1166
f 1197 1165 1167
f 1198 235 1004
f 1198 1004 1003
f 1199 637 236
f 1199 236 235
f 1200 407 643
f 1200 643 640
f 1200 640 1010
f 1200 1010 1011
f 1201 953 1202
f 1203 951 239
f 1204 901 638
f 1204 638 954
f 1204 954 234
f 1204 234 901
f 1205 746 1036
f 1205 1036 959
f 1205 959 713
f 1205 713 255
f 1205 255 746
f 1206 421 420
f 1206 420 922
f 1207 909 653
f 1207 350 594
f 1207 594 909
f 1208 696 1209
f 1210 1208 1209
f 1210 1209 682
f 1210 962 666
f 1210 666 665
f 1211 965 964
f 1211 964 669
f 1211 669 974
f 1211 974 972
f 1211 972 965
f 1212 670 964
f 1212 964 966
f 1212 966 967
f 1212 967 671
f 1212 671 670
f 1213 974 669
f 1213 681 974
f 1214 970 972
f 1214 972 243
f 1214 243 413
f 1214 413 970
f 1215 243 973
f 1215 973 415
f 1215 415 414
f 1215 414 244
f 1215 244 243
f 1216 977 1217
f 1216 1217 424
f 1218 568 567
f 1218 567 661
f 1218 661 663
f 1218 663 679
f 1218 679 977
f 1218 977 963
f 1218 963 568
f 1219 1217 977
f 1219 977 679
f 1219 679 978
f 1219 978 424
f 1219 424 1217
f 1220 1221 676
f 1222 1209 696
f 1222 696 982
f 1222 982 682
f 1222 682 1209
f 1223 419 984
f 1223 984 686
f 1223 686 986
f 1223 986 689
f 1223 689 419
f 1224 986 985
f 1224 689 986
f 1225 1002 1000
f 1226 715 1001
f 1226 1001 1000
f 1226 714 715
f 1227 1006 1002
f 1228 1007 248
f 1228 248 709
f 1229 1008 1007
f 1230 1231 1232
f 1230 1232 998
f 1230 998 705
f 1230 705 710
f 1233 7 250
f 1233 250 429
f 1233 125 7
f 1234 740 741
f 1234 741 1019
f 1234 1019 1018
f 1235 728 1022
f 1235 1022 729
f 1235 729 435
f 1236 729 731
f 1236 731 1024
f 1236 1024 435
f 1236 435 729
f 1237 750 1238
f 1237 737 750
f 1239 1240 1026
f 1239 1026 738
f 1239 738 737
f 1241 734 1242
f 1241 1242 993
f 1241 993 701
f 1243 1242 734
f 1243 734 731
f 1244 735 1245
f 1244 1245 289
f 1244 289 736
f 1244 736 735
f 1246 289 1245
f 1246 1245 735
f 1246 735 738
f 1246 738 289
f 1247 1028 464
f 1247 464 1026
f 1247 1026 1240
f 1248 993 1242
f 1248 1027 1249
f 1248 1249 993
f 1250 1018 739
f 1250 739 1031
f 1250 1031 740
f 1250 740 1234
f 1250 1234 1018
f 1251 438 647
f 1251 647 1032
f 1251 1032 1033
f 1251 1033 254
f 1251 254 253
f 1251 253 438
f 1252 744 745
f 1252 745 733
f 1252 733 734
f 1252 734 995
f 1252 1035 743
f 1252 743 744
f 1253 1254 1035
f 1253 1035 996
f 1255 1038 1035
f 1255 1035 1254
f 1256 706 716
f 1256 716 1257
f 1258 706 1256
f 1258 1256 1039
f 1258 1039 718
f 1258 718 706
f 1259 750 749
f 1259 749 1260
f 1259 1260 748
f 1259 748 1041
f 1259 1041 1238
f 1259 1238 750
f 1261 915 602
f 1261 602 1192
f 1261 1192 933
f 1261 753 1043
f 1261 1043 257
f 1261 257 915
f 1262 834 833
f 1263 1262 1264
f 1265 1266 1263
f 1265 1263 1264
f 1265 1264 1045
f 1265 1045 842
f 1267 1264 1046
f 1267 1046 1044
f 1267 1044 449
f 1267 449 1045
f 1267 1045 1264
f 1268 483 1052
f 1268 1052 1051
f 1268 1051 1030
f 1268 1030 303
f 1268 303 483
f 1269 749 1053
f 1270 292 1074
f 1271 1055 288
f 1271 288 762
f 1272 751 736
f 1273 1055 1271
f 1274 289 1055
f 1274 1055 1273
f 1274 1275 1272
f 1276 1275 1056
f 1276 1056 1057
f 1276 1057 1054
f 1276 1054 751
f 1277 479 774
f 1278 473 1277
f 1278 1277 1279
f 1278 1279 474
f 1278 474 473
f 1280 471 470
f 1280 470 1281
f 1280 1281 774
f 1280 774 471
f 1282 1279 1277
f 1282 1277 774
f 1282 774 1281
f 1282 1281 470
f 1282 470 474
f 1282 474 1279
f 1283 1284 1063
f 1283 1063 475
f 1285 1286 1287
f 1285 1287 1277
f 1285 1277 473
f 1285 473 1063
f 1285 1063 1284
f 1285 1284 1286
f 1288 1069 1068
f 1289 481 1068
f 1289 1068 1067
f 1289 1067 480
f 1289 480 481
f 1290 1066 781
f 1290 781 779
f 1290 779 1070
f 1290 1070 1072
f 1290 1072 1067
f 1290 1067 1066
f 1291 1071 780
f 1291 780 783
f 1291 783 1073
f 1291 1073 1072
f 1291 1072 1071
f 1292 1061 771
f 1292 771 1073
f 1292 1073 783
f 1292 783 1058
f 1292 1058 1061
f 1293 785 67
f 1293 67 155
f 1293 155 1075
f 1293 1075 789
f 1293 789 1074
f 1293 1074 785
f 1294 782 786
f 1294 786 1075
f 1294 1075 299
f 1294 299 298
f 1294 298 782
f 1295 1054 1056
f 1296 762 1078
f 1296 1078 1079
f 1297 1082 1081
f 1297 1083 1082
f 1298 495 497
f 1299 1082 1083
f 1299 1083 880
f 1299 880 879
f 1299 879 395
f 1299 395 1082
f 1300 506 796
f 1300 796 1087
f 1300 1087 509
f 1301 814 509
f 1301 509 1087
f 1301 1087 532
f 1301 532 531
f 1301 531 814
f 1302 796 1088
f 1302 1088 312
f 1302 312 796
f 1303 1304 878
f 1303 878 562
f 1303 562 1092
f 1303 1092 804
f 1303 804 1304
f 1305 452 450
f 1305 450 1093
f 1305 1093 805
f 1305 805 452
f 1306 836 528
f 1306 528 525
f 1306 525 527
f 1307 1116 1308
f 1309 342 1098
f 1309 1098 1099
f 1309 1099 341
f 1309 341 342
f 1310 807 876
f 1310 876 1099
f 1310 1099 1098
f 1310 1098 517
f 1310 517 1110
f 1310 1110 824
f 1310 824 540
f 1310 540 807
f 1311 1102 1101
f 1312 1101 812
f 1312 812 835
f 1313 855 1103
f 1313 1103 1102
f 1313 856 855
f 1314 1105 1106
f 1314 1106 870
f 1315 817 1109
f 1315 1109 1316
f 1315 815 817
f 1317 1316 1109
f 1318 818 1108
f 1318 1108 322
f 1318 322 341
f 1318 341 818
f 1319 821 1320
f 1319 1320 1109
f 1319 1109 1108
f 1319 1108 818
f 1319 818 821
f 1321 1110 518
f 1321 518 535
f 1321 535 538
f 1322 828 1113
f 1322 1113 838
f 1322 838 837
f 1322 829 828
f 1323 853 832
f 1323 832 1114
f 1323 1114 331
f 1323 331 551
f 1323 551 854
f 1323 854 853
f 1324 1115 548
f 1324 548 813
f 1325 523 522
f 1325 522 469
f 1325 469 468
f 1325 468 834
f 1325 524 523
f 1326 840 1117
f 1326 1327 1123
f 1326 1123 840
f 1328 829 1322
f 1328 1322 837
f 1328 1121 1120
f 1328 1120 829
f 1329 862 861
f 1329 861 1131
f 1330 1096 862
f 1330 862 1329
f 1330 1329 1131
f 1330 1131 1331
f 1332 1134 557
f 1332 557 867
f 1333 1107 1334
f 1335 1191 620
f 1335 620 394
f 1336 820 819
f 1336 819 874
f 1337 820 1336
f 1338 821 820
f 1338 820 1337
f 1338 1136 1106
f 1338 1106 821
f 1339 569 1146
f 1339 1146 566
f 1339 566 1147
f 1339 1147 573
f 1339 573 569
f 1340 1341 1342
f 1340 1342 1156
f 1343 1342 1341
f 1343 1341 1344
f 1343 1344 1345
f 1346 1150 1152
f 1347 1153 1150
f 1347 1150 1346
f 1347 1346 1348
f 1347 1348 1345
f 1349 1156 1342
f 1349 1342 1343
f 1350 896 249
f 1350 1160 1151
f 1350 1151 896
f 1351 1150 1153
f 1351 1153 1155
f 1351 1155 1162
f 1351 1162 898
f 1351 898 1161
f 1351 1161 1151
f 1351 1151 1150
f 1352 1353 1168
f 1352 1168 897
f 1352 897 1164
f 1352 1164 1154
f 1352 1154 1353
f 1354 1168 1353
f 1355 594 1169
f 1355 1169 573
f 1355 573 594
f 1356 88 1172
f 1356 913 88
f 1357 913 1177
f 1357 1177 599
f 1357 599 913
f 1358 358 1177
f 1358 1177 913
f 1358 913 1356
f 1358 1356 1172
f 1358 1172 359
f 1358 359 358
f 1359 600 914
f 1359 914 1178
f 1359 1178 1177
f 1359 1177 358
f 1359 358 221
f 1359 221 600
f 1360 599 1176
f 1360 223 599
f 1361 688 988
f 1361 987 688
f 1362 987 1361
f 1362 1361 1184
f 1362 694 987
f 1363 495 1181
f 1363 1184 1361
f 1363 1361 988
f 1363 988 495
f 1364 493 492
f 1364 492 694
f 1364 694 1362
f 1364 1362 1184
f 1365 387 610
f 1365 610 593
f 1365 1186 611
f 1365 611 387
f 1366 1189 1081
f 1366 1187 928
f 1366 928 927
f 1366 927 1189
f 1367 1081 395
f 1367 395 622
f 1368 1181 1188
f 1368 1188 1185
f 1368 1185 1184
f 1368 1184 1363
f 1368 1363 1181
f 1369 1081 1188
f 1369 1188 1182
f 1369 1182 495
f 1369 495 1298
f 1369 1298 1081
f 1370 613 1188
f 1370 1188 1190
f 1371 621 620
f 1371 620 1191
f 1371 1191 930
f 1371 930 378
f 1371 378 615
f 1371 615 621
f 1372 286 149
f 1372 149 1193
f 1372 1193 281
f 1372 281 283
f 1372 283 6
f 1372 6 5
f 1372 5 286
f 1373 948 944
f 1373 944 1195
f 1373 946 948
f 1374 1195 945
f 1374 945 949
f 1374 949 950
f 1375 947 946
f 1375 946 1196
f 1375 1148 947
f 1376 1341 1340
f 1376 1196 1166
f 1377 1197 1167
f 1377 1167 946
f 1378 1379 1380
f 1381 709 1382
f 1381 1229 1007
f 1381 1007 1228
f 1381 1228 709
f 1383 1379 1378
f 1384 1198 1385
f 1384 1385 1386
f 1384 1199 235
f 1384 235 1198
f 1387 239 407
f 1387 407 1200
f 1387 1200 1202
f 1388 1004 235
f 1388 235 954
f 1388 953 1201
f 1388 1201 1005
f 1388 1005 1004
f 1389 1201 1202
f 1389 1202 1200
f 1390 953 952
f 1390 952 951
f 1390 951 1203
f 1390 1203 1202
f 1390 1202 953
f 1391 961 350
f 1391 350 1207
f 1391 1207 653
f 1391 653 961
f 1392 1208 1210
f 1392 1210 665
f 1392 665 695
f 1392 695 696
f 1392 696 1208
f 1393 962 1210
f 1393 1210 682
f 1393 682 990
f 1393 990 421
f 1393 421 1206
f 1394 668 671
f 1394 671 674
f 1394 1213 669
f 1394 669 668
f 1395 666 977
f 1395 977 1216
f 1395 1216 424
f 1395 424 667
f 1395 667 666
f 1396 681 1213
f 1396 1213 1221
f 1396 1221 1220
f 1396 1220 678
f 1396 678 681
f 1397 981 678
f 1397 678 1220
f 1397 1220 676
f 1397 676 675
f 1397 675 981
f 1398 692 690
f 1398 690 689
f 1398 689 1224
f 1398 1224 985
f 1398 985 692
f 1399 1225 1000
f 1399 1000 999
f 1400 1003 1002
f 1401 1400 1002
f 1401 1002 1225
f 1402 1006 714
f 1402 714 1226
f 1402 1226 1000
f 1402 1000 1006
f 1403 1014 1013
f 1404 1014 1403
f 1404 1403 1233
f 1404 1233 429
f 1405 434 728
f 1405 728 1235
f 1405 1235 435
f 1405 435 434
f 1406 993 1249
f 1406 1249 1407
f 1408 1041 747
f 1408 747 445
f 1408 445 444
f 1408 444 1407
f 1408 1407 1249
f 1408 1249 1237
f 1409 993 1406
f 1409 1406 1407
f 1409 1407 444
f 1409 444 442
f 1410 1249 1027
f 1410 1027 1028
f 1410 1028 1247
f 1410 1247 1240
f 1410 1240 1239
f 1411 1237 1249
f 1411 1249 1410
f 1411 1410 1239
f 1411 1239 737
f 1411 737 1237
f 1412 994 734
f 1412 734 1241
f 1412 1241 701
f 1412 701 702
f 1412 702 994
f 1413 1243 731
f 1413 731 1027
f 1413 1027 1248
f 1413 1248 1242
f 1413 1242 1243
f 1414 996 1035
f 1414 1035 1252
f 1414 1252 995
f 1414 995 994
f 1414 994 996
f 1415 718 1038
f 1415 1038 1255
f 1415 1255 1254
f 1415 1254 1253
f 1415 1253 996
f 1415 996 702
f 1415 702 718
f 1416 1037 1039
f 1416 1039 1256
f 1416 1256 1257
f 1416 1001 1037
f 1417 171 753
f 1417 753 1261
f 1417 1261 933
f 1417 933 171
f 1418 1308 1419
f 1420 1421 1418
f 1420 1422 1331
f 1423 1096 1330
f 1423 1330 1331
f 1423 1331 1422
f 1423 839 1096
f 1424 839 1423
f 1424 1423 1422
f 1424 1422 1420
f 1425 1419 1308
f 1425 1308 834
f 1425 834 1262
f 1426 1262 833
f 1426 833 512
f 1427 839 1424
f 1427 1424 1327
f 1427 837 839
f 1428 1425 1262
f 1428 1262 1263
f 1428 1263 1266
f 1428 1266 1429
f 1430 841 1123
f 1430 1266 1265
f 1430 1265 842
f 1430 842 841
f 1431 1260 749
f 1431 749 1269
f 1431 748 1260
f 1432 1054 1295
f 1432 1433 1053
f 1432 1053 1054
f 1434 1435 1270
f 1434 1270 1436
f 1437 1438 1275
f 1437 1275 1274
f 1437 1274 1273
f 1437 1273 1271
f 1437 1271 1436
f 1437 1436 1438
f 1439 1436 1270
f 1439 1438 1436
f 1440 1295 1056
f 1440 1056 1441
f 1442 751 1272
f 1442 1272 1275
f 1442 1275 1276
f 1442 1276 751
f 1443 736 289
f 1443 289 1274
f 1443 1274 1272
f 1443 1272 736
f 1444 479 1277
f 1444 1277 1287
f 1444 481 479
f 1445 748 1431
f 1445 1431 1269
f 1445 476 50
f 1445 50 748
f 1446 1053 1433
f 1446 1286 1284
f 1446 1284 1283
f 1447 1069 1288
f 1447 1288 1448
f 1447 1076 1069
f 1449 481 1444
f 1449 1444 1287
f 1449 1288 1068
f 1449 1068 481
f 1450 1433 1432
f 1450 1432 1448
f 1450 1448 1288
f 1450 1288 1449
f 1450 1449 1287
f 1450 1287 1286
f 1451 1452 1434
f 1451 1434 1296
f 1451 1296 1079
f 1451 1079 291
f 1451 291 1452
f 1453 1296 1434
f 1453 1434 1436
f 1454 1297 1081
f 1454 1081 1298
f 1454 1298 497
f 1454 497 1083
f 1454 1083 1297
f 1455 506 1300
f 1455 1300 509
f 1455 509 508
f 1455 508 801
f 1455 801 506
f 1456 1457 1421
f 1456 1421 1420
f 1456 1420 1331
f 1458 1306 527
f 1458 527 548
f 1458 548 1116
f 1458 1116 1307
f 1458 836 1306
f 1459 836 1458
f 1459 1458 1307
f 1459 1421 1457
f 1459 1457 835
f 1459 835 836
f 1460 1457 1456
f 1460 1456 1331
f 1460 1331 1131
f 1461 1101 1312
f 1462 1457 1460
f 1462 1461 1312
f 1462 1312 835
f 1462 835 1457
f 1463 1311 856
f 1463 856 1313
f 1463 1313 1102
f 1463 1102 1311
f 1464 1134 1332
f 1464 1314 870
f 1464 870 1134
f 1465 878 1304
f 1466 1304 804
f 1466 804 815
f 1466 815 1315
f 1466 1315 1316
f 1466 1316 1465
f 1466 1465 1304
f 1467 1105 1314
f 1467 1334 1107
f 1467 821 1105
f 1468 824 1110
f 1468 1110 1321
f 1468 1321 538
f 1468 538 824
f 1469 1115 1324
f 1469 1324 813
f 1469 813 524
f 1469 524 1325
f 1469 1325 1115
f 1470 1115 1325
f 1470 1325 834
f 1470 834 1308
f 1470 1308 1116
f 1470 1116 1115
f 1471 1332 867
f 1472 396 1107
f 1472 1107 1333
f 1472 1335 394
f 1472 394 396
f 1473 619 1191
f 1473 1191 1335
f 1473 1135 619
f 1474 1471 867
f 1474 867 1135
f 1475 872 871
f 1475 871 1136
f 1475 874 872
f 1476 1157 1376
f 1476 1376 1340
f 1476 1340 1156
f 1476 1156 1157
f 1477 1154 1153
f 1477 1153 1347
f 1477 1347 1345
f 1477 1345 1344
f 1477 1165 1154
f 1478 1343 1345
f 1478 1345 1348
f 1478 1348 894
f 1478 894 1479
f 1478 1480 1343
f 1481 1348 1346
f 1481 1346 891
f 1481 891 890
f 1481 890 894
f 1481 894 1348
f 1482 1158 891
f 1482 891 1346
f 1482 1346 1152
f 1482 1152 1159
f 1482 1159 672
f 1482 672 576
f 1482 576 887
f 1482 887 1158
f 1483 1156 1349
f 1483 1349 1343
f 1483 1343 1480
f 1484 1156 1483
f 1484 1483 1480
f 1484 1480 1478
f 1484 1478 1479
f 1484 1479 894
f 1484 894 893
f 1484 893 890
f 1484 890 892
f 1484 892 889
f 1484 889 344
f 1484 344 1156
f 1485 711 968
f 1485 968 1160
f 1485 1160 1350
f 1485 1350 249
f 1485 249 711
f 1486 1487 709
f 1486 709 1168
f 1486 1168 1354
f 1488 223 1360
f 1488 1360 1173
f 1488 1173 223
f 1489 1175 1173
f 1489 1173 1360
f 1489 1360 1176
f 1489 1176 1178
f 1489 1178 1175
f 1490 1183 613
f 1490 613 493
f 1490 493 1364
f 1490 1364 1184
f 1490 1184 1183
f 1491 592 795
f 1491 795 494
f 1491 494 1186
f 1491 1186 1365
f 1491 1365 593
f 1491 593 592
f 1492 1187 1366
f 1492 1366 1081
f 1492 1081 1367
f 1492 1367 622
f 1492 622 621
f 1492 621 1187
f 1493 389 612
f 1493 612 613
f 1493 613 1370
f 1493 1370 1190
f 1493 1190 390
f 1493 390 389
f 1494 1374 950
f 1494 950 637
f 1494 637 1199
f 1494 1199 1384
f 1495 1196 1376
f 1495 1376 1157
f 1495 1157 1148
f 1495 1148 1375
f 1495 1375 1196
f 1496 1344 1341
f 1496 1341 1376
f 1496 1376 1166
f 1496 1166 1165
f 1496 1165 1477
f 1496 1477 1344
f 1497 1377 946
f 1497 946 1373
f 1497 1373 1195
f 1497 1195 1374
f 1498 1378 1380
f 1498 1380 1197
f 1499 1500 1501
f 1499 1501 1381
f 1499 1381 1382
f 1502 1379 1382
f 1502 1382 709
f 1502 709 1503
f 1502 1503 1380
f 1502 1380 1379
f 1504 1380 1503
f 1504 1503 709
f 1504 709 1487
f 1504 1487 1380
f 1505 1386 1385
f 1505 1383 1378
f 1505 1378 1498
f 1506 716 1507
f 1506 1257 716
f 1508 999 1001
f 1508 1001 1416
f 1508 1416 1257
f 1508 1257 1506
f 1509 1230 710
f 1509 710 1008
f 1509 1507 1231
f 1509 1231 1230
f 1510 1231 1507
f 1510 1507 716
f 1510 716 998
f 1510 998 1232
f 1510 1232 1231
f 1511 1501 1500
f 1512 1203 239
f 1512 239 1387
f 1512 1387 1202
f 1512 1202 1203
f 1513 953 1388
f 1513 1388 954
f 1513 954 590
f 1513 590 953
f 1514 1201 1389
f 1514 1389 1200
f 1514 1200 1011
f 1515 960 962
f 1515 962 1393
f 1515 1393 1206
f 1515 1206 922
f 1515 922 655
f 1515 655 960
f 1516 676 1221
f 1516 1221 1213
f 1516 1213 1394
f 1516 1394 674
f 1516 674 676
f 1517 125 1233
f 1517 1233 1403
f 1517 1403 1013
f 1517 1013 1034
f 1517 1034 125
f 1518 1016 723
f 1518 723 1014
f 1518 1014 1404
f 1518 1404 429
f 1518 429 1016
f 1519 1238 1041
f 1519 1041 1408
f 1519 1408 1237
f 1519 1237 1238
f 1520 443 993
f 1520 993 1409
f 1520 1409 442
f 1520 442 443
f 1521 1307 1308
f 1521 1308 1418
f 1521 1418 1421
f 1521 1421 1459
f 1521 1459 1307
f 1522 1266 1430
f 1522 1430 1123
f 1522 1123 1327
f 1522 1327 1424
f 1522 1424 1429
f 1522 1429 1266
f 1523 511 1046
f 1523 1046 1264
f 1523 1264 1262
f 1523 1262 1426
f 1523 1426 512
f 1523 512 511
f 1524 1427 1327
f 1524 1327 1326
f 1524 1326 1117
f 1525 1418 1419
f 1525 1419 1425
f 1525 1425 1428
f 1525 1428 1429
f 1525 1429 1424
f 1525 1424 1420
f 1525 1420 1418
f 1526 156 292
f 1526 292 1270
f 1526 1270 1435
f 1526 1435 293
f 1526 293 156
f 1527 1435 1434
f 1527 1434 1452
f 1527 1452 291
f 1527 291 293
f 1527 293 1435
f 1528 1439 1270
f 1528 1270 1074
f 1529 1438 1439
f 1529 1441 1056
f 1529 1056 1275
f 1529 1275 1438
f 1530 1076 1447
f 1530 1447 1295
f 1530 1295 1440
f 1530 789 788
f 1530 788 1076
f 1531 1286 1446
f 1531 1446 1433
f 1531 1433 1450
f 1531 1450 1286
f 1532 1445 1269
f 1532 1446 1283
f 1532 1283 475
f 1532 475 476
f 1532 476 1445
f 1533 1295 1447
f 1533 1447 1448
f 1533 1448 1432
f 1533 1432 1295
f 1534 762 1296
f 1534 1271 762
f 1535 857 856
f 1535 856 1462
f 1535 1462 1460
f 1535 1460 1131
f 1535 1131 857
f 1536 1101 1461
f 1536 1461 1462
f 1536 1462 856
f 1536 856 1311
f 1536 1311 1101
f 1537 1465 1316
f 1537 1316 1317
f 1537 1317 1467
f 1538 878 1465
f 1538 1465 1539
f 1538 1539 1107
f 1538 1107 563
f 1538 563 878
f 1540 1320 821
f 1540 821 1467
f 1540 1467 1317
f 1540 1317 1109
f 1540 1109 1320
f 1541 1333 1334
f 1541 1334 1467
f 1541 1467 1314
f 1541 1314 1464
f 1542 1335 1472
f 1542 1472 1333
f 1543 1335 1542
f 1543 1542 1474
f 1543 1474 1135
f 1543 1135 1473
f 1543 1473 1335
f 1544 1337 1336
f 1544 1336 874
f 1544 874 1475
f 1544 1475 1136
f 1544 1136 1338
f 1544 1338 1337
f 1545 1197 1380
f 1545 1380 1487
f 1545 1487 1486
f 1545 1486 1354
f 1545 1354 1353
f 1545 1353 1154
f 1545 1154 1165
f 1545 1165 1197
f 1546 1498 1197
f 1546 1197 1377
f 1546 1377 1497
f 1546 1497 1374
f 1547 1494 1384
f 1547 1384 1386
f 1548 1500 1499
f 1548 1499 1382
f 1548 1382 1379
f 1548 1379 1383
f 1548 1383 1500
f 1549 1505 1385
f 1549 1385 1198
f 1549 1198 1003
f 1550 1229 1381
f 1550 1381 1501
f 1550 1509 1008
f 1550 1008 1229
f 1551 1401 1225
f 1551 1225 1399
f 1551 1399 999
f 1551 1003 1400
f 1551 1400 1401
f 1552 1514 1011
f 1552 1011 1009
f 1552 1009 714
f 1552 714 1006
f 1552 1006 1227
f 1553 837 1427
f 1553 1427 1524
f 1553 1524 1117
f 1553 1117 1121
f 1554 1439 1528
f 1554 1528 1074
f 1555 1446 1532
f 1555 1532 1269
f 1555 1269 1053
f 1555 1053 1446
f 1556 1453 1436
f 1556 1436 1271
f 1556 1271 1534
f 1556 1534 1296
f 1556 1296 1453
f 1557 1465 1537
f 1557 1537 1467
f 1557 1467 1107
f 1557 1107 1539
f 1557 1539 1465
f 1558 1474 1542
f 1558 1542 1333
f 1558 1333 1541
f 1558 1541 1464
f 1558 1464 1332
f 1558 1332 1471
f 1558 1471 1474
f 1559 1498 1546
f 1559 1546 1374
f 1559 1374 1494
f 1559 1494 1547
f 1560 1505 1498
f 1560 1498 1559
f 1560 1559 1547
f 1560 1547 1386
f 1560 1386 1505
f 1561 1505 1549
f 1562 1508 1506
f 1562 1506 1507
f 1562 1551 999
f 1562 999 1508
f 1563 1005 1201
f 1563 1201 1514
f 1563 1514 1552
f 1563 1552 1227
f 1563 1227 1002
f 1563 1002 1005
f 1564 837 1553
f 1564 1553 1121
f 1564 1121 1328
f 1564 1328 837
f 1565 1440 1441
f 1565 1441 1529
f 1565 1529 1439
f 1565 1439 1554
f 1565 789 1530
f 1565 1530 1440
f 1566 1383 1505
f 1566 1505 1561
f 1566 1561 1500
f 1566 1500 1383
f 1567 1509 1550
f 1567 1550 1568
f 1567 1568 1562
f 1567 1562 1507
f 1567 1507 1509
f 1569 1562 1568
f 1569 1568 1550
f 1569 1550 1501
f 1569 1501 1511
f 1570 789 1565
f 1570 1565 1554
f 1570 1554 1074
f 1570 1074 789
f 1571 1549 1003
f 1571 1003 1551
f 1571 1551 1562
f 1571 1562 1569
f 1571 1569 1511
f 1571 1511 1500
f 1571 1500 1561
f 1571 1561 1549
