# Convex hull collision mesh — generated by scripts/generate-collision-meshes.mjs (units: meters)
v 0.013150 0.004900 -0.004000
v -0.022500 0.010000 -0.001540
v 0.022500 0.010000 -0.001540
v -0.022500 -0.010000 0.000000
v -0.022500 -0.010000 -0.001540
v -0.004030 -0.016000 -0.006260
v -0.002500 0.010000 0.000200
v -0.003590 -0.016000 -0.005820
v 0.004030 -0.016000 -0.005820
v 0.013155 -0.007946 0.011771
v -0.013150 0.004900 -0.004000
v -0.013246 0.004888 -0.004000
v -0.020920 -0.004920 -0.003290
v 0.022500 0.002000 -0.002533
v 0.022449 0.001746 -0.003242
v 0.022500 -0.010000 -0.001540
v 0.022500 0.010000 0.000000
v 0.004030 -0.016000 -0.006260
v 0.004130 -0.015900 -0.006360
v 0.004130 -0.010230 -0.006360
v -0.004130 -0.010230 -0.006360
v 0.022449 -0.001734 -0.003242
v -0.020920 0.004820 -0.003290
v -0.013155 -0.007476 0.012100
v -0.018313 -0.003926 0.012100
v -0.014095 -0.007417 0.012100
v -0.022500 0.010000 0.000000
v -0.013376 0.008013 0.011687
v 0.013145 0.008016 0.011687
v 0.022500 -0.010000 0.000000
v -0.004030 -0.016000 -0.005820
v -0.012924 -0.007943 0.011771
v -0.014837 -0.007766 0.011771
v -0.004130 -0.015900 -0.006360
v -0.004130 -0.009825 -0.006314
v 0.013479 0.004727 -0.004000
v 0.022500 -0.001988 -0.002533
v -0.013415 0.004799 -0.004000
v -0.017490 -0.006661 0.011771
v -0.017839 -0.006421 0.011771
v -0.017563 -0.006041 0.012100
v 0.013155 -0.007711 0.012042
v 0.013155 -0.007597 0.012085
v -0.012931 -0.007708 0.012042
v 0.013155 -0.007811 0.011972
v -0.012928 -0.007808 0.011972
v -0.015010 0.007289 0.012100
v -0.016186 0.007392 0.011771
v -0.015276 0.007705 0.011771
v 0.002500 0.010000 0.000200
v 0.014837 -0.007766 0.011771
v 0.015137 -0.007694 0.011771
v -0.013886 -0.007912 0.011771
v -0.013881 -0.007857 0.011880
v 0.004130 -0.009825 -0.006314
v 0.022500 -0.001988 -0.002248
v -0.013336 0.004854 -0.004000
v -0.018264 -0.006089 0.011771
v -0.018610 -0.005782 0.011771
v -0.017806 -0.006376 0.011880
v -0.012926 -0.007888 0.011880
v -0.020636 -0.000442 0.012100
v -0.014338 0.007927 0.011687
v 0.014146 0.007954 0.011687
v 0.014143 0.007931 0.011771
v -0.013376 0.007990 0.011771
v -0.014326 0.007850 0.011880
v -0.013374 0.007935 0.011880
v 0.021139 -0.000203 0.011687
v 0.021127 -0.000473 0.011687
v 0.015916 -0.006948 0.012100
v 0.014154 -0.007883 0.011771
v -0.014154 -0.007883 0.011771
v -0.016994 -0.006958 0.011771
v -0.016652 -0.007135 0.011771
v -0.015916 -0.006948 0.012100
v -0.013865 -0.007678 0.012042
v -0.014125 -0.007649 0.012042
v -0.014137 -0.007748 0.011972
v -0.014788 -0.007536 0.012042
v -0.013874 -0.007777 0.011972
v 0.013336 0.004854 -0.004000
v -0.018926 0.004808 0.012100
v -0.018963 -0.005428 0.011771
v -0.018923 -0.005390 0.011880
v -0.019294 -0.005052 0.011771
v -0.018572 -0.005742 0.011880
v -0.015213 0.007478 0.012042
v -0.015240 0.007574 0.011972
v -0.016134 0.007267 0.011972
v -0.016096 0.007175 0.012042
v -0.015261 0.007651 0.011880
v -0.014334 0.007905 0.011771
v 0.013145 0.007758 0.012042
v 0.014127 0.007797 0.011972
v 0.013145 0.007858 0.011972
v -0.013369 0.007755 0.012042
v 0.013145 0.007938 0.011880
v -0.013372 0.007855 0.011972
v 0.019788 0.004333 0.011880
v 0.019220 0.005102 0.011880
v 0.019159 0.005051 0.011972
v 0.019263 0.005137 0.011771
v 0.019835 0.004363 0.011771
v 0.021054 -0.001164 0.011687
v 0.016652 -0.007135 0.011771
v 0.016089 -0.007385 0.011771
v 0.016994 -0.006958 0.011771
v 0.018264 -0.006089 0.011771
v 0.017839 -0.006421 0.011771
v 0.013155 -0.007476 0.012100
v 0.005664 0.000489 0.012100
v 0.013874 -0.007777 0.011972
v 0.018963 -0.005428 0.011771
v 0.019294 -0.005052 0.011771
v 0.019252 -0.005017 0.011880
v 0.018792 -0.005267 0.012042
v 0.018371 -0.005528 0.012085
v 0.018449 -0.005611 0.012042
v 0.019485 -0.003991 0.012100
v -0.014147 -0.007828 0.011880
v -0.016628 -0.007086 0.011880
v -0.016068 -0.007333 0.011880
v -0.016593 -0.007014 0.011972
v -0.016039 -0.007259 0.011972
v -0.016768 -0.006546 0.012100
v -0.017300 -0.006368 0.012085
v -0.015020 -0.007240 0.012100
v -0.015650 -0.007176 0.012085
v -0.014764 -0.007425 0.012085
v -0.014110 -0.007537 0.012085
v 0.013415 0.004799 -0.004000
v 0.013246 0.004888 -0.004000
v -0.018602 0.005837 0.011771
v -0.017861 0.006452 0.011771
v -0.017052 0.006973 0.011771
v -0.020728 0.002491 0.011771
v -0.020359 0.003422 0.011771
v -0.019876 0.004299 0.011771
v -0.020516 0.001434 0.012100
v -0.018228 -0.006047 0.011880
v -0.019485 -0.003991 0.012100
v -0.018449 -0.005611 0.012042
v -0.018113 -0.005909 0.012042
v -0.018371 -0.005528 0.012085
v -0.018040 -0.005822 0.012085
v -0.014299 0.007672 0.012042
v -0.016165 0.007341 0.011880
v 0.018602 0.005837 0.011771
v 0.017830 0.006474 0.011771
v 0.016985 0.007010 0.011771
v 0.016958 0.006962 0.011880
v 0.016079 0.007436 0.011771
v 0.014137 0.007876 0.011880
v 0.015113 0.007691 0.011880
v 0.013145 0.007993 0.011771
v 0.020807 0.001682 0.011972
v 0.020709 0.001661 0.012042
v 0.020852 0.000738 0.012042
v 0.020951 0.000747 0.011972
v 0.020882 -0.000195 0.012042
v 0.020870 -0.000457 0.012042
v 0.020969 -0.000463 0.011972
v 0.020897 -0.001141 0.011972
v 0.021049 -0.000468 0.011880
v 0.021031 -0.001161 0.011771
v 0.014826 -0.007711 0.011880
v 0.013865 -0.007678 0.012042
v 0.013155 -0.007891 0.011880
v 0.018610 -0.005782 0.011771
v 0.018923 -0.005390 0.011880
v 0.018572 -0.005742 0.011880
v 0.019578 -0.004688 0.011771
v 0.019981 -0.003812 0.011972
v 0.020051 -0.003851 0.011880
v 0.020241 -0.003307 0.011972
v 0.020151 -0.003265 0.012042
v 0.019894 -0.003763 0.012042
v 0.020364 -0.003365 0.011771
v 0.020099 -0.003879 0.011771
v 0.020519 -0.003012 0.011771
v 0.017806 -0.006376 0.011880
v 0.018709 -0.005190 0.012085
v 0.019113 -0.004903 0.012042
v 0.019025 -0.004830 0.012085
v -0.014826 -0.007711 0.011880
v -0.015746 -0.007453 0.011880
v -0.015764 -0.007505 0.011771
v -0.016089 -0.007385 0.011771
v -0.015137 -0.007694 0.011771
v -0.015123 -0.007641 0.011880
v -0.017416 -0.006548 0.011972
v -0.017759 -0.006312 0.011972
v -0.016929 -0.006839 0.011972
v -0.017362 -0.006464 0.012042
v -0.017701 -0.006231 0.012042
v -0.016499 -0.006822 0.012085
v -0.016002 -0.007166 0.012042
v -0.016549 -0.006924 0.012042
v -0.015050 -0.007357 0.012085
v -0.015079 -0.007467 0.012042
v -0.019252 -0.005017 0.011880
v -0.019578 -0.004688 0.011771
v -0.020099 -0.003879 0.011771
v -0.020364 -0.003365 0.011771
v -0.016986 0.006855 0.011972
v -0.019287 0.005108 0.011771
v -0.020635 0.001457 0.012085
v -0.020747 0.001478 0.012042
v -0.020756 0.000507 0.012085
v -0.021139 -0.000203 0.011687
v -0.018177 -0.005985 0.011972
v -0.018288 -0.005440 0.012100
v -0.018932 -0.004753 0.012100
v -0.017634 -0.006139 0.012085
v -0.014314 0.007771 0.011972
v 0.015127 0.007744 0.011771
v 0.018564 0.005797 0.011880
v 0.017798 0.006430 0.011880
v 0.016920 0.006891 0.011972
v 0.017751 0.006365 0.011972
v 0.016058 0.007384 0.011880
v 0.016029 0.007310 0.011972
v 0.020309 0.003526 0.011771
v 0.020679 0.002638 0.011771
v 0.020981 -0.000198 0.011972
v 0.021061 -0.000201 0.011880
v 0.021117 -0.000202 0.011771
v 0.020551 0.002593 0.011972
v 0.020939 0.001711 0.011771
v 0.020518 -0.001377 0.012100
v 0.020756 -0.000450 0.012085
v 0.020799 -0.001126 0.012042
v 0.020468 -0.002991 0.011880
v 0.021104 -0.000471 0.011771
v 0.020980 -0.001465 0.011771
v 0.020831 -0.002102 0.011771
v 0.020977 -0.001153 0.011880
v 0.020847 -0.001439 0.011972
v 0.016068 -0.007333 0.011880
v 0.015764 -0.007505 0.011771
v 0.015746 -0.007453 0.011880
v 0.015650 -0.007176 0.012085
v 0.015960 -0.007060 0.012085
v 0.013854 -0.007565 0.012085
v 0.014095 -0.007417 0.012100
v 0.015123 -0.007641 0.011880
v 0.014137 -0.007748 0.011972
v 0.013886 -0.007912 0.011771
v 0.018517 -0.005684 0.011972
v 0.018177 -0.005985 0.011972
v 0.019882 -0.004242 0.011771
v 0.019768 -0.004170 0.011972
v 0.019389 -0.004549 0.012042
v 0.019469 -0.004608 0.011972
v 0.016826 -0.006652 0.012085
v 0.017362 -0.006464 0.012042
v 0.017300 -0.006368 0.012085
v 0.017634 -0.006139 0.012085
v 0.018288 -0.005440 0.012100
v 0.018040 -0.005822 0.012085
v 0.018113 -0.005909 0.012042
v 0.017759 -0.006312 0.011972
v 0.018228 -0.006047 0.011880
v 0.017490 -0.006661 0.011771
v 0.017460 -0.006615 0.011880
v 0.019297 -0.004481 0.012085
v 0.019587 -0.004056 0.012085
v 0.019795 -0.003708 0.012085
v 0.019683 -0.004116 0.012042
v 0.019190 -0.004966 0.011972
v -0.014809 -0.007633 0.011972
v -0.017460 -0.006615 0.011880
v -0.016881 -0.006752 0.012042
v -0.015687 -0.007283 0.012042
v -0.015960 -0.007060 0.012085
v -0.020519 -0.003012 0.011771
v -0.020731 -0.002434 0.011771
v -0.019533 -0.004655 0.011880
v -0.019835 -0.004213 0.011880
v -0.019882 -0.004242 0.011771
v -0.020051 -0.003851 0.011880
v -0.020313 -0.003341 0.011880
v -0.016937 0.006768 0.012042
v -0.017722 0.006262 0.012042
v -0.017025 0.006924 0.011880
v -0.017781 0.006343 0.011972
v -0.018509 0.005738 0.011972
v -0.017554 0.006094 0.012100
v -0.019106 0.004958 0.012042
v -0.019183 0.005021 0.011972
v -0.019762 0.004226 0.011972
v -0.019245 0.005072 0.011880
v -0.020978 0.001522 0.011771
v -0.020237 0.003364 0.011972
v -0.020146 0.003322 0.012042
v -0.020309 0.003398 0.011880
v -0.020599 0.002450 0.011972
v -0.020635 0.000500 0.012100
v -0.019934 0.003221 0.012100
v -0.020847 -0.001439 0.011972
v -0.020925 -0.001454 0.011880
v -0.020778 -0.002087 0.011880
v -0.020768 -0.000192 0.012085
v -0.021127 -0.000473 0.011687
v -0.021054 -0.001164 0.011687
v -0.021126 0.000531 0.011687
v -0.018517 -0.005684 0.011972
v -0.018865 -0.005336 0.011972
v -0.018709 -0.005190 0.012085
v 0.015093 0.007613 0.011972
v 0.015068 0.007516 0.012042
v 0.014114 0.007698 0.012042
v 0.018509 0.005738 0.011972
v 0.019721 0.004290 0.011972
v 0.019637 0.004235 0.012042
v 0.020098 0.003423 0.012042
v 0.019082 0.004987 0.012042
v 0.019542 0.004173 0.012085
v 0.020187 0.003466 0.011972
v 0.020259 0.003502 0.011880
v 0.020457 0.002560 0.012042
v 0.020627 0.002619 0.011880
v 0.021031 0.000755 0.011880
v 0.021086 0.000760 0.011771
v 0.020495 -0.002009 0.012085
v 0.020637 -0.001399 0.012085
v 0.020301 -0.002923 0.012042
v 0.020196 -0.002880 0.012085
v 0.020285 -0.002289 0.012100
v 0.020516 0.001434 0.012100
v 0.020686 -0.001109 0.012085
v 0.020749 -0.001421 0.012042
v 0.020604 -0.002039 0.012042
v 0.020313 -0.003341 0.011880
v 0.020731 -0.002434 0.011771
v 0.020778 -0.002087 0.011880
v 0.021002 -0.001469 0.011687
v 0.020925 -0.001454 0.011880
v 0.016628 -0.007086 0.011880
v 0.015020 -0.007240 0.012100
v 0.014764 -0.007425 0.012085
v 0.014110 -0.007537 0.012085
v 0.014788 -0.007536 0.012042
v 0.015104 -0.007563 0.011972
v 0.015079 -0.007467 0.012042
v 0.014125 -0.007649 0.012042
v 0.014147 -0.007828 0.011880
v 0.019533 -0.004655 0.011880
v 0.016499 -0.006822 0.012085
v 0.018932 -0.004753 0.012100
v 0.017563 -0.006041 0.012100
v 0.017416 -0.006548 0.011972
v 0.017701 -0.006231 0.012042
v 0.020048 -0.003217 0.012085
v 0.018865 -0.005336 0.011972
v -0.015104 -0.007563 0.011972
v -0.016968 -0.006909 0.011880
v -0.016826 -0.006652 0.012085
v -0.015720 -0.007378 0.011972
v -0.020831 -0.002102 0.011771
v -0.020468 -0.002991 0.011880
v -0.020394 -0.002961 0.011972
v -0.020603 -0.002392 0.011972
v -0.019469 -0.004608 0.011972
v -0.017829 0.006407 0.011880
v -0.016053 0.007070 0.012085
v -0.018280 0.005494 0.012100
v -0.019019 0.004885 0.012085
v -0.018363 0.005582 0.012085
v -0.018441 0.005665 0.012042
v -0.019678 0.004172 0.012042
v -0.020043 0.003273 0.012085
v -0.019829 0.004269 0.011880
v -0.020845 0.001497 0.011972
v -0.020969 0.000521 0.011972
v -0.021000 0.001526 0.011687
v -0.020675 0.002474 0.011880
v -0.020923 0.001512 0.011880
v -0.020281 0.002346 0.012100
v -0.020396 0.002383 0.012085
v -0.020504 0.002419 0.012042
v -0.019480 0.004047 0.012100
v -0.020701 -0.002066 0.011972
v -0.020604 -0.002039 0.012042
v -0.020749 -0.001421 0.012042
v -0.020882 -0.000195 0.012042
v -0.021031 -0.001161 0.011771
v -0.021048 0.000526 0.011880
v -0.020301 -0.002923 0.012042
v -0.020151 -0.003265 0.012042
v -0.020196 -0.002880 0.012085
v -0.020241 -0.003307 0.011972
v -0.020495 -0.002009 0.012085
v 0.014100 0.007585 0.012085
v 0.015992 0.007217 0.012042
v 0.018441 0.005665 0.012042
v 0.018363 0.005582 0.012085
v 0.018995 0.004914 0.012085
v 0.021108 0.000762 0.011687
v 0.020885 0.001699 0.011880
v 0.020701 -0.002066 0.011972
v 0.020603 -0.002392 0.011972
v 0.020394 -0.002961 0.011972
v 0.020400 -0.002327 0.012085
v 0.020281 0.002346 0.012100
v 0.020635 0.000500 0.012100
v 0.020679 -0.002417 0.011880
v 0.016881 -0.006752 0.012042
v 0.016549 -0.006924 0.012042
v 0.016002 -0.007166 0.012042
v 0.015050 -0.007357 0.012085
v 0.014809 -0.007633 0.011972
v 0.013881 -0.007857 0.011880
v 0.019835 -0.004213 0.011880
v 0.016768 -0.006546 0.012100
v 0.019938 -0.003165 0.012100
v -0.020679 -0.002417 0.011880
v -0.018564 0.005797 0.011880
v -0.016881 0.006669 0.012085
v -0.015906 0.006999 0.012100
v -0.019582 0.004111 0.012085
v -0.020897 -0.001141 0.011972
v -0.020869 0.000514 0.012042
v -0.020981 -0.000198 0.011972
v -0.020969 -0.000463 0.011972
v -0.020756 -0.000450 0.012085
v -0.020686 -0.001109 0.012085
v -0.021104 -0.000471 0.011771
v -0.021002 -0.001469 0.011687
v -0.021104 0.000529 0.011771
v -0.020508 -0.002362 0.012042
v -0.019981 -0.003812 0.011972
v -0.020637 -0.001399 0.012085
v -0.020285 -0.002289 0.012100
v -0.013145 0.007524 0.012100
v 0.013145 0.007644 0.012085
v 0.016872 0.006804 0.012042
v 0.015951 0.007111 0.012085
v 0.020961 0.001716 0.011687
v 0.020508 -0.002362 0.012042
v 0.019996 0.003373 0.012085
v 0.018926 0.004808 0.012100
v 0.020636 -0.000442 0.012100
v 0.016593 -0.007014 0.011972
v 0.015687 -0.007283 0.012042
v -0.019795 -0.003708 0.012085
v -0.019587 -0.004056 0.012085
v -0.019297 -0.004481 0.012085
v -0.018792 -0.005267 0.012042
v -0.019113 -0.004903 0.012042
v -0.019190 -0.004966 0.011972
v -0.017655 0.006170 0.012085
v -0.016759 0.006598 0.012100
v -0.020799 -0.001126 0.012042
v -0.021117 -0.000202 0.011771
v -0.021049 -0.000468 0.011880
v -0.020980 -0.001465 0.011771
v -0.020400 -0.002327 0.012085
v -0.019768 -0.004170 0.011972
v -0.019683 -0.004116 0.012042
v -0.019894 -0.003763 0.012042
v -0.019938 -0.003165 0.012100
v -0.020518 -0.001377 0.012100
v -0.014085 0.007465 0.012100
v 0.017692 0.006284 0.012042
v 0.017625 0.006192 0.012085
v 0.016817 0.006704 0.012085
v 0.018280 0.005494 0.012100
v 0.019934 0.003221 0.012100
v 0.016968 -0.006909 0.011880
v 0.015720 -0.007378 0.011972
v -0.020048 -0.003217 0.012085
v -0.019389 -0.004549 0.012042
v -0.019025 -0.004830 0.012085
v -0.020870 -0.000457 0.012042
v -0.021061 -0.000201 0.011880
v -0.020977 -0.001153 0.011880
v 0.016759 0.006598 0.012100
v 0.019480 0.004047 0.012100
v 0.016929 -0.006839 0.011972
v 0.016039 -0.007259 0.011972
v 0.017554 0.006094 0.012100
v 0.015010 0.007289 0.012100
v 0.013145 0.007524 0.012100
v 0.015040 0.007406 0.012085
v 0.015906 0.006999 0.012100
v 0.014085 0.007465 0.012100
f 1 2 3
f 4 5 6
f 4 2 5
f 7 3 2
f 8 6 9
f 8 9 10
f 11 12 2
f 11 2 1
f 13 5 2
f 14 15 3
f 14 3 16
f 17 3 7
f 17 16 3
f 18 9 6
f 18 6 19
f 18 19 16
f 18 16 9
f 20 19 21
f 22 16 19
f 22 19 20
f 22 20 15
f 23 21 13
f 23 13 2
f 23 2 12
f 24 25 26
f 27 2 4
f 27 28 7
f 27 7 2
f 29 7 28
f 30 16 17
f 30 9 16
f 31 8 10
f 31 10 32
f 31 33 4
f 31 4 6
f 31 6 8
f 34 6 5
f 34 5 13
f 34 13 21
f 34 21 19
f 34 19 6
f 35 11 1
f 35 20 21
f 35 12 11
f 36 15 20
f 37 16 22
f 37 22 15
f 37 15 14
f 38 21 23
f 39 40 4
f 41 26 25
f 42 43 44
f 42 44 45
f 46 45 44
f 47 25 24
f 48 49 27
f 50 7 29
f 50 29 17
f 50 17 7
f 51 9 30
f 51 30 52
f 53 31 32
f 53 32 54
f 55 20 35
f 55 35 1
f 56 16 37
f 56 37 14
f 56 14 16
f 57 12 35
f 57 35 21
f 57 21 38
f 57 38 23
f 57 23 12
f 58 59 4
f 58 4 40
f 60 58 40
f 60 40 39
f 61 32 10
f 61 46 54
f 61 54 32
f 62 25 47
f 62 41 25
f 63 28 27
f 64 29 65
f 64 65 17
f 64 17 29
f 66 67 68
f 66 29 28
f 69 70 30
f 69 30 17
f 71 47 24
f 72 9 51
f 73 33 31
f 73 31 53
f 74 39 4
f 74 4 75
f 76 26 41
f 77 78 79
f 77 46 44
f 80 79 78
f 81 46 77
f 81 77 79
f 81 79 54
f 81 54 46
f 82 20 55
f 83 62 47
f 84 4 59
f 84 59 85
f 84 86 4
f 87 85 59
f 88 89 90
f 88 90 91
f 92 49 48
f 93 49 92
f 93 92 67
f 93 67 66
f 93 66 28
f 93 28 63
f 93 63 27
f 93 27 49
f 94 95 96
f 94 96 97
f 98 96 95
f 99 97 96
f 99 96 98
f 99 98 68
f 99 68 67
f 100 101 102
f 103 101 100
f 103 100 104
f 103 104 17
f 105 30 70
f 106 107 30
f 106 30 108
f 109 110 30
f 111 71 24
f 111 24 43
f 112 47 71
f 113 42 45
f 114 30 115
f 116 114 115
f 117 118 119
f 120 47 112
f 120 112 71
f 121 54 79
f 121 73 53
f 121 53 54
f 122 75 123
f 122 123 124
f 125 124 123
f 126 76 41
f 126 41 127
f 128 76 129
f 128 130 26
f 128 26 76
f 131 26 130
f 131 130 80
f 131 80 78
f 131 78 77
f 131 77 44
f 131 44 43
f 131 43 24
f 131 24 26
f 132 20 82
f 132 82 3
f 132 3 15
f 132 15 36
f 132 36 20
f 133 1 3
f 133 3 82
f 133 82 55
f 133 55 1
f 134 135 27
f 136 48 27
f 136 27 135
f 137 138 27
f 139 27 138
f 140 62 83
f 141 87 59
f 141 59 58
f 141 58 60
f 142 41 62
f 143 144 145
f 146 145 144
f 147 97 99
f 147 88 47
f 148 90 89
f 148 89 92
f 148 92 48
f 148 48 136
f 149 101 103
f 149 103 17
f 149 17 150
f 151 152 150
f 151 150 17
f 151 17 153
f 154 98 95
f 154 95 155
f 156 29 66
f 156 66 68
f 156 68 98
f 156 98 154
f 156 154 65
f 156 65 29
f 157 158 159
f 157 159 160
f 161 162 163
f 164 165 163
f 164 163 162
f 166 105 70
f 167 51 52
f 167 72 51
f 168 42 113
f 169 113 45
f 169 45 46
f 169 46 61
f 169 61 10
f 170 30 114
f 170 109 30
f 171 114 116
f 171 172 170
f 171 170 114
f 173 116 115
f 173 115 30
f 174 175 176
f 174 176 177
f 174 177 178
f 179 175 180
f 179 180 30
f 179 30 181
f 182 110 109
f 183 118 117
f 184 185 183
f 184 183 117
f 186 121 79
f 186 33 73
f 186 73 121
f 187 123 188
f 189 4 188
f 189 188 123
f 189 123 75
f 189 75 4
f 190 4 33
f 190 33 186
f 190 186 191
f 190 191 187
f 190 187 188
f 190 188 4
f 192 193 60
f 192 194 195
f 192 195 196
f 192 196 193
f 197 76 126
f 198 197 199
f 198 199 124
f 198 124 125
f 200 130 128
f 200 128 129
f 200 129 201
f 200 201 80
f 200 80 130
f 202 86 84
f 202 84 85
f 203 86 202
f 203 4 86
f 204 205 4
f 206 90 148
f 207 134 27
f 207 27 139
f 208 209 210
f 211 27 4
f 212 193 196
f 212 196 144
f 212 144 143
f 212 87 141
f 212 141 60
f 212 60 193
f 213 41 142
f 213 145 146
f 213 146 41
f 214 213 142
f 215 41 146
f 215 146 144
f 215 144 196
f 215 196 195
f 215 195 127
f 215 127 41
f 216 67 92
f 216 92 89
f 216 89 88
f 216 88 147
f 216 147 99
f 216 99 67
f 217 17 65
f 217 65 154
f 217 154 155
f 217 153 17
f 218 149 150
f 218 102 101
f 218 101 149
f 219 152 220
f 219 220 221
f 219 218 150
f 219 150 152
f 222 155 223
f 222 223 220
f 222 220 152
f 222 152 151
f 222 151 153
f 222 153 217
f 222 217 155
f 224 225 17
f 224 17 104
f 224 104 100
f 226 163 165
f 226 165 227
f 226 160 159
f 226 159 161
f 226 161 163
f 228 227 165
f 228 70 69
f 229 158 157
f 230 17 225
f 231 47 120
f 232 161 159
f 232 162 161
f 233 164 162
f 234 179 181
f 235 165 166
f 235 166 70
f 235 70 228
f 235 228 165
f 236 237 30
f 236 105 166
f 238 164 239
f 238 236 166
f 238 166 165
f 238 165 164
f 240 107 106
f 241 52 30
f 241 30 107
f 241 107 240
f 241 240 242
f 241 242 52
f 243 244 71
f 245 43 42
f 245 42 168
f 245 111 43
f 246 111 245
f 246 71 111
f 247 167 52
f 247 52 242
f 248 168 113
f 249 169 10
f 249 10 9
f 249 9 72
f 250 119 251
f 250 251 172
f 250 172 171
f 252 173 30
f 252 30 180
f 253 254 255
f 253 175 174
f 256 257 258
f 259 258 257
f 260 120 71
f 260 261 118
f 260 118 183
f 262 251 119
f 262 119 118
f 262 118 261
f 262 261 259
f 263 182 251
f 264 172 251
f 264 251 182
f 264 182 109
f 264 109 170
f 264 170 172
f 265 30 110
f 265 110 182
f 265 182 266
f 265 108 30
f 267 185 184
f 267 184 254
f 267 254 268
f 267 268 120
f 269 120 268
f 269 268 178
f 269 178 177
f 270 178 268
f 270 268 254
f 270 254 253
f 270 253 174
f 270 174 178
f 271 171 116
f 271 116 255
f 271 255 254
f 271 254 184
f 271 184 117
f 272 186 79
f 272 79 80
f 273 192 60
f 273 60 39
f 274 195 194
f 274 194 124
f 274 124 199
f 274 199 197
f 275 201 129
f 275 129 198
f 276 197 198
f 276 198 129
f 276 129 76
f 276 76 197
f 277 278 4
f 277 4 205
f 279 280 203
f 279 203 202
f 281 280 204
f 281 204 4
f 281 4 203
f 281 203 280
f 282 204 280
f 282 283 205
f 282 205 204
f 284 91 90
f 284 90 206
f 284 206 285
f 286 206 148
f 286 148 136
f 287 285 206
f 287 288 285
f 289 83 47
f 290 288 291
f 290 291 292
f 293 134 207
f 293 207 139
f 293 292 291
f 293 291 288
f 294 137 27
f 295 296 292
f 297 298 295
f 297 295 292
f 297 139 138
f 299 140 208
f 299 208 210
f 299 62 140
f 300 140 83
f 301 302 303
f 304 62 299
f 304 299 210
f 305 211 4
f 305 4 306
f 307 27 211
f 308 309 85
f 308 85 87
f 308 87 212
f 308 212 143
f 308 143 309
f 310 145 213
f 310 213 214
f 311 155 95
f 311 95 312
f 311 312 223
f 311 223 155
f 313 312 95
f 313 95 94
f 314 218 219
f 314 219 221
f 314 102 218
f 315 100 102
f 315 316 317
f 318 316 315
f 318 315 102
f 318 102 314
f 319 317 316
f 319 316 318
f 320 317 229
f 320 315 317
f 321 224 100
f 321 100 315
f 321 315 320
f 322 158 229
f 322 229 317
f 323 230 225
f 323 225 224
f 323 224 321
f 323 321 320
f 323 320 229
f 324 160 226
f 324 226 227
f 324 227 228
f 324 228 325
f 326 327 231
f 328 329 177
f 330 326 231
f 330 231 120
f 331 47 231
f 331 159 158
f 332 231 327
f 332 233 162
f 332 162 232
f 333 239 164
f 333 164 233
f 333 233 332
f 333 332 327
f 333 327 326
f 333 326 334
f 335 175 179
f 335 179 234
f 335 234 176
f 335 176 175
f 336 237 337
f 336 234 181
f 336 181 30
f 336 30 237
f 338 105 236
f 338 236 30
f 338 30 105
f 339 337 237
f 339 237 236
f 339 236 238
f 339 238 239
f 339 239 337
f 340 240 106
f 341 243 71
f 341 71 246
f 341 246 342
f 343 344 342
f 343 342 246
f 343 246 245
f 343 245 168
f 345 346 344
f 345 167 247
f 347 168 248
f 347 248 344
f 347 344 343
f 347 343 168
f 348 249 72
f 348 72 167
f 348 167 248
f 349 253 255
f 349 255 116
f 349 116 173
f 350 71 244
f 351 185 267
f 351 267 120
f 351 120 260
f 351 260 183
f 351 183 185
f 352 258 259
f 352 259 261
f 352 261 260
f 352 260 71
f 353 266 182
f 353 182 263
f 354 262 259
f 354 259 257
f 354 257 353
f 354 353 263
f 354 263 251
f 354 251 262
f 355 269 177
f 355 177 329
f 356 250 171
f 356 171 271
f 356 271 117
f 356 117 119
f 356 119 250
f 357 201 275
f 357 191 186
f 357 186 272
f 357 272 80
f 357 80 201
f 358 74 75
f 358 75 122
f 358 122 124
f 358 124 194
f 358 194 192
f 358 192 273
f 358 273 39
f 358 39 74
f 359 127 195
f 359 195 274
f 359 274 197
f 359 197 126
f 359 126 127
f 360 125 123
f 360 123 187
f 360 187 191
f 360 191 357
f 360 357 275
f 360 275 198
f 360 198 125
f 361 278 303
f 361 303 302
f 361 4 278
f 362 363 364
f 362 278 277
f 362 277 205
f 362 205 283
f 365 279 202
f 366 135 134
f 366 288 287
f 366 287 206
f 366 206 286
f 366 286 136
f 366 136 135
f 367 91 284
f 367 47 88
f 367 88 91
f 368 83 289
f 369 370 290
f 369 83 368
f 369 368 370
f 371 288 290
f 371 290 370
f 371 370 285
f 371 285 288
f 372 296 373
f 372 290 292
f 372 292 296
f 374 292 293
f 374 293 139
f 374 139 297
f 374 297 292
f 375 376 209
f 377 27 307
f 377 307 294
f 377 294 27
f 378 137 294
f 378 294 379
f 378 379 375
f 378 375 298
f 378 298 297
f 378 297 138
f 378 138 137
f 380 140 300
f 380 300 373
f 380 373 381
f 380 381 208
f 380 208 140
f 382 208 381
f 382 381 373
f 382 373 296
f 382 296 295
f 382 295 298
f 382 298 375
f 382 375 209
f 382 209 208
f 383 373 300
f 383 300 83
f 383 83 369
f 384 385 386
f 384 386 301
f 384 301 303
f 384 303 364
f 387 304 210
f 388 305 306
f 389 376 375
f 389 375 379
f 389 379 294
f 390 363 391
f 390 391 392
f 393 391 363
f 393 363 362
f 393 362 283
f 393 283 282
f 394 386 385
f 395 313 94
f 395 312 313
f 396 223 312
f 397 398 318
f 397 318 314
f 399 319 318
f 399 318 398
f 400 325 228
f 400 228 69
f 400 69 17
f 401 157 160
f 401 160 324
f 401 324 325
f 401 325 230
f 401 230 323
f 401 323 229
f 401 229 157
f 402 337 239
f 402 239 333
f 402 333 334
f 403 337 402
f 404 176 234
f 404 234 403
f 404 328 177
f 404 177 176
f 405 326 330
f 405 330 329
f 406 47 331
f 406 331 158
f 406 158 322
f 407 232 159
f 407 159 331
f 407 331 231
f 408 234 336
f 408 336 337
f 408 337 403
f 408 403 234
f 409 256 350
f 409 350 410
f 409 257 256
f 411 410 350
f 411 350 244
f 411 244 243
f 412 243 341
f 412 341 342
f 412 342 344
f 412 344 346
f 412 346 243
f 413 248 167
f 413 167 345
f 413 345 344
f 413 344 248
f 414 113 169
f 414 169 249
f 414 249 348
f 414 348 248
f 414 248 113
f 415 252 180
f 415 180 175
f 415 175 253
f 415 253 349
f 415 349 173
f 415 173 252
f 416 256 258
f 416 258 352
f 416 352 71
f 416 71 350
f 416 350 256
f 417 269 355
f 417 355 329
f 417 329 330
f 417 330 120
f 417 120 269
f 418 303 278
f 418 278 362
f 418 362 364
f 418 364 303
f 419 288 366
f 419 366 134
f 419 134 293
f 419 293 288
f 420 367 284
f 420 284 285
f 421 47 367
f 421 289 47
f 422 369 290
f 422 290 372
f 422 372 373
f 422 373 383
f 422 383 369
f 423 301 386
f 424 376 387
f 424 387 210
f 424 210 209
f 424 209 376
f 425 426 387
f 425 387 376
f 425 376 389
f 427 428 62
f 427 62 304
f 429 305 388
f 430 306 4
f 431 389 294
f 431 294 307
f 432 364 363
f 432 363 390
f 432 390 392
f 432 394 385
f 432 385 384
f 432 384 364
f 433 391 393
f 433 393 282
f 434 428 386
f 434 386 394
f 435 142 62
f 436 47 406
f 437 94 97
f 437 97 436
f 437 395 94
f 438 220 223
f 438 223 396
f 438 396 439
f 440 230 325
f 440 325 400
f 440 400 17
f 440 17 230
f 441 334 326
f 441 326 405
f 441 405 329
f 441 329 328
f 441 328 404
f 441 404 403
f 441 403 402
f 441 402 334
f 442 317 319
f 442 406 322
f 442 322 317
f 443 436 406
f 443 319 399
f 444 232 407
f 444 407 231
f 444 231 332
f 444 332 232
f 445 409 410
f 445 410 411
f 445 240 340
f 446 346 345
f 446 411 243
f 446 243 346
f 447 448 142
f 449 214 142
f 449 142 448
f 450 143 145
f 450 145 310
f 450 310 451
f 450 309 143
f 452 309 450
f 452 450 451
f 452 365 202
f 452 202 85
f 452 85 309
f 453 370 368
f 453 368 289
f 453 289 420
f 453 420 285
f 453 285 370
f 454 420 289
f 454 289 421
f 454 421 367
f 454 367 420
f 455 423 386
f 455 386 428
f 456 389 431
f 456 431 307
f 456 307 211
f 456 211 305
f 456 305 429
f 457 423 426
f 457 426 425
f 457 456 429
f 457 429 388
f 458 361 302
f 458 388 306
f 458 306 430
f 458 430 4
f 458 4 361
f 459 394 432
f 459 432 392
f 459 392 435
f 459 435 394
f 460 280 279
f 460 279 365
f 460 461 433
f 460 433 282
f 460 282 280
f 462 391 433
f 462 433 461
f 462 461 448
f 462 448 447
f 462 447 391
f 463 142 435
f 463 435 392
f 463 447 142
f 464 434 394
f 464 394 435
f 464 435 62
f 464 62 428
f 464 428 434
f 465 147 47
f 465 47 436
f 465 436 97
f 465 97 147
f 466 221 220
f 466 220 438
f 466 467 398
f 466 398 397
f 466 397 314
f 466 314 221
f 468 467 466
f 468 466 438
f 468 438 439
f 469 398 467
f 469 436 443
f 469 443 399
f 469 399 398
f 470 443 406
f 470 406 442
f 471 266 353
f 471 445 340
f 471 340 106
f 471 106 108
f 471 108 265
f 471 265 266
f 472 242 240
f 472 411 446
f 472 446 345
f 472 345 247
f 472 247 242
f 473 391 447
f 473 447 463
f 473 463 392
f 473 392 391
f 474 461 460
f 474 460 365
f 474 365 452
f 474 452 451
f 474 451 449
f 474 449 448
f 474 448 461
f 475 310 214
f 475 214 449
f 475 449 451
f 475 451 310
f 476 426 423
f 476 423 455
f 476 455 428
f 476 428 427
f 476 427 304
f 476 304 387
f 476 387 426
f 477 389 456
f 477 456 457
f 477 457 425
f 477 425 389
f 478 302 301
f 478 301 423
f 478 423 457
f 478 457 388
f 478 388 458
f 478 458 302
f 479 468 439
f 479 436 469
f 479 467 468
f 480 319 443
f 480 443 470
f 480 470 442
f 480 442 319
f 481 445 471
f 481 471 353
f 481 353 257
f 481 257 409
f 481 409 445
f 482 445 411
f 482 411 472
f 482 472 240
f 482 240 445
f 483 467 479
f 483 479 469
f 483 469 467
f 484 436 479
f 485 437 436
f 485 436 484
f 485 395 437
f 486 395 484
f 486 439 396
f 486 396 312
f 486 312 395
f 487 439 486
f 487 486 484
f 487 484 479
f 487 479 439
f 488 395 485
f 488 485 484
f 488 484 395
