# Normalized convex hull collision mesh - generated by scripts/generate-collision-meshes.mjs (units: meters)
v 0.012034 0.000512 -0.010000
v -0.021539 0.004211 -0.010000
v 0.015186 0.020556 -0.010000
v -0.015818 0.022249 -0.010000
v -0.018969 0.002205 0.010000
v 0.017755 0.018550 0.010000
v -0.025000 0.011381 0.010000
v 0.021118 0.010124 -0.010000
v -0.006138 -0.002007 -0.010000
v -0.024607 0.013883 -0.010000
v 0.000240 0.024942 0.010000
v -0.023440 0.006461 0.010000
v 0.012034 0.000512 0.010000
v 0.018794 0.005310 -0.010000
v 0.020334 0.015108 -0.010000
v -0.023440 0.016301 0.010000
v 0.000240 0.024942 -0.010000
v 0.010273 0.022960 0.010000
v -0.018969 0.002205 -0.010000
v 0.021806 -0.025000 0.003786
v -0.024607 0.008878 -0.010000
v -0.021539 0.004211 0.010000
v 0.017755 0.018550 -0.010000
v -0.024607 0.013883 0.010000
v -0.021539 0.018550 -0.010000
v -0.014057 0.022960 0.010000
v 0.008409 0.023572 -0.010000
v 0.015186 0.020556 0.010000
v -0.020333 0.003173 -0.002857
v 0.004432 -0.001719 -0.010000
v 0.020334 0.007654 -0.010000
v -0.025000 0.011381 -0.010000
v -0.024607 0.008878 0.010000
v -0.023440 0.006461 -0.010000
v -0.022577 0.005310 -0.002857
v 0.024310 -0.024389 0.005549
v 0.024310 -0.024389 0.002022
v -0.004024 -0.002181 0.010000
v 0.017755 0.004211 0.010000
v 0.018794 0.017451 -0.002143
v 0.016549 0.019588 -0.002143
v 0.021118 0.012637 -0.010000
v 0.021118 0.012637 -0.002143
v 0.025000 -0.024220 0.003786
v -0.024118 0.015108 0.010000
v -0.024901 0.012637 0.010000
v -0.023440 0.016301 -0.010000
v -0.018969 0.020556 0.010000
v -0.014057 0.022960 -0.010000
v -0.008216 0.024480 -0.010000
v 0.004432 0.024480 0.010000
v 0.012034 0.022249 -0.010000
v -0.020333 0.003173 0.010000
v -0.020333 0.003173 -0.010000
v 0.022495 -0.024832 0.002022
v 0.016549 0.003173 -0.010000
v 0.008409 -0.000811 -0.010000
v 0.000240 -0.002181 -0.010000
v 0.020823 0.008878 -0.010000
v 0.019656 0.006461 -0.010000
v 0.023969 -0.024472 0.001782
v 0.023595 -0.024563 0.001658
v -0.024901 0.010124 -0.010000
v -0.024118 0.007654 0.010000
v -0.022577 0.005310 0.010000
v -0.022577 0.005310 -0.010000
v 0.021118 0.012637 0.010000
v 0.021989 -0.024955 0.004782
v 0.022207 -0.024902 0.005207
v 0.022495 -0.024832 0.005549
v 0.022836 -0.024748 0.005789
v 0.004432 -0.001719 0.010000
v -0.012192 -0.000811 0.010000
v 0.015186 0.002205 0.010000
v 0.018794 0.017451 -0.010000
v 0.016549 0.019588 -0.010000
v 0.016549 0.019588 0.010000
v 0.019656 0.016301 -0.002143
v 0.020334 0.015108 -0.002143
v 0.020823 0.013883 -0.010000
v -0.024901 0.012637 -0.010000
v -0.024118 0.015108 -0.010000
v -0.022577 0.017451 -0.002143
v -0.015818 0.022249 0.010000
v -0.018969 0.020556 -0.010000
v -0.004024 0.024942 -0.010000
v -0.008216 0.024480 0.010000
v -0.012192 0.023572 -0.002143
v 0.002354 0.024768 0.010000
v 0.008409 0.023572 0.010000
v 0.004432 0.024480 -0.010000
v 0.010273 0.022960 -0.010000
v 0.012034 0.022249 0.010000
v 0.013676 0.021445 -0.010000
v 0.024598 -0.024318 0.002365
v 0.024817 -0.024265 0.002790
v 0.024954 -0.024231 0.003273
v 0.021217 0.011381 -0.010000
v 0.024954 -0.024231 0.004299
v -0.012192 -0.000811 -0.010000
v 0.013676 0.001316 -0.010000
v 0.017755 0.004211 -0.010000
v 0.010273 -0.000199 -0.010000
v 0.006456 -0.001319 -0.010000
v 0.002354 -0.002007 -0.010000
v -0.004024 -0.002181 -0.010000
v -0.024901 0.010124 0.010000
v -0.024118 0.007654 -0.010000
v 0.020334 0.007654 0.010000
v 0.020334 0.015108 0.010000
v 0.021852 -0.024989 0.004299
v 0.000240 -0.002181 0.010000
v 0.008409 -0.000811 0.010000
v -0.008216 -0.001719 0.010000
v -0.015818 0.000512 0.010000
v 0.023210 -0.024657 0.005913
v 0.023595 -0.024563 0.005913
v 0.019656 0.016301 -0.010000
v -0.022577 0.017451 -0.010000
v -0.021539 0.018550 0.010000
v -0.017460 0.021445 -0.002143
v -0.020333 0.019588 -0.010000
v -0.001892 0.025000 -0.002857
v -0.006138 0.024768 -0.010000
v -0.010239 0.024080 -0.010000
v -0.012192 0.023572 0.010000
v 0.006456 0.024080 0.010000
v 0.002354 0.024768 -0.010000
v 0.013676 0.021445 0.010000
v 0.024598 -0.024318 0.005207
v -0.017460 0.001316 -0.010000
v 0.021989 -0.024955 0.002790
v 0.021852 -0.024989 0.003273
v 0.023210 -0.024657 0.001658
v 0.015186 0.002205 -0.010000
v 0.019656 0.016301 0.010000
v 0.020823 0.013883 0.010000
v 0.002354 -0.002007 0.010000
v -0.001892 -0.002239 0.010000
v 0.006456 -0.001319 0.010000
v -0.006138 -0.002007 0.010000
v -0.010239 -0.001319 0.010000
v -0.017460 0.001316 0.010000
v -0.014057 -0.000199 0.010000
v 0.016549 0.003173 0.010000
v 0.013676 0.001316 0.010000
v 0.010273 -0.000199 0.010000
v 0.018794 0.005310 0.010000
v 0.021118 0.010124 0.010000
v -0.022577 0.017451 0.010000
v -0.017460 0.021445 -0.010000
v -0.017460 0.021445 0.010000
v -0.020333 0.019588 0.010000
v -0.001892 0.025000 -0.010000
v -0.004024 0.024942 0.010000
v -0.012192 0.023572 -0.010000
v -0.010239 0.024080 0.010000
v 0.006456 0.024080 -0.010000
v 0.024817 -0.024265 0.004782
v 0.022207 -0.024902 0.002365
v -0.015818 0.000512 -0.010000
v 0.022836 -0.024748 0.001782
v -0.008216 -0.001719 -0.010000
v -0.001892 -0.002239 -0.010000
v 0.018794 0.017451 0.010000
v 0.019656 0.006461 0.010000
v 0.021217 0.011381 0.010000
v 0.023969 -0.024472 0.005789
v 0.020823 0.008878 0.010000
v -0.001892 0.025000 0.010000
v -0.006138 0.024768 0.010000
v -0.014057 -0.000199 -0.010000
v -0.010239 -0.001319 -0.010000
f 1 2 3
f 4 3 2
f 5 6 7
f 8 1 3
f 9 2 1
f 10 4 2
f 11 7 6
f 12 5 7
f 13 6 5
f 14 1 8
f 15 8 3
f 16 7 11
f 17 3 4
f 18 11 6
f 19 2 9
f 19 20 5
f 21 10 2
f 22 5 12
f 23 15 3
f 24 7 16
f 25 4 10
f 26 16 11
f 27 3 17
f 28 18 6
f 29 19 5
f 29 22 2
f 30 9 1
f 31 14 8
f 32 10 21
f 33 12 7
f 34 21 2
f 35 2 22
f 35 12 34
f 36 20 37
f 38 13 5
f 39 6 13
f 40 23 6
f 41 6 23
f 41 3 28
f 42 43 44
f 42 8 15
f 45 10 24
f 45 24 16
f 46 7 24
f 46 24 10
f 46 32 7
f 47 25 10
f 47 45 16
f 48 16 26
f 49 4 26
f 49 17 4
f 50 17 49
f 51 11 18
f 52 3 27
f 53 22 29
f 53 29 5
f 53 5 22
f 54 19 29
f 54 29 2
f 54 2 19
f 55 37 20
f 56 1 14
f 57 30 1
f 58 9 30
f 59 31 8
f 59 8 37
f 60 14 31
f 61 62 14
f 61 14 60
f 61 60 31
f 61 31 59
f 61 59 37
f 61 37 62
f 63 7 32
f 63 32 21
f 63 21 33
f 64 12 33
f 64 33 21
f 64 34 12
f 65 12 35
f 65 35 22
f 65 22 12
f 66 2 35
f 66 35 34
f 66 34 2
f 67 6 39
f 67 44 43
f 68 69 5
f 70 36 71
f 70 20 36
f 72 13 38
f 73 38 5
f 74 39 13
f 75 23 40
f 75 15 23
f 76 3 41
f 76 41 23
f 76 23 3
f 77 6 41
f 77 41 28
f 77 28 6
f 78 79 15
f 78 75 40
f 80 43 42
f 80 42 15
f 80 15 79
f 80 67 43
f 81 32 46
f 81 46 10
f 81 10 32
f 82 45 47
f 82 47 10
f 82 10 45
f 83 47 16
f 84 48 26
f 84 26 4
f 85 4 25
f 86 17 50
f 87 26 11
f 88 49 26
f 89 11 51
f 89 17 11
f 90 51 18
f 90 18 27
f 91 89 51
f 91 27 17
f 92 18 52
f 92 52 27
f 92 27 18
f 93 52 18
f 93 18 28
f 94 3 52
f 94 52 93
f 94 28 3
f 95 96 97
f 95 36 37
f 95 37 8
f 95 8 96
f 98 42 44
f 98 44 97
f 98 97 96
f 98 96 8
f 98 8 42
f 99 95 97
f 99 97 44
f 99 44 67
f 100 19 9
f 101 1 56
f 101 62 1
f 102 62 56
f 102 56 14
f 102 14 62
f 103 62 57
f 103 57 1
f 103 1 62
f 104 30 57
f 104 57 62
f 105 58 30
f 106 9 58
f 107 7 63
f 107 63 33
f 107 33 7
f 108 34 64
f 108 64 21
f 108 21 34
f 109 67 39
f 110 6 67
f 110 80 79
f 110 79 78
f 111 69 68
f 111 68 5
f 111 5 20
f 111 20 70
f 111 70 69
f 112 72 38
f 113 13 72
f 114 38 73
f 115 71 116
f 115 73 5
f 117 116 71
f 117 71 36
f 118 75 78
f 118 78 15
f 118 15 75
f 119 47 83
f 119 83 25
f 119 25 47
f 120 25 83
f 120 16 48
f 121 84 4
f 121 85 48
f 122 48 85
f 122 85 25
f 122 25 120
f 123 11 17
f 124 50 87
f 124 86 50
f 125 50 49
f 125 87 50
f 126 125 88
f 126 88 26
f 126 26 87
f 127 51 90
f 127 90 27
f 127 91 51
f 128 89 91
f 128 91 17
f 128 17 89
f 129 28 94
f 129 94 93
f 129 93 28
f 130 95 99
f 130 36 95
f 131 132 19
f 131 19 100
f 133 20 19
f 133 19 132
f 133 55 20
f 134 9 106
f 134 58 105
f 134 105 30
f 134 30 104
f 134 104 62
f 135 62 101
f 135 101 56
f 135 56 62
f 136 6 110
f 136 110 78
f 136 78 40
f 137 80 110
f 137 110 67
f 137 67 80
f 138 72 112
f 138 112 116
f 138 116 72
f 139 116 112
f 139 112 38
f 139 38 116
f 140 116 117
f 140 117 113
f 140 113 72
f 140 72 116
f 141 38 114
f 141 114 116
f 141 116 38
f 142 116 114
f 142 114 73
f 142 73 116
f 143 70 71
f 143 71 115
f 143 115 5
f 143 5 69
f 143 69 70
f 144 73 115
f 144 115 116
f 144 116 73
f 145 74 117
f 145 117 39
f 145 39 74
f 146 13 117
f 146 117 74
f 146 74 13
f 147 113 117
f 147 117 13
f 147 13 113
f 148 39 117
f 148 109 39
f 149 67 109
f 150 16 120
f 150 120 83
f 150 83 16
f 151 85 121
f 151 121 4
f 151 4 85
f 152 84 121
f 152 121 48
f 152 48 84
f 153 48 122
f 153 122 120
f 153 120 48
f 154 86 123
f 154 123 17
f 154 17 86
f 155 87 11
f 155 123 86
f 155 86 124
f 156 88 125
f 156 125 49
f 156 49 88
f 157 125 126
f 157 126 87
f 157 87 125
f 158 91 127
f 158 127 27
f 158 27 91
f 159 130 99
f 160 132 131
f 160 55 133
f 160 133 132
f 161 55 160
f 161 160 131
f 161 131 100
f 162 134 62
f 162 62 37
f 162 37 55
f 163 9 134
f 163 100 9
f 164 58 134
f 164 134 106
f 164 106 58
f 165 6 136
f 165 136 40
f 165 40 6
f 166 109 148
f 166 148 117
f 166 117 109
f 167 130 159
f 167 159 99
f 167 99 67
f 167 67 149
f 167 149 36
f 167 36 130
f 168 36 149
f 168 117 36
f 169 117 168
f 169 168 149
f 169 149 109
f 169 109 117
f 170 123 155
f 170 155 11
f 170 11 123
f 171 87 155
f 171 155 124
f 171 124 87
f 172 161 100
f 172 100 162
f 172 55 161
f 173 162 100
f 173 100 163
f 173 163 134
f 173 134 162
f 172 55 172
f 172 172 162
f 172 162 55
