# Convex hull collision mesh — generated by scripts/generate-collision-meshes.mjs
v 5.486943 -19.284605 0.000000
v -19.284605 -5.486943 0.000000
v 18.696068 7.242896 0.000000
v -5.486943 19.284605 0.000000
v -18.696068 -7.242896 14.000000
v 19.708611 3.684178 14.000000
v 0.000000 20.049999 14.000000
v 17.948025 -8.937054 0.000000
v -10.554965 -17.046854 0.000000
v 8.937054 17.948025 0.000000
v -16.000246 12.082825 14.000000
v 5.486943 -19.284605 14.000000
v -18.696068 -7.242896 0.000000
v -14.817129 -13.507598 14.000000
v -3.684178 -19.708611 0.000000
v 12.082825 16.000246 14.000000
v 1.849981 19.964470 0.000000
v 19.964470 1.849981 0.000000
v -17.046854 10.554965 0.000000
v -8.937054 17.948025 14.000000
v -19.708611 3.684178 14.000000
v 17.046854 -10.554965 14.000000
v -14.817129 -13.507598 0.000000
v 20.561075 -53.558517 9.650000
v -17.046854 -10.554965 0.000000
v 17.046854 10.554965 14.000000
v 5.486943 19.284605 14.000000
v -1.849981 19.964470 0.000000
v 19.284605 5.486943 0.000000
v 19.964470 1.849981 14.000000
v 23.332714 -52.410465 9.650000
v 23.292444 -52.427147 10.008973
v 12.082825 -16.000246 0.000000
v 19.708611 -3.684178 0.000000
v 1.849981 -19.964470 0.000000
v -7.242896 -18.696068 0.000000
v -12.082825 16.000246 0.000000
v -5.486943 19.284605 14.000000
v -19.964470 -1.849981 14.000000
v -19.708611 3.684178 0.000000
v -17.948025 8.937054 14.000000
v -17.948025 -8.937054 0.000000
v -16.000246 -12.082825 5.500000
v 14.817129 13.507598 0.000000
v 18.696068 7.242896 14.000000
v 8.937054 17.948025 14.000000
v 5.486943 19.284605 0.000000
v 1.849981 19.964470 14.000000
v 0.000000 20.049999 0.000000
v 19.708611 3.684178 0.000000
v 16.000246 -12.082825 0.000000
v 8.937054 -17.948025 0.000000
v 20.601345 -53.541836 9.291026
v -12.082825 -16.000246 0.000000
v 19.284605 -5.486943 0.000000
v 3.684178 -19.708611 0.000000
v -1.849981 -19.964470 0.000000
v -8.937054 17.948025 0.000000
v -12.082825 16.000246 14.000000
v -14.817129 13.507598 0.000000
v -1.849981 19.964470 14.000000
v -7.242896 18.696068 14.000000
v -3.684178 19.708611 0.000000
v -19.284605 -5.486943 14.000000
v -19.964470 -1.849981 0.000000
v -19.964470 1.849981 14.000000
v -18.696068 7.242896 0.000000
v -17.046854 10.554965 14.000000
v 20.601345 -53.541836 10.008973
v 20.719812 -53.492764 10.347085
v -17.046854 -10.554965 14.000000
v -16.000246 -12.082825 0.000000
v 12.082825 16.000246 0.000000
v 14.817129 13.507598 14.000000
v 17.046854 10.554965 0.000000
v 17.948025 8.937054 14.000000
v 19.284605 5.486943 14.000000
v 7.242896 18.696068 14.000000
v 10.554965 17.046854 14.000000
v 3.684178 19.708611 5.500000
v 19.284605 -5.486943 14.000000
v 21.455477 -53.188042 11.052525
v 22.734131 -52.658409 10.884476
v 22.113937 -52.915298 11.139063
v -5.486943 -19.284605 14.000000
v 12.082825 -16.000246 14.000000
v 14.817129 -13.507598 0.000000
v 22.113937 -52.915298 8.160936
v 17.046854 -10.554965 0.000000
v 7.242896 -18.696068 0.000000
v 10.554965 -17.046854 0.000000
v 21.159660 -53.310574 8.415524
v 20.909594 -53.414154 8.655316
v 21.455477 -53.188042 8.247476
v -5.486943 -19.284605 0.000000
v -8.937054 -17.948025 0.000000
v 20.719812 -53.492764 8.952915
v 18.696068 -7.242896 0.000000
v -0.000000 -20.049999 0.000000
v -10.554965 17.046854 0.000000
v -13.507598 14.817129 14.000000
v -16.000246 12.082825 0.000000
v -7.242896 18.696068 0.000000
v -3.684178 19.708611 14.000000
v -19.708611 -3.684178 14.000000
v -20.049999 0.000000 14.000000
v -19.964470 1.849981 0.000000
v -19.284605 5.486943 5.500000
v -17.948025 8.937054 0.000000
v -17.948025 -8.937054 14.000000
v -16.000246 -12.082825 14.000000
v 13.507598 14.817129 5.500000
v 16.000246 12.082825 5.500000
v 17.948025 8.937054 0.000000
v 7.242896 18.696068 0.000000
v 10.554965 17.046854 0.000000
v 3.684178 19.708611 0.000000
v 3.684178 19.708611 14.000000
v 17.948025 -8.937054 14.000000
v 19.708611 -3.684178 14.000000
v 21.159660 -53.310574 10.884476
v -10.554965 -17.046854 14.000000
v -0.000000 -20.049999 14.000000
v 8.937054 -17.948025 14.000000
v 14.817129 -13.507598 14.000000
v 13.507598 -14.817129 0.000000
v 21.779852 -53.053680 8.160936
v -13.507598 -14.817129 0.000000
v 22.734131 -52.658409 8.415524
v 22.984196 -52.554829 8.655316
v 23.292444 -52.427147 9.291026
v 23.173977 -52.476215 8.952915
v 22.984196 -52.554829 10.644684
v 23.173977 -52.476215 10.347085
v 19.964470 -1.849981 0.000000
v -10.554965 17.046854 14.000000
v -13.507598 14.817129 0.000000
v -14.817129 13.507598 14.000000
v -19.708611 -3.684178 0.000000
v -20.049999 0.000000 0.000000
v -19.284605 5.486943 0.000000
v -19.284605 5.486943 14.000000
v 13.507598 14.817129 0.000000
v 13.507598 14.817129 14.000000
v 16.000246 12.082825 14.000000
v 16.000246 12.082825 0.000000
v 18.696068 -7.242896 14.000000
v 22.438313 -52.780937 11.052525
v 20.909594 -53.414154 10.644684
v 21.779852 -53.053680 11.139063
v -12.082825 -16.000246 14.000000
v 10.554965 -17.046854 14.000000
v 16.000246 -12.082825 14.000000
v 13.507598 -14.817129 14.000000
v 22.438313 -52.780937 8.247476
v 20.049999 0.000000 0.000000
v -18.696068 7.242896 14.000000
v 19.964470 -1.849981 14.000000
v -8.937054 -17.948025 14.000000
v -1.849981 -19.964470 14.000000
v 1.849981 -19.964470 14.000000
v 7.242896 -18.696068 14.000000
v -13.507598 -14.817129 14.000000
v 20.049999 0.000000 14.000000
v -7.242896 -18.696068 14.000000
v -3.684178 -19.708611 14.000000
v 3.684178 -19.708611 14.000000
f 1 2 3
f 4 3 2
f 5 6 7
f 8 1 3
f 9 2 1
f 10 3 4
f 11 5 7
f 12 6 5
f 13 2 9
f 13 5 2
f 14 12 5
f 15 9 1
f 16 7 6
f 17 10 4
f 18 8 3
f 19 4 2
f 20 11 7
f 21 5 11
f 22 6 12
f 23 24 14
f 23 13 9
f 25 13 23
f 26 16 6
f 27 7 16
f 28 17 4
f 29 18 3
f 30 31 18
f 30 18 6
f 30 6 22
f 30 32 31
f 33 1 8
f 34 8 18
f 35 15 1
f 36 9 15
f 37 4 19
f 38 20 7
f 39 5 21
f 40 19 2
f 41 21 11
f 42 13 25
f 42 5 13
f 43 23 14
f 44 3 10
f 45 26 6
f 45 29 3
f 46 27 16
f 47 10 17
f 48 7 27
f 48 17 7
f 49 17 28
f 49 28 7
f 49 7 17
f 50 18 29
f 50 29 6
f 50 6 18
f 51 33 8
f 52 1 33
f 53 24 23
f 54 23 9
f 55 8 34
f 56 35 1
f 57 15 35
f 58 4 37
f 59 11 20
f 60 37 19
f 61 38 7
f 61 7 28
f 62 20 38
f 62 38 4
f 62 58 20
f 63 4 38
f 63 61 28
f 63 28 4
f 64 5 39
f 64 2 5
f 65 40 2
f 66 21 40
f 66 39 21
f 67 19 40
f 68 19 41
f 68 41 11
f 68 11 19
f 69 70 14
f 69 14 24
f 71 42 25
f 71 25 43
f 71 14 5
f 72 23 43
f 72 43 25
f 72 25 23
f 73 44 10
f 74 16 26
f 75 3 44
f 76 26 45
f 76 45 3
f 76 75 26
f 77 29 45
f 77 45 6
f 77 6 29
f 78 27 46
f 78 46 10
f 78 47 27
f 79 10 46
f 79 46 16
f 79 16 73
f 80 27 47
f 80 17 48
f 81 30 22
f 82 83 84
f 85 12 14
f 86 22 12
f 87 33 51
f 87 51 88
f 89 88 51
f 89 51 8
f 89 8 88
f 90 1 52
f 90 52 88
f 91 88 52
f 91 52 33
f 91 33 88
f 92 24 53
f 92 53 93
f 92 93 54
f 92 54 9
f 92 9 94
f 95 36 15
f 96 36 94
f 96 94 9
f 96 9 36
f 97 93 53
f 97 53 23
f 98 8 55
f 99 57 35
f 100 20 58
f 100 58 37
f 100 37 59
f 101 59 37
f 101 11 59
f 102 11 60
f 102 60 19
f 102 19 11
f 103 58 62
f 103 62 4
f 103 4 58
f 104 61 63
f 104 63 38
f 104 38 61
f 105 2 64
f 105 64 39
f 105 39 65
f 106 39 66
f 106 65 39
f 107 106 66
f 107 66 40
f 107 40 65
f 108 40 21
f 109 19 67
f 109 67 41
f 109 41 19
f 110 42 71
f 110 71 5
f 110 5 42
f 111 14 71
f 111 71 43
f 111 43 14
f 112 73 16
f 112 74 44
f 113 44 74
f 113 26 75
f 114 75 76
f 114 76 3
f 114 3 75
f 115 47 78
f 115 78 10
f 115 10 47
f 116 10 79
f 116 79 73
f 116 73 10
f 117 17 80
f 117 80 47
f 117 47 17
f 118 27 80
f 118 80 48
f 118 48 27
f 119 81 22
f 119 22 84
f 120 30 81
f 120 81 84
f 121 69 24
f 121 24 83
f 121 83 82
f 122 85 14
f 123 12 85
f 124 86 12
f 125 22 86
f 126 33 87
f 126 87 88
f 126 88 33
f 127 94 36
f 127 36 95
f 127 95 15
f 127 15 57
f 127 57 99
f 127 99 35
f 127 35 56
f 127 56 1
f 127 1 90
f 127 90 88
f 127 88 94
f 128 93 97
f 128 97 23
f 128 23 54
f 128 54 93
f 129 24 92
f 129 92 94
f 129 94 88
f 129 130 83
f 129 83 24
f 131 31 32
f 131 32 130
f 131 130 132
f 133 83 130
f 133 130 32
f 133 32 134
f 135 132 130
f 135 130 129
f 135 129 34
f 135 34 18
f 136 20 100
f 136 100 59
f 136 59 20
f 137 60 101
f 137 101 37
f 137 37 60
f 138 11 101
f 138 101 60
f 138 60 11
f 139 2 105
f 139 105 65
f 139 65 2
f 140 106 107
f 140 107 65
f 140 65 106
f 141 40 108
f 141 108 67
f 141 67 40
f 142 67 108
f 142 108 21
f 142 21 41
f 143 73 112
f 143 112 44
f 143 44 73
f 144 74 112
f 144 112 16
f 144 16 74
f 145 26 113
f 145 113 74
f 145 74 26
f 146 44 113
f 146 113 75
f 146 75 44
f 147 81 119
f 147 119 84
f 147 84 81
f 148 120 84
f 148 84 83
f 149 70 69
f 149 69 121
f 149 14 70
f 150 82 84
f 151 82 150
f 151 150 122
f 151 122 14
f 152 86 124
f 152 124 84
f 152 84 86
f 153 22 125
f 153 125 84
f 153 84 22
f 154 84 125
f 154 125 86
f 154 86 84
f 155 55 34
f 155 34 129
f 155 129 88
f 155 88 8
f 155 8 98
f 155 98 55
f 156 132 135
f 156 135 18
f 156 18 31
f 156 31 131
f 156 131 132
f 157 67 142
f 157 142 41
f 157 41 67
f 158 120 148
f 158 148 83
f 158 30 120
f 159 122 150
f 159 85 122
f 160 150 123
f 160 123 85
f 161 123 150
f 161 12 123
f 162 124 12
f 162 12 150
f 162 150 84
f 162 84 124
f 163 121 82
f 163 82 151
f 163 151 14
f 163 14 149
f 163 149 121
f 164 133 134
f 164 134 32
f 164 32 30
f 164 30 158
f 164 158 83
f 164 83 133
f 165 85 159
f 165 159 150
f 165 150 85
f 166 150 160
f 166 160 85
f 166 85 150
f 167 12 161
f 167 161 150
f 167 150 12
