# Normalized convex hull collision mesh - generated by scripts/generate-collision-meshes.mjs (units: meters)
v -0.004158 -0.003857 -0.001000
v -0.004158 0.003857 -0.001000
v 0.004000 -0.003857 -0.001000
v 0.004000 0.003857 -0.001000
v 0.001105 0.009000 0.000200
v -0.001263 0.009000 0.000200
v -0.001263 0.009000 0.000655
v -0.006500 0.003857 0.000216
v -0.004158 -0.003857 0.001000
v -0.000079 -0.008486 0.000818
v 0.004000 -0.003857 0.001000
v 0.004000 0.003857 0.001000
v -0.003632 -0.006943 0.000464
v -0.001711 -0.009000 -0.000234
v 0.003096 -0.009000 0.000242
v -0.000605 -0.009000 -0.000089
v 0.000760 0.009000 0.000442
v 0.001105 0.009000 0.000655
v 0.006500 0.003857 -0.000000
v -0.004158 0.003857 0.001000
v -0.001711 -0.009000 -0.000089
v -0.006292 0.003857 -0.000314
v -0.006406 0.003857 -0.000268
v 0.006046 0.003857 -0.000344
v 0.006179 0.003857 -0.000298
v 0.001184 -0.008486 0.000818
v 0.003096 -0.009000 0.000097
v 0.006500 -0.003857 0.000000
v 0.006046 0.003857 0.000344
v 0.006179 0.003857 0.000298
v 0.006179 -0.003857 0.000298
v -0.006292 0.003857 0.000314
v -0.006292 -0.003857 -0.000314
v -0.003632 -0.006943 0.000136
v -0.006500 -0.003857 -0.000216
v -0.006500 -0.003857 0.000216
v -0.006406 -0.003857 0.000268
v -0.006500 0.003857 -0.000216
v 0.001517 -0.009000 0.000242
v 0.006291 0.003857 -0.000246
v 0.006381 0.003857 -0.000189
v 0.006487 0.003857 -0.000065
v 0.006046 -0.003857 0.000344
v -0.000605 -0.009000 -0.000234
v 0.006179 -0.003857 -0.000298
v 0.006291 0.003857 0.000246
v 0.006381 -0.003857 0.000189
v 0.006381 0.003857 0.000189
v 0.006487 0.003857 0.000065
v -0.006406 0.003857 0.000268
v -0.006292 -0.003857 0.000314
v -0.006406 -0.003857 -0.000268
v 0.006447 0.003857 -0.000128
v 0.002780 -0.006943 -0.000443
v 0.006046 -0.003857 -0.000344
v 0.006381 -0.003857 -0.000189
v 0.006291 -0.003857 0.000246
v 0.006447 0.003857 0.000128
v 0.006487 -0.003857 0.000065
v 0.006447 -0.003857 -0.000128
v 0.006291 -0.003857 -0.000246
v 0.006447 -0.003857 0.000128
v 0.006487 -0.003857 -0.000065
f 1 2 3
f 4 3 2
f 4 2 5
f 6 7 5
f 6 5 2
f 6 8 7
f 9 10 11
f 9 11 12
f 13 10 9
f 14 1 3
f 15 16 14
f 17 5 7
f 18 5 17
f 18 17 7
f 18 7 12
f 18 19 5
f 20 9 12
f 20 12 7
f 21 10 13
f 21 13 14
f 21 14 16
f 21 16 15
f 22 2 1
f 22 23 6
f 22 6 2
f 24 4 5
f 24 5 25
f 24 3 4
f 26 10 15
f 26 15 11
f 26 11 10
f 27 28 15
f 27 15 14
f 29 30 18
f 29 18 12
f 29 12 11
f 29 31 30
f 32 9 20
f 32 20 7
f 33 23 22
f 33 22 1
f 33 1 14
f 34 13 35
f 34 35 14
f 34 14 13
f 36 37 8
f 36 8 35
f 36 35 13
f 36 13 37
f 38 23 35
f 38 35 8
f 38 8 6
f 38 6 23
f 39 10 21
f 39 21 15
f 39 15 10
f 40 25 5
f 40 5 41
f 42 5 19
f 42 19 28
f 43 15 31
f 43 31 29
f 43 29 11
f 43 11 15
f 44 27 14
f 44 14 3
f 45 24 25
f 45 25 40
f 46 30 31
f 46 47 48
f 46 48 18
f 46 18 30
f 49 28 19
f 49 19 18
f 50 37 32
f 50 32 7
f 50 7 8
f 50 8 37
f 51 9 32
f 51 32 37
f 51 37 13
f 51 13 9
f 52 35 23
f 52 23 33
f 52 33 14
f 52 14 35
f 53 41 5
f 53 5 42
f 54 27 44
f 54 44 3
f 54 3 27
f 55 3 24
f 55 24 45
f 55 45 27
f 55 27 3
f 56 40 41
f 56 41 53
f 57 47 46
f 57 46 31
f 57 31 15
f 57 15 47
f 58 48 47
f 58 49 18
f 58 18 48
f 59 28 49
f 59 49 58
f 59 15 28
f 60 27 56
f 60 56 53
f 60 53 42
f 61 45 40
f 61 40 56
f 61 56 27
f 61 27 45
f 62 47 15
f 62 15 59
f 62 59 58
f 62 58 47
f 63 28 27
f 63 27 60
f 63 60 42
f 63 42 28
