# Convex hull collision mesh — generated by scripts/generate-collision-meshes.mjs
v -2.616652 -0.665680 53.000000
v 2.616652 -0.665680 53.000000
v 2.699895 -0.023791 53.000000
v 18.773670 2.923921 34.799999
v 18.652884 3.592906 2.500000
v 18.373528 4.838751 34.799999
v -16.399742 -1.807712 0.000000
v -14.938396 7.006340 0.000000
v -8.096832 14.375236 0.000000
v -18.555548 -3.877564 34.924698
v -18.855896 -1.949113 34.924698
v -36.903168 -0.030134 14.241333
v -16.497446 9.336922 34.924698
v -2.549169 1.391347 52.919823
v -15.449976 10.983719 34.924698
v -14.256630 12.529815 34.886776
v -36.785580 0.687128 13.670930
v -36.886532 0.187128 14.160633
v -0.952298 -2.526485 53.000000
v -36.793652 0.642016 13.710072
v 16.790644 8.901383 2.500000
v 15.891300 10.416611 2.500000
v 16.031736 10.197227 34.000000
v 14.847356 11.851786 2.500000
v 14.898276 11.791580 34.000000
v 18.974808 -0.978096 34.799999
v 18.768715 -2.923149 34.844505
v 18.773670 -2.923921 34.799999
v 18.974808 -0.978096 34.000000
v 18.996897 -0.141139 2.500000
v 16.031736 10.197227 34.799999
v 16.995255 8.494782 34.799999
v 18.773670 2.923921 34.000000
v 1.466334 -18.943333 34.799999
v -0.489210 -18.993700 34.799999
v 0.634415 -18.986052 2.500000
v 13.592708 13.247115 34.886776
v 13.575644 13.230485 34.924698
v 14.882746 11.779288 34.886776
v 8.929558 16.770897 34.000000
v 7.481753 17.466461 2.500000
v 8.929558 16.770897 34.799999
v -11.013381 -12.287408 0.000000
v 0.302335 16.498997 0.000000
v 5.822040 18.084860 2.500000
v 7.157830 17.600155 34.000000
v -1.831506 18.914944 2.500000
v -2.439569 18.842731 34.799999
v -0.489210 18.993700 34.799999
v 17.778620 6.702290 34.799999
v 17.778620 6.702290 34.000000
v 17.534927 7.325925 2.500000
v -2.405031 1.227122 53.000000
v -16.518183 9.348658 34.886776
v -14.238732 12.514086 34.924698
v -15.469396 10.997524 34.886776
v 1.526235 -2.227242 53.000000
v -6.242305 17.945295 34.000000
v -5.297130 18.243984 2.500000
v -6.979021 17.667479 2.500000
v -6.242305 17.945295 34.799999
v -36.876518 0.221364 14.112055
v -36.903168 0.030134 14.241333
v -17.370039 7.591151 34.924698
v -36.900253 0.088651 14.227206
v -18.058506 5.764912 34.924698
v -9.538594 16.447081 13.734040
v -9.112491 16.688148 27.949268
v -9.129761 16.677631 14.196547
v -8.772172 16.850859 2.500000
v 18.974808 0.978096 34.799999
v 18.974808 0.978096 34.000000
v 14.898276 11.791580 34.799999
v 13.606892 13.260939 34.799999
v 13.603300 13.257440 34.844505
v 16.977539 8.485927 34.886776
v 15.994919 10.173810 34.924698
v 16.956224 8.475274 34.924698
v 17.737791 6.686898 34.924698
v 16.995255 8.494782 34.000000
v 2.771689 0.653341 52.961151
v 2.826684 0.666305 52.919823
v 2.536551 1.294227 52.961151
v 2.904041 -0.025590 52.919823
v 18.931232 0.975850 34.924698
v 18.730556 2.917206 34.924698
v 18.730556 -2.917206 34.924698
v 18.931232 -0.975850 34.924698
v 2.586881 1.319907 52.919823
v 18.331331 4.827639 34.924698
v 18.768715 2.923149 34.844505
v 8.929558 -16.770897 34.799999
v 8.999542 -16.736866 2.500000
v 10.606630 -15.763864 34.799999
v 7.157830 -17.600155 34.799999
v 7.245574 -17.566574 2.500000
v 10.582273 -15.727661 34.924698
v 12.143319 -14.556223 34.924698
v 1.639346 -2.397217 52.919823
v 7.157830 -17.600155 34.000000
v 3.406334 -18.692162 34.799999
v 2.591686 -18.819820 2.500000
v 3.406334 -18.692162 34.000000
v 13.672827 13.187600 2.500000
v 13.247566 13.576593 1.821166
v 12.971219 13.878971 2.500000
v -9.514024 -16.460463 13.754404
v -9.131885 -16.677473 27.983141
v -9.540133 -16.444584 28.440084
v -9.781063 -16.288979 34.799999
v -14.331351 -8.177693 0.000000
v -18.063267 -0.000000 0.232925
v -17.847927 2.519270 0.216969
v -17.796644 2.004858 0.173007
v -17.722948 0.757877 0.122239
v -12.084188 11.236823 0.000000
v -11.543078 12.424476 0.012178
v -12.846824 11.068099 0.012178
v -1.341532 16.448481 0.000000
v -0.479372 16.952480 0.012178
v 15.672131 -5.173829 0.000000
v 9.066900 16.700832 2.500000
v 8.685167 16.879389 1.906041
v 11.439430 15.135751 1.821166
v 10.682857 15.714370 2.500000
v 12.235355 14.533526 2.500000
v 1.248564 17.128122 0.028703
v -0.085358 17.154762 0.026760
v 0.871007 17.421385 0.062195
v 18.905018 -1.910521 2.500000
v 18.924400 1.636555 2.500000
v 18.969431 0.498772 1.906041
v 18.930027 -0.953856 1.662045
v 18.808847 -2.366520 1.662045
v 2.690406 -0.684443 52.990189
v 2.759745 -0.702083 52.961151
v 2.775995 -0.024462 52.990189
v 16.031736 -10.197227 34.000000
v 16.783651 -8.908031 2.500000
v 16.031736 -10.197227 34.799999
v 15.778954 -10.577445 2.500000
v 14.898276 -11.791580 34.799999
v 13.945127 -12.893865 2.500000
v 14.597581 -12.150807 2.500000
v 13.606892 -13.260939 34.799999
v -2.433966 18.799458 34.924698
v -4.354045 18.449556 34.924698
v -1.629157 2.404154 52.919823
v -0.488087 18.950081 34.924698
v -0.489210 18.993700 34.000000
v 0.102171 19.002125 2.500000
v -2.439569 18.842731 34.000000
v 2.043869 1.764256 53.000000
v 1.466334 18.943333 34.799999
v -17.370039 -7.591151 34.924698
v -16.497446 -9.336922 34.924698
v -2.587443 -1.318805 52.919823
v -18.058506 -5.764912 34.924698
v -15.449976 -10.983719 34.924698
v -16.518183 -9.348658 34.886776
v -2.808869 0.737810 52.919823
v -18.855896 1.949113 34.924698
v -2.903864 0.041010 52.919823
v -2.828584 -0.658194 52.919823
v -18.956366 -0.000000 34.924698
v -36.894600 0.142016 14.199775
v -8.054374 17.208344 34.799999
v -7.886060 17.282061 2.500000
v -9.781063 16.288979 34.799999
v -8.811677 16.848595 14.762637
v -9.778481 16.284679 34.844505
v -11.401062 15.192935 34.844505
v -2.012461 -1.800000 53.000000
v -1.032891 -2.653723 52.961151
v -1.673035 -2.373829 52.919823
v -1.053386 -2.706379 52.919823
v -2.470331 18.571512 0.866425
v -1.408034 18.776793 1.089002
v -1.392518 18.569891 0.676530
v -2.797137 18.319830 0.566243
v -9.514356 16.460287 28.421143
v -36.775566 0.721364 13.622352
v -36.764191 0.742735 13.567160
v -11.404071 15.196945 34.799999
v -12.421986 14.040962 0.889474
v -13.165898 13.167816 0.676530
v -36.728653 0.721364 13.394774
v -18.204865 -2.051259 0.379822
v -36.601055 -0.030134 12.775793
v -18.296856 -0.000000 0.362833
v 16.995255 -8.494782 34.799999
v 18.373528 -4.838751 34.799999
v 17.778620 -6.702290 34.799999
v 18.179794 -5.538478 2.500000
v 18.650383 -3.649177 2.500000
v 18.955029 0.977077 34.886776
v 18.955029 -0.977077 34.886776
v 16.015024 10.186598 34.886776
v 16.027504 10.194536 34.844505
v 14.894344 11.788468 34.844505
v 16.990768 8.492540 34.844505
v 17.773928 6.700521 34.844505
v 2.702050 0.636926 52.990189
v 2.472820 1.261710 52.990189
v 2.847540 -0.025092 52.961151
v 2.198411 1.897656 52.919823
v 18.354374 4.833707 34.886776
v 10.606630 -15.763864 34.000000
v 10.502851 -15.834028 2.500000
v 11.927485 -14.785131 2.500000
v 8.929558 -16.770897 34.000000
v 10.595574 -15.747431 34.886776
v 8.927201 -16.766472 34.844505
v 8.909051 -16.732382 34.924698
v 6.529385 -17.822824 1.906041
v 7.732326 -17.336065 1.906041
v 7.966790 -17.202414 1.662045
v 1.466334 -18.943333 34.000000
v 1.465947 -18.938334 34.844505
v 1.015063 -2.720984 52.919823
v 7.155941 -17.595510 34.844505
v 5.310227 -18.242847 34.799999
v 13.606892 13.260939 34.000000
v 7.157830 17.600155 34.799999
v 12.171270 14.589728 34.799999
v 1.609366 2.262010 52.990189
v 2.101478 1.813984 52.990189
v 12.143319 14.556223 34.924698
v -0.350348 -18.993883 2.500000
v -3.860526 -18.604748 2.500000
v -2.118557 -18.880600 2.500000
v -2.439569 -18.842731 34.000000
v -8.054374 -17.208344 34.799999
v -8.052248 -17.203802 34.844505
v -7.571898 -17.425457 2.500000
v -6.242305 -17.945295 34.799999
v -15.663390 -5.184801 0.000000
v -16.507118 7.948214 0.379822
v -16.360760 8.442545 0.449821
v -16.044649 8.857955 0.384444
v -16.015856 8.272836 0.216969
v -16.454283 7.361678 0.216969
v -17.777231 -0.000000 0.132251
v -15.616364 5.322862 0.000000
v -17.394777 2.954987 0.100040
v -16.048578 6.051247 0.026760
v -13.251559 9.830634 0.000000
v -10.781714 12.494100 0.000000
v -4.892077 15.755323 0.000000
v 13.522354 9.454656 0.000000
v 14.251063 -8.314795 0.000000
v 3.991511 18.573801 2.500000
v 5.310227 18.242847 34.000000
v 3.572312 18.631056 1.821166
v 3.024505 18.755999 2.500000
v 3.406334 18.692162 34.000000
v 2.501591 18.805632 1.821166
v 2.049433 18.888517 2.500000
v 6.571258 17.798088 1.821166
v 7.986967 17.213955 1.842041
v 6.933473 17.624748 1.551361
v 9.748721 16.288393 1.906041
v 10.606630 15.763864 34.000000
v 12.608505 14.173194 1.821166
v 18.773670 -2.923921 34.000000
v 18.855511 -1.576863 1.447483
v 18.773525 -1.406759 1.089002
v 18.823118 0.000602 1.089002
v 18.965935 -0.683848 1.906041
v 2.814504 -0.716014 52.919823
v 2.450201 -1.305091 52.990189
v 15.208363 -11.379191 2.500000
v 14.894344 -11.788468 34.844505
v 13.606892 -13.260939 34.000000
v 13.255621 -13.602616 2.500000
v 13.696836 -13.128161 1.906041
v -13.998176 9.568722 0.012178
v -15.279411 7.794086 0.026760
v -15.444328 8.534746 0.100040
v -14.674856 9.220201 0.046435
v -15.615300 7.518800 0.046435
v -16.302338 6.751600 0.100040
v -4.364067 18.492023 34.799999
v -4.364067 18.492023 34.000000
v -6.240658 17.940559 34.844505
v -12.876554 13.911799 34.924698
v -11.377882 15.162045 34.924698
v -2.499572 1.364277 52.961151
v -3.573857 18.661575 2.500000
v -1.622520 18.888851 1.662045
v -0.658490 18.946733 1.662045
v -0.656593 18.892172 1.349861
v 5.310227 18.242847 34.799999
v -15.469396 -10.997524 34.886776
v -2.194581 -1.902083 52.919823
v -14.238732 -12.514086 34.924698
v -12.876554 -13.911799 34.924698
v -2.151884 -1.865076 52.961151
v -2.537102 -1.293146 52.961151
v -2.699895 -0.023791 53.000000
v -2.685019 0.705279 52.990189
v -2.436770 1.330000 52.990189
v -18.555548 3.877564 34.924698
v -2.847366 0.040212 52.961151
v -2.775826 0.039202 52.990189
v -8.054374 17.208344 34.000000
v -8.534922 16.989681 26.087746
v -8.534922 16.989681 16.087746
v -8.804839 16.853344 27.387119
v -9.770867 16.271997 34.886776
v -1.526235 -2.227242 53.000000
v -1.599267 -2.269161 52.990189
v -1.640484 -2.327643 52.961151
v 0.323632 -2.680534 53.000000
v -0.371969 -2.880234 52.919823
v -4.354045 -18.449556 34.924698
v -6.079278 17.968370 1.821166
v -7.444345 17.446676 1.821166
v -6.458578 17.799570 1.551361
v 1.466334 18.943333 34.000000
v 1.765608 18.810078 1.318614
v 2.409944 18.609320 0.936801
v 1.933118 18.626175 0.855053
v -0.498863 17.641685 0.100040
v -2.007486 17.628088 0.122177
v -0.776819 17.725315 0.122177
v -3.434283 17.856211 0.292508
v -5.617797 17.379877 0.343902
v -4.330606 17.966444 0.515576
v -2.927357 17.995888 0.320290
v -2.044124 17.949808 0.232753
v -7.694436 15.350027 0.028703
v -6.031533 16.075369 0.028703
v -8.954217 14.399430 0.012178
v -2.369408 17.755424 0.173007
v -3.776642 17.479664 0.163922
v 1.676759 18.578894 0.729610
v 0.219022 18.482893 0.515576
v 0.823965 18.748978 0.936801
v -36.740032 0.742735 13.449966
v -9.815153 15.985678 0.920841
v -10.352913 15.845624 1.481387
v -9.965006 16.105305 1.551361
v -36.752110 0.750000 13.508563
v -9.580661 16.374666 1.821166
v -13.705799 11.652081 0.201753
v -13.637828 12.216371 0.370666
v -13.031420 12.403208 0.201753
v -13.575708 12.481165 0.475499
v -14.556279 11.609068 0.676530
v -13.920137 12.095016 0.475499
v -14.059290 11.873647 0.442276
v -36.853062 0.250000 13.998266
v -36.829605 0.221364 13.884478
v -36.829605 -0.221364 13.884478
v -11.404071 -15.196945 34.799999
v -11.401062 -15.192935 34.844505
v -36.752110 -0.750000 13.508563
v -9.332627 -16.549486 2.500000
v -18.204809 2.050860 0.379822
v -18.062691 3.093415 0.384444
v -36.601055 0.030134 12.775793
v -36.609623 -0.142016 12.817351
v -16.840460 6.427347 0.216969
v -16.904217 5.914131 0.173007
v -12.665130 12.666984 0.173007
v -11.168317 14.005836 0.173007
v -11.617947 13.153858 0.080055
v -13.006698 11.779638 0.080055
v -10.250119 15.319589 0.467710
v -11.424467 14.327061 0.379822
v -11.363204 14.698517 0.619848
v 16.956224 -8.475274 34.924698
v 2.563219 -1.365289 52.919823
v 15.994919 -10.173810 34.924698
v 18.373528 -4.838751 34.000000
v 18.969799 0.977838 34.844505
v 18.754099 -2.920873 34.886776
v 18.354374 -4.833707 34.886776
v 18.969799 -0.977838 34.844505
v 17.760086 6.695303 34.886776
v 2.405031 1.227122 53.000000
v 14.864062 11.764501 34.924698
v 18.368677 4.837474 34.844505
v 18.754099 2.920873 34.886776
v 11.422811 -15.154906 1.906041
v 12.171270 -14.589728 34.799999
v 7.077679 -17.586113 1.662045
v 6.879327 -17.526035 1.089002
v 5.401144 -18.216530 2.500000
v 8.170729 -16.963623 1.089002
v 8.463849 -16.925478 1.447483
v 9.415258 -16.305473 1.089002
v 3.402784 -18.672676 34.886776
v 3.398512 -18.649235 34.924698
v 1.462966 -18.899830 34.924698
v 0.970307 -2.601010 52.990189
v 0.316653 -2.757985 52.990189
v 0.324814 -2.829065 52.961151
v 7.150368 -17.581808 34.886776
v 10.606630 15.763864 34.799999
v 12.171270 14.589728 34.000000
v 1.465947 18.938334 34.844505
v 1.650844 2.320308 52.961151
v 12.158583 14.574520 34.886776
v 8.927201 16.766472 34.844505
v -8.813124 -16.849445 27.418440
v -9.112281 -16.688250 14.226227
v -8.804754 -16.853382 14.788313
v -8.463485 -17.010084 2.500000
v -6.227970 -17.904083 34.924698
v -8.035876 -17.168823 34.924698
v -6.242305 -17.945295 34.000000
v -5.740804 -18.112730 2.500000
v -6.528175 -17.821814 1.906041
v -6.911249 -17.649828 1.662045
v -5.993944 -17.982788 1.662045
v -4.364067 -18.492023 34.799999
v -0.489210 -18.993700 34.000000
v -4.976660 -18.291124 1.662045
v -5.397567 -18.135521 1.447483
v -11.377882 -15.162045 34.924698
v -8.045978 -17.190405 34.886776
v -9.778481 -16.284679 34.844505
v -9.770867 -16.271997 34.886776
v -9.758601 -16.251570 34.924698
v -8.054374 -17.208344 34.000000
v -8.534922 -16.989681 26.087746
v -13.341599 -9.707244 0.000000
v -17.956039 -1.255757 0.206347
v -17.412930 -1.458172 0.067387
v -17.394884 -2.955742 0.100040
v -17.796701 -2.005248 0.173007
v -16.102232 -3.593812 0.000000
v -15.759052 -6.258926 0.012178
v -16.829344 -3.305670 0.026760
v -16.875893 -0.927295 0.009248
v -16.385096 1.934383 0.000000
v -16.976280 2.442483 0.026760
v -16.357695 5.722949 0.046435
v -15.692107 6.924994 0.026760
v -10.393973 13.871934 0.046435
v -10.807250 13.553021 0.046435
v -11.068204 13.340874 0.046435
v -11.798271 12.699172 0.046435
v -9.492843 13.497955 0.000000
v -6.613854 15.112761 0.000000
v 8.457426 14.170863 0.000000
v 15.009863 -6.859155 0.000000
v 16.327427 -4.591056 0.012178
v -6.579216 -15.131060 0.000000
v 5.201756 -15.659472 0.000000
v 4.818487 18.348370 1.821166
v 5.222027 18.203037 1.551361
v 4.096323 18.441370 1.318614
v 5.604796 18.041122 1.318614
v 6.104016 17.927578 1.551361
v 7.140052 17.430380 1.115915
v 11.279049 14.997968 0.936801
v 10.169284 15.754916 0.901151
v 10.699033 15.614873 1.481387
v 11.018950 15.404533 1.551361
v 12.045981 14.552573 1.318614
v 8.428665 16.836916 1.089002
v 8.784678 16.712725 1.257941
v 8.732641 16.613726 0.936801
v 9.262672 16.541405 1.662045
v 10.074801 16.058971 1.662045
v 9.837237 16.115458 1.257941
v 10.378577 15.887073 1.842041
v 13.017282 13.751708 1.551361
v 13.369211 13.409382 1.551361
v 1.472199 18.002886 0.232753
v 1.015882 18.051043 0.239951
v 0.601143 18.225874 0.322400
v 2.128054 18.018078 0.271805
v 2.978461 17.813889 0.232753
v 2.149180 17.545460 0.107179
v 1.741206 17.354652 0.062195
v 2.468852 17.265249 0.062195
v 3.331312 17.119143 0.062195
v 10.249954 15.439528 0.566243
v 18.813610 2.618271 2.500000
v 18.933073 0.817408 1.662045
v 18.186438 5.498885 2.500000
v 18.373528 4.838751 34.000000
v 17.143728 8.154556 1.906041
v 18.345119 -4.864242 1.842041
v 17.930113 -6.222010 1.842041
v 18.555607 -4.010226 1.906041
v 18.491251 -4.186653 1.662045
v 18.680653 -3.233848 1.662045
v 18.775625 -2.796328 1.906041
v 18.618662 -2.806453 1.089002
v 2.164628 -1.936102 52.919823
v 13.575644 -13.230485 34.924698
v 17.737791 -6.686898 34.924698
v 2.383032 -1.269313 53.000000
v 13.123636 -12.177868 0.173007
v 14.171527 -11.302108 0.266035
v 13.424634 -12.457167 0.379822
v 16.089075 -10.064033 1.906041
v 17.589802 -7.194036 2.500000
v 17.160889 -8.114397 1.906041
v 17.321871 -7.705415 1.662045
v 17.623381 -6.990277 1.662045
v 15.162121 -11.406854 1.906041
v 14.898276 -11.791580 34.000000
v 14.864062 -11.764501 34.924698
v 16.015024 -10.186598 34.886776
v 13.603300 -13.257440 34.844505
v -14.872013 8.545614 0.026760
v -14.307651 9.780293 0.046435
v -14.166923 8.458180 0.000000
v -16.137012 7.770009 0.173007
v -15.165145 9.528268 0.173007
v -12.255670 12.257447 0.046435
v -4.362916 18.487143 34.844505
v -2.438925 18.837757 34.844505
v -6.235798 17.926588 34.886776
v -6.227970 17.904083 34.924698
v -1.641947 2.445991 52.871723
v -1.565248 2.200000 53.000000
v -2.045635 1.876733 52.990189
v -1.589372 2.276103 52.990189
v -2.098356 1.925101 52.961151
v -12.902787 13.940142 34.844505
v -12.892739 13.929286 34.886776
v -2.139992 1.963299 52.919823
v -2.437026 18.823088 34.886776
v 0.994744 18.947390 1.821166
v -0.278643 18.975245 1.842041
v 1.437916 18.884571 1.551361
v -0.485604 18.746248 0.901151
v 0.091765 18.929253 1.481387
v -4.340752 18.468369 1.821166
v -3.034900 18.731871 1.842041
v -1.049968 18.954189 1.906041
v -2.128410 18.760397 1.257941
v 7.155941 17.595510 34.844505
v 3.406334 18.692162 34.799999
v -2.473357 -1.260656 52.990189
v -2.627977 0.619465 53.000000
v -2.754219 0.723456 52.961151
v -8.606386 16.954260 15.407630
v -9.758601 16.251570 34.924698
v -11.392183 15.181104 34.886776
v -2.433966 -18.799458 34.924698
v -0.488087 -18.950081 34.924698
v -1.006940 -2.587049 52.990189
v -0.355568 -2.753238 52.990189
v -0.364732 -2.824196 52.961151
v -0.323632 -2.680534 53.000000
v -3.487922 18.150604 0.515576
v -5.758849 17.202431 0.271805
v -5.354812 17.332951 0.271805
v 2.237630 18.805418 1.551361
v 0.418113 17.509373 0.073867
v -0.506343 17.906193 0.173007
v -1.370277 18.273289 0.379822
v -0.790996 18.048809 0.232753
v -9.009473 14.595803 0.026760
v -9.782349 14.308420 0.046435
v -6.595900 16.142916 0.062195
v -3.033809 17.568491 0.146490
v -2.243208 16.809744 0.012178
v -2.759586 16.930685 0.026760
v -1.296245 17.286049 0.046435
v -4.246003 16.638622 0.028703
v -3.878713 17.004847 0.062195
v -2.788342 17.107111 0.046435
v 1.167219 18.445787 0.515576
v 2.088337 18.362928 0.515576
v 1.466533 18.669407 0.855053
v -11.106278 15.295939 1.349861
v -12.021992 14.454293 1.010947
v -11.739255 14.721831 1.089002
v -36.718639 0.687128 13.346196
v -36.710571 0.642016 13.307055
v -10.672573 15.307554 0.736428
v -9.627496 15.776152 0.515576
v -13.371926 12.644269 0.442276
v -12.608022 13.407667 0.442276
v -36.663242 -0.242735 13.077456
v -12.892739 -13.929286 34.886776
v -12.902787 -13.940142 34.844505
v -36.764191 -0.742735 13.567160
v -36.609623 0.142016 12.817351
v -18.319614 1.322169 0.414805
v -16.954445 4.883735 0.100040
v -17.678095 3.515796 0.216969
v -17.173635 5.472888 0.216969
v -17.453089 4.501353 0.216969
v -17.614021 5.056680 0.384444
v -17.291916 6.049783 0.379822
v -17.848009 -2.519845 0.216969
v -16.954666 -4.885233 0.100040
v -16.895035 -3.856687 0.046435
v -16.357946 -5.724642 0.046435
v 16.990768 -8.492540 34.844505
v 18.368677 -4.837474 34.844505
v 18.331331 -4.827639 34.924698
v 2.627977 0.619465 53.000000
v 12.341929 -14.412647 1.906041
v 12.171270 -14.589728 34.000000
v 10.603831 -15.759703 34.844505
v 6.163068 -17.926161 1.662045
v 5.310227 -18.242847 34.000000
v 4.394694 -18.463259 1.906041
v 1.617643 -18.927774 2.500000
v 1.458248 -18.920294 1.906041
v 0.094005 -18.976295 1.906041
v 3.405435 -18.687227 34.844505
v 1.464805 -18.923586 34.886776
v 0.952298 -2.526485 53.000000
v 1.567064 -2.291519 52.990189
v 1.607451 -2.350577 52.961151
v 0.331259 -2.885199 52.919823
v 5.298032 -18.200953 34.924698
v 0.995314 -2.668045 52.961151
v 8.920250 -16.753414 34.886776
v 7.141392 -17.559736 34.924698
v 5.308825 -18.238033 34.844505
v 2.155639 1.860735 52.961151
v 1.683600 2.366347 52.919823
v 10.582273 15.727661 34.924698
v -1.611723 2.347651 52.961151
v 12.168058 14.585878 34.844505
v 8.920250 16.753414 34.886776
v 7.141392 17.559736 34.924698
v 8.909051 16.732382 34.924698
v -8.606760 -16.954771 26.770649
v -8.534922 -16.989681 16.087746
v -8.673800 -16.881018 1.906041
v -2.439569 -18.842731 34.799999
v -4.362916 -18.487143 34.844505
v -2.438925 -18.837757 34.844505
v -4.609442 -18.412786 1.906041
v -2.702332 -18.786203 1.906041
v -11.392183 -15.181104 34.886776
v -6.240658 -17.940559 34.844505
v -16.150856 -6.859788 0.080055
v -9.521882 -14.031123 0.012178
v -11.916313 -12.585373 0.046435
v 2.854105 -18.228462 0.487323
v 4.141777 -18.151169 0.676530
v 2.082530 -18.498766 0.676530
v -17.875164 -1.755106 0.191483
v -16.617554 -4.244324 0.026760
v -14.042196 -9.503819 0.012178
v -15.070034 -6.720289 0.000000
v -17.571028 -0.482348 0.085941
v -17.382626 -0.477185 0.054304
v -16.500000 -0.000000 0.000000
v -16.361956 5.141813 0.026760
v -16.621521 4.226750 0.026760
v -16.894875 3.855557 0.046435
v -16.109100 3.561192 0.000000
v 5.166387 15.669444 0.000000
v 11.099001 12.205664 0.000000
v 16.497049 -0.161216 0.000000
v 11.002867 -12.289289 0.000000
v -1.664140 -16.414835 0.000000
v 4.307693 18.440361 1.551361
v 3.840467 18.543312 1.551361
v 7.533158 17.297943 1.213947
v 7.834851 17.150009 1.171172
v 8.141937 17.102226 1.551361
v 11.793974 14.817163 1.551361
v 11.775358 14.559664 0.855053
v 11.916216 14.350369 0.729610
v 7.978755 17.196257 1.662045
v 9.413880 16.307043 1.089002
v 10.045790 16.012728 1.349861
v 7.964223 16.897724 0.767626
v 8.486391 16.952227 1.662045
v 12.777874 13.974876 1.551361
v 2.361163 17.988728 0.271805
v 10.063575 15.802747 0.866425
v 18.827108 2.360976 1.906041
v 18.952040 -0.070099 1.662045
v 18.741663 -0.935110 0.936801
v 18.615707 0.000595 0.676530
v 18.734232 3.012307 1.906041
v 18.753748 2.719257 1.662045
v 18.418104 4.319050 1.447483
v 18.588531 3.687705 1.662045
v 18.527603 3.463322 1.171172
v 18.677052 3.206033 1.662045
v 17.506468 5.401998 0.379822
v 17.674717 4.036462 0.266035
v 17.113956 5.280880 0.173007
v 17.823545 6.456310 1.662045
v 18.127720 5.537366 1.662045
v 17.988842 5.550845 1.089002
v 16.609570 9.192092 1.906041
v 17.609444 -6.876788 1.349861
v 17.456614 -7.008553 1.036524
v 17.893169 -6.031167 1.257941
v 18.326258 -4.859240 1.662045
v 18.368561 -4.631828 1.551361
v 18.438002 -4.174598 1.349861
v 2.513349 -1.338726 52.961151
v 17.773928 -6.700521 34.844505
v 5.649911 -16.863443 0.134060
v 6.544752 -16.673658 0.173007
v 5.344763 -17.327824 0.266035
v 14.973911 -7.958425 0.012178
v 15.304965 -8.134363 0.046435
v 14.334800 -9.053128 0.012178
v 14.316403 -9.761418 0.046435
v 15.181921 -8.796762 0.080055
v 13.875520 -10.731256 0.080055
v 14.794717 -10.087546 0.173007
v 17.778620 -6.702290 34.000000
v 16.995255 -8.494782 34.000000
v 17.850470 -5.607922 0.816034
v 17.577713 -6.310942 0.757133
v 17.620638 -5.591785 0.515576
v 18.030743 -4.892745 0.767626
v 17.840828 -4.645462 0.467710
v 17.606764 -4.786052 0.326642
v 17.382078 -6.433598 0.566243
v 14.444429 -11.519752 0.515576
v 13.642537 -12.659364 0.676530
v 11.606121 -14.554249 0.676530
v 11.735425 -14.716416 1.089002
v 10.953903 -15.235876 0.936801
v 10.411645 -15.270512 0.515576
v 11.420743 -14.321788 0.379822
v 11.157566 -15.321502 1.662045
v 9.983751 -16.114666 1.662045
v 15.548056 -10.877148 1.906041
v 15.418559 -11.016634 1.662045
v 14.882746 -11.779288 34.886776
v 12.158583 -14.574520 34.886776
v 14.704457 -11.896079 1.447483
v 13.794533 -12.800414 1.089002
v 14.713207 -11.734111 1.089002
v 15.551040 -10.603233 1.089002
v 13.560762 -13.233313 1.662045
v 12.977394 -13.760134 1.447483
v 13.900501 -12.875674 1.662045
v -14.238360 10.254460 0.080055
v -15.526527 9.157987 0.216969
v -15.512961 9.746793 0.379822
v -14.921669 10.046329 0.201753
v -12.476401 12.032201 0.046435
v -8.035876 17.168823 34.924698
v 1.565248 2.200000 53.000000
v -2.043869 1.764256 53.000000
v -0.488700 18.973902 34.886776
v 1.462966 18.899830 34.924698
v 1.464805 18.923586 34.886776
v -4.359518 18.472746 34.886776
v -0.908035 18.859262 1.257941
v 0.466776 18.935049 1.551361
v -2.495693 18.792526 1.662045
v -3.401068 18.620026 1.481387
v -2.276143 18.845695 1.906041
v -3.855115 18.542557 1.551361
v -4.108994 18.309958 0.936801
v -2.488506 18.738411 1.349861
v 5.308825 18.238033 34.844505
v -36.894600 -0.142016 14.199775
v -36.886532 -0.187128 14.160633
v -36.876518 -0.221364 14.112055
v -2.383032 -1.269313 53.000000
v -2.097817 -1.818216 52.990189
v -2.703866 -0.629173 52.990189
v -8.607103 16.954353 26.763416
v -2.437026 -18.823088 34.886776
v -4.931850 17.988634 0.729610
v -3.454822 18.434874 0.912931
v -10.582566 14.123642 0.100040
v -8.218896 15.382017 0.062195
v -5.348857 16.845726 0.107179
v -7.122045 16.175388 0.107179
v 2.723808 18.740610 1.551361
v -0.489972 17.327280 0.046435
v -1.961333 17.222815 0.046435
v 0.044773 18.032772 0.218695
v -1.339554 17.863586 0.173007
v -0.316071 18.530327 0.566243
v -1.727458 18.299570 0.422505
v -2.334407 17.493145 0.100040
v -3.124135 16.202120 0.000000
v -4.812064 16.762861 0.062195
v -11.321772 15.109311 1.257941
v -8.241056 17.085497 1.821166
v -9.122540 16.594944 1.551361
v -8.753692 16.739870 1.318614
v -9.409645 16.234961 0.936801
v -10.238669 15.678608 0.851284
v -11.254710 15.019808 0.936801
v -11.609904 14.559609 0.676530
v -12.040129 13.970916 0.475499
v -12.426908 13.627633 0.475499
v -12.152054 13.697927 0.370666
v -11.837025 14.093754 0.442276
v -14.914241 10.618135 0.370666
v -14.334739 10.867829 0.201753
v -36.603966 -0.088651 12.789920
v -14.256630 -12.529815 34.886776
v -36.785580 -0.687128 13.670930
v -36.775566 -0.721364 13.622352
v -36.793652 -0.642016 13.710072
v -17.544764 5.573894 0.449821
v -36.617691 0.187128 12.856493
v -36.663242 0.242735 13.077456
v -14.880529 10.889950 0.475499
v -15.180175 10.467998 0.475499
v -36.603966 0.088651 12.789920
v -16.802704 7.523972 0.449821
v -17.197418 6.569853 0.449821
v -15.861370 9.346767 0.449821
v -18.348969 0.636122 0.408819
v -17.859776 4.075727 0.379822
v -17.459345 3.984324 0.173007
v -17.459517 -3.985493 0.173007
v -18.065536 -3.078254 0.384444
v -12.955609 12.957499 0.379822
v -11.567609 13.780630 0.201753
v 16.027504 -10.194536 34.844505
v 10.605378 -15.554673 1.089002
v 10.552735 -15.477452 0.866425
v 9.230049 -16.559082 1.662045
v 9.665334 -16.337164 1.906041
v 5.510964 -18.100908 1.447483
v 3.559093 -18.662094 2.500000
v 2.757129 -18.775927 1.906041
v 2.109730 -18.859102 1.906041
v 2.353048 -18.805464 1.662045
v -0.001815 -18.615448 0.676530
v 1.001921 -18.713718 0.889474
v 1.867167 -18.859570 1.662045
v -1.532072 -18.916088 1.906041
v -2.118369 -18.835226 1.662045
v -1.237745 -18.912397 1.662045
v -0.489081 -18.988688 34.844505
v -0.488700 -18.973902 34.886776
v 2.012461 -1.800000 53.000000
v 2.069185 -1.850735 52.990189
v 5.304691 -18.223831 34.886776
v 3.402784 18.672676 34.886776
v 3.398512 18.649235 34.924698
v 1.611723 2.347651 52.961151
v 1.629157 2.404154 52.919823
v 10.595574 15.747431 34.886776
v 7.150368 17.581808 34.886776
v -8.553323 -16.980814 15.747453
v -10.087741 -16.077002 1.906041
v -10.448397 -15.815627 1.662045
v -8.086044 -17.170305 1.906041
v -4.364067 -18.492023 34.000000
v -6.216817 -17.770191 1.089002
v -4.034741 -18.521687 1.662045
v -4.359518 -18.472746 34.886776
v -15.615552 -7.520301 0.046435
v -15.319184 -8.557630 0.080055
v -16.904484 -5.915882 0.173007
v -15.165269 -9.528509 0.173007
v -14.269815 -10.209964 0.080055
v -14.002548 -11.166043 0.173007
v -12.255453 -12.254865 0.046435
v -13.041317 -11.738832 0.080055
v -12.529462 -11.974171 0.046435
v -13.549852 -10.805030 0.046435
v -8.215575 -14.308876 0.000000
v 2.049270 -18.203297 0.379822
v 2.518000 -17.847227 0.216969
v 3.081732 -18.064669 0.384444
v 0.987458 -17.614988 0.100040
v 1.938545 -17.219849 0.046435
v 2.954066 -17.394884 0.100040
v -0.001741 -17.907406 0.173007
v -0.990741 -17.615877 0.100040
v -2.006200 -17.796780 0.173007
v -1.516256 -17.960970 0.216969
v -2.052211 -18.204950 0.379822
v -1.003445 -18.297880 0.384444
v -6.808378 -16.171747 0.080055
v -7.770198 -16.136332 0.173007
v -8.570819 -15.310754 0.080055
v -2.956136 -17.396818 0.100040
v -5.914464 -16.905941 0.173007
v -6.463165 -16.787542 0.201753
v -5.023812 -16.813238 0.080055
v 10.367681 -14.447972 0.134060
v 10.214931 -14.982010 0.266035
v 8.957348 -15.512459 0.173007
v 9.987412 -14.427039 0.080055
v 7.464768 -15.882769 0.080055
v 7.720340 -17.107054 0.936801
v 12.566380 -13.544383 0.515576
v 12.659170 -13.644395 0.676530
v 3.515268 -17.678944 0.216969
v -13.917439 -12.095849 0.475499
v -13.165661 -13.165039 0.676530
v -14.556199 -11.607528 0.676530
v -14.903578 -10.857516 0.475499
v -15.202386 -10.435389 0.475499
v -14.934681 -10.588751 0.370666
v -14.713844 -11.049849 0.442276
v -16.384922 -5.070279 0.026760
v -14.674974 -9.220436 0.046435
v -12.183259 -11.126781 0.000000
v -13.180793 -11.252448 0.046435
v -17.267302 1.479467 0.046435
v -16.985735 -2.377232 0.026760
v -16.471148 0.968945 0.000000
v -16.832455 3.288262 0.026760
v 6.860950 15.007900 0.000000
v 4.635979 16.533979 0.028703
v 4.328465 16.894627 0.062195
v 5.165657 16.658407 0.062195
v 1.948945 16.383720 0.000000
v 15.751422 4.913465 0.000000
v 16.383455 -1.972707 0.000000
v 10.803731 -13.548028 0.046435
v 11.854428 -12.929501 0.080055
v 6.733803 -15.065880 0.000000
v 4.564039 -16.330730 0.012178
v 12.300684 -10.987760 0.000000
v 10.699203 15.071446 0.515576
v 11.457559 14.500976 0.515576
v 10.902520 14.616010 0.322400
v 12.252618 13.546533 0.343902
v 16.204454 9.875844 1.842041
v 16.504322 9.328863 1.662045
v 15.915356 10.246315 1.481387
v 15.384527 11.101458 1.821166
v 14.253864 12.516129 1.821166
v 14.517161 12.158262 1.551361
v 14.784457 11.759107 1.318614
v 13.628472 13.079385 1.318614
v 12.856260 13.839923 1.318614
v 12.509300 13.984709 0.936801
v 12.136263 14.259183 0.855053
v 7.521095 17.129187 0.816034
v 9.310149 16.127357 0.676530
v 8.057073 16.579742 0.467710
v 8.461953 16.903412 1.349861
v 12.411751 14.301876 1.551361
v 2.273034 18.125481 0.343902
v 6.344450 17.660511 0.936801
v 4.592950 18.192993 0.936801
v 3.668190 18.401712 0.936801
v 5.231529 17.979452 0.855053
v 5.702394 16.731808 0.107179
v 6.001275 16.377115 0.062195
v 18.610502 2.807148 1.089002
v 18.405434 2.776217 0.676530
v 18.321852 3.706190 0.799680
v 18.605209 -1.861709 0.799680
v 18.669308 0.932813 0.799680
v 18.561634 1.392322 0.676530
v 18.768442 1.407835 1.089002
v 17.858234 4.078373 0.379822
v 18.443991 4.551994 2.500000
v 18.248388 5.213816 1.906041
v 18.350302 4.190749 1.089002
v 18.182766 4.632271 0.936801
v 18.259207 4.169946 0.866425
v 18.263565 5.067117 1.662045
v 16.881849 6.626362 0.266035
v 16.674698 6.545053 0.173007
v 15.257852 10.923873 0.936801
v 14.827835 11.434825 0.855053
v 15.749993 9.577715 0.467710
v 15.878033 9.840649 0.767626
v 16.097664 9.440817 0.736428
v 15.982195 9.160417 0.456164
v 17.959417 6.142817 1.906041
v 17.527128 6.879643 1.089002
v 17.570810 6.396511 0.799680
v 17.440121 6.845491 0.866425
v 16.919838 8.554410 1.662045
v 16.392056 9.265407 1.089002
v 16.637205 8.928787 1.257941
v 16.538652 8.875896 0.936801
v 17.271990 -7.683229 1.349861
v 18.018991 -5.603629 1.213947
v 18.511684 -3.719887 1.257941
v 18.402027 -3.697855 0.936801
v 17.760086 -6.695303 34.886776
v 12.699357 -11.784150 0.046435
v 1.811286 -16.397688 0.000000
v -9.529178 -15.165053 0.173007
v -10.223004 -14.262300 0.080055
v -7.394348 -16.398169 0.201753
v 15.751479 -6.637341 0.021313
v 14.651720 -9.253272 0.046435
v 15.220302 -9.195448 0.134060
v 16.138393 -7.773259 0.173007
v 15.616632 -7.521959 0.046435
v 16.914961 -8.558405 1.662045
v 16.692415 -8.766054 1.171172
v 17.172638 -7.847877 1.257941
v 16.302837 -9.413502 1.089002
v 16.010826 -9.784921 0.936801
v 17.665653 -6.245010 0.866425
v 18.134218 -4.412636 0.736428
v 18.298798 -3.215699 0.619848
v 14.316876 -12.014064 0.799680
v 12.800207 -13.796423 1.089002
v 15.134037 -10.318908 0.379822
v 14.953819 -11.327755 0.936801
v 12.367480 -14.015059 0.799680
v 11.857509 -14.783687 1.662045
v 13.592708 -13.247115 34.886776
v 12.168058 -14.585878 34.844505
v 15.127279 -11.411793 1.662045
v 14.144137 -12.644808 1.906041
v 16.728848 -7.615744 0.422505
v 16.776485 -8.080612 0.676530
v -14.002628 11.167527 0.173007
v -13.549926 10.806461 0.046435
v -8.045978 17.190405 34.886776
v -0.489081 18.988688 34.844505
v -5.119230 18.183815 1.318614
v -36.900253 -0.088651 14.227206
v -2.773551 -0.645389 52.961151
v -8.553324 16.980814 26.427971
v -5.230700 17.978720 0.855053
v -5.901104 17.810257 0.936801
v -5.316448 17.698011 0.515576
v -6.138499 17.428978 0.515576
v -3.187007 18.481726 0.908993
v -3.673323 18.395855 0.920841
v -9.949536 15.289709 0.326642
v -8.996671 15.339272 0.134060
v -9.291900 15.110667 0.122177
v -10.270849 14.739384 0.191921
v -6.416866 16.880583 0.232753
v -10.780661 14.091003 0.122177
v -7.435925 15.774157 0.062195
v 3.043439 18.644499 1.318614
v 3.358980 18.636734 1.551361
v -2.292803 17.181387 0.046435
v 0.787171 18.070717 0.243592
v 0.323080 18.085705 0.243592
v -3.361684 17.463831 0.134060
v -5.686587 16.485579 0.062195
v -6.782156 17.629425 1.318614
v -7.994987 16.973707 0.936801
v -7.782114 17.211710 1.318614
v -7.964873 17.178726 1.551361
v -10.015415 15.857215 0.912931
v -11.062592 15.235766 1.089002
v -12.458739 -13.595391 0.475499
v -12.628821 -13.384952 0.442276
v -12.187522 -13.663284 0.370666
v -12.072779 -13.939675 0.475499
v -10.829606 -15.299773 0.889474
v -9.905956 -15.764665 0.676530
v -10.416269 -15.647500 1.010947
v -16.921806 -7.328001 0.475499
v -16.787617 -7.538222 0.442276
v -17.609030 -5.076411 0.384444
v -36.853062 -0.250000 13.998266
v -36.740032 -0.742735 13.449966
v -36.710571 -0.642016 13.307055
v -36.617691 -0.187128 12.856493
v -16.929970 7.017839 0.384444
v -14.698244 11.071722 0.442276
v -16.029350 9.140906 0.487323
v -15.296056 10.229520 0.442276
v -17.678236 -3.516772 0.216969
v -17.453289 -4.502717 0.216969
v -12.321489 13.110152 0.201753
v 10.592384 -15.678291 1.447483
v 4.804904 -18.335558 1.662045
v 4.187937 -18.353397 1.089002
v 5.549060 -17.990147 1.089002
v 5.063421 -17.998318 0.799680
v 5.521507 -17.900845 0.866425
v 3.179424 -18.470291 0.889474
v 2.688375 -18.601257 1.010947
v 5.447679 -17.661505 0.515576
v 3.603735 -18.053188 0.449821
v 2.837426 -18.738941 1.662045
v 3.293258 -18.630064 1.447483
v 1.377563 -18.901430 1.662045
v 2.105745 -18.704866 1.089002
v -0.973922 -18.716255 0.889474
v -1.463250 -18.738188 1.010947
v -2.085521 -18.500444 0.676530
v -0.410641 -18.789660 1.010947
v -0.824631 -18.900303 1.447483
v -0.001830 -18.822853 1.089002
v 2.122513 -1.898434 52.961151
v 3.405435 18.687227 34.844505
v 1.589372 2.276103 52.990189
v 1.641947 2.445991 52.871723
v 5.298032 18.200953 34.924698
v 10.603831 15.759703 34.844505
v 5.304691 18.223831 34.886776
v -8.607102 -16.954351 15.411931
v -7.340065 -17.438528 1.447483
v -9.700416 -16.284407 1.662045
v -5.421692 -17.625668 0.475499
v -5.633484 -17.518938 0.442276
v -5.143024 -17.571968 0.370666
v -4.925466 -17.771025 0.475499
v -2.740812 -18.596008 1.010947
v -3.395144 -18.614338 1.447483
v -3.778655 -18.414284 1.010947
v -3.382593 -18.140779 0.487323
v -4.142848 -18.152981 0.676530
v -3.616121 -18.053030 0.449821
v -5.786339 -17.884859 1.010947
v -4.189013 -18.355240 1.089002
v -2.990483 -18.717726 1.662045
v -6.235798 -17.926588 34.886776
v -16.107473 -6.397288 0.046435
v -15.011996 -7.885592 0.012178
v -15.310578 -10.207711 0.442276
v -15.513088 -9.747041 0.379822
v -16.019207 -8.865359 0.370666
v -15.473498 -9.174746 0.201753
v -14.937160 -10.023167 0.201753
v -11.699517 -13.078339 0.080055
v -8.927064 -14.855203 0.046435
v -8.079492 -15.332186 0.046435
v -9.740759 -13.319051 0.000000
v 1.513098 -17.959663 0.216969
v 0.503678 -18.016163 0.216969
v 2.585331 -18.225821 0.449821
v 2.003332 -17.795158 0.173007
v -0.001693 -17.328461 0.046435
v -0.507145 -18.016628 0.216969
v -3.094630 -18.064848 0.384444
v -2.520539 -17.849089 0.216969
v -3.516878 -17.680897 0.216969
v -1.255622 -18.408037 0.487323
v -7.904733 -15.000546 0.012178
v -6.184448 -15.788214 0.012178
v -3.451901 -16.135885 0.000000
v -7.518986 -15.614639 0.046435
v -3.985281 -17.462534 0.173007
v -4.579016 -17.397459 0.201753
v 11.164674 -14.000685 0.173007
v 11.787427 -13.309414 0.134060
v 8.667763 -15.010927 0.046435
v 10.488524 -15.383269 0.676530
v 9.311516 -16.125797 0.676530
v 10.145059 -15.706505 0.799680
v 7.773346 -16.138599 0.173007
v 7.869915 -16.339090 0.266035
v 9.162789 -15.868235 0.379822
v 8.021464 -16.653727 0.515576
v 6.803518 -17.332916 0.676530
v 8.532274 -16.639875 0.799680
v 3.364487 -18.141756 0.487323
v -14.057494 -11.873704 0.442276
v -14.352645 -9.713952 0.046435
v -15.343895 -8.059941 0.046435
v -17.231916 0.506443 0.035499
v -17.221266 1.940086 0.046435
v -17.221317 -1.940463 0.046435
v 6.323812 15.967107 0.028703
v 2.864427 16.930994 0.028703
v 15.044795 8.610101 0.046435
v 15.232378 8.913304 0.100040
v 15.698834 8.066342 0.100040
v 15.419055 7.922586 0.046435
v 9.822480 13.258063 0.000000
v 9.301827 14.179689 0.012178
v 7.773760 15.072577 0.012178
v 15.851380 7.972525 0.122177
v 12.389557 10.892704 0.000000
v 13.495749 10.616804 0.028703
v 14.322626 9.079241 0.012178
v 14.478815 7.919975 0.000000
v 16.410736 1.670825 0.000000
v 16.107498 -3.594999 0.000000
v 11.184977 -13.233564 0.046435
v 13.343640 -9.697701 0.000000
v 12.484687 13.332500 0.343902
v 12.525212 13.586540 0.515576
v 12.169207 13.907095 0.515576
v 12.105351 13.512012 0.271805
v 11.521343 13.909311 0.232753
v 13.931536 12.824139 1.551361
v 15.622735 10.706137 1.551361
v 15.104265 11.423025 1.551361
v 12.984709 13.543536 0.936801
v 13.641206 12.824614 0.855053
v 7.481997 16.901728 0.515576
v 3.898000 17.757971 0.292508
v 3.477420 18.149918 0.515576
v 2.563100 18.302124 0.515576
v 3.827742 17.364922 0.134060
v 18.857389 1.486547 1.447483
v 18.667418 1.869548 0.936801
v 18.413502 -2.775531 0.676530
v 18.119398 -2.731200 0.379822
v 18.680330 -1.399776 0.866425
v 18.425579 1.382117 0.515576
v 18.318373 0.000586 0.379822
v 18.619629 3.658057 1.906041
v 18.148100 4.144572 0.676530
v 17.790623 5.489680 0.676530
v 17.206940 6.753965 0.515576
v 15.926302 5.825573 0.012178
v 16.424530 4.205561 0.012178
v 16.276083 6.564414 0.080055
v 16.141014 7.772036 0.173007
v 16.511211 7.950289 0.379822
v 15.793881 8.844714 0.249107
v 15.017948 10.251117 0.292508
v 15.342265 9.668305 0.266035
v 14.506520 10.456742 0.163922
v 13.720608 12.056580 0.343902
v 14.802058 11.065019 0.515576
v 15.544872 9.273663 0.249107
v 15.304110 10.362659 0.515576
v 16.966162 8.169352 1.089002
v 16.779213 8.079333 0.676530
v 17.294069 7.769710 1.662045
v 16.456795 9.301999 1.349861
v 18.147821 -5.124737 1.171172
v 18.365467 -4.158179 1.089002
v 16.977539 -8.485927 34.886776
v 5.292236 -16.730453 0.080055
v 3.855423 -16.896282 0.046435
v 4.664966 -16.691771 0.046435
v 5.900591 -16.297308 0.046435
v 0.161675 -16.496420 0.000000
v 3.441356 -16.136160 0.000000
v 1.421863 -17.090601 0.026760
v -8.299348 -15.959182 0.201753
v -7.948409 -16.506420 0.379822
v -11.168095 -14.003458 0.173007
v -7.048881 -16.896414 0.370666
v 16.108377 -5.905086 0.026760
v 16.925621 -1.015135 0.012178
v 17.018808 -5.019301 0.122177
v 16.365089 -6.610090 0.100040
v 16.314238 -6.181870 0.062195
v 17.705383 2.670623 0.173007
v 17.907658 0.000573 0.173007
v 17.480860 1.467188 0.080055
v 17.319380 -5.551386 0.292508
v 16.610458 -6.709195 0.173007
v 16.830423 -5.890717 0.146490
v 17.476547 -4.851111 0.266035
v 17.157022 -6.177112 0.320290
v 15.702632 -9.066936 0.266035
v 15.865673 -9.161081 0.379822
v 16.508528 -7.951545 0.379822
v 16.303530 -6.999797 0.122177
v 16.601074 -7.127546 0.232753
v 16.225359 -9.796361 1.662045
v 17.940725 -4.185133 0.456164
v 17.667549 -3.944521 0.249107
v 16.963406 -8.170638 1.089002
v 17.529039 -6.666092 0.901151
v 16.005014 -9.241540 0.515576
v 16.123196 -9.309780 0.676530
v 13.097777 -13.429559 0.936801
v 14.640172 -11.675861 0.866425
v 12.535200 -14.211065 1.662045
v 14.231008 -12.509471 1.662045
v -13.736645 10.567792 0.046435
v -13.130841 11.312817 0.046435
v -8.052248 17.203802 34.844505
v -4.715728 18.340822 1.551361
v -4.731895 18.117268 0.855053
v -2.649569 18.563635 0.901151
v -9.335436 15.602684 0.292508
v -9.792971 15.261638 0.266035
v -10.090545 15.025880 0.249107
v -10.557438 14.745193 0.266035
v -8.726175 15.607895 0.163922
v -4.608902 17.463198 0.232753
v -9.863087 14.633471 0.100040
v -2.640184 17.243069 0.062195
v -7.214723 17.506559 1.551361
v -5.618790 18.083084 1.551361
v -6.687804 17.410284 0.729610
v -7.099697 17.059759 0.515576
v -7.539927 16.870041 0.515576
v -8.798042 16.528742 0.855053
v -8.408005 16.966818 1.551361
v -10.016320 -15.940310 1.089002
v -11.277753 -15.039278 1.010947
v -11.739020 -14.719332 1.089002
v -11.609678 -14.557140 0.676530
v -12.444116 -14.018207 0.889474
v -17.173885 -5.474554 0.216969
v -16.776949 -6.490626 0.201753
v -17.859947 -4.076921 0.379822
v -36.718639 -0.687128 13.346196
v -14.323783 11.423649 0.379822
v -16.279554 8.687671 0.487323
v 3.884267 -18.551416 1.662045
v 5.977153 -17.789534 0.936801
v 3.727692 -18.422285 1.010947
v 4.075627 -17.861254 0.379822
v 6.694852 -17.056072 0.379822
v 0.916520 -18.895157 1.447483
v -8.333543 -17.023899 1.662045
v -7.890110 -17.233969 1.662045
v -7.334765 -16.917789 0.475499
v -6.857354 -17.117144 0.475499
v -4.076679 -17.863037 0.379822
v -5.546816 -17.112919 0.201753
v -6.148309 -17.574379 0.676530
v -5.241281 -17.997183 0.889474
v -2.108759 -18.706572 1.089002
v -3.214578 -18.466671 0.889474
v -4.774901 -18.181631 1.010947
v -15.724136 -7.290383 0.046435
v -16.507389 -7.949801 0.379822
v -16.351189 -8.443470 0.442276
v -16.137280 -7.771560 0.173007
v -16.387403 -7.421171 0.201753
v -16.265532 -8.688293 0.475499
v -16.015312 -9.140784 0.475499
v -15.851763 -9.346456 0.442276
v -14.351379 -10.844678 0.201753
v -10.807044 -13.550725 0.046435
v -9.221107 -14.674767 0.046435
v -9.732383 -14.341329 0.046435
v 1.010294 -18.296415 0.384444
v 1.267755 -18.405874 0.487323
v 0.751026 -18.434151 0.487323
v 3.984257 -17.460783 0.173007
v -2.598774 -18.226191 0.449821
v -1.941335 -17.221405 0.046435
v -1.346847 -17.098047 0.026760
v -3.856425 -16.897963 0.046435
v -3.231683 -16.846148 0.026760
v -4.478454 -16.355379 0.012178
v -5.507178 -16.433535 0.046435
v -7.216165 -15.756929 0.046435
v 12.328957 -13.288492 0.266035
v 7.881254 -15.438782 0.046435
v 6.704926 -15.984054 0.046435
v 10.438508 -13.832795 0.046435
v 9.583013 -13.431028 0.000000
v 7.951629 -16.508738 0.379822
v 10.320998 -15.137567 0.379822
v 5.487905 -17.791918 0.676530
v 8.130168 -16.879412 0.866425
v -14.323703 -11.422132 0.379822
v -13.572889 -12.481609 0.475499
v -13.785151 -10.503207 0.046435
v -14.867537 -8.907070 0.046435
v -17.239470 -0.000000 0.035499
v 3.579764 16.105076 0.000000
v 13.997066 10.405267 0.062195
v 14.443741 9.253867 0.026760
v 7.209216 16.580805 0.239951
v 12.255153 12.025665 0.028703
v 14.174989 11.191957 0.232753
v 13.766134 11.814881 0.271805
v 16.161118 3.309951 0.000000
v 12.141045 -12.359302 0.046435
v 14.164158 11.868217 0.515576
v 14.096685 12.381979 0.936801
v 13.485476 12.133769 0.271805
v 12.872948 13.256969 0.515576
v 12.279296 13.353762 0.271805
v 6.538502 17.286982 0.515576
v 3.946261 18.053669 0.515576
v 4.841776 17.834658 0.515576
v 3.550039 17.525238 0.163922
v 4.231993 17.373175 0.163922
v 5.041530 17.343418 0.232753
v 18.817999 2.230642 1.662045
v 18.675274 1.400846 0.866425
v 18.430569 -1.381060 0.515576
v 18.270109 -1.369037 0.379822
v 18.015076 4.114192 0.515576
v 17.333996 6.803836 0.676530
v 15.187686 6.457318 0.000000
v 15.790460 7.153709 0.046435
v 16.278410 5.954368 0.046435
v 17.132156 3.777546 0.080055
v 17.132965 2.584282 0.046435
v 16.560658 5.110148 0.046435
v 16.787653 4.298539 0.046435
v 17.057135 6.695164 0.379822
v 16.559877 8.425384 0.619848
v 15.485587 9.643966 0.326642
v 15.620011 8.877322 0.191921
v 14.615201 11.588916 0.729610
v 17.295710 7.290917 0.936801
v 17.565123 7.041691 1.447483
v 17.564409 -4.381794 0.249107
v 17.516388 -4.000188 0.191921
v 17.713146 -2.669962 0.173007
v 14.167739 -9.974968 0.046435
v 13.381102 -11.004544 0.046435
v 13.045181 -11.029312 0.021313
v 12.810452 -11.663260 0.046435
v 6.333148 -16.134596 0.046435
v 0.564084 -17.140270 0.026760
v 3.225139 -16.845222 0.026760
v 2.378154 -16.984608 0.026760
v -8.889788 -16.004492 0.370666
v -11.610293 -13.741812 0.201753
v -12.362057 -13.068810 0.201753
v -6.589115 -17.181566 0.442276
v 16.504919 -4.684459 0.026760
v 16.073435 -6.492296 0.046435
v 16.930704 0.859912 0.012178
v 17.476961 -1.573777 0.080055
v 17.167999 -4.096495 0.100040
v 16.881439 -3.941130 0.046435
v 17.349531 -3.239547 0.100040
v 16.923532 -5.478549 0.134060
v 18.111458 2.731874 0.379822
v 17.035128 -6.591327 0.339543
v 15.699632 -10.614164 1.662045
v 16.496853 -9.265540 1.447483
v 17.318258 -7.150743 0.866425
v 16.420063 -8.943101 0.799680
v 15.379685 -10.486400 0.676530
v 12.736670 -13.727932 0.866425
v -8.802426 16.248943 0.515576
v -10.463264 14.769731 0.249107
v -7.666496 17.313684 1.551361
v -6.958708 17.381512 0.855053
v -9.573381 -16.176138 1.010947
v -9.082040 -16.396036 0.889474
v -8.650697 -16.687313 1.010947
v -12.056319 -14.422725 1.010947
v -17.120255 -6.850503 0.475499
v -17.183060 -6.585044 0.442276
v -17.292185 -6.051573 0.379822
v -36.728653 -0.721364 13.394774
v -10.895679 -15.469627 1.447483
v 5.400253 -17.507742 0.379822
v -0.175680 -18.951054 1.662045
v 0.315583 -18.948984 1.662045
v 0.454458 -18.788179 1.010947
v -8.771454 -16.802513 1.662045
v -8.167419 -16.961239 1.089002
v -7.725858 -17.135170 1.010947
v -8.465466 -16.338223 0.442276
v -8.721850 -16.246136 0.475499
v -11.424244 -14.324631 0.379822
v -10.030362 -14.933408 0.201753
v -4.642799 -17.807690 0.442276
v -6.050108 -17.293678 0.379822
v -6.752825 -17.541998 1.010947
v -7.205097 -17.303303 0.889474
v -8.077423 -16.774343 0.676530
v -16.895195 -7.053624 0.370666
v -15.963901 -8.293228 0.201753
v -10.521613 -13.773445 0.046435
v -11.192344 -13.234132 0.046435
v 1.529995 -18.343853 0.449821
v -2.872768 -18.227901 0.487323
v -1.522943 -18.346016 0.449821
v 0.499012 -18.400703 0.449821
v -0.492238 -18.401434 0.449821
v -0.001785 -18.318117 0.379822
v -0.739024 -18.435450 0.487323
v -2.303033 -16.996943 0.026760
v -5.723239 -16.359364 0.046435
v -4.577479 -16.716978 0.046435
v -5.036430 -15.713182 0.000000
v 8.145952 -15.300759 0.046435
v 7.710782 -15.104827 0.012178
v 11.878444 -12.091957 0.012178
v 8.080695 -16.776699 0.676530
v -13.722891 -11.629855 0.201753
v 7.500126 15.428576 0.026760
v 6.895444 16.022755 0.062195
v 7.945627 15.405808 0.046435
v 14.855828 9.696279 0.122177
v 8.248320 16.151484 0.266035
v 9.620119 15.291001 0.232753
v 8.956038 15.513952 0.173007
v 9.447695 15.016936 0.122177
v 8.380691 15.638078 0.122177
v 8.666487 15.012383 0.046435
v 11.946983 13.025518 0.107179
v 11.432089 13.170450 0.062195
v 10.758285 13.728242 0.062195
v 10.411534 14.081972 0.073867
v 9.507477 14.493182 0.046435
v 9.679990 14.756161 0.100040
v 10.918707 13.253408 0.028703
v 14.504175 11.841423 0.855053
v 13.592513 12.517897 0.515576
v 12.451214 13.193296 0.271805
v 5.401069 17.854044 0.729610
v 5.725191 17.571880 0.515576
v 6.006165 17.252331 0.343902
v 18.566660 -1.391258 0.676530
v 15.619172 7.520764 0.046435
v 17.059887 3.031534 0.046435
v 17.477898 -3.053003 0.122177
v 18.082359 -1.354967 0.266035
v -0.397732 -17.145416 0.026760
v -10.852366 -14.347917 0.201753
v -10.613293 -14.919064 0.370666
v 16.671741 -3.112998 0.012178
v 15.692175 -7.363737 0.046435
v 16.276236 -5.966612 0.046435
v 17.140474 -2.583645 0.046435
v 18.077463 1.356004 0.266035
v 17.312500 -7.331256 1.010947
v 16.221907 -9.366776 0.866425
v 14.551087 -11.604814 0.676530
v -7.975157 16.669153 0.515576
v -8.154827 16.114195 0.232753
v -7.356091 16.582058 0.271805
v -7.140337 16.675972 0.271805
v -6.471768 17.568766 0.855053
v -7.403026 17.239637 0.936801
v -17.539265 -5.593699 0.449821
v 1.507228 -18.733185 1.010947
v -9.199282 -16.533281 1.447483
v -7.542188 -16.784492 0.442276
v -11.072413 -14.699250 0.442276
v -10.890613 -14.881538 0.475499
v -9.181735 -15.468856 0.201753
v -6.321185 -16.137272 0.046435
v 8.200427 -14.320650 0.000000
v 9.377858 -14.576325 0.046435
v 9.175025 -14.261021 0.012178
v -12.664896 -12.664310 0.173007
v -13.641963 -12.209290 0.370666
v 7.295858 15.922656 0.073867
v 14.650627 10.081014 0.134060
v 9.161446 15.869767 0.379822
v 8.105011 16.185148 0.249107
v 9.825125 14.977405 0.173007
v 10.352192 14.763857 0.218695
v 9.230492 14.671696 0.046435
v 8.089800 15.685347 0.100040
v 12.789513 11.854941 0.062195
v 12.917213 12.620857 0.232753
v 9.814180 14.068848 0.026760
v 5.678363 17.843845 0.855053
v 6.136789 17.074533 0.271805
v -10.468719 -15.180896 0.475499
v -9.174376 -15.995200 0.475499
v -9.368856 -15.837981 0.442276
v 17.328699 0.000554 0.046435
v 17.305017 0.878922 0.046435
v 17.190159 2.170274 0.046435
v 17.040333 -3.181816 0.046435
v 17.176613 -2.328124 0.046435
v 17.369949 -7.069545 0.901151
v -7.277300 16.752296 0.343902
v -11.858917 -14.072418 0.442276
v -13.049540 -12.381375 0.201753
v -13.369944 -12.643604 0.442276
v -12.955375 -12.954765 0.379822
v 7.655458 16.393324 0.245423
v 10.612041 14.646959 0.243592
v 10.984012 14.368985 0.243592
v 13.397058 11.164844 0.062195
v 12.108225 12.550271 0.062195
v 13.274748 11.668876 0.107179
v 6.767234 16.748135 0.232753
v 5.736853 17.212440 0.271805
v -9.747735 -15.512868 0.379822
v 17.299824 -1.037577 0.046435
v 7.428617 16.492687 0.243592
v 11.165199 14.218074 0.239951
v -10.230339 -15.296510 0.442276
v 17.316320 -0.691752 0.046435
f 1 2 3
f 4 5 6
f 7 8 9
f 10 11 12
f 13 14 15
f 16 17 18
f 19 2 1
f 20 18 17
f 21 22 23
f 24 25 22
f 26 27 28
f 26 29 30
f 31 23 22
f 31 21 23
f 32 21 31
f 33 5 4
f 34 35 36
f 37 38 39
f 40 41 42
f 43 7 9
f 44 43 9
f 45 46 41
f 47 48 49
f 50 51 52
f 50 52 32
f 53 1 3
f 54 13 15
f 55 16 15
f 56 15 16
f 56 16 18
f 56 54 15
f 57 2 19
f 58 59 60
f 58 60 61
f 58 61 59
f 62 18 20
f 63 18 62
f 63 62 12
f 64 65 66
f 64 14 13
f 67 68 69
f 67 69 70
f 71 26 30
f 71 30 72
f 73 25 24
f 73 24 74
f 73 74 75
f 73 31 22
f 73 22 25
f 76 77 78
f 76 78 79
f 80 21 32
f 80 32 52
f 81 82 83
f 84 85 86
f 84 86 82
f 84 82 81
f 84 87 88
f 84 88 85
f 89 83 82
f 89 82 79
f 89 79 78
f 89 78 77
f 90 82 86
f 90 79 82
f 91 4 6
f 91 71 4
f 92 93 94
f 92 95 96
f 97 98 99
f 100 96 95
f 101 34 102
f 101 102 103
f 104 74 24
f 104 105 106
f 107 108 109
f 110 109 108
f 111 7 43
f 112 113 114
f 112 114 115
f 116 9 8
f 117 116 118
f 119 120 44
f 119 44 9
f 121 43 44
f 122 40 42
f 122 123 41
f 122 41 40
f 124 125 126
f 127 120 128
f 127 128 129
f 130 29 26
f 130 26 28
f 130 30 29
f 131 72 30
f 131 30 132
f 131 4 71
f 131 71 72
f 133 130 134
f 135 136 137
f 135 137 3
f 135 3 2
f 138 139 140
f 138 140 141
f 142 141 140
f 143 144 142
f 143 142 145
f 146 147 148
f 149 146 148
f 150 47 49
f 150 49 151
f 152 48 47
f 153 53 3
f 154 151 49
f 155 156 157
f 155 157 158
f 159 157 156
f 159 156 160
f 161 14 64
f 161 64 66
f 161 162 163
f 164 10 158
f 164 158 157
f 164 163 11
f 164 11 10
f 165 11 163
f 165 163 162
f 165 162 63
f 165 63 12
f 165 12 11
f 166 65 64
f 166 64 13
f 166 13 54
f 166 54 56
f 166 56 18
f 166 18 63
f 166 63 65
f 167 61 60
f 167 60 168
f 167 68 169
f 170 70 69
f 170 69 68
f 171 169 172
f 173 19 1
f 174 175 176
f 177 178 179
f 177 179 180
f 181 68 67
f 181 169 68
f 182 172 183
f 182 183 20
f 182 20 17
f 184 169 183
f 184 183 172
f 184 172 169
f 185 186 187
f 188 189 190
f 191 140 139
f 192 28 27
f 192 193 194
f 192 195 28
f 196 86 85
f 196 85 88
f 197 196 88
f 197 88 87
f 198 77 76
f 198 76 199
f 200 39 198
f 200 198 199
f 200 199 31
f 200 31 73
f 200 73 75
f 200 75 37
f 200 37 39
f 201 32 31
f 201 31 199
f 201 199 76
f 202 50 32
f 202 32 201
f 202 201 76
f 202 6 50
f 203 81 83
f 203 83 204
f 203 3 137
f 205 137 136
f 205 136 84
f 205 84 81
f 205 81 203
f 205 203 137
f 206 89 77
f 207 90 86
f 207 79 90
f 208 94 209
f 210 94 208
f 210 208 209
f 211 93 92
f 211 92 96
f 211 96 93
f 212 98 97
f 213 92 94
f 213 95 92
f 214 212 97
f 214 97 99
f 215 96 100
f 215 100 95
f 216 96 215
f 216 217 93
f 216 93 96
f 218 34 36
f 219 34 101
f 219 35 34
f 220 214 99
f 221 95 213
f 221 222 95
f 223 74 104
f 223 104 106
f 223 106 74
f 224 46 45
f 224 42 41
f 224 41 46
f 225 74 106
f 225 106 126
f 226 153 227
f 228 206 38
f 229 36 35
f 230 231 232
f 233 234 110
f 233 110 108
f 233 235 236
f 233 236 234
f 237 7 111
f 238 239 240
f 238 240 241
f 238 241 242
f 243 112 115
f 244 8 7
f 245 115 114
f 246 8 244
f 247 118 116
f 247 116 8
f 248 116 117
f 248 9 116
f 249 119 9
f 250 121 44
f 251 43 121
f 252 253 45
f 252 254 255
f 252 255 256
f 257 258 255
f 257 255 254
f 259 45 41
f 260 261 259
f 260 259 41
f 260 41 123
f 262 263 125
f 262 123 122
f 264 124 126
f 264 126 106
f 264 106 105
f 265 130 28
f 265 28 195
f 266 267 268
f 266 268 133
f 266 133 134
f 269 30 130
f 269 130 133
f 269 132 30
f 270 87 84
f 270 84 136
f 271 136 135
f 271 135 2
f 272 141 142
f 273 142 140
f 274 275 143
f 274 143 145
f 274 145 275
f 276 143 275
f 277 118 247
f 277 8 278
f 279 280 281
f 279 281 282
f 283 284 59
f 283 59 61
f 283 61 285
f 286 148 287
f 288 14 161
f 289 284 283
f 289 283 48
f 289 48 152
f 289 152 47
f 289 59 284
f 290 291 292
f 293 224 45
f 293 45 253
f 293 253 252
f 294 159 160
f 295 159 296
f 295 296 297
f 295 297 175
f 295 175 298
f 295 298 299
f 295 299 157
f 295 157 159
f 300 1 53
f 301 302 288
f 301 53 302
f 303 162 161
f 303 161 66
f 303 66 65
f 303 65 63
f 303 63 162
f 304 305 301
f 304 161 163
f 306 307 167
f 306 167 168
f 308 307 306
f 308 306 168
f 309 170 68
f 309 68 167
f 310 171 172
f 311 19 173
f 311 173 312
f 313 175 174
f 313 174 312
f 313 312 298
f 313 298 175
f 314 57 19
f 315 176 316
f 317 60 59
f 318 60 317
f 318 317 319
f 318 168 60
f 320 154 258
f 320 258 151
f 320 151 154
f 321 322 323
f 324 325 326
f 327 328 329
f 327 330 331
f 332 333 334
f 335 336 327
f 335 327 331
f 337 338 339
f 340 20 183
f 341 342 343
f 344 183 169
f 344 169 181
f 344 181 67
f 344 67 70
f 344 70 345
f 344 345 343
f 344 343 342
f 344 340 183
f 346 347 348
f 349 350 186
f 351 350 349
f 351 349 347
f 352 350 351
f 352 351 347
f 353 20 354
f 353 354 62
f 353 62 20
f 355 62 354
f 356 110 357
f 358 359 107
f 358 107 109
f 358 109 110
f 360 361 113
f 360 113 112
f 362 189 363
f 362 361 360
f 362 190 189
f 364 242 365
f 366 367 368
f 366 368 369
f 366 346 348
f 370 371 372
f 373 374 375
f 376 195 192
f 376 192 194
f 376 194 195
f 377 71 91
f 377 91 196
f 377 196 197
f 377 26 71
f 378 27 197
f 378 197 87
f 378 87 379
f 378 379 27
f 380 26 377
f 380 377 197
f 380 197 27
f 380 27 26
f 381 79 207
f 381 207 202
f 381 202 76
f 381 76 79
f 382 153 3
f 382 203 204
f 382 204 227
f 382 227 153
f 383 38 206
f 383 206 77
f 383 77 198
f 383 198 39
f 383 39 38
f 384 6 202
f 384 202 207
f 384 207 91
f 384 91 6
f 385 91 207
f 385 207 86
f 385 86 196
f 385 196 91
f 386 210 209
f 387 94 210
f 387 275 145
f 388 217 216
f 388 216 215
f 388 389 217
f 390 215 95
f 390 95 222
f 391 217 389
f 392 217 391
f 392 391 393
f 394 395 396
f 397 314 398
f 399 397 398
f 400 221 213
f 401 263 262
f 401 262 122
f 401 122 42
f 401 225 125
f 401 125 263
f 402 125 225
f 402 225 126
f 402 126 125
f 403 154 49
f 404 226 227
f 405 228 38
f 405 38 37
f 406 401 42
f 406 42 224
f 407 233 108
f 408 107 359
f 408 359 409
f 408 409 407
f 408 407 108
f 408 108 107
f 410 409 359
f 411 316 176
f 411 176 412
f 413 414 236
f 413 236 235
f 415 414 413
f 415 413 235
f 415 235 416
f 415 416 417
f 415 417 414
f 418 236 414
f 419 231 229
f 419 229 35
f 419 35 231
f 420 414 417
f 420 417 421
f 422 175 297
f 423 411 412
f 424 110 234
f 424 234 423
f 424 423 425
f 424 425 357
f 424 357 110
f 426 412 176
f 426 176 175
f 426 175 422
f 426 422 425
f 426 425 423
f 426 423 412
f 427 235 233
f 427 233 428
f 429 111 43
f 430 112 243
f 430 188 190
f 430 190 112
f 431 432 433
f 434 237 435
f 434 436 437
f 434 437 7
f 434 7 237
f 438 437 439
f 438 244 7
f 440 282 281
f 441 278 8
f 441 8 246
f 441 246 440
f 441 440 281
f 441 281 278
f 442 334 117
f 442 117 443
f 444 443 117
f 444 117 445
f 444 445 368
f 444 368 443
f 446 334 9
f 446 9 248
f 446 248 117
f 446 117 334
f 447 334 333
f 447 333 249
f 447 249 9
f 447 9 334
f 448 250 44
f 449 251 121
f 449 121 450
f 451 43 251
f 452 451 251
f 453 254 252
f 453 252 45
f 453 45 454
f 455 454 456
f 457 456 454
f 457 454 45
f 457 45 259
f 457 259 261
f 457 261 458
f 457 458 456
f 459 460 461
f 459 461 462
f 459 462 463
f 464 465 466
f 467 123 262
f 467 262 468
f 467 469 465
f 470 468 262
f 470 262 125
f 470 125 124
f 470 124 462
f 470 462 461
f 470 461 468
f 471 264 105
f 471 105 472
f 473 474 475
f 473 475 476
f 473 476 477
f 473 477 478
f 479 129 478
f 479 478 480
f 479 127 129
f 481 480 478
f 482 460 459
f 483 5 33
f 483 33 4
f 483 4 131
f 484 131 132
f 485 51 50
f 485 50 6
f 485 6 486
f 487 21 80
f 487 80 52
f 488 194 489
f 488 490 195
f 488 195 194
f 491 492 490
f 491 490 488
f 493 195 490
f 493 490 492
f 493 492 134
f 493 134 130
f 493 130 265
f 493 265 195
f 494 134 492
f 494 267 266
f 494 266 134
f 495 99 98
f 495 98 496
f 495 375 374
f 497 270 374
f 497 374 373
f 498 271 2
f 498 2 57
f 499 500 501
f 502 139 138
f 502 138 141
f 503 193 191
f 503 504 505
f 503 505 506
f 503 506 489
f 503 489 194
f 507 272 144
f 508 144 272
f 508 272 142
f 508 142 144
f 509 375 495
f 509 495 496
f 509 510 375
f 511 145 142
f 511 142 273
f 512 280 513
f 512 513 277
f 512 277 278
f 512 278 281
f 512 281 280
f 514 8 277
f 514 277 247
f 514 247 8
f 515 241 516
f 515 516 279
f 515 279 282
f 515 282 365
f 515 365 242
f 515 242 241
f 517 445 117
f 517 369 368
f 517 368 445
f 518 519 48
f 518 48 283
f 518 283 285
f 520 521 147
f 522 147 521
f 522 148 147
f 523 53 153
f 524 523 525
f 524 525 526
f 524 526 288
f 524 288 302
f 527 172 182
f 528 172 527
f 528 527 182
f 528 182 17
f 528 17 16
f 528 16 55
f 528 55 286
f 529 148 286
f 529 286 55
f 529 55 15
f 529 15 14
f 529 14 288
f 529 288 526
f 530 519 518
f 530 147 146
f 531 532 151
f 531 151 258
f 531 258 257
f 531 257 533
f 534 292 339
f 534 179 178
f 535 339 292
f 535 292 291
f 535 291 532
f 536 59 289
f 536 289 537
f 538 291 290
f 538 47 150
f 538 150 151
f 538 151 532
f 538 532 291
f 539 178 177
f 540 406 224
f 540 224 293
f 541 256 255
f 541 255 258
f 541 258 154
f 541 154 403
f 541 293 252
f 541 252 256
f 542 299 298
f 543 300 53
f 543 53 301
f 543 301 305
f 543 305 300
f 544 161 304
f 544 304 301
f 544 301 288
f 544 288 161
f 545 70 170
f 545 170 309
f 545 308 168
f 545 168 70
f 546 148 522
f 546 310 287
f 546 287 148
f 547 287 310
f 547 310 172
f 547 172 528
f 547 528 286
f 547 286 287
f 548 549 315
f 548 315 316
f 550 551 19
f 550 19 311
f 550 311 312
f 550 312 174
f 552 399 398
f 552 398 551
f 552 551 550
f 552 550 174
f 552 174 176
f 552 176 315
f 553 314 19
f 553 19 551
f 553 551 398
f 553 398 314
f 554 330 327
f 554 327 329
f 554 180 330
f 555 328 556
f 557 321 533
f 557 533 257
f 558 478 129
f 559 478 558
f 559 558 324
f 559 324 326
f 560 338 475
f 560 475 561
f 560 561 331
f 560 331 330
f 562 332 334
f 562 334 442
f 562 442 563
f 564 333 332
f 565 336 335
f 565 335 325
f 566 567 568
f 566 568 128
f 566 128 120
f 566 120 119
f 569 567 566
f 569 566 249
f 569 249 333
f 569 570 571
f 569 571 567
f 572 475 338
f 572 338 337
f 572 337 573
f 574 323 337
f 574 337 339
f 574 339 321
f 574 321 323
f 575 340 344
f 575 344 342
f 576 185 187
f 576 187 340
f 576 340 577
f 578 579 340
f 578 340 187
f 578 187 186
f 578 186 350
f 580 581 370
f 580 370 372
f 582 347 349
f 582 349 186
f 582 186 583
f 584 355 354
f 585 586 357
f 585 297 296
f 587 356 357
f 587 358 110
f 587 110 356
f 588 340 579
f 588 579 578
f 588 362 363
f 588 363 584
f 589 362 360
f 589 360 112
f 590 365 282
f 590 282 440
f 591 113 361
f 592 593 594
f 592 594 595
f 592 595 364
f 592 364 365
f 596 188 430
f 597 432 598
f 597 598 599
f 600 140 191
f 601 192 27
f 601 27 379
f 602 87 270
f 602 270 497
f 602 497 379
f 602 379 87
f 603 203 382
f 603 382 3
f 603 3 203
f 604 210 386
f 604 275 210
f 605 275 387
f 605 387 210
f 605 210 275
f 606 212 213
f 606 213 94
f 607 389 388
f 607 388 215
f 607 215 390
f 608 609 390
f 608 390 222
f 608 222 609
f 610 218 36
f 610 36 611
f 610 102 34
f 610 34 218
f 612 611 36
f 612 36 229
f 613 394 219
f 613 219 101
f 614 219 394
f 614 394 396
f 615 314 397
f 615 397 616
f 615 616 57
f 615 57 314
f 617 616 397
f 618 399 552
f 618 552 315
f 618 315 549
f 618 549 396
f 618 396 395
f 618 395 619
f 618 619 220
f 620 397 399
f 620 399 618
f 620 618 220
f 620 220 99
f 620 99 617
f 620 617 397
f 621 400 213
f 621 213 212
f 621 212 214
f 622 220 619
f 622 400 621
f 622 621 214
f 622 214 220
f 623 222 221
f 623 394 613
f 623 613 101
f 623 101 222
f 624 404 227
f 624 227 204
f 624 204 83
f 624 83 89
f 624 89 206
f 625 228 626
f 625 404 624
f 625 624 206
f 625 206 228
f 627 148 529
f 627 529 526
f 627 526 525
f 628 75 74
f 628 74 225
f 628 225 401
f 628 405 37
f 628 37 75
f 629 630 631
f 632 428 233
f 632 233 407
f 633 235 427
f 633 427 428
f 634 410 359
f 635 418 230
f 635 230 232
f 635 232 231
f 635 231 35
f 636 418 635
f 636 635 637
f 638 414 420
f 639 231 230
f 640 425 422
f 640 422 297
f 640 297 585
f 640 585 357
f 640 357 425
f 641 236 418
f 641 418 636
f 641 423 234
f 641 234 236
f 642 597 599
f 643 644 43
f 645 646 647
f 648 433 596
f 648 596 430
f 648 430 243
f 648 243 433
f 649 598 436
f 649 436 434
f 649 434 435
f 650 111 429
f 651 435 237
f 651 237 111
f 652 243 115
f 652 653 431
f 652 431 433
f 652 433 243
f 654 438 7
f 654 7 437
f 655 246 244
f 655 244 656
f 655 440 246
f 657 245 590
f 657 590 440
f 657 440 655
f 657 655 656
f 658 438 439
f 658 656 244
f 658 244 438
f 659 448 44
f 660 250 448
f 661 121 250
f 662 452 251
f 663 451 452
f 664 453 454
f 664 454 455
f 664 455 665
f 664 665 254
f 664 254 453
f 666 667 458
f 666 458 261
f 666 668 667
f 669 124 264
f 669 463 462
f 669 462 124
f 670 671 459
f 670 459 463
f 672 668 666
f 672 666 261
f 672 261 260
f 673 466 465
f 673 465 469
f 673 469 460
f 674 461 460
f 674 460 469
f 674 469 467
f 674 467 468
f 674 468 461
f 675 464 466
f 676 668 672
f 676 672 260
f 676 260 123
f 676 123 467
f 677 264 471
f 678 477 476
f 679 460 482
f 679 466 673
f 679 673 460
f 680 483 131
f 680 131 484
f 681 133 268
f 681 268 484
f 681 484 132
f 681 132 269
f 681 269 133
f 682 683 268
f 682 268 267
f 684 5 483
f 684 483 680
f 684 680 685
f 686 687 688
f 689 688 687
f 689 684 685
f 689 685 688
f 690 691 692
f 693 694 695
f 696 21 487
f 697 698 699
f 697 699 489
f 697 489 506
f 700 701 491
f 700 491 488
f 700 488 489
f 700 489 699
f 702 492 491
f 702 491 701
f 703 495 374
f 703 374 270
f 703 270 136
f 703 136 271
f 704 600 191
f 704 191 193
f 704 193 192
f 704 192 601
f 704 601 379
f 705 706 707
f 708 449 450
f 708 709 710
f 708 710 251
f 708 251 449
f 711 712 713
f 714 500 499
f 714 499 713
f 715 193 503
f 715 503 194
f 715 194 193
f 716 504 503
f 716 503 191
f 716 191 139
f 716 139 504
f 717 718 719
f 717 719 720
f 721 720 719
f 721 719 722
f 723 719 718
f 724 725 501
f 724 501 500
f 726 727 728
f 726 729 730
f 731 386 209
f 731 209 732
f 733 141 272
f 733 272 507
f 733 507 734
f 733 502 141
f 735 273 510
f 735 510 509
f 735 509 496
f 736 98 212
f 736 496 98
f 737 738 739
f 737 739 740
f 741 742 738
f 741 738 743
f 741 743 276
f 744 279 516
f 744 513 280
f 744 280 279
f 745 746 747
f 745 747 516
f 745 516 241
f 745 241 240
f 745 240 746
f 748 369 517
f 748 517 117
f 748 117 118
f 749 546 522
f 749 522 521
f 750 525 523
f 750 523 153
f 750 153 226
f 751 53 523
f 751 523 524
f 751 524 302
f 751 302 53
f 752 149 753
f 752 753 754
f 752 754 403
f 752 519 530
f 752 530 146
f 752 146 149
f 755 147 530
f 755 530 518
f 755 518 285
f 755 285 520
f 755 520 147
f 756 292 534
f 756 534 178
f 756 178 539
f 756 539 290
f 756 290 292
f 757 531 533
f 757 533 321
f 757 321 339
f 757 339 535
f 757 535 532
f 757 532 531
f 758 759 537
f 760 47 538
f 760 538 290
f 760 290 758
f 760 758 537
f 760 537 289
f 760 289 47
f 761 759 762
f 761 536 537
f 761 537 759
f 763 759 758
f 763 758 290
f 763 290 539
f 764 540 293
f 764 293 541
f 765 160 156
f 765 156 155
f 765 12 766
f 765 766 294
f 765 294 160
f 767 766 12
f 767 12 62
f 767 62 355
f 768 1 542
f 768 173 1
f 769 173 768
f 769 768 542
f 769 542 298
f 769 298 312
f 769 312 173
f 770 542 1
f 770 1 300
f 770 300 305
f 771 308 545
f 771 545 309
f 771 309 167
f 772 548 316
f 772 636 637
f 773 554 329
f 774 180 554
f 775 442 443
f 775 443 368
f 775 563 442
f 776 332 562
f 776 562 563
f 777 564 778
f 779 557 257
f 779 257 254
f 780 558 129
f 780 129 128
f 780 128 568
f 780 568 324
f 780 324 558
f 781 568 567
f 782 474 473
f 782 473 478
f 782 478 559
f 782 559 561
f 783 325 335
f 783 335 331
f 783 331 561
f 783 561 559
f 783 559 326
f 783 326 325
f 784 338 560
f 784 179 534
f 784 534 339
f 784 339 338
f 785 180 179
f 785 179 784
f 785 784 560
f 785 560 330
f 785 330 180
f 786 565 325
f 786 325 324
f 786 324 568
f 786 568 781
f 787 249 566
f 787 566 119
f 787 119 249
f 788 570 569
f 788 569 333
f 788 777 570
f 789 340 575
f 789 577 340
f 790 70 168
f 790 168 318
f 790 345 70
f 791 345 790
f 791 792 343
f 791 343 345
f 793 341 343
f 793 343 792
f 794 581 580
f 794 341 581
f 795 576 577
f 795 794 580
f 796 185 576
f 796 576 795
f 796 795 580
f 796 580 372
f 796 372 797
f 796 186 185
f 798 186 796
f 798 796 797
f 798 797 799
f 798 799 583
f 798 583 186
f 800 371 799
f 800 799 797
f 800 797 372
f 800 372 371
f 801 802 747
f 801 747 746
f 803 363 189
f 804 296 159
f 804 159 294
f 804 294 766
f 804 766 805
f 804 805 585
f 804 585 296
f 806 586 585
f 806 585 805
f 806 587 357
f 806 357 586
f 807 766 767
f 807 355 584
f 807 587 806
f 807 806 805
f 807 805 766
f 808 595 594
f 809 350 588
f 809 588 578
f 809 578 350
f 810 354 20
f 810 20 340
f 810 340 588
f 810 588 584
f 810 584 354
f 811 812 588
f 811 588 350
f 811 801 812
f 813 238 814
f 813 815 595
f 813 595 808
f 813 808 594
f 813 594 362
f 813 362 588
f 813 239 238
f 816 746 240
f 817 362 589
f 817 589 112
f 817 112 190
f 817 190 362
f 818 593 591
f 818 591 361
f 818 361 362
f 818 362 594
f 818 594 593
f 819 590 245
f 819 245 114
f 819 114 113
f 819 113 591
f 819 591 593
f 819 593 592
f 819 592 365
f 819 365 590
f 820 432 597
f 820 596 433
f 820 433 432
f 821 189 188
f 821 188 596
f 822 347 582
f 822 582 583
f 822 583 799
f 822 348 347
f 823 799 371
f 824 140 600
f 824 510 273
f 824 273 140
f 825 728 727
f 825 826 728
f 827 392 393
f 827 393 732
f 827 93 217
f 827 217 392
f 828 93 827
f 828 827 732
f 828 732 209
f 828 209 94
f 828 94 93
f 829 389 607
f 830 102 831
f 830 609 222
f 830 222 101
f 830 101 103
f 830 103 102
f 832 833 831
f 832 831 102
f 832 102 610
f 832 610 611
f 834 647 835
f 836 833 832
f 836 832 611
f 837 231 639
f 837 639 838
f 837 838 839
f 837 839 612
f 837 612 229
f 837 229 231
f 840 35 219
f 840 637 635
f 840 635 35
f 841 549 548
f 841 548 772
f 841 772 637
f 841 637 840
f 841 840 219
f 841 219 614
f 841 614 396
f 841 396 549
f 842 271 498
f 842 498 57
f 843 616 617
f 843 271 842
f 843 842 57
f 843 57 616
f 844 400 622
f 844 622 619
f 844 619 395
f 844 395 394
f 844 394 623
f 844 623 221
f 844 221 400
f 845 403 754
f 845 754 753
f 845 753 846
f 847 148 627
f 847 627 525
f 847 404 625
f 848 846 753
f 848 753 149
f 848 149 148
f 848 148 847
f 848 847 625
f 848 625 626
f 848 626 631
f 849 626 228
f 849 228 405
f 849 405 628
f 849 406 629
f 849 629 631
f 849 631 626
f 850 630 629
f 850 629 406
f 850 406 540
f 851 410 235
f 851 235 633
f 851 633 428
f 851 428 632
f 852 359 358
f 852 358 853
f 854 416 235
f 854 235 410
f 854 410 634
f 855 418 414
f 855 414 638
f 855 638 230
f 855 230 418
f 856 421 417
f 856 417 416
f 857 638 420
f 857 230 638
f 858 641 636
f 858 636 772
f 858 772 316
f 859 860 642
f 861 597 642
f 861 820 597
f 862 863 864
f 862 860 863
f 865 43 644
f 866 867 865
f 866 864 863
f 866 863 868
f 869 43 451
f 870 871 872
f 873 874 875
f 876 877 873
f 878 877 876
f 878 876 879
f 880 879 881
f 882 883 884
f 885 877 878
f 886 887 883
f 886 883 882
f 886 882 888
f 889 890 891
f 889 891 892
f 893 892 891
f 893 706 705
f 894 391 389
f 895 896 726
f 895 726 730
f 895 501 725
f 895 725 896
f 897 872 871
f 898 899 900
f 901 363 902
f 901 902 903
f 901 903 904
f 901 904 900
f 901 900 363
f 905 598 649
f 905 649 435
f 905 599 598
f 906 863 860
f 907 43 865
f 907 865 867
f 907 867 650
f 907 650 429
f 907 429 43
f 908 868 650
f 908 650 867
f 908 867 866
f 908 866 868
f 909 653 652
f 909 652 115
f 909 115 245
f 910 437 436
f 911 438 654
f 911 654 437
f 911 437 438
f 912 657 656
f 912 656 658
f 912 658 439
f 913 448 659
f 914 915 916
f 914 481 915
f 917 659 44
f 917 44 120
f 917 120 127
f 918 661 250
f 919 121 661
f 920 921 892
f 922 452 662
f 922 923 452
f 924 662 251
f 925 482 459
f 925 459 671
f 925 671 926
f 927 925 926
f 927 926 928
f 929 930 931
f 929 22 21
f 929 21 696
f 929 696 930
f 932 24 22
f 932 22 929
f 933 105 104
f 933 104 24
f 933 24 934
f 935 936 934
f 937 471 472
f 937 472 936
f 937 938 463
f 937 677 471
f 939 671 670
f 939 670 463
f 939 463 938
f 940 667 464
f 940 464 675
f 940 458 667
f 941 942 675
f 941 675 466
f 941 466 679
f 941 679 482
f 943 465 464
f 943 464 667
f 943 667 668
f 943 668 676
f 943 676 467
f 943 467 465
f 944 669 264
f 944 264 677
f 944 677 937
f 944 937 463
f 944 463 669
f 945 678 476
f 945 476 475
f 945 475 572
f 945 572 573
f 946 458 940
f 946 456 458
f 947 948 455
f 947 455 456
f 947 456 949
f 950 916 915
f 950 951 916
f 952 953 954
f 952 954 688
f 952 688 685
f 955 267 494
f 956 268 683
f 956 683 957
f 956 958 268
f 959 691 690
f 960 961 485
f 960 485 486
f 960 486 6
f 960 6 5
f 962 963 695
f 962 695 686
f 962 686 688
f 962 688 954
f 962 954 964
f 962 964 963
f 965 686 695
f 965 695 694
f 965 694 961
f 965 687 686
f 966 690 692
f 966 692 967
f 968 969 935
f 970 971 972
f 970 972 973
f 974 485 961
f 974 961 694
f 974 694 693
f 974 693 52
f 974 52 51
f 974 51 485
f 975 695 976
f 975 976 977
f 978 930 696
f 978 696 487
f 979 971 968
f 979 968 931
f 979 980 981
f 979 981 972
f 979 972 971
f 982 698 697
f 982 697 506
f 982 506 505
f 983 700 699
f 984 494 492
f 984 492 702
f 984 985 494
f 986 704 379
f 986 379 497
f 987 499 921
f 988 663 452
f 989 990 884
f 989 884 883
f 991 883 887
f 992 708 450
f 993 709 712
f 993 712 711
f 993 711 710
f 993 710 709
f 994 712 995
f 994 714 713
f 994 713 712
f 996 709 708
f 996 708 992
f 996 712 709
f 997 505 504
f 997 504 139
f 997 998 999
f 997 999 982
f 997 982 505
f 1000 740 1001
f 1002 718 717
f 1002 717 983
f 1002 983 699
f 1003 720 721
f 1003 1004 985
f 1005 739 738
f 1005 738 725
f 1006 738 742
f 1006 742 727
f 1007 724 500
f 1007 500 714
f 1008 740 739
f 1009 727 726
f 1009 726 896
f 1009 1006 727
f 1010 604 386
f 1010 386 731
f 1010 731 727
f 1011 511 273
f 1011 273 735
f 1011 735 496
f 1011 496 736
f 1012 606 94
f 1012 94 387
f 1012 387 145
f 1012 145 511
f 1012 511 1011
f 1012 1011 736
f 1012 736 212
f 1012 212 606
f 1013 734 507
f 1013 737 740
f 1013 740 734
f 1014 144 143
f 1014 143 276
f 1014 276 743
f 1014 507 144
f 1015 723 1016
f 1017 747 802
f 1017 802 346
f 1017 346 366
f 1017 366 369
f 1017 369 744
f 1017 744 516
f 1017 516 747
f 1018 744 369
f 1019 520 285
f 1019 171 310
f 1019 310 546
f 1019 546 749
f 1019 749 521
f 1019 521 520
f 1020 49 48
f 1020 48 519
f 1020 519 752
f 1020 752 403
f 1020 403 49
f 1021 761 762
f 1022 158 10
f 1022 10 12
f 1022 12 765
f 1022 765 155
f 1022 155 158
f 1023 299 542
f 1023 542 770
f 1023 770 305
f 1023 305 304
f 1023 304 163
f 1023 163 164
f 1023 164 157
f 1023 157 299
f 1024 308 771
f 1024 771 167
f 1024 167 307
f 1024 307 308
f 1025 1026 1021
f 1027 1028 773
f 1027 773 329
f 1027 329 328
f 1027 328 1028
f 1029 177 180
f 1029 180 774
f 1029 774 759
f 1029 759 763
f 1030 762 759
f 1030 759 774
f 1030 774 554
f 1030 554 773
f 1031 371 370
f 1031 370 581
f 1032 1033 1034
f 1032 778 776
f 1032 776 1033
f 1035 555 556
f 1035 777 778
f 1036 367 1034
f 1036 775 368
f 1036 368 367
f 1037 564 332
f 1037 332 776
f 1037 776 778
f 1037 778 564
f 1038 455 948
f 1038 948 322
f 1038 322 321
f 1038 321 557
f 1038 557 779
f 1039 665 455
f 1039 455 1038
f 1039 1038 779
f 1039 779 254
f 1039 254 665
f 1040 781 567
f 1040 567 571
f 1041 474 782
f 1041 475 474
f 1042 475 1041
f 1042 1041 782
f 1042 782 561
f 1042 561 475
f 1043 565 786
f 1043 786 570
f 1043 570 777
f 1043 777 336
f 1043 336 565
f 1044 564 777
f 1044 777 788
f 1044 788 333
f 1044 333 564
f 1045 1021 1026
f 1046 792 1047
f 1048 790 318
f 1049 342 341
f 1049 341 794
f 1050 789 575
f 1050 575 342
f 1050 342 1049
f 1050 1049 794
f 1050 794 795
f 1050 795 577
f 1050 577 789
f 1051 899 1052
f 1051 1052 1053
f 1051 1053 1054
f 1055 1056 1057
f 1058 1059 803
f 1060 803 189
f 1061 355 807
f 1061 807 767
f 1061 767 355
f 1062 587 807
f 1062 807 584
f 1062 584 363
f 1062 363 1063
f 1062 358 587
f 1064 363 900
f 1065 238 242
f 1065 242 364
f 1065 364 595
f 1065 595 815
f 1065 815 813
f 1065 813 814
f 1065 814 238
f 1066 801 811
f 1066 811 350
f 1066 350 352
f 1067 588 816
f 1067 816 240
f 1068 812 801
f 1068 801 746
f 1068 746 816
f 1068 816 588
f 1068 588 812
f 1069 821 596
f 1069 596 820
f 1069 820 1070
f 1071 366 348
f 1071 348 822
f 1071 822 799
f 1071 799 823
f 1071 823 367
f 1071 367 366
f 1072 731 732
f 1072 732 393
f 1072 393 825
f 1072 825 727
f 1072 727 731
f 1073 1074 829
f 1073 829 607
f 1073 607 390
f 1073 390 609
f 1075 389 829
f 1075 829 1074
f 1075 1074 1076
f 1075 1076 1077
f 1078 1079 647
f 1078 647 646
f 1080 646 1081
f 1082 831 833
f 1082 833 1083
f 1084 836 611
f 1085 1079 1083
f 1085 1083 833
f 1085 833 836
f 1086 1087 1088
f 1086 1088 834
f 1089 1087 1086
f 1089 1086 834
f 1090 839 838
f 1090 1087 1089
f 1090 1089 1091
f 1092 495 703
f 1092 703 271
f 1092 271 843
f 1092 843 617
f 1092 617 99
f 1092 99 495
f 1093 403 845
f 1093 845 764
f 1093 764 541
f 1093 541 403
f 1094 226 404
f 1094 404 847
f 1094 847 525
f 1094 525 750
f 1094 750 226
f 1095 630 1096
f 1095 1096 846
f 1095 846 848
f 1095 848 631
f 1095 631 630
f 1097 401 406
f 1097 406 849
f 1097 849 628
f 1097 628 401
f 1098 764 845
f 1098 845 846
f 1098 846 1096
f 1098 1096 630
f 1098 630 850
f 1098 850 540
f 1098 540 764
f 1099 409 410
f 1099 410 851
f 1099 851 632
f 1099 632 407
f 1099 407 409
f 1100 856 416
f 1101 634 359
f 1101 359 852
f 1101 852 853
f 1102 1103 1104
f 1102 1104 1105
f 1106 1107 1108
f 1109 1110 1111
f 1112 421 856
f 1113 1108 1107
f 1113 1107 857
f 1113 857 420
f 1113 420 421
f 1114 639 230
f 1114 230 857
f 1114 857 1107
f 1114 838 639
f 1115 411 423
f 1115 423 641
f 1115 641 858
f 1115 858 316
f 1115 316 411
f 1116 599 905
f 1116 905 435
f 1116 642 599
f 1117 435 651
f 1117 651 111
f 1117 111 650
f 1118 902 363
f 1118 903 902
f 1119 903 1118
f 1119 1120 1121
f 1122 903 1119
f 1122 1119 1121
f 1122 1121 862
f 1122 862 864
f 1123 866 865
f 1123 865 644
f 1124 1125 884
f 1126 43 869
f 1126 869 643
f 1126 643 43
f 1127 871 870
f 1127 1128 876
f 1129 645 647
f 1129 870 872
f 1129 872 645
f 1130 871 1127
f 1130 1127 876
f 1130 876 873
f 1130 873 875
f 1130 897 871
f 1131 874 873
f 1131 873 877
f 1132 879 876
f 1132 876 1128
f 1132 881 879
f 1133 1109 1111
f 1134 879 880
f 1134 880 1133
f 1134 1133 1135
f 1134 1135 878
f 1134 878 879
f 1136 834 1088
f 1137 643 869
f 1137 869 451
f 1137 451 1138
f 1137 1125 1124
f 1137 1124 643
f 1139 451 663
f 1140 1125 1137
f 1140 882 884
f 1140 884 1125
f 1141 1135 1142
f 1141 1142 886
f 1141 886 888
f 1141 888 885
f 1141 885 878
f 1141 878 1135
f 1143 730 890
f 1143 890 889
f 1144 921 499
f 1144 1143 889
f 1144 889 892
f 1144 892 921
f 1145 892 893
f 1146 1147 729
f 1146 729 726
f 1146 726 728
f 1146 728 826
f 1148 393 1147
f 1148 1147 1146
f 1148 1146 826
f 1148 826 825
f 1148 825 393
f 1149 891 1150
f 1149 1150 706
f 1149 706 893
f 1149 893 891
f 1151 729 1147
f 1151 1147 1152
f 1151 1150 891
f 1151 891 890
f 1153 894 389
f 1154 1147 393
f 1154 393 391
f 1155 645 872
f 1155 872 1081
f 1155 1081 646
f 1155 646 645
f 1156 898 900
f 1156 900 904
f 1157 863 906
f 1157 906 650
f 1158 859 1117
f 1158 860 859
f 1159 653 909
f 1159 909 439
f 1159 439 437
f 1160 657 912
f 1160 912 439
f 1160 439 909
f 1160 909 245
f 1160 245 657
f 1161 598 432
f 1161 432 431
f 1161 431 653
f 1161 910 436
f 1161 436 598
f 1162 659 914
f 1162 914 916
f 1162 916 951
f 1163 917 127
f 1163 127 479
f 1163 479 480
f 1163 480 481
f 1163 481 914
f 1164 1165 1166
f 1164 1166 1167
f 1168 448 1169
f 1168 1169 660
f 1168 660 448
f 1170 913 659
f 1170 659 1162
f 1170 1169 448
f 1170 448 913
f 1171 1166 1165
f 1172 1173 1174
f 1172 1174 250
f 1172 250 660
f 1175 918 250
f 1175 250 1174
f 1176 661 918
f 1177 121 919
f 1177 450 121
f 1178 921 920
f 1179 924 251
f 1179 251 710
f 1180 928 1181
f 1182 926 671
f 1182 671 1181
f 1182 1181 928
f 1182 928 926
f 1183 1184 927
f 1183 927 928
f 1185 936 472
f 1185 472 105
f 1185 105 933
f 1185 933 934
f 1185 934 936
f 1186 931 968
f 1186 968 935
f 1186 932 929
f 1186 929 931
f 1187 932 1186
f 1187 1186 935
f 1187 935 934
f 1187 934 24
f 1187 24 932
f 1188 1181 671
f 1188 671 939
f 1188 939 938
f 1188 938 937
f 1188 937 936
f 1188 936 1189
f 1190 940 675
f 1190 675 942
f 1191 477 678
f 1191 678 945
f 1191 945 1192
f 1193 1192 945
f 1193 945 573
f 1193 573 337
f 1193 337 323
f 1193 323 322
f 1193 322 948
f 1193 948 1192
f 1194 950 915
f 1194 915 481
f 1194 481 478
f 1195 958 952
f 1195 484 268
f 1195 268 958
f 1196 957 953
f 1196 953 952
f 1196 952 958
f 1197 985 1004
f 1197 1004 1198
f 1197 955 494
f 1197 494 985
f 1199 682 267
f 1199 267 955
f 1200 953 957
f 1200 957 683
f 1200 683 1201
f 1202 687 965
f 1202 965 961
f 1202 961 960
f 1202 960 5
f 1202 5 684
f 1202 684 689
f 1202 689 687
f 1203 964 954
f 1203 954 953
f 1203 963 964
f 1204 963 1203
f 1204 690 1205
f 1204 976 695
f 1204 695 963
f 1206 1207 918
f 1206 1175 1174
f 1208 1166 1171
f 1208 1171 967
f 1208 967 692
f 1209 966 967
f 1209 967 1171
f 1210 966 1209
f 1210 1209 1211
f 1210 1211 973
f 1212 1213 1214
f 1212 1215 1216
f 1217 1214 1213
f 1218 968 971
f 1218 971 970
f 1218 1212 1216
f 1219 981 980
f 1219 980 978
f 1219 1220 981
f 1221 1219 978
f 1221 978 487
f 1221 487 52
f 1221 52 693
f 1222 980 979
f 1222 979 931
f 1222 931 930
f 1222 930 978
f 1222 978 980
f 1223 700 983
f 1223 983 717
f 1223 717 720
f 1223 702 701
f 1223 701 700
f 1224 985 984
f 1224 984 702
f 1224 702 1223
f 1224 1223 720
f 1224 720 1003
f 1224 1003 985
f 1225 373 375
f 1225 375 510
f 1225 510 824
f 1225 824 600
f 1225 600 704
f 1225 704 986
f 1225 986 497
f 1225 497 373
f 1226 893 705
f 1227 1228 1226
f 1227 1226 875
f 1227 875 874
f 1229 1226 1228
f 1229 1228 923
f 1230 663 988
f 1231 923 988
f 1231 988 452
f 1231 452 923
f 1232 1230 988
f 1233 989 883
f 1233 883 991
f 1233 991 1234
f 1235 1123 990
f 1235 990 989
f 1236 1234 991
f 1236 991 887
f 1237 992 450
f 1238 919 661
f 1239 1240 1241
f 1242 1243 1244
f 1242 692 691
f 1245 1246 1247
f 1245 1247 1248
f 1245 1248 722
f 1245 722 719
f 1245 719 1249
f 1250 1251 1007
f 1250 1007 714
f 1250 714 994
f 1250 994 995
f 1250 1252 1251
f 1253 1240 1247
f 1253 1247 1246
f 1253 1246 995
f 1253 995 712
f 1253 712 996
f 1253 996 1240
f 1254 1252 1250
f 1254 1250 995
f 1254 995 1246
f 1254 1246 1245
f 1254 1245 1249
f 1255 740 1000
f 1255 997 139
f 1255 139 502
f 1256 1004 1003
f 1256 1003 721
f 1256 721 722
f 1256 722 1257
f 1256 1257 1198
f 1256 1198 1004
f 1258 999 998
f 1259 718 1002
f 1259 1002 699
f 1259 699 698
f 1260 1251 1252
f 1260 1252 1015
f 1260 1015 1016
f 1260 1007 1251
f 1261 1260 1016
f 1262 725 738
f 1262 738 1006
f 1262 896 725
f 1263 1008 739
f 1263 739 1005
f 1264 742 741
f 1264 741 276
f 1264 276 275
f 1264 275 604
f 1264 604 1010
f 1264 1010 727
f 1264 727 742
f 1265 737 1013
f 1265 1013 507
f 1265 507 1014
f 1265 1014 743
f 1265 743 738
f 1265 738 737
f 1266 744 1018
f 1266 1018 118
f 1266 118 277
f 1266 277 513
f 1266 513 744
f 1267 748 118
f 1267 118 1018
f 1267 1018 369
f 1267 369 748
f 1268 167 169
f 1268 169 171
f 1268 171 1019
f 1268 1019 285
f 1268 285 61
f 1268 61 167
f 1269 536 761
f 1269 761 1021
f 1270 762 1030
f 1270 1030 773
f 1270 773 1025
f 1270 1025 1021
f 1270 1021 762
f 1271 539 177
f 1271 177 1029
f 1271 1029 763
f 1271 763 539
f 1272 1273 1031
f 1272 1031 581
f 1274 1031 1273
f 1274 1273 1034
f 1275 823 371
f 1275 371 1031
f 1275 1031 1274
f 1276 1032 1034
f 1276 1034 1273
f 1276 1273 1272
f 1276 778 1032
f 1277 777 1035
f 1277 1035 556
f 1277 556 328
f 1277 328 327
f 1277 327 336
f 1277 336 777
f 1278 1033 776
f 1278 776 563
f 1278 563 775
f 1278 775 1036
f 1278 1036 1034
f 1278 1034 1033
f 1279 786 781
f 1279 781 1040
f 1279 1040 571
f 1279 571 570
f 1279 570 786
f 1280 318 319
f 1280 319 1045
f 1280 1045 1047
f 1281 1021 1045
f 1281 1045 319
f 1281 319 317
f 1281 317 59
f 1281 59 536
f 1281 536 1269
f 1281 1269 1021
f 1282 1025 773
f 1282 773 1028
f 1282 1028 1283
f 1282 1283 1284
f 1285 793 792
f 1285 792 1046
f 1285 581 341
f 1285 341 793
f 1286 792 791
f 1286 791 790
f 1286 790 1048
f 1286 1048 1047
f 1286 1047 792
f 1287 1101 853
f 1288 1055 1057
f 1288 1062 1289
f 1290 1056 1055
f 1290 1055 1288
f 1290 1291 899
f 1290 899 1051
f 1290 1051 1054
f 1292 1060 1070
f 1292 1070 820
f 1292 820 861
f 1292 861 1293
f 1294 821 1069
f 1294 1069 1070
f 1294 1070 1060
f 1294 1060 189
f 1294 189 821
f 1295 1062 1063
f 1295 1063 363
f 1295 363 1064
f 1295 1064 900
f 1295 900 899
f 1296 801 1066
f 1296 1066 352
f 1296 352 347
f 1296 347 346
f 1296 346 802
f 1296 802 801
f 1297 813 588
f 1297 588 1067
f 1297 1067 240
f 1297 240 239
f 1297 239 813
f 1298 1083 1074
f 1298 1074 1073
f 1298 1073 609
f 1298 609 830
f 1298 830 831
f 1298 831 1082
f 1298 1082 1083
f 1299 389 1075
f 1299 1075 1077
f 1299 1153 389
f 1300 1074 1083
f 1300 1083 1079
f 1300 1079 1078
f 1300 1078 646
f 1300 646 1076
f 1300 1076 1074
f 1301 1080 1081
f 1301 1081 872
f 1301 872 897
f 1301 897 707
f 1302 1152 1153
f 1302 1153 1080
f 1302 707 706
f 1302 706 1150
f 1303 1085 836
f 1303 836 1084
f 1304 854 634
f 1305 854 1304
f 1305 1100 416
f 1305 416 854
f 1306 1236 1307
f 1308 1135 1133
f 1308 1133 1111
f 1308 1104 1142
f 1308 1142 1135
f 1309 886 1142
f 1309 1142 1104
f 1309 887 886
f 1310 1311 1112
f 1310 1103 1102
f 1310 1102 1105
f 1310 1105 1110
f 1310 1110 1311
f 1312 1087 1090
f 1312 1090 838
f 1312 838 1114
f 1312 1114 1107
f 1312 1107 1106
f 1312 1106 1088
f 1312 1088 1087
f 1313 1110 1088
f 1313 1088 1106
f 1313 1106 1108
f 1313 1108 1110
f 1314 1311 1110
f 1314 1110 1108
f 1314 1108 1113
f 1314 1113 421
f 1314 421 1112
f 1314 1112 1311
f 1315 859 642
f 1315 642 1116
f 1315 1116 435
f 1315 435 1117
f 1315 1117 859
f 1316 1120 1317
f 1316 1317 803
f 1316 803 1059
f 1318 642 860
f 1318 860 862
f 1318 1319 1293
f 1318 1293 861
f 1318 861 642
f 1320 1321 363
f 1320 363 803
f 1320 803 1317
f 1320 1317 1120
f 1320 1120 1321
f 1322 1321 1120
f 1322 1120 1119
f 1322 1119 1118
f 1322 1118 363
f 1322 363 1321
f 1323 903 1122
f 1323 1122 864
f 1324 990 1123
f 1325 990 1326
f 1325 1326 643
f 1325 643 1124
f 1325 1124 884
f 1325 884 990
f 1327 1128 1127
f 1327 1127 870
f 1328 647 834
f 1328 834 1329
f 1328 1329 1327
f 1330 897 1130
f 1330 1130 875
f 1330 875 1226
f 1330 1226 705
f 1330 705 707
f 1330 707 897
f 1331 1133 880
f 1332 1333 1131
f 1332 1131 877
f 1332 877 885
f 1334 1335 1332
f 1334 1332 885
f 1334 885 888
f 1336 1337 1138
f 1336 1139 663
f 1338 882 1140
f 1338 1140 1137
f 1338 1137 1138
f 1339 501 895
f 1339 895 730
f 1339 730 1143
f 1339 1143 1144
f 1339 1144 499
f 1339 499 501
f 1340 893 1341
f 1342 920 892
f 1343 922 662
f 1344 1150 1151
f 1344 1151 1152
f 1344 1152 1302
f 1344 1302 1150
f 1345 729 1151
f 1345 1151 890
f 1345 890 730
f 1345 730 729
f 1346 1080 1153
f 1346 1153 1299
f 1346 1299 1077
f 1346 1077 1076
f 1346 1076 646
f 1346 646 1080
f 1347 1154 391
f 1347 391 894
f 1348 903 1323
f 1348 1156 904
f 1348 904 903
f 1349 899 898
f 1350 863 1157
f 1350 1157 650
f 1350 650 868
f 1350 868 863
f 1351 906 860
f 1351 860 1158
f 1351 1158 1117
f 1351 1117 650
f 1351 650 906
f 1352 653 1159
f 1352 1159 437
f 1352 437 910
f 1352 910 1161
f 1352 1161 653
f 1353 659 917
f 1353 917 1163
f 1353 1163 914
f 1353 914 659
f 1354 1165 1164
f 1355 1174 1173
f 1355 1173 1354
f 1355 1354 1164
f 1355 1164 1167
f 1355 1167 1174
f 1356 1190 942
f 1357 1173 1172
f 1357 1172 660
f 1358 1359 1215
f 1358 1215 1212
f 1358 1212 1214
f 1360 1207 1176
f 1360 1176 918
f 1360 918 1207
f 1361 987 921
f 1361 921 1178
f 1362 1216 1215
f 1363 1189 936
f 1363 936 935
f 1364 1180 1215
f 1364 1215 1359
f 1364 1359 1358
f 1365 1181 1188
f 1365 1188 1189
f 1365 1180 1181
f 1366 1184 1183
f 1366 1183 928
f 1366 928 1180
f 1367 946 940
f 1367 940 1190
f 1368 1369 1191
f 1368 1191 1192
f 1368 1192 948
f 1368 948 947
f 1370 477 1191
f 1370 1194 478
f 1370 478 477
f 1371 950 1194
f 1371 1194 1370
f 1371 1370 1191
f 1371 1191 1372
f 1371 1372 950
f 1373 685 680
f 1373 680 484
f 1373 484 1195
f 1373 1195 952
f 1373 952 685
f 1374 956 957
f 1374 957 1196
f 1374 1196 958
f 1374 958 956
f 1375 1376 1201
f 1375 1201 683
f 1375 1197 1198
f 1375 1198 1376
f 1377 959 690
f 1377 690 1204
f 1377 1204 1203
f 1377 1203 953
f 1378 977 976
f 1378 976 1204
f 1378 1204 1205
f 1378 1205 1220
f 1379 1175 1206
f 1379 1206 918
f 1379 918 1175
f 1380 1208 1381
f 1380 1381 1206
f 1382 692 1242
f 1382 1242 1244
f 1382 1244 1383
f 1382 1208 692
f 1384 1208 1382
f 1384 1382 1385
f 1384 1385 1207
f 1384 1207 1206
f 1384 1206 1381
f 1384 1381 1208
f 1386 966 1210
f 1386 1210 1205
f 1386 1205 690
f 1386 690 966
f 1387 1220 1205
f 1387 1205 1210
f 1387 1210 973
f 1387 973 972
f 1387 972 981
f 1387 981 1220
f 1388 1213 1212
f 1388 1212 1218
f 1388 1218 970
f 1388 970 973
f 1388 973 1211
f 1388 1211 1217
f 1388 1217 1213
f 1389 1214 1217
f 1389 1217 1211
f 1389 1211 1209
f 1389 1209 1171
f 1389 1171 1165
f 1390 969 968
f 1390 968 1218
f 1390 1218 1216
f 1390 1216 1362
f 1391 977 1378
f 1391 1378 1220
f 1391 1220 1219
f 1391 1219 975
f 1391 975 977
f 1392 1219 1221
f 1392 1221 693
f 1392 693 695
f 1392 695 975
f 1392 975 1219
f 1393 1248 1394
f 1393 1394 1257
f 1393 1257 722
f 1393 722 1248
f 1395 1198 1257
f 1395 1257 1394
f 1396 713 1397
f 1396 1397 1398
f 1396 1398 710
f 1396 710 711
f 1396 711 713
f 1399 987 1398
f 1399 1398 1397
f 1399 1397 713
f 1399 713 499
f 1399 499 987
f 1400 1226 1229
f 1400 1229 923
f 1400 1341 893
f 1400 893 1226
f 1401 1230 1232
f 1401 1232 874
f 1401 874 1131
f 1402 1227 874
f 1402 923 1228
f 1402 1228 1227
f 1403 923 1402
f 1403 1402 874
f 1403 874 1232
f 1403 1232 988
f 1403 988 923
f 1404 1233 1234
f 1405 1053 1406
f 1407 1103 1310
f 1407 1310 1307
f 1407 1307 1236
f 1408 1237 450
f 1409 992 1237
f 1410 1176 1207
f 1410 1207 1383
f 1410 1238 661
f 1410 661 1176
f 1411 1243 1395
f 1412 1413 1414
f 1412 1394 1239
f 1412 1239 1241
f 1412 1241 1413
f 1415 1240 1239
f 1415 1239 1394
f 1415 1394 1248
f 1415 1248 1247
f 1415 1247 1240
f 1416 959 1377
f 1416 1377 953
f 1416 953 1200
f 1416 1242 691
f 1416 691 959
f 1417 1015 1252
f 1417 1252 1254
f 1417 1254 1249
f 1417 1249 719
f 1417 719 723
f 1417 723 1015
f 1418 734 740
f 1418 740 1255
f 1418 1255 502
f 1418 502 733
f 1418 733 734
f 1419 998 997
f 1419 997 1255
f 1419 1255 1000
f 1419 1000 998
f 1420 1258 1016
f 1420 1016 723
f 1420 723 718
f 1420 718 1259
f 1421 1261 1016
f 1421 1016 1258
f 1421 1258 998
f 1421 998 1000
f 1422 724 1007
f 1422 1007 1260
f 1422 1260 1261
f 1422 1261 1001
f 1422 1001 740
f 1422 740 1008
f 1423 1009 896
f 1423 896 1262
f 1423 1262 1006
f 1423 1006 1009
f 1424 1272 581
f 1424 581 1285
f 1425 1034 367
f 1425 367 823
f 1425 823 1275
f 1425 1275 1274
f 1425 1274 1034
f 1426 1048 318
f 1426 318 1280
f 1426 1280 1047
f 1426 1047 1048
f 1427 1282 1284
f 1427 1284 1046
f 1428 1287 1057
f 1428 1057 1056
f 1428 1056 1429
f 1428 1429 1430
f 1431 1289 1062
f 1431 1291 1290
f 1431 1290 1288
f 1431 1288 1289
f 1432 803 1433
f 1434 1060 1292
f 1434 1292 1293
f 1434 1433 803
f 1435 1291 1431
f 1435 1431 1062
f 1435 1062 1295
f 1435 1295 899
f 1435 899 1291
f 1436 1062 1288
f 1436 1288 1057
f 1436 1057 1287
f 1436 1287 853
f 1436 853 358
f 1436 358 1062
f 1437 707 1302
f 1437 1302 1080
f 1437 1080 1301
f 1437 1301 707
f 1438 1090 1091
f 1438 612 839
f 1438 839 1090
f 1439 612 1438
f 1439 1438 1091
f 1439 1091 1303
f 1439 1303 1084
f 1439 1084 611
f 1439 611 612
f 1440 1303 1091
f 1440 1091 1089
f 1440 1089 834
f 1440 834 835
f 1441 1304 634
f 1441 634 1101
f 1442 1443 1100
f 1442 1100 1305
f 1442 1305 1304
f 1442 1430 1443
f 1444 1445 1404
f 1444 1404 1234
f 1446 1053 1405
f 1447 1235 989
f 1448 1105 1104
f 1448 1104 1308
f 1448 1308 1111
f 1448 1111 1110
f 1448 1110 1105
f 1449 1236 887
f 1449 887 1309
f 1449 1309 1104
f 1449 1104 1103
f 1449 1103 1407
f 1449 1407 1236
f 1450 856 1100
f 1450 1100 1443
f 1450 1443 1451
f 1450 1451 1310
f 1450 1310 1112
f 1450 1112 856
f 1452 1306 1307
f 1452 1307 1310
f 1452 1310 1451
f 1452 1451 1443
f 1452 1443 1430
f 1452 1430 1429
f 1452 1429 1056
f 1452 1056 1445
f 1452 1445 1444
f 1453 1433 1434
f 1453 1434 1293
f 1453 1293 1319
f 1453 1319 1316
f 1453 1316 1059
f 1453 1059 1058
f 1453 1058 803
f 1453 803 1432
f 1453 1432 1433
f 1454 1121 1120
f 1454 1120 1316
f 1454 1316 1319
f 1454 1319 1318
f 1454 1318 862
f 1454 862 1121
f 1455 990 1324
f 1455 1324 643
f 1455 643 1326
f 1455 1326 990
f 1456 644 643
f 1456 643 1324
f 1456 1324 1123
f 1456 1123 644
f 1457 647 1328
f 1457 1328 1327
f 1457 1327 870
f 1457 870 1129
f 1457 1129 647
f 1458 1133 1331
f 1458 1331 1088
f 1458 1088 1110
f 1458 1110 1109
f 1458 1109 1133
f 1459 1136 1088
f 1459 1088 1331
f 1459 1331 880
f 1459 880 881
f 1459 881 1136
f 1460 834 1461
f 1460 1327 1329
f 1460 1329 834
f 1462 1327 1460
f 1462 1460 1461
f 1462 1461 881
f 1462 881 1132
f 1462 1132 1128
f 1462 1128 1327
f 1463 1136 881
f 1463 881 1461
f 1463 1461 834
f 1463 834 1136
f 1464 1333 1332
f 1464 1332 1335
f 1464 1335 1336
f 1464 1336 663
f 1464 663 1333
f 1465 1138 1337
f 1465 1337 888
f 1465 888 882
f 1466 1337 1336
f 1466 1336 1335
f 1466 1335 1334
f 1466 1334 888
f 1466 888 1337
f 1467 451 1139
f 1467 1139 1336
f 1467 1336 1138
f 1467 1138 451
f 1468 1145 893
f 1468 893 1340
f 1469 923 922
f 1469 1145 1468
f 1469 1468 1340
f 1469 1340 1341
f 1469 1341 1400
f 1469 1400 923
f 1470 1343 662
f 1470 662 924
f 1470 924 1179
f 1470 1179 710
f 1470 710 1398
f 1470 1398 987
f 1470 987 1361
f 1470 1361 1178
f 1470 1178 920
f 1471 1153 1152
f 1471 1152 1147
f 1471 1147 1154
f 1471 1154 1347
f 1471 1347 894
f 1471 894 1153
f 1472 1348 1323
f 1472 1323 864
f 1473 1170 1162
f 1474 951 950
f 1474 1475 1473
f 1474 1473 1162
f 1474 1162 951
f 1476 1165 1354
f 1476 1389 1165
f 1477 1478 1479
f 1480 1481 1479
f 1482 1169 1170
f 1482 1170 1473
f 1482 1473 1475
f 1483 1484 1485
f 1486 1483 1485
f 1486 1485 1487
f 1486 1487 1488
f 1489 1485 1484
f 1489 1357 660
f 1489 660 1169
f 1490 969 1390
f 1490 1390 1189
f 1490 1189 1363
f 1490 1363 935
f 1490 935 969
f 1491 1362 1215
f 1491 1215 1180
f 1491 1180 1365
f 1491 1365 1189
f 1491 1189 1390
f 1491 1390 1362
f 1492 1366 1180
f 1492 1180 1364
f 1493 1369 1368
f 1493 1368 947
f 1493 947 949
f 1494 1369 1493
f 1494 1493 1367
f 1495 1191 1369
f 1495 1369 1494
f 1495 1494 1367
f 1495 1367 1190
f 1495 1190 1356
f 1496 1199 955
f 1496 955 1197
f 1496 1197 1375
f 1496 1375 683
f 1496 683 682
f 1496 682 1199
f 1497 1166 1208
f 1497 1208 1380
f 1497 1380 1206
f 1497 1206 1174
f 1497 1174 1167
f 1497 1167 1166
f 1498 1385 1382
f 1498 1382 1383
f 1498 1383 1207
f 1498 1207 1385
f 1499 1414 1411
f 1499 1411 1395
f 1499 1395 1394
f 1499 1394 1412
f 1499 1412 1414
f 1500 1376 1198
f 1500 1198 1395
f 1500 1395 1243
f 1500 1243 1201
f 1500 1201 1376
f 1501 1333 663
f 1501 663 1230
f 1501 1230 1401
f 1501 1401 1131
f 1501 1131 1333
f 1502 1503 1446
f 1502 1446 1405
f 1502 1405 1235
f 1502 1235 1447
f 1502 1447 1503
f 1504 1413 1408
f 1504 1408 450
f 1504 450 1177
f 1504 1177 919
f 1504 919 1238
f 1505 992 1409
f 1505 1409 1241
f 1505 1241 1240
f 1505 1240 996
f 1505 996 992
f 1506 1241 1409
f 1506 1409 1237
f 1506 1237 1408
f 1506 1408 1413
f 1506 1413 1241
f 1507 1411 1414
f 1508 1201 1243
f 1508 1243 1242
f 1508 1242 1416
f 1508 1416 1200
f 1508 1200 1201
f 1509 1258 1420
f 1509 698 982
f 1509 982 999
f 1509 999 1258
f 1510 1001 1261
f 1510 1261 1421
f 1510 1421 1000
f 1510 1000 1001
f 1511 1263 1005
f 1511 1005 725
f 1511 725 724
f 1511 724 1422
f 1511 1422 1008
f 1511 1008 1263
f 1512 1424 1285
f 1512 1285 1046
f 1512 1046 1284
f 1513 778 1276
f 1513 1276 1272
f 1513 1272 1424
f 1513 1514 1035
f 1513 1035 778
f 1515 555 1035
f 1515 1035 1514
f 1516 1026 1025
f 1516 1025 1282
f 1516 1282 1427
f 1516 1427 1045
f 1516 1045 1026
f 1517 1047 1045
f 1517 1045 1427
f 1517 1427 1046
f 1517 1046 1047
f 1518 1060 1434
f 1518 1434 803
f 1518 803 1060
f 1519 1085 1303
f 1519 1303 1440
f 1519 1440 835
f 1519 835 647
f 1519 647 1079
f 1519 1079 1085
f 1520 1428 1430
f 1520 1430 1442
f 1520 1442 1304
f 1520 1304 1441
f 1520 1441 1101
f 1520 1101 1287
f 1520 1287 1428
f 1521 1306 1452
f 1521 1452 1444
f 1521 1444 1234
f 1521 1234 1236
f 1521 1236 1306
f 1522 1446 1503
f 1522 1503 1523
f 1522 1523 1290
f 1524 1447 989
f 1524 989 1233
f 1524 1233 1404
f 1525 1338 1138
f 1525 1138 1465
f 1525 1465 882
f 1525 882 1338
f 1526 1469 922
f 1526 922 1343
f 1527 1342 892
f 1527 892 1145
f 1528 1342 1527
f 1528 1527 1145
f 1528 1145 1469
f 1528 1469 1526
f 1528 1526 1343
f 1528 1343 1470
f 1528 1470 920
f 1528 920 1342
f 1529 866 1123
f 1529 1123 1235
f 1529 1235 1405
f 1529 1405 1406
f 1529 1472 864
f 1529 864 866
f 1530 1349 898
f 1530 898 1156
f 1530 1156 1348
f 1530 1348 1472
f 1531 1475 1474
f 1531 1474 950
f 1532 1214 1389
f 1532 1389 1476
f 1532 1476 1354
f 1533 1478 1477
f 1533 1477 942
f 1533 942 941
f 1533 941 482
f 1533 482 925
f 1533 925 927
f 1533 927 1478
f 1534 1477 1479
f 1534 1479 1481
f 1535 1478 1536
f 1535 1536 1184
f 1535 1184 1483
f 1535 1483 1486
f 1535 1486 1488
f 1535 1488 1480
f 1535 1480 1479
f 1535 1479 1478
f 1537 1482 1488
f 1537 1488 1487
f 1538 1481 1480
f 1538 1480 1488
f 1538 1488 1482
f 1538 1482 1475
f 1538 1475 1531
f 1538 1531 950
f 1538 1356 1481
f 1539 1173 1357
f 1540 1366 1492
f 1540 1492 1364
f 1540 1364 1358
f 1540 1483 1184
f 1540 1184 1366
f 1541 1487 1485
f 1541 1485 1489
f 1541 1489 1169
f 1541 1169 1482
f 1541 1482 1537
f 1541 1537 1487
f 1542 946 1367
f 1542 1367 1493
f 1542 1493 949
f 1542 949 456
f 1542 456 946
f 1543 1495 1356
f 1544 1523 1503
f 1544 1056 1290
f 1544 1290 1523
f 1545 1445 1056
f 1545 1056 1546
f 1545 1546 1404
f 1545 1404 1445
f 1547 1238 1410
f 1547 1410 1548
f 1547 1548 1244
f 1547 1244 1243
f 1547 1243 1411
f 1549 1383 1244
f 1549 1244 1548
f 1549 1548 1410
f 1549 1410 1383
f 1550 1504 1507
f 1550 1507 1414
f 1550 1414 1413
f 1550 1413 1504
f 1551 1411 1507
f 1551 1507 1504
f 1551 1504 1238
f 1552 698 1509
f 1552 1509 1420
f 1552 1420 1259
f 1552 1259 698
f 1553 1512 1284
f 1553 1284 1283
f 1553 1283 1028
f 1553 1028 328
f 1553 328 555
f 1553 555 1515
f 1553 1515 1514
f 1553 1514 1513
f 1553 1513 1424
f 1553 1424 1512
f 1554 1446 1522
f 1554 1522 1290
f 1554 1290 1054
f 1554 1054 1053
f 1554 1053 1446
f 1555 1472 1529
f 1555 1529 1406
f 1555 1530 1472
f 1556 1349 1530
f 1556 1052 899
f 1556 899 1349
f 1557 1053 1052
f 1557 1052 1556
f 1557 1556 1530
f 1557 1530 1555
f 1557 1555 1406
f 1557 1406 1053
f 1558 1477 1534
f 1558 1534 1481
f 1558 942 1477
f 1559 927 1560
f 1559 1560 1536
f 1559 1536 1478
f 1559 1478 927
f 1561 1354 1173
f 1561 1173 1539
f 1562 1484 1483
f 1562 1483 1539
f 1562 1539 1357
f 1562 1357 1489
f 1562 1489 1484
f 1563 1214 1532
f 1563 1532 1354
f 1563 1354 1561
f 1563 1561 1539
f 1563 1539 1483
f 1563 1483 1540
f 1563 1540 1358
f 1563 1358 1214
f 1564 950 1372
f 1564 1372 1543
f 1564 1543 1356
f 1564 1356 1538
f 1564 1538 950
f 1565 1495 1543
f 1565 1543 1372
f 1565 1372 1191
f 1565 1191 1495
f 1566 1503 1447
f 1566 1447 1524
f 1566 1524 1404
f 1566 1404 1546
f 1567 1411 1551
f 1567 1551 1238
f 1568 1356 942
f 1568 942 1558
f 1568 1558 1481
f 1568 1481 1356
f 1569 1536 1560
f 1569 1560 927
f 1569 927 1184
f 1569 1184 1536
f 1570 1544 1503
f 1570 1503 1566
f 1570 1566 1546
f 1570 1546 1056
f 1570 1056 1544
f 1571 1411 1567
f 1571 1567 1238
f 1571 1238 1547
f 1571 1547 1411
