# Normalized convex hull collision mesh - generated by scripts/generate-collision-meshes.mjs (units: meters)
v -0.008000 0.008000 -0.001421
v -0.008000 -0.008000 -0.001421
v -0.008000 0.008000 -0.000158
v 0.008000 0.008000 -0.001421
v -0.008000 -0.008000 -0.000158
v -0.007340 -0.001597 0.001066
v 0.008000 -0.008000 -0.001421
v -0.007340 -0.000303 0.001066
v -0.000876 0.003650 0.001500
v -0.006856 -0.007793 -0.001500
v -0.007459 -0.006900 -0.001500
v -0.007078 -0.006900 -0.001500
v -0.006856 -0.007793 -0.000079
v 0.006691 -0.007793 -0.000079
v -0.005336 -0.001634 0.001066
v 0.007439 -0.006685 -0.001500
v -0.007287 -0.007497 -0.001500
v 0.001562 0.005250 0.001492
v 0.005790 -0.002100 0.000711
v 0.005790 -0.001200 0.000711
v 0.008000 -0.008000 -0.000158
v -0.007312 -0.001634 0.001066
v 0.006856 -0.007793 -0.001500
v -0.006856 -0.006007 -0.001500
v 0.007459 -0.006900 -0.001500
v -0.007016 -0.007742 -0.001500
v -0.007381 -0.007318 -0.001500
v 0.001562 0.003650 0.001492
v -0.000876 0.005250 0.001500
v 0.006856 -0.007793 -0.000079
v -0.007287 -0.006303 -0.001500
v 0.006856 -0.006007 -0.001500
v 0.007287 -0.007497 -0.001500
v -0.007163 -0.007641 -0.001500
v -0.007439 -0.007115 -0.001500
v 0.008000 0.008000 -0.000158
v 0.001327 0.003650 0.001500
v 0.007016 -0.007742 -0.000079
v -0.007016 -0.006058 -0.001500
v -0.007381 -0.006482 -0.001500
v 0.007163 -0.006159 -0.001500
v 0.007016 -0.007742 -0.001500
v 0.007381 -0.007318 -0.001500
v 0.001327 0.005250 0.001500
v -0.007163 -0.006159 -0.001500
v -0.007439 -0.006685 -0.001500
v 0.007016 -0.006058 -0.001500
v 0.007381 -0.006482 -0.001500
v 0.007163 -0.007641 -0.001500
v 0.007439 -0.007115 -0.001500
v 0.007287 -0.006303 -0.001500
f 1 2 3
f 4 1 3
f 5 6 3
f 5 3 2
f 5 2 7
f 8 3 6
f 8 6 9
f 10 7 2
f 11 12 10
f 11 2 1
f 13 5 14
f 13 14 15
f 16 10 12
f 16 12 11
f 17 11 10
f 18 19 20
f 21 20 19
f 21 14 5
f 21 5 7
f 21 7 4
f 22 6 5
f 22 5 13
f 22 13 15
f 22 15 9
f 22 9 6
f 23 10 16
f 23 7 10
f 24 1 4
f 24 16 11
f 25 23 16
f 25 16 4
f 25 4 7
f 26 17 10
f 26 10 2
f 27 11 17
f 27 17 2
f 28 19 18
f 29 3 8
f 29 8 9
f 30 14 21
f 30 19 15
f 30 15 14
f 31 24 11
f 32 16 24
f 32 24 4
f 33 23 25
f 34 17 26
f 34 26 2
f 34 2 17
f 35 11 27
f 35 27 2
f 35 2 11
f 36 18 20
f 36 20 21
f 36 21 4
f 36 4 3
f 36 3 29
f 37 9 15
f 37 15 19
f 37 19 28
f 37 28 18
f 37 29 9
f 38 19 30
f 38 30 21
f 38 21 19
f 39 24 31
f 39 1 24
f 40 1 31
f 40 31 11
f 41 16 32
f 42 23 33
f 42 7 23
f 43 7 33
f 43 33 25
f 44 29 37
f 44 37 18
f 44 18 36
f 44 36 29
f 45 1 39
f 45 39 31
f 45 31 1
f 46 1 40
f 46 40 11
f 46 11 1
f 47 4 41
f 47 41 32
f 47 32 4
f 48 16 41
f 48 4 16
f 49 7 42
f 49 42 33
f 49 33 7
f 50 7 43
f 50 43 25
f 50 25 7
f 51 4 48
f 51 48 41
f 51 41 4
