# Convex hull collision mesh — generated by scripts/generate-collision-meshes.mjs
v 13.763284 20.574461 -17.341799
v 13.763284 -21.925539 16.158201
v 13.763284 -21.925539 -17.341799
v 11.763284 -23.925539 8.158201
v -12.736716 -23.925539 -9.091799
v -12.736716 -23.925539 8.158201
v -14.736716 -21.925539 -17.341799
v -14.736716 -21.925539 16.158201
v -14.736716 20.574461 16.158201
v -14.736716 20.574461 -17.341799
v -14.486716 20.470909 -17.591799
v -12.736716 22.574461 -9.091799
v 13.763284 20.574461 16.158201
v 11.763284 22.574461 8.158201
v -12.736716 22.574461 8.158201
v 11.763284 22.574461 -17.341799
v 11.763284 -23.925539 16.158201
v 13.513284 -9.675538 -17.591799
v -12.736716 22.574461 16.158201
v -12.736716 22.574461 -17.341799
v 2.341711 8.496035 21.408201
v 2.839162 13.546742 21.408201
v -3.812595 13.546742 21.408201
v 11.763284 -23.925539 -9.091799
v 9.254954 10.921543 -19.591799
v -2.487566 1.781972 -19.591799
v -10.236716 11.324462 -19.591799
v -14.486716 -9.675538 -17.591799
v -14.486716 -21.821985 -17.591799
v -12.633163 -23.675539 -17.591799
v -0.486717 21.074461 -19.591799
v 3.436424 10.544100 21.408201
v -3.315144 8.496035 21.408201
v 13.513284 -21.821985 16.408201
v 13.513284 20.470909 -17.591799
v 11.763284 -23.925539 -17.341799
v 11.659730 -23.675539 -17.591799
v 13.513284 -21.821985 -17.591799
v -0.083798 1.582790 -19.591799
v -8.421741 5.658963 -19.591799
v -14.486716 20.470909 16.408201
v -6.952163 18.622442 -19.591799
v -4.486717 22.574461 -17.591799
v 3.436424 12.104823 21.408201
v -4.486717 11.324462 21.408201
v 2.839162 9.102180 21.408201
v 9.186401 10.102463 19.408201
v 9.263284 11.324462 19.408201
v 6.116779 18.497770 -19.591799
v -12.736716 -23.925539 -17.341799
v -1.291865 1.607763 -19.591799
v 6.407575 4.430171 -19.591799
v -5.819461 3.162088 -19.591799
v -9.569730 7.780259 -19.591799
v -0.525617 14.635111 21.408201
v 13.513284 20.470909 16.408201
v 8.057274 16.021561 19.408201
v 8.578604 14.913676 19.408201
v -3.944114 20.440870 -19.591799
v -9.119913 15.855513 -19.591799
v -12.633163 22.324461 -17.591799
v 3.513283 22.574461 -17.591799
v 8.956969 13.749188 19.408201
v 3.513283 11.324462 21.408201
v 3.208802 12.855195 21.408201
v -14.486716 -21.821985 16.408201
v -12.633163 -23.675539 16.408201
v -10.236716 11.324462 19.408201
v -12.736716 -23.925539 16.158201
v -0.486717 7.324461 21.408201
v 1.044017 7.628943 21.408201
v 11.659730 -23.675539 16.408201
v 3.208802 9.793728 21.408201
v 3.057486 20.407475 -19.591799
v 8.735002 14.490281 -19.591799
v 8.442073 7.407931 -19.591799
v 3.429814 2.395672 -19.591799
v -6.788134 3.884392 -19.591799
v -3.652536 2.102743 -19.591799
v -10.161842 10.118459 -19.591799
v -9.061585 6.683974 -19.591799
v -12.633163 22.324461 16.408201
v -7.594161 17.998796 19.408201
v -2.708997 14.650340 21.408201
v -9.930403 13.749188 19.408201
v -9.552037 14.913676 19.408201
v -9.030706 16.021561 19.408201
v 0.293645 15.247602 21.408201
v 11.763284 22.574461 16.158201
v -1.098924 21.055222 19.408201
v -7.784697 17.789907 -19.591799
v -9.953400 13.657789 -19.591799
v -6.025348 19.348555 -19.591799
v -1.661949 21.003372 -19.591799
v 9.186401 12.546460 19.408201
v -4.182235 9.793728 21.408201
v -10.159835 10.102463 19.408201
v -2.017450 7.628943 21.408201
v 1.735564 7.998583 21.408201
v 0.293645 7.401320 21.408201
v 11.659730 22.324461 -17.591799
v 9.229982 12.129610 -19.591799
v 7.675656 16.657206 -19.591799
v 7.889060 6.333582 -19.591799
v 9.130306 9.719665 -19.591799
v 2.295311 1.979794 -19.591799
v 4.504163 2.948685 -19.591799
v -7.660025 4.720966 -19.591799
v -4.768883 2.565150 -19.591799
v -9.938369 8.930978 -19.591799
v -3.315144 14.152888 21.408201
v -5.711028 19.556660 19.408201
v -4.638065 20.146524 19.408201
v -3.499632 20.597263 19.408201
v -10.159835 12.546460 19.408201
v -4.182235 12.855195 21.408201
v -8.374632 17.055368 19.408201
v 1.735564 14.650340 21.408201
v 7.401199 17.055368 19.408201
v 6.620728 17.998796 19.408201
v 5.728167 18.836966 19.408201
v 4.737595 19.556660 19.408201
v -8.510809 16.863092 -19.591799
v -10.165628 12.499694 -19.591799
v -9.603125 14.781859 -19.591799
v -5.017767 19.957657 -19.591799
v -2.820044 20.791143 -19.591799
v -4.409858 10.544100 21.408201
v -3.812595 9.102180 21.408201
v -2.708997 7.998583 21.408201
v -1.267078 7.401320 21.408201
v 5.178782 19.259487 -19.591799
v 0.719287 20.999588 -19.591799
v 9.055773 13.325311 -19.591799
v 6.953353 17.625879 -19.591799
v 8.272595 15.606628 -19.591799
v 7.207403 5.335887 -19.591799
v 8.857951 8.542434 -19.591799
v 1.118081 1.707439 -19.591799
v 5.501857 3.630342 -19.591799
v -6.701601 18.836966 19.408201
v -0.486717 15.324462 21.408201
v -2.017450 15.019979 21.408201
v -4.409858 12.104823 21.408201
v 2.341711 14.152888 21.408201
v 0.125491 21.055222 19.408201
v 1.044017 15.019979 21.408201
v 2.526199 20.597263 19.408201
v 11.659730 22.324461 16.408201
v 4.153770 19.899330 -19.591799
v 1.906767 20.776114 -19.591799
v -2.313684 20.901762 19.408201
v 1.340251 20.901762 19.408201
v 3.664631 20.146524 19.408201
v -1.267078 15.247602 21.408201
f 1 2 3
f 4 3 2
f 5 6 7
f 5 4 6
f 8 9 7
f 8 7 6
f 10 11 7
f 10 7 9
f 10 9 12
f 13 2 1
f 13 1 14
f 15 14 12
f 15 12 9
f 16 12 14
f 16 14 1
f 17 6 4
f 17 4 2
f 18 1 3
f 19 14 15
f 19 15 9
f 20 10 12
f 20 12 16
f 20 11 10
f 21 22 23
f 24 4 5
f 24 3 4
f 25 26 27
f 28 11 27
f 28 7 11
f 29 30 7
f 29 7 28
f 29 28 27
f 31 25 27
f 32 22 21
f 33 21 23
f 34 2 13
f 34 17 2
f 35 18 25
f 35 16 1
f 35 1 18
f 36 24 5
f 36 30 37
f 36 37 3
f 36 3 24
f 38 3 37
f 38 25 18
f 38 18 3
f 39 26 25
f 39 37 30
f 40 27 26
f 41 9 8
f 41 19 9
f 42 31 27
f 43 31 20
f 43 20 16
f 44 22 32
f 45 33 23
f 46 21 34
f 46 32 21
f 47 32 34
f 47 34 48
f 49 25 31
f 50 30 36
f 50 36 5
f 50 5 7
f 50 7 30
f 51 26 39
f 51 39 30
f 51 30 26
f 52 38 37
f 52 39 25
f 53 40 26
f 54 27 40
f 55 23 22
f 56 57 58
f 56 48 34
f 56 34 13
f 59 31 42
f 60 42 27
f 61 42 11
f 61 11 20
f 62 31 43
f 62 43 16
f 62 16 31
f 63 56 58
f 64 44 32
f 64 32 47
f 64 47 48
f 65 22 44
f 65 44 63
f 65 63 58
f 65 58 57
f 65 57 22
f 66 8 67
f 66 67 33
f 66 68 41
f 66 41 8
f 69 6 17
f 69 17 67
f 69 67 8
f 69 8 6
f 70 21 33
f 71 21 70
f 72 34 21
f 72 70 67
f 72 67 17
f 72 17 34
f 73 32 46
f 73 46 34
f 73 34 32
f 74 49 31
f 75 25 49
f 76 52 25
f 77 39 52
f 78 40 53
f 78 53 30
f 79 53 26
f 79 26 30
f 80 27 54
f 80 29 27
f 81 29 54
f 81 54 40
f 81 40 29
f 82 19 41
f 82 41 83
f 84 23 55
f 85 86 41
f 87 41 86
f 88 55 22
f 88 84 55
f 89 13 14
f 89 14 19
f 89 19 90
f 89 56 13
f 91 42 60
f 91 11 42
f 92 60 27
f 93 42 61
f 93 59 42
f 94 31 59
f 94 61 20
f 94 20 31
f 95 48 56
f 95 56 63
f 95 63 44
f 95 44 64
f 95 64 48
f 96 33 45
f 97 68 66
f 97 45 68
f 98 70 33
f 99 71 72
f 99 72 21
f 99 21 71
f 100 70 72
f 100 72 71
f 100 71 70
f 101 16 35
f 101 35 49
f 102 25 75
f 102 35 25
f 103 75 49
f 104 52 76
f 104 76 38
f 105 76 25
f 105 25 38
f 106 39 77
f 106 77 37
f 107 37 77
f 107 77 52
f 108 29 40
f 108 40 78
f 108 78 30
f 108 30 29
f 109 53 79
f 109 79 30
f 109 30 53
f 110 29 80
f 110 80 54
f 110 54 29
f 111 23 84
f 112 84 113
f 112 113 82
f 114 82 113
f 115 85 41
f 115 41 68
f 115 68 45
f 116 23 87
f 116 87 86
f 116 86 85
f 116 45 23
f 117 83 41
f 117 41 87
f 117 87 23
f 117 23 111
f 117 111 83
f 118 88 22
f 119 56 120
f 119 22 57
f 119 57 56
f 121 122 118
f 123 11 91
f 123 91 60
f 123 60 11
f 124 11 92
f 124 92 27
f 124 27 11
f 125 60 92
f 125 92 11
f 125 11 60
f 126 59 93
f 126 93 61
f 126 61 59
f 127 61 94
f 127 94 59
f 127 59 61
f 128 66 96
f 128 96 45
f 128 45 97
f 128 97 66
f 129 33 96
f 129 96 66
f 129 66 33
f 130 67 98
f 130 98 33
f 130 33 67
f 131 70 98
f 131 98 67
f 131 67 70
f 132 101 49
f 132 49 74
f 133 31 16
f 133 16 101
f 133 74 31
f 134 35 102
f 134 102 75
f 134 75 35
f 135 35 103
f 135 103 49
f 135 49 35
f 136 75 103
f 136 103 35
f 136 35 75
f 137 52 104
f 137 104 38
f 137 38 52
f 138 76 105
f 138 105 38
f 138 38 76
f 139 39 106
f 139 106 37
f 139 37 39
f 140 37 107
f 140 107 52
f 140 52 37
f 141 111 84
f 141 84 112
f 141 112 82
f 141 82 83
f 141 83 111
f 142 84 88
f 143 84 142
f 143 114 113
f 143 113 84
f 144 85 115
f 144 115 45
f 144 45 116
f 144 116 85
f 145 120 121
f 145 121 118
f 145 118 22
f 145 22 119
f 145 119 120
f 146 89 90
f 146 90 142
f 146 142 88
f 147 148 88
f 147 88 118
f 149 122 121
f 149 121 120
f 149 120 56
f 149 56 89
f 150 101 132
f 150 132 74
f 150 74 101
f 151 74 133
f 151 133 101
f 151 101 74
f 152 90 19
f 152 19 82
f 152 82 114
f 153 148 149
f 153 149 89
f 153 89 146
f 153 146 88
f 153 88 148
f 154 122 149
f 154 149 148
f 154 148 147
f 154 147 118
f 154 118 122
f 155 143 142
f 155 142 90
f 155 90 152
f 155 152 114
f 155 114 143
