# Convex hull collision mesh — generated by scripts/generate-collision-meshes.mjs
v 45.878513 5.119585 0.000000
v 45.878513 -49.380417 44.000000
v 45.878513 -49.380417 0.000000
v 43.878513 -51.380417 44.000000
v 45.878513 5.119585 44.000000
v 43.878513 7.119585 44.000000
v 12.378512 -49.380417 44.000000
v 12.378512 5.119585 44.000000
v 12.378512 -49.380417 0.000000
v 14.378512 -51.380417 44.000000
v 37.749107 -16.361055 46.500000
v 27.561535 6.274800 46.500000
v 33.228512 -6.830415 46.500000
v 12.378512 5.119585 0.000000
v 43.878513 7.119585 0.000000
v 41.928513 -6.630415 -2.500000
v 31.878511 -6.630415 -7.800000
v 28.797035 -9.360364 -7.800000
v 26.693508 -5.352426 -7.800000
v 16.128511 -6.630415 46.500000
v 37.749107 3.100225 46.500000
v 42.128513 -6.630415 46.500000
v 16.352789 -7.418395 -2.500000
v 28.797035 -3.900465 -7.800000
v 31.186916 -4.806828 -7.800000
v 41.831493 -5.057445 -2.500000
v 31.186916 -8.454002 -7.800000
v 14.378512 -51.380417 0.000000
v 26.693508 -7.908404 -7.800000
v 19.397873 1.990180 46.500000
v 29.128511 -19.630415 46.500000
v 20.507917 -16.361055 46.500000
v 33.738377 5.524796 46.500000
v 41.283722 -2.020551 46.500000
v 41.283722 -11.240278 46.500000
v 16.352789 -5.842435 -2.500000
v 14.378512 7.119585 0.000000
v 30.103676 -4.059120 -7.800000
v 31.563517 -5.352426 -7.800000
v 31.563517 -7.908404 -7.800000
v 43.878513 -51.380417 0.000000
v 26.378511 -6.630415 -7.800000
v 27.566334 -8.893620 -7.800000
v 16.973301 -2.020551 46.500000
v 23.087111 4.880513 46.500000
v 33.738377 -18.785625 46.500000
v 16.973301 -11.240278 46.500000
v 24.518648 -18.785625 46.500000
v 36.513355 4.068375 46.500000
v 30.695488 6.274800 46.500000
v 39.827301 0.754427 46.500000
v 41.750755 -3.519311 46.500000
v 39.827301 -14.015257 46.500000
v 41.750755 -9.741519 46.500000
v 14.378512 7.119585 44.000000
v 28.153349 -4.059120 -7.800000
v 25.625626 5.680953 -2.500000
v 30.690689 -4.367209 -7.800000
v 29.459988 -3.900465 -7.800000
v 31.866856 5.873243 -2.500000
v 28.734335 6.163514 -2.500000
v 33.382652 5.441962 -2.500000
v 31.798601 -5.972297 -7.800000
v 31.798601 -7.288533 -7.800000
v 30.103676 -9.201710 -7.800000
v 26.458422 -7.288533 -7.800000
v 26.458422 -5.972297 -7.800000
v 27.070107 -8.454002 -7.800000
v 28.153349 -9.201710 -7.800000
v 18.429722 0.754427 46.500000
v 16.506268 -3.519311 46.500000
v 30.695488 -19.535631 46.500000
v 35.169914 -18.141344 46.500000
v 18.429722 -14.015257 46.500000
v 16.506268 -9.741519 46.500000
v 27.561535 -19.535631 46.500000
v 23.087111 -18.141344 46.500000
v 35.169914 4.880513 46.500000
v 29.128511 6.369585 46.500000
v 32.239616 5.991828 46.500000
v 40.639439 -0.589014 46.500000
v 38.859150 1.990180 46.500000
v 42.033726 -5.063438 46.500000
v 40.639439 -12.671816 46.500000
v 38.859150 -15.251010 46.500000
v 42.033726 -8.197392 46.500000
v 24.518648 5.524796 46.500000
v 20.507917 3.100225 46.500000
v 27.070107 -4.806828 -7.800000
v 27.165098 6.018103 -2.500000
v 29.128511 6.369585 -2.300000
v 30.690689 -8.893620 -7.800000
v 29.459988 -9.360364 -7.800000
v 17.617584 -0.589014 46.500000
v 16.223297 -5.063438 46.500000
v 32.239616 -19.252659 46.500000
v 36.513355 -17.329205 46.500000
v 17.617584 -12.671816 46.500000
v 19.397873 -15.251010 46.500000
v 16.223297 -8.197392 46.500000
v 26.017408 -19.252659 46.500000
v 21.743670 -17.329205 46.500000
v 26.017408 5.991828 46.500000
v 21.743670 4.068375 46.500000
v 27.566334 -4.367209 -7.800000
v 27.561535 6.274800 -2.300000
v 30.309547 6.114983 -2.500000
v 30.695488 6.274800 -2.300000
f 1 2 3
f 4 3 2
f 5 2 1
f 5 1 6
f 7 8 9
f 7 9 10
f 11 4 2
f 11 12 13
f 14 9 8
f 15 6 1
f 16 3 17
f 16 1 3
f 18 19 17
f 20 11 13
f 20 13 12
f 20 8 7
f 21 12 11
f 21 5 6
f 22 21 11
f 22 2 5
f 23 9 14
f 24 17 19
f 25 17 24
f 25 15 1
f 26 1 16
f 26 16 17
f 26 17 1
f 27 18 17
f 28 4 10
f 28 10 9
f 29 19 18
f 30 20 12
f 31 11 20
f 31 10 4
f 32 31 20
f 32 7 10
f 33 12 21
f 34 21 22
f 35 22 11
f 36 23 14
f 37 14 8
f 37 6 15
f 38 25 24
f 39 17 25
f 39 25 1
f 40 3 27
f 40 27 17
f 41 27 3
f 41 3 4
f 41 4 28
f 41 28 18
f 42 23 36
f 42 36 14
f 42 19 29
f 42 9 23
f 43 29 18
f 44 20 30
f 45 30 12
f 46 11 31
f 47 32 20
f 48 31 32
f 49 33 21
f 49 21 6
f 50 12 33
f 51 21 34
f 52 5 34
f 52 34 22
f 53 35 11
f 54 22 35
f 54 35 2
f 55 6 37
f 55 37 8
f 56 24 19
f 56 37 57
f 56 57 24
f 58 25 38
f 58 38 15
f 58 15 25
f 59 60 38
f 59 38 24
f 59 24 61
f 62 15 38
f 62 38 60
f 62 60 15
f 63 17 39
f 63 39 1
f 63 1 17
f 64 3 40
f 64 40 17
f 64 17 3
f 65 18 27
f 66 9 42
f 66 42 29
f 66 29 9
f 67 19 42
f 67 42 14
f 67 14 19
f 68 9 29
f 68 29 43
f 68 43 28
f 68 28 9
f 69 28 43
f 69 43 18
f 69 18 28
f 70 44 30
f 70 30 8
f 71 20 44
f 71 44 8
f 72 46 31
f 72 31 4
f 73 11 46
f 73 46 4
f 74 32 47
f 75 7 47
f 75 47 20
f 76 31 48
f 76 10 31
f 77 10 48
f 77 48 32
f 78 33 49
f 78 49 6
f 78 6 33
f 79 12 50
f 79 50 6
f 79 6 55
f 79 55 12
f 80 6 50
f 80 50 33
f 80 33 6
f 81 5 51
f 81 51 34
f 81 34 5
f 82 21 51
f 82 51 5
f 82 5 21
f 83 5 52
f 83 52 22
f 83 22 5
f 84 35 53
f 84 53 2
f 84 2 35
f 85 2 53
f 85 53 11
f 85 11 2
f 86 22 54
f 86 54 2
f 86 2 22
f 87 55 45
f 87 45 12
f 88 30 45
f 88 55 8
f 88 8 30
f 89 56 19
f 89 19 14
f 89 14 37
f 90 61 24
f 90 24 57
f 90 57 37
f 91 37 15
f 92 41 65
f 92 65 27
f 92 27 41
f 93 18 65
f 93 65 41
f 93 41 18
f 94 44 70
f 94 70 8
f 94 8 44
f 95 20 71
f 95 71 8
f 95 8 20
f 96 46 72
f 96 72 4
f 96 4 46
f 97 11 73
f 97 73 4
f 97 4 11
f 98 7 74
f 98 74 47
f 98 47 7
f 99 32 74
f 99 74 7
f 99 7 32
f 100 7 75
f 100 75 20
f 100 20 7
f 101 10 76
f 101 76 48
f 101 48 10
f 102 10 77
f 102 77 32
f 102 32 10
f 103 55 87
f 103 87 12
f 103 12 55
f 104 55 88
f 104 88 45
f 104 45 55
f 105 56 89
f 105 89 37
f 105 37 56
f 106 61 90
f 106 90 37
f 106 37 91
f 106 91 61
f 107 60 59
f 107 59 61
f 107 61 91
f 107 15 60
f 108 15 107
f 108 107 91
f 108 91 15
