# Convex hull collision mesh — generated by scripts/generate-collision-meshes.mjs
v 20.415735 40.150002 -16.863571
v -16.683332 40.150002 -20.490393
v 15.500000 40.150002 18.850000
v -18.256996 40.150002 17.403017
v 16.585787 -7.600000 -21.000000
v -16.585787 39.650002 -21.000000
v 16.585787 39.650002 -21.000000
v 24.887465 40.150002 7.111260
v 15.500000 40.150002 -18.600000
v -20.500000 40.150002 -16.585787
v -16.717567 -7.600000 -21.000000
v 0.000000 -31.750000 -2.500000
v 1.682006 -32.000000 -1.494442
v -0.807775 -32.000000 2.100000
v -1.682006 -32.000000 -1.494442
v 20.831470 2.200000 -17.141357
v 20.707108 -7.600000 -17.292892
v 20.831470 39.650002 -17.141357
v 26.000000 37.299999 -7.750000
v 20.707108 39.650002 -17.292892
v 17.292892 39.650002 -20.707108
v 17.292892 2.200000 20.707108
v 20.707108 39.650002 17.292892
v 17.292892 39.650002 20.707108
v 26.000000 38.000000 7.500000
v 26.000000 31.799999 7.750000
v -20.500000 40.150002 16.585787
v -20.611261 40.137463 16.585787
v 16.585787 40.150002 -20.500000
v 16.585787 40.137463 -20.611261
v -16.585787 40.137463 -20.611261
v -16.939341 40.150002 -20.353554
v -16.585787 39.761261 -20.987465
v 17.292892 -7.600000 -20.707108
v 20.799999 -7.800000 -16.917158
v 16.780876 -7.600000 -20.980785
v 16.968470 39.650002 -20.923880
v 16.968470 -7.600000 -20.923880
v 21.000000 -7.600000 16.717567
v 2.494972 -31.750000 0.158484
v 21.000000 -7.600000 -16.585787
v 26.000000 31.799999 -7.750000
v 0.807775 -32.000000 2.100000
v 16.585787 -7.600000 21.000000
v -0.578367 -31.750000 -2.432178
v -0.270749 -32.000000 -2.233650
v -17.082842 -7.800000 -20.634315
v -1.611281 -31.750000 -1.911485
v -20.800291 -7.600000 -17.199709
v -17.292892 29.350000 -20.707108
v -17.292892 2.200000 -20.707108
v -20.899450 -7.600000 -17.073502
v -20.831470 39.650002 -17.141357
v -17.292892 39.650002 20.707108
v -20.707108 39.650002 17.292892
v -20.707108 -7.600000 17.292892
v -2.186265 -32.000000 0.531738
v 20.698242 39.761261 -17.284029
v 17.257881 39.866943 -20.672094
v 20.672094 39.866943 -17.257881
v 16.939341 40.150002 20.353554
v 20.707108 2.200000 17.292892
v 26.000000 38.000000 -7.500000
v 20.912298 39.761261 -16.963673
v 20.923880 39.650002 -16.968470
v -20.461939 40.150002 16.777128
v -21.000000 39.650002 -16.585787
v -21.000000 -7.600000 16.717567
v -21.000000 31.549999 14.100780
v 16.939341 40.150002 -20.353554
v -16.585787 40.150002 -20.500000
v -16.585787 40.100483 -20.716942
v -17.292892 39.650002 -20.707108
v -16.778431 39.761261 -20.968491
v -16.949522 39.866943 -20.878134
v -16.771217 39.866943 -20.932220
v -16.585787 39.866943 -20.950485
v -17.080753 39.961746 -20.740768
v -17.036768 40.040916 -20.674942
v -16.926725 39.961746 -20.823099
v -16.759596 39.961746 -20.873796
v -16.585787 39.961746 -20.890915
v 17.141357 2.200000 -20.831470
v 16.780876 39.650002 -20.980785
v 17.284029 39.761261 -20.698242
v 20.966288 -7.600000 16.928312
v 20.899450 -7.600000 17.073502
v 2.186265 -32.000000 0.531738
v 17.199709 -7.600000 20.800291
v 16.876926 -7.600000 20.980873
v 16.968470 39.650002 20.923880
v 16.780876 39.650002 20.980785
v 20.831470 -7.600000 -17.141357
v 20.923880 -7.600000 -16.968470
v 20.980785 -7.600000 -16.780876
v -16.876926 -7.600000 -20.980873
v 2.009785 -31.750000 -1.486864
v -1.276246 -32.000000 -1.853023
v -17.026854 -7.600000 -20.925470
v -1.125353 -31.750000 -2.232393
v 16.917158 -7.800000 -20.799999
v 0.578367 -31.750000 -2.432178
v 0.796567 -32.000000 -2.104277
v 1.125353 -31.750000 -2.232393
v -20.634315 -7.800000 -17.082842
v -20.688986 -7.745017 -17.105930
v -17.199709 -7.600000 -20.800291
v -20.966288 -7.600000 -16.928312
v -2.299243 -31.750000 -0.981570
v -20.692448 -7.800000 -17.015165
v -17.199709 -7.600000 20.800291
v -16.717567 -7.600000 21.000000
v -16.585787 39.650002 21.000000
v -16.824507 -7.600000 20.991425
v 14.100780 31.549999 21.000000
v -2.009785 -31.750000 -1.486864
v -1.689950 -32.000000 1.485453
v -2.183399 -32.000000 -0.543387
v 20.821047 39.761261 -17.134392
v 20.698242 39.761261 17.284029
v 20.831470 39.650002 17.141357
v 20.821047 39.761261 17.134392
v 20.672094 39.866943 17.257881
v 20.790298 39.866943 17.113848
v 20.878134 39.866943 16.949522
v 26.000000 37.299999 7.750000
v 16.585787 39.650002 21.000000
v 16.585787 39.761261 20.987465
v 17.215759 39.961746 20.629972
v 20.629972 39.961746 17.215759
v 24.887465 40.150002 -7.111260
v 17.215759 39.961746 -20.629972
v -20.698242 39.761261 17.284029
v -20.831470 39.650002 17.141357
v -20.490393 40.150002 16.683332
v -21.000000 -7.600000 -16.717567
v -20.991425 -7.600000 -16.824507
v -2.494972 -31.750000 0.158484
v -21.000000 39.650002 16.585787
v 16.777128 40.150002 -20.461939
v -16.725655 40.100483 -20.703167
v -16.863571 40.150002 -20.415735
v -16.925385 40.137463 -20.508244
v -16.819706 40.137463 -20.564732
v -20.432226 40.137463 -17.018013
v -17.092741 40.100483 -20.506954
v -20.506954 40.100483 -17.092741
v -20.707108 29.350000 -17.292892
v -16.968470 39.650002 -20.923880
v -17.141357 39.650002 -20.831470
v -16.780876 39.650002 -20.980785
v -17.113848 39.866943 -20.790298
v -17.134392 39.761261 -20.821047
v -17.159777 40.040916 -20.573990
v 17.141357 39.650002 -20.831470
v 16.778431 39.761261 -20.968491
v 20.991425 -7.600000 16.824507
v 2.183399 -32.000000 -0.543387
v 1.689950 -32.000000 1.485453
v 20.634315 -7.800000 17.082842
v 1.805495 -31.750000 1.729216
v 1.995909 -32.000000 1.038675
v 17.082842 -7.800000 20.634315
v 20.800291 -7.600000 17.199709
v 17.026854 -7.600000 20.925470
v 1.356466 -31.750000 2.100000
v 17.141357 39.650002 20.831470
v -0.796567 -32.000000 -2.104277
v 1.276246 -32.000000 -1.853023
v 17.141357 -7.600000 -20.831470
v 0.270749 -32.000000 -2.233650
v -17.118029 -7.600000 -20.869844
v -20.724876 -7.702798 -17.129745
v -17.105930 -7.745017 20.688986
v -17.257881 39.866943 20.672094
v -20.672094 39.866943 17.257881
v -16.585787 40.150002 20.500000
v -17.215759 39.961746 20.629972
v -16.928312 -7.600000 20.966288
v -20.980873 -7.600000 16.876926
v -20.869844 -7.600000 17.118029
v -20.925470 -7.600000 17.026854
v -1.995909 -32.000000 1.038675
v -2.463951 -31.750000 -0.423019
v -2.249992 -32.000000 -0.005998
v -1.990343 -32.000000 -1.049302
v 20.912298 39.761261 16.963673
v 20.740768 39.961746 17.080753
v 20.823099 39.961746 16.926725
v 20.415735 40.150002 16.863571
v 16.717567 -7.600000 21.000000
v 17.257881 39.866943 20.672094
v 25.387465 39.761261 -7.000000
v 24.900000 40.150002 -7.000000
v -20.629972 39.961746 17.215759
v -20.740768 39.961746 17.080753
v -20.573990 40.040916 17.159777
v -20.790298 39.866943 17.113848
v -20.878134 39.866943 16.949522
v -20.716942 40.100483 16.585787
v -20.716942 40.100483 -16.585787
v -20.564732 40.137463 16.819706
v -20.596115 40.100483 16.984098
v -20.506954 40.100483 17.092741
v -20.432226 40.137463 17.018013
v -20.662369 40.100483 16.860147
v -20.749954 40.040916 16.896427
v -20.796148 40.040916 16.744150
v -20.980785 39.650002 -16.780876
v -20.811745 40.040916 -16.585787
v -20.923880 39.650002 16.968470
v -20.980785 39.650002 16.780876
v 16.683332 40.150002 -20.490393
v 16.705038 40.137463 -20.599516
v 16.819706 40.137463 -20.564732
v 16.863571 40.150002 -20.415735
v -16.744150 40.040916 -20.796148
v -16.585787 40.040916 -20.811745
v -16.860147 40.100483 -20.662369
v -16.984098 40.100483 -20.596115
v -16.705038 40.137463 -20.599516
v -16.777128 40.150002 -20.461939
v -20.353554 40.150002 -16.939341
v -17.018013 40.137463 -20.432226
v -16.963673 39.761261 -20.912298
v 17.134392 39.761261 -20.821047
v 2.390622 -31.750000 0.731388
v 2.463951 -31.750000 -0.423019
v 2.299243 -31.750000 -0.981570
v 1.990343 -32.000000 -1.049302
v 2.249992 -32.000000 -0.005998
v 1.286108 -32.000000 1.846192
v 20.692448 -7.800000 17.015165
v 2.156563 -31.750000 1.264609
v 17.106815 -7.743166 20.690718
v 17.129745 -7.702798 20.724876
v 1.611281 -31.750000 -1.911485
v -17.105379 -7.746188 -20.687880
v -1.286108 -32.000000 1.846192
v -1.805495 -31.750000 1.729216
v -17.082842 -7.800000 20.634315
v 16.585787 40.150002 20.500000
v 16.585787 40.137463 20.611261
v -16.939341 40.150002 20.353554
v 16.585787 40.100483 20.716942
v -16.585787 40.040916 20.811745
v 16.585787 40.040916 20.811745
v 16.585787 39.961746 20.890915
v 16.778431 39.761261 20.968491
v 16.585787 39.866943 20.950485
v -17.073502 -7.600000 20.899450
v -2.390622 -31.750000 0.731388
v -2.156563 -31.750000 1.264609
v 20.923880 39.650002 16.968470
v 20.461939 40.150002 16.777128
v 20.353554 40.150002 16.939341
v 20.508244 40.137463 16.925385
v 24.850485 40.150002 7.216942
v 17.284029 39.761261 20.698242
v 20.573990 40.040916 17.159777
v 17.018013 40.137463 20.432226
v 24.850485 40.150002 -7.216942
v 20.353554 40.150002 -16.939341
v 25.326654 39.866943 7.211503
v 25.350485 39.866943 7.000000
v 25.256357 39.866943 7.412400
v 25.387465 39.761261 7.000000
v 25.011261 40.137463 -7.000000
v 24.995935 40.137463 -7.136018
v 20.790298 39.866943 -17.113848
v 20.740768 39.961746 -17.080753
v 20.878134 39.866943 -16.949522
v 25.256357 39.866943 -7.412400
v 17.018013 40.137463 -20.432226
v 20.506954 40.100483 -17.092741
v 17.159777 40.040916 -20.573990
v 17.092741 40.100483 -20.506954
v -20.821047 39.761261 17.134392
v -20.703167 40.100483 16.725655
v -20.508244 40.137463 16.925385
v -20.674942 40.040916 17.036768
v -20.823099 39.961746 16.926725
v -20.923880 39.650002 -16.968470
v -20.968491 39.761261 -16.778431
v -20.987465 39.761261 -16.585787
v -20.950485 39.866943 16.585787
v -20.950485 39.866943 -16.585787
v -20.890915 39.961746 16.585787
v -20.968491 39.761261 16.778431
v -20.932220 39.866943 16.771217
v -16.896427 40.040916 -20.749954
v -20.461939 40.150002 -16.777128
v -20.596115 40.100483 -16.984098
v -20.890915 39.961746 -16.585787
v -20.674942 40.040916 -17.036768
v -20.662369 40.100483 -16.860147
v -17.284029 39.761261 -20.698242
v -20.698242 39.761261 -17.284029
v -20.707108 39.650002 -17.292892
v 16.963673 39.761261 -20.912298
v 16.896427 40.040916 -20.749954
v 16.926725 39.961746 -20.823099
v 16.744150 40.040916 -20.796148
v 16.585787 39.866943 -20.950485
v 16.860147 40.100483 -20.662369
v 17.118029 -7.600000 20.869844
v 20.687880 -7.746188 17.105379
v -17.129745 -7.702798 -20.724876
v -16.585787 39.866943 20.950485
v -16.968470 39.650002 20.923880
v -17.141357 39.650002 20.831470
v -16.963673 39.761261 20.912298
v -17.134392 39.761261 20.821047
v 16.777128 40.150002 20.461939
v -20.353554 40.150002 16.939341
v -17.092741 40.100483 20.506954
v 16.725655 40.100483 20.703167
v -17.015165 -7.800000 20.692448
v -1.356466 -31.750000 2.100000
v -20.800291 -7.600000 17.199709
v -20.634315 -7.800000 17.082842
v -20.687880 -7.746188 17.105379
v 17.159777 40.040916 20.573990
v 17.092741 40.100483 20.506954
v 16.984098 40.100483 20.596115
v 20.506954 40.100483 17.092741
v 20.461939 40.150002 -16.777128
v 20.564732 40.137463 -16.819706
v 24.950727 40.137463 7.265216
v 25.098967 40.100483 7.159534
v 24.995935 40.137463 7.136018
v 24.900000 40.150002 7.000000
v 25.098967 40.100483 -7.159534
v 25.350485 39.866943 -7.000000
v 25.290916 39.961746 -7.000000
v 25.131357 40.040916 -7.352203
v 25.202688 39.961746 -7.386554
v 20.749954 40.040916 -16.896427
v 20.662369 40.100483 -16.860147
v 25.191393 40.040916 -7.180630
v 20.823099 39.961746 -16.926725
v 16.925385 40.137463 -20.508244
v 20.674942 40.040916 -17.036768
v 20.432226 40.137463 -17.018013
v -20.912298 39.761261 16.963673
v -20.599516 40.137463 16.705038
v -20.987465 39.761261 16.585787
v -20.811745 40.040916 16.585787
v -20.873796 39.961746 16.759596
v -20.415735 40.150002 -16.863571
v -20.703167 40.100483 -16.725655
v -20.599516 40.137463 -16.705038
v -20.611261 40.137463 -16.585787
v -20.490393 40.150002 -16.683332
v -20.573990 40.040916 -17.159777
v -20.932220 39.866943 -16.771217
v -20.878134 39.866943 -16.949522
v 17.113848 39.866943 -20.790298
v 16.771217 39.866943 -20.932220
v 16.585787 39.961746 -20.890915
v 16.585787 39.761261 -20.987465
v 16.585787 40.100483 -20.716942
v 17.036768 40.040916 -20.674942
v 20.724876 -7.702798 17.129745
v -16.778431 39.761261 20.968491
v -16.780876 39.650002 20.980785
v -17.284029 39.761261 20.698242
v -16.949522 39.866943 20.878134
v 16.863571 40.150002 20.415735
v 16.683332 40.150002 20.490393
v 16.925385 40.137463 20.508244
v -20.415735 40.150002 16.863571
v -17.159777 40.040916 20.573990
v 16.771217 39.866943 20.932220
v 16.949522 39.866943 20.878134
v 16.963673 39.761261 20.912298
v -17.129745 -7.702798 20.724876
v -20.724876 -7.702798 17.129745
v 20.432226 40.137463 17.018013
v 20.596115 40.100483 16.984098
v 25.290916 39.961746 7.000000
v 20.564732 40.137463 16.819706
v 20.662369 40.100483 16.860147
v 25.045942 40.100483 7.311069
v 25.131357 40.040916 7.352203
v 25.011261 40.137463 7.000000
v 25.116941 40.100483 7.000000
v 25.116941 40.100483 -7.000000
v 24.950727 40.137463 -7.265216
v 25.326654 39.866943 -7.211503
v 25.045942 40.100483 -7.311069
v 16.984098 40.100483 -20.596115
v 20.629972 39.961746 -17.215759
v 20.596115 40.100483 -16.984098
v -20.564732 40.137463 -16.819706
v -20.629972 39.961746 -17.215759
v -20.821047 39.761261 -17.134392
v -20.790298 39.866943 -17.113848
v -20.749954 40.040916 -16.896427
v -20.823099 39.961746 -16.926725
v -20.796148 40.040916 -16.744150
v -20.740768 39.961746 -17.080753
v -20.873796 39.961746 -16.759596
v 16.949522 39.866943 -20.878134
v 16.759596 39.961746 -20.873796
v 16.585787 40.040916 -20.811745
v 16.725655 40.100483 -20.703167
v 17.080753 39.961746 -20.740768
v -16.585787 39.761261 20.987465
v -16.585787 40.100483 20.716942
v -17.080753 39.961746 20.740768
v -16.585787 39.961746 20.890915
v -16.771217 39.866943 20.932220
v 16.705038 40.137463 20.599516
v 16.819706 40.137463 20.564732
v 17.134392 39.761261 20.821047
v 17.113848 39.866943 20.790298
v 17.080753 39.961746 20.740768
v 16.759596 39.961746 20.873796
v 16.744150 40.040916 20.796148
v 25.202688 39.961746 7.386554
v 20.749954 40.040916 16.896427
v 25.211744 40.040916 7.000000
v 25.268579 39.961746 -7.198247
v 20.573990 40.040916 -17.159777
v 20.508244 40.137463 -16.925385
v -20.508244 40.137463 -16.925385
v -17.257881 39.866943 -20.672094
v -20.912298 39.761261 -16.963673
v -16.777128 40.150002 20.461939
v -16.860147 40.100483 20.662369
v -16.819706 40.137463 20.564732
v -16.984098 40.100483 20.596115
v -17.018013 40.137463 20.432226
v -16.585787 40.137463 20.611261
v -16.725655 40.100483 20.703167
v -16.926725 39.961746 20.823099
v -17.113848 39.866943 20.790298
v -17.036768 40.040916 20.674942
v -16.896427 40.040916 20.749954
v -16.759596 39.961746 20.873796
v 16.860147 40.100483 20.662369
v 16.896427 40.040916 20.749954
v 16.926725 39.961746 20.823099
v 17.036768 40.040916 20.674942
v 25.268579 39.961746 7.198247
v 20.674942 40.040916 17.036768
v 25.191393 40.040916 7.180630
v 25.211744 40.040916 -7.000000
v -20.672094 39.866943 -17.257881
v -17.215759 39.961746 -20.629972
v -16.683332 40.150002 20.490393
v -16.863571 40.150002 20.415735
v -16.925385 40.137463 20.508244
v -16.705038 40.137463 20.599516
v -16.744150 40.040916 20.796148
f 1 2 3
f 4 3 2
f 5 6 7
f 8 1 3
f 9 2 1
f 10 4 2
f 11 6 5
f 11 5 12
f 13 14 15
f 16 17 18
f 16 18 19
f 20 18 17
f 20 17 21
f 22 23 24
f 25 26 19
f 27 4 10
f 27 10 28
f 29 9 1
f 29 2 9
f 30 31 29
f 32 10 2
f 33 7 6
f 34 17 35
f 34 21 17
f 36 5 7
f 36 12 5
f 37 38 36
f 39 40 41
f 39 41 26
f 42 19 26
f 42 26 41
f 42 16 19
f 43 14 13
f 43 44 14
f 45 11 12
f 46 13 15
f 46 45 12
f 47 48 15
f 49 50 51
f 52 53 49
f 54 55 56
f 57 15 14
f 58 18 20
f 58 20 21
f 58 59 60
f 61 8 3
f 61 3 4
f 62 23 22
f 63 25 19
f 63 19 64
f 65 18 64
f 65 64 19
f 65 19 18
f 66 4 27
f 67 68 69
f 70 29 1
f 71 29 31
f 71 31 2
f 71 2 29
f 72 31 30
f 73 50 49
f 74 75 76
f 77 33 74
f 77 74 76
f 78 79 80
f 78 80 75
f 81 82 77
f 81 77 76
f 81 76 75
f 81 75 80
f 83 21 34
f 83 38 37
f 84 37 36
f 84 36 7
f 85 59 58
f 85 58 21
f 86 26 87
f 88 43 13
f 89 22 24
f 89 62 22
f 90 91 92
f 93 17 16
f 93 16 42
f 93 42 94
f 93 94 35
f 93 35 17
f 95 35 94
f 95 94 42
f 95 42 41
f 96 11 45
f 97 13 35
f 98 46 15
f 98 15 48
f 98 99 100
f 101 34 35
f 101 35 13
f 101 12 36
f 101 36 38
f 102 12 101
f 103 102 101
f 103 101 104
f 103 13 46
f 105 106 47
f 105 47 15
f 105 15 106
f 107 47 106
f 107 106 49
f 107 49 51
f 107 51 50
f 107 50 73
f 108 52 109
f 110 106 15
f 110 52 49
f 111 54 56
f 112 44 113
f 112 113 114
f 112 114 14
f 112 14 44
f 115 113 44
f 116 52 110
f 116 110 15
f 117 57 14
f 118 15 57
f 119 64 18
f 119 18 58
f 119 58 60
f 120 23 121
f 120 121 122
f 120 122 123
f 120 24 23
f 124 123 122
f 124 122 125
f 126 26 25
f 126 121 87
f 126 87 26
f 127 92 128
f 127 128 113
f 127 113 115
f 127 115 44
f 129 123 130
f 131 1 8
f 132 60 59
f 133 134 55
f 133 55 54
f 135 66 27
f 135 27 28
f 136 68 67
f 136 67 137
f 136 138 68
f 139 67 69
f 139 69 68
f 140 29 70
f 141 31 72
f 142 143 32
f 142 32 2
f 144 143 142
f 145 146 147
f 148 73 49
f 149 96 99
f 149 99 150
f 151 6 11
f 151 11 96
f 151 96 149
f 151 149 74
f 151 74 33
f 151 33 6
f 152 78 75
f 152 75 153
f 154 147 146
f 154 146 79
f 155 21 83
f 155 83 37
f 155 85 21
f 156 37 84
f 157 39 26
f 157 26 86
f 157 40 39
f 158 88 13
f 159 43 88
f 159 160 161
f 162 159 88
f 162 86 87
f 163 161 160
f 164 87 121
f 164 121 23
f 164 23 62
f 164 62 89
f 165 90 43
f 165 43 166
f 165 167 91
f 165 91 90
f 168 46 98
f 168 98 100
f 168 100 99
f 168 99 96
f 168 96 45
f 168 45 46
f 169 104 101
f 169 13 103
f 169 103 104
f 170 34 101
f 170 101 38
f 170 38 83
f 170 83 34
f 171 102 103
f 171 103 46
f 171 46 12
f 171 12 102
f 172 150 99
f 172 99 98
f 172 98 48
f 172 107 73
f 172 73 150
f 173 106 110
f 173 110 49
f 173 49 106
f 174 111 56
f 175 176 133
f 177 61 4
f 177 4 66
f 178 176 175
f 179 14 114
f 180 68 138
f 181 55 134
f 181 134 182
f 183 57 117
f 184 137 108
f 184 108 109
f 184 109 118
f 184 138 136
f 184 136 137
f 185 138 184
f 185 184 118
f 185 118 57
f 185 57 138
f 186 15 118
f 186 118 109
f 186 109 52
f 186 52 116
f 186 116 15
f 187 25 125
f 187 125 122
f 187 122 121
f 187 126 25
f 188 130 123
f 188 123 124
f 188 124 125
f 188 125 189
f 190 8 61
f 191 90 92
f 191 92 127
f 191 127 44
f 191 44 43
f 191 43 90
f 192 120 123
f 192 123 129
f 193 25 63
f 194 131 8
f 195 196 176
f 195 176 178
f 195 178 197
f 198 176 196
f 198 196 199
f 200 28 201
f 202 66 135
f 203 204 205
f 203 202 206
f 207 206 208
f 209 108 137
f 209 137 67
f 210 200 201
f 211 180 182
f 211 182 134
f 212 68 180
f 212 180 211
f 212 139 68
f 213 214 30
f 213 30 29
f 213 29 140
f 213 140 215
f 213 215 214
f 216 215 140
f 216 140 70
f 217 218 82
f 217 82 81
f 217 81 80
f 217 219 141
f 217 141 72
f 217 72 218
f 220 219 79
f 220 79 146
f 220 143 144
f 220 144 219
f 221 31 141
f 221 141 219
f 221 219 144
f 221 144 2
f 221 2 31
f 222 2 144
f 222 144 142
f 222 142 2
f 223 32 145
f 223 10 32
f 224 143 220
f 224 220 146
f 224 146 145
f 224 145 32
f 224 32 143
f 225 153 75
f 225 75 74
f 225 74 149
f 225 149 150
f 225 150 153
f 226 59 85
f 226 85 155
f 227 88 40
f 227 40 157
f 227 157 86
f 227 86 162
f 227 162 88
f 228 35 95
f 228 95 41
f 228 41 40
f 228 158 229
f 228 229 35
f 230 229 158
f 230 158 13
f 230 13 97
f 230 97 35
f 230 35 229
f 231 88 158
f 231 158 228
f 231 228 40
f 231 40 88
f 232 166 43
f 232 43 159
f 232 159 161
f 233 159 87
f 233 87 164
f 234 159 162
f 234 162 87
f 234 87 159
f 235 89 236
f 235 232 161
f 235 161 163
f 235 163 160
f 235 160 164
f 235 164 89
f 237 13 169
f 237 169 101
f 237 101 13
f 238 48 47
f 239 117 14
f 240 117 239
f 240 239 174
f 240 174 241
f 242 61 177
f 242 177 243
f 244 177 66
f 245 246 247
f 248 247 246
f 249 92 91
f 249 250 128
f 249 128 92
f 251 14 179
f 252 57 183
f 252 183 182
f 252 182 180
f 252 180 138
f 252 138 57
f 253 181 182
f 253 182 183
f 253 183 117
f 253 117 181
f 254 126 187
f 254 187 121
f 254 121 126
f 255 8 190
f 256 257 190
f 256 190 61
f 258 8 255
f 259 24 120
f 259 120 192
f 259 167 24
f 260 129 130
f 261 256 61
f 262 1 131
f 263 70 1
f 264 25 265
f 266 25 264
f 266 189 125
f 266 125 25
f 267 25 193
f 267 193 265
f 267 265 25
f 268 269 131
f 268 131 194
f 270 119 60
f 270 60 271
f 272 64 119
f 272 119 270
f 272 270 271
f 272 273 63
f 272 63 64
f 274 70 263
f 275 276 277
f 275 277 274
f 278 134 133
f 278 133 176
f 278 176 198
f 278 198 199
f 279 28 200
f 279 200 208
f 279 208 206
f 280 202 203
f 280 203 205
f 281 197 204
f 281 204 203
f 281 203 206
f 281 206 207
f 281 196 195
f 281 195 197
f 282 199 196
f 282 196 281
f 282 281 207
f 282 207 208
f 283 209 284
f 283 53 52
f 283 52 108
f 283 108 209
f 285 67 139
f 285 286 287
f 285 287 284
f 285 284 209
f 285 209 67
f 288 287 286
f 289 199 290
f 289 290 286
f 289 212 211
f 291 79 219
f 291 219 217
f 291 217 80
f 291 80 79
f 292 10 223
f 293 145 147
f 294 287 288
f 294 288 210
f 295 296 293
f 295 293 147
f 297 153 150
f 297 150 73
f 297 73 298
f 299 148 49
f 299 49 53
f 299 53 298
f 299 298 73
f 299 73 148
f 300 37 156
f 300 226 155
f 300 155 37
f 301 302 303
f 304 77 82
f 304 33 77
f 305 301 303
f 305 214 215
f 306 165 166
f 306 166 232
f 306 232 235
f 306 235 236
f 306 236 89
f 306 89 24
f 306 24 167
f 306 167 165
f 307 160 159
f 308 107 172
f 308 172 48
f 308 48 238
f 308 238 47
f 308 47 107
f 309 128 250
f 309 250 248
f 310 251 179
f 311 54 111
f 311 111 251
f 311 251 310
f 311 310 312
f 313 311 312
f 314 61 242
f 315 205 244
f 315 244 66
f 315 280 205
f 316 204 197
f 316 205 204
f 317 243 245
f 318 174 239
f 318 239 251
f 318 251 111
f 319 14 251
f 319 251 239
f 319 239 14
f 320 174 56
f 320 56 55
f 320 55 181
f 321 240 241
f 321 241 174
f 321 174 320
f 321 322 117
f 321 117 240
f 323 129 260
f 324 323 260
f 324 261 325
f 326 261 324
f 326 324 260
f 327 1 262
f 327 328 1
f 329 258 255
f 329 330 331
f 329 331 8
f 329 8 258
f 332 268 194
f 332 194 8
f 333 269 268
f 334 193 63
f 334 265 193
f 335 265 334
f 336 337 338
f 336 338 339
f 336 333 340
f 341 337 273
f 341 273 272
f 341 272 271
f 341 338 337
f 342 215 216
f 342 216 70
f 342 70 274
f 343 338 341
f 343 341 271
f 343 339 338
f 344 275 274
f 344 274 263
f 345 211 134
f 345 134 278
f 345 278 199
f 345 199 289
f 345 289 211
f 346 202 135
f 346 135 28
f 346 28 279
f 346 279 206
f 346 206 202
f 347 286 285
f 347 285 139
f 347 139 212
f 347 212 289
f 347 289 286
f 348 210 288
f 348 288 208
f 348 208 200
f 348 200 210
f 349 282 208
f 349 208 288
f 349 288 286
f 349 286 290
f 349 290 199
f 349 199 282
f 350 292 223
f 351 352 296
f 353 28 10
f 353 352 351
f 353 351 201
f 353 201 28
f 354 352 353
f 354 353 10
f 354 10 292
f 355 295 147
f 355 147 154
f 356 357 284
f 356 284 287
f 358 59 226
f 359 156 304
f 360 304 82
f 360 82 218
f 361 7 33
f 361 33 304
f 361 304 156
f 361 156 84
f 361 84 7
f 362 218 72
f 362 72 30
f 363 276 132
f 363 302 301
f 363 301 305
f 363 277 276
f 364 233 164
f 364 164 160
f 364 160 307
f 364 307 159
f 364 159 233
f 365 312 310
f 366 179 114
f 366 114 113
f 366 365 310
f 366 310 179
f 367 54 311
f 367 311 313
f 367 313 175
f 367 175 133
f 367 133 54
f 368 313 312
f 368 312 365
f 369 61 314
f 370 314 242
f 370 242 243
f 371 261 61
f 371 61 369
f 371 325 261
f 372 280 315
f 372 315 66
f 372 66 202
f 372 202 280
f 373 316 197
f 373 197 178
f 374 250 249
f 374 249 375
f 376 91 167
f 376 375 249
f 376 249 91
f 377 174 318
f 377 318 111
f 377 111 174
f 378 322 321
f 378 321 320
f 378 320 181
f 378 181 117
f 378 117 322
f 379 261 326
f 379 326 380
f 379 380 257
f 379 257 256
f 379 256 261
f 381 265 335
f 381 264 265
f 382 257 380
f 382 380 383
f 382 329 255
f 382 255 190
f 382 190 257
f 384 330 329
f 384 329 382
f 384 382 383
f 384 383 385
f 384 385 330
f 386 331 330
f 386 330 387
f 386 387 268
f 386 268 332
f 386 332 8
f 386 8 331
f 388 340 333
f 388 333 268
f 388 268 387
f 389 269 333
f 389 328 327
f 389 327 262
f 389 262 131
f 389 131 269
f 390 63 273
f 390 273 337
f 390 335 334
f 390 334 63
f 391 333 336
f 391 336 339
f 391 339 328
f 391 328 389
f 391 389 333
f 392 277 363
f 392 363 305
f 392 305 215
f 392 215 342
f 392 342 274
f 392 274 277
f 393 132 276
f 393 343 271
f 393 271 60
f 393 60 132
f 394 339 343
f 394 343 275
f 394 275 344
f 394 328 339
f 395 352 354
f 395 354 292
f 395 292 350
f 395 293 296
f 395 296 352
f 396 295 355
f 396 355 154
f 397 357 398
f 397 298 53
f 399 296 295
f 399 295 400
f 401 210 201
f 401 201 351
f 401 351 296
f 401 296 399
f 401 399 400
f 401 294 210
f 402 398 357
f 402 357 400
f 402 400 295
f 402 295 396
f 403 294 401
f 403 401 400
f 403 400 357
f 403 357 356
f 403 356 287
f 403 287 294
f 404 300 156
f 404 156 359
f 404 358 226
f 404 226 300
f 405 359 304
f 405 304 360
f 405 360 303
f 405 303 302
f 405 302 404
f 405 404 359
f 406 303 360
f 406 360 218
f 406 218 362
f 406 362 303
f 407 214 305
f 407 305 303
f 407 303 362
f 407 362 30
f 407 30 214
f 408 358 404
f 408 404 302
f 408 302 363
f 408 363 132
f 408 132 59
f 408 59 358
f 409 309 365
f 409 365 366
f 409 366 113
f 409 113 128
f 409 128 309
f 410 245 243
f 410 246 245
f 411 178 175
f 412 309 248
f 412 248 246
f 413 368 365
f 413 365 309
f 414 370 243
f 414 243 317
f 415 314 370
f 415 370 414
f 415 325 371
f 415 371 369
f 415 369 314
f 416 417 375
f 416 375 376
f 416 376 167
f 416 167 259
f 416 259 192
f 416 192 417
f 418 417 192
f 418 192 129
f 418 375 417
f 419 248 250
f 419 250 374
f 419 374 375
f 420 247 248
f 420 248 419
f 420 317 245
f 420 245 247
f 421 266 264
f 421 189 266
f 422 189 421
f 422 421 385
f 422 385 383
f 423 381 335
f 423 388 387
f 424 340 335
f 424 335 390
f 424 390 337
f 424 337 336
f 424 336 340
f 425 343 393
f 425 393 276
f 425 276 275
f 425 275 343
f 426 328 394
f 426 394 344
f 426 344 263
f 426 263 1
f 426 1 328
f 427 145 293
f 427 293 395
f 427 395 350
f 427 350 223
f 427 223 145
f 428 152 153
f 428 153 297
f 428 297 298
f 428 78 152
f 429 283 284
f 429 284 357
f 429 357 397
f 429 397 53
f 429 53 283
f 430 177 244
f 431 432 433
f 434 205 316
f 434 316 433
f 434 244 205
f 435 436 410
f 435 410 243
f 435 243 177
f 437 411 368
f 438 313 368
f 438 368 411
f 438 411 175
f 438 175 313
f 439 373 178
f 439 178 411
f 439 411 437
f 439 437 440
f 439 440 431
f 439 431 433
f 439 433 316
f 439 316 373
f 441 437 368
f 441 368 413
f 441 413 309
f 441 309 412
f 442 317 420
f 442 420 443
f 442 325 415
f 442 415 414
f 442 414 317
f 444 375 418
f 444 443 420
f 444 420 419
f 444 419 375
f 445 323 324
f 445 324 325
f 445 325 442
f 445 442 443
f 445 443 444
f 445 444 418
f 445 418 129
f 445 129 323
f 446 385 421
f 446 421 264
f 446 264 381
f 447 380 326
f 447 326 260
f 447 260 130
f 447 130 188
f 447 188 189
f 447 189 422
f 447 422 383
f 447 383 380
f 448 330 385
f 448 385 446
f 448 446 381
f 448 381 423
f 448 423 387
f 448 387 330
f 449 340 388
f 449 388 423
f 449 423 335
f 449 335 340
f 450 396 428
f 450 428 298
f 450 298 397
f 450 397 398
f 450 398 402
f 450 402 396
f 451 154 79
f 451 79 78
f 451 78 428
f 451 428 396
f 451 396 154
f 452 177 430
f 452 430 432
f 452 435 177
f 453 432 430
f 453 430 244
f 454 432 453
f 454 453 244
f 454 244 434
f 454 434 433
f 454 433 432
f 455 436 435
f 455 435 452
f 455 452 432
f 455 432 431
f 455 431 436
f 456 246 410
f 456 410 436
f 456 436 431
f 456 431 440
f 456 440 437
f 456 437 441
f 456 441 412
f 456 412 246
