# Normalized convex hull collision mesh - generated by scripts/generate-collision-meshes.mjs (units: meters)
v 0.025000 0.008886 0.018667
v 0.025000 -0.008886 -0.018667
v 0.025000 0.006852 -0.018667
v -0.001724 0.015000 0.018667
v -0.022994 0.015000 -0.007274
v -0.017909 0.015000 0.001870
v -0.001571 -0.014984 -0.018667
v 0.024464 -0.009519 0.018667
v -0.001571 -0.014984 0.018667
v 0.025000 -0.008886 0.018667
v -0.019050 0.015000 0.001326
v -0.001724 0.015000 -0.018667
v 0.025000 0.007265 -0.014667
v -0.001571 0.014984 0.018667
v 0.024310 -0.009031 0.019967
v 0.024461 -0.009017 0.019940
v 0.024310 -0.008886 0.020000
v -0.003793 -0.014351 0.020000
v -0.001724 0.008886 0.020000
v 0.022931 0.008886 0.020000
v -0.003947 -0.014351 0.019967
v -0.020170 0.012405 0.012473
v -0.020170 -0.014351 0.012473
v -0.003909 -0.014399 0.019977
v -0.003909 0.014399 0.019977
v 0.024464 -0.009519 -0.018667
v -0.024392 0.012405 0.005400
v -0.023933 -0.012405 0.007028
v -0.023933 0.014351 0.007028
v -0.021069 0.012405 0.011825
v -0.020170 0.014351 0.012473
v -0.021911 -0.012405 0.010936
v -0.021911 0.014351 0.010936
v -0.023358 -0.012405 0.008513
v -0.024392 0.014351 0.005400
v -0.024728 0.014351 0.003663
v -0.024392 0.014351 -0.005400
v -0.023933 0.014351 -0.007028
v -0.024392 -0.012405 -0.005400
v -0.024728 0.014351 -0.003663
v 0.024461 -0.009506 0.018936
v -0.003793 -0.014633 0.019868
v -0.003793 -0.014756 0.019709
v -0.001724 -0.014633 0.019868
v -0.003793 -0.014858 0.019498
v -0.003793 -0.014936 0.019245
v -0.001724 -0.014936 0.019245
v 0.024838 -0.009085 -0.019422
v 0.024850 -0.008886 -0.019498
v 0.024932 -0.008886 -0.019245
v 0.024983 -0.006767 -0.018962
v -0.015107 0.015000 0.007846
v -0.020055 0.015000 -0.011148
v 0.025000 0.007242 -0.015050
v -0.001571 0.014984 -0.018667
v 0.024464 0.009519 0.018667
v 0.024515 0.009500 -0.018839
v -0.001520 0.014965 -0.018839
v -0.001724 -0.014351 0.020000
v -0.003793 0.014351 0.020000
v -0.023933 -0.014351 0.007028
v -0.024932 0.014351 0.001850
v -0.025000 -0.012405 0.000000
v -0.024932 -0.014351 0.001850
v -0.024728 -0.012405 -0.003663
v -0.024932 0.014351 -0.001850
v -0.001724 -0.015000 0.018667
v -0.024728 -0.012405 0.003663
v -0.003947 0.014351 0.019967
v -0.021069 -0.014351 0.011825
v -0.024084 0.014496 0.006483
v -0.025000 0.014351 0.000000
v 0.024310 -0.009168 0.019868
v -0.001573 -0.014971 0.018936
v -0.020165 -0.014496 0.012441
v -0.021062 -0.014496 0.011795
v -0.001724 -0.014496 0.019967
v 0.024937 -0.009055 -0.019105
v 0.024610 -0.009471 0.018667
v 0.024932 -0.009168 0.018667
v 0.024850 -0.009291 0.018667
v 0.024908 -0.009206 -0.018772
v 0.024932 -0.008886 0.019245
v 0.024932 0.008886 0.019245
v 0.024850 0.008886 0.019498
v 0.024983 0.006767 -0.018962
v -0.021069 0.012405 -0.011825
v -0.021911 -0.014351 -0.010936
v -0.021911 0.014351 -0.010936
v -0.023933 0.012405 -0.007028
v -0.023358 0.012405 -0.008513
v -0.022679 0.012405 -0.009825
v -0.003793 0.015000 -0.018667
v -0.020100 0.014984 -0.011432
v -0.021675 0.015000 -0.009639
v 0.024853 0.009014 0.019448
v 0.024963 0.008971 0.019062
v 0.024869 0.009155 0.019219
v 0.024509 0.009434 0.019268
v 0.024526 0.009322 0.019562
v 0.024713 0.009320 0.019281
v 0.024464 0.009519 -0.018667
v 0.024464 -0.008886 0.019967
v 0.024610 -0.008886 0.019868
v 0.024464 0.008886 0.019967
v -0.003793 0.015000 0.018667
v -0.001724 0.014351 0.020000
v -0.024932 -0.014351 -0.001850
v -0.003793 -0.014351 -0.020000
v -0.003897 -0.008108 -0.019984
v -0.003793 0.008108 -0.020000
v 0.024310 -0.008886 -0.020000
v -0.003793 -0.014756 -0.019709
v -0.001724 -0.014756 -0.019709
v -0.003793 -0.014858 -0.019498
v -0.020097 -0.014858 0.011992
v -0.003793 -0.015000 -0.014333
v -0.024293 -0.015000 -0.000872
v -0.021606 -0.015000 0.007923
v -0.003793 -0.015000 0.018667
v -0.021069 -0.014351 -0.011825
v -0.020170 -0.014351 -0.012473
v -0.020213 -0.014756 -0.012144
v -0.004004 -0.014719 -0.019687
v -0.023358 -0.012405 -0.008513
v -0.001724 -0.014858 -0.019498
v 0.024362 -0.009378 -0.019532
v -0.001525 -0.014899 -0.019268
v -0.024392 -0.012405 0.005400
v -0.021069 0.014351 0.011825
v -0.021902 0.014496 0.010908
v -0.022668 0.014496 0.009799
v -0.020151 0.014633 0.012347
v -0.003972 0.014565 0.019878
v -0.004004 0.014719 0.019687
v -0.023918 0.014496 0.007010
v -0.023875 0.014633 0.006957
v -0.023620 0.015000 0.000884
v -0.024377 0.014496 0.005387
v -0.023358 0.014351 0.008513
v -0.023345 0.014496 0.008491
v -0.024964 0.014496 0.000969
v -0.024983 0.014496 0.000000
v -0.024519 0.014496 -0.004737
v -0.024377 0.014496 -0.005387
v -0.023918 0.014496 -0.007010
v -0.023519 0.014496 -0.008085
v 0.024310 -0.009291 0.019709
v -0.001724 -0.014858 0.019498
v 0.024526 -0.009322 0.019562
v -0.001509 -0.014787 0.019562
v -0.001525 -0.014899 0.019268
v -0.003793 -0.014984 0.018963
v -0.003972 -0.014565 0.019878
v 0.024988 -0.008996 -0.018764
v 0.024679 -0.009417 0.018950
v 0.024740 -0.009394 0.018667
v 0.024983 -0.009031 0.018667
v 0.024983 -0.009031 -0.018667
v 0.024932 -0.009168 -0.018667
v 0.024983 0.008886 0.018963
v 0.024983 0.009031 0.018667
v 0.024850 0.008886 -0.019498
v 0.024847 -0.006610 -0.019504
v 0.024932 0.008886 -0.019245
v 0.025000 0.008886 -0.018667
v -0.020170 0.012405 -0.012473
v -0.003947 -0.014351 -0.019967
v -0.022054 0.014496 -0.010713
v -0.022025 0.014633 -0.010632
v -0.021186 0.014496 -0.011682
v -0.022679 0.014351 -0.009825
v -0.001724 0.008886 -0.020000
v -0.021069 0.014351 -0.011825
v -0.020253 0.014496 -0.012391
v -0.021164 0.014633 -0.011594
v -0.021128 0.014756 -0.011451
v -0.003793 0.014984 -0.018963
v -0.022380 0.015000 -0.008552
v -0.020961 0.014984 -0.010779
v 0.024310 -0.009291 -0.019709
v 0.024365 -0.009206 -0.019823
v 0.024610 0.009471 -0.018667
v 0.024932 0.009168 -0.018667
v 0.024850 0.009291 -0.018667
v 0.024932 0.009168 0.018667
v 0.024963 0.009079 0.018839
v 0.024610 0.009471 0.018667
v 0.024740 0.009394 -0.018667
v 0.024853 0.009266 0.018928
v -0.001724 0.014984 0.018963
v -0.003793 0.014936 0.019245
v -0.001724 0.014936 0.019245
v 0.024310 0.009394 0.019498
v -0.024815 0.014496 0.002885
v -0.025000 -0.014351 0.000000
v -0.003909 -0.014399 -0.019977
v -0.021911 -0.014351 0.010936
v -0.020151 -0.014633 0.012347
v -0.020128 -0.014756 0.012194
v -0.020894 -0.015000 -0.010511
v -0.020055 -0.015000 0.011148
v -0.020253 -0.014496 -0.012391
v -0.003972 -0.014565 -0.019878
v -0.001573 -0.014971 -0.018936
v 0.024461 -0.009504 -0.018957
v -0.001724 -0.015000 -0.018667
v -0.001509 -0.014787 -0.019562
v 0.024524 -0.009408 -0.019343
v 0.024704 -0.009269 -0.019428
v 0.024660 -0.009408 -0.019080
v -0.024392 -0.014351 0.005400
v -0.021062 0.014496 0.011795
v -0.021041 0.014633 0.011705
v -0.003793 0.014858 0.019498
v -0.020097 0.014858 0.011992
v -0.003793 0.014496 0.019967
v -0.020128 0.014756 0.012194
v -0.024293 0.015000 -0.000872
v -0.024040 0.014633 0.006434
v -0.024519 0.014496 0.004737
v -0.024685 0.014756 0.002828
v -0.024583 0.014756 0.003581
v -0.024578 0.014858 0.002781
v -0.024395 0.014756 0.004643
v -0.024472 0.014633 0.004701
v -0.023519 0.014496 0.008085
v -0.022679 0.012405 0.009825
v -0.024914 0.014496 0.001845
v -0.024864 0.014633 0.001831
v -0.024964 0.014496 -0.000969
v -0.024815 0.014496 -0.002885
v -0.024765 0.014633 -0.002863
v -0.024662 0.014633 -0.003625
v -0.024864 0.014633 -0.001831
v -0.024685 0.014756 -0.002828
v -0.024583 0.014756 -0.003581
v -0.024395 0.014756 -0.004643
v -0.024472 0.014633 -0.004701
v -0.024255 0.014756 -0.005280
v -0.024293 0.014858 -0.004566
v -0.022747 0.014756 -0.009316
v -0.022803 0.014633 -0.009433
v -0.023306 0.014633 -0.008427
v -0.023480 0.014633 -0.008023
v 0.024509 -0.009179 0.019793
v 0.024713 -0.009185 0.019558
v -0.001724 -0.014756 0.019709
v 0.024310 -0.009394 0.019498
v -0.001724 -0.014984 0.018963
v -0.020060 -0.014936 0.011749
v -0.003793 -0.014496 0.019967
v 0.024983 -0.008886 -0.018963
v 0.024509 -0.009434 0.019268
v 0.024983 -0.008886 0.018963
v 0.024713 -0.009320 0.019281
v 0.024679 -0.009024 0.019758
v 0.024853 -0.009014 0.019448
v 0.024740 -0.008886 0.019709
v 0.024740 -0.008886 -0.019709
v 0.024537 -0.009055 -0.019878
v 0.024464 -0.008886 -0.019967
v 0.024610 -0.008886 -0.019868
v 0.024610 0.008886 -0.019868
v 0.024464 0.008886 -0.019967
v 0.024449 0.009028 -0.019940
v 0.024730 0.006545 -0.019724
v 0.024601 0.006500 -0.019876
v 0.024983 0.008886 -0.018963
v 0.024969 0.009028 -0.018936
v -0.022838 0.014496 -0.009505
v -0.020213 0.014756 -0.012144
v -0.020181 0.014858 -0.011943
v 0.024310 0.008886 -0.020000
v -0.020170 0.014351 -0.012473
v -0.003882 0.014965 -0.019062
v -0.003793 0.014936 -0.019245
v -0.020894 0.015000 -0.010511
v -0.021024 0.014936 -0.011033
v -0.001724 -0.014633 -0.019868
v 0.024983 0.009031 -0.018667
v -0.001724 0.014984 -0.018963
v -0.001635 0.014965 -0.019062
v 0.024400 0.009500 -0.019062
v 0.024461 0.009506 0.018936
v 0.024850 0.009291 0.018667
v -0.020894 0.015000 0.010511
v -0.020060 0.014936 0.011749
v -0.003793 0.014984 0.018963
v -0.020019 0.014984 0.011479
v -0.023893 -0.015000 0.004262
v -0.024583 -0.014756 0.003581
v -0.024765 -0.014633 0.002863
v -0.024685 -0.014756 0.002828
v -0.024765 0.014633 0.002863
v -0.023933 -0.012405 -0.007028
v -0.024392 -0.014351 -0.005400
v -0.024728 -0.014351 -0.003663
v -0.024519 -0.014496 -0.004737
v -0.021902 -0.014496 0.010908
v -0.021041 -0.014633 0.011705
v -0.004004 -0.014719 0.019687
v -0.023502 -0.015000 -0.005833
v -0.020100 -0.014984 -0.011432
v -0.020143 -0.014936 -0.011701
v -0.003793 -0.014984 -0.018963
v -0.020019 -0.014984 0.011479
v -0.020846 -0.014984 0.010882
v -0.020238 -0.014633 -0.012296
v -0.021164 -0.014633 -0.011594
v -0.001724 -0.014936 -0.019245
v -0.020181 -0.014858 -0.011943
v -0.003793 -0.014936 -0.019245
v -0.003793 -0.015000 -0.018667
v -0.001724 -0.014984 -0.018963
v -0.022679 -0.014351 -0.009825
v -0.022054 -0.014496 -0.010713
v -0.022838 -0.014496 -0.009505
v -0.021186 -0.014496 -0.011682
v 0.024829 -0.009253 -0.019120
v 0.024740 -0.009394 -0.018667
v -0.024084 -0.014496 0.006483
v -0.024728 -0.014351 0.003663
v -0.024519 -0.014496 0.004737
v -0.024711 -0.014496 0.003653
v -0.024864 -0.014633 0.001831
v -0.024815 -0.014496 0.002885
v -0.020165 0.014496 0.012441
v -0.021007 0.014756 0.011561
v -0.020961 0.014858 0.011369
v -0.003793 0.014756 0.019709
v -0.023893 0.015000 0.004262
v -0.023893 0.015000 -0.004262
v -0.024711 0.014496 0.003653
v -0.024330 0.014633 0.005346
v -0.022679 0.014351 0.009825
v -0.022679 -0.014351 0.009825
v -0.021874 0.014633 0.010825
v -0.022635 0.014633 0.009725
v -0.024783 0.014756 0.001809
v -0.024913 0.014633 0.000962
v -0.024913 0.014633 -0.000962
v -0.024711 0.014496 -0.003653
v -0.024914 0.014496 -0.001845
v -0.024084 0.014496 -0.006483
v -0.024040 0.014633 -0.006434
v -0.024330 0.014633 -0.005346
v -0.024783 0.014756 -0.001809
v -0.024172 0.014936 -0.004474
v -0.024037 0.014936 -0.005087
v -0.024578 0.014858 -0.002781
v -0.023244 0.014756 -0.008323
v -0.023161 0.014858 -0.008184
v 0.024853 -0.009266 0.018928
v 0.024850 -0.008886 0.019498
v 0.024390 -0.006466 -0.019991
v 0.024601 -0.006500 -0.019876
v 0.024469 0.006474 -0.019964
v 0.024730 -0.006545 -0.019724
v 0.024701 -0.009085 -0.019687
v 0.024740 0.008886 -0.019709
v 0.024361 -0.008996 -0.019977
v 0.024446 0.009397 -0.019448
v 0.024621 0.009074 -0.019793
v -0.023358 0.014351 -0.008513
v -0.003932 0.014493 -0.019940
v -0.003928 0.014861 -0.019448
v -0.020143 0.014936 -0.011701
v -0.021081 0.014858 -0.011260
v -0.001724 -0.014496 -0.019967
v 0.024310 -0.009031 -0.019967
v 0.024310 -0.009168 -0.019868
v -0.003793 -0.014633 -0.019868
v -0.001724 0.014936 -0.019245
v -0.001724 0.014858 -0.019498
v 0.024713 0.009185 0.019558
v 0.024509 0.009179 0.019793
v 0.024679 0.009024 0.019758
v 0.024610 0.008886 0.019868
v 0.024461 0.009017 0.019940
v -0.001525 0.014899 0.019268
v 0.024310 0.009291 0.019709
v 0.024679 0.009417 0.018950
v -0.001573 0.014971 0.018936
v 0.024740 0.009394 0.018667
v -0.020055 0.015000 0.011148
v -0.023502 -0.015000 0.005833
v -0.023905 -0.014984 0.004970
v -0.021621 -0.014984 0.010064
v -0.021700 -0.014936 0.010301
v -0.024662 -0.014633 0.003625
v -0.023358 -0.014351 -0.008513
v -0.023806 -0.014756 -0.006871
v -0.023969 -0.014756 -0.006355
v -0.024040 -0.014633 -0.006434
v -0.023933 -0.014351 -0.007028
v -0.023519 -0.014496 -0.008085
v -0.023918 -0.014496 -0.007010
v -0.024964 -0.014496 -0.000969
v -0.024983 -0.014496 0.000000
v -0.024293 -0.015000 0.000872
v -0.024464 -0.014984 0.000000
v -0.023893 -0.015000 -0.004262
v -0.023905 -0.014984 -0.004970
v -0.020055 -0.015000 -0.011148
v -0.020961 -0.014984 -0.010779
v -0.022025 -0.014633 -0.010632
v -0.021979 -0.014756 -0.010501
v -0.022747 -0.014756 -0.009316
v -0.021917 -0.014858 -0.010326
v -0.021081 -0.014858 -0.011260
v -0.021675 -0.015000 -0.009639
v -0.021762 -0.014984 -0.009885
v -0.022485 -0.014984 -0.008770
v -0.021844 -0.014936 -0.010117
v 0.024610 -0.009471 -0.018667
v 0.024850 -0.009291 -0.018667
v 0.024758 -0.009378 -0.018767
v -0.024377 -0.014496 0.005387
v -0.024783 -0.014756 0.001809
v -0.024964 -0.014496 0.000969
v -0.024914 -0.014496 0.001845
v -0.003793 0.014633 0.019868
v -0.001724 0.014633 0.019868
v -0.024610 0.014936 0.000000
v -0.024592 0.014936 0.000915
v -0.024447 0.014984 0.000894
v -0.024478 0.014858 0.003521
v -0.024353 0.014936 0.003450
v -0.024464 0.014984 0.000000
v -0.024447 0.014984 -0.000894
v -0.024293 0.015000 0.000872
v -0.024662 0.014633 0.003625
v -0.023874 0.014858 0.006249
v -0.023714 0.014858 0.006757
v -0.023604 0.014936 0.006620
v -0.023969 0.014756 0.006355
v -0.024255 0.014756 0.005280
v -0.024156 0.014858 0.005192
v -0.023806 0.014756 0.006871
v -0.022581 0.014756 0.009605
v -0.022509 0.014858 0.009445
v -0.023244 0.014756 0.008323
v -0.023480 0.014633 0.008023
v -0.023306 0.014633 0.008427
v -0.022635 -0.014633 0.009725
v -0.022581 -0.014756 0.009605
v -0.021830 -0.014756 0.010692
v -0.023358 -0.014351 0.008513
v -0.021830 0.014756 0.010692
v -0.024831 0.014756 0.000950
v -0.024850 0.014756 0.000000
v -0.024675 0.014858 0.001779
v -0.024545 0.014936 0.001743
v -0.024932 0.014633 0.000000
v -0.023969 0.014756 -0.006355
v -0.023806 0.014756 -0.006871
v -0.023875 0.014633 -0.006957
v -0.023635 0.014984 -0.005982
v -0.023604 0.014936 -0.006620
v -0.023761 0.014936 -0.006123
v -0.023228 0.014936 -0.007635
v -0.023063 0.014936 -0.008019
v -0.023330 0.014858 -0.007792
v -0.022485 0.014984 -0.008770
v -0.024831 0.014756 -0.000950
v -0.024675 0.014858 -0.001779
v -0.024353 0.014936 -0.003450
v -0.023415 0.014756 -0.007924
v 0.024963 -0.009079 0.018839
v 0.024390 0.006466 -0.019991
v 0.024469 -0.006474 -0.019964
v 0.024545 -0.009253 -0.019669
v 0.024847 0.006610 -0.019504
v 0.024875 0.009233 -0.018950
v 0.024596 0.009412 -0.019219
v 0.024772 0.009265 -0.019281
v 0.024628 0.009265 -0.019558
v 0.024774 0.009089 -0.019562
v -0.023345 0.014496 -0.008491
v -0.020238 0.014633 -0.012296
v -0.003793 0.014858 -0.019498
v -0.003793 0.014756 -0.019709
v -0.021979 0.014756 -0.010501
v -0.001724 -0.014351 -0.020000
v -0.003793 -0.014496 -0.019967
v -0.003793 0.014351 -0.020000
v 0.024310 0.009031 -0.019967
v -0.001724 0.014496 -0.019967
v -0.001724 0.014633 -0.019868
v 0.024310 0.009168 -0.019868
v -0.001724 0.014756 -0.019709
v 0.024310 0.009291 -0.019709
v -0.001578 0.014698 -0.019758
v 0.024457 0.009233 -0.019758
v 0.024740 0.008886 0.019709
v 0.024310 0.008886 0.020000
v -0.022994 0.015000 0.007274
v -0.021771 -0.014858 0.010514
v -0.020907 -0.014936 0.011139
v -0.022380 -0.015000 0.008552
v -0.024578 -0.014858 0.002781
v -0.024377 -0.014496 -0.005387
v -0.023345 -0.014496 -0.008491
v -0.023306 -0.014633 -0.008427
v -0.023875 -0.014633 -0.006957
v -0.024914 -0.014496 -0.001845
v -0.021874 -0.014633 0.010825
v -0.021128 -0.014756 -0.011451
v -0.021024 -0.014936 -0.011033
v -0.023480 -0.014633 -0.008023
v -0.023244 -0.014756 -0.008323
v -0.023161 -0.014858 -0.008184
v -0.022803 -0.014633 -0.009433
v -0.022673 -0.014858 -0.009162
v -0.022994 -0.015000 -0.007274
v -0.023481 -0.014984 -0.006468
v -0.024913 -0.014633 0.000962
v -0.024831 -0.014756 0.000950
v -0.024932 -0.014633 0.000000
v -0.001724 0.014496 0.019967
v -0.001509 0.014787 0.019562
v 0.024310 0.009168 0.019868
v -0.024293 0.014858 0.004566
v -0.024451 0.014936 0.002725
v -0.023635 0.014984 0.005982
v -0.023481 0.014984 0.006468
v -0.023905 0.014984 0.004970
v -0.024036 0.014984 0.004371
v -0.024213 0.014984 0.003370
v -0.024309 0.014984 0.002662
v -0.024401 0.014984 0.001703
v -0.024401 0.014984 -0.001703
v -0.024159 0.015000 -0.002596
v -0.024309 0.014984 -0.002662
v -0.024037 0.014936 0.005087
v -0.023330 0.014858 0.007792
v -0.023415 0.014756 0.007924
v -0.022668 -0.014496 0.009799
v -0.021771 0.014858 0.010514
v -0.021700 0.014936 0.010301
v -0.024722 0.014858 0.000934
v -0.024156 0.014858 -0.005192
v -0.023502 0.015000 -0.005833
v -0.023905 0.014984 -0.004970
v -0.023114 0.014984 -0.007459
v -0.021762 0.014984 -0.009885
v -0.021844 0.014936 -0.010117
v -0.024740 0.014858 0.000000
v -0.024451 0.014936 -0.002725
v -0.024545 0.014936 -0.001743
v -0.024478 0.014858 -0.003521
v 0.024963 -0.008971 0.019062
v 0.024893 0.009074 -0.019268
v 0.024714 0.009397 -0.018928
v -0.003793 0.014633 -0.019868
v -0.001724 0.014351 -0.020000
v -0.003947 0.014351 -0.019967
v -0.001589 0.014861 -0.019448
v -0.020907 0.014936 0.011139
v -0.022424 0.014936 0.009254
v -0.022328 0.014984 0.009041
v -0.023063 0.014936 0.008019
v -0.022380 0.015000 0.008552
v -0.023114 0.014984 0.007459
v -0.022328 -0.014984 0.009041
v -0.022424 -0.014936 0.009254
v -0.022952 -0.014984 0.007834
v -0.022509 -0.014858 0.009445
v -0.021007 -0.014756 0.011561
v -0.022994 -0.015000 0.007274
v -0.023481 -0.014984 0.006468
v -0.021675 -0.015000 0.009639
v -0.024675 -0.014858 0.001779
v -0.024722 -0.014858 0.000934
v -0.024084 -0.014496 -0.006483
v -0.024159 -0.015000 0.002596
v -0.024213 -0.014984 0.003370
v -0.024309 -0.014984 0.002662
v -0.023635 -0.014984 -0.005982
v -0.023714 -0.014858 -0.006757
v -0.024159 -0.015000 -0.002596
v -0.024401 -0.014984 -0.001703
v -0.024309 -0.014984 -0.002662
v -0.022584 -0.014936 -0.008976
v -0.022952 -0.014984 -0.007834
v -0.023063 -0.014936 -0.008019
v -0.022380 -0.015000 -0.008552
v -0.023114 -0.014984 -0.007459
v -0.024330 -0.014633 0.005346
v -0.023635 -0.014984 0.005982
v -0.023604 -0.014936 0.006620
v -0.023761 -0.014936 0.006123
v -0.023306 -0.014633 0.008427
v -0.001724 0.014858 0.019498
v 0.024310 0.009031 0.019967
v -0.023502 0.015000 0.005833
v -0.024159 0.015000 0.002596
v -0.023761 0.014936 0.006123
v -0.024172 0.014936 0.004474
v -0.023161 0.014858 0.008184
v -0.023228 0.014936 0.007635
v -0.023874 0.014858 -0.006249
v -0.024213 0.014984 -0.003370
v -0.023481 0.014984 -0.006468
v -0.022952 0.014984 -0.007834
v -0.022584 0.014936 -0.008976
v -0.022673 0.014858 -0.009162
v -0.021917 0.014858 -0.010326
v -0.024722 0.014858 -0.000934
v 0.024869 -0.009155 0.019219
v -0.003793 0.014496 -0.019967
v -0.003939 0.014698 -0.019758
v -0.020846 0.014984 0.010882
v -0.021675 0.015000 0.009639
v -0.020961 -0.014858 0.011369
v -0.020894 -0.015000 0.010511
v -0.024592 -0.014936 0.000915
v -0.024815 -0.014496 -0.002885
v -0.024255 -0.014756 -0.005280
v -0.024036 -0.014984 0.004371
v -0.023228 -0.014936 -0.007635
v -0.023415 -0.014756 -0.007924
v -0.024478 -0.014858 0.003521
v -0.024353 -0.014936 0.003450
v -0.024293 -0.014858 0.004566
v -0.024156 -0.014858 0.005192
v -0.024255 -0.014756 0.005280
v -0.024395 -0.014756 0.004643
v -0.024472 -0.014633 0.004701
v -0.023228 -0.014936 0.007635
v -0.023330 -0.014858 0.007792
v -0.024040 -0.014633 0.006434
v -0.023969 -0.014756 0.006355
v -0.023806 -0.014756 0.006871
v -0.023875 -0.014633 0.006957
v -0.023345 -0.014496 0.008491
v -0.023161 -0.014858 0.008184
v -0.001724 0.014756 0.019709
v -0.023714 0.014858 -0.006757
v -0.024036 0.014984 -0.004371
v -0.024592 0.014936 -0.000915
v -0.021621 0.014984 0.010064
v -0.024850 -0.014756 0.000000
v -0.024913 -0.014633 -0.000962
v -0.024831 -0.014756 -0.000950
v -0.024401 -0.014984 0.001703
v -0.024711 -0.014496 -0.003653
v -0.024662 -0.014633 -0.003625
v -0.024156 -0.014858 -0.005192
v -0.024330 -0.014633 -0.005346
v -0.023604 -0.014936 -0.006620
v -0.023761 -0.014936 -0.006123
v -0.023330 -0.014858 -0.007792
v -0.023874 -0.014858 0.006249
v -0.024037 -0.014936 0.005087
v -0.023114 -0.014984 0.007459
v -0.023063 -0.014936 0.008019
v -0.023415 -0.014756 0.007924
v -0.023519 -0.014496 0.008085
v -0.024447 -0.014984 -0.000894
v -0.024592 -0.014936 -0.000915
v -0.024740 -0.014858 0.000000
v -0.024610 -0.014936 0.000000
v -0.024864 -0.014633 -0.001831
v -0.024451 -0.014936 -0.002725
v -0.024675 -0.014858 -0.001779
v -0.024578 -0.014858 -0.002781
v -0.024447 -0.014984 0.000894
v -0.024451 -0.014936 0.002725
v -0.023874 -0.014858 -0.006249
v -0.024037 -0.014936 -0.005087
v -0.023714 -0.014858 0.006757
v -0.024172 -0.014936 0.004474
v -0.023244 -0.014756 0.008323
v -0.023918 -0.014496 0.007010
v -0.023480 -0.014633 0.008023
v -0.024685 -0.014756 -0.002828
v -0.024353 -0.014936 -0.003450
v -0.024478 -0.014858 -0.003521
v -0.024472 -0.014633 -0.004701
v -0.024395 -0.014756 -0.004643
v -0.024722 -0.014858 -0.000934
v -0.024545 -0.014936 -0.001743
v -0.024545 -0.014936 0.001743
v -0.024583 -0.014756 -0.003581
v -0.024765 -0.014633 -0.002863
v -0.024783 -0.014756 -0.001809
v -0.024293 -0.014858 -0.004566
v -0.024036 -0.014984 -0.004371
v -0.024172 -0.014936 -0.004474
v -0.024213 -0.014984 -0.003370
f 1 2 3
f 4 5 6
f 7 8 9
f 10 2 1
f 11 6 5
f 11 4 6
f 12 5 4
f 13 1 3
f 14 12 4
f 15 16 17
f 18 17 19
f 20 19 17
f 21 22 23
f 21 23 24
f 25 21 24
f 25 24 18
f 26 8 7
f 27 28 29
f 30 23 22
f 31 30 22
f 31 22 21
f 32 30 33
f 34 29 28
f 35 36 27
f 35 27 29
f 37 38 39
f 37 39 40
f 41 9 8
f 42 43 44
f 45 46 47
f 48 49 50
f 51 3 2
f 52 4 11
f 53 5 12
f 54 13 3
f 55 12 14
f 55 14 56
f 55 57 58
f 59 17 18
f 59 15 17
f 60 19 20
f 60 25 18
f 60 18 19
f 61 28 27
f 61 34 28
f 62 63 64
f 62 64 36
f 65 66 40
f 65 40 39
f 67 7 9
f 68 27 36
f 68 36 64
f 69 25 31
f 69 31 21
f 69 21 25
f 70 30 32
f 70 23 30
f 71 35 29
f 72 66 63
f 72 63 62
f 73 15 44
f 73 16 15
f 74 9 41
f 74 67 9
f 75 23 70
f 75 70 76
f 75 24 23
f 77 42 44
f 77 44 15
f 77 15 59
f 77 59 18
f 78 48 50
f 79 41 8
f 79 8 26
f 80 81 82
f 83 84 85
f 86 3 51
f 87 88 89
f 90 38 91
f 90 39 38
f 92 89 88
f 93 94 53
f 93 53 12
f 95 5 53
f 96 84 97
f 96 97 98
f 96 85 84
f 99 100 101
f 102 57 55
f 102 55 56
f 103 16 104
f 103 104 105
f 103 105 17
f 103 17 16
f 106 4 52
f 107 60 20
f 108 66 65
f 108 63 66
f 109 110 111
f 109 111 112
f 113 114 115
f 116 46 45
f 117 67 118
f 119 118 67
f 120 119 67
f 121 88 87
f 121 87 122
f 123 124 113
f 123 113 115
f 125 91 92
f 125 90 91
f 126 127 128
f 126 115 114
f 129 27 68
f 129 61 27
f 130 30 31
f 130 33 30
f 131 33 130
f 131 132 33
f 133 134 135
f 136 137 71
f 136 71 29
f 138 11 5
f 138 106 52
f 138 52 11
f 139 35 71
f 140 132 141
f 140 29 34
f 142 143 72
f 142 72 62
f 144 145 37
f 144 37 40
f 146 147 38
f 148 73 44
f 149 150 151
f 149 43 45
f 149 45 47
f 152 149 47
f 152 47 74
f 152 74 41
f 153 120 67
f 153 47 46
f 154 24 75
f 155 2 10
f 156 41 79
f 157 156 79
f 158 80 159
f 158 159 155
f 158 155 10
f 160 159 80
f 160 80 82
f 160 82 78
f 160 78 155
f 160 155 159
f 161 97 84
f 161 84 83
f 161 10 1
f 161 1 162
f 163 50 49
f 163 49 164
f 165 50 163
f 166 3 86
f 166 162 1
f 166 1 13
f 166 13 54
f 166 54 3
f 167 122 87
f 167 168 122
f 169 170 171
f 169 171 89
f 172 169 89
f 172 89 92
f 172 92 91
f 173 112 111
f 174 87 89
f 174 89 171
f 174 171 175
f 174 167 87
f 176 171 170
f 176 170 177
f 176 175 171
f 178 94 93
f 178 93 12
f 179 5 95
f 180 53 94
f 181 114 182
f 181 127 114
f 183 57 102
f 183 102 56
f 184 185 186
f 184 186 162
f 187 97 161
f 187 161 162
f 187 162 186
f 187 98 97
f 188 189 183
f 188 183 56
f 190 101 98
f 190 98 187
f 190 187 186
f 191 192 193
f 191 4 106
f 194 100 99
f 195 62 36
f 196 64 63
f 196 63 108
f 197 168 110
f 197 110 109
f 197 122 168
f 198 70 32
f 199 154 75
f 200 116 45
f 200 45 43
f 201 117 118
f 202 119 120
f 203 122 197
f 203 197 204
f 203 121 122
f 205 128 206
f 205 206 26
f 205 26 7
f 207 117 201
f 207 205 7
f 207 7 67
f 207 67 117
f 208 127 126
f 208 126 114
f 208 114 127
f 209 210 211
f 209 211 206
f 209 206 128
f 209 128 127
f 212 129 68
f 212 61 129
f 213 214 131
f 213 131 130
f 215 193 192
f 215 192 216
f 217 134 25
f 217 25 60
f 217 60 107
f 218 214 133
f 218 133 135
f 218 215 216
f 219 138 5
f 220 139 71
f 220 71 137
f 221 36 35
f 221 35 139
f 222 223 224
f 225 223 226
f 227 136 29
f 227 29 140
f 227 140 141
f 228 140 34
f 228 198 32
f 228 32 33
f 229 142 62
f 229 62 195
f 229 195 230
f 231 66 72
f 231 72 143
f 232 40 66
f 233 234 232
f 233 232 235
f 233 235 236
f 237 238 234
f 237 234 233
f 237 233 236
f 239 238 240
f 239 144 234
f 239 234 238
f 241 238 237
f 241 240 238
f 242 243 244
f 242 170 243
f 245 244 147
f 245 147 146
f 246 73 148
f 246 148 150
f 246 150 247
f 246 16 73
f 248 151 150
f 248 150 148
f 248 148 44
f 248 44 43
f 248 43 149
f 248 149 151
f 249 150 149
f 249 149 152
f 250 74 47
f 250 47 153
f 250 153 67
f 250 67 74
f 251 153 46
f 251 46 116
f 252 24 154
f 252 154 42
f 252 42 77
f 252 77 18
f 252 18 24
f 253 50 165
f 253 86 51
f 253 51 2
f 253 2 155
f 253 155 78
f 253 78 50
f 254 41 156
f 254 150 249
f 254 249 152
f 254 152 41
f 255 158 10
f 255 10 161
f 255 161 83
f 256 247 150
f 256 150 254
f 256 254 156
f 257 247 258
f 257 258 259
f 257 259 104
f 257 104 16
f 257 16 246
f 257 246 247
f 260 164 49
f 261 262 263
f 264 265 266
f 264 267 263
f 264 263 268
f 264 268 265
f 269 86 253
f 269 253 165
f 269 165 270
f 269 270 166
f 269 166 86
f 271 243 170
f 271 170 169
f 271 169 172
f 271 244 243
f 272 176 177
f 272 177 273
f 274 112 173
f 274 266 265
f 275 167 174
f 275 174 175
f 275 168 167
f 276 94 178
f 276 178 277
f 278 53 180
f 278 180 95
f 278 95 53
f 279 180 94
f 280 114 113
f 280 182 114
f 281 270 184
f 281 184 162
f 281 162 166
f 281 166 270
f 282 277 178
f 282 178 12
f 282 12 55
f 283 282 55
f 283 55 58
f 283 58 57
f 283 57 284
f 285 188 56
f 286 185 189
f 286 190 186
f 286 186 185
f 287 138 219
f 287 106 138
f 288 216 192
f 289 106 290
f 289 290 288
f 289 288 192
f 289 192 191
f 289 191 106
f 291 119 202
f 291 118 119
f 292 293 294
f 295 223 222
f 295 222 230
f 295 230 195
f 296 90 125
f 296 39 90
f 297 65 39
f 297 39 296
f 298 65 297
f 298 297 299
f 298 108 65
f 300 76 70
f 300 70 198
f 301 76 300
f 301 200 199
f 301 199 75
f 301 75 76
f 302 199 200
f 302 200 43
f 302 43 42
f 302 42 154
f 302 154 199
f 303 201 118
f 304 305 306
f 307 153 251
f 307 251 308
f 307 308 202
f 307 202 120
f 307 120 153
f 309 123 310
f 309 310 203
f 309 203 204
f 309 204 124
f 309 124 123
f 311 126 128
f 311 128 205
f 311 115 126
f 312 123 115
f 313 306 305
f 313 305 312
f 313 312 115
f 313 115 311
f 313 311 306
f 314 306 207
f 314 207 201
f 314 304 306
f 315 205 207
f 315 207 306
f 315 306 311
f 315 311 205
f 316 92 88
f 316 88 317
f 316 317 318
f 316 125 92
f 319 203 310
f 319 317 88
f 319 88 121
f 319 121 203
f 320 211 210
f 320 210 48
f 320 48 78
f 320 78 82
f 321 157 79
f 322 61 212
f 323 324 212
f 323 212 68
f 323 68 64
f 323 325 324
f 326 294 293
f 327 325 323
f 327 323 64
f 327 326 293
f 328 31 25
f 328 25 134
f 328 134 133
f 328 133 214
f 328 214 213
f 328 213 130
f 328 130 31
f 329 214 218
f 329 218 216
f 329 216 330
f 331 215 218
f 331 218 135
f 332 287 219
f 333 219 5
f 334 195 36
f 334 36 221
f 335 226 221
f 335 221 139
f 335 139 220
f 336 140 228
f 336 228 33
f 336 33 132
f 336 132 140
f 337 198 228
f 337 228 34
f 338 131 214
f 338 339 132
f 338 132 131
f 340 230 222
f 341 142 229
f 341 229 230
f 341 230 340
f 341 143 142
f 342 231 143
f 343 40 232
f 343 232 234
f 343 234 144
f 343 144 40
f 344 235 232
f 344 232 66
f 344 66 231
f 344 231 342
f 344 342 235
f 345 145 346
f 345 146 38
f 345 38 37
f 345 37 145
f 347 239 240
f 347 240 346
f 347 346 145
f 347 145 144
f 347 144 239
f 348 236 235
f 349 350 241
f 351 237 236
f 352 353 242
f 352 242 244
f 354 81 80
f 354 256 156
f 354 156 157
f 354 157 81
f 355 85 259
f 355 259 258
f 355 258 83
f 355 83 85
f 356 265 262
f 356 262 112
f 356 112 274
f 357 268 263
f 357 263 262
f 358 265 268
f 358 268 357
f 358 262 265
f 359 267 260
f 359 260 263
f 359 263 267
f 360 48 210
f 360 261 263
f 360 263 260
f 360 260 49
f 360 49 48
f 361 164 260
f 361 260 267
f 361 267 264
f 362 112 262
f 362 262 261
f 363 283 284
f 364 361 264
f 364 264 266
f 365 91 38
f 365 38 147
f 365 271 172
f 365 172 91
f 366 275 175
f 367 272 273
f 368 273 279
f 368 279 94
f 368 94 276
f 368 276 277
f 368 277 367
f 368 367 273
f 369 279 273
f 369 273 177
f 370 362 371
f 370 371 280
f 372 182 280
f 372 280 371
f 372 371 362
f 372 362 261
f 372 261 182
f 373 370 280
f 373 280 113
f 373 113 124
f 373 124 204
f 374 375 277
f 374 277 282
f 374 282 283
f 376 101 100
f 376 100 377
f 376 377 378
f 376 378 96
f 376 96 98
f 376 98 101
f 379 104 259
f 379 105 104
f 380 105 379
f 380 379 378
f 380 378 377
f 381 194 99
f 382 377 100
f 383 188 285
f 383 285 99
f 383 99 101
f 383 101 190
f 384 14 4
f 384 4 191
f 384 191 193
f 384 193 381
f 384 381 99
f 384 99 285
f 384 285 56
f 384 56 14
f 385 188 383
f 385 383 190
f 385 190 286
f 385 286 189
f 385 189 188
f 386 106 287
f 386 290 106
f 387 291 202
f 387 388 291
f 389 308 390
f 391 325 327
f 391 327 293
f 391 293 292
f 391 324 325
f 392 296 125
f 392 125 316
f 392 316 318
f 393 394 395
f 396 297 296
f 396 296 392
f 396 392 397
f 396 397 398
f 399 400 196
f 399 196 108
f 401 402 118
f 401 118 291
f 403 303 118
f 404 303 403
f 405 304 314
f 405 314 201
f 405 201 406
f 405 406 304
f 407 317 319
f 407 319 310
f 407 408 409
f 407 318 317
f 410 409 408
f 410 408 411
f 412 201 303
f 412 406 201
f 413 406 412
f 413 412 414
f 413 414 415
f 416 26 206
f 416 206 211
f 416 321 79
f 416 79 26
f 417 82 81
f 417 320 82
f 418 320 417
f 418 417 81
f 418 81 157
f 418 157 321
f 418 321 416
f 418 416 211
f 418 211 320
f 419 322 212
f 419 212 324
f 420 294 326
f 421 64 196
f 421 196 400
f 422 326 327
f 422 327 64
f 422 64 421
f 423 134 217
f 423 217 424
f 423 424 331
f 423 331 135
f 423 135 134
f 425 426 427
f 428 429 224
f 428 224 223
f 430 431 425
f 430 425 427
f 430 219 431
f 432 332 219
f 432 219 430
f 432 430 427
f 433 226 223
f 433 223 295
f 433 295 195
f 433 195 334
f 433 334 221
f 433 221 226
f 434 435 436
f 434 437 435
f 438 225 226
f 438 226 335
f 438 335 220
f 438 220 437
f 438 437 434
f 438 434 439
f 440 435 437
f 440 437 220
f 440 220 137
f 441 442 443
f 441 443 339
f 444 137 136
f 444 136 227
f 445 339 443
f 445 444 227
f 445 227 141
f 445 141 132
f 445 132 339
f 446 447 448
f 449 337 34
f 449 34 61
f 450 441 339
f 450 339 338
f 450 338 214
f 450 214 329
f 451 452 341
f 451 341 340
f 453 454 426
f 453 451 340
f 453 340 222
f 453 222 224
f 455 341 452
f 455 452 342
f 455 342 143
f 455 143 341
f 456 457 346
f 456 346 240
f 458 346 457
f 458 245 146
f 458 146 345
f 458 345 346
f 459 460 461
f 459 461 350
f 462 463 353
f 462 353 464
f 462 464 460
f 465 179 95
f 466 348 235
f 466 235 342
f 466 342 452
f 467 348 466
f 467 351 236
f 467 236 348
f 468 349 241
f 469 245 458
f 469 458 457
f 469 464 353
f 469 353 352
f 469 352 244
f 469 244 245
f 470 158 255
f 470 354 80
f 470 80 158
f 471 265 356
f 471 356 274
f 471 274 265
f 472 262 358
f 472 358 357
f 472 357 262
f 473 182 261
f 473 261 360
f 473 360 210
f 473 210 209
f 473 209 127
f 473 127 181
f 473 181 182
f 474 164 361
f 474 361 163
f 474 163 164
f 475 185 184
f 475 184 270
f 476 477 478
f 476 478 363
f 476 363 284
f 476 284 57
f 479 163 361
f 479 361 364
f 479 364 478
f 479 478 477
f 480 271 365
f 480 365 147
f 480 147 244
f 480 244 271
f 481 366 175
f 481 175 176
f 481 176 272
f 482 375 483
f 482 483 367
f 482 367 277
f 482 277 375
f 484 170 242
f 484 369 177
f 484 177 170
f 485 112 362
f 485 362 370
f 485 370 109
f 485 109 112
f 486 197 109
f 486 109 370
f 486 370 373
f 486 373 204
f 486 204 197
f 487 173 111
f 487 111 110
f 487 274 173
f 488 489 490
f 488 490 491
f 488 491 266
f 488 266 274
f 492 493 494
f 492 494 490
f 492 490 483
f 492 483 375
f 495 491 490
f 495 490 494
f 495 494 493
f 495 493 363
f 495 363 478
f 495 478 364
f 495 364 266
f 495 266 491
f 496 85 96
f 496 96 378
f 496 378 379
f 496 379 259
f 496 259 85
f 497 105 380
f 497 107 20
f 497 20 17
f 497 17 105
f 498 287 332
f 499 448 447
f 500 251 116
f 500 499 390
f 500 390 308
f 500 308 251
f 501 387 202
f 502 292 294
f 503 299 297
f 504 397 392
f 504 392 318
f 504 318 505
f 504 505 397
f 506 393 395
f 507 399 108
f 508 446 448
f 508 448 301
f 508 301 300
f 509 310 123
f 509 123 312
f 509 312 411
f 509 411 408
f 509 408 407
f 509 407 310
f 510 415 410
f 510 410 411
f 510 411 312
f 510 312 305
f 510 305 304
f 510 304 406
f 510 406 413
f 510 413 415
f 511 506 398
f 511 398 397
f 511 397 505
f 512 505 409
f 512 409 513
f 514 409 505
f 514 505 318
f 514 318 407
f 514 407 409
f 515 513 409
f 515 409 410
f 515 410 415
f 516 412 303
f 516 303 517
f 518 519 420
f 518 420 326
f 518 326 422
f 518 422 421
f 518 421 400
f 518 400 520
f 521 424 217
f 521 217 107
f 522 100 194
f 522 382 100
f 523 377 382
f 523 382 424
f 523 380 377
f 524 225 438
f 524 438 439
f 524 429 428
f 524 428 223
f 524 223 225
f 525 454 453
f 525 453 224
f 525 224 429
f 526 436 527
f 528 332 529
f 530 531 525
f 530 525 429
f 530 529 332
f 532 432 427
f 532 427 426
f 532 426 454
f 532 454 525
f 532 525 531
f 533 431 219
f 534 535 533
f 534 533 219
f 534 219 333
f 536 439 434
f 536 526 528
f 536 528 529
f 536 524 439
f 537 436 435
f 538 440 137
f 538 137 444
f 538 444 445
f 538 445 443
f 538 443 537
f 538 537 435
f 538 435 440
f 539 337 449
f 539 446 508
f 539 508 300
f 539 300 198
f 539 198 337
f 540 541 442
f 540 442 441
f 540 441 450
f 540 450 329
f 540 329 330
f 542 451 453
f 542 453 426
f 542 426 425
f 542 452 451
f 543 241 350
f 543 350 461
f 543 456 240
f 543 240 241
f 544 333 5
f 545 333 544
f 545 544 459
f 545 459 350
f 545 350 349
f 546 462 460
f 547 180 279
f 547 279 548
f 547 548 465
f 547 465 95
f 547 95 180
f 549 452 542
f 549 542 425
f 550 551 533
f 550 533 535
f 550 468 351
f 550 351 467
f 550 467 551
f 552 351 468
f 552 468 241
f 552 241 237
f 552 237 351
f 553 83 258
f 553 470 255
f 553 255 83
f 554 477 475
f 554 475 270
f 554 270 165
f 554 165 163
f 554 163 479
f 554 479 477
f 555 183 189
f 555 189 185
f 555 185 475
f 555 475 477
f 555 477 476
f 555 476 57
f 555 57 183
f 556 483 490
f 556 490 489
f 557 274 487
f 557 487 489
f 557 489 488
f 557 488 274
f 558 110 168
f 558 168 275
f 558 275 366
f 558 366 487
f 558 487 110
f 559 363 493
f 559 493 492
f 559 492 375
f 559 375 374
f 559 374 283
f 559 283 363
f 560 541 540
f 560 540 330
f 560 330 216
f 560 216 288
f 561 442 541
f 561 541 562
f 561 562 563
f 561 563 442
f 564 287 498
f 565 562 564
f 565 564 498
f 565 498 527
f 565 527 436
f 565 563 562
f 566 389 390
f 566 390 567
f 566 567 568
f 566 568 501
f 569 567 390
f 569 390 499
f 569 499 447
f 570 301 448
f 570 448 499
f 570 116 200
f 570 200 301
f 571 387 501
f 571 501 568
f 571 572 387
f 573 389 566
f 573 566 501
f 573 501 202
f 574 420 519
f 574 519 575
f 574 502 294
f 574 294 420
f 576 396 398
f 576 398 506
f 576 506 395
f 576 395 503
f 576 503 297
f 576 297 396
f 577 291 578
f 577 578 579
f 577 401 291
f 580 517 303
f 580 303 404
f 581 394 393
f 582 118 583
f 582 583 584
f 582 403 118
f 585 414 586
f 585 586 587
f 585 587 513
f 585 513 515
f 585 515 415
f 585 415 414
f 588 412 516
f 588 516 586
f 588 586 414
f 588 414 412
f 589 586 516
f 589 516 517
f 590 419 324
f 591 388 387
f 591 387 572
f 591 572 592
f 591 592 593
f 594 446 539
f 595 381 193
f 595 193 215
f 595 215 331
f 595 522 194
f 595 194 381
f 596 521 107
f 596 107 497
f 596 497 380
f 596 380 523
f 596 523 424
f 596 424 521
f 597 498 332
f 597 332 528
f 597 528 526
f 597 526 527
f 597 527 498
f 598 432 532
f 598 532 531
f 598 531 530
f 598 530 332
f 598 332 432
f 599 436 526
f 599 526 536
f 599 536 434
f 599 434 436
f 600 429 524
f 600 524 536
f 600 536 529
f 600 529 530
f 600 530 429
f 601 442 563
f 601 537 443
f 601 443 442
f 602 436 537
f 602 537 601
f 602 601 563
f 602 563 565
f 602 565 436
f 603 456 543
f 603 543 461
f 603 461 460
f 604 468 550
f 604 550 535
f 604 535 534
f 604 534 333
f 604 349 468
f 605 544 5
f 605 5 546
f 605 546 460
f 605 460 459
f 605 459 544
f 606 179 465
f 606 463 462
f 606 462 546
f 606 546 5
f 606 5 179
f 607 353 463
f 607 463 606
f 607 606 465
f 607 465 548
f 608 242 353
f 608 353 607
f 608 607 548
f 609 369 484
f 609 484 242
f 609 242 608
f 609 608 548
f 609 548 279
f 609 279 369
f 610 467 466
f 610 466 452
f 610 452 549
f 610 549 425
f 611 470 553
f 611 553 258
f 611 258 247
f 611 247 256
f 611 256 354
f 611 354 470
f 612 366 556
f 612 556 489
f 612 489 487
f 612 487 366
f 613 481 272
f 613 272 367
f 613 367 483
f 613 483 556
f 613 556 366
f 613 366 481
f 614 290 386
f 614 386 287
f 614 541 560
f 614 560 288
f 614 288 290
f 615 287 564
f 615 564 562
f 616 500 116
f 616 116 570
f 616 570 499
f 616 499 500
f 617 308 389
f 617 389 573
f 617 573 202
f 617 202 308
f 618 574 575
f 619 507 108
f 619 108 298
f 620 395 394
f 621 578 291
f 621 291 388
f 622 587 586
f 622 586 589
f 622 513 587
f 623 512 513
f 623 581 393
f 623 393 506
f 623 506 511
f 623 511 505
f 623 505 512
f 624 502 625
f 624 625 626
f 624 626 292
f 624 292 502
f 627 628 626
f 629 292 626
f 629 626 628
f 630 391 292
f 630 292 629
f 630 629 628
f 630 628 590
f 630 590 324
f 630 324 391
f 631 632 592
f 633 590 628
f 633 628 634
f 633 634 635
f 633 635 636
f 633 636 322
f 633 322 419
f 633 419 590
f 637 594 539
f 637 539 449
f 638 632 631
f 639 424 382
f 639 382 522
f 639 522 595
f 639 595 331
f 639 331 424
f 640 464 469
f 640 469 457
f 640 457 456
f 640 456 603
f 640 603 460
f 640 460 464
f 641 545 349
f 641 349 604
f 641 604 333
f 641 333 545
f 642 551 467
f 642 467 610
f 642 610 425
f 642 425 431
f 642 431 533
f 642 533 551
f 643 614 287
f 643 287 615
f 643 615 562
f 643 562 541
f 643 541 614
f 644 519 518
f 644 518 520
f 644 575 519
f 645 399 507
f 645 646 644
f 645 644 520
f 645 520 400
f 645 400 399
f 647 401 577
f 647 577 579
f 648 649 619
f 648 619 298
f 648 298 299
f 648 299 649
f 650 620 394
f 651 395 620
f 651 299 503
f 651 503 395
f 652 517 580
f 652 580 653
f 652 622 589
f 652 589 517
f 654 581 623
f 654 623 513
f 654 513 622
f 654 622 652
f 654 652 581
f 655 634 628
f 655 628 627
f 655 593 592
f 656 621 388
f 656 388 591
f 656 591 593
f 656 593 655
f 656 655 627
f 656 627 626
f 657 572 571
f 657 571 568
f 657 568 631
f 657 631 592
f 657 592 572
f 658 567 569
f 658 569 638
f 658 638 631
f 658 631 568
f 658 568 567
f 659 636 635
f 660 594 637
f 660 637 449
f 660 449 61
f 661 662 583
f 661 583 118
f 661 118 402
f 663 575 644
f 664 618 575
f 664 575 663
f 664 662 661
f 664 661 402
f 665 646 645
f 665 645 507
f 665 507 619
f 666 584 583
f 667 668 666
f 669 402 401
f 669 401 647
f 669 647 618
f 669 618 664
f 669 664 402
f 670 625 502
f 670 502 574
f 670 647 579
f 670 579 578
f 670 578 625
f 671 653 650
f 671 650 394
f 671 394 581
f 671 581 652
f 671 652 653
f 672 650 653
f 672 653 580
f 672 580 404
f 673 632 659
f 673 659 635
f 673 635 634
f 673 634 655
f 673 655 592
f 673 592 632
f 674 625 578
f 674 578 621
f 674 621 656
f 674 656 626
f 674 626 625
f 675 638 569
f 675 569 447
f 675 447 446
f 675 446 594
f 675 594 659
f 675 659 632
f 675 632 638
f 676 322 636
f 676 660 61
f 676 61 322
f 677 594 660
f 677 660 676
f 677 676 636
f 677 636 659
f 677 659 594
f 678 668 667
f 679 666 668
f 680 679 668
f 681 651 620
f 681 620 682
f 681 682 649
f 681 649 299
f 681 299 651
f 683 663 644
f 683 644 646
f 683 646 667
f 683 667 662
f 683 662 664
f 683 664 663
f 684 662 667
f 684 667 666
f 684 666 583
f 684 583 662
f 685 618 647
f 685 647 670
f 685 670 574
f 685 574 618
f 686 680 668
f 686 668 678
f 686 649 682
f 687 649 686
f 687 686 678
f 687 678 665
f 687 665 619
f 687 619 649
f 688 646 665
f 688 665 678
f 688 678 667
f 688 667 646
f 689 679 680
f 689 680 686
f 689 686 682
f 689 682 620
f 689 620 650
f 689 650 672
f 690 404 403
f 691 679 689
f 691 689 672
f 691 672 404
f 691 404 690
f 692 584 666
f 692 666 679
f 692 679 691
f 692 691 690
f 692 690 403
f 692 403 582
f 692 582 584
