# Convex hull collision mesh — generated by scripts/generate-collision-meshes.mjs
v 30.314505 -26.531555 -435.521210
v 41.814503 -19.031555 -435.521210
v 41.698414 -22.046555 -435.521210
v 23.214504 -14.031555 -272.473602
v 30.814505 -19.031555 -5.521196
v 49.414505 -14.031555 -272.473602
v 49.414505 -14.031555 -304.873596
v 41.814503 -19.031555 -5.521196
v 41.698414 -22.046555 -5.521196
v 31.393379 -22.046555 -5.521196
v 42.314503 -26.531555 -435.521210
v 30.814505 -19.031555 -435.521210
v 49.814503 -14.431556 -272.473602
v 25.098173 -14.031555 -299.751190
v 42.314503 -19.531555 -435.521210
v 41.814503 -27.031555 -5.521196
v 30.314505 -19.531555 -435.521210
v 22.914503 -23.631556 -311.373596
v 23.314505 -24.031555 -311.373596
v 23.214504 -24.031555 -304.873596
v 49.814503 -14.431556 -304.873596
v 49.814503 -23.631556 -304.873596
v 42.314503 -20.480467 -5.521196
v 42.314503 -19.531555 -5.521196
v 49.714504 -23.631556 -265.973602
v 23.214504 -14.031555 -304.873596
v 22.814505 -14.431556 -304.873596
v 41.814503 -27.031555 -435.521210
v 36.103565 -27.031555 -419.758423
v 34.564503 -27.031555 -193.021194
v 49.814503 -23.631556 -272.473602
v 22.914503 -15.031555 -311.373596
v 30.314505 -26.531555 -5.521196
v 49.714504 -23.631556 -311.373596
v 42.314503 -26.531555 -5.521196
v 49.714504 -15.031555 -265.973602
v 49.414505 -24.031555 -272.473602
v 30.814505 -27.031555 -435.521210
v 30.314505 -19.531555 -5.521196
v 22.914503 -23.631556 -265.973602
v 34.564503 -27.031555 -18.021196
v 22.814505 -23.631556 -304.873596
v 22.814505 -23.631556 -272.473602
v 30.814505 -27.031555 -5.521196
v 49.714504 -15.031555 -311.373596
v 49.314503 -24.031555 -265.973602
v 49.414505 -24.031555 -304.873596
v 22.914503 -15.031555 -265.973602
v 23.214504 -24.031555 -272.473602
v 49.314503 -24.031555 -311.373596
v 22.814505 -14.431556 -272.473602
v 23.314505 -24.031555 -265.973602
f 1 2 3
f 4 5 6
f 4 6 7
f 8 6 5
f 8 5 9
f 10 9 5
f 11 1 3
f 11 3 2
f 12 2 1
f 12 7 2
f 13 7 6
f 14 4 7
f 15 11 2
f 15 2 7
f 16 8 9
f 16 9 10
f 17 12 1
f 17 1 18
f 19 20 18
f 21 7 13
f 21 13 22
f 21 15 7
f 23 8 16
f 24 8 23
f 24 23 25
f 24 13 6
f 24 6 8
f 26 4 14
f 26 14 7
f 26 7 12
f 26 12 17
f 26 17 27
f 26 27 4
f 28 16 29
f 28 1 11
f 30 29 16
f 31 22 13
f 31 13 25
f 32 27 17
f 32 17 18
f 32 18 27
f 33 16 10
f 33 10 5
f 34 21 22
f 34 28 11
f 34 11 15
f 35 25 23
f 35 23 16
f 35 16 25
f 36 13 24
f 36 24 25
f 36 25 13
f 37 16 28
f 37 22 31
f 37 31 25
f 38 29 30
f 38 20 19
f 38 19 18
f 38 18 1
f 38 1 28
f 38 28 29
f 39 40 33
f 39 33 5
f 39 5 4
f 41 38 30
f 41 30 16
f 42 18 20
f 42 20 43
f 42 43 27
f 42 27 18
f 44 33 40
f 44 20 38
f 44 38 41
f 44 41 16
f 44 16 33
f 45 21 34
f 45 34 15
f 45 15 21
f 46 16 37
f 46 37 25
f 46 25 16
f 47 22 37
f 47 37 28
f 47 34 22
f 48 40 39
f 48 43 40
f 49 43 20
f 49 20 44
f 49 40 43
f 50 34 47
f 50 47 28
f 50 28 34
f 51 4 27
f 51 27 43
f 51 43 48
f 51 48 39
f 51 39 4
f 52 40 49
f 52 49 44
f 52 44 40
