# Convex hull collision mesh — generated by scripts/generate-collision-meshes.mjs (units: meters)
v -0.002000 -0.035000 0.003464
v -0.002000 -0.035000 -0.003464
v 0.000827 -0.035000 0.000960
v 0.002000 -0.035000 -0.003464
v 0.002000 0.000000 -0.003464
v 0.002000 -0.035000 0.003464
v 0.002000 0.000000 0.003464
v -0.004000 -0.035000 -0.000000
v -0.004000 0.000000 -0.000000
v -0.002000 0.000000 0.003464
v 0.004000 0.000000 0.000000
v 0.000013 0.005786 0.001463
v 0.004000 -0.035000 0.000000
v -0.002000 0.000000 -0.003464
v 0.001106 0.006000 -0.000853
v -0.000634 0.006000 -0.001319
v 0.000686 0.006000 0.000959
v 0.001300 0.005873 0.000667
v 0.001399 0.005887 0.000420
v 0.001160 0.005859 0.000893
v -0.001179 0.006000 0.000437
v 0.001299 0.005949 -0.000671
v 0.001318 0.006000 -0.000113
v 0.000325 0.006000 -0.001427
v -0.001289 0.006000 -0.000402
v -0.001290 0.005700 0.000692
v -0.000146 0.006000 0.001169
v 0.000982 0.005844 0.001088
v 0.000771 0.005830 0.001246
v 0.001130 0.005965 -0.000925
v 0.001411 0.005932 -0.000391
v 0.001462 0.005916 -0.000103
v 0.001070 0.006000 0.000617
v 0.001454 0.005902 0.000161
v -0.000325 0.006000 -0.001427
v -0.000000 0.006000 -0.001464
v -0.001056 0.006000 -0.000930
v -0.001142 0.005714 0.000912
v 0.000146 0.006000 0.001169
v -0.000865 0.006000 0.000834
v -0.000506 0.005758 0.001375
v -0.000744 0.005743 0.001260
v 0.000634 0.006000 -0.001319
v 0.001296 0.006000 -0.000371
v 0.000897 0.006000 0.000810
v 0.001285 0.006000 0.000144
v -0.000486 0.005991 -0.001381
v -0.001199 0.006000 -0.000678
v -0.000866 0.006000 -0.001148
v -0.001318 0.006000 -0.000116
v -0.001447 0.005673 0.000229
v -0.001280 0.006000 0.000168
v -0.001395 0.005685 0.000450
v 0.000533 0.005815 0.001362
v 0.000429 0.006000 0.001097
v -0.001020 0.006000 0.000679
v -0.000958 0.005729 0.001104
v -0.000251 0.005772 0.001443
v -0.000428 0.006000 0.001097
v 0.000948 0.006000 -0.001061
v 0.001224 0.006000 -0.000620
v 0.001201 0.006000 0.000391
v 0.000277 0.005801 0.001435
v -0.000685 0.006000 0.000958
v 0.000903 0.005983 -0.001149
v 0.000800 0.006000 -0.001202
f 1 2 3
f 4 2 5
f 4 3 2
f 6 3 4
f 6 7 1
f 6 1 3
f 8 1 9
f 8 9 2
f 8 2 1
f 10 9 1
f 10 1 7
f 11 7 6
f 11 4 5
f 12 10 7
f 13 4 11
f 13 11 6
f 13 6 4
f 14 5 2
f 14 2 9
f 15 16 17
f 18 11 19
f 18 20 7
f 18 7 11
f 21 17 16
f 22 11 5
f 23 15 17
f 24 16 15
f 25 21 16
f 26 9 10
f 27 17 21
f 28 17 29
f 28 29 7
f 28 7 20
f 30 15 22
f 30 22 5
f 31 23 32
f 31 32 11
f 31 11 22
f 33 23 17
f 33 20 18
f 34 32 23
f 34 19 11
f 34 11 32
f 35 16 24
f 36 14 35
f 36 35 24
f 36 24 5
f 36 5 14
f 37 14 9
f 37 25 16
f 38 21 26
f 38 26 10
f 39 17 27
f 39 27 12
f 40 27 21
f 41 42 10
f 43 24 15
f 43 5 24
f 44 23 31
f 44 15 23
f 45 28 20
f 45 20 33
f 45 33 17
f 45 17 28
f 46 19 34
f 46 34 23
f 46 23 33
f 47 16 35
f 47 35 14
f 47 14 16
f 48 25 37
f 48 37 9
f 48 9 25
f 49 14 37
f 49 37 16
f 49 16 14
f 50 9 51
f 50 21 25
f 50 25 9
f 52 21 50
f 52 50 51
f 53 26 21
f 53 21 52
f 53 52 51
f 53 51 9
f 53 9 26
f 54 7 29
f 55 17 39
f 55 39 54
f 55 54 29
f 55 29 17
f 56 40 21
f 56 21 38
f 57 42 40
f 57 40 56
f 57 56 38
f 57 38 10
f 57 10 42
f 58 41 10
f 58 10 12
f 58 12 27
f 59 41 58
f 59 58 27
f 59 27 40
f 60 43 15
f 60 15 30
f 61 22 15
f 61 15 44
f 61 44 31
f 61 31 22
f 62 19 46
f 62 46 33
f 62 33 18
f 62 18 19
f 63 12 7
f 63 7 54
f 63 54 39
f 63 39 12
f 64 42 41
f 64 41 59
f 64 59 40
f 64 40 42
f 65 30 5
f 65 5 43
f 65 60 30
f 66 60 65
f 66 65 43
f 66 43 60
