# Convex hull collision mesh — generated by scripts/generate-collision-meshes.mjs (units: meters)
v 0.000020 -0.012878 0.000000
v 0.000800 0.013500 0.000000
v 0.007500 -0.017500 0.000000
v 0.006500 0.017500 0.200000
v 0.000000 0.012700 0.200000
v 0.007500 0.017500 0.200000
v 0.007500 -0.017500 0.200000
v 0.007500 0.017500 0.000000
v 0.000000 0.012700 0.000000
v 0.000301 0.013325 0.200000
v 0.000020 -0.012878 0.200000
v 0.006500 -0.017500 0.000000
v 0.006500 0.017500 0.000000
v 0.000000 -0.012700 0.000000
v 0.000079 0.013047 0.200000
v 0.000020 0.012878 0.000000
v 0.000301 -0.013325 0.000000
v 0.006500 -0.017500 0.200000
v 0.000301 0.013325 0.000000
v 0.000000 -0.012700 0.200000
v 0.000020 0.012878 0.200000
v 0.000079 -0.013047 0.000000
v 0.000301 -0.013325 0.200000
v 0.000079 0.013047 0.000000
v 0.000175 0.013199 0.200000
v 0.000079 -0.013047 0.200000
v 0.000175 -0.013199 0.000000
v 0.000175 0.013199 0.000000
v 0.000175 -0.013199 0.200000
f 1 2 3
f 4 5 6
f 7 3 6
f 7 6 5
f 8 4 6
f 8 6 3
f 8 3 2
f 9 2 1
f 10 5 4
f 11 7 5
f 12 3 7
f 12 1 3
f 13 4 8
f 13 8 2
f 13 10 4
f 14 5 9
f 14 9 1
f 14 1 11
f 15 5 10
f 16 9 5
f 16 2 9
f 17 1 12
f 18 17 12
f 18 12 7
f 18 7 11
f 19 10 13
f 19 13 2
f 19 2 16
f 20 5 14
f 20 14 11
f 20 11 5
f 21 15 16
f 21 16 5
f 21 5 15
f 22 1 17
f 22 11 1
f 23 17 18
f 23 18 11
f 24 19 16
f 24 16 15
f 25 10 19
f 25 24 15
f 25 15 10
f 26 23 11
f 26 11 22
f 27 17 23
f 27 26 22
f 27 22 17
f 28 24 25
f 28 25 19
f 28 19 24
f 29 26 27
f 29 27 23
f 29 23 26
