# Convex hull collision mesh — generated by scripts/generate-collision-meshes.mjs
v 27.500000 -6.500000 0.000000
v 27.063663 -6.500000 4.246980
v -27.500000 -6.500000 3.000000
v -27.063663 -6.500000 4.246980
v 27.500000 6.500000 0.000000
v 27.500000 6.500000 3.000000
v -27.500000 6.500000 0.000000
v 0.219132 7.250000 8.004003
v -27.500000 -6.500000 0.000000
v 27.500000 -6.500000 3.000000
v 25.500000 -6.500000 5.000000
v -5.936060 7.250000 13.126393
v -0.656227 7.250000 19.964006
v 5.983994 7.250000 14.437972
v -11.482277 4.750000 22.548056
v -10.626262 -4.750000 23.526609
v -10.626262 4.750000 23.526609
v -27.301937 -6.500000 3.867768
v -27.449856 -6.500000 3.445042
v 27.449856 -6.500000 3.445042
v 26.367767 -6.500000 4.801938
v -25.500000 -6.500000 5.000000
v -0.151668 -4.750000 28.000000
v -3.838038 7.250000 9.388117
v -5.003987 7.250000 17.310606
v -27.449856 6.500000 3.445042
v 4.748979 7.250000 10.332957
v 27.449856 6.500000 3.445042
v -9.686034 4.750000 24.424553
v -8.669154 4.750000 25.234669
v -26.746979 6.500000 4.563663
v -1.450489 4.750000 27.941713
v -0.151668 4.750000 28.000000
v -2.738867 4.750000 27.767319
v -11.482277 -4.750000 22.548056
v 11.482277 4.750000 22.548056
v 27.063663 6.500000 4.246980
v 0.219132 7.250000 19.995996
v 4.164445 7.250000 18.319422
v 26.746979 6.500000 4.563663
v 27.301937 -6.500000 3.867768
v -5.243032 -4.750000 27.076746
v -4.006445 4.750000 27.478222
v -5.243032 4.750000 27.076746
v 25.945042 -6.500000 4.949856
v 5.243032 -4.750000 27.076746
v 2.738867 -4.750000 27.767319
v 1.450489 -4.750000 27.941713
v 2.738867 4.750000 27.767319
v 4.006445 4.750000 27.478222
v 5.243032 4.750000 27.076746
v -2.346628 7.250000 8.477922
v -5.432689 7.250000 11.453259
v -3.838038 7.250000 18.611883
v -27.500000 6.500000 3.000000
v -27.063663 6.500000 4.246980
v -5.936060 7.250000 14.873607
v 5.604097 7.250000 11.856615
v 2.743454 7.250000 8.663947
v 11.482277 -4.750000 22.548056
v 10.626262 -4.750000 23.526609
v 10.626262 4.750000 23.526609
v 9.686034 4.750000 24.424553
v 26.746979 -6.500000 4.563663
v 8.669154 -4.750000 25.234669
v 7.583796 -4.750000 25.950441
v 5.232296 7.250000 16.936506
v 1.937282 7.250000 19.678638
v -8.669154 -4.750000 25.234669
v -7.583796 4.750000 25.950441
v -2.738867 -4.750000 27.767319
v -25.945042 -6.500000 4.949856
v 0.151668 -4.750000 28.000000
v 4.006445 -4.750000 27.478222
v 1.450489 4.750000 27.941713
v -3.125642 7.250000 8.878442
v -1.517600 7.250000 8.195098
v -5.745604 7.250000 12.271405
v -4.468633 7.250000 9.996087
v -2.346628 7.250000 19.522078
v -3.125642 7.250000 19.121559
v -27.301937 6.500000 3.867768
v -4.468633 7.250000 18.003912
v -6.000000 7.250000 14.000000
v 5.232296 7.250000 11.063493
v 5.856455 7.250000 12.695419
v 1.089821 7.250000 8.099806
v 3.491153 7.250000 9.120261
v 6.438687 -4.750000 26.566116
v 7.583796 4.750000 25.950441
v 9.686034 -4.750000 24.424553
v 27.301937 6.500000 3.867768
v 4.748979 7.250000 17.667042
v 5.604097 7.250000 16.143385
v 1.089821 7.250000 19.900194
v -9.686034 -4.750000 24.424553
v -1.450489 -4.750000 27.941713
v -4.006445 -4.750000 27.478222
v -7.583796 -4.750000 25.950441
v 0.151668 4.750000 28.000000
v -0.656227 7.250000 8.035995
v -5.003987 7.250000 10.689394
v -6.438687 4.750000 26.566116
v -1.517600 7.250000 19.804903
v -5.745604 7.250000 15.728595
v 5.983994 7.250000 13.562028
v 1.937282 7.250000 8.321362
v 4.164445 7.250000 9.680579
v 6.438687 4.750000 26.566116
v 8.669154 4.750000 25.234669
v 2.743454 7.250000 19.336052
v 5.856455 7.250000 15.304581
v -26.746979 -6.500000 4.563663
v -6.438687 -4.750000 26.566116
v -5.432689 7.250000 16.546740
v 3.491153 7.250000 18.879738
v -26.367767 -6.500000 4.801938
f 1 2 3
f 4 3 2
f 5 6 1
f 5 1 7
f 5 7 8
f 9 7 1
f 9 1 3
f 9 3 7
f 10 2 1
f 10 1 6
f 11 4 2
f 12 13 8
f 14 6 5
f 14 8 13
f 15 16 17
f 18 3 4
f 19 3 18
f 20 2 10
f 20 10 6
f 21 11 2
f 22 4 11
f 22 11 23
f 24 12 8
f 25 13 12
f 26 3 19
f 26 19 18
f 27 8 14
f 28 6 14
f 28 20 6
f 29 30 31
f 29 31 17
f 29 17 16
f 32 33 13
f 32 13 34
f 32 23 33
f 35 16 15
f 35 15 4
f 35 4 16
f 36 2 37
f 38 13 33
f 38 14 13
f 39 14 38
f 39 40 37
f 41 2 20
f 41 20 28
f 41 37 2
f 42 43 44
f 45 21 46
f 45 47 48
f 45 48 11
f 45 11 21
f 49 48 47
f 50 49 47
f 50 46 51
f 52 24 8
f 53 12 24
f 54 13 25
f 54 31 30
f 55 7 3
f 55 3 26
f 56 18 4
f 56 4 15
f 56 15 17
f 56 17 31
f 57 55 26
f 57 25 12
f 58 27 14
f 59 8 27
f 60 2 36
f 60 36 61
f 60 61 2
f 62 63 61
f 62 61 36
f 62 36 37
f 62 37 40
f 62 40 63
f 64 2 61
f 64 65 66
f 64 66 21
f 64 21 2
f 67 14 39
f 68 39 38
f 68 50 51
f 69 70 30
f 69 30 29
f 71 32 34
f 71 34 43
f 72 4 22
f 73 23 11
f 73 11 48
f 73 33 23
f 74 47 45
f 74 45 46
f 74 46 50
f 74 50 47
f 75 48 49
f 75 73 48
f 76 24 52
f 76 52 7
f 76 7 24
f 77 7 52
f 77 52 8
f 78 12 53
f 78 53 7
f 78 7 12
f 79 53 24
f 79 24 7
f 80 13 54
f 81 80 54
f 81 54 30
f 81 30 70
f 82 26 18
f 82 18 56
f 82 56 25
f 83 54 25
f 83 25 56
f 83 56 31
f 83 31 54
f 84 55 57
f 84 57 12
f 84 12 7
f 84 7 55
f 85 27 58
f 85 58 5
f 85 5 27
f 86 5 58
f 86 58 14
f 87 8 59
f 87 5 8
f 88 5 59
f 88 59 27
f 89 46 21
f 89 21 66
f 89 51 46
f 90 89 66
f 90 66 65
f 91 65 64
f 91 64 61
f 91 61 63
f 91 63 65
f 92 67 37
f 92 37 41
f 92 41 28
f 93 37 67
f 93 67 39
f 93 39 37
f 94 14 67
f 94 67 92
f 94 92 28
f 95 49 50
f 95 50 68
f 95 68 38
f 95 38 75
f 95 75 49
f 96 69 29
f 96 29 16
f 97 32 71
f 97 71 72
f 97 72 22
f 97 22 23
f 97 23 32
f 98 42 72
f 98 72 71
f 98 71 43
f 98 43 42
f 99 70 69
f 100 33 73
f 100 73 75
f 100 75 38
f 100 38 33
f 101 7 77
f 101 77 8
f 101 8 7
f 102 53 79
f 102 79 7
f 102 7 53
f 103 44 80
f 103 80 81
f 103 81 70
f 103 70 99
f 103 42 44
f 104 43 34
f 104 34 13
f 104 13 80
f 104 80 44
f 104 44 43
f 105 57 26
f 105 26 82
f 105 25 57
f 106 5 86
f 106 86 14
f 106 14 5
f 107 5 87
f 107 87 59
f 107 59 5
f 108 5 88
f 108 88 27
f 108 27 5
f 109 51 89
f 109 89 90
f 110 90 65
f 110 65 63
f 110 63 40
f 111 68 51
f 111 51 109
f 111 109 90
f 111 39 68
f 112 14 94
f 112 94 28
f 112 28 14
f 113 4 72
f 113 99 69
f 113 69 96
f 113 96 16
f 113 16 4
f 114 42 103
f 114 103 99
f 115 25 105
f 115 105 82
f 115 82 25
f 116 110 40
f 116 40 39
f 116 39 111
f 116 111 90
f 116 90 110
f 117 113 72
f 117 72 42
f 117 42 114
f 117 114 99
f 117 99 113
