# Normalized convex hull collision mesh - generated by scripts/generate-collision-meshes.mjs (units: meters)
v 0.029500 0.029000 0.020000
v -0.033000 0.025500 0.020000
v 0.029500 -0.029000 0.020000
v -0.029500 -0.029000 0.020000
v -0.033000 0.025500 -0.012500
v -0.029500 0.025500 -0.016000
v -0.029500 -0.025500 -0.016000
v 0.033000 -0.025500 -0.012500
v 0.029500 -0.025500 -0.016000
v 0.033000 0.025500 -0.012500
v -0.017750 -0.029000 -0.016500
v 0.029500 0.025500 -0.016000
v 0.033000 0.025500 0.020000
v -0.033000 -0.025500 -0.012500
v -0.029500 0.029000 0.020000
v -0.021250 0.025500 -0.020000
v 0.029500 -0.029000 -0.012500
v 0.033000 -0.025500 0.020000
v -0.033000 -0.025500 0.020000
v -0.029500 -0.029000 -0.012500
v -0.021250 -0.025500 -0.020000
v 0.021250 -0.025500 -0.020000
v 0.021250 0.025500 -0.020000
v -0.029500 0.029000 -0.012500
v 0.017750 -0.029000 -0.016500
v 0.029500 0.029000 -0.012500
v 0.017750 0.029000 -0.016500
v -0.017750 0.029000 -0.016500
f 1 2 3
f 4 3 2
f 5 6 7
f 8 9 10
f 11 3 4
f 12 10 9
f 13 10 1
f 13 1 3
f 13 8 10
f 14 2 5
f 14 5 7
f 15 5 2
f 15 2 1
f 16 7 6
f 17 3 11
f 17 9 8
f 17 8 3
f 18 8 13
f 18 13 3
f 18 3 8
f 19 2 14
f 19 14 4
f 19 4 2
f 20 11 4
f 20 4 14
f 20 14 7
f 21 11 20
f 21 20 7
f 21 7 16
f 22 9 17
f 22 11 21
f 22 21 16
f 22 12 9
f 23 12 22
f 23 22 16
f 24 15 1
f 24 16 6
f 24 6 5
f 24 5 15
f 25 11 22
f 25 22 17
f 25 17 11
f 26 12 23
f 26 24 1
f 26 1 10
f 26 10 12
f 27 24 26
f 27 26 23
f 27 23 16
f 28 24 27
f 28 27 16
f 28 16 24
