# Convex hull collision mesh — generated by scripts/generate-collision-meshes.mjs
v 0.000000 72.000000 90.000000
v 0.000000 50.000000 0.000000
v 0.000000 0.000000 90.000000
v 146.000000 72.000000 0.000000
v 146.000000 48.000000 25.000000
v 146.000000 0.000000 0.000000
v 36.000000 72.000000 90.000000
v 0.000000 0.000000 6.000000
v 146.000000 0.000000 25.000000
v 0.000000 72.000000 0.000000
v 146.000000 72.000000 25.000000
v 72.000000 0.000000 0.000000
v 36.000000 0.000000 90.000000
f 1 2 3
f 4 5 6
f 4 6 2
f 7 4 1
f 7 1 3
f 8 6 3
f 8 3 2
f 9 3 6
f 9 6 5
f 9 5 7
f 10 1 4
f 10 4 2
f 10 2 1
f 11 4 7
f 11 7 5
f 11 5 4
f 12 6 8
f 12 8 2
f 12 2 6
f 13 3 9
f 13 9 7
f 13 7 3
