# Normalized convex hull collision mesh - generated by scripts/generate-collision-meshes.mjs (units: meters)
v 0.016133 0.019776 -0.007500
v 0.020155 0.009406 -0.007500
v 0.001027 -0.025509 -0.007500
v 0.022587 -0.011864 -0.007500
v -0.017671 0.018412 -0.007500
v -0.001027 0.025509 0.007500
v -0.025509 -0.000000 0.007500
v 0.025509 -0.000000 0.007500
v 0.001027 -0.025509 0.007500
v -0.023468 -0.010007 -0.007500
v 0.001027 0.025509 -0.007500
v 0.021560 -0.013645 0.007500
v -0.017671 -0.018412 0.007500
v 0.020437 0.007444 0.007500
v 0.025509 0.000000 -0.007500
v 0.018011 0.018766 0.007000
v 0.019461 0.017255 -0.007000
v 0.018011 0.018766 -0.007000
v -0.012994 -0.022524 -0.007111
v -0.011146 -0.023509 -0.007000
v -0.013000 -0.022535 -0.007000
v 0.016133 -0.019776 -0.007500
v -0.017671 0.018412 0.007500
v -0.014491 -0.021011 -0.007500
v -0.024768 0.006110 -0.007500
v 0.001032 -0.025619 -0.007487
v 0.001036 -0.025722 -0.007450
v -0.001036 -0.025722 -0.007450
v 0.012755 -0.022110 0.007500
v 0.025916 -0.002094 0.007000
v 0.025916 -0.002094 -0.007000
v 0.026000 0.000000 0.007000
v 0.025663 -0.004174 -0.007000
v 0.025244 -0.006227 0.007000
v 0.024662 -0.008240 -0.007000
v 0.025244 -0.006227 -0.007000
v 0.026000 -0.000000 -0.007000
v 0.025244 0.006227 -0.007000
v 0.024662 0.008240 -0.007000
v 0.025244 0.006227 0.007000
v 0.025663 0.004174 -0.007000
v 0.021560 0.013645 -0.007500
v 0.024768 -0.006110 -0.007500
v 0.014491 0.021011 0.007500
v 0.007234 0.024994 -0.007000
v 0.005201 0.025495 -0.007000
v 0.005201 0.025495 0.007000
v 0.011146 0.023509 -0.007000
v 0.011146 0.023509 0.007000
v 0.013000 0.022535 -0.007000
v 0.009220 0.024330 0.007000
v -0.014770 -0.021415 -0.007000
v -0.014770 -0.021415 0.007000
v 0.001047 -0.026000 -0.007000
v 0.001047 -0.026000 0.007000
v -0.001047 -0.026000 -0.007000
v -0.009220 -0.024330 -0.007000
v -0.009220 -0.024330 0.007000
v 0.021560 -0.013645 -0.007500
v 0.018011 -0.018766 0.007000
v 0.019461 -0.017255 -0.007000
v 0.019461 -0.017255 0.007000
v -0.025916 0.002094 -0.007000
v -0.026000 -0.000000 -0.007000
v -0.026000 -0.000000 0.007000
v -0.025916 -0.002094 -0.007000
v -0.024662 0.008240 0.007000
v -0.024662 0.008240 -0.007000
v -0.025244 0.006227 0.007000
v -0.023919 0.010199 -0.007000
v -0.025663 0.004174 0.007000
v -0.025663 0.004174 -0.007000
v -0.025244 0.006227 -0.007000
v -0.007097 -0.024522 -0.007500
v 0.012755 0.022110 -0.007500
v -0.009046 0.023871 -0.007500
v -0.025427 -0.002054 -0.007500
v -0.024197 0.008085 -0.007500
v -0.018011 0.018766 0.007000
v -0.016444 0.020156 0.007000
v -0.018011 0.018766 -0.007000
v -0.016444 0.020156 -0.007000
v -0.013000 0.022535 -0.007000
v -0.013000 0.022535 0.007000
v -0.011146 0.023509 0.007000
v -0.014770 0.021415 0.007000
v 0.003134 0.025831 0.007000
v 0.001047 0.026000 -0.007000
v 0.001047 0.026000 0.007000
v 0.020786 -0.015632 -0.007000
v -0.011146 -0.023509 0.007000
v -0.023468 -0.010007 0.007500
v -0.007234 -0.024994 0.007000
v -0.003132 -0.025819 0.007111
v -0.003128 -0.025783 0.007217
v -0.005198 -0.025483 0.007111
v -0.003134 -0.025831 0.007000
v -0.001047 -0.026000 0.007000
v -0.023468 0.010007 0.007500
v -0.025663 -0.004174 0.007000
v -0.025663 -0.004174 -0.007000
v -0.025244 -0.006227 0.007000
v -0.025233 -0.006224 0.007111
v -0.025651 -0.004172 -0.007111
v -0.019094 -0.016930 -0.007500
v -0.016444 -0.020156 0.007000
v -0.019461 -0.017255 -0.007000
v -0.018011 -0.018766 -0.007000
v -0.019461 -0.017255 0.007000
v 0.001039 -0.025815 -0.007391
v -0.001045 -0.025951 -0.007217
v 0.001043 -0.025893 -0.007312
v 0.001045 -0.025951 -0.007217
v 0.017671 -0.018412 0.007500
v 0.024197 -0.008085 0.007500
v 0.025663 -0.004174 0.007000
v 0.025233 -0.006224 -0.007111
v 0.024662 0.008240 0.007000
v 0.023919 0.010199 0.007000
v 0.023022 0.012093 0.007000
v 0.023011 0.012087 0.007111
v 0.023919 0.010199 -0.007000
v 0.025233 0.006224 -0.007111
v 0.025651 0.004172 -0.007111
v 0.020786 0.015632 -0.007000
v 0.020786 0.015632 0.007000
v 0.021975 0.013907 -0.007000
v 0.019094 0.016930 -0.007500
v 0.024768 0.006110 -0.007500
v 0.009215 0.024319 0.007111
v 0.007230 0.024982 0.007111
v 0.022587 0.011864 0.007500
v 0.019461 0.017255 0.007000
v 0.007234 0.024994 0.007000
v 0.016444 0.020156 0.007000
v 0.013000 0.022535 0.007000
v 0.014770 0.021415 0.007000
v 0.009220 0.024330 -0.007000
v -0.011141 -0.023498 -0.007111
v 0.001046 -0.025988 -0.007111
v -0.009202 -0.024285 -0.007217
v -0.011125 -0.023465 -0.007217
v -0.003134 -0.025831 -0.007000
v -0.005201 -0.025495 -0.007000
v -0.003121 -0.025725 -0.007312
v -0.005179 -0.025390 -0.007312
v -0.003112 -0.025648 -0.007391
v 0.019094 -0.016930 -0.007500
v 0.018011 -0.018766 -0.007000
v 0.016444 -0.020156 0.007000
v 0.014491 -0.021011 -0.007500
v 0.016202 -0.019860 -0.007487
v 0.014553 -0.021101 -0.007487
v 0.012809 -0.022204 -0.007487
v -0.023919 0.010199 0.007000
v -0.023022 0.012093 0.007000
v -0.023022 0.012093 -0.007000
v -0.021975 0.013907 -0.007000
v -0.020786 0.015632 0.007000
v -0.020786 0.015632 -0.007000
v -0.019461 0.017255 -0.007000
v 0.007097 0.024522 -0.007500
v -0.003075 0.025344 -0.007500
v -0.016133 0.019776 -0.007500
v -0.024768 -0.006110 -0.007500
v -0.025427 0.002054 -0.007500
v -0.022587 0.011864 -0.007500
v -0.018002 0.018758 0.007111
v -0.019452 0.017247 0.007111
v -0.017977 0.018731 0.007217
v -0.017937 0.018689 0.007312
v -0.016376 0.020073 0.007312
v -0.016327 0.020013 0.007391
v -0.017883 0.018633 0.007391
v -0.009220 0.024330 0.007000
v -0.007234 0.024994 0.007000
v -0.009220 0.024330 -0.007000
v -0.007234 0.024994 -0.007000
v -0.005201 0.025495 0.007000
v -0.001047 0.026000 0.007000
v -0.001046 0.025988 0.007111
v -0.011146 0.023509 -0.007000
v -0.014770 0.021415 -0.007000
v -0.014763 0.021405 -0.007111
v -0.016436 0.020147 0.007111
v 0.001046 0.025988 0.007111
v 0.003128 0.025783 0.007217
v 0.003132 0.025819 0.007111
v 0.005198 0.025483 0.007111
v 0.020786 -0.015632 0.007000
v 0.021975 -0.013907 0.007000
v 0.019452 -0.017247 0.007111
v 0.001043 -0.025893 0.007312
v 0.003128 -0.025783 0.007217
v 0.003121 -0.025725 0.007312
v -0.013000 -0.022535 0.007000
v -0.014763 -0.021405 0.007111
v -0.005201 -0.025495 0.007000
v -0.009046 -0.023871 0.007500
v -0.001046 -0.025988 0.007111
v -0.001045 -0.025951 0.007217
v -0.024197 0.008085 0.007500
v -0.024300 0.008119 0.007487
v -0.025916 -0.002094 0.007000
v -0.023022 -0.012093 -0.007000
v -0.023919 -0.010199 0.007000
v -0.023919 -0.010199 -0.007000
v -0.024662 -0.008240 -0.007000
v -0.025065 -0.006183 -0.007391
v -0.024975 -0.006161 -0.007450
v -0.024487 -0.008182 -0.007391
v -0.023821 -0.010157 -0.007312
v -0.023875 -0.010180 -0.007217
v -0.024616 -0.008225 -0.007217
v -0.023750 -0.010127 -0.007391
v -0.021934 -0.013881 -0.007217
v -0.020700 -0.015568 -0.007312
v -0.020747 -0.015603 -0.007217
v -0.016436 -0.020147 0.007111
v -0.020393 -0.015337 0.007500
v 0.005103 -0.025014 -0.007500
v 0.003100 -0.025555 -0.007450
v -0.001046 -0.025988 -0.007111
v -0.003132 -0.025819 -0.007111
v -0.001039 -0.025815 -0.007391
v 0.003100 -0.025555 0.007450
v 0.001032 -0.025619 0.007487
v 0.001036 -0.025722 0.007450
v 0.007097 -0.024522 0.007500
v 0.013000 -0.022535 0.007000
v 0.011146 -0.023509 -0.007000
v 0.013000 -0.022535 -0.007000
v 0.016202 -0.019860 0.007487
v 0.017747 -0.018491 0.007487
v 0.019094 -0.016930 0.007500
v 0.025179 -0.004095 0.007500
v 0.025916 0.002094 0.007000
v 0.025988 0.000000 0.007111
v 0.025903 0.002093 0.007111
v 0.025651 -0.004172 0.007111
v 0.024650 -0.008236 -0.007111
v 0.025179 0.004095 0.007500
v 0.025651 0.004172 0.007111
v 0.021975 0.013907 0.007000
v 0.023875 0.010180 0.007217
v 0.022979 0.012070 0.007217
v 0.023022 0.012093 -0.007000
v 0.025916 0.002094 -0.007000
v 0.025815 0.000000 -0.007391
v 0.025732 -0.002079 -0.007391
v 0.025722 0.000000 -0.007450
v 0.025639 -0.002071 -0.007450
v 0.025389 -0.004129 -0.007450
v 0.019253 0.017071 -0.007450
v 0.019176 0.017002 -0.007487
v 0.017747 0.018491 -0.007487
v 0.017818 0.018566 -0.007450
v 0.014770 0.021415 -0.007000
v 0.016268 0.019941 -0.007450
v 0.019381 0.017184 -0.007312
v 0.019323 0.017133 -0.007391
v 0.017937 0.018689 -0.007312
v 0.017977 0.018731 -0.007217
v 0.019425 0.017223 -0.007217
v 0.020638 0.015521 -0.007391
v 0.020700 0.015568 -0.007312
v 0.021884 0.013850 -0.007312
v 0.020563 0.015465 -0.007450
v 0.020481 0.015403 -0.007487
v 0.021653 0.013703 -0.007487
v 0.021740 0.013759 -0.007450
v 0.021934 0.013881 -0.007217
v 0.019452 0.017247 -0.007111
v 0.024487 -0.008182 -0.007391
v 0.025141 -0.006202 -0.007312
v 0.024560 -0.008206 -0.007312
v 0.024197 -0.008085 -0.007500
v 0.024300 -0.008119 -0.007487
v 0.012976 0.022493 0.007217
v 0.011100 0.023412 0.007312
v 0.012946 0.022442 0.007312
v -0.016444 -0.020156 -0.007000
v -0.012976 -0.022493 -0.007217
v -0.011100 -0.023412 -0.007312
v -0.007204 -0.024891 -0.007312
v -0.005191 -0.025448 -0.007217
v -0.005198 -0.025483 -0.007111
v -0.003128 -0.025783 -0.007217
v 0.020393 -0.015337 -0.007500
v 0.017671 -0.018412 -0.007500
v 0.018002 -0.018758 0.007111
v 0.017977 -0.018731 0.007217
v 0.011141 -0.023498 -0.007111
v 0.009220 -0.024330 -0.007000
v 0.012994 -0.022524 -0.007111
v 0.012976 -0.022493 -0.007217
v 0.019452 -0.017247 -0.007111
v 0.017977 -0.018731 -0.007217
v 0.019425 -0.017223 -0.007217
v 0.019381 -0.017184 -0.007312
v -0.017977 0.018731 -0.007217
v -0.016376 0.020073 -0.007312
v -0.017937 0.018689 -0.007312
v -0.019461 0.017255 0.007000
v -0.021560 0.013645 0.007500
v -0.025988 -0.000000 -0.007111
v -0.024650 0.008236 0.007111
v -0.023908 0.010195 0.007111
v -0.025988 -0.000000 0.007111
v -0.025916 0.002094 0.007000
v -0.025903 0.002093 0.007111
v -0.010936 -0.023065 -0.007500
v -0.001032 -0.025619 -0.007487
v -0.003075 -0.025344 -0.007500
v 0.007230 0.024982 -0.007111
v 0.009215 0.024319 -0.007111
v 0.007220 0.024947 -0.007217
v 0.005191 0.025448 -0.007217
v 0.005179 0.025390 -0.007312
v 0.003128 0.025783 -0.007217
v 0.003134 0.025831 -0.007000
v 0.005164 0.025314 -0.007391
v 0.003112 0.025648 -0.007391
v 0.001039 0.025815 -0.007391
v 0.001036 0.025722 -0.007450
v 0.007204 0.024891 -0.007312
v 0.007182 0.024816 -0.007391
v 0.009046 0.023871 -0.007500
v 0.005103 0.025014 -0.007500
v 0.003088 0.025452 -0.007487
v 0.005124 0.025121 -0.007487
v 0.007128 0.024627 -0.007487
v 0.009084 0.023973 -0.007487
v 0.009154 0.024157 -0.007391
v 0.001032 0.025619 -0.007487
v -0.001032 0.025619 -0.007487
v -0.007128 0.024627 -0.007487
v -0.009084 0.023973 -0.007487
v -0.007156 0.024727 -0.007450
v -0.009154 0.024157 -0.007391
v -0.009182 0.024230 -0.007312
v -0.007204 0.024891 -0.007312
v -0.007182 0.024816 -0.007391
v -0.001027 0.025509 -0.007500
v -0.003088 0.025452 -0.007487
v -0.014491 0.021011 -0.007500
v -0.024300 -0.008119 -0.007487
v -0.023569 -0.010050 -0.007487
v -0.023664 -0.010090 -0.007450
v -0.025651 0.004172 -0.007111
v -0.024650 0.008236 -0.007111
v -0.020393 0.015337 -0.007500
v -0.023468 0.010007 -0.007500
v -0.023569 0.010050 -0.007487
v -0.022684 0.011915 -0.007487
v -0.017747 0.018491 -0.007487
v -0.019176 0.017002 -0.007487
v -0.019253 0.017071 -0.007450
v -0.017818 0.018566 -0.007450
v -0.009046 0.023871 0.007500
v -0.016268 0.019941 -0.007450
v -0.005201 0.025495 -0.007000
v -0.003134 0.025831 -0.007000
v -0.007204 0.024891 0.007312
v -0.007182 0.024816 0.007391
v -0.005164 0.025314 0.007391
v -0.007230 0.024982 0.007111
v -0.001047 0.026000 -0.007000
v -0.001046 0.025988 -0.007111
v -0.003134 0.025831 0.007000
v -0.005191 0.025448 0.007217
v -0.007220 0.024947 0.007217
v -0.003100 0.025555 0.007450
v -0.001032 0.025619 0.007487
v -0.001036 0.025722 0.007450
v -0.001045 0.025951 0.007217
v -0.012994 0.022524 -0.007111
v 0.023022 -0.012093 -0.007000
v 0.023022 -0.012093 0.007000
v 0.023919 -0.010199 0.007000
v 0.021934 -0.013881 0.007217
v 0.020700 -0.015568 0.007312
v 0.020747 -0.015603 0.007217
v 0.024662 -0.008240 0.007000
v 0.005198 -0.025483 0.007111
v 0.005191 -0.025448 0.007217
v 0.001045 -0.025951 0.007217
v 0.001039 -0.025815 0.007391
v -0.001039 -0.025815 0.007391
v 0.009202 -0.024285 -0.007217
v 0.007220 -0.024947 -0.007217
v 0.009182 -0.024230 -0.007312
v 0.007230 -0.024982 -0.007111
v 0.007234 -0.024994 -0.007000
v 0.007204 -0.024891 -0.007312
v 0.009154 -0.024157 -0.007391
v -0.024768 -0.006110 0.007500
v -0.025536 -0.002063 0.007487
v -0.025389 -0.004129 0.007450
v -0.025287 -0.004113 0.007487
v -0.025619 -0.000000 0.007487
v -0.024975 -0.006161 0.007450
v -0.025893 -0.000000 0.007312
v -0.025815 -0.000000 0.007391
v -0.025809 0.002085 0.007312
v -0.025951 -0.000000 0.007217
v -0.001036 -0.025722 0.007450
v -0.003100 -0.025555 0.007450
v -0.003112 -0.025648 0.007391
v -0.001043 -0.025893 0.007312
v -0.003121 -0.025725 0.007312
v -0.003075 -0.025344 0.007500
v -0.024650 -0.008236 -0.007111
v -0.023908 -0.010195 -0.007111
v -0.025141 -0.006202 -0.007312
v -0.025244 -0.006227 -0.007000
v -0.024560 -0.008206 -0.007312
v -0.022776 -0.011963 -0.007450
v -0.023011 -0.012087 -0.007111
v -0.022979 -0.012070 -0.007217
v -0.020393 -0.015337 -0.007500
v -0.020481 -0.015403 -0.007487
v -0.023022 -0.012093 0.007000
v -0.020786 -0.015632 0.007000
v -0.017937 -0.018689 -0.007312
v -0.016327 -0.020013 -0.007391
v -0.016376 -0.020073 -0.007312
v -0.019452 -0.017247 -0.007111
v -0.019425 -0.017223 -0.007217
v 0.009046 -0.023871 -0.007500
v 0.003088 -0.025452 -0.007487
v 0.003112 -0.025648 -0.007391
v -0.001043 -0.025893 -0.007312
v 0.003088 -0.025452 0.007487
v 0.005124 -0.025121 0.007487
v 0.009046 -0.023871 0.007500
v 0.007128 -0.024627 0.007487
v 0.011146 -0.023509 0.007000
v 0.014770 -0.021415 0.007000
v 0.017818 -0.018566 0.007450
v 0.017883 -0.018633 0.007391
v 0.019253 -0.017071 0.007450
v 0.014491 -0.021011 0.007500
v 0.012994 -0.022524 0.007111
v 0.012976 -0.022493 0.007217
v 0.011141 -0.023498 0.007111
v 0.020563 -0.015465 0.007450
v 0.020481 -0.015403 0.007487
v 0.020638 -0.015521 0.007391
v 0.019381 -0.017184 0.007312
v 0.020393 -0.015337 0.007500
v 0.019176 -0.017002 0.007487
v 0.025722 0.000000 0.007450
v 0.025732 -0.002079 0.007391
v 0.025815 0.000000 0.007391
v 0.025867 -0.002090 0.007217
v 0.025951 0.000000 0.007217
v 0.025893 0.000000 0.007312
v 0.025809 0.002085 0.007312
v 0.025427 -0.002054 0.007500
v 0.025481 -0.004144 0.007391
v 0.025389 -0.004129 0.007450
v 0.024768 -0.006110 0.007500
v 0.024300 -0.008119 0.007487
v 0.024874 -0.006136 0.007487
v 0.025287 -0.004113 0.007487
v 0.025141 -0.006202 0.007312
v 0.025065 -0.006183 0.007391
v 0.024487 -0.008182 0.007391
v 0.024616 -0.008225 0.007217
v 0.025197 -0.006216 0.007217
v 0.025558 -0.004157 0.007312
v 0.025615 -0.004166 0.007217
v 0.025233 -0.006224 0.007111
v 0.024616 -0.008225 -0.007217
v 0.025197 -0.006216 -0.007217
v 0.025809 -0.002085 -0.007312
v 0.025951 0.000000 -0.007217
v 0.025867 -0.002090 -0.007217
v 0.025065 -0.006183 -0.007391
v 0.024975 -0.006161 -0.007450
v 0.025481 -0.004144 -0.007391
v 0.025558 -0.004157 -0.007312
v 0.025287 -0.004113 -0.007487
v 0.025536 0.002063 0.007487
v 0.025619 0.000000 0.007487
v 0.024197 0.008085 0.007500
v 0.024616 0.008225 0.007217
v 0.023821 0.010157 0.007312
v 0.024874 0.006136 0.007487
v 0.024975 0.006161 0.007450
v 0.024300 0.008119 0.007487
v 0.025663 0.004174 0.007000
v 0.025867 0.002090 0.007217
v 0.021965 0.013901 0.007111
v 0.023908 0.010195 0.007111
v 0.025988 0.000000 -0.007111
v 0.025867 0.002090 -0.007217
v 0.025903 -0.002093 -0.007111
v 0.025179 0.004095 -0.007500
v 0.025536 0.002063 -0.007487
v 0.025619 0.000000 -0.007487
v 0.025639 0.002071 -0.007450
v 0.025893 0.000000 -0.007312
v 0.025809 0.002085 -0.007312
v 0.025651 -0.004172 -0.007111
v 0.017671 0.018412 -0.007500
v 0.016444 0.020156 -0.007000
v 0.017883 0.018633 -0.007391
v 0.016202 0.019860 -0.007487
v 0.020393 0.015337 -0.007500
v 0.021819 0.013809 -0.007391
v 0.020747 0.015603 -0.007217
v 0.021965 0.013901 -0.007111
v 0.024399 -0.008152 -0.007450
v 0.023750 -0.010127 -0.007391
v 0.023468 -0.010007 -0.007500
v 0.023569 -0.010050 -0.007487
v 0.023569 0.010050 0.007487
v 0.023664 0.010090 0.007450
v 0.019094 0.016930 0.007500
v 0.012908 0.022375 0.007391
v -0.003132 0.025819 -0.007111
v -0.001036 0.025722 -0.007450
v -0.003128 0.025783 -0.007217
v 0.012994 0.022524 0.007111
v 0.011125 0.023465 0.007217
v -0.019176 -0.017002 -0.007487
v -0.017671 -0.018412 -0.007500
v -0.017747 -0.018491 -0.007487
v -0.014763 -0.021405 -0.007111
v -0.014742 -0.021375 -0.007217
v -0.012946 -0.022442 -0.007312
v -0.012908 -0.022375 -0.007391
v -0.011027 -0.023258 -0.007450
v -0.009121 -0.024070 -0.007450
v -0.009154 -0.024157 -0.007391
v -0.009084 -0.023973 -0.007487
v 0.005201 -0.025495 -0.007000
v 0.005201 -0.025495 0.007000
v 0.003128 -0.025783 -0.007217
v 0.003132 -0.025819 -0.007111
v 0.003134 -0.025831 0.007000
v -0.007182 -0.024816 -0.007391
v -0.009182 -0.024230 -0.007312
v -0.009215 -0.024319 -0.007111
v -0.007234 -0.024994 -0.007000
v 0.020481 -0.015403 -0.007487
v 0.017747 -0.018491 -0.007487
v 0.017937 -0.018689 0.007312
v 0.016376 -0.020073 0.007312
v 0.011100 -0.023412 -0.007312
v 0.012861 -0.022294 -0.007450
v 0.012908 -0.022375 -0.007391
v 0.011027 -0.023258 -0.007450
v 0.016436 -0.020147 -0.007111
v 0.016413 -0.020118 -0.007217
v 0.014612 -0.021186 -0.007450
v 0.019323 -0.017133 -0.007391
v 0.017883 -0.018633 -0.007391
v 0.019253 -0.017071 -0.007450
v 0.017937 -0.018689 -0.007312
v 0.020776 -0.015625 -0.007111
v -0.023011 0.012087 -0.007111
v -0.021884 0.013850 -0.007312
v -0.022927 0.012043 -0.007312
v -0.021934 0.013881 -0.007217
v -0.021819 0.013809 -0.007391
v -0.018002 0.018758 -0.007111
v -0.016413 0.020118 -0.007217
v -0.014742 0.021375 -0.007217
v -0.019381 0.017184 0.007312
v -0.021975 0.013907 0.007000
v -0.021965 0.013901 0.007111
v -0.025903 0.002093 -0.007111
v -0.025903 -0.002093 -0.007111
v -0.025233 0.006224 0.007111
v -0.025867 0.002090 0.007217
v -0.009046 -0.023871 -0.007500
v -0.003100 -0.025555 -0.007450
v -0.005145 -0.025223 -0.007450
v -0.005124 -0.025121 -0.007487
v -0.003088 -0.025452 -0.007487
v -0.001027 -0.025509 -0.007500
v 0.005198 0.025483 -0.007111
v 0.003100 0.025555 -0.007450
v 0.010936 0.023065 -0.007500
v 0.012809 0.022204 -0.007487
v 0.003075 0.025344 -0.007500
v 0.014612 0.021186 -0.007450
v 0.012994 0.022524 -0.007111
v 0.009182 0.024230 -0.007312
v -0.007220 0.024947 -0.007217
v -0.009202 0.024285 -0.007217
v -0.009215 0.024319 -0.007111
v -0.012809 0.022204 -0.007487
v -0.014553 0.021101 -0.007487
v -0.007097 0.024522 -0.007500
v -0.005145 0.025223 -0.007450
v -0.005124 0.025121 -0.007487
v -0.005164 0.025314 -0.007391
v -0.005179 0.025390 -0.007312
v -0.009121 0.024070 -0.007450
v -0.005103 0.025014 -0.007500
v -0.024874 -0.006136 -0.007487
v -0.025287 -0.004113 -0.007487
v -0.025179 -0.004095 -0.007500
v -0.025481 -0.004144 -0.007391
v -0.024197 -0.008085 -0.007500
v -0.024399 -0.008152 -0.007450
v -0.025509 -0.000000 -0.007500
v -0.025732 0.002079 -0.007391
v -0.025639 0.002071 -0.007450
v -0.025722 -0.000000 -0.007450
v -0.025815 -0.000000 -0.007391
v -0.024300 0.008119 -0.007487
v -0.025233 0.006224 -0.007111
v -0.024616 0.008225 -0.007217
v -0.025197 0.006216 -0.007217
v -0.025615 0.004166 -0.007217
v -0.025141 0.006202 -0.007312
v -0.025481 0.004144 -0.007391
v -0.025558 0.004157 -0.007312
v -0.024560 0.008206 -0.007312
v -0.021740 0.013759 -0.007450
v -0.020563 0.015465 -0.007450
v -0.021653 0.013703 -0.007487
v -0.019094 0.016930 -0.007500
v -0.017883 0.018633 -0.007391
v -0.014491 0.021011 0.007500
v -0.012809 0.022204 0.007487
v -0.014553 0.021101 0.007487
v -0.009154 0.024157 0.007391
v -0.012994 0.022524 0.007111
v -0.016202 0.019860 0.007487
v -0.014742 0.021375 0.007217
v -0.014709 0.021327 0.007312
v -0.014665 0.021263 0.007391
v -0.016202 0.019860 -0.007487
v -0.014612 0.021186 -0.007450
v -0.009215 0.024319 0.007111
v -0.009202 0.024285 0.007217
v -0.005198 0.025483 0.007111
v -0.005179 0.025390 0.007312
v -0.003128 0.025783 0.007217
v -0.003121 0.025725 0.007312
v -0.003112 0.025648 0.007391
v 0.020776 -0.015625 0.007111
v 0.021653 -0.013703 -0.007487
v 0.022684 -0.011915 -0.007487
v 0.022776 -0.011963 -0.007450
v 0.021975 -0.013907 -0.007000
v 0.023468 -0.010007 0.007500
v 0.024975 -0.006161 0.007450
v 0.023011 -0.012087 0.007111
v 0.022979 -0.012070 0.007217
v 0.024650 -0.008236 0.007111
v 0.024560 -0.008206 0.007312
v 0.023821 -0.010157 0.007312
v 0.007234 -0.024994 0.007000
v 0.003112 -0.025648 0.007391
v 0.005164 -0.025314 0.007391
v 0.009215 -0.024319 -0.007111
v 0.005164 -0.025314 -0.007391
v 0.005179 -0.025390 -0.007312
v 0.005145 -0.025223 -0.007450
v 0.007156 -0.024727 -0.007450
v -0.025651 -0.004172 0.007111
v -0.025615 -0.004166 0.007217
v -0.025481 -0.004144 0.007391
v -0.025732 -0.002079 0.007391
v -0.025141 -0.006202 0.007312
v -0.025065 -0.006183 0.007391
v -0.025867 -0.002090 0.007217
v -0.024662 -0.008240 0.007000
v -0.025722 -0.000000 0.007450
v -0.025179 -0.004095 0.007500
v -0.024197 -0.008085 0.007500
v -0.001032 -0.025619 0.007487
v -0.003088 -0.025452 0.007487
v -0.007230 -0.024982 0.007111
v -0.007220 -0.024947 0.007217
v -0.009215 -0.024319 0.007111
v -0.005179 -0.025390 0.007312
v -0.014491 -0.021011 0.007500
v -0.010936 -0.023065 0.007500
v -0.025233 -0.006224 -0.007111
v -0.025615 -0.004166 -0.007217
v -0.022927 -0.012043 -0.007312
v -0.021653 -0.013703 -0.007487
v -0.020563 -0.015465 -0.007450
v -0.021740 -0.013759 -0.007450
v -0.022684 -0.011915 -0.007487
v -0.021975 -0.013907 -0.007000
v -0.020786 -0.015632 -0.007000
v -0.019094 -0.016930 0.007500
v -0.020481 -0.015403 0.007487
v -0.019176 -0.017002 0.007487
v -0.019253 -0.017071 0.007450
v -0.020563 -0.015465 0.007450
v -0.018011 -0.018766 0.007000
v -0.022684 -0.011915 0.007487
v -0.023569 -0.010050 0.007487
v -0.017883 -0.018633 -0.007391
v -0.019323 -0.017133 -0.007391
v -0.016436 -0.020147 -0.007111
v -0.019381 -0.017184 -0.007312
v -0.020638 -0.015521 -0.007391
v 0.010983 -0.023164 -0.007487
v 0.012755 -0.022110 -0.007500
v 0.005124 -0.025121 -0.007487
v 0.003075 -0.025344 -0.007500
v 0.005103 -0.025014 0.007500
v 0.005145 -0.025223 0.007450
v 0.016436 -0.020147 0.007111
v 0.016268 -0.019941 0.007450
v 0.016133 -0.019776 0.007500
v 0.021819 -0.013809 0.007391
v 0.019323 -0.017133 0.007391
v 0.019425 -0.017223 0.007217
v 0.025639 -0.002071 0.007450
v 0.025732 0.002079 0.007391
v 0.025903 -0.002093 0.007111
v 0.025809 -0.002085 0.007312
v 0.025179 -0.004095 -0.007500
v 0.024874 -0.006136 -0.007487
v 0.025427 0.002054 0.007500
v 0.025287 0.004113 0.007487
v 0.025389 0.004129 0.007450
v 0.024768 0.006110 0.007500
v 0.025065 0.006183 0.007391
v 0.025141 0.006202 0.007312
v 0.024487 0.008182 0.007391
v 0.025233 0.006224 0.007111
v 0.025615 0.004166 0.007217
v 0.025558 0.004157 0.007312
v 0.021934 0.013881 0.007217
v 0.024650 0.008236 0.007111
v 0.022927 0.012043 -0.007312
v 0.022979 0.012070 -0.007217
v 0.025558 0.004157 -0.007312
v 0.025481 0.004144 -0.007391
v 0.025141 0.006202 -0.007312
v 0.025615 0.004166 -0.007217
v 0.022776 0.011963 -0.007450
v 0.024300 0.008119 -0.007487
v 0.024874 0.006136 -0.007487
v 0.024975 0.006161 -0.007450
v 0.024650 0.008236 -0.007111
v 0.024616 0.008225 -0.007217
v 0.023908 0.010195 -0.007111
v 0.024560 0.008206 -0.007312
v 0.024487 0.008182 -0.007391
v 0.025903 0.002093 -0.007111
v 0.025287 0.004113 -0.007487
v 0.025427 0.002054 -0.007500
v 0.025732 0.002079 -0.007391
v 0.025615 -0.004166 -0.007217
v 0.016436 0.020147 -0.007111
v 0.016413 0.020118 -0.007217
v 0.014491 0.021011 -0.007500
v 0.023011 0.012087 -0.007111
v 0.020776 0.015625 -0.007111
v 0.023664 -0.010090 -0.007450
v 0.022684 0.011915 0.007487
v 0.023750 0.010127 0.007391
v 0.023468 0.010007 0.007500
v 0.016436 0.020147 0.007111
v -0.005191 0.025448 -0.007217
v -0.001045 0.025951 -0.007217
v -0.001043 0.025893 -0.007312
v 0.001045 0.025951 -0.007217
v -0.003112 0.025648 -0.007391
v 0.001046 0.025988 -0.007111
v 0.001043 0.025893 -0.007312
v 0.011067 0.023342 0.007391
v 0.009154 0.024157 0.007391
v 0.009182 0.024230 0.007312
v 0.011141 0.023498 0.007111
v -0.019253 -0.017071 -0.007450
v -0.016202 -0.019860 -0.007487
v -0.011067 -0.023342 -0.007391
v -0.014665 -0.021263 -0.007391
v 0.003121 -0.025725 -0.007312
v 0.005191 -0.025448 -0.007217
v 0.001046 -0.025988 0.007111
v 0.003134 -0.025831 -0.007000
v -0.007156 -0.024727 -0.007450
v -0.005164 -0.025314 -0.007391
v -0.007220 -0.024947 -0.007217
v 0.019176 -0.017002 -0.007487
v 0.017818 -0.018566 -0.007450
v 0.011067 -0.023342 -0.007391
v 0.011125 -0.023465 -0.007217
v 0.016444 -0.020156 -0.007000
v 0.018002 -0.018758 -0.007111
v 0.016327 -0.020013 -0.007391
v 0.020638 -0.015521 -0.007391
v -0.022858 0.012007 -0.007391
v -0.023750 0.010127 -0.007391
v -0.022979 0.012070 -0.007217
v -0.021965 0.013901 -0.007111
v -0.020776 0.015625 -0.007111
v -0.016436 0.020147 -0.007111
v -0.019452 0.017247 -0.007111
v -0.019425 0.017223 -0.007217
v -0.019381 0.017184 -0.007312
v -0.024487 0.008182 0.007391
v -0.023821 0.010157 0.007312
v -0.024560 0.008206 0.007312
v -0.022587 0.011864 0.007500
v -0.022684 0.011915 0.007487
v -0.022776 0.011963 0.007450
v -0.021740 0.013759 0.007450
v -0.021819 0.013809 0.007391
v -0.022858 0.012007 0.007391
v -0.021653 0.013703 0.007487
v -0.020481 0.015403 0.007487
v -0.020563 0.015465 0.007450
v -0.020638 0.015521 0.007391
v -0.019094 0.016930 0.007500
v -0.019176 0.017002 0.007487
v -0.019425 0.017223 0.007217
v -0.023011 0.012087 0.007111
v -0.023875 0.010180 0.007217
v -0.022979 0.012070 0.007217
v -0.022927 0.012043 0.007312
v -0.021934 0.013881 0.007217
v -0.025867 0.002090 -0.007217
v -0.025951 -0.000000 -0.007217
v -0.024768 0.006110 0.007500
v -0.024874 0.006136 0.007487
v -0.025141 0.006202 0.007312
v -0.025065 0.006183 0.007391
v -0.024616 0.008225 0.007217
v -0.025197 0.006216 0.007217
v -0.025651 0.004172 0.007111
v -0.025536 0.002063 0.007487
v -0.025639 0.002071 0.007450
v -0.025481 0.004144 0.007391
v -0.025558 0.004157 0.007312
v -0.005103 -0.025014 -0.007500
v 0.003132 0.025819 -0.007111
v 0.005145 0.025223 -0.007450
v 0.011027 0.023258 -0.007450
v 0.009121 0.024070 -0.007450
v 0.011067 0.023342 -0.007391
v 0.012908 0.022375 -0.007391
v 0.011141 0.023498 -0.007111
v 0.012976 0.022493 -0.007217
v 0.011125 0.023465 -0.007217
v 0.009202 0.024285 -0.007217
v 0.007156 0.024727 -0.007450
v -0.007230 0.024982 -0.007111
v -0.014665 0.021263 -0.007391
v -0.012976 0.022493 -0.007217
v -0.012946 0.022442 -0.007312
v -0.012908 0.022375 -0.007391
v -0.025867 -0.002090 -0.007217
v -0.025558 -0.004157 -0.007312
v -0.025536 -0.002063 -0.007487
v -0.025619 -0.000000 -0.007487
v -0.025536 0.002063 -0.007487
v -0.025179 0.004095 -0.007500
v -0.025287 0.004113 -0.007487
v -0.025389 0.004129 -0.007450
v -0.025809 0.002085 -0.007312
v -0.024874 0.006136 -0.007487
v -0.023908 0.010195 -0.007111
v -0.024487 0.008182 -0.007391
v -0.024399 0.008152 -0.007450
v -0.021560 0.013645 -0.007500
v -0.020481 0.015403 -0.007487
v -0.016327 0.020013 -0.007391
v -0.012755 0.022110 0.007500
v -0.009182 0.024230 0.007312
v -0.011125 0.023465 0.007217
v -0.011141 0.023498 0.007111
v -0.017747 0.018491 0.007487
v -0.016133 0.019776 0.007500
v -0.016413 0.020118 0.007217
v -0.014763 0.021405 0.007111
v -0.012976 0.022493 0.007217
v -0.016268 0.019941 0.007450
v -0.017818 0.018566 0.007450
v -0.012861 0.022294 0.007450
v -0.003132 0.025819 0.007111
v -0.001043 0.025893 0.007312
v 0.001043 0.025893 0.007312
v -0.005103 0.025014 0.007500
v -0.007156 0.024727 0.007450
v -0.005145 0.025223 0.007450
v -0.005124 0.025121 0.007487
v 0.001045 0.025951 0.007217
v 0.021965 -0.013901 0.007111
v 0.021740 -0.013759 -0.007450
v 0.021819 -0.013809 -0.007391
v 0.021965 -0.013901 -0.007111
v 0.022858 -0.012007 -0.007391
v 0.022927 -0.012043 -0.007312
v 0.023919 -0.010199 -0.007000
v 0.023908 -0.010195 -0.007111
v 0.023011 -0.012087 -0.007111
v 0.021934 -0.013881 -0.007217
v 0.023821 -0.010157 -0.007312
v 0.022587 -0.011864 0.007500
v 0.022684 -0.011915 0.007487
v 0.022927 -0.012043 0.007312
v 0.022858 -0.012007 0.007391
v 0.023875 -0.010180 0.007217
v 0.023569 -0.010050 0.007487
v 0.023664 -0.010090 0.007450
v 0.024399 -0.008152 0.007450
v 0.023750 -0.010127 0.007391
v 0.009220 -0.024330 0.007000
v 0.007182 -0.024816 -0.007391
v -0.025197 -0.006216 0.007217
v -0.024616 -0.008225 0.007217
v -0.025558 -0.004157 0.007312
v -0.025903 -0.002093 0.007111
v -0.024650 -0.008236 0.007111
v -0.025639 -0.002071 0.007450
v -0.025427 -0.002054 0.007500
v -0.024300 -0.008119 0.007487
v -0.024399 -0.008152 0.007450
v -0.001027 -0.025509 0.007500
v -0.005124 -0.025121 0.007487
v -0.005164 -0.025314 0.007391
v -0.005191 -0.025448 0.007217
v -0.012994 -0.022524 0.007111
v -0.012976 -0.022493 0.007217
v -0.025197 -0.006216 -0.007217
v -0.021819 -0.013809 -0.007391
v -0.022858 -0.012007 -0.007391
v -0.021560 -0.013645 -0.007500
v -0.024487 -0.008182 0.007391
v -0.023875 -0.010180 0.007217
v -0.023821 -0.010157 0.007312
v -0.023750 -0.010127 0.007391
v -0.021819 -0.013809 0.007391
v -0.021740 -0.013759 0.007450
v -0.022776 -0.011963 0.007450
v -0.021653 -0.013703 0.007487
v -0.021965 -0.013901 -0.007111
v -0.019452 -0.017247 0.007111
v -0.017977 -0.018731 0.007217
v -0.019425 -0.017223 0.007217
v -0.020747 -0.015603 0.007217
v -0.020638 -0.015521 0.007391
v -0.021884 -0.013850 0.007312
v -0.019323 -0.017133 0.007391
v -0.021975 -0.013907 0.007000
v -0.020776 -0.015625 0.007111
v -0.022858 -0.012007 0.007391
v -0.018002 -0.018758 0.007111
v -0.017977 -0.018731 -0.007217
v 0.009121 -0.024070 -0.007450
v 0.010936 -0.023065 -0.007500
v 0.007128 -0.024627 -0.007487
v 0.003075 -0.025344 0.007500
v 0.007220 -0.024947 0.007217
v 0.007204 -0.024891 0.007312
v 0.005179 -0.025390 0.007312
v 0.007182 -0.024816 0.007391
v 0.009154 -0.024157 0.007391
v 0.014742 -0.021375 0.007217
v 0.014709 -0.021327 0.007312
v 0.016327 -0.020013 0.007391
v 0.014612 -0.021186 0.007450
v 0.010936 -0.023065 0.007500
v 0.009084 -0.023973 0.007487
v 0.012861 -0.022294 0.007450
v 0.011027 -0.023258 0.007450
v 0.012908 -0.022375 0.007391
v 0.022776 -0.011963 0.007450
v 0.021884 -0.013850 0.007312
v 0.025536 -0.002063 0.007487
v 0.025639 0.002071 0.007450
v 0.025481 0.004144 0.007391
v 0.025536 -0.002063 -0.007487
v 0.024399 0.008152 0.007450
v 0.024560 0.008206 0.007312
v 0.025197 0.006216 0.007217
v 0.022927 0.012043 0.007312
v 0.022858 0.012007 0.007391
v 0.025197 0.006216 -0.007217
v 0.025065 0.006183 -0.007391
v 0.022858 0.012007 -0.007391
v 0.022684 0.011915 -0.007487
v 0.023468 0.010007 -0.007500
v 0.023569 0.010050 -0.007487
v 0.024399 0.008152 -0.007450
v 0.023821 0.010157 -0.007312
v 0.025389 0.004129 -0.007450
v 0.014742 0.021375 -0.007217
v 0.016327 0.020013 -0.007391
v 0.016376 0.020073 -0.007312
v 0.014709 0.021327 -0.007312
v 0.018002 0.018758 -0.007111
v 0.014553 0.021101 -0.007487
v 0.022776 0.011963 0.007450
v 0.017671 0.018412 0.007500
v 0.020747 0.015603 0.007217
v 0.021819 0.013809 0.007391
v 0.021740 0.013759 0.007450
v 0.018002 0.018758 0.007111
v 0.017977 0.018731 0.007217
v -0.005198 0.025483 -0.007111
v -0.001039 0.025815 -0.007391
v -0.003121 0.025725 -0.007312
v -0.003100 0.025555 -0.007450
v 0.003121 0.025725 -0.007312
v 0.001036 0.025722 0.007450
v 0.003121 0.025725 0.007312
v 0.003112 0.025648 0.007391
v 0.007220 0.024947 0.007217
v -0.016133 -0.019776 -0.007500
v -0.014553 -0.021101 -0.007487
v -0.014612 -0.021186 -0.007450
v -0.012809 -0.022204 -0.007487
v -0.016268 -0.019941 -0.007450
v -0.014709 -0.021327 -0.007312
v -0.012861 -0.022294 -0.007450
v -0.012755 -0.022110 -0.007500
v -0.010983 -0.023164 -0.007487
v 0.005198 -0.025483 -0.007111
v 0.003132 -0.025819 0.007111
v -0.007128 -0.024627 -0.007487
v -0.007230 -0.024982 -0.007111
v 0.014770 -0.021415 -0.007000
v 0.014665 -0.021263 -0.007391
v 0.012946 -0.022442 -0.007312
v 0.014709 -0.021327 -0.007312
v 0.016268 -0.019941 -0.007450
v 0.016376 -0.020073 -0.007312
v -0.022776 0.011963 -0.007450
v -0.019323 0.017133 -0.007391
v -0.020747 0.015603 -0.007217
v -0.024975 0.006161 0.007450
v -0.023569 0.010050 0.007487
v -0.023750 0.010127 0.007391
v -0.019323 0.017133 0.007391
v -0.020393 0.015337 0.007500
v -0.020776 0.015625 0.007111
v -0.021884 0.013850 0.007312
v -0.025615 0.004166 0.007217
v -0.025427 0.002054 0.007500
v -0.025732 0.002079 0.007391
v -0.025389 0.004129 0.007450
v 0.010983 0.023164 -0.007487
v 0.012946 0.022442 -0.007312
v 0.012861 0.022294 -0.007450
v 0.014665 0.021263 -0.007391
v -0.010936 0.023065 -0.007500
v -0.010983 0.023164 -0.007487
v -0.014709 0.021327 -0.007312
v -0.011141 0.023498 -0.007111
v -0.012861 0.022294 -0.007450
v -0.025809 -0.002085 -0.007312
v -0.025389 -0.004129 -0.007450
v -0.025065 0.006183 -0.007391
v -0.025893 -0.000000 -0.007312
v -0.023875 0.010180 -0.007217
v -0.010983 0.023164 0.007487
v -0.011100 0.023412 0.007312
v -0.011067 0.023342 0.007391
v -0.012946 0.022442 0.007312
v -0.014612 0.021186 0.007450
v -0.001039 0.025815 0.007391
v -0.007097 0.024522 0.007500
v -0.003088 0.025452 0.007487
v 0.020563 -0.015465 -0.007450
v 0.021884 -0.013850 -0.007312
v 0.022979 -0.012070 -0.007217
v 0.023875 -0.010180 -0.007217
v 0.023908 -0.010195 0.007111
v -0.025809 -0.002085 0.007312
v -0.024874 -0.006136 0.007487
v -0.007097 -0.024522 0.007500
v -0.005103 -0.025014 0.007500
v -0.007182 -0.024816 0.007391
v -0.007156 -0.024727 0.007450
v -0.009154 -0.024157 0.007391
v -0.010983 -0.023164 0.007487
v -0.012809 -0.022204 0.007487
v -0.012861 -0.022294 0.007450
v -0.009121 -0.024070 0.007450
v -0.011100 -0.023412 0.007312
v -0.009182 -0.024230 0.007312
v -0.005145 -0.025223 0.007450
v -0.016413 -0.020118 0.007217
v -0.017883 -0.018633 0.007391
v -0.016133 -0.019776 0.007500
v -0.014553 -0.021101 0.007487
v -0.014612 -0.021186 0.007450
v -0.011141 -0.023498 0.007111
v -0.012755 -0.022110 0.007500
v -0.021884 -0.013850 -0.007312
v -0.022587 -0.011864 -0.007500
v -0.024560 -0.008206 0.007312
v -0.023011 -0.012087 0.007111
v -0.023664 -0.010090 0.007450
v -0.021560 -0.013645 0.007500
v -0.020776 -0.015625 -0.007111
v -0.019381 -0.017184 0.007312
v -0.020700 -0.015568 0.007312
v -0.021934 -0.013881 0.007217
v -0.021965 -0.013901 0.007111
v -0.018002 -0.018758 -0.007111
v -0.016413 -0.020118 -0.007217
v 0.007097 -0.024522 -0.007500
v 0.009084 -0.023973 -0.007487
v 0.007230 -0.024982 0.007111
v 0.011125 -0.023465 0.007217
v 0.011100 -0.023412 0.007312
v 0.009202 -0.024285 0.007217
v 0.009182 -0.024230 0.007312
v 0.011067 -0.023342 0.007391
v 0.012946 -0.022442 0.007312
v 0.007156 -0.024727 0.007450
v 0.014763 -0.021405 0.007111
v 0.016413 -0.020118 0.007217
v 0.014665 -0.021263 0.007391
v 0.009121 -0.024070 0.007450
v 0.010983 -0.023164 0.007487
v 0.014553 -0.021101 0.007487
v 0.021740 -0.013759 0.007450
v 0.025427 -0.002054 -0.007500
v 0.024197 0.008085 -0.007500
v 0.022587 0.011864 -0.007500
v 0.023750 0.010127 -0.007391
v 0.023875 0.010180 -0.007217
v 0.014763 0.021405 -0.007111
v 0.020563 0.015465 0.007450
v 0.020638 0.015521 0.007391
v 0.021560 0.013645 0.007500
v 0.016133 0.019776 0.007500
v 0.016202 0.019860 0.007487
v 0.017747 0.018491 0.007487
v 0.020700 0.015568 0.007312
v 0.020776 0.015625 0.007111
v 0.014665 0.021263 0.007391
v 0.014709 0.021327 0.007312
v 0.014742 0.021375 0.007217
v 0.001027 0.025509 0.007500
v 0.003100 0.025555 0.007450
v 0.005164 0.025314 0.007391
v 0.005191 0.025448 0.007217
v 0.005179 0.025390 0.007312
v 0.009202 0.024285 0.007217
v -0.017818 -0.018566 -0.007450
v 0.014763 -0.021405 -0.007111
v -0.023664 0.010090 -0.007450
v -0.020638 0.015521 -0.007391
v -0.024399 0.008152 0.007450
v -0.019253 0.017071 0.007450
v -0.020747 0.015603 0.007217
v -0.025287 0.004113 0.007487
v 0.011100 0.023412 -0.007312
v -0.012755 0.022110 -0.007500
v -0.011125 0.023465 -0.007217
v -0.011027 0.023258 -0.007450
v -0.011067 0.023342 -0.007391
v -0.025732 -0.002079 -0.007391
v -0.024975 0.006161 -0.007450
v -0.023821 0.010157 -0.007312
v -0.010936 0.023065 0.007500
v -0.009084 0.023973 0.007487
v -0.012908 0.022375 0.007391
v 0.001039 0.025815 0.007391
v -0.003075 0.025344 0.007500
v -0.007128 0.024627 0.007487
v -0.009121 0.024070 0.007450
v 0.020747 -0.015603 -0.007217
v -0.007128 -0.024627 0.007487
v -0.007204 -0.024891 0.007312
v -0.011067 -0.023342 0.007391
v -0.012908 -0.022375 0.007391
v -0.017937 -0.018689 0.007312
v -0.016327 -0.020013 0.007391
v -0.014742 -0.021375 0.007217
v -0.017747 -0.018491 0.007487
v -0.016202 -0.019860 0.007487
v -0.009202 -0.024285 0.007217
v -0.022979 -0.012070 0.007217
v -0.023908 -0.010195 0.007111
v -0.022587 -0.011864 0.007500
v 0.009215 -0.024319 0.007111
v 0.012809 -0.022204 0.007487
v 0.021653 -0.013703 0.007487
v 0.023664 0.010090 -0.007450
v 0.020393 0.015337 0.007500
v 0.020481 0.015403 0.007487
v 0.021653 0.013703 0.007487
v 0.019176 0.017002 0.007487
v 0.017937 0.018689 0.007312
v 0.017883 0.018633 0.007391
v 0.019323 0.017133 0.007391
v 0.021884 0.013850 0.007312
v 0.019381 0.017184 0.007312
v 0.019425 0.017223 0.007217
v 0.019452 0.017247 0.007111
v 0.016268 0.019941 0.007450
v 0.014612 0.021186 0.007450
v 0.017818 0.018566 0.007450
v 0.014763 0.021405 0.007111
v 0.001032 0.025619 0.007487
v 0.003088 0.025452 0.007487
v 0.011027 0.023258 0.007450
v 0.010936 0.023065 0.007500
v 0.009046 0.023871 0.007500
v 0.007204 0.024891 0.007312
v 0.007182 0.024816 0.007391
v 0.014742 -0.021375 -0.007217
v -0.020700 0.015568 -0.007312
v -0.023664 0.010090 0.007450
v -0.020700 0.015568 0.007312
v -0.025179 0.004095 0.007500
v -0.011100 0.023412 -0.007312
v -0.025639 -0.002071 -0.007450
v -0.011027 0.023258 0.007450
v 0.020700 -0.015568 -0.007312
v -0.009084 -0.023973 0.007487
v -0.012946 -0.022442 0.007312
v -0.014709 -0.021327 0.007312
v -0.011027 -0.023258 0.007450
v -0.014665 -0.021263 0.007391
v -0.016376 -0.020073 0.007312
v -0.017818 -0.018566 0.007450
v -0.011125 -0.023465 0.007217
v -0.022927 -0.012043 0.007312
v 0.019253 0.017071 0.007450
v 0.016413 0.020118 0.007217
v 0.014553 0.021101 0.007487
v 0.012861 0.022294 0.007450
v 0.010983 0.023164 0.007487
v 0.012755 0.022110 0.007500
v 0.009121 0.024070 0.007450
v 0.005145 0.025223 0.007450
v 0.005103 0.025014 0.007500
v -0.016268 -0.019941 0.007450
v 0.016376 0.020073 0.007312
v 0.012809 0.022204 0.007487
v 0.009084 0.023973 0.007487
v 0.007128 0.024627 0.007487
v 0.007156 0.024727 0.007450
v 0.003075 0.025344 0.007500
v 0.005124 0.025121 0.007487
v 0.007097 0.024522 0.007500
v 0.016327 0.020013 0.007391
f 1 2 3
f 4 3 2
f 5 1 3
f 6 7 8
f 9 8 7
f 10 5 3
f 11 1 5
f 12 8 9
f 13 9 7
f 14 6 8
f 15 4 2
f 15 2 1
f 16 17 18
f 19 20 21
f 22 3 4
f 23 7 6
f 24 10 3
f 25 5 10
f 26 27 28
f 29 12 9
f 30 31 32
f 30 33 31
f 34 35 36
f 34 36 33
f 37 32 31
f 38 39 40
f 38 40 41
f 42 15 1
f 43 4 15
f 44 6 14
f 44 14 8
f 45 46 47
f 48 49 50
f 48 51 49
f 52 21 53
f 54 55 56
f 57 58 20
f 59 22 4
f 60 61 62
f 63 64 65
f 66 65 64
f 67 68 69
f 67 70 68
f 71 69 72
f 71 72 63
f 73 72 69
f 73 69 68
f 74 24 3
f 75 1 11
f 76 11 5
f 77 25 10
f 78 5 25
f 79 80 81
f 82 81 80
f 83 84 85
f 86 84 83
f 86 82 80
f 87 88 89
f 87 47 46
f 90 62 61
f 91 20 58
f 91 21 20
f 92 13 7
f 93 58 57
f 94 95 96
f 94 96 97
f 98 56 55
f 98 97 56
f 99 7 23
f 100 66 101
f 100 101 102
f 100 102 103
f 104 101 66
f 105 10 24
f 106 52 53
f 107 108 109
f 110 28 27
f 111 112 113
f 114 12 29
f 115 8 12
f 116 34 33
f 116 33 30
f 117 36 35
f 117 33 36
f 118 40 39
f 118 39 119
f 120 121 119
f 122 120 119
f 122 119 39
f 123 39 38
f 123 38 41
f 123 41 124
f 125 17 126
f 125 126 127
f 128 42 1
f 129 15 42
f 130 51 131
f 132 44 8
f 133 126 17
f 133 17 16
f 134 51 45
f 134 45 47
f 134 47 131
f 134 131 51
f 135 16 18
f 136 137 50
f 136 50 49
f 138 51 48
f 138 45 51
f 139 57 20
f 139 20 19
f 140 54 56
f 140 111 113
f 141 139 142
f 143 97 144
f 143 56 97
f 145 146 147
f 148 22 59
f 149 60 150
f 149 61 60
f 151 22 152
f 151 152 153
f 151 153 154
f 151 3 22
f 155 156 70
f 155 70 67
f 157 70 156
f 158 157 156
f 158 159 160
f 161 160 159
f 161 79 81
f 162 75 11
f 163 11 76
f 164 76 5
f 165 77 10
f 166 25 77
f 167 5 78
f 168 169 170
f 171 172 170
f 173 172 171
f 173 171 174
f 175 176 177
f 175 177 85
f 178 177 176
f 178 176 179
f 180 181 89
f 180 89 88
f 182 83 85
f 182 85 177
f 183 82 86
f 183 86 83
f 183 83 184
f 185 86 80
f 185 80 79
f 185 79 168
f 185 168 170
f 186 89 181
f 186 187 188
f 186 188 87
f 186 87 89
f 189 47 87
f 189 87 188
f 189 188 187
f 189 131 47
f 190 62 90
f 190 90 191
f 190 192 62
f 193 194 195
f 196 53 21
f 196 21 91
f 196 197 53
f 198 93 144
f 198 144 97
f 198 97 96
f 199 9 13
f 200 201 95
f 200 95 94
f 200 94 97
f 200 97 98
f 200 98 55
f 202 7 99
f 202 99 203
f 204 66 100
f 204 65 66
f 205 206 207
f 208 207 206
f 209 210 211
f 212 213 214
f 212 211 215
f 216 217 218
f 219 106 53
f 219 53 197
f 220 13 92
f 221 3 151
f 222 27 26
f 223 111 140
f 223 140 56
f 223 56 143
f 223 143 224
f 225 28 110
f 225 110 112
f 225 147 28
f 226 227 228
f 229 29 9
f 230 231 232
f 233 234 114
f 235 12 114
f 236 8 115
f 237 32 37
f 238 32 237
f 238 237 239
f 238 30 32
f 240 116 30
f 241 117 35
f 242 132 8
f 243 239 237
f 244 121 120
f 244 120 127
f 244 127 126
f 245 121 246
f 247 120 122
f 247 127 120
f 248 41 237
f 248 237 37
f 248 124 41
f 249 250 251
f 252 250 253
f 252 251 250
f 254 255 256
f 254 256 257
f 258 137 135
f 258 50 137
f 259 257 256
f 260 261 262
f 260 262 263
f 260 263 264
f 265 266 267
f 265 268 254
f 265 254 261
f 265 261 260
f 265 260 266
f 269 255 254
f 269 254 268
f 269 268 270
f 269 270 42
f 269 128 255
f 271 270 268
f 272 267 266
f 273 17 125
f 273 264 263
f 274 275 276
f 277 43 278
f 277 4 43
f 279 280 281
f 282 52 106
f 282 106 108
f 283 142 139
f 283 139 19
f 284 142 283
f 285 146 286
f 287 224 143
f 287 143 144
f 288 224 287
f 288 287 286
f 288 286 146
f 288 146 145
f 288 111 223
f 288 223 224
f 289 148 59
f 290 152 22
f 290 22 148
f 291 60 62
f 291 62 192
f 291 192 292
f 293 231 294
f 295 232 231
f 295 231 293
f 295 293 296
f 297 298 299
f 297 90 61
f 300 299 298
f 301 302 303
f 304 169 168
f 304 168 79
f 304 79 161
f 304 161 159
f 304 159 169
f 305 99 23
f 306 66 64
f 306 64 63
f 307 308 155
f 307 155 67
f 309 65 204
f 310 63 65
f 310 65 309
f 310 309 311
f 310 71 63
f 312 24 74
f 313 26 28
f 313 3 26
f 314 74 3
f 315 316 317
f 315 46 45
f 315 45 138
f 315 138 316
f 318 319 320
f 321 87 46
f 321 88 87
f 322 323 319
f 324 323 325
f 326 327 322
f 326 322 319
f 326 319 318
f 326 318 317
f 328 75 162
f 329 162 11
f 329 330 331
f 332 333 328
f 332 328 162
f 332 162 329
f 332 329 331
f 334 327 326
f 335 11 336
f 335 336 325
f 335 330 11
f 337 338 339
f 337 76 338
f 340 341 342
f 340 342 343
f 340 343 339
f 344 336 11
f 344 11 163
f 344 163 345
f 344 345 336
f 346 76 164
f 347 348 349
f 347 10 348
f 350 63 72
f 351 68 70
f 352 5 167
f 353 354 355
f 353 355 167
f 353 167 78
f 356 5 357
f 356 357 358
f 356 358 359
f 360 23 6
f 361 356 359
f 362 178 179
f 362 179 363
f 364 365 366
f 367 179 176
f 367 176 175
f 368 369 363
f 368 363 180
f 368 180 88
f 368 88 369
f 370 181 180
f 370 180 363
f 370 363 179
f 371 372 364
f 373 374 375
f 376 186 181
f 377 83 182
f 377 184 83
f 378 379 191
f 378 380 379
f 381 382 383
f 384 380 35
f 384 35 34
f 385 386 194
f 387 194 193
f 387 193 201
f 387 201 200
f 388 228 389
f 388 389 193
f 390 391 392
f 393 294 394
f 395 396 392
f 395 392 391
f 397 92 7
f 398 399 400
f 398 7 401
f 402 400 399
f 403 404 405
f 403 405 406
f 407 408 409
f 407 409 389
f 407 389 228
f 407 228 227
f 410 411 95
f 410 95 201
f 410 201 193
f 410 193 389
f 410 389 409
f 410 409 411
f 412 9 199
f 413 214 213
f 413 213 414
f 413 414 207
f 413 207 208
f 415 209 211
f 416 208 102
f 416 102 101
f 417 211 212
f 417 212 214
f 417 214 415
f 417 415 211
f 418 215 349
f 419 420 216
f 419 205 207
f 419 207 414
f 419 414 213
f 419 213 420
f 421 105 422
f 421 10 105
f 423 206 205
f 424 107 109
f 425 426 427
f 428 218 429
f 430 221 151
f 431 222 26
f 431 26 3
f 432 112 110
f 432 110 27
f 432 27 222
f 433 111 288
f 433 288 145
f 433 145 147
f 433 147 225
f 433 225 112
f 433 112 111
f 434 227 226
f 434 9 227
f 435 434 226
f 436 29 229
f 436 229 437
f 438 231 230
f 438 294 231
f 439 230 232
f 440 441 442
f 440 442 234
f 443 114 29
f 444 445 446
f 444 446 438
f 444 438 230
f 447 448 442
f 447 442 449
f 450 383 382
f 450 382 449
f 451 12 235
f 451 235 448
f 451 448 12
f 452 234 442
f 452 442 448
f 452 448 235
f 452 235 114
f 452 114 234
f 453 454 455
f 456 238 457
f 458 457 459
f 458 459 455
f 460 8 236
f 461 454 462
f 463 236 115
f 463 115 464
f 463 464 465
f 463 465 466
f 463 466 236
f 467 468 469
f 467 470 471
f 467 472 461
f 467 461 468
f 473 240 456
f 473 472 467
f 473 467 471
f 474 34 116
f 474 116 240
f 474 240 473
f 474 473 471
f 474 471 470
f 474 384 34
f 475 117 241
f 475 276 275
f 475 275 476
f 475 476 117
f 477 250 249
f 477 478 479
f 480 275 274
f 480 274 481
f 482 483 275
f 482 275 480
f 482 480 481
f 482 481 253
f 482 253 250
f 482 250 477
f 482 477 483
f 484 253 481
f 485 486 453
f 485 8 486
f 487 132 242
f 488 245 489
f 490 491 492
f 493 41 40
f 493 243 237
f 493 237 41
f 494 459 457
f 494 457 238
f 494 238 239
f 494 239 243
f 495 244 126
f 495 121 244
f 496 121 245
f 496 119 121
f 497 478 498
f 497 248 37
f 497 37 31
f 497 31 499
f 497 499 479
f 497 479 478
f 500 15 129
f 501 502 15
f 501 503 251
f 501 251 502
f 504 478 477
f 504 477 249
f 505 498 478
f 505 478 504
f 505 504 249
f 506 33 117
f 506 479 499
f 506 499 31
f 506 31 33
f 507 128 1
f 507 256 255
f 507 255 128
f 508 258 135
f 508 135 18
f 509 257 259
f 509 262 261
f 509 261 254
f 509 254 257
f 510 259 256
f 510 256 507
f 510 507 1
f 511 128 269
f 511 269 42
f 511 42 128
f 512 265 267
f 512 271 268
f 512 268 265
f 513 272 266
f 513 266 260
f 513 260 264
f 513 264 273
f 514 272 513
f 514 125 127
f 515 278 481
f 515 481 274
f 515 274 516
f 517 4 277
f 517 277 278
f 517 278 518
f 519 492 520
f 521 44 132
f 522 281 280
f 523 363 369
f 524 324 325
f 524 325 336
f 525 523 369
f 526 136 49
f 527 280 279
f 528 422 105
f 529 530 528
f 529 528 105
f 529 105 24
f 531 532 283
f 531 283 19
f 531 19 21
f 531 21 52
f 533 534 284
f 533 284 283
f 533 283 532
f 535 536 537
f 535 538 536
f 539 394 540
f 539 393 394
f 541 113 112
f 541 542 140
f 541 140 113
f 543 55 54
f 543 539 540
f 543 540 385
f 544 285 537
f 545 537 285
f 545 141 142
f 545 142 284
f 545 284 537
f 546 57 139
f 546 139 141
f 547 144 93
f 547 93 57
f 548 148 289
f 548 289 59
f 549 152 290
f 550 551 292
f 550 292 450
f 552 392 396
f 553 554 555
f 553 154 153
f 556 557 298
f 558 553 153
f 558 153 152
f 559 560 561
f 562 560 559
f 562 559 300
f 562 300 298
f 563 90 297
f 564 157 158
f 564 70 157
f 565 566 567
f 565 568 566
f 569 161 81
f 570 302 301
f 570 571 302
f 572 171 170
f 573 158 156
f 573 574 159
f 573 159 158
f 575 306 63
f 575 63 350
f 576 104 66
f 576 66 306
f 577 69 71
f 577 307 67
f 577 67 69
f 578 311 309
f 578 309 406
f 578 406 405
f 579 538 312
f 579 312 74
f 580 581 582
f 580 582 583
f 580 583 313
f 580 313 28
f 580 28 147
f 584 313 583
f 584 583 314
f 584 314 3
f 584 3 313
f 585 315 317
f 585 317 318
f 585 318 320
f 585 321 46
f 585 46 315
f 586 323 322
f 586 331 330
f 586 330 335
f 586 335 325
f 586 325 323
f 587 75 328
f 587 328 333
f 587 588 75
f 589 330 329
f 589 329 11
f 589 11 330
f 590 259 510
f 591 48 50
f 592 334 326
f 592 326 317
f 593 341 594
f 593 594 595
f 593 342 341
f 596 346 597
f 598 76 337
f 598 163 76
f 599 600 337
f 599 337 339
f 601 599 339
f 601 339 343
f 601 343 342
f 601 342 602
f 603 340 339
f 603 339 338
f 604 163 598
f 604 598 337
f 604 337 600
f 604 600 345
f 604 345 163
f 605 210 606
f 605 606 165
f 605 165 347
f 605 347 210
f 607 165 606
f 607 77 165
f 608 209 415
f 608 210 209
f 609 10 347
f 609 347 165
f 609 165 10
f 610 211 210
f 610 210 347
f 610 347 349
f 610 349 215
f 610 215 211
f 611 166 77
f 612 613 614
f 612 614 615
f 616 354 353
f 616 353 78
f 616 78 25
f 617 350 72
f 617 72 73
f 617 73 68
f 617 68 351
f 617 351 618
f 617 618 619
f 617 619 620
f 617 620 350
f 621 622 623
f 621 623 620
f 621 620 619
f 621 619 618
f 621 618 624
f 625 568 626
f 627 625 626
f 628 5 352
f 628 357 5
f 629 359 358
f 629 361 359
f 630 23 360
f 630 631 632
f 633 365 364
f 634 85 84
f 635 630 632
f 636 172 637
f 638 637 172
f 638 172 173
f 639 597 346
f 639 346 164
f 639 164 5
f 639 5 356
f 639 356 361
f 639 361 640
f 639 640 597
f 641 642 372
f 641 372 367
f 641 367 175
f 643 179 367
f 643 367 372
f 643 372 371
f 643 370 179
f 644 371 364
f 644 364 366
f 645 643 371
f 645 371 644
f 645 644 646
f 645 376 181
f 647 646 644
f 647 644 366
f 647 366 373
f 647 373 375
f 648 383 192
f 648 192 190
f 649 548 59
f 650 651 649
f 650 649 59
f 650 59 4
f 650 4 517
f 650 517 518
f 652 378 191
f 652 191 90
f 653 115 12
f 653 464 115
f 654 465 464
f 654 469 468
f 654 468 461
f 654 461 462
f 654 462 466
f 654 466 465
f 655 379 380
f 655 656 381
f 655 191 379
f 657 380 384
f 657 384 474
f 657 474 470
f 658 469 659
f 658 659 470
f 658 470 467
f 658 467 469
f 660 540 394
f 660 394 294
f 661 662 226
f 661 226 228
f 661 228 388
f 661 388 193
f 661 193 195
f 663 390 293
f 663 293 294
f 663 294 393
f 663 393 391
f 663 391 390
f 664 395 665
f 664 665 432
f 664 432 222
f 664 222 666
f 667 664 666
f 668 103 669
f 668 204 100
f 668 100 103
f 670 399 671
f 670 672 673
f 670 673 402
f 670 402 399
f 674 668 669
f 674 406 309
f 675 102 208
f 675 208 206
f 675 103 102
f 676 404 671
f 676 398 401
f 677 397 7
f 677 398 400
f 677 400 397
f 678 92 397
f 679 680 408
f 679 408 407
f 679 407 227
f 679 227 9
f 681 96 682
f 681 682 683
f 681 683 58
f 681 58 93
f 681 93 198
f 681 198 96
f 684 411 409
f 684 95 411
f 685 199 13
f 686 199 685
f 687 104 688
f 687 214 413
f 687 413 208
f 687 208 416
f 687 416 101
f 687 101 104
f 689 420 213
f 689 213 212
f 689 212 215
f 689 216 420
f 690 422 691
f 690 691 692
f 690 692 418
f 693 348 10
f 693 690 418
f 693 418 349
f 693 349 348
f 694 423 205
f 694 205 419
f 695 107 424
f 695 424 694
f 695 428 107
f 696 220 697
f 696 697 698
f 696 698 13
f 696 13 220
f 699 698 697
f 699 697 700
f 701 108 106
f 701 106 219
f 701 109 108
f 702 92 703
f 704 426 425
f 704 425 705
f 706 282 108
f 706 532 531
f 706 531 52
f 706 52 282
f 707 705 425
f 707 429 218
f 707 218 217
f 707 217 708
f 707 708 705
f 709 154 553
f 709 553 555
f 710 430 151
f 710 151 154
f 711 666 222
f 711 222 431
f 711 431 221
f 712 221 431
f 712 431 3
f 712 3 221
f 713 229 9
f 713 434 435
f 713 435 437
f 713 437 229
f 714 435 226
f 714 226 662
f 714 437 435
f 715 439 150
f 715 150 60
f 715 60 291
f 715 291 292
f 716 441 440
f 716 440 234
f 716 234 233
f 717 114 443
f 717 443 233
f 717 233 114
f 718 447 449
f 719 442 441
f 719 441 550
f 719 550 450
f 719 450 449
f 719 449 442
f 720 383 450
f 720 450 292
f 720 292 192
f 720 192 383
f 721 454 453
f 721 462 454
f 722 453 455
f 722 455 459
f 723 238 456
f 723 456 240
f 723 240 30
f 723 30 238
f 724 454 461
f 724 461 472
f 724 472 473
f 724 473 456
f 724 456 457
f 724 457 458
f 724 458 455
f 724 455 454
f 725 484 43
f 725 43 15
f 726 43 484
f 726 484 481
f 726 481 278
f 726 278 43
f 727 8 485
f 727 485 242
f 727 242 8
f 728 242 485
f 728 485 729
f 728 729 491
f 728 491 490
f 730 487 242
f 730 242 728
f 730 728 490
f 730 490 492
f 730 492 487
f 731 732 733
f 731 733 491
f 734 40 118
f 734 243 493
f 734 493 40
f 735 494 243
f 735 243 734
f 735 732 736
f 735 736 459
f 735 459 494
f 737 246 121
f 737 121 495
f 738 488 734
f 738 734 118
f 738 118 119
f 738 119 496
f 738 496 245
f 738 245 488
f 739 272 740
f 739 512 267
f 739 267 272
f 741 742 743
f 741 505 742
f 744 124 498
f 744 498 505
f 744 505 741
f 744 741 743
f 744 123 124
f 745 271 512
f 745 270 271
f 746 747 129
f 746 748 747
f 749 123 750
f 749 751 122
f 749 122 39
f 749 39 123
f 752 750 743
f 752 743 753
f 754 248 497
f 754 497 498
f 754 498 124
f 754 124 248
f 755 501 500
f 755 500 129
f 755 129 747
f 755 747 748
f 756 500 501
f 756 501 15
f 756 15 500
f 757 742 505
f 757 505 249
f 757 249 251
f 757 251 503
f 758 476 275
f 758 275 483
f 758 483 477
f 758 477 479
f 758 479 506
f 758 506 117
f 758 117 476
f 759 263 760
f 759 258 508
f 759 508 18
f 761 75 588
f 761 510 1
f 761 1 75
f 762 247 122
f 762 122 751
f 762 740 272
f 762 272 514
f 762 514 127
f 762 127 247
f 763 125 514
f 763 514 513
f 763 513 273
f 763 273 125
f 764 518 278
f 764 278 515
f 764 515 516
f 764 516 651
f 764 651 650
f 764 650 518
f 765 519 520
f 766 733 489
f 767 487 492
f 767 492 519
f 767 519 765
f 767 765 132
f 767 132 487
f 768 135 137
f 768 16 135
f 769 525 602
f 769 602 342
f 769 342 593
f 770 771 525
f 770 525 369
f 770 369 772
f 770 772 771
f 773 601 602
f 774 320 772
f 774 772 369
f 774 369 88
f 774 88 321
f 775 323 324
f 775 324 771
f 775 771 772
f 775 772 320
f 776 522 280
f 776 280 777
f 778 777 280
f 778 280 527
f 779 526 49
f 779 49 51
f 779 51 130
f 779 527 279
f 779 279 526
f 780 705 708
f 780 708 691
f 780 691 422
f 780 422 528
f 780 528 530
f 780 704 705
f 781 530 529
f 782 284 534
f 782 534 535
f 782 535 537
f 782 537 284
f 783 427 426
f 783 534 533
f 784 432 665
f 784 665 541
f 784 541 112
f 784 112 432
f 785 541 665
f 785 665 395
f 785 395 391
f 786 387 200
f 786 200 55
f 786 55 543
f 786 194 387
f 787 539 543
f 787 543 54
f 787 54 140
f 787 140 542
f 788 544 537
f 788 537 536
f 788 536 538
f 789 146 285
f 789 285 544
f 789 544 788
f 789 788 581
f 789 581 580
f 789 580 147
f 789 147 146
f 790 286 287
f 790 546 141
f 790 141 545
f 790 545 285
f 790 285 286
f 791 148 548
f 791 548 561
f 791 561 549
f 791 549 290
f 791 290 148
f 792 549 561
f 792 561 560
f 793 554 552
f 793 552 396
f 793 396 555
f 793 555 554
f 794 293 390
f 794 390 392
f 794 392 552
f 794 552 296
f 794 296 293
f 795 150 439
f 795 556 149
f 795 149 150
f 796 149 556
f 796 556 298
f 796 298 297
f 796 297 61
f 796 61 149
f 797 560 562
f 798 300 559
f 798 559 561
f 799 800 566
f 799 566 568
f 801 564 567
f 801 567 566
f 802 567 564
f 802 564 158
f 802 158 160
f 802 160 803
f 804 82 183
f 804 183 184
f 804 184 571
f 804 571 570
f 804 570 301
f 804 301 569
f 804 569 81
f 804 81 82
f 805 569 301
f 805 301 806
f 805 803 160
f 805 160 161
f 805 161 569
f 807 806 301
f 807 301 303
f 808 809 810
f 811 305 812
f 811 812 99
f 811 99 305
f 813 814 815
f 813 815 816
f 817 305 818
f 817 814 813
f 817 813 812
f 817 812 305
f 819 820 815
f 819 815 814
f 819 814 817
f 819 817 818
f 821 23 822
f 821 822 818
f 821 305 23
f 823 572 170
f 823 170 169
f 824 156 155
f 824 155 308
f 824 574 573
f 824 573 156
f 825 826 824
f 825 824 308
f 825 308 307
f 827 826 825
f 827 825 809
f 827 816 815
f 828 574 824
f 828 824 826
f 828 826 827
f 829 306 575
f 829 575 350
f 829 350 620
f 829 830 306
f 831 7 202
f 831 202 203
f 831 203 832
f 833 834 808
f 833 808 810
f 835 307 577
f 835 577 836
f 835 836 833
f 835 833 810
f 835 810 809
f 835 809 825
f 835 825 307
f 837 577 71
f 837 71 310
f 837 310 311
f 837 311 578
f 838 839 676
f 838 676 401
f 838 401 7
f 840 834 833
f 840 833 841
f 840 841 405
f 842 314 583
f 842 583 582
f 842 74 314
f 843 321 585
f 843 585 320
f 843 320 774
f 843 774 321
f 844 331 586
f 844 586 322
f 844 332 331
f 845 333 846
f 845 846 334
f 845 334 847
f 848 845 847
f 849 591 850
f 849 850 851
f 849 316 138
f 849 138 48
f 849 48 591
f 852 851 592
f 852 592 317
f 852 317 316
f 852 316 849
f 852 849 851
f 853 332 844
f 853 844 322
f 853 322 327
f 853 327 334
f 853 334 846
f 853 846 333
f 853 333 332
f 854 178 362
f 854 593 595
f 854 595 177
f 854 177 178
f 855 640 361
f 856 857 571
f 856 571 184
f 856 184 377
f 858 855 857
f 859 576 306
f 859 306 830
f 859 688 104
f 859 104 576
f 860 608 415
f 860 415 688
f 861 614 862
f 861 862 611
f 861 611 77
f 861 77 607
f 861 607 606
f 863 166 611
f 863 611 862
f 863 862 614
f 863 614 613
f 864 166 863
f 864 863 865
f 864 865 25
f 864 25 166
f 866 865 863
f 866 863 613
f 866 613 612
f 866 612 622
f 867 830 829
f 867 829 620
f 867 620 623
f 867 623 622
f 867 622 612
f 867 612 615
f 868 616 25
f 868 25 865
f 869 70 564
f 869 351 70
f 870 621 624
f 870 800 871
f 872 167 355
f 872 355 627
f 872 352 167
f 873 352 872
f 873 872 627
f 873 627 626
f 873 626 358
f 873 358 357
f 873 357 628
f 873 628 352
f 874 302 855
f 874 855 361
f 874 361 629
f 874 629 303
f 874 303 302
f 875 631 630
f 875 630 360
f 876 633 364
f 876 364 372
f 876 372 642
f 876 642 877
f 878 85 634
f 878 877 642
f 878 642 641
f 878 641 175
f 878 175 85
f 879 23 635
f 879 822 23
f 880 630 635
f 880 635 23
f 880 23 630
f 881 172 636
f 881 636 185
f 881 185 170
f 881 170 172
f 882 86 185
f 882 185 636
f 882 634 84
f 882 84 86
f 883 634 882
f 883 882 636
f 883 877 878
f 883 878 634
f 884 638 173
f 884 173 174
f 884 174 885
f 884 885 879
f 884 879 635
f 886 632 631
f 887 643 645
f 887 645 181
f 887 181 370
f 887 370 643
f 888 376 645
f 888 645 646
f 888 646 647
f 888 889 376
f 890 360 6
f 891 365 633
f 891 366 365
f 892 366 891
f 892 893 373
f 892 373 366
f 894 376 889
f 894 889 187
f 894 187 186
f 894 186 376
f 895 191 655
f 895 655 381
f 895 381 383
f 895 383 648
f 895 648 190
f 895 190 191
f 896 649 651
f 896 651 897
f 898 652 90
f 898 90 563
f 899 516 900
f 899 900 897
f 899 897 651
f 899 651 516
f 901 35 380
f 901 380 378
f 901 902 241
f 901 241 35
f 903 902 901
f 903 901 378
f 903 378 652
f 903 652 898
f 903 898 904
f 905 516 274
f 905 274 276
f 905 276 475
f 905 900 516
f 906 907 653
f 906 653 12
f 906 12 907
f 908 381 656
f 908 909 718
f 910 659 908
f 910 908 656
f 910 656 655
f 910 657 470
f 910 470 659
f 911 653 907
f 911 907 912
f 911 912 464
f 911 464 653
f 913 464 912
f 913 469 654
f 913 654 464
f 914 659 469
f 914 469 913
f 914 913 912
f 914 909 908
f 914 908 659
f 915 660 294
f 915 294 438
f 915 438 446
f 916 395 664
f 916 664 667
f 916 667 396
f 916 396 395
f 917 103 918
f 917 918 672
f 917 672 669
f 917 669 103
f 919 669 672
f 919 672 670
f 920 668 674
f 920 674 309
f 920 309 204
f 920 204 668
f 921 918 103
f 921 103 675
f 921 675 206
f 922 398 676
f 922 676 671
f 922 671 399
f 922 399 398
f 923 398 677
f 923 677 7
f 923 7 398
f 924 678 397
f 924 402 925
f 924 703 92
f 924 92 678
f 926 412 680
f 926 680 679
f 926 679 9
f 926 9 412
f 927 408 680
f 928 684 409
f 928 409 408
f 929 96 95
f 929 95 684
f 929 682 96
f 930 931 197
f 930 197 196
f 930 196 91
f 932 415 214
f 932 214 687
f 932 687 688
f 932 688 415
f 933 418 692
f 933 692 691
f 933 691 708
f 934 418 933
f 934 933 689
f 934 689 215
f 934 215 418
f 935 421 422
f 935 422 690
f 935 690 693
f 935 10 421
f 936 925 402
f 936 402 673
f 936 673 672
f 937 938 918
f 937 918 921
f 939 925 936
f 939 936 938
f 940 700 941
f 940 941 942
f 943 702 942
f 943 942 941
f 943 941 700
f 943 700 697
f 944 216 218
f 944 695 694
f 944 694 419
f 944 419 216
f 945 946 947
f 945 947 948
f 945 424 109
f 949 700 940
f 949 940 950
f 949 951 699
f 949 699 700
f 952 694 424
f 952 423 694
f 953 424 945
f 953 945 948
f 954 940 942
f 954 942 939
f 955 946 945
f 955 945 109
f 955 109 701
f 955 701 219
f 955 219 946
f 956 425 427
f 956 428 429
f 956 429 707
f 956 707 425
f 957 396 667
f 957 555 396
f 958 430 710
f 958 710 154
f 958 154 709
f 959 667 666
f 959 666 711
f 959 711 221
f 960 434 713
f 960 713 9
f 960 9 434
f 961 962 386
f 961 386 385
f 963 386 962
f 963 962 662
f 963 662 661
f 963 661 195
f 963 195 194
f 963 194 386
f 964 962 965
f 964 662 962
f 966 551 967
f 968 551 550
f 968 550 441
f 968 441 716
f 969 716 233
f 970 29 436
f 971 970 436
f 971 436 437
f 972 973 974
f 975 718 909
f 975 909 914
f 975 914 912
f 975 912 907
f 976 382 381
f 976 381 908
f 976 908 718
f 976 718 449
f 976 449 382
f 977 486 8
f 977 8 460
f 977 460 236
f 977 236 466
f 977 466 462
f 977 462 721
f 977 721 453
f 977 453 486
f 978 485 453
f 978 453 722
f 978 722 729
f 978 729 485
f 979 736 732
f 979 732 731
f 979 731 491
f 979 491 729
f 979 729 722
f 979 722 459
f 979 459 736
f 980 502 251
f 980 251 252
f 980 252 253
f 980 253 484
f 980 484 725
f 980 15 502
f 981 492 491
f 981 491 733
f 981 733 766
f 981 766 520
f 981 520 492
f 982 488 489
f 982 489 733
f 982 733 732
f 982 732 488
f 983 732 735
f 983 735 734
f 983 734 488
f 983 488 732
f 984 246 737
f 984 985 766
f 984 766 489
f 984 489 245
f 984 245 246
f 986 123 744
f 986 744 743
f 986 743 750
f 986 750 123
f 987 743 742
f 987 742 748
f 987 748 753
f 987 753 743
f 988 745 512
f 988 512 739
f 989 270 745
f 989 42 270
f 990 991 746
f 990 129 42
f 990 989 991
f 992 753 748
f 992 748 746
f 993 750 752
f 993 752 753
f 994 503 501
f 994 501 755
f 994 755 748
f 994 748 742
f 994 742 757
f 994 757 503
f 995 759 760
f 996 509 259
f 996 262 509
f 997 262 996
f 997 998 995
f 997 995 760
f 997 760 263
f 997 263 262
f 999 263 759
f 999 759 18
f 999 18 17
f 999 17 273
f 999 273 263
f 1000 590 510
f 1000 510 761
f 1000 761 588
f 1001 765 520
f 1001 520 766
f 1001 766 985
f 1002 44 521
f 1003 737 495
f 1004 1005 1001
f 1004 1001 985
f 1004 985 984
f 1006 16 768
f 1006 768 1007
f 1006 133 16
f 1008 523 525
f 1008 525 769
f 1008 769 593
f 1008 593 854
f 1008 854 362
f 1008 362 363
f 1008 363 523
f 1009 524 773
f 1009 773 771
f 1009 771 324
f 1009 324 524
f 1010 525 771
f 1010 771 773
f 1010 773 602
f 1010 602 525
f 1011 345 600
f 1011 600 599
f 1011 599 601
f 1011 601 773
f 1011 773 524
f 1011 524 336
f 1011 336 345
f 1012 323 775
f 1012 775 320
f 1012 320 319
f 1012 319 323
f 1013 375 374
f 1014 889 1015
f 1014 187 889
f 1016 131 189
f 1016 130 131
f 1017 24 781
f 1017 781 529
f 1017 529 24
f 1018 1019 781
f 1018 781 24
f 1018 24 1020
f 1021 426 704
f 1021 530 781
f 1021 781 1019
f 1021 1019 783
f 1021 783 426
f 1022 427 783
f 1022 783 533
f 1022 533 532
f 1022 532 427
f 1023 534 783
f 1023 783 1019
f 1023 1019 1018
f 1023 1018 1020
f 1023 535 534
f 1024 312 1020
f 1024 1020 24
f 1024 24 312
f 1025 535 1023
f 1025 1023 1020
f 1025 1020 312
f 1025 312 538
f 1025 538 535
f 1026 542 541
f 1026 541 785
f 1026 785 391
f 1026 391 393
f 1026 393 539
f 1026 539 787
f 1026 787 542
f 1027 194 786
f 1027 786 543
f 1027 543 385
f 1027 385 194
f 1028 74 842
f 1028 842 582
f 1028 582 581
f 1028 581 788
f 1028 788 538
f 1028 538 579
f 1028 579 74
f 1029 547 57
f 1029 57 546
f 1029 546 790
f 1029 790 287
f 1029 287 144
f 1029 144 547
f 1030 556 795
f 1030 795 439
f 1030 439 232
f 1031 554 553
f 1031 553 558
f 1032 554 1031
f 1032 1031 1033
f 1032 296 552
f 1032 552 554
f 1034 152 549
f 1034 549 792
f 1034 792 560
f 1034 560 797
f 1034 797 1031
f 1034 1031 558
f 1034 558 152
f 1035 1033 1031
f 1035 1031 797
f 1035 797 562
f 1035 562 298
f 1035 298 557
f 1036 800 799
f 1036 799 568
f 1036 568 625
f 1036 625 627
f 1036 627 355
f 1037 629 358
f 1037 807 303
f 1037 303 629
f 1038 803 805
f 1038 805 806
f 1038 806 807
f 1038 567 802
f 1038 802 803
f 1039 832 203
f 1039 808 834
f 1039 834 840
f 1040 203 99
f 1040 99 812
f 1041 809 808
f 1041 813 816
f 1041 816 827
f 1041 827 809
f 1042 572 820
f 1042 174 171
f 1042 171 572
f 1043 305 821
f 1043 821 818
f 1043 818 305
f 1044 159 574
f 1044 169 159
f 1045 815 820
f 1045 828 827
f 1045 827 815
f 1046 577 837
f 1046 837 578
f 1046 578 405
f 1046 405 841
f 1046 841 833
f 1046 833 836
f 1046 836 577
f 1047 838 7
f 1047 7 831
f 1048 840 405
f 1048 405 404
f 1048 404 676
f 1048 676 839
f 1049 1039 840
f 1049 840 1048
f 1049 1048 839
f 1049 839 838
f 1050 587 333
f 1050 333 845
f 1050 588 587
f 1051 850 995
f 1051 995 998
f 1052 588 1050
f 1052 1050 845
f 1052 845 848
f 1052 590 1000
f 1052 1000 588
f 1053 590 1052
f 1053 1052 848
f 1053 848 1051
f 1053 1051 998
f 1053 998 997
f 1053 997 996
f 1053 996 259
f 1053 259 590
f 1054 76 346
f 1054 596 1055
f 1054 1055 338
f 1054 338 76
f 1056 857 855
f 1056 855 302
f 1056 302 571
f 1056 571 857
f 1057 182 177
f 1057 177 595
f 1057 595 594
f 1057 856 377
f 1057 377 182
f 1058 640 855
f 1058 855 858
f 1058 1055 596
f 1058 596 597
f 1058 597 640
f 1059 608 860
f 1059 860 688
f 1059 688 859
f 1059 859 830
f 1060 861 606
f 1060 606 210
f 1060 210 608
f 1061 621 870
f 1061 622 621
f 1062 830 867
f 1062 867 615
f 1062 615 1059
f 1062 1059 830
f 1063 801 566
f 1063 618 351
f 1063 351 869
f 1063 869 564
f 1063 564 801
f 1064 886 631
f 1065 876 877
f 1065 877 883
f 1065 1066 633
f 1065 633 876
f 1067 637 638
f 1067 1065 883
f 1067 883 636
f 1067 636 637
f 1068 632 886
f 1068 886 638
f 1068 638 884
f 1068 884 635
f 1068 635 632
f 1069 375 1013
f 1069 889 888
f 1069 888 647
f 1069 647 375
f 1070 360 890
f 1071 374 373
f 1071 373 893
f 1071 893 890
f 1071 6 374
f 1072 798 561
f 1072 561 548
f 1072 548 649
f 1072 649 896
f 1072 896 897
f 1072 897 798
f 1073 900 904
f 1073 798 897
f 1073 897 900
f 1074 903 904
f 1074 904 900
f 1075 902 903
f 1075 903 1074
f 1075 1074 900
f 1075 900 905
f 1075 905 475
f 1075 475 241
f 1075 241 902
f 1076 380 657
f 1076 657 910
f 1076 910 655
f 1076 655 380
f 1077 671 404
f 1077 404 403
f 1077 403 406
f 1077 406 674
f 1077 674 669
f 1077 669 919
f 1077 919 670
f 1077 670 671
f 1078 402 924
f 1078 924 397
f 1078 397 400
f 1078 400 402
f 1079 412 199
f 1080 412 1079
f 1080 927 680
f 1080 680 412
f 1081 1082 1083
f 1081 928 1082
f 1084 686 1085
f 1084 1085 1086
f 1087 1083 1082
f 1088 1089 1083
f 1090 1082 928
f 1090 928 408
f 1090 408 927
f 1091 946 219
f 1092 699 951
f 1093 685 13
f 1094 1086 1085
f 1094 1085 685
f 1095 1086 1094
f 1096 931 930
f 1096 930 91
f 1096 91 58
f 1096 58 683
f 1097 685 1085
f 1097 1085 686
f 1097 686 685
f 1098 217 216
f 1098 216 689
f 1098 689 933
f 1098 933 708
f 1098 708 217
f 1099 10 935
f 1099 935 693
f 1099 693 10
f 1100 938 936
f 1100 936 672
f 1100 672 918
f 1100 918 938
f 1101 423 952
f 1101 206 423
f 1102 925 939
f 1102 939 942
f 1102 942 702
f 1102 702 703
f 1102 703 924
f 1102 924 925
f 1103 220 92
f 1103 702 943
f 1103 943 697
f 1103 697 220
f 1104 695 944
f 1104 944 218
f 1104 218 428
f 1104 428 695
f 1105 948 947
f 1105 947 946
f 1105 951 949
f 1106 948 1105
f 1106 1105 949
f 1106 949 950
f 1106 950 1107
f 1106 1107 948
f 1108 1107 1101
f 1108 1101 952
f 1108 952 424
f 1108 424 953
f 1108 953 948
f 1108 948 1107
f 1109 108 107
f 1109 107 428
f 1109 428 956
f 1109 956 706
f 1109 706 108
f 1110 706 956
f 1110 956 427
f 1110 427 532
f 1110 532 706
f 1111 430 959
f 1111 959 221
f 1111 221 430
f 1112 957 667
f 1112 667 959
f 1112 959 430
f 1112 430 958
f 1112 958 709
f 1112 709 555
f 1112 555 957
f 1113 961 385
f 1113 385 540
f 1113 540 660
f 1113 660 915
f 1114 445 1115
f 1114 1116 446
f 1114 446 445
f 1117 1116 1114
f 1117 1114 1115
f 1117 1115 965
f 1117 965 962
f 1117 962 961
f 1117 961 1116
f 1118 973 965
f 1118 965 1115
f 1118 1115 974
f 1118 974 973
f 1119 974 1115
f 1119 1115 445
f 1119 445 966
f 1119 966 967
f 1120 437 714
f 1120 714 662
f 1120 662 964
f 1120 964 965
f 1120 971 437
f 1121 444 230
f 1121 230 439
f 1121 439 715
f 1121 715 966
f 1121 966 445
f 1121 445 444
f 1122 551 966
f 1122 966 715
f 1122 715 292
f 1122 292 551
f 1123 967 551
f 1123 551 968
f 1123 968 716
f 1123 716 969
f 1123 969 972
f 1123 972 974
f 1123 974 1119
f 1123 1119 967
f 1124 973 971
f 1124 971 1120
f 1124 1120 965
f 1124 965 973
f 1125 970 971
f 1125 971 973
f 1125 973 972
f 1126 972 969
f 1126 969 233
f 1126 233 443
f 1127 718 975
f 1127 447 718
f 1128 15 980
f 1128 980 725
f 1128 725 15
f 1129 129 990
f 1129 990 746
f 1129 746 129
f 1130 989 990
f 1130 990 42
f 1130 42 989
f 1131 745 988
f 1131 988 739
f 1131 739 993
f 1131 993 753
f 1131 753 992
f 1132 740 762
f 1132 762 751
f 1132 751 749
f 1132 749 750
f 1132 750 993
f 1132 993 739
f 1132 739 740
f 1133 759 995
f 1133 995 850
f 1133 850 591
f 1133 591 50
f 1133 50 258
f 1133 258 759
f 1134 1005 1004
f 1134 1004 1135
f 1136 132 765
f 1136 521 132
f 1137 44 1002
f 1137 1002 1138
f 1137 1138 44
f 1139 1138 1002
f 1140 737 1003
f 1141 1003 495
f 1141 495 126
f 1142 1143 281
f 1142 281 522
f 1144 279 281
f 1144 281 1143
f 1145 6 44
f 1145 374 6
f 1146 1015 1013
f 1146 1147 1015
f 1148 189 187
f 1148 1016 189
f 1149 1148 187
f 1149 187 1014
f 1149 1014 1015
f 1149 1015 1147
f 1150 130 1016
f 1150 1016 778
f 1150 778 527
f 1150 527 779
f 1150 779 130
f 1151 530 1021
f 1151 1021 704
f 1151 704 780
f 1151 780 530
f 1152 295 296
f 1152 556 1030
f 1152 1030 232
f 1152 232 295
f 1153 354 616
f 1153 616 871
f 1153 871 800
f 1153 800 1036
f 1153 1036 355
f 1153 355 354
f 1154 626 568
f 1154 568 565
f 1154 807 1037
f 1154 1037 358
f 1154 358 626
f 1155 1041 808
f 1155 808 1039
f 1155 1039 203
f 1156 819 818
f 1156 818 822
f 1156 822 879
f 1156 879 885
f 1156 885 174
f 1156 174 1042
f 1156 1042 820
f 1156 820 819
f 1157 572 823
f 1157 823 169
f 1157 169 1044
f 1157 1044 574
f 1157 574 828
f 1158 832 1039
f 1158 1039 1049
f 1158 1049 838
f 1158 831 832
f 1159 847 334
f 1159 334 592
f 1159 592 851
f 1159 851 850
f 1159 850 1051
f 1159 1051 848
f 1159 848 847
f 1160 596 1054
f 1160 1054 346
f 1160 346 596
f 1161 856 1057
f 1161 1057 594
f 1161 594 341
f 1162 1163 340
f 1162 340 603
f 1162 603 338
f 1162 338 1055
f 1162 1055 1058
f 1162 1058 858
f 1162 858 1163
f 1164 1060 608
f 1164 608 1059
f 1164 1059 615
f 1164 615 614
f 1165 871 616
f 1165 616 868
f 1165 868 865
f 1165 865 866
f 1165 866 622
f 1165 622 1061
f 1165 1061 870
f 1165 870 871
f 1166 800 870
f 1166 870 624
f 1166 624 618
f 1166 618 1063
f 1166 1063 566
f 1166 566 800
f 1167 875 360
f 1167 360 1168
f 1167 1168 1064
f 1167 1064 631
f 1167 631 875
f 1169 1066 1065
f 1169 1065 1067
f 1169 1067 638
f 1169 638 886
f 1170 889 1069
f 1170 1069 1013
f 1170 1013 1015
f 1170 1015 889
f 1171 6 1071
f 1171 1071 890
f 1171 890 6
f 1172 1070 890
f 1172 890 893
f 1172 893 892
f 1172 892 891
f 1172 891 1168
f 1172 1168 360
f 1172 360 1070
f 1173 1168 891
f 1173 891 633
f 1174 563 297
f 1174 297 299
f 1174 299 300
f 1174 904 898
f 1174 898 563
f 1175 1082 1090
f 1175 1090 927
f 1175 927 1080
f 1175 1080 1079
f 1175 1079 199
f 1176 1081 1083
f 1176 1083 1089
f 1176 1089 682
f 1176 682 929
f 1176 929 684
f 1176 684 928
f 1176 928 1081
f 1177 1178 1088
f 1177 1088 1083
f 1179 1180 1092
f 1179 1092 951
f 1179 951 1105
f 1179 1105 946
f 1181 197 931
f 1181 1091 219
f 1181 219 197
f 1182 13 698
f 1182 698 699
f 1183 1093 13
f 1183 13 1182
f 1183 1095 1094
f 1183 1094 685
f 1183 685 1093
f 1184 1096 683
f 1184 683 682
f 1184 682 1089
f 1185 937 1101
f 1185 1101 1107
f 1186 206 1101
f 1186 1101 937
f 1186 937 921
f 1186 921 206
f 1187 702 1103
f 1187 1103 92
f 1187 92 702
f 1188 1116 961
f 1188 961 1113
f 1188 1113 915
f 1188 915 446
f 1188 446 1116
f 1189 29 970
f 1189 970 1125
f 1189 1125 972
f 1189 972 1126
f 1189 1126 443
f 1189 443 29
f 1190 907 12
f 1190 12 448
f 1190 448 447
f 1190 447 1127
f 1190 1127 975
f 1190 975 907
f 1191 991 989
f 1191 989 745
f 1191 745 1131
f 1191 1131 992
f 1191 992 746
f 1191 746 991
f 1192 521 1136
f 1192 1136 1193
f 1192 1193 521
f 1194 1005 1134
f 1194 1134 1193
f 1194 1193 1136
f 1194 1136 765
f 1194 765 1001
f 1194 1001 1005
f 1195 521 1193
f 1195 1139 1002
f 1195 1002 521
f 1196 1197 1198
f 1199 1004 984
f 1199 984 737
f 1199 737 1140
f 1199 1140 1135
f 1199 1135 1004
f 1200 1201 1007
f 1200 1007 1196
f 1200 1196 1198
f 1200 1198 1135
f 1200 1135 1140
f 1200 1140 1003
f 1200 1003 1201
f 1202 133 1006
f 1202 1006 1007
f 1202 1007 1201
f 1202 1201 1003
f 1202 1003 1141
f 1202 1141 126
f 1202 126 133
f 1203 1142 1204
f 1203 1204 1138
f 1203 1138 1139
f 1203 1139 1205
f 1203 1205 1197
f 1206 526 279
f 1206 279 1144
f 1206 1144 768
f 1206 768 137
f 1206 137 136
f 1206 136 526
f 1207 1013 374
f 1207 374 1145
f 1207 1145 1208
f 1207 1208 1146
f 1207 1146 1013
f 1209 776 777
f 1209 522 776
f 1210 1145 44
f 1211 1145 1210
f 1212 1213 777
f 1212 777 778
f 1212 778 1016
f 1212 1016 1148
f 1212 1148 1149
f 1212 1149 1147
f 1212 1147 1213
f 1214 1033 1035
f 1214 1035 557
f 1214 557 556
f 1214 556 1152
f 1214 1152 296
f 1214 296 1032
f 1214 1032 1033
f 1215 1038 807
f 1215 807 1154
f 1215 1154 565
f 1215 565 567
f 1215 567 1038
f 1216 1040 812
f 1216 812 813
f 1216 813 1041
f 1216 1041 1155
f 1216 1155 203
f 1216 203 1040
f 1217 1045 820
f 1217 820 572
f 1217 572 1157
f 1217 1157 828
f 1217 828 1045
f 1218 1047 831
f 1218 831 1158
f 1218 1158 838
f 1218 838 1047
f 1219 1163 858
f 1219 858 857
f 1219 857 856
f 1219 856 1161
f 1219 1161 341
f 1219 341 340
f 1219 340 1163
f 1220 861 1060
f 1220 1060 1164
f 1220 1164 614
f 1220 614 861
f 1221 1066 1169
f 1221 1169 886
f 1221 886 1064
f 1221 1064 1168
f 1221 1168 1173
f 1221 1173 633
f 1221 633 1066
f 1222 798 1073
f 1222 1073 904
f 1222 904 1174
f 1222 1174 300
f 1222 300 798
f 1223 1087 1082
f 1223 1082 1175
f 1223 1175 199
f 1223 199 686
f 1223 686 1084
f 1224 1088 1178
f 1224 1225 1181
f 1224 1181 931
f 1224 931 1088
f 1226 1084 1086
f 1226 1086 1178
f 1226 1178 1177
f 1226 1177 1083
f 1226 1083 1087
f 1226 1087 1223
f 1226 1223 1084
f 1227 1225 1224
f 1227 1224 1178
f 1227 1178 1086
f 1227 1086 1095
f 1228 1091 1181
f 1228 1181 1225
f 1228 1225 1227
f 1228 1227 1180
f 1228 1180 1179
f 1228 1179 946
f 1228 946 1091
f 1229 1182 699
f 1229 699 1092
f 1230 1088 931
f 1230 931 1096
f 1230 1096 1184
f 1230 1184 1089
f 1230 1089 1088
f 1231 954 939
f 1231 939 938
f 1231 938 937
f 1231 937 1185
f 1231 1185 1107
f 1231 1107 950
f 1231 950 940
f 1231 940 954
f 1232 1134 1135
f 1232 1135 1198
f 1232 1198 1197
f 1232 1197 1205
f 1232 1205 1139
f 1232 1139 1195
f 1232 1195 1193
f 1232 1193 1134
f 1233 768 1144
f 1233 1007 768
f 1234 1138 1204
f 1234 44 1138
f 1235 522 1209
f 1235 1209 1236
f 1235 1234 1204
f 1235 1204 1142
f 1235 1142 522
f 1237 1210 44
f 1238 1209 777
f 1239 1147 1146
f 1240 1145 1211
f 1241 1180 1227
f 1241 1227 1095
f 1241 1095 1183
f 1241 1183 1182
f 1241 1182 1229
f 1241 1229 1092
f 1241 1092 1180
f 1242 1143 1142
f 1242 1196 1007
f 1242 1007 1233
f 1242 1233 1144
f 1242 1144 1143
f 1243 1210 1237
f 1243 1237 44
f 1243 44 1234
f 1243 1234 1235
f 1243 1235 1236
f 1243 1236 1210
f 1244 1211 1210
f 1244 1210 1236
f 1244 1236 1209
f 1244 1209 1238
f 1244 1245 1211
f 1246 1213 1147
f 1246 1147 1239
f 1246 1239 1245
f 1246 1245 1244
f 1246 1244 1238
f 1246 1238 777
f 1246 777 1213
f 1247 1145 1240
f 1247 1240 1208
f 1247 1208 1145
f 1248 1239 1146
f 1248 1146 1208
f 1248 1208 1240
f 1248 1240 1245
f 1248 1245 1239
f 1249 1245 1240
f 1249 1240 1211
f 1249 1211 1245
f 1250 1203 1197
f 1250 1197 1196
f 1250 1196 1242
f 1250 1242 1142
f 1250 1142 1203
