# Convex hull collision mesh — generated by scripts/generate-collision-meshes.mjs
v -2.679134 4.221640 11.000000
v -3.644843 -3.422735 11.000000
v 3.644843 3.422735 11.000000
v 4.381534 -2.408768 11.000000
v 2.679134 -4.221640 -2.500000
v -3.644843 -3.422735 -2.500000
v 3.644843 3.422735 -2.500000
v -3.187120 3.852566 -2.500000
v 0.313953 4.990134 11.000000
v 4.960574 0.626666 11.000000
v -4.381534 -2.408768 11.000000
v 0.936907 -4.911436 11.000000
v -0.313953 -4.990134 -2.500000
v 4.960574 -0.626666 -2.500000
v -4.960574 0.626666 -2.500000
v 2.128896 4.524135 -2.500000
v 3.187120 -3.852566 11.000000
v -1.545085 -4.755282 11.000000
v 4.842916 1.243449 -2.500000
v 4.960574 -0.626666 11.000000
v -4.381534 2.408768 -2.500000
v -0.313953 4.990134 -2.500000
v 3.187120 3.852566 -2.500000
v 8.312693 8.654429 0.000000
v 4.045085 2.938926 11.000000
v 0.483191 11.990268 5.000000
v 0.483191 11.990268 0.000000
v -0.483191 11.990268 5.000000
v 2.128896 4.524135 11.000000
v 4.255259 11.220195 0.000000
v 5.144311 10.841405 0.000000
v -2.400308 11.757488 5.000000
v -3.338609 11.526217 0.000000
v -3.338609 11.526217 5.000000
v -1.545085 4.755282 11.000000
v -8.312693 8.654429 5.000000
v -8.312693 8.654429 0.000000
v -8.982129 7.957472 5.000000
v -11.961087 -0.965599 5.000000
v -12.000000 0.000000 5.000000
v -12.000000 0.000000 0.000000
v -11.961087 0.965599 5.000000
v -4.842916 1.243449 11.000000
v -2.128896 -4.524135 -2.500000
v -3.187120 -3.852566 -2.500000
v -8.312693 -8.654429 0.000000
v 2.128896 -4.524135 11.000000
v 3.644843 -3.422735 11.000000
v -0.313953 -4.990134 11.000000
v -4.960574 -0.626666 -2.500000
v -10.142281 -6.413590 5.000000
v -10.625472 -5.576678 5.000000
v -10.142281 -6.413590 0.000000
v -9.593313 -7.208907 5.000000
v -8.982129 -7.957472 5.000000
v -8.312693 -8.654429 5.000000
v -4.045085 -2.938926 11.000000
v 8.312693 -8.654429 5.000000
v 2.400308 -11.757488 0.000000
v 3.338609 -11.526217 0.000000
v 2.400308 -11.757488 5.000000
v 4.381534 2.408768 -2.500000
v 4.960574 0.626666 -2.500000
v 11.844604 1.924935 0.000000
v 11.382438 -3.800016 0.000000
v 11.651301 -2.871788 5.000000
v 11.382438 -3.800016 5.000000
v 11.039753 -4.703599 0.000000
v 5.000000 0.000000 11.000000
v 11.844604 -1.924935 5.000000
v 11.844604 -1.924935 0.000000
v 11.039753 -4.703599 5.000000
v 10.625472 -5.576678 5.000000
v 4.842916 -1.243449 11.000000
v -11.844604 1.924935 0.000000
v -11.844604 1.924935 5.000000
v -11.039753 4.703599 5.000000
v -11.382438 3.800016 0.000000
v -11.382438 3.800016 5.000000
v -11.651301 2.871788 5.000000
v -10.625472 5.576678 0.000000
v -10.142281 6.413590 0.000000
v -10.625472 5.576678 5.000000
v -4.842916 1.243449 -2.500000
v -3.644843 3.422735 -2.500000
v -4.255259 11.220195 0.000000
v -5.144311 10.841405 0.000000
v -5.144311 10.841405 5.000000
v 0.313953 4.990134 -2.500000
v -0.483191 11.990268 0.000000
v -1.446440 11.912506 0.000000
v 6.000000 10.392304 0.000000
v 7.589345 9.295259 0.000000
v 6.816777 9.875807 0.000000
v 7.589345 9.295259 5.000000
v 2.679134 4.221640 -2.500000
v 11.844604 1.924935 5.000000
v 11.651301 2.871788 5.000000
v 8.982129 7.957472 5.000000
v 10.142281 6.413590 0.000000
v 10.625472 5.576678 0.000000
v 10.625472 5.576678 5.000000
v 4.648882 1.840623 11.000000
v 1.446440 11.912506 5.000000
v 2.400308 11.757488 5.000000
v 2.400308 11.757488 0.000000
v 5.144311 10.841405 5.000000
v 3.187120 3.852566 11.000000
v 1.545085 4.755282 11.000000
v 3.338609 11.526217 0.000000
v -6.000000 10.392304 5.000000
v -6.816777 9.875807 0.000000
v -6.816777 9.875807 5.000000
v -1.446440 11.912506 5.000000
v -2.400308 11.757488 0.000000
v -2.128896 4.524135 11.000000
v -4.255259 11.220195 5.000000
v -7.589345 9.295259 5.000000
v -4.842916 -1.243449 11.000000
v -4.960574 -0.626666 11.000000
v -11.844604 -1.924935 5.000000
v -4.960574 0.626666 11.000000
v -4.045085 2.938926 11.000000
v -9.593313 7.208907 5.000000
v -2.679134 -4.221640 -2.500000
v -6.816777 -9.875807 0.000000
v -7.589345 -9.295259 0.000000
v -6.816777 -9.875807 5.000000
v -6.000000 -10.392304 5.000000
v -2.400308 -11.757488 5.000000
v -3.338609 -11.526217 5.000000
v -3.338609 -11.526217 0.000000
v -4.255259 -11.220195 5.000000
v 2.679134 -4.221640 11.000000
v 6.000000 -10.392304 5.000000
v 3.338609 -11.526217 5.000000
v 4.045085 -2.938926 11.000000
v -4.381534 -2.408768 -2.500000
v -5.000000 -0.000000 -2.500000
v -11.844604 -1.924935 0.000000
v -9.593313 -7.208907 0.000000
v -10.625472 -5.576678 0.000000
v -11.651301 -2.871788 5.000000
v -11.382438 -3.800016 0.000000
v -11.382438 -3.800016 5.000000
v -11.039753 -4.703599 5.000000
v 3.644843 -3.422735 -2.500000
v 3.187120 -3.852566 -2.500000
v 7.589345 -9.295259 0.000000
v 6.816777 -9.875807 0.000000
v 6.816777 -9.875807 5.000000
v 8.312693 -8.654429 0.000000
v 8.982129 -7.957472 0.000000
v 0.313953 -4.990134 -2.500000
v 0.483191 -11.990268 0.000000
v 2.128896 -4.524135 -2.500000
v 6.000000 -10.392304 0.000000
v 5.144311 -10.841405 0.000000
v 4.045085 2.938926 -2.500000
v 9.593313 7.208907 0.000000
v 11.651301 -2.871788 0.000000
v 11.961087 -0.965599 0.000000
v 12.000000 0.000000 0.000000
v 12.000000 0.000000 5.000000
v 11.961087 0.965599 0.000000
v 5.000000 0.000000 -2.500000
v 11.961087 -0.965599 5.000000
v 4.648882 -1.840623 11.000000
v -11.961087 0.965599 0.000000
v -11.651301 2.871788 0.000000
v -11.039753 4.703599 0.000000
v -4.045085 2.938926 -2.500000
v -6.000000 10.392304 0.000000
v -7.589345 9.295259 0.000000
v -1.545085 4.755282 -2.500000
v 1.446440 11.912506 0.000000
v 11.039753 4.703599 5.000000
v 11.651301 2.871788 0.000000
v 11.382438 3.800016 0.000000
v 4.648882 1.840623 -2.500000
v 8.312693 8.654429 5.000000
v 9.593313 7.208907 5.000000
v 8.982129 7.957472 0.000000
v 4.381534 2.408768 11.000000
v 4.842916 1.243449 11.000000
v 6.000000 10.392304 5.000000
v 0.936907 4.911436 11.000000
v 3.338609 11.526217 5.000000
v 4.255259 11.220195 5.000000
v 1.545085 4.755282 -2.500000
v -0.936907 4.911436 11.000000
v -5.000000 0.000000 11.000000
v -3.187120 3.852566 11.000000
v -4.648882 1.840623 11.000000
v -10.142281 6.413590 5.000000
v -1.446440 -11.912506 0.000000
v -1.446440 -11.912506 5.000000
v -5.144311 -10.841405 0.000000
v -5.144311 -10.841405 5.000000
v -1.545085 -4.755282 -2.500000
v -7.589345 -9.295259 5.000000
v -3.187120 -3.852566 11.000000
v -2.128896 -4.524135 11.000000
v -0.936907 -4.911436 11.000000
v 4.255259 -11.220195 0.000000
v 1.545085 -4.755282 11.000000
v 5.144311 -10.841405 5.000000
v -0.483191 -11.990268 5.000000
v 0.483191 -11.990268 5.000000
v 1.446440 -11.912506 5.000000
v -4.842916 -1.243449 -2.500000
v -11.961087 -0.965599 0.000000
v -8.982129 -7.957472 0.000000
v -4.045085 -2.938926 -2.500000
v -11.039753 -4.703599 0.000000
v -4.648882 -1.840623 11.000000
v 4.381534 -2.408768 -2.500000
v 7.589345 -9.295259 5.000000
v 8.982129 -7.957472 5.000000
v 9.593313 -7.208907 5.000000
v 9.593313 -7.208907 0.000000
v 10.142281 -6.413590 0.000000
v 10.142281 -6.413590 5.000000
v 1.446440 -11.912506 0.000000
v 0.936907 -4.911436 -2.500000
v 11.961087 0.965599 5.000000
v -4.648882 1.840623 -2.500000
v -9.593313 7.208907 0.000000
v -2.679134 4.221640 -2.500000
v -0.936907 4.911436 -2.500000
v 11.039753 4.703599 0.000000
v 11.382438 3.800016 5.000000
v 10.142281 6.413590 5.000000
v 6.816777 9.875807 5.000000
v 0.936907 4.911436 -2.500000
v -0.313953 4.990134 11.000000
v -3.644843 3.422735 11.000000
v -4.381534 2.408768 11.000000
v -2.400308 -11.757488 0.000000
v -0.483191 -11.990268 0.000000
v -6.000000 -10.392304 0.000000
v -4.255259 -11.220195 0.000000
v -2.679134 -4.221640 11.000000
v 1.545085 -4.755282 -2.500000
v 4.255259 -11.220195 5.000000
v 0.313953 -4.990134 11.000000
v -11.651301 -2.871788 0.000000
v -4.648882 -1.840623 -2.500000
v 4.842916 -1.243449 -2.500000
v 10.625472 -5.576678 0.000000
v 4.045085 -2.938926 -2.500000
v -8.982129 7.957472 0.000000
v -2.128896 4.524135 -2.500000
v 2.679134 4.221640 11.000000
v -0.936907 -4.911436 -2.500000
v 4.648882 -1.840623 -2.500000
f 1 2 3
f 4 3 2
f 5 6 7
f 8 7 6
f 9 1 3
f 10 3 4
f 11 2 1
f 12 4 2
f 13 6 5
f 14 5 7
f 15 8 6
f 16 7 8
f 17 4 12
f 18 12 2
f 19 14 7
f 20 10 4
f 21 8 15
f 22 16 8
f 23 7 16
f 23 24 7
f 25 3 10
f 26 27 28
f 26 28 9
f 29 9 3
f 30 31 16
f 32 33 34
f 35 1 9
f 36 37 38
f 39 40 41
f 42 41 40
f 43 11 1
f 44 6 13
f 45 6 44
f 45 46 6
f 47 17 12
f 48 4 17
f 49 12 18
f 50 15 6
f 51 52 53
f 51 53 54
f 51 11 52
f 55 46 56
f 55 56 2
f 57 11 51
f 57 51 54
f 57 54 55
f 57 55 2
f 57 2 11
f 58 48 17
f 59 60 61
f 62 19 7
f 63 14 19
f 63 19 64
f 65 66 67
f 65 67 68
f 69 10 20
f 70 66 71
f 72 68 67
f 72 4 73
f 72 73 68
f 74 20 4
f 74 67 66
f 74 66 70
f 74 70 20
f 75 42 76
f 77 78 79
f 80 79 78
f 80 75 76
f 80 76 43
f 80 43 79
f 81 82 21
f 81 77 83
f 81 83 82
f 84 15 75
f 84 21 15
f 85 37 8
f 85 8 21
f 86 34 33
f 86 87 88
f 89 16 22
f 89 22 27
f 90 27 22
f 90 22 91
f 90 91 28
f 90 28 27
f 92 16 31
f 93 23 94
f 93 94 95
f 93 95 24
f 93 24 23
f 96 16 92
f 96 92 94
f 96 94 23
f 96 23 16
f 97 64 98
f 99 3 25
f 100 101 62
f 100 102 101
f 103 25 10
f 104 105 106
f 104 27 26
f 104 26 9
f 107 92 31
f 107 31 30
f 108 29 3
f 109 9 29
f 110 106 105
f 111 88 87
f 111 112 113
f 111 113 1
f 114 28 91
f 114 91 32
f 115 33 32
f 115 32 91
f 116 1 35
f 116 88 111
f 116 111 1
f 117 88 116
f 117 116 35
f 117 35 34
f 117 34 86
f 117 86 88
f 118 37 36
f 118 113 112
f 119 11 43
f 120 39 121
f 120 121 119
f 120 119 43
f 122 120 43
f 122 43 76
f 122 76 42
f 123 43 1
f 123 38 124
f 125 126 45
f 125 45 44
f 127 46 45
f 127 45 126
f 127 126 128
f 127 56 46
f 129 128 126
f 130 131 132
f 133 132 131
f 133 131 18
f 134 17 47
f 134 47 135
f 136 61 60
f 136 12 61
f 137 4 48
f 138 50 6
f 139 15 50
f 140 121 39
f 141 54 53
f 141 55 54
f 142 138 53
f 142 53 52
f 143 144 145
f 143 145 119
f 143 119 121
f 143 121 140
f 146 52 11
f 146 145 144
f 146 142 52
f 147 5 14
f 148 5 147
f 148 149 150
f 148 150 5
f 151 150 149
f 151 17 134
f 151 134 135
f 151 135 150
f 152 153 58
f 152 58 149
f 152 149 148
f 152 148 147
f 152 147 153
f 154 13 5
f 154 155 13
f 156 154 5
f 157 135 158
f 157 158 156
f 157 156 5
f 157 5 150
f 157 150 135
f 159 160 100
f 159 100 62
f 159 62 7
f 161 71 66
f 161 66 65
f 162 71 14
f 162 163 164
f 162 70 71
f 165 164 163
f 165 63 64
f 165 64 97
f 166 63 165
f 166 165 163
f 166 163 162
f 166 162 14
f 166 14 63
f 167 20 70
f 167 70 162
f 167 162 164
f 167 164 69
f 167 69 20
f 168 72 67
f 168 67 74
f 168 74 4
f 168 4 72
f 169 41 42
f 169 42 75
f 169 75 15
f 169 15 139
f 169 139 41
f 170 75 80
f 170 80 78
f 170 78 84
f 170 84 75
f 171 78 77
f 171 77 81
f 171 81 21
f 172 85 21
f 172 21 82
f 173 112 111
f 173 111 87
f 174 37 118
f 174 118 112
f 174 112 8
f 174 8 37
f 175 22 8
f 175 86 33
f 176 89 27
f 176 27 104
f 176 104 106
f 177 101 102
f 178 64 19
f 178 19 179
f 178 179 98
f 178 98 64
f 180 179 19
f 180 19 62
f 181 3 99
f 181 99 24
f 181 24 95
f 181 95 108
f 181 108 3
f 182 100 160
f 182 160 99
f 182 99 25
f 183 24 99
f 183 99 160
f 183 160 159
f 183 159 7
f 183 7 24
f 184 25 103
f 184 103 177
f 184 177 102
f 185 103 10
f 185 10 97
f 185 97 98
f 186 94 92
f 186 92 107
f 186 107 29
f 187 9 109
f 187 105 104
f 187 104 9
f 188 105 187
f 188 187 109
f 188 30 110
f 188 110 105
f 189 107 30
f 189 30 188
f 189 188 109
f 189 109 29
f 189 29 107
f 190 16 89
f 190 110 30
f 190 30 16
f 191 35 9
f 191 114 32
f 191 32 34
f 191 34 35
f 192 40 39
f 192 39 120
f 192 120 122
f 192 122 42
f 192 42 40
f 193 123 1
f 193 1 113
f 193 113 118
f 193 118 36
f 194 77 79
f 194 79 43
f 194 43 123
f 195 123 124
f 195 124 82
f 195 82 83
f 196 197 130
f 198 133 199
f 198 199 129
f 200 44 13
f 201 56 127
f 201 127 128
f 202 18 2
f 202 2 56
f 202 56 201
f 202 201 128
f 203 18 202
f 203 129 199
f 203 199 133
f 203 133 18
f 204 131 130
f 204 130 197
f 204 197 49
f 204 49 18
f 204 18 131
f 205 136 60
f 205 156 158
f 206 12 136
f 206 47 12
f 207 135 47
f 207 205 158
f 207 158 135
f 208 197 196
f 208 155 209
f 208 209 49
f 208 49 197
f 210 209 155
f 210 59 61
f 210 61 12
f 211 50 138
f 211 140 50
f 212 50 140
f 212 140 39
f 212 39 41
f 212 41 139
f 212 139 50
f 213 46 55
f 213 55 141
f 213 6 46
f 214 138 6
f 214 6 213
f 214 213 141
f 214 141 53
f 214 53 138
f 215 138 142
f 215 142 146
f 215 146 144
f 216 119 145
f 216 145 146
f 216 146 11
f 216 11 119
f 217 147 14
f 218 58 17
f 218 17 151
f 218 151 149
f 218 149 58
f 219 48 58
f 219 58 153
f 219 153 220
f 219 220 137
f 219 137 48
f 221 222 220
f 221 220 153
f 223 4 137
f 223 137 220
f 223 220 222
f 223 222 73
f 223 73 4
f 224 155 154
f 224 59 210
f 224 210 155
f 225 154 156
f 225 60 59
f 225 59 224
f 225 224 154
f 226 164 165
f 226 165 97
f 226 97 10
f 226 10 69
f 226 69 164
f 227 84 78
f 227 78 171
f 227 171 21
f 227 21 84
f 228 172 82
f 228 82 124
f 228 124 38
f 229 175 8
f 229 8 112
f 229 112 173
f 230 115 91
f 230 91 22
f 230 22 175
f 230 175 33
f 230 33 115
f 231 101 177
f 231 177 179
f 231 179 180
f 231 180 62
f 231 62 101
f 232 98 179
f 232 179 177
f 232 177 103
f 232 103 185
f 232 185 98
f 233 100 182
f 233 182 25
f 233 25 184
f 233 184 102
f 233 102 100
f 234 94 186
f 234 108 95
f 234 95 94
f 235 106 110
f 235 110 190
f 235 190 89
f 235 89 176
f 235 176 106
f 236 28 114
f 236 114 191
f 236 191 9
f 236 9 28
f 237 38 123
f 237 123 193
f 237 193 36
f 237 36 38
f 238 123 195
f 238 195 83
f 238 83 77
f 238 77 194
f 238 194 123
f 239 196 130
f 239 130 132
f 240 155 208
f 240 208 196
f 240 196 13
f 240 13 155
f 241 125 44
f 241 44 198
f 241 198 129
f 241 129 126
f 241 126 125
f 242 198 44
f 242 44 200
f 242 200 132
f 242 132 133
f 242 133 198
f 243 128 129
f 243 129 203
f 243 203 202
f 243 202 128
f 244 156 205
f 244 205 60
f 244 60 225
f 244 225 156
f 245 206 136
f 245 136 205
f 245 205 207
f 245 207 47
f 245 47 206
f 246 209 210
f 246 210 12
f 246 12 49
f 246 49 209
f 247 140 211
f 247 211 144
f 247 144 143
f 247 143 140
f 248 211 138
f 248 138 215
f 248 215 144
f 248 144 211
f 249 217 14
f 249 14 71
f 249 71 161
f 249 161 65
f 250 222 217
f 250 217 68
f 250 68 73
f 250 73 222
f 251 147 217
f 251 217 222
f 251 222 221
f 251 221 153
f 251 153 147
f 252 85 172
f 252 172 228
f 252 228 38
f 252 38 37
f 252 37 85
f 253 87 86
f 253 86 175
f 253 175 229
f 253 229 173
f 253 173 87
f 254 29 108
f 254 108 234
f 254 234 186
f 254 186 29
f 255 200 13
f 255 13 196
f 255 196 239
f 255 239 132
f 255 132 200
f 256 68 217
f 256 217 249
f 256 249 65
f 256 65 68
