# Convex hull collision mesh — generated by scripts/generate-collision-meshes.mjs
v 24.000000 -9.999219 -0.125010
v 24.000000 -0.000000 -10.000000
v 24.000000 0.250000 9.996875
v 24.000000 9.999219 -0.125010
v 0.000000 6.877012 7.259938
v 0.000000 9.999219 -0.125010
v 0.000000 -0.250000 9.996875
v 0.000000 -6.693365 -7.429595
v 24.000000 6.693365 -7.429595
v 0.000000 3.817235 9.242765
v 24.000000 -6.877012 7.259938
v 0.000000 -9.379394 3.467992
v 24.000000 -6.693365 -7.429595
v 24.000000 6.877012 7.259938
v 24.000000 8.589990 5.119774
v 0.000000 7.512687 6.599964
v 0.000000 9.854445 1.699979
v 0.000000 3.584973 -9.335308
v 0.000000 8.911951 -4.536202
v 0.000000 5.438256 8.391982
v 11.750000 0.250000 9.996875
v 11.750000 1.156721 9.932875
v 24.000000 -8.085282 5.884574
v 24.000000 -3.817235 9.242765
v 0.000000 -9.589573 -2.835505
v 24.000000 -3.584973 -9.335308
v 2.500000 6.486777 8.280193
v 21.500000 6.486777 8.280193
v 2.500000 6.524698 8.256367
v 24.000000 9.657463 2.594879
v 24.000000 8.085282 5.884574
v 21.500000 6.556366 8.224698
v 0.000000 8.589990 5.119774
v 2.500000 6.556366 8.224698
v 0.000000 9.968682 0.790805
v 24.000000 3.584973 -9.335308
v 0.000000 6.693365 -7.429595
v 0.000000 9.589573 -2.835505
v 24.000000 8.911951 -4.536202
v 0.000000 6.183595 7.858954
v 0.000000 2.068277 9.783773
v 12.250000 2.934079 9.559874
v 11.750000 2.934079 9.559874
v 12.250000 1.156721 9.932875
v 24.000000 -7.512687 6.599964
v 24.000000 -9.379394 3.467992
v 24.000000 -5.438256 8.391982
v 12.250000 -0.250000 9.996875
v 12.250000 -1.156721 9.932875
v 0.000000 -2.955162 9.553377
v 0.000000 -3.817235 9.242765
v 12.250000 -3.790031 9.253954
v 21.500000 -6.800000 8.000000
v 0.000000 -9.999219 -0.125010
v 24.000000 -8.459311 -5.332923
v 0.000000 -5.226757 -8.525316
v 0.000000 4.647256 8.854548
v 2.193630 6.486777 8.242993
v 12.250000 3.790031 9.253954
v 24.000000 4.647256 8.854548
v 21.500000 6.524698 8.256367
v 24.000000 9.022571 4.311985
v 24.000000 9.854445 1.699979
v 21.793089 6.556366 8.189111
v 21.800669 6.524698 8.219858
v 0.000000 9.379394 3.467992
v 0.000000 8.085282 5.884574
v 12.250000 10.000000 0.000000
v 24.000000 1.823036 -9.832423
v 24.000000 5.226757 -8.525316
v 0.000000 7.935641 -6.084867
v 0.000000 9.945797 -1.039774
v 0.000000 9.289762 -3.701393
v 24.000000 9.589573 -2.835505
v 0.000000 2.955162 9.553377
v 0.000000 1.164025 9.932021
v 21.691452 -7.000000 7.776753
v 11.750000 -9.345813 3.557498
v 24.000000 -9.854445 1.699979
v 24.000000 -8.589990 5.119774
v 24.000000 -6.183595 7.858954
v 24.000000 -4.647256 8.854548
v 11.750000 -1.156721 9.932875
v 24.000000 -2.068277 9.783773
v 0.000000 -1.164025 9.932021
v 0.000000 -2.068277 9.783773
v 11.750000 -2.053885 9.786805
v 12.250000 -2.934079 9.559874
v 11.750000 -3.790031 9.253954
v 0.000000 -9.945797 -1.039774
v 24.000000 -7.345340 -6.785718
v 24.000000 -9.589573 -2.835505
v 0.000000 -8.459311 -5.332923
v 0.000000 -5.985188 -8.011087
v 0.000000 -0.915361 -9.958017
v 24.000000 -5.226757 -8.525316
v 2.199332 6.524698 8.219858
v 24.000000 2.955162 9.553377
v 21.806370 6.486777 8.242993
v 24.000000 6.183595 7.858954
v 24.000000 9.379394 3.467992
v 11.750000 9.630238 2.694165
v 11.750000 9.345813 3.557498
v 11.750000 9.835093 1.808573
v 24.000000 9.968682 0.790805
v 24.000000 7.512687 6.599964
v 21.780621 8.265637 5.628434
v 12.250000 8.548294 5.189091
v 21.500000 8.284926 5.600000
v 0.000000 9.657463 2.594879
v 0.000000 9.022571 4.311985
v 11.750000 10.000000 0.000000
v 24.000000 2.715404 -9.624270
v 24.000000 5.985188 -8.011087
v 0.000000 4.424439 -8.967961
v 24.000000 7.345340 -6.785718
v 24.000000 8.459311 -5.332923
v 24.000000 9.945797 -1.039774
v 0.000000 9.808865 -1.945809
v 24.000000 9.289762 -3.701393
v 11.750000 3.790031 9.253954
v 0.000000 0.250000 9.996875
v 11.750000 2.053885 9.786805
v 12.250000 2.053885 9.786805
v 0.000000 -9.657463 2.594879
v 24.000000 -9.968682 0.790805
v 21.739315 -6.800000 7.970942
v 24.000000 -2.955162 9.553377
v 24.000000 -1.164025 9.932021
v 11.750000 -2.934079 9.559874
v 2.500000 -6.800000 8.000000
v 2.500000 -7.000000 7.800000
v 0.000000 -6.877012 7.259938
v 21.500000 -7.000000 7.800000
v 24.000000 -9.945797 -1.039774
v 24.000000 -8.911951 -4.536202
v 0.000000 -9.808865 -1.945809
v 0.000000 -7.345340 -6.785718
v 24.000000 -7.935641 -6.084867
v 24.000000 -1.823036 -9.832423
v 0.000000 1.823036 -9.832423
v 0.000000 -3.584973 -9.335308
v 24.000000 -5.985188 -8.011087
v 24.000000 -4.424439 -8.967961
v 2.206911 6.556366 8.189111
v 24.000000 1.164025 9.932021
v 24.000000 2.068277 9.783773
v 24.000000 3.817235 9.242765
v 24.000000 5.438256 8.391982
v 12.250000 9.345813 3.557498
v 12.250000 9.630238 2.694165
v 12.250000 9.835093 1.808573
v 12.250000 9.958688 0.908038
v 21.641666 8.280027 5.607251
v 2.219380 8.265637 5.628434
v 11.750000 8.548294 5.189091
v 2.500000 8.284926 5.600000
v 8.500000 8.285191 5.599609
v 12.250000 8.984169 4.391436
v 24.000000 4.424439 -8.967961
v 0.000000 5.226757 -8.525316
v 0.000000 7.345340 -6.785718
v 0.000000 8.459311 -5.332923
v 24.000000 7.935641 -6.084867
v 24.000000 9.808865 -1.945809
v 0.000000 -9.854445 1.699979
v 24.000000 -9.657463 2.594879
v 12.250000 -10.000000 0.000000
v 24.000000 -9.022571 4.311985
v 24.000000 -0.250000 9.996875
v 12.250000 -2.053885 9.786805
v 0.000000 -8.589990 5.119774
v 11.750000 -8.984169 4.391436
v 0.000000 -5.438256 8.391982
v 2.260684 -6.800000 7.970942
v 0.000000 -9.289762 -3.701393
v 24.000000 -9.808865 -1.945809
v 0.000000 -7.935641 -6.084867
v 24.000000 -0.915361 -9.958017
v 0.000000 -0.000000 -10.000000
v 24.000000 0.915361 -9.958017
v 0.000000 2.715404 -9.624270
v 0.000000 -1.823036 -9.832423
v 24.000000 -2.715404 -9.624270
v 0.000000 -4.424439 -8.967961
v 11.750000 9.958688 0.908038
v 2.358334 8.280027 5.607251
v 15.500000 8.285191 5.599609
v 11.750000 8.984169 4.391436
v 0.000000 5.985188 -8.011087
v 0.000000 -9.968682 0.790805
v 12.250000 -9.835093 1.808573
v 12.250000 -9.630238 2.694165
v 12.250000 -9.345813 3.557498
v 12.250000 -8.984169 4.391436
v 0.000000 -8.085282 5.884574
v 0.000000 -9.022571 4.311985
v 0.000000 -6.183595 7.858954
v 0.000000 -4.647256 8.854548
v 24.000000 -9.289762 -3.701393
v 0.000000 -8.911951 -4.536202
v 0.000000 0.915361 -9.958017
v 0.000000 -2.715404 -9.624270
v 11.750000 -9.958688 0.908038
v 11.750000 -10.000000 0.000000
v 11.750000 -9.835093 1.808573
v 11.750000 -9.630238 2.694165
v 0.000000 -7.512687 6.599964
v 12.250000 -9.958688 0.908038
v 2.308547 -7.000000 7.776753
f 1 2 3
f 4 3 2
f 5 6 7
f 8 7 6
f 9 4 2
f 10 5 7
f 11 1 3
f 12 7 8
f 13 2 1
f 14 3 4
f 15 14 4
f 16 6 5
f 17 6 16
f 18 8 6
f 19 18 6
f 20 5 10
f 21 3 22
f 21 7 3
f 23 1 11
f 24 11 3
f 25 12 8
f 26 2 13
f 27 28 29
f 30 15 4
f 31 14 15
f 31 15 32
f 33 17 16
f 34 29 32
f 35 6 17
f 36 9 2
f 37 18 19
f 38 19 6
f 39 4 9
f 40 5 20
f 41 10 7
f 41 42 43
f 44 22 3
f 45 23 11
f 46 1 23
f 47 11 24
f 48 7 49
f 48 3 7
f 50 7 12
f 51 24 52
f 51 50 12
f 51 53 24
f 54 12 25
f 55 13 1
f 56 8 18
f 57 10 27
f 57 20 10
f 58 20 57
f 58 57 27
f 58 27 29
f 59 28 27
f 60 3 14
f 61 32 29
f 61 29 28
f 62 15 30
f 63 30 4
f 64 65 14
f 64 31 32
f 64 32 61
f 64 61 65
f 66 17 33
f 67 34 33
f 67 33 16
f 68 4 6
f 69 36 2
f 70 9 36
f 71 37 19
f 72 38 6
f 72 6 4
f 73 39 19
f 73 19 38
f 74 4 39
f 74 73 38
f 75 10 41
f 75 41 43
f 75 43 42
f 76 22 44
f 76 41 7
f 77 23 45
f 77 45 11
f 78 12 46
f 79 1 46
f 80 46 23
f 81 11 47
f 82 47 24
f 82 24 53
f 83 49 7
f 84 24 3
f 85 7 50
f 85 49 83
f 85 83 7
f 86 87 85
f 86 85 50
f 86 88 84
f 86 84 87
f 89 50 51
f 89 51 52
f 89 52 50
f 90 1 54
f 90 54 25
f 91 13 55
f 91 8 13
f 92 55 1
f 93 25 8
f 94 8 56
f 94 13 8
f 95 56 18
f 96 94 56
f 96 26 13
f 97 5 40
f 97 40 20
f 97 20 58
f 97 58 29
f 98 3 60
f 98 59 75
f 98 75 42
f 99 28 60
f 99 65 61
f 99 61 28
f 100 60 14
f 100 14 65
f 101 62 30
f 101 102 66
f 101 66 103
f 104 63 17
f 105 63 4
f 105 4 68
f 105 68 35
f 106 31 64
f 106 64 14
f 106 14 31
f 107 32 15
f 108 109 15
f 108 15 33
f 110 17 66
f 110 66 102
f 110 102 30
f 110 30 104
f 110 104 17
f 111 62 103
f 111 103 66
f 111 66 33
f 112 35 68
f 112 68 6
f 112 6 35
f 113 36 69
f 113 18 36
f 114 9 70
f 114 37 9
f 115 18 37
f 115 36 18
f 116 39 9
f 116 9 37
f 117 39 116
f 117 19 39
f 118 4 74
f 118 72 4
f 119 72 118
f 119 74 38
f 119 38 72
f 120 73 74
f 120 74 39
f 120 39 73
f 121 10 75
f 121 75 59
f 121 59 27
f 121 27 10
f 122 21 22
f 122 22 76
f 122 76 7
f 122 7 21
f 123 41 76
f 123 76 124
f 123 124 41
f 125 12 54
f 126 1 79
f 127 47 82
f 127 82 53
f 127 77 11
f 127 11 81
f 127 81 47
f 128 24 84
f 128 84 88
f 128 88 50
f 128 50 52
f 128 52 24
f 129 49 85
f 129 85 87
f 129 84 3
f 130 88 86
f 130 86 50
f 130 50 88
f 131 132 53
f 131 53 51
f 133 51 12
f 134 77 127
f 134 127 53
f 134 53 132
f 134 132 80
f 134 80 23
f 134 23 77
f 135 92 1
f 135 1 90
f 136 55 92
f 136 93 55
f 137 25 92
f 137 135 90
f 137 90 25
f 138 93 8
f 138 8 91
f 139 55 93
f 139 138 91
f 139 91 55
f 140 2 26
f 141 95 18
f 141 113 69
f 142 56 95
f 143 94 96
f 143 96 13
f 143 13 94
f 144 26 96
f 144 96 56
f 144 142 26
f 145 67 16
f 145 16 5
f 145 5 97
f 145 97 29
f 145 29 34
f 145 34 67
f 146 3 98
f 146 124 76
f 146 76 44
f 146 44 3
f 147 124 146
f 147 146 98
f 147 98 42
f 147 42 41
f 147 41 124
f 148 28 59
f 148 59 98
f 148 98 60
f 148 60 28
f 149 99 60
f 149 60 100
f 149 100 65
f 149 65 99
f 150 62 101
f 150 101 103
f 150 103 62
f 151 102 101
f 151 101 30
f 151 30 102
f 152 63 104
f 152 104 30
f 152 30 63
f 153 63 105
f 153 105 35
f 153 17 63
f 154 109 32
f 154 32 107
f 154 107 15
f 154 15 109
f 155 33 34
f 156 33 157
f 156 108 33
f 158 108 156
f 158 156 157
f 158 157 34
f 158 34 32
f 159 62 111
f 159 33 15
f 159 15 62
f 160 36 115
f 160 115 70
f 160 70 36
f 161 70 115
f 161 115 37
f 161 114 70
f 162 71 116
f 162 116 37
f 162 37 71
f 163 19 117
f 163 117 71
f 163 71 19
f 164 71 117
f 164 117 116
f 164 116 71
f 165 74 119
f 165 119 118
f 165 118 74
f 166 125 54
f 167 79 46
f 168 1 126
f 168 54 1
f 169 46 80
f 170 48 49
f 170 49 129
f 170 129 3
f 170 3 48
f 171 84 129
f 171 129 87
f 171 87 84
f 172 133 12
f 172 173 80
f 172 80 132
f 174 51 133
f 175 132 131
f 176 25 93
f 176 92 25
f 177 135 137
f 177 137 92
f 177 92 135
f 178 138 139
f 178 139 93
f 178 93 138
f 179 2 140
f 179 140 95
f 179 95 2
f 180 95 141
f 180 2 95
f 181 2 180
f 181 141 69
f 181 69 2
f 182 113 141
f 182 141 18
f 182 18 113
f 183 142 95
f 183 95 140
f 184 26 142
f 184 183 140
f 184 140 26
f 185 142 144
f 185 144 56
f 185 56 142
f 186 17 153
f 186 153 35
f 186 35 17
f 187 157 33
f 187 33 155
f 187 155 34
f 187 34 157
f 188 108 158
f 188 158 32
f 188 32 109
f 188 109 108
f 189 33 159
f 189 159 111
f 189 111 33
f 190 114 161
f 190 161 37
f 190 37 114
f 191 166 54
f 191 168 126
f 192 166 79
f 192 79 167
f 192 167 125
f 193 125 167
f 193 167 46
f 193 46 12
f 194 46 169
f 194 169 78
f 194 78 46
f 195 173 169
f 195 169 80
f 195 80 173
f 196 133 172
f 196 172 132
f 197 173 172
f 197 172 12
f 197 12 78
f 197 78 169
f 197 169 173
f 198 133 175
f 198 175 174
f 198 174 133
f 199 51 174
f 199 174 175
f 199 175 131
f 199 131 51
f 200 92 176
f 200 176 136
f 200 136 92
f 201 136 176
f 201 176 93
f 201 93 136
f 202 141 181
f 202 181 180
f 202 180 141
f 203 183 184
f 203 184 142
f 203 142 183
f 204 166 191
f 204 191 126
f 204 79 166
f 205 168 191
f 205 191 54
f 205 54 168
f 206 166 192
f 206 192 125
f 206 125 166
f 207 125 193
f 207 193 12
f 207 12 125
f 208 133 196
f 209 79 204
f 209 204 126
f 209 126 79
f 210 133 208
f 210 208 196
f 210 196 132
f 210 132 175
f 210 175 133
