# Normalized convex hull collision mesh - generated by scripts/generate-collision-meshes.mjs (units: meters)
v -0.009000 -0.008692 0.003246
v -0.009000 0.008869 0.002127
v -0.009000 -0.000000 -0.012500
v 0.009000 0.003436 0.011557
v 0.009000 -0.008828 -0.002431
v 0.009000 0.004704 -0.010656
v 0.009000 -0.003226 -0.011669
v -0.009000 0.006611 -0.008482
v -0.009000 0.000225 0.012500
v -0.009000 -0.007142 -0.007605
v 0.009000 0.008972 0.000991
v 0.009000 0.000824 -0.012448
v -0.009000 0.003226 -0.011669
v 0.009000 -0.008441 0.004338
v -0.009000 -0.008828 -0.002431
v -0.009000 -0.003982 -0.011210
v 0.009000 -0.006611 -0.008482
v -0.009000 0.008828 -0.002431
v 0.009000 0.008021 -0.005669
v 0.009000 -0.001641 -0.012290
v -0.009000 0.004704 -0.010656
v -0.009000 0.001641 -0.012290
v 0.009000 0.003226 -0.011669
v 0.009000 -0.003436 0.011557
v 0.009000 -0.008972 0.000991
v 0.009000 0.007277 0.007359
v -0.009000 0.006189 0.009078
v -0.009000 0.002660 0.011946
v -0.009000 -0.005565 0.009827
v -0.009000 -0.002660 0.011946
v -0.009000 -0.008021 -0.005669
v -0.009000 -0.006024 -0.009286
v -0.009000 0.008999 -0.000154
v -0.009000 0.008021 -0.005669
v 0.009000 0.006611 -0.008482
v 0.009000 0.008828 -0.002431
v 0.009000 -0.000000 -0.012500
v -0.009000 -0.002444 -0.012030
v -0.009000 0.003982 -0.011210
v -0.009000 0.006024 -0.009286
v -0.009000 0.000824 -0.012448
v 0.009000 0.001641 -0.012290
v -0.009000 0.002444 -0.012030
v 0.009000 0.000225 0.012500
v 0.000188 0.001041 0.012420
v 0.000188 -0.000225 0.012500
v 0.009000 -0.008869 0.002127
v -0.009000 -0.008999 -0.000154
v 0.009000 0.008441 0.004338
v -0.009000 0.007731 0.006403
v -0.000188 0.001041 0.012420
v -0.009000 0.004183 0.011072
v -0.000188 -0.000225 0.012500
v -0.000188 -0.001041 0.012420
v 0.000188 -0.002641 0.011954
v -0.000188 -0.002641 0.011954
v -0.009000 -0.000225 0.012500
v -0.009000 -0.001861 0.012234
v -0.009000 -0.004183 0.011072
v 0.009000 -0.008631 -0.003543
v 0.009000 -0.007613 -0.006665
v 0.009000 -0.004704 -0.010656
v -0.009000 -0.006611 -0.008482
v -0.009000 0.008972 0.000991
v -0.009000 0.008631 -0.003543
v -0.009000 0.007613 -0.006665
v 0.009000 0.008999 -0.000154
v -0.009000 0.008951 -0.001298
v 0.009000 -0.000824 -0.012448
v -0.009000 -0.001641 -0.012290
v -0.009000 -0.003226 -0.011669
v 0.009000 -0.002444 -0.012030
v 0.009000 0.003982 -0.011210
v 0.009000 0.005387 -0.010013
v 0.009000 0.002444 -0.012030
v -0.007125 -0.006120 0.010004
v -0.007304 -0.006120 0.009967
v -0.007125 -0.006300 0.009753
v 0.009000 -0.006189 0.009078
v 0.007125 -0.006120 0.010004
v 0.009000 0.001861 0.012234
v 0.009000 -0.001861 0.012234
v 0.009000 -0.001048 0.012419
v 0.009000 -0.008692 0.003246
v 0.009000 -0.008999 -0.000154
v 0.009000 -0.008951 -0.001298
v -0.009000 -0.008869 0.002127
v 0.009000 0.005565 0.009827
v 0.009000 0.008869 0.002127
v -0.009000 0.007277 0.007359
v -0.009000 0.008441 0.004338
v -0.009000 0.001048 0.012419
v -0.009000 0.003436 0.011557
v -0.000188 0.003411 0.011571
v -0.009000 0.005565 0.009827
v -0.000188 0.002641 0.011954
v 0.000188 0.002641 0.011954
v 0.000188 -0.008411 0.004450
v -0.000188 -0.008411 0.004450
v -0.009000 -0.007277 0.007359
v -0.009000 -0.001048 0.012419
v -0.009000 -0.004894 0.010494
v -0.009000 -0.008631 -0.003543
v 0.009000 -0.007142 -0.007605
v 0.009000 -0.008021 -0.005669
v -0.009000 -0.007613 -0.006665
v 0.009000 -0.003982 -0.011210
v 0.009000 -0.006024 -0.009286
v -0.009000 -0.004704 -0.010656
v 0.000188 0.008963 0.001137
v 0.009000 0.008361 -0.004626
v -0.009000 0.007142 -0.007605
v 0.009000 0.007613 -0.006665
v -0.000188 0.009000 0.000002
v 0.009000 0.008951 -0.001298
v -0.009000 -0.000824 -0.012448
v -0.009000 0.005387 -0.010013
v 0.009000 0.006024 -0.009286
v -0.009000 -0.003436 0.011557
v -0.000188 -0.003411 0.011571
v 0.009000 -0.007731 0.006403
v 0.007125 -0.006300 0.009753
v 0.007304 -0.006120 0.009967
v 0.007269 -0.006300 0.009724
v 0.009000 0.002660 0.011946
v 0.009000 0.001048 0.012419
v 0.000188 0.001848 0.012237
v 0.009000 -0.002660 0.011946
v 0.009000 -0.000225 0.012500
v -0.000188 -0.008667 0.003370
v -0.000188 -0.009000 0.000002
v -0.009000 -0.008951 -0.001298
v 0.000188 -0.008852 0.002263
v -0.009000 -0.008972 0.000991
v 0.009000 0.004183 0.011072
v 0.009000 0.006189 0.009078
v 0.009000 0.008692 0.003246
v -0.007125 0.005901 0.010284
v -0.007125 0.005872 0.010324
v 0.007125 0.005872 0.010324
v -0.009000 0.008120 0.005393
v 0.007125 0.005901 0.010284
v 0.002625 0.007457 0.007003
v 0.009000 0.008120 0.005393
v -0.009000 0.001861 0.012234
v 0.007125 0.005838 0.010354
v -0.009000 0.004894 0.010494
v -0.007355 0.005838 0.010307
v -0.007125 0.005838 0.010354
v -0.009000 -0.008120 0.005393
v -0.009000 -0.006761 0.008253
v -0.000188 -0.001848 0.012237
v -0.009000 -0.008361 -0.004626
v 0.009000 -0.005387 -0.010013
v -0.000188 0.008963 0.001137
v -0.009000 0.008361 -0.004626
v 0.009000 0.008631 -0.003543
v 0.009000 0.007142 -0.007605
v 0.000188 0.009000 0.000002
v 0.009000 -0.008120 0.005393
v -0.000188 -0.008086 0.005492
v 0.009000 -0.007277 0.007359
v 0.009000 -0.004894 0.010494
v 0.000188 -0.003411 0.011571
v 0.000188 -0.001041 0.012420
v 0.000188 -0.008667 0.003370
v 0.000188 -0.009000 0.000002
v -0.000188 -0.008852 0.002263
v 0.000188 -0.008963 0.001137
v 0.009000 0.004894 0.010494
v 0.007351 0.005872 0.010278
v 0.000188 0.008852 0.002263
v -0.009000 0.008692 0.003246
v -0.009000 0.006761 0.008253
v -0.000188 0.008411 0.004450
v -0.000188 0.008086 0.005492
v -0.000188 0.001848 0.012237
v 0.000188 0.003411 0.011571
v -0.009000 -0.008441 0.004338
v -0.009000 -0.007731 0.006403
v -0.007269 -0.006300 0.009724
v -0.009000 -0.006189 0.009078
v 0.000188 -0.001848 0.012237
v 0.009000 -0.008361 -0.004626
v -0.009000 -0.005387 -0.010013
v 0.000188 -0.008086 0.005492
v 0.009000 -0.006761 0.008253
v 0.009000 -0.004183 0.011072
v 0.009000 -0.005565 0.009827
v -0.000188 -0.008963 0.001137
v 0.007355 0.005838 0.010307
v 0.009000 0.006761 0.008253
v 0.000188 0.008667 0.003370
v -0.000188 0.008852 0.002263
v -0.007345 0.005901 0.010240
v -0.007335 0.007439 0.007039
v -0.002625 0.007457 0.007003
v -0.007125 0.007456 0.007003
v 0.000188 0.008411 0.004450
v 0.009000 0.007731 0.006403
v 0.007125 0.007456 0.007003
v 0.007231 0.007452 0.007012
v 0.007345 0.005901 0.010240
v -0.000188 0.008667 0.003370
v -0.007351 0.005872 0.010278
v -0.007231 0.007452 0.007012
v 0.007335 0.007439 0.007039
v -0.000188 0.007693 0.006489
v 0.000188 0.008086 0.005492
v 0.000188 0.007693 0.006489
f 1 2 3
f 4 5 6
f 7 6 5
f 8 3 2
f 9 2 1
f 10 1 3
f 11 4 6
f 12 6 7
f 13 3 8
f 14 5 4
f 15 1 10
f 16 10 3
f 17 7 5
f 18 8 2
f 19 11 6
f 20 12 7
f 21 13 8
f 22 3 13
f 23 6 12
f 24 14 4
f 25 5 14
f 26 4 11
f 27 2 9
f 28 27 9
f 29 9 1
f 30 9 29
f 31 15 10
f 32 10 16
f 33 18 2
f 34 8 18
f 35 19 6
f 36 11 19
f 37 12 20
f 37 3 12
f 38 16 3
f 39 13 21
f 39 21 6
f 39 23 13
f 40 21 8
f 40 8 35
f 41 3 22
f 41 22 12
f 41 12 3
f 42 23 12
f 42 12 22
f 43 13 23
f 43 42 22
f 43 22 13
f 44 24 4
f 44 45 9
f 44 9 46
f 47 25 14
f 48 1 15
f 49 26 11
f 50 2 27
f 51 9 45
f 52 27 28
f 53 54 46
f 53 46 9
f 55 56 30
f 57 9 30
f 57 54 53
f 57 53 9
f 58 57 30
f 58 30 56
f 58 56 55
f 59 30 29
f 60 17 5
f 60 5 15
f 61 17 60
f 62 7 17
f 63 10 32
f 63 32 17
f 63 17 10
f 64 33 2
f 65 34 18
f 65 18 36
f 66 8 34
f 66 34 19
f 67 11 36
f 68 33 67
f 68 36 18
f 68 18 33
f 69 3 37
f 69 37 20
f 70 20 38
f 70 38 3
f 70 69 20
f 71 16 38
f 71 38 7
f 71 7 16
f 72 7 38
f 72 38 20
f 72 20 7
f 73 23 39
f 73 39 6
f 73 6 23
f 74 35 6
f 74 6 21
f 75 42 43
f 75 43 23
f 75 23 42
f 76 59 77
f 76 77 78
f 79 14 24
f 80 24 76
f 80 76 78
f 81 44 4
f 82 24 44
f 82 58 55
f 83 82 44
f 84 47 14
f 85 5 25
f 86 5 85
f 86 85 48
f 86 15 5
f 87 1 48
f 88 4 26
f 89 49 11
f 90 50 27
f 91 2 50
f 92 28 9
f 92 9 51
f 92 51 45
f 93 52 28
f 93 28 94
f 95 27 52
f 96 81 97
f 96 97 28
f 98 99 14
f 100 29 1
f 101 57 58
f 101 83 54
f 101 54 57
f 102 77 59
f 102 59 29
f 102 29 77
f 103 60 15
f 103 15 31
f 104 17 61
f 104 61 10
f 104 10 17
f 105 31 61
f 105 61 60
f 106 10 61
f 106 61 31
f 106 31 10
f 107 7 62
f 107 62 16
f 107 16 7
f 108 62 17
f 108 17 32
f 109 16 62
f 109 32 16
f 110 11 64
f 110 2 89
f 110 89 11
f 111 36 19
f 111 19 34
f 112 8 66
f 112 35 8
f 113 112 66
f 113 66 19
f 113 19 35
f 114 67 33
f 114 33 64
f 114 64 11
f 115 36 68
f 115 68 67
f 115 67 36
f 116 69 70
f 116 70 3
f 116 3 69
f 117 40 74
f 117 74 21
f 117 21 40
f 118 35 74
f 118 74 40
f 118 40 35
f 119 59 76
f 119 76 24
f 119 24 120
f 119 120 30
f 119 30 59
f 121 14 79
f 122 80 78
f 122 78 121
f 123 80 122
f 123 122 124
f 123 124 79
f 125 97 81
f 125 81 4
f 125 94 28
f 125 28 97
f 126 45 44
f 126 44 81
f 126 81 127
f 126 127 92
f 126 92 45
f 128 24 82
f 128 82 55
f 128 55 30
f 128 30 120
f 129 46 54
f 129 83 44
f 129 44 46
f 130 1 84
f 131 48 85
f 132 15 86
f 132 86 48
f 132 48 15
f 133 87 47
f 133 47 84
f 133 84 1
f 134 87 48
f 134 48 131
f 134 131 25
f 135 4 88
f 136 88 26
f 137 49 89
f 138 50 90
f 138 139 140
f 141 91 50
f 142 143 138
f 142 138 140
f 144 26 49
f 145 28 92
f 145 127 81
f 145 81 96
f 145 96 28
f 146 4 135
f 146 140 139
f 147 52 148
f 147 95 52
f 149 93 94
f 149 94 146
f 149 146 139
f 149 139 148
f 149 148 52
f 149 52 93
f 150 100 1
f 150 99 98
f 151 29 100
f 152 83 101
f 152 101 58
f 152 58 82
f 153 60 103
f 153 103 31
f 153 31 105
f 154 62 108
f 154 108 32
f 154 109 62
f 155 2 110
f 155 110 64
f 155 64 2
f 156 65 111
f 156 111 34
f 156 34 65
f 157 36 111
f 157 111 65
f 157 65 36
f 158 112 113
f 158 113 35
f 158 35 112
f 159 67 114
f 159 114 11
f 159 11 67
f 160 14 121
f 160 161 150
f 160 150 98
f 160 98 14
f 162 124 122
f 162 122 121
f 162 121 79
f 163 79 24
f 164 24 128
f 164 128 120
f 164 120 24
f 165 83 129
f 165 129 54
f 165 54 83
f 166 14 130
f 166 130 84
f 166 84 14
f 167 25 131
f 167 131 85
f 167 85 25
f 168 87 133
f 168 133 1
f 168 1 87
f 169 134 25
f 169 25 47
f 169 47 87
f 170 135 88
f 171 88 136
f 171 170 88
f 172 137 89
f 172 89 2
f 173 137 172
f 173 2 91
f 174 90 27
f 175 91 141
f 175 141 144
f 175 49 91
f 176 144 141
f 176 141 50
f 177 127 145
f 177 145 92
f 177 92 127
f 178 4 146
f 178 146 94
f 178 94 125
f 178 125 4
f 179 99 150
f 179 150 1
f 179 1 130
f 179 130 14
f 179 14 99
f 180 161 121
f 180 121 78
f 180 78 100
f 180 100 150
f 180 150 161
f 181 78 77
f 181 151 100
f 181 100 78
f 182 29 151
f 182 151 181
f 182 181 77
f 182 77 29
f 183 83 152
f 183 152 82
f 183 82 83
f 184 60 153
f 184 153 105
f 184 105 60
f 185 109 154
f 185 154 32
f 185 32 109
f 186 161 160
f 186 160 121
f 186 121 161
f 187 124 162
f 187 162 79
f 187 79 124
f 188 123 163
f 188 163 24
f 188 24 80
f 188 80 123
f 189 79 163
f 189 163 123
f 189 123 79
f 190 134 169
f 190 169 87
f 190 87 134
f 191 146 135
f 191 135 170
f 191 170 171
f 191 171 140
f 191 140 146
f 192 136 26
f 193 137 173
f 193 91 49
f 193 49 137
f 194 2 173
f 194 173 172
f 194 172 2
f 195 138 90
f 195 90 174
f 195 174 27
f 195 139 138
f 196 50 138
f 197 198 138
f 197 138 143
f 199 49 175
f 199 175 144
f 199 144 49
f 200 26 144
f 200 176 50
f 200 142 26
f 201 142 202
f 201 202 200
f 201 143 142
f 203 171 136
f 203 136 192
f 203 192 26
f 203 26 142
f 203 142 140
f 203 140 171
f 204 91 193
f 204 193 173
f 204 173 91
f 205 95 147
f 205 147 148
f 205 148 139
f 205 139 195
f 205 195 27
f 205 27 95
f 206 198 50
f 206 50 196
f 206 196 138
f 206 138 198
f 207 142 200
f 207 200 202
f 207 202 142
f 208 200 50
f 208 50 198
f 208 198 197
f 208 197 143
f 209 176 200
f 209 200 144
f 209 144 176
f 210 201 200
f 210 200 208
f 210 208 143
f 210 143 201
