# Convex hull collision mesh — generated by scripts/generate-collision-meshes.mjs (units: meters)
v -0.017550 0.020219 -0.058429
v 0.005684 0.002446 -0.058429
v -0.018019 0.016352 -0.058429
v -0.019921 -0.014199 -0.058429
v 0.020955 0.019090 -0.058429
v 0.002311 -0.004190 0.016977
v 0.007363 0.003061 0.016977
v -0.001808 0.003960 0.016977
v -0.003781 0.007811 0.016977
v -0.007987 0.027016 0.000577
v -0.016443 0.023646 -0.057667
v -0.007987 0.027016 0.009577
v -0.007987 0.027016 -0.010423
v -0.012416 -0.015328 -0.058429
v -0.025483 0.002446 -0.010423
v -0.020683 0.019406 -0.057667
v -0.020683 -0.014514 -0.057667
v 0.017161 -0.017992 -0.058429
v -0.016443 -0.018754 -0.048828
v -0.016443 -0.018754 -0.057667
v 0.006157 -0.001484 0.016977
v 0.017208 0.022997 -0.058421
v -0.005198 0.024408 -0.058175
v 0.006232 0.024408 -0.058175
v 0.001754 0.028416 -0.010423
v 0.017477 0.023646 -0.011185
v 0.019334 0.020388 0.009577
v 0.021717 0.019406 -0.011185
v -0.005707 -0.000474 0.016977
v -0.016443 0.023646 -0.011185
v -0.019921 0.019090 -0.058429
v 0.019446 -0.013054 -0.058429
v -0.016127 -0.017992 -0.058429
v -0.020683 -0.014514 -0.011185
v 0.002720 -0.004066 0.016977
v 0.015598 -0.018733 0.009577
v 0.009021 -0.022124 0.009577
v 0.017161 0.022884 -0.058429
v -0.016174 0.022997 -0.058421
v -0.005613 0.027713 -0.000423
v -0.005613 0.027713 -0.010423
v -0.000720 0.028416 -0.010423
v 0.001754 0.028416 0.009577
v 0.009021 0.027016 0.009577
v 0.006647 0.027713 -0.010423
v 0.006647 0.027713 0.009577
v 0.015598 0.023625 0.009577
v 0.013517 0.024962 0.009577
v -0.002374 -0.003791 0.016977
v -0.006127 0.004209 0.016977
v -0.020683 0.019406 -0.011185
v -0.023621 0.012109 0.009577
v -0.020666 0.019399 -0.057828
v -0.020616 -0.014486 -0.057981
v -0.020616 0.019378 -0.057981
v -0.020534 0.019344 -0.058120
v -0.025365 -0.000026 -0.010423
v -0.025365 0.004917 -0.010423
v -0.025365 0.004917 -0.000423
v -0.025013 0.007366 -0.010423
v 0.021717 0.019406 -0.057667
v 0.017422 -0.018622 -0.058097
v 0.017454 -0.018698 -0.057955
v -0.016420 -0.018698 -0.057955
v 0.020955 -0.014199 -0.058429
v 0.026047 -0.002475 0.009577
v 0.026399 -0.000026 0.009577
v 0.017477 -0.018754 -0.057667
v 0.021717 -0.014514 -0.011185
v 0.017477 -0.018754 -0.048828
v -0.016437 -0.018740 -0.057814
v 0.001754 -0.023525 -0.010423
v -0.000720 -0.023525 -0.010423
v -0.016443 -0.018754 -0.011185
v -0.005613 -0.022822 -0.010423
v -0.007987 -0.022124 -0.010423
v 0.013517 -0.020071 0.009577
v 0.004217 -0.023290 0.009577
v 0.001754 -0.023525 0.009577
v 0.011318 -0.021205 0.009577
v -0.000720 -0.023525 0.009577
v -0.016415 0.023578 -0.057981
v -0.016381 0.023497 -0.058120
v 0.017315 0.023256 -0.058332
v 0.017370 0.023387 -0.058239
v -0.016127 0.022884 -0.058429
v -0.005613 0.027713 0.009577
v -0.003183 0.028181 0.009577
v -0.003183 0.028181 0.000577
v 0.004217 0.028181 0.009577
v -0.003183 0.028181 -0.010423
v -0.000720 0.028416 0.009577
v 0.004352 0.005258 0.016977
v 0.001100 0.009295 0.016977
v 0.017477 0.023646 -0.048828
v -0.001981 -0.003959 0.016977
v -0.018300 -0.015496 0.009577
v -0.023621 -0.007218 -0.010423
v -0.024430 -0.004879 -0.010423
v -0.006224 0.003793 0.016977
v -0.024430 0.009771 0.009577
v -0.024430 0.009771 0.000577
v -0.021356 0.016502 0.009577
v -0.019920 0.018518 0.009577
v -0.010284 0.026096 0.009577
v -0.016509 0.022095 0.009577
v -0.014565 0.023625 0.009577
v -0.020034 0.019137 -0.058421
v -0.020145 -0.014292 -0.058396
v -0.020293 0.019244 -0.058332
v -0.020145 0.019183 -0.058396
v -0.016388 -0.018622 -0.058097
v -0.016345 -0.018517 -0.058220
v -0.020425 0.019299 -0.058239
v -0.020425 -0.014408 -0.058239
v -0.016282 0.023256 -0.058332
v -0.020534 -0.014453 -0.058120
v -0.025013 -0.002475 -0.010423
v -0.023621 0.012109 -0.010423
v 0.026399 0.004917 -0.010423
v 0.026517 0.002446 -0.010423
v 0.026517 0.002446 0.009577
v 0.026517 0.002446 0.000577
v 0.026399 0.004917 0.009577
v 0.024654 0.012109 0.009577
v 0.023627 0.014359 0.009577
v 0.020954 0.018518 0.009577
v -0.016209 -0.018190 -0.058403
v 0.017379 -0.018517 -0.058220
v 0.017319 -0.018373 -0.058327
v 0.021152 -0.014280 -0.058403
v 0.021336 -0.014357 -0.058327
v 0.026399 -0.000026 0.000577
v 0.026047 -0.002475 -0.010423
v 0.026399 -0.000026 -0.010423
v 0.017477 -0.018754 -0.011185
v 0.021717 -0.014514 -0.057667
v 0.021703 -0.014509 -0.057814
v 0.024654 -0.007218 -0.010423
v 0.025464 -0.004879 -0.010423
v 0.006390 -0.001126 0.016977
v 0.025464 -0.004879 0.000577
v -0.020666 -0.014507 -0.057828
v 0.017471 -0.018740 -0.057814
v -0.007987 -0.022124 0.009577
v -0.005613 -0.022822 0.009577
v 0.001754 -0.023525 0.000577
v -0.000720 -0.023525 0.000577
v -0.003183 -0.023290 0.000577
v -0.016436 0.023629 -0.057828
v 0.017254 0.023108 -0.058396
v -0.016336 0.023387 -0.058239
v -0.016220 0.023108 -0.058396
v 0.001754 0.028416 -0.000423
v 0.017477 0.023646 -0.057667
v 0.017470 0.023629 -0.057828
v 0.004217 0.028181 -0.010423
v 0.004217 0.028181 0.000577
v -0.000720 0.028416 0.000577
v 0.005366 0.007318 0.016977
v 0.000673 0.009318 0.016977
v 0.011318 0.026096 0.009577
v -0.003183 -0.023290 0.009577
v -0.016509 -0.017204 0.009577
v -0.019920 -0.013627 0.009577
v -0.005513 -0.000855 0.016977
v -0.022593 -0.009468 0.009577
v -0.025013 0.007366 0.009577
v -0.025365 0.004917 0.009577
v -0.022593 0.014359 0.009577
v -0.012483 0.024962 0.009577
v -0.018300 0.020388 0.009577
v -0.020293 -0.014353 -0.058332
v -0.020034 -0.014246 -0.058421
v -0.025483 0.002446 0.009577
v -0.025365 -0.000026 0.009577
v -0.025013 -0.002475 0.009577
v -0.024430 -0.004879 0.009577
v -0.024430 0.009771 -0.000423
v -0.024430 0.009771 -0.010423
v 0.026047 0.007366 -0.010423
v 0.026517 0.002446 -0.000423
v 0.017415 0.023497 -0.058120
v 0.021479 0.019307 -0.058220
v 0.021703 0.019400 -0.057814
v 0.021479 -0.014416 -0.058220
v -0.016285 -0.018373 -0.058327
v 0.017243 -0.018190 -0.058403
v 0.021152 0.019172 -0.058403
v 0.019334 -0.015496 0.009577
v 0.020954 -0.013627 0.009577
v 0.022389 -0.011611 0.009577
v 0.023627 -0.009468 0.009577
v 0.025464 -0.004879 0.009577
v 0.009021 -0.022124 0.000577
v -0.007987 -0.022124 0.000577
v -0.010284 -0.021205 0.009577
v -0.012483 -0.020071 0.009577
v 0.004217 -0.023290 -0.010423
v 0.006647 -0.022822 -0.010423
v -0.003183 -0.023290 -0.010423
v 0.009021 0.027016 -0.010423
v 0.007312 0.003485 0.016977
v 0.025464 0.009771 0.009577
v 0.017543 0.022095 0.009577
v 0.022389 0.016502 0.009577
v -0.003439 0.008068 0.016977
v -0.005613 -0.022822 -0.000423
v -0.014565 -0.018733 0.009577
v -0.021356 -0.011611 0.009577
v -0.025013 0.007366 -0.000423
v -0.025483 0.002446 -0.000423
v -0.025483 0.002446 -0.000423
v -0.023621 -0.007218 0.009577
v -0.023621 -0.007218 -0.000423
v -0.025013 -0.002475 -0.000423
v 0.026047 0.007366 0.009577
v 0.026399 0.004917 0.000577
v 0.021584 0.019351 -0.058097
v 0.024654 0.012109 0.000577
v 0.024654 0.012109 -0.010423
v 0.025464 0.009771 -0.010423
v 0.021336 0.019248 -0.058327
v 0.017543 -0.017204 0.009577
v 0.024654 -0.007218 0.009577
v 0.026047 -0.002475 -0.000423
v 0.009021 -0.022124 -0.010423
v 0.006647 -0.022822 0.009577
v 0.004217 -0.023290 0.000577
v 0.005054 0.007610 0.016977
v -0.025365 -0.000026 0.000577
v -0.025483 0.002446 0.000577
v -0.024430 -0.004879 0.000577
v 0.026047 0.007366 0.000577
v 0.017449 0.023578 -0.057981
v 0.021660 -0.014491 -0.057955
v 0.025464 0.009771 0.000577
v 0.024654 -0.007218 -0.000423
v 0.006647 -0.022822 0.000577
v 0.021660 0.019382 -0.057955
v 0.021584 -0.014459 -0.058097
f 1 2 3
f 4 3 2
f 5 2 1
f 6 7 8
f 9 8 7
f 9 6 8
f 10 11 12
f 10 13 11
f 14 4 2
f 15 16 17
f 18 2 5
f 18 14 2
f 19 17 20
f 21 7 6
f 22 23 24
f 25 24 23
f 26 27 28
f 29 6 9
f 30 11 16
f 30 12 11
f 31 3 4
f 31 1 3
f 32 18 5
f 33 14 18
f 33 4 14
f 34 17 19
f 35 36 21
f 35 21 6
f 35 6 37
f 38 22 5
f 38 5 1
f 39 23 22
f 39 22 38
f 40 10 12
f 40 13 10
f 41 13 40
f 41 11 13
f 42 43 25
f 42 25 23
f 42 23 11
f 44 45 46
f 47 26 48
f 49 6 29
f 50 29 9
f 51 30 16
f 51 16 52
f 53 17 16
f 53 16 11
f 54 53 55
f 56 54 55
f 57 15 17
f 58 15 59
f 58 59 60
f 58 60 16
f 58 16 15
f 61 26 28
f 62 63 64
f 65 32 5
f 65 18 32
f 66 67 7
f 68 69 70
f 68 70 37
f 71 64 63
f 71 72 73
f 71 73 20
f 71 20 17
f 74 34 19
f 75 76 20
f 77 36 35
f 78 6 79
f 80 77 35
f 80 35 37
f 81 79 6
f 82 23 83
f 82 83 56
f 82 56 55
f 82 55 53
f 84 24 85
f 86 1 31
f 86 31 39
f 86 39 38
f 86 38 1
f 87 88 40
f 87 40 12
f 89 40 88
f 90 46 45
f 91 41 40
f 91 40 89
f 91 89 42
f 91 42 11
f 91 11 41
f 92 43 42
f 92 89 88
f 93 9 7
f 94 9 93
f 94 93 7
f 94 44 46
f 94 46 90
f 94 90 43
f 95 44 26
f 95 26 61
f 96 81 6
f 96 6 49
f 97 34 74
f 98 99 17
f 100 29 50
f 101 50 52
f 101 52 102
f 101 102 60
f 103 104 51
f 103 50 9
f 103 9 104
f 105 12 30
f 106 9 107
f 106 107 30
f 108 31 4
f 108 39 31
f 109 110 111
f 109 111 108
f 112 113 62
f 112 62 64
f 112 64 54
f 114 115 56
f 114 56 83
f 114 116 110
f 114 110 115
f 117 54 56
f 117 56 115
f 117 115 113
f 117 113 112
f 117 112 54
f 118 57 17
f 118 17 99
f 119 102 52
f 119 52 16
f 120 121 61
f 122 121 123
f 122 123 124
f 122 124 7
f 122 7 67
f 125 61 28
f 125 28 126
f 127 28 27
f 128 33 18
f 129 62 113
f 129 113 130
f 131 132 130
f 131 18 65
f 131 65 5
f 133 67 134
f 133 134 135
f 133 135 121
f 133 121 67
f 136 70 69
f 136 36 77
f 136 77 80
f 136 80 37
f 136 37 70
f 137 138 121
f 137 121 135
f 137 135 134
f 137 139 69
f 137 69 68
f 140 139 137
f 140 137 134
f 141 66 7
f 141 7 21
f 142 139 140
f 142 140 134
f 143 54 64
f 143 64 71
f 143 71 17
f 143 17 53
f 143 53 54
f 144 68 72
f 144 72 71
f 144 71 63
f 144 138 137
f 144 137 68
f 145 146 96
f 145 74 19
f 145 19 20
f 147 78 79
f 147 79 81
f 147 73 72
f 148 73 147
f 148 147 81
f 149 73 148
f 149 148 81
f 150 11 23
f 150 23 82
f 150 82 53
f 150 53 11
f 151 24 84
f 151 22 24
f 152 23 116
f 152 116 114
f 152 114 83
f 152 83 23
f 153 39 108
f 153 108 111
f 153 111 110
f 153 110 116
f 153 116 23
f 153 23 39
f 154 43 90
f 154 90 25
f 154 25 43
f 155 156 24
f 155 24 25
f 155 25 157
f 155 157 45
f 155 44 95
f 155 95 61
f 158 90 45
f 158 45 157
f 158 157 25
f 158 25 90
f 159 89 92
f 159 92 42
f 159 42 89
f 160 94 7
f 160 127 27
f 161 92 88
f 161 88 87
f 161 87 12
f 161 9 94
f 161 94 43
f 161 43 92
f 162 44 94
f 162 48 26
f 162 26 44
f 163 81 96
f 163 96 146
f 163 75 149
f 163 149 81
f 164 97 74
f 165 34 97
f 166 29 167
f 166 165 97
f 166 97 164
f 166 164 49
f 166 49 29
f 168 100 50
f 168 50 101
f 168 59 169
f 168 169 100
f 170 52 50
f 170 50 103
f 170 103 51
f 170 51 52
f 171 105 30
f 171 30 107
f 172 9 106
f 172 106 30
f 172 30 51
f 172 51 104
f 172 104 9
f 173 110 109
f 173 115 110
f 174 4 33
f 174 33 128
f 174 128 109
f 174 109 108
f 174 108 4
f 175 100 169
f 176 100 175
f 176 177 29
f 176 29 100
f 178 29 177
f 179 102 119
f 179 60 102
f 180 60 179
f 180 179 119
f 180 119 16
f 180 16 60
f 181 120 61
f 182 121 122
f 182 122 67
f 182 67 121
f 183 184 85
f 183 85 24
f 185 61 121
f 185 121 138
f 185 156 155
f 185 155 61
f 186 132 184
f 186 62 129
f 186 129 130
f 186 130 132
f 187 113 115
f 187 115 173
f 187 173 109
f 187 109 128
f 187 128 130
f 187 130 113
f 188 18 131
f 188 131 130
f 188 130 128
f 188 128 18
f 189 132 131
f 189 131 5
f 189 5 22
f 189 22 151
f 190 136 69
f 190 69 191
f 190 191 21
f 192 193 141
f 192 141 21
f 192 21 191
f 192 191 69
f 192 69 193
f 194 66 141
f 194 139 142
f 194 142 134
f 195 68 37
f 196 75 145
f 196 145 20
f 196 20 76
f 196 76 75
f 197 49 198
f 197 198 74
f 197 74 145
f 197 145 96
f 197 96 49
f 199 147 72
f 199 72 68
f 199 68 200
f 201 73 149
f 201 149 75
f 201 75 20
f 201 20 73
f 202 44 155
f 202 155 45
f 202 45 44
f 203 126 160
f 203 160 7
f 203 7 124
f 203 204 125
f 203 125 126
f 205 160 27
f 205 27 26
f 205 26 47
f 206 127 160
f 206 160 126
f 206 126 28
f 206 28 127
f 207 9 161
f 207 161 12
f 207 12 105
f 207 105 171
f 207 171 107
f 207 107 9
f 208 75 163
f 208 163 146
f 208 146 145
f 208 145 75
f 209 198 49
f 209 49 164
f 209 164 74
f 209 74 198
f 210 34 165
f 210 165 166
f 210 166 167
f 210 167 34
f 211 60 59
f 211 59 168
f 211 168 101
f 211 101 60
f 212 59 15
f 212 15 175
f 212 175 169
f 212 169 59
f 213 15 57
f 213 175 15
f 214 167 29
f 214 29 178
f 214 17 34
f 214 34 167
f 215 98 17
f 215 17 214
f 215 214 178
f 216 178 177
f 216 177 176
f 216 57 118
f 217 204 203
f 217 203 124
f 218 120 181
f 218 217 124
f 218 124 123
f 218 123 121
f 218 121 120
f 219 184 183
f 219 186 184
f 220 125 204
f 220 221 61
f 220 61 125
f 222 181 61
f 222 61 221
f 222 221 220
f 223 132 189
f 223 189 151
f 223 151 84
f 223 84 85
f 223 85 184
f 223 184 132
f 224 36 136
f 224 136 190
f 224 190 21
f 224 21 36
f 225 193 69
f 225 194 141
f 225 141 193
f 226 66 194
f 226 194 134
f 226 134 67
f 226 67 66
f 227 68 195
f 227 195 200
f 227 200 68
f 228 195 37
f 228 37 6
f 228 6 78
f 229 147 199
f 229 199 200
f 229 228 78
f 229 78 147
f 230 160 205
f 230 205 47
f 230 47 48
f 230 48 162
f 230 162 94
f 230 94 160
f 231 176 213
f 231 213 57
f 231 57 216
f 231 216 176
f 232 175 213
f 232 213 176
f 232 176 175
f 233 118 99
f 233 99 98
f 233 98 215
f 233 215 178
f 233 178 216
f 233 216 118
f 234 217 218
f 234 218 181
f 234 181 222
f 234 204 217
f 235 219 183
f 235 183 24
f 235 24 156
f 236 138 144
f 236 144 63
f 236 63 62
f 236 185 138
f 237 204 234
f 237 234 222
f 237 222 220
f 237 220 204
f 238 139 194
f 238 194 225
f 238 225 69
f 238 69 139
f 239 228 229
f 239 229 200
f 239 200 195
f 239 195 228
f 240 185 236
f 240 236 219
f 240 219 235
f 240 235 156
f 240 156 185
f 241 186 219
f 241 219 236
f 241 236 62
f 241 62 186
