# Convex hull collision mesh — generated by scripts/generate-collision-meshes.mjs
v 31.911749 -1.404070 -8.683028
v 20.494789 11.994789 -8.683028
v 18.834139 -11.938528 -8.683028
v 8.029459 0.916727 -8.683028
v 31.343552 3.914568 -38.683029
v 24.472136 0.500000 -38.683029
v 12.279070 9.186253 -38.683029
v 8.224518 -2.310418 -38.683029
v 27.905464 9.028582 -8.683028
v 29.494770 7.336675 -8.683028
v 31.719570 -2.550081 -8.683028
v 12.084114 9.028582 -8.683028
v 8.428827 3.203415 -8.683028
v 20.911516 11.965331 -38.683029
v 10.104831 -6.791018 -8.683028
v 17.684372 -11.770271 -8.683028
v 18.211519 -12.366934 -9.183028
v 23.909357 11.348763 -8.683028
v 31.560751 3.203415 -8.683028
v 28.741123 8.221148 -8.683028
v 28.991966 8.682814 -9.183028
v 27.522621 -9.339935 -8.683028
v 8.173720 2.069751 -8.683028
v 7.556350 1.244251 -9.183028
v 9.830243 6.383455 -8.683028
v 8.190835 4.098002 -38.183029
v 8.017287 3.581444 -17.683027
v 8.017287 3.581444 -9.183028
v 19.749947 -11.997395 -38.683029
v 16.322659 11.422660 -38.683029
v 7.546015 1.135705 -28.183027
v 7.627856 1.783269 -38.183029
v 7.514228 0.596232 -38.183029
v 8.056261 -1.160650 -38.683029
v 9.493862 -5.802588 -8.683028
v 13.406122 -10.024220 -8.683028
v 17.040712 -12.140712 -9.183028
v 14.531250 -11.240231 -28.683027
v 14.302025 -11.125785 -29.683027
v 14.302025 -11.125785 -38.183029
v 28.124151 9.500655 -9.183028
v 26.020144 10.382835 -8.683028
v 31.960119 0.916727 -8.683028
v 22.418642 -12.263775 -29.683027
v 22.948868 -12.140712 -17.683027
v 22.948868 -12.140712 -9.183028
v 22.251724 -12.295517 -19.183027
v 29.884748 -6.791018 -8.683028
v 23.433310 -11.491597 -8.683028
v 16.080221 11.348763 -8.683028
v 7.731015 2.423853 -9.183028
v 11.248455 8.221148 -8.683028
v 10.997612 8.682814 -9.183028
v 9.514772 6.818377 -9.183028
v 8.913243 5.788750 -9.183028
v 8.889671 4.534380 -38.683029
v 17.675932 12.282048 -38.183029
v 18.306911 12.390729 -17.683027
v 18.856846 12.447618 -38.183029
v 21.652088 11.890217 -8.683028
v 22.855185 12.173536 -9.183028
v 21.682667 12.390729 -9.183028
v 27.331465 9.499981 -38.683029
v 19.398558 -12.480561 -9.183028
v 16.322659 -11.422660 -38.683029
v 29.746193 -7.000838 -38.683029
v 20.048162 -12.499907 -38.183029
v 18.856846 -12.447618 -38.183029
v 20.591021 -12.480561 -17.683027
v 20.591021 -12.480561 -9.183028
v 21.778059 -12.366934 -9.183028
v 18.590719 11.916960 -38.683029
v 7.546015 1.135705 -18.683027
v 7.556350 1.244251 -17.683027
v 7.627856 -1.783269 -38.183029
v 7.547171 -1.137944 -9.183028
v 7.547171 -1.137944 -17.683027
v 7.494882 0.053373 -9.183028
v 8.270009 -2.550081 -8.683028
v 11.598381 -8.568023 -8.683028
v 15.460409 -11.105118 -8.683028
v 28.491364 9.173538 -11.792277
v 25.111691 11.409917 -9.183028
v 24.001671 11.845604 -9.183028
v 26.995628 9.751403 -8.683028
v 27.182354 10.232083 -9.183028
v 31.992184 -0.244844 -8.683028
v 32.442406 -1.137944 -9.183028
v 22.251724 -12.295517 -28.683027
v 24.092793 -11.803954 -9.183028
v 24.429777 -11.688759 -19.183027
v 25.199423 -11.359727 -9.183028
v 26.583456 -10.024220 -8.683028
v 26.258688 -10.812071 -9.183028
v 27.260948 -10.165972 -9.183028
v 18.337492 11.890217 -8.683028
v 13.969435 10.382835 -8.683028
v 7.627856 1.783269 -29.683027
v 8.306031 4.434988 -18.683027
v 8.412562 4.706490 -9.183028
v 8.412562 4.706490 -17.683027
v 8.792387 4.307091 -8.683028
v 10.494809 7.336675 -8.683028
v 14.192201 10.500927 -38.683029
v 8.826239 5.618772 -11.690454
v 8.913243 5.788750 -17.683027
v 8.652227 5.258496 -13.325500
v 8.635063 5.204633 -38.183029
v 7.953305 3.359708 -28.183027
v 7.699272 2.256934 -28.183027
v 8.224518 2.310418 -38.683029
v 17.134394 12.173536 -17.683027
v 12.328033 11.197689 -13.183028
v 16.516171 12.004704 -38.183029
v 15.388112 11.618111 -38.183029
v 20.048162 12.499907 -38.183029
v 21.239040 12.438439 -38.183029
v 23.354498 12.041485 -28.683027
v 22.855185 12.173536 -17.683027
v 22.418642 12.263775 -38.183029
v 20.494789 12.495207 -9.183028
v 19.494789 12.495207 -9.183028
v 22.793846 11.674199 -8.683028
v 24.301880 11.202403 -38.683029
v 18.869505 -12.448774 -19.183027
v 17.444708 -11.724781 -38.683029
v 16.516171 -12.004704 -38.183029
v 16.516171 -12.004704 -29.683027
v 15.896787 -11.803954 -17.683027
v 13.203772 -9.889958 -38.683029
v 19.398558 -12.480561 -17.683027
v 20.000000 -12.500000 -19.183027
v 21.130495 -12.448774 -19.183027
v 22.305206 -11.770271 -8.683028
v 17.444708 11.724781 -38.683029
v 10.013084 -7.524331 -28.183027
v 9.828817 -7.266158 -38.183029
v 10.567481 -8.202291 -38.183029
v 13.730891 -10.812071 -9.183028
v 12.728631 -10.165972 -9.183028
v 13.429664 -10.637157 -19.183027
v 13.267794 -10.532207 -29.683027
v 9.462582 -6.726996 -9.183028
v 8.869005 -5.692764 -9.183028
v 10.152008 -7.699961 -9.183028
v 7.854078 -2.954078 -38.183029
v 7.712741 -2.318857 -9.183028
v 7.990085 -3.478620 -9.183028
v 7.514228 -0.596232 -38.183029
v 7.514228 0.596232 -29.683027
v 8.077829 -1.404070 -8.683028
v 10.808537 -7.715719 -8.683028
v 15.896787 -11.803954 -9.183028
v 14.790156 -11.359727 -9.183028
v 18.211519 -12.366934 -17.683027
v 17.748276 -12.295517 -19.183027
v 17.675932 -12.282048 -29.683027
v 24.988161 10.916958 -8.683028
v 26.175144 10.870440 -9.183028
v 24.429777 11.688759 -19.183027
v 25.468750 11.240231 -19.183027
v 31.815859 2.069751 -8.683028
v 32.433228 1.244251 -9.183028
v 32.258564 2.423853 -9.183028
v 31.885006 -1.657298 -38.683029
v 29.746193 7.000838 -38.683029
v 21.778059 -12.366934 -17.683027
v 21.239040 -12.438439 -38.183029
v 22.418642 -12.263775 -38.183029
v 31.008219 -4.759700 -8.683028
v 28.197081 -9.427308 -9.183028
v 28.391197 -8.568023 -8.683028
v 29.058569 -8.602803 -9.183028
v 23.354498 -12.041485 -19.183027
v 24.092793 -11.803954 -17.683027
v 23.576233 -11.977502 -38.183029
v 24.529169 -11.105118 -8.683028
v 25.468750 -11.240231 -19.183027
v 29.023371 -7.910676 -38.683029
v 17.195734 11.674199 -8.683028
v 15.987908 11.845604 -9.183028
v 15.001417 10.916958 -8.683028
v 12.993951 9.751403 -8.683028
v 12.807225 10.232083 -9.183028
v 11.865427 9.500655 -9.183028
v 12.207743 10.939217 -12.174829
v 14.877888 11.409917 -9.183028
v 8.306031 4.434988 -28.183027
v 8.190835 4.098002 -29.683027
v 9.260990 5.370428 -8.683028
v 10.211676 7.786001 -9.183028
v 12.160240 10.997960 -12.490919
v 9.149625 6.220643 -10.871635
v 12.124498 11.035376 -13.183028
v 12.160240 11.092257 -13.183028
v 9.182718 6.263898 -38.183029
v 9.357632 6.565126 -28.183027
v 9.828817 7.266158 -38.183029
v 10.567481 8.202291 -38.183029
v 15.235089 11.013430 -38.683029
v 13.203772 9.889958 -38.683029
v 13.267794 10.532207 -38.183029
v 14.302025 11.125785 -38.183029
v 12.294828 9.842781 -38.183029
v 12.207743 11.139760 -13.183028
v 8.814500 5.595387 -14.629736
v 8.754560 5.473960 -28.183027
v 8.754560 5.473960 -18.683027
v 7.953305 3.359708 -18.683027
v 7.854078 2.954078 -29.683027
v 7.731015 2.423853 -17.683027
v 7.699272 2.256934 -18.683027
v 8.056261 1.160650 -38.683029
v 8.503193 3.438520 -38.683029
v 7.854078 2.954078 -38.183029
v 19.749947 11.997395 -38.683029
v 19.494789 12.495207 -17.683027
v 20.000000 12.500000 -28.683027
v 18.306911 12.390729 -9.183028
v 17.748276 12.295517 -19.183027
v 19.494789 11.994789 -8.683028
v 23.354498 12.041485 -19.183027
v 23.576233 11.977502 -29.683027
v 22.251724 12.295517 -19.183027
v 21.682667 12.390729 -17.683027
v 21.130495 12.448774 -19.183027
v 20.494789 12.495207 -17.683027
v 20.000000 12.500000 -19.183027
v 25.365217 10.733799 -38.683029
v 24.701279 11.582227 -38.183029
v 23.198204 11.565963 -38.683029
v 26.813168 10.480017 -29.683027
v 27.182354 10.232083 -17.683027
v 18.856846 -12.447618 -29.683027
v 18.590719 -11.916960 -38.683029
v 15.388112 -11.618111 -38.183029
v 15.388112 -11.618111 -29.683027
v 17.675932 -12.282048 -38.183029
v 11.426767 -8.396408 -38.683029
v 13.267794 -10.532207 -38.183029
v 12.294828 -9.842781 -38.183029
v 15.235089 -11.013430 -38.683029
v 18.869505 -12.448774 -28.683027
v 20.000000 -12.500000 -28.683027
v 20.048162 -12.499907 -29.683027
v 21.239040 -12.438439 -29.683027
v 21.130495 -12.448774 -28.683027
v 21.155439 -11.938528 -8.683028
v 10.754759 -8.418541 -19.183027
v 10.754759 -8.418541 -28.183027
v 10.152008 -7.699961 -17.683027
v 12.466958 -9.339935 -8.683028
v 14.531250 -11.240231 -19.183027
v 13.730891 -10.812071 -17.683027
v 14.407068 -10.614458 -8.683028
v 8.306031 -4.424567 -18.683027
v 8.376679 -4.606678 -9.183028
v 8.981360 -4.759700 -8.683028
v 9.462582 -6.726996 -17.683027
v 10.013084 -7.524331 -19.183027
v 9.357632 -6.565126 -19.183027
v 7.953305 -3.349287 -28.183027
v 8.190835 -4.098002 -38.183029
v 7.627856 -1.783269 -29.683027
v 7.699272 -2.246513 -28.183027
v 7.854078 -2.954078 -29.683027
v 7.546015 -1.125284 -28.183027
v 7.514228 -0.596232 -29.683027
v 7.494790 0.005211 -28.183027
v 7.997395 -0.244844 -8.683028
v 16.556269 -11.491597 -8.683028
v 16.645502 -12.041485 -19.183027
v 15.570223 -11.688759 -19.183027
v 24.701279 11.582227 -29.683027
v 25.111691 11.409917 -17.683027
v 30.159336 6.383455 -8.683028
v 31.885006 1.657298 -38.683029
v 31.343552 -3.914568 -38.683029
v 32.494698 0.053373 -9.183028
v 32.489998 0.500000 -29.683027
v 32.385517 -1.687878 -29.683027
v 32.385517 -1.687878 -38.183029
v 30.911747 4.993372 -38.683029
v 30.865229 6.180355 -38.183029
v 31.404707 5.116901 -38.183029
v 29.023371 7.910676 -38.683029
v 28.677603 8.997177 -38.183029
v 29.495445 8.129362 -38.183029
v 24.301880 -11.202403 -38.683029
v 24.701279 -11.582227 -38.183029
v 22.064541 -11.821069 -38.683029
v 31.417450 -3.672132 -8.683028
v 31.999495 -3.478620 -9.183028
v 31.612900 -4.606678 -9.183028
v 31.120575 -5.692764 -9.183028
v 29.837570 -7.699961 -9.183028
v 30.526997 -6.726996 -9.183028
v 23.576233 -11.977502 -29.683027
v 23.354498 -12.041485 -28.683027
v 25.582510 -10.614458 -8.683028
v 25.783539 -11.081546 -29.683027
v 24.429777 -11.688759 -28.683027
v 12.264625 10.972238 -12.161152
v 12.207743 11.043731 -12.478211
v 12.264625 11.078169 -12.468649
v 9.149652 6.220690 -15.494467
v 9.388370 6.619275 -10.537463
v 10.654854 7.527832 -38.683029
v 12.264625 11.175501 -13.183028
v 12.264625 11.171585 -13.038461
v 11.391986 9.063779 -38.183029
v 8.655728 5.266162 -12.921680
v 8.685685 5.330453 -12.491951
v 8.743769 5.451763 -12.070196
v 8.000000 -0.000000 -38.683029
v 17.675932 12.282048 -29.683027
v 17.748276 12.295517 -28.683027
v 17.134394 12.173536 -9.183028
v 18.869505 12.448774 -19.183027
v 24.001671 11.845604 -17.683027
v 23.576233 11.977502 -38.183029
v 22.418642 12.263775 -29.683027
v 22.251724 12.295517 -28.683027
v 21.239040 12.438439 -29.683027
v 21.130495 12.448774 -28.683027
v 20.048162 12.499907 -29.683027
v 26.813168 10.480017 -38.183029
v 27.780790 9.783113 -38.183029
v 22.064541 11.821069 -38.683029
v 26.559916 10.637157 -28.183027
v 26.175144 10.870440 -17.683027
v 27.837368 9.740331 -12.254427
v 27.961441 9.637300 -12.135148
v 15.570223 -11.688759 -28.683027
v 14.790156 -11.359727 -17.683027
v 17.748276 -12.295517 -28.683027
v 17.040712 -12.140712 -17.683027
v 10.654854 -7.527832 -38.683029
v 11.391986 -9.063779 -38.183029
v 12.279070 -9.186253 -38.683029
v 12.728631 -10.165972 -17.683027
v 14.192201 -10.500927 -38.683029
v 19.994789 -11.994789 -8.683028
v 10.567481 -8.202291 -29.683027
v 11.792498 -9.427308 -9.183028
v 13.429664 -10.637157 -28.183027
v 8.754560 -5.463540 -28.183027
v 8.635063 -5.204633 -38.183029
v 9.182718 -6.263898 -38.183029
v 8.190835 -4.098002 -29.683027
v 8.306031 -4.424567 -28.183027
v 8.572129 -3.672132 -8.683028
v 9.828817 -7.266158 -29.683027
v 9.357632 -6.565126 -28.183027
v 9.182718 -6.263898 -29.683027
v 7.990085 -3.478620 -17.683027
v 7.712741 -2.318857 -17.683027
v 7.699272 -2.246513 -18.683027
v 7.953305 -3.349287 -18.683027
v 7.546015 -1.125284 -18.683027
v 7.494882 0.053373 -17.683027
v 7.494790 0.005211 -18.683027
v 28.183176 9.449803 -12.342370
v 28.137001 9.489639 -14.166965
v 28.203287 9.431711 -35.696716
v 28.896828 8.780181 -11.665881
v 28.796585 8.880930 -14.679585
v 28.721371 8.954890 -12.001186
v 28.654463 9.019648 -12.027903
v 28.649166 9.024517 -35.718800
v 28.611185 9.061023 -14.467826
v 28.467648 9.195051 -35.447113
v 30.631947 6.565126 -28.183027
v 30.865229 6.180355 -29.683027
v 31.972292 3.581444 -9.183028
v 32.290306 2.256934 -28.183027
v 32.290306 2.256934 -18.683027
v 32.385517 1.687878 -29.683027
v 32.489998 0.500000 -38.183029
v 31.668987 2.799056 -38.683029
v 32.168324 2.860395 -38.183029
v 32.168324 -2.860395 -38.183029
v 32.276836 -2.318857 -17.683027
v 32.168324 -2.860395 -29.683027
v 30.911747 -4.993372 -38.683029
v 31.404707 -5.116901 -38.183029
v 31.042242 -7.666756 -34.046658
v 32.276836 -2.318857 -9.183028
v 31.840393 4.006881 -38.183029
v 31.683548 4.434988 -28.183027
v 31.683548 4.434988 -18.683027
v 32.036274 3.359708 -28.183027
v 31.076336 5.788750 -9.183028
v 30.377625 6.025355 -38.683029
v 28.215937 8.746335 -38.683029
v 20.911516 -11.965331 -38.683029
v 23.198204 -11.565963 -38.683029
v 30.495716 -5.802588 -8.683028
v 30.984388 -7.787047 -34.049591
v 29.181042 -7.715719 -8.683028
v 26.559916 -10.637157 -19.183027
v 30.845968 -7.834549 -34.875137
v 27.780790 -9.783113 -38.183029
v 28.677603 -8.997177 -38.183029
v 26.813168 -10.480017 -38.183029
v 26.614065 -10.606420 -36.828594
v 26.215431 -10.845165 -36.494419
v 25.783539 -11.081546 -38.183029
v 30.865229 -6.180355 -38.183029
v 29.495445 -8.129362 -38.183029
v 30.226873 -7.187564 -38.183029
v 25.613562 -11.168550 -35.675602
v 25.446552 -11.251020 -35.295860
v 25.325243 -11.309105 -34.874104
v 25.253284 -11.342563 -34.040554
v 13.814434 10.870440 -9.183028
v 12.264625 11.124192 -12.662080
v 12.328033 11.145954 -12.657751
v 8.950291 5.858966 -15.068459
v 9.408023 6.650676 -15.850679
v 9.970570 6.588667 -38.683029
v 12.328033 11.193740 -13.037260
v 11.426767 8.396408 -38.683029
v 8.682662 5.324037 -13.843846
v 8.735353 5.434382 -14.246680
v 18.856846 12.447618 -29.683027
v 18.869505 12.448774 -28.683027
v 24.429777 11.688759 -28.683027
v 25.783539 11.081546 -38.183029
v 26.378244 10.164546 -38.683029
v 26.559916 10.637157 -19.183027
v 28.058933 9.555291 -35.661644
v 28.144096 9.482810 -32.969646
v 27.367825 10.097780 -35.231373
v 16.645502 -12.041485 -28.683027
v 9.970570 -6.588667 -38.683029
v 12.470458 -9.981706 -19.183027
v 11.792498 -9.427308 -17.683027
v 11.576248 -9.240031 -19.183027
v 11.391986 -9.063779 -29.683027
v 10.931010 -8.602803 -17.683027
v 10.931010 -8.602803 -9.183028
v 8.754560 -5.463540 -18.683027
v 8.869005 -5.692764 -17.683027
v 8.376679 -4.606678 -17.683027
v 28.394163 9.262182 -35.443092
v 28.270931 9.373000 -12.094501
v 28.321758 9.327848 -14.488445
v 28.368902 9.285182 -11.851678
v 28.409733 9.248519 -11.830868
v 28.375429 9.279633 -14.409121
v 28.759909 8.917150 -14.670023
v 28.498825 9.166244 -32.640656
v 28.482714 9.181547 -14.251451
v 30.226873 7.187564 -38.183029
v 29.735121 7.842579 -35.111633
v 29.829828 7.721690 -34.560390
v 31.577017 4.706490 -17.683027
v 32.168324 2.860395 -29.683027
v 32.258564 2.423853 -17.683027
v 31.989578 -0.500000 -38.683029
v 32.385517 1.687878 -38.183029
v 32.489998 -0.500000 -29.683027
v 31.840393 -4.006881 -38.183029
v 30.992718 -7.730165 -34.587383
v 31.668987 -2.799056 -38.683029
v 32.290306 -2.246513 -28.183027
v 31.020082 -7.730165 -34.047779
v 31.041750 -7.666756 -34.328796
v 31.840393 4.006881 -29.683027
v 31.972292 3.581444 -17.683027
v 31.235020 5.473960 -28.183027
v 30.474806 6.818377 -9.183028
v 31.197193 4.307091 -8.683028
v 26.215479 -10.845138 -31.871588
v 30.926178 -7.730165 -34.897408
v 26.378244 -10.164546 -38.683029
v 30.377625 -6.025355 -38.683029
v 30.823774 -7.787047 -35.098022
v 25.429171 -11.259437 -33.119377
v 25.590176 -11.180289 -32.736320
v 25.318827 -11.312127 -33.522209
v 25.260952 -11.339061 -34.444374
v 24.701279 -11.582227 -29.683027
v 12.207743 11.135897 -13.040396
v 8.972832 5.901329 -11.239307
v 9.380331 5.587721 -38.683029
v 25.783539 11.081546 -29.683027
v 25.468750 11.240231 -28.683027
v 28.124151 9.500655 -17.683027
v 27.946022 9.649390 -35.464336
v 27.716476 9.835041 -12.805695
v 27.690357 9.855509 -13.635023
v 27.540211 9.969732 -35.391106
v 27.235636 10.193000 -34.821079
v 27.364141 10.100468 -33.138683
v 27.676697 9.866159 -13.317438
v 9.380331 -5.587721 -38.683029
v 12.470458 -9.981706 -28.183027
v 12.294828 -9.842781 -29.683027
v 11.576248 -9.240031 -28.183027
v 8.635063 -5.204633 -29.683027
v 28.378923 9.275971 -32.644787
v 28.450491 9.211246 -11.811033
v 28.774965 8.902039 -35.700165
v 28.723204 8.953103 -14.659592
v 28.719193 8.956877 -32.937672
v 28.691439 8.983812 -35.714104
v 28.686462 8.988757 -14.648303
v 28.541218 9.127083 -14.284043
v 29.777903 7.786001 -9.183028
v 29.426500 8.208497 -11.669337
v 29.800667 7.757292 -12.163431
v 29.550081 8.064144 -11.704411
v 29.644180 7.951231 -11.901718
v 29.632088 7.966651 -35.230904
v 29.583847 8.024954 -33.531693
v 29.852514 7.692721 -34.305664
v 29.860950 7.681905 -34.048672
v 29.850298 7.695569 -33.731007
v 32.036274 3.359708 -18.683027
v 31.989578 0.500000 -38.683029
v 32.489998 -0.500000 -38.183029
v 32.443565 1.135705 -28.183027
v 32.290306 -2.246513 -18.683027
v 31.014648 -7.666756 -34.590744
v 31.076336 5.788750 -17.683027
v 31.235020 5.473960 -18.683027
v 30.474806 6.818377 -17.683027
v 30.631947 6.565126 -19.183027
v 30.226873 7.187564 -29.683027
v 30.187790 7.240844 -12.544971
v 30.728588 5.370428 -8.683028
v 31.019594 -7.730165 -34.327595
v 30.983906 -7.787047 -34.325661
v 25.896118 -11.021958 -36.126747
v 25.853756 -11.044499 -32.297596
v 30.936947 -7.834549 -34.051994
v 26.813168 -10.480017 -29.683027
v 30.936472 -7.834549 -34.323090
v 30.910433 -7.834549 -34.574780
v 25.365217 -10.733799 -38.683029
v 27.331465 -9.499981 -38.683029
v 30.891739 -7.787047 -34.887844
v 25.468750 -11.240231 -28.683027
v 12.160240 11.088464 -13.042968
v 28.076698 9.541078 -13.908245
v 27.838533 9.736812 -35.260719
v 28.019743 9.589057 -13.834362
v 27.687510 9.857726 -13.060434
v 27.651455 9.884487 -33.245514
v 27.733501 9.820538 -33.016163
v 27.296169 10.149675 -35.029068
v 8.889671 -4.534380 -38.683029
v 28.429081 9.230865 -14.330122
v 28.733446 8.942981 -35.708267
v 28.875719 8.801796 -32.686470
v 29.168327 8.496574 -35.573780
v 29.444592 8.188387 -35.023685
v 29.367792 8.276139 -35.271538
v 29.731602 7.843743 -12.105335
v 30.092569 7.373035 -12.134683
v 29.964521 7.545420 -11.974950
v 29.879276 7.656667 -14.120543
v 29.477600 8.149308 -14.396409
v 29.535868 8.081908 -33.457809
v 29.632641 7.965275 -14.628222
v 32.494789 0.005211 -28.183027
v 32.443565 -1.125284 -18.683027
v 32.443565 1.135705 -18.683027
v 32.433228 1.244251 -17.683027
v 31.404707 5.116901 -29.683027
v 26.645466 -10.586766 -31.515377
v 28.215937 -8.746335 -38.683029
v 30.957388 -7.787047 -34.581970
v 12.160240 11.042548 -12.678320
v 28.114868 9.508596 -12.413497
v 27.960064 9.637852 -32.737835
v 27.752081 9.805878 -35.202625
v 27.578617 9.940551 -33.316994
v 8.503193 -3.438520 -38.683029
v 29.206034 8.455704 -35.555023
v 29.176336 8.487924 -33.114605
v 29.189840 8.472857 -11.918941
v 29.243305 8.414946 -35.535191
v 29.256971 8.399374 -11.922965
v 29.161034 8.504035 -14.725403
v 29.121872 8.546429 -33.082012
v 30.144464 7.301380 -12.336987
v 29.935341 7.583828 -14.049062
v 29.815327 7.738711 -14.349893
v 29.495445 8.129362 -29.683027
v 32.494789 0.005211 -18.683027
v 32.494698 0.053373 -17.683027
v 32.443565 -1.125284 -28.183027
v 31.577017 4.706490 -9.183028
v 12.207743 11.089138 -12.669053
v 29.014437 8.659674 -35.338154
v 28.937769 8.738658 -11.657788
v 28.951666 8.724403 -14.428385
v 28.947891 8.728415 -32.706463
v 29.225655 8.434292 -33.035934
v 29.322638 8.326969 -32.877609
v 29.019306 8.654378 -11.647255
v 30.095257 7.369352 -14.227373
v 29.484428 8.142211 -33.199097
v 29.503386 8.120078 -34.952560
v 32.442406 -1.137944 -17.683027
v 28.949680 8.726582 -35.364868
v 28.978601 8.696650 -11.651952
v 29.270761 8.384133 -14.721271
v 29.279964 8.374114 -35.514381
v 29.274422 8.380640 -32.956936
v 29.055813 8.616395 -32.898235
v 28.911940 8.765120 -32.696033
v 28.983545 8.691674 -32.717751
f 1 2 3
f 4 3 2
f 5 6 7
f 8 7 6
f 9 2 1
f 10 9 1
f 11 1 3
f 12 4 2
f 13 4 12
f 14 5 7
f 15 3 4
f 16 3 15
f 16 17 3
f 18 2 9
f 19 10 1
f 20 9 10
f 20 21 9
f 22 11 3
f 23 4 13
f 23 24 4
f 25 13 12
f 26 27 28
f 29 8 6
f 29 6 5
f 30 14 7
f 31 32 33
f 34 7 8
f 35 15 4
f 36 16 15
f 37 17 16
f 38 39 40
f 41 9 21
f 42 18 9
f 43 19 1
f 44 45 46
f 44 46 47
f 48 11 22
f 49 22 3
f 50 12 2
f 51 23 13
f 51 13 28
f 51 24 23
f 52 25 12
f 52 12 53
f 54 55 25
f 56 7 34
f 57 58 59
f 60 61 62
f 60 62 2
f 60 2 18
f 63 5 14
f 64 3 17
f 65 8 29
f 66 29 5
f 67 68 29
f 67 69 70
f 71 47 46
f 72 14 30
f 72 57 59
f 73 24 31
f 73 31 33
f 74 32 31
f 74 31 24
f 74 24 32
f 75 76 77
f 75 34 8
f 78 4 24
f 78 24 73
f 79 35 4
f 80 36 15
f 81 16 36
f 82 41 21
f 83 84 18
f 85 86 42
f 85 42 9
f 85 9 41
f 85 41 86
f 87 43 1
f 87 1 88
f 89 44 47
f 89 47 71
f 90 49 46
f 90 91 92
f 93 22 49
f 93 94 95
f 93 95 22
f 96 50 2
f 97 12 50
f 98 32 24
f 99 28 100
f 99 100 101
f 102 13 25
f 102 100 28
f 102 28 13
f 103 54 25
f 103 25 52
f 104 30 7
f 105 55 106
f 107 101 100
f 108 101 107
f 108 56 26
f 109 28 27
f 109 27 26
f 110 32 98
f 111 56 34
f 112 57 113
f 114 115 113
f 114 113 57
f 114 30 115
f 116 117 14
f 118 119 61
f 120 61 119
f 120 119 118
f 121 122 2
f 121 2 62
f 123 61 60
f 123 60 18
f 123 18 84
f 123 84 61
f 124 63 14
f 125 64 17
f 126 65 29
f 127 65 126
f 127 128 129
f 130 8 65
f 131 68 67
f 131 64 125
f 132 64 131
f 132 70 64
f 133 71 70
f 133 70 69
f 134 49 3
f 134 71 46
f 134 46 49
f 135 57 72
f 135 72 30
f 135 30 114
f 135 114 57
f 136 137 138
f 139 36 140
f 139 140 141
f 139 40 39
f 142 141 140
f 143 15 35
f 143 35 144
f 143 145 15
f 146 75 8
f 147 148 79
f 149 34 75
f 150 33 78
f 150 78 73
f 150 73 33
f 151 76 147
f 151 147 79
f 151 79 4
f 152 80 15
f 152 15 145
f 153 81 154
f 153 129 128
f 155 68 17
f 156 37 157
f 156 155 17
f 156 17 37
f 158 83 18
f 158 18 42
f 159 83 158
f 159 158 42
f 159 42 86
f 160 84 83
f 161 83 159
f 162 43 163
f 162 19 43
f 164 19 162
f 164 162 163
f 165 66 5
f 166 5 63
f 167 168 89
f 167 89 71
f 167 71 168
f 169 44 89
f 169 89 168
f 169 45 44
f 170 11 48
f 171 22 95
f 172 22 171
f 172 171 173
f 172 48 22
f 174 90 46
f 174 46 45
f 175 91 90
f 175 90 176
f 177 93 49
f 177 49 90
f 177 90 92
f 178 94 92
f 179 29 66
f 180 50 96
f 180 181 50
f 182 97 50
f 183 12 97
f 183 97 184
f 185 53 12
f 185 12 183
f 185 183 184
f 186 53 185
f 186 185 184
f 187 182 50
f 187 50 181
f 188 26 99
f 188 99 101
f 188 101 108
f 188 108 26
f 189 28 99
f 189 99 26
f 189 26 28
f 190 55 100
f 190 100 102
f 190 102 25
f 190 25 55
f 191 53 192
f 191 54 103
f 191 103 52
f 191 52 53
f 193 55 54
f 194 195 196
f 194 196 197
f 194 54 195
f 198 195 199
f 198 196 195
f 200 30 104
f 200 115 30
f 201 202 104
f 201 104 7
f 203 115 200
f 203 200 104
f 203 104 202
f 204 205 202
f 204 202 201
f 204 201 7
f 206 105 106
f 207 208 206
f 207 206 106
f 207 106 196
f 207 196 108
f 207 108 107
f 209 51 28
f 209 28 109
f 209 109 210
f 209 210 51
f 211 110 51
f 211 51 210
f 212 51 110
f 212 110 98
f 212 98 24
f 212 24 51
f 213 33 32
f 213 32 111
f 213 111 34
f 214 56 111
f 214 26 56
f 215 26 214
f 215 214 111
f 215 111 32
f 215 32 110
f 215 110 211
f 215 211 210
f 215 210 109
f 215 109 26
f 216 72 59
f 216 59 116
f 216 116 14
f 216 14 72
f 217 116 59
f 217 122 218
f 217 218 116
f 219 59 58
f 219 58 220
f 221 2 122
f 221 122 219
f 221 219 96
f 221 96 2
f 222 84 223
f 222 223 118
f 222 118 61
f 222 61 84
f 224 62 61
f 225 62 224
f 225 120 117
f 225 117 62
f 226 121 62
f 227 116 121
f 227 121 226
f 227 117 116
f 228 122 121
f 228 116 218
f 228 218 122
f 229 63 124
f 229 124 230
f 231 124 14
f 232 86 233
f 234 68 125
f 234 125 17
f 234 17 68
f 235 126 29
f 235 29 68
f 236 65 127
f 236 237 154
f 236 38 40
f 238 68 155
f 238 156 157
f 238 157 37
f 238 127 126
f 238 126 235
f 238 235 68
f 239 8 130
f 240 241 130
f 240 141 142
f 240 142 140
f 242 130 65
f 242 65 236
f 242 236 40
f 243 68 131
f 243 131 125
f 243 125 68
f 244 67 132
f 244 132 131
f 244 131 67
f 245 70 132
f 245 132 67
f 245 67 70
f 246 71 133
f 246 133 168
f 246 168 71
f 247 168 133
f 247 133 69
f 247 69 67
f 247 67 168
f 248 70 71
f 248 71 134
f 248 134 3
f 249 138 250
f 251 145 136
f 251 136 138
f 251 138 145
f 252 140 36
f 252 36 80
f 253 154 139
f 253 139 39
f 253 39 38
f 253 38 154
f 254 40 139
f 254 139 141
f 255 81 36
f 255 36 139
f 255 139 154
f 255 154 81
f 256 257 148
f 258 35 79
f 258 257 144
f 258 144 35
f 259 137 143
f 260 136 145
f 260 145 143
f 260 137 136
f 261 259 143
f 261 143 144
f 262 146 263
f 264 147 76
f 264 76 75
f 265 264 75
f 265 75 146
f 266 147 146
f 266 146 262
f 267 77 76
f 267 149 75
f 267 75 77
f 268 149 267
f 268 76 78
f 269 33 149
f 269 149 268
f 270 78 76
f 270 76 151
f 270 151 4
f 270 4 78
f 271 16 81
f 271 81 153
f 271 153 37
f 271 37 16
f 272 37 153
f 272 153 128
f 272 128 127
f 273 153 154
f 273 154 237
f 273 237 236
f 273 129 153
f 274 230 160
f 274 160 83
f 274 83 230
f 275 83 161
f 275 230 83
f 276 10 19
f 277 165 5
f 278 66 165
f 279 280 163
f 279 163 43
f 279 43 87
f 279 87 88
f 281 282 88
f 283 5 166
f 283 284 285
f 283 285 5
f 286 287 288
f 286 288 166
f 286 166 63
f 289 29 179
f 289 290 176
f 291 29 289
f 291 169 168
f 292 293 11
f 292 11 170
f 292 170 294
f 292 294 293
f 295 294 170
f 296 297 48
f 298 90 174
f 298 174 176
f 298 176 90
f 299 169 176
f 299 176 174
f 299 174 45
f 299 45 169
f 300 94 93
f 300 93 177
f 300 177 92
f 300 92 94
f 301 94 178
f 302 176 290
f 302 290 91
f 302 91 175
f 302 175 176
f 303 186 184
f 304 186 303
f 304 303 305
f 304 192 53
f 304 53 186
f 306 197 196
f 307 197 306
f 307 306 193
f 307 193 54
f 307 54 194
f 308 7 56
f 308 198 199
f 309 310 113
f 309 113 115
f 309 115 203
f 309 203 202
f 309 202 205
f 311 205 204
f 311 204 7
f 311 199 195
f 311 195 205
f 312 100 313
f 312 107 100
f 314 105 206
f 314 206 208
f 314 208 207
f 314 313 100
f 314 100 55
f 314 55 105
f 315 33 213
f 315 213 34
f 315 34 149
f 315 149 33
f 316 220 57
f 316 57 112
f 317 57 220
f 317 220 58
f 317 58 57
f 318 181 180
f 318 180 96
f 318 96 219
f 318 219 220
f 318 220 316
f 318 316 112
f 318 112 113
f 319 219 122
f 319 122 217
f 320 223 84
f 320 84 160
f 321 120 118
f 321 118 223
f 321 223 320
f 321 230 124
f 321 124 231
f 321 231 120
f 322 120 224
f 322 224 61
f 322 61 120
f 323 120 225
f 323 225 224
f 323 224 120
f 324 117 226
f 324 226 62
f 324 62 117
f 325 117 227
f 325 227 226
f 325 226 117
f 326 116 228
f 326 228 121
f 326 121 116
f 327 328 63
f 327 232 233
f 329 120 231
f 329 231 14
f 329 14 117
f 329 117 120
f 330 232 327
f 330 331 159
f 332 41 333
f 332 86 41
f 334 129 273
f 334 273 236
f 334 236 127
f 334 127 129
f 335 38 236
f 335 236 154
f 335 154 38
f 336 156 238
f 336 238 155
f 336 155 156
f 337 238 37
f 337 37 272
f 338 8 239
f 338 239 138
f 338 138 137
f 339 138 239
f 339 250 138
f 340 241 339
f 340 339 239
f 340 239 130
f 340 130 241
f 341 240 140
f 342 130 242
f 342 242 40
f 342 40 240
f 342 240 130
f 343 70 248
f 343 248 3
f 343 3 64
f 343 64 70
f 344 138 249
f 344 249 145
f 344 145 138
f 345 140 252
f 345 252 80
f 346 240 40
f 346 40 254
f 346 254 141
f 346 141 240
f 347 348 349
f 350 263 256
f 350 256 148
f 350 148 263
f 351 257 256
f 351 256 263
f 351 263 348
f 352 148 257
f 352 257 258
f 352 258 79
f 352 79 148
f 353 137 260
f 353 260 143
f 353 143 137
f 354 137 259
f 354 259 261
f 354 261 349
f 354 349 137
f 355 349 261
f 355 261 144
f 355 144 349
f 356 148 262
f 356 262 263
f 356 263 148
f 357 147 265
f 357 265 146
f 357 146 147
f 358 264 265
f 358 265 147
f 358 147 264
f 359 147 266
f 359 266 262
f 359 262 148
f 359 148 147
f 360 76 268
f 360 268 267
f 360 267 76
f 361 33 269
f 361 269 78
f 361 78 33
f 362 78 269
f 362 269 268
f 362 268 78
f 363 364 41
f 365 287 328
f 366 367 368
f 366 368 21
f 369 82 21
f 369 21 368
f 370 371 369
f 370 369 287
f 370 287 372
f 373 374 284
f 375 19 164
f 376 164 377
f 378 376 377
f 378 377 164
f 378 164 163
f 379 280 279
f 380 381 277
f 380 277 5
f 382 383 384
f 382 165 282
f 385 66 278
f 385 278 386
f 387 382 384
f 387 293 294
f 388 293 387
f 388 387 384
f 388 384 383
f 388 281 88
f 388 88 1
f 388 1 11
f 388 11 293
f 389 381 380
f 389 380 5
f 389 5 285
f 389 285 390
f 389 390 391
f 389 392 381
f 393 284 374
f 394 284 283
f 394 283 166
f 395 287 286
f 395 286 63
f 395 63 328
f 395 328 287
f 396 29 291
f 396 291 168
f 396 168 67
f 396 67 29
f 397 176 169
f 397 169 291
f 397 291 289
f 397 289 176
f 398 48 297
f 398 297 295
f 398 295 170
f 398 170 48
f 399 297 296
f 399 296 173
f 400 172 173
f 400 173 296
f 400 296 48
f 400 48 172
f 401 95 94
f 402 403 404
f 405 406 407
f 405 407 408
f 409 385 386
f 410 404 179
f 410 179 66
f 410 66 411
f 412 408 301
f 413 408 412
f 413 414 290
f 413 290 408
f 415 178 92
f 416 187 305
f 416 305 303
f 416 303 184
f 416 184 97
f 416 97 182
f 416 182 187
f 417 304 305
f 417 305 187
f 417 187 181
f 417 181 418
f 417 418 310
f 419 106 55
f 419 306 196
f 419 196 106
f 420 197 307
f 420 307 194
f 420 194 197
f 421 196 198
f 421 198 308
f 421 308 56
f 422 310 418
f 422 418 181
f 422 181 318
f 422 318 113
f 422 113 310
f 423 308 199
f 423 199 311
f 423 311 7
f 423 7 308
f 424 207 107
f 424 107 312
f 424 312 313
f 424 313 207
f 425 313 314
f 425 314 207
f 425 207 313
f 426 219 319
f 426 319 59
f 426 59 219
f 427 59 319
f 427 319 217
f 427 217 59
f 428 230 321
f 428 321 320
f 428 320 160
f 428 160 230
f 429 159 331
f 429 331 330
f 429 330 327
f 429 229 230
f 430 229 429
f 430 429 327
f 430 327 63
f 430 63 229
f 431 232 330
f 431 330 159
f 431 159 86
f 431 86 232
f 432 433 365
f 432 365 328
f 434 328 327
f 435 238 337
f 435 337 272
f 435 272 127
f 435 127 238
f 436 8 338
f 436 338 137
f 436 137 349
f 437 140 345
f 437 341 140
f 438 241 345
f 439 440 339
f 439 438 345
f 441 249 250
f 441 250 339
f 441 339 440
f 442 145 249
f 442 249 441
f 442 441 440
f 442 440 439
f 442 439 345
f 442 345 80
f 442 80 152
f 442 152 145
f 443 348 347
f 443 347 144
f 443 144 257
f 444 144 347
f 444 347 349
f 444 349 144
f 445 257 351
f 445 351 348
f 445 348 257
f 446 372 287
f 446 287 365
f 447 448 365
f 447 365 363
f 447 363 41
f 447 41 449
f 447 449 448
f 450 446 451
f 450 451 448
f 450 448 449
f 450 449 41
f 452 368 367
f 453 370 372
f 453 372 454
f 453 454 82
f 455 373 284
f 455 284 394
f 455 394 166
f 455 166 288
f 455 288 456
f 455 456 457
f 458 391 390
f 458 390 285
f 459 381 392
f 459 164 381
f 460 164 376
f 460 376 381
f 460 381 164
f 461 165 277
f 461 282 165
f 462 381 376
f 462 376 378
f 462 378 163
f 462 277 381
f 463 279 88
f 464 386 278
f 464 465 386
f 466 165 382
f 466 382 464
f 466 464 278
f 466 278 165
f 467 383 382
f 467 382 282
f 467 282 281
f 467 388 383
f 468 295 297
f 468 297 399
f 468 387 294
f 468 294 295
f 469 382 387
f 469 387 468
f 469 464 382
f 470 375 389
f 470 389 391
f 470 391 375
f 471 392 389
f 471 389 375
f 471 375 392
f 472 285 284
f 473 10 276
f 473 276 393
f 474 19 375
f 474 276 19
f 475 401 94
f 475 407 406
f 475 406 401
f 476 411 409
f 476 409 386
f 476 386 465
f 477 289 179
f 477 405 408
f 478 66 385
f 478 385 409
f 478 409 411
f 478 411 66
f 479 404 410
f 479 410 411
f 480 414 413
f 480 413 178
f 480 178 414
f 481 413 412
f 481 412 301
f 481 301 178
f 482 178 415
f 482 414 178
f 483 414 482
f 483 482 415
f 483 415 290
f 483 290 414
f 484 290 415
f 484 415 92
f 484 92 91
f 484 91 290
f 485 205 195
f 485 417 310
f 485 310 309
f 485 309 205
f 486 193 306
f 486 306 419
f 486 419 55
f 486 55 193
f 487 196 421
f 487 421 56
f 487 56 108
f 487 108 196
f 488 159 429
f 488 429 161
f 488 161 159
f 489 275 161
f 489 161 429
f 489 429 230
f 489 230 275
f 490 433 432
f 490 41 364
f 490 364 363
f 490 363 365
f 490 365 433
f 491 432 328
f 492 332 493
f 492 86 332
f 494 328 434
f 495 327 233
f 496 86 497
f 496 497 494
f 496 494 434
f 496 233 86
f 498 8 436
f 498 436 349
f 498 349 348
f 499 341 437
f 499 437 241
f 499 241 240
f 499 240 341
f 500 241 437
f 500 437 345
f 500 345 241
f 501 241 438
f 501 438 439
f 501 439 339
f 501 339 241
f 502 348 443
f 502 443 257
f 502 257 348
f 503 448 451
f 503 451 446
f 503 446 365
f 503 365 448
f 504 454 372
f 504 450 41
f 504 41 82
f 504 82 454
f 505 452 367
f 506 368 452
f 506 507 508
f 509 369 368
f 509 368 506
f 509 506 508
f 509 508 287
f 509 287 369
f 510 370 453
f 510 453 82
f 510 82 369
f 510 369 371
f 510 371 370
f 511 512 21
f 511 21 20
f 511 20 10
f 511 10 473
f 511 513 456
f 514 512 511
f 514 511 515
f 516 288 517
f 516 517 456
f 516 456 288
f 518 519 455
f 518 455 457
f 520 519 518
f 520 518 457
f 520 457 456
f 520 456 513
f 521 375 164
f 521 164 459
f 521 459 392
f 521 392 375
f 522 379 461
f 522 461 277
f 522 277 462
f 522 462 379
f 523 282 461
f 523 461 379
f 524 379 462
f 524 280 379
f 525 388 467
f 525 467 281
f 525 281 388
f 526 464 469
f 526 469 465
f 526 465 464
f 527 393 472
f 527 472 284
f 527 284 393
f 528 285 472
f 528 472 393
f 529 455 473
f 529 473 373
f 529 373 455
f 530 374 373
f 530 373 473
f 530 473 393
f 530 393 374
f 531 532 473
f 531 473 455
f 533 276 474
f 533 393 276
f 534 469 468
f 534 468 399
f 534 399 535
f 534 535 465
f 534 465 469
f 536 407 475
f 536 408 407
f 537 301 408
f 537 408 536
f 537 536 475
f 537 475 94
f 537 94 301
f 538 399 173
f 538 173 171
f 538 171 95
f 538 95 401
f 538 401 539
f 538 539 405
f 538 405 540
f 538 540 535
f 538 535 399
f 541 535 540
f 541 540 405
f 541 405 403
f 541 403 402
f 542 289 477
f 542 477 408
f 542 408 290
f 542 290 289
f 543 403 405
f 543 405 477
f 543 477 179
f 544 402 404
f 544 404 479
f 544 479 411
f 544 411 476
f 545 413 481
f 545 481 178
f 545 178 413
f 546 195 54
f 546 485 195
f 547 490 432
f 548 332 491
f 548 491 328
f 548 328 332
f 549 333 41
f 549 41 547
f 549 547 432
f 549 332 333
f 550 497 86
f 550 86 492
f 550 492 493
f 550 493 497
f 551 328 494
f 551 497 493
f 551 493 552
f 553 434 327
f 553 327 495
f 553 495 233
f 553 233 496
f 553 496 434
f 554 8 498
f 554 498 348
f 554 348 263
f 555 450 504
f 555 504 372
f 555 372 446
f 555 446 450
f 556 452 505
f 556 505 287
f 556 287 508
f 556 508 507
f 556 507 506
f 556 506 452
f 557 505 367
f 557 367 366
f 558 288 287
f 559 288 560
f 559 560 512
f 561 515 511
f 561 511 456
f 561 456 515
f 562 563 511
f 562 511 473
f 564 513 511
f 564 511 563
f 564 519 520
f 565 512 514
f 566 514 517
f 566 517 288
f 567 517 514
f 567 514 515
f 567 515 456
f 567 456 517
f 568 463 523
f 568 523 379
f 569 523 463
f 569 463 88
f 570 280 524
f 570 524 163
f 570 163 280
f 571 163 524
f 571 524 462
f 571 462 163
f 572 285 528
f 572 458 285
f 573 406 405
f 573 405 539
f 573 539 401
f 573 401 406
f 574 404 403
f 574 403 543
f 574 543 179
f 574 179 404
f 575 465 535
f 575 535 541
f 575 541 402
f 575 402 544
f 575 544 476
f 575 476 465
f 576 54 191
f 576 191 192
f 576 485 546
f 576 546 54
f 577 490 547
f 577 547 41
f 577 41 490
f 578 491 332
f 578 332 549
f 578 549 432
f 578 432 491
f 579 328 551
f 579 551 552
f 579 552 493
f 579 493 332
f 579 332 328
f 580 497 551
f 580 551 494
f 580 494 497
f 581 8 554
f 581 554 263
f 581 263 146
f 581 146 8
f 582 288 558
f 582 558 583
f 582 583 584
f 582 585 288
f 586 584 21
f 586 21 512
f 587 584 583
f 587 583 558
f 587 558 588
f 589 562 473
f 589 473 532
f 589 532 531
f 590 519 564
f 590 564 563
f 590 563 519
f 591 513 564
f 591 564 520
f 591 520 513
f 592 565 514
f 592 514 566
f 592 559 512
f 592 512 565
f 593 463 568
f 593 568 279
f 593 279 463
f 594 279 568
f 594 568 379
f 594 379 279
f 595 282 523
f 595 523 569
f 595 569 88
f 596 458 572
f 596 572 528
f 596 528 393
f 596 393 533
f 596 533 474
f 596 474 375
f 596 375 391
f 596 391 458
f 597 304 417
f 597 417 485
f 597 485 576
f 597 576 192
f 597 192 304
f 598 588 558
f 598 558 287
f 599 366 21
f 599 600 601
f 602 585 582
f 602 582 584
f 602 584 586
f 602 586 585
f 603 512 560
f 604 598 21
f 604 21 584
f 604 584 587
f 604 587 588
f 605 455 519
f 605 519 563
f 605 563 562
f 605 562 589
f 605 589 531
f 605 531 455
f 606 559 592
f 606 592 288
f 606 288 559
f 607 288 592
f 607 592 566
f 607 566 288
f 608 282 595
f 608 595 88
f 608 88 282
f 609 505 557
f 609 598 287
f 609 287 505
f 610 601 600
f 610 600 599
f 610 599 21
f 611 512 603
f 611 586 512
f 612 585 603
f 612 603 560
f 612 560 288
f 612 288 585
f 613 586 611
f 613 611 603
f 613 603 585
f 613 585 586
f 614 598 604
f 614 604 588
f 614 588 598
f 615 601 609
f 615 609 557
f 615 557 366
f 615 366 599
f 615 599 601
f 616 598 609
f 616 609 601
f 616 601 610
f 616 610 21
f 616 21 598
