# Normalized convex hull collision mesh - generated by scripts/generate-collision-meshes.mjs (units: meters)
v 0.009534 -0.001123 0.015000
v 0.000400 0.009596 0.015000
v -0.000929 -0.009551 0.015000
v -0.009572 0.000733 0.015000
v 0.009079 0.003132 -0.015000
v 0.003582 0.000400 -0.015000
v -0.006173 0.007349 -0.015000
v -0.009416 -0.001848 -0.015000
v 0.006329 0.007223 0.015000
v 0.007600 0.005869 0.015000
v 0.009380 -0.002040 0.015000
v -0.006329 0.007223 0.015000
v -0.009253 0.002563 0.015000
v 0.000733 0.009572 -0.015000
v -0.007912 -0.005433 0.015000
v -0.001848 -0.009416 0.015000
v -0.001427 -0.009894 0.014500
v 0.003132 0.009079 0.015000
v 0.009253 0.002563 0.015000
v 0.006997 0.006577 0.015000
v 0.007198 0.006946 0.014500
v 0.006022 -0.007472 0.015000
v -0.009457 0.001656 0.015000
v -0.009951 0.000995 0.014500
v -0.008132 0.005107 0.015000
v -0.009443 0.003278 -0.014500
v -0.009582 0.002865 0.006000
v -0.009582 0.002865 0.014500
v -0.000196 -0.009598 -0.015000
v -0.002938 0.009138 -0.015000
v -0.009959 0.000909 -0.004500
v -0.009894 0.001427 -0.014500
v -0.009984 0.000477 -0.014500
v -0.009551 -0.000929 -0.015000
v -0.008401 -0.004642 0.015000
v -0.005271 -0.008019 0.015000
v -0.002363 -0.009713 0.014500
v -0.004371 -0.008992 -0.005000
v -0.004554 -0.008901 -0.006000
v -0.004554 -0.008901 -0.014500
v 0.006503 0.007601 0.014500
v 0.004820 0.008306 0.015000
v 0.009572 0.000733 0.015000
v 0.001939 -0.009811 -0.006000
v 0.002363 -0.009713 0.006000
v 0.002363 -0.009713 0.014500
v 0.001806 -0.009836 0.004500
v 0.007912 -0.005433 0.015000
v 0.002751 -0.009193 0.015000
v -0.003132 0.009079 0.015000
v -0.009811 0.001939 0.014500
v -0.006997 0.006577 0.015000
v -0.007198 0.006946 0.014500
v -0.008384 0.005455 0.014500
v -0.008865 0.004631 0.014500
v -0.008884 0.003628 -0.015000
v -0.001855 0.009826 -0.014500
v -0.001350 0.009913 0.006000
v -0.000910 0.009958 -0.014500
v 0.001326 0.009512 0.015000
v 0.002288 0.009739 0.014500
v 0.001350 0.009913 0.014500
v 0.005869 0.007600 -0.015000
v -0.000477 -0.009984 0.014500
v -0.002938 -0.009138 -0.015000
v 0.007801 -0.005601 -0.015000
v 0.000043 -0.010000 -0.014500
v -0.000910 -0.009958 -0.014500
v 0.000477 -0.009984 0.006000
v 0.000477 -0.009984 0.014500
v 0.001427 -0.009894 0.014500
v -0.001123 0.009534 -0.015000
v -0.009959 0.000909 0.005000
v -0.009951 0.000995 0.006000
v -0.009894 -0.001427 -0.014500
v -0.009958 -0.000910 0.014500
v -0.009958 -0.000910 0.006000
v -0.010000 0.000043 0.014500
v -0.009380 -0.002040 0.015000
v -0.006717 -0.006854 0.015000
v -0.003628 -0.008884 0.015000
v 0.006797 0.007339 0.011891
v 0.004094 0.009128 0.014500
v 0.003206 0.009476 0.014500
v 0.005601 0.007801 0.015000
v 0.005750 0.008186 0.014500
v 0.009598 -0.000196 0.015000
v 0.009958 -0.000910 0.014500
v 0.001806 -0.009836 -0.005000
v 0.003278 -0.009443 0.014500
v 0.003548 -0.009351 0.004500
v 0.004164 -0.009088 0.014500
v 0.005271 -0.008019 0.015000
v 0.005011 -0.008650 0.014500
v 0.005813 -0.008133 0.014500
v -0.001326 0.009512 0.015000
v -0.004820 0.008306 0.015000
v -0.009894 0.001427 -0.006000
v -0.009351 0.003548 0.005000
v -0.009266 0.003765 0.014500
v -0.009266 0.003765 0.006000
v -0.008962 0.003446 0.015000
v -0.007600 0.005869 0.015000
v -0.004642 0.008401 -0.015000
v -0.008935 0.004495 0.011993
v -0.008865 0.004631 0.006000
v -0.009074 0.004207 0.010358
v -0.009088 0.004164 -0.014500
v -0.009633 0.002688 -0.004500
v -0.009836 0.001806 -0.004500
v -0.009416 0.001848 -0.015000
v -0.002288 0.009739 0.006000
v -0.006133 0.008958 0.010500
v -0.002783 0.009604 -0.014500
v -0.003685 0.009294 -0.014500
v 0.000043 0.010000 -0.014500
v 0.000995 0.009951 -0.014500
v 0.002688 0.009633 -0.005000
v 0.002288 0.009739 0.006000
v 0.001939 0.009811 -0.014500
v 0.000400 0.009996 0.014500
v -0.000400 0.009996 0.014500
v 0.002239 0.009339 0.015000
v 0.003446 0.008962 -0.015000
v -0.000900 -0.009959 0.004500
v -0.002040 -0.009380 -0.015000
v -0.002783 -0.009604 -0.014500
v -0.002783 -0.009604 -0.006000
v -0.003278 -0.009443 0.006000
v -0.005433 -0.007912 -0.015000
v -0.000477 -0.009984 0.006000
v 0.000004 -0.010000 0.004500
v 0.000909 -0.009959 0.004500
v 0.001848 -0.009416 0.015000
v -0.002040 0.009380 -0.015000
v -0.007985 -0.006019 -0.004500
v -0.008133 -0.005813 -0.014500
v -0.007542 -0.006562 -0.014500
v -0.005011 -0.008650 0.014500
v -0.005813 -0.008133 0.014500
v -0.005252 -0.008510 0.004500
v -0.005382 -0.008426 -0.006000
v -0.008426 -0.005382 0.014500
v -0.008901 -0.004554 0.014500
v -0.007874 -0.006160 0.014500
v -0.009713 -0.002363 -0.014500
v -0.009826 -0.001855 0.014500
v -0.009604 -0.002783 0.014500
v -0.009984 -0.000477 -0.014500
v -0.009984 0.000477 -0.006000
v -0.009534 -0.001123 0.015000
v -0.007349 -0.006173 0.015000
v -0.003278 -0.009443 0.014500
v -0.004164 -0.009088 0.014500
v -0.001427 -0.009894 0.006000
v -0.001797 -0.009836 0.004500
v -0.001855 -0.009826 -0.006000
v 0.003995 0.008734 0.015000
v 0.004944 0.008696 0.014500
v 0.003548 0.009351 0.004500
v 0.004379 0.008992 0.004500
v 0.009457 0.001656 0.015000
v 0.009951 0.000995 0.014500
v 0.009811 0.001939 0.014500
v 0.009512 -0.001326 -0.015000
v 0.007801 0.005601 -0.015000
v 0.001427 -0.009894 0.006000
v 0.000995 -0.009951 -0.014500
v 0.001939 -0.009811 -0.014500
v 0.008811 -0.003808 0.015000
v 0.006562 -0.007542 0.014500
v 0.006717 -0.006854 0.015000
v 0.007251 -0.006882 0.014500
v 0.002688 -0.009633 0.004500
v 0.003278 -0.009443 0.006000
v 0.002865 -0.009582 -0.014500
v 0.003628 -0.008884 0.015000
v 0.004379 -0.008992 0.004500
v 0.007223 -0.006329 -0.015000
v -0.002239 0.009339 0.015000
v -0.003206 0.009476 0.014500
v -0.003995 0.008734 0.015000
v -0.005601 0.007801 0.015000
v -0.005750 0.008186 0.014500
v -0.006503 0.007601 0.014500
v -0.006230 0.008751 0.011508
v -0.004094 0.009128 0.014500
v -0.009351 0.003548 -0.004500
v -0.009443 0.003278 -0.006000
v -0.008587 0.004296 0.015000
v -0.007826 0.006229 0.014500
v -0.006268 0.008798 0.011192
v -0.008676 0.004977 0.012811
v -0.006296 0.008828 0.010500
v -0.006268 0.008874 0.010500
v -0.008650 0.005011 -0.014500
v -0.008510 0.005252 -0.004500
v -0.008133 0.005813 -0.014500
v -0.007542 0.006562 -0.014500
v -0.003808 0.008811 -0.015000
v -0.005433 0.007912 -0.015000
v -0.005382 0.008426 -0.014500
v -0.004554 0.008901 -0.014500
v -0.006160 0.007874 -0.014500
v -0.006230 0.008912 0.010500
v -0.008944 0.004476 0.009053
v -0.008992 0.004379 -0.004500
v -0.008992 0.004379 0.005000
v -0.009633 0.002688 0.005000
v -0.009713 0.002363 -0.006000
v -0.009811 0.001939 0.006000
v -0.009836 0.001806 0.005000
v -0.009551 0.000929 -0.015000
v -0.009193 0.002751 -0.015000
v -0.009713 0.002363 -0.014500
v -0.000196 0.009598 -0.015000
v -0.000400 0.009996 0.006000
v 0.000004 0.010000 -0.005000
v -0.002288 0.009739 0.014500
v -0.000900 0.009959 0.004500
v -0.000400 0.009596 0.015000
v 0.002688 0.009633 0.004500
v 0.002865 0.009582 -0.006000
v 0.001806 0.009836 0.004500
v 0.001350 0.009913 0.006000
v 0.000909 0.009959 0.004500
v 0.000400 0.009996 0.006000
v 0.000004 0.010000 0.004500
v 0.004296 0.008587 -0.015000
v 0.003765 0.009266 -0.014500
v 0.002563 0.009253 -0.015000
v 0.005455 0.008384 -0.006000
v 0.005750 0.008186 0.006000
v -0.000910 -0.009958 -0.006000
v -0.001123 -0.009534 -0.015000
v -0.003685 -0.009294 -0.014500
v -0.003685 -0.009294 -0.006000
v -0.001855 -0.009826 -0.014500
v -0.006854 -0.006717 -0.015000
v -0.005382 -0.008426 -0.014500
v -0.006160 -0.007874 -0.014500
v -0.003808 -0.008811 -0.015000
v -0.000900 -0.009959 -0.005000
v 0.000004 -0.010000 -0.005000
v 0.000043 -0.010000 -0.006000
v 0.000995 -0.009951 -0.006000
v 0.000909 -0.009959 -0.005000
v 0.000929 -0.009551 0.015000
v -0.007392 -0.006735 0.004500
v -0.007392 -0.006735 -0.004500
v -0.007874 -0.006160 0.006000
v -0.006022 -0.007472 0.015000
v -0.004371 -0.008992 0.004500
v -0.005011 -0.008650 0.006000
v -0.004470 -0.008492 0.015000
v -0.009351 -0.003540 0.005000
v -0.009294 -0.003685 0.014500
v -0.008811 -0.003808 0.015000
v -0.008426 -0.005382 0.006000
v -0.007985 -0.006019 0.004500
v -0.008510 -0.005252 0.004500
v -0.009633 -0.002679 -0.004500
v -0.009443 -0.003278 -0.014500
v -0.009894 -0.001427 -0.006000
v -0.009836 -0.001797 -0.004500
v -0.009713 -0.002363 -0.006000
v -0.009959 -0.000900 -0.004500
v -0.009984 -0.000477 -0.006000
v -0.010000 0.000004 -0.004500
v -0.009598 -0.000196 0.015000
v -0.002751 -0.009193 0.015000
v -0.002679 -0.009633 0.004500
v -0.003540 -0.009351 0.004500
v 0.003765 0.009266 -0.006000
v 0.004094 0.009128 0.006000
v 0.008132 0.005107 0.015000
v 0.009512 0.001326 -0.015000
v 0.009079 -0.003132 -0.015000
v 0.010000 0.000043 0.014500
v 0.009996 0.000400 -0.006000
v 0.009913 -0.001350 -0.006000
v 0.009913 -0.001350 -0.014500
v 0.008734 0.003995 -0.015000
v 0.008696 0.004944 -0.014500
v 0.009128 0.004094 -0.014500
v 0.007223 0.006329 -0.015000
v 0.006946 0.007198 -0.014500
v 0.007601 0.006503 -0.014500
v 0.003446 -0.008962 -0.015000
v 0.003765 -0.009266 -0.014500
v 0.001656 -0.009457 -0.015000
v 0.009138 -0.002938 0.015000
v 0.009604 -0.002783 0.014500
v 0.009294 -0.003685 0.014500
v 0.008901 -0.004554 0.014500
v 0.007874 -0.006160 0.014500
v 0.008426 -0.005382 0.014500
v 0.002865 -0.009582 -0.006000
v 0.002688 -0.009633 -0.005000
v 0.004470 -0.008492 0.015000
v 0.004631 -0.008865 -0.006000
v 0.003548 -0.009351 -0.005000
v -0.006184 0.008778 0.011522
v -0.006230 0.008835 0.011205
v -0.006184 0.008863 0.011214
v -0.008676 0.004977 0.008189
v -0.008485 0.005295 0.013146
v -0.007472 0.006022 -0.015000
v -0.006184 0.008940 0.010500
v -0.006184 0.008937 0.010645
v -0.006882 0.007251 -0.014500
v -0.009071 0.004213 0.010761
v -0.009047 0.004264 0.011191
v -0.009001 0.004361 0.011613
v -0.009596 -0.000000 -0.015000
v -0.001797 0.009836 -0.005000
v -0.001797 0.009836 0.004500
v -0.001350 0.009913 0.014500
v -0.001855 0.009826 -0.006000
v -0.000900 0.009959 -0.005000
v 0.003206 0.009476 0.006000
v 0.002865 0.009582 -0.014500
v 0.001939 0.009811 -0.006000
v 0.001806 0.009836 -0.005000
v 0.000995 0.009951 -0.006000
v 0.000909 0.009959 -0.005000
v 0.000043 0.010000 -0.006000
v 0.005455 0.008384 -0.014500
v 0.006229 0.007826 -0.014500
v 0.001656 0.009457 -0.015000
v 0.005252 0.008510 -0.004500
v 0.004944 0.008696 0.006000
v 0.006274 0.007792 0.011429
v 0.006373 0.007710 0.011548
v -0.003540 -0.009351 -0.005000
v -0.004164 -0.009088 0.006000
v -0.001797 -0.009836 -0.005000
v -0.002363 -0.009713 0.006000
v -0.007472 -0.006022 -0.015000
v -0.006882 -0.007251 -0.014500
v -0.006173 -0.007349 -0.015000
v -0.005813 -0.008133 0.006000
v -0.004642 -0.008401 -0.015000
v -0.000000 -0.009596 0.015000
v -0.007542 -0.006562 -0.006000
v -0.006562 -0.007542 0.014500
v -0.005252 -0.008510 -0.004500
v -0.008992 -0.004371 -0.004500
v -0.009088 -0.004164 -0.014500
v -0.008650 -0.005011 -0.014500
v -0.009443 -0.003278 -0.006000
v -0.009351 -0.003540 -0.004500
v -0.009138 -0.002938 0.015000
v -0.008133 -0.005813 -0.006000
v -0.008510 -0.005252 -0.004500
v -0.008650 -0.005011 -0.006000
v -0.009604 -0.002783 0.006000
v -0.009826 -0.001855 0.006000
v -0.009836 -0.001797 0.005000
v -0.009633 -0.002679 0.005000
v -0.009959 -0.000900 0.005000
v -0.010000 0.000043 0.006000
v -0.010000 0.000004 0.005000
v 0.006551 0.007560 0.011341
v 0.006514 0.007592 0.009516
v 0.006567 0.007545 -0.012014
v 0.007122 0.007024 0.012017
v 0.007041 0.007105 0.009003
v 0.006981 0.007164 0.011682
v 0.006928 0.007216 0.011655
v 0.006924 0.007220 -0.012036
v 0.006893 0.007249 0.009215
v 0.006778 0.007356 -0.011764
v 0.008510 0.005252 -0.004500
v 0.008696 0.004944 -0.006000
v 0.009582 0.002865 0.014500
v 0.009836 0.001806 -0.004500
v 0.009836 0.001806 0.005000
v 0.009913 0.001350 -0.006000
v 0.009996 0.000400 -0.014500
v 0.009339 0.002239 -0.015000
v 0.009739 0.002288 -0.014500
v 0.009739 -0.002288 -0.014500
v 0.009826 -0.001855 0.006000
v 0.009739 -0.002288 -0.006000
v 0.008734 -0.003995 -0.015000
v 0.009128 -0.004094 -0.014500
v 0.008838 -0.006133 -0.010364
v 0.009826 -0.001855 0.014500
v 0.009476 0.003206 -0.014500
v 0.009351 0.003548 -0.004500
v 0.009351 0.003548 0.005000
v 0.009633 0.002688 -0.004500
v 0.008865 0.004631 0.014500
v 0.008306 0.004820 -0.015000
v 0.006577 0.006997 -0.015000
v 0.000733 -0.009572 -0.015000
v 0.002563 -0.009253 -0.015000
v 0.008401 -0.004642 0.015000
v 0.008792 -0.006230 -0.010367
v 0.007349 -0.006173 0.015000
v 0.005252 -0.008510 0.004500
v 0.008681 -0.006268 -0.011192
v 0.006229 -0.007826 -0.014500
v 0.006946 -0.007198 -0.014500
v 0.005455 -0.008384 -0.014500
v 0.005295 -0.008485 -0.013146
v 0.004977 -0.008676 -0.012811
v 0.004631 -0.008865 -0.014500
v 0.008696 -0.004944 -0.014500
v 0.007601 -0.006503 -0.014500
v 0.008186 -0.005750 -0.014500
v 0.004495 -0.008935 -0.011993
v 0.004361 -0.009001 -0.011613
v 0.004264 -0.009047 -0.011191
v 0.004207 -0.009074 -0.010358
v -0.004944 0.008696 0.014500
v -0.006184 0.008899 0.011021
v -0.006133 0.008917 0.011025
v -0.008836 0.004687 0.008615
v -0.008469 0.005321 0.007832
v -0.008019 0.005271 -0.015000
v -0.006133 0.008955 0.010646
v -0.006854 0.006717 -0.015000
v -0.009050 0.004259 0.009839
v -0.009008 0.004348 0.009436
v -0.000910 0.009958 -0.006000
v 0.003548 0.009351 -0.005000
v 0.004631 0.008865 -0.014500
v 0.005107 0.008132 -0.015000
v 0.005252 0.008510 0.004500
v 0.006451 0.007644 -0.011979
v 0.006519 0.007586 -0.009287
v 0.005898 0.008078 -0.011548
v -0.002679 -0.009633 -0.005000
v -0.008019 -0.005271 -0.015000
v -0.006019 -0.007985 0.004500
v -0.006562 -0.007542 0.006000
v -0.006735 -0.007392 0.004500
v -0.006882 -0.007251 -0.006000
v -0.007251 -0.006882 0.006000
v -0.007251 -0.006882 0.014500
v -0.008992 -0.004371 0.005000
v -0.008901 -0.004554 0.006000
v -0.009294 -0.003685 0.006000
v 0.006719 0.007410 -0.011760
v 0.006621 0.007498 0.011589
v 0.006662 0.007462 0.009195
v 0.006699 0.007428 0.011831
v 0.006732 0.007399 0.011852
v 0.006705 0.007424 0.009274
v 0.007012 0.007134 0.009013
v 0.006803 0.007333 -0.008958
v 0.006790 0.007345 0.009432
v 0.008186 0.005750 -0.014500
v 0.007792 0.006274 -0.011429
v 0.007868 0.006177 -0.010877
v 0.009266 0.003765 0.006000
v 0.009739 0.002288 -0.006000
v 0.009811 0.001939 0.006000
v 0.009596 -0.000400 -0.015000
v 0.009913 0.001350 -0.014500
v 0.009996 -0.000400 -0.006000
v 0.009476 -0.003206 -0.014500
v 0.008798 -0.006184 -0.010904
v 0.009339 -0.002239 -0.015000
v 0.009836 -0.001797 -0.004500
v 0.008820 -0.006184 -0.010365
v 0.008838 -0.006133 -0.010646
v 0.009476 0.003206 -0.006000
v 0.009582 0.002865 0.006000
v 0.008992 0.004379 -0.004500
v 0.008384 0.005455 0.014500
v 0.008962 0.003446 0.015000
v 0.004977 -0.008676 -0.008189
v 0.008745 -0.006184 -0.011214
v 0.005107 -0.008132 -0.015000
v 0.008306 -0.004820 -0.015000
v 0.008663 -0.006230 -0.011415
v 0.004348 -0.009008 -0.009436
v 0.004476 -0.008944 -0.009053
v 0.004259 -0.009050 -0.009839
v 0.004213 -0.009071 -0.010761
v 0.003765 -0.009266 -0.006000
v -0.006230 0.008909 0.010643
v -0.008818 0.004721 0.012444
v -0.008492 0.004470 -0.015000
v 0.004631 0.008865 -0.006000
v 0.004379 0.008992 -0.005000
v 0.006503 0.007601 0.006000
v 0.006361 0.007720 -0.011781
v 0.006177 0.007868 0.010877
v 0.006156 0.007884 0.010048
v 0.006036 0.007976 -0.011708
v 0.005793 0.008154 -0.011138
v 0.005895 0.008080 -0.009456
v 0.006146 0.007893 0.010366
v -0.008492 -0.004470 -0.015000
v -0.006019 -0.007985 -0.004500
v -0.006160 -0.007874 -0.006000
v -0.006735 -0.007392 -0.004500
v -0.009088 -0.004164 -0.006000
v 0.006707 0.007421 -0.008962
v 0.006765 0.007369 0.011872
v 0.007024 0.007122 -0.012017
v 0.006983 0.007162 0.009023
v 0.006980 0.007166 -0.009255
v 0.006957 0.007187 -0.012031
v 0.006953 0.007191 0.009035
v 0.006837 0.007302 0.009399
v 0.007826 0.006229 0.014500
v 0.007545 0.006567 0.012014
v 0.007845 0.006206 0.011520
v 0.007644 0.006451 0.011979
v 0.007720 0.006361 0.011781
v 0.007710 0.006373 -0.011548
v 0.007671 0.006420 -0.009849
v 0.007886 0.006154 -0.010623
v 0.007893 0.006146 -0.010366
v 0.007884 0.006156 -0.010048
v 0.009633 0.002688 0.005000
v 0.009596 0.000400 -0.015000
v 0.009996 -0.000400 -0.014500
v 0.009959 0.000909 -0.004500
v 0.009836 -0.001797 0.005000
v 0.008816 -0.006133 -0.010908
v 0.008865 0.004631 0.006000
v 0.008992 0.004379 0.005000
v 0.008384 0.005455 0.006000
v 0.008510 0.005252 0.004500
v 0.008186 0.005750 -0.006000
v 0.008154 0.005793 0.011138
v 0.008587 0.004296 0.015000
v 0.008820 -0.006184 -0.010645
v 0.008791 -0.006230 -0.010643
v 0.004721 -0.008818 -0.012444
v 0.004687 -0.008836 -0.008615
v 0.008754 -0.006268 -0.010369
v 0.005455 -0.008384 -0.006000
v 0.008753 -0.006268 -0.010640
v 0.008733 -0.006268 -0.010892
v 0.004296 -0.008587 -0.015000
v 0.005869 -0.007600 -0.015000
v 0.008718 -0.006230 -0.011205
v 0.004379 -0.008992 -0.005000
v -0.006268 0.008871 0.010640
v 0.006466 0.007633 0.009775
v 0.006275 0.007789 -0.011578
v 0.006420 0.007671 0.009849
v 0.006154 0.007886 0.010623
v 0.006125 0.007908 -0.009562
v 0.006191 0.007856 -0.009333
v 0.005841 0.008120 -0.011346
v -0.008884 -0.003628 -0.015000
v 0.006747 0.007385 0.009353
v 0.006991 0.007154 -0.012025
v 0.007105 0.007041 -0.009003
v 0.007339 0.006797 -0.011891
v 0.007560 0.006551 -0.011341
v 0.007498 0.006621 -0.011589
v 0.007789 0.006275 0.011578
v 0.008078 0.005898 0.011548
v 0.007976 0.006036 0.011708
v 0.007908 0.006125 0.009562
v 0.007586 0.006519 0.009287
v 0.007633 0.006466 -0.009775
v 0.007710 0.006372 0.009055
v 0.010000 0.000004 -0.004500
v 0.009959 -0.000900 0.005000
v 0.009959 0.000909 0.005000
v 0.009951 0.000995 0.006000
v 0.009128 0.004094 -0.006000
v 0.005321 -0.008469 -0.007832
v 0.006577 -0.006997 -0.015000
v 0.008770 -0.006230 -0.010899
v -0.006268 0.008834 0.011005
v 0.006496 0.007607 0.011270
v 0.006372 0.007710 -0.009055
v 0.006206 0.007845 -0.011520
v 0.006067 0.007952 -0.009634
v -0.009193 -0.002751 -0.015000
v 0.007369 0.006765 -0.011872
v 0.007345 0.006790 -0.009432
v 0.007356 0.006778 0.011764
v 0.007399 0.006732 -0.011852
v 0.007410 0.006719 0.011760
v 0.007333 0.006803 0.008958
v 0.007302 0.006837 -0.009399
v 0.008120 0.005841 0.011346
v 0.007952 0.006067 0.009634
v 0.007856 0.006191 0.009333
v 0.007601 0.006503 -0.006000
v 0.010000 0.000004 0.005000
v 0.010000 0.000043 0.006000
v 0.009959 -0.000900 -0.004500
v 0.009266 0.003765 0.014500
v -0.006230 0.008871 0.011014
v 0.007216 0.006928 -0.011655
v 0.007154 0.006991 0.012025
v 0.007166 0.006980 0.009255
v 0.007162 0.006983 -0.009023
v 0.007385 0.006747 -0.009353
v 0.007462 0.006662 -0.009195
v 0.007220 0.006924 0.012036
v 0.008080 0.005895 0.009456
v 0.007592 0.006514 -0.009516
v 0.007607 0.006496 -0.011270
v 0.009958 -0.000910 0.006000
v 0.007164 0.006981 -0.011682
v 0.007187 0.006957 0.012031
v 0.007421 0.006707 0.008962
v 0.007428 0.006699 -0.011831
v 0.007424 0.006705 -0.009274
v 0.007249 0.006893 -0.009215
v 0.007134 0.007012 -0.009013
v 0.007191 0.006953 -0.009035
f 1 2 3
f 4 3 2
f 5 6 7
f 8 7 6
f 9 2 1
f 10 9 1
f 11 1 3
f 12 4 2
f 13 4 12
f 14 5 7
f 15 3 4
f 16 3 15
f 16 17 3
f 18 2 9
f 19 10 1
f 20 9 10
f 20 21 9
f 22 11 3
f 23 4 13
f 23 24 4
f 25 13 12
f 26 27 28
f 29 8 6
f 29 6 5
f 30 14 7
f 31 32 33
f 34 7 8
f 35 15 4
f 36 16 15
f 37 17 16
f 38 39 40
f 41 9 21
f 42 18 9
f 43 19 1
f 44 45 46
f 44 46 47
f 48 11 22
f 49 22 3
f 50 12 2
f 51 23 13
f 51 13 28
f 51 24 23
f 52 25 12
f 52 12 53
f 54 55 25
f 56 7 34
f 57 58 59
f 60 61 62
f 60 62 2
f 60 2 18
f 63 5 14
f 64 3 17
f 65 8 29
f 66 29 5
f 67 68 29
f 67 69 70
f 71 47 46
f 72 14 30
f 72 57 59
f 73 24 31
f 73 31 33
f 74 32 31
f 74 31 24
f 74 24 32
f 75 76 77
f 75 34 8
f 78 4 24
f 78 24 73
f 79 35 4
f 80 36 15
f 81 16 36
f 82 41 21
f 83 84 18
f 85 86 42
f 85 42 9
f 85 9 41
f 85 41 86
f 87 43 1
f 87 1 88
f 89 44 47
f 89 47 71
f 90 49 46
f 90 91 92
f 93 22 49
f 93 94 95
f 93 95 22
f 96 50 2
f 97 12 50
f 98 32 24
f 99 28 100
f 99 100 101
f 102 13 25
f 102 100 28
f 102 28 13
f 103 54 25
f 103 25 52
f 104 30 7
f 105 55 106
f 107 101 100
f 108 101 107
f 108 56 26
f 109 28 27
f 109 27 26
f 110 32 98
f 111 56 34
f 112 57 113
f 114 115 113
f 114 113 57
f 114 30 115
f 116 117 14
f 118 119 61
f 120 61 119
f 120 119 118
f 121 122 2
f 121 2 62
f 123 61 60
f 123 60 18
f 123 18 84
f 123 84 61
f 124 63 14
f 125 64 17
f 126 65 29
f 127 65 126
f 127 128 129
f 130 8 65
f 131 68 67
f 131 64 125
f 132 64 131
f 132 70 64
f 133 71 70
f 133 70 69
f 134 49 3
f 134 71 46
f 134 46 49
f 135 57 72
f 135 72 30
f 135 30 114
f 135 114 57
f 136 137 138
f 139 36 140
f 139 140 141
f 139 40 39
f 142 141 140
f 143 15 35
f 143 35 144
f 143 145 15
f 146 75 8
f 147 148 79
f 149 34 75
f 150 33 78
f 150 78 73
f 150 73 33
f 151 76 147
f 151 147 79
f 151 79 4
f 152 80 15
f 152 15 145
f 153 81 154
f 153 129 128
f 155 68 17
f 156 37 157
f 156 155 17
f 156 17 37
f 158 83 18
f 158 18 42
f 159 83 158
f 159 158 42
f 159 42 86
f 160 84 83
f 161 83 159
f 162 43 163
f 162 19 43
f 164 19 162
f 164 162 163
f 165 66 5
f 166 5 63
f 167 168 89
f 167 89 71
f 167 71 168
f 169 44 89
f 169 89 168
f 169 45 44
f 170 11 48
f 171 22 95
f 172 22 171
f 172 171 173
f 172 48 22
f 174 90 46
f 174 46 45
f 175 91 90
f 175 90 176
f 177 93 49
f 177 49 90
f 177 90 92
f 178 94 92
f 179 29 66
f 180 50 96
f 180 181 50
f 182 97 50
f 183 12 97
f 183 97 184
f 185 53 12
f 185 12 183
f 185 183 184
f 186 53 185
f 186 185 184
f 187 182 50
f 187 50 181
f 188 26 99
f 188 99 101
f 188 101 108
f 188 108 26
f 189 28 99
f 189 99 26
f 189 26 28
f 190 55 100
f 190 100 102
f 190 102 25
f 190 25 55
f 191 53 192
f 191 54 103
f 191 103 52
f 191 52 53
f 193 55 54
f 194 195 196
f 194 196 197
f 194 54 195
f 198 195 199
f 198 196 195
f 200 30 104
f 200 115 30
f 201 202 104
f 201 104 7
f 203 115 200
f 203 200 104
f 203 104 202
f 204 205 202
f 204 202 201
f 204 201 7
f 206 105 106
f 207 208 206
f 207 206 106
f 207 106 196
f 207 196 108
f 207 108 107
f 209 51 28
f 209 28 109
f 209 109 210
f 209 210 51
f 211 110 51
f 211 51 210
f 212 51 110
f 212 110 98
f 212 98 24
f 212 24 51
f 213 33 32
f 213 32 111
f 213 111 34
f 214 56 111
f 214 26 56
f 215 26 214
f 215 214 111
f 215 111 32
f 215 32 110
f 215 110 211
f 215 211 210
f 215 210 109
f 215 109 26
f 216 72 59
f 216 59 116
f 216 116 14
f 216 14 72
f 217 116 59
f 217 122 218
f 217 218 116
f 219 112 113
f 219 181 180
f 219 180 96
f 219 57 112
f 220 122 217
f 221 2 122
f 221 96 2
f 222 84 223
f 222 223 118
f 222 118 61
f 222 61 84
f 224 62 61
f 225 62 224
f 225 120 117
f 225 117 62
f 226 121 62
f 227 116 121
f 227 121 226
f 227 117 116
f 228 122 121
f 228 116 218
f 228 218 122
f 229 63 124
f 229 124 230
f 231 124 14
f 232 86 233
f 234 68 125
f 234 125 17
f 234 17 68
f 235 126 29
f 235 29 68
f 236 65 127
f 236 237 154
f 236 38 40
f 238 68 155
f 238 156 157
f 238 157 37
f 238 127 126
f 238 126 235
f 238 235 68
f 239 8 130
f 240 241 130
f 240 141 142
f 240 142 140
f 242 130 65
f 242 65 236
f 242 236 40
f 243 68 131
f 243 131 125
f 243 125 68
f 244 67 132
f 244 132 131
f 244 131 67
f 245 70 132
f 245 132 67
f 245 67 70
f 246 71 133
f 246 133 168
f 246 168 71
f 247 168 133
f 247 133 69
f 247 69 67
f 247 67 168
f 248 70 71
f 248 71 134
f 248 134 3
f 249 138 250
f 251 145 136
f 251 136 138
f 251 138 145
f 252 140 36
f 252 36 80
f 253 154 139
f 253 139 39
f 253 39 38
f 253 38 154
f 254 40 139
f 254 139 141
f 255 81 36
f 255 36 139
f 255 139 154
f 255 154 81
f 256 257 148
f 258 35 79
f 258 257 144
f 258 144 35
f 259 137 143
f 260 136 145
f 260 145 143
f 260 137 136
f 261 259 143
f 261 143 144
f 262 146 263
f 264 147 76
f 264 76 75
f 265 264 75
f 265 75 146
f 266 147 146
f 266 146 262
f 267 77 76
f 267 149 75
f 267 75 77
f 268 149 267
f 268 76 78
f 269 33 149
f 269 149 268
f 270 78 76
f 270 76 151
f 270 151 4
f 270 4 78
f 271 16 81
f 271 81 153
f 271 153 37
f 271 37 16
f 272 37 153
f 272 153 128
f 272 128 127
f 273 153 154
f 273 154 237
f 273 237 236
f 273 129 153
f 274 230 160
f 274 160 83
f 274 83 230
f 275 83 161
f 275 230 83
f 276 10 19
f 277 165 5
f 278 66 165
f 279 280 163
f 279 163 43
f 279 43 87
f 279 87 88
f 281 282 88
f 283 5 166
f 283 284 285
f 283 285 5
f 286 287 288
f 286 288 166
f 286 166 63
f 289 29 179
f 289 290 176
f 291 29 289
f 291 169 168
f 292 293 11
f 292 11 170
f 292 170 294
f 292 294 293
f 295 294 170
f 296 297 48
f 298 90 174
f 298 174 176
f 298 176 90
f 299 169 176
f 299 176 174
f 299 174 45
f 299 45 169
f 300 94 93
f 300 93 177
f 300 177 92
f 300 92 94
f 301 94 178
f 302 176 290
f 302 290 91
f 302 91 175
f 302 175 176
f 303 186 184
f 304 186 303
f 304 303 305
f 304 192 53
f 304 53 186
f 306 197 196
f 307 197 306
f 307 306 193
f 307 193 54
f 307 54 194
f 308 7 56
f 308 198 199
f 309 310 113
f 309 113 115
f 309 115 203
f 309 203 202
f 309 202 205
f 311 205 204
f 311 204 7
f 311 199 195
f 311 195 205
f 312 100 313
f 312 107 100
f 314 105 206
f 314 206 208
f 314 208 207
f 314 313 100
f 314 100 55
f 314 55 105
f 315 33 213
f 315 213 34
f 315 34 149
f 315 149 33
f 316 57 317
f 316 317 58
f 316 58 57
f 318 122 220
f 318 59 58
f 318 58 317
f 318 317 219
f 318 219 96
f 318 96 221
f 318 221 122
f 319 57 219
f 319 219 317
f 319 317 57
f 320 59 220
f 320 220 217
f 320 217 59
f 321 223 84
f 321 84 160
f 322 120 118
f 322 118 223
f 322 223 321
f 322 230 124
f 322 124 231
f 322 231 120
f 323 120 224
f 323 224 61
f 323 61 120
f 324 120 225
f 324 225 224
f 324 224 120
f 325 117 226
f 325 226 62
f 325 62 117
f 326 117 227
f 326 227 226
f 326 226 117
f 327 116 228
f 327 228 121
f 327 121 116
f 328 329 63
f 328 232 233
f 330 120 231
f 330 231 14
f 330 14 117
f 330 117 120
f 331 232 328
f 331 332 159
f 333 41 334
f 333 86 41
f 335 129 273
f 335 273 236
f 335 236 127
f 335 127 129
f 336 38 236
f 336 236 154
f 336 154 38
f 337 156 238
f 337 238 155
f 337 155 156
f 338 238 37
f 338 37 272
f 339 8 239
f 339 239 138
f 339 138 137
f 340 138 239
f 340 250 138
f 341 241 340
f 341 340 239
f 341 239 130
f 341 130 241
f 342 240 140
f 343 130 242
f 343 242 40
f 343 40 240
f 343 240 130
f 344 70 248
f 344 248 3
f 344 3 64
f 344 64 70
f 345 138 249
f 345 249 145
f 345 145 138
f 346 140 252
f 346 252 80
f 347 240 40
f 347 40 254
f 347 254 141
f 347 141 240
f 348 349 350
f 351 263 256
f 351 256 148
f 351 148 263
f 352 257 256
f 352 256 263
f 352 263 349
f 353 148 257
f 353 257 258
f 353 258 79
f 353 79 148
f 354 137 260
f 354 260 143
f 354 143 137
f 355 137 259
f 355 259 261
f 355 261 350
f 355 350 137
f 356 350 261
f 356 261 144
f 356 144 350
f 357 148 262
f 357 262 263
f 357 263 148
f 358 147 265
f 358 265 146
f 358 146 147
f 359 264 265
f 359 265 147
f 359 147 264
f 360 147 266
f 360 266 262
f 360 262 148
f 360 148 147
f 361 76 268
f 361 268 267
f 361 267 76
f 362 33 269
f 362 269 78
f 362 78 33
f 363 78 269
f 363 269 268
f 363 268 78
f 364 365 41
f 366 287 329
f 367 368 369
f 367 369 21
f 370 82 21
f 370 21 369
f 371 372 370
f 371 370 287
f 371 287 373
f 374 375 284
f 376 19 164
f 377 164 378
f 379 377 378
f 379 378 164
f 379 164 163
f 380 280 279
f 381 382 277
f 381 277 5
f 383 384 385
f 383 165 282
f 386 66 278
f 386 278 387
f 388 383 385
f 388 293 294
f 389 293 388
f 389 388 385
f 389 385 384
f 389 281 88
f 389 88 1
f 389 1 11
f 389 11 293
f 390 382 381
f 390 381 5
f 390 5 285
f 390 285 391
f 390 391 392
f 390 393 382
f 394 284 375
f 395 284 283
f 395 283 166
f 396 287 286
f 396 286 63
f 396 63 329
f 396 329 287
f 397 29 291
f 397 291 168
f 397 168 67
f 397 67 29
f 398 176 169
f 398 169 291
f 398 291 289
f 398 289 176
f 399 48 297
f 399 297 295
f 399 295 170
f 399 170 48
f 400 297 296
f 400 296 173
f 401 172 173
f 401 173 296
f 401 296 48
f 401 48 172
f 402 95 94
f 403 404 405
f 406 407 408
f 406 408 409
f 410 386 387
f 411 405 179
f 411 179 66
f 411 66 412
f 413 409 301
f 414 409 413
f 414 415 290
f 414 290 409
f 416 178 92
f 417 187 305
f 417 305 303
f 417 303 184
f 417 184 97
f 417 97 182
f 417 182 187
f 418 304 305
f 418 305 187
f 418 187 181
f 418 181 419
f 418 419 310
f 420 106 55
f 420 306 196
f 420 196 106
f 421 197 307
f 421 307 194
f 421 194 197
f 422 196 198
f 422 198 308
f 422 308 56
f 423 310 419
f 423 419 181
f 423 181 219
f 423 219 113
f 423 113 310
f 424 308 199
f 424 199 311
f 424 311 7
f 424 7 308
f 425 207 107
f 425 107 312
f 425 312 313
f 425 313 207
f 426 313 314
f 426 314 207
f 426 207 313
f 427 59 318
f 427 318 220
f 427 220 59
f 428 230 322
f 428 322 321
f 428 321 160
f 428 160 230
f 429 159 332
f 429 332 331
f 429 331 328
f 429 229 230
f 430 229 429
f 430 429 328
f 430 328 63
f 430 63 229
f 431 232 331
f 431 331 159
f 431 159 86
f 431 86 232
f 432 433 366
f 432 366 329
f 434 329 328
f 435 238 338
f 435 338 272
f 435 272 127
f 435 127 238
f 436 8 339
f 436 339 137
f 436 137 350
f 437 140 346
f 437 342 140
f 438 241 346
f 439 440 340
f 439 438 346
f 441 249 250
f 441 250 340
f 441 340 440
f 442 145 249
f 442 249 441
f 442 441 440
f 442 440 439
f 442 439 346
f 442 346 80
f 442 80 152
f 442 152 145
f 443 349 348
f 443 348 144
f 443 144 257
f 444 144 348
f 444 348 350
f 444 350 144
f 445 257 352
f 445 352 349
f 445 349 257
f 446 373 287
f 446 287 366
f 447 448 366
f 447 366 364
f 447 364 41
f 447 41 449
f 447 449 448
f 450 446 451
f 450 451 448
f 450 448 449
f 450 449 41
f 452 369 368
f 453 371 373
f 453 373 454
f 453 454 82
f 455 374 284
f 455 284 395
f 455 395 166
f 455 166 288
f 455 288 456
f 455 456 457
f 458 392 391
f 458 391 285
f 459 382 393
f 459 164 382
f 460 164 377
f 460 377 382
f 460 382 164
f 461 165 277
f 461 282 165
f 462 382 377
f 462 377 379
f 462 379 163
f 462 277 382
f 463 279 88
f 464 387 278
f 464 465 387
f 466 165 383
f 466 383 464
f 466 464 278
f 466 278 165
f 467 384 383
f 467 383 282
f 467 282 281
f 467 389 384
f 468 295 297
f 468 297 400
f 468 388 294
f 468 294 295
f 469 383 388
f 469 388 468
f 469 464 383
f 470 376 390
f 470 390 392
f 470 392 376
f 471 393 390
f 471 390 376
f 471 376 393
f 472 285 284
f 473 10 276
f 473 276 394
f 474 19 376
f 474 276 19
f 475 402 94
f 475 408 407
f 475 407 402
f 476 412 410
f 476 410 387
f 476 387 465
f 477 289 179
f 477 406 409
f 478 66 386
f 478 386 410
f 478 410 412
f 478 412 66
f 479 405 411
f 479 411 412
f 480 415 414
f 480 414 178
f 480 178 415
f 481 414 413
f 481 413 301
f 481 301 178
f 482 178 416
f 482 415 178
f 483 415 482
f 483 482 416
f 483 416 290
f 483 290 415
f 484 290 416
f 484 416 92
f 484 92 91
f 484 91 290
f 485 205 195
f 485 418 310
f 485 310 309
f 485 309 205
f 486 193 306
f 486 306 420
f 486 420 55
f 486 55 193
f 487 196 422
f 487 422 56
f 487 56 108
f 487 108 196
f 488 159 429
f 488 429 161
f 488 161 159
f 489 275 161
f 489 161 429
f 489 429 230
f 489 230 275
f 490 433 432
f 490 41 365
f 490 365 364
f 490 364 366
f 490 366 433
f 491 432 329
f 492 333 493
f 492 86 333
f 494 329 434
f 495 328 233
f 496 86 497
f 496 497 494
f 496 494 434
f 496 233 86
f 498 8 436
f 498 436 350
f 498 350 349
f 499 342 437
f 499 437 241
f 499 241 240
f 499 240 342
f 500 241 437
f 500 437 346
f 500 346 241
f 501 241 438
f 501 438 439
f 501 439 340
f 501 340 241
f 502 349 443
f 502 443 257
f 502 257 349
f 503 448 451
f 503 451 446
f 503 446 366
f 503 366 448
f 504 454 373
f 504 450 41
f 504 41 82
f 504 82 454
f 505 452 368
f 506 369 452
f 506 507 508
f 509 370 369
f 509 369 506
f 509 506 508
f 509 508 287
f 509 287 370
f 510 371 453
f 510 453 82
f 510 82 370
f 510 370 372
f 510 372 371
f 511 512 21
f 511 21 20
f 511 20 10
f 511 10 473
f 511 513 456
f 514 512 511
f 514 511 515
f 516 288 517
f 516 517 456
f 516 456 288
f 518 519 455
f 518 455 457
f 520 519 518
f 520 518 457
f 520 457 456
f 520 456 513
f 521 376 164
f 521 164 459
f 521 459 393
f 521 393 376
f 522 380 461
f 522 461 277
f 522 277 462
f 522 462 380
f 523 282 461
f 523 461 380
f 524 380 462
f 524 280 380
f 525 389 467
f 525 467 281
f 525 281 389
f 526 464 469
f 526 469 465
f 526 465 464
f 527 394 472
f 527 472 284
f 527 284 394
f 528 285 472
f 528 472 394
f 529 455 473
f 529 473 374
f 529 374 455
f 530 375 374
f 530 374 473
f 530 473 394
f 530 394 375
f 531 532 473
f 531 473 455
f 533 276 474
f 533 394 276
f 534 469 468
f 534 468 400
f 534 400 535
f 534 535 465
f 534 465 469
f 536 408 475
f 536 409 408
f 537 301 409
f 537 409 536
f 537 536 475
f 537 475 94
f 537 94 301
f 538 400 173
f 538 173 171
f 538 171 95
f 538 95 402
f 538 402 539
f 538 539 406
f 538 406 540
f 538 540 535
f 538 535 400
f 541 535 540
f 541 540 406
f 541 406 404
f 541 404 403
f 542 289 477
f 542 477 409
f 542 409 290
f 542 290 289
f 543 404 406
f 543 406 477
f 543 477 179
f 544 403 405
f 544 405 479
f 544 479 412
f 544 412 476
f 545 414 481
f 545 481 178
f 545 178 414
f 546 195 54
f 546 485 195
f 547 490 432
f 548 333 491
f 548 491 329
f 548 329 333
f 549 334 41
f 549 41 547
f 549 547 432
f 549 333 334
f 550 497 86
f 550 86 492
f 550 492 493
f 550 493 497
f 551 329 494
f 551 497 493
f 551 493 552
f 553 434 328
f 553 328 495
f 553 495 233
f 553 233 496
f 553 496 434
f 554 8 498
f 554 498 349
f 554 349 263
f 555 450 504
f 555 504 373
f 555 373 446
f 555 446 450
f 556 452 505
f 556 505 287
f 556 287 508
f 556 508 507
f 556 507 506
f 556 506 452
f 557 505 368
f 557 368 367
f 558 288 287
f 559 288 560
f 559 560 512
f 561 515 511
f 561 511 456
f 561 456 515
f 562 563 511
f 562 511 473
f 564 513 511
f 564 511 563
f 564 519 520
f 565 512 514
f 566 514 517
f 566 517 288
f 567 517 514
f 567 514 515
f 567 515 456
f 567 456 517
f 568 463 523
f 568 523 380
f 569 523 463
f 569 463 88
f 570 280 524
f 570 524 163
f 570 163 280
f 571 163 524
f 571 524 462
f 571 462 163
f 572 285 528
f 572 458 285
f 573 407 406
f 573 406 539
f 573 539 402
f 573 402 407
f 574 405 404
f 574 404 543
f 574 543 179
f 574 179 405
f 575 465 535
f 575 535 541
f 575 541 403
f 575 403 544
f 575 544 476
f 575 476 465
f 576 54 191
f 576 191 192
f 576 485 546
f 576 546 54
f 577 490 547
f 577 547 41
f 577 41 490
f 578 491 333
f 578 333 549
f 578 549 432
f 578 432 491
f 579 329 551
f 579 551 552
f 579 552 493
f 579 493 333
f 579 333 329
f 580 497 551
f 580 551 494
f 580 494 497
f 581 8 554
f 581 554 263
f 581 263 146
f 581 146 8
f 582 288 558
f 582 558 583
f 582 583 584
f 582 585 288
f 586 584 21
f 586 21 512
f 587 584 583
f 587 583 558
f 587 558 588
f 589 562 473
f 589 473 532
f 589 532 531
f 590 519 564
f 590 564 563
f 590 563 519
f 591 513 564
f 591 564 520
f 591 520 513
f 592 565 514
f 592 514 566
f 592 559 512
f 592 512 565
f 593 463 568
f 593 568 279
f 593 279 463
f 594 279 568
f 594 568 380
f 594 380 279
f 595 282 523
f 595 523 569
f 595 569 88
f 596 458 572
f 596 572 528
f 596 528 394
f 596 394 533
f 596 533 474
f 596 474 376
f 596 376 392
f 596 392 458
f 597 304 418
f 597 418 485
f 597 485 576
f 597 576 192
f 597 192 304
f 598 588 558
f 598 558 287
f 599 367 21
f 599 600 601
f 602 585 582
f 602 582 584
f 602 584 586
f 602 586 585
f 603 512 560
f 604 598 21
f 604 21 584
f 604 584 587
f 604 587 588
f 605 455 519
f 605 519 563
f 605 563 562
f 605 562 589
f 605 589 531
f 605 531 455
f 606 559 592
f 606 592 288
f 606 288 559
f 607 288 592
f 607 592 566
f 607 566 288
f 608 282 595
f 608 595 88
f 608 88 282
f 609 505 557
f 609 598 287
f 609 287 505
f 610 601 600
f 610 600 599
f 610 599 21
f 611 512 603
f 611 586 512
f 612 585 603
f 612 603 560
f 612 560 288
f 612 288 585
f 613 586 611
f 613 611 603
f 613 603 585
f 613 585 586
f 614 598 604
f 614 604 588
f 614 588 598
f 615 601 609
f 615 609 557
f 615 557 367
f 615 367 599
f 615 599 601
f 616 598 609
f 616 609 601
f 616 601 610
f 616 610 21
f 616 21 598
