# Convex hull collision mesh — generated by scripts/generate-collision-meshes.mjs
v 31.156855 0.000000 -36.156853
v -28.894745 0.000000 -27.891140
v 31.156855 0.000000 36.156853
v -31.156855 0.000000 36.156853
v -27.060722 0.000000 -38.346283
v 33.500000 0.000000 30.500000
v 33.500000 -3.000000 -30.500000
v 33.500000 -3.000000 30.500000
v 26.250000 -70.400002 0.000000
v -33.500000 0.000000 -30.500000
v 25.500000 0.000000 38.500000
v 33.346283 0.000000 32.060722
v 33.500000 0.000000 -30.500000
v -25.500000 -3.000000 38.500000
v 25.500000 -3.000000 38.500000
v 32.891037 0.000000 -33.561466
v 28.561468 0.000000 -37.891037
v -25.500000 0.000000 38.500000
v 28.561468 0.000000 37.891037
v 26.250000 -70.239540 1.424134
v 26.250000 -69.766197 2.776856
v 15.918340 -96.411903 4.965321
v 26.250000 -69.003723 3.990335
v 32.891037 -3.000000 -33.561466
v 32.151756 -3.000000 -34.944561
v 26.250000 -67.990334 -5.003722
v 15.918340 -84.269447 -25.774702
v 33.346283 0.000000 -32.060722
v 32.151756 0.000000 -34.944561
v 25.500000 0.000000 -38.500000
v 25.500000 -3.000000 -38.500000
v -25.500000 -3.000000 -38.500000
v 1.114365 -64.000000 -37.237579
v 10.162473 -70.588219 -35.601898
v 6.814493 -74.121269 -35.363571
v 6.814493 -70.693230 -36.169365
v 6.814493 -67.305153 -36.634659
v 10.162473 -67.253304 -36.059891
v 3.419210 -70.756828 -36.513031
v 0.000000 -74.249641 -35.812111
v 0.000000 -70.778122 -36.628124
v -32.891037 0.000000 33.561466
v -30.750000 -67.474480 0.421878
v -30.750000 -67.272560 1.241117
v -33.500000 -3.000000 30.500000
v -30.750000 -67.474480 -0.421878
v -31.156855 0.000000 -36.156853
v -32.891037 -3.000000 -33.561466
v -30.750000 -65.626534 -3.099096
v -33.346283 -3.000000 -32.060722
v -32.151756 -3.000000 -34.944561
v -15.287742 -79.650558 -30.357851
v -27.060722 0.000000 38.346283
v 0.000000 -81.108727 33.088581
v 0.000000 -77.711525 34.634613
v -3.419210 -77.668442 34.525784
v -33.346283 -3.000000 32.060722
v -30.750000 -66.320930 2.619788
v -30.750000 -65.626534 3.099096
v -15.287742 -74.224640 32.588280
v -14.142876 -74.516281 33.517818
v -14.142876 -71.071388 34.409763
v 29.944561 -3.000000 37.151756
v 31.156855 -3.000000 36.156853
v 28.561468 -3.000000 37.891037
v 27.060722 0.000000 38.346283
v 27.060722 -3.000000 38.346283
v 6.814493 -67.305153 36.634659
v 10.162473 -67.253304 36.059891
v 13.440860 -67.365891 35.249222
v 15.918340 -96.747940 1.660788
v 15.287742 -97.760780 5.171961
v 15.918340 -94.748917 11.388148
v 15.918340 -91.827065 17.344744
v 15.918340 -92.396996 16.395012
v 26.250000 -70.239540 -1.424134
v 26.250000 -69.766197 -2.776856
v 15.918340 -96.456268 -4.666507
v 15.287742 -97.191872 -8.052260
v 15.918340 -95.865723 -7.730542
v 33.346283 -3.000000 -32.060722
v 26.250000 -69.003723 -3.990335
v 15.918340 -88.781052 -21.472900
v 15.918340 -89.929558 -20.070971
v 27.060722 0.000000 -38.346283
v 28.561468 -3.000000 -37.891037
v -25.500000 0.000000 -38.500000
v 29.944561 0.000000 -37.151756
v 13.440860 -67.365891 -35.249222
v 31.156855 -3.000000 -36.156853
v 15.287742 -74.224640 -32.588280
v -2.549572 -64.000000 -37.184956
v 0.000000 -67.347076 -37.099319
v -3.419210 -70.756828 -36.513031
v -3.419210 -74.217438 -35.699581
v -6.814493 -74.121269 -35.363571
v 3.419210 -74.217438 -35.699581
v 6.814493 -77.539795 -34.200821
v 3.419210 -67.336563 -36.982746
v 6.814493 -90.009827 26.009827
v 3.419210 -90.256966 26.256964
v 6.814493 -92.556946 23.184540
v 0.000000 -90.339729 26.339727
v 0.000000 -92.919159 23.478605
v 0.000000 -87.478607 28.919157
v 3.419210 -92.828285 23.404831
v -33.500000 0.000000 30.500000
v -32.151756 0.000000 34.944561
v -31.156855 -3.000000 36.156853
v -30.750000 -66.320930 -2.619788
v -33.346283 0.000000 -32.060722
v -15.287742 -76.693993 -31.708069
v -15.287742 -73.622475 -32.771133
v -6.814493 -77.539795 -34.200821
v -15.287742 -83.511459 -28.032877
v -28.561468 -3.000000 37.891037
v -14.142876 -67.553925 34.948620
v 3.419210 -77.668442 34.525784
v 6.814493 -77.539795 34.200821
v 10.162473 -77.327362 33.664242
v 6.814493 -74.121269 35.363571
v -30.750000 -66.880440 1.988227
v -15.287742 -70.875275 33.455490
v -32.891037 -3.000000 33.561466
v 14.142876 -70.648178 34.494030
v 29.944561 0.000000 37.151756
v 32.151756 -3.000000 34.944561
v 33.346283 -3.000000 32.060722
v 32.891037 -3.000000 33.561466
v 26.250000 -67.990334 5.003722
v 32.891037 0.000000 33.561466
v 1.114365 -64.000000 37.237579
v -2.549572 -64.000000 37.184956
v 0.000000 -67.347076 37.099319
v 3.419210 -67.336563 36.982746
v 0.000000 -70.778122 36.628124
v 15.287742 -73.622475 32.771133
v 10.162473 -92.108917 22.820795
v 13.440860 -96.209671 14.709663
v 10.162473 -97.664238 13.327366
v 13.440860 -97.462067 11.581333
v 14.142876 -96.942154 12.200436
v 10.162473 -98.808746 9.962475
v 14.142876 -98.007439 8.805136
v 15.287742 -98.110802 1.729904
v 15.287742 -98.115952 -1.625143
v 15.918340 -93.826859 13.621469
v 15.287742 -95.068153 14.188349
v 15.918340 -95.743271 8.218903
v 15.918340 -90.709969 19.020081
v 15.918340 -89.929558 20.070971
v 15.287742 -97.806992 -4.860712
v 14.142876 -98.771294 -4.999357
v 15.918340 -96.752884 -1.560212
v 15.918340 -82.731903 -26.912855
v 15.918340 -81.727623 -27.584724
v 15.287742 -82.465393 -28.732708
v 15.287742 -80.575310 -29.862991
v 27.060722 -3.000000 -38.346283
v 14.142876 -67.553925 -34.948620
v 14.142876 -71.071388 -34.409763
v 13.440860 -70.701302 -34.769665
v 13.440860 -73.976028 -33.975224
v 15.287742 -70.875275 -33.455490
v 29.944561 -3.000000 -37.151756
v 15.287742 -77.469078 -31.386671
v 14.142876 -80.096970 -31.223770
v 14.142876 -77.853271 -32.281933
v -3.419210 -67.336563 -36.982746
v -10.162473 -70.588219 -35.601898
v -10.162473 -73.962471 -34.808746
v 10.162473 -77.327362 -33.664242
v 13.440860 -77.160408 -32.873100
v 6.814493 -80.894440 -32.674152
v 14.142876 -74.516281 -33.517818
v 3.419210 -77.668442 -34.525784
v 10.162473 -73.962471 34.808746
v -3.419210 -74.217438 35.699581
v -3.419210 -90.256966 26.256964
v -3.419210 -95.080116 20.319513
v 0.000000 -95.178085 20.383564
v -13.440860 -94.665581 17.704781
v -13.440860 -92.843773 20.539560
v -14.142876 -93.811897 18.581900
v -33.346283 0.000000 32.060722
v -31.156855 -3.000000 -36.156853
v -28.561468 0.000000 -37.891037
v -28.561468 -3.000000 -37.891037
v -14.142876 -67.339211 -34.969788
v -14.142876 -70.648178 -34.494030
v -13.440860 -67.365891 -35.249222
v -10.162473 -67.253304 -36.059891
v -6.814493 -67.305153 -36.634659
v -27.060722 -3.000000 -38.346283
v -33.500000 -3.000000 -30.500000
v -30.750000 -66.880440 -1.988227
v -32.891037 0.000000 -33.561466
v -14.142876 -77.056076 -32.612503
v -13.440860 -73.976028 -33.975224
v -13.440860 -77.160408 -32.873100
v -14.142876 -80.096970 -31.223770
v -13.440860 -80.225601 -31.473272
v -10.162473 -80.629379 -32.161522
v -10.162473 -77.327362 -33.664242
v -3.419210 -77.668442 -34.525784
v -15.287742 -85.112999 -26.847359
v -14.142876 -84.068001 -28.832479
v -15.287742 -82.465393 -28.732708
v -29.944561 -3.000000 37.151756
v -28.561468 0.000000 37.891037
v 0.000000 -74.249641 35.812111
v -3.419210 -70.756828 36.513031
v 3.419210 -81.054962 32.984608
v 6.814493 -87.184540 28.556950
v -15.287742 -83.511459 28.032877
v -15.287742 -82.465393 28.732708
v -15.287742 -80.575310 29.862991
v 13.440860 -77.160408 32.873100
v 10.162473 -80.629379 32.161522
v 14.142876 -67.339211 34.969788
v 13.440860 -70.701302 34.769665
v 32.151756 0.000000 34.944561
v -13.440860 -67.365891 35.249222
v -13.440860 -73.976028 33.975224
v -13.440860 -77.160408 32.873100
v -10.162473 -77.327362 33.664242
v -6.814493 -74.121269 35.363571
v -6.814493 -70.693230 36.169365
v -10.162473 -70.588219 35.601898
v -10.162473 -67.253304 36.059891
v -3.419210 -67.336563 36.982746
v 3.419210 -70.756828 36.513031
v 15.287742 -79.650558 30.357851
v 14.142876 -73.896942 33.705887
v 15.918340 -82.731903 26.912855
v 15.918340 -81.727623 27.584724
v 15.918340 -84.269447 25.774702
v 15.918340 -86.627708 23.731258
v 14.142876 -84.068001 28.832479
v 14.142876 -82.992096 29.552273
v 13.440860 -83.143852 29.788418
v 6.814493 -94.787582 20.128263
v 10.162473 -96.161522 16.629381
v 6.814493 -96.674149 16.894440
v 3.419210 -100.513031 -6.756825
v 0.000000 -100.628128 -6.778124
v 3.419210 -99.699585 -10.217437
v 6.814493 -100.169365 -6.693229
v 0.000000 -99.812111 -10.249643
v -3.419210 -99.699585 -10.217437
v -3.419210 -98.525787 -13.668444
v 3.419210 -98.525787 -13.668444
v 14.142876 -99.089066 -1.671498
v 14.142876 -98.138626 -8.281941
v 13.440860 -98.411423 -8.348121
v 15.287742 -96.276161 -11.170888
v 3.419210 -100.513031 6.756825
v 3.419210 -99.699585 10.217437
v 0.000000 -100.628128 6.778124
v 3.419210 -100.982750 3.336561
v 6.814493 -98.200821 13.539793
v 13.440860 -98.411423 8.348121
v 14.142876 -99.083763 1.779247
v 13.440860 -99.369453 1.684855
v 15.287742 -97.064323 8.560946
v 15.918340 -93.439034 14.440536
v 15.287742 -85.112999 -26.847359
v 15.918340 -94.986603 -10.724566
v 15.918340 -90.709969 -19.020081
v -3.419210 -90.256966 -26.256964
v -3.419210 -92.828285 -23.404831
v -6.814493 -92.556946 -23.184540
v 0.000000 -92.919159 -23.478605
v 0.000000 -90.339729 -26.339727
v 3.419210 -90.256966 -26.256964
v 6.814493 -87.184540 -28.556950
v 6.814493 -90.009827 -26.009827
v 3.419210 -92.828285 -23.404831
v 6.814493 -84.128265 -30.787582
v 3.419210 -84.319511 -31.080114
v 10.162473 -83.812469 -30.304552
v 15.287742 -79.650558 -30.357851
v -13.440860 -70.701302 -34.769665
v -6.814493 -70.693230 -36.169365
v 0.000000 -87.478607 -28.919157
v -6.814493 -84.128265 -30.787582
v -6.814493 -87.184540 -28.556950
v -10.162473 -83.812469 -30.304552
v 0.000000 -84.383560 -31.178083
v -3.419210 -84.319511 -31.080114
v 0.000000 -81.108727 -33.088581
v 10.162473 -73.962471 -34.808746
v 10.162473 -80.629379 -32.161522
v 3.419210 -81.054962 -32.984608
v 10.162473 -70.588219 35.601898
v -3.419210 -81.054962 32.984608
v -3.419210 -84.319511 31.080114
v 0.000000 -84.383560 31.178083
v -3.419210 -87.404831 28.828287
v -6.814493 -87.184540 28.556950
v -10.162473 -86.820793 28.108915
v -10.162473 -89.601753 25.601755
v -3.419210 -92.828285 23.404831
v -6.814493 -92.556946 23.184540
v -6.814493 -90.009827 26.009827
v -10.162473 -92.108917 22.820795
v -14.142876 -94.422478 17.564426
v -6.814493 -94.787582 20.128263
v -10.162473 -96.161522 16.629381
v -13.440860 -96.209671 14.709663
v -14.142876 -92.615120 20.376734
v -14.142876 -91.779045 21.502581
v -15.287742 -89.812355 22.366531
v -15.287742 -88.755035 23.531414
v -13.440860 -88.435394 25.627104
v -10.162473 -98.808746 9.962475
v -10.162473 -99.601898 6.588218
v -6.814493 -99.363571 10.121268
v -6.814493 -98.200821 13.539793
v -6.814493 -100.169365 6.693229
v -15.287742 -96.276161 11.170888
v -15.287742 -95.068153 14.188349
v -29.944561 -3.000000 -37.151756
v -32.151756 0.000000 -34.944561
v -14.142876 -73.896942 -33.705887
v -14.142876 -82.992096 -29.552273
v -13.440860 -83.143852 -29.788418
v -13.440860 -85.888741 -27.833796
v 0.000000 -77.711525 -34.634613
v -15.287742 -86.247391 -25.915108
v -15.287742 -87.569397 -24.718874
v -29.944561 0.000000 37.151756
v 10.162473 -89.601753 25.601755
v 13.440860 -88.435394 25.627104
v 10.162473 -86.820793 28.108915
v 13.440860 -85.888741 27.833796
v 14.142876 -85.715218 27.613144
v 6.814493 -80.894440 32.674152
v 10.162473 -83.812469 30.304552
v 6.814493 -84.128265 30.787582
v -15.287742 -85.112999 26.847359
v -15.287742 -86.247391 25.915108
v -32.151756 -3.000000 34.944561
v -15.287742 -77.469078 31.386671
v 13.440860 -80.225601 31.473272
v -13.440860 -70.701302 34.769665
v -10.162473 -73.962471 34.808746
v -6.814493 -67.305153 36.634659
v 3.419210 -74.217438 35.699581
v 15.287742 -82.465393 28.732708
v 15.287742 -76.693993 31.708069
v 13.440860 -73.976028 33.975224
v 15.287742 -91.008659 20.906258
v 15.287742 -91.821548 19.811632
v 14.142876 -92.615120 20.376734
v 15.918340 -85.358521 24.879698
v 15.918340 -88.781052 21.472900
v 15.287742 -89.812355 22.366531
v 14.142876 -86.881966 26.654303
v 14.142876 -88.241684 25.423946
v 13.440860 -90.760757 23.188332
v 13.440860 -92.843773 20.539560
v -3.419210 -98.525787 13.668444
v 0.000000 -101.099319 3.347078
v 0.000000 -101.250000 -0.000000
v 3.419210 -95.080116 20.319513
v 10.162473 -94.304550 19.812468
v 3.419210 -100.982750 -3.336561
v 0.000000 -101.099319 -3.347078
v 6.814493 -99.363571 -10.121268
v 0.000000 -98.634613 -13.711528
v -3.419210 -95.080116 -20.319513
v 0.000000 -95.178085 -20.383564
v 10.162473 -100.206352 -0.000000
v 10.162473 -100.059891 3.253301
v 6.814493 -99.363571 10.121268
v 3.419210 -98.525787 13.668444
v 6.814493 -100.169365 6.693229
v 14.142876 -98.723763 5.319484
v 14.142876 -95.954330 14.593053
v 14.142876 -93.811897 18.581900
v 15.287742 -93.578781 17.077318
v 15.287742 -96.028580 11.862084
v 15.287742 -83.511459 -28.032877
v 14.142876 -81.048103 -30.714794
v 15.918340 -93.826859 -13.621469
v 15.918340 -93.439034 -14.440536
v 15.918340 -91.827065 -17.344744
v -6.814493 -90.009827 -26.009827
v -10.162473 -89.601753 -25.601755
v -10.162473 -92.108917 -22.820795
v 3.419210 -87.404831 -28.828287
v -3.419210 -87.404831 -28.828287
v -6.814493 -80.894440 -32.674152
v -10.162473 -86.820793 -28.108915
v -13.440860 -88.435394 -25.627104
v -14.142876 -86.881966 -26.654303
v 6.814493 -70.693230 36.169365
v -6.814493 -80.894440 32.674152
v 3.419210 -84.319511 31.080114
v -10.162473 -80.629379 32.161522
v -13.440860 -80.225601 31.473272
v -13.440860 -83.143852 29.788418
v -15.287742 -94.664185 15.041502
v -15.287742 -92.985138 18.066574
v -15.287742 -91.821548 19.811632
v -6.814493 -96.674149 16.894440
v -10.162473 -94.304550 19.812468
v -15.287742 -91.008659 20.906258
v -14.142876 -89.461143 24.202618
v -13.440860 -98.411423 8.348121
v -10.162473 -97.664238 13.327366
v -15.287742 -98.115952 1.625143
v -15.287742 -97.806992 4.860712
v -14.142876 -98.771294 4.999357
v -13.440860 -99.049141 5.039306
v -15.287742 -97.191872 8.052260
v -14.142876 -95.538841 15.470542
v -29.944561 0.000000 -37.151756
v -14.142876 -81.048103 -30.714794
v -15.287742 -89.812355 -22.366531
v -15.287742 -91.008659 -20.906258
v -13.440860 -92.843773 -20.539560
v -10.162473 -94.304550 -19.812468
v -13.440860 -94.665581 -17.704781
v -10.162473 -96.161522 -16.629381
v -13.440860 -96.209671 -14.709663
v -14.142876 -93.811897 -18.581900
v -15.287742 -91.821548 -19.811632
v -14.142876 -91.779045 -21.502581
v -15.287742 -94.664185 -15.041502
v -15.287742 -93.578781 -17.077318
v -30.750000 -67.272560 -1.241117
v -15.287742 -95.068153 -14.188349
v -15.287742 -96.028580 -11.862084
v -15.287742 -97.064323 -8.560946
v -14.142876 -86.881966 26.654303
v -15.287742 -79.650558 30.357851
v -14.142876 -77.853271 32.281933
v 14.142876 -81.048103 30.714794
v -27.060722 -3.000000 38.346283
v 15.287742 -80.575310 29.862991
v 15.287742 -85.112999 26.847359
v 14.142876 -80.096970 31.223770
v 14.142876 -77.056076 32.612503
v 15.918340 -87.765976 22.591244
v 15.287742 -87.569397 24.718874
v 15.287742 -88.755035 23.531414
v -3.419210 -99.699585 10.217437
v -3.419210 -100.513031 6.756825
v -3.419210 -96.984612 17.054964
v 0.000000 -97.088577 17.108723
v 0.000000 -98.634613 13.711528
v 3.419210 -96.984612 17.054964
v 3.419210 -101.132950 -0.000000
v 6.814493 -100.783447 -0.000000
v 6.814493 -100.634659 -3.305156
v 6.814493 -98.200821 -13.539793
v 10.162473 -97.664238 -13.327366
v 10.162473 -98.808746 -9.962475
v -10.162473 -98.808746 -9.962475
v -13.440860 -98.411423 -8.348121
v -13.440860 -97.462067 -11.581333
v -6.814493 -99.363571 -10.121268
v -6.814493 -98.200821 -13.539793
v -6.814493 -94.787582 -20.128263
v -6.814493 -96.674149 -16.894440
v -3.419210 -96.984612 -17.054964
v 0.000000 -97.088577 -17.108723
v 6.814493 -100.634659 3.305156
v 10.162473 -99.601898 6.588218
v 14.142876 -95.538841 15.470542
v 14.142876 -94.422478 17.564426
v 13.440860 -94.665581 17.704781
v 15.287742 -92.985138 18.066574
v 15.287742 -91.008659 -20.906258
v 15.918340 -85.358521 -24.879698
v 13.440860 -80.225601 -31.473272
v 15.918340 -92.396996 -16.395012
v 10.162473 -86.820793 -28.108915
v 13.440860 -85.888741 -27.833796
v 13.440860 -83.143852 -29.788418
v -3.419210 -81.054962 -32.984608
v -14.142876 -88.241684 -25.423946
v -14.142876 -89.461143 -24.202618
v -14.142876 -85.715218 -27.613144
v -6.814493 -77.539795 34.200821
v 3.419210 -87.404831 28.828287
v -10.162473 -83.812469 30.304552
v -15.287742 -93.578781 17.077318
v -14.142876 -90.548615 23.004507
v -15.287742 -87.569397 24.718874
v -13.440860 -97.462067 11.581333
v -6.814493 -100.634659 3.305156
v -3.419210 -100.982750 -3.336561
v -14.142876 -98.007439 -8.805136
v -14.142876 -98.723763 -5.319484
v -13.440860 -99.049141 -5.039306
v -14.142876 -99.083763 -1.779247
v -15.287742 -98.110802 -1.729904
v -14.142876 -99.089066 1.671498
v -14.142876 -95.954330 14.593053
v -15.287742 -80.575310 -29.862991
v -15.287742 -88.755035 -23.531414
v -14.142876 -96.942154 -12.200436
v -14.142876 -94.422478 -17.564426
v -15.287742 -92.985138 -18.066574
v -13.440860 -90.760757 -23.188332
v -14.142876 -92.615120 -20.376734
v -14.142876 -84.068001 28.832479
v -13.440860 -85.888741 27.833796
v -14.142876 -81.048103 30.714794
v -14.142876 -80.096970 31.223770
v 15.287742 -83.511459 28.032877
v 15.287742 -86.247391 25.915108
v 14.142876 -91.779045 21.502581
v 14.142876 -90.548615 23.004507
v 14.142876 -89.461143 24.202618
v 0.000000 -99.812111 10.249643
v 10.162473 -99.601898 -6.588218
v 3.419210 -95.080116 -20.319513
v 3.419210 -96.984612 -17.054964
v 6.814493 -96.674149 -16.894440
v -10.162473 -97.664238 -13.327366
v -3.419210 -100.513031 -6.756825
v -10.162473 -99.601898 -6.588218
v 13.440860 -99.049141 5.039306
v 15.287742 -94.664185 15.041502
v 14.142876 -86.881966 -26.654303
v 14.142876 -85.715218 -27.613144
v 6.814493 -92.556946 -23.184540
v 10.162473 -92.108917 -22.820795
v 15.287742 -92.985138 -18.066574
v 15.918340 -86.627708 -23.731258
v 14.142876 -82.992096 -29.552273
v -6.814493 -84.128265 30.787582
v -13.440860 -90.760757 23.188332
v -14.142876 -88.241684 25.423946
v -14.142876 -98.138626 8.281941
v -10.162473 -100.059891 3.253301
v -3.419210 -100.982750 3.336561
v -15.287742 -97.760780 -5.171961
v -14.142876 -95.538841 -15.470542
v -14.142876 -90.548615 -23.004507
v -14.142876 -85.715218 27.613144
v -14.142876 -82.992096 29.552273
v 10.162473 -100.059891 -3.253301
v -6.814493 -100.169365 -6.693229
v -6.814493 -100.634659 -3.305156
v 15.287742 -89.812355 -22.366531
v 15.287742 -86.247391 -25.915108
v 15.287742 -87.569397 -24.718874
v 6.814493 -94.787582 -20.128263
v 10.162473 -89.601753 -25.601755
v 10.162473 -96.161522 -16.629381
v 13.440860 -90.760757 -23.188332
v 15.287742 -91.821548 -19.811632
v 15.287742 -93.578781 -17.077318
v 14.142876 -94.422478 -17.564426
v 14.142876 -84.068001 -28.832479
v -14.142876 -97.196793 11.489523
v -10.162473 -100.206352 -0.000000
v -13.440860 -99.369453 1.684855
v -3.419210 -101.132950 -0.000000
v -14.142876 -95.954330 -14.593053
v 13.440860 -99.369453 -1.684855
v 13.440860 -99.049141 -5.039306
v 13.440860 -88.435394 -25.627104
v 10.162473 -94.304550 -19.812468
v 13.440860 -97.462067 -11.581333
v 14.142876 -95.538841 -15.470542
v 14.142876 -92.615120 -20.376734
v 15.287742 -95.068153 -14.188349
v 14.142876 -95.954330 -14.593053
v -13.440860 -99.369453 -1.684855
v -6.814493 -100.783447 -0.000000
v 15.918340 -87.765976 -22.591244
v 15.287742 -88.755035 -23.531414
v 14.142876 -89.461143 -24.202618
v 14.142876 -97.196793 -11.489523
v 13.440860 -96.209671 -14.709663
v 13.440860 -94.665581 -17.704781
v 14.142876 -93.811897 -18.581900
v 15.287742 -94.664185 -15.041502
v -10.162473 -100.059891 -3.253301
v 14.142876 -90.548615 -23.004507
v 14.142876 -88.241684 -25.423946
v 13.440860 -92.843773 -20.539560
v 14.142876 -91.779045 -21.502581
f 1 2 3
f 4 3 2
f 5 2 1
f 6 1 3
f 7 6 8
f 7 8 9
f 10 4 2
f 10 2 5
f 11 3 4
f 12 8 6
f 12 6 3
f 13 6 7
f 13 1 6
f 14 15 11
f 16 1 13
f 17 5 1
f 18 14 11
f 18 11 4
f 19 3 11
f 20 8 21
f 20 22 9
f 20 9 8
f 23 21 8
f 24 25 16
f 24 26 27
f 28 24 16
f 28 16 13
f 28 13 7
f 29 1 16
f 29 16 25
f 29 25 1
f 30 5 17
f 30 31 32
f 33 32 31
f 34 35 36
f 34 36 37
f 34 37 38
f 39 40 41
f 39 36 35
f 42 4 10
f 43 44 45
f 43 45 46
f 47 10 5
f 48 49 50
f 48 51 52
f 53 14 18
f 53 18 4
f 54 55 56
f 57 45 58
f 57 58 59
f 60 61 62
f 63 64 3
f 63 19 65
f 66 65 19
f 66 19 11
f 66 11 15
f 67 68 69
f 67 69 70
f 67 70 65
f 67 65 66
f 67 66 15
f 71 22 72
f 71 9 22
f 73 20 21
f 74 75 21
f 74 21 23
f 76 77 7
f 76 7 9
f 78 79 80
f 78 80 76
f 78 76 9
f 81 24 28
f 81 28 7
f 81 26 24
f 82 26 81
f 82 81 7
f 82 7 77
f 83 82 84
f 85 31 30
f 85 30 17
f 85 17 86
f 87 5 30
f 87 30 32
f 87 32 5
f 88 86 17
f 88 17 1
f 89 34 38
f 90 25 91
f 90 88 1
f 90 1 25
f 92 32 33
f 92 33 93
f 94 41 40
f 94 40 95
f 94 95 96
f 97 40 39
f 97 39 35
f 97 35 98
f 99 93 33
f 99 33 31
f 99 37 36
f 99 36 39
f 99 39 41
f 99 41 93
f 100 101 102
f 103 104 101
f 103 101 105
f 106 101 104
f 106 102 101
f 107 45 57
f 107 42 10
f 107 10 45
f 108 4 42
f 108 109 4
f 110 50 49
f 111 10 47
f 111 48 50
f 111 50 10
f 112 51 113
f 112 52 51
f 114 96 95
f 115 110 49
f 116 62 117
f 118 55 54
f 119 120 121
f 122 58 45
f 122 45 44
f 123 109 60
f 123 60 62
f 123 62 109
f 124 57 59
f 124 108 42
f 124 42 57
f 125 64 63
f 125 63 65
f 126 19 63
f 126 63 3
f 126 3 19
f 127 3 64
f 128 12 129
f 128 129 130
f 128 130 23
f 128 23 8
f 128 8 12
f 131 127 129
f 131 129 12
f 131 12 3
f 132 15 14
f 132 14 133
f 132 133 134
f 135 68 67
f 135 67 15
f 135 15 132
f 135 132 134
f 135 134 136
f 137 127 64
f 138 100 102
f 139 140 141
f 139 141 142
f 143 141 140
f 144 142 141
f 145 146 71
f 145 71 72
f 147 148 73
f 147 73 21
f 149 22 20
f 149 20 73
f 150 74 23
f 150 23 151
f 152 79 78
f 152 78 146
f 152 146 153
f 152 153 79
f 154 71 146
f 154 146 78
f 154 78 9
f 154 9 71
f 155 156 24
f 155 24 27
f 157 24 156
f 157 156 155
f 157 158 24
f 159 31 85
f 159 85 86
f 159 86 89
f 159 89 38
f 159 38 37
f 159 37 99
f 159 99 31
f 160 89 86
f 160 86 161
f 162 34 89
f 162 89 160
f 162 160 161
f 162 161 163
f 164 161 90
f 164 90 91
f 164 91 161
f 165 86 88
f 165 88 90
f 165 90 161
f 165 161 86
f 166 167 168
f 166 168 91
f 166 91 25
f 166 25 24
f 169 32 92
f 169 92 93
f 169 93 41
f 169 41 94
f 170 96 171
f 172 98 35
f 172 163 173
f 172 174 98
f 175 168 173
f 175 173 163
f 175 163 161
f 175 161 91
f 175 91 168
f 176 97 98
f 176 98 174
f 177 121 120
f 178 56 55
f 179 104 103
f 179 103 105
f 180 181 104
f 182 183 184
f 185 42 107
f 185 107 57
f 185 57 42
f 186 51 47
f 186 113 51
f 187 5 188
f 187 47 5
f 189 190 188
f 189 188 191
f 192 193 170
f 192 170 191
f 194 32 169
f 194 169 193
f 194 193 192
f 194 192 191
f 194 191 188
f 194 188 5
f 194 5 32
f 195 50 110
f 195 110 196
f 195 46 45
f 195 45 10
f 195 10 50
f 197 48 111
f 197 111 47
f 197 51 48
f 198 112 113
f 198 199 200
f 198 201 52
f 198 52 112
f 202 201 198
f 202 198 200
f 202 200 203
f 204 200 199
f 204 199 171
f 204 171 96
f 204 96 114
f 204 203 200
f 205 114 95
f 206 110 115
f 206 115 207
f 208 207 115
f 208 115 49
f 209 62 116
f 209 4 109
f 209 109 62
f 210 209 116
f 210 116 53
f 210 53 4
f 211 136 212
f 211 212 178
f 211 178 55
f 213 118 54
f 214 101 100
f 215 216 59
f 215 59 58
f 217 124 59
f 217 59 216
f 218 120 219
f 220 70 221
f 220 221 125
f 220 125 65
f 220 65 70
f 222 127 131
f 222 131 3
f 222 3 127
f 223 116 117
f 224 61 225
f 224 225 226
f 224 62 61
f 227 228 229
f 227 178 212
f 227 212 228
f 230 223 229
f 231 134 133
f 231 133 14
f 231 228 212
f 231 212 136
f 231 136 134
f 232 135 136
f 232 136 211
f 233 129 127
f 234 137 64
f 234 64 125
f 235 129 236
f 237 130 129
f 237 129 235
f 238 23 130
f 239 240 241
f 242 138 102
f 242 102 106
f 243 140 139
f 243 242 244
f 245 246 247
f 245 247 248
f 249 247 246
f 249 246 250
f 249 250 251
f 249 252 247
f 253 153 146
f 253 146 145
f 254 79 153
f 254 153 255
f 254 256 79
f 257 258 259
f 257 259 260
f 261 143 140
f 261 140 243
f 261 243 244
f 262 144 141
f 262 141 143
f 263 264 253
f 263 253 145
f 265 72 22
f 265 22 149
f 265 149 73
f 265 142 144
f 266 148 147
f 266 147 21
f 266 21 75
f 267 155 27
f 268 80 79
f 268 79 256
f 268 77 76
f 268 76 80
f 269 84 82
f 270 271 272
f 273 271 270
f 273 270 274
f 275 276 277
f 275 278 273
f 275 273 274
f 279 280 174
f 279 174 281
f 279 281 276
f 282 167 166
f 282 166 24
f 282 24 158
f 283 199 190
f 283 190 189
f 283 189 191
f 283 191 170
f 283 170 171
f 283 171 199
f 284 94 96
f 284 96 170
f 284 170 193
f 284 193 169
f 284 169 94
f 285 274 270
f 285 275 274
f 286 287 288
f 289 280 285
f 289 285 290
f 289 290 291
f 289 291 280
f 292 163 172
f 292 172 35
f 292 35 34
f 292 34 162
f 292 162 163
f 293 281 174
f 293 174 172
f 293 172 173
f 294 291 176
f 294 176 174
f 294 174 280
f 294 280 291
f 295 69 68
f 295 121 177
f 295 177 221
f 295 221 70
f 295 70 69
f 296 297 54
f 296 54 56
f 298 54 297
f 298 297 105
f 299 105 297
f 299 300 179
f 299 179 105
f 301 302 300
f 303 104 179
f 303 179 304
f 303 180 104
f 305 302 306
f 305 306 304
f 305 304 179
f 305 179 300
f 305 300 302
f 307 182 184
f 308 180 303
f 308 303 304
f 308 304 306
f 309 182 310
f 311 184 183
f 311 183 312
f 313 314 58
f 313 58 122
f 315 302 301
f 316 317 318
f 316 318 319
f 320 318 317
f 321 322 44
f 323 188 190
f 323 190 186
f 323 186 47
f 323 187 188
f 324 51 197
f 324 197 47
f 324 47 51
f 325 190 199
f 325 199 198
f 325 198 113
f 325 113 186
f 325 186 190
f 326 207 208
f 327 288 328
f 327 328 207
f 327 207 326
f 327 202 203
f 327 203 288
f 329 40 97
f 329 97 176
f 329 176 291
f 329 291 205
f 329 205 95
f 329 95 40
f 330 110 206
f 330 331 110
f 332 209 210
f 332 210 4
f 332 4 209
f 333 334 335
f 333 335 214
f 333 214 100
f 333 100 138
f 336 337 239
f 336 239 241
f 336 335 334
f 338 119 118
f 338 118 213
f 338 219 120
f 338 120 119
f 339 241 219
f 339 219 338
f 339 338 340
f 339 340 214
f 339 214 335
f 339 335 336
f 339 336 241
f 341 215 58
f 341 58 342
f 343 60 109
f 343 109 108
f 343 108 124
f 344 60 343
f 344 343 124
f 345 218 219
f 345 219 241
f 346 62 224
f 346 229 223
f 346 223 117
f 346 117 62
f 347 224 226
f 347 226 227
f 347 227 229
f 347 229 346
f 347 346 224
f 348 228 231
f 348 230 229
f 348 229 228
f 349 121 232
f 349 232 211
f 349 211 55
f 349 55 118
f 349 118 119
f 349 119 121
f 350 240 239
f 350 235 236
f 350 236 129
f 351 233 127
f 351 127 137
f 352 221 177
f 352 177 120
f 352 120 218
f 352 234 125
f 352 125 221
f 353 354 150
f 353 150 151
f 353 355 354
f 356 238 130
f 356 130 237
f 357 151 23
f 357 358 353
f 357 353 151
f 359 337 336
f 359 336 334
f 359 334 360
f 361 334 333
f 361 333 138
f 361 138 362
f 363 319 318
f 364 365 260
f 364 260 259
f 366 242 106
f 366 106 104
f 366 104 181
f 367 242 243
f 367 362 138
f 367 138 242
f 368 365 369
f 368 369 246
f 368 246 245
f 368 245 248
f 370 247 252
f 370 248 247
f 371 252 249
f 371 249 251
f 372 271 273
f 372 273 373
f 374 264 375
f 376 143 261
f 376 261 377
f 376 377 258
f 378 376 258
f 378 258 257
f 378 257 260
f 379 263 145
f 379 145 72
f 379 72 265
f 379 265 144
f 379 144 262
f 380 142 148
f 380 139 142
f 381 355 362
f 382 266 75
f 383 148 142
f 383 142 265
f 383 265 73
f 383 73 148
f 384 157 155
f 384 155 267
f 385 167 282
f 385 282 158
f 386 387 77
f 386 77 268
f 388 269 82
f 388 82 77
f 389 390 287
f 389 287 270
f 389 270 272
f 389 272 391
f 389 391 390
f 392 276 275
f 392 275 285
f 392 285 280
f 392 280 279
f 392 279 276
f 393 287 286
f 393 286 290
f 393 290 285
f 393 285 270
f 393 270 287
f 394 203 204
f 394 204 114
f 394 114 205
f 394 290 286
f 394 286 288
f 394 288 203
f 395 287 390
f 395 390 396
f 395 396 328
f 395 328 288
f 395 288 287
f 397 330 206
f 397 328 396
f 398 232 121
f 398 121 295
f 398 295 68
f 398 68 135
f 398 135 232
f 399 297 296
f 399 296 56
f 400 340 338
f 400 338 213
f 400 213 54
f 400 54 298
f 400 298 105
f 401 225 402
f 401 402 403
f 401 399 226
f 401 226 225
f 404 122 44
f 404 44 322
f 405 406 122
f 405 307 184
f 405 184 311
f 405 311 406
f 407 308 309
f 407 309 319
f 408 182 309
f 408 309 308
f 408 308 306
f 408 306 183
f 408 183 182
f 409 312 313
f 409 313 122
f 409 122 406
f 409 406 311
f 409 311 312
f 410 314 313
f 411 317 316
f 412 316 319
f 412 319 309
f 412 309 310
f 413 414 43
f 413 43 46
f 413 415 414
f 416 317 411
f 416 411 415
f 417 43 414
f 417 414 415
f 417 321 44
f 417 44 43
f 418 310 182
f 418 182 307
f 418 404 322
f 419 187 323
f 419 323 47
f 419 47 187
f 420 52 201
f 420 201 202
f 420 202 327
f 420 327 326
f 421 422 196
f 421 196 110
f 423 391 424
f 425 426 427
f 425 428 423
f 425 423 424
f 425 424 426
f 429 196 422
f 430 422 421
f 431 196 432
f 433 196 431
f 433 431 434
f 433 434 435
f 433 435 436
f 433 436 46
f 433 46 195
f 433 195 196
f 437 341 342
f 438 344 124
f 438 124 217
f 439 60 344
f 439 402 225
f 439 225 61
f 439 61 60
f 440 345 241
f 440 241 240
f 441 14 53
f 441 53 116
f 441 116 223
f 441 223 230
f 441 230 348
f 441 348 231
f 441 231 14
f 442 233 440
f 442 440 240
f 442 240 350
f 442 350 129
f 442 129 233
f 443 337 359
f 443 356 237
f 443 237 235
f 443 239 337
f 444 345 440
f 444 440 233
f 445 234 352
f 445 352 218
f 445 218 345
f 445 345 444
f 445 444 233
f 445 233 351
f 445 351 137
f 445 137 234
f 446 238 447
f 446 447 448
f 446 448 358
f 446 358 357
f 446 357 23
f 446 23 238
f 449 450 259
f 449 363 318
f 449 318 320
f 449 320 450
f 451 452 181
f 451 181 180
f 451 180 308
f 451 308 407
f 451 407 319
f 451 319 363
f 451 363 453
f 451 453 452
f 454 452 453
f 454 453 377
f 454 377 261
f 454 261 244
f 454 244 242
f 454 242 366
f 454 366 181
f 454 181 452
f 455 365 368
f 455 368 456
f 455 456 260
f 455 260 365
f 457 456 368
f 457 368 248
f 457 374 456
f 458 370 252
f 458 459 460
f 458 460 370
f 461 462 463
f 464 461 465
f 464 465 251
f 464 251 250
f 466 426 424
f 466 424 391
f 466 391 272
f 466 272 271
f 466 271 372
f 467 465 426
f 467 426 466
f 468 469 371
f 468 371 251
f 468 251 465
f 468 465 467
f 468 467 466
f 468 466 372
f 468 372 373
f 468 373 469
f 470 378 260
f 470 260 456
f 470 456 374
f 470 374 375
f 471 262 143
f 471 143 376
f 471 376 378
f 471 378 470
f 471 470 375
f 472 139 380
f 472 380 148
f 472 382 473
f 474 367 243
f 474 243 139
f 474 139 472
f 474 472 473
f 474 473 381
f 474 381 362
f 474 362 367
f 475 381 473
f 475 473 382
f 475 382 75
f 475 75 74
f 475 74 150
f 475 150 354
f 475 354 355
f 475 355 381
f 476 84 269
f 476 83 84
f 477 27 26
f 477 267 27
f 478 293 173
f 478 173 168
f 478 168 167
f 478 167 385
f 479 388 77
f 479 77 387
f 480 276 281
f 480 281 481
f 482 481 281
f 482 281 293
f 482 293 478
f 482 478 385
f 483 291 290
f 483 290 394
f 483 394 205
f 483 205 291
f 484 331 330
f 484 330 397
f 484 397 396
f 484 396 485
f 484 485 331
f 486 207 328
f 486 328 397
f 486 397 206
f 486 206 207
f 487 226 399
f 487 399 56
f 487 56 178
f 487 178 227
f 487 227 226
f 488 214 340
f 488 340 400
f 488 400 105
f 488 105 101
f 488 101 214
f 489 301 300
f 489 399 401
f 489 401 403
f 490 404 418
f 490 418 307
f 490 307 405
f 490 405 122
f 490 122 404
f 491 410 313
f 491 313 312
f 492 314 410
f 492 342 58
f 492 58 314
f 493 411 316
f 493 316 412
f 493 412 310
f 494 320 317
f 495 246 369
f 495 369 365
f 496 462 497
f 496 497 436
f 496 463 462
f 498 499 497
f 498 497 462
f 500 497 499
f 500 413 46
f 501 415 413
f 501 413 500
f 501 500 499
f 502 493 310
f 502 310 418
f 502 418 322
f 502 322 321
f 503 208 49
f 503 49 48
f 503 48 52
f 503 52 420
f 503 420 326
f 503 326 208
f 504 331 485
f 504 485 421
f 504 421 110
f 504 110 331
f 505 435 434
f 505 427 463
f 505 463 496
f 505 496 436
f 505 436 435
f 506 428 425
f 507 432 196
f 507 196 429
f 507 428 506
f 507 506 432
f 508 391 423
f 508 423 430
f 508 485 396
f 508 396 390
f 508 390 391
f 509 428 507
f 509 507 429
f 509 429 422
f 509 422 430
f 509 430 423
f 509 423 428
f 510 216 215
f 510 215 341
f 511 301 489
f 511 489 403
f 511 403 510
f 511 437 315
f 511 315 301
f 512 403 402
f 512 438 217
f 513 438 512
f 513 512 402
f 513 402 439
f 513 439 344
f 513 344 438
f 514 350 239
f 514 239 443
f 514 443 235
f 514 235 350
f 515 447 238
f 515 238 356
f 515 356 443
f 515 443 359
f 515 359 360
f 515 360 447
f 516 355 353
f 516 353 358
f 516 358 517
f 516 517 361
f 516 361 362
f 516 362 355
f 518 334 361
f 518 361 517
f 518 517 358
f 518 358 448
f 518 448 447
f 518 447 360
f 518 360 334
f 519 258 377
f 519 377 453
f 519 453 363
f 519 363 449
f 519 449 259
f 519 259 258
f 520 457 248
f 520 248 370
f 520 370 460
f 520 460 255
f 521 373 273
f 521 273 278
f 522 469 373
f 522 373 521
f 522 523 458
f 522 458 252
f 522 252 371
f 522 371 469
f 524 465 461
f 524 461 463
f 524 463 427
f 524 427 426
f 524 426 465
f 525 250 246
f 525 246 495
f 526 461 464
f 526 498 462
f 526 462 461
f 527 379 262
f 527 262 471
f 527 471 375
f 527 375 264
f 527 264 263
f 527 263 379
f 528 382 472
f 528 472 148
f 528 148 266
f 528 266 382
f 529 481 530
f 529 530 267
f 531 278 275
f 531 275 277
f 532 531 277
f 533 388 479
f 533 269 388
f 534 477 26
f 534 26 82
f 535 482 385
f 535 385 158
f 535 158 157
f 536 297 399
f 536 399 489
f 536 489 300
f 536 300 299
f 536 299 297
f 537 183 306
f 537 306 302
f 537 302 315
f 537 315 410
f 537 410 491
f 537 491 312
f 537 312 183
f 538 437 342
f 538 342 492
f 538 492 410
f 538 410 315
f 538 315 437
f 539 411 493
f 539 321 417
f 539 417 415
f 539 415 411
f 540 494 317
f 540 317 416
f 541 450 320
f 541 320 494
f 541 365 364
f 541 364 259
f 541 259 450
f 542 46 436
f 542 436 497
f 542 497 500
f 542 500 46
f 543 434 431
f 543 431 432
f 543 432 506
f 543 506 425
f 543 425 427
f 544 485 508
f 544 508 430
f 544 430 421
f 544 421 485
f 545 437 511
f 545 511 510
f 545 510 341
f 545 341 437
f 546 216 510
f 546 510 403
f 546 403 512
f 546 512 217
f 546 217 216
f 547 374 457
f 547 457 520
f 548 525 495
f 548 495 549
f 548 549 526
f 548 526 464
f 548 464 250
f 548 250 525
f 550 83 476
f 551 529 267
f 551 267 477
f 551 477 534
f 551 534 552
f 553 531 532
f 553 523 522
f 553 522 521
f 553 521 278
f 553 278 531
f 554 532 277
f 554 277 276
f 554 276 480
f 555 523 553
f 555 459 458
f 555 458 523
f 556 532 554
f 557 476 269
f 557 269 533
f 558 559 533
f 558 533 479
f 558 479 387
f 560 481 482
f 560 482 535
f 560 535 157
f 560 157 384
f 560 384 267
f 560 267 530
f 560 530 481
f 561 502 321
f 561 321 539
f 561 539 493
f 561 493 502
f 562 494 540
f 563 562 540
f 563 540 416
f 563 416 415
f 563 415 501
f 564 495 365
f 564 365 541
f 565 505 434
f 565 434 543
f 565 543 427
f 565 427 505
f 566 374 547
f 566 153 253
f 566 253 264
f 566 264 374
f 567 153 566
f 567 566 547
f 567 547 520
f 567 520 255
f 567 255 153
f 568 481 529
f 568 556 554
f 568 554 480
f 568 480 481
f 569 555 553
f 569 553 532
f 570 255 460
f 570 460 459
f 570 254 255
f 571 559 558
f 572 476 557
f 572 557 533
f 573 386 268
f 573 268 256
f 573 256 574
f 573 574 571
f 573 387 386
f 575 562 563
f 575 563 501
f 575 501 499
f 575 499 498
f 576 494 562
f 576 562 549
f 576 549 495
f 576 495 564
f 576 564 541
f 576 541 494
f 577 534 82
f 577 82 83
f 577 83 550
f 577 550 578
f 577 578 552
f 577 552 534
f 579 556 568
f 579 552 578
f 579 578 550
f 580 254 570
f 580 570 574
f 580 574 256
f 580 256 254
f 581 574 570
f 581 570 459
f 581 459 555
f 581 571 574
f 582 559 571
f 582 571 581
f 582 581 555
f 582 555 569
f 583 559 582
f 583 572 533
f 583 533 559
f 584 558 387
f 584 387 573
f 584 573 571
f 584 571 558
f 585 549 562
f 585 562 575
f 585 575 498
f 585 498 526
f 585 526 549
f 586 556 579
f 586 579 550
f 587 529 551
f 587 551 552
f 587 552 579
f 587 579 568
f 587 568 529
f 588 572 583
f 588 583 582
f 588 582 569
f 588 569 532
f 588 532 556
f 589 556 586
f 589 586 550
f 589 550 476
f 589 476 572
f 589 572 588
f 589 588 556
