# Convex hull collision mesh — generated by scripts/generate-collision-meshes.mjs
v 16.002001 -4.762500 -9.985000
v 6.891585 -10.286921 -9.985000
v -9.969138 -8.344046 -9.985000
v -7.604089 -10.215801 -9.985000
v -9.007538 9.559072 -9.985000
v 23.616673 -6.908338 5.225416
v -19.470493 15.045671 5.225416
v -24.595583 -0.727734 5.225416
v -9.007538 -9.559072 -9.985000
v 7.698263 10.194726 -9.985000
v -10.285864 6.827257 -9.985000
v 0.727734 -24.595583 5.225416
v 25.574005 -9.074682 -4.601588
v 26.023769 -7.690451 -4.601588
v 8.470403 -28.620510 -0.575097
v 8.440927 -28.333496 -1.802078
v 8.530149 -28.608095 -0.575835
v 9.674458 -8.852845 -9.985000
v 8.459523 -9.912392 -9.985000
v -26.023769 -7.690451 -4.601588
v -27.002661 -8.008512 -3.875196
v -28.155823 -0.727734 -3.875196
v -25.847689 0.727734 5.086598
v -24.807495 7.295259 5.086598
v -27.030190 0.727734 4.652165
v -23.616673 6.908338 5.225416
v -6.908338 23.616673 5.225416
v -28.346262 8.381294 -1.799769
v -29.548859 0.788392 -1.799769
v -29.837221 0.788392 -0.575097
v -28.975794 0.788392 -2.919844
v -6.827257 -10.285864 -9.985000
v -9.559072 -9.007538 -9.985000
v -21.424459 -14.666253 -5.060553
v 16.002001 0.635000 -9.985000
v -6.827257 10.285864 -9.985000
v -10.285864 -6.827257 -9.985000
v -9.969138 8.344046 -9.985000
v -15.045671 -19.470493 5.225416
v 27.002661 -8.008512 -3.875196
v 8.263613 -27.787779 -2.923591
v 9.647844 -27.338015 -2.923591
v 16.393723 -23.905315 -2.919844
v 15.960829 -23.206291 -3.875196
v 16.446058 -23.874151 -2.923591
v 9.392744 -26.552896 -3.875196
v 22.350788 -17.138327 -3.875196
v 17.184759 -22.311499 -3.870229
v 17.138327 -22.350788 -3.875196
v 21.518093 -16.533339 -4.601588
v 23.206291 -15.960829 -3.875196
v 22.373596 -15.355841 -4.601588
v 9.131235 -9.456285 -9.985000
v 14.666253 -21.424459 -5.060553
v 8.712145 -24.458229 -5.060553
v 9.074682 -25.574005 -4.601588
v 7.327913 -24.907993 -5.060553
v 7.698263 -10.194726 -9.985000
v -0.727734 -25.953360 -5.060553
v 19.470493 -15.045671 5.225416
v -27.126554 -0.727734 -4.601588
v -25.574005 -9.074682 -4.601588
v -24.907993 -7.327913 -5.060553
v -22.295633 -15.299197 4.652165
v -24.357731 -8.679491 5.086598
v -25.482355 -9.044904 4.652165
v -27.279217 -9.628739 3.013159
v -26.925186 -7.983339 3.947365
v -27.728981 -8.244508 3.013159
v -27.030190 -0.727734 4.652165
v -20.325996 13.868173 5.225416
v -24.595583 0.727734 5.225416
v -25.932119 7.660672 4.652165
v -25.482355 9.044904 4.652165
v -29.824120 0.788392 0.682998
v -29.843876 0.727734 -0.575835
v -28.914049 0.788392 3.009297
v -29.510317 0.788392 1.901399
v -28.919521 0.727734 3.013159
v -26.925186 7.983339 3.947365
v -26.475422 9.367570 3.947365
v 19.470493 15.045671 5.225416
v -28.620510 8.470403 -0.575097
v -20.568958 -15.843751 -5.060553
v -16.533339 -21.518093 -4.601588
v -21.518093 -16.533339 -4.601588
v -0.727734 27.126554 -4.601588
v -0.727734 28.155823 -3.875196
v 0.727734 27.126554 -4.601588
v 16.002001 4.762500 -9.985000
v 0.727734 25.953360 -5.060553
v -7.604089 10.215801 -9.985000
v -10.215801 -7.604089 -9.985000
v -23.166908 -8.292569 5.225416
v -6.908338 -23.616673 5.225416
v -15.781639 -20.483469 5.086598
v -20.483469 -15.781639 5.086598
v 28.155823 -0.727734 -3.875196
v 29.843876 -0.727734 -0.575835
v 29.824120 -0.788392 0.682998
v 29.837221 -0.788392 -0.575097
v 9.825158 -27.883732 -1.802078
v 16.900055 -24.602224 -0.575097
v 16.892355 -24.591625 0.682998
v 9.970014 -28.133257 -0.575097
v 0.727734 -28.155823 -3.875196
v -0.727734 -28.155823 -3.875196
v 0.727734 -27.126554 -4.601588
v 0.727734 -28.981346 -2.923591
v 7.690451 -26.023769 -4.601588
v 9.449045 -26.529881 -3.870229
v 16.533339 -21.518093 -4.601588
v 18.006207 -23.442123 -1.799769
v 22.978504 -17.669367 -2.919844
v 23.442123 -18.006207 -1.799769
v 22.311499 -17.184759 -3.870229
v -17.138327 -22.350788 -3.875196
v -9.647844 -27.338015 -2.923591
v -8.008512 -27.002661 -3.875196
v -8.263613 -27.787779 -2.923591
v 0.727734 -25.953360 -5.060553
v -0.727734 -27.126554 -4.601588
v -7.327913 -24.907993 -5.060553
v -9.074682 -25.574005 -4.601588
v -8.712145 -24.458229 -5.060553
v -15.843751 -20.568958 -5.060553
v -14.666253 -21.424459 -5.060553
v -8.344046 -9.969138 -9.985000
v 16.760645 -24.307144 1.903838
v 16.357430 -23.855364 3.009297
v 16.707907 -24.337753 1.901399
v 9.868995 -27.822351 1.901399
v -0.727734 -28.074360 3.947365
v -0.727734 -28.919521 3.013159
v 0.727734 -28.074360 3.947365
v -0.788392 -29.824120 0.682998
v -0.788392 -29.510317 1.901399
v -8.466353 -28.608049 0.682998
v -8.470403 -28.620510 -0.575097
v -16.357430 -23.855364 3.009297
v -15.912947 -23.140387 3.947365
v -16.409719 -23.824135 3.013159
v -8.369384 -28.309605 1.901399
v -24.458229 -8.712145 -5.060553
v -22.373596 -15.355841 -4.601588
v -23.206291 -15.960829 -3.875196
v -21.338970 -14.604141 5.086598
v -21.440130 -16.476696 4.652165
v -22.284883 -17.090445 3.947365
v -17.090445 -22.284883 3.947365
v -25.932119 -7.660672 4.652165
v -28.074360 0.727734 3.947365
v -28.919521 -0.727734 3.013159
v -23.140387 -15.912947 3.947365
v -23.855364 -16.357430 3.009297
v -23.824135 -16.409719 3.013159
v -24.357731 8.679491 5.086598
v -27.017134 -7.949434 -3.870229
v -28.981346 0.727734 -2.923591
v -28.151331 0.788392 -3.870229
v -28.133257 -9.970014 -0.575097
v -28.145855 -9.910327 0.683874
v -28.158331 -9.914381 -0.575835
v -27.883732 -9.825158 -1.802078
v -28.620510 -8.470403 -0.575097
v -28.608049 -8.466353 0.682998
v -29.824120 -0.788392 0.682998
v -29.830757 0.727734 0.683874
v -29.843876 -0.727734 -0.575835
v -27.742521 8.185127 3.009297
v -27.728981 8.244508 3.013159
v -28.309605 8.369384 1.901399
v 8.292569 23.166908 5.225416
v 23.616673 6.908338 5.225416
v -13.868173 20.325996 5.225416
v -8.679491 24.357731 5.086598
v -14.604141 21.338970 5.086598
v -9.559072 9.007538 -9.985000
v 25.574005 9.074682 -4.601588
v 26.023769 7.690451 -4.601588
v 8.459523 9.912392 -9.985000
v 27.126554 0.727734 -4.601588
v 6.891585 10.286921 -9.985000
v -8.344046 9.969138 -9.985000
v -0.727734 25.953360 -5.060553
v -7.327913 24.907993 -5.060553
v -25.953360 -0.727734 -5.060553
v -23.616673 -6.908338 5.225416
v -19.470493 -15.045671 5.225416
v -8.292569 -23.166908 5.225416
v -8.679491 -24.357731 5.086598
v 27.030190 -0.727734 4.652165
v 28.074360 -0.727734 3.947365
v 27.030190 0.727734 4.652165
v 25.847689 0.727734 5.086598
v 23.018650 -17.623556 -2.923591
v 23.874151 -16.446058 -2.923591
v 24.338366 -16.783329 -1.802078
v 27.126554 -0.727734 -4.601588
v 28.981346 -0.727734 -2.923591
v 28.981346 0.727734 -2.923591
v 28.151331 -0.788392 -3.870229
v 28.919521 -0.727734 3.013159
v 28.069973 -0.788392 3.942306
v 29.516552 -0.727734 1.903838
v 28.919521 0.727734 3.013159
v 28.620510 -8.470403 -0.575097
v 28.608049 -8.466353 0.682998
v 28.608095 -8.530149 -0.575835
v 28.333496 -8.440927 -1.802078
v 27.883732 -9.825158 -1.802078
v 27.338015 -9.647844 -2.923591
v 29.830757 -0.727734 0.683874
v 29.843876 0.727734 -0.575835
v 24.368935 -16.730560 -1.799769
v 24.571955 -16.953041 -0.575835
v 28.133257 -9.970014 -0.575097
v 27.859009 -9.880905 -1.799769
v 28.120796 -9.965965 0.682998
v 24.591625 -16.892355 0.682998
v 23.410942 -17.983551 1.901399
v 17.983551 -23.410942 1.901399
v 18.167999 -23.664814 0.682998
v 9.914381 -28.158331 -0.575835
v 9.703818 -27.313992 -2.919844
v 16.953041 -24.571955 -0.575835
v 16.730560 -24.368935 -1.799769
v 0.788392 -28.975794 -2.919844
v 0.788392 -29.548859 -1.799769
v 15.909114 -23.238310 -3.870229
v 15.843751 -20.568958 -5.060553
v 15.355841 -22.373596 -4.601588
v 23.675413 -18.175701 -0.575097
v 17.623556 -23.018650 -2.923591
v -0.727734 -28.981346 -2.923591
v -0.788392 -29.548859 -1.799769
v -0.788392 -28.975794 -2.919844
v -0.788392 -28.151331 -3.870229
v -8.204207 -27.801245 -2.919844
v 8.381294 -28.346262 -1.799769
v 0.788392 -29.837221 -0.575097
v 0.727734 -29.555145 -1.802078
v -9.392744 -26.552896 -3.875196
v -7.949434 -27.017134 -3.870229
v -9.965965 -28.120796 0.682998
v -9.813232 -27.847029 1.903838
v -9.868995 -27.822351 1.901399
v -17.669367 -22.978504 -2.919844
v -23.442123 -18.006207 -1.799769
v -22.978504 -17.669367 -2.919844
v -17.136938 -22.245680 3.942306
v -22.928553 -17.633076 3.009297
v -17.633076 -22.928553 3.009297
v -15.355841 -22.373596 -4.601588
v -8.440927 -28.333496 -1.802078
v -7.690451 -26.023769 -4.601588
v 18.122828 -23.705839 0.683874
v 17.938143 -23.451641 1.903838
v 17.587217 -22.968634 3.013159
v 8.292569 -23.166908 5.225416
v 20.325996 -13.868173 5.225416
v 26.925186 -7.983339 3.947365
v -8.185127 -27.742521 3.009297
v 0.727734 -28.919521 3.013159
v 0.727734 -29.516552 1.903838
v -0.727734 -29.516552 1.903838
v 0.727734 -29.830757 0.683874
v 9.684738 -27.255268 3.009297
v -0.788392 -29.837221 -0.575097
v -9.628739 -27.279217 3.013159
v -7.983339 -26.925186 3.947365
v -9.367570 -26.475422 3.947365
v -15.861293 -23.172489 3.942306
v -16.760645 -24.307144 1.903838
v -16.476696 -21.440130 4.652165
v -15.299197 -22.295633 4.652165
v -14.604141 -21.338970 5.086598
v -22.350788 -17.138327 -3.875196
v -17.983551 -23.410942 1.901399
v -24.307144 -16.760645 1.903838
v -24.807495 -7.295259 5.086598
v -28.069973 0.788392 3.942306
v -25.847689 -0.727734 5.086598
v -26.475422 -9.367570 3.947365
v -23.166908 8.292569 5.225416
v -20.483469 15.781639 5.086598
v -22.295633 15.299197 4.652165
v -21.440130 16.476696 4.652165
v -16.476696 21.440130 4.652165
v -27.279217 9.628739 3.013159
v -26.452503 9.423904 3.942306
v -27.255268 9.684738 3.009297
v -28.296791 8.429001 1.903838
v -26.552896 -9.392744 -3.875196
v -27.338015 -9.647844 -2.923591
v -28.155823 0.727734 -3.875196
v -29.555145 -0.727734 -1.802078
v -28.981346 -0.727734 -2.923591
v -29.548859 -0.788392 -1.799769
v -27.787779 -8.263613 -2.923591
v -27.801245 -8.204207 -2.919844
v -27.847029 -9.813232 1.903838
v -28.296791 -8.429001 1.903838
v -28.595619 -8.526095 0.683874
v -28.309605 -8.369384 1.901399
v -28.608095 -8.530149 -0.575835
v -29.837221 -0.788392 -0.575097
v -28.346262 -8.381294 -1.799769
v -28.074360 -0.727734 3.947365
v -28.608049 8.466353 0.682998
v 8.679491 24.357731 5.086598
v 14.604141 21.338970 5.086598
v 15.299197 22.295633 4.652165
v 9.044904 25.482355 4.652165
v 13.868173 20.325996 5.225416
v 23.166908 8.292569 5.225416
v 24.357731 8.679491 5.086598
v 24.595583 0.727734 5.225416
v -8.292569 23.166908 5.225416
v -15.045671 19.470493 5.225416
v -9.423904 26.452503 3.942306
v -9.367570 26.475422 3.947365
v -9.628739 27.279217 3.013159
v -10.215801 7.604089 -9.985000
v -24.458229 8.712145 -5.060553
v -24.907993 7.327913 -5.060553
v -25.574005 9.074682 -4.601588
v -26.023769 7.690451 -4.601588
v -27.002661 8.008512 -3.875196
v -28.333496 8.440927 -1.802078
v -23.675413 18.175701 -0.575097
v -23.664814 18.167999 0.682998
v -18.175701 23.675413 -0.575097
v -24.591625 16.892355 0.682998
v -24.561340 16.945332 0.683874
v -24.571955 16.953041 -0.575835
v -23.705839 18.122828 0.683874
v 8.712145 24.458229 -5.060553
v 22.373596 15.355841 -4.601588
v 21.518093 16.533339 -4.601588
v 16.533339 21.518093 -4.601588
v 14.666253 21.424459 -5.060553
v 15.355841 22.373596 -4.601588
v 28.155823 0.727734 -3.875196
v -25.953360 0.727734 -5.060553
v -20.325996 -13.868173 5.225416
v 29.824120 0.788392 0.682998
v 28.608049 8.466353 0.682998
v 29.510317 0.788392 1.901399
v 26.925186 7.983339 3.947365
v 25.932119 7.660672 4.652165
v 24.807495 7.295259 5.086598
v 25.482355 9.044904 4.652165
v 24.807495 -7.295259 5.086598
v 24.357731 -8.679491 5.086598
v 25.482355 -9.044904 4.652165
v 23.482864 -17.960827 -1.802078
v 27.787779 -8.263613 -2.923591
v 26.552896 -9.392744 -3.875196
v 26.529881 -9.449045 -3.870229
v 23.905315 -16.393723 -2.919844
v 26.552896 9.392744 -3.875196
v 29.555145 -0.727734 -1.802078
v 29.548859 -0.788392 -1.799769
v 28.914049 -0.788392 3.009297
v 27.742521 -8.185127 3.009297
v 29.516552 0.727734 1.903838
v 28.309605 8.369384 1.901399
v 28.595619 8.526095 0.683874
v 28.346262 -8.381294 -1.799769
v 28.158331 -9.914381 -0.575835
v 24.602224 -16.900055 -0.575097
v 22.928553 -17.633076 3.009297
v 22.968634 -17.587217 3.013159
v 22.284883 -17.090445 3.947365
v 9.880905 -27.859009 -1.799769
v 17.960827 -23.482864 -1.802078
v 0.788392 -28.151331 -3.870229
v 7.949434 -27.017134 -3.870229
v 8.204207 -27.801245 -2.919844
v 8.008512 -27.002661 -3.875196
v 18.175701 -23.675413 -0.575097
v 17.669367 -22.978504 -2.919844
v -0.727734 -29.555145 -1.802078
v -9.970014 -28.133257 -0.575097
v -16.892355 -24.591625 0.682998
v -8.526095 -28.595619 0.683874
v -8.429001 -28.296791 1.903838
v -24.368935 -16.730560 -1.799769
v -23.905315 -16.393723 -2.919844
v -24.338366 -16.783329 -1.802078
v -24.571955 -16.953041 -0.575835
v -24.602224 -16.900055 -0.575097
v -23.482864 -17.960827 -1.802078
v -23.716452 -18.130539 -0.575835
v -17.184759 -22.311499 -3.870229
v -23.705839 -18.122828 0.683874
v -23.451641 -17.938143 1.903838
v -22.968634 -17.587217 3.013159
v -22.245680 -17.136938 3.942306
v -15.960829 -23.206291 -3.875196
v -16.393723 -23.905315 -2.919844
v -16.446058 -23.874151 -2.923591
v -8.381294 -28.346262 -1.799769
v -9.703818 -27.313992 -2.919844
v -9.880905 -27.859009 -1.799769
v -16.730560 -24.368935 -1.799769
v 16.945332 -24.561340 0.683874
v 0.788392 -28.069973 3.942306
v 0.788392 -28.914049 3.009297
v 16.409719 -23.824135 3.013159
v 15.912947 -23.140387 3.947365
v 17.090445 -22.284883 3.947365
v 6.908338 -23.616673 5.225416
v 8.679491 -24.357731 5.086598
v 0.727734 -25.847689 5.086598
v 21.338970 -14.604141 5.086598
v 23.166908 -8.292569 5.225416
v 26.939756 -7.924293 3.942306
v 23.140387 -15.912947 3.947365
v 23.824135 -16.409719 3.013159
v 27.728981 -8.244508 3.013159
v 28.309605 -8.369384 1.901399
v 25.932119 -7.660672 4.652165
v 24.307144 -16.760645 1.903838
v -0.788392 -28.914049 3.009297
v 0.788392 -29.824120 0.682998
v -9.044904 -25.482355 4.652165
v -7.660672 -25.932119 4.652165
v -0.727734 -25.847689 5.086598
v 0.727734 -29.843876 -0.575835
v -8.244508 -27.728981 3.013159
v -9.684738 -27.255268 3.009297
v -16.707907 -24.337753 1.901399
v -16.945332 -24.561340 0.683874
v -17.587217 -22.968634 3.013159
v -13.868173 -20.325996 5.225416
v -23.410942 -17.983551 1.901399
v -23.664814 -18.167999 0.682998
v -18.122828 -23.705839 0.683874
v -18.175701 -23.675413 -0.575097
v -18.130539 -23.716452 -0.575835
v -24.591625 -16.892355 0.682998
v -26.939756 7.924293 3.942306
v -26.452503 -9.423904 3.942306
v -21.338970 14.604141 5.086598
v -15.912947 23.140387 3.947365
v -16.357430 23.855364 3.009297
v -16.409719 23.824135 3.013159
v -9.044904 25.482355 4.652165
v -23.140387 15.912947 3.947365
v -29.555145 0.727734 -1.802078
v -28.151331 -0.788392 -3.870229
v -28.333496 -8.440927 -1.802078
v -29.510317 -0.788392 1.901399
v -29.516552 0.727734 1.903838
v -28.069973 -0.788392 3.942306
v -26.939756 -7.924293 3.942306
v -29.830757 -0.727734 0.683874
v -28.595619 8.526095 0.683874
v 7.295259 24.807495 5.086598
v 15.045671 19.470493 5.225416
v 20.483469 15.781639 5.086598
v 24.595583 -0.727734 5.225416
v -16.892355 24.591625 0.682998
v -16.953041 24.571955 -0.575835
v -16.945332 24.561340 0.683874
v 0.727734 28.981346 -2.923591
v -0.727734 28.981346 -2.923591
v 0.727734 29.555145 -1.802078
v 0.788392 29.548859 -1.799769
v 0.788392 28.975794 -2.919844
v -0.788392 28.151331 -3.870229
v -0.727734 29.555145 -1.802078
v -0.788392 29.548859 -1.799769
v -9.392744 26.552896 -3.875196
v -9.647844 27.338015 -2.923591
v -8.263613 27.787779 -2.923591
v -15.781639 20.483469 5.086598
v -16.707907 24.337753 1.901399
v -9.868995 27.822351 1.901399
v -18.167999 23.664814 0.682998
v -17.587217 22.968634 3.013159
v -9.684738 27.255268 3.009297
v -9.813232 27.847029 1.903838
v -14.666253 21.424459 -5.060553
v -21.424459 14.666253 -5.060553
v -27.338015 9.647844 -2.923591
v -27.787779 8.263613 -2.923591
v -27.017134 7.949434 -3.870229
v -27.126554 0.727734 -4.601588
v -27.883732 9.825158 -1.802078
v -28.158331 9.914381 -0.575835
v -28.608095 8.530149 -0.575835
v -24.602224 16.900055 -0.575097
v -28.120796 9.965965 0.682998
v -24.337753 16.707907 1.901399
v -23.716452 18.130539 -0.575835
v 7.327913 24.907993 -5.060553
v 9.825158 27.883732 -1.802078
v 8.263613 27.787779 -2.923591
v 8.440927 28.333496 -1.802078
v 8.530149 28.608095 -0.575835
v 8.381294 28.346262 -1.799769
v 15.960829 23.206291 -3.875196
v 9.392744 26.552896 -3.875196
v 9.131235 9.456285 -9.985000
v 15.843751 20.568958 -5.060553
v 29.837221 0.788392 -0.575097
v 28.074360 0.727734 3.947365
v 27.742521 8.185127 3.009297
v 16.357430 23.855364 3.009297
v 16.707907 24.337753 1.901399
v 9.868995 27.822351 1.901399
v 16.476696 21.440130 4.652165
v 21.440130 16.476696 4.652165
v 23.855364 16.357430 3.009297
v 23.172489 15.861293 3.942306
v 26.452503 9.423904 3.942306
v 22.284883 17.090445 3.947365
v 24.591625 16.892355 0.682998
v 28.120796 9.965965 0.682998
v 28.133257 9.970014 -0.575097
v 25.847689 -0.727734 5.086598
v 9.965965 28.120796 0.682998
v 23.716452 -18.130539 -0.575835
v 23.705839 -18.122828 0.683874
v 27.017134 -7.949434 -3.870229
v 27.313992 -9.703818 -2.919844
v 23.238310 -15.909114 -3.870229
v 29.548859 0.788392 -1.799769
v 28.346262 8.381294 -1.799769
v 28.158331 9.914381 -0.575835
v 28.608095 8.530149 -0.575835
v 22.350788 17.138327 -3.875196
v 23.206291 15.960829 -3.875196
v 23.238310 15.909114 -3.870229
v 26.529881 9.449045 -3.870229
v 27.002661 8.008512 -3.875196
v 27.787779 8.263613 -2.923591
v 29.830757 0.727734 0.683874
v 28.595619 -8.526095 0.683874
v 29.510317 -0.788392 1.901399
v 23.664814 -18.167999 0.682998
v 23.451641 -17.938143 1.903838
v 16.783329 -24.338366 -1.802078
v 18.130539 -23.716452 -0.575835
v -9.825158 -27.883732 -1.802078
v -8.530149 -28.608095 -0.575835
v -9.910327 -28.145855 0.683874
v -23.675413 -18.175701 -0.575097
v -26.529881 -9.449045 -3.870229
v -23.018650 -17.623556 -2.923591
v -27.859009 -9.880905 -1.799769
v -22.311499 -17.184759 -3.870229
v -9.449045 -26.529881 -3.870229
v -16.953041 -24.571955 -0.575835
v -17.960827 -23.482864 -1.802078
v -16.900055 -24.602224 -0.575097
v 17.633076 -22.928553 3.009297
v 16.476696 -21.440130 4.652165
v 7.983339 -26.925186 3.947365
v 8.244508 -27.728981 3.013159
v 9.628739 -27.279217 3.013159
v 7.660672 -25.932119 4.652165
v 9.044904 -25.482355 4.652165
v 7.295259 -24.807495 5.086598
v 15.045671 -19.470493 5.225416
v 28.296791 -8.429001 1.903838
v 27.847029 -9.813232 1.903838
v 24.561340 -16.945332 0.683874
v 23.855364 -16.357430 3.009297
v 23.172489 -15.861293 3.942306
v 24.337753 -16.707907 1.901399
v -0.788392 -28.069973 3.942306
v 0.788392 -29.510317 1.901399
v 8.466353 -28.608049 0.682998
v 8.369384 -28.309605 1.901399
v 8.185127 -27.742521 3.009297
v 9.813232 -27.847029 1.903838
v 9.910327 -28.145855 0.683874
v -7.295259 -24.807495 5.086598
v -0.727734 -27.030190 4.652165
v -0.727734 -24.595583 5.225416
v -0.727734 -29.843876 -0.575835
v -9.423904 -26.452503 3.942306
v -17.938143 -23.451641 1.903838
v -18.167999 -23.664814 0.682998
v -24.561340 -16.945332 0.683874
v -24.337753 -16.707907 1.901399
v -28.120796 -9.965965 0.682998
v -27.255268 -9.684738 3.009297
v -23.172489 -15.861293 3.942306
v -15.861293 23.172489 3.942306
v -15.299197 22.295633 4.652165
v -24.307144 16.760645 1.903838
v -23.451641 17.938143 1.903838
v -22.968634 17.587217 3.013159
v -23.172489 15.861293 3.942306
v -28.975794 -0.788392 -2.919844
v -29.516552 -0.727734 1.903838
v -27.742521 -8.185127 3.009297
v -7.295259 24.807495 5.086598
v -7.660672 25.932119 4.652165
v 0.727734 24.595583 5.225416
v -7.983339 26.925186 3.947365
v 20.325996 13.868173 5.225416
v -9.825158 27.883732 -1.802078
v -8.530149 28.608095 -0.575835
v -9.914381 28.158331 -0.575835
v -8.526095 28.595619 0.683874
v -8.470403 28.620510 -0.575097
v -9.965965 28.120796 0.682998
v 0.788392 28.151331 -3.870229
v 0.727734 28.155823 -3.875196
v -8.008512 27.002661 -3.875196
v -15.960829 23.206291 -3.875196
v -16.446058 23.874151 -2.923591
v -16.393723 23.905315 -2.919844
v -8.244508 27.728981 3.013159
v -16.760645 24.307144 1.903838
v -18.122828 23.705839 0.683874
v -17.938143 23.451641 1.903838
v -23.410942 17.983551 1.901399
v -22.928553 17.633076 3.009297
v -17.633076 22.928553 3.009297
v -18.006207 23.442123 -1.799769
v -17.669367 22.978504 -2.919844
v -22.978504 17.669367 -2.919844
v -15.843751 20.568958 -5.060553
v -22.373596 15.355841 -4.601588
v -27.801245 8.204207 -2.919844
v -27.847029 9.813232 1.903838
v -28.133257 9.970014 -0.575097
v -27.859009 9.880905 -1.799769
v -23.482864 17.960827 -1.802078
v 8.470403 28.620510 -0.575097
v 7.690451 26.023769 -4.601588
v 8.204207 27.801245 -2.919844
v 17.138327 22.350788 -3.875196
v 28.620510 8.470403 -0.575097
v 28.914049 0.788392 3.009297
v 26.475422 9.367570 3.947365
v 9.684738 27.255268 3.009297
v 16.760645 24.307144 1.903838
v 17.587217 22.968634 3.013159
v 17.938143 23.451641 1.903838
v 15.781639 20.483469 5.086598
v 9.880905 27.859009 -1.799769
v 16.900055 24.602224 -0.575097
v 16.730560 24.368935 -1.799769
v 9.703818 27.313992 -2.919844
v 23.140387 15.912947 3.947365
v 22.968634 17.587217 3.013159
v 22.928553 17.633076 3.009297
v 17.090445 22.284883 3.947365
v 24.602224 16.900055 -0.575097
v 27.859009 9.880905 -1.799769
v 16.892355 24.591625 0.682998
v 9.970014 28.133257 -0.575097
v 9.910327 28.145855 0.683874
v 27.801245 -8.204207 -2.919844
v 29.555145 0.727734 -1.802078
v 28.975794 0.788392 -2.919844
v 27.801245 8.204207 -2.919844
v 27.017134 7.949434 -3.870229
v 28.145855 9.910327 0.683874
v 27.847029 9.813232 1.903838
v 28.296791 8.429001 1.903838
v 24.337753 16.707907 1.901399
v 27.255268 9.684738 3.009297
v 28.145855 -9.910327 0.683874
v -9.914381 -28.158331 -0.575835
v -23.238310 -15.909114 -3.870229
v -27.313992 -9.703818 -2.919844
v -23.874151 -16.446058 -2.923591
v -15.909114 -23.238310 -3.870229
v -16.783329 -24.338366 -1.802078
v -18.006207 -23.442123 -1.799769
v -17.623556 -23.018650 -2.923591
v 17.136938 -22.245680 3.942306
v 21.440130 -16.476696 4.652165
v 9.423904 -26.452503 3.942306
v 9.367570 -26.475422 3.947365
v 0.727734 -27.030190 4.652165
v 15.299197 -22.295633 4.652165
v 14.604141 -21.338970 5.086598
v 15.781639 -20.483469 5.086598
v 13.868173 -20.325996 5.225416
v 26.475422 -9.367570 3.947365
v 27.822351 -9.868995 1.901399
v 27.255268 -9.684738 3.009297
v -7.924293 -26.939756 3.942306
v 8.526095 -28.595619 0.683874
v 7.924293 -26.939756 3.942306
v 9.965965 -28.120796 0.682998
v -0.727734 -29.830757 0.683874
v -27.822351 -9.868995 1.901399
v -23.824135 16.409719 3.013159
v -17.090445 22.284883 3.947365
v -28.914049 -0.788392 3.009297
v 7.660672 25.932119 4.652165
v 6.908338 23.616673 5.225416
v 0.727734 25.847689 5.086598
v -0.727734 24.595583 5.225416
v 15.912947 23.140387 3.947365
v 15.861293 23.172489 3.942306
v 9.367570 26.475422 3.947365
v -8.466353 28.608049 0.682998
v -8.369384 28.309605 1.901399
v 21.338970 14.604141 5.086598
v -9.970014 28.133257 -0.575097
v -16.900055 24.602224 -0.575097
v -8.440927 28.333496 -1.802078
v -8.381294 28.346262 -1.799769
v -8.204207 27.801245 -2.919844
v -9.910327 28.145855 0.683874
v 8.008512 27.002661 -3.875196
v -0.788392 28.975794 -2.919844
v -7.949434 27.017134 -3.870229
v -7.690451 26.023769 -4.601588
v -9.880905 27.859009 -1.799769
v -9.703818 27.313992 -2.919844
v -15.355841 22.373596 -4.601588
v -17.138327 22.350788 -3.875196
v -8.429001 28.296791 1.903838
v -0.788392 28.069973 3.942306
v -7.924293 26.939756 3.942306
v -0.727734 28.074360 3.947365
v -17.983551 23.410942 1.901399
v -17.623556 23.018650 -2.923591
v -17.184759 22.311499 -3.870229
v -17.960827 23.482864 -1.802078
v -26.552896 9.392744 -3.875196
v -27.313992 9.703818 -2.919844
v -23.905315 16.393723 -2.919844
v -27.822351 9.868995 1.901399
v -28.145855 9.910327 0.683874
v -23.018650 17.623556 -2.923591
v -23.874151 16.446058 -2.923591
v -24.338366 16.783329 -1.802078
v -23.442123 18.006207 -1.799769
v 0.788392 29.837221 -0.575097
v 8.526095 28.595619 0.683874
v 8.466353 28.608049 0.682998
v 9.074682 25.574005 -4.601588
v 16.393723 23.905315 -2.919844
v 16.446058 23.874151 -2.923591
v 9.647844 27.338015 -2.923591
v 16.783329 24.338366 -1.802078
v 17.960827 23.482864 -1.802078
v 18.006207 23.442123 -1.799769
v 22.978504 17.669367 -2.919844
v 17.669367 22.978504 -2.919844
v 17.623556 23.018650 -2.923591
v 22.311499 17.184759 -3.870229
v 28.069973 0.788392 3.942306
v 9.423904 26.452503 3.942306
v 9.628739 27.279217 3.013159
v 16.409719 23.824135 3.013159
v 16.953041 24.571955 -0.575835
v 18.130539 23.716452 -0.575835
v 23.824135 16.409719 3.013159
v 22.295633 15.299197 4.652165
v 22.245680 17.136938 3.942306
v 24.571955 16.953041 -0.575835
v 23.905315 16.393723 -2.919844
v 28.333496 8.440927 -1.802078
v 27.883732 9.825158 -1.802078
v 18.122828 23.705839 0.683874
v 23.410942 17.983551 1.901399
v 16.945332 24.561340 0.683874
v 9.914381 28.158331 -0.575835
v 28.975794 -0.788392 -2.919844
v 28.151331 0.788392 -3.870229
v 24.307144 16.760645 1.903838
v 27.279217 9.628739 3.013159
v 27.822351 9.868995 1.901399
v 22.245680 -17.136938 3.942306
v 22.295633 -15.299197 4.652165
v 15.861293 -23.172489 3.942306
v 20.483469 -15.781639 5.086598
v 27.279217 -9.628739 3.013159
v 26.452503 -9.423904 3.942306
v 8.429001 -28.296791 1.903838
v -23.855364 16.357430 3.009297
v -22.284883 17.090445 3.947365
v -17.136938 22.245680 3.942306
v 7.983339 26.925186 3.947365
v 9.813232 27.847029 1.903838
v 8.369384 28.309605 1.901399
v 0.788392 29.510317 1.901399
v 7.949434 27.017134 -3.870229
v -8.712145 24.458229 -5.060553
v -9.449045 26.529881 -3.870229
v -9.074682 25.574005 -4.601588
v -18.130539 23.716452 -0.575835
v -16.783329 24.338366 -1.802078
v -23.206291 15.960829 -3.875196
v -16.533339 21.518093 -4.601588
v -22.350788 17.138327 -3.875196
v -24.368935 16.730560 -1.799769
v 0.727734 29.843876 -0.575835
v 9.449045 26.529881 -3.870229
v 17.184759 22.311499 -3.870229
v 26.939756 7.924293 3.942306
v 17.633076 22.928553 3.009297
v 23.018650 17.623556 -2.923591
v 27.313992 9.703818 -2.919844
v 24.368935 16.730560 -1.799769
v 27.338015 9.647844 -2.923591
v 17.983551 23.410942 1.901399
v 18.167999 23.664814 0.682998
v 27.728981 8.244508 3.013159
v -22.245680 17.136938 3.942306
v -0.727734 27.030190 4.652165
v 0.727734 28.074360 3.947365
v 0.727734 27.030190 4.652165
v -0.727734 28.919521 3.013159
v -0.788392 28.914049 3.009297
v -8.185127 27.742521 3.009297
v 0.788392 29.824120 0.682998
v 8.429001 28.296791 1.903838
v 8.244508 27.728981 3.013159
v 8.185127 27.742521 3.009297
v 0.788392 28.914049 3.009297
v -15.909114 23.238310 -3.870229
v -16.730560 24.368935 -1.799769
v -26.529881 9.449045 -3.870229
v -20.568958 15.843751 -5.060553
v -22.311499 17.184759 -3.870229
v -21.518093 16.533339 -4.601588
v -0.727734 29.843876 -0.575835
v 15.909114 23.238310 -3.870229
v 17.136938 22.245680 3.942306
v 18.175701 23.675413 -0.575097
v 23.675413 18.175701 -0.575097
v 23.442123 18.006207 -1.799769
v 23.482864 17.960827 -1.802078
v 23.874151 16.446058 -2.923591
v 24.561340 16.945332 0.683874
v 23.451641 17.938143 1.903838
v 23.716452 18.130539 -0.575835
v 23.664814 18.167999 0.682998
v 0.788392 28.069973 3.942306
v -0.727734 25.847689 5.086598
v 0.727734 28.919521 3.013159
v -0.727734 29.516552 1.903838
v -23.238310 15.909114 -3.870229
v -0.788392 29.837221 -0.575097
v 24.338366 16.783329 -1.802078
v 23.705839 18.122828 0.683874
v 7.924293 26.939756 3.942306
v -0.788392 29.510317 1.901399
v 0.727734 29.516552 1.903838
v -0.788392 29.824120 0.682998
v 0.727734 29.830757 0.683874
v -0.727734 29.830757 0.683874
f 1 2 3
f 4 3 2
f 5 1 3
f 6 7 8
f 9 3 4
f 10 1 5
f 11 5 3
f 12 6 8
f 13 1 14
f 15 16 17
f 18 2 1
f 19 2 18
f 19 18 1
f 20 21 22
f 23 24 25
f 26 24 23
f 26 8 7
f 27 7 6
f 28 29 30
f 28 31 29
f 32 4 2
f 33 3 9
f 33 34 3
f 35 1 10
f 36 10 5
f 37 11 3
f 38 5 11
f 39 12 8
f 40 13 14
f 41 42 16
f 43 44 45
f 46 42 41
f 47 48 49
f 47 49 50
f 47 50 51
f 52 51 50
f 52 50 1
f 52 1 13
f 53 54 19
f 53 19 1
f 53 1 54
f 55 56 57
f 55 19 54
f 58 2 19
f 58 19 55
f 58 55 57
f 59 4 32
f 59 32 2
f 60 6 12
f 61 20 22
f 62 21 20
f 62 20 63
f 64 65 66
f 67 68 69
f 70 23 25
f 71 26 7
f 72 8 26
f 72 26 23
f 72 23 8
f 73 25 24
f 73 24 74
f 75 30 76
f 77 78 79
f 80 25 73
f 80 73 74
f 80 74 81
f 82 27 6
f 83 28 30
f 83 30 75
f 84 34 33
f 84 33 9
f 84 85 86
f 87 88 89
f 90 35 10
f 91 87 89
f 92 36 5
f 93 37 3
f 94 39 8
f 95 12 39
f 96 39 97
f 98 40 14
f 99 100 101
f 102 16 42
f 102 17 16
f 103 104 105
f 106 107 108
f 106 109 107
f 110 56 46
f 110 106 108
f 110 57 56
f 111 42 46
f 111 46 44
f 112 50 49
f 112 49 44
f 112 1 50
f 113 114 115
f 116 48 47
f 116 114 48
f 117 86 85
f 118 119 120
f 121 108 59
f 121 59 2
f 121 2 58
f 121 58 57
f 121 57 110
f 121 110 108
f 122 108 107
f 122 59 108
f 123 124 125
f 123 125 4
f 123 4 59
f 126 9 127
f 126 85 84
f 126 84 9
f 128 125 127
f 128 127 9
f 128 9 4
f 128 4 125
f 129 130 131
f 129 131 104
f 132 131 130
f 133 134 135
f 136 137 138
f 136 138 139
f 140 141 142
f 143 138 137
f 144 3 34
f 144 62 63
f 144 63 93
f 144 93 3
f 145 86 146
f 145 62 144
f 145 144 34
f 145 34 84
f 145 84 86
f 147 65 64
f 147 64 97
f 148 96 97
f 148 97 64
f 148 149 150
f 151 70 68
f 151 68 66
f 152 79 153
f 152 70 25
f 152 25 80
f 154 64 66
f 154 155 156
f 154 149 148
f 154 148 64
f 157 74 24
f 157 24 26
f 158 22 21
f 159 29 31
f 159 31 160
f 161 162 163
f 164 161 163
f 165 166 167
f 168 75 76
f 168 76 169
f 170 80 171
f 170 171 172
f 170 172 78
f 170 78 77
f 173 27 82
f 174 82 6
f 175 176 177
f 175 7 27
f 178 5 38
f 179 180 90
f 181 90 10
f 182 1 35
f 182 35 90
f 182 90 180
f 183 91 10
f 183 10 36
f 184 92 5
f 185 91 183
f 185 183 36
f 185 36 92
f 185 92 186
f 185 87 91
f 187 11 37
f 187 37 93
f 187 93 63
f 187 63 20
f 187 20 61
f 188 65 94
f 188 94 8
f 189 39 94
f 189 97 39
f 190 191 95
f 190 95 39
f 192 193 194
f 192 194 195
f 196 47 51
f 196 51 197
f 196 197 198
f 196 115 114
f 196 114 116
f 196 116 47
f 199 14 1
f 199 1 182
f 199 182 98
f 199 98 14
f 200 98 201
f 200 202 98
f 203 193 204
f 203 205 206
f 203 206 193
f 207 101 100
f 207 100 208
f 207 209 210
f 211 212 210
f 211 210 209
f 213 205 100
f 213 100 99
f 213 99 214
f 215 216 198
f 217 218 211
f 217 219 220
f 221 222 223
f 224 17 102
f 224 102 105
f 225 102 42
f 225 42 111
f 225 111 43
f 226 104 103
f 226 103 227
f 228 229 109
f 230 43 111
f 230 111 44
f 230 44 43
f 231 1 112
f 231 54 1
f 232 44 46
f 232 46 56
f 232 56 55
f 232 55 54
f 232 54 231
f 232 231 112
f 232 112 44
f 233 113 115
f 234 45 44
f 234 44 49
f 234 49 48
f 235 236 237
f 235 237 238
f 235 238 107
f 235 107 109
f 239 238 237
f 240 15 241
f 240 241 229
f 240 229 228
f 240 16 15
f 242 235 109
f 242 109 229
f 242 229 241
f 243 124 119
f 243 119 118
f 244 238 239
f 244 239 120
f 244 120 119
f 244 119 107
f 244 107 238
f 245 246 247
f 248 249 250
f 251 252 253
f 251 253 150
f 251 150 149
f 254 124 243
f 254 117 85
f 254 85 126
f 254 126 127
f 254 127 125
f 254 125 124
f 255 120 239
f 255 118 120
f 256 119 124
f 256 124 123
f 256 123 59
f 256 59 122
f 256 122 107
f 256 107 119
f 257 258 129
f 257 223 222
f 257 222 258
f 259 258 222
f 259 129 258
f 260 60 12
f 261 6 60
f 262 204 193
f 262 193 192
f 263 143 137
f 264 135 134
f 264 134 265
f 266 265 134
f 266 134 137
f 266 137 136
f 266 267 265
f 268 132 130
f 269 136 139
f 270 271 272
f 273 141 140
f 274 140 142
f 275 150 141
f 275 141 276
f 275 276 96
f 275 96 148
f 275 148 150
f 277 96 276
f 277 276 191
f 278 146 86
f 278 86 117
f 279 253 252
f 280 156 155
f 281 65 188
f 281 70 151
f 281 151 66
f 281 66 65
f 282 77 79
f 282 79 152
f 282 152 80
f 282 170 77
f 283 70 281
f 283 281 188
f 283 188 8
f 283 8 23
f 283 23 70
f 284 68 67
f 284 154 66
f 284 66 68
f 285 71 157
f 285 157 26
f 285 26 71
f 286 71 7
f 287 286 288
f 287 74 157
f 289 288 286
f 290 81 291
f 290 291 292
f 290 171 80
f 290 80 81
f 293 172 171
f 294 295 21
f 294 21 62
f 294 62 145
f 294 145 146
f 296 22 159
f 296 159 160
f 296 61 22
f 297 169 76
f 298 299 297
f 298 297 159
f 298 159 22
f 300 21 295
f 300 295 164
f 300 301 158
f 300 158 21
f 302 67 69
f 302 69 303
f 304 162 302
f 304 302 303
f 304 166 165
f 304 163 162
f 305 166 304
f 305 304 303
f 305 303 69
f 306 164 163
f 306 163 304
f 306 304 165
f 307 169 297
f 307 297 299
f 307 299 308
f 307 308 165
f 307 165 167
f 307 167 169
f 309 70 152
f 309 152 153
f 309 68 70
f 310 83 75
f 310 75 78
f 310 78 172
f 311 312 313
f 311 313 314
f 315 312 311
f 315 311 173
f 315 173 82
f 316 82 174
f 316 174 317
f 318 195 174
f 318 174 6
f 319 176 175
f 319 175 27
f 319 27 176
f 320 7 175
f 320 286 7
f 321 322 323
f 324 38 11
f 325 38 324
f 325 324 326
f 325 326 327
f 328 296 329
f 328 329 327
f 328 327 326
f 330 28 83
f 331 332 333
f 334 335 336
f 337 332 331
f 337 336 335
f 338 181 10
f 339 179 90
f 339 90 340
f 341 340 90
f 342 181 338
f 342 338 343
f 344 201 98
f 344 98 182
f 344 182 180
f 345 328 326
f 345 326 324
f 345 324 11
f 345 11 187
f 345 187 61
f 346 147 97
f 346 97 189
f 346 189 94
f 346 94 65
f 346 65 147
f 347 348 349
f 350 351 194
f 352 195 194
f 352 194 351
f 352 317 174
f 352 174 195
f 353 351 350
f 353 317 352
f 353 352 351
f 354 355 356
f 354 6 355
f 357 115 196
f 357 196 198
f 357 198 216
f 357 233 115
f 358 210 212
f 358 212 40
f 359 40 212
f 359 51 52
f 359 52 13
f 359 13 40
f 360 51 359
f 360 359 212
f 361 197 51
f 361 218 215
f 361 215 198
f 361 198 197
f 362 179 339
f 362 180 179
f 363 200 201
f 363 214 99
f 363 99 101
f 363 101 364
f 363 364 200
f 365 203 204
f 365 204 366
f 367 205 213
f 367 347 349
f 367 349 206
f 367 206 205
f 368 349 348
f 368 348 369
f 370 101 207
f 370 207 210
f 370 364 101
f 371 217 211
f 371 211 209
f 372 216 215
f 372 215 218
f 372 218 217
f 372 217 220
f 372 220 216
f 373 222 221
f 373 221 374
f 373 374 375
f 376 227 103
f 376 103 105
f 376 105 102
f 376 102 225
f 376 225 43
f 376 43 227
f 377 45 234
f 377 234 113
f 378 106 379
f 378 228 109
f 378 109 106
f 380 228 378
f 380 378 379
f 380 379 41
f 380 41 16
f 380 16 240
f 380 240 228
f 381 110 46
f 381 46 41
f 381 41 379
f 381 379 106
f 381 106 110
f 382 113 233
f 382 233 223
f 382 223 257
f 382 377 113
f 383 114 113
f 383 113 234
f 383 234 48
f 383 48 114
f 384 235 242
f 384 269 236
f 384 236 235
f 385 245 386
f 387 138 143
f 387 143 388
f 387 388 246
f 387 139 138
f 389 390 391
f 389 391 392
f 389 392 393
f 394 395 392
f 394 392 391
f 396 248 250
f 396 278 117
f 397 392 395
f 397 398 280
f 399 149 154
f 399 154 156
f 399 156 280
f 399 280 398
f 399 252 149
f 400 252 251
f 400 251 149
f 400 149 252
f 401 117 254
f 401 254 243
f 401 402 403
f 404 236 269
f 404 269 139
f 404 139 255
f 404 255 239
f 404 239 237
f 404 237 236
f 405 406 402
f 407 402 406
f 408 104 226
f 408 226 257
f 408 257 129
f 408 129 104
f 409 135 264
f 409 264 410
f 411 130 129
f 411 129 259
f 411 259 412
f 411 412 130
f 413 412 259
f 414 415 260
f 414 260 12
f 414 12 416
f 417 355 261
f 418 6 261
f 418 261 355
f 418 355 6
f 419 204 262
f 419 262 366
f 419 366 204
f 420 375 374
f 420 374 421
f 422 366 262
f 422 423 366
f 424 356 262
f 424 262 192
f 424 192 354
f 424 354 356
f 425 421 374
f 426 263 137
f 426 137 134
f 427 241 15
f 427 265 267
f 428 276 141
f 428 141 272
f 428 272 271
f 428 271 429
f 428 191 276
f 430 416 12
f 431 241 427
f 431 427 267
f 431 384 242
f 431 242 241
f 432 388 143
f 432 143 263
f 432 263 271
f 432 271 270
f 432 270 246
f 432 246 388
f 433 140 247
f 433 247 246
f 433 246 270
f 434 247 140
f 434 140 274
f 434 274 386
f 434 386 245
f 434 245 247
f 435 386 274
f 436 142 141
f 436 141 150
f 436 150 253
f 436 253 279
f 436 274 142
f 437 190 39
f 437 39 96
f 437 96 277
f 437 277 191
f 437 191 190
f 438 398 397
f 438 397 439
f 438 439 279
f 438 279 252
f 438 252 399
f 438 399 398
f 440 441 442
f 440 435 274
f 443 161 393
f 443 393 392
f 444 170 282
f 444 282 80
f 444 80 170
f 445 154 284
f 445 284 67
f 446 286 287
f 446 287 157
f 446 157 71
f 446 71 286
f 447 322 321
f 447 448 449
f 450 322 447
f 451 291 81
f 451 81 74
f 451 74 287
f 451 287 288
f 452 29 159
f 452 159 297
f 452 297 76
f 452 76 30
f 452 30 29
f 453 158 301
f 453 298 22
f 453 22 158
f 454 308 301
f 454 301 300
f 454 300 164
f 454 164 306
f 454 306 165
f 454 165 308
f 455 167 166
f 455 166 305
f 456 153 79
f 456 79 78
f 456 78 75
f 456 75 168
f 457 458 68
f 457 68 309
f 457 309 153
f 459 456 168
f 459 168 169
f 459 169 167
f 460 83 310
f 460 310 172
f 460 172 293
f 461 173 311
f 461 311 314
f 462 315 82
f 462 82 463
f 464 195 318
f 464 318 6
f 465 466 467
f 468 88 469
f 468 469 470
f 468 470 471
f 468 471 472
f 473 469 88
f 474 470 469
f 474 469 475
f 476 477 478
f 479 289 286
f 479 286 320
f 479 320 175
f 479 175 177
f 480 448 481
f 482 333 332
f 483 447 449
f 484 448 321
f 484 321 323
f 484 323 485
f 484 485 481
f 484 481 448
f 486 184 5
f 487 178 38
f 487 38 325
f 488 329 489
f 488 489 330
f 490 489 329
f 490 329 296
f 490 296 160
f 491 296 328
f 491 328 345
f 491 345 61
f 491 61 296
f 492 488 330
f 492 330 493
f 494 83 460
f 494 460 493
f 494 493 330
f 494 330 83
f 495 334 336
f 496 497 334
f 498 336 337
f 498 337 331
f 499 338 10
f 499 10 91
f 500 501 502
f 500 502 503
f 504 472 471
f 505 341 343
f 505 343 506
f 507 181 342
f 507 342 90
f 507 90 181
f 508 341 90
f 508 90 342
f 508 342 343
f 508 343 341
f 509 347 214
f 510 350 194
f 510 194 193
f 510 193 206
f 511 349 368
f 512 513 514
f 515 463 516
f 517 518 519
f 520 515 516
f 521 522 523
f 524 195 464
f 524 464 6
f 524 6 354
f 524 354 192
f 524 192 195
f 525 514 513
f 526 216 527
f 526 527 233
f 526 233 357
f 526 357 216
f 528 358 40
f 528 40 98
f 528 98 202
f 529 212 211
f 529 211 218
f 529 218 361
f 529 361 360
f 529 360 212
f 530 360 361
f 530 361 51
f 530 51 360
f 531 532 509
f 533 369 534
f 535 340 341
f 535 339 340
f 536 537 538
f 536 538 362
f 536 362 339
f 536 339 535
f 539 344 180
f 539 180 362
f 539 362 540
f 541 213 214
f 541 214 347
f 541 347 367
f 541 367 213
f 542 208 423
f 542 371 209
f 542 209 207
f 542 207 208
f 543 365 366
f 543 366 423
f 543 423 208
f 543 208 100
f 543 100 205
f 543 205 203
f 543 203 365
f 544 223 233
f 544 233 527
f 544 527 221
f 544 221 223
f 545 221 527
f 545 527 425
f 545 425 374
f 545 374 221
f 546 227 43
f 546 43 45
f 546 45 377
f 546 377 226
f 546 226 227
f 547 257 226
f 547 226 377
f 547 377 382
f 547 382 257
f 548 385 406
f 548 406 405
f 548 405 118
f 548 118 255
f 549 139 387
f 549 548 255
f 549 255 139
f 550 245 385
f 550 549 387
f 550 387 246
f 550 246 245
f 551 395 394
f 551 394 249
f 551 249 441
f 551 441 439
f 551 439 397
f 551 397 395
f 552 294 146
f 552 295 294
f 553 250 249
f 553 249 394
f 553 394 391
f 553 146 278
f 554 390 389
f 554 389 393
f 554 393 161
f 554 161 164
f 555 278 396
f 555 396 250
f 555 250 553
f 555 553 278
f 556 401 243
f 556 243 118
f 556 118 405
f 556 405 402
f 557 386 435
f 557 435 440
f 557 440 442
f 558 442 441
f 558 557 442
f 559 385 386
f 559 386 557
f 559 557 407
f 559 407 406
f 559 406 385
f 560 413 259
f 560 259 222
f 560 222 373
f 561 412 413
f 561 413 375
f 562 135 409
f 562 563 564
f 565 562 566
f 567 415 414
f 567 414 416
f 567 565 566
f 567 566 415
f 568 60 260
f 569 423 422
f 569 422 570
f 569 570 542
f 569 542 423
f 571 220 425
f 571 425 527
f 571 527 216
f 571 216 220
f 572 573 420
f 572 420 421
f 572 421 425
f 574 572 425
f 574 425 220
f 574 220 219
f 575 133 271
f 575 263 426
f 575 426 134
f 575 134 133
f 576 265 427
f 576 410 264
f 576 264 265
f 577 578 576
f 577 576 427
f 577 427 15
f 579 410 576
f 579 576 578
f 579 578 563
f 579 563 562
f 579 409 410
f 580 132 268
f 580 268 564
f 580 564 563
f 581 224 105
f 581 17 224
f 582 191 428
f 582 428 429
f 582 430 95
f 582 95 191
f 583 416 430
f 583 430 582
f 583 582 429
f 583 429 271
f 583 271 133
f 583 133 135
f 584 95 430
f 584 430 12
f 584 12 95
f 585 136 269
f 585 269 384
f 585 384 431
f 585 431 267
f 586 272 141
f 586 141 273
f 586 273 140
f 586 140 433
f 586 433 270
f 586 270 272
f 587 279 440
f 587 440 274
f 587 274 436
f 587 436 279
f 588 439 441
f 588 441 440
f 588 440 279
f 588 279 439
f 589 397 280
f 589 280 443
f 589 443 392
f 589 392 397
f 590 443 280
f 590 280 155
f 591 161 443
f 591 443 590
f 591 302 162
f 591 162 161
f 592 155 445
f 592 445 67
f 592 67 302
f 593 154 445
f 593 445 155
f 593 155 154
f 594 448 447
f 594 447 321
f 594 321 448
f 595 289 479
f 595 479 177
f 595 177 176
f 595 176 450
f 595 450 447
f 595 447 289
f 596 597 337
f 596 337 335
f 596 335 334
f 596 334 497
f 596 598 597
f 599 291 451
f 600 298 453
f 600 453 301
f 600 301 308
f 600 308 299
f 600 299 298
f 601 153 456
f 601 456 459
f 601 459 167
f 601 167 455
f 601 455 153
f 602 69 68
f 602 68 458
f 602 458 457
f 602 455 305
f 602 305 69
f 603 176 27
f 603 604 450
f 603 450 176
f 605 27 173
f 606 323 322
f 606 322 450
f 606 450 604
f 607 316 317
f 607 463 82
f 607 82 316
f 608 478 477
f 609 610 611
f 609 611 612
f 609 608 610
f 613 481 485
f 613 465 480
f 613 480 481
f 614 468 472
f 615 88 468
f 615 468 614
f 615 89 88
f 616 476 478
f 617 618 619
f 620 485 323
f 620 323 606
f 621 483 449
f 621 449 448
f 621 448 480
f 621 480 465
f 621 465 467
f 622 467 466
f 622 333 482
f 622 621 467
f 623 483 621
f 623 621 622
f 624 597 598
f 624 598 625
f 624 625 626
f 624 482 332
f 624 332 337
f 624 337 597
f 627 628 629
f 627 331 333
f 630 486 5
f 630 5 178
f 631 487 325
f 631 325 327
f 632 31 28
f 632 28 330
f 632 330 489
f 632 489 490
f 632 490 160
f 632 160 31
f 633 293 171
f 633 171 290
f 633 290 292
f 633 460 293
f 634 495 635
f 634 635 492
f 634 492 493
f 634 496 334
f 634 334 495
f 636 336 498
f 636 498 331
f 637 503 502
f 637 502 504
f 638 89 615
f 638 338 499
f 638 499 91
f 638 91 89
f 639 614 472
f 639 472 504
f 639 504 502
f 639 502 501
f 640 535 341
f 640 341 505
f 641 348 347
f 641 347 509
f 641 509 532
f 641 534 369
f 641 369 348
f 642 349 511
f 642 206 349
f 643 353 350
f 644 512 514
f 645 513 512
f 645 646 647
f 648 312 315
f 648 315 462
f 648 462 463
f 648 463 515
f 648 515 313
f 648 313 312
f 649 650 651
f 649 652 500
f 653 518 517
f 653 654 520
f 653 520 516
f 653 353 643
f 653 643 519
f 653 519 518
f 655 520 654
f 656 515 520
f 657 521 523
f 658 657 523
f 659 525 513
f 659 513 645
f 660 650 649
f 660 649 500
f 660 661 525
f 660 525 659
f 660 659 650
f 662 370 210
f 662 210 358
f 662 358 528
f 662 528 202
f 663 214 363
f 663 363 201
f 663 201 531
f 663 531 509
f 663 509 214
f 664 531 201
f 664 665 532
f 664 532 531
f 666 344 539
f 666 539 540
f 666 540 665
f 667 522 668
f 667 668 369
f 667 369 533
f 667 533 523
f 667 523 522
f 669 368 369
f 669 369 668
f 670 522 521
f 671 517 519
f 672 219 217
f 672 217 371
f 672 371 542
f 672 542 570
f 672 570 219
f 673 549 550
f 673 550 385
f 673 385 548
f 673 548 549
f 674 390 552
f 674 552 146
f 674 146 390
f 675 295 552
f 675 552 390
f 675 390 554
f 675 554 164
f 675 164 295
f 676 390 146
f 676 146 553
f 676 553 391
f 676 391 390
f 677 401 556
f 677 556 402
f 677 402 401
f 678 407 557
f 678 557 558
f 678 558 403
f 678 403 402
f 678 402 407
f 679 249 248
f 679 558 441
f 679 441 249
f 680 403 558
f 680 558 679
f 680 679 248
f 680 248 396
f 680 396 117
f 680 117 401
f 680 401 403
f 681 413 560
f 681 560 373
f 681 375 413
f 682 561 375
f 682 375 420
f 683 564 268
f 683 268 130
f 684 564 683
f 684 683 412
f 684 412 566
f 684 566 562
f 684 562 564
f 685 416 583
f 685 583 135
f 685 135 562
f 685 562 565
f 685 565 567
f 685 567 416
f 686 687 415
f 686 415 566
f 686 566 412
f 686 412 561
f 688 60 568
f 688 687 686
f 688 686 561
f 688 561 682
f 689 260 415
f 689 415 687
f 689 687 688
f 689 688 568
f 689 568 260
f 690 262 356
f 690 356 420
f 691 692 572
f 691 572 574
f 691 574 219
f 691 219 570
f 691 570 692
f 693 263 575
f 693 575 271
f 693 271 263
f 694 17 581
f 694 581 580
f 694 578 577
f 694 577 15
f 694 15 17
f 695 409 579
f 695 579 562
f 695 562 409
f 696 104 131
f 696 131 132
f 696 132 580
f 696 580 581
f 696 581 105
f 696 105 104
f 697 136 585
f 697 585 267
f 697 267 266
f 697 266 136
f 698 302 591
f 698 591 590
f 698 590 155
f 698 155 592
f 698 592 302
f 699 451 598
f 699 598 596
f 700 483 626
f 700 288 289
f 700 289 447
f 700 447 483
f 701 153 455
f 701 455 602
f 701 602 457
f 701 457 153
f 702 461 314
f 703 461 704
f 703 704 605
f 703 605 173
f 703 173 461
f 705 27 605
f 705 605 704
f 706 512 707
f 706 708 314
f 706 314 313
f 706 313 515
f 706 515 656
f 706 656 646
f 709 611 710
f 709 612 611
f 711 463 607
f 711 607 317
f 712 610 608
f 712 465 613
f 713 466 465
f 713 465 712
f 714 609 612
f 714 612 715
f 714 715 716
f 714 716 478
f 714 478 608
f 714 608 609
f 717 611 610
f 717 610 712
f 717 712 613
f 717 613 485
f 717 485 611
f 718 501 506
f 718 506 638
f 718 638 615
f 719 473 716
f 719 716 715
f 719 715 475
f 719 475 469
f 719 469 473
f 720 716 473
f 720 473 88
f 720 88 616
f 720 616 478
f 720 478 716
f 721 87 185
f 721 185 186
f 721 476 616
f 721 616 88
f 721 88 87
f 722 713 712
f 722 712 608
f 723 619 722
f 723 722 608
f 723 608 477
f 724 617 476
f 724 486 630
f 724 725 617
f 726 485 620
f 726 620 710
f 726 710 611
f 726 611 485
f 727 728 606
f 727 606 729
f 730 623 622
f 730 622 482
f 730 482 624
f 730 624 626
f 730 626 483
f 730 483 623
f 731 628 627
f 731 618 617
f 731 617 725
f 732 629 628
f 732 628 731
f 732 731 725
f 733 618 731
f 733 731 627
f 733 627 333
f 734 631 327
f 734 327 329
f 734 329 488
f 735 635 736
f 735 488 492
f 735 492 635
f 737 497 496
f 737 496 633
f 737 633 292
f 738 496 634
f 738 634 493
f 738 493 460
f 738 460 633
f 738 633 496
f 739 740 636
f 741 740 736
f 741 336 636
f 741 636 740
f 742 627 629
f 742 629 739
f 742 739 636
f 742 636 331
f 742 331 627
f 743 471 470
f 743 637 504
f 743 504 471
f 744 503 637
f 744 637 745
f 744 661 503
f 746 343 338
f 746 338 638
f 746 638 506
f 746 506 343
f 747 652 649
f 747 649 651
f 747 748 505
f 749 501 500
f 749 500 652
f 749 506 501
f 750 751 748
f 750 748 747
f 750 747 651
f 752 753 754
f 755 748 751
f 755 751 752
f 755 752 754
f 755 640 505
f 755 505 748
f 756 535 640
f 756 754 753
f 757 350 510
f 757 510 206
f 757 206 642
f 757 642 511
f 758 708 706
f 758 706 707
f 758 707 512
f 758 512 644
f 758 644 759
f 758 759 708
f 760 646 645
f 760 645 512
f 760 512 706
f 760 706 646
f 761 650 659
f 761 762 751
f 761 751 750
f 761 750 651
f 761 651 650
f 763 654 653
f 763 653 517
f 764 516 463
f 764 463 711
f 764 711 317
f 764 317 353
f 764 353 653
f 764 653 516
f 765 656 520
f 765 520 655
f 766 521 657
f 767 538 537
f 767 537 536
f 768 534 641
f 768 641 532
f 768 532 665
f 768 665 540
f 768 533 534
f 769 533 768
f 769 768 540
f 769 658 523
f 769 523 533
f 770 645 647
f 770 762 761
f 771 655 654
f 772 645 770
f 772 770 761
f 772 761 659
f 772 659 645
f 773 500 503
f 773 503 661
f 773 661 660
f 773 660 500
f 774 364 370
f 774 370 662
f 774 662 202
f 774 202 200
f 774 200 364
f 775 664 201
f 775 201 344
f 775 344 666
f 775 666 665
f 775 665 664
f 776 654 763
f 776 763 517
f 776 517 670
f 776 670 521
f 777 643 350
f 777 668 671
f 777 671 519
f 777 519 643
f 778 670 517
f 778 517 671
f 778 671 668
f 778 668 522
f 778 522 670
f 779 375 681
f 779 681 373
f 779 373 375
f 780 420 356
f 780 356 355
f 780 355 417
f 780 682 420
f 781 412 683
f 781 683 130
f 781 130 412
f 782 60 688
f 782 688 682
f 782 682 780
f 782 780 417
f 782 417 261
f 782 261 60
f 783 692 570
f 783 570 422
f 783 422 262
f 783 262 690
f 784 573 572
f 784 572 692
f 784 692 783
f 784 783 690
f 784 690 420
f 784 420 573
f 785 578 694
f 785 694 580
f 785 580 563
f 785 563 578
f 786 497 737
f 786 737 292
f 786 292 291
f 786 291 599
f 786 599 451
f 786 451 699
f 786 699 596
f 786 596 497
f 787 598 451
f 787 451 288
f 787 288 700
f 787 625 598
f 788 787 700
f 788 700 626
f 788 626 625
f 789 708 759
f 789 702 314
f 789 314 708
f 790 661 744
f 790 759 644
f 790 644 514
f 790 514 525
f 790 525 661
f 791 744 745
f 791 745 792
f 793 639 501
f 793 501 718
f 793 718 615
f 793 615 614
f 793 614 639
f 794 486 724
f 794 721 186
f 794 186 92
f 794 92 184
f 794 184 486
f 795 619 723
f 795 723 477
f 795 477 476
f 795 476 617
f 796 476 721
f 796 721 794
f 796 794 724
f 796 724 476
f 797 466 733
f 797 733 333
f 797 333 622
f 797 622 466
f 798 619 618
f 798 618 733
f 798 733 466
f 799 740 739
f 799 631 734
f 799 736 740
f 800 725 724
f 800 724 630
f 801 732 725
f 801 725 800
f 801 631 799
f 801 799 739
f 802 635 495
f 802 495 336
f 802 336 741
f 802 741 736
f 802 736 635
f 803 743 470
f 803 470 474
f 804 652 747
f 804 505 506
f 804 506 749
f 804 749 652
f 805 754 756
f 805 756 640
f 805 640 755
f 805 755 754
f 806 350 757
f 806 757 511
f 806 511 350
f 807 646 656
f 807 765 655
f 807 655 771
f 808 535 756
f 808 756 753
f 808 536 535
f 809 538 767
f 809 767 658
f 809 658 769
f 810 658 767
f 810 766 657
f 810 657 658
f 811 540 362
f 811 362 538
f 811 538 809
f 811 809 769
f 811 769 540
f 812 647 646
f 812 646 807
f 812 807 771
f 812 771 813
f 812 813 770
f 812 770 647
f 814 511 368
f 814 368 669
f 814 669 668
f 814 668 777
f 814 777 350
f 814 350 511
f 815 787 788
f 815 788 625
f 815 625 787
f 816 604 603
f 816 817 729
f 816 729 606
f 816 606 604
f 818 702 789
f 818 789 817
f 818 817 816
f 818 816 704
f 818 704 461
f 818 461 702
f 819 729 817
f 819 820 727
f 819 727 729
f 821 620 606
f 821 606 728
f 821 728 727
f 821 727 820
f 821 710 620
f 822 743 803
f 822 792 745
f 822 745 637
f 822 637 743
f 823 744 791
f 823 790 744
f 824 789 759
f 824 759 790
f 824 790 823
f 824 823 791
f 825 789 824
f 825 824 791
f 825 791 792
f 825 792 826
f 827 619 795
f 827 795 617
f 827 617 619
f 828 713 722
f 828 722 619
f 828 619 798
f 828 798 466
f 828 466 713
f 829 735 736
f 829 799 734
f 829 734 488
f 829 488 735
f 830 487 631
f 830 800 630
f 830 630 178
f 830 178 487
f 831 629 732
f 831 732 801
f 831 801 739
f 831 739 629
f 832 800 830
f 832 830 631
f 832 631 801
f 832 801 800
f 833 803 474
f 834 505 804
f 834 804 747
f 834 747 505
f 835 765 807
f 835 807 656
f 835 656 765
f 836 813 837
f 836 837 752
f 836 752 751
f 836 751 762
f 836 762 770
f 836 770 813
f 838 752 837
f 838 837 839
f 838 839 808
f 838 808 753
f 838 753 752
f 840 767 536
f 840 536 808
f 840 808 839
f 841 776 521
f 841 521 766
f 842 771 654
f 842 654 776
f 843 766 839
f 843 839 837
f 844 813 771
f 844 837 813
f 845 817 789
f 845 825 826
f 846 603 27
f 846 27 705
f 846 705 704
f 846 704 816
f 846 816 603
f 847 826 792
f 847 819 817
f 847 817 845
f 847 845 826
f 848 819 847
f 849 799 829
f 849 829 736
f 849 736 799
f 850 475 715
f 850 715 612
f 850 833 474
f 850 474 475
f 851 810 767
f 851 767 840
f 851 840 839
f 851 839 766
f 851 766 810
f 852 842 776
f 852 776 841
f 852 841 766
f 852 766 843
f 852 843 837
f 852 837 844
f 852 844 771
f 852 771 842
f 853 825 845
f 853 845 789
f 853 789 825
f 854 709 710
f 854 710 821
f 854 821 820
f 854 820 819
f 854 819 848
f 855 792 822
f 855 848 847
f 855 847 792
f 856 709 854
f 856 854 848
f 856 833 850
f 856 850 612
f 856 612 709
f 857 803 833
f 857 848 855
f 857 855 822
f 857 822 803
f 858 848 857
f 858 857 833
f 858 833 856
f 858 856 848
