# Convex hull collision mesh — generated by scripts/generate-collision-meshes.mjs
v -2.803397 -2.070710 45.915897
v -38.362637 -2.070710 -25.385761
v 44.731525 -2.070710 10.734018
v 18.338493 -2.070710 -42.188011
v 25.610001 22.929291 -59.757275
v 18.730106 -2.039902 -42.156792
v 41.166031 -2.070710 -20.530136
v -45.705135 -2.070710 5.212405
v -45.873905 -2.039902 4.857648
v 27.366644 -2.070710 36.975605
v 27.143799 -2.039902 37.299145
v 26.626898 -1.702308 38.060066
v 19.330994 1.513585 43.278931
v 18.338493 47.920311 42.188011
v -15.837143 47.920311 -2.277037
v -31.746357 47.920311 0.970168
v -13.069831 -2.070710 -44.105648
v 27.682053 1.626720 -38.603046
v 27.815155 1.513585 -38.380596
v 45.927086 5.551573 -18.542238
v 42.105560 -1.702308 -19.613316
v 41.719688 -1.948340 -19.986237
v 28.224831 1.921374 -38.355625
v 19.647535 -1.702308 -42.089603
v -39.952023 2.505959 26.324150
v -39.623440 2.068491 26.629965
v -22.029539 -2.070710 35.985756
v 26.927147 -1.948340 37.615299
v 42.773396 2.505959 21.437391
v -25.295933 47.920311 -22.345804
v -40.006802 47.920311 -13.406373
v -13.069831 47.920311 44.105648
v -12.003791 -1.702308 -44.871700
v -12.438052 -1.948340 -44.556446
v -10.285384 5.551573 -48.449177
v 0.000000 22.929291 -59.757275
v -3.362927 1.513585 -47.280479
v -3.607878 1.626720 -47.365330
v -3.250506 2.068491 -47.629887
v -12.749769 -2.039902 -44.333454
v 46.703243 6.577350 -17.854454
v 41.445957 -2.039902 -20.254496
v 20.111752 -1.338477 -42.064495
v 19.112232 -1.948340 -42.127243
v -46.039379 -1.948340 4.511944
v -22.029539 47.920311 -35.985756
v -32.367989 47.797939 -33.049892
v -13.684187 43.343639 -45.846134
v -36.822315 40.297661 -33.124847
v -40.006802 -2.070710 13.406373
v -39.641064 1.921374 26.389038
v -39.215641 1.626720 26.807178
v -12.003791 47.551907 44.871700
v -12.438052 47.797939 44.556446
v -3.362927 44.336014 47.280479
v -38.038410 47.551907 26.657827
v -38.168434 47.797939 26.137194
v 42.627560 1.513585 20.727859
v 44.861927 -1.702308 12.040261
v 44.806042 -1.948340 11.506555
v -45.705135 47.920311 -5.212405
v -11.632042 -1.338477 -45.150860
v -32.861824 2.505959 -34.773918
v -14.122057 9.031369 -47.484074
v -33.105934 2.068491 -34.397224
v -32.871727 1.921374 -34.456417
v 45.663692 11.834759 -20.701622
v 45.838299 11.408333 -20.332174
v 45.303661 12.689331 -21.437656
v 45.738045 8.994257 -20.199606
v -49.227974 29.248663 -9.021391
v -48.955978 28.546574 -10.364477
v -50.101517 8.499634 -1.358439
v -47.329361 1.921374 -5.265608
v -47.272247 1.626720 -4.671837
v -47.470726 2.068491 -5.069719
v -49.459423 6.312218 2.595264
v -49.499161 5.551573 1.716015
v -49.434551 6.695345 3.034510
v -49.993275 6.577350 0.804249
v -49.982674 6.503850 0.722174
v -50.200836 7.603127 -0.211814
v -50.189102 7.524035 -0.288351
v -49.888374 8.994257 3.338087
v -39.344666 37.301849 -30.945042
v -48.545433 32.614861 -10.174310
v -39.952023 43.343639 -26.324150
v -3.182071 47.889503 -46.020500
v -3.551257 47.797939 -46.123428
v 44.731525 47.920311 -10.734018
v -4.067151 47.551907 -46.271141
v -4.511959 47.188076 -46.406322
v -49.184101 31.288982 -8.995794
v -49.591854 31.330856 -7.019692
v -48.267746 27.168911 -13.046755
v -48.484589 29.924818 -11.659603
v -47.591938 28.571890 -14.293798
v -39.264633 1.513585 26.552620
v -38.263885 47.889503 25.766005
v -47.525864 43.343639 5.515195
v -10.275801 40.297661 48.451485
v -11.938144 37.880375 48.348866
v -9.464020 39.272305 49.096153
v -38.592224 7.603127 32.106216
v -38.065174 8.442943 32.714630
v -38.314350 38.246948 32.437874
v -4.511959 -1.338477 46.406322
v -13.010758 1.513585 45.579308
v -4.067151 -1.702308 46.271141
v 26.373047 -1.338477 38.449535
v 26.235695 5.551573 42.009525
v 42.873947 2.068491 20.999924
v 19.104530 1.921374 43.621235
v -1.656307 10.221876 49.524479
v 18.986631 2.505959 43.916203
v -0.883930 11.513183 49.697346
v -47.525864 2.505959 -5.515195
v -50.153461 7.449437 -0.361943
v -31.894823 31.288982 -38.506111
v -32.885265 33.960110 -37.430782
v -35.902275 37.880375 -34.513168
v -28.588945 27.168911 -41.020302
v -27.621923 24.581953 -41.661102
v -30.840296 28.546574 -39.407944
v -25.431360 23.419861 -43.049305
v -30.282122 27.159069 -39.794060
v -37.506802 8.499634 -33.245258
v -21.763918 17.269278 -44.789593
v -23.557905 19.227678 -43.916832
v -24.209929 20.619543 -43.666927
v -25.400208 21.302708 -42.928509
v 46.647552 37.266403 -18.357897
v -46.039379 47.797939 -4.511944
v -49.499771 40.297661 -1.706176
v -46.274433 47.551907 -4.029538
v -31.661695 47.920311 -33.371628
v -37.438721 8.416604 -33.272129
v -11.572629 6.695345 -48.156593
v -32.967457 1.513585 -34.057301
v -38.038410 -1.702308 -26.657827
v 49.655899 20.666126 5.073770
v 49.641460 18.084637 6.227746
v 49.921631 22.053261 2.300767
v 49.865452 19.256332 3.663977
v 46.721352 6.503850 -17.773703
v 46.809536 8.864204 -18.097677
v 49.450901 15.530654 7.389656
v 49.052921 12.830785 8.784934
v 48.667858 11.455604 11.464706
v -49.308029 29.485312 -8.574417
v -48.776581 27.159069 -11.019045
v -48.266983 25.169971 -12.910279
v -47.146149 1.513585 -4.898332
v -49.948818 6.438069 0.639848
v -49.445740 5.411980 1.688690
v -38.708916 38.329578 -31.899343
v -38.598289 38.246948 -32.099491
v -39.222179 37.266403 -31.219017
v 17.613728 47.920311 -28.791939
v 33.008846 47.920311 26.281002
v -13.010758 44.336014 -45.579308
v -13.404269 43.928226 -45.695961
v -13.235905 43.781109 -45.869194
v -46.484798 47.188076 -3.614961
v -47.146149 44.336014 4.898332
v -47.470726 43.781109 5.069719
v -49.687374 37.880375 -3.361084
v -49.181290 36.532829 -5.967167
v -49.251617 33.960110 -7.535402
v -49.759045 35.333412 -4.901062
v -49.687939 32.684395 -6.336622
v -31.661695 -2.070710 33.371628
v -32.019016 -2.039902 33.208351
v -3.551257 -1.948340 46.123428
v -33.285770 -1.338477 32.649075
v -38.362637 47.920311 25.385761
v -42.572590 33.960110 25.885878
v -43.727879 32.614861 23.410429
v -44.635998 29.924818 22.233519
v -41.510674 36.532829 27.042007
v -39.015736 40.297661 30.510834
v -37.933075 47.188076 27.110632
v -32.861824 43.343639 34.773918
v -32.367989 -1.948340 33.049892
v -13.684187 2.505959 45.846134
v -38.632431 7.524035 32.040043
v -37.824745 6.503850 32.681461
v -39.253178 8.499634 31.164011
v 11.131448 23.285173 48.666245
v 9.173932 23.419861 49.151154
v 9.185972 21.302708 49.026985
v -6.905494 5.551573 49.045143
v 6.402987 22.053261 49.562733
v -7.126858 37.301849 49.546001
v -7.425371 37.266403 49.576912
v 1.309669 15.530654 49.982834
v 2.487016 18.084637 49.968731
v -1.418293 14.135376 50.059723
v -0.053501 16.879501 50.019611
v -4.086275 12.689331 49.952950
v -2.839447 11.455604 49.919308
v -0.133521 12.830785 49.833183
v -26.953339 22.053261 42.083019
v -30.214117 18.084637 39.876892
v -28.105824 19.256332 41.352760
v 20.588032 33.401207 45.696098
v 22.412548 35.456364 44.860756
v 20.635078 35.333412 45.543125
v 19.356293 32.684395 46.199329
v 41.166031 47.920311 20.530136
v 41.445957 47.889503 20.254496
v 42.137966 32.614861 26.164240
v 43.704124 33.960110 23.926006
v 28.539230 43.343639 38.401005
v 29.864458 9.426617 39.530415
v 29.510902 9.031369 39.790405
v 46.560627 8.416604 18.460777
v 32.901943 13.507903 37.292801
v 26.185320 5.411980 41.976925
v 42.674110 1.921374 21.135649
v 44.917812 -1.338477 12.501785
v 45.978218 1.513585 -11.522006
v 44.768784 -2.039902 11.125104
v 46.341839 2.068491 -11.471967
v 46.546009 2.505959 -11.072214
v 47.252632 7.449437 -16.813379
v 46.717693 6.438069 -17.684763
v 19.344858 2.068491 43.645718
v 25.528534 6.438069 42.937023
v -2.532159 9.426617 49.478561
v -2.970117 9.031369 49.450462
v -46.124081 22.053261 -19.236217
v -50.066635 8.416604 -1.422783
v -43.672600 13.507903 -23.790642
v -44.492485 15.011268 -22.189741
v -38.168434 -1.948340 -26.137194
v -39.556320 6.312218 -29.803816
v -31.911978 29.248663 -38.553917
v -36.876003 36.756008 -33.950985
v -36.404186 35.456364 -34.489777
v -37.761063 37.491848 -33.031002
v -33.839432 36.532829 -36.184238
v -35.916882 34.133999 -34.984825
v -34.975407 33.401207 -35.898766
v -29.646702 29.924818 -40.097069
v -27.104975 23.285173 -41.924129
v -28.676086 25.169971 -40.915264
v 26.626898 47.551907 -38.060066
v 26.927147 47.797939 -37.615299
v 19.330994 44.336014 -43.278931
v 42.773396 43.343639 -21.437391
v 42.873947 43.781109 -20.999924
v 47.098118 38.246948 -17.377352
v 47.486217 37.491848 -16.186539
v 47.245800 7.603127 -16.970655
v -32.019016 47.889503 -33.208351
v -32.858135 47.551907 -32.831436
v -39.264633 44.336014 -26.552620
v -39.641064 43.928226 -26.389038
v 46.721287 39.411560 17.676018
v 47.284702 38.329578 16.736349
v 46.341839 43.781109 11.471967
v 44.174404 36.532829 22.428295
v 16.801464 31.288982 47.092579
v 10.299798 26.011047 48.844044
v 18.099960 33.960110 46.420853
v 14.144782 29.924818 47.818687
v 19.422926 36.532829 45.575829
v -2.821372 43.343639 47.761539
v -11.144375 6.312218 -48.257359
v -33.209644 1.626720 -33.964848
v 49.997471 23.419861 -0.499552
v 49.921631 20.619543 0.867050
v 49.890533 24.581953 -3.090736
v 49.819096 27.168911 -4.248601
v 49.877285 21.302708 -0.532970
v 47.544640 8.499634 -15.859214
v 47.531044 8.584072 -15.929472
v 48.256187 34.133999 -13.612518
v 49.001976 31.330856 -10.365060
v 49.812042 19.227678 1.556672
v 49.670883 17.269278 3.546690
v 49.641460 16.692564 4.835674
v 49.466103 15.428967 5.432871
v 49.603725 27.159069 -6.328058
v 49.548431 28.546574 -7.004508
v 49.344662 29.248663 -8.359625
v 45.886230 5.411980 -18.498289
v 46.958626 8.442943 -17.722639
v 48.788841 11.513183 9.500355
v 48.287163 9.426617 11.085551
v 49.175701 13.507903 7.418982
v -46.484798 -1.338477 3.614961
v -47.207539 20.619543 16.259443
v -46.687027 21.302708 17.559864
v -48.301613 16.692564 12.434332
v -47.888401 17.269278 13.655643
v -48.747482 13.507903 9.847518
v -49.095825 11.513183 7.759353
v -39.267815 8.416604 31.092299
v -48.346512 15.011268 11.600892
v -49.214954 9.031369 5.661988
v -37.786507 39.272305 -32.744160
v -37.560848 8.584072 -33.198357
v -4.064390 47.920311 -33.210312
v 27.366644 47.920311 -36.975605
v 44.768784 47.889503 -11.125104
v 44.806042 47.797939 -11.506555
v 45.978218 44.336014 11.522006
v 42.105560 47.551907 19.613316
v 41.719688 47.797939 19.986237
v 45.931026 40.297661 18.533201
v -12.809601 44.222878 -45.742821
v -47.272247 44.222878 4.671837
v -49.949203 39.411560 -0.630401
v -49.868000 33.401207 -5.018291
v -3.182071 -2.039902 46.020500
v -36.792168 5.411980 33.076721
v -36.815525 5.551573 33.131992
v -45.873905 47.889503 -4.857648
v -47.329361 43.928226 5.265608
v -9.381356 39.345791 49.099949
v -8.499830 38.246948 49.476845
v -37.780109 6.577350 32.751148
v -35.918518 6.695345 34.100487
v -36.071030 8.994257 34.624752
v -36.119896 11.408333 34.783615
v -35.829464 11.834759 35.071064
v -37.555592 37.266403 33.205181
v -36.219910 6.312218 33.779991
v -32.858135 -1.702308 32.831436
v -50.157253 38.329578 0.445296
v -43.283672 29.485312 25.126207
v -42.501736 31.330856 26.499632
v -43.509655 29.248663 24.732346
v -38.652435 7.449437 31.960760
v 23.874317 8.499634 44.068405
v 7.116748 19.227678 49.325600
v 5.132450 17.269278 49.532146
v 1.233000 13.507903 49.716904
v 7.814923 20.619543 49.313770
v -5.595810 6.695345 49.210468
v 3.625969 20.666126 49.782566
v 3.857940 16.692564 49.727001
v -5.310969 11.408333 49.863216
v -7.731720 8.864204 49.587086
v -13.235905 2.068491 45.869194
v -9.065502 7.449437 49.328667
v -10.095148 8.416604 49.058949
v -10.964415 36.756008 48.911049
v -17.399858 31.288982 46.874783
v -19.901728 29.924818 45.723331
v -21.230152 27.168911 45.268906
v -18.708134 28.546574 46.412453
v -15.973375 33.960110 47.194866
v -24.566113 23.419861 43.548855
v -26.254139 19.227678 42.360161
v -27.906965 17.269278 41.242901
v -10.037838 8.499634 49.104473
v -31.125080 15.530654 39.130909
v -33.264244 14.135376 37.436310
v 23.040188 36.756008 44.515827
v 25.464264 38.329578 43.214809
v 24.374304 39.345791 43.642963
v 25.291853 38.246948 43.365047
v 26.179262 37.266403 42.751057
v 28.224831 43.928226 38.355625
v 41.572792 29.924818 27.539148
v 30.564919 10.221876 39.002605
v 47.005047 7.449437 17.493610
v 27.345240 6.695345 41.294323
v 25.616756 6.503850 42.925179
v 25.693138 6.577350 42.893322
v 42.823521 1.626720 20.558151
v 47.100910 5.551573 15.317183
v 42.445034 -1.338477 -19.295689
v 46.275997 1.921374 -11.239543
v 47.260952 7.524035 -16.894722
v 19.590193 1.626720 43.274883
v -47.938862 24.581953 -14.159225
v -47.450081 26.011047 -15.502135
v -42.597198 11.513183 -25.614180
v -41.340298 9.031369 -27.297428
v -41.583611 9.426617 -26.932194
v -38.263885 -2.039902 -25.766005
v -39.021591 5.551573 -30.502905
v -37.933075 -1.338477 -27.110632
v -38.674301 6.438069 -31.616329
v -38.963104 5.411980 -30.489498
v -33.477394 31.330856 -37.254425
v -34.967297 35.333412 -35.738926
v -2.803397 47.920311 -45.915897
v 47.250526 39.272305 -16.351995
v 47.212482 39.345791 -16.425482
v 47.098118 40.297661 -15.326638
v 46.980103 38.329578 -17.573233
v 48.576946 33.401207 -12.340209
v 49.294682 31.288982 -8.368671
v -33.285770 47.188076 -32.649075
v 46.724957 39.345791 17.764950
v 46.706863 39.272305 17.845697
v 47.249199 38.246948 16.962263
v 42.445034 47.188076 19.295689
v 45.541302 37.880375 20.152470
v 23.272295 40.297661 43.721149
v 20.111752 47.188076 42.064495
v 11.417175 28.571890 48.362724
v 15.461505 32.614861 47.128731
v 49.890533 26.011047 -1.661642
v 49.610558 28.571890 -2.845624
v 47.555721 37.301849 15.622158
v 49.859848 23.285173 -2.511532
v 49.771702 25.169971 -4.376586
v 49.267017 29.485312 -8.807023
v 48.484478 10.221876 10.230979
v 49.398598 15.011268 5.634209
v 47.533871 8.416604 -15.786819
v 38.621391 23.419861 31.755077
v 37.684860 20.619543 32.753204
v 38.550800 21.302708 31.652222
v 43.141193 31.288982 25.275236
v 49.052921 14.135376 10.089526
v 48.484478 12.689331 12.698434
v 48.183445 11.408333 13.888941
v 48.021431 8.994257 13.926053
v -46.274433 -1.702308 4.029538
v -50.176346 8.864204 0.996449
v -47.340424 19.227678 15.573929
v -45.273220 25.169971 21.135571
v -45.824673 24.581953 19.967911
v -44.447933 27.159069 22.911903
v -45.993938 23.285173 19.413141
v -45.361530 27.168911 21.031513
v -46.313454 26.011047 18.625000
v -46.811398 23.419861 17.569567
v -47.697899 22.053261 14.912190
v -48.341084 15.428967 11.813175
v -49.059708 10.221876 6.968692
v -37.831127 39.345791 -32.674469
v -37.858097 39.411560 -32.589645
v -40.527328 11.408333 -29.531044
v -39.077816 8.864204 -31.489408
v -40.362392 8.994257 -29.510506
v -38.319920 7.603127 -32.430733
v 44.861927 47.551907 -12.040261
v 42.627560 44.336014 -20.727859
v 42.674110 43.928226 -21.135649
v 42.823521 44.222878 -20.558151
v 46.275997 43.928226 11.239543
v -49.993683 39.272305 -0.794783
v -41.426800 33.401207 28.210299
v -41.267979 35.333412 28.230064
v -42.136272 32.684395 27.084658
v -43.459595 31.288982 24.723753
v -3.033046 43.928226 47.524685
v -3.250506 43.781109 47.629887
v -11.632042 47.188076 45.150860
v -9.294413 39.411560 49.080894
v -8.271184 38.329578 49.472576
v -12.749769 47.889503 44.333454
v -32.871727 43.928226 34.456417
v -32.967457 44.336014 34.057301
v -33.209644 44.222878 33.964848
v -34.061386 9.031369 35.972099
v -34.262657 11.455604 36.415249
v -32.192970 16.879501 38.282856
v -29.221964 20.666126 40.466389
v -38.136456 38.329578 32.581577
v -35.239407 12.689331 35.639572
v -37.796806 8.864204 33.016056
v -45.645416 28.571890 19.641823
v -37.851727 6.438069 32.596634
v 12.835051 27.168911 48.324471
v 24.763279 7.449437 43.615143
v 21.785313 34.133999 45.159279
v 24.916981 7.603127 43.581104
v 23.801151 8.416604 44.070370
v 3.029365 15.011268 49.626495
v 5.050732 19.256332 49.744125
v 3.239365 15.428967 49.658009
v -5.375651 8.994257 49.710110
v -7.889211 6.577350 49.373421
v -4.903716 11.834759 49.896729
v -8.999216 7.524035 49.376545
v -8.925880 7.603127 49.401390
v -8.131056 8.442943 49.528683
v -12.809601 1.626720 45.742821
v -13.404269 1.921374 45.695961
v -31.012877 13.507903 38.877914
v -32.621967 11.513183 37.502197
v -13.467171 35.333412 48.152031
v -14.868575 32.684395 47.832726
v -13.601539 33.401207 48.238976
v -11.666929 35.456364 48.771839
v -14.416754 36.532829 47.397926
v -18.449564 32.614861 46.041168
v -12.339306 34.133999 48.597343
v -9.725156 37.491848 49.217541
v -19.321606 27.159069 46.122116
v -17.432684 29.248663 46.913544
v -17.006403 29.485312 47.070000
v -22.268612 24.581953 44.751839
v -23.506243 26.011047 44.037292
v -25.711702 20.619543 42.799877
v -24.477076 21.302708 43.461479
v 24.186523 37.491848 43.954033
v 24.428658 39.411560 43.572479
v 28.125870 43.781109 38.575996
v 27.815155 44.336014 38.380596
v 26.388065 37.301849 42.535496
v 36.763283 22.053261 33.851498
v 39.833023 28.571890 29.709177
v 34.777271 20.666126 35.804932
v 34.024448 18.084637 36.679646
v 35.843994 19.256332 34.859665
v 37.157631 19.227678 33.211044
v 27.835056 8.994257 41.535557
v 32.111000 16.879501 38.351635
v 34.219925 15.011268 36.068863
v 34.401051 15.428967 35.958019
v 35.770336 17.269278 34.644749
v 34.919254 16.692564 35.613258
v 26.977276 6.312218 41.535484
v 47.491146 6.695345 14.056106
v 47.253380 6.577350 16.342960
v 46.019245 1.626720 -11.777969
v -43.291504 16.879501 -25.056139
v -44.517700 18.084637 -22.830547
v -45.605045 19.256332 -20.498001
v -44.993816 16.692564 -21.522427
v -45.462322 17.269278 -20.321241
v -44.925953 20.666126 -21.751102
v -47.153111 23.419861 -16.630718
v -46.614441 20.619543 -17.888964
v -46.275597 19.227678 -18.499516
v -42.061306 10.221876 -26.196644
v -42.643845 14.135376 -26.258139
v -41.217384 12.689331 -28.515293
v -39.819611 6.695345 -29.451347
v -38.814030 6.577350 -31.518967
v -38.753155 6.503850 -31.575026
v -32.260612 29.485312 -38.262978
v -33.990067 32.684395 -36.792927
v 27.143799 47.889503 -37.299145
v 47.152508 39.411560 -16.491251
v 48.071117 35.456364 -14.282063
v 48.434467 35.333412 -12.413103
v 46.546009 43.343639 11.072214
v 49.097603 32.614861 -7.042792
v 47.840420 37.880375 -13.835698
v 48.256187 36.532829 -11.213689
v 48.858643 32.684395 -11.039799
v 49.548431 29.924818 -5.626264
v -39.623440 43.781109 -26.629965
v 46.019245 44.222878 11.777969
v 21.932903 37.880375 44.711071
v 19.112232 47.797939 42.127243
v 18.716694 31.330856 46.457649
v 16.801233 29.248663 47.143372
v 39.809242 23.285173 30.125349
v 40.205055 24.581953 29.701376
v 40.894592 27.168911 28.768480
v 40.940552 25.169971 28.639975
v 42.066257 27.159069 27.037088
v 42.458710 28.546574 26.483353
v 39.286449 26.011047 30.796125
v 44.200222 31.330856 23.557766
v 46.650158 8.584072 18.349682
v 45.144234 33.401207 21.771511
v 46.264030 36.756008 19.291155
v 45.716343 34.133999 20.590685
v 46.004944 35.456364 19.958822
v 47.534328 37.266403 15.921504
v 48.287163 11.834759 13.493693
v 47.491146 8.864204 16.224964
v -50.188171 8.442943 0.593038
v -50.201160 38.246948 0.220865
v -49.099293 12.830785 8.521949
v -49.166573 9.426617 6.098172
v -40.759975 11.834759 -29.195107
v -38.187130 7.449437 -32.515289
v -38.261734 7.524035 -32.481823
v 44.917812 47.188076 -12.501785
v -49.983067 39.345791 -0.712716
v -50.158569 37.491848 -1.030873
v -50.071930 36.756008 -2.304526
v -50.112770 8.584072 -1.287767
v -50.001740 34.133999 -3.713005
v -44.164612 28.546574 23.528645
v -40.223202 37.880375 29.363689
v -38.808258 39.272305 31.526482
v -38.747375 39.345791 31.582523
v -38.668526 39.411560 31.623814
v -3.607878 44.222878 47.365330
v -33.102528 10.221876 36.873299
v -33.105934 43.781109 34.397224
v 11.707182 24.581953 48.595886
v 12.952862 25.169971 48.255573
v 14.845517 27.159069 47.751278
v 24.844831 7.524035 43.609211
v 23.941147 8.584072 44.042816
v -6.032702 6.312218 49.158684
v -6.923128 5.411980 48.987789
v -7.968198 6.503850 49.348728
v -29.438055 15.428967 40.122467
v -32.134438 12.830785 38.088608
v -9.970195 8.584072 49.127827
v -15.524583 31.330856 47.619484
v -21.095617 25.169971 45.291851
v -22.754875 23.285173 44.435661
v -37.307045 37.301849 33.373383
v 27.682053 44.222878 38.603046
v 31.267710 11.513183 38.638554
v 29.912371 11.455604 40.065571
v 25.951122 8.864204 42.955765
v 47.155376 6.438069 16.482241
v 47.364285 6.312218 14.477367
v 48.183445 9.031369 11.511977
v -44.624779 15.428967 -22.023632
v -47.051601 21.302708 -16.558207
v -43.941238 15.530654 -23.857210
v -43.090042 12.830785 -25.032225
v -38.827568 8.442943 -31.806042
v 47.840420 36.756008 -14.960063
v 48.858643 33.960110 -9.764085
v -39.215641 44.222878 -26.807178
v 24.308540 39.272305 43.693192
v 19.647535 47.551907 42.089603
v 18.730106 47.889503 42.156792
v 17.228352 29.485312 46.989216
v 46.615414 8.499634 18.412243
v 44.524136 32.684395 22.948753
v 43.173668 29.248663 25.314293
v 46.781059 37.491848 18.123945
v 45.081944 35.333412 21.624086
v 49.250408 16.879501 8.738503
v 47.100910 7.603127 17.368738
v -50.027924 11.408333 3.428373
v -50.113132 37.266403 1.296377
v -49.903625 12.689331 4.650043
v -49.545486 14.135376 7.296033
v -49.653988 11.455604 5.872088
v -48.996059 15.530654 9.969199
v -48.777729 18.084637 11.126212
v -48.111351 19.256332 13.611977
v -41.811668 11.455604 -27.418688
v -50.056828 35.456364 -3.020541
v -40.287319 35.456364 29.862040
v -40.690228 34.133999 29.296171
v -39.216370 8.584072 31.225382
v -33.743950 9.426617 36.275135
v 15.502088 28.546574 47.579357
v -8.043394 6.438069 49.301090
v -29.578667 15.011268 39.963337
v -29.008547 16.692564 40.572929
v -22.340897 28.571890 44.386814
v 31.091293 14.135376 39.259636
v 28.978868 12.689331 40.892784
v 31.929869 12.830785 38.260258
v 27.983021 11.408333 41.611267
v 25.607672 8.442943 43.167713
v 47.215347 6.503850 16.416460
v -47.711926 23.285173 -14.693006
v 43.401768 29.485312 24.921656
v 47.063705 7.524035 17.436646
v 47.364285 8.442943 16.608091
v -49.268990 16.879501 8.633125
v -50.030853 37.301849 1.584987
v -48.396614 20.666126 12.215534
v -49.990208 11.834759 3.835258
v -39.086327 37.491848 31.451614
v 33.131611 15.530654 37.447231
v 28.316534 11.834759 41.375160
v 47.041363 5.411980 15.324590
v -39.838646 36.756008 30.420248
f 1 2 3
f 4 5 6
f 4 3 2
f 7 4 6
f 7 3 4
f 8 9 2
f 8 2 1
f 10 11 1
f 10 1 3
f 12 13 1
f 14 15 16
f 17 4 2
f 18 5 19
f 20 21 5
f 22 21 3
f 22 5 21
f 23 7 19
f 23 19 5
f 24 19 7
f 25 9 26
f 27 8 1
f 28 11 29
f 28 12 1
f 28 1 11
f 30 16 15
f 30 15 14
f 31 16 30
f 32 14 16
f 32 16 31
f 33 34 35
f 33 35 36
f 33 4 34
f 37 4 33
f 37 38 5
f 37 5 4
f 39 5 38
f 39 38 36
f 39 36 5
f 40 34 4
f 40 4 17
f 41 20 5
f 42 7 23
f 42 23 5
f 42 5 22
f 42 22 3
f 42 3 7
f 43 18 19
f 43 19 24
f 43 24 5
f 43 5 18
f 44 6 5
f 44 5 24
f 44 24 7
f 44 7 6
f 45 2 9
f 45 9 25
f 46 31 30
f 46 30 14
f 47 48 49
f 50 8 27
f 51 26 9
f 51 9 8
f 52 26 51
f 53 14 54
f 53 55 14
f 56 32 57
f 58 10 59
f 60 59 10
f 61 32 31
f 62 38 37
f 62 37 33
f 62 33 36
f 62 36 38
f 63 36 64
f 63 34 40
f 63 40 65
f 66 65 40
f 66 40 17
f 67 68 5
f 67 5 69
f 70 41 5
f 70 5 68
f 71 72 73
f 74 75 76
f 77 78 45
f 77 45 25
f 77 25 79
f 77 79 80
f 77 80 78
f 81 78 80
f 82 83 81
f 82 81 80
f 82 73 83
f 84 80 79
f 85 86 87
f 88 5 89
f 90 46 14
f 91 89 5
f 91 5 36
f 91 36 92
f 93 72 71
f 93 71 94
f 93 95 72
f 96 95 93
f 96 86 85
f 96 85 97
f 98 52 51
f 98 51 8
f 99 57 32
f 99 100 57
f 101 102 103
f 101 53 54
f 104 105 106
f 107 108 109
f 110 13 12
f 111 110 12
f 111 12 28
f 112 29 11
f 113 1 13
f 114 115 116
f 117 76 118
f 119 120 36
f 121 49 48
f 122 36 123
f 122 124 119
f 125 123 36
f 126 124 122
f 126 127 124
f 128 127 129
f 128 129 36
f 128 36 127
f 130 131 125
f 130 125 36
f 130 36 129
f 130 129 127
f 130 127 131
f 132 68 67
f 132 67 69
f 132 69 5
f 133 87 134
f 133 134 135
f 136 61 31
f 136 31 46
f 136 88 89
f 136 89 91
f 137 127 36
f 137 36 63
f 138 63 64
f 138 64 36
f 139 66 17
f 139 17 140
f 141 142 143
f 144 143 142
f 145 20 41
f 146 41 70
f 146 70 68
f 147 144 142
f 148 147 149
f 150 94 71
f 150 71 73
f 150 73 94
f 151 72 95
f 151 95 152
f 151 152 73
f 151 73 72
f 153 75 74
f 153 74 2
f 154 81 83
f 154 83 118
f 154 118 76
f 155 78 81
f 156 157 158
f 156 158 85
f 156 85 87
f 159 46 90
f 160 90 14
f 161 162 136
f 161 136 91
f 161 91 92
f 163 92 36
f 163 36 48
f 164 135 134
f 164 165 135
f 166 100 99
f 167 134 87
f 167 87 168
f 169 86 96
f 169 96 93
f 169 93 170
f 169 170 167
f 169 167 168
f 169 168 87
f 169 87 86
f 171 170 93
f 171 93 94
f 172 109 108
f 172 173 8
f 172 8 50
f 172 50 27
f 172 27 1
f 172 174 109
f 175 26 52
f 175 52 98
f 176 133 135
f 176 135 165
f 176 99 32
f 176 32 61
f 177 178 179
f 177 180 100
f 177 100 178
f 181 182 56
f 181 56 57
f 181 57 100
f 183 102 101
f 183 101 54
f 184 8 173
f 184 173 185
f 186 187 104
f 186 104 188
f 189 190 191
f 192 107 109
f 192 109 174
f 193 194 195
f 196 197 198
f 199 198 197
f 199 197 195
f 199 195 198
f 200 198 195
f 201 198 200
f 201 116 202
f 201 202 196
f 201 196 198
f 203 204 205
f 206 207 208
f 206 208 209
f 210 211 90
f 210 90 160
f 210 160 14
f 212 213 214
f 215 216 29
f 217 218 29
f 219 110 111
f 220 10 58
f 220 112 11
f 220 11 10
f 221 58 59
f 222 3 21
f 223 224 225
f 223 225 60
f 223 60 10
f 223 10 3
f 226 225 224
f 226 224 227
f 226 227 145
f 228 110 229
f 228 113 13
f 230 115 114
f 230 114 116
f 230 116 201
f 230 201 231
f 230 231 115
f 232 85 158
f 233 234 117
f 233 117 118
f 233 118 83
f 233 83 73
f 233 235 234
f 236 140 17
f 236 117 237
f 238 119 124
f 238 124 127
f 239 240 241
f 242 120 121
f 242 121 48
f 242 48 36
f 242 36 120
f 243 240 244
f 245 36 122
f 245 122 119
f 245 119 36
f 246 123 125
f 246 125 131
f 246 131 127
f 246 127 123
f 247 123 127
f 247 127 126
f 247 126 122
f 247 122 123
f 248 249 5
f 248 5 250
f 251 5 252
f 253 132 5
f 253 254 255
f 253 146 68
f 253 68 132
f 256 61 136
f 256 136 162
f 256 162 163
f 256 163 48
f 256 48 47
f 256 47 61
f 257 47 49
f 257 258 61
f 257 61 47
f 259 61 258
f 260 261 262
f 263 214 213
f 264 209 208
f 265 194 193
f 265 193 190
f 266 267 264
f 266 264 208
f 266 268 269
f 270 34 63
f 270 63 138
f 270 138 36
f 270 36 35
f 270 35 34
f 271 65 66
f 271 66 139
f 272 143 144
f 272 144 273
f 272 274 275
f 276 272 273
f 276 273 277
f 278 255 279
f 278 280 277
f 281 273 144
f 281 144 282
f 281 282 277
f 281 277 273
f 283 277 282
f 283 282 144
f 283 144 147
f 283 147 284
f 283 284 277
f 285 277 286
f 285 286 275
f 287 286 277
f 288 20 145
f 289 41 146
f 289 146 253
f 289 253 255
f 289 255 41
f 290 148 149
f 290 149 291
f 292 147 148
f 292 148 290
f 292 290 225
f 292 284 147
f 293 78 155
f 293 155 81
f 293 81 154
f 293 154 76
f 293 76 75
f 293 75 153
f 294 188 295
f 296 188 297
f 298 299 25
f 298 25 300
f 298 300 301
f 302 79 25
f 302 84 79
f 303 121 239
f 303 239 241
f 303 241 157
f 303 49 121
f 304 243 244
f 305 46 159
f 306 46 305
f 306 305 159
f 306 159 90
f 306 90 307
f 306 307 308
f 309 90 310
f 311 211 214
f 311 214 312
f 311 312 310
f 311 310 90
f 311 90 211
f 313 161 92
f 313 92 163
f 313 163 162
f 313 162 161
f 314 164 166
f 314 165 164
f 315 166 164
f 316 170 171
f 316 171 94
f 317 174 172
f 317 172 1
f 317 1 113
f 317 113 228
f 317 228 115
f 317 115 174
f 318 187 175
f 318 175 319
f 318 319 187
f 320 133 176
f 320 176 61
f 320 61 259
f 320 87 133
f 321 166 99
f 321 99 176
f 321 176 165
f 321 165 314
f 321 314 166
f 322 101 103
f 322 103 323
f 324 325 326
f 324 105 104
f 324 104 187
f 324 187 319
f 327 328 329
f 327 329 106
f 330 319 184
f 330 184 185
f 330 185 325
f 330 325 324
f 330 324 319
f 331 175 98
f 331 98 8
f 331 8 184
f 331 184 319
f 331 319 175
f 332 100 166
f 332 166 315
f 333 334 335
f 333 335 188
f 333 188 334
f 336 25 26
f 336 187 186
f 336 186 188
f 336 188 300
f 336 300 25
f 337 189 191
f 337 338 339
f 340 196 202
f 340 202 116
f 340 116 115
f 341 338 337
f 341 337 191
f 341 191 190
f 342 115 231
f 343 197 193
f 343 193 195
f 343 195 197
f 344 337 339
f 345 195 323
f 345 323 346
f 347 348 185
f 347 185 173
f 349 185 348
f 350 103 102
f 351 352 353
f 351 353 354
f 351 355 352
f 356 203 205
f 357 205 358
f 357 358 359
f 360 204 361
f 360 205 204
f 362 208 207
f 363 364 365
f 363 365 366
f 367 211 210
f 368 213 212
f 369 215 29
f 370 217 29
f 370 29 112
f 371 29 216
f 372 229 110
f 372 110 219
f 372 219 111
f 372 111 373
f 374 58 221
f 374 221 112
f 374 112 220
f 374 220 58
f 375 221 59
f 375 59 60
f 376 222 21
f 376 21 20
f 376 20 288
f 376 288 145
f 376 145 227
f 376 227 224
f 377 3 222
f 377 224 223
f 377 223 3
f 378 226 145
f 378 145 41
f 378 41 255
f 378 255 278
f 378 278 277
f 379 110 228
f 379 228 13
f 379 13 110
f 380 73 152
f 380 152 95
f 381 97 85
f 381 85 232
f 381 95 96
f 381 96 97
f 382 117 234
f 383 117 384
f 385 2 74
f 385 74 76
f 385 76 117
f 385 117 236
f 385 236 17
f 385 17 2
f 386 140 236
f 386 236 237
f 387 388 65
f 387 65 271
f 387 271 139
f 387 139 140
f 387 140 386
f 387 386 389
f 390 119 238
f 390 127 304
f 390 304 244
f 391 120 119
f 391 244 240
f 391 240 239
f 391 239 121
f 391 121 120
f 392 249 248
f 392 248 250
f 392 250 5
f 392 5 88
f 392 88 136
f 392 136 46
f 392 46 306
f 393 254 253
f 393 253 394
f 393 394 395
f 396 251 252
f 396 394 253
f 396 253 5
f 396 5 251
f 397 280 278
f 397 278 279
f 398 286 287
f 398 287 280
f 398 275 286
f 399 258 257
f 399 257 49
f 400 312 401
f 400 401 402
f 400 402 261
f 400 261 260
f 403 310 312
f 403 312 400
f 403 400 260
f 403 260 262
f 403 309 310
f 404 214 263
f 404 263 213
f 404 401 312
f 404 312 214
f 405 364 406
f 407 194 265
f 407 265 267
f 407 267 194
f 408 267 266
f 408 266 269
f 408 269 194
f 408 194 267
f 409 410 411
f 409 411 143
f 409 143 272
f 409 272 275
f 412 274 272
f 412 272 276
f 412 276 277
f 412 277 274
f 413 277 285
f 413 285 275
f 413 275 274
f 413 274 277
f 414 280 287
f 414 287 277
f 414 277 280
f 415 225 290
f 415 290 291
f 415 291 225
f 416 284 292
f 417 277 284
f 417 284 416
f 417 416 292
f 417 292 225
f 417 225 226
f 417 226 378
f 417 378 277
f 418 419 420
f 421 213 368
f 422 147 142
f 422 423 149
f 422 149 147
f 424 425 149
f 426 78 293
f 426 293 153
f 426 153 2
f 426 2 45
f 426 45 78
f 427 80 84
f 428 297 188
f 428 188 294
f 429 430 188
f 429 188 431
f 432 188 430
f 432 295 188
f 433 179 434
f 433 430 429
f 433 429 431
f 435 294 295
f 435 295 432
f 435 432 430
f 435 430 433
f 435 433 434
f 435 434 436
f 437 298 301
f 437 301 300
f 437 300 188
f 437 188 296
f 438 25 299
f 439 440 399
f 439 399 49
f 439 49 303
f 439 303 157
f 439 157 156
f 439 156 440
f 441 158 157
f 441 157 442
f 441 442 443
f 444 157 241
f 444 241 240
f 444 240 243
f 444 243 304
f 445 446 306
f 445 306 308
f 445 308 395
f 447 252 5
f 447 306 446
f 447 446 448
f 447 448 252
f 449 90 309
f 449 309 262
f 449 262 307
f 449 307 90
f 450 134 167
f 451 452 453
f 451 453 334
f 454 177 179
f 454 179 433
f 454 335 334
f 454 334 453
f 454 453 452
f 454 452 177
f 455 55 456
f 455 14 55
f 457 53 101
f 457 101 322
f 457 322 458
f 457 458 456
f 457 55 53
f 459 323 195
f 459 195 194
f 459 194 269
f 459 269 456
f 459 456 458
f 459 458 322
f 459 322 323
f 460 54 14
f 460 14 32
f 460 32 461
f 460 183 54
f 462 463 461
f 462 461 32
f 462 32 56
f 462 56 182
f 462 182 463
f 464 325 185
f 464 326 325
f 465 326 464
f 465 360 361
f 465 328 327
f 465 327 326
f 466 204 329
f 466 329 361
f 466 361 204
f 467 203 329
f 467 329 204
f 467 204 203
f 468 106 329
f 469 361 329
f 469 329 328
f 469 328 465
f 469 465 361
f 470 105 324
f 470 324 326
f 470 326 327
f 470 327 106
f 470 106 105
f 471 434 179
f 472 187 336
f 472 336 26
f 472 26 175
f 472 175 187
f 473 267 265
f 473 265 190
f 473 264 267
f 474 115 228
f 474 228 229
f 475 207 206
f 475 476 207
f 477 478 340
f 477 340 115
f 477 115 474
f 479 193 197
f 479 197 196
f 479 196 344
f 479 344 339
f 479 339 338
f 479 338 341
f 479 341 190
f 479 190 193
f 480 340 478
f 480 478 477
f 480 477 337
f 480 337 344
f 480 344 196
f 480 196 340
f 481 201 345
f 481 345 346
f 481 346 482
f 481 482 342
f 481 342 231
f 481 231 201
f 483 200 195
f 483 195 345
f 483 345 201
f 483 201 200
f 484 485 359
f 484 359 349
f 484 349 348
f 486 323 485
f 486 485 482
f 486 482 346
f 486 346 323
f 487 107 347
f 487 108 107
f 488 172 108
f 488 108 487
f 488 487 347
f 488 347 173
f 488 173 172
f 489 490 185
f 489 185 349
f 491 102 355
f 491 355 351
f 491 351 492
f 491 492 493
f 491 493 494
f 491 494 350
f 491 350 102
f 495 183 355
f 495 355 102
f 495 102 183
f 496 352 355
f 496 355 183
f 497 494 493
f 497 485 494
f 498 323 103
f 498 103 350
f 498 350 494
f 498 494 485
f 498 485 323
f 499 354 353
f 499 359 354
f 500 351 354
f 500 354 359
f 500 359 501
f 502 353 356
f 503 203 356
f 503 356 353
f 503 353 352
f 504 356 205
f 504 205 357
f 504 357 359
f 504 359 505
f 504 505 356
f 506 362 207
f 506 207 476
f 506 476 365
f 507 364 363
f 507 406 364
f 508 211 367
f 508 406 507
f 508 507 363
f 508 363 214
f 508 214 211
f 509 508 367
f 509 367 210
f 510 366 511
f 510 512 368
f 510 368 212
f 510 212 214
f 510 214 363
f 510 363 366
f 513 514 511
f 513 511 366
f 513 366 514
f 515 516 419
f 515 419 418
f 515 418 511
f 515 511 514
f 517 373 371
f 517 371 216
f 518 514 366
f 519 217 520
f 519 520 218
f 519 218 217
f 521 516 515
f 521 515 522
f 523 111 28
f 523 28 29
f 523 29 371
f 523 371 373
f 523 373 111
f 524 425 525
f 526 222 376
f 526 376 224
f 526 224 377
f 526 377 222
f 527 528 158
f 529 232 528
f 530 73 531
f 530 531 529
f 532 158 528
f 532 528 232
f 532 232 158
f 533 380 95
f 533 95 381
f 533 381 232
f 533 232 529
f 533 529 534
f 535 73 534
f 535 534 529
f 535 529 531
f 535 531 73
f 536 117 382
f 536 382 384
f 536 384 117
f 537 528 527
f 537 527 158
f 537 158 538
f 539 237 117
f 539 117 383
f 539 383 443
f 540 443 442
f 540 386 237
f 540 237 539
f 540 539 443
f 541 388 387
f 541 387 389
f 541 389 386
f 541 386 540
f 541 540 444
f 542 127 390
f 542 390 238
f 542 238 127
f 543 244 391
f 543 391 119
f 543 119 390
f 543 390 244
f 544 249 392
f 544 392 306
f 544 306 447
f 544 447 5
f 544 5 249
f 545 394 396
f 545 396 252
f 546 547 397
f 546 397 279
f 546 279 255
f 546 255 254
f 548 395 308
f 548 308 307
f 548 307 262
f 548 262 261
f 548 261 411
f 548 411 549
f 550 393 395
f 550 395 548
f 550 548 551
f 552 397 547
f 552 547 398
f 552 398 280
f 552 280 397
f 553 410 409
f 553 409 275
f 553 275 398
f 553 549 411
f 553 411 410
f 554 399 440
f 554 440 156
f 554 156 87
f 554 87 320
f 554 320 259
f 555 309 403
f 555 403 262
f 555 262 309
f 556 208 362
f 556 405 269
f 556 269 268
f 556 268 266
f 556 266 208
f 557 269 405
f 558 209 264
f 558 264 559
f 558 206 209
f 560 561 418
f 560 418 420
f 562 418 561
f 562 561 563
f 562 563 564
f 562 564 565
f 562 565 421
f 562 421 368
f 566 511 418
f 566 418 562
f 566 562 368
f 566 368 512
f 566 512 510
f 566 510 511
f 567 568 569
f 570 401 404
f 571 572 569
f 571 569 568
f 573 411 261
f 573 261 402
f 573 402 424
f 573 423 422
f 573 142 141
f 573 141 143
f 573 143 411
f 574 423 573
f 574 573 424
f 574 424 149
f 574 149 423
f 575 525 425
f 575 425 424
f 575 424 402
f 576 80 427
f 576 427 577
f 576 577 82
f 576 82 80
f 578 299 298
f 579 302 25
f 579 25 438
f 579 438 299
f 580 158 441
f 580 538 158
f 581 137 63
f 581 63 65
f 581 65 388
f 581 388 541
f 582 127 137
f 582 137 581
f 582 581 541
f 582 541 444
f 582 444 304
f 582 304 127
f 583 394 545
f 583 545 252
f 583 252 448
f 583 448 446
f 583 446 445
f 583 445 395
f 583 395 394
f 584 315 164
f 584 164 134
f 584 134 450
f 584 450 577
f 584 577 332
f 584 332 315
f 585 577 450
f 585 82 577
f 586 585 450
f 586 450 167
f 586 167 170
f 587 73 82
f 587 82 588
f 587 588 316
f 587 316 94
f 587 94 73
f 589 335 454
f 589 454 433
f 589 433 431
f 589 431 188
f 589 188 335
f 590 591 181
f 590 181 100
f 590 100 180
f 590 180 177
f 590 177 452
f 592 181 591
f 592 591 106
f 592 106 468
f 592 468 593
f 592 593 182
f 592 182 181
f 594 55 457
f 594 457 456
f 594 456 55
f 595 185 490
f 596 593 468
f 596 468 183
f 596 183 460
f 596 460 461
f 596 461 463
f 596 463 182
f 596 182 593
f 597 598 473
f 597 473 190
f 597 190 189
f 597 189 337
f 597 337 598
f 599 598 337
f 599 473 598
f 600 337 477
f 600 477 474
f 600 474 229
f 600 229 372
f 600 372 373
f 600 373 476
f 601 337 600
f 601 600 476
f 601 476 475
f 601 475 206
f 601 206 558
f 601 558 337
f 602 342 482
f 602 482 192
f 602 192 174
f 602 174 115
f 602 115 342
f 603 107 192
f 604 482 485
f 604 485 484
f 604 484 348
f 604 107 603
f 604 603 192
f 604 192 482
f 605 360 489
f 605 349 359
f 606 490 489
f 606 489 360
f 606 360 465
f 606 465 490
f 607 359 485
f 607 485 497
f 607 497 493
f 608 492 351
f 608 351 500
f 608 500 501
f 608 501 359
f 608 359 607
f 608 607 493
f 608 493 492
f 609 499 353
f 609 353 502
f 609 502 359
f 609 359 499
f 610 505 359
f 610 359 502
f 610 502 356
f 610 356 505
f 611 203 503
f 611 352 496
f 611 496 183
f 611 183 468
f 611 468 329
f 611 329 203
f 612 508 509
f 612 509 406
f 612 406 508
f 613 369 29
f 613 29 218
f 613 215 369
f 614 215 613
f 614 517 216
f 614 216 215
f 615 373 517
f 616 112 221
f 616 370 112
f 617 375 60
f 617 60 225
f 617 225 524
f 617 524 525
f 617 525 375
f 618 291 149
f 618 149 425
f 618 425 524
f 618 524 225
f 618 225 291
f 619 73 530
f 619 234 235
f 619 235 233
f 619 233 73
f 620 533 534
f 620 534 73
f 621 234 619
f 621 619 530
f 621 530 529
f 621 529 528
f 621 528 537
f 622 382 234
f 622 234 621
f 623 444 540
f 623 540 442
f 623 442 157
f 623 157 444
f 624 547 546
f 624 546 254
f 624 254 393
f 624 393 550
f 624 550 547
f 625 551 548
f 625 548 549
f 625 549 553
f 625 553 398
f 625 398 547
f 625 547 550
f 625 550 551
f 626 258 399
f 626 399 554
f 626 554 259
f 626 259 258
f 627 364 405
f 627 405 556
f 627 556 362
f 627 362 506
f 627 506 365
f 627 365 364
f 628 406 509
f 628 509 210
f 628 210 557
f 628 557 405
f 628 405 406
f 629 455 456
f 629 456 269
f 629 269 557
f 629 557 210
f 629 210 14
f 629 14 455
f 630 337 558
f 630 558 559
f 630 559 337
f 631 564 563
f 631 563 561
f 631 561 560
f 631 560 420
f 631 420 419
f 631 419 516
f 631 516 521
f 631 521 522
f 631 522 520
f 631 520 217
f 631 217 370
f 631 568 567
f 631 565 564
f 632 421 567
f 632 567 569
f 633 565 631
f 633 567 421
f 633 421 565
f 634 402 401
f 634 401 570
f 634 570 572
f 635 213 421
f 635 421 632
f 635 632 569
f 635 569 572
f 635 572 570
f 635 570 404
f 635 404 213
f 636 142 573
f 636 573 422
f 636 422 142
f 637 402 634
f 637 634 572
f 637 572 571
f 637 571 568
f 637 568 631
f 638 427 84
f 638 577 427
f 639 577 638
f 639 640 641
f 639 332 577
f 642 641 640
f 642 638 84
f 642 84 302
f 642 302 579
f 642 579 299
f 642 299 578
f 643 644 641
f 643 641 642
f 643 642 578
f 643 578 298
f 643 298 437
f 643 437 296
f 645 436 644
f 645 644 643
f 645 643 296
f 645 296 297
f 645 297 428
f 645 428 294
f 645 294 435
f 645 435 436
f 646 443 383
f 646 383 384
f 646 384 382
f 646 382 622
f 646 622 621
f 646 621 537
f 646 537 538
f 646 538 580
f 646 580 441
f 646 441 443
f 647 316 588
f 647 588 82
f 647 82 585
f 647 585 586
f 647 586 170
f 647 170 316
f 648 452 451
f 648 451 649
f 648 649 104
f 650 188 104
f 650 104 649
f 650 649 451
f 650 451 334
f 650 334 188
f 651 464 185
f 651 185 595
f 651 595 490
f 651 490 465
f 651 465 464
f 652 559 264
f 652 264 473
f 652 473 599
f 652 599 337
f 652 337 559
f 653 347 107
f 653 107 604
f 653 604 348
f 653 348 347
f 654 349 605
f 654 605 489
f 654 489 349
f 655 205 360
f 655 360 605
f 655 605 359
f 655 359 358
f 655 358 205
f 656 352 611
f 656 611 503
f 656 503 352
f 657 514 518
f 657 518 366
f 657 366 658
f 657 658 614
f 659 614 613
f 659 613 218
f 660 366 365
f 660 365 615
f 660 615 517
f 660 517 614
f 661 476 373
f 661 373 615
f 661 615 365
f 661 365 476
f 662 375 525
f 662 525 637
f 662 370 616
f 662 616 221
f 663 380 533
f 663 533 620
f 663 620 73
f 663 73 380
f 664 567 633
f 664 633 631
f 664 631 567
f 665 370 662
f 665 662 637
f 665 637 631
f 665 631 370
f 666 575 402
f 666 402 637
f 666 637 525
f 666 525 575
f 667 644 639
f 667 639 641
f 667 641 644
f 668 434 471
f 668 471 179
f 668 179 178
f 668 178 100
f 668 100 332
f 668 332 639
f 668 639 436
f 668 436 434
f 669 436 639
f 669 639 644
f 669 644 436
f 670 638 642
f 670 642 640
f 670 640 639
f 670 639 638
f 671 106 591
f 671 648 104
f 671 104 106
f 672 522 515
f 672 515 514
f 672 514 657
f 672 657 614
f 672 614 659
f 672 659 218
f 672 218 520
f 672 520 522
f 673 366 660
f 673 660 614
f 673 614 658
f 673 658 366
f 674 375 662
f 674 662 221
f 674 221 375
f 675 452 648
f 675 648 671
f 675 671 591
f 675 591 590
f 675 590 452
