ISO-10303-21;
HEADER;
/* Generated by software containing ST-Developer
 * from STEP Tools, Inc. (www.steptools.com) 
 */

FILE_DESCRIPTION(
/* description */ (''),
/* implementation_level */ '2;1');

FILE_NAME(
/* name */ '/Users/ayahni/Downloads/GT2 Timing Pulley 20 Tooth.step',
/* time_stamp */ '2019-09-18T12:47:58-05:00',
/* author */ (''),
/* organization */ (''),
/* preprocessor_version */ 'ST-DEVELOPER v18',
/* originating_system */ 'Autodesk Translation Framework v8.6.0.1094',
/* authorisation */ '');

FILE_SCHEMA (('AUTOMOTIVE_DESIGN { 1 0 10303 214 3 1 1 }'));
ENDSEC;

DATA;
#10=MECHANICAL_DESIGN_GEOMETRIC_PRESENTATION_REPRESENTATION('',(#13),#538);
#11=SHAPE_REPRESENTATION_RELATIONSHIP('SRR','None',#545,#12);
#12=ADVANCED_BREP_SHAPE_REPRESENTATION('',(#14),#537);
#13=STYLED_ITEM('',(#554),#14);
#14=MANIFOLD_SOLID_BREP('Body1',#227);
#15=PLANE('',#246);
#16=PLANE('',#252);
#17=PLANE('',#258);
#18=PLANE('',#264);
#19=FACE_BOUND('',#36,.T.);
#20=FACE_BOUND('',#38,.T.);
#21=FACE_BOUND('',#40,.T.);
#22=FACE_BOUND('',#42,.T.);
#23=FACE_BOUND('',#45,.T.);
#24=FACE_BOUND('',#48,.T.);
#25=FACE_OUTER_BOUND('',#35,.T.);
#26=FACE_OUTER_BOUND('',#37,.T.);
#27=FACE_OUTER_BOUND('',#39,.T.);
#28=FACE_OUTER_BOUND('',#41,.T.);
#29=FACE_OUTER_BOUND('',#43,.T.);
#30=FACE_OUTER_BOUND('',#44,.T.);
#31=FACE_OUTER_BOUND('',#46,.T.);
#32=FACE_OUTER_BOUND('',#47,.T.);
#33=FACE_OUTER_BOUND('',#49,.T.);
#34=FACE_OUTER_BOUND('',#50,.T.);
#35=EDGE_LOOP('',(#147,#148,#149,#150,#151,#152,#153,#154,#155,#156));
#36=EDGE_LOOP('',(#157,#158));
#37=EDGE_LOOP('',(#159,#160));
#38=EDGE_LOOP('',(#161,#162));
#39=EDGE_LOOP('',(#163,#164,#165,#166,#167,#168,#169,#170,#171,#172));
#40=EDGE_LOOP('',(#173,#174));
#41=EDGE_LOOP('',(#175,#176));
#42=EDGE_LOOP('',(#177,#178));
#43=EDGE_LOOP('',(#179,#180,#181,#182,#183,#184));
#44=EDGE_LOOP('',(#185,#186));
#45=EDGE_LOOP('',(#187,#188));
#46=EDGE_LOOP('',(#189,#190,#191,#192,#193,#194));
#47=EDGE_LOOP('',(#195,#196));
#48=EDGE_LOOP('',(#197,#198));
#49=EDGE_LOOP('',(#199,#200,#201,#202,#203,#204));
#50=EDGE_LOOP('',(#205,#206,#207,#208,#209,#210));
#51=B_SPLINE_CURVE_WITH_KNOTS('',3,(#338,#339,#340,#341,#342,#343,#344,
#345,#346,#347,#348,#349,#350,#351,#352,#353,#354,#355),.UNSPECIFIED.,.F.,
 .F.,(4,2,2,2,2,2,2,2,4),(0.192195276051884,0.240178513967642,0.2881617518834,
0.336276151993584,0.384390552103768,0.432504952213951,0.480619352324135,
0.528602590239893,0.576585828155651),.UNSPECIFIED.);
#52=B_SPLINE_CURVE_WITH_KNOTS('',3,(#361,#362,#363,#364,#365,#366,#367,
#368,#369,#370,#371,#372,#373,#374,#375,#376,#377,#378,#379),
 .UNSPECIFIED.,.F.,.F.,(4,2,2,2,3,2,2,2,4),(-0.192195276051884,-0.144212038136126,
-0.0962288002203677,-0.0481144001101838,0.,0.0481144001101839,0.0962288002203677,
0.144212038136126,0.192195276051884),.UNSPECIFIED.);
#53=B_SPLINE_CURVE_WITH_KNOTS('',3,(#382,#383,#384,#385,#386,#387,#388,
#389,#390,#391,#392,#393,#394,#395,#396,#397,#398,#399),.UNSPECIFIED.,.F.,
 .F.,(4,2,2,2,2,2,2,2,4),(-0.768781104207539,-0.720666704097355,-0.672552303987171,
-0.624569066071413,-0.576585828155654,-0.528602590239896,-0.480619352324138,
-0.432504952213954,-0.38439055210377),.UNSPECIFIED.);
#54=B_SPLINE_CURVE_WITH_KNOTS('',3,(#400,#401,#402,#403,#404,#405,#406,
#407,#408,#409,#410,#411,#412,#413,#414,#415,#416,#417),.UNSPECIFIED.,.F.,
 .F.,(4,2,2,2,2,2,2,2,4),(-0.38439055210377,-0.336276151993586,-0.288161751883401,
-0.240178513967643,-0.192195276051885,-0.144212038136126,-0.0962288002203682,
-0.0481144001101841,0.),.UNSPECIFIED.);
#55=B_SPLINE_CURVE_WITH_KNOTS('',3,(#431,#432,#433,#434,#435,#436,#437,
#438,#439,#440,#441,#442,#443,#444,#445,#446,#447,#448),.UNSPECIFIED.,.F.,
 .F.,(4,2,2,2,2,2,2,2,4),(0.188722292657448,0.235902235742974,0.2830821788285,
0.330263382071698,0.377444585314896,0.424625788558094,0.471806991801293,
0.518986934886818,0.566166877972344),.UNSPECIFIED.);
#56=B_SPLINE_CURVE_WITH_KNOTS('',3,(#450,#451,#452,#453,#454,#455,#456,
#457,#458,#459,#460,#461,#462,#463,#464,#465,#466,#467,#468),
 .UNSPECIFIED.,.F.,.F.,(4,2,2,2,3,2,2,2,4),(0.566166877972344,0.61334682105787,
0.660526764143396,0.707707967386594,0.754889170629792,0.80207037387299,
0.849251577116189,0.896431520201714,0.94361146328724),.UNSPECIFIED.);
#57=B_SPLINE_CURVE_WITH_KNOTS('',3,(#471,#472,#473,#474,#475,#476,#477,
#478,#479,#480,#481,#482,#483,#484,#485,#486,#487,#488,#489,#490,#491,#492,
#493,#494,#495,#496,#497),.UNSPECIFIED.,.F.,.F.,(4,2,2,2,3,2,2,2,2,2,2,
2,4),(0.566166877972347,0.613346821057873,0.660526764143399,0.707707967386597,
0.754889170629796,0.802070373872995,0.849251577116193,0.896431520201719,
0.943611463287245,0.990791406372771,1.0379713494583,1.0851525527015,1.13233375594469),
 .UNSPECIFIED.);
#58=B_SPLINE_CURVE_WITH_KNOTS('',3,(#498,#499,#500,#501,#502,#503,#504,
#505,#506,#507),.UNSPECIFIED.,.F.,.F.,(4,2,2,2,4),(1.13233375594469,1.17951495918789,
1.22669616243109,1.27387610551662,1.32105604860214),.UNSPECIFIED.);
#59=LINE('',#336,#67);
#60=LINE('',#357,#68);
#61=LINE('',#429,#69);
#62=LINE('',#449,#70);
#63=LINE('',#518,#71);
#64=LINE('',#529,#72);
#65=LINE('',#532,#73);
#66=LINE('',#534,#74);
#67=VECTOR('',#275,2.5);
#68=VECTOR('',#276,2.5);
#69=VECTOR('',#293,7.5);
#70=VECTOR('',#294,7.5);
#71=VECTOR('',#307,6.1);
#72=VECTOR('',#320,7.5);
#73=VECTOR('',#325,1.25);
#74=VECTOR('',#328,1.24999999999999);
#75=CIRCLE('',#242,2.5);
#76=CIRCLE('',#243,2.5);
#77=CIRCLE('',#244,2.5);
#78=CIRCLE('',#245,2.5);
#79=CIRCLE('',#247,7.5);
#80=CIRCLE('',#248,7.5);
#81=CIRCLE('',#250,7.5);
#82=CIRCLE('',#251,7.5);
#83=CIRCLE('',#253,6.1);
#84=CIRCLE('',#254,6.1);
#85=CIRCLE('',#256,6.1);
#86=CIRCLE('',#257,6.1);
#87=CIRCLE('',#259,7.5);
#88=CIRCLE('',#260,7.5);
#89=CIRCLE('',#262,7.5);
#90=CIRCLE('',#263,7.5);
#91=VERTEX_POINT('',#331);
#92=VERTEX_POINT('',#332);
#93=VERTEX_POINT('',#335);
#94=VERTEX_POINT('',#337);
#95=VERTEX_POINT('',#356);
#96=VERTEX_POINT('',#358);
#97=VERTEX_POINT('',#380);
#98=VERTEX_POINT('',#381);
#99=VERTEX_POINT('',#419);
#100=VERTEX_POINT('',#420);
#101=VERTEX_POINT('',#424);
#102=VERTEX_POINT('',#425);
#103=VERTEX_POINT('',#428);
#104=VERTEX_POINT('',#430);
#105=VERTEX_POINT('',#469);
#106=VERTEX_POINT('',#470);
#107=VERTEX_POINT('',#509);
#108=VERTEX_POINT('',#510);
#109=VERTEX_POINT('',#514);
#110=VERTEX_POINT('',#515);
#111=VERTEX_POINT('',#520);
#112=VERTEX_POINT('',#521);
#113=VERTEX_POINT('',#525);
#114=VERTEX_POINT('',#526);
#115=EDGE_CURVE('',#91,#92,#75,.T.);
#116=EDGE_CURVE('',#92,#91,#76,.T.);
#117=EDGE_CURVE('',#92,#93,#59,.T.);
#118=EDGE_CURVE('',#94,#93,#51,.T.);
#119=EDGE_CURVE('',#94,#95,#60,.T.);
#120=EDGE_CURVE('',#95,#96,#77,.T.);
#121=EDGE_CURVE('',#96,#95,#78,.T.);
#122=EDGE_CURVE('',#93,#94,#52,.T.);
#123=EDGE_CURVE('',#97,#98,#53,.T.);
#124=EDGE_CURVE('',#98,#97,#54,.T.);
#125=EDGE_CURVE('',#99,#100,#79,.T.);
#126=EDGE_CURVE('',#100,#99,#80,.T.);
#127=EDGE_CURVE('',#101,#102,#81,.T.);
#128=EDGE_CURVE('',#102,#101,#82,.T.);
#129=EDGE_CURVE('',#102,#103,#61,.T.);
#130=EDGE_CURVE('',#104,#103,#55,.T.);
#131=EDGE_CURVE('',#104,#100,#62,.T.);
#132=EDGE_CURVE('',#103,#104,#56,.T.);
#133=EDGE_CURVE('',#105,#106,#57,.T.);
#134=EDGE_CURVE('',#106,#105,#58,.T.);
#135=EDGE_CURVE('',#107,#108,#83,.T.);
#136=EDGE_CURVE('',#108,#107,#84,.T.);
#137=EDGE_CURVE('',#109,#110,#85,.T.);
#138=EDGE_CURVE('',#110,#109,#86,.T.);
#139=EDGE_CURVE('',#110,#108,#63,.T.);
#140=EDGE_CURVE('',#111,#112,#87,.T.);
#141=EDGE_CURVE('',#112,#111,#88,.T.);
#142=EDGE_CURVE('',#113,#114,#89,.T.);
#143=EDGE_CURVE('',#114,#113,#90,.T.);
#144=EDGE_CURVE('',#114,#112,#64,.T.);
#145=EDGE_CURVE('',#106,#98,#65,.T.);
#146=EDGE_CURVE('',#103,#94,#66,.T.);
#147=ORIENTED_EDGE('',*,*,#115,.F.);
#148=ORIENTED_EDGE('',*,*,#116,.F.);
#149=ORIENTED_EDGE('',*,*,#117,.T.);
#150=ORIENTED_EDGE('',*,*,#118,.F.);
#151=ORIENTED_EDGE('',*,*,#119,.T.);
#152=ORIENTED_EDGE('',*,*,#120,.T.);
#153=ORIENTED_EDGE('',*,*,#121,.T.);
#154=ORIENTED_EDGE('',*,*,#119,.F.);
#155=ORIENTED_EDGE('',*,*,#122,.F.);
#156=ORIENTED_EDGE('',*,*,#117,.F.);
#157=ORIENTED_EDGE('',*,*,#123,.F.);
#158=ORIENTED_EDGE('',*,*,#124,.F.);
#159=ORIENTED_EDGE('',*,*,#125,.F.);
#160=ORIENTED_EDGE('',*,*,#126,.F.);
#161=ORIENTED_EDGE('',*,*,#115,.T.);
#162=ORIENTED_EDGE('',*,*,#116,.T.);
#163=ORIENTED_EDGE('',*,*,#127,.F.);
#164=ORIENTED_EDGE('',*,*,#128,.F.);
#165=ORIENTED_EDGE('',*,*,#129,.T.);
#166=ORIENTED_EDGE('',*,*,#130,.F.);
#167=ORIENTED_EDGE('',*,*,#131,.T.);
#168=ORIENTED_EDGE('',*,*,#126,.T.);
#169=ORIENTED_EDGE('',*,*,#125,.T.);
#170=ORIENTED_EDGE('',*,*,#131,.F.);
#171=ORIENTED_EDGE('',*,*,#132,.F.);
#172=ORIENTED_EDGE('',*,*,#129,.F.);
#173=ORIENTED_EDGE('',*,*,#133,.F.);
#174=ORIENTED_EDGE('',*,*,#134,.F.);
#175=ORIENTED_EDGE('',*,*,#127,.T.);
#176=ORIENTED_EDGE('',*,*,#128,.T.);
#177=ORIENTED_EDGE('',*,*,#135,.F.);
#178=ORIENTED_EDGE('',*,*,#136,.F.);
#179=ORIENTED_EDGE('',*,*,#137,.F.);
#180=ORIENTED_EDGE('',*,*,#138,.F.);
#181=ORIENTED_EDGE('',*,*,#139,.T.);
#182=ORIENTED_EDGE('',*,*,#136,.T.);
#183=ORIENTED_EDGE('',*,*,#135,.T.);
#184=ORIENTED_EDGE('',*,*,#139,.F.);
#185=ORIENTED_EDGE('',*,*,#140,.F.);
#186=ORIENTED_EDGE('',*,*,#141,.F.);
#187=ORIENTED_EDGE('',*,*,#137,.T.);
#188=ORIENTED_EDGE('',*,*,#138,.T.);
#189=ORIENTED_EDGE('',*,*,#142,.F.);
#190=ORIENTED_EDGE('',*,*,#143,.F.);
#191=ORIENTED_EDGE('',*,*,#144,.T.);
#192=ORIENTED_EDGE('',*,*,#141,.T.);
#193=ORIENTED_EDGE('',*,*,#140,.T.);
#194=ORIENTED_EDGE('',*,*,#144,.F.);
#195=ORIENTED_EDGE('',*,*,#142,.T.);
#196=ORIENTED_EDGE('',*,*,#143,.T.);
#197=ORIENTED_EDGE('',*,*,#121,.F.);
#198=ORIENTED_EDGE('',*,*,#120,.F.);
#199=ORIENTED_EDGE('',*,*,#133,.T.);
#200=ORIENTED_EDGE('',*,*,#145,.T.);
#201=ORIENTED_EDGE('',*,*,#124,.T.);
#202=ORIENTED_EDGE('',*,*,#123,.T.);
#203=ORIENTED_EDGE('',*,*,#145,.F.);
#204=ORIENTED_EDGE('',*,*,#134,.T.);
#205=ORIENTED_EDGE('',*,*,#130,.T.);
#206=ORIENTED_EDGE('',*,*,#146,.T.);
#207=ORIENTED_EDGE('',*,*,#118,.T.);
#208=ORIENTED_EDGE('',*,*,#122,.T.);
#209=ORIENTED_EDGE('',*,*,#146,.F.);
#210=ORIENTED_EDGE('',*,*,#132,.T.);
#211=CYLINDRICAL_SURFACE('',#241,2.5);
#212=CYLINDRICAL_SURFACE('',#249,7.5);
#213=CYLINDRICAL_SURFACE('',#255,6.1);
#214=CYLINDRICAL_SURFACE('',#261,7.5);
#215=CYLINDRICAL_SURFACE('',#265,1.25);
#216=CYLINDRICAL_SURFACE('',#266,1.24999999999999);
#217=ADVANCED_FACE('',(#25,#19),#211,.F.);
#218=ADVANCED_FACE('',(#26,#20),#15,.T.);
#219=ADVANCED_FACE('',(#27,#21),#212,.T.);
#220=ADVANCED_FACE('',(#28,#22),#16,.T.);
#221=ADVANCED_FACE('',(#29),#213,.T.);
#222=ADVANCED_FACE('',(#30,#23),#17,.T.);
#223=ADVANCED_FACE('',(#31),#214,.T.);
#224=ADVANCED_FACE('',(#32,#24),#18,.T.);
#225=ADVANCED_FACE('',(#33),#215,.F.);
#226=ADVANCED_FACE('',(#34),#216,.F.);
#227=CLOSED_SHELL('',(#217,#218,#219,#220,#221,#222,#223,#224,#225,#226));
#228=DERIVED_UNIT_ELEMENT(#230,1.);
#229=DERIVED_UNIT_ELEMENT(#540,3.);
#230=(
MASS_UNIT()
NAMED_UNIT(*)
SI_UNIT(.KILO.,.GRAM.)
);
#231=DERIVED_UNIT((#228,#229));
#232=MEASURE_REPRESENTATION_ITEM('density measure',
POSITIVE_RATIO_MEASURE(2700.),#231);
#233=PROPERTY_DEFINITION_REPRESENTATION(#238,#235);
#234=PROPERTY_DEFINITION_REPRESENTATION(#239,#236);
#235=REPRESENTATION('material name',(#237),#537);
#236=REPRESENTATION('density',(#232),#537);
#237=DESCRIPTIVE_REPRESENTATION_ITEM(
'SolidWorks Materials|6061-T6 (SS)','SolidWorks Materials|6061-T6 (SS)');
#238=PROPERTY_DEFINITION('material property','material name',#547);
#239=PROPERTY_DEFINITION('material property','density of part',#547);
#240=AXIS2_PLACEMENT_3D('placement',#329,#267,#268);
#241=AXIS2_PLACEMENT_3D('',#330,#269,#270);
#242=AXIS2_PLACEMENT_3D('',#333,#271,#272);
#243=AXIS2_PLACEMENT_3D('',#334,#273,#274);
#244=AXIS2_PLACEMENT_3D('',#359,#277,#278);
#245=AXIS2_PLACEMENT_3D('',#360,#279,#280);
#246=AXIS2_PLACEMENT_3D('',#418,#281,#282);
#247=AXIS2_PLACEMENT_3D('',#421,#283,#284);
#248=AXIS2_PLACEMENT_3D('',#422,#285,#286);
#249=AXIS2_PLACEMENT_3D('',#423,#287,#288);
#250=AXIS2_PLACEMENT_3D('',#426,#289,#290);
#251=AXIS2_PLACEMENT_3D('',#427,#291,#292);
#252=AXIS2_PLACEMENT_3D('',#508,#295,#296);
#253=AXIS2_PLACEMENT_3D('',#511,#297,#298);
#254=AXIS2_PLACEMENT_3D('',#512,#299,#300);
#255=AXIS2_PLACEMENT_3D('',#513,#301,#302);
#256=AXIS2_PLACEMENT_3D('',#516,#303,#304);
#257=AXIS2_PLACEMENT_3D('',#517,#305,#306);
#258=AXIS2_PLACEMENT_3D('',#519,#308,#309);
#259=AXIS2_PLACEMENT_3D('',#522,#310,#311);
#260=AXIS2_PLACEMENT_3D('',#523,#312,#313);
#261=AXIS2_PLACEMENT_3D('',#524,#314,#315);
#262=AXIS2_PLACEMENT_3D('',#527,#316,#317);
#263=AXIS2_PLACEMENT_3D('',#528,#318,#319);
#264=AXIS2_PLACEMENT_3D('',#530,#321,#322);
#265=AXIS2_PLACEMENT_3D('',#531,#323,#324);
#266=AXIS2_PLACEMENT_3D('',#533,#326,#327);
#267=DIRECTION('axis',(0.,0.,1.));
#268=DIRECTION('refdir',(1.,0.,0.));
#269=DIRECTION('center_axis',(1.,0.,0.));
#270=DIRECTION('ref_axis',(0.,0.,-1.));
#271=DIRECTION('center_axis',(1.,0.,0.));
#272=DIRECTION('ref_axis',(0.,0.,-1.));
#273=DIRECTION('center_axis',(1.,0.,0.));
#274=DIRECTION('ref_axis',(0.,0.,-1.));
#275=DIRECTION('',(1.,0.,0.));
#276=DIRECTION('',(1.,0.,0.));
#277=DIRECTION('center_axis',(1.,0.,0.));
#278=DIRECTION('ref_axis',(0.,0.,-1.));
#279=DIRECTION('center_axis',(1.,0.,0.));
#280=DIRECTION('ref_axis',(0.,0.,-1.));
#281=DIRECTION('center_axis',(-1.,0.,0.));
#282=DIRECTION('ref_axis',(0.,0.,1.));
#283=DIRECTION('center_axis',(1.,0.,0.));
#284=DIRECTION('ref_axis',(0.,0.,-1.));
#285=DIRECTION('center_axis',(1.,0.,0.));
#286=DIRECTION('ref_axis',(0.,0.,-1.));
#287=DIRECTION('center_axis',(1.,0.,0.));
#288=DIRECTION('ref_axis',(0.,0.,-1.));
#289=DIRECTION('center_axis',(1.,0.,0.));
#290=DIRECTION('ref_axis',(0.,0.,-1.));
#291=DIRECTION('center_axis',(1.,0.,0.));
#292=DIRECTION('ref_axis',(0.,0.,-1.));
#293=DIRECTION('',(-1.,0.,0.));
#294=DIRECTION('',(-1.,0.,0.));
#295=DIRECTION('center_axis',(1.,0.,0.));
#296=DIRECTION('ref_axis',(0.,0.,-1.));
#297=DIRECTION('center_axis',(1.,0.,0.));
#298=DIRECTION('ref_axis',(0.,0.,-1.));
#299=DIRECTION('center_axis',(1.,0.,0.));
#300=DIRECTION('ref_axis',(0.,0.,-1.));
#301=DIRECTION('center_axis',(1.,0.,0.));
#302=DIRECTION('ref_axis',(0.,0.,-1.));
#303=DIRECTION('center_axis',(1.,0.,0.));
#304=DIRECTION('ref_axis',(0.,0.,-1.));
#305=DIRECTION('center_axis',(1.,0.,0.));
#306=DIRECTION('ref_axis',(0.,0.,-1.));
#307=DIRECTION('',(-1.,0.,0.));
#308=DIRECTION('center_axis',(-1.,0.,0.));
#309=DIRECTION('ref_axis',(0.,0.,1.));
#310=DIRECTION('center_axis',(1.,0.,0.));
#311=DIRECTION('ref_axis',(0.,0.,-1.));
#312=DIRECTION('center_axis',(1.,0.,0.));
#313=DIRECTION('ref_axis',(0.,0.,-1.));
#314=DIRECTION('center_axis',(1.,0.,0.));
#315=DIRECTION('ref_axis',(0.,0.,-1.));
#316=DIRECTION('center_axis',(1.,0.,0.));
#317=DIRECTION('ref_axis',(0.,0.,-1.));
#318=DIRECTION('center_axis',(1.,0.,0.));
#319=DIRECTION('ref_axis',(0.,0.,-1.));
#320=DIRECTION('',(-1.,0.,0.));
#321=DIRECTION('center_axis',(1.,0.,0.));
#322=DIRECTION('ref_axis',(0.,0.,-1.));
#323=DIRECTION('center_axis',(0.,-1.,0.));
#324=DIRECTION('ref_axis',(0.,0.,-1.));
#325=DIRECTION('',(0.,-1.,0.));
#326=DIRECTION('center_axis',(0.,0.,-1.));
#327=DIRECTION('ref_axis',(-1.,0.,0.));
#328=DIRECTION('',(0.,0.,-1.));
#329=CARTESIAN_POINT('',(0.,0.,0.));
#330=CARTESIAN_POINT('Origin',(0.,0.,0.));
#331=CARTESIAN_POINT('',(0.,0.,-2.5));
#332=CARTESIAN_POINT('',(0.,-3.06161699786838E-16,2.5));
#333=CARTESIAN_POINT('Origin',(0.,0.,0.));
#334=CARTESIAN_POINT('Origin',(0.,0.,0.));
#335=CARTESIAN_POINT('',(1.74999999999998,-4.035874334337E-15,2.50000000000001));
#336=CARTESIAN_POINT('',(0.,-3.06161699786838E-16,2.5));
#337=CARTESIAN_POINT('',(4.24999999999999,-2.3981702369226E-16,2.5));
#338=CARTESIAN_POINT('Ctrl Pts',(4.24999999999999,-1.73472347597681E-16,
2.5));
#339=CARTESIAN_POINT('Ctrl Pts',(4.24999999999999,-0.15994412638586,2.5));
#340=CARTESIAN_POINT('Ctrl Pts',(4.2174548823364,-0.328681344361068,2.48323996043832));
#341=CARTESIAN_POINT('Ctrl Pts',(4.08895634990572,-0.635925947642965,2.42283105129935));
#342=CARTESIAN_POINT('Ctrl Pts',(3.99314611570853,-0.774620837257824,2.37983326258812));
#343=CARTESIAN_POINT('Ctrl Pts',(3.77432216780257,-0.993444785163787,2.29712558443605));
#344=CARTESIAN_POINT('Ctrl Pts',(3.63572794938477,-1.08903588717028,2.25149501557585));
#345=CARTESIAN_POINT('Ctrl Pts',(3.32892325157911,-1.21735698059594,2.18478179494117));
#346=CARTESIAN_POINT('Ctrl Pts',(3.16038133370061,-1.24999999999999,2.1650635094611));
#347=CARTESIAN_POINT('Ctrl Pts',(2.83961866629939,-1.24999999999999,2.1650635094611));
#348=CARTESIAN_POINT('Ctrl Pts',(2.6710767484209,-1.21735698059594,2.18478179494117));
#349=CARTESIAN_POINT('Ctrl Pts',(2.36427205061523,-1.08903588717028,2.25149501557585));
#350=CARTESIAN_POINT('Ctrl Pts',(2.22567783219743,-0.993444785163787,2.29712558443605));
#351=CARTESIAN_POINT('Ctrl Pts',(2.00685388429147,-0.774620837257824,2.37983326258812));
#352=CARTESIAN_POINT('Ctrl Pts',(1.91104365009428,-0.635925947642965,2.42283105129935));
#353=CARTESIAN_POINT('Ctrl Pts',(1.7825451176636,-0.328681344361067,2.48323996043832));
#354=CARTESIAN_POINT('Ctrl Pts',(1.75000000000001,-0.15994412638586,2.5));
#355=CARTESIAN_POINT('Ctrl Pts',(1.75000000000001,-3.46944695195361E-17,
2.5));
#356=CARTESIAN_POINT('',(14.,-3.06161699786838E-16,2.5));
#357=CARTESIAN_POINT('',(0.,-3.06161699786838E-16,2.5));
#358=CARTESIAN_POINT('',(14.,0.,-2.5));
#359=CARTESIAN_POINT('Origin',(14.,0.,0.));
#360=CARTESIAN_POINT('Origin',(14.,0.,0.));
#361=CARTESIAN_POINT('Ctrl Pts',(1.75000000000001,-6.93889390390723E-17,
2.5));
#362=CARTESIAN_POINT('Ctrl Pts',(1.75000000000001,0.15994412638586,2.5));
#363=CARTESIAN_POINT('Ctrl Pts',(1.7825451176636,0.328681344361067,2.48323996043832));
#364=CARTESIAN_POINT('Ctrl Pts',(1.91104365009428,0.635925947642965,2.42283105129935));
#365=CARTESIAN_POINT('Ctrl Pts',(2.00685388429147,0.774620837257824,2.37983326258812));
#366=CARTESIAN_POINT('Ctrl Pts',(2.22567783219743,0.993444785163787,2.29712558443605));
#367=CARTESIAN_POINT('Ctrl Pts',(2.36427205061523,1.08903588717028,2.25149501557585));
#368=CARTESIAN_POINT('Ctrl Pts',(2.6710767484209,1.21735698059594,2.18478179494117));
#369=CARTESIAN_POINT('Ctrl Pts',(2.83961866629939,1.24999999999999,2.1650635094611));
#370=CARTESIAN_POINT('Ctrl Pts',(3.,1.24999999999999,2.1650635094611));
#371=CARTESIAN_POINT('Ctrl Pts',(3.16038133370061,1.24999999999999,2.1650635094611));
#372=CARTESIAN_POINT('Ctrl Pts',(3.32892325157911,1.21735698059594,2.18478179494117));
#373=CARTESIAN_POINT('Ctrl Pts',(3.63572794938477,1.08903588717028,2.25149501557585));
#374=CARTESIAN_POINT('Ctrl Pts',(3.77432216780257,0.993444785163787,2.29712558443605));
#375=CARTESIAN_POINT('Ctrl Pts',(3.99314611570853,0.774620837257824,2.37983326258812));
#376=CARTESIAN_POINT('Ctrl Pts',(4.08895634990572,0.635925947642964,2.42283105129935));
#377=CARTESIAN_POINT('Ctrl Pts',(4.2174548823364,0.328681344361067,2.48323996043832));
#378=CARTESIAN_POINT('Ctrl Pts',(4.24999999999999,0.15994412638586,2.5));
#379=CARTESIAN_POINT('Ctrl Pts',(4.24999999999999,-1.73472347597681E-16,
2.5));
#380=CARTESIAN_POINT('',(3.,2.1650635094611,-1.25));
#381=CARTESIAN_POINT('',(3.,2.1650635094611,1.25));
#382=CARTESIAN_POINT('Ctrl Pts',(3.,2.1650635094611,-1.25));
#383=CARTESIAN_POINT('Ctrl Pts',(3.16038133370061,2.1650635094611,-1.25));
#384=CARTESIAN_POINT('Ctrl Pts',(3.32892325157911,2.18478179494117,-1.21735698059595));
#385=CARTESIAN_POINT('Ctrl Pts',(3.63572794938478,2.25149501557585,-1.08903588717028));
#386=CARTESIAN_POINT('Ctrl Pts',(3.77432216780258,2.29712558443605,-0.993444785163792));
#387=CARTESIAN_POINT('Ctrl Pts',(3.99314611570854,2.37983326258812,-0.774620837257828));
#388=CARTESIAN_POINT('Ctrl Pts',(4.08895634990573,2.42283105129935,-0.635925947642968));
#389=CARTESIAN_POINT('Ctrl Pts',(4.21745488233641,2.48323996043832,-0.328681344361069));
#390=CARTESIAN_POINT('Ctrl Pts',(4.25,2.5,-0.159944126385861));
#391=CARTESIAN_POINT('Ctrl Pts',(4.25,2.5,0.159944126385861));
#392=CARTESIAN_POINT('Ctrl Pts',(4.21745488233641,2.48323996043832,0.328681344361069));
#393=CARTESIAN_POINT('Ctrl Pts',(4.08895634990572,2.42283105129935,0.635925947642968));
#394=CARTESIAN_POINT('Ctrl Pts',(3.99314611570854,2.37983326258812,0.774620837257828));
#395=CARTESIAN_POINT('Ctrl Pts',(3.77432216780258,2.29712558443605,0.993444785163792));
#396=CARTESIAN_POINT('Ctrl Pts',(3.63572794938478,2.25149501557585,1.08903588717028));
#397=CARTESIAN_POINT('Ctrl Pts',(3.32892325157911,2.18478179494117,1.21735698059595));
#398=CARTESIAN_POINT('Ctrl Pts',(3.16038133370061,2.1650635094611,1.25));
#399=CARTESIAN_POINT('Ctrl Pts',(3.,2.1650635094611,1.25));
#400=CARTESIAN_POINT('Ctrl Pts',(3.,2.1650635094611,1.25));
#401=CARTESIAN_POINT('Ctrl Pts',(2.83961866629939,2.1650635094611,1.25));
#402=CARTESIAN_POINT('Ctrl Pts',(2.67107674842089,2.18478179494117,1.21735698059595));
#403=CARTESIAN_POINT('Ctrl Pts',(2.36427205061522,2.25149501557585,1.08903588717028));
#404=CARTESIAN_POINT('Ctrl Pts',(2.22567783219742,2.29712558443605,0.993444785163792));
#405=CARTESIAN_POINT('Ctrl Pts',(2.00685388429146,2.37983326258812,0.774620837257828));
#406=CARTESIAN_POINT('Ctrl Pts',(1.91104365009427,2.42283105129935,0.635925947642968));
#407=CARTESIAN_POINT('Ctrl Pts',(1.78254511766359,2.48323996043832,0.328681344361069));
#408=CARTESIAN_POINT('Ctrl Pts',(1.75,2.5,0.159944126385861));
#409=CARTESIAN_POINT('Ctrl Pts',(1.75,2.5,-0.159944126385861));
#410=CARTESIAN_POINT('Ctrl Pts',(1.78254511766359,2.48323996043832,-0.328681344361069));
#411=CARTESIAN_POINT('Ctrl Pts',(1.91104365009428,2.42283105129935,-0.635925947642968));
#412=CARTESIAN_POINT('Ctrl Pts',(2.00685388429146,2.37983326258812,-0.774620837257828));
#413=CARTESIAN_POINT('Ctrl Pts',(2.22567783219742,2.29712558443605,-0.993444785163792));
#414=CARTESIAN_POINT('Ctrl Pts',(2.36427205061522,2.25149501557585,-1.08903588717028));
#415=CARTESIAN_POINT('Ctrl Pts',(2.67107674842089,2.18478179494117,-1.21735698059595));
#416=CARTESIAN_POINT('Ctrl Pts',(2.83961866629939,2.1650635094611,-1.25));
#417=CARTESIAN_POINT('Ctrl Pts',(3.,2.1650635094611,-1.25));
#418=CARTESIAN_POINT('Origin',(0.,2.5,0.));
#419=CARTESIAN_POINT('',(0.,0.,-7.5));
#420=CARTESIAN_POINT('',(0.,-9.18485099360515E-16,7.5));
#421=CARTESIAN_POINT('Origin',(0.,0.,0.));
#422=CARTESIAN_POINT('Origin',(0.,0.,0.));
#423=CARTESIAN_POINT('Origin',(0.,0.,0.));
#424=CARTESIAN_POINT('',(6.,0.,-7.5));
#425=CARTESIAN_POINT('',(6.,-9.18485099360515E-16,7.5));
#426=CARTESIAN_POINT('Origin',(6.,0.,0.));
#427=CARTESIAN_POINT('Origin',(6.,0.,0.));
#428=CARTESIAN_POINT('',(4.24999999999999,-5.2863148871933E-16,7.5));
#429=CARTESIAN_POINT('',(0.,-9.18485099360515E-16,7.5));
#430=CARTESIAN_POINT('',(1.75000000000001,-2.39318988020343E-17,7.5));
#431=CARTESIAN_POINT('Ctrl Pts',(1.75000000000001,-3.46944695195361E-17,
7.5));
#432=CARTESIAN_POINT('Ctrl Pts',(1.75000000000001,-0.157266476951753,7.5));
#433=CARTESIAN_POINT('Ctrl Pts',(1.78148973875012,-0.324816675081198,7.49455068793181));
#434=CARTESIAN_POINT('Ctrl Pts',(1.90914870547047,-0.63270575530258,7.47485647452161));
#435=CARTESIAN_POINT('Ctrl Pts',(2.00530183921085,-0.773068792177209,7.4608858383624));
#436=CARTESIAN_POINT('Ctrl Pts',(2.2269341676393,-0.994701120605663,7.43458292013823));
#437=CARTESIAN_POINT('Ctrl Pts',(2.3672959338113,-1.09085193275429,7.42052660147371));
#438=CARTESIAN_POINT('Ctrl Pts',(2.67518064878884,-1.21850921378188,7.40063567059082));
#439=CARTESIAN_POINT('Ctrl Pts',(2.84272932252267,-1.24999999999999,7.39509972887452));
#440=CARTESIAN_POINT('Ctrl Pts',(3.15727067747733,-1.24999999999999,7.39509972887452));
#441=CARTESIAN_POINT('Ctrl Pts',(3.32481935121116,-1.21850921378188,7.40063567059082));
#442=CARTESIAN_POINT('Ctrl Pts',(3.6327040661887,-1.09085193275429,7.42052660147371));
#443=CARTESIAN_POINT('Ctrl Pts',(3.77306583236069,-0.994701120605663,7.43458292013823));
#444=CARTESIAN_POINT('Ctrl Pts',(3.99469816078915,-0.773068792177209,7.4608858383624));
#445=CARTESIAN_POINT('Ctrl Pts',(4.09085129452953,-0.63270575530258,7.47485647452161));
#446=CARTESIAN_POINT('Ctrl Pts',(4.21851026124988,-0.324816675081198,7.49455068793181));
#447=CARTESIAN_POINT('Ctrl Pts',(4.24999999999999,-0.157266476951753,7.5));
#448=CARTESIAN_POINT('Ctrl Pts',(4.24999999999999,-1.04083408558608E-16,
7.5));
#449=CARTESIAN_POINT('',(0.,-9.18485099360515E-16,7.5));
#450=CARTESIAN_POINT('Ctrl Pts',(4.24999999999999,-1.38777878078145E-16,
7.5));
#451=CARTESIAN_POINT('Ctrl Pts',(4.24999999999999,0.157266476951752,7.5));
#452=CARTESIAN_POINT('Ctrl Pts',(4.21851026124988,0.324816675081197,7.49455068793181));
#453=CARTESIAN_POINT('Ctrl Pts',(4.09085129452953,0.632705755302579,7.47485647452161));
#454=CARTESIAN_POINT('Ctrl Pts',(3.99469816078915,0.773068792177209,7.4608858383624));
#455=CARTESIAN_POINT('Ctrl Pts',(3.7730658323607,0.994701120605663,7.43458292013823));
#456=CARTESIAN_POINT('Ctrl Pts',(3.6327040661887,1.09085193275429,7.42052660147371));
#457=CARTESIAN_POINT('Ctrl Pts',(3.32481935121116,1.21850921378188,7.40063567059082));
#458=CARTESIAN_POINT('Ctrl Pts',(3.15727067747733,1.24999999999999,7.39509972887452));
#459=CARTESIAN_POINT('Ctrl Pts',(3.,1.24999999999999,7.39509972887452));
#460=CARTESIAN_POINT('Ctrl Pts',(2.84272932252267,1.24999999999999,7.39509972887452));
#461=CARTESIAN_POINT('Ctrl Pts',(2.67518064878884,1.21850921378188,7.40063567059082));
#462=CARTESIAN_POINT('Ctrl Pts',(2.3672959338113,1.09085193275429,7.42052660147371));
#463=CARTESIAN_POINT('Ctrl Pts',(2.2269341676393,0.994701120605663,7.43458292013823));
#464=CARTESIAN_POINT('Ctrl Pts',(2.00530183921085,0.773068792177209,7.4608858383624));
#465=CARTESIAN_POINT('Ctrl Pts',(1.90914870547047,0.63270575530258,7.47485647452161));
#466=CARTESIAN_POINT('Ctrl Pts',(1.78148973875012,0.324816675081199,7.49455068793181));
#467=CARTESIAN_POINT('Ctrl Pts',(1.75000000000001,0.157266476951753,7.5));
#468=CARTESIAN_POINT('Ctrl Pts',(1.75000000000001,0.,7.5));
#469=CARTESIAN_POINT('',(4.25,7.5,1.737887317052E-16));
#470=CARTESIAN_POINT('',(3.,7.39509972887452,1.25));
#471=CARTESIAN_POINT('Ctrl Pts',(4.25,7.5,3.81639164714898E-16));
#472=CARTESIAN_POINT('Ctrl Pts',(4.25,7.5,-0.157266476951753));
#473=CARTESIAN_POINT('Ctrl Pts',(4.21851026124988,7.49455068793181,-0.324816675081199));
#474=CARTESIAN_POINT('Ctrl Pts',(4.09085129452953,7.47485647452161,-0.632705755302582));
#475=CARTESIAN_POINT('Ctrl Pts',(3.99469816078915,7.4608858383624,-0.773068792177213));
#476=CARTESIAN_POINT('Ctrl Pts',(3.7730658323607,7.43458292013823,-0.994701120605668));
#477=CARTESIAN_POINT('Ctrl Pts',(3.63270406618871,7.42052660147371,-1.0908519327543));
#478=CARTESIAN_POINT('Ctrl Pts',(3.32481935121116,7.40063567059082,-1.21850921378188));
#479=CARTESIAN_POINT('Ctrl Pts',(3.15727067747733,7.39509972887452,-1.25));
#480=CARTESIAN_POINT('Ctrl Pts',(3.,7.39509972887452,-1.25));
#481=CARTESIAN_POINT('Ctrl Pts',(2.84272932252267,7.39509972887452,-1.25));
#482=CARTESIAN_POINT('Ctrl Pts',(2.67518064878884,7.40063567059082,-1.21850921378188));
#483=CARTESIAN_POINT('Ctrl Pts',(2.36729593381129,7.42052660147371,-1.0908519327543));
#484=CARTESIAN_POINT('Ctrl Pts',(2.2269341676393,7.43458292013823,-0.994701120605668));
#485=CARTESIAN_POINT('Ctrl Pts',(2.00530183921085,7.4608858383624,-0.773068792177213));
#486=CARTESIAN_POINT('Ctrl Pts',(1.90914870547047,7.47485647452161,-0.632705755302583));
#487=CARTESIAN_POINT('Ctrl Pts',(1.78148973875012,7.49455068793181,-0.3248166750812));
#488=CARTESIAN_POINT('Ctrl Pts',(1.75,7.5,-0.157266476951753));
#489=CARTESIAN_POINT('Ctrl Pts',(1.75,7.5,0.157266476951753));
#490=CARTESIAN_POINT('Ctrl Pts',(1.78148973875012,7.49455068793181,0.3248166750812));
#491=CARTESIAN_POINT('Ctrl Pts',(1.90914870547047,7.47485647452161,0.632705755302583));
#492=CARTESIAN_POINT('Ctrl Pts',(2.00530183921085,7.4608858383624,0.773068792177213));
#493=CARTESIAN_POINT('Ctrl Pts',(2.2269341676393,7.43458292013823,0.994701120605668));
#494=CARTESIAN_POINT('Ctrl Pts',(2.36729593381129,7.42052660147371,1.0908519327543));
#495=CARTESIAN_POINT('Ctrl Pts',(2.67518064878884,7.40063567059082,1.21850921378188));
#496=CARTESIAN_POINT('Ctrl Pts',(2.84272932252267,7.39509972887452,1.25));
#497=CARTESIAN_POINT('Ctrl Pts',(3.,7.39509972887452,1.25));
#498=CARTESIAN_POINT('Ctrl Pts',(3.,7.39509972887452,1.25));
#499=CARTESIAN_POINT('Ctrl Pts',(3.15727067747733,7.39509972887452,1.25));
#500=CARTESIAN_POINT('Ctrl Pts',(3.32481935121116,7.40063567059082,1.21850921378188));
#501=CARTESIAN_POINT('Ctrl Pts',(3.63270406618871,7.42052660147371,1.0908519327543));
#502=CARTESIAN_POINT('Ctrl Pts',(3.7730658323607,7.43458292013823,0.994701120605668));
#503=CARTESIAN_POINT('Ctrl Pts',(3.99469816078915,7.4608858383624,0.773068792177213));
#504=CARTESIAN_POINT('Ctrl Pts',(4.09085129452953,7.47485647452161,0.632705755302583));
#505=CARTESIAN_POINT('Ctrl Pts',(4.21851026124988,7.49455068793181,0.3248166750812));
#506=CARTESIAN_POINT('Ctrl Pts',(4.25,7.5,0.157266476951754));
#507=CARTESIAN_POINT('Ctrl Pts',(4.25,7.5,2.77555756156289E-16));
#508=CARTESIAN_POINT('Origin',(6.,7.5,0.));
#509=CARTESIAN_POINT('',(6.,0.,-6.1));
#510=CARTESIAN_POINT('',(6.,-7.47034547479885E-16,6.1));
#511=CARTESIAN_POINT('Origin',(6.,0.,0.));
#512=CARTESIAN_POINT('Origin',(6.,0.,0.));
#513=CARTESIAN_POINT('Origin',(0.,0.,0.));
#514=CARTESIAN_POINT('',(13.,0.,-6.1));
#515=CARTESIAN_POINT('',(13.,-7.47034547479885E-16,6.1));
#516=CARTESIAN_POINT('Origin',(13.,0.,0.));
#517=CARTESIAN_POINT('Origin',(13.,0.,0.));
#518=CARTESIAN_POINT('',(0.,-7.47034547479885E-16,6.1));
#519=CARTESIAN_POINT('Origin',(13.,6.1,0.));
#520=CARTESIAN_POINT('',(13.,0.,-7.5));
#521=CARTESIAN_POINT('',(13.,-9.18485099360515E-16,7.5));
#522=CARTESIAN_POINT('Origin',(13.,0.,0.));
#523=CARTESIAN_POINT('Origin',(13.,0.,0.));
#524=CARTESIAN_POINT('Origin',(0.,0.,0.));
#525=CARTESIAN_POINT('',(14.,0.,-7.5));
#526=CARTESIAN_POINT('',(14.,-9.18485099360515E-16,7.5));
#527=CARTESIAN_POINT('Origin',(14.,0.,0.));
#528=CARTESIAN_POINT('Origin',(14.,0.,0.));
#529=CARTESIAN_POINT('',(0.,-9.18485099360515E-16,7.5));
#530=CARTESIAN_POINT('Origin',(14.,7.5,0.));
#531=CARTESIAN_POINT('Origin',(3.,0.,0.));
#532=CARTESIAN_POINT('',(3.,0.,1.25));
#533=CARTESIAN_POINT('Origin',(3.,0.,0.));
#534=CARTESIAN_POINT('',(4.24999999999999,-1.53080849893418E-16,0.));
#535=UNCERTAINTY_MEASURE_WITH_UNIT(LENGTH_MEASURE(0.01),#539,
'DISTANCE_ACCURACY_VALUE',
'Maximum model space distance between geometric entities at asserted c
onnectivities');
#536=UNCERTAINTY_MEASURE_WITH_UNIT(LENGTH_MEASURE(0.01),#539,
'DISTANCE_ACCURACY_VALUE',
'Maximum model space distance between geometric entities at asserted c
onnectivities');
#537=(
GEOMETRIC_REPRESENTATION_CONTEXT(3)
GLOBAL_UNCERTAINTY_ASSIGNED_CONTEXT((#535))
GLOBAL_UNIT_ASSIGNED_CONTEXT((#539,#541,#542))
REPRESENTATION_CONTEXT('','3D')
);
#538=(
GEOMETRIC_REPRESENTATION_CONTEXT(3)
GLOBAL_UNCERTAINTY_ASSIGNED_CONTEXT((#536))
GLOBAL_UNIT_ASSIGNED_CONTEXT((#539,#541,#542))
REPRESENTATION_CONTEXT('','3D')
);
#539=(
LENGTH_UNIT()
NAMED_UNIT(*)
SI_UNIT(.MILLI.,.METRE.)
);
#540=(
LENGTH_UNIT()
NAMED_UNIT(*)
SI_UNIT($,.METRE.)
);
#541=(
NAMED_UNIT(*)
PLANE_ANGLE_UNIT()
SI_UNIT($,.RADIAN.)
);
#542=(
NAMED_UNIT(*)
SI_UNIT($,.STERADIAN.)
SOLID_ANGLE_UNIT()
);
#543=SHAPE_DEFINITION_REPRESENTATION(#544,#545);
#544=PRODUCT_DEFINITION_SHAPE('',$,#547);
#545=SHAPE_REPRESENTATION('',(#240),#537);
#546=PRODUCT_DEFINITION_CONTEXT('part definition',#551,'design');
#547=PRODUCT_DEFINITION('GT2 Timing Pulley 20 Tooth',
'GT2 Timing Pulley 20 Tooth v1',#548,#546);
#548=PRODUCT_DEFINITION_FORMATION('',$,#553);
#549=PRODUCT_RELATED_PRODUCT_CATEGORY('GT2 Timing Pulley 20 Tooth v1',
'GT2 Timing Pulley 20 Tooth v1',(#553));
#550=APPLICATION_PROTOCOL_DEFINITION('international standard',
'automotive_design',2009,#551);
#551=APPLICATION_CONTEXT(
'Core Data for Automotive Mechanical Design Process');
#552=PRODUCT_CONTEXT('part definition',#551,'mechanical');
#553=PRODUCT('GT2 Timing Pulley 20 Tooth',
'GT2 Timing Pulley 20 Tooth v1',$,(#552));
#554=PRESENTATION_STYLE_ASSIGNMENT((#555));
#555=SURFACE_STYLE_USAGE(.BOTH.,#556);
#556=SURFACE_SIDE_STYLE('',(#557));
#557=SURFACE_STYLE_FILL_AREA(#558);
#558=FILL_AREA_STYLE('Steel - Satin',(#559));
#559=FILL_AREA_STYLE_COLOUR('Steel - Satin',#560);
#560=COLOUR_RGB('Steel - Satin',0.627450980392157,0.627450980392157,0.627450980392157);
ENDSEC;
END-ISO-10303-21;
