ISO-10303-21;
HEADER;
FILE_DESCRIPTION(('FreeCAD Model'),'2;1');
FILE_NAME('Open CASCADE Shape Model','2026-03-04T16:08:21',(''),(''),
  'Open CASCADE STEP processor 7.8','FreeCAD','Unknown');
FILE_SCHEMA(('AUTOMOTIVE_DESIGN { 1 0 10303 214 1 1 1 1 }'));
ENDSEC;
DATA;
#1 = APPLICATION_PROTOCOL_DEFINITION('international standard',
  'automotive_design',2000,#2);
#2 = APPLICATION_CONTEXT(
  'core data for automotive mechanical design processes');
#3 = SHAPE_DEFINITION_REPRESENTATION(#4,#10);
#4 = PRODUCT_DEFINITION_SHAPE('','',#5);
#5 = PRODUCT_DEFINITION('design','',#6,#9);
#6 = PRODUCT_DEFINITION_FORMATION('','',#7);
#7 = PRODUCT('DIN RAIL 35mm','DIN RAIL 35mm','',(#8));
#8 = PRODUCT_CONTEXT('',#2,'mechanical');
#9 = PRODUCT_DEFINITION_CONTEXT('part definition',#2,'design');
#10 = SHAPE_REPRESENTATION('',(#11,#15),#19);
#11 = AXIS2_PLACEMENT_3D('',#12,#13,#14);
#12 = CARTESIAN_POINT('',(0.,0.,0.));
#13 = DIRECTION('',(0.,0.,1.));
#14 = DIRECTION('',(1.,0.,-0.));
#15 = AXIS2_PLACEMENT_3D('',#16,#17,#18);
#16 = CARTESIAN_POINT('',(0.,0.,0.));
#17 = DIRECTION('',(0.,0.,1.));
#18 = DIRECTION('',(1.,0.,0.));
#19 = ( GEOMETRIC_REPRESENTATION_CONTEXT(3) 
GLOBAL_UNCERTAINTY_ASSIGNED_CONTEXT((#23)) GLOBAL_UNIT_ASSIGNED_CONTEXT(
(#20,#21,#22)) REPRESENTATION_CONTEXT('Context #1',
  '3D Context with UNIT and UNCERTAINTY') );
#20 = ( LENGTH_UNIT() NAMED_UNIT(*) SI_UNIT(.MILLI.,.METRE.) );
#21 = ( NAMED_UNIT(*) PLANE_ANGLE_UNIT() SI_UNIT($,.RADIAN.) );
#22 = ( NAMED_UNIT(*) SI_UNIT($,.STERADIAN.) SOLID_ANGLE_UNIT() );
#23 = UNCERTAINTY_MEASURE_WITH_UNIT(LENGTH_MEASURE(1.E-04),#20,
  'distance_accuracy_value','confusion accuracy');
#24 = PRODUCT_RELATED_PRODUCT_CATEGORY('part',$,(#7));
#25 = SHAPE_DEFINITION_REPRESENTATION(#26,#32);
#26 = PRODUCT_DEFINITION_SHAPE('','',#27);
#27 = PRODUCT_DEFINITION('design','',#28,#31);
#28 = PRODUCT_DEFINITION_FORMATION('','',#29);
#29 = PRODUCT('Body','Body','',(#30));
#30 = PRODUCT_CONTEXT('',#2,'mechanical');
#31 = PRODUCT_DEFINITION_CONTEXT('part definition',#2,'design');
#32 = ADVANCED_BREP_SHAPE_REPRESENTATION('',(#11,#33),#1812);
#33 = MANIFOLD_SOLID_BREP('',#34);
#34 = CLOSED_SHELL('',(#35,#77,#108,#469,#535,#601,#618,#642,#667,#691,
    #765,#790,#863,#895,#927,#959,#991,#1023,#1055,#1087,#1119,#1151,
    #1183,#1215,#1247,#1279,#1296,#1313,#1330,#1347,#1534,#1551,#1568,
    #1585,#1602,#1619,#1631,#1643,#1655,#1667,#1679,#1691,#1703,#1715,
    #1728,#1742,#1756,#1770,#1784,#1798));
#35 = ADVANCED_FACE('',(#36),#72,.T.);
#36 = FACE_BOUND('',#37,.F.);
#37 = EDGE_LOOP('',(#38,#48,#57,#65));
#38 = ORIENTED_EDGE('',*,*,#39,.T.);
#39 = EDGE_CURVE('',#40,#42,#44,.T.);
#40 = VERTEX_POINT('',#41);
#41 = CARTESIAN_POINT('',(0.8,13.5,0.));
#42 = VERTEX_POINT('',#43);
#43 = CARTESIAN_POINT('',(0.8,13.5,200.));
#44 = LINE('',#45,#46);
#45 = CARTESIAN_POINT('',(0.8,13.5,0.));
#46 = VECTOR('',#47,1.);
#47 = DIRECTION('',(0.,0.,1.));
#48 = ORIENTED_EDGE('',*,*,#49,.T.);
#49 = EDGE_CURVE('',#42,#50,#52,.T.);
#50 = VERTEX_POINT('',#51);
#51 = CARTESIAN_POINT('',(0.,12.7,200.));
#52 = CIRCLE('',#53,0.8);
#53 = AXIS2_PLACEMENT_3D('',#54,#55,#56);
#54 = CARTESIAN_POINT('',(0.8,12.7,200.));
#55 = DIRECTION('',(0.,0.,1.));
#56 = DIRECTION('',(1.,0.,0.));
#57 = ORIENTED_EDGE('',*,*,#58,.F.);
#58 = EDGE_CURVE('',#59,#50,#61,.T.);
#59 = VERTEX_POINT('',#60);
#60 = CARTESIAN_POINT('',(0.,12.7,0.));
#61 = LINE('',#62,#63);
#62 = CARTESIAN_POINT('',(0.,12.7,0.));
#63 = VECTOR('',#64,1.);
#64 = DIRECTION('',(0.,0.,1.));
#65 = ORIENTED_EDGE('',*,*,#66,.F.);
#66 = EDGE_CURVE('',#40,#59,#67,.T.);
#67 = CIRCLE('',#68,0.8);
#68 = AXIS2_PLACEMENT_3D('',#69,#70,#71);
#69 = CARTESIAN_POINT('',(0.8,12.7,0.));
#70 = DIRECTION('',(0.,0.,1.));
#71 = DIRECTION('',(1.,0.,0.));
#72 = CYLINDRICAL_SURFACE('',#73,0.8);
#73 = AXIS2_PLACEMENT_3D('',#74,#75,#76);
#74 = CARTESIAN_POINT('',(0.8,12.7,0.));
#75 = DIRECTION('',(-0.,-0.,-1.));
#76 = DIRECTION('',(1.,0.,0.));
#77 = ADVANCED_FACE('',(#78),#103,.T.);
#78 = FACE_BOUND('',#79,.T.);
#79 = EDGE_LOOP('',(#80,#81,#89,#97));
#80 = ORIENTED_EDGE('',*,*,#39,.T.);
#81 = ORIENTED_EDGE('',*,*,#82,.T.);
#82 = EDGE_CURVE('',#42,#83,#85,.T.);
#83 = VERTEX_POINT('',#84);
#84 = CARTESIAN_POINT('',(6.5,13.5,200.));
#85 = LINE('',#86,#87);
#86 = CARTESIAN_POINT('',(0.8,13.5,200.));
#87 = VECTOR('',#88,1.);
#88 = DIRECTION('',(1.,0.,0.));
#89 = ORIENTED_EDGE('',*,*,#90,.F.);
#90 = EDGE_CURVE('',#91,#83,#93,.T.);
#91 = VERTEX_POINT('',#92);
#92 = CARTESIAN_POINT('',(6.5,13.5,0.));
#93 = LINE('',#94,#95);
#94 = CARTESIAN_POINT('',(6.5,13.5,0.));
#95 = VECTOR('',#96,1.);
#96 = DIRECTION('',(0.,0.,1.));
#97 = ORIENTED_EDGE('',*,*,#98,.F.);
#98 = EDGE_CURVE('',#40,#91,#99,.T.);
#99 = LINE('',#100,#101);
#100 = CARTESIAN_POINT('',(0.8,13.5,0.));
#101 = VECTOR('',#102,1.);
#102 = DIRECTION('',(1.,0.,0.));
#103 = PLANE('',#104);
#104 = AXIS2_PLACEMENT_3D('',#105,#106,#107);
#105 = CARTESIAN_POINT('',(0.8,13.5,0.));
#106 = DIRECTION('',(0.,1.,0.));
#107 = DIRECTION('',(1.,0.,0.));
#108 = ADVANCED_FACE('',(#109,#200,#244,#288,#332,#376,#420),#464,.F.);
#109 = FACE_BOUND('',#110,.F.);
#110 = EDGE_LOOP('',(#111,#119,#120,#128,#136,#145,#153,#161,#169,#177,
    #185,#194));
#111 = ORIENTED_EDGE('',*,*,#112,.F.);
#112 = EDGE_CURVE('',#59,#113,#115,.T.);
#113 = VERTEX_POINT('',#114);
#114 = CARTESIAN_POINT('',(0.,3.1,0.));
#115 = LINE('',#116,#117);
#116 = CARTESIAN_POINT('',(0.,12.7,0.));
#117 = VECTOR('',#118,1.);
#118 = DIRECTION('',(0.,-1.,0.));
#119 = ORIENTED_EDGE('',*,*,#58,.T.);
#120 = ORIENTED_EDGE('',*,*,#121,.T.);
#121 = EDGE_CURVE('',#50,#122,#124,.T.);
#122 = VERTEX_POINT('',#123);
#123 = CARTESIAN_POINT('',(0.,3.1,200.));
#124 = LINE('',#125,#126);
#125 = CARTESIAN_POINT('',(0.,12.7,200.));
#126 = VECTOR('',#127,1.);
#127 = DIRECTION('',(0.,-1.,0.));
#128 = ORIENTED_EDGE('',*,*,#129,.F.);
#129 = EDGE_CURVE('',#130,#122,#132,.T.);
#130 = VERTEX_POINT('',#131);
#131 = CARTESIAN_POINT('',(0.,3.1,195.6));
#132 = LINE('',#133,#134);
#133 = CARTESIAN_POINT('',(0.,3.1,97.8));
#134 = VECTOR('',#135,1.);
#135 = DIRECTION('',(0.,0.,1.));
#136 = ORIENTED_EDGE('',*,*,#137,.F.);
#137 = EDGE_CURVE('',#138,#130,#140,.T.);
#138 = VERTEX_POINT('',#139);
#139 = CARTESIAN_POINT('',(0.,-3.1,195.6));
#140 = CIRCLE('',#141,3.1);
#141 = AXIS2_PLACEMENT_3D('',#142,#143,#144);
#142 = CARTESIAN_POINT('',(0.,2.22044604925E-14,195.6));
#143 = DIRECTION('',(1.,0.,0.));
#144 = DIRECTION('',(0.,1.,0.));
#145 = ORIENTED_EDGE('',*,*,#146,.T.);
#146 = EDGE_CURVE('',#138,#147,#149,.T.);
#147 = VERTEX_POINT('',#148);
#148 = CARTESIAN_POINT('',(0.,-3.100000000002,200.));
#149 = LINE('',#150,#151);
#150 = CARTESIAN_POINT('',(0.,-3.1,97.8));
#151 = VECTOR('',#152,1.);
#152 = DIRECTION('',(0.,0.,1.));
#153 = ORIENTED_EDGE('',*,*,#154,.T.);
#154 = EDGE_CURVE('',#147,#155,#157,.T.);
#155 = VERTEX_POINT('',#156);
#156 = CARTESIAN_POINT('',(0.,-12.7,200.));
#157 = LINE('',#158,#159);
#158 = CARTESIAN_POINT('',(0.,12.7,200.));
#159 = VECTOR('',#160,1.);
#160 = DIRECTION('',(0.,-1.,0.));
#161 = ORIENTED_EDGE('',*,*,#162,.F.);
#162 = EDGE_CURVE('',#163,#155,#165,.T.);
#163 = VERTEX_POINT('',#164);
#164 = CARTESIAN_POINT('',(0.,-12.7,0.));
#165 = LINE('',#166,#167);
#166 = CARTESIAN_POINT('',(0.,-12.7,0.));
#167 = VECTOR('',#168,1.);
#168 = DIRECTION('',(0.,0.,1.));
#169 = ORIENTED_EDGE('',*,*,#170,.F.);
#170 = EDGE_CURVE('',#171,#163,#173,.T.);
#171 = VERTEX_POINT('',#172);
#172 = CARTESIAN_POINT('',(0.,-3.1,0.));
#173 = LINE('',#174,#175);
#174 = CARTESIAN_POINT('',(0.,12.7,0.));
#175 = VECTOR('',#176,1.);
#176 = DIRECTION('',(0.,-1.,0.));
#177 = ORIENTED_EDGE('',*,*,#178,.T.);
#178 = EDGE_CURVE('',#171,#179,#181,.T.);
#179 = VERTEX_POINT('',#180);
#180 = CARTESIAN_POINT('',(0.,-3.1,4.4));
#181 = LINE('',#182,#183);
#182 = CARTESIAN_POINT('',(0.,-3.1,-2.2));
#183 = VECTOR('',#184,1.);
#184 = DIRECTION('',(0.,0.,1.));
#185 = ORIENTED_EDGE('',*,*,#186,.F.);
#186 = EDGE_CURVE('',#187,#179,#189,.T.);
#187 = VERTEX_POINT('',#188);
#188 = CARTESIAN_POINT('',(0.,3.1,4.4));
#189 = CIRCLE('',#190,3.1);
#190 = AXIS2_PLACEMENT_3D('',#191,#192,#193);
#191 = CARTESIAN_POINT('',(0.,1.744634820251E-16,4.4));
#192 = DIRECTION('',(1.,0.,0.));
#193 = DIRECTION('',(0.,1.,0.));
#194 = ORIENTED_EDGE('',*,*,#195,.F.);
#195 = EDGE_CURVE('',#113,#187,#196,.T.);
#196 = LINE('',#197,#198);
#197 = CARTESIAN_POINT('',(0.,3.1,-2.2));
#198 = VECTOR('',#199,1.);
#199 = DIRECTION('',(0.,0.,1.));
#200 = FACE_BOUND('',#201,.F.);
#201 = EDGE_LOOP('',(#202,#213,#221,#229,#238));
#202 = ORIENTED_EDGE('',*,*,#203,.F.);
#203 = EDGE_CURVE('',#204,#206,#208,.T.);
#204 = VERTEX_POINT('',#205);
#205 = CARTESIAN_POINT('',(0.,-3.1,167.02857142857));
#206 = VERTEX_POINT('',#207);
#207 = CARTESIAN_POINT('',(0.,3.1,167.02857142857));
#208 = CIRCLE('',#209,3.1);
#209 = AXIS2_PLACEMENT_3D('',#210,#211,#212);
#210 = CARTESIAN_POINT('',(0.,1.903239470786E-14,167.02857142857));
#211 = DIRECTION('',(1.,0.,0.));
#212 = DIRECTION('',(0.,1.,0.));
#213 = ORIENTED_EDGE('',*,*,#214,.T.);
#214 = EDGE_CURVE('',#204,#215,#217,.T.);
#215 = VERTEX_POINT('',#216);
#216 = CARTESIAN_POINT('',(0.,-3.1,175.82857142857));
#217 = LINE('',#218,#219);
#218 = CARTESIAN_POINT('',(0.,-3.1,83.514285714286));
#219 = VECTOR('',#220,1.);
#220 = DIRECTION('',(0.,0.,1.));
#221 = ORIENTED_EDGE('',*,*,#222,.T.);
#222 = EDGE_CURVE('',#215,#223,#225,.T.);
#223 = VERTEX_POINT('',#224);
#224 = CARTESIAN_POINT('',(0.,-3.10000000001,177.25714285713));
#225 = LINE('',#226,#227);
#226 = CARTESIAN_POINT('',(0.,-3.099999999902,84.228571428559));
#227 = VECTOR('',#228,1.);
#228 = DIRECTION('',(0.,-1.157861685318E-12,1.));
#229 = ORIENTED_EDGE('',*,*,#230,.F.);
#230 = EDGE_CURVE('',#231,#223,#233,.T.);
#231 = VERTEX_POINT('',#232);
#232 = CARTESIAN_POINT('',(0.,3.099999999995,177.25714285714));
#233 = CIRCLE('',#234,3.1);
#234 = AXIS2_PLACEMENT_3D('',#235,#236,#237);
#235 = CARTESIAN_POINT('',(0.,-1.017343717809E-11,177.25714285714));
#236 = DIRECTION('',(1.,0.,0.));
#237 = DIRECTION('',(0.,1.,0.));
#238 = ORIENTED_EDGE('',*,*,#239,.F.);
#239 = EDGE_CURVE('',#206,#231,#240,.T.);
#240 = LINE('',#241,#242);
#241 = CARTESIAN_POINT('',(0.,3.1,83.514285714286));
#242 = VECTOR('',#243,1.);
#243 = DIRECTION('',(0.,0.,1.));
#244 = FACE_BOUND('',#245,.F.);
#245 = EDGE_LOOP('',(#246,#257,#265,#273,#282));
#246 = ORIENTED_EDGE('',*,*,#247,.F.);
#247 = EDGE_CURVE('',#248,#250,#252,.T.);
#248 = VERTEX_POINT('',#249);
#249 = CARTESIAN_POINT('',(0.,-3.1,138.45714285714));
#250 = VERTEX_POINT('',#251);
#251 = CARTESIAN_POINT('',(0.,3.1,138.45714285714));
#252 = CIRCLE('',#253,3.1);
#253 = AXIS2_PLACEMENT_3D('',#254,#255,#256);
#254 = CARTESIAN_POINT('',(0.,1.586032892322E-14,138.45714285714));
#255 = DIRECTION('',(1.,0.,0.));
#256 = DIRECTION('',(0.,1.,0.));
#257 = ORIENTED_EDGE('',*,*,#258,.T.);
#258 = EDGE_CURVE('',#248,#259,#261,.T.);
#259 = VERTEX_POINT('',#260);
#260 = CARTESIAN_POINT('',(0.,-3.1,147.25714285714));
#261 = LINE('',#262,#263);
#262 = CARTESIAN_POINT('',(0.,-3.1,69.228571428571));
#263 = VECTOR('',#264,1.);
#264 = DIRECTION('',(0.,0.,1.));
#265 = ORIENTED_EDGE('',*,*,#266,.T.);
#266 = EDGE_CURVE('',#259,#267,#269,.T.);
#267 = VERTEX_POINT('',#268);
#268 = CARTESIAN_POINT('',(0.,-3.10000000001,148.6857142857));
#269 = LINE('',#270,#271);
#270 = CARTESIAN_POINT('',(0.,-3.099999999919,69.942857142844));
#271 = VECTOR('',#272,1.);
#272 = DIRECTION('',(0.,-1.157861685318E-12,1.));
#273 = ORIENTED_EDGE('',*,*,#274,.F.);
#274 = EDGE_CURVE('',#275,#267,#277,.T.);
#275 = VERTEX_POINT('',#276);
#276 = CARTESIAN_POINT('',(0.,3.099999999995,148.68571428571));
#277 = CIRCLE('',#278,3.1);
#278 = AXIS2_PLACEMENT_3D('',#279,#280,#281);
#279 = CARTESIAN_POINT('',(0.,-1.017660924388E-11,148.68571428571));
#280 = DIRECTION('',(1.,0.,0.));
#281 = DIRECTION('',(0.,1.,0.));
#282 = ORIENTED_EDGE('',*,*,#283,.F.);
#283 = EDGE_CURVE('',#250,#275,#284,.T.);
#284 = LINE('',#285,#286);
#285 = CARTESIAN_POINT('',(0.,3.1,69.228571428571));
#286 = VECTOR('',#287,1.);
#287 = DIRECTION('',(0.,0.,1.));
#288 = FACE_BOUND('',#289,.F.);
#289 = EDGE_LOOP('',(#290,#301,#309,#317,#326));
#290 = ORIENTED_EDGE('',*,*,#291,.F.);
#291 = EDGE_CURVE('',#292,#294,#296,.T.);
#292 = VERTEX_POINT('',#293);
#293 = CARTESIAN_POINT('',(0.,-3.1,109.88571428571));
#294 = VERTEX_POINT('',#295);
#295 = CARTESIAN_POINT('',(0.,3.1,109.88571428571));
#296 = CIRCLE('',#297,3.1);
#297 = AXIS2_PLACEMENT_3D('',#298,#299,#300);
#298 = CARTESIAN_POINT('',(0.,1.268826313857E-14,109.88571428571));
#299 = DIRECTION('',(1.,0.,0.));
#300 = DIRECTION('',(0.,1.,0.));
#301 = ORIENTED_EDGE('',*,*,#302,.T.);
#302 = EDGE_CURVE('',#292,#303,#305,.T.);
#303 = VERTEX_POINT('',#304);
#304 = CARTESIAN_POINT('',(0.,-3.1,118.68571428571));
#305 = LINE('',#306,#307);
#306 = CARTESIAN_POINT('',(0.,-3.1,54.942857142857));
#307 = VECTOR('',#308,1.);
#308 = DIRECTION('',(0.,0.,1.));
#309 = ORIENTED_EDGE('',*,*,#310,.T.);
#310 = EDGE_CURVE('',#303,#311,#313,.T.);
#311 = VERTEX_POINT('',#312);
#312 = CARTESIAN_POINT('',(0.,-3.10000000001,120.11428571427));
#313 = LINE('',#314,#315);
#314 = CARTESIAN_POINT('',(0.,-3.099999999936,55.65714285713));
#315 = VECTOR('',#316,1.);
#316 = DIRECTION('',(0.,-1.157861685318E-12,1.));
#317 = ORIENTED_EDGE('',*,*,#318,.F.);
#318 = EDGE_CURVE('',#319,#311,#321,.T.);
#319 = VERTEX_POINT('',#320);
#320 = CARTESIAN_POINT('',(0.,3.099999999995,120.11428571428));
#321 = CIRCLE('',#322,3.1);
#322 = AXIS2_PLACEMENT_3D('',#323,#324,#325);
#323 = CARTESIAN_POINT('',(0.,-1.017978130966E-11,120.11428571428));
#324 = DIRECTION('',(1.,0.,0.));
#325 = DIRECTION('',(0.,1.,0.));
#326 = ORIENTED_EDGE('',*,*,#327,.F.);
#327 = EDGE_CURVE('',#294,#319,#328,.T.);
#328 = LINE('',#329,#330);
#329 = CARTESIAN_POINT('',(0.,3.1,54.942857142857));
#330 = VECTOR('',#331,1.);
#331 = DIRECTION('',(0.,0.,1.));
#332 = FACE_BOUND('',#333,.F.);
#333 = EDGE_LOOP('',(#334,#345,#353,#361,#370));
#334 = ORIENTED_EDGE('',*,*,#335,.F.);
#335 = EDGE_CURVE('',#336,#338,#340,.T.);
#336 = VERTEX_POINT('',#337);
#337 = CARTESIAN_POINT('',(0.,-3.1,81.314285714286));
#338 = VERTEX_POINT('',#339);
#339 = CARTESIAN_POINT('',(0.,3.1,81.314285714286));
#340 = CIRCLE('',#341,3.1);
#341 = AXIS2_PLACEMENT_3D('',#342,#343,#344);
#342 = CARTESIAN_POINT('',(0.,9.51619735393E-15,81.314285714286));
#343 = DIRECTION('',(1.,0.,0.));
#344 = DIRECTION('',(0.,1.,0.));
#345 = ORIENTED_EDGE('',*,*,#346,.T.);
#346 = EDGE_CURVE('',#336,#347,#349,.T.);
#347 = VERTEX_POINT('',#348);
#348 = CARTESIAN_POINT('',(0.,-3.1,90.114285714286));
#349 = LINE('',#350,#351);
#350 = CARTESIAN_POINT('',(0.,-3.1,40.657142857143));
#351 = VECTOR('',#352,1.);
#352 = DIRECTION('',(0.,0.,1.));
#353 = ORIENTED_EDGE('',*,*,#354,.T.);
#354 = EDGE_CURVE('',#347,#355,#357,.T.);
#355 = VERTEX_POINT('',#356);
#356 = CARTESIAN_POINT('',(0.,-3.10000000001,91.54285714285));
#357 = LINE('',#358,#359);
#358 = CARTESIAN_POINT('',(0.,-3.099999999952,41.371428571416));
#359 = VECTOR('',#360,1.);
#360 = DIRECTION('',(0.,-1.157861685318E-12,1.));
#361 = ORIENTED_EDGE('',*,*,#362,.F.);
#362 = EDGE_CURVE('',#363,#355,#365,.T.);
#363 = VERTEX_POINT('',#364);
#364 = CARTESIAN_POINT('',(0.,3.099999999995,91.542857142857));
#365 = CIRCLE('',#366,3.1);
#366 = AXIS2_PLACEMENT_3D('',#367,#368,#369);
#367 = CARTESIAN_POINT('',(0.,-1.018295337545E-11,91.542857142857));
#368 = DIRECTION('',(1.,0.,0.));
#369 = DIRECTION('',(0.,1.,0.));
#370 = ORIENTED_EDGE('',*,*,#371,.F.);
#371 = EDGE_CURVE('',#338,#363,#372,.T.);
#372 = LINE('',#373,#374);
#373 = CARTESIAN_POINT('',(0.,3.1,40.657142857143));
#374 = VECTOR('',#375,1.);
#375 = DIRECTION('',(0.,0.,1.));
#376 = FACE_BOUND('',#377,.F.);
#377 = EDGE_LOOP('',(#378,#389,#397,#405,#414));
#378 = ORIENTED_EDGE('',*,*,#379,.F.);
#379 = EDGE_CURVE('',#380,#382,#384,.T.);
#380 = VERTEX_POINT('',#381);
#381 = CARTESIAN_POINT('',(0.,-3.1,52.742857142857));
#382 = VERTEX_POINT('',#383);
#383 = CARTESIAN_POINT('',(0.,3.1,52.742857142857));
#384 = CIRCLE('',#385,3.1);
#385 = AXIS2_PLACEMENT_3D('',#386,#387,#388);
#386 = CARTESIAN_POINT('',(0.,6.344131569287E-15,52.742857142857));
#387 = DIRECTION('',(1.,0.,0.));
#388 = DIRECTION('',(0.,1.,0.));
#389 = ORIENTED_EDGE('',*,*,#390,.T.);
#390 = EDGE_CURVE('',#380,#391,#393,.T.);
#391 = VERTEX_POINT('',#392);
#392 = CARTESIAN_POINT('',(0.,-3.1,61.542857142857));
#393 = LINE('',#394,#395);
#394 = CARTESIAN_POINT('',(0.,-3.1,26.371428571429));
#395 = VECTOR('',#396,1.);
#396 = DIRECTION('',(0.,0.,1.));
#397 = ORIENTED_EDGE('',*,*,#398,.T.);
#398 = EDGE_CURVE('',#391,#399,#401,.T.);
#399 = VERTEX_POINT('',#400);
#400 = CARTESIAN_POINT('',(0.,-3.10000000001,62.971428571421));
#401 = LINE('',#402,#403);
#402 = CARTESIAN_POINT('',(0.,-3.099999999969,27.085714285701));
#403 = VECTOR('',#404,1.);
#404 = DIRECTION('',(0.,-1.157861685318E-12,1.));
#405 = ORIENTED_EDGE('',*,*,#406,.F.);
#406 = EDGE_CURVE('',#407,#399,#409,.T.);
#407 = VERTEX_POINT('',#408);
#408 = CARTESIAN_POINT('',(0.,3.099999999995,62.971428571429));
#409 = CIRCLE('',#410,3.1);
#410 = AXIS2_PLACEMENT_3D('',#411,#412,#413);
#411 = CARTESIAN_POINT('',(0.,-1.018612544123E-11,62.971428571429));
#412 = DIRECTION('',(1.,0.,0.));
#413 = DIRECTION('',(0.,1.,0.));
#414 = ORIENTED_EDGE('',*,*,#415,.F.);
#415 = EDGE_CURVE('',#382,#407,#416,.T.);
#416 = LINE('',#417,#418);
#417 = CARTESIAN_POINT('',(0.,3.1,26.371428571429));
#418 = VECTOR('',#419,1.);
#419 = DIRECTION('',(0.,0.,1.));
#420 = FACE_BOUND('',#421,.F.);
#421 = EDGE_LOOP('',(#422,#432,#440,#449,#457));
#422 = ORIENTED_EDGE('',*,*,#423,.T.);
#423 = EDGE_CURVE('',#424,#426,#428,.T.);
#424 = VERTEX_POINT('',#425);
#425 = CARTESIAN_POINT('',(0.,-3.1,24.171428571429));
#426 = VERTEX_POINT('',#427);
#427 = CARTESIAN_POINT('',(0.,-3.1,25.599999999993));
#428 = LINE('',#429,#430);
#429 = CARTESIAN_POINT('',(0.,-3.1,12.085714285714));
#430 = VECTOR('',#431,1.);
#431 = DIRECTION('',(0.,0.,1.));
#432 = ORIENTED_EDGE('',*,*,#433,.T.);
#433 = EDGE_CURVE('',#426,#434,#436,.T.);
#434 = VERTEX_POINT('',#435);
#435 = CARTESIAN_POINT('',(0.,-3.10000000001,34.399999999993));
#436 = LINE('',#437,#438);
#437 = CARTESIAN_POINT('',(0.,-3.099999999985,12.799999999987));
#438 = VECTOR('',#439,1.);
#439 = DIRECTION('',(0.,-1.157861685318E-12,1.));
#440 = ORIENTED_EDGE('',*,*,#441,.F.);
#441 = EDGE_CURVE('',#442,#434,#444,.T.);
#442 = VERTEX_POINT('',#443);
#443 = CARTESIAN_POINT('',(0.,3.099999999995,34.4));
#444 = CIRCLE('',#445,3.1);
#445 = AXIS2_PLACEMENT_3D('',#446,#447,#448);
#446 = CARTESIAN_POINT('',(0.,-1.018929750702E-11,34.4));
#447 = DIRECTION('',(1.,0.,0.));
#448 = DIRECTION('',(0.,1.,0.));
#449 = ORIENTED_EDGE('',*,*,#450,.F.);
#450 = EDGE_CURVE('',#451,#442,#453,.T.);
#451 = VERTEX_POINT('',#452);
#452 = CARTESIAN_POINT('',(0.,3.1,24.171428571429));
#453 = LINE('',#454,#455);
#454 = CARTESIAN_POINT('',(0.,3.1,12.085714285714));
#455 = VECTOR('',#456,1.);
#456 = DIRECTION('',(0.,0.,1.));
#457 = ORIENTED_EDGE('',*,*,#458,.F.);
#458 = EDGE_CURVE('',#424,#451,#459,.T.);
#459 = CIRCLE('',#460,3.1);
#460 = AXIS2_PLACEMENT_3D('',#461,#462,#463);
#461 = CARTESIAN_POINT('',(0.,3.172065784643E-15,24.171428571429));
#462 = DIRECTION('',(1.,0.,0.));
#463 = DIRECTION('',(0.,1.,0.));
#464 = PLANE('',#465);
#465 = AXIS2_PLACEMENT_3D('',#466,#467,#468);
#466 = CARTESIAN_POINT('',(0.,12.7,0.));
#467 = DIRECTION('',(1.,0.,0.));
#468 = DIRECTION('',(0.,-1.,0.));
#469 = ADVANCED_FACE('',(#470),#530,.F.);
#470 = FACE_BOUND('',#471,.F.);
#471 = EDGE_LOOP('',(#472,#473,#474,#475,#483,#491,#499,#508,#516,#524)
  );
#472 = ORIENTED_EDGE('',*,*,#98,.F.);
#473 = ORIENTED_EDGE('',*,*,#66,.T.);
#474 = ORIENTED_EDGE('',*,*,#112,.T.);
#475 = ORIENTED_EDGE('',*,*,#476,.F.);
#476 = EDGE_CURVE('',#477,#113,#479,.T.);
#477 = VERTEX_POINT('',#478);
#478 = CARTESIAN_POINT('',(1.,3.1,0.));
#479 = LINE('',#480,#481);
#480 = CARTESIAN_POINT('',(1.836526735934,3.1,0.));
#481 = VECTOR('',#482,1.);
#482 = DIRECTION('',(-1.,0.,0.));
#483 = ORIENTED_EDGE('',*,*,#484,.T.);
#484 = EDGE_CURVE('',#477,#485,#487,.T.);
#485 = VERTEX_POINT('',#486);
#486 = CARTESIAN_POINT('',(1.,12.5,0.));
#487 = LINE('',#488,#489);
#488 = CARTESIAN_POINT('',(1.,-12.5,0.));
#489 = VECTOR('',#490,1.);
#490 = DIRECTION('',(0.,1.,0.));
#491 = ORIENTED_EDGE('',*,*,#492,.T.);
#492 = EDGE_CURVE('',#485,#493,#495,.T.);
#493 = VERTEX_POINT('',#494);
#494 = CARTESIAN_POINT('',(6.7,12.5,0.));
#495 = LINE('',#496,#497);
#496 = CARTESIAN_POINT('',(1.,12.5,0.));
#497 = VECTOR('',#498,1.);
#498 = DIRECTION('',(1.,0.,0.));
#499 = ORIENTED_EDGE('',*,*,#500,.T.);
#500 = EDGE_CURVE('',#493,#501,#503,.T.);
#501 = VERTEX_POINT('',#502);
#502 = CARTESIAN_POINT('',(7.5,13.3,0.));
#503 = CIRCLE('',#504,0.8);
#504 = AXIS2_PLACEMENT_3D('',#505,#506,#507);
#505 = CARTESIAN_POINT('',(6.7,13.3,0.));
#506 = DIRECTION('',(0.,0.,1.));
#507 = DIRECTION('',(1.,0.,0.));
#508 = ORIENTED_EDGE('',*,*,#509,.F.);
#509 = EDGE_CURVE('',#510,#501,#512,.T.);
#510 = VERTEX_POINT('',#511);
#511 = CARTESIAN_POINT('',(7.5,17.5,0.));
#512 = LINE('',#513,#514);
#513 = CARTESIAN_POINT('',(7.5,17.5,0.));
#514 = VECTOR('',#515,1.);
#515 = DIRECTION('',(0.,-1.,0.));
#516 = ORIENTED_EDGE('',*,*,#517,.T.);
#517 = EDGE_CURVE('',#510,#518,#520,.T.);
#518 = VERTEX_POINT('',#519);
#519 = CARTESIAN_POINT('',(6.5,17.5,0.));
#520 = LINE('',#521,#522);
#521 = CARTESIAN_POINT('',(7.5,17.5,0.));
#522 = VECTOR('',#523,1.);
#523 = DIRECTION('',(-1.,0.,0.));
#524 = ORIENTED_EDGE('',*,*,#525,.F.);
#525 = EDGE_CURVE('',#91,#518,#526,.T.);
#526 = LINE('',#527,#528);
#527 = CARTESIAN_POINT('',(6.5,13.5,0.));
#528 = VECTOR('',#529,1.);
#529 = DIRECTION('',(0.,1.,0.));
#530 = PLANE('',#531);
#531 = AXIS2_PLACEMENT_3D('',#532,#533,#534);
#532 = CARTESIAN_POINT('',(2.673053471868,-7.357851272752E-16,0.));
#533 = DIRECTION('',(0.,0.,1.));
#534 = DIRECTION('',(1.,0.,0.));
#535 = ADVANCED_FACE('',(#536),#596,.T.);
#536 = FACE_BOUND('',#537,.T.);
#537 = EDGE_LOOP('',(#538,#539,#540,#541,#549,#557,#565,#574,#582,#590)
  );
#538 = ORIENTED_EDGE('',*,*,#82,.F.);
#539 = ORIENTED_EDGE('',*,*,#49,.T.);
#540 = ORIENTED_EDGE('',*,*,#121,.T.);
#541 = ORIENTED_EDGE('',*,*,#542,.F.);
#542 = EDGE_CURVE('',#543,#122,#545,.T.);
#543 = VERTEX_POINT('',#544);
#544 = CARTESIAN_POINT('',(1.,3.1,200.));
#545 = LINE('',#546,#547);
#546 = CARTESIAN_POINT('',(1.836526735934,3.1,200.));
#547 = VECTOR('',#548,1.);
#548 = DIRECTION('',(-1.,0.,0.));
#549 = ORIENTED_EDGE('',*,*,#550,.T.);
#550 = EDGE_CURVE('',#543,#551,#553,.T.);
#551 = VERTEX_POINT('',#552);
#552 = CARTESIAN_POINT('',(1.,12.5,200.));
#553 = LINE('',#554,#555);
#554 = CARTESIAN_POINT('',(1.,-12.5,200.));
#555 = VECTOR('',#556,1.);
#556 = DIRECTION('',(0.,1.,0.));
#557 = ORIENTED_EDGE('',*,*,#558,.T.);
#558 = EDGE_CURVE('',#551,#559,#561,.T.);
#559 = VERTEX_POINT('',#560);
#560 = CARTESIAN_POINT('',(6.7,12.5,200.));
#561 = LINE('',#562,#563);
#562 = CARTESIAN_POINT('',(1.,12.5,200.));
#563 = VECTOR('',#564,1.);
#564 = DIRECTION('',(1.,0.,0.));
#565 = ORIENTED_EDGE('',*,*,#566,.T.);
#566 = EDGE_CURVE('',#559,#567,#569,.T.);
#567 = VERTEX_POINT('',#568);
#568 = CARTESIAN_POINT('',(7.5,13.3,200.));
#569 = CIRCLE('',#570,0.8);
#570 = AXIS2_PLACEMENT_3D('',#571,#572,#573);
#571 = CARTESIAN_POINT('',(6.7,13.3,200.));
#572 = DIRECTION('',(0.,0.,1.));
#573 = DIRECTION('',(1.,0.,0.));
#574 = ORIENTED_EDGE('',*,*,#575,.F.);
#575 = EDGE_CURVE('',#576,#567,#578,.T.);
#576 = VERTEX_POINT('',#577);
#577 = CARTESIAN_POINT('',(7.5,17.5,200.));
#578 = LINE('',#579,#580);
#579 = CARTESIAN_POINT('',(7.5,17.5,200.));
#580 = VECTOR('',#581,1.);
#581 = DIRECTION('',(0.,-1.,0.));
#582 = ORIENTED_EDGE('',*,*,#583,.T.);
#583 = EDGE_CURVE('',#576,#584,#586,.T.);
#584 = VERTEX_POINT('',#585);
#585 = CARTESIAN_POINT('',(6.5,17.5,200.));
#586 = LINE('',#587,#588);
#587 = CARTESIAN_POINT('',(7.5,17.5,200.));
#588 = VECTOR('',#589,1.);
#589 = DIRECTION('',(-1.,0.,0.));
#590 = ORIENTED_EDGE('',*,*,#591,.F.);
#591 = EDGE_CURVE('',#83,#584,#592,.T.);
#592 = LINE('',#593,#594);
#593 = CARTESIAN_POINT('',(6.5,13.5,200.));
#594 = VECTOR('',#595,1.);
#595 = DIRECTION('',(0.,1.,0.));
#596 = PLANE('',#597);
#597 = AXIS2_PLACEMENT_3D('',#598,#599,#600);
#598 = CARTESIAN_POINT('',(2.673053471868,-7.357851272752E-16,200.));
#599 = DIRECTION('',(0.,0.,1.));
#600 = DIRECTION('',(1.,0.,0.));
#601 = ADVANCED_FACE('',(#602),#613,.T.);
#602 = FACE_BOUND('',#603,.T.);
#603 = EDGE_LOOP('',(#604,#605,#606,#612));
#604 = ORIENTED_EDGE('',*,*,#90,.T.);
#605 = ORIENTED_EDGE('',*,*,#591,.T.);
#606 = ORIENTED_EDGE('',*,*,#607,.F.);
#607 = EDGE_CURVE('',#518,#584,#608,.T.);
#608 = LINE('',#609,#610);
#609 = CARTESIAN_POINT('',(6.5,17.5,0.));
#610 = VECTOR('',#611,1.);
#611 = DIRECTION('',(0.,0.,1.));
#612 = ORIENTED_EDGE('',*,*,#525,.F.);
#613 = PLANE('',#614);
#614 = AXIS2_PLACEMENT_3D('',#615,#616,#617);
#615 = CARTESIAN_POINT('',(6.5,13.5,0.));
#616 = DIRECTION('',(-1.,0.,0.));
#617 = DIRECTION('',(0.,1.,0.));
#618 = ADVANCED_FACE('',(#619),#637,.F.);
#619 = FACE_BOUND('',#620,.F.);
#620 = EDGE_LOOP('',(#621,#629,#630,#631));
#621 = ORIENTED_EDGE('',*,*,#622,.F.);
#622 = EDGE_CURVE('',#477,#623,#625,.T.);
#623 = VERTEX_POINT('',#624);
#624 = CARTESIAN_POINT('',(1.,3.1,4.4));
#625 = LINE('',#626,#627);
#626 = CARTESIAN_POINT('',(1.,3.1,-4.4));
#627 = VECTOR('',#628,1.);
#628 = DIRECTION('',(0.,0.,1.));
#629 = ORIENTED_EDGE('',*,*,#476,.T.);
#630 = ORIENTED_EDGE('',*,*,#195,.T.);
#631 = ORIENTED_EDGE('',*,*,#632,.F.);
#632 = EDGE_CURVE('',#623,#187,#633,.T.);
#633 = LINE('',#634,#635);
#634 = CARTESIAN_POINT('',(1.,3.1,4.4));
#635 = VECTOR('',#636,1.);
#636 = DIRECTION('',(-1.,-0.,-0.));
#637 = PLANE('',#638);
#638 = AXIS2_PLACEMENT_3D('',#639,#640,#641);
#639 = CARTESIAN_POINT('',(1.,3.1,-4.4));
#640 = DIRECTION('',(0.,1.,0.));
#641 = DIRECTION('',(0.,0.,1.));
#642 = ADVANCED_FACE('',(#643),#662,.F.);
#643 = FACE_BOUND('',#644,.F.);
#644 = EDGE_LOOP('',(#645,#654,#655,#656));
#645 = ORIENTED_EDGE('',*,*,#646,.F.);
#646 = EDGE_CURVE('',#623,#647,#649,.T.);
#647 = VERTEX_POINT('',#648);
#648 = CARTESIAN_POINT('',(1.,-3.1,4.4));
#649 = CIRCLE('',#650,3.1);
#650 = AXIS2_PLACEMENT_3D('',#651,#652,#653);
#651 = CARTESIAN_POINT('',(1.,1.744634820251E-16,4.4));
#652 = DIRECTION('',(1.,0.,0.));
#653 = DIRECTION('',(0.,1.,0.));
#654 = ORIENTED_EDGE('',*,*,#632,.T.);
#655 = ORIENTED_EDGE('',*,*,#186,.T.);
#656 = ORIENTED_EDGE('',*,*,#657,.F.);
#657 = EDGE_CURVE('',#647,#179,#658,.T.);
#658 = LINE('',#659,#660);
#659 = CARTESIAN_POINT('',(1.,-3.1,4.4));
#660 = VECTOR('',#661,1.);
#661 = DIRECTION('',(-1.,-0.,-0.));
#662 = CYLINDRICAL_SURFACE('',#663,3.1);
#663 = AXIS2_PLACEMENT_3D('',#664,#665,#666);
#664 = CARTESIAN_POINT('',(1.,1.744634820251E-16,4.4));
#665 = DIRECTION('',(1.,0.,0.));
#666 = DIRECTION('',(0.,1.,0.));
#667 = ADVANCED_FACE('',(#668),#686,.T.);
#668 = FACE_BOUND('',#669,.T.);
#669 = EDGE_LOOP('',(#670,#678,#684,#685));
#670 = ORIENTED_EDGE('',*,*,#671,.F.);
#671 = EDGE_CURVE('',#672,#647,#674,.T.);
#672 = VERTEX_POINT('',#673);
#673 = CARTESIAN_POINT('',(1.,-3.1,0.));
#674 = LINE('',#675,#676);
#675 = CARTESIAN_POINT('',(1.,-3.1,-4.4));
#676 = VECTOR('',#677,1.);
#677 = DIRECTION('',(0.,0.,1.));
#678 = ORIENTED_EDGE('',*,*,#679,.T.);
#679 = EDGE_CURVE('',#672,#171,#680,.T.);
#680 = LINE('',#681,#682);
#681 = CARTESIAN_POINT('',(1.836526735934,-3.1,0.));
#682 = VECTOR('',#683,1.);
#683 = DIRECTION('',(-1.,0.,0.));
#684 = ORIENTED_EDGE('',*,*,#178,.T.);
#685 = ORIENTED_EDGE('',*,*,#657,.F.);
#686 = PLANE('',#687);
#687 = AXIS2_PLACEMENT_3D('',#688,#689,#690);
#688 = CARTESIAN_POINT('',(1.,-3.1,-4.4));
#689 = DIRECTION('',(0.,1.,0.));
#690 = DIRECTION('',(0.,0.,1.));
#691 = ADVANCED_FACE('',(#692),#760,.F.);
#692 = FACE_BOUND('',#693,.F.);
#693 = EDGE_LOOP('',(#694,#695,#696,#705,#713,#721,#729,#737,#746,#754)
  );
#694 = ORIENTED_EDGE('',*,*,#679,.T.);
#695 = ORIENTED_EDGE('',*,*,#170,.T.);
#696 = ORIENTED_EDGE('',*,*,#697,.T.);
#697 = EDGE_CURVE('',#163,#698,#700,.T.);
#698 = VERTEX_POINT('',#699);
#699 = CARTESIAN_POINT('',(0.8,-13.5,0.));
#700 = CIRCLE('',#701,0.8);
#701 = AXIS2_PLACEMENT_3D('',#702,#703,#704);
#702 = CARTESIAN_POINT('',(0.8,-12.7,0.));
#703 = DIRECTION('',(0.,0.,1.));
#704 = DIRECTION('',(1.,0.,0.));
#705 = ORIENTED_EDGE('',*,*,#706,.T.);
#706 = EDGE_CURVE('',#698,#707,#709,.T.);
#707 = VERTEX_POINT('',#708);
#708 = CARTESIAN_POINT('',(6.5,-13.5,0.));
#709 = LINE('',#710,#711);
#710 = CARTESIAN_POINT('',(0.8,-13.5,0.));
#711 = VECTOR('',#712,1.);
#712 = DIRECTION('',(1.,0.,0.));
#713 = ORIENTED_EDGE('',*,*,#714,.F.);
#714 = EDGE_CURVE('',#715,#707,#717,.T.);
#715 = VERTEX_POINT('',#716);
#716 = CARTESIAN_POINT('',(6.5,-17.5,0.));
#717 = LINE('',#718,#719);
#718 = CARTESIAN_POINT('',(6.5,-17.5,0.));
#719 = VECTOR('',#720,1.);
#720 = DIRECTION('',(0.,1.,0.));
#721 = ORIENTED_EDGE('',*,*,#722,.F.);
#722 = EDGE_CURVE('',#723,#715,#725,.T.);
#723 = VERTEX_POINT('',#724);
#724 = CARTESIAN_POINT('',(7.5,-17.5,0.));
#725 = LINE('',#726,#727);
#726 = CARTESIAN_POINT('',(7.5,-17.5,0.));
#727 = VECTOR('',#728,1.);
#728 = DIRECTION('',(-1.,0.,0.));
#729 = ORIENTED_EDGE('',*,*,#730,.F.);
#730 = EDGE_CURVE('',#731,#723,#733,.T.);
#731 = VERTEX_POINT('',#732);
#732 = CARTESIAN_POINT('',(7.5,-13.3,0.));
#733 = LINE('',#734,#735);
#734 = CARTESIAN_POINT('',(7.5,-13.3,0.));
#735 = VECTOR('',#736,1.);
#736 = DIRECTION('',(0.,-1.,0.));
#737 = ORIENTED_EDGE('',*,*,#738,.T.);
#738 = EDGE_CURVE('',#731,#739,#741,.T.);
#739 = VERTEX_POINT('',#740);
#740 = CARTESIAN_POINT('',(6.7,-12.5,0.));
#741 = CIRCLE('',#742,0.8);
#742 = AXIS2_PLACEMENT_3D('',#743,#744,#745);
#743 = CARTESIAN_POINT('',(6.7,-13.3,0.));
#744 = DIRECTION('',(0.,0.,1.));
#745 = DIRECTION('',(1.,0.,0.));
#746 = ORIENTED_EDGE('',*,*,#747,.F.);
#747 = EDGE_CURVE('',#748,#739,#750,.T.);
#748 = VERTEX_POINT('',#749);
#749 = CARTESIAN_POINT('',(1.,-12.5,0.));
#750 = LINE('',#751,#752);
#751 = CARTESIAN_POINT('',(1.,-12.5,0.));
#752 = VECTOR('',#753,1.);
#753 = DIRECTION('',(1.,0.,0.));
#754 = ORIENTED_EDGE('',*,*,#755,.T.);
#755 = EDGE_CURVE('',#748,#672,#756,.T.);
#756 = LINE('',#757,#758);
#757 = CARTESIAN_POINT('',(1.,-12.5,0.));
#758 = VECTOR('',#759,1.);
#759 = DIRECTION('',(0.,1.,0.));
#760 = PLANE('',#761);
#761 = AXIS2_PLACEMENT_3D('',#762,#763,#764);
#762 = CARTESIAN_POINT('',(2.673053471868,-7.357851272752E-16,0.));
#763 = DIRECTION('',(0.,0.,1.));
#764 = DIRECTION('',(1.,0.,0.));
#765 = ADVANCED_FACE('',(#766),#785,.T.);
#766 = FACE_BOUND('',#767,.F.);
#767 = EDGE_LOOP('',(#768,#769,#778,#784));
#768 = ORIENTED_EDGE('',*,*,#162,.T.);
#769 = ORIENTED_EDGE('',*,*,#770,.T.);
#770 = EDGE_CURVE('',#155,#771,#773,.T.);
#771 = VERTEX_POINT('',#772);
#772 = CARTESIAN_POINT('',(0.8,-13.5,200.));
#773 = CIRCLE('',#774,0.8);
#774 = AXIS2_PLACEMENT_3D('',#775,#776,#777);
#775 = CARTESIAN_POINT('',(0.8,-12.7,200.));
#776 = DIRECTION('',(0.,0.,1.));
#777 = DIRECTION('',(1.,0.,0.));
#778 = ORIENTED_EDGE('',*,*,#779,.F.);
#779 = EDGE_CURVE('',#698,#771,#780,.T.);
#780 = LINE('',#781,#782);
#781 = CARTESIAN_POINT('',(0.8,-13.5,0.));
#782 = VECTOR('',#783,1.);
#783 = DIRECTION('',(0.,0.,1.));
#784 = ORIENTED_EDGE('',*,*,#697,.F.);
#785 = CYLINDRICAL_SURFACE('',#786,0.8);
#786 = AXIS2_PLACEMENT_3D('',#787,#788,#789);
#787 = CARTESIAN_POINT('',(0.8,-12.7,0.));
#788 = DIRECTION('',(-0.,-0.,-1.));
#789 = DIRECTION('',(1.,0.,0.));
#790 = ADVANCED_FACE('',(#791),#858,.T.);
#791 = FACE_BOUND('',#792,.T.);
#792 = EDGE_LOOP('',(#793,#801,#802,#803,#811,#819,#827,#835,#844,#852)
  );
#793 = ORIENTED_EDGE('',*,*,#794,.T.);
#794 = EDGE_CURVE('',#795,#147,#797,.T.);
#795 = VERTEX_POINT('',#796);
#796 = CARTESIAN_POINT('',(1.,-3.100000000002,200.));
#797 = LINE('',#798,#799);
#798 = CARTESIAN_POINT('',(1.836526735934,-3.1,200.));
#799 = VECTOR('',#800,1.);
#800 = DIRECTION('',(-1.,0.,0.));
#801 = ORIENTED_EDGE('',*,*,#154,.T.);
#802 = ORIENTED_EDGE('',*,*,#770,.T.);
#803 = ORIENTED_EDGE('',*,*,#804,.T.);
#804 = EDGE_CURVE('',#771,#805,#807,.T.);
#805 = VERTEX_POINT('',#806);
#806 = CARTESIAN_POINT('',(6.5,-13.5,200.));
#807 = LINE('',#808,#809);
#808 = CARTESIAN_POINT('',(0.8,-13.5,200.));
#809 = VECTOR('',#810,1.);
#810 = DIRECTION('',(1.,0.,0.));
#811 = ORIENTED_EDGE('',*,*,#812,.F.);
#812 = EDGE_CURVE('',#813,#805,#815,.T.);
#813 = VERTEX_POINT('',#814);
#814 = CARTESIAN_POINT('',(6.5,-17.5,200.));
#815 = LINE('',#816,#817);
#816 = CARTESIAN_POINT('',(6.5,-17.5,200.));
#817 = VECTOR('',#818,1.);
#818 = DIRECTION('',(0.,1.,0.));
#819 = ORIENTED_EDGE('',*,*,#820,.F.);
#820 = EDGE_CURVE('',#821,#813,#823,.T.);
#821 = VERTEX_POINT('',#822);
#822 = CARTESIAN_POINT('',(7.5,-17.5,200.));
#823 = LINE('',#824,#825);
#824 = CARTESIAN_POINT('',(7.5,-17.5,200.));
#825 = VECTOR('',#826,1.);
#826 = DIRECTION('',(-1.,0.,0.));
#827 = ORIENTED_EDGE('',*,*,#828,.F.);
#828 = EDGE_CURVE('',#829,#821,#831,.T.);
#829 = VERTEX_POINT('',#830);
#830 = CARTESIAN_POINT('',(7.5,-13.3,200.));
#831 = LINE('',#832,#833);
#832 = CARTESIAN_POINT('',(7.5,-13.3,200.));
#833 = VECTOR('',#834,1.);
#834 = DIRECTION('',(0.,-1.,0.));
#835 = ORIENTED_EDGE('',*,*,#836,.T.);
#836 = EDGE_CURVE('',#829,#837,#839,.T.);
#837 = VERTEX_POINT('',#838);
#838 = CARTESIAN_POINT('',(6.7,-12.5,200.));
#839 = CIRCLE('',#840,0.8);
#840 = AXIS2_PLACEMENT_3D('',#841,#842,#843);
#841 = CARTESIAN_POINT('',(6.7,-13.3,200.));
#842 = DIRECTION('',(0.,0.,1.));
#843 = DIRECTION('',(1.,0.,0.));
#844 = ORIENTED_EDGE('',*,*,#845,.F.);
#845 = EDGE_CURVE('',#846,#837,#848,.T.);
#846 = VERTEX_POINT('',#847);
#847 = CARTESIAN_POINT('',(1.,-12.5,200.));
#848 = LINE('',#849,#850);
#849 = CARTESIAN_POINT('',(1.,-12.5,200.));
#850 = VECTOR('',#851,1.);
#851 = DIRECTION('',(1.,0.,0.));
#852 = ORIENTED_EDGE('',*,*,#853,.T.);
#853 = EDGE_CURVE('',#846,#795,#854,.T.);
#854 = LINE('',#855,#856);
#855 = CARTESIAN_POINT('',(1.,-12.5,200.));
#856 = VECTOR('',#857,1.);
#857 = DIRECTION('',(0.,1.,0.));
#858 = PLANE('',#859);
#859 = AXIS2_PLACEMENT_3D('',#860,#861,#862);
#860 = CARTESIAN_POINT('',(2.673053471868,-7.357851272752E-16,200.));
#861 = DIRECTION('',(0.,0.,1.));
#862 = DIRECTION('',(1.,0.,0.));
#863 = ADVANCED_FACE('',(#864),#890,.F.);
#864 = FACE_BOUND('',#865,.F.);
#865 = EDGE_LOOP('',(#866,#877,#883,#884));
#866 = ORIENTED_EDGE('',*,*,#867,.F.);
#867 = EDGE_CURVE('',#868,#870,#872,.T.);
#868 = VERTEX_POINT('',#869);
#869 = CARTESIAN_POINT('',(1.,-3.1,195.6));
#870 = VERTEX_POINT('',#871);
#871 = CARTESIAN_POINT('',(1.,3.1,195.6));
#872 = CIRCLE('',#873,3.1);
#873 = AXIS2_PLACEMENT_3D('',#874,#875,#876);
#874 = CARTESIAN_POINT('',(1.,2.22044604925E-14,195.6));
#875 = DIRECTION('',(1.,0.,0.));
#876 = DIRECTION('',(0.,1.,0.));
#877 = ORIENTED_EDGE('',*,*,#878,.T.);
#878 = EDGE_CURVE('',#868,#138,#879,.T.);
#879 = LINE('',#880,#881);
#880 = CARTESIAN_POINT('',(1.,-3.1,195.6));
#881 = VECTOR('',#882,1.);
#882 = DIRECTION('',(-1.,-0.,-0.));
#883 = ORIENTED_EDGE('',*,*,#137,.T.);
#884 = ORIENTED_EDGE('',*,*,#885,.F.);
#885 = EDGE_CURVE('',#870,#130,#886,.T.);
#886 = LINE('',#887,#888);
#887 = CARTESIAN_POINT('',(1.,3.1,195.6));
#888 = VECTOR('',#889,1.);
#889 = DIRECTION('',(-1.,-0.,-0.));
#890 = CYLINDRICAL_SURFACE('',#891,3.1);
#891 = AXIS2_PLACEMENT_3D('',#892,#893,#894);
#892 = CARTESIAN_POINT('',(1.,2.22044604925E-14,195.6));
#893 = DIRECTION('',(1.,0.,0.));
#894 = DIRECTION('',(0.,1.,0.));
#895 = ADVANCED_FACE('',(#896),#922,.F.);
#896 = FACE_BOUND('',#897,.F.);
#897 = EDGE_LOOP('',(#898,#909,#915,#916));
#898 = ORIENTED_EDGE('',*,*,#899,.F.);
#899 = EDGE_CURVE('',#900,#902,#904,.T.);
#900 = VERTEX_POINT('',#901);
#901 = CARTESIAN_POINT('',(1.,-3.1,167.02857142857));
#902 = VERTEX_POINT('',#903);
#903 = CARTESIAN_POINT('',(1.,3.1,167.02857142857));
#904 = CIRCLE('',#905,3.1);
#905 = AXIS2_PLACEMENT_3D('',#906,#907,#908);
#906 = CARTESIAN_POINT('',(1.,1.903239470786E-14,167.02857142857));
#907 = DIRECTION('',(1.,0.,0.));
#908 = DIRECTION('',(0.,1.,0.));
#909 = ORIENTED_EDGE('',*,*,#910,.T.);
#910 = EDGE_CURVE('',#900,#204,#911,.T.);
#911 = LINE('',#912,#913);
#912 = CARTESIAN_POINT('',(1.,-3.1,167.02857142857));
#913 = VECTOR('',#914,1.);
#914 = DIRECTION('',(-1.,-0.,-0.));
#915 = ORIENTED_EDGE('',*,*,#203,.T.);
#916 = ORIENTED_EDGE('',*,*,#917,.F.);
#917 = EDGE_CURVE('',#902,#206,#918,.T.);
#918 = LINE('',#919,#920);
#919 = CARTESIAN_POINT('',(1.,3.1,167.02857142857));
#920 = VECTOR('',#921,1.);
#921 = DIRECTION('',(-1.,-0.,-0.));
#922 = CYLINDRICAL_SURFACE('',#923,3.1);
#923 = AXIS2_PLACEMENT_3D('',#924,#925,#926);
#924 = CARTESIAN_POINT('',(1.,1.903239470786E-14,167.02857142857));
#925 = DIRECTION('',(1.,0.,0.));
#926 = DIRECTION('',(0.,1.,0.));
#927 = ADVANCED_FACE('',(#928),#954,.F.);
#928 = FACE_BOUND('',#929,.F.);
#929 = EDGE_LOOP('',(#930,#941,#947,#948));
#930 = ORIENTED_EDGE('',*,*,#931,.F.);
#931 = EDGE_CURVE('',#932,#934,#936,.T.);
#932 = VERTEX_POINT('',#933);
#933 = CARTESIAN_POINT('',(1.,3.099999999995,177.25714285714));
#934 = VERTEX_POINT('',#935);
#935 = CARTESIAN_POINT('',(1.,-3.10000000001,177.25714285713));
#936 = CIRCLE('',#937,3.1);
#937 = AXIS2_PLACEMENT_3D('',#938,#939,#940);
#938 = CARTESIAN_POINT('',(1.,-1.017343717809E-11,177.25714285714));
#939 = DIRECTION('',(1.,0.,0.));
#940 = DIRECTION('',(0.,1.,0.));
#941 = ORIENTED_EDGE('',*,*,#942,.T.);
#942 = EDGE_CURVE('',#932,#231,#943,.T.);
#943 = LINE('',#944,#945);
#944 = CARTESIAN_POINT('',(1.,3.099999999995,177.25714285714));
#945 = VECTOR('',#946,1.);
#946 = DIRECTION('',(-1.,-0.,-0.));
#947 = ORIENTED_EDGE('',*,*,#230,.T.);
#948 = ORIENTED_EDGE('',*,*,#949,.F.);
#949 = EDGE_CURVE('',#934,#223,#950,.T.);
#950 = LINE('',#951,#952);
#951 = CARTESIAN_POINT('',(1.,-3.10000000001,177.25714285713));
#952 = VECTOR('',#953,1.);
#953 = DIRECTION('',(-1.,-0.,-0.));
#954 = CYLINDRICAL_SURFACE('',#955,3.1);
#955 = AXIS2_PLACEMENT_3D('',#956,#957,#958);
#956 = CARTESIAN_POINT('',(1.,-1.017343717809E-11,177.25714285714));
#957 = DIRECTION('',(1.,0.,0.));
#958 = DIRECTION('',(0.,1.,0.));
#959 = ADVANCED_FACE('',(#960),#986,.F.);
#960 = FACE_BOUND('',#961,.F.);
#961 = EDGE_LOOP('',(#962,#973,#979,#980));
#962 = ORIENTED_EDGE('',*,*,#963,.F.);
#963 = EDGE_CURVE('',#964,#966,#968,.T.);
#964 = VERTEX_POINT('',#965);
#965 = CARTESIAN_POINT('',(1.,-3.1,138.45714285714));
#966 = VERTEX_POINT('',#967);
#967 = CARTESIAN_POINT('',(1.,3.1,138.45714285714));
#968 = CIRCLE('',#969,3.1);
#969 = AXIS2_PLACEMENT_3D('',#970,#971,#972);
#970 = CARTESIAN_POINT('',(1.,1.586032892322E-14,138.45714285714));
#971 = DIRECTION('',(1.,0.,0.));
#972 = DIRECTION('',(0.,1.,0.));
#973 = ORIENTED_EDGE('',*,*,#974,.T.);
#974 = EDGE_CURVE('',#964,#248,#975,.T.);
#975 = LINE('',#976,#977);
#976 = CARTESIAN_POINT('',(1.,-3.1,138.45714285714));
#977 = VECTOR('',#978,1.);
#978 = DIRECTION('',(-1.,-0.,-0.));
#979 = ORIENTED_EDGE('',*,*,#247,.T.);
#980 = ORIENTED_EDGE('',*,*,#981,.F.);
#981 = EDGE_CURVE('',#966,#250,#982,.T.);
#982 = LINE('',#983,#984);
#983 = CARTESIAN_POINT('',(1.,3.1,138.45714285714));
#984 = VECTOR('',#985,1.);
#985 = DIRECTION('',(-1.,-0.,-0.));
#986 = CYLINDRICAL_SURFACE('',#987,3.1);
#987 = AXIS2_PLACEMENT_3D('',#988,#989,#990);
#988 = CARTESIAN_POINT('',(1.,1.586032892322E-14,138.45714285714));
#989 = DIRECTION('',(1.,0.,0.));
#990 = DIRECTION('',(0.,1.,0.));
#991 = ADVANCED_FACE('',(#992),#1018,.F.);
#992 = FACE_BOUND('',#993,.F.);
#993 = EDGE_LOOP('',(#994,#1005,#1011,#1012));
#994 = ORIENTED_EDGE('',*,*,#995,.F.);
#995 = EDGE_CURVE('',#996,#998,#1000,.T.);
#996 = VERTEX_POINT('',#997);
#997 = CARTESIAN_POINT('',(1.,3.099999999995,148.68571428571));
#998 = VERTEX_POINT('',#999);
#999 = CARTESIAN_POINT('',(1.,-3.10000000001,148.6857142857));
#1000 = CIRCLE('',#1001,3.1);
#1001 = AXIS2_PLACEMENT_3D('',#1002,#1003,#1004);
#1002 = CARTESIAN_POINT('',(1.,-1.017660924388E-11,148.68571428571));
#1003 = DIRECTION('',(1.,0.,0.));
#1004 = DIRECTION('',(0.,1.,0.));
#1005 = ORIENTED_EDGE('',*,*,#1006,.T.);
#1006 = EDGE_CURVE('',#996,#275,#1007,.T.);
#1007 = LINE('',#1008,#1009);
#1008 = CARTESIAN_POINT('',(1.,3.099999999995,148.68571428571));
#1009 = VECTOR('',#1010,1.);
#1010 = DIRECTION('',(-1.,-0.,-0.));
#1011 = ORIENTED_EDGE('',*,*,#274,.T.);
#1012 = ORIENTED_EDGE('',*,*,#1013,.F.);
#1013 = EDGE_CURVE('',#998,#267,#1014,.T.);
#1014 = LINE('',#1015,#1016);
#1015 = CARTESIAN_POINT('',(1.,-3.10000000001,148.6857142857));
#1016 = VECTOR('',#1017,1.);
#1017 = DIRECTION('',(-1.,-0.,-0.));
#1018 = CYLINDRICAL_SURFACE('',#1019,3.1);
#1019 = AXIS2_PLACEMENT_3D('',#1020,#1021,#1022);
#1020 = CARTESIAN_POINT('',(1.,-1.017660924388E-11,148.68571428571));
#1021 = DIRECTION('',(1.,0.,0.));
#1022 = DIRECTION('',(0.,1.,0.));
#1023 = ADVANCED_FACE('',(#1024),#1050,.F.);
#1024 = FACE_BOUND('',#1025,.F.);
#1025 = EDGE_LOOP('',(#1026,#1037,#1043,#1044));
#1026 = ORIENTED_EDGE('',*,*,#1027,.F.);
#1027 = EDGE_CURVE('',#1028,#1030,#1032,.T.);
#1028 = VERTEX_POINT('',#1029);
#1029 = CARTESIAN_POINT('',(1.,-3.1,109.88571428571));
#1030 = VERTEX_POINT('',#1031);
#1031 = CARTESIAN_POINT('',(1.,3.1,109.88571428571));
#1032 = CIRCLE('',#1033,3.1);
#1033 = AXIS2_PLACEMENT_3D('',#1034,#1035,#1036);
#1034 = CARTESIAN_POINT('',(1.,1.268826313857E-14,109.88571428571));
#1035 = DIRECTION('',(1.,0.,0.));
#1036 = DIRECTION('',(0.,1.,0.));
#1037 = ORIENTED_EDGE('',*,*,#1038,.T.);
#1038 = EDGE_CURVE('',#1028,#292,#1039,.T.);
#1039 = LINE('',#1040,#1041);
#1040 = CARTESIAN_POINT('',(1.,-3.1,109.88571428571));
#1041 = VECTOR('',#1042,1.);
#1042 = DIRECTION('',(-1.,-0.,-0.));
#1043 = ORIENTED_EDGE('',*,*,#291,.T.);
#1044 = ORIENTED_EDGE('',*,*,#1045,.F.);
#1045 = EDGE_CURVE('',#1030,#294,#1046,.T.);
#1046 = LINE('',#1047,#1048);
#1047 = CARTESIAN_POINT('',(1.,3.1,109.88571428571));
#1048 = VECTOR('',#1049,1.);
#1049 = DIRECTION('',(-1.,-0.,-0.));
#1050 = CYLINDRICAL_SURFACE('',#1051,3.1);
#1051 = AXIS2_PLACEMENT_3D('',#1052,#1053,#1054);
#1052 = CARTESIAN_POINT('',(1.,1.268826313857E-14,109.88571428571));
#1053 = DIRECTION('',(1.,0.,0.));
#1054 = DIRECTION('',(0.,1.,0.));
#1055 = ADVANCED_FACE('',(#1056),#1082,.F.);
#1056 = FACE_BOUND('',#1057,.F.);
#1057 = EDGE_LOOP('',(#1058,#1069,#1075,#1076));
#1058 = ORIENTED_EDGE('',*,*,#1059,.F.);
#1059 = EDGE_CURVE('',#1060,#1062,#1064,.T.);
#1060 = VERTEX_POINT('',#1061);
#1061 = CARTESIAN_POINT('',(1.,3.099999999995,120.11428571428));
#1062 = VERTEX_POINT('',#1063);
#1063 = CARTESIAN_POINT('',(1.,-3.10000000001,120.11428571427));
#1064 = CIRCLE('',#1065,3.1);
#1065 = AXIS2_PLACEMENT_3D('',#1066,#1067,#1068);
#1066 = CARTESIAN_POINT('',(1.,-1.017978130966E-11,120.11428571428));
#1067 = DIRECTION('',(1.,0.,0.));
#1068 = DIRECTION('',(0.,1.,0.));
#1069 = ORIENTED_EDGE('',*,*,#1070,.T.);
#1070 = EDGE_CURVE('',#1060,#319,#1071,.T.);
#1071 = LINE('',#1072,#1073);
#1072 = CARTESIAN_POINT('',(1.,3.099999999995,120.11428571428));
#1073 = VECTOR('',#1074,1.);
#1074 = DIRECTION('',(-1.,-0.,-0.));
#1075 = ORIENTED_EDGE('',*,*,#318,.T.);
#1076 = ORIENTED_EDGE('',*,*,#1077,.F.);
#1077 = EDGE_CURVE('',#1062,#311,#1078,.T.);
#1078 = LINE('',#1079,#1080);
#1079 = CARTESIAN_POINT('',(1.,-3.10000000001,120.11428571427));
#1080 = VECTOR('',#1081,1.);
#1081 = DIRECTION('',(-1.,-0.,-0.));
#1082 = CYLINDRICAL_SURFACE('',#1083,3.1);
#1083 = AXIS2_PLACEMENT_3D('',#1084,#1085,#1086);
#1084 = CARTESIAN_POINT('',(1.,-1.017978130966E-11,120.11428571428));
#1085 = DIRECTION('',(1.,0.,0.));
#1086 = DIRECTION('',(0.,1.,0.));
#1087 = ADVANCED_FACE('',(#1088),#1114,.F.);
#1088 = FACE_BOUND('',#1089,.F.);
#1089 = EDGE_LOOP('',(#1090,#1101,#1107,#1108));
#1090 = ORIENTED_EDGE('',*,*,#1091,.F.);
#1091 = EDGE_CURVE('',#1092,#1094,#1096,.T.);
#1092 = VERTEX_POINT('',#1093);
#1093 = CARTESIAN_POINT('',(1.,-3.1,81.314285714286));
#1094 = VERTEX_POINT('',#1095);
#1095 = CARTESIAN_POINT('',(1.,3.1,81.314285714286));
#1096 = CIRCLE('',#1097,3.1);
#1097 = AXIS2_PLACEMENT_3D('',#1098,#1099,#1100);
#1098 = CARTESIAN_POINT('',(1.,9.51619735393E-15,81.314285714286));
#1099 = DIRECTION('',(1.,0.,0.));
#1100 = DIRECTION('',(0.,1.,0.));
#1101 = ORIENTED_EDGE('',*,*,#1102,.T.);
#1102 = EDGE_CURVE('',#1092,#336,#1103,.T.);
#1103 = LINE('',#1104,#1105);
#1104 = CARTESIAN_POINT('',(1.,-3.1,81.314285714286));
#1105 = VECTOR('',#1106,1.);
#1106 = DIRECTION('',(-1.,-0.,-0.));
#1107 = ORIENTED_EDGE('',*,*,#335,.T.);
#1108 = ORIENTED_EDGE('',*,*,#1109,.F.);
#1109 = EDGE_CURVE('',#1094,#338,#1110,.T.);
#1110 = LINE('',#1111,#1112);
#1111 = CARTESIAN_POINT('',(1.,3.1,81.314285714286));
#1112 = VECTOR('',#1113,1.);
#1113 = DIRECTION('',(-1.,-0.,-0.));
#1114 = CYLINDRICAL_SURFACE('',#1115,3.1);
#1115 = AXIS2_PLACEMENT_3D('',#1116,#1117,#1118);
#1116 = CARTESIAN_POINT('',(1.,9.51619735393E-15,81.314285714286));
#1117 = DIRECTION('',(1.,0.,0.));
#1118 = DIRECTION('',(0.,1.,0.));
#1119 = ADVANCED_FACE('',(#1120),#1146,.F.);
#1120 = FACE_BOUND('',#1121,.F.);
#1121 = EDGE_LOOP('',(#1122,#1133,#1139,#1140));
#1122 = ORIENTED_EDGE('',*,*,#1123,.F.);
#1123 = EDGE_CURVE('',#1124,#1126,#1128,.T.);
#1124 = VERTEX_POINT('',#1125);
#1125 = CARTESIAN_POINT('',(1.,3.099999999995,91.542857142857));
#1126 = VERTEX_POINT('',#1127);
#1127 = CARTESIAN_POINT('',(1.,-3.10000000001,91.54285714285));
#1128 = CIRCLE('',#1129,3.1);
#1129 = AXIS2_PLACEMENT_3D('',#1130,#1131,#1132);
#1130 = CARTESIAN_POINT('',(1.,-1.018295337545E-11,91.542857142857));
#1131 = DIRECTION('',(1.,0.,0.));
#1132 = DIRECTION('',(0.,1.,0.));
#1133 = ORIENTED_EDGE('',*,*,#1134,.T.);
#1134 = EDGE_CURVE('',#1124,#363,#1135,.T.);
#1135 = LINE('',#1136,#1137);
#1136 = CARTESIAN_POINT('',(1.,3.099999999995,91.542857142857));
#1137 = VECTOR('',#1138,1.);
#1138 = DIRECTION('',(-1.,-0.,-0.));
#1139 = ORIENTED_EDGE('',*,*,#362,.T.);
#1140 = ORIENTED_EDGE('',*,*,#1141,.F.);
#1141 = EDGE_CURVE('',#1126,#355,#1142,.T.);
#1142 = LINE('',#1143,#1144);
#1143 = CARTESIAN_POINT('',(1.,-3.10000000001,91.54285714285));
#1144 = VECTOR('',#1145,1.);
#1145 = DIRECTION('',(-1.,-0.,-0.));
#1146 = CYLINDRICAL_SURFACE('',#1147,3.1);
#1147 = AXIS2_PLACEMENT_3D('',#1148,#1149,#1150);
#1148 = CARTESIAN_POINT('',(1.,-1.018295337545E-11,91.542857142857));
#1149 = DIRECTION('',(1.,0.,0.));
#1150 = DIRECTION('',(0.,1.,0.));
#1151 = ADVANCED_FACE('',(#1152),#1178,.F.);
#1152 = FACE_BOUND('',#1153,.F.);
#1153 = EDGE_LOOP('',(#1154,#1165,#1171,#1172));
#1154 = ORIENTED_EDGE('',*,*,#1155,.F.);
#1155 = EDGE_CURVE('',#1156,#1158,#1160,.T.);
#1156 = VERTEX_POINT('',#1157);
#1157 = CARTESIAN_POINT('',(1.,-3.1,52.742857142857));
#1158 = VERTEX_POINT('',#1159);
#1159 = CARTESIAN_POINT('',(1.,3.1,52.742857142857));
#1160 = CIRCLE('',#1161,3.1);
#1161 = AXIS2_PLACEMENT_3D('',#1162,#1163,#1164);
#1162 = CARTESIAN_POINT('',(1.,6.344131569287E-15,52.742857142857));
#1163 = DIRECTION('',(1.,0.,0.));
#1164 = DIRECTION('',(0.,1.,0.));
#1165 = ORIENTED_EDGE('',*,*,#1166,.T.);
#1166 = EDGE_CURVE('',#1156,#380,#1167,.T.);
#1167 = LINE('',#1168,#1169);
#1168 = CARTESIAN_POINT('',(1.,-3.1,52.742857142857));
#1169 = VECTOR('',#1170,1.);
#1170 = DIRECTION('',(-1.,-0.,-0.));
#1171 = ORIENTED_EDGE('',*,*,#379,.T.);
#1172 = ORIENTED_EDGE('',*,*,#1173,.F.);
#1173 = EDGE_CURVE('',#1158,#382,#1174,.T.);
#1174 = LINE('',#1175,#1176);
#1175 = CARTESIAN_POINT('',(1.,3.1,52.742857142857));
#1176 = VECTOR('',#1177,1.);
#1177 = DIRECTION('',(-1.,-0.,-0.));
#1178 = CYLINDRICAL_SURFACE('',#1179,3.1);
#1179 = AXIS2_PLACEMENT_3D('',#1180,#1181,#1182);
#1180 = CARTESIAN_POINT('',(1.,6.344131569287E-15,52.742857142857));
#1181 = DIRECTION('',(1.,0.,0.));
#1182 = DIRECTION('',(0.,1.,0.));
#1183 = ADVANCED_FACE('',(#1184),#1210,.F.);
#1184 = FACE_BOUND('',#1185,.F.);
#1185 = EDGE_LOOP('',(#1186,#1197,#1203,#1204));
#1186 = ORIENTED_EDGE('',*,*,#1187,.F.);
#1187 = EDGE_CURVE('',#1188,#1190,#1192,.T.);
#1188 = VERTEX_POINT('',#1189);
#1189 = CARTESIAN_POINT('',(1.,3.099999999995,62.971428571429));
#1190 = VERTEX_POINT('',#1191);
#1191 = CARTESIAN_POINT('',(1.,-3.10000000001,62.971428571421));
#1192 = CIRCLE('',#1193,3.1);
#1193 = AXIS2_PLACEMENT_3D('',#1194,#1195,#1196);
#1194 = CARTESIAN_POINT('',(1.,-1.018612544123E-11,62.971428571429));
#1195 = DIRECTION('',(1.,0.,0.));
#1196 = DIRECTION('',(0.,1.,0.));
#1197 = ORIENTED_EDGE('',*,*,#1198,.T.);
#1198 = EDGE_CURVE('',#1188,#407,#1199,.T.);
#1199 = LINE('',#1200,#1201);
#1200 = CARTESIAN_POINT('',(1.,3.099999999995,62.971428571429));
#1201 = VECTOR('',#1202,1.);
#1202 = DIRECTION('',(-1.,-0.,-0.));
#1203 = ORIENTED_EDGE('',*,*,#406,.T.);
#1204 = ORIENTED_EDGE('',*,*,#1205,.F.);
#1205 = EDGE_CURVE('',#1190,#399,#1206,.T.);
#1206 = LINE('',#1207,#1208);
#1207 = CARTESIAN_POINT('',(1.,-3.10000000001,62.971428571421));
#1208 = VECTOR('',#1209,1.);
#1209 = DIRECTION('',(-1.,-0.,-0.));
#1210 = CYLINDRICAL_SURFACE('',#1211,3.1);
#1211 = AXIS2_PLACEMENT_3D('',#1212,#1213,#1214);
#1212 = CARTESIAN_POINT('',(1.,-1.018612544123E-11,62.971428571429));
#1213 = DIRECTION('',(1.,0.,0.));
#1214 = DIRECTION('',(0.,1.,0.));
#1215 = ADVANCED_FACE('',(#1216),#1242,.F.);
#1216 = FACE_BOUND('',#1217,.F.);
#1217 = EDGE_LOOP('',(#1218,#1229,#1235,#1236));
#1218 = ORIENTED_EDGE('',*,*,#1219,.F.);
#1219 = EDGE_CURVE('',#1220,#1222,#1224,.T.);
#1220 = VERTEX_POINT('',#1221);
#1221 = CARTESIAN_POINT('',(1.,-3.1,24.171428571429));
#1222 = VERTEX_POINT('',#1223);
#1223 = CARTESIAN_POINT('',(1.,3.1,24.171428571429));
#1224 = CIRCLE('',#1225,3.1);
#1225 = AXIS2_PLACEMENT_3D('',#1226,#1227,#1228);
#1226 = CARTESIAN_POINT('',(1.,3.172065784643E-15,24.171428571429));
#1227 = DIRECTION('',(1.,0.,0.));
#1228 = DIRECTION('',(0.,1.,0.));
#1229 = ORIENTED_EDGE('',*,*,#1230,.T.);
#1230 = EDGE_CURVE('',#1220,#424,#1231,.T.);
#1231 = LINE('',#1232,#1233);
#1232 = CARTESIAN_POINT('',(1.,-3.1,24.171428571429));
#1233 = VECTOR('',#1234,1.);
#1234 = DIRECTION('',(-1.,-0.,-0.));
#1235 = ORIENTED_EDGE('',*,*,#458,.T.);
#1236 = ORIENTED_EDGE('',*,*,#1237,.F.);
#1237 = EDGE_CURVE('',#1222,#451,#1238,.T.);
#1238 = LINE('',#1239,#1240);
#1239 = CARTESIAN_POINT('',(1.,3.1,24.171428571429));
#1240 = VECTOR('',#1241,1.);
#1241 = DIRECTION('',(-1.,-0.,-0.));
#1242 = CYLINDRICAL_SURFACE('',#1243,3.1);
#1243 = AXIS2_PLACEMENT_3D('',#1244,#1245,#1246);
#1244 = CARTESIAN_POINT('',(1.,3.172065784643E-15,24.171428571429));
#1245 = DIRECTION('',(1.,0.,0.));
#1246 = DIRECTION('',(0.,1.,0.));
#1247 = ADVANCED_FACE('',(#1248),#1274,.F.);
#1248 = FACE_BOUND('',#1249,.F.);
#1249 = EDGE_LOOP('',(#1250,#1261,#1267,#1268));
#1250 = ORIENTED_EDGE('',*,*,#1251,.F.);
#1251 = EDGE_CURVE('',#1252,#1254,#1256,.T.);
#1252 = VERTEX_POINT('',#1253);
#1253 = CARTESIAN_POINT('',(1.,3.099999999995,34.4));
#1254 = VERTEX_POINT('',#1255);
#1255 = CARTESIAN_POINT('',(1.,-3.10000000001,34.399999999993));
#1256 = CIRCLE('',#1257,3.1);
#1257 = AXIS2_PLACEMENT_3D('',#1258,#1259,#1260);
#1258 = CARTESIAN_POINT('',(1.,-1.018929750702E-11,34.4));
#1259 = DIRECTION('',(1.,0.,0.));
#1260 = DIRECTION('',(0.,1.,0.));
#1261 = ORIENTED_EDGE('',*,*,#1262,.T.);
#1262 = EDGE_CURVE('',#1252,#442,#1263,.T.);
#1263 = LINE('',#1264,#1265);
#1264 = CARTESIAN_POINT('',(1.,3.099999999995,34.4));
#1265 = VECTOR('',#1266,1.);
#1266 = DIRECTION('',(-1.,-0.,-0.));
#1267 = ORIENTED_EDGE('',*,*,#441,.T.);
#1268 = ORIENTED_EDGE('',*,*,#1269,.F.);
#1269 = EDGE_CURVE('',#1254,#434,#1270,.T.);
#1270 = LINE('',#1271,#1272);
#1271 = CARTESIAN_POINT('',(1.,-3.10000000001,34.399999999993));
#1272 = VECTOR('',#1273,1.);
#1273 = DIRECTION('',(-1.,-0.,-0.));
#1274 = CYLINDRICAL_SURFACE('',#1275,3.1);
#1275 = AXIS2_PLACEMENT_3D('',#1276,#1277,#1278);
#1276 = CARTESIAN_POINT('',(1.,-1.018929750702E-11,34.4));
#1277 = DIRECTION('',(1.,0.,0.));
#1278 = DIRECTION('',(0.,1.,0.));
#1279 = ADVANCED_FACE('',(#1280),#1291,.F.);
#1280 = FACE_BOUND('',#1281,.F.);
#1281 = EDGE_LOOP('',(#1282,#1288,#1289,#1290));
#1282 = ORIENTED_EDGE('',*,*,#1283,.T.);
#1283 = EDGE_CURVE('',#510,#576,#1284,.T.);
#1284 = LINE('',#1285,#1286);
#1285 = CARTESIAN_POINT('',(7.5,17.5,0.));
#1286 = VECTOR('',#1287,1.);
#1287 = DIRECTION('',(0.,0.,1.));
#1288 = ORIENTED_EDGE('',*,*,#583,.T.);
#1289 = ORIENTED_EDGE('',*,*,#607,.F.);
#1290 = ORIENTED_EDGE('',*,*,#517,.F.);
#1291 = PLANE('',#1292);
#1292 = AXIS2_PLACEMENT_3D('',#1293,#1294,#1295);
#1293 = CARTESIAN_POINT('',(7.5,17.5,0.));
#1294 = DIRECTION('',(0.,-1.,0.));
#1295 = DIRECTION('',(-1.,0.,0.));
#1296 = ADVANCED_FACE('',(#1297),#1308,.T.);
#1297 = FACE_BOUND('',#1298,.T.);
#1298 = EDGE_LOOP('',(#1299,#1300,#1301,#1307));
#1299 = ORIENTED_EDGE('',*,*,#1283,.T.);
#1300 = ORIENTED_EDGE('',*,*,#575,.T.);
#1301 = ORIENTED_EDGE('',*,*,#1302,.F.);
#1302 = EDGE_CURVE('',#501,#567,#1303,.T.);
#1303 = LINE('',#1304,#1305);
#1304 = CARTESIAN_POINT('',(7.5,13.3,0.));
#1305 = VECTOR('',#1306,1.);
#1306 = DIRECTION('',(0.,0.,1.));
#1307 = ORIENTED_EDGE('',*,*,#509,.F.);
#1308 = PLANE('',#1309);
#1309 = AXIS2_PLACEMENT_3D('',#1310,#1311,#1312);
#1310 = CARTESIAN_POINT('',(7.5,17.5,0.));
#1311 = DIRECTION('',(1.,0.,0.));
#1312 = DIRECTION('',(0.,-1.,0.));
#1313 = ADVANCED_FACE('',(#1314),#1325,.T.);
#1314 = FACE_BOUND('',#1315,.F.);
#1315 = EDGE_LOOP('',(#1316,#1322,#1323,#1324));
#1316 = ORIENTED_EDGE('',*,*,#1317,.T.);
#1317 = EDGE_CURVE('',#493,#559,#1318,.T.);
#1318 = LINE('',#1319,#1320);
#1319 = CARTESIAN_POINT('',(6.7,12.5,0.));
#1320 = VECTOR('',#1321,1.);
#1321 = DIRECTION('',(0.,0.,1.));
#1322 = ORIENTED_EDGE('',*,*,#566,.T.);
#1323 = ORIENTED_EDGE('',*,*,#1302,.F.);
#1324 = ORIENTED_EDGE('',*,*,#500,.F.);
#1325 = CYLINDRICAL_SURFACE('',#1326,0.8);
#1326 = AXIS2_PLACEMENT_3D('',#1327,#1328,#1329);
#1327 = CARTESIAN_POINT('',(6.7,13.3,0.));
#1328 = DIRECTION('',(-0.,-0.,-1.));
#1329 = DIRECTION('',(1.,0.,0.));
#1330 = ADVANCED_FACE('',(#1331),#1342,.F.);
#1331 = FACE_BOUND('',#1332,.F.);
#1332 = EDGE_LOOP('',(#1333,#1339,#1340,#1341));
#1333 = ORIENTED_EDGE('',*,*,#1334,.T.);
#1334 = EDGE_CURVE('',#485,#551,#1335,.T.);
#1335 = LINE('',#1336,#1337);
#1336 = CARTESIAN_POINT('',(1.,12.5,0.));
#1337 = VECTOR('',#1338,1.);
#1338 = DIRECTION('',(0.,0.,1.));
#1339 = ORIENTED_EDGE('',*,*,#558,.T.);
#1340 = ORIENTED_EDGE('',*,*,#1317,.F.);
#1341 = ORIENTED_EDGE('',*,*,#492,.F.);
#1342 = PLANE('',#1343);
#1343 = AXIS2_PLACEMENT_3D('',#1344,#1345,#1346);
#1344 = CARTESIAN_POINT('',(1.,12.5,0.));
#1345 = DIRECTION('',(0.,1.,0.));
#1346 = DIRECTION('',(1.,0.,0.));
#1347 = ADVANCED_FACE('',(#1348,#1385,#1409,#1433,#1457,#1481,#1505),
  #1529,.F.);
#1348 = FACE_BOUND('',#1349,.F.);
#1349 = EDGE_LOOP('',(#1350,#1351,#1357,#1358,#1366,#1372,#1373,#1379,
    #1380,#1381,#1382,#1383,#1384));
#1350 = ORIENTED_EDGE('',*,*,#755,.F.);
#1351 = ORIENTED_EDGE('',*,*,#1352,.T.);
#1352 = EDGE_CURVE('',#748,#846,#1353,.T.);
#1353 = LINE('',#1354,#1355);
#1354 = CARTESIAN_POINT('',(1.,-12.5,0.));
#1355 = VECTOR('',#1356,1.);
#1356 = DIRECTION('',(0.,0.,1.));
#1357 = ORIENTED_EDGE('',*,*,#853,.T.);
#1358 = ORIENTED_EDGE('',*,*,#1359,.F.);
#1359 = EDGE_CURVE('',#1360,#795,#1362,.T.);
#1360 = VERTEX_POINT('',#1361);
#1361 = CARTESIAN_POINT('',(1.,-3.1,197.02857142856));
#1362 = LINE('',#1363,#1364);
#1363 = CARTESIAN_POINT('',(1.,-3.1,197.02857142856));
#1364 = VECTOR('',#1365,1.);
#1365 = DIRECTION('',(0.,-1.157861685318E-12,1.));
#1366 = ORIENTED_EDGE('',*,*,#1367,.F.);
#1367 = EDGE_CURVE('',#868,#1360,#1368,.T.);
#1368 = LINE('',#1369,#1370);
#1369 = CARTESIAN_POINT('',(1.,-3.1,195.6));
#1370 = VECTOR('',#1371,1.);
#1371 = DIRECTION('',(0.,0.,1.));
#1372 = ORIENTED_EDGE('',*,*,#867,.T.);
#1373 = ORIENTED_EDGE('',*,*,#1374,.T.);
#1374 = EDGE_CURVE('',#870,#543,#1375,.T.);
#1375 = LINE('',#1376,#1377);
#1376 = CARTESIAN_POINT('',(1.,3.1,197.02857142857));
#1377 = VECTOR('',#1378,1.);
#1378 = DIRECTION('',(0.,0.,1.));
#1379 = ORIENTED_EDGE('',*,*,#550,.T.);
#1380 = ORIENTED_EDGE('',*,*,#1334,.F.);
#1381 = ORIENTED_EDGE('',*,*,#484,.F.);
#1382 = ORIENTED_EDGE('',*,*,#622,.T.);
#1383 = ORIENTED_EDGE('',*,*,#646,.T.);
#1384 = ORIENTED_EDGE('',*,*,#671,.F.);
#1385 = FACE_BOUND('',#1386,.F.);
#1386 = EDGE_LOOP('',(#1387,#1395,#1401,#1402,#1408));
#1387 = ORIENTED_EDGE('',*,*,#1388,.F.);
#1388 = EDGE_CURVE('',#1389,#934,#1391,.T.);
#1389 = VERTEX_POINT('',#1390);
#1390 = CARTESIAN_POINT('',(1.,-3.1,168.45714285713));
#1391 = LINE('',#1392,#1393);
#1392 = CARTESIAN_POINT('',(1.,-3.1,168.45714285713));
#1393 = VECTOR('',#1394,1.);
#1394 = DIRECTION('',(0.,-1.157861685318E-12,1.));
#1395 = ORIENTED_EDGE('',*,*,#1396,.F.);
#1396 = EDGE_CURVE('',#900,#1389,#1397,.T.);
#1397 = LINE('',#1398,#1399);
#1398 = CARTESIAN_POINT('',(1.,-3.1,167.02857142857));
#1399 = VECTOR('',#1400,1.);
#1400 = DIRECTION('',(0.,0.,1.));
#1401 = ORIENTED_EDGE('',*,*,#899,.T.);
#1402 = ORIENTED_EDGE('',*,*,#1403,.T.);
#1403 = EDGE_CURVE('',#902,#932,#1404,.T.);
#1404 = LINE('',#1405,#1406);
#1405 = CARTESIAN_POINT('',(1.,3.1,168.45714285714));
#1406 = VECTOR('',#1407,1.);
#1407 = DIRECTION('',(0.,0.,1.));
#1408 = ORIENTED_EDGE('',*,*,#931,.T.);
#1409 = FACE_BOUND('',#1410,.F.);
#1410 = EDGE_LOOP('',(#1411,#1419,#1425,#1426,#1432));
#1411 = ORIENTED_EDGE('',*,*,#1412,.F.);
#1412 = EDGE_CURVE('',#1413,#998,#1415,.T.);
#1413 = VERTEX_POINT('',#1414);
#1414 = CARTESIAN_POINT('',(1.,-3.1,139.8857142857));
#1415 = LINE('',#1416,#1417);
#1416 = CARTESIAN_POINT('',(1.,-3.1,139.8857142857));
#1417 = VECTOR('',#1418,1.);
#1418 = DIRECTION('',(0.,-1.157861685318E-12,1.));
#1419 = ORIENTED_EDGE('',*,*,#1420,.F.);
#1420 = EDGE_CURVE('',#964,#1413,#1421,.T.);
#1421 = LINE('',#1422,#1423);
#1422 = CARTESIAN_POINT('',(1.,-3.1,138.45714285714));
#1423 = VECTOR('',#1424,1.);
#1424 = DIRECTION('',(0.,0.,1.));
#1425 = ORIENTED_EDGE('',*,*,#963,.T.);
#1426 = ORIENTED_EDGE('',*,*,#1427,.T.);
#1427 = EDGE_CURVE('',#966,#996,#1428,.T.);
#1428 = LINE('',#1429,#1430);
#1429 = CARTESIAN_POINT('',(1.,3.1,139.88571428571));
#1430 = VECTOR('',#1431,1.);
#1431 = DIRECTION('',(0.,0.,1.));
#1432 = ORIENTED_EDGE('',*,*,#995,.T.);
#1433 = FACE_BOUND('',#1434,.F.);
#1434 = EDGE_LOOP('',(#1435,#1443,#1449,#1450,#1456));
#1435 = ORIENTED_EDGE('',*,*,#1436,.F.);
#1436 = EDGE_CURVE('',#1437,#1062,#1439,.T.);
#1437 = VERTEX_POINT('',#1438);
#1438 = CARTESIAN_POINT('',(1.,-3.1,111.31428571427));
#1439 = LINE('',#1440,#1441);
#1440 = CARTESIAN_POINT('',(1.,-3.1,111.31428571427));
#1441 = VECTOR('',#1442,1.);
#1442 = DIRECTION('',(0.,-1.157861685318E-12,1.));
#1443 = ORIENTED_EDGE('',*,*,#1444,.F.);
#1444 = EDGE_CURVE('',#1028,#1437,#1445,.T.);
#1445 = LINE('',#1446,#1447);
#1446 = CARTESIAN_POINT('',(1.,-3.1,109.88571428571));
#1447 = VECTOR('',#1448,1.);
#1448 = DIRECTION('',(0.,0.,1.));
#1449 = ORIENTED_EDGE('',*,*,#1027,.T.);
#1450 = ORIENTED_EDGE('',*,*,#1451,.T.);
#1451 = EDGE_CURVE('',#1030,#1060,#1452,.T.);
#1452 = LINE('',#1453,#1454);
#1453 = CARTESIAN_POINT('',(1.,3.1,111.31428571428));
#1454 = VECTOR('',#1455,1.);
#1455 = DIRECTION('',(0.,0.,1.));
#1456 = ORIENTED_EDGE('',*,*,#1059,.T.);
#1457 = FACE_BOUND('',#1458,.F.);
#1458 = EDGE_LOOP('',(#1459,#1467,#1473,#1474,#1480));
#1459 = ORIENTED_EDGE('',*,*,#1460,.F.);
#1460 = EDGE_CURVE('',#1461,#1126,#1463,.T.);
#1461 = VERTEX_POINT('',#1462);
#1462 = CARTESIAN_POINT('',(1.,-3.1,82.74285714285));
#1463 = LINE('',#1464,#1465);
#1464 = CARTESIAN_POINT('',(1.,-3.1,82.74285714285));
#1465 = VECTOR('',#1466,1.);
#1466 = DIRECTION('',(0.,-1.157861685318E-12,1.));
#1467 = ORIENTED_EDGE('',*,*,#1468,.F.);
#1468 = EDGE_CURVE('',#1092,#1461,#1469,.T.);
#1469 = LINE('',#1470,#1471);
#1470 = CARTESIAN_POINT('',(1.,-3.1,81.314285714286));
#1471 = VECTOR('',#1472,1.);
#1472 = DIRECTION('',(0.,0.,1.));
#1473 = ORIENTED_EDGE('',*,*,#1091,.T.);
#1474 = ORIENTED_EDGE('',*,*,#1475,.T.);
#1475 = EDGE_CURVE('',#1094,#1124,#1476,.T.);
#1476 = LINE('',#1477,#1478);
#1477 = CARTESIAN_POINT('',(1.,3.1,82.742857142857));
#1478 = VECTOR('',#1479,1.);
#1479 = DIRECTION('',(0.,0.,1.));
#1480 = ORIENTED_EDGE('',*,*,#1123,.T.);
#1481 = FACE_BOUND('',#1482,.F.);
#1482 = EDGE_LOOP('',(#1483,#1491,#1497,#1498,#1504));
#1483 = ORIENTED_EDGE('',*,*,#1484,.F.);
#1484 = EDGE_CURVE('',#1485,#1190,#1487,.T.);
#1485 = VERTEX_POINT('',#1486);
#1486 = CARTESIAN_POINT('',(1.,-3.1,54.171428571421));
#1487 = LINE('',#1488,#1489);
#1488 = CARTESIAN_POINT('',(1.,-3.1,54.171428571421));
#1489 = VECTOR('',#1490,1.);
#1490 = DIRECTION('',(0.,-1.157861685318E-12,1.));
#1491 = ORIENTED_EDGE('',*,*,#1492,.F.);
#1492 = EDGE_CURVE('',#1156,#1485,#1493,.T.);
#1493 = LINE('',#1494,#1495);
#1494 = CARTESIAN_POINT('',(1.,-3.1,52.742857142857));
#1495 = VECTOR('',#1496,1.);
#1496 = DIRECTION('',(0.,0.,1.));
#1497 = ORIENTED_EDGE('',*,*,#1155,.T.);
#1498 = ORIENTED_EDGE('',*,*,#1499,.T.);
#1499 = EDGE_CURVE('',#1158,#1188,#1500,.T.);
#1500 = LINE('',#1501,#1502);
#1501 = CARTESIAN_POINT('',(1.,3.1,54.171428571429));
#1502 = VECTOR('',#1503,1.);
#1503 = DIRECTION('',(0.,0.,1.));
#1504 = ORIENTED_EDGE('',*,*,#1187,.T.);
#1505 = FACE_BOUND('',#1506,.F.);
#1506 = EDGE_LOOP('',(#1507,#1515,#1521,#1522,#1528));
#1507 = ORIENTED_EDGE('',*,*,#1508,.F.);
#1508 = EDGE_CURVE('',#1509,#1254,#1511,.T.);
#1509 = VERTEX_POINT('',#1510);
#1510 = CARTESIAN_POINT('',(1.,-3.1,25.599999999993));
#1511 = LINE('',#1512,#1513);
#1512 = CARTESIAN_POINT('',(1.,-3.1,25.599999999993));
#1513 = VECTOR('',#1514,1.);
#1514 = DIRECTION('',(0.,-1.157861685318E-12,1.));
#1515 = ORIENTED_EDGE('',*,*,#1516,.F.);
#1516 = EDGE_CURVE('',#1220,#1509,#1517,.T.);
#1517 = LINE('',#1518,#1519);
#1518 = CARTESIAN_POINT('',(1.,-3.1,24.171428571429));
#1519 = VECTOR('',#1520,1.);
#1520 = DIRECTION('',(0.,0.,1.));
#1521 = ORIENTED_EDGE('',*,*,#1219,.T.);
#1522 = ORIENTED_EDGE('',*,*,#1523,.T.);
#1523 = EDGE_CURVE('',#1222,#1252,#1524,.T.);
#1524 = LINE('',#1525,#1526);
#1525 = CARTESIAN_POINT('',(1.,3.1,25.6));
#1526 = VECTOR('',#1527,1.);
#1527 = DIRECTION('',(0.,0.,1.));
#1528 = ORIENTED_EDGE('',*,*,#1251,.T.);
#1529 = PLANE('',#1530);
#1530 = AXIS2_PLACEMENT_3D('',#1531,#1532,#1533);
#1531 = CARTESIAN_POINT('',(1.,-12.5,0.));
#1532 = DIRECTION('',(-1.,0.,0.));
#1533 = DIRECTION('',(0.,1.,0.));
#1534 = ADVANCED_FACE('',(#1535),#1546,.T.);
#1535 = FACE_BOUND('',#1536,.T.);
#1536 = EDGE_LOOP('',(#1537,#1538,#1539,#1545));
#1537 = ORIENTED_EDGE('',*,*,#1352,.T.);
#1538 = ORIENTED_EDGE('',*,*,#845,.T.);
#1539 = ORIENTED_EDGE('',*,*,#1540,.F.);
#1540 = EDGE_CURVE('',#739,#837,#1541,.T.);
#1541 = LINE('',#1542,#1543);
#1542 = CARTESIAN_POINT('',(6.7,-12.5,0.));
#1543 = VECTOR('',#1544,1.);
#1544 = DIRECTION('',(0.,0.,1.));
#1545 = ORIENTED_EDGE('',*,*,#747,.F.);
#1546 = PLANE('',#1547);
#1547 = AXIS2_PLACEMENT_3D('',#1548,#1549,#1550);
#1548 = CARTESIAN_POINT('',(1.,-12.5,0.));
#1549 = DIRECTION('',(0.,1.,0.));
#1550 = DIRECTION('',(1.,0.,0.));
#1551 = ADVANCED_FACE('',(#1552),#1563,.T.);
#1552 = FACE_BOUND('',#1553,.F.);
#1553 = EDGE_LOOP('',(#1554,#1560,#1561,#1562));
#1554 = ORIENTED_EDGE('',*,*,#1555,.T.);
#1555 = EDGE_CURVE('',#731,#829,#1556,.T.);
#1556 = LINE('',#1557,#1558);
#1557 = CARTESIAN_POINT('',(7.5,-13.3,0.));
#1558 = VECTOR('',#1559,1.);
#1559 = DIRECTION('',(0.,0.,1.));
#1560 = ORIENTED_EDGE('',*,*,#836,.T.);
#1561 = ORIENTED_EDGE('',*,*,#1540,.F.);
#1562 = ORIENTED_EDGE('',*,*,#738,.F.);
#1563 = CYLINDRICAL_SURFACE('',#1564,0.8);
#1564 = AXIS2_PLACEMENT_3D('',#1565,#1566,#1567);
#1565 = CARTESIAN_POINT('',(6.7,-13.3,0.));
#1566 = DIRECTION('',(-0.,-0.,-1.));
#1567 = DIRECTION('',(1.,0.,0.));
#1568 = ADVANCED_FACE('',(#1569),#1580,.T.);
#1569 = FACE_BOUND('',#1570,.T.);
#1570 = EDGE_LOOP('',(#1571,#1572,#1573,#1579));
#1571 = ORIENTED_EDGE('',*,*,#1555,.T.);
#1572 = ORIENTED_EDGE('',*,*,#828,.T.);
#1573 = ORIENTED_EDGE('',*,*,#1574,.F.);
#1574 = EDGE_CURVE('',#723,#821,#1575,.T.);
#1575 = LINE('',#1576,#1577);
#1576 = CARTESIAN_POINT('',(7.5,-17.5,0.));
#1577 = VECTOR('',#1578,1.);
#1578 = DIRECTION('',(0.,0.,1.));
#1579 = ORIENTED_EDGE('',*,*,#730,.F.);
#1580 = PLANE('',#1581);
#1581 = AXIS2_PLACEMENT_3D('',#1582,#1583,#1584);
#1582 = CARTESIAN_POINT('',(7.5,-13.3,0.));
#1583 = DIRECTION('',(1.,0.,0.));
#1584 = DIRECTION('',(0.,-1.,0.));
#1585 = ADVANCED_FACE('',(#1586),#1597,.T.);
#1586 = FACE_BOUND('',#1587,.T.);
#1587 = EDGE_LOOP('',(#1588,#1589,#1590,#1596));
#1588 = ORIENTED_EDGE('',*,*,#1574,.T.);
#1589 = ORIENTED_EDGE('',*,*,#820,.T.);
#1590 = ORIENTED_EDGE('',*,*,#1591,.F.);
#1591 = EDGE_CURVE('',#715,#813,#1592,.T.);
#1592 = LINE('',#1593,#1594);
#1593 = CARTESIAN_POINT('',(6.5,-17.5,0.));
#1594 = VECTOR('',#1595,1.);
#1595 = DIRECTION('',(0.,0.,1.));
#1596 = ORIENTED_EDGE('',*,*,#722,.F.);
#1597 = PLANE('',#1598);
#1598 = AXIS2_PLACEMENT_3D('',#1599,#1600,#1601);
#1599 = CARTESIAN_POINT('',(7.5,-17.5,0.));
#1600 = DIRECTION('',(0.,-1.,0.));
#1601 = DIRECTION('',(-1.,0.,0.));
#1602 = ADVANCED_FACE('',(#1603),#1614,.T.);
#1603 = FACE_BOUND('',#1604,.T.);
#1604 = EDGE_LOOP('',(#1605,#1606,#1607,#1613));
#1605 = ORIENTED_EDGE('',*,*,#1591,.T.);
#1606 = ORIENTED_EDGE('',*,*,#812,.T.);
#1607 = ORIENTED_EDGE('',*,*,#1608,.F.);
#1608 = EDGE_CURVE('',#707,#805,#1609,.T.);
#1609 = LINE('',#1610,#1611);
#1610 = CARTESIAN_POINT('',(6.5,-13.5,0.));
#1611 = VECTOR('',#1612,1.);
#1612 = DIRECTION('',(0.,0.,1.));
#1613 = ORIENTED_EDGE('',*,*,#714,.F.);
#1614 = PLANE('',#1615);
#1615 = AXIS2_PLACEMENT_3D('',#1616,#1617,#1618);
#1616 = CARTESIAN_POINT('',(6.5,-17.5,0.));
#1617 = DIRECTION('',(-1.,0.,0.));
#1618 = DIRECTION('',(0.,1.,0.));
#1619 = ADVANCED_FACE('',(#1620),#1626,.F.);
#1620 = FACE_BOUND('',#1621,.F.);
#1621 = EDGE_LOOP('',(#1622,#1623,#1624,#1625));
#1622 = ORIENTED_EDGE('',*,*,#779,.T.);
#1623 = ORIENTED_EDGE('',*,*,#804,.T.);
#1624 = ORIENTED_EDGE('',*,*,#1608,.F.);
#1625 = ORIENTED_EDGE('',*,*,#706,.F.);
#1626 = PLANE('',#1627);
#1627 = AXIS2_PLACEMENT_3D('',#1628,#1629,#1630);
#1628 = CARTESIAN_POINT('',(0.8,-13.5,0.));
#1629 = DIRECTION('',(0.,1.,0.));
#1630 = DIRECTION('',(1.,0.,0.));
#1631 = ADVANCED_FACE('',(#1632),#1638,.T.);
#1632 = FACE_BOUND('',#1633,.T.);
#1633 = EDGE_LOOP('',(#1634,#1635,#1636,#1637));
#1634 = ORIENTED_EDGE('',*,*,#1374,.T.);
#1635 = ORIENTED_EDGE('',*,*,#542,.T.);
#1636 = ORIENTED_EDGE('',*,*,#129,.F.);
#1637 = ORIENTED_EDGE('',*,*,#885,.F.);
#1638 = PLANE('',#1639);
#1639 = AXIS2_PLACEMENT_3D('',#1640,#1641,#1642);
#1640 = CARTESIAN_POINT('',(0.5,3.1,197.8));
#1641 = DIRECTION('',(-2.072416312634E-15,-1.,-0.));
#1642 = DIRECTION('',(-1.,2.072416312634E-15,0.));
#1643 = ADVANCED_FACE('',(#1644),#1650,.T.);
#1644 = FACE_BOUND('',#1645,.T.);
#1645 = EDGE_LOOP('',(#1646,#1647,#1648,#1649));
#1646 = ORIENTED_EDGE('',*,*,#1403,.T.);
#1647 = ORIENTED_EDGE('',*,*,#942,.T.);
#1648 = ORIENTED_EDGE('',*,*,#239,.F.);
#1649 = ORIENTED_EDGE('',*,*,#917,.F.);
#1650 = PLANE('',#1651);
#1651 = AXIS2_PLACEMENT_3D('',#1652,#1653,#1654);
#1652 = CARTESIAN_POINT('',(0.5,3.1,172.14285714285));
#1653 = DIRECTION('',(-1.984276469456E-15,-1.,-7.132155795797E-14));
#1654 = DIRECTION('',(0.,7.132155795797E-14,-1.));
#1655 = ADVANCED_FACE('',(#1656),#1662,.T.);
#1656 = FACE_BOUND('',#1657,.T.);
#1657 = EDGE_LOOP('',(#1658,#1659,#1660,#1661));
#1658 = ORIENTED_EDGE('',*,*,#1427,.T.);
#1659 = ORIENTED_EDGE('',*,*,#1006,.T.);
#1660 = ORIENTED_EDGE('',*,*,#283,.F.);
#1661 = ORIENTED_EDGE('',*,*,#981,.F.);
#1662 = PLANE('',#1663);
#1663 = AXIS2_PLACEMENT_3D('',#1664,#1665,#1666);
#1664 = CARTESIAN_POINT('',(0.5,3.1,143.57142857142));
#1665 = DIRECTION('',(-1.636237088711E-15,-1.,-7.131393384224E-14));
#1666 = DIRECTION('',(0.,7.131393384224E-14,-1.));
#1667 = ADVANCED_FACE('',(#1668),#1674,.T.);
#1668 = FACE_BOUND('',#1669,.T.);
#1669 = EDGE_LOOP('',(#1670,#1671,#1672,#1673));
#1670 = ORIENTED_EDGE('',*,*,#1451,.T.);
#1671 = ORIENTED_EDGE('',*,*,#1070,.T.);
#1672 = ORIENTED_EDGE('',*,*,#327,.F.);
#1673 = ORIENTED_EDGE('',*,*,#1045,.F.);
#1674 = PLANE('',#1675);
#1675 = AXIS2_PLACEMENT_3D('',#1676,#1677,#1678);
#1676 = CARTESIAN_POINT('',(0.5,3.1,115.));
#1677 = DIRECTION('',(-1.927776569984E-15,-1.,-7.133538533149E-14));
#1678 = DIRECTION('',(0.,7.133538533149E-14,-1.));
#1679 = ADVANCED_FACE('',(#1680),#1686,.T.);
#1680 = FACE_BOUND('',#1681,.T.);
#1681 = EDGE_LOOP('',(#1682,#1683,#1684,#1685));
#1682 = ORIENTED_EDGE('',*,*,#1475,.T.);
#1683 = ORIENTED_EDGE('',*,*,#1134,.T.);
#1684 = ORIENTED_EDGE('',*,*,#371,.F.);
#1685 = ORIENTED_EDGE('',*,*,#1109,.F.);
#1686 = PLANE('',#1687);
#1687 = AXIS2_PLACEMENT_3D('',#1688,#1689,#1690);
#1688 = CARTESIAN_POINT('',(0.5,3.1,86.428571428571));
#1689 = DIRECTION('',(-1.749236887653E-15,-1.,-7.129868561079E-14));
#1690 = DIRECTION('',(0.,7.129868561079E-14,-1.));
#1691 = ADVANCED_FACE('',(#1692),#1698,.T.);
#1692 = FACE_BOUND('',#1693,.T.);
#1693 = EDGE_LOOP('',(#1694,#1695,#1696,#1697));
#1694 = ORIENTED_EDGE('',*,*,#1499,.T.);
#1695 = ORIENTED_EDGE('',*,*,#1198,.T.);
#1696 = ORIENTED_EDGE('',*,*,#415,.F.);
#1697 = ORIENTED_EDGE('',*,*,#1173,.F.);
#1698 = PLANE('',#1699);
#1699 = AXIS2_PLACEMENT_3D('',#1700,#1701,#1702);
#1700 = CARTESIAN_POINT('',(0.5,3.1,57.857142857143));
#1701 = DIRECTION('',(-2.388815749677E-15,-1.,-7.132155795797E-14));
#1702 = DIRECTION('',(0.,7.132155795797E-14,-1.));
#1703 = ADVANCED_FACE('',(#1704),#1710,.T.);
#1704 = FACE_BOUND('',#1705,.T.);
#1705 = EDGE_LOOP('',(#1706,#1707,#1708,#1709));
#1706 = ORIENTED_EDGE('',*,*,#1523,.T.);
#1707 = ORIENTED_EDGE('',*,*,#1262,.T.);
#1708 = ORIENTED_EDGE('',*,*,#450,.F.);
#1709 = ORIENTED_EDGE('',*,*,#1237,.F.);
#1710 = PLANE('',#1711);
#1711 = AXIS2_PLACEMENT_3D('',#1712,#1713,#1714);
#1712 = CARTESIAN_POINT('',(0.5,3.1,29.285714285714));
#1713 = DIRECTION('',(3.480393807474E-16,-1.,-7.132155795797E-14));
#1714 = DIRECTION('',(0.,7.132155795797E-14,-1.));
#1715 = ADVANCED_FACE('',(#1716),#1723,.T.);
#1716 = FACE_BOUND('',#1717,.T.);
#1717 = EDGE_LOOP('',(#1718,#1719,#1720,#1721,#1722));
#1718 = ORIENTED_EDGE('',*,*,#1359,.F.);
#1719 = ORIENTED_EDGE('',*,*,#1367,.F.);
#1720 = ORIENTED_EDGE('',*,*,#878,.T.);
#1721 = ORIENTED_EDGE('',*,*,#146,.T.);
#1722 = ORIENTED_EDGE('',*,*,#794,.F.);
#1723 = PLANE('',#1724);
#1724 = AXIS2_PLACEMENT_3D('',#1725,#1726,#1727);
#1725 = CARTESIAN_POINT('',(0.5,-3.1,197.8));
#1726 = DIRECTION('',(9.479025442314E-13,1.,3.349260882483E-13));
#1727 = DIRECTION('',(1.,-9.479025442314E-13,0.));
#1728 = ADVANCED_FACE('',(#1729),#1737,.T.);
#1729 = FACE_BOUND('',#1730,.T.);
#1730 = EDGE_LOOP('',(#1731,#1732,#1733,#1734,#1735,#1736));
#1731 = ORIENTED_EDGE('',*,*,#1396,.F.);
#1732 = ORIENTED_EDGE('',*,*,#910,.T.);
#1733 = ORIENTED_EDGE('',*,*,#214,.T.);
#1734 = ORIENTED_EDGE('',*,*,#222,.T.);
#1735 = ORIENTED_EDGE('',*,*,#949,.F.);
#1736 = ORIENTED_EDGE('',*,*,#1388,.F.);
#1737 = PLANE('',#1738);
#1738 = AXIS2_PLACEMENT_3D('',#1739,#1740,#1741);
#1739 = CARTESIAN_POINT('',(0.5,-3.100000000003,172.14285714285));
#1740 = DIRECTION('',(2.803937461072E-12,1.,7.852227722835E-13));
#1741 = DIRECTION('',(1.,-2.803937461072E-12,0.));
#1742 = ADVANCED_FACE('',(#1743),#1751,.T.);
#1743 = FACE_BOUND('',#1744,.T.);
#1744 = EDGE_LOOP('',(#1745,#1746,#1747,#1748,#1749,#1750));
#1745 = ORIENTED_EDGE('',*,*,#1420,.F.);
#1746 = ORIENTED_EDGE('',*,*,#974,.T.);
#1747 = ORIENTED_EDGE('',*,*,#258,.T.);
#1748 = ORIENTED_EDGE('',*,*,#266,.T.);
#1749 = ORIENTED_EDGE('',*,*,#1013,.F.);
#1750 = ORIENTED_EDGE('',*,*,#1412,.F.);
#1751 = PLANE('',#1752);
#1752 = AXIS2_PLACEMENT_3D('',#1753,#1754,#1755);
#1753 = CARTESIAN_POINT('',(0.5,-3.100000000003,143.57142857142));
#1754 = DIRECTION('',(2.803937461072E-12,1.,7.852227722835E-13));
#1755 = DIRECTION('',(1.,-2.803937461072E-12,0.));
#1756 = ADVANCED_FACE('',(#1757),#1765,.T.);
#1757 = FACE_BOUND('',#1758,.T.);
#1758 = EDGE_LOOP('',(#1759,#1760,#1761,#1762,#1763,#1764));
#1759 = ORIENTED_EDGE('',*,*,#1444,.F.);
#1760 = ORIENTED_EDGE('',*,*,#1038,.T.);
#1761 = ORIENTED_EDGE('',*,*,#302,.T.);
#1762 = ORIENTED_EDGE('',*,*,#310,.T.);
#1763 = ORIENTED_EDGE('',*,*,#1077,.F.);
#1764 = ORIENTED_EDGE('',*,*,#1436,.F.);
#1765 = PLANE('',#1766);
#1766 = AXIS2_PLACEMENT_3D('',#1767,#1768,#1769);
#1767 = CARTESIAN_POINT('',(0.5,-3.100000000003,114.99999999999));
#1768 = DIRECTION('',(2.803909211123E-12,1.,7.852321687586E-13));
#1769 = DIRECTION('',(1.,-2.803909211123E-12,0.));
#1770 = ADVANCED_FACE('',(#1771),#1779,.T.);
#1771 = FACE_BOUND('',#1772,.T.);
#1772 = EDGE_LOOP('',(#1773,#1774,#1775,#1776,#1777,#1778));
#1773 = ORIENTED_EDGE('',*,*,#1468,.F.);
#1774 = ORIENTED_EDGE('',*,*,#1102,.T.);
#1775 = ORIENTED_EDGE('',*,*,#346,.T.);
#1776 = ORIENTED_EDGE('',*,*,#354,.T.);
#1777 = ORIENTED_EDGE('',*,*,#1141,.F.);
#1778 = ORIENTED_EDGE('',*,*,#1460,.F.);
#1779 = PLANE('',#1780);
#1780 = AXIS2_PLACEMENT_3D('',#1781,#1782,#1783);
#1781 = CARTESIAN_POINT('',(0.5,-3.100000000003,86.428571428568));
#1782 = DIRECTION('',(2.803589421692E-12,1.,7.852151481678E-13));
#1783 = DIRECTION('',(1.,-2.803589421692E-12,0.));
#1784 = ADVANCED_FACE('',(#1785),#1793,.T.);
#1785 = FACE_BOUND('',#1786,.T.);
#1786 = EDGE_LOOP('',(#1787,#1788,#1789,#1790,#1791,#1792));
#1787 = ORIENTED_EDGE('',*,*,#1492,.F.);
#1788 = ORIENTED_EDGE('',*,*,#1166,.T.);
#1789 = ORIENTED_EDGE('',*,*,#390,.T.);
#1790 = ORIENTED_EDGE('',*,*,#398,.T.);
#1791 = ORIENTED_EDGE('',*,*,#1205,.F.);
#1792 = ORIENTED_EDGE('',*,*,#1484,.F.);
#1793 = PLANE('',#1794);
#1794 = AXIS2_PLACEMENT_3D('',#1795,#1796,#1797);
#1795 = CARTESIAN_POINT('',(0.5,-3.100000000003,57.857142857139));
#1796 = DIRECTION('',(2.803184882411E-12,1.,7.852151481678E-13));
#1797 = DIRECTION('',(1.,-2.803184882411E-12,0.));
#1798 = ADVANCED_FACE('',(#1799),#1807,.T.);
#1799 = FACE_BOUND('',#1800,.T.);
#1800 = EDGE_LOOP('',(#1801,#1802,#1803,#1804,#1805,#1806));
#1801 = ORIENTED_EDGE('',*,*,#1516,.F.);
#1802 = ORIENTED_EDGE('',*,*,#1230,.T.);
#1803 = ORIENTED_EDGE('',*,*,#423,.T.);
#1804 = ORIENTED_EDGE('',*,*,#433,.T.);
#1805 = ORIENTED_EDGE('',*,*,#1269,.F.);
#1806 = ORIENTED_EDGE('',*,*,#1508,.F.);
#1807 = PLANE('',#1808);
#1808 = AXIS2_PLACEMENT_3D('',#1809,#1810,#1811);
#1809 = CARTESIAN_POINT('',(0.5,-3.100000000004,29.285714285711));
#1810 = DIRECTION('',(0.,1.,1.101879011462E-12));
#1811 = DIRECTION('',(0.,-1.101879011462E-12,1.));
#1812 = ( GEOMETRIC_REPRESENTATION_CONTEXT(3) 
GLOBAL_UNCERTAINTY_ASSIGNED_CONTEXT((#1816)) 
GLOBAL_UNIT_ASSIGNED_CONTEXT((#1813,#1814,#1815)) REPRESENTATION_CONTEXT
('Context #1','3D Context with UNIT and UNCERTAINTY') );
#1813 = ( LENGTH_UNIT() NAMED_UNIT(*) SI_UNIT(.MILLI.,.METRE.) );
#1814 = ( NAMED_UNIT(*) PLANE_ANGLE_UNIT() SI_UNIT($,.RADIAN.) );
#1815 = ( NAMED_UNIT(*) SI_UNIT($,.STERADIAN.) SOLID_ANGLE_UNIT() );
#1816 = UNCERTAINTY_MEASURE_WITH_UNIT(LENGTH_MEASURE(1.E-04),#1813,
  'distance_accuracy_value','confusion accuracy');
#1817 = CONTEXT_DEPENDENT_SHAPE_REPRESENTATION(#1818,#1820);
#1818 = ( REPRESENTATION_RELATIONSHIP('','',#32,#10) 
REPRESENTATION_RELATIONSHIP_WITH_TRANSFORMATION(#1819) 
SHAPE_REPRESENTATION_RELATIONSHIP() );
#1819 = ITEM_DEFINED_TRANSFORMATION('','',#11,#15);
#1820 = PRODUCT_DEFINITION_SHAPE('Placement','Placement of an item',
  #1821);
#1821 = NEXT_ASSEMBLY_USAGE_OCCURRENCE('1','Body','',#5,#27,$);
#1822 = PRODUCT_RELATED_PRODUCT_CATEGORY('part',$,(#29));
#1823 = MECHANICAL_DESIGN_GEOMETRIC_PRESENTATION_REPRESENTATION('',(
    #1824),#1812);
#1824 = STYLED_ITEM('color',(#1825),#33);
#1825 = PRESENTATION_STYLE_ASSIGNMENT((#1826,#1832));
#1826 = SURFACE_STYLE_USAGE(.BOTH.,#1827);
#1827 = SURFACE_SIDE_STYLE('',(#1828));
#1828 = SURFACE_STYLE_FILL_AREA(#1829);
#1829 = FILL_AREA_STYLE('',(#1830));
#1830 = FILL_AREA_STYLE_COLOUR('',#1831);
#1831 = COLOUR_RGB('',0.800000010877,0.800000010877,0.90196104065);
#1832 = CURVE_STYLE('',#1833,POSITIVE_LENGTH_MEASURE(0.1),#1834);
#1833 = DRAUGHTING_PRE_DEFINED_CURVE_FONT('continuous');
#1834 = COLOUR_RGB('',9.803921802644E-02,9.803921802644E-02,
  9.803921802644E-02);
ENDSEC;
END-ISO-10303-21;
