ISO-10303-21;
HEADER;
FILE_DESCRIPTION (( 'STEP AP203' ),
    '1' );
FILE_NAME ('9540K23_SBR Rubber Unthreaded-Hole Bumper.STEP',
    '2026-01-06T14:29:48',
    ( 'McMaster Carr Supply' ),
    ( 'McMaster Carr Supply' ),
    'SwSTEP 2.0',
    'SolidWorks 2024',
    '' );
FILE_SCHEMA (( 'CONFIG_CONTROL_DESIGN' ));
ENDSEC;

DATA;
#1 = CIRCLE ( 'NONE', #246, 0.3984375000000000000 ) ;
#2 = TOROIDAL_SURFACE ( 'NONE', #344, 0.2544348329586707536, 0.08255983295867075356 ) ;
#3 = CARTESIAN_POINT ( 'NONE',  ( 2.578016460990788360E-33, -6.829619984160658046E-17, 0.000000000000000000 ) ) ;
#4 = APPLICATION_CONTEXT ( 'configuration controlled 3d designs of mechanical parts and assemblies' ) ;
#5 = DIRECTION ( 'NONE',  ( -4.852736867747366888E-33, -1.000000000000000000, -0.000000000000000000 ) ) ;
#6 = PRODUCT ( '9540K23_SBR Rubber Unthreaded-Hole Bumper', '9540K23_SBR Rubber Unthreaded-Hole Bumper', '', ( #256 ) ) ;
#7 = DIRECTION ( 'NONE',  ( 0.000000000000000000, 0.000000000000000000, -1.000000000000000000 ) ) ;
#8 = PLANE ( 'NONE',  #274 ) ;
#9 = EDGE_LOOP ( 'NONE', ( #148, #92, #225, #78 ) ) ;
#10 = ORIENTED_EDGE ( 'NONE', *, *, #228, .T. ) ;
#11 = APPROVAL_STATUS ( 'not_yet_approved' ) ;
#12 = EDGE_CURVE ( 'NONE', #56, #140, #324, .T. ) ;
#13 = CC_DESIGN_APPROVAL ( #316, ( #125 ) ) ;
#14 = PERSON_AND_ORGANIZATION_ROLE ( 'classification_officer' ) ;
#15 = DIRECTION ( 'NONE',  ( -4.852736867747366888E-33, -1.000000000000000000, -0.000000000000000000 ) ) ;
#16 = CIRCLE ( 'NONE', #158, 0.1718750000000000555 ) ;
#17 = EDGE_CURVE ( 'NONE', #60, #56, #16, .T. ) ;
#18 = VECTOR ( 'NONE', #24, 39.37007874015747433 ) ;
#19 = DIRECTION ( 'NONE',  ( 1.000000000000000000, 0.000000000000000000, 0.000000000000000000 ) ) ;
#20 = DIRECTION ( 'NONE',  ( 1.000000000000000000, 0.000000000000000000, 0.000000000000000000 ) ) ;
#21 = CARTESIAN_POINT ( 'NONE',  ( 3.425477709318645416E-33, 0.1746357306039647006, 0.000000000000000000 ) ) ;
#22 = ADVANCED_FACE ( 'NONE', ( #193 ), #2, .T. ) ;
#23 = DIRECTION ( 'NONE',  ( -4.852736867747366888E-33, -1.000000000000000000, -0.000000000000000000 ) ) ;
#24 = DIRECTION ( 'NONE',  ( 0.08715574274765813811, -0.9961946980917456562, 0.000000000000000000 ) ) ;
#25 = EDGE_CURVE ( 'NONE', #201, #252, #107, .T. ) ;
#26 = DIRECTION ( 'NONE',  ( 1.000000000000000000, 0.000000000000000000, -1.224646799147352961E-16 ) ) ;
#27 = APPROVAL_PERSON_ORGANIZATION ( #339, #243, #259 ) ;
#28 = FACE_BOUND ( 'NONE', #258, .T. ) ;
#29 = DIRECTION ( 'NONE',  ( -4.852736867747366888E-33, -1.000000000000000000, -0.000000000000000000 ) ) ;
#30 = EDGE_LOOP ( 'NONE', ( #321, #150 ) ) ;
#31 = DIRECTION ( 'NONE',  ( -4.852736867747366888E-33, -1.000000000000000000, -0.000000000000000000 ) ) ;
#32 = EDGE_LOOP ( 'NONE', ( #314, #10, #326, #66 ) ) ;
#33 = AXIS2_PLACEMENT_3D ( 'NONE', #85, #303, #113 ) ;
#34 = DIRECTION ( 'NONE',  ( 0.000000000000000000, 0.000000000000000000, 1.000000000000000000 ) ) ;
#35 = VERTEX_POINT ( 'NONE', #75 ) ;
#36 = CALENDAR_DATE ( 2026, 6, 1 ) ;
#37 = EDGE_CURVE ( 'NONE', #311, #268, #159, .T. ) ;
#38 = ORIENTED_EDGE ( 'NONE', *, *, #12, .F. ) ;
#39 = DATE_TIME_ROLE ( 'creation_date' ) ;
#40 = AXIS2_PLACEMENT_3D ( 'NONE', #251, #224, #307 ) ;
#41 = CALENDAR_DATE ( 2026, 6, 1 ) ;
#42 = PERSON_AND_ORGANIZATION ( #72, #184 ) ;
#43 = PERSON_AND_ORGANIZATION_ROLE ( 'design_supplier' ) ;
#44 = LINE ( 'NONE', #322, #18 ) ;
#45 = CIRCLE ( 'NONE', #248, 0.08593750000000000000 ) ;
#46 = DIRECTION ( 'NONE',  ( 1.000000000000000000, 0.000000000000000000, 0.000000000000000000 ) ) ;
#47 = CARTESIAN_POINT ( 'NONE',  ( 0.000000000000000000, -0.5312500000000000000, 0.000000000000000000 ) ) ;
#48 = FACE_OUTER_BOUND ( 'NONE', #9, .T. ) ;
#49 = AXIS2_PLACEMENT_3D ( 'NONE', #242, #134, #105 ) ;
#50 = CARTESIAN_POINT ( 'NONE',  ( -0.1718750000000000555, 0.1674401670413292464, 3.114004331385510402E-17 ) ) ;
#51 = CARTESIAN_POINT ( 'NONE',  ( 0.08593750000000000000, -0.5312500000000000000, 0.000000000000000000 ) ) ;
#52 = FACE_OUTER_BOUND ( 'NONE', #216, .T. ) ;
#53 = CIRCLE ( 'NONE', #99, 0.3366805008274387223 ) ;
#54 = AXIS2_PLACEMENT_3D ( 'NONE', #318, #214, #267 ) ;
#55 = EDGE_CURVE ( 'NONE', #201, #249, #202, .T. ) ;
#56 = VERTEX_POINT ( 'NONE', #50 ) ;
#57 = CARTESIAN_POINT ( 'NONE',  ( 0.2544348329586707536, 0.1674401670413292464, 0.000000000000000000 ) ) ;
#58 = ORIENTED_EDGE ( 'NONE', *, *, #37, .T. ) ;
#59 = FACE_OUTER_BOUND ( 'NONE', #104, .T. ) ;
#60 = VERTEX_POINT ( 'NONE', #353 ) ;
#61 = CIRCLE ( 'NONE', #157, 0.1718750000000000000 ) ;
#62 = PRODUCT_RELATED_PRODUCT_CATEGORY ( 'detail', '', ( #6 ) ) ;
#63 = VECTOR ( 'NONE', #160, 39.37007874015748143 ) ;
#64 = APPLICATION_PROTOCOL_DEFINITION ( 'international standard', 'config_control_design', 1994, #4 ) ;
#65 = COORDINATED_UNIVERSAL_TIME_OFFSET ( 6, 0, .BEHIND. ) ;
#66 = ORIENTED_EDGE ( 'NONE', *, *, #93, .F. ) ;
#67 = PERSON_AND_ORGANIZATION_ROLE ( 'design_owner' ) ;
#68 = PERSON_AND_ORGANIZATION ( #72, #184 ) ;
#69 = PERSON_AND_ORGANIZATION_ROLE ( 'creator' ) ;
#70 = CONICAL_SURFACE ( 'NONE', #33, 0.3366805008274387223, 0.08726646259971643227 ) ;
#71 = DATE_TIME_ROLE ( 'classification_date' ) ;
#72 = PERSON ( 'UNSPECIFIED', 'UNSPECIFIED', 'UNSPECIFIED', ('UNSPECIFIED'), ('UNSPECIFIED'), ('UNSPECIFIED') ) ;
#73 = ADVANCED_FACE ( 'NONE', ( #296 ), #126, .T. ) ;
#74 = AXIS2_PLACEMENT_3D ( 'NONE', #3, #31, #271 ) ;
#75 = CARTESIAN_POINT ( 'NONE',  ( -0.08593750000000000000, -0.5312500000000000000, 1.052430843017256874E-17 ) ) ;
#76 = AXIS2_PLACEMENT_3D ( 'NONE', #164, #23, #325 ) ;
#77 = FACE_OUTER_BOUND ( 'NONE', #175, .T. ) ;
#78 = ORIENTED_EDGE ( 'NONE', *, *, #25, .F. ) ;
#79 = CARTESIAN_POINT ( 'NONE',  ( 3.314234868984061319E-49, -0.5312500000000000000, 0.000000000000000000 ) ) ;
#80 = EDGE_CURVE ( 'NONE', #35, #252, #45, .T. ) ;
#81 = DIRECTION ( 'NONE',  ( -4.852736867747366888E-33, -1.000000000000000000, -0.000000000000000000 ) ) ;
#82 = ORIENTED_EDGE ( 'NONE', *, *, #93, .T. ) ;
#83 = DIRECTION ( 'NONE',  ( -4.852736867747366888E-33, -1.000000000000000000, -0.000000000000000000 ) ) ;
#84 = VERTEX_POINT ( 'NONE', #351 ) ;
#85 = CARTESIAN_POINT ( 'NONE',  ( 3.425477709318645416E-33, 0.1746357306039647006, 0.000000000000000000 ) ) ;
#86 = ORIENTED_EDGE ( 'NONE', *, *, #335, .F. ) ;
#87 = ADVANCED_FACE ( 'NONE', ( #48 ), #295, .F. ) ;
#88 = FACE_OUTER_BOUND ( 'NONE', #192, .T. ) ;
#89 = ORIENTED_EDGE ( 'NONE', *, *, #155, .F. ) ;
#90 = FACE_OUTER_BOUND ( 'NONE', #306, .T. ) ;
#91 = DIRECTION ( 'NONE',  ( 4.852736867747366888E-33, 1.000000000000000000, 0.000000000000000000 ) ) ;
#92 = ORIENTED_EDGE ( 'NONE', *, *, #335, .T. ) ;
#93 = EDGE_CURVE ( 'NONE', #268, #173, #276, .T. ) ;
#94 = ORIENTED_EDGE ( 'NONE', *, *, #277, .F. ) ;
#95 = VECTOR ( 'NONE', #174, 39.37007874015748143 ) ;
#96 = COORDINATED_UNIVERSAL_TIME_OFFSET ( 6, 0, .BEHIND. ) ;
#97 = APPROVAL_ROLE ( '' ) ;
#98 = DATE_AND_TIME ( #41, #135 ) ;
#99 = AXIS2_PLACEMENT_3D ( 'NONE', #133, #5, #115 ) ;
#100 = FACE_OUTER_BOUND ( 'NONE', #122, .T. ) ;
#101 = DIRECTION ( 'NONE',  ( -4.852736867747366888E-33, -1.000000000000000000, -0.000000000000000000 ) ) ;
#102 = CARTESIAN_POINT ( 'NONE',  ( 3.390559532734024544E-33, 0.1674401670413292464, 0.000000000000000000 ) ) ;
#103 = AXIS2_PLACEMENT_3D ( 'NONE', #123, #34, #229 ) ;
#104 = EDGE_LOOP ( 'NONE', ( #341, #178, #244, #281 ) ) ;
#105 = DIRECTION ( 'NONE',  ( 1.000000000000000000, -4.852736867747366204E-33, 0.000000000000000000 ) ) ;
#106 = CC_DESIGN_DATE_AND_TIME_ASSIGNMENT ( #291, #71, ( #333 ) ) ;
#107 = LINE ( 'NONE', #208, #185 ) ;
#108 = DIRECTION ( 'NONE',  ( 1.000000000000000000, -4.852736867747366888E-33, 0.000000000000000000 ) ) ;
#109 = ORIENTED_EDGE ( 'NONE', *, *, #12, .T. ) ;
#110 = DIRECTION ( 'NONE',  ( -1.000000000000000000, 4.852736867747366888E-33, 0.000000000000000000 ) ) ;
#111 = AXIS2_PLACEMENT_3D ( 'NONE', #21, #131, #183 ) ;
#112 = CYLINDRICAL_SURFACE ( 'NONE', #116, 0.08593750000000002776 ) ;
#113 = DIRECTION ( 'NONE',  ( 1.000000000000000000, 0.000000000000000000, 0.000000000000000000 ) ) ;
#114 = ORIENTED_EDGE ( 'NONE', *, *, #257, .T. ) ;
#115 = DIRECTION ( 'NONE',  ( 1.000000000000000000, 0.000000000000000000, 0.000000000000000000 ) ) ;
#116 = AXIS2_PLACEMENT_3D ( 'NONE', #117, #219, #310 ) ;
#117 = CARTESIAN_POINT ( 'NONE',  ( 0.000000000000000000, -0.5312500000000000000, 0.000000000000000000 ) ) ;
#118 = ADVANCED_FACE ( 'NONE', ( #100, #238 ), #264, .F. ) ;
#119 = ORIENTED_EDGE ( 'NONE', *, *, #188, .F. ) ;
#120 = APPROVAL_ROLE ( '' ) ;
#121 = APPROVAL_DATE_TIME ( #177, #128 ) ;
#122 = EDGE_LOOP ( 'NONE', ( #328, #94 ) ) ;
#123 = CARTESIAN_POINT ( 'NONE',  ( 0.000000000000000000, 0.000000000000000000, 0.000000000000000000 ) ) ;
#124 = LOCAL_TIME ( 8, 29, 48.00000000000000000, #65 ) ;
#125 = PRODUCT_DEFINITION_FORMATION_WITH_SPECIFIED_SOURCE ( 'ANY', '', #6, .NOT_KNOWN. ) ;
#126 = CONICAL_SURFACE ( 'NONE', #168, 0.3366805008274387223, 0.08726646259971643227 ) ;
#127 = COORDINATED_UNIVERSAL_TIME_OFFSET ( 6, 0, .BEHIND. ) ;
#128 = APPROVAL ( #11, 'UNSPECIFIED' ) ;
#129 = CALENDAR_DATE ( 2026, 6, 1 ) ;
#130 = VECTOR ( 'NONE', #305, 39.37007874015748143 ) ;
#131 = DIRECTION ( 'NONE',  ( -4.852736867747366888E-33, -1.000000000000000000, -0.000000000000000000 ) ) ;
#132 = CC_DESIGN_PERSON_AND_ORGANIZATION_ASSIGNMENT ( #68, #43, ( #125 ) ) ;
#133 = CARTESIAN_POINT ( 'NONE',  ( 3.425477709318645416E-33, 0.1746357306039647006, 0.000000000000000000 ) ) ;
#134 = DIRECTION ( 'NONE',  ( -4.852736867747366888E-33, -1.000000000000000000, -0.000000000000000000 ) ) ;
#135 = LOCAL_TIME ( 8, 29, 48.00000000000000000, #153 ) ;
#136 = DIRECTION ( 'NONE',  ( -4.852736867747366888E-33, -1.000000000000000000, -0.000000000000000000 ) ) ;
#137 = CARTESIAN_POINT ( 'NONE',  ( 3.425477709318645416E-33, 0.1746357306039647006, 0.000000000000000000 ) ) ;
#138 =( NAMED_UNIT ( * ) PLANE_ANGLE_UNIT ( ) SI_UNIT ( $, .RADIAN. ) );
#139 = CARTESIAN_POINT ( 'NONE',  ( -0.08593750000000000000, -0.5312500000000000000, 0.000000000000000000 ) ) ;
#140 = VERTEX_POINT ( 'NONE', #237 ) ;
#141 = VECTOR ( 'NONE', #240, 39.37007874015747433 ) ;
#142 = DIRECTION ( 'NONE',  ( -4.852736867747366888E-33, -1.000000000000000000, -0.000000000000000000 ) ) ;
#143 = APPLICATION_CONTEXT ( 'configuration controlled 3d designs of mechanical parts and assemblies' ) ;
#144 = EDGE_LOOP ( 'NONE', ( #114, #82 ) ) ;
#145 =( CONVERSION_BASED_UNIT ( 'INCH', #169 ) LENGTH_UNIT ( ) NAMED_UNIT ( #165 ) );
#146 = ORIENTED_EDGE ( 'NONE', *, *, #55, .F. ) ;
#147 = EDGE_CURVE ( 'NONE', #60, #84, #161, .T. ) ;
#148 = ORIENTED_EDGE ( 'NONE', *, *, #182, .F. ) ;
#149 = PERSON_AND_ORGANIZATION ( #72, #184 ) ;
#150 = ORIENTED_EDGE ( 'NONE', *, *, #182, .T. ) ;
#151 = ORIENTED_EDGE ( 'NONE', *, *, #17, .F. ) ;
#152 = APPROVAL_STATUS ( 'not_yet_approved' ) ;
#153 = COORDINATED_UNIVERSAL_TIME_OFFSET ( 6, 0, .BEHIND. ) ;
#154 = AXIS2_PLACEMENT_3D ( 'NONE', #166, #273, #26 ) ;
#155 = EDGE_CURVE ( 'NONE', #197, #311, #263, .T. ) ;
#156 = CC_DESIGN_APPROVAL ( #128, ( #333 ) ) ;
#157 = AXIS2_PLACEMENT_3D ( 'NONE', #334, #83, #195 ) ;
#158 = AXIS2_PLACEMENT_3D ( 'NONE', #102, #15, #190 ) ;
#159 = LINE ( 'NONE', #186, #141 ) ;
#160 = DIRECTION ( 'NONE',  ( -4.852736867747366888E-33, -1.000000000000000000, -0.000000000000000000 ) ) ;
#161 = LINE ( 'NONE', #323, #63 ) ;
#162 = TOROIDAL_SURFACE ( 'NONE', #294, 0.2544348329586707536, 0.08255983295867075356 ) ;
#163 = CARTESIAN_POINT ( 'NONE',  ( 0.08593750000000006939, -4.170320745720396306E-34, 0.000000000000000000 ) ) ;
#164 = CARTESIAN_POINT ( 'NONE',  ( 2.578016460990788702E-33, 0.000000000000000000, 0.000000000000000000 ) ) ;
#165 = DIMENSIONAL_EXPONENTS ( 1.000000000000000000, 0.000000000000000000, 0.000000000000000000, 0.000000000000000000, 0.000000000000000000, 0.000000000000000000, 0.000000000000000000 ) ;
#166 = CARTESIAN_POINT ( 'NONE',  ( -0.2544348329586707536, 0.1674401670413292464, 3.115928037744276831E-17 ) ) ;
#167 = CARTESIAN_POINT ( 'NONE',  ( -0.3366805008274387223, 0.1746357306039647006, 4.501299533544620119E-17 ) ) ;
#168 = AXIS2_PLACEMENT_3D ( 'NONE', #137, #270, #19 ) ;
#169 = LENGTH_MEASURE_WITH_UNIT ( LENGTH_MEASURE( 0.02539999999999999897 ), #172 );
#170 = ORIENTED_EDGE ( 'NONE', *, *, #203, .F. ) ;
#171 = CC_DESIGN_PERSON_AND_ORGANIZATION_ASSIGNMENT ( #42, #14, ( #333 ) ) ;
#172 =( LENGTH_UNIT ( ) NAMED_UNIT ( * ) SI_UNIT ( $, .METRE. ) );
#173 = VERTEX_POINT ( 'NONE', #293 ) ;
#174 = DIRECTION ( 'NONE',  ( -4.852736867747366888E-33, -1.000000000000000000, -0.000000000000000000 ) ) ;
#175 = EDGE_LOOP ( 'NONE', ( #260, #109, #272, #308 ) ) ;
#176 = APPLICATION_PROTOCOL_DEFINITION ( 'international standard', 'config_control_design', 1994, #143 ) ;
#177 = DATE_AND_TIME ( #129, #232 ) ;
#178 = ORIENTED_EDGE ( 'NONE', *, *, #292, .T. ) ;
#179 = APPROVAL_DATE_TIME ( #204, #243 ) ;
#180 = PRODUCT_DEFINITION ( 'UNKNOWN', '', #125, #301 ) ;
#181 = PERSON_AND_ORGANIZATION ( #72, #184 ) ;
#182 = EDGE_CURVE ( 'NONE', #249, #201, #209, .T. ) ;
#183 = DIRECTION ( 'NONE',  ( 1.000000000000000000, 0.000000000000000000, 0.000000000000000000 ) ) ;
#184 = ORGANIZATION ( 'UNSPECIFIED', 'UNSPECIFIED', '' ) ;
#185 = VECTOR ( 'NONE', #207, 39.37007874015748143 ) ;
#186 = CARTESIAN_POINT ( 'NONE',  ( -0.3366805008274387223, 0.1746357306039647006, 4.123146976736506131E-17 ) ) ;
#187 = CARTESIAN_POINT ( 'NONE',  ( 0.000000000000000000, 0.1674401670413292464, 0.000000000000000000 ) ) ;
#188 = EDGE_CURVE ( 'NONE', #252, #35, #223, .T. ) ;
#189 = DIRECTION ( 'NONE',  ( 1.000000000000000000, 0.000000000000000000, 0.000000000000000000 ) ) ;
#190 = DIRECTION ( 'NONE',  ( 1.000000000000000000, 0.000000000000000000, 0.000000000000000000 ) ) ;
#191 = AXIS2_PLACEMENT_3D ( 'NONE', #57, #7, #194 ) ;
#192 = EDGE_LOOP ( 'NONE', ( #86, #146, #227, #284 ) ) ;
#193 = FACE_OUTER_BOUND ( 'NONE', #338, .T. ) ;
#194 = DIRECTION ( 'NONE',  ( -1.000000000000000000, 0.000000000000000000, 0.000000000000000000 ) ) ;
#195 = DIRECTION ( 'NONE',  ( 1.000000000000000000, 0.000000000000000000, 0.000000000000000000 ) ) ;
#196 = CIRCLE ( 'NONE', #40, 0.1718750000000000555 ) ;
#197 = VERTEX_POINT ( 'NONE', #297 ) ;
#198 = ORIENTED_EDGE ( 'NONE', *, *, #17, .T. ) ;
#199 = CARTESIAN_POINT ( 'NONE',  ( -3.314234868984061319E-49, -0.5312500000000001110, 0.000000000000000000 ) ) ;
#200 = ORIENTED_EDGE ( 'NONE', *, *, #257, .F. ) ;
#201 = VERTEX_POINT ( 'NONE', #163 ) ;
#202 = CIRCLE ( 'NONE', #76, 0.08593750000000006939 ) ;
#203 = EDGE_CURVE ( 'NONE', #197, #173, #44, .T. ) ;
#204 = DATE_AND_TIME ( #36, #304 ) ;
#205 = CC_DESIGN_PERSON_AND_ORGANIZATION_ASSIGNMENT ( #181, #69, ( #125 ) ) ;
#206 = CIRCLE ( 'NONE', #74, 0.1718750000000000000 ) ;
#207 = DIRECTION ( 'NONE',  ( -4.852736867747366888E-33, -1.000000000000000000, -0.000000000000000000 ) ) ;
#208 = CARTESIAN_POINT ( 'NONE',  ( 0.08593750000000002776, -0.5312500000000000000, 0.000000000000000000 ) ) ;
#209 = CIRCLE ( 'NONE', #49, 0.08593750000000006939 ) ;
#210 = CC_DESIGN_PERSON_AND_ORGANIZATION_ASSIGNMENT ( #261, #283, ( #180 ) ) ;
#211 = AXIS2_PLACEMENT_3D ( 'NONE', #352, #136, #213 ) ;
#212 = DIRECTION ( 'NONE',  ( -4.852736867747366888E-33, -1.000000000000000000, -0.000000000000000000 ) ) ;
#213 = DIRECTION ( 'NONE',  ( 1.000000000000000000, 0.000000000000000000, 0.000000000000000000 ) ) ;
#214 = DIRECTION ( 'NONE',  ( -4.852736867747366888E-33, -1.000000000000000000, 0.000000000000000000 ) ) ;
#215 = ADVANCED_FACE ( 'NONE', ( #77 ), #245, .F. ) ;
#216 = EDGE_LOOP ( 'NONE', ( #38, #151, #331, #287 ) ) ;
#217 = MANIFOLD_SOLID_BREP ( 'Revolve1', #313 ) ;
#218 = CARTESIAN_POINT ( 'NONE',  ( 0.000000000000000000, 0.1674401670413292464, 0.000000000000000000 ) ) ;
#219 = DIRECTION ( 'NONE',  ( -4.852736867747366888E-33, -1.000000000000000000, -0.000000000000000000 ) ) ;
#220 = ORIENTED_EDGE ( 'NONE', *, *, #329, .T. ) ;
#221 = UNCERTAINTY_MEASURE_WITH_UNIT (LENGTH_MEASURE( 1.000000000000000082E-05 ), #145, 'distance_accuracy_value', 'NONE');
#222 = DIRECTION ( 'NONE',  ( 1.000000000000000000, -4.852736867747366888E-33, 0.000000000000000000 ) ) ;
#223 = CIRCLE ( 'NONE', #348, 0.08593750000000000000 ) ;
#224 = DIRECTION ( 'NONE',  ( -4.852736867747366888E-33, -1.000000000000000000, -0.000000000000000000 ) ) ;
#225 = ORIENTED_EDGE ( 'NONE', *, *, #80, .T. ) ;
#226 = APPROVAL_DATE_TIME ( #98, #316 ) ;
#227 = ORIENTED_EDGE ( 'NONE', *, *, #25, .T. ) ;
#228 = EDGE_CURVE ( 'NONE', #311, #197, #53, .T. ) ;
#229 = DIRECTION ( 'NONE',  ( 1.000000000000000000, 0.000000000000000000, 0.000000000000000000 ) ) ;
#230 = CC_DESIGN_APPROVAL ( #243, ( #180 ) ) ;
#231 = PERSON_AND_ORGANIZATION ( #72, #184 ) ;
#232 = LOCAL_TIME ( 8, 29, 48.00000000000000000, #234 ) ;
#233 = DATE_AND_TIME ( #288, #289 ) ;
#234 = COORDINATED_UNIVERSAL_TIME_OFFSET ( 6, 0, .BEHIND. ) ;
#235 = CC_DESIGN_PERSON_AND_ORGANIZATION_ASSIGNMENT ( #342, #67, ( #6 ) ) ;
#236 = AXIS2_PLACEMENT_3D ( 'NONE', #354, #81, #20 ) ;
#237 = CARTESIAN_POINT ( 'NONE',  ( -0.1718750000000000000, -6.829619984160658046E-17, 2.104861686034513440E-17 ) ) ;
#238 = FACE_BOUND ( 'NONE', #30, .T. ) ;
#239 = ADVANCED_FACE ( 'NONE', ( #28, #332 ), #8, .F. ) ;
#240 = DIRECTION ( 'NONE',  ( -0.08715574274765813811, -0.9961946980917456562, 1.067350013832296744E-17 ) ) ;
#241 = CIRCLE ( 'NONE', #191, 0.08255983295867075356 ) ;
#242 = CARTESIAN_POINT ( 'NONE',  ( 2.578016460990788702E-33, 0.000000000000000000, 0.000000000000000000 ) ) ;
#243 = APPROVAL ( #285, 'UNSPECIFIED' ) ;
#244 = ORIENTED_EDGE ( 'NONE', *, *, #302, .T. ) ;
#245 = CYLINDRICAL_SURFACE ( 'NONE', #236, 0.1718750000000000278 ) ;
#246 = AXIS2_PLACEMENT_3D ( 'NONE', #199, #142, #299 ) ;
#247 = CARTESIAN_POINT ( 'NONE',  ( -0.3984375000000000000, -0.5312500000000001110, 4.879452090352734722E-17 ) ) ;
#248 = AXIS2_PLACEMENT_3D ( 'NONE', #298, #317, #350 ) ;
#249 = VERTEX_POINT ( 'NONE', #253 ) ;
#250 = EDGE_CURVE ( 'NONE', #84, #140, #61, .T. ) ;
#251 = CARTESIAN_POINT ( 'NONE',  ( 3.390559532734024544E-33, 0.1674401670413292464, 0.000000000000000000 ) ) ;
#252 = VERTEX_POINT ( 'NONE', #51 ) ;
#253 = CARTESIAN_POINT ( 'NONE',  ( -0.08593750000000006939, 4.170320745720396306E-34, 1.052430843017257491E-17 ) ) ;
#254 = ORIENTED_EDGE ( 'NONE', *, *, #80, .F. ) ;
#255 = ADVANCED_BREP_SHAPE_REPRESENTATION ( '9540K23_SBR Rubber Unthreaded-Hole Bumper', ( #217, #103 ), #343 ) ;
#256 = MECHANICAL_CONTEXT ( 'NONE', #4, 'mechanical' ) ;
#257 = EDGE_CURVE ( 'NONE', #173, #268, #1, .T. ) ;
#258 = EDGE_LOOP ( 'NONE', ( #119, #254 ) ) ;
#259 = APPROVAL_ROLE ( '' ) ;
#260 = ORIENTED_EDGE ( 'NONE', *, *, #292, .F. ) ;
#261 = PERSON_AND_ORGANIZATION ( #72, #184 ) ;
#262 = CIRCLE ( 'NONE', #154, 0.08255983295867075356 ) ;
#263 = CIRCLE ( 'NONE', #111, 0.3366805008274387223 ) ;
#264 = PLANE ( 'NONE',  #54 ) ;
#265 = DIRECTION ( 'NONE',  ( -4.852736867747366888E-33, -1.000000000000000000, -0.000000000000000000 ) ) ;
#266 = CARTESIAN_POINT ( 'NONE',  ( -0.1718750000000000278, -0.5312500000000000000, 2.104861686034513440E-17 ) ) ;
#267 = DIRECTION ( 'NONE',  ( 1.000000000000000000, -4.852736867747366888E-33, 0.000000000000000000 ) ) ;
#268 = VERTEX_POINT ( 'NONE', #247 ) ;
#269 = ADVANCED_FACE ( 'NONE', ( #59 ), #162, .T. ) ;
#270 = DIRECTION ( 'NONE',  ( -4.852736867747366888E-33, -1.000000000000000000, -0.000000000000000000 ) ) ;
#271 = DIRECTION ( 'NONE',  ( 1.000000000000000000, 0.000000000000000000, 0.000000000000000000 ) ) ;
#272 = ORIENTED_EDGE ( 'NONE', *, *, #277, .T. ) ;
#273 = DIRECTION ( 'NONE',  ( 1.224646799147353207E-16, -5.942888672191165497E-49, 1.000000000000000000 ) ) ;
#274 = AXIS2_PLACEMENT_3D ( 'NONE', #139, #91, #110 ) ;
#275 = DIRECTION ( 'NONE',  ( 1.000000000000000000, 0.000000000000000000, 0.000000000000000000 ) ) ;
#276 = CIRCLE ( 'NONE', #211, 0.3984375000000000000 ) ;
#277 = EDGE_CURVE ( 'NONE', #140, #84, #206, .T. ) ;
#278 = CYLINDRICAL_SURFACE ( 'NONE', #315, 0.1718750000000000278 ) ;
#279 = ORIENTED_EDGE ( 'NONE', *, *, #302, .F. ) ;
#280 = LINE ( 'NONE', #330, #130 ) ;
#281 = ORIENTED_EDGE ( 'NONE', *, *, #228, .F. ) ;
#282 = CC_DESIGN_DATE_AND_TIME_ASSIGNMENT ( #233, #39, ( #180 ) ) ;
#283 = PERSON_AND_ORGANIZATION_ROLE ( 'creator' ) ;
#284 = ORIENTED_EDGE ( 'NONE', *, *, #188, .T. ) ;
#285 = APPROVAL_STATUS ( 'not_yet_approved' ) ;
#286 = CALENDAR_DATE ( 2026, 6, 1 ) ;
#287 = ORIENTED_EDGE ( 'NONE', *, *, #250, .T. ) ;
#288 = CALENDAR_DATE ( 2026, 6, 1 ) ;
#289 = LOCAL_TIME ( 8, 29, 48.00000000000000000, #127 ) ;
#290 = SHAPE_DEFINITION_REPRESENTATION ( #336, #255 ) ;
#291 = DATE_AND_TIME ( #286, #124 ) ;
#292 = EDGE_CURVE ( 'NONE', #56, #60, #196, .T. ) ;
#293 = CARTESIAN_POINT ( 'NONE',  ( 0.3984375000000000000, -0.5312500000000001110, 0.000000000000000000 ) ) ;
#294 = AXIS2_PLACEMENT_3D ( 'NONE', #218, #327, #222 ) ;
#295 = CYLINDRICAL_SURFACE ( 'NONE', #320, 0.08593750000000002776 ) ;
#296 = FACE_OUTER_BOUND ( 'NONE', #32, .T. ) ;
#297 = CARTESIAN_POINT ( 'NONE',  ( 0.3366805008274387223, 0.1746357306039647006, 0.000000000000000000 ) ) ;
#298 = CARTESIAN_POINT ( 'NONE',  ( 3.314234868984061319E-49, -0.5312500000000000000, 0.000000000000000000 ) ) ;
#299 = DIRECTION ( 'NONE',  ( 1.000000000000000000, 0.000000000000000000, 0.000000000000000000 ) ) ;
#300 = ORIENTED_EDGE ( 'NONE', *, *, #155, .T. ) ;
#301 = DESIGN_CONTEXT ( 'detailed design', #143, 'design' ) ;
#302 = EDGE_CURVE ( 'NONE', #60, #197, #241, .T. ) ;
#303 = DIRECTION ( 'NONE',  ( -4.852736867747366888E-33, -1.000000000000000000, -0.000000000000000000 ) ) ;
#304 = LOCAL_TIME ( 8, 29, 48.00000000000000000, #96 ) ;
#305 = DIRECTION ( 'NONE',  ( -4.852736867747366888E-33, -1.000000000000000000, -0.000000000000000000 ) ) ;
#306 = EDGE_LOOP ( 'NONE', ( #300, #58, #200, #170 ) ) ;
#307 = DIRECTION ( 'NONE',  ( 1.000000000000000000, 0.000000000000000000, 0.000000000000000000 ) ) ;
#308 = ORIENTED_EDGE ( 'NONE', *, *, #147, .F. ) ;
#309 = ADVANCED_FACE ( 'NONE', ( #88 ), #112, .F. ) ;
#310 = DIRECTION ( 'NONE',  ( 1.000000000000000000, 0.000000000000000000, 0.000000000000000000 ) ) ;
#311 = VERTEX_POINT ( 'NONE', #167 ) ;
#312 =( NAMED_UNIT ( * ) SI_UNIT ( $, .STERADIAN. ) SOLID_ANGLE_UNIT ( ) );
#313 = CLOSED_SHELL ( 'NONE', ( #87, #215, #22, #345, #73, #269, #349, #118, #309, #239 ) ) ;
#314 = ORIENTED_EDGE ( 'NONE', *, *, #37, .F. ) ;
#315 = AXIS2_PLACEMENT_3D ( 'NONE', #337, #29, #275 ) ;
#316 = APPROVAL ( #152, 'UNSPECIFIED' ) ;
#317 = DIRECTION ( 'NONE',  ( -4.852736867747366888E-33, -1.000000000000000000, -0.000000000000000000 ) ) ;
#318 = CARTESIAN_POINT ( 'NONE',  ( -0.1718750000000000000, -2.193159934587500404E-17, 0.000000000000000000 ) ) ;
#319 = APPROVAL_PERSON_ORGANIZATION ( #149, #316, #120 ) ;
#320 = AXIS2_PLACEMENT_3D ( 'NONE', #47, #265, #46 ) ;
#321 = ORIENTED_EDGE ( 'NONE', *, *, #55, .T. ) ;
#322 = CARTESIAN_POINT ( 'NONE',  ( 0.3366805008274387223, 0.1746357306039647006, 0.000000000000000000 ) ) ;
#323 = CARTESIAN_POINT ( 'NONE',  ( 0.1718750000000000278, -0.5312500000000000000, 0.000000000000000000 ) ) ;
#324 = LINE ( 'NONE', #266, #95 ) ;
#325 = DIRECTION ( 'NONE',  ( 1.000000000000000000, -4.852736867747366204E-33, 0.000000000000000000 ) ) ;
#326 = ORIENTED_EDGE ( 'NONE', *, *, #203, .T. ) ;
#327 = DIRECTION ( 'NONE',  ( -4.852736867747366888E-33, -1.000000000000000000, -0.000000000000000000 ) ) ;
#328 = ORIENTED_EDGE ( 'NONE', *, *, #250, .F. ) ;
#329 = EDGE_CURVE ( 'NONE', #56, #311, #262, .T. ) ;
#330 = CARTESIAN_POINT ( 'NONE',  ( -0.08593750000000002776, -0.5312500000000000000, 1.052430843017257182E-17 ) ) ;
#331 = ORIENTED_EDGE ( 'NONE', *, *, #147, .T. ) ;
#332 = FACE_OUTER_BOUND ( 'NONE', #144, .T. ) ;
#333 = SECURITY_CLASSIFICATION ( '', '', #340 ) ;
#334 = CARTESIAN_POINT ( 'NONE',  ( 2.578016460990788360E-33, -6.829619984160658046E-17, 0.000000000000000000 ) ) ;
#335 = EDGE_CURVE ( 'NONE', #249, #35, #280, .T. ) ;
#336 = PRODUCT_DEFINITION_SHAPE ( 'NONE', 'NONE',  #180 ) ;
#337 = CARTESIAN_POINT ( 'NONE',  ( 0.000000000000000000, -0.5312500000000000000, 0.000000000000000000 ) ) ;
#338 = EDGE_LOOP ( 'NONE', ( #198, #220, #89, #279 ) ) ;
#339 = PERSON_AND_ORGANIZATION ( #72, #184 ) ;
#340 = SECURITY_CLASSIFICATION_LEVEL ( 'unclassified' ) ;
#341 = ORIENTED_EDGE ( 'NONE', *, *, #329, .F. ) ;
#342 = PERSON_AND_ORGANIZATION ( #72, #184 ) ;
#343 =( GEOMETRIC_REPRESENTATION_CONTEXT ( 3 ) GLOBAL_UNCERTAINTY_ASSIGNED_CONTEXT ( ( #221 ) ) GLOBAL_UNIT_ASSIGNED_CONTEXT ( ( #145, #138, #312 ) ) REPRESENTATION_CONTEXT ( 'NONE', 'WORKASPACE' ) );
#344 = AXIS2_PLACEMENT_3D ( 'NONE', #187, #101, #108 ) ;
#345 = ADVANCED_FACE ( 'NONE', ( #90 ), #70, .T. ) ;
#346 = APPROVAL_PERSON_ORGANIZATION ( #231, #128, #97 ) ;
#347 = CC_DESIGN_SECURITY_CLASSIFICATION ( #333, ( #125 ) ) ;
#348 = AXIS2_PLACEMENT_3D ( 'NONE', #79, #212, #189 ) ;
#349 = ADVANCED_FACE ( 'NONE', ( #52 ), #278, .F. ) ;
#350 = DIRECTION ( 'NONE',  ( 1.000000000000000000, 0.000000000000000000, 0.000000000000000000 ) ) ;
#351 = CARTESIAN_POINT ( 'NONE',  ( 0.1718750000000000000, -6.829619984160658046E-17, 0.000000000000000000 ) ) ;
#352 = CARTESIAN_POINT ( 'NONE',  ( -3.314234868984061319E-49, -0.5312500000000001110, 0.000000000000000000 ) ) ;
#353 = CARTESIAN_POINT ( 'NONE',  ( 0.1718750000000000555, 0.1674401670413292464, 0.000000000000000000 ) ) ;
#354 = CARTESIAN_POINT ( 'NONE',  ( 0.000000000000000000, -0.5312500000000000000, 0.000000000000000000 ) ) ;
ENDSEC;
END-ISO-10303-21;
