ISO-10303-21;
HEADER;
/* Generated by software containing ST-Developer
 * from STEP Tools, Inc. (www.steptools.com) 
 */

FILE_DESCRIPTION(
/* description */ (''),
/* implementation_level */ '2;1');

FILE_NAME(
/* name */ 'C:/Users/\X2\AD6CC790BCD1\X0\/Downloads/1020 Coreless Moto
r.step',
/* time_stamp */ '2022-04-25T14:48:39+09:00',
/* author */ (''),
/* organization */ (''),
/* preprocessor_version */ 'ST-DEVELOPER v18.1',
/* originating_system */ 'Autodesk Translation Framework v10.14.0.1471',

/* authorisation */ '');

FILE_SCHEMA (('AUTOMOTIVE_DESIGN { 1 0 10303 214 3 1 1 }'));
ENDSEC;

DATA;
#10=MECHANICAL_DESIGN_GEOMETRIC_PRESENTATION_REPRESENTATION('',(#13,#14),
#552);
#11=SHAPE_REPRESENTATION_RELATIONSHIP('SRR','None',#559,#12);
#12=ADVANCED_BREP_SHAPE_REPRESENTATION('',(#15,#16),#551);
#13=STYLED_ITEM('',(#569),#15);
#14=STYLED_ITEM('',(#570),#16);
#15=MANIFOLD_SOLID_BREP('\X2\BCF8CCB4\X0\1',#297);
#16=MANIFOLD_SOLID_BREP('\X2\BCF8CCB4\X0\2',#298);
#17=FACE_BOUND('',#94,.T.);
#18=FACE_BOUND('',#95,.T.);
#19=FACE_BOUND('',#96,.T.);
#20=FACE_BOUND('',#97,.T.);
#21=FACE_BOUND('',#98,.T.);
#22=FACE_BOUND('',#99,.T.);
#23=FACE_BOUND('',#100,.T.);
#24=FACE_BOUND('',#115,.T.);
#25=PLANE('',#318);
#26=PLANE('',#328);
#27=PLANE('',#331);
#28=PLANE('',#334);
#29=PLANE('',#337);
#30=PLANE('',#340);
#31=PLANE('',#343);
#32=PLANE('',#346);
#33=PLANE('',#348);
#34=PLANE('',#354);
#35=PLANE('',#358);
#36=PLANE('',#359);
#37=LINE('',#477,#47);
#38=LINE('',#496,#48);
#39=LINE('',#501,#49);
#40=LINE('',#506,#50);
#41=LINE('',#511,#51);
#42=LINE('',#516,#52);
#43=LINE('',#521,#53);
#44=LINE('',#527,#54);
#45=LINE('',#539,#55);
#46=LINE('',#545,#56);
#47=VECTOR('',#372,5.);
#48=VECTOR('',#393,0.5);
#49=VECTOR('',#400,0.5);
#50=VECTOR('',#407,0.5);
#51=VECTOR('',#414,0.5);
#52=VECTOR('',#421,0.5);
#53=VECTOR('',#428,0.5);
#54=VECTOR('',#437,1.);
#55=VECTOR('',#454,0.5);
#56=VECTOR('',#461,5.);
#57=CYLINDRICAL_SURFACE('',#316,5.);
#58=CYLINDRICAL_SURFACE('',#326,0.5);
#59=CYLINDRICAL_SURFACE('',#329,0.5);
#60=CYLINDRICAL_SURFACE('',#332,0.5);
#61=CYLINDRICAL_SURFACE('',#335,0.5);
#62=CYLINDRICAL_SURFACE('',#338,0.5);
#63=CYLINDRICAL_SURFACE('',#341,0.5);
#64=CYLINDRICAL_SURFACE('',#344,1.);
#65=CYLINDRICAL_SURFACE('',#353,0.5);
#66=CYLINDRICAL_SURFACE('',#355,5.);
#67=FACE_OUTER_BOUND('',#91,.T.);
#68=FACE_OUTER_BOUND('',#92,.T.);
#69=FACE_OUTER_BOUND('',#93,.T.);
#70=FACE_OUTER_BOUND('',#101,.T.);
#71=FACE_OUTER_BOUND('',#102,.T.);
#72=FACE_OUTER_BOUND('',#103,.T.);
#73=FACE_OUTER_BOUND('',#104,.T.);
#74=FACE_OUTER_BOUND('',#105,.T.);
#75=FACE_OUTER_BOUND('',#106,.T.);
#76=FACE_OUTER_BOUND('',#107,.T.);
#77=FACE_OUTER_BOUND('',#108,.T.);
#78=FACE_OUTER_BOUND('',#109,.T.);
#79=FACE_OUTER_BOUND('',#110,.T.);
#80=FACE_OUTER_BOUND('',#111,.T.);
#81=FACE_OUTER_BOUND('',#112,.T.);
#82=FACE_OUTER_BOUND('',#113,.T.);
#83=FACE_OUTER_BOUND('',#114,.T.);
#84=FACE_OUTER_BOUND('',#116,.T.);
#85=FACE_OUTER_BOUND('',#117,.T.);
#86=FACE_OUTER_BOUND('',#118,.T.);
#87=FACE_OUTER_BOUND('',#119,.T.);
#88=FACE_OUTER_BOUND('',#120,.T.);
#89=FACE_OUTER_BOUND('',#121,.T.);
#90=FACE_OUTER_BOUND('',#122,.T.);
#91=EDGE_LOOP('',(#203,#204,#205,#206));
#92=EDGE_LOOP('',(#207,#208,#209,#210));
#93=EDGE_LOOP('',(#211));
#94=EDGE_LOOP('',(#212));
#95=EDGE_LOOP('',(#213));
#96=EDGE_LOOP('',(#214));
#97=EDGE_LOOP('',(#215));
#98=EDGE_LOOP('',(#216));
#99=EDGE_LOOP('',(#217));
#100=EDGE_LOOP('',(#218));
#101=EDGE_LOOP('',(#219,#220,#221,#222));
#102=EDGE_LOOP('',(#223));
#103=EDGE_LOOP('',(#224,#225,#226,#227));
#104=EDGE_LOOP('',(#228));
#105=EDGE_LOOP('',(#229,#230,#231,#232));
#106=EDGE_LOOP('',(#233));
#107=EDGE_LOOP('',(#234,#235,#236,#237));
#108=EDGE_LOOP('',(#238));
#109=EDGE_LOOP('',(#239,#240,#241,#242));
#110=EDGE_LOOP('',(#243));
#111=EDGE_LOOP('',(#244,#245,#246,#247));
#112=EDGE_LOOP('',(#248));
#113=EDGE_LOOP('',(#249,#250,#251,#252));
#114=EDGE_LOOP('',(#253));
#115=EDGE_LOOP('',(#254));
#116=EDGE_LOOP('',(#255));
#117=EDGE_LOOP('',(#256,#257,#258,#259));
#118=EDGE_LOOP('',(#260,#261,#262,#263));
#119=EDGE_LOOP('',(#264));
#120=EDGE_LOOP('',(#265,#266,#267,#268));
#121=EDGE_LOOP('',(#269));
#122=EDGE_LOOP('',(#270));
#123=CIRCLE('',#313,4.5);
#124=CIRCLE('',#314,0.5);
#125=CIRCLE('',#315,5.);
#126=CIRCLE('',#317,5.);
#127=CIRCLE('',#319,1.);
#128=CIRCLE('',#320,0.5);
#129=CIRCLE('',#321,0.5);
#130=CIRCLE('',#322,0.5);
#131=CIRCLE('',#323,0.5);
#132=CIRCLE('',#324,0.5);
#133=CIRCLE('',#325,0.5);
#134=CIRCLE('',#327,0.5);
#135=CIRCLE('',#330,0.5);
#136=CIRCLE('',#333,0.5);
#137=CIRCLE('',#336,0.5);
#138=CIRCLE('',#339,0.5);
#139=CIRCLE('',#342,0.5);
#140=CIRCLE('',#345,1.);
#141=CIRCLE('',#347,0.5);
#142=CIRCLE('',#350,0.4);
#143=CIRCLE('',#351,0.1);
#144=CIRCLE('',#352,0.5);
#145=CIRCLE('',#356,5.);
#146=CIRCLE('',#357,5.);
#147=VERTEX_POINT('',#470);
#148=VERTEX_POINT('',#472);
#149=VERTEX_POINT('',#476);
#150=VERTEX_POINT('',#480);
#151=VERTEX_POINT('',#482);
#152=VERTEX_POINT('',#484);
#153=VERTEX_POINT('',#486);
#154=VERTEX_POINT('',#488);
#155=VERTEX_POINT('',#490);
#156=VERTEX_POINT('',#492);
#157=VERTEX_POINT('',#495);
#158=VERTEX_POINT('',#500);
#159=VERTEX_POINT('',#505);
#160=VERTEX_POINT('',#510);
#161=VERTEX_POINT('',#515);
#162=VERTEX_POINT('',#520);
#163=VERTEX_POINT('',#525);
#164=VERTEX_POINT('',#529);
#165=VERTEX_POINT('',#533);
#166=VERTEX_POINT('',#535);
#167=VERTEX_POINT('',#542);
#168=VERTEX_POINT('',#544);
#169=EDGE_CURVE('',#147,#147,#123,.T.);
#170=EDGE_CURVE('',#147,#148,#124,.T.);
#171=EDGE_CURVE('',#148,#148,#125,.T.);
#172=EDGE_CURVE('',#148,#149,#37,.T.);
#173=EDGE_CURVE('',#149,#149,#126,.T.);
#174=EDGE_CURVE('',#150,#150,#127,.T.);
#175=EDGE_CURVE('',#151,#151,#128,.T.);
#176=EDGE_CURVE('',#152,#152,#129,.T.);
#177=EDGE_CURVE('',#153,#153,#130,.T.);
#178=EDGE_CURVE('',#154,#154,#131,.T.);
#179=EDGE_CURVE('',#155,#155,#132,.T.);
#180=EDGE_CURVE('',#156,#156,#133,.T.);
#181=EDGE_CURVE('',#156,#157,#38,.T.);
#182=EDGE_CURVE('',#157,#157,#134,.T.);
#183=EDGE_CURVE('',#155,#158,#39,.T.);
#184=EDGE_CURVE('',#158,#158,#135,.T.);
#185=EDGE_CURVE('',#154,#159,#40,.T.);
#186=EDGE_CURVE('',#159,#159,#136,.T.);
#187=EDGE_CURVE('',#153,#160,#41,.T.);
#188=EDGE_CURVE('',#160,#160,#137,.T.);
#189=EDGE_CURVE('',#152,#161,#42,.T.);
#190=EDGE_CURVE('',#161,#161,#138,.T.);
#191=EDGE_CURVE('',#151,#162,#43,.T.);
#192=EDGE_CURVE('',#162,#162,#139,.T.);
#193=EDGE_CURVE('',#163,#163,#140,.T.);
#194=EDGE_CURVE('',#163,#150,#44,.T.);
#195=EDGE_CURVE('',#164,#164,#141,.T.);
#196=EDGE_CURVE('',#165,#165,#142,.T.);
#197=EDGE_CURVE('',#165,#166,#143,.T.);
#198=EDGE_CURVE('',#166,#166,#144,.T.);
#199=EDGE_CURVE('',#166,#164,#45,.T.);
#200=EDGE_CURVE('',#167,#167,#145,.T.);
#201=EDGE_CURVE('',#167,#168,#46,.T.);
#202=EDGE_CURVE('',#168,#168,#146,.T.);
#203=ORIENTED_EDGE('',*,*,#169,.T.);
#204=ORIENTED_EDGE('',*,*,#170,.T.);
#205=ORIENTED_EDGE('',*,*,#171,.T.);
#206=ORIENTED_EDGE('',*,*,#170,.F.);
#207=ORIENTED_EDGE('',*,*,#171,.F.);
#208=ORIENTED_EDGE('',*,*,#172,.T.);
#209=ORIENTED_EDGE('',*,*,#173,.T.);
#210=ORIENTED_EDGE('',*,*,#172,.F.);
#211=ORIENTED_EDGE('',*,*,#169,.F.);
#212=ORIENTED_EDGE('',*,*,#174,.T.);
#213=ORIENTED_EDGE('',*,*,#175,.T.);
#214=ORIENTED_EDGE('',*,*,#176,.T.);
#215=ORIENTED_EDGE('',*,*,#177,.T.);
#216=ORIENTED_EDGE('',*,*,#178,.T.);
#217=ORIENTED_EDGE('',*,*,#179,.T.);
#218=ORIENTED_EDGE('',*,*,#180,.T.);
#219=ORIENTED_EDGE('',*,*,#180,.F.);
#220=ORIENTED_EDGE('',*,*,#181,.T.);
#221=ORIENTED_EDGE('',*,*,#182,.T.);
#222=ORIENTED_EDGE('',*,*,#181,.F.);
#223=ORIENTED_EDGE('',*,*,#182,.F.);
#224=ORIENTED_EDGE('',*,*,#179,.F.);
#225=ORIENTED_EDGE('',*,*,#183,.T.);
#226=ORIENTED_EDGE('',*,*,#184,.T.);
#227=ORIENTED_EDGE('',*,*,#183,.F.);
#228=ORIENTED_EDGE('',*,*,#184,.F.);
#229=ORIENTED_EDGE('',*,*,#178,.F.);
#230=ORIENTED_EDGE('',*,*,#185,.T.);
#231=ORIENTED_EDGE('',*,*,#186,.T.);
#232=ORIENTED_EDGE('',*,*,#185,.F.);
#233=ORIENTED_EDGE('',*,*,#186,.F.);
#234=ORIENTED_EDGE('',*,*,#177,.F.);
#235=ORIENTED_EDGE('',*,*,#187,.T.);
#236=ORIENTED_EDGE('',*,*,#188,.T.);
#237=ORIENTED_EDGE('',*,*,#187,.F.);
#238=ORIENTED_EDGE('',*,*,#188,.F.);
#239=ORIENTED_EDGE('',*,*,#176,.F.);
#240=ORIENTED_EDGE('',*,*,#189,.T.);
#241=ORIENTED_EDGE('',*,*,#190,.T.);
#242=ORIENTED_EDGE('',*,*,#189,.F.);
#243=ORIENTED_EDGE('',*,*,#190,.F.);
#244=ORIENTED_EDGE('',*,*,#175,.F.);
#245=ORIENTED_EDGE('',*,*,#191,.T.);
#246=ORIENTED_EDGE('',*,*,#192,.T.);
#247=ORIENTED_EDGE('',*,*,#191,.F.);
#248=ORIENTED_EDGE('',*,*,#192,.F.);
#249=ORIENTED_EDGE('',*,*,#193,.F.);
#250=ORIENTED_EDGE('',*,*,#194,.T.);
#251=ORIENTED_EDGE('',*,*,#174,.F.);
#252=ORIENTED_EDGE('',*,*,#194,.F.);
#253=ORIENTED_EDGE('',*,*,#193,.T.);
#254=ORIENTED_EDGE('',*,*,#195,.F.);
#255=ORIENTED_EDGE('',*,*,#173,.F.);
#256=ORIENTED_EDGE('',*,*,#196,.T.);
#257=ORIENTED_EDGE('',*,*,#197,.T.);
#258=ORIENTED_EDGE('',*,*,#198,.T.);
#259=ORIENTED_EDGE('',*,*,#197,.F.);
#260=ORIENTED_EDGE('',*,*,#198,.F.);
#261=ORIENTED_EDGE('',*,*,#199,.T.);
#262=ORIENTED_EDGE('',*,*,#195,.T.);
#263=ORIENTED_EDGE('',*,*,#199,.F.);
#264=ORIENTED_EDGE('',*,*,#196,.F.);
#265=ORIENTED_EDGE('',*,*,#200,.F.);
#266=ORIENTED_EDGE('',*,*,#201,.T.);
#267=ORIENTED_EDGE('',*,*,#202,.T.);
#268=ORIENTED_EDGE('',*,*,#201,.F.);
#269=ORIENTED_EDGE('',*,*,#200,.T.);
#270=ORIENTED_EDGE('',*,*,#202,.F.);
#271=TOROIDAL_SURFACE('',#312,4.5,0.5);
#272=TOROIDAL_SURFACE('',#349,0.4,0.1);
#273=ADVANCED_FACE('',(#67),#271,.T.);
#274=ADVANCED_FACE('',(#68),#57,.T.);
#275=ADVANCED_FACE('',(#69,#17,#18,#19,#20,#21,#22,#23),#25,.T.);
#276=ADVANCED_FACE('',(#70),#58,.F.);
#277=ADVANCED_FACE('',(#71),#26,.T.);
#278=ADVANCED_FACE('',(#72),#59,.F.);
#279=ADVANCED_FACE('',(#73),#27,.T.);
#280=ADVANCED_FACE('',(#74),#60,.F.);
#281=ADVANCED_FACE('',(#75),#28,.T.);
#282=ADVANCED_FACE('',(#76),#61,.F.);
#283=ADVANCED_FACE('',(#77),#29,.T.);
#284=ADVANCED_FACE('',(#78),#62,.F.);
#285=ADVANCED_FACE('',(#79),#30,.T.);
#286=ADVANCED_FACE('',(#80),#63,.F.);
#287=ADVANCED_FACE('',(#81),#31,.T.);
#288=ADVANCED_FACE('',(#82),#64,.T.);
#289=ADVANCED_FACE('',(#83,#24),#32,.T.);
#290=ADVANCED_FACE('',(#84),#33,.F.);
#291=ADVANCED_FACE('',(#85),#272,.T.);
#292=ADVANCED_FACE('',(#86),#65,.T.);
#293=ADVANCED_FACE('',(#87),#34,.T.);
#294=ADVANCED_FACE('',(#88),#66,.T.);
#295=ADVANCED_FACE('',(#89),#35,.T.);
#296=ADVANCED_FACE('',(#90),#36,.F.);
#297=CLOSED_SHELL('',(#273,#274,#275,#276,#277,#278,#279,#280,#281,#282,
#283,#284,#285,#286,#287,#288,#289,#290,#291,#292,#293));
#298=CLOSED_SHELL('',(#294,#295,#296));
#299=DERIVED_UNIT_ELEMENT(#301,1.);
#300=DERIVED_UNIT_ELEMENT(#554,-3.);
#301=(
MASS_UNIT()
NAMED_UNIT(*)
SI_UNIT(.KILO.,.GRAM.)
);
#302=DERIVED_UNIT((#299,#300));
#303=MEASURE_REPRESENTATION_ITEM('density measure',
POSITIVE_RATIO_MEASURE(7850.),#302);
#304=PROPERTY_DEFINITION_REPRESENTATION(#309,#306);
#305=PROPERTY_DEFINITION_REPRESENTATION(#310,#307);
#306=REPRESENTATION('material name',(#308),#551);
#307=REPRESENTATION('density',(#303),#551);
#308=DESCRIPTIVE_REPRESENTATION_ITEM('\X2\AC15CCA0\X0\','\X2\AC15CCA0\X0\');
#309=PROPERTY_DEFINITION('material property','material name',#561);
#310=PROPERTY_DEFINITION('material property','density of part',#561);
#311=AXIS2_PLACEMENT_3D('placement',#468,#360,#361);
#312=AXIS2_PLACEMENT_3D('',#469,#362,#363);
#313=AXIS2_PLACEMENT_3D('',#471,#364,#365);
#314=AXIS2_PLACEMENT_3D('',#473,#366,#367);
#315=AXIS2_PLACEMENT_3D('',#474,#368,#369);
#316=AXIS2_PLACEMENT_3D('',#475,#370,#371);
#317=AXIS2_PLACEMENT_3D('',#478,#373,#374);
#318=AXIS2_PLACEMENT_3D('',#479,#375,#376);
#319=AXIS2_PLACEMENT_3D('',#481,#377,#378);
#320=AXIS2_PLACEMENT_3D('',#483,#379,#380);
#321=AXIS2_PLACEMENT_3D('',#485,#381,#382);
#322=AXIS2_PLACEMENT_3D('',#487,#383,#384);
#323=AXIS2_PLACEMENT_3D('',#489,#385,#386);
#324=AXIS2_PLACEMENT_3D('',#491,#387,#388);
#325=AXIS2_PLACEMENT_3D('',#493,#389,#390);
#326=AXIS2_PLACEMENT_3D('',#494,#391,#392);
#327=AXIS2_PLACEMENT_3D('',#497,#394,#395);
#328=AXIS2_PLACEMENT_3D('',#498,#396,#397);
#329=AXIS2_PLACEMENT_3D('',#499,#398,#399);
#330=AXIS2_PLACEMENT_3D('',#502,#401,#402);
#331=AXIS2_PLACEMENT_3D('',#503,#403,#404);
#332=AXIS2_PLACEMENT_3D('',#504,#405,#406);
#333=AXIS2_PLACEMENT_3D('',#507,#408,#409);
#334=AXIS2_PLACEMENT_3D('',#508,#410,#411);
#335=AXIS2_PLACEMENT_3D('',#509,#412,#413);
#336=AXIS2_PLACEMENT_3D('',#512,#415,#416);
#337=AXIS2_PLACEMENT_3D('',#513,#417,#418);
#338=AXIS2_PLACEMENT_3D('',#514,#419,#420);
#339=AXIS2_PLACEMENT_3D('',#517,#422,#423);
#340=AXIS2_PLACEMENT_3D('',#518,#424,#425);
#341=AXIS2_PLACEMENT_3D('',#519,#426,#427);
#342=AXIS2_PLACEMENT_3D('',#522,#429,#430);
#343=AXIS2_PLACEMENT_3D('',#523,#431,#432);
#344=AXIS2_PLACEMENT_3D('',#524,#433,#434);
#345=AXIS2_PLACEMENT_3D('',#526,#435,#436);
#346=AXIS2_PLACEMENT_3D('',#528,#438,#439);
#347=AXIS2_PLACEMENT_3D('',#530,#440,#441);
#348=AXIS2_PLACEMENT_3D('',#531,#442,#443);
#349=AXIS2_PLACEMENT_3D('',#532,#444,#445);
#350=AXIS2_PLACEMENT_3D('',#534,#446,#447);
#351=AXIS2_PLACEMENT_3D('',#536,#448,#449);
#352=AXIS2_PLACEMENT_3D('',#537,#450,#451);
#353=AXIS2_PLACEMENT_3D('',#538,#452,#453);
#354=AXIS2_PLACEMENT_3D('',#540,#455,#456);
#355=AXIS2_PLACEMENT_3D('',#541,#457,#458);
#356=AXIS2_PLACEMENT_3D('',#543,#459,#460);
#357=AXIS2_PLACEMENT_3D('',#546,#462,#463);
#358=AXIS2_PLACEMENT_3D('',#547,#464,#465);
#359=AXIS2_PLACEMENT_3D('',#548,#466,#467);
#360=DIRECTION('axis',(0.,0.,1.));
#361=DIRECTION('refdir',(1.,0.,0.));
#362=DIRECTION('center_axis',(0.,0.,1.));
#363=DIRECTION('ref_axis',(1.,0.,0.));
#364=DIRECTION('center_axis',(0.,0.,-1.));
#365=DIRECTION('ref_axis',(1.,0.,0.));
#366=DIRECTION('center_axis',(1.22464679914735E-16,-1.,0.));
#367=DIRECTION('ref_axis',(-1.,-1.22464679914735E-16,0.));
#368=DIRECTION('center_axis',(0.,0.,1.));
#369=DIRECTION('ref_axis',(1.,0.,0.));
#370=DIRECTION('center_axis',(0.,0.,1.));
#371=DIRECTION('ref_axis',(1.,0.,0.));
#372=DIRECTION('',(0.,0.,-1.));
#373=DIRECTION('center_axis',(0.,0.,1.));
#374=DIRECTION('ref_axis',(1.,0.,0.));
#375=DIRECTION('center_axis',(0.,0.,1.));
#376=DIRECTION('ref_axis',(1.,0.,0.));
#377=DIRECTION('center_axis',(0.,0.,-1.));
#378=DIRECTION('ref_axis',(1.,0.,0.));
#379=DIRECTION('center_axis',(0.,0.,-1.));
#380=DIRECTION('ref_axis',(1.,0.,0.));
#381=DIRECTION('center_axis',(0.,0.,-1.));
#382=DIRECTION('ref_axis',(1.,0.,0.));
#383=DIRECTION('center_axis',(0.,0.,-1.));
#384=DIRECTION('ref_axis',(-1.,0.,0.));
#385=DIRECTION('center_axis',(0.,0.,-1.));
#386=DIRECTION('ref_axis',(1.,0.,0.));
#387=DIRECTION('center_axis',(0.,0.,-1.));
#388=DIRECTION('ref_axis',(0.5,0.866025403784438,0.));
#389=DIRECTION('center_axis',(0.,0.,-1.));
#390=DIRECTION('ref_axis',(-0.499999999999999,0.866025403784439,0.));
#391=DIRECTION('center_axis',(0.,0.,-1.));
#392=DIRECTION('ref_axis',(-0.499999999999999,0.866025403784439,0.));
#393=DIRECTION('',(0.,0.,-1.));
#394=DIRECTION('center_axis',(0.,0.,-1.));
#395=DIRECTION('ref_axis',(-0.499999999999999,0.866025403784439,0.));
#396=DIRECTION('center_axis',(0.,0.,1.));
#397=DIRECTION('ref_axis',(1.,0.,0.));
#398=DIRECTION('center_axis',(0.,0.,-1.));
#399=DIRECTION('ref_axis',(0.5,0.866025403784438,0.));
#400=DIRECTION('',(0.,0.,-1.));
#401=DIRECTION('center_axis',(0.,0.,-1.));
#402=DIRECTION('ref_axis',(0.5,0.866025403784438,0.));
#403=DIRECTION('center_axis',(0.,0.,1.));
#404=DIRECTION('ref_axis',(1.,0.,0.));
#405=DIRECTION('center_axis',(0.,0.,-1.));
#406=DIRECTION('ref_axis',(1.,0.,0.));
#407=DIRECTION('',(0.,0.,-1.));
#408=DIRECTION('center_axis',(0.,0.,-1.));
#409=DIRECTION('ref_axis',(1.,0.,0.));
#410=DIRECTION('center_axis',(0.,0.,1.));
#411=DIRECTION('ref_axis',(1.,0.,0.));
#412=DIRECTION('center_axis',(0.,0.,-1.));
#413=DIRECTION('ref_axis',(-1.,0.,0.));
#414=DIRECTION('',(0.,0.,-1.));
#415=DIRECTION('center_axis',(0.,0.,-1.));
#416=DIRECTION('ref_axis',(-1.,0.,0.));
#417=DIRECTION('center_axis',(0.,0.,1.));
#418=DIRECTION('ref_axis',(1.,0.,0.));
#419=DIRECTION('center_axis',(0.,0.,-1.));
#420=DIRECTION('ref_axis',(1.,0.,0.));
#421=DIRECTION('',(0.,0.,-1.));
#422=DIRECTION('center_axis',(0.,0.,-1.));
#423=DIRECTION('ref_axis',(1.,0.,0.));
#424=DIRECTION('center_axis',(0.,0.,1.));
#425=DIRECTION('ref_axis',(1.,0.,0.));
#426=DIRECTION('center_axis',(0.,0.,-1.));
#427=DIRECTION('ref_axis',(1.,0.,0.));
#428=DIRECTION('',(0.,0.,-1.));
#429=DIRECTION('center_axis',(0.,0.,-1.));
#430=DIRECTION('ref_axis',(1.,0.,0.));
#431=DIRECTION('center_axis',(0.,0.,1.));
#432=DIRECTION('ref_axis',(1.,0.,0.));
#433=DIRECTION('center_axis',(0.,0.,1.));
#434=DIRECTION('ref_axis',(1.,0.,0.));
#435=DIRECTION('center_axis',(0.,0.,1.));
#436=DIRECTION('ref_axis',(1.,0.,0.));
#437=DIRECTION('',(0.,0.,-1.));
#438=DIRECTION('center_axis',(0.,0.,1.));
#439=DIRECTION('ref_axis',(1.,0.,0.));
#440=DIRECTION('center_axis',(0.,0.,1.));
#441=DIRECTION('ref_axis',(1.,0.,0.));
#442=DIRECTION('center_axis',(0.,0.,1.));
#443=DIRECTION('ref_axis',(1.,0.,0.));
#444=DIRECTION('center_axis',(0.,0.,1.));
#445=DIRECTION('ref_axis',(1.,0.,0.));
#446=DIRECTION('center_axis',(0.,0.,-1.));
#447=DIRECTION('ref_axis',(1.,0.,0.));
#448=DIRECTION('center_axis',(1.22464679914735E-16,-1.,0.));
#449=DIRECTION('ref_axis',(-1.,-1.22464679914735E-16,0.));
#450=DIRECTION('center_axis',(0.,0.,1.));
#451=DIRECTION('ref_axis',(1.,0.,0.));
#452=DIRECTION('center_axis',(0.,0.,1.));
#453=DIRECTION('ref_axis',(1.,0.,0.));
#454=DIRECTION('',(0.,0.,-1.));
#455=DIRECTION('center_axis',(0.,0.,1.));
#456=DIRECTION('ref_axis',(1.,0.,0.));
#457=DIRECTION('center_axis',(0.,0.,-1.));
#458=DIRECTION('ref_axis',(-1.,0.,0.));
#459=DIRECTION('center_axis',(0.,0.,-1.));
#460=DIRECTION('ref_axis',(-1.,0.,0.));
#461=DIRECTION('',(0.,0.,1.));
#462=DIRECTION('center_axis',(0.,0.,-1.));
#463=DIRECTION('ref_axis',(-1.,0.,0.));
#464=DIRECTION('center_axis',(0.,0.,-1.));
#465=DIRECTION('ref_axis',(-1.,0.,0.));
#466=DIRECTION('center_axis',(0.,0.,-1.));
#467=DIRECTION('ref_axis',(-1.,0.,0.));
#468=CARTESIAN_POINT('',(0.,0.,0.));
#469=CARTESIAN_POINT('Origin',(0.,0.,19.5));
#470=CARTESIAN_POINT('',(-4.5,5.51091059616309E-16,20.));
#471=CARTESIAN_POINT('Origin',(0.,0.,20.));
#472=CARTESIAN_POINT('',(-5.,-6.12323399573677E-16,19.5));
#473=CARTESIAN_POINT('Origin',(-4.5,-5.51091059616309E-16,19.5));
#474=CARTESIAN_POINT('Origin',(0.,0.,19.5));
#475=CARTESIAN_POINT('Origin',(0.,0.,0.));
#476=CARTESIAN_POINT('',(-5.,-6.12323399573677E-16,1.));
#477=CARTESIAN_POINT('',(-5.,-6.12323399573677E-16,0.));
#478=CARTESIAN_POINT('Origin',(0.,0.,1.));
#479=CARTESIAN_POINT('Origin',(0.,0.,20.));
#480=CARTESIAN_POINT('',(-1.,-1.22464679914735E-16,20.));
#481=CARTESIAN_POINT('Origin',(0.,0.,20.));
#482=CARTESIAN_POINT('',(-3.3212409988257,1.61341229279592,20.));
#483=CARTESIAN_POINT('Origin',(-2.8212409988257,1.61341229279592,20.));
#484=CARTESIAN_POINT('',(-0.486635532926515,-3.2499725215792,20.));
#485=CARTESIAN_POINT('Origin',(0.0133644670734853,-3.2499725215792,20.));
#486=CARTESIAN_POINT('',(0.486635532926516,3.2499725215792,20.));
#487=CARTESIAN_POINT('Origin',(-0.0133644670734844,3.2499725215792,20.));
#488=CARTESIAN_POINT('',(-3.30787653175221,-1.63656022878327,20.));
#489=CARTESIAN_POINT('Origin',(-2.80787653175221,-1.63656022878327,20.));
#490=CARTESIAN_POINT('',(2.5712409988257,-2.04642499468814,20.));
#491=CARTESIAN_POINT('Origin',(2.8212409988257,-1.61341229279592,20.));
#492=CARTESIAN_POINT('',(3.05787653175221,1.20354752689106,20.));
#493=CARTESIAN_POINT('Origin',(2.80787653175221,1.63656022878328,20.));
#494=CARTESIAN_POINT('Origin',(2.80787653175221,1.63656022878328,20.));
#495=CARTESIAN_POINT('',(3.05787653175221,1.20354752689106,10.));
#496=CARTESIAN_POINT('',(3.05787653175221,1.20354752689106,20.));
#497=CARTESIAN_POINT('Origin',(2.80787653175221,1.63656022878328,10.));
#498=CARTESIAN_POINT('Origin',(2.80787653175221,1.63656022878328,10.));
#499=CARTESIAN_POINT('Origin',(2.8212409988257,-1.61341229279592,20.));
#500=CARTESIAN_POINT('',(2.5712409988257,-2.04642499468814,10.));
#501=CARTESIAN_POINT('',(2.5712409988257,-2.04642499468814,20.));
#502=CARTESIAN_POINT('Origin',(2.8212409988257,-1.61341229279592,10.));
#503=CARTESIAN_POINT('Origin',(2.8212409988257,-1.61341229279592,10.));
#504=CARTESIAN_POINT('Origin',(-2.80787653175221,-1.63656022878327,20.));
#505=CARTESIAN_POINT('',(-3.30787653175221,-1.63656022878327,10.));
#506=CARTESIAN_POINT('',(-3.30787653175221,-1.63656022878327,20.));
#507=CARTESIAN_POINT('Origin',(-2.80787653175221,-1.63656022878327,10.));
#508=CARTESIAN_POINT('Origin',(-2.80787653175221,-1.63656022878327,10.));
#509=CARTESIAN_POINT('Origin',(-0.0133644670734844,3.2499725215792,20.));
#510=CARTESIAN_POINT('',(0.486635532926516,3.2499725215792,10.));
#511=CARTESIAN_POINT('',(0.486635532926516,3.2499725215792,20.));
#512=CARTESIAN_POINT('Origin',(-0.0133644670734844,3.2499725215792,10.));
#513=CARTESIAN_POINT('Origin',(-0.0133644670734843,3.2499725215792,10.));
#514=CARTESIAN_POINT('Origin',(0.0133644670734853,-3.2499725215792,20.));
#515=CARTESIAN_POINT('',(-0.486635532926515,-3.2499725215792,10.));
#516=CARTESIAN_POINT('',(-0.486635532926515,-3.2499725215792,20.));
#517=CARTESIAN_POINT('Origin',(0.0133644670734853,-3.2499725215792,10.));
#518=CARTESIAN_POINT('Origin',(0.0133644670734853,-3.2499725215792,10.));
#519=CARTESIAN_POINT('Origin',(-2.8212409988257,1.61341229279592,20.));
#520=CARTESIAN_POINT('',(-3.3212409988257,1.61341229279592,10.));
#521=CARTESIAN_POINT('',(-3.3212409988257,1.61341229279592,20.));
#522=CARTESIAN_POINT('Origin',(-2.8212409988257,1.61341229279592,10.));
#523=CARTESIAN_POINT('Origin',(-2.8212409988257,1.61341229279592,10.));
#524=CARTESIAN_POINT('Origin',(0.,0.,20.));
#525=CARTESIAN_POINT('',(-1.,-1.22464679914735E-16,20.5));
#526=CARTESIAN_POINT('Origin',(0.,0.,20.5));
#527=CARTESIAN_POINT('',(-1.,-1.22464679914735E-16,20.));
#528=CARTESIAN_POINT('Origin',(0.,0.,20.5));
#529=CARTESIAN_POINT('',(-0.5,-6.12323399573676E-17,20.5));
#530=CARTESIAN_POINT('Origin',(0.,0.,20.5));
#531=CARTESIAN_POINT('Origin',(0.,0.,1.));
#532=CARTESIAN_POINT('Origin',(0.,0.,25.9));
#533=CARTESIAN_POINT('',(-0.4,4.89858719658941E-17,26.));
#534=CARTESIAN_POINT('Origin',(0.,0.,26.));
#535=CARTESIAN_POINT('',(-0.5,-6.12323399573677E-17,25.9));
#536=CARTESIAN_POINT('Origin',(-0.4,-4.89858719658941E-17,25.9));
#537=CARTESIAN_POINT('Origin',(0.,0.,25.9));
#538=CARTESIAN_POINT('Origin',(0.,0.,20.));
#539=CARTESIAN_POINT('',(-0.5,-6.12323399573677E-17,20.));
#540=CARTESIAN_POINT('Origin',(0.,0.,26.));
#541=CARTESIAN_POINT('Origin',(0.,0.,1.));
#542=CARTESIAN_POINT('',(5.,-6.12323399573677E-16,0.));
#543=CARTESIAN_POINT('Origin',(0.,0.,0.));
#544=CARTESIAN_POINT('',(5.,-6.12323399573677E-16,1.));
#545=CARTESIAN_POINT('',(5.,-6.12323399573677E-16,1.));
#546=CARTESIAN_POINT('Origin',(0.,0.,1.));
#547=CARTESIAN_POINT('Origin',(0.,0.,0.));
#548=CARTESIAN_POINT('Origin',(0.,0.,1.));
#549=UNCERTAINTY_MEASURE_WITH_UNIT(LENGTH_MEASURE(0.01),#553,
'DISTANCE_ACCURACY_VALUE',
'Maximum model space distance between geometric entities at asserted c
onnectivities');
#550=UNCERTAINTY_MEASURE_WITH_UNIT(LENGTH_MEASURE(0.01),#553,
'DISTANCE_ACCURACY_VALUE',
'Maximum model space distance between geometric entities at asserted c
onnectivities');
#551=(
GEOMETRIC_REPRESENTATION_CONTEXT(3)
GLOBAL_UNCERTAINTY_ASSIGNED_CONTEXT((#549))
GLOBAL_UNIT_ASSIGNED_CONTEXT((#553,#555,#556))
REPRESENTATION_CONTEXT('','3D')
);
#552=(
GEOMETRIC_REPRESENTATION_CONTEXT(3)
GLOBAL_UNCERTAINTY_ASSIGNED_CONTEXT((#550))
GLOBAL_UNIT_ASSIGNED_CONTEXT((#553,#555,#556))
REPRESENTATION_CONTEXT('','3D')
);
#553=(
LENGTH_UNIT()
NAMED_UNIT(*)
SI_UNIT(.MILLI.,.METRE.)
);
#554=(
LENGTH_UNIT()
NAMED_UNIT(*)
SI_UNIT($,.METRE.)
);
#555=(
NAMED_UNIT(*)
PLANE_ANGLE_UNIT()
SI_UNIT($,.RADIAN.)
);
#556=(
NAMED_UNIT(*)
SI_UNIT($,.STERADIAN.)
SOLID_ANGLE_UNIT()
);
#557=SHAPE_DEFINITION_REPRESENTATION(#558,#559);
#558=PRODUCT_DEFINITION_SHAPE('',$,#561);
#559=SHAPE_REPRESENTATION('',(#311),#551);
#560=PRODUCT_DEFINITION_CONTEXT('part definition',#565,'design');
#561=PRODUCT_DEFINITION('1020 Coreless Motor v3',
'1020 Coreless Motor v3 v2',#562,#560);
#562=PRODUCT_DEFINITION_FORMATION('',$,#567);
#563=PRODUCT_RELATED_PRODUCT_CATEGORY('1020 Coreless Motor v3 v2',
'1020 Coreless Motor v3 v2',(#567));
#564=APPLICATION_PROTOCOL_DEFINITION('international standard',
'automotive_design',2009,#565);
#565=APPLICATION_CONTEXT(
'Core Data for Automotive Mechanical Design Process');
#566=PRODUCT_CONTEXT('part definition',#565,'mechanical');
#567=PRODUCT('1020 Coreless Motor v3','1020 Coreless Motor v3 v2',$,(#566));
#568=PRESENTATION_STYLE_ASSIGNMENT((#571));
#569=PRESENTATION_STYLE_ASSIGNMENT((#572));
#570=PRESENTATION_STYLE_ASSIGNMENT((#573));
#571=SURFACE_STYLE_USAGE(.BOTH.,#574);
#572=SURFACE_STYLE_USAGE(.BOTH.,#575);
#573=SURFACE_STYLE_USAGE(.BOTH.,#576);
#574=SURFACE_SIDE_STYLE('',(#577));
#575=SURFACE_SIDE_STYLE('',(#578));
#576=SURFACE_SIDE_STYLE('',(#579));
#577=SURFACE_STYLE_FILL_AREA(#580);
#578=SURFACE_STYLE_FILL_AREA(#581);
#579=SURFACE_STYLE_FILL_AREA(#582);
#580=FILL_AREA_STYLE('\X2\AC15CCA0\X0\ - \X2\C0C8D2F4\X0\',(#583));
#581=FILL_AREA_STYLE('Chrome',(#584));
#582=FILL_AREA_STYLE('\X2\D398C778D2B8\X0\ - \X2\C5D0B098BA5C\X0\ \X2\AD11D0DD\X0\(
\X2\D770C0C9\X0\)',(#585));
#583=FILL_AREA_STYLE_COLOUR('\X2\AC15CCA0\X0\ - \X2\C0C8D2F4\X0\',#586);
#584=FILL_AREA_STYLE_COLOUR('Chrome',#587);
#585=FILL_AREA_STYLE_COLOUR('\X2\D398C778D2B8\X0\ - \X2\C5D0B098BA5C\X0\ 
\X2\AD11D0DD\X0\(\X2\D770C0C9\X0\)',#588);
#586=COLOUR_RGB('\X2\AC15CCA0\X0\ - \X2\C0C8D2F4\X0\',0.627450980392157,
0.627450980392157,0.627450980392157);
#587=COLOUR_RGB('Chrome',0.768627450980392,0.772549019607843,0.768627450980392);
#588=COLOUR_RGB('\X2\D398C778D2B8\X0\ - \X2\C5D0B098BA5C\X0\ \X2\AD11D0DD\X0\(
\X2\D770C0C9\X0\)',0.964705882352941,0.964705882352941,0.952941176470588);
ENDSEC;
END-ISO-10303-21;
