ISO-10303-21;
HEADER;
/* Generated by software containing ST-Developer
 * from STEP Tools, Inc. (www.steptools.com) 
 */

FILE_DESCRIPTION(
/* description */ (''),
/* implementation_level */ '2;1');

FILE_NAME(
/* name */ 'H:/Downloads/KP08 Pillow Block Bearing v7.step',
/* time_stamp */ '2021-02-03T10:46:52-05:00',
/* author */ (''),
/* organization */ (''),
/* preprocessor_version */ 'ST-DEVELOPER v18.1',
/* originating_system */ 'Autodesk Translation Framework v9.7.1.1290',
/* authorisation */ '');

FILE_SCHEMA (('AUTOMOTIVE_DESIGN { 1 0 10303 214 3 1 1 }'));
ENDSEC;

DATA;
#10=MECHANICAL_DESIGN_GEOMETRIC_PRESENTATION_REPRESENTATION('',(#21,#22,
#23,#24,#25),#1420);
#11=ITEM_DEFINED_TRANSFORMATION($,$,#844,#932);
#12=(
REPRESENTATION_RELATIONSHIP($,$,#1431,#1430)
REPRESENTATION_RELATIONSHIP_WITH_TRANSFORMATION(#11)
SHAPE_REPRESENTATION_RELATIONSHIP()
);
#13=CONTEXT_DEPENDENT_SHAPE_REPRESENTATION(#12,#1429);
#14=NEXT_ASSEMBLY_USAGE_OCCURRENCE('KP08 Pillow Block Bearing:1',
'KP08 Pillow Block Bearing:1','KP08 Pillow Block Bearing:1',#1433,#1434,
'KP08 Pillow Block Bearing:1');
#15=SHAPE_REPRESENTATION_RELATIONSHIP('SRR','None',#1431,#16);
#16=ADVANCED_BREP_SHAPE_REPRESENTATION('',(#17,#18,#19,#20),#1419);
#17=MANIFOLD_SOLID_BREP('Body1',#827);
#18=MANIFOLD_SOLID_BREP('Body3',#828);
#19=MANIFOLD_SOLID_BREP('Body6',#829);
#20=MANIFOLD_SOLID_BREP('Body5',#830);
#21=STYLED_ITEM('',(#1446),#797);
#22=STYLED_ITEM('',(#1445),#17);
#23=STYLED_ITEM('',(#1447),#18);
#24=STYLED_ITEM('',(#1446),#19);
#25=STYLED_ITEM('',(#1447),#20);
#26=ELLIPSE('',#876,2.03745786898803,2.);
#27=ELLIPSE('',#877,2.03745786898803,2.);
#28=ELLIPSE('',#880,2.03745786898803,2.);
#29=ELLIPSE('',#881,2.03745786898803,2.);
#30=FACE_BOUND('',#128,.T.);
#31=FACE_BOUND('',#134,.T.);
#32=FACE_BOUND('',#137,.T.);
#33=FACE_BOUND('',#146,.T.);
#34=FACE_BOUND('',#148,.T.);
#35=FACE_BOUND('',#156,.T.);
#36=FACE_BOUND('',#158,.T.);
#37=FACE_BOUND('',#160,.T.);
#38=FACE_BOUND('',#171,.T.);
#39=FACE_BOUND('',#173,.T.);
#40=FACE_BOUND('',#177,.T.);
#41=FACE_BOUND('',#179,.T.);
#42=FACE_BOUND('',#182,.T.);
#43=FACE_BOUND('',#184,.T.);
#44=PLANE('',#857);
#45=PLANE('',#868);
#46=PLANE('',#869);
#47=PLANE('',#873);
#48=PLANE('',#874);
#49=PLANE('',#878);
#50=PLANE('',#882);
#51=PLANE('',#889);
#52=PLANE('',#890);
#53=PLANE('',#893);
#54=PLANE('',#894);
#55=PLANE('',#895);
#56=PLANE('',#896);
#57=PLANE('',#897);
#58=PLANE('',#898);
#59=PLANE('',#899);
#60=PLANE('',#900);
#61=PLANE('',#901);
#62=PLANE('',#902);
#63=PLANE('',#903);
#64=PLANE('',#904);
#65=PLANE('',#905);
#66=PLANE('',#906);
#67=PLANE('',#907);
#68=PLANE('',#914);
#69=PLANE('',#915);
#70=PLANE('',#922);
#71=PLANE('',#923);
#72=PLANE('',#927);
#73=PLANE('',#929);
#74=FACE_OUTER_BOUND('',#123,.T.);
#75=FACE_OUTER_BOUND('',#124,.T.);
#76=FACE_OUTER_BOUND('',#125,.T.);
#77=FACE_OUTER_BOUND('',#126,.T.);
#78=FACE_OUTER_BOUND('',#127,.T.);
#79=FACE_OUTER_BOUND('',#129,.T.);
#80=FACE_OUTER_BOUND('',#130,.T.);
#81=FACE_OUTER_BOUND('',#131,.T.);
#82=FACE_OUTER_BOUND('',#132,.T.);
#83=FACE_OUTER_BOUND('',#133,.T.);
#84=FACE_OUTER_BOUND('',#135,.T.);
#85=FACE_OUTER_BOUND('',#136,.T.);
#86=FACE_OUTER_BOUND('',#138,.T.);
#87=FACE_OUTER_BOUND('',#139,.T.);
#88=FACE_OUTER_BOUND('',#140,.T.);
#89=FACE_OUTER_BOUND('',#141,.T.);
#90=FACE_OUTER_BOUND('',#142,.T.);
#91=FACE_OUTER_BOUND('',#143,.T.);
#92=FACE_OUTER_BOUND('',#144,.T.);
#93=FACE_OUTER_BOUND('',#145,.T.);
#94=FACE_OUTER_BOUND('',#147,.T.);
#95=FACE_OUTER_BOUND('',#149,.T.);
#96=FACE_OUTER_BOUND('',#150,.T.);
#97=FACE_OUTER_BOUND('',#151,.T.);
#98=FACE_OUTER_BOUND('',#152,.T.);
#99=FACE_OUTER_BOUND('',#153,.T.);
#100=FACE_OUTER_BOUND('',#154,.T.);
#101=FACE_OUTER_BOUND('',#155,.T.);
#102=FACE_OUTER_BOUND('',#157,.T.);
#103=FACE_OUTER_BOUND('',#159,.T.);
#104=FACE_OUTER_BOUND('',#161,.T.);
#105=FACE_OUTER_BOUND('',#162,.T.);
#106=FACE_OUTER_BOUND('',#163,.T.);
#107=FACE_OUTER_BOUND('',#164,.T.);
#108=FACE_OUTER_BOUND('',#165,.T.);
#109=FACE_OUTER_BOUND('',#166,.T.);
#110=FACE_OUTER_BOUND('',#167,.T.);
#111=FACE_OUTER_BOUND('',#168,.T.);
#112=FACE_OUTER_BOUND('',#169,.T.);
#113=FACE_OUTER_BOUND('',#170,.T.);
#114=FACE_OUTER_BOUND('',#172,.T.);
#115=FACE_OUTER_BOUND('',#174,.T.);
#116=FACE_OUTER_BOUND('',#175,.T.);
#117=FACE_OUTER_BOUND('',#176,.T.);
#118=FACE_OUTER_BOUND('',#178,.T.);
#119=FACE_OUTER_BOUND('',#180,.T.);
#120=FACE_OUTER_BOUND('',#181,.T.);
#121=FACE_OUTER_BOUND('',#183,.T.);
#122=FACE_OUTER_BOUND('',#185,.T.);
#123=EDGE_LOOP('',(#541,#542,#543,#544));
#124=EDGE_LOOP('',(#545,#546,#547,#548));
#125=EDGE_LOOP('',(#549,#550,#551,#552));
#126=EDGE_LOOP('',(#553,#554,#555,#556));
#127=EDGE_LOOP('',(#557,#558,#559,#560,#561,#562,#563,#564,#565,#566));
#128=EDGE_LOOP('',(#567));
#129=EDGE_LOOP('',(#568,#569,#570,#571));
#130=EDGE_LOOP('',(#572,#573,#574,#575));
#131=EDGE_LOOP('',(#576,#577,#578,#579));
#132=EDGE_LOOP('',(#580,#581,#582,#583,#584,#585));
#133=EDGE_LOOP('',(#586,#587,#588,#589));
#134=EDGE_LOOP('',(#590));
#135=EDGE_LOOP('',(#591,#592,#593,#594));
#136=EDGE_LOOP('',(#595,#596,#597,#598));
#137=EDGE_LOOP('',(#599));
#138=EDGE_LOOP('',(#600,#601,#602,#603,#604,#605));
#139=EDGE_LOOP('',(#606,#607,#608,#609));
#140=EDGE_LOOP('',(#610,#611,#612,#613));
#141=EDGE_LOOP('',(#614,#615,#616,#617));
#142=EDGE_LOOP('',(#618,#619,#620,#621));
#143=EDGE_LOOP('',(#622,#623,#624,#625));
#144=EDGE_LOOP('',(#626,#627,#628,#629));
#145=EDGE_LOOP('',(#630));
#146=EDGE_LOOP('',(#631));
#147=EDGE_LOOP('',(#632,#633,#634,#635,#636,#637,#638,#639,#640,#641));
#148=EDGE_LOOP('',(#642));
#149=EDGE_LOOP('',(#643,#644,#645,#646));
#150=EDGE_LOOP('',(#647,#648,#649,#650,#651));
#151=EDGE_LOOP('',(#652,#653,#654,#655,#656));
#152=EDGE_LOOP('',(#657,#658,#659,#660,#661));
#153=EDGE_LOOP('',(#662,#663,#664,#665,#666));
#154=EDGE_LOOP('',(#667,#668,#669,#670));
#155=EDGE_LOOP('',(#671));
#156=EDGE_LOOP('',(#672));
#157=EDGE_LOOP('',(#673,#674,#675,#676));
#158=EDGE_LOOP('',(#677));
#159=EDGE_LOOP('',(#678,#679,#680,#681));
#160=EDGE_LOOP('',(#682));
#161=EDGE_LOOP('',(#683,#684,#685,#686,#687,#688));
#162=EDGE_LOOP('',(#689,#690,#691,#692));
#163=EDGE_LOOP('',(#693,#694,#695,#696,#697,#698,#699,#700));
#164=EDGE_LOOP('',(#701,#702,#703,#704));
#165=EDGE_LOOP('',(#705,#706,#707,#708,#709,#710,#711,#712));
#166=EDGE_LOOP('',(#713,#714,#715,#716));
#167=EDGE_LOOP('',(#717,#718,#719,#720,#721,#722));
#168=EDGE_LOOP('',(#723,#724,#725,#726));
#169=EDGE_LOOP('',(#727,#728,#729,#730));
#170=EDGE_LOOP('',(#731));
#171=EDGE_LOOP('',(#732));
#172=EDGE_LOOP('',(#733));
#173=EDGE_LOOP('',(#734));
#174=EDGE_LOOP('',(#735,#736,#737,#738));
#175=EDGE_LOOP('',(#739,#740,#741,#742));
#176=EDGE_LOOP('',(#743));
#177=EDGE_LOOP('',(#744));
#178=EDGE_LOOP('',(#745));
#179=EDGE_LOOP('',(#746));
#180=EDGE_LOOP('',(#747,#748,#749,#750));
#181=EDGE_LOOP('',(#751));
#182=EDGE_LOOP('',(#752));
#183=EDGE_LOOP('',(#753));
#184=EDGE_LOOP('',(#754));
#185=EDGE_LOOP('',(#755,#756,#757,#758));
#186=LINE('',#1190,#257);
#187=LINE('',#1196,#258);
#188=LINE('',#1203,#259);
#189=LINE('',#1206,#260);
#190=LINE('',#1211,#261);
#191=LINE('',#1215,#262);
#192=LINE('',#1221,#263);
#193=LINE('',#1223,#264);
#194=LINE('',#1225,#265);
#195=LINE('',#1227,#266);
#196=LINE('',#1228,#267);
#197=LINE('',#1235,#268);
#198=LINE('',#1236,#269);
#199=LINE('',#1240,#270);
#200=LINE('',#1246,#271);
#201=LINE('',#1249,#272);
#202=LINE('',#1252,#273);
#203=LINE('',#1254,#274);
#204=LINE('',#1256,#275);
#205=LINE('',#1258,#276);
#206=LINE('',#1259,#277);
#207=LINE('',#1262,#278);
#208=LINE('',#1263,#279);
#209=LINE('',#1269,#280);
#210=LINE('',#1272,#281);
#211=LINE('',#1275,#282);
#212=LINE('',#1277,#283);
#213=LINE('',#1278,#284);
#214=LINE('',#1281,#285);
#215=LINE('',#1283,#286);
#216=LINE('',#1285,#287);
#217=LINE('',#1286,#288);
#218=LINE('',#1292,#289);
#219=LINE('',#1294,#290);
#220=LINE('',#1295,#291);
#221=LINE('',#1301,#292);
#222=LINE('',#1303,#293);
#223=LINE('',#1304,#294);
#224=LINE('',#1309,#295);
#225=LINE('',#1315,#296);
#226=LINE('',#1320,#297);
#227=LINE('',#1322,#298);
#228=LINE('',#1324,#299);
#229=LINE('',#1326,#300);
#230=LINE('',#1327,#301);
#231=LINE('',#1328,#302);
#232=LINE('',#1332,#303);
#233=LINE('',#1335,#304);
#234=LINE('',#1336,#305);
#235=LINE('',#1338,#306);
#236=LINE('',#1341,#307);
#237=LINE('',#1342,#308);
#238=LINE('',#1344,#309);
#239=LINE('',#1346,#310);
#240=LINE('',#1347,#311);
#241=LINE('',#1351,#312);
#242=LINE('',#1353,#313);
#243=LINE('',#1354,#314);
#244=LINE('',#1357,#315);
#245=LINE('',#1359,#316);
#246=LINE('',#1360,#317);
#247=LINE('',#1362,#318);
#248=LINE('',#1363,#319);
#249=LINE('',#1368,#320);
#250=LINE('',#1370,#321);
#251=LINE('',#1376,#322);
#252=LINE('',#1382,#323);
#253=LINE('',#1390,#324);
#254=LINE('',#1396,#325);
#255=LINE('',#1404,#326);
#256=LINE('',#1413,#327);
#257=VECTOR('',#941,2.75);
#258=VECTOR('',#948,2.75);
#259=VECTOR('',#955,14.5);
#260=VECTOR('',#958,14.5);
#261=VECTOR('',#963,10.);
#262=VECTOR('',#968,10.);
#263=VECTOR('',#973,10.);
#264=VECTOR('',#974,10.);
#265=VECTOR('',#975,10.);
#266=VECTOR('',#976,10.);
#267=VECTOR('',#977,10.);
#268=VECTOR('',#984,14.5);
#269=VECTOR('',#985,14.5);
#270=VECTOR('',#990,10.);
#271=VECTOR('',#995,10.);
#272=VECTOR('',#998,10.);
#273=VECTOR('',#1001,10.);
#274=VECTOR('',#1002,10.);
#275=VECTOR('',#1003,10.);
#276=VECTOR('',#1004,10.);
#277=VECTOR('',#1005,10.);
#278=VECTOR('',#1008,10.);
#279=VECTOR('',#1009,10.);
#280=VECTOR('',#1014,10.);
#281=VECTOR('',#1017,10.);
#282=VECTOR('',#1020,10.);
#283=VECTOR('',#1021,10.);
#284=VECTOR('',#1022,10.);
#285=VECTOR('',#1025,10.);
#286=VECTOR('',#1026,10.);
#287=VECTOR('',#1027,10.);
#288=VECTOR('',#1028,10.);
#289=VECTOR('',#1035,10.);
#290=VECTOR('',#1038,10.);
#291=VECTOR('',#1039,10.);
#292=VECTOR('',#1046,10.);
#293=VECTOR('',#1049,10.);
#294=VECTOR('',#1050,10.);
#295=VECTOR('',#1055,6.);
#296=VECTOR('',#1062,9.5);
#297=VECTOR('',#1069,10.);
#298=VECTOR('',#1070,10.);
#299=VECTOR('',#1071,10.);
#300=VECTOR('',#1072,10.);
#301=VECTOR('',#1073,10.);
#302=VECTOR('',#1074,10.);
#303=VECTOR('',#1079,4.);
#304=VECTOR('',#1082,10.);
#305=VECTOR('',#1083,10.);
#306=VECTOR('',#1086,10.);
#307=VECTOR('',#1089,10.);
#308=VECTOR('',#1090,10.);
#309=VECTOR('',#1093,10.);
#310=VECTOR('',#1096,10.);
#311=VECTOR('',#1097,10.);
#312=VECTOR('',#1102,10.);
#313=VECTOR('',#1103,10.);
#314=VECTOR('',#1104,10.);
#315=VECTOR('',#1107,10.);
#316=VECTOR('',#1108,10.);
#317=VECTOR('',#1109,10.);
#318=VECTOR('',#1112,10.);
#319=VECTOR('',#1113,10.);
#320=VECTOR('',#1122,10.);
#321=VECTOR('',#1125,10.);
#322=VECTOR('',#1132,4.);
#323=VECTOR('',#1139,6.);
#324=VECTOR('',#1150,6.);
#325=VECTOR('',#1157,9.5);
#326=VECTOR('',#1168,10.5);
#327=VECTOR('',#1181,9.5);
#328=CIRCLE('',#846,2.75);
#329=CIRCLE('',#847,2.75);
#330=CIRCLE('',#849,2.75);
#331=CIRCLE('',#850,2.75);
#332=CIRCLE('',#852,14.5);
#333=CIRCLE('',#853,14.5);
#334=CIRCLE('',#855,2.);
#335=CIRCLE('',#856,2.);
#336=CIRCLE('',#858,14.5);
#337=CIRCLE('',#859,2.);
#338=CIRCLE('',#860,4.);
#339=CIRCLE('',#862,14.5);
#340=CIRCLE('',#864,2.);
#341=CIRCLE('',#866,2.);
#342=CIRCLE('',#867,2.);
#343=CIRCLE('',#871,2.);
#344=CIRCLE('',#872,2.);
#345=CIRCLE('',#884,6.);
#346=CIRCLE('',#885,6.);
#347=CIRCLE('',#887,9.5);
#348=CIRCLE('',#888,9.5);
#349=CIRCLE('',#892,4.);
#350=CIRCLE('',#909,4.);
#351=CIRCLE('',#910,4.);
#352=CIRCLE('',#912,6.);
#353=CIRCLE('',#913,6.);
#354=CIRCLE('',#917,6.);
#355=CIRCLE('',#918,6.);
#356=CIRCLE('',#920,9.5);
#357=CIRCLE('',#921,9.5);
#358=CIRCLE('',#925,10.5);
#359=CIRCLE('',#926,10.5);
#360=CIRCLE('',#928,9.5);
#361=CIRCLE('',#930,9.5);
#362=VERTEX_POINT('',#1187);
#363=VERTEX_POINT('',#1189);
#364=VERTEX_POINT('',#1193);
#365=VERTEX_POINT('',#1195);
#366=VERTEX_POINT('',#1199);
#367=VERTEX_POINT('',#1200);
#368=VERTEX_POINT('',#1202);
#369=VERTEX_POINT('',#1204);
#370=VERTEX_POINT('',#1208);
#371=VERTEX_POINT('',#1210);
#372=VERTEX_POINT('',#1214);
#373=VERTEX_POINT('',#1216);
#374=VERTEX_POINT('',#1218);
#375=VERTEX_POINT('',#1220);
#376=VERTEX_POINT('',#1222);
#377=VERTEX_POINT('',#1224);
#378=VERTEX_POINT('',#1226);
#379=VERTEX_POINT('',#1229);
#380=VERTEX_POINT('',#1232);
#381=VERTEX_POINT('',#1233);
#382=VERTEX_POINT('',#1238);
#383=VERTEX_POINT('',#1242);
#384=VERTEX_POINT('',#1243);
#385=VERTEX_POINT('',#1245);
#386=VERTEX_POINT('',#1247);
#387=VERTEX_POINT('',#1251);
#388=VERTEX_POINT('',#1253);
#389=VERTEX_POINT('',#1255);
#390=VERTEX_POINT('',#1257);
#391=VERTEX_POINT('',#1261);
#392=VERTEX_POINT('',#1265);
#393=VERTEX_POINT('',#1266);
#394=VERTEX_POINT('',#1268);
#395=VERTEX_POINT('',#1270);
#396=VERTEX_POINT('',#1274);
#397=VERTEX_POINT('',#1276);
#398=VERTEX_POINT('',#1280);
#399=VERTEX_POINT('',#1282);
#400=VERTEX_POINT('',#1284);
#401=VERTEX_POINT('',#1288);
#402=VERTEX_POINT('',#1290);
#403=VERTEX_POINT('',#1297);
#404=VERTEX_POINT('',#1299);
#405=VERTEX_POINT('',#1306);
#406=VERTEX_POINT('',#1308);
#407=VERTEX_POINT('',#1312);
#408=VERTEX_POINT('',#1314);
#409=VERTEX_POINT('',#1319);
#410=VERTEX_POINT('',#1321);
#411=VERTEX_POINT('',#1323);
#412=VERTEX_POINT('',#1325);
#413=VERTEX_POINT('',#1330);
#414=VERTEX_POINT('',#1334);
#415=VERTEX_POINT('',#1340);
#416=VERTEX_POINT('',#1350);
#417=VERTEX_POINT('',#1352);
#418=VERTEX_POINT('',#1356);
#419=VERTEX_POINT('',#1358);
#420=VERTEX_POINT('',#1373);
#421=VERTEX_POINT('',#1375);
#422=VERTEX_POINT('',#1379);
#423=VERTEX_POINT('',#1381);
#424=VERTEX_POINT('',#1387);
#425=VERTEX_POINT('',#1389);
#426=VERTEX_POINT('',#1393);
#427=VERTEX_POINT('',#1395);
#428=VERTEX_POINT('',#1401);
#429=VERTEX_POINT('',#1403);
#430=VERTEX_POINT('',#1407);
#431=VERTEX_POINT('',#1410);
#432=EDGE_CURVE('',#362,#362,#328,.T.);
#433=EDGE_CURVE('',#362,#363,#186,.T.);
#434=EDGE_CURVE('',#363,#363,#329,.T.);
#435=EDGE_CURVE('',#364,#364,#330,.T.);
#436=EDGE_CURVE('',#364,#365,#187,.T.);
#437=EDGE_CURVE('',#365,#365,#331,.T.);
#438=EDGE_CURVE('',#366,#367,#332,.T.);
#439=EDGE_CURVE('',#367,#368,#188,.T.);
#440=EDGE_CURVE('',#368,#369,#333,.T.);
#441=EDGE_CURVE('',#369,#366,#189,.T.);
#442=EDGE_CURVE('',#370,#367,#334,.F.);
#443=EDGE_CURVE('',#371,#370,#190,.T.);
#444=EDGE_CURVE('',#371,#368,#335,.T.);
#445=EDGE_CURVE('',#372,#366,#191,.T.);
#446=EDGE_CURVE('',#373,#372,#336,.T.);
#447=EDGE_CURVE('',#374,#373,#337,.T.);
#448=EDGE_CURVE('',#375,#374,#192,.T.);
#449=EDGE_CURVE('',#376,#375,#193,.T.);
#450=EDGE_CURVE('',#376,#377,#194,.T.);
#451=EDGE_CURVE('',#378,#377,#195,.T.);
#452=EDGE_CURVE('',#378,#370,#196,.T.);
#453=EDGE_CURVE('',#379,#379,#338,.T.);
#454=EDGE_CURVE('',#380,#381,#339,.T.);
#455=EDGE_CURVE('',#381,#373,#197,.T.);
#456=EDGE_CURVE('',#372,#380,#198,.T.);
#457=EDGE_CURVE('',#382,#381,#340,.F.);
#458=EDGE_CURVE('',#382,#374,#199,.T.);
#459=EDGE_CURVE('',#383,#384,#341,.T.);
#460=EDGE_CURVE('',#384,#385,#200,.T.);
#461=EDGE_CURVE('',#385,#386,#342,.T.);
#462=EDGE_CURVE('',#386,#383,#201,.T.);
#463=EDGE_CURVE('',#387,#385,#202,.T.);
#464=EDGE_CURVE('',#388,#387,#203,.T.);
#465=EDGE_CURVE('',#389,#388,#204,.T.);
#466=EDGE_CURVE('',#390,#389,#205,.T.);
#467=EDGE_CURVE('',#390,#386,#206,.T.);
#468=EDGE_CURVE('',#384,#391,#207,.T.);
#469=EDGE_CURVE('',#387,#391,#208,.T.);
#470=EDGE_CURVE('',#392,#393,#343,.T.);
#471=EDGE_CURVE('',#393,#394,#209,.T.);
#472=EDGE_CURVE('',#394,#395,#344,.T.);
#473=EDGE_CURVE('',#395,#392,#210,.T.);
#474=EDGE_CURVE('',#393,#396,#211,.T.);
#475=EDGE_CURVE('',#397,#396,#212,.T.);
#476=EDGE_CURVE('',#397,#394,#213,.T.);
#477=EDGE_CURVE('',#398,#392,#214,.T.);
#478=EDGE_CURVE('',#399,#398,#215,.T.);
#479=EDGE_CURVE('',#399,#400,#216,.T.);
#480=EDGE_CURVE('',#396,#400,#217,.T.);
#481=EDGE_CURVE('',#397,#401,#26,.F.);
#482=EDGE_CURVE('',#396,#402,#27,.T.);
#483=EDGE_CURVE('',#402,#401,#218,.T.);
#484=EDGE_CURVE('',#402,#371,#219,.T.);
#485=EDGE_CURVE('',#370,#401,#220,.T.);
#486=EDGE_CURVE('',#387,#403,#28,.F.);
#487=EDGE_CURVE('',#391,#404,#29,.T.);
#488=EDGE_CURVE('',#404,#403,#221,.T.);
#489=EDGE_CURVE('',#374,#404,#222,.T.);
#490=EDGE_CURVE('',#403,#382,#223,.T.);
#491=EDGE_CURVE('',#405,#405,#345,.T.);
#492=EDGE_CURVE('',#405,#406,#224,.T.);
#493=EDGE_CURVE('',#406,#406,#346,.T.);
#494=EDGE_CURVE('',#407,#407,#347,.T.);
#495=EDGE_CURVE('',#407,#408,#225,.T.);
#496=EDGE_CURVE('',#408,#408,#348,.T.);
#497=EDGE_CURVE('',#409,#371,#226,.T.);
#498=EDGE_CURVE('',#410,#409,#227,.T.);
#499=EDGE_CURVE('',#410,#411,#228,.T.);
#500=EDGE_CURVE('',#411,#412,#229,.T.);
#501=EDGE_CURVE('',#412,#382,#230,.T.);
#502=EDGE_CURVE('',#369,#380,#231,.T.);
#503=EDGE_CURVE('',#413,#413,#349,.T.);
#504=EDGE_CURVE('',#413,#379,#232,.T.);
#505=EDGE_CURVE('',#375,#414,#233,.T.);
#506=EDGE_CURVE('',#391,#414,#234,.T.);
#507=EDGE_CURVE('',#412,#388,#235,.T.);
#508=EDGE_CURVE('',#378,#415,#236,.T.);
#509=EDGE_CURVE('',#415,#397,#237,.T.);
#510=EDGE_CURVE('',#409,#400,#238,.T.);
#511=EDGE_CURVE('',#411,#376,#239,.T.);
#512=EDGE_CURVE('',#410,#377,#240,.T.);
#513=EDGE_CURVE('',#416,#389,#241,.T.);
#514=EDGE_CURVE('',#416,#417,#242,.T.);
#515=EDGE_CURVE('',#417,#390,#243,.T.);
#516=EDGE_CURVE('',#399,#418,#244,.T.);
#517=EDGE_CURVE('',#398,#419,#245,.T.);
#518=EDGE_CURVE('',#419,#418,#246,.T.);
#519=EDGE_CURVE('',#417,#383,#247,.T.);
#520=EDGE_CURVE('',#416,#414,#248,.T.);
#521=EDGE_CURVE('',#418,#415,#249,.T.);
#522=EDGE_CURVE('',#419,#395,#250,.T.);
#523=EDGE_CURVE('',#420,#420,#350,.T.);
#524=EDGE_CURVE('',#420,#421,#251,.T.);
#525=EDGE_CURVE('',#421,#421,#351,.T.);
#526=EDGE_CURVE('',#422,#422,#352,.T.);
#527=EDGE_CURVE('',#422,#423,#252,.T.);
#528=EDGE_CURVE('',#423,#423,#353,.T.);
#529=EDGE_CURVE('',#424,#424,#354,.T.);
#530=EDGE_CURVE('',#424,#425,#253,.T.);
#531=EDGE_CURVE('',#425,#425,#355,.T.);
#532=EDGE_CURVE('',#426,#426,#356,.T.);
#533=EDGE_CURVE('',#426,#427,#254,.T.);
#534=EDGE_CURVE('',#427,#427,#357,.T.);
#535=EDGE_CURVE('',#428,#428,#358,.T.);
#536=EDGE_CURVE('',#428,#429,#255,.T.);
#537=EDGE_CURVE('',#429,#429,#359,.T.);
#538=EDGE_CURVE('',#430,#430,#360,.T.);
#539=EDGE_CURVE('',#431,#431,#361,.T.);
#540=EDGE_CURVE('',#430,#431,#256,.T.);
#541=ORIENTED_EDGE('',*,*,#432,.F.);
#542=ORIENTED_EDGE('',*,*,#433,.T.);
#543=ORIENTED_EDGE('',*,*,#434,.F.);
#544=ORIENTED_EDGE('',*,*,#433,.F.);
#545=ORIENTED_EDGE('',*,*,#435,.F.);
#546=ORIENTED_EDGE('',*,*,#436,.T.);
#547=ORIENTED_EDGE('',*,*,#437,.F.);
#548=ORIENTED_EDGE('',*,*,#436,.F.);
#549=ORIENTED_EDGE('',*,*,#438,.T.);
#550=ORIENTED_EDGE('',*,*,#439,.T.);
#551=ORIENTED_EDGE('',*,*,#440,.T.);
#552=ORIENTED_EDGE('',*,*,#441,.T.);
#553=ORIENTED_EDGE('',*,*,#439,.F.);
#554=ORIENTED_EDGE('',*,*,#442,.F.);
#555=ORIENTED_EDGE('',*,*,#443,.F.);
#556=ORIENTED_EDGE('',*,*,#444,.T.);
#557=ORIENTED_EDGE('',*,*,#438,.F.);
#558=ORIENTED_EDGE('',*,*,#445,.F.);
#559=ORIENTED_EDGE('',*,*,#446,.F.);
#560=ORIENTED_EDGE('',*,*,#447,.F.);
#561=ORIENTED_EDGE('',*,*,#448,.F.);
#562=ORIENTED_EDGE('',*,*,#449,.F.);
#563=ORIENTED_EDGE('',*,*,#450,.T.);
#564=ORIENTED_EDGE('',*,*,#451,.F.);
#565=ORIENTED_EDGE('',*,*,#452,.T.);
#566=ORIENTED_EDGE('',*,*,#442,.T.);
#567=ORIENTED_EDGE('',*,*,#453,.T.);
#568=ORIENTED_EDGE('',*,*,#454,.T.);
#569=ORIENTED_EDGE('',*,*,#455,.T.);
#570=ORIENTED_EDGE('',*,*,#446,.T.);
#571=ORIENTED_EDGE('',*,*,#456,.T.);
#572=ORIENTED_EDGE('',*,*,#455,.F.);
#573=ORIENTED_EDGE('',*,*,#457,.F.);
#574=ORIENTED_EDGE('',*,*,#458,.T.);
#575=ORIENTED_EDGE('',*,*,#447,.T.);
#576=ORIENTED_EDGE('',*,*,#459,.T.);
#577=ORIENTED_EDGE('',*,*,#460,.T.);
#578=ORIENTED_EDGE('',*,*,#461,.T.);
#579=ORIENTED_EDGE('',*,*,#462,.T.);
#580=ORIENTED_EDGE('',*,*,#461,.F.);
#581=ORIENTED_EDGE('',*,*,#463,.F.);
#582=ORIENTED_EDGE('',*,*,#464,.F.);
#583=ORIENTED_EDGE('',*,*,#465,.F.);
#584=ORIENTED_EDGE('',*,*,#466,.F.);
#585=ORIENTED_EDGE('',*,*,#467,.T.);
#586=ORIENTED_EDGE('',*,*,#460,.F.);
#587=ORIENTED_EDGE('',*,*,#468,.T.);
#588=ORIENTED_EDGE('',*,*,#469,.F.);
#589=ORIENTED_EDGE('',*,*,#463,.T.);
#590=ORIENTED_EDGE('',*,*,#432,.T.);
#591=ORIENTED_EDGE('',*,*,#470,.T.);
#592=ORIENTED_EDGE('',*,*,#471,.T.);
#593=ORIENTED_EDGE('',*,*,#472,.T.);
#594=ORIENTED_EDGE('',*,*,#473,.T.);
#595=ORIENTED_EDGE('',*,*,#471,.F.);
#596=ORIENTED_EDGE('',*,*,#474,.T.);
#597=ORIENTED_EDGE('',*,*,#475,.F.);
#598=ORIENTED_EDGE('',*,*,#476,.T.);
#599=ORIENTED_EDGE('',*,*,#435,.T.);
#600=ORIENTED_EDGE('',*,*,#470,.F.);
#601=ORIENTED_EDGE('',*,*,#477,.F.);
#602=ORIENTED_EDGE('',*,*,#478,.F.);
#603=ORIENTED_EDGE('',*,*,#479,.T.);
#604=ORIENTED_EDGE('',*,*,#480,.F.);
#605=ORIENTED_EDGE('',*,*,#474,.F.);
#606=ORIENTED_EDGE('',*,*,#481,.F.);
#607=ORIENTED_EDGE('',*,*,#475,.T.);
#608=ORIENTED_EDGE('',*,*,#482,.T.);
#609=ORIENTED_EDGE('',*,*,#483,.T.);
#610=ORIENTED_EDGE('',*,*,#483,.F.);
#611=ORIENTED_EDGE('',*,*,#484,.T.);
#612=ORIENTED_EDGE('',*,*,#443,.T.);
#613=ORIENTED_EDGE('',*,*,#485,.T.);
#614=ORIENTED_EDGE('',*,*,#486,.F.);
#615=ORIENTED_EDGE('',*,*,#469,.T.);
#616=ORIENTED_EDGE('',*,*,#487,.T.);
#617=ORIENTED_EDGE('',*,*,#488,.T.);
#618=ORIENTED_EDGE('',*,*,#488,.F.);
#619=ORIENTED_EDGE('',*,*,#489,.F.);
#620=ORIENTED_EDGE('',*,*,#458,.F.);
#621=ORIENTED_EDGE('',*,*,#490,.F.);
#622=ORIENTED_EDGE('',*,*,#491,.F.);
#623=ORIENTED_EDGE('',*,*,#492,.T.);
#624=ORIENTED_EDGE('',*,*,#493,.T.);
#625=ORIENTED_EDGE('',*,*,#492,.F.);
#626=ORIENTED_EDGE('',*,*,#494,.F.);
#627=ORIENTED_EDGE('',*,*,#495,.T.);
#628=ORIENTED_EDGE('',*,*,#496,.T.);
#629=ORIENTED_EDGE('',*,*,#495,.F.);
#630=ORIENTED_EDGE('',*,*,#496,.F.);
#631=ORIENTED_EDGE('',*,*,#493,.F.);
#632=ORIENTED_EDGE('',*,*,#440,.F.);
#633=ORIENTED_EDGE('',*,*,#444,.F.);
#634=ORIENTED_EDGE('',*,*,#497,.F.);
#635=ORIENTED_EDGE('',*,*,#498,.F.);
#636=ORIENTED_EDGE('',*,*,#499,.T.);
#637=ORIENTED_EDGE('',*,*,#500,.T.);
#638=ORIENTED_EDGE('',*,*,#501,.T.);
#639=ORIENTED_EDGE('',*,*,#457,.T.);
#640=ORIENTED_EDGE('',*,*,#454,.F.);
#641=ORIENTED_EDGE('',*,*,#502,.F.);
#642=ORIENTED_EDGE('',*,*,#494,.T.);
#643=ORIENTED_EDGE('',*,*,#503,.F.);
#644=ORIENTED_EDGE('',*,*,#504,.T.);
#645=ORIENTED_EDGE('',*,*,#453,.F.);
#646=ORIENTED_EDGE('',*,*,#504,.F.);
#647=ORIENTED_EDGE('',*,*,#505,.F.);
#648=ORIENTED_EDGE('',*,*,#448,.T.);
#649=ORIENTED_EDGE('',*,*,#489,.T.);
#650=ORIENTED_EDGE('',*,*,#487,.F.);
#651=ORIENTED_EDGE('',*,*,#506,.T.);
#652=ORIENTED_EDGE('',*,*,#507,.T.);
#653=ORIENTED_EDGE('',*,*,#464,.T.);
#654=ORIENTED_EDGE('',*,*,#486,.T.);
#655=ORIENTED_EDGE('',*,*,#490,.T.);
#656=ORIENTED_EDGE('',*,*,#501,.F.);
#657=ORIENTED_EDGE('',*,*,#508,.T.);
#658=ORIENTED_EDGE('',*,*,#509,.T.);
#659=ORIENTED_EDGE('',*,*,#481,.T.);
#660=ORIENTED_EDGE('',*,*,#485,.F.);
#661=ORIENTED_EDGE('',*,*,#452,.F.);
#662=ORIENTED_EDGE('',*,*,#510,.F.);
#663=ORIENTED_EDGE('',*,*,#497,.T.);
#664=ORIENTED_EDGE('',*,*,#484,.F.);
#665=ORIENTED_EDGE('',*,*,#482,.F.);
#666=ORIENTED_EDGE('',*,*,#480,.T.);
#667=ORIENTED_EDGE('',*,*,#450,.F.);
#668=ORIENTED_EDGE('',*,*,#511,.F.);
#669=ORIENTED_EDGE('',*,*,#499,.F.);
#670=ORIENTED_EDGE('',*,*,#512,.T.);
#671=ORIENTED_EDGE('',*,*,#491,.T.);
#672=ORIENTED_EDGE('',*,*,#503,.T.);
#673=ORIENTED_EDGE('',*,*,#513,.F.);
#674=ORIENTED_EDGE('',*,*,#514,.T.);
#675=ORIENTED_EDGE('',*,*,#515,.T.);
#676=ORIENTED_EDGE('',*,*,#466,.T.);
#677=ORIENTED_EDGE('',*,*,#434,.T.);
#678=ORIENTED_EDGE('',*,*,#516,.F.);
#679=ORIENTED_EDGE('',*,*,#478,.T.);
#680=ORIENTED_EDGE('',*,*,#517,.T.);
#681=ORIENTED_EDGE('',*,*,#518,.T.);
#682=ORIENTED_EDGE('',*,*,#437,.T.);
#683=ORIENTED_EDGE('',*,*,#459,.F.);
#684=ORIENTED_EDGE('',*,*,#519,.F.);
#685=ORIENTED_EDGE('',*,*,#514,.F.);
#686=ORIENTED_EDGE('',*,*,#520,.T.);
#687=ORIENTED_EDGE('',*,*,#506,.F.);
#688=ORIENTED_EDGE('',*,*,#468,.F.);
#689=ORIENTED_EDGE('',*,*,#462,.F.);
#690=ORIENTED_EDGE('',*,*,#467,.F.);
#691=ORIENTED_EDGE('',*,*,#515,.F.);
#692=ORIENTED_EDGE('',*,*,#519,.T.);
#693=ORIENTED_EDGE('',*,*,#449,.T.);
#694=ORIENTED_EDGE('',*,*,#505,.T.);
#695=ORIENTED_EDGE('',*,*,#520,.F.);
#696=ORIENTED_EDGE('',*,*,#513,.T.);
#697=ORIENTED_EDGE('',*,*,#465,.T.);
#698=ORIENTED_EDGE('',*,*,#507,.F.);
#699=ORIENTED_EDGE('',*,*,#500,.F.);
#700=ORIENTED_EDGE('',*,*,#511,.T.);
#701=ORIENTED_EDGE('',*,*,#441,.F.);
#702=ORIENTED_EDGE('',*,*,#502,.T.);
#703=ORIENTED_EDGE('',*,*,#456,.F.);
#704=ORIENTED_EDGE('',*,*,#445,.T.);
#705=ORIENTED_EDGE('',*,*,#451,.T.);
#706=ORIENTED_EDGE('',*,*,#512,.F.);
#707=ORIENTED_EDGE('',*,*,#498,.T.);
#708=ORIENTED_EDGE('',*,*,#510,.T.);
#709=ORIENTED_EDGE('',*,*,#479,.F.);
#710=ORIENTED_EDGE('',*,*,#516,.T.);
#711=ORIENTED_EDGE('',*,*,#521,.T.);
#712=ORIENTED_EDGE('',*,*,#508,.F.);
#713=ORIENTED_EDGE('',*,*,#473,.F.);
#714=ORIENTED_EDGE('',*,*,#522,.F.);
#715=ORIENTED_EDGE('',*,*,#517,.F.);
#716=ORIENTED_EDGE('',*,*,#477,.T.);
#717=ORIENTED_EDGE('',*,*,#472,.F.);
#718=ORIENTED_EDGE('',*,*,#476,.F.);
#719=ORIENTED_EDGE('',*,*,#509,.F.);
#720=ORIENTED_EDGE('',*,*,#521,.F.);
#721=ORIENTED_EDGE('',*,*,#518,.F.);
#722=ORIENTED_EDGE('',*,*,#522,.T.);
#723=ORIENTED_EDGE('',*,*,#523,.F.);
#724=ORIENTED_EDGE('',*,*,#524,.T.);
#725=ORIENTED_EDGE('',*,*,#525,.F.);
#726=ORIENTED_EDGE('',*,*,#524,.F.);
#727=ORIENTED_EDGE('',*,*,#526,.F.);
#728=ORIENTED_EDGE('',*,*,#527,.T.);
#729=ORIENTED_EDGE('',*,*,#528,.F.);
#730=ORIENTED_EDGE('',*,*,#527,.F.);
#731=ORIENTED_EDGE('',*,*,#528,.T.);
#732=ORIENTED_EDGE('',*,*,#525,.T.);
#733=ORIENTED_EDGE('',*,*,#526,.T.);
#734=ORIENTED_EDGE('',*,*,#523,.T.);
#735=ORIENTED_EDGE('',*,*,#529,.F.);
#736=ORIENTED_EDGE('',*,*,#530,.T.);
#737=ORIENTED_EDGE('',*,*,#531,.F.);
#738=ORIENTED_EDGE('',*,*,#530,.F.);
#739=ORIENTED_EDGE('',*,*,#532,.F.);
#740=ORIENTED_EDGE('',*,*,#533,.T.);
#741=ORIENTED_EDGE('',*,*,#534,.F.);
#742=ORIENTED_EDGE('',*,*,#533,.F.);
#743=ORIENTED_EDGE('',*,*,#534,.T.);
#744=ORIENTED_EDGE('',*,*,#531,.T.);
#745=ORIENTED_EDGE('',*,*,#532,.T.);
#746=ORIENTED_EDGE('',*,*,#529,.T.);
#747=ORIENTED_EDGE('',*,*,#535,.T.);
#748=ORIENTED_EDGE('',*,*,#536,.T.);
#749=ORIENTED_EDGE('',*,*,#537,.T.);
#750=ORIENTED_EDGE('',*,*,#536,.F.);
#751=ORIENTED_EDGE('',*,*,#537,.F.);
#752=ORIENTED_EDGE('',*,*,#538,.T.);
#753=ORIENTED_EDGE('',*,*,#535,.F.);
#754=ORIENTED_EDGE('',*,*,#539,.F.);
#755=ORIENTED_EDGE('',*,*,#538,.F.);
#756=ORIENTED_EDGE('',*,*,#540,.T.);
#757=ORIENTED_EDGE('',*,*,#539,.T.);
#758=ORIENTED_EDGE('',*,*,#540,.F.);
#759=CYLINDRICAL_SURFACE('',#845,2.75);
#760=CYLINDRICAL_SURFACE('',#848,2.75);
#761=CYLINDRICAL_SURFACE('',#851,14.5);
#762=CYLINDRICAL_SURFACE('',#854,2.);
#763=CYLINDRICAL_SURFACE('',#861,14.5);
#764=CYLINDRICAL_SURFACE('',#863,2.);
#765=CYLINDRICAL_SURFACE('',#865,2.);
#766=CYLINDRICAL_SURFACE('',#870,2.);
#767=CYLINDRICAL_SURFACE('',#875,2.);
#768=CYLINDRICAL_SURFACE('',#879,2.);
#769=CYLINDRICAL_SURFACE('',#883,6.);
#770=CYLINDRICAL_SURFACE('',#886,9.5);
#771=CYLINDRICAL_SURFACE('',#891,4.);
#772=CYLINDRICAL_SURFACE('',#908,4.);
#773=CYLINDRICAL_SURFACE('',#911,6.);
#774=CYLINDRICAL_SURFACE('',#916,6.);
#775=CYLINDRICAL_SURFACE('',#919,9.5);
#776=CYLINDRICAL_SURFACE('',#924,10.5);
#777=CYLINDRICAL_SURFACE('',#931,9.5);
#778=ADVANCED_FACE('',(#74),#759,.F.);
#779=ADVANCED_FACE('',(#75),#760,.F.);
#780=ADVANCED_FACE('',(#76),#761,.T.);
#781=ADVANCED_FACE('',(#77),#762,.F.);
#782=ADVANCED_FACE('',(#78,#30),#44,.T.);
#783=ADVANCED_FACE('',(#79),#763,.T.);
#784=ADVANCED_FACE('',(#80),#764,.F.);
#785=ADVANCED_FACE('',(#81),#765,.T.);
#786=ADVANCED_FACE('',(#82),#45,.T.);
#787=ADVANCED_FACE('',(#83,#31),#46,.T.);
#788=ADVANCED_FACE('',(#84),#766,.T.);
#789=ADVANCED_FACE('',(#85,#32),#47,.T.);
#790=ADVANCED_FACE('',(#86),#48,.T.);
#791=ADVANCED_FACE('',(#87),#767,.F.);
#792=ADVANCED_FACE('',(#88),#49,.T.);
#793=ADVANCED_FACE('',(#89),#768,.F.);
#794=ADVANCED_FACE('',(#90),#50,.F.);
#795=ADVANCED_FACE('',(#91),#769,.T.);
#796=ADVANCED_FACE('',(#92),#770,.F.);
#797=ADVANCED_FACE('',(#93,#33),#51,.T.);
#798=ADVANCED_FACE('',(#94,#34),#52,.T.);
#799=ADVANCED_FACE('',(#95),#771,.F.);
#800=ADVANCED_FACE('',(#96),#53,.F.);
#801=ADVANCED_FACE('',(#97),#54,.F.);
#802=ADVANCED_FACE('',(#98),#55,.T.);
#803=ADVANCED_FACE('',(#99),#56,.T.);
#804=ADVANCED_FACE('',(#100),#57,.F.);
#805=ADVANCED_FACE('',(#101,#35),#58,.T.);
#806=ADVANCED_FACE('',(#102,#36),#59,.F.);
#807=ADVANCED_FACE('',(#103,#37),#60,.F.);
#808=ADVANCED_FACE('',(#104),#61,.T.);
#809=ADVANCED_FACE('',(#105),#62,.T.);
#810=ADVANCED_FACE('',(#106),#63,.T.);
#811=ADVANCED_FACE('',(#107),#64,.T.);
#812=ADVANCED_FACE('',(#108),#65,.T.);
#813=ADVANCED_FACE('',(#109),#66,.T.);
#814=ADVANCED_FACE('',(#110),#67,.T.);
#815=ADVANCED_FACE('',(#111),#772,.F.);
#816=ADVANCED_FACE('',(#112),#773,.T.);
#817=ADVANCED_FACE('',(#113,#38),#68,.T.);
#818=ADVANCED_FACE('',(#114,#39),#69,.F.);
#819=ADVANCED_FACE('',(#115),#774,.F.);
#820=ADVANCED_FACE('',(#116),#775,.T.);
#821=ADVANCED_FACE('',(#117,#40),#70,.T.);
#822=ADVANCED_FACE('',(#118,#41),#71,.F.);
#823=ADVANCED_FACE('',(#119),#776,.T.);
#824=ADVANCED_FACE('',(#120,#42),#72,.T.);
#825=ADVANCED_FACE('',(#121,#43),#73,.T.);
#826=ADVANCED_FACE('',(#122),#777,.F.);
#827=CLOSED_SHELL('',(#778,#779,#780,#781,#782,#783,#784,#785,#786,#787,
#788,#789,#790,#791,#792,#793,#794,#795,#796,#797,#798,#799,#800,#801,#802,
#803,#804,#805,#806,#807,#808,#809,#810,#811,#812,#813,#814));
#828=CLOSED_SHELL('',(#815,#816,#817,#818));
#829=CLOSED_SHELL('',(#819,#820,#821,#822));
#830=CLOSED_SHELL('',(#823,#824,#825,#826));
#831=DERIVED_UNIT_ELEMENT(#833,1.);
#832=DERIVED_UNIT_ELEMENT(#1422,-3.);
#833=(
MASS_UNIT()
NAMED_UNIT(*)
SI_UNIT(.KILO.,.GRAM.)
);
#834=DERIVED_UNIT((#831,#832));
#835=MEASURE_REPRESENTATION_ITEM('density measure',
POSITIVE_RATIO_MEASURE(1250.),#834);
#836=PROPERTY_DEFINITION_REPRESENTATION(#841,#838);
#837=PROPERTY_DEFINITION_REPRESENTATION(#842,#839);
#838=REPRESENTATION('material name',(#840),#1419);
#839=REPRESENTATION('density',(#835),#1419);
#840=DESCRIPTIVE_REPRESENTATION_ITEM('PLA','PLA');
#841=PROPERTY_DEFINITION('material property','material name',#1434);
#842=PROPERTY_DEFINITION('material property','density of part',#1434);
#843=AXIS2_PLACEMENT_3D('placement',#1184,#933,#934);
#844=AXIS2_PLACEMENT_3D('placement',#1185,#935,#936);
#845=AXIS2_PLACEMENT_3D('',#1186,#937,#938);
#846=AXIS2_PLACEMENT_3D('',#1188,#939,#940);
#847=AXIS2_PLACEMENT_3D('',#1191,#942,#943);
#848=AXIS2_PLACEMENT_3D('',#1192,#944,#945);
#849=AXIS2_PLACEMENT_3D('',#1194,#946,#947);
#850=AXIS2_PLACEMENT_3D('',#1197,#949,#950);
#851=AXIS2_PLACEMENT_3D('',#1198,#951,#952);
#852=AXIS2_PLACEMENT_3D('',#1201,#953,#954);
#853=AXIS2_PLACEMENT_3D('',#1205,#956,#957);
#854=AXIS2_PLACEMENT_3D('',#1207,#959,#960);
#855=AXIS2_PLACEMENT_3D('',#1209,#961,#962);
#856=AXIS2_PLACEMENT_3D('',#1212,#964,#965);
#857=AXIS2_PLACEMENT_3D('',#1213,#966,#967);
#858=AXIS2_PLACEMENT_3D('',#1217,#969,#970);
#859=AXIS2_PLACEMENT_3D('',#1219,#971,#972);
#860=AXIS2_PLACEMENT_3D('',#1230,#978,#979);
#861=AXIS2_PLACEMENT_3D('',#1231,#980,#981);
#862=AXIS2_PLACEMENT_3D('',#1234,#982,#983);
#863=AXIS2_PLACEMENT_3D('',#1237,#986,#987);
#864=AXIS2_PLACEMENT_3D('',#1239,#988,#989);
#865=AXIS2_PLACEMENT_3D('',#1241,#991,#992);
#866=AXIS2_PLACEMENT_3D('',#1244,#993,#994);
#867=AXIS2_PLACEMENT_3D('',#1248,#996,#997);
#868=AXIS2_PLACEMENT_3D('',#1250,#999,#1000);
#869=AXIS2_PLACEMENT_3D('',#1260,#1006,#1007);
#870=AXIS2_PLACEMENT_3D('',#1264,#1010,#1011);
#871=AXIS2_PLACEMENT_3D('',#1267,#1012,#1013);
#872=AXIS2_PLACEMENT_3D('',#1271,#1015,#1016);
#873=AXIS2_PLACEMENT_3D('',#1273,#1018,#1019);
#874=AXIS2_PLACEMENT_3D('',#1279,#1023,#1024);
#875=AXIS2_PLACEMENT_3D('',#1287,#1029,#1030);
#876=AXIS2_PLACEMENT_3D('',#1289,#1031,#1032);
#877=AXIS2_PLACEMENT_3D('',#1291,#1033,#1034);
#878=AXIS2_PLACEMENT_3D('',#1293,#1036,#1037);
#879=AXIS2_PLACEMENT_3D('',#1296,#1040,#1041);
#880=AXIS2_PLACEMENT_3D('',#1298,#1042,#1043);
#881=AXIS2_PLACEMENT_3D('',#1300,#1044,#1045);
#882=AXIS2_PLACEMENT_3D('',#1302,#1047,#1048);
#883=AXIS2_PLACEMENT_3D('',#1305,#1051,#1052);
#884=AXIS2_PLACEMENT_3D('',#1307,#1053,#1054);
#885=AXIS2_PLACEMENT_3D('',#1310,#1056,#1057);
#886=AXIS2_PLACEMENT_3D('',#1311,#1058,#1059);
#887=AXIS2_PLACEMENT_3D('',#1313,#1060,#1061);
#888=AXIS2_PLACEMENT_3D('',#1316,#1063,#1064);
#889=AXIS2_PLACEMENT_3D('',#1317,#1065,#1066);
#890=AXIS2_PLACEMENT_3D('',#1318,#1067,#1068);
#891=AXIS2_PLACEMENT_3D('',#1329,#1075,#1076);
#892=AXIS2_PLACEMENT_3D('',#1331,#1077,#1078);
#893=AXIS2_PLACEMENT_3D('',#1333,#1080,#1081);
#894=AXIS2_PLACEMENT_3D('',#1337,#1084,#1085);
#895=AXIS2_PLACEMENT_3D('',#1339,#1087,#1088);
#896=AXIS2_PLACEMENT_3D('',#1343,#1091,#1092);
#897=AXIS2_PLACEMENT_3D('',#1345,#1094,#1095);
#898=AXIS2_PLACEMENT_3D('',#1348,#1098,#1099);
#899=AXIS2_PLACEMENT_3D('',#1349,#1100,#1101);
#900=AXIS2_PLACEMENT_3D('',#1355,#1105,#1106);
#901=AXIS2_PLACEMENT_3D('',#1361,#1110,#1111);
#902=AXIS2_PLACEMENT_3D('',#1364,#1114,#1115);
#903=AXIS2_PLACEMENT_3D('',#1365,#1116,#1117);
#904=AXIS2_PLACEMENT_3D('',#1366,#1118,#1119);
#905=AXIS2_PLACEMENT_3D('',#1367,#1120,#1121);
#906=AXIS2_PLACEMENT_3D('',#1369,#1123,#1124);
#907=AXIS2_PLACEMENT_3D('',#1371,#1126,#1127);
#908=AXIS2_PLACEMENT_3D('',#1372,#1128,#1129);
#909=AXIS2_PLACEMENT_3D('',#1374,#1130,#1131);
#910=AXIS2_PLACEMENT_3D('',#1377,#1133,#1134);
#911=AXIS2_PLACEMENT_3D('',#1378,#1135,#1136);
#912=AXIS2_PLACEMENT_3D('',#1380,#1137,#1138);
#913=AXIS2_PLACEMENT_3D('',#1383,#1140,#1141);
#914=AXIS2_PLACEMENT_3D('',#1384,#1142,#1143);
#915=AXIS2_PLACEMENT_3D('',#1385,#1144,#1145);
#916=AXIS2_PLACEMENT_3D('',#1386,#1146,#1147);
#917=AXIS2_PLACEMENT_3D('',#1388,#1148,#1149);
#918=AXIS2_PLACEMENT_3D('',#1391,#1151,#1152);
#919=AXIS2_PLACEMENT_3D('',#1392,#1153,#1154);
#920=AXIS2_PLACEMENT_3D('',#1394,#1155,#1156);
#921=AXIS2_PLACEMENT_3D('',#1397,#1158,#1159);
#922=AXIS2_PLACEMENT_3D('',#1398,#1160,#1161);
#923=AXIS2_PLACEMENT_3D('',#1399,#1162,#1163);
#924=AXIS2_PLACEMENT_3D('',#1400,#1164,#1165);
#925=AXIS2_PLACEMENT_3D('',#1402,#1166,#1167);
#926=AXIS2_PLACEMENT_3D('',#1405,#1169,#1170);
#927=AXIS2_PLACEMENT_3D('',#1406,#1171,#1172);
#928=AXIS2_PLACEMENT_3D('',#1408,#1173,#1174);
#929=AXIS2_PLACEMENT_3D('',#1409,#1175,#1176);
#930=AXIS2_PLACEMENT_3D('',#1411,#1177,#1178);
#931=AXIS2_PLACEMENT_3D('',#1412,#1179,#1180);
#932=AXIS2_PLACEMENT_3D('',#1414,#1182,#1183);
#933=DIRECTION('axis',(0.,0.,1.));
#934=DIRECTION('refdir',(1.,0.,0.));
#935=DIRECTION('axis',(0.,0.,1.));
#936=DIRECTION('refdir',(1.,0.,0.));
#937=DIRECTION('center_axis',(0.,0.,-1.));
#938=DIRECTION('ref_axis',(1.,0.,0.));
#939=DIRECTION('center_axis',(0.,0.,-1.));
#940=DIRECTION('ref_axis',(1.,0.,0.));
#941=DIRECTION('',(0.,0.,-1.));
#942=DIRECTION('center_axis',(0.,0.,1.));
#943=DIRECTION('ref_axis',(1.,0.,0.));
#944=DIRECTION('center_axis',(0.,0.,-1.));
#945=DIRECTION('ref_axis',(1.,0.,0.));
#946=DIRECTION('center_axis',(0.,0.,-1.));
#947=DIRECTION('ref_axis',(1.,0.,0.));
#948=DIRECTION('',(0.,0.,-1.));
#949=DIRECTION('center_axis',(0.,0.,1.));
#950=DIRECTION('ref_axis',(1.,0.,0.));
#951=DIRECTION('center_axis',(0.,-1.,0.));
#952=DIRECTION('ref_axis',(0.,0.,-1.));
#953=DIRECTION('center_axis',(-7.65671051465625E-17,-1.,0.));
#954=DIRECTION('ref_axis',(0.,0.,-1.));
#955=DIRECTION('',(0.,-1.,0.));
#956=DIRECTION('center_axis',(0.,1.,0.));
#957=DIRECTION('ref_axis',(0.,0.,-1.));
#958=DIRECTION('',(0.,1.,0.));
#959=DIRECTION('center_axis',(0.,-1.,0.));
#960=DIRECTION('ref_axis',(0.499999999999999,0.,-0.866025403784439));
#961=DIRECTION('center_axis',(7.65671051465625E-17,1.,0.));
#962=DIRECTION('ref_axis',(0.499999999999999,0.,-0.866025403784439));
#963=DIRECTION('',(0.,1.,0.));
#964=DIRECTION('center_axis',(0.,-1.,0.));
#965=DIRECTION('ref_axis',(0.499999999999999,0.,-0.866025403784439));
#966=DIRECTION('center_axis',(7.65671051465625E-17,1.,0.));
#967=DIRECTION('ref_axis',(-1.,7.65671051465625E-17,0.));
#968=DIRECTION('',(-1.,7.65671051465625E-17,0.));
#969=DIRECTION('center_axis',(-7.65671051465625E-17,-1.,0.));
#970=DIRECTION('ref_axis',(0.,0.,-1.));
#971=DIRECTION('center_axis',(7.65671051465625E-17,1.,0.));
#972=DIRECTION('ref_axis',(-0.500000000000017,0.,-0.866025403784429));
#973=DIRECTION('',(1.,0.,0.));
#974=DIRECTION('',(0.,0.,1.));
#975=DIRECTION('',(-1.,7.65671051465625E-17,0.));
#976=DIRECTION('',(0.,0.,-1.));
#977=DIRECTION('',(-1.,0.,0.));
#978=DIRECTION('center_axis',(-7.65671051465625E-17,-1.,0.));
#979=DIRECTION('ref_axis',(1.,0.,0.));
#980=DIRECTION('center_axis',(0.,1.,0.));
#981=DIRECTION('ref_axis',(0.,0.,-1.));
#982=DIRECTION('center_axis',(0.,1.,0.));
#983=DIRECTION('ref_axis',(0.,0.,-1.));
#984=DIRECTION('',(0.,1.,0.));
#985=DIRECTION('',(0.,-1.,0.));
#986=DIRECTION('center_axis',(0.,1.,0.));
#987=DIRECTION('ref_axis',(-0.500000000000017,0.,-0.866025403784429));
#988=DIRECTION('center_axis',(0.,-1.,0.));
#989=DIRECTION('ref_axis',(-0.500000000000017,0.,-0.866025403784429));
#990=DIRECTION('',(0.,1.,0.));
#991=DIRECTION('center_axis',(-3.41607084500048E-16,1.,0.));
#992=DIRECTION('ref_axis',(0.707106781186548,3.92523114670944E-16,0.707106781186547));
#993=DIRECTION('center_axis',(0.,-1.,0.));
#994=DIRECTION('ref_axis',(0.707106781186548,3.92523114670944E-16,0.707106781186547));
#995=DIRECTION('',(3.41607084500048E-16,-1.,0.));
#996=DIRECTION('center_axis',(8.5401771125012E-17,1.,0.));
#997=DIRECTION('ref_axis',(0.707106781186548,3.92523114670944E-16,0.707106781186547));
#998=DIRECTION('',(-3.41607084500048E-16,1.,0.));
#999=DIRECTION('center_axis',(-8.5401771125012E-17,-1.,0.));
#1000=DIRECTION('ref_axis',(1.,-8.5401771125012E-17,0.));
#1001=DIRECTION('',(1.,-8.5401771125012E-17,0.));
#1002=DIRECTION('',(1.,-8.5401771125012E-17,0.));
#1003=DIRECTION('',(0.,0.,1.));
#1004=DIRECTION('',(-1.,8.5401771125012E-17,0.));
#1005=DIRECTION('',(0.,0.,1.));
#1006=DIRECTION('center_axis',(0.,0.,1.));
#1007=DIRECTION('ref_axis',(1.,0.,0.));
#1008=DIRECTION('',(-1.,0.,0.));
#1009=DIRECTION('',(0.,1.,0.));
#1010=DIRECTION('center_axis',(0.,-1.,0.));
#1011=DIRECTION('ref_axis',(-0.707106781186548,0.,0.707106781186547));
#1012=DIRECTION('center_axis',(0.,1.,0.));
#1013=DIRECTION('ref_axis',(-0.707106781186548,0.,0.707106781186547));
#1014=DIRECTION('',(0.,1.,0.));
#1015=DIRECTION('center_axis',(0.,-1.,0.));
#1016=DIRECTION('ref_axis',(-0.707106781186548,0.,0.707106781186547));
#1017=DIRECTION('',(0.,-1.,0.));
#1018=DIRECTION('center_axis',(0.,0.,1.));
#1019=DIRECTION('ref_axis',(1.,0.,0.));
#1020=DIRECTION('',(1.,0.,0.));
#1021=DIRECTION('',(0.,-1.,0.));
#1022=DIRECTION('',(-1.,0.,0.));
#1023=DIRECTION('center_axis',(0.,-1.,0.));
#1024=DIRECTION('ref_axis',(1.,0.,0.));
#1025=DIRECTION('',(0.,0.,1.));
#1026=DIRECTION('',(-1.,0.,0.));
#1027=DIRECTION('',(0.,0.,1.));
#1028=DIRECTION('',(1.,0.,0.));
#1029=DIRECTION('center_axis',(0.,1.,0.));
#1030=DIRECTION('ref_axis',(0.707106781186548,0.,-0.707106781186547));
#1031=DIRECTION('center_axis',(0.,0.981615389668581,0.190869659102224));
#1032=DIRECTION('ref_axis',(6.13019253901755E-16,0.190869659102224,-0.981615389668581));
#1033=DIRECTION('center_axis',(0.,-0.981615389668581,0.190869659102224));
#1034=DIRECTION('ref_axis',(6.13019253901755E-16,-0.190869659102224,-0.981615389668581));
#1035=DIRECTION('',(0.,1.,0.));
#1036=DIRECTION('center_axis',(-1.,0.,0.));
#1037=DIRECTION('ref_axis',(0.,0.,1.));
#1038=DIRECTION('',(0.,0.190869659102224,0.981615389668581));
#1039=DIRECTION('',(0.,0.190869659102224,-0.981615389668581));
#1040=DIRECTION('center_axis',(0.,-1.,0.));
#1041=DIRECTION('ref_axis',(-0.707106781186548,0.,-0.707106781186547));
#1042=DIRECTION('center_axis',(0.,-0.981615389668581,0.190869659102224));
#1043=DIRECTION('ref_axis',(-6.13019253901755E-16,-0.190869659102224,-0.981615389668581));
#1044=DIRECTION('center_axis',(0.,0.981615389668581,0.190869659102224));
#1045=DIRECTION('ref_axis',(-6.13019253901755E-16,0.190869659102224,-0.981615389668581));
#1046=DIRECTION('',(0.,-1.,0.));
#1047=DIRECTION('center_axis',(-1.,0.,0.));
#1048=DIRECTION('ref_axis',(0.,0.,1.));
#1049=DIRECTION('',(0.,0.190869659102224,-0.981615389668581));
#1050=DIRECTION('',(0.,0.190869659102224,0.981615389668581));
#1051=DIRECTION('center_axis',(0.,1.,0.));
#1052=DIRECTION('ref_axis',(1.,0.,0.));
#1053=DIRECTION('center_axis',(0.,-1.,0.));
#1054=DIRECTION('ref_axis',(1.,0.,0.));
#1055=DIRECTION('',(0.,1.,0.));
#1056=DIRECTION('center_axis',(0.,-1.,0.));
#1057=DIRECTION('ref_axis',(1.,0.,0.));
#1058=DIRECTION('center_axis',(0.,1.,0.));
#1059=DIRECTION('ref_axis',(1.,0.,0.));
#1060=DIRECTION('center_axis',(0.,1.,0.));
#1061=DIRECTION('ref_axis',(1.,0.,0.));
#1062=DIRECTION('',(0.,1.,0.));
#1063=DIRECTION('center_axis',(0.,1.,0.));
#1064=DIRECTION('ref_axis',(1.,0.,0.));
#1065=DIRECTION('center_axis',(0.,-1.,0.));
#1066=DIRECTION('ref_axis',(1.,0.,0.));
#1067=DIRECTION('center_axis',(0.,-1.,0.));
#1068=DIRECTION('ref_axis',(1.,0.,0.));
#1069=DIRECTION('',(-1.,0.,0.));
#1070=DIRECTION('',(0.,0.,1.));
#1071=DIRECTION('',(1.,0.,0.));
#1072=DIRECTION('',(0.,0.,1.));
#1073=DIRECTION('',(1.,0.,0.));
#1074=DIRECTION('',(1.,0.,0.));
#1075=DIRECTION('center_axis',(0.,1.,0.));
#1076=DIRECTION('ref_axis',(1.,0.,0.));
#1077=DIRECTION('center_axis',(0.,1.,0.));
#1078=DIRECTION('ref_axis',(1.,0.,0.));
#1079=DIRECTION('',(0.,1.,0.));
#1080=DIRECTION('center_axis',(0.,-0.981615389668581,-0.190869659102224));
#1081=DIRECTION('ref_axis',(0.,0.190869659102224,-0.981615389668581));
#1082=DIRECTION('',(0.,0.190869659102224,-0.981615389668581));
#1083=DIRECTION('',(-1.,0.,0.));
#1084=DIRECTION('center_axis',(0.,0.981615389668581,-0.190869659102224));
#1085=DIRECTION('ref_axis',(0.,0.190869659102224,0.981615389668581));
#1086=DIRECTION('',(0.,-0.190869659102224,-0.981615389668581));
#1087=DIRECTION('center_axis',(0.,0.981615389668581,0.190869659102224));
#1088=DIRECTION('ref_axis',(0.,0.190869659102224,-0.981615389668581));
#1089=DIRECTION('',(0.,0.190869659102224,-0.981615389668581));
#1090=DIRECTION('',(-1.,0.,0.));
#1091=DIRECTION('center_axis',(0.,-0.981615389668581,0.190869659102224));
#1092=DIRECTION('ref_axis',(0.,0.190869659102224,0.981615389668581));
#1093=DIRECTION('',(0.,-0.190869659102224,-0.981615389668581));
#1094=DIRECTION('center_axis',(0.,0.,1.));
#1095=DIRECTION('ref_axis',(1.,0.,0.));
#1096=DIRECTION('',(0.,1.,0.));
#1097=DIRECTION('',(0.,1.,0.));
#1098=DIRECTION('center_axis',(0.,-1.,0.));
#1099=DIRECTION('ref_axis',(1.,0.,0.));
#1100=DIRECTION('center_axis',(0.,0.,1.));
#1101=DIRECTION('ref_axis',(1.,0.,0.));
#1102=DIRECTION('',(0.,-1.,0.));
#1103=DIRECTION('',(1.,0.,0.));
#1104=DIRECTION('',(3.41607084500048E-16,-1.,0.));
#1105=DIRECTION('center_axis',(0.,0.,1.));
#1106=DIRECTION('ref_axis',(1.,0.,0.));
#1107=DIRECTION('',(0.,1.,0.));
#1108=DIRECTION('',(0.,1.,0.));
#1109=DIRECTION('',(1.,0.,0.));
#1110=DIRECTION('center_axis',(0.,1.,0.));
#1111=DIRECTION('ref_axis',(-1.,0.,0.));
#1112=DIRECTION('',(0.,0.,1.));
#1113=DIRECTION('',(0.,0.,1.));
#1114=DIRECTION('center_axis',(1.,3.41607084500048E-16,0.));
#1115=DIRECTION('ref_axis',(-3.41607084500048E-16,1.,0.));
#1116=DIRECTION('center_axis',(-1.,0.,0.));
#1117=DIRECTION('ref_axis',(0.,-1.,0.));
#1118=DIRECTION('center_axis',(0.,0.,1.));
#1119=DIRECTION('ref_axis',(1.,0.,0.));
#1120=DIRECTION('center_axis',(1.,0.,0.));
#1121=DIRECTION('ref_axis',(0.,1.,0.));
#1122=DIRECTION('',(0.,0.,1.));
#1123=DIRECTION('center_axis',(-1.,0.,0.));
#1124=DIRECTION('ref_axis',(0.,-1.,0.));
#1125=DIRECTION('',(0.,0.,1.));
#1126=DIRECTION('center_axis',(0.,1.,0.));
#1127=DIRECTION('ref_axis',(-1.,0.,0.));
#1128=DIRECTION('center_axis',(0.,1.,0.));
#1129=DIRECTION('ref_axis',(1.,0.,0.));
#1130=DIRECTION('center_axis',(0.,-1.,0.));
#1131=DIRECTION('ref_axis',(1.,0.,0.));
#1132=DIRECTION('',(0.,-1.,0.));
#1133=DIRECTION('center_axis',(0.,1.,0.));
#1134=DIRECTION('ref_axis',(1.,0.,0.));
#1135=DIRECTION('center_axis',(0.,1.,0.));
#1136=DIRECTION('ref_axis',(1.,0.,0.));
#1137=DIRECTION('center_axis',(0.,1.,0.));
#1138=DIRECTION('ref_axis',(1.,0.,0.));
#1139=DIRECTION('',(0.,-1.,0.));
#1140=DIRECTION('center_axis',(0.,-1.,0.));
#1141=DIRECTION('ref_axis',(1.,0.,0.));
#1142=DIRECTION('center_axis',(0.,-1.,0.));
#1143=DIRECTION('ref_axis',(1.,0.,0.));
#1144=DIRECTION('center_axis',(0.,-1.,0.));
#1145=DIRECTION('ref_axis',(1.,0.,0.));
#1146=DIRECTION('center_axis',(0.,1.,0.));
#1147=DIRECTION('ref_axis',(1.,0.,0.));
#1148=DIRECTION('center_axis',(0.,-1.,0.));
#1149=DIRECTION('ref_axis',(1.,0.,0.));
#1150=DIRECTION('',(0.,-1.,0.));
#1151=DIRECTION('center_axis',(0.,1.,0.));
#1152=DIRECTION('ref_axis',(1.,0.,0.));
#1153=DIRECTION('center_axis',(0.,1.,0.));
#1154=DIRECTION('ref_axis',(1.,0.,0.));
#1155=DIRECTION('center_axis',(0.,1.,0.));
#1156=DIRECTION('ref_axis',(1.,0.,0.));
#1157=DIRECTION('',(0.,-1.,0.));
#1158=DIRECTION('center_axis',(0.,-1.,0.));
#1159=DIRECTION('ref_axis',(1.,0.,0.));
#1160=DIRECTION('center_axis',(0.,-1.,0.));
#1161=DIRECTION('ref_axis',(1.,0.,0.));
#1162=DIRECTION('center_axis',(0.,-1.,0.));
#1163=DIRECTION('ref_axis',(1.,0.,0.));
#1164=DIRECTION('center_axis',(0.,1.,0.));
#1165=DIRECTION('ref_axis',(1.,0.,0.));
#1166=DIRECTION('center_axis',(-7.65671051465625E-17,-1.,0.));
#1167=DIRECTION('ref_axis',(1.,0.,0.));
#1168=DIRECTION('',(0.,-1.,0.));
#1169=DIRECTION('center_axis',(0.,1.,0.));
#1170=DIRECTION('ref_axis',(1.,0.,0.));
#1171=DIRECTION('center_axis',(0.,-1.,0.));
#1172=DIRECTION('ref_axis',(1.,0.,0.));
#1173=DIRECTION('center_axis',(0.,1.,0.));
#1174=DIRECTION('ref_axis',(1.,0.,0.));
#1175=DIRECTION('center_axis',(7.65671051465625E-17,1.,0.));
#1176=DIRECTION('ref_axis',(-1.,7.65671051465625E-17,0.));
#1177=DIRECTION('center_axis',(7.65671051465625E-17,1.,0.));
#1178=DIRECTION('ref_axis',(1.,0.,0.));
#1179=DIRECTION('center_axis',(0.,1.,0.));
#1180=DIRECTION('ref_axis',(1.,0.,0.));
#1181=DIRECTION('',(0.,1.,0.));
#1182=DIRECTION('',(0.,0.,1.));
#1183=DIRECTION('',(1.,0.,0.));
#1184=CARTESIAN_POINT('',(0.,0.,0.));
#1185=CARTESIAN_POINT('',(0.,0.,0.));
#1186=CARTESIAN_POINT('Origin',(21.,-3.36095427440093E-15,2.25));
#1187=CARTESIAN_POINT('',(18.25,-3.0241764046354E-15,5.));
#1188=CARTESIAN_POINT('Origin',(21.,-3.36095427440093E-15,5.));
#1189=CARTESIAN_POINT('',(18.25,-3.69773214416645E-15,0.));
#1190=CARTESIAN_POINT('',(18.25,-3.0241764046354E-15,2.25));
#1191=CARTESIAN_POINT('Origin',(21.,-3.36095427440093E-15,0.));
#1192=CARTESIAN_POINT('Origin',(-21.,-3.28037981667179E-15,2.25));
#1193=CARTESIAN_POINT('',(-23.75,-2.94360194690627E-15,5.));
#1194=CARTESIAN_POINT('Origin',(-21.,-3.28037981667179E-15,5.));
#1195=CARTESIAN_POINT('',(-23.75,-3.61715768643731E-15,0.));
#1196=CARTESIAN_POINT('',(-23.75,-2.94360194690627E-15,2.25));
#1197=CARTESIAN_POINT('Origin',(-21.,-3.28037981667179E-15,0.));
#1198=CARTESIAN_POINT('Origin',(-0.151668305529404,4.75,13.5));
#1199=CARTESIAN_POINT('',(-0.151668305529407,4.75,28.));
#1200=CARTESIAN_POINT('',(-14.5183840370338,4.75,15.4614991945302));
#1201=CARTESIAN_POINT('Origin',(-0.151668305529404,4.75,13.5));
#1202=CARTESIAN_POINT('',(-14.5183840370338,-4.75,15.4614991945302));
#1203=CARTESIAN_POINT('',(-14.5183840370339,4.75,15.4614991945302));
#1204=CARTESIAN_POINT('',(-0.151668305529407,-4.75,28.));
#1205=CARTESIAN_POINT('Origin',(-0.151668305529404,-4.75,13.5));
#1206=CARTESIAN_POINT('',(-0.151668305529406,4.75,28.));
#1207=CARTESIAN_POINT('Origin',(-16.5,4.75,15.7320508075689));
#1208=CARTESIAN_POINT('',(-15.5,4.75,14.));
#1209=CARTESIAN_POINT('Origin',(-16.5,4.75,15.7320508075689));
#1210=CARTESIAN_POINT('',(-15.5,-4.75,14.));
#1211=CARTESIAN_POINT('',(-15.5,4.75,14.));
#1212=CARTESIAN_POINT('Origin',(-16.5,-4.75,15.7320508075689));
#1213=CARTESIAN_POINT('Origin',(14.5,4.75,0.));
#1214=CARTESIAN_POINT('',(0.15166830552944,4.75,28.));
#1215=CARTESIAN_POINT('',(-14.5,4.75,28.));
#1216=CARTESIAN_POINT('',(14.5183840370339,4.75,15.4614991945302));
#1217=CARTESIAN_POINT('Origin',(0.151668305529438,4.75,13.5));
#1218=CARTESIAN_POINT('',(15.5,4.75,14.));
#1219=CARTESIAN_POINT('Origin',(16.5,4.75,15.7320508075689));
#1220=CARTESIAN_POINT('',(14.5,4.75,14.));
#1221=CARTESIAN_POINT('',(14.5,4.75,14.));
#1222=CARTESIAN_POINT('',(14.5,4.75,2.));
#1223=CARTESIAN_POINT('',(14.5,4.75,0.));
#1224=CARTESIAN_POINT('',(-14.5,4.75,2.));
#1225=CARTESIAN_POINT('',(1.81272621434487E-14,4.75,2.));
#1226=CARTESIAN_POINT('',(-14.5,4.75,14.));
#1227=CARTESIAN_POINT('',(-14.5,4.75,0.));
#1228=CARTESIAN_POINT('',(-14.5,4.75,14.));
#1229=CARTESIAN_POINT('',(-4.00000000000001,4.75,14.));
#1230=CARTESIAN_POINT('Origin',(-9.14066997581733E-15,4.75,14.));
#1231=CARTESIAN_POINT('Origin',(0.151668305529438,4.75,13.5));
#1232=CARTESIAN_POINT('',(0.15166830552944,-4.75,28.));
#1233=CARTESIAN_POINT('',(14.5183840370339,-4.75,15.4614991945302));
#1234=CARTESIAN_POINT('Origin',(0.151668305529438,-4.75,13.5));
#1235=CARTESIAN_POINT('',(14.5183840370339,4.75,15.4614991945302));
#1236=CARTESIAN_POINT('',(0.151668305529439,4.75,28.));
#1237=CARTESIAN_POINT('Origin',(16.5,4.75,15.7320508075689));
#1238=CARTESIAN_POINT('',(15.5,-4.75,14.));
#1239=CARTESIAN_POINT('Origin',(16.5,-4.75,15.7320508075689));
#1240=CARTESIAN_POINT('',(15.5,4.75,14.));
#1241=CARTESIAN_POINT('Origin',(25.5,-3.25,3.));
#1242=CARTESIAN_POINT('',(27.5,6.5,3.));
#1243=CARTESIAN_POINT('',(25.5,6.5,5.));
#1244=CARTESIAN_POINT('Origin',(25.5,6.49999999999999,3.));
#1245=CARTESIAN_POINT('',(25.5,-6.5,5.));
#1246=CARTESIAN_POINT('',(25.5,-3.25,5.));
#1247=CARTESIAN_POINT('',(27.5,-6.5,3.));
#1248=CARTESIAN_POINT('Origin',(25.5,-6.5,3.));
#1249=CARTESIAN_POINT('',(27.5,-3.25,3.));
#1250=CARTESIAN_POINT('Origin',(14.5,-6.5,0.));
#1251=CARTESIAN_POINT('',(17.5,-6.5,5.));
#1252=CARTESIAN_POINT('',(27.5,-6.5,5.));
#1253=CARTESIAN_POINT('',(14.5,-6.5,5.));
#1254=CARTESIAN_POINT('',(27.5,-6.5,5.));
#1255=CARTESIAN_POINT('',(14.5,-6.5,0.));
#1256=CARTESIAN_POINT('',(14.5,-6.5,0.));
#1257=CARTESIAN_POINT('',(27.5,-6.5,0.));
#1258=CARTESIAN_POINT('',(27.5,-6.5,0.));
#1259=CARTESIAN_POINT('',(27.5,-6.5,0.));
#1260=CARTESIAN_POINT('Origin',(21.,-4.44089209850063E-15,5.));
#1261=CARTESIAN_POINT('',(17.5,6.5,5.));
#1262=CARTESIAN_POINT('',(14.5,6.5,5.));
#1263=CARTESIAN_POINT('',(17.5,-3.88578058618805E-15,5.));
#1264=CARTESIAN_POINT('Origin',(-25.5,3.25,3.));
#1265=CARTESIAN_POINT('',(-27.5,-6.5,3.));
#1266=CARTESIAN_POINT('',(-25.5,-6.5,5.));
#1267=CARTESIAN_POINT('Origin',(-25.5,-6.5,3.));
#1268=CARTESIAN_POINT('',(-25.5,6.5,5.));
#1269=CARTESIAN_POINT('',(-25.5,3.25,5.));
#1270=CARTESIAN_POINT('',(-27.5,6.5,3.));
#1271=CARTESIAN_POINT('Origin',(-25.5,6.5,3.));
#1272=CARTESIAN_POINT('',(-27.5,3.25,3.));
#1273=CARTESIAN_POINT('Origin',(-21.,-3.33066907387547E-15,5.));
#1274=CARTESIAN_POINT('',(-17.5,-6.5,5.));
#1275=CARTESIAN_POINT('',(-14.5,-6.5,5.));
#1276=CARTESIAN_POINT('',(-17.5,6.5,5.));
#1277=CARTESIAN_POINT('',(-17.5,-3.33066907387547E-15,5.));
#1278=CARTESIAN_POINT('',(-27.5,6.5,5.));
#1279=CARTESIAN_POINT('Origin',(-27.5,-6.5,0.));
#1280=CARTESIAN_POINT('',(-27.5,-6.5,0.));
#1281=CARTESIAN_POINT('',(-27.5,-6.5,0.));
#1282=CARTESIAN_POINT('',(-14.5,-6.5,0.));
#1283=CARTESIAN_POINT('',(-14.5,-6.5,0.));
#1284=CARTESIAN_POINT('',(-14.5,-6.5,5.));
#1285=CARTESIAN_POINT('',(-14.5,-6.5,0.));
#1286=CARTESIAN_POINT('',(-14.5,-6.5,5.));
#1287=CARTESIAN_POINT('Origin',(-17.5,-3.33066907387547E-15,7.));
#1288=CARTESIAN_POINT('',(-15.5,6.11111111111111,7.));
#1289=CARTESIAN_POINT('Origin',(-17.5,6.11111111111111,7.));
#1290=CARTESIAN_POINT('',(-15.5,-6.11111111111111,7.));
#1291=CARTESIAN_POINT('Origin',(-17.5,-6.11111111111111,7.));
#1292=CARTESIAN_POINT('',(-15.5,-3.33066907387547E-15,7.));
#1293=CARTESIAN_POINT('Origin',(-15.5,-3.33066907387547E-15,9.5));
#1294=CARTESIAN_POINT('',(-15.5,-4.75,14.));
#1295=CARTESIAN_POINT('',(-15.5,4.75,14.));
#1296=CARTESIAN_POINT('Origin',(17.5,-3.88578058618805E-15,7.));
#1297=CARTESIAN_POINT('',(15.5,-6.11111111111111,7.));
#1298=CARTESIAN_POINT('Origin',(17.5,-6.11111111111111,7.));
#1299=CARTESIAN_POINT('',(15.5,6.11111111111111,7.));
#1300=CARTESIAN_POINT('Origin',(17.5,6.11111111111111,7.));
#1301=CARTESIAN_POINT('',(15.5,-3.88578058618805E-15,7.));
#1302=CARTESIAN_POINT('Origin',(15.5,-3.33066907387547E-15,9.5));
#1303=CARTESIAN_POINT('',(15.5,4.75,14.));
#1304=CARTESIAN_POINT('',(15.5,-4.75,14.));
#1305=CARTESIAN_POINT('Origin',(-9.14066997581733E-15,-4.75,14.));
#1306=CARTESIAN_POINT('',(-6.00000000000001,-4.75,14.));
#1307=CARTESIAN_POINT('Origin',(-9.14066997581733E-15,-4.75,14.));
#1308=CARTESIAN_POINT('',(-6.00000000000001,-3.75,14.));
#1309=CARTESIAN_POINT('',(-6.00000000000001,-4.75,14.));
#1310=CARTESIAN_POINT('Origin',(-9.14066997581733E-15,-3.75,14.));
#1311=CARTESIAN_POINT('Origin',(-9.14066997581733E-15,-4.75,14.));
#1312=CARTESIAN_POINT('',(-9.50000000000001,-4.75,14.));
#1313=CARTESIAN_POINT('Origin',(-9.14066997581733E-15,-4.75,14.));
#1314=CARTESIAN_POINT('',(-9.50000000000001,-3.75,14.));
#1315=CARTESIAN_POINT('',(-9.50000000000001,-4.75,14.));
#1316=CARTESIAN_POINT('Origin',(-9.14066997581733E-15,-3.75,14.));
#1317=CARTESIAN_POINT('Origin',(-8.88178419700125E-15,-3.75,14.));
#1318=CARTESIAN_POINT('Origin',(-14.5,-4.75,0.));
#1319=CARTESIAN_POINT('',(-14.5,-4.75,14.));
#1320=CARTESIAN_POINT('',(-14.5,-4.75,14.));
#1321=CARTESIAN_POINT('',(-14.5,-4.75,2.));
#1322=CARTESIAN_POINT('',(-14.5,-4.75,0.));
#1323=CARTESIAN_POINT('',(14.5,-4.75,2.));
#1324=CARTESIAN_POINT('',(-14.5,-4.75,2.));
#1325=CARTESIAN_POINT('',(14.5,-4.75,14.));
#1326=CARTESIAN_POINT('',(14.5,-4.75,0.));
#1327=CARTESIAN_POINT('',(14.5,-4.75,14.));
#1328=CARTESIAN_POINT('',(-14.5,-4.75,28.));
#1329=CARTESIAN_POINT('Origin',(-9.14066997581733E-15,-4.75,14.));
#1330=CARTESIAN_POINT('',(-4.00000000000001,-4.75,14.));
#1331=CARTESIAN_POINT('Origin',(-9.14066997581733E-15,-4.75,14.));
#1332=CARTESIAN_POINT('',(-4.00000000000001,-4.75,14.));
#1333=CARTESIAN_POINT('Origin',(14.5,4.75,14.));
#1334=CARTESIAN_POINT('',(14.5,6.5,5.));
#1335=CARTESIAN_POINT('',(14.5,4.75,14.));
#1336=CARTESIAN_POINT('',(14.5,6.5,5.));
#1337=CARTESIAN_POINT('Origin',(14.5,-6.5,5.));
#1338=CARTESIAN_POINT('',(14.5,-4.75,14.));
#1339=CARTESIAN_POINT('Origin',(-14.5,4.75,14.));
#1340=CARTESIAN_POINT('',(-14.5,6.5,5.));
#1341=CARTESIAN_POINT('',(-14.5,4.75,14.));
#1342=CARTESIAN_POINT('',(-27.5,6.5,5.));
#1343=CARTESIAN_POINT('Origin',(-14.5,-6.5,5.));
#1344=CARTESIAN_POINT('',(-14.5,-4.75,14.));
#1345=CARTESIAN_POINT('Origin',(-14.5,-4.75,2.));
#1346=CARTESIAN_POINT('',(14.5,-4.75,2.));
#1347=CARTESIAN_POINT('',(-14.5,-4.75,2.));
#1348=CARTESIAN_POINT('Origin',(-14.5,-4.75,0.));
#1349=CARTESIAN_POINT('Origin',(-21.,-3.33066907387547E-15,0.));
#1350=CARTESIAN_POINT('',(14.5,6.5,0.));
#1351=CARTESIAN_POINT('',(14.5,6.5,0.));
#1352=CARTESIAN_POINT('',(27.5,6.5,0.));
#1353=CARTESIAN_POINT('',(14.5,6.5,0.));
#1354=CARTESIAN_POINT('',(27.5,6.5,0.));
#1355=CARTESIAN_POINT('Origin',(-21.,-3.33066907387547E-15,0.));
#1356=CARTESIAN_POINT('',(-14.5,6.5,0.));
#1357=CARTESIAN_POINT('',(-14.5,-6.5,0.));
#1358=CARTESIAN_POINT('',(-27.5,6.5,0.));
#1359=CARTESIAN_POINT('',(-27.5,-6.5,0.));
#1360=CARTESIAN_POINT('',(-27.5,6.5,0.));
#1361=CARTESIAN_POINT('Origin',(27.5,6.5,0.));
#1362=CARTESIAN_POINT('',(27.5,6.5,0.));
#1363=CARTESIAN_POINT('',(14.5,6.5,0.));
#1364=CARTESIAN_POINT('Origin',(27.5,-6.5,0.));
#1365=CARTESIAN_POINT('Origin',(14.5,6.5,0.));
#1366=CARTESIAN_POINT('Origin',(1.77635683940025E-14,0.,28.));
#1367=CARTESIAN_POINT('Origin',(-14.5,-6.5,0.));
#1368=CARTESIAN_POINT('',(-14.5,6.5,0.));
#1369=CARTESIAN_POINT('Origin',(-27.5,6.5,0.));
#1370=CARTESIAN_POINT('',(-27.5,6.5,0.));
#1371=CARTESIAN_POINT('Origin',(-14.5,6.5,0.));
#1372=CARTESIAN_POINT('Origin',(-9.14066997581733E-15,-4.75,14.));
#1373=CARTESIAN_POINT('',(-4.00000000000001,7.25,14.));
#1374=CARTESIAN_POINT('Origin',(-9.14066997581733E-15,7.25,14.));
#1375=CARTESIAN_POINT('',(-4.00000000000001,-4.75,14.));
#1376=CARTESIAN_POINT('',(-4.00000000000001,-4.75,14.));
#1377=CARTESIAN_POINT('Origin',(-9.14066997581733E-15,-4.75,14.));
#1378=CARTESIAN_POINT('Origin',(-9.14066997581733E-15,-4.75,14.));
#1379=CARTESIAN_POINT('',(-6.00000000000001,7.25,14.));
#1380=CARTESIAN_POINT('Origin',(-9.14066997581733E-15,7.25,14.));
#1381=CARTESIAN_POINT('',(-6.00000000000001,-4.75,14.));
#1382=CARTESIAN_POINT('',(-6.00000000000001,-4.75,14.));
#1383=CARTESIAN_POINT('Origin',(-9.14066997581733E-15,-4.75,14.));
#1384=CARTESIAN_POINT('Origin',(-8.88178419700125E-15,-4.75,14.));
#1385=CARTESIAN_POINT('Origin',(-8.88178419700125E-15,7.25,14.));
#1386=CARTESIAN_POINT('Origin',(-9.14066997581733E-15,-3.75,14.));
#1387=CARTESIAN_POINT('',(-6.00000000000001,4.75,14.));
#1388=CARTESIAN_POINT('Origin',(-9.14066997581733E-15,4.75,14.));
#1389=CARTESIAN_POINT('',(-6.00000000000001,-3.75,14.));
#1390=CARTESIAN_POINT('',(-6.00000000000001,-3.75,14.));
#1391=CARTESIAN_POINT('Origin',(-9.14066997581733E-15,-3.75,14.));
#1392=CARTESIAN_POINT('Origin',(-9.14066997581733E-15,-3.75,14.));
#1393=CARTESIAN_POINT('',(-9.50000000000001,4.75,14.));
#1394=CARTESIAN_POINT('Origin',(-9.14066997581733E-15,4.75,14.));
#1395=CARTESIAN_POINT('',(-9.50000000000001,-3.75,14.));
#1396=CARTESIAN_POINT('',(-9.50000000000001,-3.75,14.));
#1397=CARTESIAN_POINT('Origin',(-9.14066997581733E-15,-3.75,14.));
#1398=CARTESIAN_POINT('Origin',(-8.88178419700125E-15,-3.75,14.));
#1399=CARTESIAN_POINT('Origin',(-8.88178419700125E-15,4.75,14.));
#1400=CARTESIAN_POINT('Origin',(-9.14066997581733E-15,-4.75,14.));
#1401=CARTESIAN_POINT('',(-10.5,4.75,14.));
#1402=CARTESIAN_POINT('Origin',(-9.14066997581733E-15,4.75,14.));
#1403=CARTESIAN_POINT('',(-10.5,-4.75,14.));
#1404=CARTESIAN_POINT('',(-10.5,-4.75,14.));
#1405=CARTESIAN_POINT('Origin',(-9.14066997581733E-15,-4.75,14.));
#1406=CARTESIAN_POINT('Origin',(-14.5,-4.75,0.));
#1407=CARTESIAN_POINT('',(-9.50000000000001,-4.75,14.));
#1408=CARTESIAN_POINT('Origin',(-9.14066997581733E-15,-4.75,14.));
#1409=CARTESIAN_POINT('Origin',(14.5,4.75,0.));
#1410=CARTESIAN_POINT('',(-9.50000000000001,4.75,14.));
#1411=CARTESIAN_POINT('Origin',(-9.14066997581733E-15,4.75,14.));
#1412=CARTESIAN_POINT('Origin',(-9.14066997581733E-15,-4.75,14.));
#1413=CARTESIAN_POINT('',(-9.50000000000001,-4.75,14.));
#1414=CARTESIAN_POINT('',(0.,0.,0.));
#1415=UNCERTAINTY_MEASURE_WITH_UNIT(LENGTH_MEASURE(0.01),#1421,
'DISTANCE_ACCURACY_VALUE',
'Maximum model space distance between geometric entities at asserted c
onnectivities');
#1416=UNCERTAINTY_MEASURE_WITH_UNIT(LENGTH_MEASURE(0.01),#1421,
'DISTANCE_ACCURACY_VALUE',
'Maximum model space distance between geometric entities at asserted c
onnectivities');
#1417=UNCERTAINTY_MEASURE_WITH_UNIT(LENGTH_MEASURE(0.01),#1421,
'DISTANCE_ACCURACY_VALUE',
'Maximum model space distance between geometric entities at asserted c
onnectivities');
#1418=(
GEOMETRIC_REPRESENTATION_CONTEXT(3)
GLOBAL_UNCERTAINTY_ASSIGNED_CONTEXT((#1415))
GLOBAL_UNIT_ASSIGNED_CONTEXT((#1421,#1423,#1424))
REPRESENTATION_CONTEXT('','3D')
);
#1419=(
GEOMETRIC_REPRESENTATION_CONTEXT(3)
GLOBAL_UNCERTAINTY_ASSIGNED_CONTEXT((#1416))
GLOBAL_UNIT_ASSIGNED_CONTEXT((#1421,#1423,#1424))
REPRESENTATION_CONTEXT('','3D')
);
#1420=(
GEOMETRIC_REPRESENTATION_CONTEXT(3)
GLOBAL_UNCERTAINTY_ASSIGNED_CONTEXT((#1417))
GLOBAL_UNIT_ASSIGNED_CONTEXT((#1421,#1423,#1424))
REPRESENTATION_CONTEXT('','3D')
);
#1421=(
LENGTH_UNIT()
NAMED_UNIT(*)
SI_UNIT(.MILLI.,.METRE.)
);
#1422=(
LENGTH_UNIT()
NAMED_UNIT(*)
SI_UNIT($,.METRE.)
);
#1423=(
NAMED_UNIT(*)
PLANE_ANGLE_UNIT()
SI_UNIT($,.RADIAN.)
);
#1424=(
NAMED_UNIT(*)
SI_UNIT($,.STERADIAN.)
SOLID_ANGLE_UNIT()
);
#1425=SHAPE_DEFINITION_REPRESENTATION(#1427,#1430);
#1426=SHAPE_DEFINITION_REPRESENTATION(#1428,#1431);
#1427=PRODUCT_DEFINITION_SHAPE('',$,#1433);
#1428=PRODUCT_DEFINITION_SHAPE('',$,#1434);
#1429=PRODUCT_DEFINITION_SHAPE($,$,#14);
#1430=SHAPE_REPRESENTATION('',(#843,#932),#1418);
#1431=SHAPE_REPRESENTATION('',(#844),#1419);
#1432=PRODUCT_DEFINITION_CONTEXT('part definition',#1440,'design');
#1433=PRODUCT_DEFINITION('KP08 Pillow Block Bearing',
'KP08 Pillow Block Bearing v7',#1435,#1432);
#1434=PRODUCT_DEFINITION('KP08 Pillow Block Bearing_1',
'KP08 Pillow Block Bearing',#1436,#1432);
#1435=PRODUCT_DEFINITION_FORMATION('',$,#1442);
#1436=PRODUCT_DEFINITION_FORMATION('',$,#1443);
#1437=PRODUCT_RELATED_PRODUCT_CATEGORY('KP08 Pillow Block Bearing v7',
'KP08 Pillow Block Bearing v7',(#1442));
#1438=PRODUCT_RELATED_PRODUCT_CATEGORY('KP08 Pillow Block Bearing',
'KP08 Pillow Block Bearing',(#1443));
#1439=APPLICATION_PROTOCOL_DEFINITION('international standard',
'automotive_design',2009,#1440);
#1440=APPLICATION_CONTEXT(
'Core Data for Automotive Mechanical Design Process');
#1441=PRODUCT_CONTEXT('part definition',#1440,'mechanical');
#1442=PRODUCT('KP08 Pillow Block Bearing',
'KP08 Pillow Block Bearing v7',$,(#1441));
#1443=PRODUCT('KP08 Pillow Block Bearing_1','KP08 Pillow Block Bearing',
$,(#1441));
#1444=PRESENTATION_STYLE_ASSIGNMENT((#1448));
#1445=PRESENTATION_STYLE_ASSIGNMENT((#1449));
#1446=PRESENTATION_STYLE_ASSIGNMENT((#1450));
#1447=PRESENTATION_STYLE_ASSIGNMENT((#1451));
#1448=SURFACE_STYLE_USAGE(.BOTH.,#1452);
#1449=SURFACE_STYLE_USAGE(.BOTH.,#1453);
#1450=SURFACE_STYLE_USAGE(.BOTH.,#1454);
#1451=SURFACE_STYLE_USAGE(.BOTH.,#1455);
#1452=SURFACE_SIDE_STYLE('',(#1456));
#1453=SURFACE_SIDE_STYLE('',(#1457));
#1454=SURFACE_SIDE_STYLE('',(#1458));
#1455=SURFACE_SIDE_STYLE('',(#1459));
#1456=SURFACE_STYLE_FILL_AREA(#1460);
#1457=SURFACE_STYLE_FILL_AREA(#1461);
#1458=SURFACE_STYLE_FILL_AREA(#1462);
#1459=SURFACE_STYLE_FILL_AREA(#1463);
#1460=FILL_AREA_STYLE('ABS (White)',(#1464));
#1461=FILL_AREA_STYLE('Steel - Satin',(#1465));
#1462=FILL_AREA_STYLE('Powder Coat (Black)',(#1466));
#1463=FILL_AREA_STYLE('Stainless Steel - Satin',(#1467));
#1464=FILL_AREA_STYLE_COLOUR('ABS (White)',#1468);
#1465=FILL_AREA_STYLE_COLOUR('Steel - Satin',#1469);
#1466=FILL_AREA_STYLE_COLOUR('Powder Coat (Black)',#1470);
#1467=FILL_AREA_STYLE_COLOUR('Stainless Steel - Satin',#1471);
#1468=COLOUR_RGB('ABS (White)',0.658823529411765,0.603921568627451,0.568627450980392);
#1469=COLOUR_RGB('Steel - Satin',0.627450980392157,0.627450980392157,0.627450980392157);
#1470=COLOUR_RGB('Powder Coat (Black)',0.0980392156862745,0.0980392156862745,
0.0980392156862745);
#1471=COLOUR_RGB('Stainless Steel - Satin',0.796078431372549,0.796078431372549,
0.796078431372549);
ENDSEC;
END-ISO-10303-21;
