# Convex hull collision mesh — generated by scripts/generate-collision-meshes.mjs (units: meters)
v 0.032223 0.043288 0.127739
v 0.023103 0.042179 0.127739
v 0.031778 0.041413 0.127739
v 0.030303 0.050011 0.096967
v 0.035672 0.047712 0.025951
v 0.025023 0.050011 0.096967
v 0.013672 0.047712 0.025951
v 0.023103 0.040647 0.127739
v 0.012692 0.046712 0.090732
v 0.032223 0.039538 0.127739
v 0.030303 0.049918 0.098080
v 0.030513 0.049973 0.097307
v 0.024592 0.043288 0.127739
v 0.030513 0.049966 0.096552
v 0.030592 0.049953 0.096917
v 0.036106 0.047613 0.090532
v 0.012870 0.030124 0.090640
v 0.012755 0.030403 0.090785
v 0.012771 0.030278 0.090532
v 0.013049 0.029930 0.090532
v 0.013105 0.029903 0.090688
v 0.013672 0.030712 0.024951
v 0.035672 0.046712 0.024951
v 0.035672 0.030712 0.024951
v 0.035672 0.029712 0.025951
v 0.027672 0.026989 0.095581
v 0.013672 0.029712 0.025951
v 0.036652 0.030712 0.090732
v 0.036647 0.030489 0.090532
v 0.036672 0.030712 0.090532
v 0.012890 0.047335 0.025951
v 0.012771 0.047145 0.025951
v 0.012771 0.047145 0.090532
v 0.013049 0.047493 0.090532
v 0.013049 0.047493 0.025951
v 0.030118 0.049962 0.097552
v 0.013132 0.047521 0.090763
v 0.013407 0.047663 0.090690
v 0.024813 0.049782 0.098608
v 0.025023 0.049918 0.098080
v 0.024813 0.049973 0.097307
v 0.036106 0.047613 0.025951
v 0.030513 0.049782 0.098608
v 0.030753 0.049827 0.097634
v 0.030592 0.049823 0.098283
v 0.013450 0.047687 0.025951
v 0.013450 0.047687 0.090532
v 0.013238 0.047613 0.025951
v 0.013378 0.047663 0.025856
v 0.013148 0.047521 0.025684
v 0.013672 0.047687 0.025729
v 0.013490 0.047663 0.025701
v 0.029572 0.031712 0.114316
v 0.019772 0.031712 0.114316
v 0.027812 0.027112 0.097161
v 0.036177 0.029903 0.090833
v 0.024592 0.039538 0.127739
v 0.012672 0.046712 0.090532
v 0.012672 0.046712 0.025951
v 0.012672 0.030712 0.025951
v 0.012697 0.046934 0.090532
v 0.012890 0.030088 0.025951
v 0.012873 0.030124 0.025825
v 0.013049 0.029930 0.025951
v 0.012928 0.030124 0.090850
v 0.012697 0.030489 0.090532
v 0.012697 0.030489 0.025951
v 0.012771 0.030278 0.025951
v 0.019772 0.033007 0.114951
v 0.035956 0.029761 0.090653
v 0.027972 0.027133 0.096797
v 0.036416 0.030124 0.090850
v 0.027549 0.026994 0.096121
v 0.027672 0.027017 0.096688
v 0.021549 0.026994 0.096121
v 0.013113 0.029903 0.025770
v 0.021672 0.026989 0.095581
v 0.013238 0.029811 0.090532
v 0.013366 0.029761 0.090573
v 0.013388 0.029761 0.090653
v 0.012768 0.030403 0.025657
v 0.013672 0.030489 0.024976
v 0.013672 0.030278 0.025050
v 0.013378 0.030403 0.025047
v 0.035672 0.030278 0.025050
v 0.036454 0.030712 0.025328
v 0.036573 0.030712 0.025517
v 0.036442 0.030403 0.025392
v 0.036106 0.046712 0.025050
v 0.036104 0.047021 0.025104
v 0.036296 0.046712 0.025169
v 0.036106 0.030712 0.025050
v 0.012903 0.047299 0.025701
v 0.012825 0.047021 0.025519
v 0.012733 0.047021 0.025802
v 0.012892 0.047299 0.090747
v 0.013372 0.047613 0.090845
v 0.024735 0.049823 0.098283
v 0.036296 0.047493 0.025951
v 0.036454 0.047335 0.090532
v 0.036454 0.047335 0.025951
v 0.036573 0.047145 0.090532
v 0.036615 0.047021 0.090659
v 0.036213 0.047521 0.090763
v 0.036573 0.046712 0.025517
v 0.036672 0.030712 0.025951
v 0.036672 0.046712 0.025951
v 0.036672 0.046712 0.090532
v 0.013422 0.047663 0.025770
v 0.013256 0.047521 0.025536
v 0.013577 0.047663 0.025657
v 0.035672 0.047613 0.025517
v 0.013672 0.047613 0.025517
v 0.013672 0.046712 0.024951
v 0.013580 0.047521 0.025371
v 0.035672 0.047687 0.025729
v 0.021672 0.027017 0.096688
v 0.013167 0.029903 0.090833
v 0.021480 0.027186 0.097406
v 0.027672 0.027228 0.097703
v 0.012797 0.047021 0.090905
v 0.012890 0.030088 0.090532
v 0.012692 0.030712 0.090732
v 0.027972 0.027096 0.096442
v 0.036589 0.030403 0.090785
v 0.036573 0.030278 0.090532
v 0.036573 0.030278 0.025951
v 0.036239 0.029903 0.090688
v 0.013672 0.029811 0.025517
v 0.013672 0.029930 0.025328
v 0.035672 0.029930 0.025328
v 0.013672 0.029737 0.025729
v 0.035720 0.029761 0.025646
v 0.013624 0.029761 0.025646
v 0.021480 0.027017 0.095837
v 0.013367 0.029761 0.025903
v 0.013454 0.029761 0.025733
v 0.013238 0.029811 0.025951
v 0.012697 0.046934 0.025951
v 0.012697 0.046712 0.025729
v 0.012697 0.030712 0.025729
v 0.035672 0.030088 0.025169
v 0.013238 0.030712 0.025050
v 0.013049 0.046712 0.025169
v 0.013238 0.046712 0.025050
v 0.035672 0.030489 0.024976
v 0.036296 0.030712 0.025169
v 0.036231 0.030403 0.025182
v 0.035672 0.047145 0.025050
v 0.013672 0.047145 0.025050
v 0.035672 0.047335 0.025169
v 0.035895 0.046712 0.024976
v 0.035821 0.047021 0.025012
v 0.013092 0.047521 0.025859
v 0.012890 0.047335 0.090532
v 0.013090 0.047521 0.090611
v 0.013238 0.047613 0.090532
v 0.013374 0.047663 0.090614
v 0.036296 0.047493 0.090532
v 0.036255 0.047521 0.090611
v 0.036647 0.046934 0.090532
v 0.036345 0.047021 0.025279
v 0.036148 0.047299 0.025297
v 0.036327 0.047299 0.025476
v 0.036647 0.030489 0.025951
v 0.013450 0.046712 0.024976
v 0.035672 0.046934 0.024976
v 0.013672 0.047335 0.025169
v 0.035672 0.047493 0.025328
v 0.013240 0.047021 0.025104
v 0.013000 0.047021 0.025279
v 0.013197 0.047299 0.025297
v 0.013405 0.047521 0.025427
v 0.035895 0.047687 0.025951
v 0.036196 0.047521 0.025684
v 0.036442 0.047299 0.025701
v 0.035768 0.047663 0.025657
v 0.027549 0.027110 0.097173
v 0.021480 0.027085 0.096900
v 0.021672 0.027228 0.097703
v 0.012730 0.047021 0.090659
v 0.012672 0.030712 0.090532
v 0.027972 0.027078 0.095964
v 0.035977 0.029761 0.025903
v 0.036454 0.030088 0.090532
v 0.036296 0.029930 0.090532
v 0.036296 0.029930 0.025951
v 0.035672 0.029737 0.025729
v 0.035672 0.029811 0.025517
v 0.013532 0.029761 0.025676
v 0.013450 0.029737 0.025951
v 0.012771 0.046712 0.025517
v 0.013113 0.030403 0.025182
v 0.013305 0.030124 0.025230
v 0.013546 0.030124 0.025152
v 0.012951 0.030124 0.025584
v 0.013100 0.030124 0.025379
v 0.035895 0.030712 0.024976
v 0.036231 0.029903 0.025770
v 0.036148 0.029903 0.025606
v 0.036393 0.030124 0.025584
v 0.036106 0.029811 0.090532
v 0.036454 0.030088 0.025951
v 0.036577 0.030403 0.025657
v 0.036452 0.047299 0.090747
v 0.036652 0.046712 0.090732
v 0.036520 0.047021 0.025519
v 0.036611 0.047021 0.025802
v 0.036454 0.046712 0.025328
v 0.013672 0.046934 0.024976
v 0.013450 0.030712 0.024976
v 0.035764 0.047521 0.025371
v 0.013672 0.047493 0.025328
v 0.013018 0.047299 0.025476
v 0.013422 0.047299 0.025182
v 0.035966 0.047663 0.025856
v 0.035922 0.047663 0.025770
v 0.036253 0.047521 0.025859
v 0.035854 0.047663 0.025701
v 0.021480 0.027029 0.096388
v 0.023549 0.027110 0.097173
v 0.021549 0.027110 0.097173
v 0.035978 0.029761 0.090573
v 0.036474 0.030124 0.090640
v 0.035891 0.029761 0.025733
v 0.035854 0.029903 0.025392
v 0.013327 0.029903 0.025476
v 0.013397 0.029761 0.025811
v 0.012890 0.046712 0.025328
v 0.012890 0.030712 0.025328
v 0.012771 0.030712 0.025517
v 0.036244 0.030124 0.025379
v 0.036039 0.030124 0.025230
v 0.013049 0.030712 0.025169
v 0.013672 0.030088 0.025169
v 0.012903 0.030403 0.025392
v 0.035966 0.030403 0.025047
v 0.036106 0.029811 0.025951
v 0.036471 0.030124 0.025825
v 0.036647 0.030712 0.025729
v 0.036573 0.047145 0.025951
v 0.036647 0.046712 0.025729
v 0.035939 0.047521 0.025427
v 0.013523 0.047021 0.025012
v 0.036088 0.047521 0.025536
v 0.035895 0.029737 0.025951
v 0.035812 0.029761 0.025676
v 0.036018 0.029903 0.025476
v 0.035799 0.030124 0.025152
v 0.013490 0.029903 0.025392
v 0.013197 0.029903 0.025606
v 0.036647 0.046934 0.025951
v 0.035922 0.047299 0.025182
v 0.035947 0.029761 0.025811
f 1 2 3
f 4 5 6
f 7 6 5
f 8 3 2
f 9 8 2
f 10 3 8
f 10 1 3
f 11 12 4
f 13 1 11
f 13 2 1
f 14 4 12
f 15 12 16
f 15 14 12
f 17 18 19
f 17 20 21
f 22 23 24
f 25 26 27
f 28 1 10
f 28 10 29
f 28 29 30
f 31 32 33
f 31 34 35
f 36 11 4
f 36 4 6
f 37 2 13
f 38 13 39
f 40 11 36
f 40 36 6
f 40 6 41
f 40 39 13
f 40 13 11
f 42 15 16
f 43 11 1
f 44 16 12
f 45 44 12
f 45 12 11
f 45 11 43
f 45 43 1
f 46 41 6
f 46 6 7
f 46 47 41
f 48 49 50
f 51 7 5
f 51 46 7
f 52 46 51
f 53 10 54
f 53 55 56
f 57 8 54
f 57 54 10
f 57 10 8
f 58 59 60
f 61 59 58
f 61 58 9
f 61 33 32
f 62 63 64
f 62 64 20
f 65 54 18
f 65 18 17
f 65 17 21
f 65 21 54
f 66 60 67
f 66 67 19
f 66 19 18
f 68 19 67
f 68 63 62
f 68 62 19
f 69 54 8
f 70 55 71
f 72 10 53
f 73 26 74
f 73 74 75
f 73 75 26
f 76 64 63
f 77 27 26
f 77 26 75
f 78 79 80
f 78 80 21
f 78 21 20
f 78 20 64
f 81 63 68
f 81 68 67
f 82 83 84
f 82 22 24
f 82 85 83
f 86 87 88
f 89 90 91
f 89 91 92
f 93 94 95
f 93 95 32
f 93 32 31
f 96 2 37
f 97 13 38
f 97 38 37
f 97 37 13
f 98 41 38
f 98 38 39
f 98 39 40
f 98 40 41
f 99 100 101
f 102 101 100
f 102 1 103
f 104 45 1
f 105 87 86
f 106 107 30
f 106 30 29
f 108 30 107
f 108 28 30
f 109 46 52
f 109 52 110
f 109 110 50
f 109 50 49
f 109 49 46
f 111 52 51
f 111 112 113
f 114 23 22
f 115 113 112
f 116 111 51
f 116 51 5
f 117 75 74
f 118 21 119
f 118 119 54
f 118 54 21
f 120 55 53
f 120 53 54
f 121 2 96
f 121 9 2
f 122 17 19
f 122 19 62
f 122 62 20
f 122 20 17
f 123 18 54
f 123 54 69
f 123 69 8
f 123 8 9
f 123 9 58
f 123 66 18
f 124 71 55
f 124 55 74
f 125 29 10
f 126 127 29
f 126 29 125
f 128 56 55
f 128 55 70
f 128 72 53
f 128 53 56
f 129 130 131
f 132 25 27
f 133 132 134
f 133 134 129
f 135 79 136
f 135 136 75
f 135 75 79
f 137 132 27
f 138 136 79
f 138 79 78
f 138 78 64
f 138 64 76
f 139 61 32
f 139 32 95
f 139 59 61
f 140 59 139
f 140 139 95
f 140 95 94
f 140 60 59
f 141 60 140
f 141 81 67
f 141 67 60
f 142 83 85
f 142 131 130
f 143 144 145
f 146 85 82
f 146 82 24
f 147 86 88
f 147 88 148
f 147 148 92
f 147 92 91
f 147 91 86
f 149 150 151
f 152 153 90
f 152 90 89
f 152 89 92
f 152 24 23
f 154 48 50
f 154 50 93
f 154 93 31
f 154 31 35
f 155 31 33
f 155 33 96
f 155 96 34
f 155 34 31
f 156 34 96
f 156 96 37
f 156 37 157
f 156 157 48
f 156 48 154
f 156 154 35
f 156 35 34
f 158 38 41
f 158 41 47
f 158 47 46
f 158 46 49
f 158 49 48
f 158 48 157
f 158 157 37
f 158 37 38
f 159 100 99
f 160 16 44
f 160 44 45
f 160 45 104
f 160 104 1
f 160 159 99
f 160 42 16
f 161 102 103
f 161 103 1
f 161 108 107
f 162 91 90
f 162 90 163
f 162 163 164
f 165 106 29
f 165 29 127
f 166 114 22
f 166 143 145
f 167 153 152
f 167 152 23
f 167 23 114
f 167 150 149
f 167 149 153
f 168 169 151
f 168 151 150
f 170 145 144
f 170 144 171
f 170 171 172
f 170 166 145
f 173 172 110
f 173 110 52
f 173 52 111
f 173 111 113
f 173 113 115
f 174 14 15
f 174 116 5
f 174 5 4
f 174 4 14
f 175 176 164
f 177 112 111
f 177 111 116
f 178 55 120
f 178 117 74
f 178 74 55
f 179 119 21
f 179 21 80
f 179 80 79
f 180 178 120
f 180 120 54
f 181 33 61
f 181 61 9
f 181 9 121
f 181 121 96
f 181 96 33
f 182 60 66
f 182 66 123
f 182 123 58
f 182 58 60
f 183 26 184
f 183 124 74
f 183 74 26
f 185 186 187
f 185 127 126
f 188 132 133
f 188 25 132
f 189 133 129
f 189 129 131
f 190 132 137
f 190 129 134
f 190 134 132
f 191 137 27
f 191 27 77
f 191 77 75
f 191 75 136
f 192 141 140
f 192 140 94
f 193 143 84
f 193 84 194
f 195 194 84
f 195 84 83
f 196 63 81
f 196 76 63
f 197 193 194
f 198 146 24
f 198 24 152
f 198 152 92
f 199 200 201
f 202 186 128
f 202 128 70
f 202 187 186
f 203 127 185
f 203 185 187
f 204 201 88
f 204 88 87
f 204 165 127
f 205 100 159
f 205 159 160
f 205 160 1
f 205 1 102
f 205 102 100
f 206 108 161
f 206 161 1
f 206 1 28
f 206 28 108
f 207 176 208
f 207 162 164
f 207 164 176
f 209 91 162
f 209 162 207
f 209 207 105
f 209 105 86
f 209 86 91
f 210 114 166
f 210 150 167
f 210 167 114
f 211 143 166
f 211 166 22
f 211 22 82
f 211 82 84
f 211 84 143
f 212 151 169
f 212 169 115
f 212 115 112
f 213 169 168
f 213 168 115
f 213 115 169
f 214 93 50
f 214 50 110
f 214 110 172
f 214 172 171
f 214 171 94
f 214 94 93
f 215 168 150
f 215 170 172
f 215 172 173
f 215 173 115
f 215 115 168
f 216 42 175
f 216 175 217
f 216 217 174
f 216 174 15
f 216 15 42
f 218 176 175
f 218 175 42
f 218 42 160
f 218 160 99
f 218 99 101
f 218 101 176
f 219 177 116
f 219 116 174
f 219 174 217
f 220 75 117
f 220 117 179
f 220 179 79
f 220 79 75
f 221 178 180
f 221 117 178
f 222 117 221
f 222 221 180
f 222 180 54
f 222 54 119
f 222 119 179
f 222 179 117
f 223 202 70
f 223 70 71
f 223 71 124
f 223 124 183
f 223 183 184
f 224 72 128
f 224 128 186
f 224 186 185
f 224 185 126
f 224 126 125
f 224 125 10
f 224 10 72
f 225 25 188
f 226 189 131
f 227 190 137
f 227 197 194
f 228 137 191
f 228 191 136
f 228 136 138
f 228 138 76
f 229 171 144
f 229 144 230
f 229 230 192
f 229 192 94
f 229 94 171
f 231 141 192
f 231 192 230
f 231 81 141
f 232 201 200
f 232 233 148
f 232 148 88
f 232 88 201
f 234 143 193
f 234 230 144
f 234 144 143
f 235 142 130
f 235 130 195
f 235 195 83
f 235 83 142
f 236 193 197
f 236 197 196
f 236 196 81
f 236 81 231
f 236 231 230
f 236 230 234
f 236 234 193
f 237 148 233
f 237 85 146
f 237 146 198
f 237 198 92
f 237 92 148
f 238 199 187
f 238 187 202
f 238 202 223
f 238 223 184
f 239 201 204
f 239 204 127
f 239 127 203
f 239 203 187
f 239 187 199
f 239 199 201
f 240 106 165
f 240 165 204
f 240 204 87
f 240 87 105
f 240 107 106
f 241 101 102
f 241 102 161
f 241 208 176
f 241 176 101
f 242 105 207
f 242 207 208
f 242 107 240
f 242 240 105
f 243 177 219
f 243 212 112
f 243 112 177
f 244 170 215
f 244 215 150
f 244 150 210
f 244 210 166
f 244 166 170
f 245 175 164
f 245 164 163
f 245 163 243
f 245 243 219
f 245 219 217
f 245 217 175
f 246 25 225
f 246 184 26
f 246 26 25
f 247 133 189
f 247 189 226
f 247 225 188
f 247 188 133
f 248 225 247
f 248 247 226
f 248 226 233
f 248 233 232
f 248 232 200
f 248 200 225
f 249 142 85
f 249 85 237
f 249 237 233
f 249 233 226
f 249 226 131
f 249 131 142
f 250 130 129
f 250 129 190
f 250 190 227
f 250 227 194
f 250 194 195
f 250 195 130
f 251 227 137
f 251 137 228
f 251 228 76
f 251 76 196
f 251 196 197
f 251 197 227
f 252 208 241
f 252 241 161
f 252 161 107
f 252 107 242
f 252 242 208
f 253 151 212
f 253 212 243
f 253 243 163
f 253 163 90
f 253 90 153
f 253 153 149
f 253 149 151
f 254 184 246
f 254 246 225
f 254 225 200
f 254 200 199
f 254 199 238
f 254 238 184
