# Convex hull collision mesh — generated by scripts/generate-collision-meshes.mjs (units: meters)
v -0.000000 -0.000000 0.000000
v -0.000000 0.000000 0.009000
v 0.062000 0.000000 0.009000
v -0.000000 -0.004100 0.008400
v 0.029521 -0.007000 0.009500
v 0.062000 0.000000 0.000000
v 0.062000 -0.000900 0.000000
v 0.029886 -0.007000 -0.000487
v -0.000000 -0.000900 0.009000
v -0.000000 -0.004090 0.000557
v 0.062000 -0.000900 0.009000
v 0.029156 -0.007000 -0.000487
v -0.000000 -0.004022 0.008497
v -0.000000 -0.000900 0.000000
v 0.029886 -0.010000 -0.000487
v 0.032577 -0.010000 0.000543
v 0.031968 -0.010000 0.000140
v 0.031307 -0.010000 -0.000170
v -0.000000 -0.004022 0.000503
v 0.029521 -0.010000 0.009500
v 0.028793 -0.010000 0.009447
v 0.030249 -0.010000 0.009447
v 0.033120 -0.010000 0.001030
v 0.033587 -0.010000 0.001591
v 0.033968 -0.010000 0.002214
v 0.029156 -0.010000 -0.000487
v 0.025921 -0.010000 0.001030
v 0.028848 -0.010461 0.003938
v 0.025454 -0.010000 0.001591
v 0.029913 -0.010461 0.003716
v -0.000000 -0.004062 0.000522
v 0.034123 -0.010000 0.006456
v 0.034358 -0.010000 0.005765
v 0.034491 -0.010000 0.005047
v -0.000000 -0.004090 0.008443
v 0.027399 -0.010000 0.009027
v 0.028080 -0.010000 0.009288
v 0.026762 -0.010000 0.008670
v -0.000000 -0.004100 0.000600
v 0.025074 -0.010000 0.002214
v 0.024789 -0.010000 0.002886
v 0.034253 -0.010000 0.002886
v 0.034438 -0.010000 0.003592
v 0.024919 -0.010000 0.006456
v 0.028727 -0.010461 0.004872
v 0.025253 -0.010000 0.007105
v 0.028977 -0.010461 0.003812
v 0.026465 -0.010000 0.000543
v 0.029050 -0.010461 0.003760
v 0.029521 -0.010500 0.004500
v 0.027074 -0.010000 0.000140
v 0.027735 -0.010000 -0.000170
v 0.029476 -0.010461 0.003624
v 0.030248 -0.010461 0.004011
v 0.030608 -0.010000 -0.000380
v -0.000000 -0.004043 0.000510
v 0.028434 -0.010000 -0.000380
v -0.000000 -0.004078 0.000538
v 0.029611 -0.010461 0.005372
v 0.030961 -0.010000 0.009288
v 0.034517 -0.010000 0.004317
v -0.000000 -0.004062 0.008478
v -0.000000 -0.004097 0.000578
v 0.024683 -0.010000 0.005765
v 0.024551 -0.010000 0.005047
v 0.024604 -0.010000 0.003592
v 0.028709 -0.010461 0.004170
v -0.000000 -0.004097 0.008422
v 0.025678 -0.010000 0.007698
v 0.026184 -0.010000 0.008224
v 0.028909 -0.010461 0.003872
v 0.029298 -0.010461 0.003652
v 0.030333 -0.010461 0.004170
v 0.029566 -0.010461 0.003624
v 0.029744 -0.010461 0.003652
v 0.029431 -0.010461 0.005372
v 0.029700 -0.010461 0.005358
v 0.032857 -0.010000 0.008224
v 0.033364 -0.010000 0.007698
v 0.032280 -0.010000 0.008670
v 0.030374 -0.010461 0.004701
v 0.033789 -0.010000 0.007105
v 0.031643 -0.010000 0.009027
v 0.029872 -0.010461 0.005303
v -0.000000 -0.004043 0.008490
v -0.000000 -0.004078 0.008462
v 0.028693 -0.010461 0.004788
v 0.024524 -0.010000 0.004317
v 0.028647 -0.010461 0.004432
v 0.028679 -0.010461 0.004255
v 0.028747 -0.010461 0.004088
v 0.029212 -0.010461 0.003680
v 0.029386 -0.010461 0.003634
v 0.030295 -0.010461 0.004088
v 0.030363 -0.010461 0.004255
v 0.030383 -0.010461 0.004343
v 0.029991 -0.010461 0.003760
v 0.030065 -0.010461 0.003812
v 0.030133 -0.010461 0.003872
v 0.029830 -0.010461 0.003680
v 0.029656 -0.010461 0.003634
v 0.029341 -0.010461 0.005358
v 0.029521 -0.010461 0.005377
v 0.029787 -0.010461 0.005335
v 0.030029 -0.010461 0.005215
v 0.030397 -0.010461 0.004523
v 0.030349 -0.010461 0.004788
v 0.028667 -0.010461 0.004701
v 0.028651 -0.010461 0.004613
v 0.028644 -0.010461 0.004523
v 0.028658 -0.010461 0.004343
v 0.028793 -0.010461 0.004011
v 0.029129 -0.010461 0.003716
v 0.030194 -0.010461 0.003938
v 0.029170 -0.010461 0.005303
v 0.030164 -0.010461 0.005096
v 0.029953 -0.010461 0.005263
v 0.030395 -0.010461 0.004432
v 0.030390 -0.010461 0.004613
v 0.030315 -0.010461 0.004872
v 0.030273 -0.010461 0.004951
v 0.029089 -0.010461 0.005263
v 0.029254 -0.010461 0.005335
v 0.030222 -0.010461 0.005026
v 0.030100 -0.010461 0.005159
v 0.028877 -0.010461 0.005096
v 0.029013 -0.010461 0.005215
v 0.028820 -0.010461 0.005026
v 0.028942 -0.010461 0.005159
v 0.028769 -0.010461 0.004951
f 1 2 3
f 4 2 1
f 5 3 2
f 6 7 8
f 6 8 1
f 6 1 3
f 6 3 7
f 9 2 4
f 9 5 2
f 10 4 1
f 11 3 5
f 11 7 3
f 12 1 8
f 13 9 4
f 14 10 1
f 14 1 12
f 15 12 8
f 15 8 7
f 16 17 7
f 18 7 17
f 19 10 14
f 20 5 9
f 20 9 13
f 20 13 21
f 20 22 11
f 20 11 5
f 23 16 7
f 23 7 24
f 25 24 7
f 26 19 14
f 26 14 12
f 26 12 15
f 27 28 29
f 30 18 17
f 31 10 19
f 32 33 11
f 34 11 33
f 35 36 37
f 35 13 4
f 35 38 36
f 39 40 41
f 39 4 10
f 42 25 7
f 42 7 43
f 44 45 46
f 47 48 49
f 47 49 50
f 51 49 48
f 51 10 52
f 53 26 15
f 54 24 25
f 55 15 7
f 55 7 18
f 56 26 57
f 56 57 31
f 56 31 19
f 56 19 26
f 58 10 31
f 58 31 57
f 58 57 52
f 58 52 10
f 59 22 20
f 60 11 22
f 61 7 11
f 61 11 34
f 61 43 7
f 62 13 35
f 62 37 21
f 63 27 29
f 63 29 40
f 63 40 39
f 63 39 10
f 63 10 51
f 63 51 48
f 63 48 27
f 64 44 4
f 64 4 65
f 66 39 41
f 67 41 40
f 68 35 4
f 68 4 44
f 68 44 46
f 68 46 69
f 68 69 70
f 68 70 38
f 68 38 35
f 71 27 48
f 71 48 47
f 71 47 50
f 71 50 28
f 71 28 27
f 72 52 57
f 73 25 42
f 74 53 15
f 74 50 53
f 75 55 18
f 76 20 21
f 77 60 22
f 77 22 59
f 77 59 50
f 78 79 11
f 78 11 80
f 81 34 33
f 82 32 11
f 82 11 79
f 83 80 11
f 83 11 60
f 83 60 84
f 85 13 62
f 85 62 21
f 85 21 13
f 86 37 62
f 86 62 35
f 86 35 37
f 87 44 64
f 87 50 45
f 87 45 44
f 88 65 4
f 88 4 39
f 88 39 66
f 88 66 89
f 90 66 41
f 90 41 67
f 90 67 50
f 91 50 67
f 91 67 40
f 92 52 72
f 92 72 50
f 93 53 50
f 93 50 72
f 93 72 57
f 93 57 26
f 93 26 53
f 94 54 25
f 94 25 73
f 94 73 50
f 94 50 54
f 95 96 50
f 95 50 73
f 95 73 42
f 95 42 43
f 95 43 96
f 97 17 16
f 97 16 98
f 97 98 50
f 97 50 30
f 97 30 17
f 99 50 98
f 99 98 16
f 99 16 23
f 100 50 75
f 100 75 18
f 100 18 30
f 100 30 50
f 101 74 15
f 101 15 55
f 101 55 75
f 101 75 50
f 101 50 74
f 102 50 76
f 102 76 21
f 102 21 37
f 103 59 20
f 103 20 76
f 103 76 50
f 103 50 59
f 104 60 77
f 104 77 50
f 104 50 84
f 104 84 60
f 105 78 80
f 106 61 34
f 107 50 81
f 107 81 33
f 107 33 32
f 108 109 50
f 108 50 87
f 108 87 64
f 108 64 65
f 108 65 109
f 110 109 65
f 110 65 88
f 110 88 89
f 110 89 50
f 110 50 109
f 111 66 90
f 111 90 50
f 111 50 89
f 111 89 66
f 112 29 28
f 112 28 50
f 112 50 91
f 112 91 40
f 112 40 29
f 113 51 52
f 113 52 92
f 113 92 50
f 113 50 49
f 113 49 51
f 114 54 50
f 114 50 99
f 114 99 23
f 114 23 24
f 114 24 54
f 115 37 36
f 116 79 78
f 117 50 105
f 117 105 80
f 117 80 83
f 117 83 84
f 117 84 50
f 118 61 106
f 118 106 50
f 118 50 96
f 118 96 43
f 118 43 61
f 119 81 50
f 119 50 106
f 119 106 34
f 119 34 81
f 120 121 50
f 120 50 107
f 120 107 32
f 120 32 82
f 120 82 121
f 122 50 115
f 122 115 36
f 122 36 38
f 123 102 37
f 123 37 115
f 123 115 50
f 123 50 102
f 124 79 116
f 124 116 50
f 124 50 121
f 124 121 82
f 124 82 79
f 125 105 50
f 125 50 116
f 125 116 78
f 125 78 105
f 126 70 69
f 127 50 122
f 127 122 38
f 127 38 70
f 128 50 126
f 128 126 69
f 128 69 46
f 129 126 50
f 129 50 127
f 129 127 70
f 129 70 126
f 130 45 50
f 130 50 128
f 130 128 46
f 130 46 45
