# Convex hull collision mesh — generated by scripts/generate-collision-meshes.mjs (units: meters)
v 0.026340 0.035560 0.000000
v 0.026340 0.035560 -0.001075
v 0.000000 0.035560 -0.001075
v 0.026340 0.000000 -0.001075
v 0.026340 0.000000 0.000000
v 0.018352 0.002062 0.001247
v 0.000000 0.000000 0.000000
v 0.016580 0.034143 0.008890
v 0.016130 0.034343 0.008490
v 0.008710 0.034143 0.008890
v 0.016330 0.033893 0.008890
v 0.008710 0.033893 0.008890
v 0.000000 0.000000 -0.001075
v 0.016330 0.033893 -0.003048
v 0.016330 0.034143 -0.003048
v 0.016580 0.033893 -0.003048
v 0.016780 0.034343 0.008490
v 0.007819 0.035288 0.002540
v 0.016580 0.033893 0.008890
v 0.018122 0.002062 0.001247
v 0.000723 0.012825 0.001181
v 0.000787 0.027578 0.001456
v 0.008710 0.033893 -0.003048
v 0.016580 0.034143 -0.003048
v 0.000000 0.035560 0.000000
v 0.000768 0.027580 0.001432
v 0.000776 0.027580 0.001445
v 0.011700 0.034343 0.008490
v 0.017471 0.035288 0.002540
v 0.018575 0.002117 0.001247
v 0.000769 0.027356 0.001434
v 0.008710 0.034143 -0.003048
v 0.008510 0.034343 0.008490
v 0.000770 0.027131 0.001436
v 0.000779 0.027132 0.001449
v 0.000790 0.027133 0.001459
v 0.000777 0.027356 0.001447
v 0.000716 0.012818 0.001172
v 0.000788 0.027356 0.001458
f 1 2 3
f 1 4 2
f 5 6 7
f 5 7 4
f 5 4 1
f 5 1 8
f 9 10 8
f 11 8 10
f 12 6 11
f 12 11 10
f 13 7 3
f 13 14 4
f 13 4 7
f 15 3 2
f 16 4 14
f 16 14 15
f 16 2 4
f 17 18 9
f 17 9 8
f 17 8 1
f 19 5 8
f 19 8 11
f 19 11 6
f 20 6 12
f 20 12 7
f 20 7 6
f 21 7 12
f 22 12 10
f 23 14 13
f 23 13 3
f 23 15 14
f 24 2 16
f 24 16 15
f 24 15 2
f 25 18 1
f 25 1 3
f 25 3 7
f 25 26 27
f 25 27 22
f 25 22 10
f 28 9 18
f 28 10 9
f 29 18 17
f 29 17 1
f 29 1 18
f 30 5 19
f 30 19 6
f 30 6 5
f 31 27 26
f 31 26 25
f 32 15 23
f 32 23 3
f 32 3 15
f 33 25 10
f 33 10 28
f 33 28 18
f 33 18 25
f 34 31 25
f 34 25 7
f 34 7 35
f 34 27 31
f 36 35 21
f 36 21 12
f 37 27 34
f 37 34 35
f 37 35 22
f 37 22 27
f 38 21 35
f 38 35 7
f 38 7 21
f 39 22 35
f 39 35 36
f 39 36 12
f 39 12 22
