# Normalized convex hull collision mesh - generated by scripts/generate-collision-meshes.mjs (units: meters)
v 0.003633 0.009528 -0.030000
v 0.010246 0.000000 -0.030000
v -0.007670 0.006757 -0.030000
v -0.009949 -0.002439 -0.030000
v -0.001235 0.010116 -0.030000
v 0.009073 0.004736 -0.030000
v 0.001235 -0.010116 -0.030000
v -0.005112 -0.011419 0.010762
v -0.005038 -0.010405 0.019154
v -0.007388 -0.010113 0.010762
v -0.005821 0.008386 -0.030000
v 0.001235 0.010116 -0.030000
v -0.000000 0.012500 -0.025204
v 0.005821 0.008386 -0.030000
v 0.005112 0.011419 -0.025204
v 0.009949 0.002439 -0.030000
v 0.012500 0.001307 -0.025204
v 0.007240 0.009029 0.019154
v 0.006814 0.008498 0.020833
v 0.009079 0.007201 0.019154
v 0.009340 0.008364 0.010762
v -0.009949 0.002439 -0.030000
v -0.000000 0.012500 0.010762
v -0.002613 0.012227 0.010762
v 0.002613 0.012227 -0.025204
v 0.005112 0.011419 0.010762
v 0.007388 0.010113 -0.025204
v 0.009340 0.008364 -0.025204
v 0.011954 0.003863 -0.025204
v 0.007670 -0.006757 -0.030000
v -0.002613 -0.012227 0.010762
v -0.000000 -0.012500 -0.025204
v -0.000000 -0.012500 0.010762
v -0.011954 -0.003863 -0.025204
v -0.012500 -0.001307 -0.025204
v -0.010885 -0.006250 0.010762
v -0.010885 -0.006250 -0.025204
v -0.005821 -0.008386 -0.030000
v 0.007670 0.006757 -0.030000
v 0.002432 0.010597 0.020833
v 0.002584 0.011259 0.019154
v -0.000000 0.010870 0.020833
v 0.003511 0.004164 0.026388
v 0.002407 0.004879 0.026388
v 0.007388 0.010113 0.010762
v 0.005038 0.010405 0.019154
v 0.008545 0.006777 0.020833
v 0.004411 0.003208 0.026388
v -0.010246 0.000000 -0.030000
v -0.009073 0.004736 -0.030000
v -0.010885 0.006250 -0.025204
v -0.012500 0.001307 -0.025204
v -0.012500 0.001307 0.010762
v -0.007388 0.010113 -0.025204
v -0.007388 0.010113 0.010762
v -0.005112 0.011419 -0.025204
v -0.003633 0.009528 -0.030000
v -0.005112 0.011419 0.010762
v -0.005038 0.010405 0.019154
v -0.002613 0.012227 -0.025204
v -0.000000 0.011549 0.019154
v 0.002613 0.012227 0.010762
v 0.010885 0.006250 0.010762
v 0.002613 -0.012227 0.010762
v 0.005112 -0.011419 -0.025204
v 0.005112 -0.011419 0.010762
v 0.007388 -0.010113 0.010762
v 0.005038 -0.010405 0.019154
v 0.001170 0.000664 0.029833
v 0.001264 0.000515 0.029800
v 0.005055 0.002064 0.026388
v 0.011954 0.003863 0.010762
v 0.011954 -0.003863 0.010762
v 0.010885 -0.006250 0.010762
v 0.011954 -0.003863 -0.025204
v 0.012500 -0.001307 0.010762
v 0.012500 -0.001307 -0.025204
v 0.010885 -0.006250 -0.025204
v 0.009340 -0.008364 -0.025204
v 0.009073 -0.004736 -0.030000
v 0.007388 -0.010113 -0.025204
v 0.002613 -0.012227 -0.025204
v 0.005821 -0.008386 -0.030000
v -0.009079 -0.007201 0.019154
v -0.010463 -0.005011 0.019154
v -0.002407 -0.004879 0.026388
v -0.003511 -0.004164 0.026388
v -0.006814 -0.008498 0.020833
v -0.002584 -0.011259 0.019154
v -0.000000 -0.010870 0.020833
v -0.002432 -0.010597 0.020833
v -0.009340 -0.008364 0.010762
v -0.012500 -0.001307 0.010762
v -0.001235 -0.010116 -0.030000
v -0.007388 -0.010113 -0.025204
v -0.007670 -0.006757 -0.030000
v 0.001163 0.005310 0.026388
v 0.004742 0.009793 0.020833
v -0.011954 0.003863 0.010762
v -0.011321 0.002570 0.019154
v -0.009340 0.008364 -0.025204
v -0.002584 0.011259 0.019154
v -0.002432 0.010597 0.020833
v 0.010885 0.006250 -0.025204
v 0.002584 -0.011259 0.019154
v 0.002432 -0.010597 0.020833
v 0.000891 0.000984 0.029845
v -0.004580 0.002965 0.026388
v -0.003733 0.003969 0.026388
v -0.008545 0.006777 0.020833
v 0.010463 0.005011 0.019154
v 0.009949 -0.002439 -0.030000
v 0.003633 -0.009528 -0.030000
v -0.007240 -0.009029 0.019154
v -0.008545 -0.006777 0.020833
v -0.004411 -0.003208 0.026388
v 0.000148 -0.005433 0.026388
v -0.004742 -0.009793 0.020833
v -0.000000 -0.011549 0.019154
v -0.011954 -0.003863 0.010762
v -0.011613 0.000000 0.019154
v -0.005112 -0.011419 -0.025204
v -0.009073 -0.004736 -0.030000
v -0.009340 -0.008364 -0.025204
v -0.000148 0.005433 0.026388
v -0.001451 0.005240 0.026388
v -0.007240 0.009029 0.019154
v -0.010463 0.005011 0.019154
v -0.010655 0.002419 0.020833
v -0.011954 0.003863 -0.025204
v 0.009340 -0.008364 0.010762
v 0.009079 -0.007201 0.019154
v 0.004580 -0.002965 0.026388
v 0.009847 -0.004716 0.020833
v 0.005160 -0.001789 0.026388
v 0.000504 0.001183 0.029865
v -0.000891 -0.000984 0.029845
v -0.004742 0.009793 0.020833
v -0.002670 0.004742 0.026388
v 0.012500 0.001307 0.010762
v 0.010463 -0.005011 0.019154
v 0.001451 -0.005240 0.026388
v -0.011321 -0.002570 0.019154
v -0.010655 -0.002419 0.020833
v -0.003633 -0.009528 -0.030000
v -0.002613 -0.012227 -0.025204
v -0.005441 0.000508 0.026388
v -0.005160 0.001789 0.026388
v -0.005405 -0.000801 0.026388
v -0.001326 0.000178 0.029840
v 0.011613 0.000000 0.019154
v 0.010655 -0.002419 0.020833
v 0.010655 0.002419 0.020833
v 0.005405 0.000801 0.026388
v 0.010929 0.000000 0.020833
v -0.009847 0.004716 0.020833
v -0.009340 0.008364 0.010762
v -0.009079 0.007201 0.019154
v 0.004742 -0.009793 0.020833
v 0.006814 -0.008498 0.020833
v 0.002670 -0.004742 0.026388
v 0.008545 -0.006777 0.020833
v 0.007240 -0.009029 0.019154
v 0.003733 -0.003969 0.026388
v 0.001014 -0.000811 0.029861
v 0.000132 0.001339 0.029828
v 0.000666 0.001187 0.029800
v -0.001163 -0.005310 0.026388
v -0.001325 -0.000270 0.029828
v -0.006814 0.008498 0.020833
v -0.009847 -0.004716 0.020833
v -0.010929 0.000000 0.020833
v 0.011321 -0.002570 0.019154
v 0.009847 0.004716 0.020833
v 0.011321 0.002570 0.019154
v -0.010885 0.006250 0.010762
v 0.001182 -0.000626 0.029840
v 0.005441 -0.000508 0.026388
v 0.001292 0.000233 0.029855
v 0.001067 0.000550 0.029895
v 0.001163 0.000091 0.029904
v 0.001287 -0.000222 0.029859
v 0.000873 0.000336 0.029946
v 0.000715 0.000789 0.029925
v -0.000316 0.001293 0.029840
v 0.000383 0.001304 0.029800
v -0.000098 -0.001302 0.029855
v -0.001237 -0.000173 0.029881
v -0.001072 0.000010 0.029924
v -0.001233 0.000281 0.029876
v -0.005055 -0.002064 0.026388
v -0.001264 -0.000515 0.029800
v 0.001231 -0.000572 0.029821
v 0.001350 -0.000151 0.029821
v 0.001107 -0.000709 0.029854
v 0.001005 -0.000533 0.029911
v 0.001167 -0.000354 0.029890
v 0.000967 -0.000126 0.029940
v 0.000611 0.000047 0.029979
v 0.000725 -0.000393 0.029959
v 0.000824 0.000910 0.029887
v -0.000784 0.001065 0.029847
v 0.000397 0.000438 0.029980
v -0.001131 -0.000621 0.029865
v -0.001062 0.000758 0.029858
v -0.000721 0.001135 0.029831
v 0.000353 0.001016 0.029922
v -0.000543 -0.001227 0.029833
v 0.000821 -0.000736 0.029918
v 0.000749 -0.001104 0.029840
v 0.000824 -0.001021 0.029854
v -0.000203 -0.000225 0.029995
v -0.000397 -0.000438 0.029980
v 0.000016 -0.000609 0.029979
v 0.000468 -0.000676 0.029959
v 0.000227 -0.000943 0.029940
v 0.000637 -0.000939 0.029911
v -0.001117 -0.000782 0.029800
v -0.001147 0.000664 0.029847
v 0.000044 0.001242 0.029881
v 0.000570 0.000629 0.029956
v -0.000383 -0.001304 0.029800
v 0.000916 -0.000919 0.029861
v 0.000700 -0.001158 0.029821
v 0.000356 -0.001250 0.029859
v 0.000292 -0.001320 0.029821
v 0.000030 -0.001160 0.029904
v 0.000476 -0.001117 0.029890
v 0.000314 -0.000281 0.029990
v -0.000000 0.000000 0.030000
v -0.000439 -0.001112 0.029895
v -0.000570 -0.000629 0.029956
v -0.000748 -0.000199 0.029965
v -0.000824 -0.000910 0.029887
v -0.000715 -0.000789 0.029925
v -0.000980 -0.000454 0.029922
v -0.001210 0.000595 0.029831
v -0.000850 0.000255 0.029952
v -0.001090 0.000439 0.029902
v -0.000915 0.000633 0.029916
v -0.000409 0.001190 0.029876
v -0.000245 -0.000898 0.029946
v 0.000203 0.000225 0.029995
v -0.000163 0.000448 0.029987
v 0.000121 0.000761 0.029965
v -0.000344 0.000814 0.029952
v -0.000465 0.000114 0.029987
v -0.000869 0.000972 0.029858
v -0.000121 0.001059 0.029924
v -0.000597 0.000535 0.029962
v -0.000728 0.000839 0.029916
v -0.000965 0.000865 0.029862
v -0.000552 0.001032 0.029902
f 1 2 3
f 4 3 2
f 5 1 3
f 6 2 1
f 7 4 2
f 8 9 10
f 11 5 3
f 12 1 5
f 12 5 13
f 14 6 1
f 14 1 15
f 16 2 6
f 16 17 2
f 18 19 20
f 18 20 21
f 22 3 4
f 23 13 24
f 25 26 15
f 25 15 1
f 25 1 12
f 25 12 13
f 25 13 23
f 27 14 15
f 27 15 26
f 27 21 28
f 29 17 16
f 29 16 6
f 30 7 2
f 31 32 33
f 34 35 4
f 36 34 37
f 38 4 7
f 39 6 14
f 39 14 27
f 39 27 28
f 40 41 42
f 43 19 44
f 45 18 21
f 45 21 27
f 45 27 26
f 46 19 18
f 46 18 45
f 46 45 26
f 46 26 41
f 47 19 43
f 47 43 48
f 47 20 19
f 49 22 4
f 49 4 35
f 50 3 22
f 50 51 3
f 52 35 53
f 52 22 49
f 52 49 35
f 54 55 56
f 54 56 11
f 54 11 3
f 57 11 56
f 57 5 11
f 58 24 56
f 58 56 55
f 58 55 59
f 60 5 57
f 60 57 56
f 60 56 24
f 60 24 13
f 60 13 5
f 61 42 41
f 61 23 24
f 62 26 25
f 62 25 23
f 62 23 61
f 62 61 41
f 62 41 26
f 63 21 20
f 63 28 21
f 64 33 32
f 64 65 66
f 67 68 66
f 67 66 65
f 69 70 71
f 69 71 48
f 72 29 63
f 72 17 29
f 73 74 75
f 73 75 76
f 77 76 75
f 77 2 17
f 77 17 76
f 78 79 30
f 78 75 74
f 78 74 79
f 80 75 78
f 80 78 30
f 80 30 2
f 81 79 67
f 81 67 65
f 81 30 79
f 82 65 64
f 82 64 32
f 82 32 7
f 83 30 81
f 83 81 65
f 83 7 30
f 84 85 36
f 86 87 88
f 89 8 31
f 89 90 91
f 89 91 9
f 89 9 8
f 92 84 36
f 92 36 37
f 93 53 35
f 93 35 34
f 94 38 7
f 94 7 32
f 95 8 10
f 95 10 92
f 96 4 38
f 96 38 95
f 97 44 40
f 97 40 42
f 98 40 44
f 98 44 19
f 98 19 46
f 98 46 41
f 98 41 40
f 99 53 100
f 99 52 53
f 101 55 54
f 101 54 3
f 101 3 51
f 102 59 103
f 102 103 42
f 102 42 61
f 102 61 24
f 102 24 58
f 102 58 59
f 104 28 63
f 104 63 29
f 104 29 6
f 104 6 39
f 104 39 28
f 105 106 90
f 105 64 66
f 105 66 68
f 107 43 44
f 107 69 48
f 107 48 43
f 108 109 110
f 111 20 47
f 111 72 63
f 111 63 20
f 112 75 80
f 112 80 2
f 112 2 77
f 112 77 75
f 113 7 83
f 113 83 65
f 113 65 82
f 113 82 7
f 114 9 88
f 114 88 84
f 114 84 92
f 114 92 10
f 114 10 9
f 115 85 84
f 115 84 88
f 115 88 87
f 115 87 116
f 117 90 106
f 118 88 9
f 118 9 91
f 118 91 86
f 118 86 88
f 119 33 64
f 119 64 105
f 119 105 90
f 119 90 89
f 119 89 31
f 119 31 33
f 120 36 85
f 120 93 34
f 120 34 36
f 121 100 53
f 121 53 93
f 122 31 8
f 122 8 95
f 122 95 38
f 123 4 96
f 123 96 37
f 123 37 34
f 123 34 4
f 124 37 96
f 124 96 95
f 124 95 92
f 124 92 37
f 125 97 42
f 125 42 103
f 125 103 126
f 127 59 55
f 128 99 100
f 128 100 129
f 130 52 99
f 130 99 51
f 130 51 50
f 130 50 22
f 130 22 52
f 131 74 132
f 131 67 79
f 131 79 74
f 133 134 135
f 136 44 97
f 137 116 87
f 138 103 59
f 138 139 126
f 138 126 103
f 140 76 17
f 140 17 72
f 141 132 74
f 141 74 73
f 142 117 106
f 143 120 85
f 143 85 144
f 143 121 93
f 143 93 120
f 145 122 38
f 145 38 94
f 146 32 31
f 146 31 122
f 146 122 145
f 146 145 94
f 146 94 32
f 147 148 129
f 147 149 150
f 147 150 148
f 151 76 140
f 152 134 141
f 152 135 134
f 153 71 154
f 153 154 155
f 156 110 128
f 156 128 129
f 156 129 148
f 156 148 108
f 156 108 110
f 157 55 101
f 157 101 51
f 157 127 55
f 158 127 157
f 158 128 110
f 159 106 105
f 159 105 68
f 159 68 160
f 159 160 161
f 159 161 142
f 159 142 106
f 162 134 133
f 162 160 132
f 162 132 141
f 162 141 134
f 163 132 160
f 163 160 68
f 163 68 67
f 163 67 131
f 163 131 132
f 164 161 160
f 164 160 162
f 164 162 133
f 164 133 165
f 166 97 125
f 167 44 136
f 167 136 107
f 167 107 44
f 168 86 91
f 168 91 90
f 168 90 117
f 169 150 149
f 170 127 158
f 170 158 110
f 170 110 109
f 170 109 139
f 170 139 138
f 170 138 59
f 170 59 127
f 171 115 116
f 171 144 85
f 171 85 115
f 172 144 149
f 172 149 147
f 172 147 129
f 172 129 100
f 172 100 121
f 172 121 143
f 172 143 144
f 173 151 155
f 173 155 152
f 173 152 141
f 173 141 73
f 173 73 76
f 173 76 151
f 174 47 48
f 174 48 71
f 174 71 153
f 174 153 111
f 174 111 47
f 175 151 140
f 175 140 72
f 175 72 111
f 175 111 153
f 175 153 155
f 175 155 151
f 176 99 128
f 176 128 158
f 176 158 157
f 176 157 51
f 176 51 99
f 177 133 135
f 178 135 152
f 178 152 155
f 178 155 154
f 179 70 69
f 179 69 180
f 179 180 181
f 179 181 182
f 179 154 71
f 179 71 70
f 183 181 180
f 184 183 180
f 185 126 139
f 185 166 125
f 185 125 126
f 186 97 166
f 186 166 136
f 186 136 97
f 187 168 117
f 188 189 190
f 188 190 150
f 188 150 169
f 191 149 144
f 191 144 171
f 191 171 116
f 191 192 169
f 191 169 149
f 193 182 177
f 193 177 135
f 193 135 182
f 194 178 154
f 194 154 179
f 194 179 182
f 194 182 135
f 194 135 178
f 195 196 165
f 195 165 133
f 195 133 177
f 197 196 195
f 197 195 177
f 197 177 182
f 197 182 181
f 198 181 183
f 198 183 199
f 198 199 200
f 198 200 196
f 198 196 197
f 198 197 181
f 201 107 136
f 201 184 180
f 201 180 69
f 201 69 107
f 202 139 109
f 203 199 183
f 204 188 169
f 204 169 192
f 204 192 191
f 204 191 116
f 205 109 108
f 206 139 202
f 206 185 139
f 207 184 201
f 207 201 136
f 208 137 87
f 208 87 86
f 208 86 168
f 209 196 200
f 209 165 196
f 210 161 164
f 210 164 211
f 212 213 214
f 215 214 216
f 215 216 217
f 215 217 209
f 215 209 200
f 218 137 204
f 218 204 116
f 218 116 137
f 219 205 108
f 220 166 185
f 220 207 136
f 220 136 166
f 221 184 207
f 221 203 183
f 221 183 184
f 222 187 208
f 222 208 168
f 222 168 187
f 223 165 209
f 223 209 217
f 223 217 211
f 223 211 164
f 223 164 165
f 224 161 210
f 224 210 225
f 224 225 142
f 224 142 161
f 226 187 117
f 226 117 142
f 226 142 225
f 226 225 187
f 227 187 225
f 228 211 217
f 228 217 216
f 228 216 227
f 228 227 225
f 228 225 210
f 228 210 211
f 229 214 215
f 229 215 200
f 229 200 199
f 229 230 212
f 229 212 214
f 231 208 187
f 231 187 227
f 232 213 233
f 234 137 208
f 234 208 231
f 234 231 235
f 234 204 137
f 236 204 234
f 236 234 235
f 236 235 232
f 236 232 233
f 236 233 189
f 236 189 188
f 236 188 204
f 237 190 219
f 237 219 108
f 237 108 148
f 237 148 150
f 237 150 190
f 238 189 233
f 239 190 189
f 239 189 238
f 239 238 240
f 239 240 205
f 239 205 219
f 239 219 190
f 241 220 185
f 241 185 206
f 241 206 202
f 242 216 214
f 242 214 213
f 242 213 232
f 242 232 235
f 242 235 231
f 242 231 227
f 242 227 216
f 243 203 244
f 243 244 230
f 243 230 229
f 243 229 199
f 243 199 203
f 245 246 244
f 245 244 203
f 245 203 221
f 245 221 207
f 247 238 233
f 247 233 213
f 247 213 212
f 247 212 230
f 247 230 244
f 248 202 109
f 249 220 241
f 249 246 245
f 249 245 207
f 249 207 220
f 250 238 247
f 250 247 244
f 250 244 246
f 250 246 251
f 250 251 240
f 250 240 238
f 252 251 248
f 252 248 109
f 252 109 205
f 252 205 240
f 252 240 251
f 253 241 202
f 253 202 248
f 253 248 251
f 253 251 246
f 253 246 249
f 253 249 241
