# Convex hull collision mesh — generated by scripts/generate-collision-meshes.mjs (units: meters)
v -0.103400 0.119460 0.045529
v -0.115589 0.154410 0.045529
v -0.116026 0.155034 -0.027496
v -0.021710 -0.012700 -0.004755
v 0.002731 -0.012700 -0.022057
v -0.006738 -0.012700 0.021179
v 0.009289 -0.012700 0.020191
v 0.020467 -0.012700 0.008663
v 0.115769 0.155153 0.009017
v 0.116403 0.158715 -0.009017
v 0.116403 0.158715 0.009017
v 0.115538 0.154410 -0.009017
v 0.115538 0.154410 0.009017
v 0.071420 0.020200 0.025400
v 0.104929 0.178456 0.015305
v 0.116044 0.161000 0.009017
v 0.096981 0.195737 0.012877
v 0.116355 0.159878 0.009017
v 0.107945 0.171482 0.015367
v 0.116044 0.161000 -0.009017
v -0.103639 0.120108 -0.027496
v -0.103400 0.119460 -0.027496
v -0.116026 0.155034 -0.045529
v -0.012841 -0.012700 -0.018140
v 0.001368 -0.012700 0.022183
v -0.019247 -0.012700 0.011113
v -0.115819 0.155153 0.045529
v -0.107146 0.161117 0.051880
v -0.116453 0.158715 0.045529
v -0.055018 0.041922 0.062897
v -0.116843 0.160502 -0.027496
v -0.116532 0.161624 -0.027496
v -0.116532 0.161624 -0.045529
v -0.096529 0.198404 -0.028527
v -0.095970 0.198045 0.042097
v -0.096407 0.198669 -0.030928
v -0.116095 0.161000 0.045529
v 0.071420 0.023556 0.030262
v 0.057579 0.042229 0.052743
v 0.115769 0.155153 -0.009017
v 0.071420 0.020796 -0.027817
v -0.047117 0.055035 0.065088
v -0.020320 0.058963 0.065006
v -0.104980 0.178456 0.051818
v -0.092372 0.178213 0.051852
v 0.095879 0.198133 -0.003175
v 0.045392 0.060345 0.060044
v 0.107916 0.171855 0.015367
v -0.116843 0.160502 -0.045529
v -0.116890 0.159339 -0.045529
v -0.103639 0.120108 -0.045529
v -0.056404 0.020298 -0.049321
v -0.056243 0.018228 -0.046516
v -0.101914 0.116215 -0.045529
v -0.020467 -0.012700 -0.008663
v -0.005421 -0.012700 -0.021554
v 0.015956 -0.012700 0.015472
v 0.019247 -0.012700 -0.011113
v 0.005421 -0.012700 0.021554
v 0.007921 0.000442 0.052320
v 0.009536 0.000642 0.052520
v 0.006176 0.000644 0.053018
v 0.004390 0.000442 0.052745
v -0.013933 -0.012700 0.017315
v -0.022214 -0.012700 -0.000684
v -0.059354 0.039612 0.058564
v -0.057624 0.033115 0.057476
v -0.057219 0.039481 0.060729
v -0.053139 0.043341 0.063901
v -0.107852 0.172211 0.051880
v -0.107967 0.171855 0.051880
v -0.107996 0.171482 0.051880
v -0.116406 0.159878 0.045529
v -0.116257 0.155777 -0.027496
v -0.096367 0.198757 -0.039688
v -0.116890 0.159339 -0.027496
v 0.107945 0.171482 -0.015367
v 0.052611 0.057563 -0.057381
v 0.107916 0.171855 -0.015367
v 0.116355 0.159878 -0.009017
v 0.104929 0.178456 -0.015305
v 0.105336 0.177572 -0.015367
v -0.090785 0.195735 0.049396
v -0.092372 0.195735 0.049396
v -0.090785 0.178506 0.051818
v -0.092372 0.178506 0.051818
v -0.097032 0.195737 0.049389
v -0.096864 0.196102 0.049290
v -0.090785 0.198005 0.042583
v 0.095982 0.197907 0.007027
v 0.092321 0.198006 0.006068
v -0.090785 0.198133 0.039688
v -0.090785 0.178213 0.051852
v 0.095919 0.198045 -0.005584
v 0.096041 0.197780 -0.007986
v -0.091222 0.198630 -0.042583
v 0.095879 0.198133 0.003175
v -0.091222 0.198757 -0.033338
v 0.096152 0.197538 0.009415
v 0.096402 0.196996 0.011764
v 0.057063 0.042939 0.053495
v 0.055824 0.044367 0.054878
v 0.045824 0.057563 0.060277
v 0.045818 0.044081 0.060279
v 0.049314 0.044250 0.059123
v 0.107801 0.172211 0.015367
v -0.020320 0.057563 -0.065088
v -0.047117 0.055035 -0.065088
v -0.020320 0.058963 -0.065006
v -0.022527 0.042824 -0.065088
v -0.016782 0.058963 -0.064882
v -0.091222 0.196359 -0.049396
v 0.042159 0.058963 -0.060761
v -0.105417 0.179080 -0.051818
v -0.103400 0.119460 -0.045529
v -0.057529 0.026722 -0.053654
v -0.054711 0.043271 -0.063153
v -0.107583 0.161742 -0.051880
v -0.052380 0.041967 -0.064103
v -0.056108 0.040635 -0.061965
v -0.049972 0.056636 -0.064829
v -0.049603 0.043461 -0.064892
v -0.047117 0.043506 -0.065088
v -0.108433 0.172106 -0.051880
v -0.057457 0.020298 -0.045230
v -0.054525 0.004062 -0.018579
v -0.057457 0.020298 0.045230
v -0.055761 0.016165 0.043493
v -0.056404 0.020298 0.049321
v -0.022375 0.002660 -0.052263
v -0.049636 0.016165 -0.052364
v -0.050954 0.020298 -0.054816
v -0.020320 0.002842 -0.053086
v -0.054178 0.020298 -0.052554
v -0.054231 0.026630 -0.056929
v -0.052530 0.016165 -0.050228
v -0.015956 -0.012700 -0.015472
v -0.038112 0.000411 -0.040675
v -0.009289 -0.012700 -0.020191
v -0.032486 0.000645 -0.045141
v 0.010515 -0.012700 -0.019580
v -0.021581 0.000644 0.050019
v -0.027044 0.000355 0.047105
v -0.018662 0.000549 0.050762
v 0.006236 0.002577 0.055347
v 0.004444 0.002984 0.055811
v 0.002734 0.002560 0.055651
v 0.004408 0.001467 0.054484
v 0.006149 0.005200 0.056503
v 0.007156 0.003204 0.055646
v 0.012395 0.005154 0.055490
v -0.056353 0.003889 -0.002922
v -0.010515 -0.012700 0.019580
v -0.016878 -0.012700 0.014460
v -0.021962 -0.012700 0.003409
v -0.052150 0.000409 0.010679
v -0.052794 0.000610 0.009204
v -0.052447 0.000352 -0.005747
v -0.052918 0.000620 -0.008128
v -0.052631 0.000360 -0.001901
v -0.049429 0.008493 0.043273
v -0.052448 0.012063 0.044767
v -0.048753 0.006721 0.041012
v -0.058213 0.039537 0.059827
v -0.105387 0.177572 0.051880
v -0.050235 0.056780 0.064778
v -0.049163 0.043472 0.064955
v -0.096367 0.198757 -0.033338
v -0.096470 0.198531 -0.043540
v -0.096640 0.198162 -0.045927
v -0.091222 0.198757 -0.039688
v 0.042142 0.060345 -0.060518
v 0.045445 0.058963 -0.060281
v 0.107801 0.172211 -0.015367
v 0.048622 0.058963 -0.059316
v 0.051619 0.058963 -0.057887
v 0.096981 0.195737 -0.012877
v 0.096813 0.196102 -0.012778
v 0.045392 0.060345 -0.060044
v 0.048534 0.060345 -0.059089
v 0.071420 0.022446 0.029680
v 0.071420 0.021508 0.028848
v -0.090785 0.196078 0.049306
v -0.035773 0.043290 0.065088
v -0.022527 0.042824 0.065088
v 0.052611 0.057563 0.057381
v 0.051619 0.058963 0.057887
v 0.052596 0.044346 0.057390
v 0.048534 0.060345 0.059089
v 0.049338 0.057563 0.059113
v -0.092809 0.196359 -0.049396
v -0.091222 0.179130 -0.051818
v -0.097469 0.196361 -0.049389
v -0.097340 0.196640 -0.049323
v -0.091222 0.198249 -0.045456
v -0.051121 0.043417 -0.064574
v -0.056420 0.041895 -0.061992
v -0.116257 0.155777 -0.045529
v -0.019998 0.039809 -0.064720
v 0.002895 0.005173 -0.056788
v -0.003409 0.005022 -0.056870
v -0.105824 0.178196 -0.051880
v -0.108049 0.173357 -0.051880
v -0.047132 0.042032 -0.064997
v -0.049619 0.041287 -0.064690
v -0.108404 0.172479 -0.051880
v -0.055469 0.004535 0.014586
v -0.054926 0.002852 0.012986
v -0.059303 0.033163 0.055243
v -0.058654 0.029914 0.054193
v -0.059550 0.030018 0.052415
v -0.057009 0.033071 0.058082
v -0.047080 0.000556 -0.029833
v -0.048694 0.000689 -0.026983
v -0.048742 0.001333 -0.029376
v -0.018527 -0.012700 -0.012276
v -0.052447 0.000584 -0.011653
v -0.047815 0.012063 -0.049578
v -0.050448 0.012063 -0.047488
v 0.039637 0.000398 0.037085
v 0.041513 0.000395 0.034998
v 0.040933 0.000899 0.037238
v 0.018527 -0.012700 0.012276
v 0.022214 -0.012700 0.000684
v 0.071420 0.020200 -0.025400
v 0.006738 -0.012700 -0.021179
v -0.013376 0.000550 0.052095
v -0.014595 0.000371 0.051375
v -0.012265 0.001275 0.053566
v -0.010609 0.000570 0.052643
v -0.004593 0.003052 0.056042
v -0.008161 0.002365 0.055290
v -0.004525 0.001399 0.054592
v -0.000170 0.002529 0.055748
v -0.000809 0.001438 0.054710
v -0.017834 0.000434 0.050717
v 0.022250 0.000820 0.049284
v 0.026210 0.000794 0.047491
v 0.008035 0.001470 0.054057
v 0.011057 0.001460 0.053530
v 0.009517 0.002571 0.054877
v 0.007948 0.002990 0.055409
v -0.020320 0.042772 0.065088
v 0.000550 0.022676 0.060249
v -0.000790 0.005100 0.056911
v -0.054059 0.002991 0.018211
v -0.047229 0.001759 0.033304
v -0.049919 0.002362 0.029331
v -0.040264 0.000374 0.038568
v -0.051775 0.001046 0.019619
v -0.053132 0.002301 0.019965
v -0.052659 0.001174 0.016566
v -0.050663 0.006869 0.037585
v -0.047815 0.012063 0.049578
v -0.027840 0.001936 0.049457
v -0.047127 0.014109 0.051782
v -0.049636 0.016165 0.052364
v -0.107612 0.172733 0.051880
v -0.054701 0.040616 0.062825
v -0.095930 0.198133 0.039688
v -0.092809 0.198630 -0.042580
v 0.045824 0.057563 -0.060277
v 0.056645 0.042236 -0.053793
v 0.056241 0.042946 -0.054358
v 0.055258 0.044369 -0.055390
v 0.107561 0.172733 -0.015367
v 0.049338 0.057563 -0.059113
v 0.048623 0.044222 -0.059403
v 0.096456 0.196878 -0.012067
v 0.096425 0.196946 -0.011917
v 0.096536 0.196704 -0.012333
v 0.055111 0.040170 0.054510
v 0.042142 0.060345 0.060518
v 0.042159 0.058963 0.060761
v 0.042165 0.043829 0.060842
v 0.042454 0.042119 0.060696
v -0.092372 0.196078 0.049306
v -0.090785 0.197625 0.045456
v 0.045445 0.058963 0.060281
v 0.105336 0.177572 0.015367
v 0.048622 0.058963 0.059316
v -0.020320 0.055035 -0.065088
v -0.019138 0.057563 -0.065074
v -0.017960 0.058963 -0.064951
v -0.016776 0.057563 -0.064964
v -0.017957 0.057563 -0.065032
v -0.019140 0.058963 -0.064992
v 0.022250 0.058729 -0.062178
v 0.042165 0.057563 -0.060842
v -0.092809 0.178837 -0.051852
v -0.092809 0.196702 -0.049306
v -0.091222 0.196702 -0.049306
v -0.091222 0.197016 -0.049139
v 0.096655 0.196445 -0.012582
v -0.091222 0.197618 -0.048284
v -0.092809 0.198250 -0.045450
v 0.096402 0.196996 -0.011764
v -0.097007 0.197364 -0.048799
v -0.096936 0.197520 -0.048545
v -0.092809 0.197486 -0.048614
v -0.052612 0.043363 -0.064106
v -0.057496 0.039496 -0.060493
v -0.055719 0.039404 -0.061825
v -0.050348 0.041284 -0.064558
v -0.049543 0.039197 -0.064116
v -0.052093 0.040590 -0.063945
v -0.048321 0.032854 -0.061741
v -0.051405 0.032882 -0.061212
v -0.009552 0.004751 -0.056342
v -0.013695 0.003327 -0.055092
v -0.052883 0.029771 -0.059293
v -0.053800 0.039323 -0.062871
v -0.053818 0.032975 -0.060298
v -0.016531 0.002634 -0.054009
v -0.049815 0.026561 -0.058745
v -0.020320 0.001768 -0.052143
v -0.020320 0.000926 -0.050992
v -0.022057 0.001599 -0.051363
v -0.001368 -0.012700 -0.022183
v 0.009161 0.005194 -0.056092
v 0.044827 0.041010 -0.060107
v 0.012501 0.004263 -0.055223
v -0.047147 0.040579 -0.064727
v -0.020384 0.039808 -0.064718
v -0.047267 0.039166 -0.064279
v -0.022578 0.040766 -0.064911
v -0.108289 0.172835 -0.051880
v -0.046625 0.000856 -0.031939
v -0.047229 0.001759 -0.033304
v -0.050246 0.002452 -0.028780
v -0.050704 0.001986 -0.026649
v -0.050663 0.006869 -0.037585
v -0.048805 0.002084 -0.031084
v -0.050097 0.000423 -0.021176
v -0.051039 0.000483 -0.018151
v -0.050721 0.000907 -0.022555
v -0.050100 0.000834 -0.024047
v -0.051656 0.001029 -0.019981
v -0.052208 0.001724 -0.021330
v -0.058986 0.029950 0.053613
v -0.057288 0.026698 0.053989
v -0.056713 0.029877 0.056704
v -0.048874 0.006728 -0.040843
v -0.044412 0.000406 -0.033726
v -0.045480 0.000456 -0.032286
v -0.051811 0.000537 -0.015026
v -0.053291 0.001271 -0.013823
v -0.052281 0.000416 -0.009713
v -0.028460 0.003232 -0.050240
v -0.026598 0.001619 -0.049635
v -0.030796 0.002045 -0.048178
v -0.030616 0.001678 -0.047857
v -0.031887 0.001552 -0.047040
v -0.044582 0.008508 -0.047584
v -0.040123 0.000376 -0.038714
v -0.041921 0.000370 -0.036769
v -0.046111 0.004953 -0.041208
v -0.047912 0.006728 -0.042168
v -0.046644 0.006705 -0.043561
v -0.020320 0.000345 -0.049690
v -0.025897 0.000404 -0.047751
v -0.015745 0.000293 -0.050862
v -0.026951 0.000890 -0.048403
v -0.027815 0.000369 -0.046801
v 0.027417 0.000427 0.046006
v 0.021962 -0.012700 -0.003409
v 0.050996 0.001108 0.018127
v 0.051799 0.001983 0.019666
v 0.050362 0.000734 0.019560
v 0.050032 0.000503 0.018127
v 0.071420 0.020351 -0.026644
v 0.016878 -0.012700 -0.014460
v 0.043271 0.001581 -0.035994
v 0.040357 0.000903 -0.037852
v 0.040231 0.001606 -0.039331
v 0.041965 0.001984 -0.038116
v 0.045933 0.002039 -0.033227
v 0.012162 0.000636 -0.051996
v 0.022250 0.000687 -0.049018
v 0.025253 0.000817 -0.047988
v -0.032485 0.002625 0.047834
v -0.025757 0.000801 0.048741
v -0.027161 0.001523 0.049275
v -0.027806 0.000855 0.047958
v -0.011984 0.000385 0.051951
v -0.009157 0.001329 0.054115
v -0.010811 0.002285 0.054887
v -0.007607 0.004851 0.056577
v -0.047147 0.040579 0.064727
v 0.001050 0.001452 0.054682
v -0.002030 0.000346 0.052753
v -0.004434 0.000339 0.052666
v -0.002731 -0.012700 0.022057
v -0.006500 0.000332 0.052514
v 0.024257 0.001464 0.049463
v 0.012813 0.000634 0.051847
v 0.001018 0.002953 0.056008
v 0.000154 0.003151 0.056155
v 0.005302 0.003201 0.055859
v -0.016838 0.041712 0.064935
v -0.016904 0.040825 0.064840
v 0.013665 0.041284 0.062765
v -0.016776 0.042605 0.064964
v 0.011790 0.003177 0.054863
v -0.016974 0.039947 0.064679
v -0.019998 0.039809 0.064720
v -0.020342 0.041775 0.065046
v 0.042143 0.041278 0.060576
v 0.031995 0.041292 0.061392
v -0.005736 0.040152 0.063977
v 0.005034 0.040142 0.063219
v 0.028746 0.041291 0.061643
v -0.054635 0.002322 -0.012253
v -0.053980 0.002149 -0.015425
v -0.055636 0.003092 0.008201
v -0.053742 0.012063 0.041249
v -0.052148 0.003063 0.025120
v -0.052243 0.002060 0.022401
v -0.050701 0.001421 0.024923
v -0.031040 0.000305 0.044980
v -0.044587 0.001469 0.036568
v -0.046887 0.000543 0.030146
v -0.048050 0.000632 0.028175
v -0.045272 0.000443 0.032572
v -0.049522 0.001222 0.027255
v -0.050415 0.000870 0.023306
v -0.046842 0.006703 0.043353
v -0.042747 0.001434 0.038673
v -0.044095 0.004952 0.043241
v -0.047345 0.008481 0.045559
v -0.040834 0.001483 0.040708
v -0.020962 -0.012700 0.007387
v -0.050902 0.000930 0.022088
v -0.049725 0.000241 0.020492
v -0.053962 0.002545 0.017212
v -0.054359 0.002669 0.015648
v -0.054362 0.002249 0.013687
v -0.050622 0.000275 0.017360
v -0.051531 0.000377 0.014303
v -0.052276 0.000571 0.012668
v -0.054612 0.016165 0.047293
v -0.054599 0.018228 0.050003
v -0.054178 0.020298 0.052554
v -0.048515 0.018228 0.054347
v -0.050448 0.012063 0.047488
v -0.052530 0.016165 0.050228
v -0.051983 0.018228 0.052652
v -0.050683 0.041993 0.064594
v -0.049686 0.039200 0.064095
v -0.014041 0.004514 0.055526
v -0.048644 0.039182 0.064219
v -0.020384 0.039808 0.064718
v 0.045449 0.044059 -0.060364
v 0.042165 0.043829 -0.060842
v 0.045881 0.041316 -0.059933
v 0.031828 0.002473 -0.046678
v 0.030869 0.002528 -0.047288
v 0.034766 0.003874 -0.045790
v 0.029603 0.001167 -0.046393
v 0.071420 0.020351 0.026644
v 0.051249 0.001915 0.022229
v 0.056577 0.040178 0.053048
v 0.056372 0.042242 0.054078
v -0.019138 0.057563 0.065074
v 0.022250 0.059426 0.062090
v -0.016782 0.058963 0.064882
v 0.042165 0.057563 0.060842
v 0.002739 0.042412 0.063599
v -0.016776 0.057563 0.064964
v 0.035397 0.042002 0.061231
v 0.096728 0.196287 0.012687
v 0.096614 0.196534 0.012509
v -0.096587 0.196704 0.048845
v -0.092372 0.196658 0.048904
v -0.090785 0.196658 0.048904
v -0.096092 0.197780 0.044498
v -0.096452 0.196996 0.048276
v 0.107561 0.172733 0.015367
v 0.022250 0.057563 -0.062235
v -0.091222 0.178837 -0.051852
v -0.092809 0.179130 -0.051818
v -0.096889 0.197620 -0.048276
v -0.091222 0.197486 -0.048614
v -0.097102 0.197158 -0.049022
v -0.057626 0.029950 -0.055719
v -0.057048 0.029904 -0.056367
v -0.059044 0.039591 -0.058936
v -0.057334 0.033094 -0.057772
v 0.005826 0.003203 -0.055804
v 0.001167 0.003815 -0.056459
v -0.048691 0.029708 -0.060372
v -0.051132 0.029708 -0.059904
v -0.052659 0.032924 -0.060800
v -0.053669 0.029811 -0.058928
v -0.055771 0.029811 -0.057526
v -0.056399 0.033032 -0.058610
v -0.056435 0.029857 -0.056964
v -0.016184 0.001201 -0.052619
v -0.015956 0.002658 -0.054167
v 0.042454 0.042119 -0.060696
v -0.020320 0.039809 -0.064718
v -0.044852 0.001482 -0.036253
v -0.042359 0.001437 -0.039098
v -0.046206 0.000498 -0.031211
v -0.054583 0.002595 -0.014035
v -0.053839 0.002508 -0.017658
v -0.055761 0.016165 -0.043493
v -0.053742 0.012063 -0.041249
v -0.054612 0.016165 -0.047293
v -0.053169 0.001945 -0.018458
v -0.051874 0.001967 -0.023301
v -0.052663 0.003256 -0.023949
v -0.056157 0.039427 0.061534
v -0.054314 0.039343 0.062625
v -0.053092 0.029781 0.059202
v -0.055256 0.029781 0.057912
v -0.053895 0.026609 0.057136
v -0.052275 0.029743 0.059535
v -0.057178 0.029914 0.056229
v -0.056329 0.029849 0.057059
v -0.043087 0.000379 -0.035399
v -0.051710 0.000386 -0.013371
v -0.035923 0.002076 -0.045279
v -0.044304 0.006744 -0.045617
v -0.023736 0.002050 -0.051241
v -0.042918 0.000659 -0.036651
v -0.021668 0.000779 -0.050264
v -0.024288 0.000895 -0.049508
v -0.030281 0.000746 -0.046555
v 0.012841 -0.012700 0.018140
v 0.048496 0.042863 0.059371
v 0.050698 0.042915 0.058388
v 0.051324 0.042233 0.057939
v 0.021710 -0.012700 0.004755
v 0.049185 0.000256 0.019750
v 0.050032 0.000503 -0.018127
v 0.050191 0.000620 -0.019289
v 0.051579 0.001859 -0.020673
v 0.049291 0.001349 -0.025466
v 0.049216 0.002301 -0.027989
v 0.051341 0.002047 -0.022341
v 0.020962 -0.012700 -0.007387
v 0.048174 0.002189 -0.029814
v 0.047895 0.002164 -0.030273
v 0.048176 0.001059 -0.026960
v 0.046768 0.002082 -0.032023
v 0.046140 0.000961 -0.030477
v 0.028845 0.001187 -0.046841
v 0.027757 0.000426 -0.045826
v -0.007612 0.001355 0.054316
v -0.013804 0.002199 0.054275
v -0.008431 0.002937 0.055675
v -0.013198 0.002767 0.054841
v -0.000827 0.000348 0.052760
v -0.007532 0.000328 0.052411
v 0.011102 0.000439 0.051756
v -0.001429 0.003124 0.056158
v -0.002696 0.003098 0.056132
v -0.003328 0.003083 0.056108
v 0.026618 0.003098 0.049932
v 0.049899 0.038606 0.057288
v 0.025121 0.003048 0.050579
v 0.012744 0.002544 0.054236
v -0.016512 0.039977 0.064658
v -0.047117 0.043506 0.065088
v -0.049010 0.042013 0.064885
v 0.043786 0.040432 0.060143
v -0.053746 0.001344 0.011339
v -0.054947 0.002407 0.010326
v -0.053023 0.000628 0.007081
v -0.056322 0.003876 0.003666
v -0.052912 0.002603 0.021695
v -0.050765 0.001712 0.025720
v -0.045137 0.000728 0.033935
v -0.042487 0.000373 0.036115
v -0.047958 0.001005 0.029928
v -0.047779 0.006721 0.042322
v -0.045684 0.006703 0.044467
v -0.044609 0.006728 0.045374
v -0.041936 0.006813 0.047082
v -0.038812 0.001651 0.042710
v -0.036706 0.001954 0.044623
v -0.037645 0.000781 0.042069
v -0.034138 0.001041 0.044972
v -0.038811 0.000394 0.040016
v -0.038051 0.000412 0.040731
v -0.037025 0.000448 0.041649
v -0.048792 0.000350 0.024540
v -0.054953 0.002709 0.012098
v -0.054539 0.002726 0.014865
v -0.050981 0.000289 0.015862
v -0.050954 0.020298 0.054816
v -0.052301 0.039268 0.063461
v -0.050446 0.040581 0.064385
v -0.051755 0.032892 0.061110
v -0.050979 0.032870 0.061324
v -0.050882 0.043425 0.064635
v -0.048798 0.032860 0.061705
v -0.048754 0.029710 0.060366
v -0.050154 0.042000 0.064706
v -0.048836 0.040576 0.064638
v 0.047507 0.042271 -0.059642
v 0.049394 0.042204 -0.058898
v 0.051961 0.044332 -0.057782
v 0.031099 0.001126 -0.045460
v 0.039143 0.002057 -0.040966
v 0.036760 0.001722 -0.042515
v 0.037181 0.003646 -0.043954
v 0.039485 0.003474 -0.041973
v 0.057075 0.041540 -0.053109
v 0.058742 0.042904 -0.051392
v 0.050337 0.000936 0.021131
v 0.041885 0.000896 0.036174
v 0.043688 0.000405 0.032201
v 0.043697 0.000906 0.033960
v 0.046667 0.001676 0.031423
v 0.046616 0.000979 0.029716
v 0.047972 0.001763 0.029333
v 0.045858 0.002035 0.033332
v 0.044038 0.001589 0.035051
v 0.071420 0.020796 0.027817
v 0.040111 0.003436 0.041392
v 0.042263 0.003349 0.039236
v 0.054114 0.042949 0.056222
v -0.017957 0.057563 0.065032
v -0.020320 0.057563 0.065088
v 0.022250 0.057563 0.062235
v 0.022250 0.042843 0.062235
v 0.022250 0.041288 0.062134
v 0.096853 0.196016 0.012810
v -0.092372 0.196391 0.049139
v 0.096519 0.196740 0.012287
v -0.090785 0.196994 0.048284
v -0.092372 0.198006 0.042580
v -0.092372 0.197626 0.045450
v -0.092809 0.197620 -0.048276
v -0.092809 0.197618 -0.048284
v -0.092809 0.197282 -0.048904
v -0.091222 0.197282 -0.048904
v -0.097216 0.196911 -0.049199
v -0.058183 0.033156 -0.056851
v -0.058986 0.029950 -0.053613
v -0.005247 0.003662 -0.056335
v -0.004626 0.003052 -0.056040
v -0.005431 0.002827 -0.055853
v -0.009162 0.002911 -0.055576
v 0.005083 0.003200 -0.055880
v -0.052052 0.029735 -0.059615
v -0.051756 0.039251 -0.063633
v -0.014218 0.000300 -0.051246
v -0.013452 0.000304 -0.051422
v 0.035397 0.042002 -0.061231
v 0.031995 0.041292 -0.061392
v 0.028746 0.041291 -0.061643
v 0.042720 0.040445 -0.060303
v 0.011494 0.040048 -0.062728
v 0.000728 0.040169 -0.063531
v -0.054859 0.002830 -0.013332
v -0.055196 0.002942 -0.011436
v -0.052448 0.012063 -0.044767
v -0.052636 0.001170 -0.016653
v -0.050838 0.001728 -0.025571
v -0.052972 0.002135 -0.020021
v -0.056436 0.033035 0.058580
v -0.052969 0.032936 0.060677
v -0.055932 0.029822 0.057397
v -0.034335 0.000561 -0.043819
v -0.035239 0.000521 -0.043124
v -0.036244 0.000880 -0.043293
v -0.040290 0.001514 -0.041261
v -0.038866 0.000714 -0.040926
v -0.039118 0.000389 -0.039720
v -0.036327 0.000476 -0.042242
v -0.034049 0.001337 -0.045511
v -0.047202 0.008482 -0.045688
v -0.045466 0.006705 -0.044658
v -0.045363 0.000742 -0.033643
v -0.025584 0.000943 -0.049076
v -0.029155 0.000797 -0.047216
v 0.031745 0.000264 0.042944
v 0.034313 0.000245 0.041105
v 0.035709 0.000990 0.042132
v 0.032438 0.001087 0.044568
v 0.038022 0.002105 0.041983
v 0.037867 0.000939 0.040282
v 0.040128 0.001609 0.039434
v 0.037849 0.003591 0.043404
v 0.036543 0.002181 0.043238
v 0.034704 0.000242 0.040802
v 0.039932 0.000907 0.038292
v 0.048076 0.042180 0.059426
v 0.053506 0.040172 0.055844
v 0.033180 0.004025 0.046884
v 0.050445 0.032452 0.053041
v 0.013576 0.003153 0.054463
v 0.016261 0.003745 0.054100
v 0.049951 0.000481 0.018912
v 0.050996 0.001108 -0.018127
v 0.050646 0.001214 -0.021503
v 0.045551 0.000244 -0.028245
v 0.045941 0.000249 -0.027541
v 0.044727 0.000235 -0.029634
v 0.047377 0.000328 -0.025104
v 0.048456 0.000487 -0.023638
v 0.047536 0.001022 -0.028143
v 0.049092 0.000380 -0.021193
v 0.042118 0.000896 -0.035904
v 0.040369 0.000396 -0.036301
v 0.043018 0.000899 -0.034821
v 0.043686 0.000228 -0.031235
v 0.043141 0.000225 -0.032013
v 0.041787 0.000395 -0.034670
v 0.047322 0.002119 -0.031182
v 0.034066 0.000448 -0.042020
v 0.034108 0.001037 -0.043373
v 0.035260 0.001002 -0.042491
v 0.026666 0.000796 -0.047271
v 0.038599 0.000403 -0.038133
v 0.020519 0.000452 -0.049125
v -0.020320 0.000812 0.050787
v -0.023546 0.000794 0.049606
v -0.021986 0.001419 0.051163
v -0.023821 0.001732 0.050874
v -0.024732 0.001884 0.050691
v -0.026811 0.001928 0.049893
v -0.024896 0.002392 0.051112
v -0.012403 0.002607 0.054874
v -0.005573 0.003026 0.055972
v -0.006064 0.003012 0.055931
v -0.007116 0.002980 0.055829
v 0.002707 0.000640 0.053332
v 0.028182 0.001203 0.047219
v 0.017986 0.000337 0.049674
v 0.017509 0.000339 0.049830
v 0.014932 0.000430 0.050839
v 0.018577 0.001390 0.051504
v -0.000796 0.003135 0.056162
v 0.049955 0.040203 0.058054
v 0.050503 0.039553 0.057441
v 0.047704 0.040958 0.059272
v 0.046917 0.038680 0.058615
v 0.022250 0.003730 0.052142
v 0.019023 0.003034 0.052884
v 0.022250 0.002743 0.051545
v 0.025249 0.001836 0.049474
v 0.029947 0.002058 0.047358
v 0.028157 0.002674 0.048872
v 0.025179 0.002452 0.050104
v 0.024209 0.002198 0.050299
v 0.014544 0.001436 0.052722
v 0.011034 0.002973 0.054885
v -0.020363 0.040785 0.064923
v -0.022578 0.040766 0.064911
v -0.020320 0.039809 0.064718
v -0.022568 0.041792 0.065043
v -0.047132 0.042032 0.064997
v 0.044450 0.041593 0.060319
v 0.045419 0.041311 0.060048
v 0.042720 0.040445 0.060303
v -0.054527 0.001474 -0.003961
v -0.054399 0.001452 -0.005887
v -0.053935 0.001375 -0.010096
v -0.053030 0.001230 0.015031
v -0.054176 0.001415 0.008201
v -0.054473 0.001465 0.004878
v -0.055439 0.002545 0.005968
v -0.052701 0.000438 0.005438
v -0.056084 0.003248 0.000215
v -0.051455 0.001867 0.024259
v -0.041762 0.000369 0.036948
v -0.044084 0.000397 0.034152
v -0.029417 0.001416 0.048108
v -0.034833 0.000539 0.043441
v -0.049110 0.000729 0.026166
v -0.055423 0.002858 0.008913
v -0.055586 0.002911 0.007456
v -0.049854 0.026562 0.058737
v -0.017298 0.002985 0.054056
v -0.020320 0.002697 0.052981
v -0.022480 0.003149 0.052561
v -0.050175 0.039211 0.064012
v -0.050340 0.043441 0.064757
v -0.049935 0.040579 0.064484
v 0.048436 0.041342 -0.059104
v 0.048964 0.040963 -0.058778
v 0.017296 0.003292 -0.053572
v 0.015777 0.005075 -0.054675
v 0.035224 0.001796 -0.043750
v 0.038520 0.000927 -0.039677
v 0.036608 0.000419 -0.039968
v 0.050236 0.034820 -0.054741
v 0.052692 0.040176 -0.056433
v 0.050561 0.031138 -0.052058
v 0.050283 0.038705 -0.057124
v 0.071420 0.023556 -0.030262
v 0.055356 0.042243 -0.055051
v 0.049520 0.001141 0.024192
v 0.042815 0.000898 0.035071
v 0.042155 0.001580 0.037289
v 0.045093 0.000421 0.030116
v 0.046439 0.000256 0.026596
v 0.045226 0.000934 0.031858
v 0.070245 0.021688 0.030114
v 0.053194 0.042238 0.056766
v -0.017960 0.058963 0.064951
v -0.090785 0.196391 0.049139
v -0.096706 0.196445 0.049095
v -0.092372 0.196996 0.048276
v -0.096506 0.196878 0.048580
v 0.096448 0.196896 0.012032
v -0.092809 0.197619 -0.048281
v -0.092809 0.197016 -0.049139
v -0.007023 0.002395 -0.055421
v -0.008716 0.001336 -0.054177
v -0.009586 0.002322 -0.055091
v -0.010371 0.001306 -0.053921
v -0.012328 0.001274 -0.053553
v -0.013035 0.002773 -0.054876
v -0.009473 0.000579 -0.052827
v -0.000853 0.000630 -0.053444
v 0.004214 0.000355 -0.052528
v 0.002885 0.000354 -0.052630
v 0.002931 0.001462 -0.054594
v 0.006859 0.000356 -0.052236
v 0.042143 0.041278 -0.060576
v -0.020363 0.040785 -0.064923
v -0.016512 0.039977 -0.064658
v -0.016904 0.040825 -0.064840
v -0.016776 0.042605 -0.064964
v -0.049514 0.008497 -0.043164
v -0.053331 0.002358 -0.019357
v -0.055643 0.032989 0.059184
v -0.038138 0.001742 -0.043346
v -0.040226 0.000672 -0.039580
v 0.028921 0.000514 0.045439
v 0.036470 0.000232 0.039341
v 0.038909 0.000921 0.039307
v 0.050283 0.038705 0.057124
v 0.014276 0.003142 0.054290
v 0.045968 0.040420 0.059654
v 0.049863 0.000596 -0.020562
v 0.044108 0.000911 -0.033418
v 0.023609 0.001430 -0.049694
v 0.022250 0.001407 -0.050215
v 0.024270 0.001883 -0.049956
v 0.015568 0.002505 -0.053523
v 0.016374 0.003101 -0.053721
v 0.030194 0.000275 -0.043948
v 0.013933 -0.012700 -0.017315
v 0.010709 0.000354 -0.051599
v 0.009544 0.000355 -0.051819
v 0.008651 0.000355 -0.051971
v 0.020545 0.000838 -0.049969
v 0.015062 0.000626 -0.051272
v 0.016757 0.001413 -0.052092
v 0.016337 0.000425 -0.050435
v 0.017872 0.000420 -0.049953
v 0.013578 0.000434 -0.051194
v -0.014942 0.001226 0.052951
v -0.009215 0.002714 0.055436
v -0.007642 0.002963 0.055771
v 0.000976 0.000352 0.052726
v 0.017270 0.000339 0.049907
v 0.022250 0.001706 0.050585
v 0.051780 0.040183 0.057030
v 0.027196 0.002390 0.049112
v 0.028764 0.002461 0.048382
v 0.015899 0.001423 0.052347
v -0.022553 0.041791 0.065043
v -0.055642 0.002603 0.002310
v -0.054629 0.001491 0.000682
v -0.053282 0.000648 0.003236
v -0.054316 0.001438 -0.006847
v -0.055919 0.003190 -0.005019
v -0.032708 0.001470 0.046480
v -0.030126 0.000753 0.046648
v -0.032785 0.000631 0.044936
v -0.015479 0.002808 0.054386
v -0.051193 0.029710 0.059887
v -0.020320 0.003370 0.053415
v -0.022322 0.002446 0.052113
v 0.014926 0.003130 -0.054123
v 0.046943 0.041328 -0.059629
v 0.046677 0.040417 -0.059446
v 0.033047 0.002400 -0.045861
v 0.033119 0.001067 -0.044092
v 0.036371 0.000973 -0.041587
v 0.050503 0.039553 -0.057441
v 0.049899 0.038606 -0.057288
v 0.029326 0.004351 -0.049226
v 0.027729 0.003050 -0.049364
v 0.050269 0.042906 -0.058602
v 0.071420 0.021508 -0.028848
v 0.055180 0.040171 -0.054447
v 0.054065 0.042244 -0.056127
v 0.049637 0.002353 0.027194
v 0.047674 0.001030 0.027896
v 0.047658 0.000275 0.024029
v 0.054921 0.041541 0.055238
v 0.035267 0.002258 0.044246
v 0.032234 0.001950 0.045904
v 0.032083 0.002458 0.046511
v -0.019140 0.058963 0.064992
v -0.090785 0.196862 0.048614
v -0.096475 0.196946 0.048429
v -0.008448 0.002739 -0.055541
v -0.015668 0.002670 -0.054245
v -0.011042 0.002841 -0.055270
v -0.007434 0.000595 -0.053090
v -0.005934 0.000415 -0.052789
v -0.010881 0.000391 -0.052156
v -0.002497 0.000428 -0.052973
v 0.000840 0.000351 -0.052730
v 0.000822 0.001450 -0.054688
v -0.002232 0.001425 -0.054692
v -0.000550 0.002524 -0.055751
v -0.002818 0.003095 -0.056127
v -0.003820 0.002468 -0.055672
v -0.020342 0.041775 -0.065046
v -0.016974 0.039947 -0.064679
v 0.022250 0.042843 -0.062235
v -0.016838 0.041712 -0.064935
v -0.005934 0.042417 -0.064206
v -0.043764 0.004964 -0.043545
v 0.030744 0.001136 0.045688
v 0.046488 0.041323 0.059766
v 0.049203 0.000690 -0.022947
v 0.028156 0.002354 -0.048601
v 0.024145 0.002906 -0.050901
v 0.022250 0.003513 -0.052031
v 0.025846 0.004600 -0.051002
v 0.031405 0.000266 -0.043171
v 0.019689 0.000603 -0.049795
v -0.020320 0.001684 0.052050
v 0.018105 0.003059 0.053190
v -0.055848 0.002996 0.004082
v -0.054627 0.001491 -0.000865
v -0.052877 0.000448 0.001323
v -0.055150 0.002464 -0.008808
v -0.056072 0.003244 -0.001357
v -0.014566 0.002715 0.054525
v -0.018312 0.002889 0.053718
v -0.051399 0.029715 0.059827
v 0.014101 0.002935 -0.054202
v 0.012449 0.002548 -0.054302
v 0.019134 0.003667 -0.053206
v 0.007117 0.001471 -0.054186
v 0.008178 0.003202 -0.055504
v 0.013926 0.001441 -0.052881
v 0.010730 0.001462 -0.053595
v 0.048045 0.038648 -0.058172
v 0.052454 0.042234 -0.057260
v 0.051631 0.041540 -0.057598
v 0.071420 0.022446 -0.029680
v 0.054491 0.041543 -0.055600
v 0.047878 0.000278 0.023525
v 0.054769 0.042243 0.055561
v 0.034633 0.002300 0.044725
v 0.033513 0.002371 0.045536
v 0.032945 0.002406 0.045932
v -0.092372 0.196862 0.048614
v -0.092372 0.196994 0.048284
v -0.010021 0.002878 -0.055444
v -0.008642 0.000403 -0.052502
v -0.005764 0.001382 -0.054501
v 0.002228 0.002556 -0.055678
v 0.001056 0.002953 -0.056006
v 0.001861 0.003174 -0.056105
v -0.022568 0.041792 -0.065043
v -0.020320 0.042772 -0.065088
v 0.004908 0.042430 -0.063447
v 0.025988 0.001831 -0.049130
v 0.029222 0.002619 -0.048275
v 0.022250 0.002360 -0.051238
v 0.023562 0.002038 -0.050414
v 0.026019 0.002679 -0.049910
v -0.016741 0.001382 0.052724
v 0.015667 0.003116 0.053922
v 0.018411 0.003051 0.053089
v -0.056021 0.003225 0.003132
v -0.052653 0.000361 -0.000385
v -0.055200 0.002787 -0.010559
v 0.010854 0.003841 -0.055383
v 0.009529 0.001466 -0.053817
v 0.007307 0.003204 -0.055626
v 0.049955 0.040203 -0.058054
v 0.051013 0.042229 -0.058109
v 0.053422 0.042946 -0.056733
v -0.004168 0.000615 -0.053357
v 0.003654 0.003192 -0.056001
v -0.002059 0.002904 -0.056020
v -0.022553 0.041791 -0.065043
v 0.022250 0.041288 -0.062134
v 0.030386 0.002556 -0.047586
v 0.018602 0.001718 -0.051894
v 0.023517 0.002723 -0.051028
v 0.024206 0.002379 -0.050464
v -0.056078 0.003246 0.000999
v 0.007888 0.003203 -0.055546
v 0.002938 0.003185 -0.056049
v 0.029612 0.002598 -0.048048
f 1 2 3
f 4 5 6
f 7 6 5
f 8 7 5
f 9 10 11
f 12 9 13
f 12 13 14
f 15 16 17
f 18 19 11
f 18 11 10
f 18 20 16
f 21 22 1
f 21 1 3
f 21 3 23
f 24 5 4
f 25 6 7
f 26 4 6
f 27 28 29
f 27 3 2
f 27 2 30
f 27 30 28
f 31 32 33
f 34 35 36
f 34 36 32
f 34 32 37
f 38 9 39
f 40 9 12
f 40 10 9
f 41 40 12
f 42 43 44
f 45 44 43
f 46 16 20
f 47 15 17
f 48 19 18
f 48 18 16
f 49 50 31
f 49 31 33
f 51 22 21
f 51 21 23
f 52 53 54
f 55 24 4
f 56 5 24
f 57 7 8
f 58 8 5
f 59 25 7
f 60 25 59
f 60 59 61
f 62 63 25
f 62 25 60
f 62 60 61
f 64 26 6
f 65 4 26
f 66 1 67
f 68 2 1
f 69 28 30
f 70 37 71
f 72 29 28
f 73 29 72
f 73 72 71
f 73 71 37
f 73 37 32
f 73 32 31
f 73 31 29
f 74 23 3
f 74 3 27
f 74 27 29
f 75 33 32
f 76 29 31
f 76 31 50
f 76 50 74
f 76 74 29
f 77 78 79
f 77 10 78
f 80 10 77
f 80 77 79
f 80 79 20
f 80 20 18
f 80 18 10
f 81 20 82
f 83 84 85
f 86 85 84
f 86 84 44
f 86 44 45
f 86 45 85
f 87 44 84
f 87 88 37
f 87 37 44
f 89 90 91
f 89 92 35
f 93 85 45
f 93 45 43
f 93 43 85
f 94 95 96
f 94 46 20
f 94 20 95
f 97 92 89
f 97 89 91
f 97 91 90
f 97 90 16
f 97 16 46
f 97 46 98
f 97 98 92
f 99 100 16
f 99 16 90
f 101 39 9
f 101 9 11
f 101 11 102
f 103 104 105
f 106 48 16
f 107 108 109
f 107 110 108
f 111 112 113
f 114 109 108
f 115 22 51
f 115 116 52
f 115 52 54
f 117 118 119
f 120 117 119
f 121 108 122
f 123 122 108
f 123 108 110
f 124 118 50
f 124 50 49
f 125 53 126
f 125 54 53
f 127 128 129
f 127 129 1
f 130 131 132
f 130 132 133
f 134 52 116
f 134 135 132
f 134 132 131
f 134 131 136
f 137 24 55
f 138 24 137
f 139 56 24
f 139 24 140
f 141 58 5
f 142 143 6
f 142 6 144
f 145 146 147
f 145 147 148
f 149 150 151
f 152 22 115
f 152 1 22
f 153 64 6
f 153 6 143
f 154 26 64
f 155 156 157
f 155 65 26
f 158 159 65
f 158 65 160
f 158 160 159
f 161 162 163
f 164 66 67
f 164 68 1
f 164 1 66
f 165 44 37
f 165 42 44
f 166 42 165
f 166 70 71
f 166 71 72
f 166 167 42
f 168 36 35
f 168 92 98
f 168 98 75
f 168 75 32
f 168 32 36
f 169 170 33
f 169 33 75
f 171 46 94
f 171 94 96
f 171 75 98
f 171 98 46
f 172 173 113
f 172 113 112
f 174 79 175
f 174 20 79
f 176 175 79
f 176 79 78
f 177 178 20
f 177 20 81
f 179 173 172
f 179 172 112
f 179 177 81
f 180 175 173
f 180 173 179
f 180 179 81
f 180 81 82
f 180 82 175
f 181 182 9
f 181 9 38
f 183 84 83
f 183 83 47
f 183 47 17
f 184 185 42
f 186 19 48
f 186 48 187
f 186 188 11
f 186 11 19
f 189 15 47
f 190 103 105
f 190 105 188
f 190 188 186
f 190 186 187
f 191 112 192
f 193 194 191
f 193 191 114
f 193 114 33
f 193 33 194
f 195 96 95
f 195 169 96
f 196 118 124
f 196 124 121
f 196 121 122
f 197 117 120
f 197 120 118
f 197 118 117
f 198 118 120
f 198 120 23
f 198 23 74
f 198 74 50
f 198 50 118
f 199 200 201
f 202 114 108
f 202 108 121
f 202 121 203
f 202 203 33
f 202 33 114
f 204 205 122
f 204 122 123
f 206 121 124
f 206 124 49
f 206 49 33
f 207 127 1
f 207 1 208
f 209 1 210
f 209 67 1
f 211 1 129
f 212 68 164
f 212 164 67
f 213 214 215
f 213 55 214
f 216 137 55
f 217 4 65
f 218 219 136
f 218 136 131
f 220 57 221
f 220 221 222
f 223 221 57
f 223 57 8
f 224 8 58
f 225 12 14
f 226 141 5
f 227 228 6
f 229 227 230
f 231 232 233
f 231 233 234
f 235 234 233
f 236 6 228
f 236 228 227
f 236 227 144
f 236 144 6
f 237 7 238
f 239 148 62
f 239 62 61
f 239 61 240
f 239 240 241
f 239 241 145
f 239 145 148
f 242 150 145
f 242 145 241
f 243 42 185
f 244 245 149
f 246 128 127
f 246 127 207
f 247 163 248
f 249 154 64
f 250 251 252
f 253 162 248
f 253 248 163
f 253 163 162
f 254 255 256
f 254 256 257
f 258 70 166
f 258 166 165
f 258 165 37
f 258 37 70
f 259 69 30
f 260 92 168
f 260 168 35
f 260 35 92
f 261 96 169
f 261 169 75
f 261 75 171
f 261 171 96
f 262 173 175
f 263 264 10
f 263 10 40
f 265 78 10
f 265 10 264
f 266 82 20
f 266 20 174
f 266 174 175
f 266 175 82
f 267 268 262
f 267 262 175
f 267 175 176
f 267 176 78
f 269 270 20
f 269 20 271
f 272 181 38
f 273 83 274
f 273 47 83
f 275 276 104
f 277 87 84
f 277 84 183
f 277 88 87
f 278 99 90
f 278 90 89
f 279 189 47
f 279 47 273
f 279 273 274
f 280 15 189
f 280 16 15
f 281 189 279
f 281 279 103
f 281 103 190
f 281 190 187
f 281 187 48
f 281 48 106
f 281 280 189
f 282 107 283
f 282 110 107
f 284 111 285
f 284 285 286
f 284 286 283
f 284 192 112
f 284 112 111
f 287 192 284
f 287 284 283
f 287 283 107
f 287 107 109
f 288 285 111
f 288 111 113
f 289 288 113
f 289 113 173
f 289 173 262
f 290 109 114
f 291 112 191
f 291 191 194
f 292 112 291
f 292 293 178
f 292 178 177
f 292 177 179
f 292 179 112
f 294 178 293
f 294 271 20
f 294 20 178
f 295 170 195
f 296 169 195
f 296 195 170
f 296 170 169
f 297 270 295
f 297 295 195
f 297 195 95
f 297 95 20
f 297 20 270
f 298 33 299
f 298 299 300
f 301 118 196
f 301 196 119
f 301 119 118
f 302 120 303
f 302 115 51
f 302 51 23
f 302 23 120
f 304 205 305
f 304 306 119
f 304 119 196
f 304 196 122
f 304 122 205
f 307 308 305
f 307 305 309
f 307 309 310
f 311 132 135
f 312 313 303
f 312 303 120
f 312 120 119
f 312 119 306
f 314 133 132
f 314 132 315
f 316 130 133
f 316 133 314
f 316 317 318
f 319 5 56
f 320 321 322
f 323 205 204
f 323 324 201
f 323 325 305
f 323 305 205
f 326 323 204
f 327 203 121
f 327 121 206
f 327 206 33
f 327 33 203
f 328 213 215
f 328 215 329
f 330 331 332
f 333 215 331
f 333 331 330
f 333 330 332
f 333 329 215
f 334 214 55
f 334 55 4
f 334 4 335
f 334 335 336
f 337 215 214
f 337 214 334
f 337 334 336
f 338 339 336
f 338 336 335
f 340 211 129
f 340 129 341
f 340 341 210
f 340 210 1
f 340 1 211
f 342 212 67
f 343 329 333
f 343 333 332
f 344 216 345
f 346 335 4
f 346 217 347
f 348 159 217
f 348 217 65
f 348 65 159
f 349 350 218
f 349 218 131
f 351 218 350
f 351 350 352
f 351 352 353
f 351 353 354
f 351 354 218
f 355 137 356
f 357 358 359
f 360 56 139
f 360 139 361
f 360 317 362
f 360 362 56
f 363 352 350
f 364 361 139
f 364 139 140
f 365 238 7
f 366 224 58
f 367 368 369
f 367 369 370
f 367 225 14
f 367 14 368
f 371 41 12
f 371 12 225
f 372 58 141
f 373 374 375
f 373 375 376
f 373 41 377
f 378 226 5
f 379 141 226
f 379 380 141
f 381 255 254
f 382 383 384
f 382 384 143
f 382 143 142
f 385 230 227
f 386 229 230
f 387 229 386
f 387 386 232
f 388 245 389
f 390 148 147
f 390 147 234
f 390 234 235
f 391 392 25
f 391 235 233
f 391 233 392
f 393 25 392
f 393 392 394
f 393 230 385
f 393 385 227
f 393 227 6
f 393 6 25
f 395 237 238
f 396 240 61
f 397 147 146
f 397 146 398
f 397 234 147
f 399 149 245
f 399 245 398
f 399 398 146
f 399 146 145
f 399 145 150
f 399 150 149
f 400 401 402
f 400 403 243
f 404 151 150
f 404 150 242
f 405 406 245
f 407 243 185
f 407 401 400
f 407 400 243
f 408 276 409
f 408 409 149
f 410 244 411
f 410 411 402
f 410 402 401
f 412 244 149
f 412 149 409
f 413 414 347
f 415 208 1
f 416 417 162
f 418 251 250
f 418 250 419
f 420 153 143
f 421 163 247
f 422 423 26
f 422 26 424
f 425 419 426
f 427 428 429
f 427 430 161
f 431 429 428
f 431 428 249
f 432 155 26
f 432 26 423
f 433 426 419
f 433 419 250
f 433 434 426
f 435 251 246
f 435 246 436
f 435 436 437
f 435 252 251
f 438 434 433
f 438 433 250
f 438 250 439
f 438 155 432
f 438 432 434
f 440 155 439
f 440 439 250
f 440 250 252
f 440 157 156
f 440 156 155
f 441 442 129
f 441 129 128
f 441 128 416
f 441 416 162
f 443 341 129
f 443 129 442
f 444 257 256
f 445 162 161
f 445 161 430
f 445 430 254
f 446 447 443
f 446 443 442
f 446 442 441
f 446 441 162
f 446 162 445
f 446 445 254
f 446 254 257
f 446 257 447
f 448 69 259
f 449 450 388
f 449 388 451
f 452 389 245
f 453 454 289
f 453 289 262
f 453 262 268
f 453 455 321
f 456 457 458
f 456 459 457
f 460 461 368
f 460 368 14
f 460 14 13
f 462 272 38
f 463 101 102
f 463 272 462
f 463 462 38
f 463 38 39
f 463 39 101
f 464 243 403
f 465 83 466
f 465 466 274
f 465 274 83
f 467 103 279
f 467 279 274
f 467 275 104
f 467 104 103
f 468 403 400
f 468 400 402
f 468 469 403
f 470 276 275
f 470 412 409
f 470 409 276
f 471 16 472
f 473 474 475
f 476 35 34
f 476 34 37
f 476 37 477
f 476 278 89
f 478 280 281
f 478 281 106
f 478 106 16
f 478 16 280
f 479 285 288
f 479 288 289
f 479 289 454
f 480 109 290
f 480 290 192
f 480 192 287
f 480 287 109
f 481 192 290
f 481 290 114
f 481 114 191
f 481 191 192
f 482 299 33
f 482 33 170
f 483 299 295
f 483 295 270
f 483 270 269
f 483 269 271
f 483 298 300
f 483 300 299
f 484 33 298
f 485 486 116
f 487 115 302
f 487 302 488
f 489 200 320
f 490 201 200
f 491 492 308
f 491 308 307
f 491 307 310
f 491 310 315
f 491 315 492
f 493 311 313
f 493 313 312
f 494 313 311
f 494 311 135
f 494 135 495
f 496 302 303
f 496 303 313
f 496 313 494
f 496 494 495
f 496 488 302
f 497 486 488
f 497 488 496
f 497 496 495
f 497 495 135
f 497 135 134
f 497 134 116
f 497 116 486
f 498 362 317
f 498 317 316
f 498 316 314
f 499 498 314
f 499 314 315
f 499 315 310
f 500 454 453
f 500 453 321
f 501 324 323
f 501 323 326
f 501 326 199
f 501 199 201
f 501 201 324
f 502 329 343
f 502 343 358
f 502 358 357
f 502 357 503
f 504 213 328
f 504 345 216
f 504 216 55
f 504 55 213
f 505 506 414
f 505 414 413
f 507 53 508
f 507 506 126
f 507 126 53
f 509 508 53
f 509 53 52
f 509 52 134
f 509 134 136
f 510 414 506
f 511 512 508
f 511 508 331
f 513 514 259
f 513 259 30
f 513 30 2
f 513 2 68
f 515 516 517
f 515 517 518
f 519 210 341
f 519 341 342
f 519 342 67
f 519 67 209
f 519 209 210
f 520 212 342
f 520 342 341
f 520 341 443
f 520 443 517
f 521 216 344
f 521 356 137
f 521 137 216
f 522 217 346
f 522 346 4
f 522 4 217
f 523 354 353
f 524 354 523
f 525 130 316
f 525 316 318
f 525 318 350
f 525 350 349
f 525 349 131
f 525 131 130
f 526 356 521
f 526 521 344
f 526 502 503
f 527 317 360
f 527 360 361
f 528 318 317
f 528 317 527
f 528 527 361
f 528 361 363
f 529 364 140
f 530 7 57
f 531 105 104
f 532 105 531
f 532 533 188
f 532 188 105
f 534 535 8
f 534 8 224
f 536 367 370
f 536 370 224
f 536 224 366
f 536 366 537
f 538 371 225
f 539 540 41
f 539 41 371
f 539 371 541
f 542 366 58
f 543 544 41
f 543 41 540
f 543 540 539
f 543 539 545
f 546 547 377
f 546 377 41
f 548 457 459
f 549 141 380
f 550 232 386
f 550 386 230
f 550 230 394
f 550 394 392
f 550 392 233
f 550 233 232
f 551 229 387
f 552 388 450
f 552 450 553
f 554 391 25
f 555 230 393
f 555 393 394
f 555 394 230
f 556 59 396
f 556 396 61
f 556 61 59
f 557 245 558
f 557 558 234
f 559 234 558
f 559 558 245
f 559 245 388
f 559 388 231
f 559 231 234
f 560 561 562
f 563 241 240
f 564 244 410
f 564 410 401
f 564 401 405
f 564 405 245
f 564 245 244
f 565 184 42
f 565 42 167
f 565 167 566
f 565 407 185
f 565 185 184
f 567 149 151
f 568 437 569
f 568 157 440
f 570 155 157
f 571 415 1
f 572 246 251
f 572 251 418
f 572 418 417
f 572 417 416
f 572 416 128
f 572 128 246
f 573 248 162
f 573 419 425
f 573 425 248
f 574 575 428
f 574 428 421
f 574 421 247
f 574 422 424
f 576 422 574
f 576 574 247
f 576 247 248
f 576 248 425
f 576 423 422
f 577 163 421
f 577 421 428
f 577 428 427
f 577 427 161
f 577 161 163
f 578 430 427
f 578 427 429
f 579 430 578
f 579 578 429
f 579 580 254
f 579 254 430
f 581 582 579
f 581 579 429
f 581 429 431
f 581 431 583
f 581 583 584
f 581 584 582
f 585 249 64
f 585 64 586
f 585 586 583
f 585 583 431
f 585 431 249
f 587 583 586
f 587 586 64
f 588 426 434
f 588 434 432
f 588 432 423
f 589 569 437
f 589 437 208
f 590 208 437
f 590 437 436
f 590 436 246
f 590 246 207
f 590 207 208
f 591 155 438
f 591 438 439
f 591 439 155
f 592 517 443
f 592 443 447
f 592 447 257
f 592 257 444
f 592 518 517
f 593 594 448
f 593 448 259
f 593 259 514
f 593 595 596
f 597 72 28
f 597 28 69
f 597 69 448
f 598 450 449
f 598 449 596
f 598 596 599
f 598 599 450
f 600 448 594
f 600 566 167
f 601 449 451
f 601 451 388
f 601 388 389
f 602 455 453
f 602 453 268
f 602 268 603
f 604 267 78
f 605 459 456
f 606 376 375
f 606 375 607
f 606 607 608
f 606 608 609
f 610 263 40
f 610 40 611
f 612 369 368
f 612 368 461
f 612 535 369
f 613 222 221
f 614 615 221
f 614 221 223
f 616 617 618
f 616 619 620
f 621 620 619
f 621 619 616
f 621 616 618
f 621 618 460
f 621 460 13
f 621 13 9
f 621 9 182
f 621 182 620
f 622 623 182
f 624 102 11
f 624 11 188
f 625 464 403
f 625 403 469
f 626 42 243
f 626 243 464
f 626 43 42
f 627 469 468
f 627 275 467
f 627 467 274
f 627 274 466
f 627 466 469
f 628 275 627
f 628 627 468
f 628 468 402
f 628 402 470
f 628 470 275
f 629 412 470
f 629 470 402
f 629 402 411
f 629 411 244
f 629 244 412
f 630 16 471
f 630 183 17
f 630 17 16
f 631 88 277
f 631 277 183
f 632 475 472
f 632 472 16
f 633 100 99
f 633 99 278
f 634 35 476
f 634 476 89
f 634 89 35
f 635 278 476
f 635 476 477
f 635 477 278
f 636 482 170
f 636 170 295
f 637 299 482
f 637 295 299
f 638 484 298
f 639 293 484
f 639 484 638
f 639 638 298
f 639 298 483
f 639 483 271
f 639 271 294
f 639 294 293
f 640 33 484
f 640 293 292
f 640 292 291
f 640 291 194
f 640 194 33
f 641 488 486
f 641 486 485
f 641 485 115
f 641 115 487
f 641 487 488
f 642 115 485
f 642 485 116
f 642 116 115
f 643 201 490
f 643 644 645
f 643 645 646
f 643 646 309
f 643 309 305
f 643 305 325
f 643 325 323
f 643 323 201
f 647 490 200
f 647 200 489
f 648 492 315
f 648 315 132
f 648 132 311
f 648 311 493
f 648 493 308
f 648 308 492
f 649 306 304
f 649 304 305
f 649 305 308
f 649 308 493
f 649 493 312
f 649 312 306
f 650 498 651
f 650 651 56
f 650 56 362
f 650 362 498
f 652 454 500
f 653 654 652
f 653 652 500
f 653 200 654
f 655 321 320
f 656 200 657
f 656 654 200
f 658 126 506
f 658 506 505
f 658 505 413
f 658 413 659
f 658 659 115
f 658 115 54
f 658 54 125
f 658 125 126
f 660 343 332
f 660 332 331
f 660 331 508
f 660 508 509
f 660 509 136
f 660 136 219
f 661 338 335
f 661 335 346
f 661 346 347
f 661 347 414
f 661 414 510
f 661 510 339
f 661 339 338
f 662 337 336
f 662 336 339
f 662 339 511
f 662 511 331
f 662 331 215
f 662 215 337
f 663 512 511
f 663 511 339
f 663 339 510
f 664 212 520
f 664 68 212
f 665 595 593
f 665 593 514
f 665 515 518
f 665 518 595
f 666 516 664
f 666 664 520
f 666 520 517
f 666 517 516
f 667 140 24
f 667 24 668
f 667 668 669
f 667 669 140
f 670 669 671
f 672 671 138
f 672 138 137
f 672 137 355
f 673 668 24
f 673 24 138
f 673 138 671
f 673 671 669
f 673 669 668
f 674 523 353
f 674 353 529
f 674 529 140
f 674 140 669
f 675 218 354
f 675 354 524
f 675 524 676
f 675 676 359
f 675 219 218
f 677 328 329
f 677 329 502
f 677 502 526
f 677 526 344
f 677 344 345
f 677 345 504
f 677 504 328
f 678 350 318
f 678 318 528
f 678 528 363
f 678 363 350
f 679 364 529
f 679 529 353
f 679 353 352
f 679 352 363
f 679 363 361
f 679 361 364
f 680 530 681
f 680 681 682
f 680 682 683
f 684 682 685
f 684 685 686
f 684 686 623
f 684 623 622
f 684 622 687
f 684 687 688
f 684 688 682
f 689 681 530
f 689 685 682
f 689 682 681
f 690 220 222
f 691 533 532
f 691 532 531
f 691 531 104
f 692 693 687
f 692 687 694
f 692 181 272
f 695 404 563
f 695 696 151
f 695 151 404
f 697 370 369
f 697 369 535
f 697 535 534
f 697 534 224
f 697 224 370
f 698 367 536
f 698 536 537
f 698 538 225
f 698 225 367
f 699 539 541
f 699 541 371
f 699 371 538
f 699 538 698
f 699 698 537
f 700 547 701
f 700 701 58
f 700 58 702
f 700 702 547
f 703 704 542
f 703 542 58
f 703 58 701
f 705 545 704
f 705 704 703
f 705 703 701
f 705 701 547
f 705 544 543
f 705 543 545
f 706 542 704
f 707 708 374
f 707 374 373
f 707 373 709
f 710 58 711
f 710 547 702
f 710 702 58
f 712 372 708
f 712 708 707
f 712 707 709
f 712 711 58
f 712 58 372
f 713 547 546
f 713 546 41
f 713 41 544
f 713 544 705
f 713 705 547
f 714 715 716
f 717 548 459
f 717 459 605
f 717 605 549
f 717 549 380
f 717 380 548
f 718 708 372
f 718 374 708
f 719 379 226
f 720 142 144
f 721 382 142
f 721 142 720
f 721 720 722
f 721 722 383
f 721 383 382
f 723 724 383
f 723 383 722
f 725 255 383
f 725 383 724
f 725 724 726
f 725 726 256
f 725 256 255
f 727 553 551
f 727 551 387
f 728 231 388
f 728 388 729
f 728 729 232
f 728 232 231
f 730 729 388
f 730 232 729
f 731 390 235
f 731 235 391
f 731 391 554
f 731 25 63
f 731 63 62
f 731 62 148
f 731 148 390
f 732 395 238
f 733 7 237
f 733 237 734
f 733 734 59
f 733 59 7
f 735 396 59
f 735 734 237
f 735 237 736
f 735 736 396
f 737 245 557
f 737 557 234
f 737 234 397
f 737 397 398
f 737 398 245
f 738 561 739
f 738 533 691
f 738 691 740
f 738 740 741
f 738 741 562
f 738 562 561
f 742 743 744
f 742 744 562
f 742 562 741
f 742 696 743
f 745 395 732
f 745 732 746
f 747 693 561
f 747 561 560
f 748 749 745
f 748 560 562
f 748 562 744
f 748 744 749
f 750 563 240
f 750 240 396
f 751 241 563
f 751 563 404
f 751 404 242
f 751 242 241
f 752 753 406
f 752 406 405
f 752 405 401
f 752 401 407
f 754 452 245
f 754 245 406
f 754 406 753
f 754 753 389
f 754 389 452
f 755 407 565
f 756 389 753
f 756 753 752
f 756 755 565
f 756 565 566
f 756 566 601
f 756 601 389
f 757 276 408
f 757 567 758
f 757 758 104
f 757 104 276
f 759 149 567
f 759 567 757
f 759 757 408
f 759 408 149
f 760 761 159
f 762 347 217
f 762 217 159
f 762 413 347
f 763 437 568
f 763 568 440
f 763 440 252
f 763 252 435
f 763 435 437
f 764 765 570
f 764 570 157
f 764 157 568
f 764 568 569
f 764 569 766
f 764 766 765
f 767 65 155
f 767 155 570
f 768 571 1
f 768 1 152
f 769 417 418
f 769 418 419
f 769 419 573
f 769 573 162
f 769 162 417
f 770 428 575
f 770 575 154
f 770 154 249
f 770 249 428
f 771 575 574
f 771 574 424
f 771 424 26
f 771 26 154
f 771 154 575
f 772 383 255
f 772 255 381
f 772 384 383
f 773 584 583
f 773 583 587
f 773 587 64
f 773 64 153
f 774 426 588
f 774 588 423
f 774 423 576
f 774 576 425
f 774 425 426
f 775 415 776
f 775 776 766
f 775 766 569
f 775 569 589
f 775 589 208
f 775 208 415
f 777 450 599
f 777 518 592
f 777 592 444
f 777 444 778
f 779 444 780
f 781 594 593
f 781 593 596
f 781 596 449
f 782 72 597
f 782 597 448
f 782 448 600
f 782 600 167
f 782 167 166
f 782 166 72
f 783 600 594
f 783 594 781
f 783 781 449
f 783 449 601
f 783 601 566
f 783 566 600
f 784 602 603
f 784 603 785
f 786 322 787
f 788 607 716
f 788 716 715
f 788 608 607
f 789 607 375
f 789 375 374
f 789 374 718
f 789 718 790
f 791 608 458
f 791 792 793
f 791 793 608
f 794 792 791
f 794 791 458
f 794 458 457
f 795 611 40
f 795 610 611
f 796 265 264
f 796 264 263
f 797 612 461
f 797 461 460
f 798 615 620
f 798 613 221
f 798 221 615
f 799 686 690
f 799 690 222
f 799 222 613
f 799 613 798
f 799 798 620
f 799 620 182
f 799 182 623
f 799 623 686
f 800 614 223
f 800 223 8
f 800 8 801
f 802 615 614
f 802 614 800
f 802 800 617
f 802 617 616
f 802 616 620
f 802 620 615
f 803 687 622
f 803 622 182
f 803 182 181
f 803 181 692
f 803 692 694
f 803 694 687
f 804 624 188
f 804 188 533
f 805 466 83
f 805 83 85
f 805 464 625
f 805 625 469
f 805 469 466
f 806 631 183
f 806 183 630
f 806 630 471
f 806 471 472
f 806 472 475
f 807 474 473
f 807 473 37
f 807 37 88
f 807 88 631
f 807 631 806
f 807 806 475
f 807 475 474
f 808 477 633
f 808 633 278
f 808 278 477
f 809 37 473
f 810 632 16
f 810 16 100
f 810 100 633
f 811 482 636
f 811 636 295
f 811 295 637
f 811 637 482
f 812 293 640
f 812 640 484
f 812 484 293
f 813 814 815
f 816 817 815
f 816 815 814
f 818 815 817
f 819 498 817
f 819 817 816
f 819 816 814
f 820 5 319
f 821 822 820
f 821 820 823
f 821 824 5
f 821 5 822
f 825 200 653
f 825 653 500
f 825 500 321
f 825 321 655
f 825 655 320
f 825 320 200
f 826 326 204
f 826 199 326
f 827 828 657
f 827 657 200
f 829 286 285
f 829 283 286
f 830 358 343
f 830 343 660
f 830 660 219
f 830 219 675
f 830 675 359
f 830 359 358
f 831 506 507
f 831 507 508
f 831 508 512
f 831 512 663
f 831 663 510
f 831 510 506
f 832 513 68
f 832 68 664
f 832 664 516
f 832 516 515
f 832 515 665
f 832 665 514
f 832 514 513
f 833 524 523
f 833 523 674
f 833 674 669
f 833 669 670
f 834 671 672
f 834 672 355
f 834 355 356
f 834 356 526
f 834 526 503
f 834 503 670
f 834 670 671
f 835 530 680
f 835 680 683
f 835 238 365
f 835 365 7
f 835 7 530
f 836 530 57
f 836 57 220
f 836 220 685
f 836 685 689
f 836 689 530
f 837 685 220
f 837 220 690
f 837 690 686
f 837 686 685
f 838 561 693
f 838 693 692
f 838 739 561
f 839 696 695
f 839 695 563
f 840 696 742
f 840 742 741
f 840 741 740
f 840 758 567
f 840 567 151
f 840 151 696
f 841 542 706
f 841 706 704
f 841 699 537
f 841 537 366
f 841 366 542
f 842 710 711
f 842 711 712
f 842 712 709
f 842 709 373
f 842 373 377
f 842 377 547
f 842 547 710
f 843 380 379
f 843 379 844
f 843 844 845
f 843 548 380
f 846 847 786
f 848 549 714
f 848 141 549
f 849 790 718
f 849 718 372
f 849 372 141
f 849 141 714
f 849 714 790
f 850 5 851
f 850 851 378
f 850 378 5
f 852 824 378
f 852 378 851
f 852 851 5
f 852 5 824
f 853 854 855
f 853 855 844
f 853 844 379
f 856 226 854
f 856 854 857
f 856 857 226
f 858 378 854
f 858 854 226
f 858 226 378
f 859 227 229
f 859 229 551
f 859 720 144
f 859 144 227
f 860 552 553
f 860 553 727
f 860 727 387
f 860 387 232
f 860 232 552
f 861 552 232
f 861 232 730
f 861 730 388
f 861 388 552
f 862 554 25
f 862 25 731
f 862 731 554
f 863 734 735
f 863 735 59
f 863 59 734
f 864 736 237
f 864 237 395
f 864 395 745
f 864 745 749
f 864 749 744
f 864 744 743
f 864 743 736
f 865 692 804
f 865 804 533
f 865 533 738
f 865 738 739
f 865 739 838
f 865 838 692
f 866 867 747
f 866 747 560
f 866 560 748
f 866 748 745
f 866 745 746
f 866 746 867
f 868 563 750
f 868 750 396
f 868 396 736
f 869 407 755
f 869 755 756
f 869 756 752
f 869 752 407
f 870 871 765
f 870 765 766
f 872 760 159
f 872 65 767
f 872 767 570
f 872 570 765
f 872 765 871
f 873 762 159
f 873 159 761
f 874 152 115
f 874 115 659
f 875 582 584
f 875 772 381
f 875 381 254
f 875 254 580
f 875 580 579
f 875 579 582
f 876 384 772
f 876 772 875
f 876 875 584
f 876 420 143
f 876 143 384
f 877 420 876
f 877 876 584
f 877 584 773
f 877 773 153
f 877 153 420
f 878 553 450
f 878 450 777
f 878 777 778
f 879 596 595
f 879 777 599
f 879 599 596
f 880 444 779
f 881 726 724
f 881 724 723
f 881 779 780
f 881 780 444
f 881 444 256
f 881 256 726
f 882 322 786
f 882 786 847
f 882 847 846
f 883 455 602
f 883 602 784
f 884 455 883
f 884 883 784
f 884 784 785
f 884 787 322
f 884 322 321
f 884 321 455
f 885 456 458
f 885 458 608
f 885 608 788
f 885 788 605
f 885 605 456
f 886 605 788
f 886 788 715
f 886 715 714
f 886 714 549
f 886 549 605
f 887 716 607
f 887 607 789
f 887 789 790
f 887 790 714
f 887 714 716
f 888 792 794
f 889 890 891
f 889 888 794
f 892 603 268
f 892 268 267
f 892 267 604
f 893 41 373
f 893 373 376
f 893 376 606
f 893 606 609
f 893 40 41
f 894 796 263
f 894 263 610
f 894 610 795
f 895 265 796
f 896 618 797
f 896 797 460
f 896 460 618
f 897 617 800
f 897 800 801
f 897 797 618
f 897 618 617
f 898 797 897
f 898 897 801
f 898 801 8
f 899 272 463
f 899 804 692
f 899 692 272
f 900 901 683
f 900 683 682
f 900 682 688
f 900 688 687
f 902 867 746
f 902 746 901
f 902 693 747
f 902 747 867
f 903 43 626
f 903 626 464
f 903 464 805
f 903 805 85
f 903 85 43
f 904 475 632
f 904 632 810
f 904 810 633
f 904 473 475
f 905 477 37
f 905 37 809
f 905 809 904
f 905 904 633
f 906 646 645
f 906 645 813
f 906 813 815
f 907 310 818
f 907 818 817
f 907 817 498
f 907 498 499
f 907 499 310
f 908 815 818
f 908 818 310
f 909 910 319
f 909 819 814
f 911 498 819
f 911 819 319
f 911 319 56
f 911 56 651
f 911 651 498
f 912 820 319
f 913 5 820
f 913 820 822
f 913 822 5
f 914 823 820
f 914 820 915
f 914 915 916
f 917 644 643
f 917 643 490
f 918 813 645
f 918 645 644
f 918 644 917
f 918 916 915
f 919 123 110
f 919 828 826
f 920 199 826
f 920 826 828
f 920 828 827
f 920 827 200
f 920 200 199
f 921 479 454
f 921 454 652
f 922 828 919
f 922 829 923
f 922 657 828
f 924 676 524
f 924 524 833
f 924 833 670
f 924 670 503
f 924 503 357
f 924 357 359
f 924 359 676
f 925 732 238
f 925 238 835
f 925 835 683
f 925 683 901
f 925 901 746
f 925 746 732
f 926 758 840
f 926 840 740
f 926 740 691
f 926 691 104
f 926 104 758
f 927 699 841
f 927 841 704
f 927 704 545
f 927 545 539
f 927 539 699
f 928 457 548
f 929 930 931
f 929 931 891
f 932 141 848
f 932 848 714
f 932 714 141
f 933 719 226
f 933 226 857
f 933 857 854
f 933 854 853
f 933 853 379
f 933 379 719
f 934 779 881
f 934 881 723
f 934 723 722
f 935 563 868
f 936 776 415
f 936 415 571
f 936 870 766
f 936 766 776
f 937 760 872
f 937 872 871
f 937 871 870
f 937 870 760
f 938 65 872
f 938 872 159
f 938 159 160
f 939 413 762
f 939 762 873
f 939 873 761
f 939 761 760
f 939 760 874
f 940 870 768
f 940 768 152
f 940 152 874
f 940 874 760
f 940 760 870
f 941 553 878
f 941 878 551
f 941 551 553
f 942 779 934
f 942 551 878
f 942 878 778
f 942 778 444
f 942 444 880
f 942 880 779
f 943 518 777
f 943 777 879
f 943 879 595
f 943 595 518
f 944 882 846
f 944 846 945
f 946 786 787
f 946 787 884
f 946 884 930
f 947 824 821
f 947 821 823
f 947 948 945
f 947 378 824
f 949 846 855
f 949 855 854
f 949 854 378
f 949 378 950
f 949 950 945
f 949 945 846
f 951 931 930
f 951 930 884
f 951 884 785
f 951 889 891
f 951 891 931
f 952 895 792
f 952 792 953
f 954 608 793
f 954 793 792
f 954 792 894
f 954 894 795
f 954 795 40
f 954 40 893
f 954 893 609
f 954 609 608
f 955 894 792
f 955 792 895
f 955 895 796
f 955 796 894
f 956 797 898
f 956 898 8
f 956 8 535
f 956 535 612
f 956 612 797
f 957 624 804
f 957 804 899
f 957 899 463
f 957 463 102
f 957 102 624
f 958 959 901
f 958 901 900
f 958 900 687
f 958 687 693
f 958 693 959
f 960 959 693
f 960 693 902
f 960 902 901
f 960 901 959
f 961 473 904
f 961 904 809
f 961 809 473
f 962 477 905
f 962 905 633
f 962 633 477
f 963 815 908
f 963 908 310
f 963 310 309
f 963 309 646
f 963 646 906
f 963 906 815
f 964 819 909
f 964 909 319
f 964 319 819
f 965 909 814
f 965 814 813
f 965 813 918
f 965 918 915
f 966 647 489
f 966 489 947
f 966 947 823
f 966 823 914
f 966 914 916
f 967 968 966
f 967 966 916
f 967 490 968
f 969 123 919
f 969 204 123
f 970 282 283
f 970 283 829
f 970 829 922
f 970 922 919
f 970 919 110
f 970 110 282
f 971 922 923
f 971 923 829
f 971 829 285
f 971 285 479
f 971 479 921
f 972 928 548
f 972 548 843
f 972 843 845
f 973 928 891
f 974 846 786
f 974 786 946
f 974 946 930
f 975 845 844
f 976 928 972
f 976 929 891
f 976 891 928
f 977 720 859
f 977 859 551
f 977 551 942
f 977 942 934
f 977 934 722
f 977 722 720
f 978 839 563
f 978 563 935
f 978 935 696
f 978 696 839
f 979 736 743
f 979 743 696
f 979 696 935
f 979 935 868
f 979 868 736
f 980 870 936
f 980 936 571
f 981 65 938
f 981 938 160
f 981 160 65
f 982 659 413
f 982 413 939
f 982 939 874
f 982 874 659
f 983 320 322
f 983 322 882
f 983 882 944
f 983 944 945
f 983 945 948
f 984 950 378
f 984 378 947
f 984 947 945
f 984 945 950
f 985 947 489
f 985 489 320
f 985 320 983
f 986 888 889
f 986 889 951
f 986 951 785
f 986 785 953
f 986 953 792
f 986 792 888
f 987 892 604
f 987 604 952
f 987 952 953
f 987 953 785
f 987 785 603
f 987 603 892
f 988 895 952
f 988 952 604
f 988 604 78
f 988 78 265
f 988 265 895
f 989 820 912
f 989 912 319
f 989 319 910
f 989 910 909
f 989 909 965
f 989 965 915
f 989 915 820
f 990 647 966
f 990 490 647
f 991 917 490
f 991 490 967
f 991 967 916
f 991 916 918
f 991 918 917
f 992 826 204
f 992 204 969
f 992 969 919
f 992 919 826
f 993 652 654
f 993 654 656
f 993 656 657
f 993 657 922
f 993 922 971
f 993 971 921
f 993 921 652
f 994 890 889
f 994 889 794
f 994 794 457
f 994 457 928
f 995 855 846
f 995 846 974
f 995 974 975
f 995 975 844
f 995 844 855
f 996 974 930
f 996 930 929
f 997 845 975
f 997 975 974
f 997 974 996
f 997 996 929
f 997 929 976
f 997 976 972
f 997 972 845
f 998 870 980
f 998 980 571
f 998 571 768
f 998 768 870
f 999 947 985
f 999 985 983
f 999 983 948
f 999 948 947
f 1000 968 490
f 1000 490 990
f 1000 990 966
f 1000 966 968
f 1001 973 891
f 1001 891 890
f 1001 890 994
f 1001 994 928
f 1001 928 973
