# Convex hull collision mesh — generated by scripts/generate-collision-meshes.mjs (units: meters)
v 0.026291 0.083716 0.007000
v -0.033186 0.063033 0.007000
v 0.036132 0.059663 0.007000
v -0.007086 0.059686 0.007000
v -0.013840 0.035123 -0.004000
v -0.033186 0.063033 -0.004000
v 0.027755 0.082715 -0.004000
v -0.023310 0.086128 -0.004000
v -0.033065 0.064224 0.007000
v -0.021793 0.117880 0.000000
v -0.027972 0.109823 0.000000
v -0.021793 0.117880 0.003000
v -0.017652 0.117903 0.000000
v -0.027972 0.109823 0.003000
v -0.035646 0.064180 0.000000
v 0.025034 0.115389 0.003000
v 0.031214 0.107332 0.003000
v 0.025034 0.115389 -0.000000
v 0.028037 0.082182 0.007000
v -0.013237 0.035114 0.007000
v 0.011000 -0.000000 0.003000
v -0.011000 0.000000 0.000000
v 0.011000 -0.000000 0.000000
v -0.015397 0.035971 -0.004000
v 0.013724 0.035110 -0.004000
v 0.031214 0.107332 -0.000000
v -0.024655 0.084973 -0.004000
v 0.025693 0.083787 -0.004000
v -0.033198 0.063636 0.007000
v -0.023310 0.086128 0.007000
v -0.011000 0.000000 0.003000
v 0.005984 0.010050 0.006200
v -0.020500 0.017600 0.000000
v -0.034105 0.064237 -0.003000
v -0.035646 0.064180 0.003000
v -0.017652 0.117903 0.003000
v 0.036204 0.061986 0.007000
v 0.027755 0.082715 0.007000
v 0.020500 0.017600 0.000000
v 0.013280 0.012512 0.006200
v 0.026463 0.030828 0.006000
v -0.015397 0.035971 0.007000
v -0.032739 0.061923 -0.004000
v -0.014952 0.035565 -0.004000
v -0.013237 0.035114 -0.004000
v 0.036363 0.060220 -0.004000
v -0.032795 0.064763 -0.004000
v -0.023848 0.085857 -0.004000
v -0.024305 0.085464 -0.004000
v 0.026856 0.083505 -0.004000
v -0.022120 0.086255 -0.004000
v -0.024959 0.083816 0.007000
v -0.024305 0.085464 0.007000
v -0.033030 0.062451 0.007000
v -0.027496 0.033357 0.006000
v -0.033198 0.063636 -0.004000
v -0.034673 0.063928 0.006000
v -0.035700 0.063062 0.000000
v -0.034106 0.062536 -0.003000
v -0.035503 0.061960 0.000000
v 0.025693 0.083787 0.007000
v -0.022723 0.086264 0.007000
v 0.026856 0.083505 0.007000
v 0.020500 0.017600 0.003000
v 0.024796 0.028311 0.006000
v -0.013840 0.035123 0.007000
v -0.014423 0.035276 -0.004000
v 0.036204 0.061986 -0.004000
v 0.036132 0.059663 -0.004000
v 0.026816 0.031551 0.003000
v 0.038891 0.061690 -0.000000
v 0.037433 0.061292 -0.003000
v 0.036400 0.061416 0.007000
v 0.027353 0.083164 -0.004000
v 0.026291 0.083716 -0.004000
v -0.022723 0.086264 -0.004000
v -0.023848 0.085857 0.007000
v -0.024655 0.084973 0.007000
v -0.020397 0.024703 0.006000
v 0.002412 0.011820 0.006200
v 0.005321 0.010214 0.006200
v -0.027241 0.032593 0.006000
v -0.027241 0.032593 0.003000
v -0.027496 0.033357 0.003000
v -0.033065 0.064224 -0.004000
v -0.033030 0.062451 -0.004000
v -0.035503 0.061960 0.003000
v -0.034210 0.063387 -0.003000
v -0.022120 0.086255 0.007000
v 0.027353 0.083164 0.007000
v 0.012807 0.012020 0.006200
v 0.009962 0.010304 0.006200
v 0.009306 0.010114 0.006200
v 0.034180 0.058403 0.007000
v 0.036400 0.061416 -0.004000
v 0.028037 0.082182 -0.004000
v 0.015319 0.035885 -0.004000
v 0.038891 0.061690 0.003000
v 0.037210 0.059606 -0.003000
v 0.036363 0.060220 0.007000
v -0.022897 0.026393 0.006000
v 0.005541 0.010153 0.006200
v -0.014952 0.035565 0.007000
v -0.032739 0.061923 0.007000
v -0.020500 0.017600 0.003000
v -0.027416 0.033101 0.006000
v -0.034472 0.062024 0.006000
v -0.035700 0.063062 0.003000
v 0.015319 0.035885 0.007000
v 0.009526 0.010171 0.006200
v 0.036454 0.060816 -0.004000
v 0.035774 0.059178 -0.004000
v 0.014314 0.035236 -0.004000
v 0.037425 0.060435 -0.003000
v 0.005762 0.010099 0.006200
v -0.014423 0.035276 0.007000
v -0.025921 0.029879 0.006000
v -0.025777 0.029653 0.006000
v -0.027331 0.032846 0.006000
v -0.027416 0.033101 0.003000
v -0.034688 0.062963 0.006000
v 0.013724 0.035110 0.007000
v 0.035774 0.059178 0.007000
v 0.012969 0.012180 0.006200
v 0.014856 0.035499 -0.004000
v 0.037835 0.061867 0.006000
v 0.037955 0.060910 0.006000
v 0.036454 0.060816 0.007000
v 0.037843 0.059953 0.006000
v 0.038312 0.058439 -0.000000
v 0.037505 0.059050 0.006000
v 0.038749 0.059470 0.003000
v 0.026816 0.031551 0.006000
v 0.038945 0.060572 0.003000
v -0.025478 0.029207 0.006000
v -0.023500 0.026927 0.006000
v -0.023101 0.026568 0.006000
v -0.027331 0.032846 0.003000
v 0.014856 0.035499 0.007000
v 0.014314 0.035236 0.007000
v 0.013127 0.012344 0.006200
v 0.038749 0.059470 -0.000000
v 0.038312 0.058439 0.003000
v 0.026702 0.031308 0.006000
v -0.025629 0.029429 0.006000
v -0.023302 0.026746 0.006000
v 0.009745 0.010234 0.006200
v 0.038945 0.060572 -0.000000
v 0.026585 0.031067 0.006000
f 1 2 3
f 4 3 2
f 5 6 7
f 8 7 6
f 9 2 1
f 10 11 12
f 10 12 13
f 14 12 11
f 14 11 15
f 16 17 18
f 16 18 13
f 19 1 3
f 20 4 2
f 20 3 4
f 21 22 23
f 24 6 5
f 25 5 7
f 25 23 22
f 26 7 18
f 26 18 17
f 27 8 6
f 28 7 8
f 28 13 18
f 29 2 9
f 30 9 1
f 31 22 21
f 31 21 32
f 33 22 31
f 34 15 11
f 35 14 15
f 36 16 13
f 36 13 12
f 37 17 19
f 37 19 3
f 38 1 19
f 38 19 17
f 38 17 16
f 39 21 23
f 40 41 3
f 42 20 2
f 43 6 24
f 43 24 22
f 44 22 24
f 44 24 5
f 45 5 25
f 45 25 22
f 45 22 5
f 46 25 7
f 47 27 6
f 48 8 27
f 48 10 8
f 49 10 48
f 49 48 27
f 49 27 11
f 49 11 10
f 50 7 28
f 51 13 28
f 51 28 8
f 52 9 30
f 53 9 52
f 53 52 30
f 53 12 14
f 54 42 2
f 55 54 2
f 56 34 11
f 56 47 6
f 57 14 35
f 57 29 9
f 57 9 14
f 58 35 15
f 58 59 60
f 61 16 36
f 61 30 1
f 61 1 16
f 62 30 61
f 62 36 12
f 62 12 30
f 63 1 38
f 63 16 1
f 64 21 39
f 64 41 21
f 65 41 40
f 65 40 21
f 65 21 41
f 66 20 42
f 66 32 20
f 67 22 44
f 67 44 5
f 67 5 22
f 68 46 7
f 69 39 23
f 69 25 46
f 70 64 39
f 71 26 17
f 71 72 26
f 73 37 3
f 73 17 37
f 74 7 50
f 74 50 18
f 74 18 7
f 75 18 50
f 75 50 28
f 75 28 18
f 76 10 13
f 76 13 51
f 76 51 8
f 76 8 10
f 77 12 53
f 77 53 30
f 77 30 12
f 78 9 53
f 78 53 14
f 78 14 9
f 79 31 80
f 81 80 31
f 82 83 33
f 84 55 60
f 85 47 56
f 85 56 11
f 85 11 27
f 85 27 47
f 86 33 59
f 86 59 6
f 86 6 43
f 86 43 22
f 86 22 33
f 87 58 60
f 87 60 55
f 88 34 56
f 88 56 6
f 88 6 59
f 88 59 58
f 88 58 15
f 88 15 34
f 89 36 62
f 89 62 61
f 89 61 36
f 90 16 63
f 90 63 38
f 90 38 16
f 91 92 21
f 93 32 21
f 94 3 20
f 95 46 68
f 95 68 26
f 95 26 72
f 96 26 68
f 96 68 7
f 96 7 26
f 97 25 69
f 98 71 17
f 99 39 69
f 99 69 46
f 100 73 3
f 101 31 79
f 101 79 80
f 102 81 31
f 103 101 80
f 103 80 81
f 103 66 42
f 104 42 54
f 105 82 33
f 105 33 31
f 106 55 84
f 106 54 55
f 107 87 55
f 107 55 2
f 108 35 58
f 108 58 87
f 108 57 35
f 109 3 94
f 109 94 20
f 110 93 21
f 111 46 95
f 111 95 72
f 112 23 97
f 112 97 69
f 112 69 23
f 113 25 97
f 113 23 25
f 114 99 46
f 114 46 111
f 114 111 72
f 115 32 66
f 115 66 102
f 115 102 31
f 115 31 32
f 116 66 103
f 116 103 81
f 116 81 102
f 116 102 66
f 117 82 105
f 117 105 31
f 117 31 118
f 117 118 104
f 117 104 54
f 117 54 82
f 119 82 54
f 119 54 106
f 119 83 82
f 120 119 106
f 120 106 84
f 120 84 60
f 121 107 2
f 121 2 29
f 121 29 57
f 121 57 108
f 121 108 87
f 121 87 107
f 122 109 20
f 122 20 32
f 122 32 93
f 123 3 109
f 123 109 40
f 123 40 3
f 124 109 91
f 124 91 21
f 125 23 113
f 125 113 97
f 125 97 23
f 126 17 73
f 126 73 127
f 126 127 98
f 126 98 17
f 128 100 129
f 128 129 127
f 128 127 73
f 128 73 100
f 130 39 99
f 130 70 39
f 131 132 129
f 131 129 100
f 133 70 130
f 133 132 131
f 133 131 100
f 133 100 3
f 133 64 70
f 134 98 127
f 134 127 129
f 134 129 132
f 134 71 98
f 135 31 136
f 135 136 42
f 137 101 103
f 137 31 101
f 138 119 120
f 138 120 60
f 138 60 59
f 138 59 33
f 138 33 83
f 138 83 119
f 139 109 122
f 139 92 91
f 139 91 109
f 140 92 139
f 140 139 122
f 140 122 93
f 140 93 110
f 141 109 124
f 141 124 21
f 141 21 40
f 141 40 109
f 142 134 132
f 142 132 130
f 142 130 99
f 142 99 114
f 143 132 133
f 143 133 130
f 143 130 132
f 144 64 133
f 144 133 3
f 145 118 31
f 145 31 135
f 145 135 42
f 145 42 104
f 145 104 118
f 146 136 31
f 146 31 137
f 146 137 103
f 146 103 42
f 146 42 136
f 147 92 140
f 147 140 110
f 147 110 21
f 147 21 92
f 148 71 134
f 148 134 142
f 148 142 114
f 148 114 72
f 148 72 71
f 149 64 144
f 149 144 3
f 149 3 41
f 149 41 64
