# Convex hull collision mesh — generated by scripts/generate-collision-meshes.mjs (units: meters)
v -0.002242 -0.058366 -0.000051
v -0.002242 0.003634 -0.000051
v 0.014118 -0.000521 -0.000051
v -0.004742 0.003634 0.014949
v -0.002242 -0.058366 0.014949
v 0.014118 0.001788 0.014949
v 0.012758 -0.058366 0.014949
v 0.012758 0.003634 -0.000051
v -0.012166 -0.000034 0.009949
v -0.012242 0.000634 0.009949
v -0.012242 0.000634 0.004949
v -0.001266 -0.073696 0.009949
v -0.004742 -0.002366 0.014949
v 0.012758 -0.058366 -0.000051
v 0.001658 -0.076028 0.004949
v 0.012758 0.003634 0.014949
v -0.004742 -0.002366 -0.000051
v -0.012166 -0.000034 0.004949
v -0.005192 0.000463 0.014691
v 0.014118 0.002943 0.001949
v -0.004742 0.003634 -0.000051
v 0.008658 -0.067028 0.011449
v 0.001658 -0.076028 0.009949
v -0.001266 -0.073696 0.004949
v -0.001045 -0.074330 0.004949
v 0.014118 0.002943 0.012949
v 0.014118 -0.000521 0.014949
v 0.014686 0.000617 0.013949
v 0.014808 0.000463 0.013592
v 0.014808 -0.000028 0.013018
v 0.014808 0.000398 0.001327
v 0.014808 -0.000031 0.001949
v 0.014686 0.000513 0.000956
v -0.005192 0.000284 0.000234
v -0.009242 0.003634 0.009949
v -0.012166 0.001301 0.009949
v -0.011945 0.001935 0.009949
v -0.011587 0.002504 0.009949
v 0.008658 -0.067028 0.003449
v 0.004004 -0.074899 0.004949
v 0.004361 -0.074330 0.009949
v 0.000357 -0.075731 0.004949
v -0.000212 -0.075374 0.009949
v -0.000212 -0.075374 0.004949
v 0.014808 0.001279 0.002108
v 0.014808 0.000080 0.013317
v 0.014686 0.000856 0.013924
v 0.014808 0.000136 0.001508
v 0.014118 0.001788 -0.000051
v -0.005192 0.000984 0.000234
v -0.011945 0.001935 0.004949
v -0.009909 0.003558 0.009949
v -0.010543 0.003336 0.009949
v -0.010543 0.003336 0.004949
v -0.009242 0.003634 0.004949
v -0.011112 0.002979 0.009949
v 0.002326 -0.075953 0.004949
v 0.002960 -0.075731 0.004949
v 0.003529 -0.075374 0.004949
v 0.003529 -0.075374 0.009949
v 0.002960 -0.075731 0.009949
v 0.004004 -0.074899 0.009949
v 0.004361 -0.074330 0.004949
v -0.001045 -0.074330 0.009949
v -0.000687 -0.074899 0.004949
v 0.000991 -0.075953 0.009949
v 0.014808 0.001251 0.013195
v 0.014686 0.001634 0.001949
v 0.014808 0.000008 0.013174
v 0.014808 0.000184 0.013439
v 0.014808 -0.000012 0.001790
v 0.014808 0.000256 0.001402
v 0.014808 0.001131 0.001508
v -0.011587 0.002504 0.004949
v -0.012166 0.001301 0.004949
v -0.009909 0.003558 0.004949
v 0.002326 -0.075953 0.009949
v -0.000687 -0.074899 0.009949
v 0.000991 -0.075953 0.004949
v 0.000357 -0.075731 0.009949
v 0.014686 0.001447 0.013531
v 0.014808 0.000622 0.013614
v 0.014808 0.001299 0.001949
v 0.014686 0.001628 0.012845
v 0.014808 0.000315 0.013532
v 0.014808 0.000045 0.001640
v 0.014808 0.000714 0.001289
v 0.014686 0.001519 0.001484
v 0.014686 0.001382 0.001286
v -0.011112 0.002979 0.004949
v 0.014686 0.001284 0.013709
v 0.014808 0.001295 0.012880
v 0.014686 0.001624 0.013086
v 0.014686 0.000754 0.000956
v 0.014808 0.000553 0.001289
v 0.014808 0.001222 0.001640
v 0.014686 0.001604 0.001710
v 0.014808 0.000933 0.013543
v 0.014686 0.001562 0.013319
v 0.014808 0.001292 0.013040
v 0.014686 0.001202 0.001126
v 0.014808 0.001279 0.001790
v 0.014808 0.000782 0.013597
v 0.014686 0.001083 0.013842
v 0.014808 0.001066 0.013454
v 0.014808 0.000869 0.001327
v 0.014808 0.001174 0.013336
v 0.014686 0.000988 0.001014
v 0.014808 0.001011 0.001402
f 1 2 3
f 4 5 6
f 7 6 5
f 8 3 2
f 8 2 4
f 9 10 11
f 9 5 10
f 12 5 9
f 13 5 4
f 13 10 5
f 14 15 1
f 14 1 3
f 16 8 4
f 16 4 6
f 17 1 11
f 17 2 1
f 18 11 1
f 18 12 9
f 18 9 11
f 19 10 13
f 19 13 4
f 19 4 10
f 20 8 16
f 21 2 17
f 21 4 2
f 22 14 7
f 23 7 5
f 24 1 25
f 24 25 12
f 24 12 18
f 24 18 1
f 26 20 16
f 26 16 6
f 27 7 28
f 27 28 6
f 27 6 7
f 29 30 31
f 32 31 30
f 32 30 7
f 32 7 14
f 33 14 3
f 34 21 17
f 34 17 11
f 35 4 21
f 36 4 37
f 36 11 10
f 36 10 4
f 38 37 4
f 39 40 14
f 39 14 22
f 41 39 22
f 42 43 44
f 42 44 1
f 45 29 31
f 46 30 29
f 47 6 28
f 48 31 32
f 49 8 20
f 49 33 3
f 49 3 8
f 50 21 34
f 50 34 11
f 50 11 21
f 51 36 37
f 51 37 38
f 52 53 4
f 52 4 35
f 52 54 53
f 55 52 35
f 55 35 21
f 56 38 4
f 56 4 53
f 56 53 54
f 57 14 58
f 57 23 15
f 57 15 14
f 59 40 60
f 59 60 58
f 59 58 14
f 59 14 40
f 61 57 58
f 61 58 60
f 61 60 7
f 62 40 41
f 62 41 22
f 62 22 7
f 62 7 60
f 62 60 40
f 63 39 41
f 63 41 40
f 63 40 39
f 64 5 12
f 64 12 25
f 65 44 43
f 65 64 25
f 65 25 1
f 65 1 44
f 66 23 5
f 66 15 23
f 67 29 45
f 68 20 26
f 69 30 46
f 69 46 7
f 69 7 30
f 70 7 46
f 70 46 29
f 71 48 32
f 71 32 14
f 72 31 48
f 72 48 14
f 72 14 31
f 73 45 31
f 74 21 51
f 74 51 38
f 74 38 56
f 75 36 51
f 75 51 21
f 75 21 11
f 75 11 36
f 76 52 55
f 76 55 21
f 76 21 54
f 76 54 52
f 77 57 61
f 77 61 7
f 77 7 23
f 77 23 57
f 78 64 65
f 78 65 43
f 78 43 5
f 78 5 64
f 79 15 66
f 79 66 42
f 79 42 1
f 79 1 15
f 80 43 42
f 80 42 66
f 80 66 5
f 80 5 43
f 81 26 6
f 82 29 67
f 82 28 7
f 82 7 29
f 83 45 73
f 83 67 45
f 84 68 26
f 85 7 70
f 85 70 29
f 85 29 7
f 86 48 71
f 86 71 14
f 86 14 48
f 87 73 31
f 88 73 89
f 88 89 49
f 88 49 20
f 90 21 74
f 90 74 56
f 90 56 54
f 90 54 21
f 91 81 6
f 92 83 68
f 92 68 84
f 92 67 83
f 93 92 84
f 93 84 26
f 94 87 33
f 94 33 49
f 95 14 33
f 95 33 87
f 95 87 31
f 95 31 14
f 96 73 88
f 96 83 73
f 97 88 20
f 97 20 68
f 98 82 67
f 99 81 67
f 99 67 93
f 99 93 26
f 99 26 81
f 100 92 93
f 100 93 67
f 100 67 92
f 101 89 73
f 101 49 89
f 102 96 88
f 102 88 97
f 102 97 68
f 102 68 83
f 102 83 96
f 103 82 98
f 103 47 28
f 103 28 82
f 104 47 103
f 104 103 98
f 104 91 6
f 104 6 47
f 105 91 104
f 105 104 98
f 105 98 67
f 105 81 91
f 106 73 87
f 107 81 105
f 107 105 67
f 107 67 81
f 108 94 49
f 108 49 101
f 108 101 106
f 108 106 87
f 108 87 94
f 109 73 106
f 109 106 101
f 109 101 73
