# Convex hull collision mesh — generated by scripts/generate-collision-meshes.mjs (units: meters)
v -0.000651 0.009414 0.021500
v -0.001113 0.004762 0.021500
v 0.002356 0.006165 0.021500
v 0.018399 -0.001934 0.000000
v 0.018500 0.000000 -0.029000
v 0.018500 0.000000 0.000000
v 0.002982 0.006675 0.021000
v 0.001210 0.004812 0.021500
v 0.001617 0.008907 0.021500
v -0.002488 0.007247 0.021500
v -0.018399 -0.001934 0.000000
v -0.018500 0.000000 0.000000
v -0.018500 0.000000 -0.029000
v -0.016901 -0.007525 -0.029000
v -0.017595 -0.005717 0.000000
v -0.017595 -0.005717 -0.029000
v 0.000800 0.009675 -0.056882
v -0.000800 -0.009675 -0.056882
v -0.000800 0.009675 -0.056882
v 0.001500 0.010281 -0.056532
v 0.014039 -0.008670 -0.051000
v 0.016021 -0.009250 -0.029000
v 0.014967 -0.010874 -0.029000
v 0.016901 -0.007525 0.000000
v 0.016901 -0.007525 -0.029000
v -0.001934 -0.018399 0.000000
v -0.000000 -0.018500 -0.029000
v -0.000000 -0.018500 0.000000
v 0.000054 0.004501 0.021500
v 0.002078 0.004837 0.021000
v 0.012379 -0.013748 0.000000
v 0.013748 -0.012379 0.000000
v 0.012379 -0.013748 -0.029000
v 0.002488 0.006753 0.021500
v -0.001698 0.008835 0.021500
v -0.000536 0.009952 0.021000
v -0.005717 0.017595 0.000000
v -0.001201 0.009749 0.021000
v -0.018096 -0.003846 -0.029000
v -0.002910 0.006273 0.021000
v -0.002665 0.005622 0.021000
v -0.002318 0.006063 0.021500
v -0.003846 -0.018096 -0.029000
v -0.003846 -0.018096 0.000000
v -0.005717 -0.017595 0.000000
v -0.013748 -0.012379 -0.029000
v -0.012379 -0.013748 -0.029000
v -0.013748 -0.012379 0.000000
v -0.014967 -0.010874 -0.029000
v 0.000800 -0.009675 -0.056882
v 0.001500 -0.010281 -0.056532
v 0.012995 -0.010167 -0.051000
v 0.010167 -0.012995 -0.051000
v -0.013748 0.012379 0.000000
v -0.013748 0.012379 -0.029000
v -0.014967 0.010874 0.000000
v 0.000000 0.010801 -0.056232
v -0.001500 0.012675 -0.055150
v 0.001500 0.012675 -0.055150
v 0.000000 0.016380 -0.051325
v 0.001809 0.016279 -0.051325
v 0.001500 0.012802 -0.055057
v -0.003846 0.018096 0.000000
v -0.005717 0.017595 -0.029000
v -0.001500 0.010281 -0.056532
v -0.015796 0.003554 -0.051462
v -0.007525 0.016901 0.000000
v -0.012379 0.013748 -0.029000
v -0.010167 0.012995 -0.051000
v -0.018399 0.001934 0.000000
v -0.013776 0.008508 -0.051462
v -0.014631 0.006934 -0.051462
v 0.018399 0.001934 -0.029000
v 0.014967 -0.010874 0.000000
v 0.002828 0.005997 0.021000
v 0.017595 -0.005717 0.000000
v 0.018399 -0.001934 -0.029000
v 0.018096 -0.003846 -0.029000
v 0.007525 -0.016901 0.000000
v 0.007525 -0.016901 -0.029000
v 0.009250 -0.016021 0.000000
v 0.005717 -0.017595 0.000000
v 0.001934 -0.018399 0.000000
v 0.010874 -0.014967 0.000000
v -0.000545 0.004560 0.021500
v 0.001698 0.005165 0.021500
v 0.013748 -0.012379 -0.029000
v 0.016021 0.009250 0.000000
v 0.016901 0.007525 0.000000
v 0.016021 0.009250 -0.029000
v 0.002812 0.008046 0.021000
v -0.001210 0.009188 0.021500
v -0.002356 0.007835 0.021500
v -0.001802 0.009398 0.021000
v -0.001978 0.008903 0.021256
v -0.000054 0.009499 0.021500
v -0.018096 -0.003846 0.000000
v -0.018399 -0.001934 -0.029000
v -0.016098 -0.003622 -0.051000
v -0.001765 0.004574 0.021000
v -0.009250 -0.016021 0.000000
v -0.002475 0.006645 0.021500
v -0.001617 0.005093 0.021500
v -0.002026 0.005535 0.021500
v -0.002276 0.005045 0.021000
v -0.014967 -0.010874 0.000000
v -0.016021 -0.009250 0.000000
v -0.016901 -0.007525 0.000000
v -0.016021 -0.009250 -0.029000
v -0.014910 -0.007067 -0.051000
v -0.014039 -0.008670 -0.051000
v -0.005717 -0.017595 -0.029000
v -0.007525 -0.016901 -0.029000
v -0.007525 -0.016901 0.000000
v -0.009250 -0.016021 -0.029000
v -0.010874 -0.014967 -0.029000
v -0.008670 -0.014039 -0.051000
v -0.010874 -0.014967 0.000000
v -0.010167 -0.012995 -0.051000
v -0.010160 -0.012988 -0.051098
v 0.014910 -0.007067 -0.051000
v 0.015821 -0.003560 -0.051450
v 0.016118 -0.001791 -0.051450
v 0.015332 -0.005285 -0.051450
v 0.012968 -0.010139 -0.051192
v 0.010128 -0.012956 -0.051228
v 0.012927 -0.010098 -0.051295
v 0.000750 0.012747 -0.055102
v 0.003595 0.015980 -0.051325
v 0.005338 0.015485 -0.051325
v 0.000000 0.018500 0.000000
v 0.000000 0.018500 -0.029000
v -0.001934 0.018399 -0.029000
v 0.001934 0.018399 -0.029000
v -0.010020 0.012848 -0.051405
v -0.012870 0.010042 -0.051381
v -0.010081 0.012910 -0.051325
v -0.008517 0.013890 -0.051405
v -0.012927 0.010098 -0.051295
v -0.010157 0.012985 -0.051118
v -0.012988 0.010160 -0.051098
v -0.005377 0.015599 -0.051000
v -0.003622 0.016098 -0.051000
v -0.016092 0.001788 -0.051462
v -0.014967 0.010874 -0.029000
v -0.016021 0.009250 -0.029000
v -0.018096 0.003846 -0.029000
v -0.016098 0.003622 -0.051000
v -0.016399 0.001822 -0.051000
v -0.016901 0.007525 0.000000
v -0.017595 0.005717 0.000000
v -0.018096 0.003846 0.000000
v -0.002519 0.007377 0.021453
v -0.012801 0.009972 -0.051445
v -0.015307 0.005276 -0.051462
v 0.010042 0.012870 -0.051381
v 0.016901 0.007525 -0.029000
v 0.014910 0.007067 -0.051000
v 0.017595 0.005717 -0.029000
v 0.016021 -0.009250 0.000000
v 0.002521 0.005373 0.021000
v 0.018096 -0.003846 0.000000
v 0.017595 -0.005717 -0.029000
v 0.001934 -0.018399 -0.029000
v 0.001822 -0.016399 -0.051000
v 0.003846 -0.018096 -0.029000
v 0.003846 -0.018096 0.000000
v 0.010874 -0.014967 -0.029000
v 0.008670 -0.014039 -0.051000
v 0.000651 0.004586 0.021500
v 0.001524 0.004416 0.021000
v 0.014967 0.010874 -0.029000
v 0.018399 0.001934 0.000000
v 0.018096 0.003846 0.000000
v 0.017595 0.005717 0.000000
v 0.002318 0.007937 0.021500
v 0.002495 0.008666 0.021000
v -0.002088 0.008375 0.021500
v -0.012379 0.013748 0.000000
v -0.010874 0.014967 0.000000
v -0.016500 0.000000 -0.051000
v -0.016399 -0.001822 -0.051000
v -0.002675 0.006936 0.021324
v -0.012775 -0.009947 -0.051462
v -0.012848 -0.010020 -0.051405
v -0.013890 -0.008517 -0.051405
v -0.015599 -0.005377 -0.051000
v -0.015596 -0.005343 -0.051118
v -0.003622 -0.016098 -0.051000
v -0.001934 -0.018399 -0.029000
v -0.012379 -0.013748 0.000000
v -0.012995 -0.010167 -0.051000
v -0.012985 -0.010157 -0.051118
v 0.010157 -0.012985 -0.051118
v -0.001500 -0.010281 -0.056532
v -0.009972 -0.012801 -0.051445
v 0.001500 -0.012675 -0.055150
v 0.010020 -0.012848 -0.051405
v 0.000750 -0.012700 -0.055135
v -0.000750 -0.012675 -0.055150
v 0.010081 -0.012910 -0.051325
v 0.008596 -0.014019 -0.051228
v 0.014654 -0.006945 -0.051450
v 0.012801 -0.009972 -0.051445
v 0.016399 -0.001822 -0.051000
v 0.012988 -0.010160 -0.051098
v 0.000750 0.012700 -0.055135
v 0.005717 0.017595 -0.029000
v 0.007525 0.016901 0.000000
v 0.007525 0.016901 -0.029000
v 0.000736 0.012857 -0.055002
v -0.000740 0.012841 -0.055019
v -0.000750 0.012747 -0.055102
v -0.001500 0.012802 -0.055057
v -0.003575 0.015985 -0.051325
v -0.001798 0.016281 -0.051325
v -0.006941 0.014741 -0.051405
v -0.003846 0.018096 -0.029000
v 0.001113 0.009238 0.021500
v -0.001934 0.018399 0.000000
v -0.007023 0.014915 -0.051118
v -0.007067 0.014910 -0.051000
v -0.008670 0.014039 -0.051000
v -0.009250 0.016021 -0.029000
v -0.012968 0.010139 -0.051192
v -0.007525 0.016901 -0.029000
v -0.010874 0.014967 -0.029000
v -0.009250 0.016021 0.000000
v -0.016385 0.001820 -0.051118
v -0.016486 0.000000 -0.051118
v -0.016044 0.003610 -0.051228
v -0.016344 0.001816 -0.051228
v -0.015980 0.003595 -0.051325
v -0.012995 0.010167 -0.051000
v -0.018399 0.001934 -0.029000
v -0.017595 0.005717 -0.029000
v -0.016021 0.009250 0.000000
v 0.012775 0.009947 -0.051462
v 0.013890 0.008517 -0.051405
v 0.013803 0.008464 -0.051462
v 0.015599 0.005377 -0.051000
v 0.016098 0.003622 -0.051000
v 0.015596 0.005343 -0.051118
v 0.014741 0.006941 -0.051405
v 0.014819 0.006977 -0.051325
v 0.014878 0.007005 -0.051228
v 0.015496 0.005308 -0.051325
v 0.014019 0.008596 -0.051228
v 0.014054 0.008618 -0.051118
v 0.015801 0.003534 -0.051462
v 0.015318 0.005247 -0.051462
v 0.016093 0.001778 -0.051462
v 0.016195 0.001789 -0.051405
v 0.018096 0.003846 -0.029000
v 0.016399 0.001822 -0.051000
v 0.002088 0.005625 0.021500
v 0.015599 -0.005377 -0.051000
v 0.009250 -0.016021 -0.029000
v 0.013748 0.012379 -0.029000
v 0.012995 0.010167 -0.051000
v 0.012379 0.013748 -0.029000
v 0.014039 0.008670 -0.051000
v 0.002977 0.007371 0.021000
v 0.002026 0.008465 0.021500
v 0.012379 0.013748 0.000000
v 0.010874 0.014967 -0.029000
v -0.016386 -0.001810 -0.051118
v -0.010139 -0.012968 -0.051192
v -0.010042 -0.012870 -0.051381
v -0.012910 -0.010081 -0.051325
v -0.010098 -0.012927 -0.051295
v -0.008662 -0.014027 -0.051118
v -0.007067 -0.014910 -0.051000
v -0.000000 -0.016500 -0.051000
v -0.001500 -0.012802 -0.055057
v -0.001809 -0.016279 -0.051325
v -0.003595 -0.015980 -0.051325
v -0.005338 -0.015485 -0.051325
v -0.007015 -0.014801 -0.051325
v -0.000000 -0.016380 -0.051325
v -0.005377 -0.015599 -0.051000
v -0.001822 -0.016399 -0.051000
v 0.008618 -0.014054 -0.051118
v 0.005717 -0.017595 -0.029000
v 0.000000 -0.010801 -0.056232
v -0.013803 -0.008464 -0.051462
v 0.008517 -0.013890 -0.051405
v 0.006941 -0.014741 -0.051405
v 0.001500 -0.012802 -0.055057
v -0.000000 -0.016445 -0.051228
v 0.012870 -0.010042 -0.051381
v 0.013878 -0.008571 -0.051391
v 0.013798 -0.008521 -0.051450
v 0.014028 -0.008663 -0.051111
v 0.016098 -0.003622 -0.051000
v 0.016387 -0.001821 -0.051111
v 0.016487 0.000000 -0.051111
v 0.016085 -0.003619 -0.051111
v 0.015914 -0.003580 -0.051391
v 0.008607 0.013936 -0.051325
v 0.010098 0.012927 -0.051295
v 0.009250 0.016021 -0.029000
v 0.007067 0.014910 -0.051000
v 0.005377 0.015599 -0.051000
v 0.003846 0.018096 -0.029000
v 0.001822 0.016399 -0.051000
v 0.003846 0.018096 0.000000
v 0.000750 0.012724 -0.055119
v 0.000746 0.012805 -0.055055
v 0.000000 0.016500 -0.051000
v 0.001820 0.016385 -0.051118
v 0.001816 0.016344 -0.051228
v -0.001822 0.016399 -0.051000
v -0.001810 0.016386 -0.051118
v 0.000158 0.009996 0.021000
v 0.001934 0.018399 0.000000
v 0.005717 0.017595 0.000000
v -0.008618 0.014054 -0.051118
v -0.013992 0.008641 -0.051228
v -0.003589 0.016049 -0.051228
v -0.001805 0.016346 -0.051228
v -0.003598 0.016089 -0.051118
v -0.005343 0.015596 -0.051118
v -0.005329 0.015557 -0.051228
v -0.005308 0.015496 -0.051325
v -0.016084 0.003619 -0.051118
v -0.016279 0.001809 -0.051325
v -0.015404 0.005310 -0.051405
v -0.015485 0.005338 -0.051325
v -0.016901 0.007525 -0.029000
v -0.014910 0.007067 -0.051000
v -0.015599 0.005377 -0.051000
v -0.002163 0.008380 0.021434
v 0.009972 0.012801 -0.051445
v 0.012956 0.010128 -0.051228
v 0.014649 0.006897 -0.051462
v 0.015414 0.005280 -0.051405
v 0.014915 0.007023 -0.051118
v 0.015557 0.005329 -0.051228
v 0.013963 0.008562 -0.051325
v 0.016217 0.000000 -0.051450
v 0.016312 0.000000 -0.051391
v 0.016049 0.003589 -0.051228
v 0.016500 0.000000 -0.051000
v 0.014899 -0.007061 -0.051111
v 0.002475 0.007355 0.021500
v 0.001484 0.009607 0.021000
v 0.014967 0.010874 0.000000
v -0.015801 -0.003534 -0.051462
v -0.016093 -0.001778 -0.051462
v -0.015318 -0.005247 -0.051462
v -0.015901 -0.003556 -0.051405
v -0.016195 -0.001789 -0.051405
v -0.016191 0.000000 -0.051462
v -0.016346 -0.001805 -0.051228
v -0.012956 -0.010128 -0.051228
v -0.014019 -0.008596 -0.051228
v -0.014054 -0.008618 -0.051118
v -0.014878 -0.007005 -0.051228
v -0.015496 -0.005308 -0.051325
v -0.014819 -0.006977 -0.051325
v -0.013963 -0.008562 -0.051325
v -0.015414 -0.005280 -0.051405
v -0.007043 -0.014860 -0.051228
v -0.007061 -0.014897 -0.051118
v -0.008641 -0.013992 -0.051228
v -0.001500 -0.012675 -0.055150
v -0.008561 -0.013863 -0.051405
v -0.006978 -0.014724 -0.051405
v 0.000740 -0.012841 -0.055019
v -0.005372 -0.015586 -0.051118
v -0.003619 -0.016084 -0.051118
v -0.003610 -0.016044 -0.051228
v -0.001820 -0.016385 -0.051118
v -0.000000 -0.016486 -0.051118
v 0.007067 -0.014910 -0.051000
v 0.001805 -0.016346 -0.051228
v 0.003622 -0.016098 -0.051000
v -0.014741 -0.006941 -0.051405
v 0.008562 -0.013963 -0.051325
v 0.013997 -0.008644 -0.051217
v 0.014812 -0.007020 -0.051312
v 0.014865 -0.007045 -0.051217
v 0.015421 -0.005316 -0.051391
v 0.016350 -0.001816 -0.051217
v 0.016450 0.000000 -0.051217
v 0.016049 -0.003611 -0.051217
v 0.008561 0.013863 -0.051405
v 0.006978 0.014724 -0.051405
v 0.007015 0.014801 -0.051325
v 0.007043 0.014860 -0.051228
v 0.008670 0.014039 -0.051000
v 0.007061 0.014897 -0.051118
v -0.000750 0.012700 -0.055135
v 0.000000 0.016486 -0.051118
v 0.000545 0.009440 0.021500
v -0.008562 0.013963 -0.051325
v -0.008596 0.014019 -0.051228
v -0.010128 0.012956 -0.051228
v -0.014897 0.007061 -0.051118
v -0.013936 0.008607 -0.051325
v -0.014039 0.008670 -0.051000
v -0.006977 0.014819 -0.051325
v -0.015896 0.003576 -0.051405
v -0.015586 0.005372 -0.051118
v 0.012985 0.010157 -0.051118
v 0.010160 0.012988 -0.051098
v 0.010139 0.012968 -0.051192
v 0.012910 0.010081 -0.051325
v 0.016089 0.003598 -0.051118
v 0.015985 0.003575 -0.051325
v 0.016281 0.001798 -0.051325
v 0.015587 -0.005373 -0.051111
v 0.010874 0.014967 0.000000
v 0.002044 0.009196 0.021000
v 0.013748 0.012379 0.000000
v -0.016294 0.000000 -0.051405
v -0.016445 0.000000 -0.051228
v -0.016380 0.000000 -0.051325
v -0.016281 -0.001798 -0.051325
v -0.016049 -0.003589 -0.051228
v -0.014915 -0.007023 -0.051118
v -0.015557 -0.005329 -0.051228
v -0.016089 -0.003598 -0.051118
v -0.008607 -0.013936 -0.051325
v -0.000750 -0.012747 -0.055102
v -0.000746 -0.012805 -0.055055
v -0.000736 -0.012857 -0.055002
v -0.005359 -0.015547 -0.051228
v -0.001816 -0.016344 -0.051228
v 0.007023 -0.014915 -0.051118
v 0.005377 -0.015599 -0.051000
v 0.001798 -0.016281 -0.051325
v 0.003589 -0.016049 -0.051228
v 0.001810 -0.016386 -0.051118
v -0.014649 -0.006897 -0.051462
v 0.013946 -0.008613 -0.051312
v 0.015496 -0.005341 -0.051312
v 0.015991 -0.003598 -0.051312
v 0.014740 -0.006986 -0.051391
v 0.016291 -0.001810 -0.051312
v 0.010167 0.012995 -0.051000
v 0.005372 0.015586 -0.051118
v 0.003610 0.016044 -0.051228
v 0.003619 0.016084 -0.051118
v 0.003622 0.016098 -0.051000
v -0.000750 0.012724 -0.055119
v 0.000000 0.016445 -0.051228
v 0.000844 0.009879 0.021000
v -0.014801 0.007015 -0.051325
v -0.013863 0.008561 -0.051405
v -0.014027 0.008662 -0.051118
v -0.007005 0.014878 -0.051228
v -0.015547 0.005359 -0.051228
v 0.008641 0.013992 -0.051228
v 0.012848 0.010020 -0.051405
v 0.015901 0.003556 -0.051405
v 0.016386 0.001810 -0.051118
v 0.016391 0.000000 -0.051312
v 0.015552 -0.005361 -0.051217
v 0.009250 0.016021 0.000000
v -0.016194 0.001799 -0.051405
v -0.015985 -0.003575 -0.051325
v -0.000750 -0.012724 -0.055119
v 0.000750 -0.012747 -0.055102
v 0.007005 -0.014878 -0.051228
v 0.005343 -0.015596 -0.051118
v 0.003575 -0.015985 -0.051325
v 0.005308 -0.015496 -0.051325
v 0.003598 -0.016089 -0.051118
v 0.016212 -0.001801 -0.051391
v 0.005359 0.015547 -0.051228
v -0.014860 0.007043 -0.051228
v -0.014724 0.006978 -0.051405
v 0.008662 0.014027 -0.051118
v 0.016346 0.001805 -0.051228
v -0.000750 -0.012700 -0.055135
v 0.000750 -0.012724 -0.055119
v 0.006977 -0.014819 -0.051325
v 0.005329 -0.015557 -0.051228
f 1 2 3
f 4 5 6
f 4 6 7
f 8 3 2
f 9 1 3
f 10 2 1
f 11 12 13
f 14 15 16
f 17 18 19
f 17 19 20
f 21 22 23
f 24 22 25
f 26 27 28
f 29 8 2
f 29 26 28
f 30 31 32
f 33 32 31
f 34 9 3
f 34 3 7
f 35 10 1
f 36 37 38
f 36 38 1
f 39 16 15
f 40 15 41
f 40 12 11
f 42 40 41
f 42 2 10
f 43 26 44
f 45 43 44
f 46 47 48
f 46 48 49
f 50 51 18
f 50 18 17
f 52 21 23
f 52 33 53
f 54 55 56
f 57 58 59
f 57 59 20
f 60 61 62
f 63 64 37
f 63 37 36
f 65 58 57
f 65 57 20
f 65 20 19
f 65 19 66
f 67 37 64
f 67 38 37
f 68 55 54
f 68 69 55
f 70 13 12
f 71 65 72
f 73 6 5
f 74 23 22
f 74 32 23
f 75 7 3
f 76 24 25
f 76 75 24
f 77 4 78
f 77 5 4
f 79 80 81
f 79 81 8
f 79 82 80
f 83 28 27
f 83 29 28
f 84 33 31
f 84 8 81
f 85 44 26
f 85 26 29
f 85 29 2
f 85 2 45
f 85 45 44
f 86 84 31
f 86 31 30
f 86 3 8
f 87 32 33
f 87 33 52
f 87 52 23
f 87 23 32
f 88 89 90
f 91 89 88
f 92 35 1
f 92 1 38
f 93 10 35
f 94 95 35
f 94 35 92
f 94 92 38
f 94 54 56
f 94 56 95
f 96 36 1
f 96 1 9
f 97 11 39
f 97 39 15
f 97 15 40
f 97 40 11
f 98 39 11
f 98 11 13
f 99 16 39
f 100 101 2
f 102 40 42
f 102 42 10
f 103 2 42
f 103 100 2
f 104 105 103
f 104 103 42
f 104 42 41
f 104 41 105
f 106 105 41
f 106 41 107
f 106 107 49
f 106 49 48
f 106 48 105
f 108 15 14
f 108 14 107
f 108 107 41
f 108 41 15
f 109 14 110
f 109 110 111
f 109 111 49
f 109 49 107
f 109 107 14
f 112 43 45
f 112 45 113
f 114 101 113
f 114 113 45
f 114 45 2
f 114 2 101
f 115 101 116
f 115 116 117
f 115 113 101
f 118 47 116
f 118 116 101
f 118 101 100
f 118 100 103
f 119 116 47
f 119 47 46
f 119 120 117
f 119 117 116
f 121 25 22
f 121 22 21
f 122 50 123
f 122 124 51
f 122 51 50
f 125 126 127
f 128 62 59
f 129 130 62
f 129 62 61
f 131 132 133
f 131 134 132
f 135 58 65
f 135 136 137
f 135 138 58
f 139 137 136
f 140 141 69
f 142 64 143
f 144 66 19
f 145 146 56
f 145 56 55
f 147 148 149
f 150 151 93
f 152 151 147
f 152 147 70
f 153 10 93
f 153 93 151
f 153 151 152
f 153 152 70
f 154 65 71
f 154 136 135
f 154 135 65
f 155 72 65
f 155 65 66
f 156 20 59
f 157 158 90
f 157 90 89
f 157 89 159
f 160 74 22
f 160 22 24
f 161 30 32
f 161 32 74
f 161 74 160
f 161 160 24
f 161 24 75
f 161 75 3
f 162 4 7
f 162 7 75
f 162 75 76
f 162 76 78
f 162 78 4
f 163 78 76
f 163 76 25
f 164 165 166
f 164 166 83
f 164 83 27
f 167 83 166
f 167 166 82
f 168 169 53
f 168 53 33
f 168 33 84
f 168 84 81
f 170 29 83
f 170 83 167
f 170 167 82
f 170 82 79
f 170 79 8
f 170 8 29
f 171 84 86
f 171 86 8
f 171 8 84
f 172 88 90
f 173 6 73
f 173 73 174
f 175 89 91
f 175 91 174
f 175 174 159
f 175 159 89
f 176 9 34
f 177 176 91
f 177 91 88
f 178 93 35
f 178 35 95
f 179 54 94
f 179 94 180
f 179 180 68
f 179 68 54
f 181 98 13
f 182 98 181
f 182 99 39
f 182 39 98
f 183 40 102
f 183 102 10
f 183 10 153
f 183 153 70
f 183 70 12
f 183 12 40
f 184 185 186
f 187 110 14
f 187 14 16
f 187 16 99
f 187 99 188
f 189 43 112
f 190 27 26
f 190 26 43
f 191 47 118
f 191 118 103
f 191 103 105
f 191 105 48
f 191 48 47
f 192 193 120
f 192 120 119
f 192 119 46
f 192 46 49
f 192 49 111
f 192 111 193
f 194 126 125
f 194 53 169
f 195 196 185
f 195 185 184
f 195 18 51
f 197 51 198
f 197 199 200
f 201 126 202
f 201 127 126
f 203 51 124
f 204 198 51
f 205 77 78
f 206 52 53
f 206 53 194
f 206 194 125
f 206 21 52
f 207 59 58
f 208 209 210
f 211 62 212
f 211 212 60
f 211 60 62
f 213 62 128
f 214 215 216
f 214 216 60
f 214 60 212
f 214 62 213
f 214 213 58
f 214 58 138
f 214 138 217
f 218 63 133
f 218 143 64
f 218 64 63
f 219 96 9
f 220 63 36
f 220 131 133
f 220 133 63
f 221 222 142
f 223 140 69
f 223 224 222
f 225 141 140
f 226 64 142
f 226 142 222
f 226 222 224
f 226 224 67
f 226 67 64
f 227 68 180
f 227 180 224
f 227 224 223
f 227 223 69
f 227 69 68
f 228 67 224
f 228 224 180
f 228 180 94
f 228 94 38
f 228 38 67
f 229 230 181
f 229 181 149
f 229 149 148
f 229 231 232
f 233 232 231
f 234 145 55
f 234 55 69
f 234 69 141
f 235 70 147
f 235 147 149
f 235 149 181
f 235 181 13
f 235 13 70
f 236 148 147
f 236 147 151
f 236 151 150
f 237 146 150
f 237 95 56
f 237 56 146
f 238 239 240
f 238 240 20
f 241 158 157
f 241 157 159
f 241 159 242
f 241 242 243
f 244 239 245
f 244 240 239
f 246 247 245
f 248 249 246
f 250 17 20
f 250 20 251
f 250 252 17
f 253 252 250
f 254 73 255
f 254 255 242
f 254 242 159
f 254 159 174
f 254 174 73
f 256 86 30
f 256 30 161
f 256 161 3
f 256 3 86
f 257 163 25
f 257 25 121
f 258 169 168
f 258 168 81
f 258 81 80
f 259 172 260
f 259 260 261
f 262 260 172
f 262 172 90
f 262 90 158
f 262 158 249
f 263 34 7
f 263 7 6
f 263 6 173
f 263 173 174
f 263 174 91
f 264 176 177
f 264 9 176
f 265 259 261
f 265 261 266
f 267 182 181
f 267 181 230
f 268 120 193
f 269 196 195
f 269 185 196
f 270 185 269
f 270 269 271
f 272 117 120
f 272 120 268
f 273 113 115
f 273 115 117
f 274 164 27
f 274 27 190
f 274 165 164
f 275 276 277
f 275 277 278
f 275 278 279
f 275 280 276
f 281 189 112
f 281 112 113
f 281 113 273
f 282 274 190
f 282 190 43
f 282 43 189
f 283 202 126
f 283 126 194
f 283 194 169
f 284 80 82
f 284 82 166
f 285 195 51
f 285 51 197
f 285 197 200
f 286 195 184
f 286 184 186
f 287 288 289
f 287 289 197
f 287 197 198
f 290 276 280
f 291 127 201
f 291 201 198
f 291 198 204
f 291 204 292
f 293 292 204
f 293 204 51
f 293 51 203
f 293 203 292
f 294 21 206
f 294 206 125
f 295 205 78
f 295 78 163
f 295 163 257
f 296 297 205
f 296 205 295
f 296 295 298
f 299 122 123
f 300 301 156
f 302 303 210
f 302 210 209
f 304 208 210
f 304 210 303
f 305 306 134
f 305 134 307
f 305 307 208
f 308 213 128
f 308 128 59
f 308 59 207
f 309 62 214
f 309 214 212
f 309 212 62
f 310 132 134
f 310 134 306
f 310 306 311
f 310 133 132
f 312 129 61
f 313 143 218
f 313 218 133
f 313 133 310
f 313 310 314
f 315 36 96
f 315 131 220
f 315 220 36
f 316 131 315
f 316 315 307
f 316 307 134
f 316 134 131
f 317 208 307
f 317 209 208
f 318 140 223
f 318 223 222
f 318 222 221
f 319 225 139
f 320 321 216
f 320 216 215
f 322 143 313
f 322 313 314
f 322 314 321
f 322 321 320
f 323 142 143
f 323 143 322
f 323 322 320
f 323 320 324
f 323 221 142
f 325 324 320
f 325 320 215
f 325 215 214
f 326 231 229
f 326 229 148
f 327 232 233
f 328 233 329
f 330 236 150
f 330 150 146
f 330 146 331
f 332 148 236
f 332 236 330
f 332 330 331
f 333 178 95
f 333 95 237
f 333 237 150
f 333 150 93
f 333 93 178
f 334 20 156
f 335 249 248
f 336 20 240
f 336 240 244
f 336 244 251
f 336 251 20
f 337 244 245
f 337 245 247
f 337 250 251
f 337 251 244
f 338 243 246
f 338 246 249
f 338 249 158
f 338 158 241
f 338 241 243
f 339 247 246
f 339 246 243
f 340 245 239
f 340 248 246
f 340 246 245
f 341 50 17
f 341 17 252
f 341 252 253
f 341 253 342
f 341 342 123
f 341 123 50
f 343 247 339
f 343 339 243
f 344 297 255
f 344 255 73
f 344 73 5
f 344 5 77
f 344 77 205
f 344 205 297
f 345 257 121
f 345 121 21
f 345 21 294
f 346 176 34
f 346 34 263
f 346 263 91
f 346 91 176
f 347 219 9
f 348 88 172
f 348 172 259
f 348 177 88
f 349 350 18
f 349 18 195
f 349 195 351
f 349 352 353
f 349 353 350
f 354 144 19
f 354 19 18
f 354 18 350
f 355 267 230
f 356 268 193
f 356 357 270
f 356 270 271
f 356 271 268
f 358 357 356
f 358 356 193
f 358 193 111
f 358 111 110
f 359 357 358
f 359 360 361
f 362 186 185
f 362 185 270
f 362 270 357
f 362 357 359
f 362 359 361
f 362 361 186
f 363 361 360
f 363 352 349
f 363 349 351
f 364 279 278
f 365 272 364
f 365 281 273
f 365 273 117
f 365 117 272
f 366 272 268
f 366 268 271
f 366 364 272
f 367 269 195
f 367 195 285
f 367 285 200
f 367 200 199
f 367 275 368
f 367 368 269
f 369 368 275
f 369 275 279
f 370 289 280
f 371 372 189
f 371 189 281
f 371 281 365
f 371 373 372
f 374 372 373
f 374 290 375
f 374 375 274
f 374 274 282
f 374 282 189
f 374 189 372
f 376 258 80
f 376 283 169
f 376 169 258
f 377 375 290
f 378 284 166
f 378 166 165
f 379 361 363
f 379 363 351
f 379 286 186
f 379 186 361
f 380 287 198
f 380 198 201
f 380 201 202
f 381 382 383
f 381 383 345
f 381 345 294
f 381 294 125
f 381 125 127
f 384 124 122
f 384 122 299
f 384 203 124
f 385 386 297
f 385 297 296
f 385 296 298
f 385 298 387
f 388 59 62
f 388 62 389
f 388 389 300
f 388 300 156
f 388 156 59
f 390 389 62
f 390 62 130
f 390 130 391
f 390 391 300
f 390 300 389
f 392 303 302
f 392 302 266
f 393 304 303
f 393 303 392
f 394 308 207
f 394 207 58
f 395 321 314
f 395 314 310
f 395 310 311
f 396 315 96
f 396 96 219
f 397 137 398
f 397 138 135
f 397 135 137
f 399 140 318
f 399 318 398
f 399 398 137
f 399 137 139
f 399 139 225
f 399 225 140
f 400 332 331
f 401 319 139
f 401 139 136
f 402 146 145
f 402 145 234
f 402 234 141
f 402 400 331
f 402 331 146
f 403 217 138
f 403 138 397
f 403 325 214
f 403 214 217
f 404 233 328
f 404 328 155
f 404 155 66
f 405 326 148
f 405 148 332
f 405 332 400
f 405 231 326
f 406 249 335
f 406 407 260
f 406 260 262
f 406 262 249
f 408 407 406
f 408 406 335
f 408 335 301
f 409 156 301
f 409 301 335
f 409 335 248
f 409 248 340
f 410 343 243
f 410 243 242
f 410 242 255
f 411 337 247
f 411 247 343
f 412 411 343
f 412 342 253
f 413 257 345
f 413 387 298
f 413 298 295
f 413 295 257
f 414 265 266
f 414 266 302
f 415 265 414
f 415 414 347
f 415 347 9
f 415 9 264
f 415 264 177
f 416 265 415
f 416 415 177
f 416 177 348
f 416 348 259
f 416 259 265
f 417 354 350
f 417 350 353
f 418 355 230
f 418 230 229
f 418 229 232
f 418 232 327
f 418 327 419
f 420 353 352
f 420 421 355
f 420 355 418
f 420 418 419
f 420 419 417
f 420 417 353
f 422 110 187
f 422 187 188
f 422 188 359
f 422 359 358
f 422 358 110
f 423 360 359
f 423 359 188
f 423 188 421
f 423 421 360
f 424 267 355
f 424 355 421
f 424 421 188
f 424 188 99
f 424 99 182
f 424 182 267
f 425 368 369
f 425 369 279
f 425 279 364
f 425 364 366
f 425 366 271
f 425 271 269
f 425 269 368
f 426 275 367
f 426 289 275
f 427 289 370
f 427 370 275
f 427 275 289
f 428 275 370
f 428 370 280
f 428 280 275
f 429 364 278
f 429 278 277
f 429 277 373
f 429 373 371
f 429 371 365
f 429 365 364
f 430 276 290
f 430 290 374
f 430 374 373
f 430 373 277
f 430 277 276
f 431 283 376
f 432 284 378
f 432 431 376
f 432 376 80
f 432 80 284
f 433 280 289
f 433 434 377
f 433 377 290
f 433 290 280
f 435 375 377
f 435 165 274
f 435 274 375
f 436 195 286
f 436 286 379
f 436 379 351
f 436 351 195
f 437 292 382
f 437 382 381
f 437 381 127
f 437 127 291
f 437 291 292
f 438 439 387
f 438 383 382
f 438 384 299
f 438 299 439
f 440 203 384
f 440 384 438
f 440 438 382
f 440 382 292
f 440 292 203
f 441 386 385
f 441 385 387
f 441 387 439
f 441 439 299
f 442 407 392
f 442 392 266
f 442 266 261
f 442 261 260
f 442 260 407
f 443 304 393
f 444 312 311
f 444 311 445
f 444 445 443
f 444 129 312
f 446 306 305
f 446 305 208
f 446 208 304
f 446 304 443
f 446 443 445
f 446 445 311
f 446 311 306
f 447 213 308
f 447 308 394
f 447 394 58
f 447 58 213
f 448 321 395
f 448 395 311
f 448 311 312
f 448 312 61
f 448 61 60
f 448 60 216
f 448 216 321
f 449 347 209
f 449 209 317
f 449 317 307
f 449 307 315
f 449 315 396
f 449 396 219
f 449 219 347
f 450 328 329
f 451 71 72
f 451 401 136
f 451 136 154
f 451 154 71
f 452 400 402
f 452 402 141
f 452 141 225
f 452 225 319
f 453 398 318
f 453 318 221
f 453 221 323
f 453 323 324
f 453 324 325
f 453 325 403
f 453 403 397
f 453 397 398
f 454 329 233
f 454 233 231
f 454 231 405
f 454 405 400
f 455 300 391
f 455 408 301
f 455 301 300
f 456 156 409
f 456 409 340
f 456 340 239
f 456 239 238
f 456 238 20
f 456 20 334
f 456 334 156
f 457 337 411
f 457 411 412
f 457 412 253
f 457 253 250
f 457 250 337
f 458 255 297
f 458 297 386
f 458 410 255
f 459 342 412
f 459 386 441
f 459 441 342
f 460 383 438
f 460 438 387
f 460 387 413
f 460 413 345
f 460 345 383
f 461 347 414
f 461 414 302
f 461 302 209
f 461 209 347
f 462 327 233
f 462 233 404
f 462 404 66
f 462 66 144
f 462 144 354
f 462 354 417
f 462 417 419
f 462 419 327
f 463 421 420
f 463 420 352
f 463 352 363
f 463 363 360
f 463 360 421
f 464 426 367
f 465 289 426
f 465 426 464
f 465 197 289
f 466 380 202
f 466 202 283
f 466 283 431
f 467 466 431
f 467 431 432
f 467 432 378
f 468 434 433
f 468 433 289
f 468 289 469
f 468 469 434
f 470 434 467
f 470 467 378
f 470 378 165
f 470 165 435
f 470 435 377
f 470 377 434
f 471 123 342
f 471 342 441
f 471 441 299
f 471 299 123
f 472 130 129
f 472 129 444
f 472 444 443
f 472 443 393
f 472 393 391
f 472 391 130
f 473 319 401
f 473 401 450
f 473 450 329
f 473 329 454
f 473 454 400
f 473 400 452
f 473 452 319
f 474 450 401
f 474 401 451
f 474 451 72
f 474 72 155
f 474 155 328
f 474 328 450
f 475 393 392
f 475 392 407
f 475 407 408
f 475 408 455
f 475 455 391
f 475 391 393
f 476 412 343
f 476 343 410
f 476 410 458
f 476 458 386
f 476 386 459
f 476 459 412
f 477 199 464
f 477 464 367
f 477 367 199
f 478 199 197
f 478 197 465
f 478 465 464
f 478 464 199
f 479 380 466
f 479 466 469
f 479 469 289
f 479 289 288
f 479 288 287
f 479 287 380
f 480 469 466
f 480 466 467
f 480 467 434
f 480 434 469
