# Convex hull collision mesh — generated by scripts/generate-collision-meshes.mjs (units: meters)
v -0.150838 -0.005558 -0.008970
v -0.150838 0.007318 -0.008970
v -0.150838 0.007218 -0.009470
v -0.102824 -0.004943 -0.014044
v -0.102824 0.006703 -0.014044
v -0.102824 0.006703 -0.004397
v -0.150838 0.007318 -0.009470
v -0.147612 0.005826 -0.015064
v -0.108034 0.000051 0.003780
v -0.106429 -0.000577 0.003780
v -0.106741 0.002379 0.003780
v -0.147612 -0.004066 -0.003377
v -0.150838 -0.005558 -0.009470
v -0.106751 -0.000620 0.003780
v -0.105495 0.001647 0.003780
v -0.102824 -0.004943 -0.004397
v -0.120895 0.007431 -0.005079
v -0.147518 0.007611 -0.005378
v -0.103001 0.006864 -0.004325
v -0.107866 0.001918 0.003780
v -0.107362 -0.000504 0.003780
v -0.102982 -0.005119 -0.004397
v -0.120895 -0.006867 -0.009448
v -0.103001 -0.005120 -0.014044
v -0.120895 -0.006694 -0.010863
v -0.147518 -0.006393 -0.011897
v -0.120844 -0.006379 -0.011876
v -0.105641 -0.000092 0.003780
v -0.105292 0.001037 0.003780
v -0.147593 0.007897 -0.012436
v -0.147593 0.008141 -0.011839
v -0.147593 0.008351 -0.011161
v -0.147518 0.008525 -0.010491
v -0.120895 0.008278 -0.011531
v -0.103001 -0.005085 -0.014149
v -0.120895 -0.005000 -0.014268
v -0.103001 -0.005058 -0.014178
v -0.120895 -0.004206 -0.015068
v -0.147603 0.005938 -0.015036
v -0.147518 0.006875 -0.014132
v -0.120895 0.006950 -0.014038
v -0.103001 0.006838 -0.014158
v -0.147518 0.007629 -0.013031
v -0.147593 0.006854 -0.014108
v -0.147571 0.006760 -0.014247
v -0.120895 0.008025 -0.006219
v -0.120844 0.008138 -0.006563
v -0.147518 0.008629 -0.009089
v -0.147518 0.008497 -0.007791
v -0.120895 0.008627 -0.008993
v -0.120895 0.008558 -0.010277
v -0.147614 -0.004066 -0.015058
v -0.147603 -0.004066 -0.015078
v -0.147598 0.005826 -0.015083
v -0.107069 -0.000593 0.003780
v -0.107839 -0.000186 0.003780
v -0.120895 -0.005970 -0.005595
v -0.147518 -0.005869 -0.005410
v -0.120895 -0.006265 -0.012222
v -0.120844 -0.005997 -0.012749
v -0.103001 -0.005104 -0.014116
v -0.102957 -0.005115 -0.014044
v -0.103001 -0.005119 -0.014062
v -0.120844 -0.006822 -0.009863
v -0.103001 -0.005116 -0.014081
v -0.106143 0.002236 0.003780
v -0.106125 -0.000467 0.003780
v -0.105359 0.000410 0.003780
v -0.105361 0.001355 0.003780
v -0.120873 0.005863 -0.015117
v -0.147518 0.005876 -0.015114
v -0.120853 0.005900 -0.015107
v -0.103001 0.006809 -0.014185
v -0.102876 0.006792 -0.014132
v -0.120895 0.005966 -0.015068
v -0.103001 0.006703 -0.014220
v -0.120895 -0.004066 -0.015120
v -0.120895 0.005826 -0.015120
v -0.120844 0.007242 -0.013609
v -0.120895 0.007730 -0.012846
v -0.120844 0.008583 -0.009862
v -0.103001 0.006860 -0.014126
v -0.103001 0.006875 -0.014087
v -0.102928 0.006864 -0.014044
v -0.120844 0.008403 -0.010993
v -0.147593 0.007606 -0.013007
v -0.120844 0.008138 -0.011879
v -0.147518 0.008166 -0.011862
v -0.120895 -0.005670 -0.013362
v -0.147567 0.005958 -0.015059
v -0.147561 0.005826 -0.015111
v -0.147574 0.006426 -0.014611
v -0.147518 0.005966 -0.015068
v -0.147593 0.007251 -0.013578
v -0.120844 0.007797 -0.005770
v -0.147518 0.008153 -0.006544
v -0.120895 0.008454 -0.007578
v -0.147593 0.008599 -0.009220
v -0.147593 0.008558 -0.008422
v -0.120844 0.008582 -0.008577
v -0.103001 0.006876 -0.004360
v -0.102957 0.006875 -0.004397
v -0.147561 -0.004066 -0.003330
v -0.147544 0.005826 -0.003324
v -0.147567 0.005826 -0.003333
v -0.147581 -0.004066 -0.003341
v -0.147593 0.007172 -0.004749
v -0.147593 0.007530 -0.005301
v -0.147593 0.006806 -0.004274
v -0.108034 0.001709 0.003780
v -0.107375 0.002259 0.003780
v -0.147518 -0.004066 -0.015120
v -0.147544 -0.004066 -0.015117
v -0.147529 0.005826 -0.015120
v -0.147518 -0.004116 -0.015114
v -0.147567 -0.004066 -0.015108
v -0.147586 -0.004066 -0.015095
v -0.147518 -0.005104 -0.014146
v -0.147593 -0.005770 -0.013140
v -0.147593 -0.006104 -0.012507
v -0.147593 -0.005412 -0.013692
v -0.147593 -0.006353 -0.011916
v -0.107616 -0.000368 0.003780
v -0.147518 -0.004116 -0.003326
v -0.147574 -0.004666 -0.003830
v -0.147518 -0.006737 -0.010649
v -0.147518 -0.006406 -0.006578
v -0.120895 -0.006798 -0.008165
v -0.103001 -0.005115 -0.004354
v -0.120844 -0.006377 -0.006561
v -0.120895 -0.006518 -0.006910
v -0.102918 -0.005100 -0.014044
v -0.102886 -0.005078 -0.014044
v -0.102895 -0.005085 -0.004397
v -0.102866 -0.005058 -0.004397
v -0.103001 -0.005078 -0.004283
v -0.120844 -0.006731 -0.010568
v -0.105680 0.001895 0.003780
v -0.102912 0.006792 -0.004272
v -0.106428 0.002337 0.003780
v -0.103001 0.006845 -0.004291
v -0.105293 0.000715 0.003780
v -0.102844 0.006703 -0.004315
v -0.102829 0.006703 -0.004354
v -0.147518 0.005826 -0.015120
v -0.102829 -0.004943 -0.014087
v -0.102839 -0.005016 -0.014044
v -0.102844 -0.004943 -0.014126
v -0.102912 -0.005032 -0.014169
v -0.103001 -0.004986 -0.014215
v -0.102928 -0.004943 -0.014205
v -0.102886 0.006703 -0.014178
v -0.102918 0.006703 -0.014200
v -0.103001 0.006740 -0.014216
v -0.103001 0.006721 -0.014219
v -0.102844 0.006785 -0.014044
v -0.102829 0.006746 -0.014044
v -0.102866 0.006818 -0.014044
v -0.102918 0.006860 -0.004397
v -0.102886 0.006838 -0.004397
v -0.102895 0.006845 -0.014044
v -0.102825 0.006721 -0.004397
v -0.102982 0.006879 -0.014044
v -0.103001 0.006880 -0.004397
v -0.120844 0.007863 -0.012535
v -0.103001 -0.004943 -0.014220
v -0.147518 0.005924 -0.015096
v -0.120871 0.005931 -0.015093
v -0.120882 0.005949 -0.015081
v -0.120844 0.006364 -0.014667
v -0.147571 0.006077 -0.014950
v -0.147570 0.006840 -0.014153
v -0.147593 0.007864 -0.005934
v -0.147593 0.008113 -0.006524
v -0.120844 0.008352 -0.007242
v -0.147593 0.008314 -0.007144
v -0.103001 0.006879 -0.004379
v -0.147540 -0.004066 -0.003323
v -0.147603 0.005826 -0.003363
v -0.147598 -0.004066 -0.003358
v -0.107652 0.002103 0.003780
v -0.147540 0.005826 -0.015118
v -0.147581 0.005826 -0.015099
v -0.147581 -0.004192 -0.015052
v -0.147593 -0.005046 -0.014167
v -0.147593 -0.004612 -0.014644
v -0.147518 -0.005851 -0.013063
v -0.147518 -0.004206 -0.003373
v -0.147571 -0.005000 -0.004193
v -0.147593 -0.005094 -0.004332
v -0.147593 -0.005491 -0.004863
v -0.147570 -0.005080 -0.004288
v -0.147593 -0.005846 -0.005433
v -0.147518 -0.005115 -0.004309
v -0.147518 -0.006869 -0.009352
v -0.147593 -0.006820 -0.008674
v -0.147593 -0.006554 -0.011297
v -0.147593 -0.006591 -0.007279
v -0.102928 -0.005104 -0.004397
v -0.102859 -0.005049 -0.014044
v -0.105479 0.000140 0.003780
v -0.103001 -0.005100 -0.004315
v -0.105858 -0.000300 0.003780
v -0.105898 0.002091 0.003780
v -0.102839 0.006776 -0.004397
v -0.102828 -0.004980 -0.014044
v -0.102829 -0.004986 -0.004397
v -0.102866 -0.004943 -0.014158
v -0.103001 -0.005025 -0.014200
v -0.102839 0.006703 -0.014116
v -0.103001 0.006776 -0.014205
v -0.102957 0.006703 -0.014215
v -0.102964 0.006876 -0.014044
v -0.120873 -0.004104 -0.015117
v -0.120875 -0.004179 -0.015088
v -0.120864 -0.004160 -0.015098
v -0.147544 0.005964 -0.015065
v -0.147586 0.005950 -0.015049
v -0.147593 0.008462 -0.007770
v -0.120844 0.008491 -0.007871
v -0.147612 0.005929 -0.003416
v -0.147598 0.005942 -0.003401
v -0.147586 0.005826 -0.003346
v -0.147614 0.005826 -0.003383
v -0.147518 0.006864 -0.004295
v -0.107064 0.002354 0.003780
v -0.147518 0.005924 -0.003344
v -0.147518 0.005876 -0.003326
v -0.147612 -0.004169 -0.015025
v -0.147598 -0.004182 -0.015040
v -0.147518 -0.004206 -0.015068
v -0.147567 -0.004198 -0.003382
v -0.147593 -0.006137 -0.006004
v -0.147593 -0.006797 -0.010019
v -0.120844 -0.006822 -0.008578
v -0.147593 -0.006701 -0.010671
v -0.147518 -0.006765 -0.007950
v -0.102964 -0.005116 -0.004397
v -0.102876 -0.005032 -0.004309
v -0.102839 -0.004943 -0.004325
v -0.102859 0.006809 -0.004397
v -0.102828 0.006740 -0.004397
v -0.102825 -0.004961 -0.014044
v -0.102895 -0.004943 -0.014185
v -0.102828 0.006703 -0.014081
v -0.102859 0.006703 -0.014149
v -0.102964 -0.004943 -0.014216
v -0.120853 -0.004140 -0.015107
v -0.147593 0.006372 -0.003796
v -0.147529 -0.004206 -0.015067
v -0.147586 -0.004190 -0.003392
v -0.147544 -0.004204 -0.003375
v -0.147593 -0.006381 -0.006602
v -0.120844 -0.006653 -0.007489
v -0.102844 -0.005025 -0.004397
v -0.102828 -0.004943 -0.004360
v -0.102825 0.006703 -0.014062
v -0.102982 -0.004943 -0.014219
v -0.147561 0.005960 -0.003380
v -0.147561 -0.004200 -0.015061
v -0.147603 -0.004178 -0.003405
v -0.147571 -0.004317 -0.003490
v -0.147518 -0.004164 -0.003344
v -0.102825 -0.004943 -0.004379
v -0.147529 0.005966 -0.003373
v -0.147581 0.005952 -0.003389
v -0.147540 -0.004205 -0.015066
v -0.147518 -0.004164 -0.015096
v -0.147540 0.005965 -0.003375
f 1 2 3
f 4 5 6
f 7 3 2
f 8 3 7
f 9 10 11
f 12 2 1
f 13 1 3
f 13 3 8
f 14 10 9
f 15 11 10
f 16 4 6
f 17 18 11
f 17 11 19
f 20 9 11
f 21 14 9
f 22 23 24
f 25 26 27
f 28 15 10
f 29 15 28
f 30 7 31
f 32 33 34
f 32 31 7
f 32 7 33
f 35 36 37
f 38 37 36
f 39 8 7
f 40 41 42
f 40 43 41
f 44 45 7
f 46 19 47
f 48 7 2
f 48 49 50
f 48 51 33
f 52 8 53
f 52 53 13
f 52 13 8
f 54 53 8
f 54 8 39
f 55 14 21
f 56 21 9
f 57 14 58
f 59 27 26
f 59 60 61
f 59 61 27
f 62 22 24
f 63 24 23
f 63 23 64
f 63 62 24
f 65 61 62
f 65 62 63
f 65 63 25
f 65 25 27
f 65 27 61
f 66 11 15
f 67 28 10
f 68 29 28
f 69 15 29
f 70 71 72
f 73 42 74
f 73 75 42
f 76 77 78
f 79 41 43
f 79 43 80
f 79 42 41
f 81 51 48
f 81 48 50
f 82 42 79
f 82 79 80
f 82 34 83
f 82 83 84
f 82 84 74
f 82 74 42
f 85 51 83
f 85 83 34
f 85 34 33
f 85 33 51
f 86 7 30
f 86 30 43
f 87 34 82
f 88 31 32
f 88 32 34
f 88 34 87
f 88 80 43
f 88 43 30
f 88 30 31
f 89 35 61
f 89 61 60
f 90 71 91
f 92 75 93
f 92 7 45
f 92 45 40
f 92 40 42
f 94 44 7
f 94 7 86
f 94 86 43
f 94 43 40
f 95 17 19
f 95 19 46
f 95 46 18
f 95 18 17
f 96 46 47
f 96 97 49
f 96 18 46
f 98 7 48
f 98 48 33
f 98 33 7
f 99 49 48
f 99 48 2
f 99 2 49
f 100 49 97
f 100 50 49
f 101 19 102
f 101 47 19
f 103 104 105
f 106 103 105
f 107 18 108
f 107 108 2
f 107 2 109
f 110 20 104
f 110 9 20
f 111 20 11
f 112 78 77
f 113 114 112
f 113 112 115
f 113 115 116
f 113 116 91
f 117 53 54
f 118 36 35
f 118 35 89
f 119 120 13
f 119 13 121
f 122 13 120
f 122 120 26
f 123 21 56
f 123 56 124
f 123 124 21
f 125 14 55
f 126 25 64
f 126 64 23
f 126 26 25
f 127 57 58
f 128 22 129
f 130 57 127
f 130 127 131
f 132 133 134
f 132 62 61
f 135 134 133
f 136 67 10
f 137 25 63
f 137 63 64
f 137 64 25
f 138 66 15
f 138 15 139
f 140 11 66
f 141 19 11
f 141 11 140
f 141 140 66
f 141 66 139
f 141 139 19
f 142 29 68
f 143 69 29
f 143 29 144
f 143 139 15
f 143 15 69
f 145 114 71
f 145 71 70
f 145 70 78
f 145 78 112
f 145 112 114
f 146 147 148
f 149 133 132
f 149 132 61
f 149 61 35
f 149 35 37
f 149 150 151
f 149 148 147
f 152 153 74
f 154 70 72
f 155 70 154
f 155 76 78
f 155 78 70
f 156 157 74
f 156 74 158
f 159 102 19
f 159 19 139
f 159 139 160
f 159 84 102
f 161 84 159
f 161 159 160
f 161 160 158
f 161 158 74
f 161 74 84
f 162 6 5
f 162 5 157
f 162 144 6
f 163 83 51
f 163 51 81
f 163 81 50
f 163 50 164
f 163 164 102
f 165 80 88
f 165 88 87
f 165 87 82
f 165 82 80
f 166 77 76
f 167 71 90
f 167 168 72
f 167 72 71
f 169 75 73
f 169 73 168
f 169 168 167
f 169 167 93
f 169 93 75
f 170 75 92
f 170 92 42
f 170 42 75
f 171 7 92
f 172 44 94
f 172 94 40
f 172 40 45
f 172 45 44
f 173 18 96
f 173 96 174
f 173 174 2
f 173 2 108
f 173 108 18
f 175 97 96
f 175 96 47
f 175 47 101
f 175 101 97
f 176 2 174
f 176 174 96
f 176 96 49
f 177 164 50
f 177 50 100
f 177 97 101
f 177 101 102
f 177 102 164
f 178 9 110
f 178 110 104
f 178 104 103
f 178 103 124
f 178 124 56
f 178 56 9
f 179 12 180
f 181 20 111
f 182 114 113
f 182 113 91
f 182 91 71
f 182 71 114
f 183 91 116
f 183 116 117
f 183 117 54
f 183 90 91
f 184 117 116
f 185 186 118
f 185 118 121
f 185 121 13
f 185 13 186
f 187 89 60
f 187 60 59
f 187 59 26
f 187 26 120
f 187 120 119
f 187 119 121
f 187 121 118
f 187 118 89
f 188 125 55
f 189 125 1
f 190 1 191
f 190 191 192
f 190 192 189
f 190 189 1
f 193 58 191
f 193 191 1
f 194 14 125
f 194 125 189
f 194 189 192
f 194 192 191
f 194 191 58
f 194 58 14
f 195 196 1
f 195 1 13
f 195 126 23
f 195 128 196
f 197 26 126
f 197 13 122
f 197 122 26
f 198 131 127
f 199 62 132
f 199 132 134
f 200 135 133
f 200 133 149
f 200 149 147
f 201 68 28
f 202 14 57
f 202 57 130
f 202 130 131
f 202 131 129
f 202 129 199
f 202 136 10
f 202 10 14
f 203 28 67
f 204 66 138
f 204 138 139
f 204 139 66
f 205 139 143
f 205 143 144
f 205 157 156
f 206 147 146
f 206 207 147
f 208 148 149
f 209 150 149
f 209 149 37
f 210 146 148
f 210 74 157
f 211 73 74
f 211 74 153
f 211 154 72
f 211 72 168
f 211 168 73
f 212 153 151
f 212 76 155
f 212 155 154
f 212 154 211
f 212 211 153
f 213 84 83
f 213 83 163
f 213 163 102
f 213 102 84
f 214 77 166
f 214 166 150
f 214 115 112
f 214 112 77
f 215 216 209
f 215 209 37
f 215 37 38
f 217 93 167
f 217 167 90
f 217 90 171
f 217 171 92
f 217 92 93
f 218 39 7
f 218 7 171
f 218 171 90
f 218 90 183
f 218 183 54
f 218 54 39
f 219 2 176
f 219 176 49
f 219 49 2
f 220 97 177
f 220 177 100
f 220 100 97
f 221 2 179
f 221 179 222
f 221 222 2
f 223 106 105
f 223 222 179
f 223 179 180
f 223 180 106
f 224 12 179
f 224 179 2
f 224 2 12
f 225 11 18
f 225 18 107
f 225 107 109
f 226 11 225
f 226 227 111
f 226 111 11
f 228 227 105
f 228 105 104
f 228 104 20
f 228 20 181
f 228 181 111
f 228 111 227
f 229 13 53
f 230 13 229
f 230 229 53
f 230 53 117
f 230 117 184
f 230 184 186
f 230 186 13
f 231 38 36
f 231 36 118
f 231 215 38
f 232 124 103
f 232 103 106
f 233 127 58
f 233 58 193
f 233 193 1
f 234 126 195
f 234 195 13
f 234 13 126
f 235 128 195
f 235 195 23
f 235 23 22
f 235 22 128
f 236 13 197
f 236 197 126
f 236 126 13
f 237 131 198
f 237 198 1
f 237 1 196
f 237 196 128
f 238 62 199
f 238 199 129
f 238 129 22
f 238 22 62
f 239 68 201
f 239 201 28
f 239 28 203
f 239 203 67
f 239 67 136
f 239 136 202
f 239 202 199
f 239 199 134
f 239 134 135
f 240 142 68
f 240 68 239
f 240 239 207
f 241 139 205
f 241 205 156
f 241 156 158
f 241 158 160
f 241 160 139
f 242 162 157
f 242 157 205
f 242 205 144
f 242 144 162
f 243 4 16
f 243 16 207
f 243 207 206
f 243 206 146
f 243 146 4
f 244 151 153
f 244 153 152
f 244 152 208
f 244 208 149
f 244 149 151
f 245 146 210
f 245 210 157
f 246 208 152
f 246 152 74
f 246 74 210
f 246 210 148
f 246 148 208
f 247 212 151
f 247 151 150
f 248 115 214
f 248 214 150
f 248 150 209
f 248 209 216
f 249 225 109
f 249 109 2
f 249 2 222
f 250 231 118
f 250 118 186
f 251 232 106
f 251 106 180
f 252 125 188
f 253 127 233
f 253 233 1
f 253 1 198
f 253 198 127
f 254 131 237
f 254 237 128
f 254 128 129
f 254 129 131
f 255 207 239
f 255 239 135
f 255 135 200
f 255 200 147
f 255 147 207
f 256 144 29
f 256 29 142
f 256 142 240
f 256 240 207
f 257 4 146
f 257 146 245
f 257 245 157
f 257 157 5
f 257 5 4
f 258 76 212
f 258 212 247
f 258 247 150
f 258 150 166
f 258 166 76
f 259 105 227
f 260 184 116
f 260 186 184
f 261 12 1
f 261 1 251
f 261 251 180
f 261 180 12
f 262 125 252
f 262 252 232
f 262 232 251
f 262 251 1
f 262 1 125
f 263 124 232
f 263 232 252
f 263 252 188
f 263 188 55
f 263 55 21
f 263 21 124
f 264 6 144
f 264 144 256
f 264 256 207
f 264 207 16
f 264 16 6
f 265 226 225
f 265 225 249
f 265 227 226
f 266 222 223
f 266 223 105
f 266 105 259
f 266 259 249
f 266 249 222
f 267 250 186
f 267 186 260
f 268 115 248
f 268 248 216
f 268 216 215
f 268 215 231
f 268 231 250
f 268 250 267
f 268 267 260
f 268 260 116
f 268 116 115
f 269 259 227
f 269 227 265
f 269 265 249
f 269 249 259
