# Convex hull collision mesh — generated by scripts/generate-collision-meshes.mjs (units: meters)
v 0.007845 0.022445 0.009602
v 0.007899 0.022679 0.009622
v -0.007845 0.022445 0.009602
v -0.007899 0.022679 0.009622
v -0.007899 0.022921 0.009622
v 0.006442 0.000500 0.007550
v -0.008002 0.022921 0.009340
v -0.000658 0.026900 0.000454
v 0.000748 0.026900 0.000284
v -0.000000 0.026900 -0.000800
v 0.000658 0.026900 -0.000454
v -0.006442 0.000500 0.007550
v -0.006442 0.000389 0.007537
v 0.006564 0.000500 0.007535
v 0.006442 0.000283 0.007500
v 0.000000 -0.010900 0.001000
v 0.006492 0.000206 0.007451
v -0.000748 0.026900 -0.000284
v 0.000794 0.026900 -0.000096
v 0.000372 0.026900 -0.000708
v 0.004628 0.026091 -0.001729
v 0.004340 0.026091 -0.002361
v 0.004324 0.026097 -0.002352
v 0.003035 0.026091 0.003898
v 0.002458 0.026091 0.004285
v 0.007191 0.023771 0.009364
v -0.000465 0.026089 0.004922
v -0.007191 0.023771 0.009364
v -0.002421 0.026097 0.004286
v -0.001794 0.026097 0.004584
v 0.006442 0.023676 -0.007470
v 0.006442 0.023586 -0.007550
v -0.006442 0.023676 -0.007470
v 0.006679 0.000500 0.007490
v 0.006667 0.000345 0.007469
v 0.006779 0.000500 0.007419
v -0.007590 0.023549 0.009509
v -0.007692 0.023549 0.009228
v -0.007842 0.023368 0.009282
v -0.007506 0.023685 0.009160
v -0.004643 0.026090 0.001697
v -0.009461 0.023743 0.002816
v -0.009556 0.023676 0.002844
v -0.009485 0.023740 0.002750
v -0.009585 0.023674 0.002750
v 0.000372 -0.011100 0.000708
v -0.000530 -0.011100 0.000599
v 0.000000 -0.011100 -0.000800
v 0.006442 0.000389 0.007537
v 0.006558 0.000345 0.007511
v -0.009666 0.023586 0.002750
v -0.006442 0.023586 -0.007550
v 0.006442 0.020000 -0.007550
v 0.006442 0.000500 -0.007550
v -0.006779 0.020000 -0.007419
v -0.007434 0.020000 -0.006763
v -0.006779 0.023586 -0.007419
v -0.006679 0.000500 -0.007490
v -0.008548 0.020000 -0.005286
v -0.008548 0.023586 -0.005286
v -0.008091 0.000500 -0.005962
v -0.006442 0.000283 0.007500
v -0.000372 0.026900 -0.000708
v 0.000794 0.026900 0.000096
v 0.004912 0.026097 0.000318
v 0.009372 0.023586 -0.003628
v 0.009094 0.000500 -0.004277
v 0.008998 0.023586 -0.004476
v 0.009485 0.023740 -0.002750
v 0.004930 0.026091 0.000320
v 0.009473 0.023746 0.002750
v 0.004926 0.026091 -0.000375
v 0.004908 0.026097 -0.000374
v 0.004807 0.026097 -0.001059
v 0.000748 0.026900 -0.000284
v 0.001171 0.026091 0.004800
v 0.000484 0.026097 0.004898
v 0.000486 0.026091 0.004916
v 0.000530 0.026900 0.000599
v 0.000463 0.026091 0.004918
v -0.003000 0.026097 0.003902
v -0.003520 0.026097 0.003441
v -0.000794 0.026900 0.000096
v -0.004830 0.026090 -0.001052
v -0.009473 0.023746 -0.002750
v -0.004930 0.026090 -0.000362
v -0.004810 0.026097 -0.001047
v -0.004932 0.026090 0.000336
v -0.004836 0.026090 0.001027
v 0.000530 0.026900 -0.000599
v 0.000191 0.026900 -0.000777
v 0.002966 0.026097 -0.003922
v 0.003951 0.026097 -0.002936
v 0.006564 0.023586 -0.007535
v 0.002966 0.026078 -0.003962
v -0.002966 0.026078 -0.003962
v 0.002966 0.026090 -0.003943
v 0.002976 0.026081 -0.003958
v -0.007740 0.023368 0.009564
v 0.007740 0.023368 0.009564
v -0.007403 0.023685 0.009442
v 0.000239 -0.010900 0.000971
v 0.000000 -0.011100 0.000800
v 0.007471 0.000500 0.006722
v 0.008540 0.000188 0.005088
v 0.008003 0.000188 0.005897
v 0.000823 -0.010900 0.000568
v -0.009555 0.000389 0.003075
v -0.009468 0.000500 0.003370
v -0.009752 0.000500 0.002430
v -0.008002 0.022679 0.009340
v -0.007948 0.023155 0.009321
v -0.006564 0.023586 -0.007535
v -0.006564 0.000500 -0.007535
v 0.006442 0.000283 -0.007500
v 0.000000 -0.010900 -0.001000
v -0.006442 0.000283 -0.007500
v -0.006442 0.020000 -0.007550
v -0.006442 0.000500 -0.007550
v -0.008634 0.000500 -0.005144
v -0.000748 -0.011100 -0.000284
v -0.007471 0.000500 -0.006722
v -0.008025 0.020000 -0.006050
v -0.007390 0.000188 -0.006649
v -0.007434 0.000283 -0.006689
v -0.006746 0.000283 -0.007383
v -0.006706 0.000188 -0.007339
v -0.006558 0.000345 0.007511
v -0.006492 0.000206 0.007451
v -0.006588 0.000206 0.007427
v -0.000530 0.026900 -0.000599
v -0.000191 0.026900 -0.000777
v 0.004836 0.026091 0.001008
v 0.009372 0.020000 -0.003628
v 0.008802 0.023743 -0.004468
v 0.008364 0.023743 -0.005242
v 0.008548 0.023586 -0.005286
v 0.008634 0.000500 -0.005144
v 0.008091 0.000500 -0.005962
v 0.008025 0.023586 -0.006050
v 0.007948 0.023155 0.009321
v 0.009666 0.023586 0.002750
v 0.007842 0.023368 0.009282
v 0.009574 0.023682 0.002750
v 0.007506 0.023685 0.009160
v 0.009585 0.023674 -0.002750
v 0.009556 0.023676 -0.002844
v 0.004825 0.026091 -0.001063
v 0.004611 0.026097 -0.001723
v 0.002987 0.026100 0.003884
v 0.002410 0.026100 0.004266
v 0.001833 0.026091 0.004588
v 0.001786 0.026100 0.004563
v 0.000658 0.026900 0.000454
v -0.000000 0.026900 0.000800
v 0.003504 0.026100 0.003425
v 0.003984 0.026097 0.002891
v -0.001136 0.026090 0.004811
v -0.001131 0.026097 0.004791
v -0.009290 0.023683 -0.003597
v -0.009199 0.023747 -0.003561
v -0.008832 0.023747 -0.004393
v -0.008919 0.023683 -0.004437
v -0.009372 0.023586 -0.003628
v -0.009574 0.023682 -0.002750
v -0.000794 0.026900 -0.000096
v -0.004911 0.026097 0.000334
v -0.007434 0.023586 -0.006763
v -0.006442 0.023743 -0.007371
v -0.002976 0.026081 -0.003958
v -0.006521 0.023743 -0.007361
v -0.004634 0.026090 -0.001721
v 0.002976 0.026095 -0.003929
v -0.002976 0.026095 -0.003929
v 0.003966 0.026091 -0.002946
v 0.007858 0.023743 -0.005974
v 0.008025 0.020000 -0.006050
v 0.007471 0.000500 -0.006722
v 0.007434 0.020000 -0.006763
v 0.006779 0.020000 -0.007419
v 0.006779 0.023586 -0.007419
v 0.007502 0.000389 -0.006668
v 0.006771 0.000389 -0.007410
v 0.006679 0.023586 -0.007490
v -0.004358 0.026090 0.002334
v -0.004339 0.026097 0.002324
v -0.004623 0.026097 0.001690
v -0.003986 0.026090 0.002924
v 0.000794 -0.011100 0.000096
v 0.007390 0.000188 0.006649
v 0.000663 -0.010900 0.000749
v 0.000191 -0.011100 0.000777
v -0.000191 -0.011100 0.000777
v 0.006771 0.000389 0.007410
v 0.008091 0.000500 0.005962
v 0.008634 0.000500 0.005144
v 0.008623 0.000389 0.005138
v 0.008996 0.000188 0.004231
v -0.009740 0.000389 0.002427
v -0.009822 0.000389 0.002069
v -0.009463 0.000188 0.003046
v -0.009365 0.000188 0.003333
v -0.009519 0.000283 0.003064
v -0.009646 0.000188 0.002404
v -0.010037 0.017500 0.000505
v -0.010039 0.017605 0.000000
v -0.010000 0.017605 0.000885
v -0.009734 0.019750 0.002500
v -0.007845 0.023155 0.009602
v -0.010025 0.000389 0.000490
v -0.009989 0.000283 0.000488
v -0.009947 0.000283 0.001036
v -0.009983 0.000389 0.001040
v -0.010038 0.000500 0.000491
v -0.006679 0.020000 -0.007490
v 0.006442 0.000389 -0.007537
v 0.006558 0.000345 -0.007511
v 0.006492 0.000206 -0.007451
v 0.006588 0.000206 -0.007427
v -0.006492 0.000206 -0.007451
v -0.006588 0.000206 -0.007427
v -0.006558 0.000345 -0.007511
v -0.009456 0.000389 -0.003366
v -0.009555 0.000389 -0.003075
v -0.009468 0.000500 -0.003370
v -0.006676 0.000206 -0.007380
v -0.000465 -0.010900 -0.000885
v -0.006779 0.000500 -0.007419
v -0.006771 0.000389 -0.007410
v -0.007461 0.000389 -0.006714
v -0.008003 0.000188 -0.005897
v -0.000823 -0.010900 -0.000568
v -0.006564 0.000500 0.007535
v -0.006679 0.000500 0.007490
v -0.009185 0.000389 0.004049
v -0.009094 0.000500 0.004277
v -0.000239 -0.010900 0.000971
v -0.000465 -0.010900 0.000885
v -0.002980 0.026097 -0.003918
v -0.003502 0.026097 -0.003459
v 0.003998 0.026091 0.002902
v 0.004366 0.026091 0.002312
v 0.004350 0.026097 0.002303
v 0.004630 0.026097 0.001670
v 0.004647 0.026091 0.001677
v 0.007403 0.023685 0.009442
v 0.004819 0.026097 0.001004
v 0.008716 0.000389 -0.004979
v 0.009185 0.000389 -0.004049
v 0.008998 0.020000 -0.004476
v 0.009169 0.023743 -0.003657
v 0.007434 0.023586 -0.006763
v 0.007937 0.023676 -0.006034
v 0.008548 0.020000 -0.005286
v 0.007899 0.022921 0.009622
v 0.009624 0.023637 0.002750
v 0.007692 0.023549 0.009228
v -0.000455 0.026097 0.004902
v -0.000372 0.026900 0.000708
v 0.000191 0.026900 0.000777
v 0.003552 0.026091 0.003434
v -0.000748 0.026900 0.000284
v -0.003535 0.026090 0.003456
v -0.003969 0.026097 0.002911
v -0.001802 0.026090 0.004603
v -0.008473 0.023683 -0.005239
v -0.004909 0.026097 -0.000360
v -0.009941 0.003284 -0.001476
v -0.009936 0.017500 -0.001510
v -0.009937 0.003500 -0.001500
v -0.009942 0.000500 -0.001468
v -0.009666 0.023586 -0.002750
v -0.010000 0.017605 -0.000885
v -0.010037 0.017500 -0.000505
v -0.006725 0.023676 -0.007360
v -0.008025 0.023586 -0.006050
v -0.007954 0.023683 -0.005997
v -0.004614 0.026097 -0.001714
v -0.004327 0.026097 -0.002346
v 0.003500 0.026097 -0.003461
v 0.006676 0.000206 -0.007380
v 0.000465 -0.010900 -0.000885
v 0.006746 0.000283 -0.007383
v 0.006706 0.000188 -0.007339
v 0.006564 0.020000 -0.007535
v 0.006679 0.000500 -0.007490
v 0.000663 -0.010900 -0.000749
v 0.000658 -0.011100 0.000454
v 0.006588 0.000206 0.007427
v 0.006676 0.000206 0.007380
v 0.007461 0.000389 0.006714
v 0.006706 0.000188 0.007339
v -0.000372 -0.011100 0.000708
v 0.006746 0.000283 0.007383
v 0.008591 0.000283 0.005119
v 0.008002 0.022679 0.009340
v 0.009468 0.000500 0.003370
v 0.009752 0.000500 0.002430
v 0.009555 0.000389 0.003075
v -0.009786 0.000283 0.002061
v -0.009704 0.000283 0.002418
v -0.009422 0.000283 0.003353
v -0.009151 0.000283 0.004034
v -0.010005 0.002603 -0.000940
v -0.010038 0.000500 -0.000491
v -0.009930 0.000389 -0.001466
v -0.009822 0.000389 -0.002069
v -0.010049 0.002500 -0.000167
v -0.009733 0.019799 0.002505
v -0.009734 0.017500 0.002500
v -0.009936 0.017500 0.001510
v -0.009937 0.003500 0.001500
v -0.010007 0.002597 0.000928
v -0.010024 0.002525 0.000720
v -0.010037 0.003500 0.000502
v -0.006545 0.023676 -0.007457
v -0.006641 0.023676 -0.007420
v -0.006594 0.023743 -0.007333
v -0.006659 0.023743 -0.007287
v -0.006679 0.023586 -0.007490
v -0.006442 0.000389 -0.007537
v 0.000239 -0.010900 -0.000971
v -0.006667 0.000345 -0.007469
v -0.000663 -0.010900 -0.000749
v -0.000239 -0.010900 -0.000971
v -0.009094 0.000500 -0.004277
v -0.008998 0.020000 -0.004476
v -0.009422 0.000283 -0.003353
v -0.009752 0.000500 -0.002430
v -0.008998 0.023586 -0.004476
v -0.000935 -0.010900 0.000355
v -0.000993 -0.010900 0.000121
v -0.000935 -0.010900 -0.000355
v -0.009646 0.000188 -0.002404
v -0.009463 0.000188 -0.003046
v -0.008996 0.000188 -0.004231
v -0.000748 -0.011100 0.000284
v -0.009727 0.000188 0.002049
v -0.009834 0.000188 0.001452
v -0.009887 0.000188 0.001030
v -0.000663 -0.010900 0.000749
v -0.009456 0.000389 0.003366
v -0.008716 0.000389 0.004979
v -0.003517 0.026090 -0.003474
v -0.007296 0.023747 -0.006638
v -0.002966 0.026097 -0.003922
v 0.008683 0.000283 -0.004961
v 0.009096 0.000188 -0.004010
v 0.008632 0.000188 -0.004931
v 0.009261 0.023676 -0.003693
v 0.009461 0.023743 -0.002816
v 0.008448 0.023676 -0.005295
v 0.007845 0.023155 0.009602
v 0.007590 0.023549 0.009509
v 0.000449 0.026099 0.004891
v -0.000191 0.026900 0.000777
v -0.000530 0.026900 0.000599
v 0.001126 0.026100 0.004769
v 0.000372 0.026900 0.000708
v -0.004815 0.026097 0.001022
v -0.008390 0.023747 -0.005188
v -0.009952 0.003078 -0.001406
v -0.009967 0.002885 -0.001288
v -0.009624 0.023637 -0.002750
v -0.007368 0.023683 -0.006704
v -0.002966 0.026090 -0.003943
v 0.002980 0.026097 -0.003918
v 0.007288 0.023743 -0.006658
v 0.003513 0.026091 -0.003474
v 0.007475 0.000283 -0.006644
v 0.008123 0.000283 -0.005834
v 0.007430 0.000188 -0.006604
v 0.000823 -0.010900 -0.000568
v 0.008153 0.000389 -0.005855
v 0.008074 0.000188 -0.005799
v 0.006779 0.000500 -0.007419
v 0.006667 0.000345 -0.007469
v 0.006564 0.000500 -0.007535
v 0.009151 0.000283 -0.004034
v 0.009468 0.000500 -0.003370
v 0.009666 0.020000 -0.002750
v 0.009752 0.000500 -0.002430
v 0.000530 -0.011100 -0.000599
v 0.000530 -0.011100 0.000599
v 0.000748 -0.011100 0.000284
v 0.000935 -0.010900 0.000355
v 0.000935 -0.010900 -0.000355
v 0.000465 -0.010900 0.000885
v 0.008081 0.000389 0.005954
v 0.008051 0.000283 0.005932
v 0.007434 0.000283 0.006689
v 0.008002 0.022921 0.009340
v 0.009049 0.000283 0.004256
v 0.009083 0.000389 0.004272
v 0.009365 0.000188 0.003333
v 0.009422 0.000283 0.003353
v 0.009094 0.000500 0.004277
v 0.009456 0.000389 0.003366
v 0.009740 0.000389 0.002427
v 0.009734 0.019750 0.002500
v 0.010037 0.017500 0.000505
v 0.010000 0.017605 0.000885
v 0.009983 0.000389 0.001040
v 0.010038 0.000500 0.000491
v 0.009942 0.000500 0.001468
v -0.009986 0.002724 -0.001130
v -0.010023 0.002526 -0.000726
v -0.009786 0.000283 -0.002061
v -0.009727 0.000188 -0.002049
v -0.010049 0.002500 0.000167
v -0.009893 0.000283 0.001460
v -0.009930 0.000389 0.001466
v -0.009942 0.000500 0.001468
v -0.010038 0.002500 0.000500
v -0.000530 -0.011100 -0.000599
v -0.009372 0.020000 -0.003628
v -0.009365 0.000188 -0.003333
v -0.009734 0.019750 -0.002500
v -0.009740 0.000389 -0.002427
v -0.000993 -0.010900 -0.000121
v -0.009941 0.000188 0.000000
v -0.009929 0.000188 -0.000485
v -0.000794 -0.011100 0.000096
v -0.009929 0.000188 0.000485
v -0.008540 0.000188 -0.005088
v -0.008591 0.000283 -0.005119
v -0.008623 0.000389 -0.005138
v -0.009049 0.000283 -0.004256
v -0.006676 0.000206 0.007380
v -0.000823 -0.010900 0.000568
v -0.008632 0.000188 0.004931
v -0.007430 0.000188 0.006604
v -0.006779 0.000500 0.007419
v -0.006771 0.000389 0.007410
v -0.008153 0.000389 0.005855
v -0.008091 0.000500 0.005962
v -0.002993 0.026090 -0.003935
v -0.000658 0.026900 -0.000454
v -0.003954 0.026097 -0.002932
v -0.003971 0.026090 -0.002945
v 0.008891 0.023676 -0.004512
v 0.000454 0.026097 0.004902
v -0.004346 0.026090 -0.002356
v 0.006659 0.023743 -0.007287
v 0.006725 0.023676 -0.007360
v 0.007361 0.023676 -0.006724
v 0.009666 0.023586 -0.002750
v 0.010037 0.017500 -0.000505
v 0.010000 0.017605 -0.000885
v 0.009456 0.000389 -0.003366
v 0.000372 -0.011100 -0.000708
v 0.000993 -0.010900 0.000121
v 0.000993 -0.010900 -0.000121
v 0.009941 0.000188 0.000000
v 0.009929 0.000188 0.000485
v 0.009887 0.000188 0.001030
v 0.009834 0.000188 0.001452
v 0.009646 0.000188 0.002404
v 0.009929 0.000188 -0.000485
v 0.009887 0.000188 -0.001030
v 0.009834 0.000188 -0.001452
v 0.009727 0.000188 -0.002049
v 0.009365 0.000188 -0.003333
v 0.000748 -0.011100 -0.000284
v 0.009463 0.000188 0.003046
v 0.009732 0.019803 0.002506
v 0.009734 0.017500 0.002500
v 0.009936 0.017500 0.001510
v 0.010005 0.002603 0.000940
v 0.009930 0.000389 0.001466
v 0.009947 0.000283 0.001036
v -0.010037 0.003500 -0.000502
v -0.009942 0.003275 0.001474
v -0.000658 -0.011100 -0.000454
v -0.000191 -0.011100 -0.000777
v -0.000372 -0.011100 -0.000708
v -0.009734 0.017500 -0.002500
v -0.009704 0.000283 -0.002418
v -0.009666 0.020000 -0.002750
v -0.010000 0.000283 0.000000
v -0.009989 0.000283 -0.000488
v -0.010025 0.000389 -0.000490
v -0.009983 0.000389 -0.001040
v -0.009096 0.000188 0.004010
v -0.008683 0.000283 0.004961
v -0.008123 0.000283 0.005834
v -0.009834 0.000188 -0.001452
v -0.000794 -0.011100 -0.000096
v -0.008081 0.000389 -0.005954
v -0.009083 0.000389 -0.004272
v -0.006706 0.000188 0.007339
v -0.006667 0.000345 0.007469
v -0.008074 0.000188 0.005799
v -0.000658 -0.011100 0.000454
v -0.007471 0.000500 0.006722
v -0.008634 0.000500 0.005144
v -0.007877 0.023747 -0.005938
v 0.006521 0.023743 -0.007361
v 0.009942 0.000500 -0.001468
v 0.009937 0.003500 -0.001500
v 0.009942 0.003275 -0.001474
v 0.009936 0.017500 -0.001510
v 0.009555 0.000389 -0.003075
v 0.009740 0.000389 -0.002427
v 0.000191 -0.011100 -0.000777
v 0.009727 0.000188 0.002049
v 0.010025 0.000389 0.000490
v 0.010049 0.002500 0.000167
v 0.010039 0.017605 0.000000
v 0.010049 0.002500 -0.000167
v 0.009422 0.000283 -0.003353
v 0.009519 0.000283 -0.003064
v 0.009646 0.000188 -0.002404
v 0.009786 0.000283 -0.002061
v 0.000794 -0.011100 -0.000096
v 0.000658 -0.011100 -0.000454
v 0.009519 0.000283 0.003064
v 0.009937 0.003500 0.001500
v 0.010038 0.002500 0.000500
v 0.010037 0.003500 0.000502
v 0.009986 0.002724 0.001130
v 0.009967 0.002885 0.001288
v -0.010038 0.002500 -0.000500
v -0.009987 0.002715 0.001119
v -0.009969 0.002872 0.001278
v -0.009953 0.003062 0.001398
v -0.009732 0.019803 -0.002506
v -0.009728 0.019853 -0.002524
v -0.009519 0.000283 -0.003064
v -0.009677 0.019997 -0.002713
v -0.009687 0.019988 -0.002678
v -0.009721 0.019898 -0.002552
v -0.009711 0.019936 -0.002588
v -0.009700 0.019967 -0.002631
v -0.010037 0.000389 0.000000
v -0.009947 0.000283 -0.001036
v -0.009887 0.000188 -0.001030
v -0.008051 0.000283 -0.005932
v -0.006746 0.000283 0.007383
v -0.007502 0.000389 0.006668
v 0.006594 0.023743 -0.007333
v 0.006442 0.023743 -0.007371
v 0.002993 0.026090 -0.003935
v 0.009893 0.000283 -0.001460
v 0.010038 0.000500 -0.000491
v 0.009822 0.000389 -0.002069
v 0.010007 0.002597 -0.000928
v 0.009734 0.019750 -0.002500
v 0.009893 0.000283 0.001460
v 0.010000 0.000283 0.000000
v 0.009704 0.000283 -0.002418
v 0.009463 0.000188 -0.003046
v 0.010023 0.002526 0.000726
v 0.009952 0.003078 0.001406
v -0.009893 0.000283 -0.001460
v -0.007475 0.000283 0.006644
v 0.006641 0.023676 -0.007420
v 0.010037 0.000389 0.000000
v 0.009930 0.000389 -0.001466
v 0.010024 0.002525 -0.000720
v 0.010037 0.003500 -0.000502
v 0.009822 0.000389 0.002069
v 0.009989 0.000283 0.000488
v 0.009989 0.000283 -0.000488
v 0.009941 0.003284 0.001476
v 0.006545 0.023676 -0.007457
v 0.009953 0.003062 -0.001398
v 0.009969 0.002872 -0.001278
v 0.009987 0.002715 -0.001119
v 0.010038 0.002500 -0.000500
v 0.009734 0.017500 -0.002500
v 0.009721 0.019896 -0.002551
v 0.009683 0.019993 -0.002693
v 0.009697 0.019971 -0.002639
v 0.009786 0.000283 0.002061
v 0.009983 0.000389 -0.001040
v 0.009729 0.019846 -0.002521
v 0.009710 0.019939 -0.002591
v 0.009704 0.000283 0.002418
v 0.010025 0.000389 -0.000490
v 0.009947 0.000283 -0.001036
v 0.009733 0.019799 -0.002505
f 1 2 3
f 4 3 2
f 4 2 5
f 6 2 1
f 6 1 3
f 7 4 5
f 8 9 10
f 11 10 9
f 12 13 6
f 12 6 3
f 12 3 4
f 14 2 6
f 15 16 17
f 18 8 10
f 19 11 9
f 20 10 11
f 21 22 23
f 24 25 26
f 27 28 26
f 29 28 30
f 31 32 33
f 34 2 14
f 34 14 35
f 34 36 2
f 37 38 39
f 40 38 37
f 40 41 42
f 43 39 38
f 43 38 40
f 43 40 42
f 43 42 44
f 43 44 45
f 46 47 48
f 49 14 6
f 49 6 13
f 49 13 15
f 50 35 14
f 50 14 49
f 50 49 15
f 50 15 17
f 51 39 43
f 51 43 45
f 52 32 53
f 52 33 32
f 54 52 53
f 55 56 57
f 55 57 58
f 59 60 61
f 62 16 15
f 62 15 13
f 63 18 10
f 64 65 19
f 64 19 9
f 66 67 68
f 69 70 71
f 69 72 70
f 73 19 65
f 73 65 70
f 73 70 72
f 73 74 19
f 75 11 19
f 75 19 74
f 75 23 11
f 76 77 78
f 76 78 26
f 79 9 8
f 80 27 26
f 80 26 78
f 81 82 28
f 81 28 29
f 83 8 18
f 84 85 86
f 84 86 87
f 88 86 85
f 88 85 44
f 89 88 44
f 89 44 42
f 89 42 41
f 90 20 11
f 91 92 10
f 91 10 20
f 93 11 23
f 94 54 53
f 94 53 32
f 95 96 97
f 95 97 98
f 99 100 37
f 99 37 39
f 101 41 40
f 101 40 37
f 101 26 28
f 102 17 16
f 103 47 46
f 103 102 16
f 104 2 36
f 105 106 107
f 108 109 110
f 111 110 109
f 111 109 4
f 111 4 7
f 112 39 51
f 112 51 7
f 112 7 5
f 112 99 39
f 113 52 114
f 113 114 58
f 115 116 117
f 118 52 54
f 118 114 52
f 119 114 118
f 119 118 54
f 120 60 59
f 120 59 61
f 121 48 47
f 122 61 123
f 124 125 126
f 124 126 127
f 128 62 13
f 129 16 62
f 129 62 128
f 129 128 130
f 131 18 63
f 132 63 10
f 133 71 70
f 134 67 66
f 135 136 22
f 135 22 21
f 137 68 138
f 137 139 140
f 141 142 143
f 141 143 100
f 144 71 145
f 144 146 69
f 144 69 71
f 147 69 146
f 148 74 73
f 148 73 72
f 148 72 69
f 149 21 23
f 149 23 75
f 149 75 74
f 149 74 148
f 149 148 21
f 150 151 25
f 150 25 24
f 152 153 76
f 152 76 26
f 152 26 25
f 152 25 151
f 152 151 153
f 154 9 79
f 155 79 8
f 156 157 154
f 156 154 79
f 156 79 150
f 156 150 24
f 158 28 27
f 158 159 30
f 160 161 162
f 160 162 163
f 160 163 164
f 160 85 161
f 165 45 44
f 165 44 85
f 165 85 160
f 166 83 18
f 166 18 87
f 167 83 166
f 168 57 56
f 168 56 122
f 169 96 95
f 169 31 33
f 170 96 169
f 170 169 171
f 172 161 85
f 172 85 84
f 172 84 87
f 172 162 161
f 173 97 174
f 173 174 92
f 175 22 136
f 175 136 176
f 175 93 23
f 175 23 22
f 177 139 178
f 177 178 140
f 177 140 139
f 179 180 181
f 182 183 178
f 182 178 139
f 184 181 180
f 185 186 187
f 185 187 41
f 185 41 101
f 185 101 28
f 185 28 188
f 185 188 186
f 189 46 48
f 190 191 107
f 190 107 106
f 192 102 103
f 192 103 46
f 192 46 102
f 193 47 103
f 194 36 34
f 194 34 35
f 195 196 2
f 195 2 104
f 197 196 195
f 198 105 107
f 199 108 110
f 199 110 200
f 201 202 203
f 201 203 204
f 205 51 206
f 205 207 51
f 208 111 7
f 209 99 112
f 209 112 5
f 209 100 99
f 210 211 212
f 210 212 213
f 210 213 214
f 215 113 58
f 215 58 57
f 216 217 115
f 216 115 117
f 216 119 54
f 218 116 115
f 218 115 217
f 218 217 219
f 220 221 222
f 220 222 117
f 220 117 116
f 223 224 225
f 226 127 126
f 226 221 227
f 228 55 58
f 228 58 229
f 228 122 56
f 228 56 55
f 230 122 228
f 230 228 229
f 230 229 126
f 230 126 125
f 231 125 124
f 231 124 232
f 233 12 4
f 233 4 234
f 233 128 13
f 233 13 12
f 235 236 4
f 235 4 109
f 237 193 103
f 237 103 16
f 237 16 129
f 237 129 130
f 237 130 238
f 239 240 131
f 239 131 63
f 239 63 132
f 241 26 242
f 243 9 154
f 243 154 157
f 243 157 241
f 243 241 242
f 243 244 9
f 245 244 243
f 245 243 242
f 245 145 71
f 245 71 133
f 245 133 244
f 246 145 245
f 246 245 242
f 246 242 26
f 246 26 101
f 246 101 37
f 247 65 64
f 247 64 9
f 247 9 244
f 247 244 133
f 247 133 70
f 247 70 65
f 248 138 67
f 248 67 249
f 250 67 138
f 250 138 68
f 250 68 67
f 251 135 21
f 252 140 178
f 252 178 179
f 252 179 181
f 253 140 252
f 253 176 136
f 254 139 137
f 254 137 138
f 254 138 139
f 255 209 5
f 255 5 2
f 256 146 144
f 256 143 142
f 257 143 256
f 257 256 144
f 257 144 145
f 257 100 143
f 258 159 158
f 258 158 27
f 258 27 80
f 258 80 78
f 259 29 30
f 259 155 8
f 259 81 29
f 260 79 155
f 260 155 77
f 261 26 241
f 261 241 157
f 261 157 156
f 261 156 24
f 261 24 26
f 262 8 83
f 262 187 186
f 262 186 8
f 263 188 28
f 263 28 82
f 264 8 186
f 264 186 188
f 264 188 263
f 264 263 82
f 264 82 8
f 265 28 158
f 265 158 30
f 265 30 28
f 266 163 162
f 267 86 88
f 267 88 167
f 267 167 166
f 267 166 87
f 267 87 86
f 268 269 270
f 268 270 271
f 272 164 225
f 272 269 273
f 272 273 274
f 272 274 206
f 272 206 51
f 275 57 168
f 276 123 61
f 276 61 60
f 276 60 266
f 276 266 277
f 276 277 168
f 276 168 122
f 276 122 123
f 278 87 18
f 278 18 279
f 278 172 87
f 280 90 11
f 280 11 93
f 281 282 219
f 283 183 182
f 283 284 281
f 285 94 184
f 285 54 94
f 286 285 184
f 286 184 180
f 287 282 281
f 287 281 284
f 288 46 189
f 289 290 35
f 289 35 50
f 289 50 17
f 289 17 102
f 291 104 36
f 291 36 194
f 292 191 190
f 292 290 191
f 293 47 193
f 293 193 237
f 293 237 238
f 294 290 292
f 294 292 190
f 294 291 194
f 294 194 35
f 294 35 290
f 295 106 105
f 296 255 2
f 297 296 2
f 298 296 297
f 298 297 299
f 300 199 200
f 301 199 300
f 301 300 204
f 301 204 203
f 301 203 108
f 301 108 199
f 302 108 203
f 302 203 202
f 302 202 303
f 304 271 305
f 304 274 273
f 306 271 307
f 308 206 274
f 308 274 305
f 309 51 208
f 309 208 7
f 309 7 51
f 310 111 208
f 310 208 110
f 310 110 111
f 311 110 208
f 311 208 51
f 311 51 207
f 311 312 110
f 313 207 205
f 313 205 314
f 313 314 214
f 315 314 205
f 316 33 52
f 316 52 113
f 316 113 317
f 316 171 169
f 316 169 33
f 318 171 316
f 318 316 317
f 318 317 275
f 318 275 319
f 320 57 275
f 320 275 317
f 320 317 113
f 320 113 215
f 320 215 57
f 321 119 216
f 321 216 117
f 321 117 222
f 321 222 114
f 321 114 119
f 322 48 116
f 322 116 218
f 322 218 219
f 322 219 282
f 323 114 222
f 323 222 221
f 323 221 226
f 323 226 126
f 323 126 229
f 323 229 58
f 323 58 114
f 324 127 226
f 324 226 227
f 324 232 124
f 324 124 127
f 325 220 116
f 325 116 48
f 325 227 221
f 325 221 220
f 326 223 225
f 326 327 120
f 328 224 223
f 329 270 269
f 329 225 224
f 329 307 271
f 329 271 270
f 330 60 120
f 330 120 327
f 330 327 326
f 330 326 164
f 330 164 163
f 330 163 266
f 330 266 60
f 331 202 201
f 331 201 204
f 331 204 332
f 333 334 335
f 333 336 232
f 333 232 121
f 337 331 332
f 337 121 47
f 338 339 332
f 338 332 204
f 338 204 300
f 340 332 339
f 341 47 293
f 341 293 238
f 342 108 302
f 342 302 303
f 342 303 235
f 342 235 109
f 342 109 108
f 343 236 235
f 343 4 236
f 344 319 345
f 346 174 239
f 346 239 132
f 346 132 10
f 346 10 92
f 346 92 174
f 347 348 349
f 347 248 249
f 350 66 68
f 350 135 251
f 350 147 66
f 351 147 350
f 351 350 251
f 351 251 21
f 351 21 148
f 351 148 69
f 351 69 147
f 352 137 140
f 352 140 253
f 352 253 136
f 353 100 209
f 353 209 255
f 353 255 141
f 353 141 100
f 354 246 37
f 354 37 100
f 354 100 257
f 354 257 145
f 354 145 246
f 355 155 258
f 355 77 155
f 356 159 258
f 356 258 155
f 356 155 259
f 356 259 30
f 356 30 159
f 357 81 259
f 357 259 8
f 357 8 82
f 357 82 81
f 358 153 260
f 358 260 77
f 358 77 76
f 358 76 153
f 359 151 150
f 359 150 79
f 359 79 260
f 359 260 153
f 359 153 151
f 360 89 41
f 360 41 187
f 360 187 262
f 360 262 83
f 360 83 167
f 360 167 88
f 360 88 89
f 361 266 162
f 362 363 269
f 362 269 268
f 362 268 271
f 362 271 363
f 364 164 272
f 364 272 51
f 364 51 45
f 364 45 165
f 364 165 160
f 364 160 164
f 365 275 168
f 365 168 277
f 365 345 319
f 365 319 275
f 366 170 171
f 366 174 97
f 366 97 96
f 366 96 170
f 367 92 91
f 367 91 20
f 367 20 90
f 367 90 280
f 367 173 92
f 368 176 253
f 368 175 176
f 369 175 368
f 369 367 280
f 369 280 93
f 369 93 175
f 370 283 182
f 370 182 371
f 372 373 287
f 372 287 284
f 372 284 283
f 372 283 370
f 374 139 138
f 374 138 248
f 374 248 347
f 374 347 371
f 374 371 182
f 374 182 139
f 375 373 372
f 375 372 370
f 375 370 371
f 375 371 347
f 375 347 349
f 375 349 373
f 376 183 286
f 376 286 180
f 376 180 179
f 376 179 178
f 376 178 183
f 377 286 183
f 377 183 283
f 377 283 281
f 377 281 219
f 377 219 217
f 378 54 285
f 378 285 286
f 378 286 377
f 378 377 217
f 378 217 216
f 378 216 54
f 379 348 347
f 379 347 249
f 380 249 67
f 380 67 134
f 380 134 66
f 380 381 382
f 383 189 48
f 383 287 373
f 384 191 46
f 384 46 288
f 384 288 107
f 384 107 191
f 385 107 288
f 385 288 189
f 386 198 107
f 386 107 385
f 387 373 349
f 387 349 348
f 388 191 290
f 388 290 289
f 388 289 102
f 388 102 46
f 388 46 191
f 389 195 104
f 389 104 291
f 389 197 195
f 390 106 295
f 390 295 197
f 390 197 389
f 391 291 294
f 391 294 190
f 391 190 106
f 391 106 390
f 391 390 389
f 391 389 291
f 392 255 296
f 392 142 141
f 392 141 255
f 393 394 197
f 393 197 295
f 393 295 105
f 393 105 198
f 395 198 386
f 395 396 393
f 395 393 198
f 397 297 2
f 397 2 196
f 397 196 197
f 397 197 394
f 398 396 299
f 398 299 297
f 398 297 397
f 398 397 394
f 398 394 393
f 398 393 396
f 399 298 299
f 400 392 296
f 401 142 402
f 403 404 405
f 406 269 363
f 406 363 271
f 406 271 304
f 406 304 273
f 406 273 269
f 407 274 304
f 407 304 305
f 408 334 409
f 410 205 206
f 410 206 308
f 410 214 205
f 411 212 340
f 411 340 339
f 411 339 338
f 411 338 300
f 411 300 200
f 411 200 412
f 411 412 213
f 411 213 212
f 413 412 200
f 413 200 110
f 413 110 312
f 413 313 214
f 413 214 213
f 413 213 412
f 414 314 315
f 414 315 205
f 414 205 214
f 414 214 314
f 415 48 121
f 415 232 324
f 416 164 326
f 416 326 225
f 416 225 164
f 417 336 333
f 417 333 335
f 418 329 269
f 418 269 272
f 419 307 329
f 419 329 224
f 419 408 307
f 420 332 421
f 420 421 422
f 420 409 334
f 420 334 333
f 420 333 121
f 423 121 337
f 423 337 332
f 423 332 420
f 424 421 332
f 424 332 340
f 424 340 212
f 424 212 211
f 425 232 336
f 425 426 231
f 425 231 232
f 427 326 120
f 427 120 61
f 428 427 426
f 428 426 425
f 428 425 336
f 428 336 417
f 428 417 328
f 428 328 223
f 429 341 238
f 429 238 130
f 430 431 331
f 430 331 337
f 430 47 341
f 430 341 432
f 433 434 234
f 433 234 4
f 435 436 4
f 437 239 174
f 437 174 366
f 437 366 171
f 437 171 318
f 437 318 319
f 437 319 344
f 437 344 240
f 437 240 239
f 438 240 439
f 438 439 279
f 438 279 18
f 438 18 131
f 438 131 240
f 440 344 345
f 440 439 240
f 440 240 344
f 441 135 350
f 441 350 68
f 441 68 137
f 441 137 352
f 441 352 136
f 441 136 135
f 442 77 355
f 442 355 258
f 442 258 78
f 442 78 77
f 443 279 439
f 443 439 440
f 443 440 361
f 443 361 162
f 443 162 172
f 443 172 278
f 443 278 279
f 444 369 368
f 445 181 184
f 445 444 368
f 446 252 181
f 446 181 445
f 446 445 368
f 446 368 253
f 446 253 252
f 447 146 256
f 447 256 142
f 447 448 449
f 447 381 380
f 447 380 66
f 447 66 147
f 447 147 146
f 450 379 249
f 450 249 380
f 451 322 282
f 451 282 287
f 451 287 383
f 451 383 48
f 452 453 454
f 452 454 455
f 452 455 456
f 452 456 457
f 452 458 386
f 452 386 385
f 452 385 189
f 452 189 453
f 459 453 460
f 459 454 453
f 461 460 453
f 461 453 462
f 463 387 348
f 463 348 379
f 464 189 383
f 464 373 387
f 464 387 453
f 465 395 386
f 465 386 458
f 466 392 400
f 466 400 142
f 466 142 392
f 467 298 400
f 467 400 296
f 467 296 298
f 468 402 142
f 468 142 400
f 468 400 298
f 469 405 404
f 469 401 402
f 470 403 405
f 471 456 455
f 472 274 407
f 473 413 312
f 473 312 311
f 474 232 415
f 474 415 121
f 474 121 232
f 475 325 48
f 475 48 415
f 476 227 325
f 476 325 475
f 476 475 415
f 476 415 324
f 476 324 227
f 477 329 418
f 478 334 408
f 478 408 419
f 478 419 224
f 479 225 329
f 479 272 225
f 480 421 424
f 480 424 211
f 480 211 210
f 480 422 421
f 481 422 480
f 481 480 482
f 483 271 306
f 483 482 305
f 483 305 271
f 484 331 431
f 484 303 202
f 484 202 331
f 485 343 235
f 485 235 303
f 485 303 484
f 485 484 431
f 485 486 435
f 485 435 343
f 487 409 420
f 488 121 423
f 488 423 420
f 488 420 121
f 489 427 61
f 489 61 122
f 489 122 230
f 489 230 125
f 490 427 428
f 490 428 223
f 490 223 326
f 490 326 427
f 491 432 341
f 491 341 429
f 492 128 233
f 492 233 234
f 492 234 434
f 492 429 130
f 492 130 128
f 493 431 430
f 493 430 432
f 493 486 485
f 493 485 431
f 494 47 430
f 494 430 337
f 494 337 47
f 495 434 433
f 495 433 4
f 496 343 435
f 496 435 4
f 496 4 343
f 497 277 266
f 497 266 361
f 497 361 440
f 497 440 345
f 497 345 365
f 497 365 277
f 498 98 97
f 499 382 500
f 499 500 501
f 502 500 382
f 502 447 449
f 502 501 500
f 503 382 504
f 503 450 380
f 503 380 382
f 505 322 451
f 505 451 48
f 505 48 322
f 506 458 452
f 506 452 457
f 507 404 403
f 507 403 471
f 508 401 404
f 509 401 508
f 509 508 510
f 509 510 448
f 509 448 447
f 509 447 142
f 509 142 401
f 511 512 463
f 511 463 379
f 511 379 450
f 511 450 503
f 511 503 512
f 513 462 453
f 513 453 387
f 513 514 462
f 515 189 464
f 515 464 453
f 515 453 189
f 516 373 464
f 516 464 383
f 516 383 373
f 517 299 396
f 517 396 395
f 517 395 465
f 517 465 458
f 518 468 298
f 518 298 405
f 519 401 520
f 519 404 401
f 521 468 522
f 521 522 405
f 521 405 469
f 521 469 402
f 521 402 468
f 523 305 274
f 523 274 472
f 523 472 407
f 523 407 305
f 524 413 525
f 524 525 311
f 524 311 207
f 524 207 313
f 524 313 413
f 526 525 413
f 526 413 473
f 526 473 311
f 526 311 525
f 527 528 477
f 527 477 418
f 527 418 272
f 527 272 528
f 529 328 417
f 529 417 335
f 529 335 334
f 529 334 478
f 529 478 224
f 529 224 328
f 530 531 272
f 530 272 479
f 530 479 329
f 530 329 531
f 532 272 533
f 532 533 329
f 532 329 477
f 532 477 528
f 532 528 272
f 534 531 329
f 534 329 533
f 534 533 272
f 534 272 531
f 535 482 480
f 535 480 210
f 535 210 214
f 535 214 410
f 535 410 308
f 535 308 305
f 535 305 482
f 536 481 482
f 536 482 483
f 536 422 481
f 537 422 536
f 537 487 420
f 537 420 422
f 538 427 489
f 538 489 125
f 538 125 231
f 538 231 426
f 538 426 427
f 539 429 492
f 539 492 434
f 539 432 491
f 539 491 429
f 540 435 486
f 540 539 434
f 540 434 495
f 540 495 4
f 540 4 436
f 540 436 435
f 541 444 445
f 542 98 498
f 542 31 169
f 542 169 95
f 542 95 98
f 543 97 173
f 543 173 367
f 543 367 369
f 543 369 444
f 543 444 541
f 543 541 498
f 543 498 97
f 544 460 461
f 544 461 462
f 544 462 514
f 545 448 510
f 546 504 382
f 546 382 499
f 546 544 514
f 546 514 504
f 547 449 448
f 547 545 499
f 548 447 502
f 548 502 382
f 549 506 457
f 549 457 456
f 549 456 471
f 549 471 403
f 549 403 470
f 550 455 454
f 550 454 459
f 551 514 513
f 551 513 512
f 551 512 503
f 551 503 504
f 551 504 514
f 552 463 512
f 552 512 513
f 552 513 387
f 552 387 463
f 553 469 404
f 553 404 519
f 553 519 520
f 553 520 401
f 553 401 469
f 554 405 522
f 554 522 468
f 555 306 307
f 555 307 408
f 555 408 409
f 555 409 487
f 555 487 537
f 555 537 536
f 555 536 483
f 555 483 306
f 556 432 539
f 556 539 540
f 556 540 486
f 556 486 493
f 556 493 432
f 557 184 94
f 557 541 445
f 557 445 184
f 558 404 507
f 558 507 550
f 558 545 510
f 558 510 508
f 558 508 404
f 559 544 546
f 559 546 499
f 560 545 547
f 560 547 448
f 560 448 561
f 562 549 470
f 562 470 405
f 562 405 298
f 562 298 399
f 563 471 455
f 563 455 550
f 563 550 507
f 563 507 471
f 564 550 459
f 565 518 405
f 565 405 554
f 565 554 468
f 565 468 518
f 566 31 542
f 566 542 498
f 566 498 541
f 566 541 557
f 566 557 94
f 566 94 32
f 566 32 31
f 567 502 568
f 567 568 499
f 567 499 501
f 567 501 502
f 569 547 499
f 569 499 568
f 569 568 502
f 569 502 449
f 569 449 547
f 570 545 560
f 570 560 561
f 570 561 448
f 570 448 545
f 571 548 382
f 572 571 382
f 573 447 574
f 573 574 382
f 573 382 381
f 573 381 447
f 575 458 506
f 575 506 549
f 575 549 562
f 575 562 399
f 576 559 499
f 576 499 545
f 576 544 559
f 577 571 572
f 577 572 447
f 578 574 447
f 578 447 572
f 578 572 382
f 578 382 574
f 579 517 458
f 579 458 575
f 579 575 399
f 579 399 299
f 579 299 517
f 580 576 545
f 580 545 558
f 580 558 550
f 580 550 564
f 581 544 576
f 581 576 580
f 581 580 564
f 581 564 459
f 581 459 460
f 581 460 544
f 582 548 571
f 582 571 577
f 582 577 447
f 582 447 548
