# Convex hull collision mesh — generated by scripts/generate-collision-meshes.mjs (units: meters)
v 0.022700 0.000000 -0.001600
v 0.022700 0.000000 0.000000
v 0.000000 0.000000 -0.001500
v 0.022700 0.012750 -0.001600
v 0.022700 0.012750 0.000100
v 0.000000 0.012750 -0.001500
v 0.000500 0.002325 -0.001600
v -0.001590 0.006690 0.000042
v -0.001590 0.002764 0.003183
v -0.001590 0.009601 0.003282
v 0.017128 0.000762 0.002129
v 0.017128 0.005662 0.002129
v 0.000000 0.000000 0.000000
v 0.005810 0.009885 0.003251
v 0.000000 0.012750 0.000000
v -0.001590 0.003261 0.003282
v 0.000642 0.011350 -0.001600
v 0.000750 0.001375 -0.001600
v -0.001590 0.002539 0.000261
v -0.001590 0.010520 0.000422
v 0.022700 0.000000 0.000100
v 0.011528 0.000762 0.002129
v 0.005810 0.002740 0.003173
v 0.005810 0.009636 0.003282
v 0.004560 0.003261 0.003282
v -0.001590 0.003008 0.003257
v 0.000500 0.011125 -0.001600
v 0.021200 0.012750 -0.001600
v 0.021200 0.000000 -0.001600
v 0.000506 0.001569 -0.001600
v -0.001590 0.003261 0.000042
v -0.001590 0.001961 0.001342
v -0.001590 0.010802 0.002480
v -0.001590 0.009855 0.000067
v 0.021200 0.000000 0.000100
v 0.005810 0.002978 0.003251
v 0.005810 0.003226 0.003282
v 0.005810 0.007531 0.003282
v 0.005960 0.011031 0.002682
v 0.005160 0.011031 0.002682
v 0.021200 0.012750 0.000100
v 0.004560 0.003226 0.003282
v 0.004560 0.003238 0.003282
v 0.000525 0.011233 -0.001600
v 0.000750 0.011375 -0.001600
v 0.000500 0.001625 -0.001600
v 0.000594 0.001430 -0.001600
v -0.001590 0.002764 0.000141
v -0.001590 0.002060 0.002480
v -0.001590 0.002060 0.000844
v -0.001590 0.010901 0.001342
v -0.001590 0.010323 0.003063
v -0.001590 0.009601 0.000042
v -0.001590 0.010323 0.000261
v 0.005810 0.005331 0.003282
v 0.004560 0.009601 0.003282
v 0.004560 0.003250 0.003282
v 0.000555 0.011281 -0.001600
v 0.000506 0.011181 -0.001600
v 0.000694 0.011369 -0.001600
v 0.000555 0.001469 -0.001600
v 0.000642 0.001400 -0.001600
v -0.001590 0.003008 0.000067
v -0.001590 0.002539 0.003063
v -0.001590 0.001961 0.001982
v -0.001590 0.002180 0.002705
v -0.001590 0.001986 0.001088
v -0.001590 0.002342 0.000422
v -0.001590 0.010901 0.001982
v -0.001590 0.010802 0.000844
v -0.001590 0.009855 0.003257
v 0.004560 0.009636 0.003282
v -0.001590 0.010682 0.002705
v 0.005810 0.010123 0.003173
v -0.001590 0.010099 0.000141
v 0.004560 0.009624 0.003282
v 0.000594 0.011320 -0.001600
v 0.000525 0.001517 -0.001600
v 0.000694 0.001381 -0.001600
v -0.001590 0.001986 0.002236
v -0.001590 0.002342 0.002902
v -0.001590 0.002180 0.000619
v -0.001590 0.010876 0.002236
v -0.001590 0.010682 0.000619
v -0.001590 0.010876 0.001088
v -0.001590 0.010520 0.002902
v -0.001590 0.010099 0.003183
v 0.004560 0.009613 0.003282
f 1 2 3
f 1 4 2
f 5 2 4
f 5 4 6
f 7 3 6
f 7 4 1
f 8 9 10
f 8 6 3
f 11 5 12
f 13 3 2
f 14 12 5
f 15 5 6
f 16 10 9
f 17 4 7
f 18 7 1
f 19 9 8
f 20 8 10
f 21 2 5
f 21 5 11
f 21 11 22
f 21 13 2
f 23 9 22
f 23 22 11
f 24 12 14
f 25 10 16
f 26 16 9
f 27 17 7
f 27 7 6
f 28 4 17
f 28 6 4
f 29 3 18
f 29 18 1
f 29 1 3
f 30 7 18
f 31 19 8
f 31 8 3
f 32 9 19
f 32 3 13
f 33 20 10
f 34 8 20
f 35 13 21
f 35 21 22
f 35 22 13
f 36 37 26
f 36 26 9
f 36 9 23
f 36 23 11
f 36 11 37
f 38 12 24
f 38 10 25
f 38 11 12
f 39 5 40
f 41 15 40
f 41 40 5
f 41 5 15
f 42 16 26
f 42 26 37
f 42 37 43
f 42 43 16
f 44 17 27
f 45 6 28
f 45 28 17
f 46 7 30
f 46 30 3
f 46 3 7
f 47 30 18
f 48 19 31
f 48 3 19
f 49 9 32
f 50 32 19
f 51 20 33
f 51 15 6
f 52 33 10
f 53 8 34
f 53 34 6
f 53 6 8
f 54 34 20
f 54 20 6
f 55 37 11
f 55 11 38
f 55 38 25
f 55 25 37
f 56 10 38
f 56 38 24
f 57 25 16
f 57 16 43
f 57 43 37
f 57 37 25
f 58 17 44
f 58 44 6
f 59 6 44
f 59 44 27
f 59 27 6
f 60 6 45
f 60 45 17
f 60 17 6
f 61 30 47
f 61 47 3
f 62 3 47
f 62 47 18
f 63 3 48
f 63 48 31
f 63 31 3
f 64 9 49
f 64 22 9
f 65 49 32
f 65 32 13
f 66 64 49
f 66 49 13
f 66 13 22
f 67 32 50
f 67 50 3
f 67 3 32
f 68 50 19
f 68 19 3
f 69 15 51
f 69 51 33
f 70 20 51
f 71 52 10
f 71 10 72
f 71 72 24
f 71 24 14
f 73 33 52
f 73 40 15
f 73 15 33
f 74 39 40
f 74 40 52
f 74 14 5
f 74 5 39
f 75 34 54
f 75 54 6
f 75 6 34
f 76 24 72
f 76 72 10
f 77 17 58
f 77 58 6
f 77 6 17
f 78 30 61
f 78 61 3
f 78 3 30
f 79 3 62
f 79 62 18
f 79 18 3
f 80 49 65
f 80 65 13
f 80 13 49
f 81 64 66
f 81 66 22
f 81 22 64
f 82 50 68
f 82 68 3
f 82 3 50
f 83 15 69
f 83 69 33
f 83 33 15
f 84 20 70
f 84 70 6
f 84 6 20
f 85 6 70
f 85 70 51
f 85 51 6
f 86 40 73
f 86 73 52
f 86 52 40
f 87 71 14
f 87 14 74
f 87 74 52
f 87 52 71
f 88 56 24
f 88 24 76
f 88 76 10
f 88 10 56
