# Convex hull collision mesh — generated by scripts/generate-collision-meshes.mjs (units: meters)
v -0.017018 0.017357 -0.001200
v 0.018000 0.015250 -0.001200
v -0.018000 -0.015250 -0.001200
v 0.017024 -0.017361 -0.001200
v -0.005500 -0.008350 0.002900
v 0.013892 -0.001383 0.002900
v -0.005687 -0.001215 0.002900
v 0.018000 -0.015267 -0.001200
v -0.015250 -0.018000 -0.001200
v -0.018000 -0.015250 0.000000
v -0.018000 0.015250 0.000000
v -0.018000 0.015250 -0.001200
v -0.015250 0.018000 -0.001200
v -0.005800 -0.008050 0.002900
v 0.017634 -0.016633 -0.001200
v 0.017500 0.005750 0.000700
v 0.017400 0.005750 0.000800
v 0.017400 -0.010050 0.000800
v -0.015250 -0.018000 0.000000
v -0.015728 -0.017958 0.000000
v 0.015267 -0.018000 0.000000
v -0.007900 -0.010072 0.002597
v -0.010900 -0.010072 0.002597
v 0.015267 -0.018000 -0.001200
v -0.017357 -0.017018 -0.001200
v -0.010931 -0.006455 0.002595
v -0.017834 0.016191 -0.001200
v 0.007600 -0.001150 0.002900
v 0.001600 0.007450 0.002400
v -0.001900 0.007450 0.002400
v -0.016191 0.017834 -0.001200
v 0.017958 0.015728 -0.001200
v -0.005735 -0.008237 0.002900
v -0.005800 -0.001450 0.002900
v -0.010900 -0.006450 0.002600
v 0.017361 -0.017024 -0.001200
v 0.017024 -0.017361 0.000000
v -0.010905 -0.010081 0.002595
v 0.015741 -0.017958 0.000000
v 0.013730 -0.008320 0.002900
v 0.016201 -0.017835 -0.001200
v 0.016201 -0.017835 0.000000
v -0.017834 -0.016191 -0.001200
v -0.016191 -0.017834 -0.001200
v -0.010931 -0.010055 0.002595
v -0.010922 -0.000550 0.002597
v -0.010931 -0.000545 0.002595
v -0.017357 0.017018 -0.001200
v -0.017958 0.015728 -0.001200
v -0.010900 -0.000550 0.002600
v -0.005500 -0.001150 0.002900
v 0.018000 -0.015267 0.000000
v 0.017958 -0.015741 0.000000
v 0.017835 -0.016201 -0.001200
v 0.015250 0.018000 -0.001200
v 0.013730 -0.001180 0.002900
v 0.018000 0.015250 0.000000
v -0.010900 -0.010050 0.002600
v -0.007895 -0.010081 0.002595
v 0.013600 -0.008350 0.002900
v 0.017634 -0.016633 0.000000
v 0.013900 -0.001450 0.002900
v 0.016633 -0.017634 0.000000
v 0.015741 -0.017958 -0.001200
v -0.017632 -0.016625 -0.001200
v -0.017834 -0.016191 0.000000
v -0.017357 -0.017018 0.000000
v -0.017958 -0.015728 -0.001200
v -0.015728 -0.017958 -0.001200
v -0.010928 -0.010064 0.002595
v -0.017632 0.016625 -0.001200
v -0.005630 -0.001180 0.002900
v -0.005770 -0.001320 0.002900
v -0.015250 0.018000 0.000000
v -0.015728 0.017958 0.000000
v -0.015728 0.017958 -0.001200
v 0.017500 -0.010050 0.000700
v 0.017958 -0.015741 -0.001200
v 0.017018 0.017357 -0.001200
v 0.013600 -0.001150 0.002900
v 0.013835 -0.001263 0.002900
v -0.005770 -0.008180 0.002900
v -0.005567 -0.008342 0.002900
v -0.010922 -0.010050 0.002597
v 0.013667 -0.008342 0.002900
v 0.005200 -0.010072 0.002597
v 0.013870 -0.008180 0.002900
v 0.016633 -0.017634 -0.001200
v -0.017632 -0.016625 0.000000
v -0.017958 -0.015728 0.000000
v -0.016191 -0.017834 0.000000
v -0.016625 -0.017632 0.000000
v -0.017018 -0.017357 -0.001200
v -0.010922 -0.010072 0.002595
v -0.005567 -0.001158 0.002900
v -0.005792 -0.001383 0.002900
v -0.005735 -0.001263 0.002900
v -0.016625 0.017632 -0.001200
v -0.016625 0.017632 0.000000
v -0.016191 0.017834 0.000000
v -0.017357 0.017018 0.000000
v -0.010900 -0.000528 0.002597
v 0.015250 0.018000 0.000000
v 0.015728 0.017958 0.000000
v 0.016191 0.017834 -0.001200
v 0.017632 0.016625 -0.001200
v 0.013667 -0.001158 0.002900
v 0.017632 0.016625 0.000000
v 0.017834 0.016191 0.000000
v 0.017357 0.017018 0.000000
v 0.017958 0.015728 0.000000
v -0.005792 -0.008117 0.002900
v -0.005687 -0.008285 0.002900
v 0.005205 -0.010081 0.002595
v 0.013835 -0.008237 0.002900
v 0.013892 -0.008117 0.002900
v 0.017835 -0.016201 0.000000
v -0.017018 -0.017357 0.000000
v -0.016625 -0.017632 -0.001200
v -0.010914 -0.010078 0.002595
v -0.017958 0.015728 0.000000
v -0.017834 0.016191 0.000000
v -0.017018 0.017357 0.000000
v 0.015728 0.017958 -0.001200
v 0.017834 0.016191 -0.001200
v 0.017357 0.017018 -0.001200
v 0.017018 0.017357 0.000000
v 0.016625 0.017632 0.000000
v 0.016625 0.017632 -0.001200
v 0.016191 0.017834 0.000000
v 0.013870 -0.001320 0.002900
v -0.005630 -0.008320 0.002900
v 0.013787 -0.008285 0.002900
v 0.017361 -0.017024 0.000000
v 0.013900 -0.008050 0.002900
v -0.017632 0.016625 0.000000
v 0.013787 -0.001215 0.002900
f 1 2 3
f 4 3 2
f 5 6 7
f 8 4 2
f 9 3 4
f 10 11 3
f 12 3 11
f 12 1 3
f 13 2 1
f 14 5 7
f 15 4 8
f 16 17 18
f 19 20 9
f 19 9 21
f 22 5 23
f 24 21 9
f 24 9 4
f 25 3 9
f 26 11 10
f 27 1 12
f 28 29 30
f 28 7 6
f 31 13 1
f 32 2 13
f 33 5 14
f 34 14 7
f 35 14 34
f 36 4 15
f 36 37 4
f 38 20 19
f 38 19 21
f 38 22 23
f 39 21 24
f 40 6 5
f 41 42 39
f 41 24 4
f 43 3 25
f 44 25 9
f 45 46 26
f 45 26 10
f 47 11 26
f 47 26 46
f 48 1 27
f 49 27 12
f 49 12 11
f 50 46 35
f 50 35 34
f 51 7 28
f 51 28 30
f 52 18 53
f 52 53 8
f 52 8 2
f 54 15 8
f 55 32 13
f 56 28 6
f 57 16 52
f 57 52 2
f 57 2 32
f 57 17 16
f 58 14 35
f 58 35 46
f 59 22 38
f 59 38 21
f 60 21 39
f 60 40 5
f 60 5 22
f 61 36 15
f 61 15 54
f 62 6 40
f 62 18 17
f 63 40 42
f 63 42 41
f 63 4 37
f 64 24 41
f 64 41 39
f 64 39 24
f 65 66 43
f 65 43 25
f 65 25 67
f 68 3 43
f 68 43 66
f 68 10 3
f 69 20 44
f 69 44 9
f 69 9 20
f 70 45 66
f 71 48 27
f 72 30 50
f 72 50 7
f 72 7 51
f 73 34 7
f 74 55 13
f 74 13 75
f 74 75 30
f 74 30 29
f 76 31 75
f 76 75 13
f 76 13 31
f 77 18 52
f 77 52 16
f 77 16 18
f 78 53 54
f 78 54 8
f 78 8 53
f 79 32 55
f 80 28 56
f 80 29 28
f 81 56 6
f 82 58 33
f 82 33 14
f 83 5 33
f 83 58 23
f 83 23 5
f 84 45 70
f 84 58 46
f 84 46 45
f 85 40 60
f 85 60 39
f 85 39 42
f 85 42 40
f 86 60 22
f 86 22 59
f 87 62 40
f 88 4 63
f 88 63 41
f 88 41 4
f 89 66 65
f 89 65 67
f 89 67 70
f 89 70 66
f 90 10 68
f 90 68 66
f 90 66 45
f 90 45 10
f 91 20 38
f 91 92 44
f 91 44 20
f 93 25 44
f 93 67 25
f 94 23 58
f 94 58 84
f 94 84 70
f 94 70 67
f 95 30 72
f 95 72 51
f 95 51 30
f 96 34 73
f 96 73 50
f 96 50 34
f 97 50 73
f 97 73 7
f 97 7 50
f 98 1 99
f 98 99 31
f 98 31 1
f 100 75 31
f 100 31 99
f 100 99 30
f 100 30 75
f 101 48 71
f 101 46 50
f 101 1 48
f 102 30 99
f 102 50 30
f 103 74 29
f 103 29 104
f 103 104 55
f 103 55 74
f 105 79 55
f 106 32 79
f 107 29 80
f 107 80 56
f 107 56 29
f 108 109 106
f 108 106 110
f 108 110 81
f 111 57 32
f 111 32 109
f 111 109 6
f 111 6 62
f 111 62 17
f 111 17 57
f 112 58 82
f 112 82 14
f 112 14 58
f 113 83 33
f 113 33 58
f 114 21 60
f 114 60 86
f 114 86 59
f 114 59 21
f 115 61 87
f 115 87 40
f 116 62 87
f 116 53 18
f 117 53 116
f 117 116 87
f 117 87 61
f 117 61 54
f 117 54 53
f 118 67 93
f 118 93 92
f 118 94 67
f 119 92 93
f 119 93 44
f 119 44 92
f 120 38 23
f 120 23 94
f 120 94 118
f 120 118 92
f 120 92 91
f 120 91 38
f 121 11 47
f 121 47 46
f 121 27 49
f 121 49 11
f 122 27 121
f 122 121 46
f 122 71 27
f 123 101 50
f 123 50 102
f 123 102 99
f 123 99 1
f 123 1 101
f 124 104 105
f 124 105 55
f 124 55 104
f 125 32 106
f 125 106 109
f 125 109 32
f 126 110 106
f 126 106 79
f 126 79 110
f 127 79 128
f 127 81 110
f 127 110 79
f 129 105 128
f 129 128 79
f 129 79 105
f 130 104 29
f 130 29 56
f 130 56 128
f 130 128 105
f 130 105 104
f 131 6 109
f 131 109 108
f 131 108 81
f 131 81 6
f 132 83 113
f 132 113 58
f 132 58 83
f 133 37 115
f 133 115 40
f 133 40 63
f 133 63 37
f 134 61 115
f 134 115 37
f 134 37 36
f 134 36 61
f 135 62 116
f 135 116 18
f 135 18 62
f 136 101 71
f 136 71 122
f 136 122 46
f 136 46 101
f 137 56 81
f 137 81 127
f 137 127 128
f 137 128 56
