# Convex hull collision mesh — generated by scripts/generate-collision-meshes.mjs (units: meters)
v -0.042500 -0.000800 0.025000
v -0.042500 -0.000800 -0.025000
v -0.041000 -0.002250 0.005680
v 0.035006 -0.002900 -0.024890
v 0.036175 -0.002900 -0.023721
v 0.033325 -0.002900 -0.011779
v 0.029637 -0.002637 0.026001
v 0.036175 -0.002900 -0.011779
v 0.042500 -0.000800 -0.025000
v 0.033325 -0.002900 -0.023721
v 0.014362 -0.002200 -0.026002
v 0.039500 -0.000800 -0.028000
v -0.034362 -0.002200 -0.026002
v 0.041370 -0.000800 -0.027345
v 0.040168 0.000800 -0.027925
v 0.045376 0.014118 -0.025684
v 0.040802 0.000800 -0.027703
v -0.039500 -0.000800 -0.028000
v -0.039500 0.000800 -0.028000
v 0.028863 0.016292 0.012750
v 0.028940 0.016300 -0.004950
v -0.034362 0.009100 -0.026002
v -0.042500 0.000800 -0.025000
v 0.035483 -0.002637 0.026001
v 0.035601 -0.002626 0.026007
v 0.011854 0.000887 0.030287
v 0.034119 -0.002900 -0.011404
v 0.042500 -0.000800 0.025000
v 0.045500 0.000700 0.025350
v -0.041000 -0.002250 -0.005830
v 0.034494 -0.002900 -0.024890
v 0.045750 0.001900 -0.023120
v 0.045500 0.001000 -0.025500
v 0.045500 0.014100 -0.025500
v 0.040168 -0.000800 -0.027925
v 0.039500 0.000800 -0.028000
v 0.045387 0.014100 -0.025680
v 0.045387 0.001000 -0.025680
v 0.046490 0.007733 0.026442
v 0.046490 0.007500 0.025950
v 0.046490 0.007530 0.011720
v 0.039500 -0.000800 0.028000
v 0.011848 0.000934 0.030335
v 0.045500 0.000700 0.012650
v 0.045387 0.000820 -0.024750
v -0.039500 -0.000800 0.028000
v -0.040168 -0.000800 0.027925
v 0.011753 0.001715 0.030400
v 0.013521 0.002010 0.030400
v 0.009966 0.001578 0.030400
v 0.013034 0.006022 0.030400
v -0.040168 -0.000800 -0.027925
v 0.045345 0.014100 -0.025695
v 0.024350 0.014300 -0.025500
v 0.045800 0.016520 0.021750
v 0.046000 0.016520 0.021750
v 0.045800 0.017000 0.006250
v 0.045800 0.017000 -0.004250
v 0.029030 0.016300 0.025350
v -0.041370 -0.000800 0.027345
v -0.041845 -0.000800 0.026870
v 0.009109 0.005055 0.030400
v 0.035006 -0.002900 -0.010610
v 0.042425 -0.000800 -0.025668
v 0.042203 -0.000800 -0.026302
v 0.041845 -0.000800 -0.026870
v 0.046100 0.001380 -0.004250
v 0.040802 -0.000800 -0.027703
v 0.046490 0.007530 0.026280
v 0.040802 -0.000800 0.027703
v 0.035713 -0.002594 0.026026
v 0.039500 0.000800 0.028000
v 0.040168 0.000800 0.027925
v 0.030530 0.015900 0.025900
v 0.028930 0.015900 0.025900
v 0.011159 0.006610 0.030370
v 0.029030 0.016235 0.025537
v -0.034470 0.003960 0.029500
v -0.034759 0.003927 0.029500
v 0.045500 0.016300 0.025350
v 0.045500 0.016292 0.025417
v 0.024350 0.014145 -0.025695
v 0.024350 0.014256 -0.025625
v 0.024350 0.014225 -0.025656
v 0.046100 0.017000 0.006250
v 0.046490 0.007800 0.011550
v 0.045495 0.014100 -0.025545
v 0.028930 0.016300 0.025250
v -0.042425 -0.000800 0.025668
v -0.042425 0.000800 0.025668
v -0.042500 0.000800 0.025000
v 0.010543 0.006325 0.030400
v 0.011152 0.000934 0.030335
v -0.040168 0.000800 -0.027925
v -0.040802 -0.000800 -0.027703
v -0.041370 -0.000800 -0.027345
v -0.041370 0.000800 -0.027345
v -0.042425 0.000800 -0.025668
v -0.041845 -0.000800 -0.026870
v -0.042203 -0.000800 -0.026302
v 0.034494 -0.002900 -0.010610
v 0.045456 0.001000 -0.025625
v 0.046490 0.007500 0.011850
v 0.046100 0.001388 -0.004317
v 0.045425 0.000844 -0.024750
v 0.042203 -0.000800 0.026302
v 0.040168 -0.000800 0.027925
v 0.013072 0.001523 0.030392
v 0.012481 0.001213 0.030392
v 0.011825 0.001120 0.030400
v 0.011841 0.000990 0.030370
v 0.014200 0.003800 0.030400
v -0.018656 0.000800 0.029800
v -0.034759 0.000833 0.029500
v 0.008878 0.003154 0.030400
v 0.011841 0.006610 0.030370
v 0.045500 0.016235 0.025537
v 0.028863 0.015900 0.025892
v 0.031382 0.016300 0.025450
v 0.029030 0.016292 0.025417
v 0.024350 0.014187 -0.025680
v 0.046100 0.017000 -0.004250
v 0.046490 0.010500 0.026150
v 0.045750 0.003800 -0.023120
v 0.046100 0.015270 -0.006220
v 0.028930 0.016300 0.012750
v 0.028863 0.016292 0.025250
v -0.042203 -0.000800 0.026302
v -0.041845 0.000800 0.026870
v -0.040802 -0.000800 0.027703
v -0.035770 0.002660 0.029500
v -0.040802 0.000800 0.027703
v 0.011825 0.006480 0.030400
v 0.009479 0.005590 0.030400
v 0.011146 0.000887 0.030287
v -0.040802 0.000800 -0.027703
v -0.042425 -0.000800 -0.025668
v -0.042203 0.000800 -0.026302
v 0.045480 0.001000 -0.025587
v 0.045467 0.014102 -0.025610
v 0.045425 0.014100 -0.025656
v 0.046490 0.007565 0.011663
v 0.046100 0.001445 -0.004437
v 0.046490 0.007508 0.011783
v 0.045480 0.000913 -0.024750
v 0.046100 0.001380 0.006250
v 0.046000 0.001620 0.021750
v 0.046490 0.007613 0.026385
v 0.046000 0.001656 0.021892
v 0.045930 0.003440 0.025800
v 0.045500 0.000933 0.025642
v 0.041370 -0.000800 0.027345
v 0.042425 -0.000800 0.025668
v 0.013571 0.001965 0.030392
v 0.011175 0.001120 0.030400
v 0.011167 0.001053 0.030392
v 0.012457 0.001275 0.030400
v 0.011833 0.001053 0.030392
v 0.011159 0.000990 0.030370
v 0.014122 0.003154 0.030400
v -0.034470 0.000800 0.029500
v -0.035034 0.000929 0.029500
v -0.035281 0.001084 0.029500
v -0.018746 0.000809 0.029800
v 0.009479 0.002010 0.030400
v 0.045500 0.016130 0.025620
v 0.045500 0.016067 0.025642
v 0.045930 0.014700 0.025800
v 0.029030 0.016270 0.025480
v 0.036900 0.016300 0.025450
v 0.024318 0.014292 -0.025546
v 0.024350 0.014295 -0.025545
v 0.045800 0.016992 -0.004317
v 0.046490 0.010492 0.011783
v 0.046490 0.010267 0.026442
v 0.046100 0.015327 -0.006185
v 0.046100 0.015375 -0.006137
v 0.045300 0.014227 -0.025655
v -0.039900 0.006280 0.011000
v 0.008878 0.004446 0.030400
v -0.042203 0.000800 0.026302
v -0.041370 0.000800 0.027345
v -0.035281 0.003676 0.029500
v 0.012457 0.006325 0.030400
v 0.011167 0.006547 0.030392
v 0.011833 0.006547 0.030392
v 0.012481 0.006387 0.030392
v -0.041845 0.000800 -0.026870
v 0.045480 0.014100 -0.025587
v 0.045484 0.014118 -0.025576
v 0.045495 0.001000 -0.025545
v 0.045425 0.001000 -0.025656
v 0.045456 0.014100 -0.025625
v 0.046490 0.007670 0.011580
v 0.046100 0.001410 -0.004380
v 0.046100 0.003005 -0.006137
v 0.046100 0.003053 -0.006185
v 0.045456 0.000875 -0.024750
v 0.046490 0.007500 0.026150
v 0.046490 0.007565 0.026337
v 0.046490 0.007670 0.026420
v 0.046000 0.001629 0.021823
v 0.041845 -0.000800 0.026870
v 0.045500 0.000765 0.025537
v 0.013034 0.001578 0.030400
v 0.013891 0.002545 0.030400
v 0.013891 0.005055 0.030400
v 0.013950 0.005086 0.030392
v 0.010543 0.001275 0.030400
v 0.045500 0.016187 0.025585
v 0.046000 0.016511 0.021823
v 0.046490 0.010470 0.026280
v 0.046000 0.016484 0.021892
v 0.045500 0.016270 0.025480
v 0.045495 0.014145 -0.025500
v 0.046100 0.016970 -0.004380
v 0.046490 0.010500 0.011850
v 0.046100 0.016935 -0.004437
v 0.013571 0.005635 0.030392
v 0.046490 0.007800 0.026450
v 0.013072 0.006077 0.030392
v 0.046100 0.015207 -0.006242
v 0.046100 0.015140 -0.006250
v 0.046490 0.010200 0.011550
v 0.045300 0.014161 -0.025691
v 0.045454 0.014165 -0.025610
v 0.045454 0.014210 -0.025565
v 0.045460 0.014192 -0.025577
v 0.045415 0.014215 -0.025615
v -0.040950 0.006280 -0.006000
v -0.034362 0.009100 -0.022998
v 0.008800 0.003800 0.030400
v -0.035737 0.001811 0.029500
v -0.035737 0.002949 0.029500
v -0.035486 0.001289 0.029500
v -0.035034 0.003831 0.029500
v 0.009966 0.006022 0.030400
v 0.011175 0.006480 0.030400
v 0.046490 0.007733 0.011558
v 0.046100 0.003173 -0.006242
v 0.046100 0.003110 -0.006220
v 0.046490 0.007613 0.011615
v 0.045500 0.000870 0.025620
v 0.045500 0.000730 0.025480
v 0.046490 0.007508 0.026217
v 0.014122 0.004446 0.030400
v 0.046490 0.010387 0.026385
v 0.046490 0.010492 0.026217
v 0.045484 0.014176 -0.025518
v 0.045467 0.014210 -0.025502
v 0.045490 0.014144 -0.025544
v 0.046490 0.010200 0.026450
v 0.013521 0.005590 0.030400
v 0.046490 0.010330 0.011580
v 0.045300 0.014189 -0.025679
v 0.045300 0.014131 -0.025698
v 0.024350 0.014280 -0.025587
v 0.045300 0.014281 -0.025586
v 0.045300 0.014295 -0.025544
v 0.045344 0.014144 -0.025690
v 0.045427 0.014159 -0.025643
v 0.045443 0.014159 -0.025627
v 0.045460 0.014177 -0.025592
v -0.040950 0.006280 0.006000
v -0.035770 0.002100 0.029500
v -0.035641 0.003224 0.029500
v 0.009109 0.002545 0.030400
v 0.045500 0.000813 0.025585
v 0.045500 0.000708 0.025417
v 0.046490 0.010330 0.026420
v 0.046490 0.010435 0.026337
v 0.046100 0.016992 -0.004317
v 0.045456 0.014225 -0.025500
v 0.046490 0.010267 0.011558
v 0.046490 0.010387 0.011615
v 0.045359 0.014243 -0.025627
v 0.045359 0.014227 -0.025643
v 0.045380 0.014212 -0.025644
v 0.045318 0.014176 -0.025684
v 0.045410 0.014165 -0.025654
v -0.035486 0.003471 0.029500
v -0.035641 0.001536 0.029500
v 0.045480 0.014187 -0.025500
v 0.046490 0.010435 0.011663
v 0.045300 0.014257 -0.025623
v 0.045341 0.014204 -0.025666
v 0.045377 0.014192 -0.025660
v 0.045392 0.014177 -0.025660
v 0.045344 0.014290 -0.025544
v 0.045376 0.014284 -0.025518
v 0.045425 0.014256 -0.025500
v 0.046490 0.010470 0.011720
v 0.045427 0.014243 -0.025559
v 0.045365 0.014254 -0.025610
v 0.045377 0.014260 -0.025592
v 0.045392 0.014260 -0.025577
v 0.045443 0.014227 -0.025559
v 0.045410 0.014267 -0.025502
v 0.045318 0.014284 -0.025576
v 0.045410 0.014254 -0.025565
f 1 2 3
f 4 5 6
f 7 3 6
f 8 6 5
f 8 5 9
f 10 4 6
f 10 6 3
f 11 12 4
f 11 4 13
f 11 13 12
f 14 5 4
f 15 16 17
f 18 12 13
f 18 19 12
f 20 21 22
f 23 2 1
f 24 8 25
f 24 26 7
f 27 6 8
f 28 25 8
f 28 8 9
f 28 9 29
f 30 13 10
f 30 10 3
f 30 3 2
f 31 4 10
f 31 10 13
f 31 13 4
f 32 33 34
f 35 4 12
f 35 12 15
f 35 15 17
f 36 15 12
f 36 12 19
f 37 38 17
f 37 17 16
f 39 40 41
f 42 43 26
f 42 26 24
f 42 24 25
f 44 29 9
f 44 9 45
f 46 47 7
f 48 49 50
f 51 50 49
f 52 19 18
f 52 18 13
f 53 16 15
f 54 22 21
f 55 56 57
f 58 54 21
f 59 55 57
f 60 61 3
f 62 50 51
f 63 24 7
f 63 6 27
f 63 27 8
f 63 8 24
f 64 5 65
f 64 45 9
f 64 9 5
f 66 65 5
f 66 5 14
f 67 29 44
f 68 4 35
f 68 35 17
f 68 17 38
f 68 14 4
f 69 40 39
f 70 25 71
f 72 42 73
f 74 75 76
f 77 75 74
f 78 76 75
f 78 75 79
f 78 79 76
f 80 81 56
f 82 19 22
f 83 84 22
f 85 58 57
f 85 57 56
f 86 39 41
f 87 34 33
f 88 59 57
f 88 57 58
f 89 90 1
f 89 1 3
f 91 23 1
f 91 1 90
f 92 62 51
f 93 26 43
f 94 22 19
f 94 19 52
f 95 96 97
f 95 94 52
f 95 52 13
f 95 13 96
f 98 2 23
f 99 96 13
f 99 13 100
f 99 97 96
f 101 6 63
f 101 63 7
f 101 7 6
f 102 65 66
f 102 66 14
f 103 40 67
f 103 41 40
f 104 103 67
f 104 67 33
f 104 33 32
f 105 67 44
f 105 44 45
f 106 71 25
f 107 73 42
f 107 42 25
f 107 25 70
f 108 109 42
f 110 48 50
f 110 49 48
f 111 93 43
f 111 43 42
f 112 42 72
f 112 51 49
f 113 46 93
f 114 47 46
f 115 50 62
f 116 74 76
f 117 77 74
f 118 75 77
f 118 77 79
f 118 79 75
f 119 77 117
f 119 56 55
f 119 55 59
f 119 59 120
f 121 82 22
f 121 22 84
f 122 58 85
f 123 39 86
f 123 122 85
f 123 85 56
f 124 86 32
f 124 32 34
f 124 34 125
f 126 20 88
f 126 88 58
f 126 58 21
f 126 21 20
f 127 79 120
f 127 120 59
f 127 59 88
f 127 88 20
f 127 20 22
f 128 90 89
f 128 89 3
f 128 3 61
f 129 128 61
f 129 61 60
f 130 131 132
f 130 132 60
f 130 60 3
f 130 3 7
f 130 7 47
f 133 92 51
f 134 62 92
f 135 26 93
f 135 93 46
f 135 46 7
f 135 7 26
f 136 94 95
f 136 95 97
f 136 97 22
f 136 22 94
f 137 2 98
f 137 98 100
f 137 100 13
f 137 13 30
f 137 30 2
f 138 99 100
f 138 100 98
f 138 98 22
f 139 65 102
f 139 102 140
f 141 37 16
f 141 38 37
f 142 86 41
f 143 142 41
f 144 103 104
f 144 104 41
f 144 41 103
f 145 33 67
f 146 147 29
f 146 29 67
f 146 67 40
f 148 69 39
f 149 69 150
f 151 39 70
f 152 70 71
f 153 106 25
f 153 25 28
f 153 28 29
f 154 49 108
f 154 108 42
f 154 42 49
f 155 156 110
f 155 110 50
f 155 114 156
f 157 49 110
f 157 109 108
f 158 109 157
f 158 157 110
f 158 110 156
f 158 156 111
f 158 111 42
f 158 42 109
f 159 93 111
f 159 111 156
f 159 156 113
f 159 113 93
f 160 42 112
f 160 112 49
f 161 114 46
f 161 46 113
f 162 163 47
f 162 47 114
f 162 50 163
f 164 156 114
f 164 114 161
f 164 161 113
f 164 113 156
f 165 50 115
f 165 163 50
f 166 167 168
f 166 74 116
f 166 116 167
f 169 77 119
f 169 119 120
f 169 120 79
f 169 79 77
f 170 81 80
f 170 80 56
f 170 56 119
f 170 119 117
f 171 22 54
f 171 54 172
f 173 58 122
f 173 172 54
f 173 54 58
f 174 123 86
f 175 168 167
f 175 39 123
f 176 34 177
f 176 125 34
f 178 84 83
f 179 79 127
f 180 115 62
f 181 128 129
f 181 179 90
f 181 90 128
f 182 183 129
f 182 129 60
f 182 60 132
f 184 133 51
f 185 76 79
f 185 116 76
f 186 116 185
f 186 185 133
f 186 133 184
f 186 184 187
f 186 187 167
f 186 167 116
f 188 99 138
f 188 138 22
f 188 22 97
f 188 97 99
f 189 190 139
f 189 139 140
f 189 140 190
f 191 87 33
f 191 33 105
f 191 105 45
f 191 45 64
f 191 64 65
f 191 65 139
f 191 139 190
f 191 190 87
f 192 38 141
f 192 141 102
f 192 102 14
f 192 14 68
f 192 68 38
f 193 140 102
f 193 102 141
f 194 86 142
f 195 104 32
f 195 32 143
f 195 143 41
f 195 41 104
f 196 142 143
f 196 143 32
f 196 32 197
f 196 197 142
f 198 105 33
f 198 33 145
f 198 145 67
f 198 67 105
f 199 147 146
f 199 146 40
f 199 40 69
f 200 69 148
f 200 148 150
f 200 150 69
f 201 150 148
f 201 148 39
f 201 39 151
f 202 69 149
f 203 204 152
f 203 152 71
f 203 71 106
f 205 49 157
f 205 157 108
f 205 108 49
f 206 42 160
f 206 160 49
f 206 49 42
f 207 72 208
f 207 51 112
f 209 155 50
f 209 50 162
f 209 162 114
f 209 114 155
f 210 117 74
f 210 74 166
f 210 166 168
f 210 168 117
f 211 56 81
f 212 211 213
f 212 213 168
f 212 175 123
f 214 81 170
f 214 170 117
f 214 117 168
f 214 168 213
f 214 213 211
f 214 211 81
f 215 216 34
f 215 34 87
f 217 123 174
f 217 122 123
f 218 177 34
f 218 34 216
f 219 208 72
f 220 39 175
f 220 73 107
f 220 107 70
f 220 70 39
f 221 51 219
f 221 219 175
f 221 175 167
f 221 167 187
f 221 187 184
f 221 184 51
f 222 223 124
f 222 124 125
f 224 124 223
f 224 223 222
f 224 174 86
f 224 86 124
f 225 82 121
f 226 190 140
f 227 228 229
f 230 22 98
f 230 98 23
f 230 23 91
f 231 22 230
f 231 179 127
f 231 127 22
f 232 115 180
f 232 233 115
f 234 131 232
f 234 232 180
f 234 132 131
f 235 163 165
f 235 47 163
f 236 179 181
f 236 181 129
f 236 129 183
f 236 92 79
f 236 79 179
f 237 92 236
f 237 236 183
f 237 183 134
f 237 134 92
f 238 92 133
f 238 133 185
f 238 185 79
f 238 79 92
f 239 32 86
f 239 86 194
f 239 194 240
f 239 240 32
f 241 240 194
f 241 194 197
f 241 197 32
f 241 32 240
f 242 197 194
f 242 194 142
f 242 142 197
f 243 151 70
f 243 70 152
f 243 150 201
f 243 201 151
f 244 204 203
f 244 202 149
f 244 149 150
f 244 150 204
f 245 199 69
f 245 69 202
f 245 202 147
f 245 147 199
f 246 72 207
f 246 207 112
f 246 112 72
f 247 175 212
f 248 211 212
f 248 212 123
f 248 123 56
f 248 56 211
f 249 228 227
f 249 227 250
f 251 228 249
f 251 249 215
f 251 215 87
f 251 87 190
f 252 175 219
f 252 219 72
f 252 72 73
f 252 73 220
f 252 220 175
f 253 207 208
f 253 208 219
f 253 219 51
f 253 51 207
f 254 125 176
f 254 174 224
f 254 222 125
f 255 225 121
f 255 121 84
f 255 84 178
f 256 53 15
f 256 15 36
f 256 36 19
f 256 19 82
f 256 82 225
f 257 172 258
f 257 83 22
f 257 22 171
f 257 171 172
f 259 172 173
f 260 16 53
f 260 53 256
f 260 256 225
f 261 193 141
f 262 193 261
f 262 261 229
f 262 229 226
f 262 226 140
f 262 140 193
f 263 228 251
f 263 251 190
f 263 190 226
f 263 226 229
f 263 229 228
f 264 179 231
f 264 231 230
f 264 230 91
f 264 91 90
f 264 90 179
f 265 233 232
f 265 232 131
f 265 131 130
f 265 130 47
f 265 47 233
f 266 132 234
f 266 234 180
f 266 180 62
f 267 235 165
f 267 165 115
f 268 204 150
f 268 150 243
f 268 243 152
f 268 152 204
f 269 106 153
f 269 153 29
f 269 29 147
f 269 147 202
f 269 202 244
f 269 244 203
f 269 203 106
f 270 175 247
f 270 247 168
f 270 168 175
f 271 168 247
f 271 247 212
f 271 212 168
f 272 215 249
f 272 250 273
f 272 259 173
f 272 173 122
f 272 122 217
f 272 217 174
f 272 174 216
f 272 216 215
f 274 222 254
f 274 254 224
f 274 224 222
f 275 174 254
f 275 254 176
f 275 176 177
f 276 277 178
f 278 277 276
f 278 276 229
f 279 260 225
f 279 225 255
f 280 229 261
f 280 261 141
f 280 141 16
f 281 134 183
f 281 183 182
f 281 182 132
f 281 132 266
f 281 266 62
f 281 62 134
f 282 233 47
f 282 47 235
f 282 235 267
f 282 267 115
f 282 115 233
f 283 250 272
f 283 272 249
f 283 249 250
f 284 218 216
f 284 174 275
f 284 275 177
f 284 177 218
f 285 276 178
f 285 178 83
f 285 83 257
f 285 257 258
f 286 178 277
f 286 277 278
f 286 278 287
f 286 287 260
f 286 260 279
f 286 279 255
f 286 255 178
f 288 260 287
f 288 287 278
f 288 278 229
f 288 229 280
f 288 280 16
f 288 16 260
f 289 272 290
f 289 259 272
f 291 272 273
f 292 174 284
f 292 284 216
f 292 216 174
f 293 291 273
f 294 276 285
f 294 295 229
f 294 229 276
f 296 229 295
f 296 295 289
f 296 289 290
f 297 229 293
f 297 293 273
f 297 273 250
f 297 250 227
f 297 227 229
f 298 291 293
f 298 290 272
f 298 272 291
f 299 258 172
f 299 172 259
f 299 259 289
f 299 289 295
f 299 295 294
f 299 294 285
f 299 285 258
f 300 293 229
f 300 229 296
f 300 296 290
f 300 290 298
f 300 298 293
