# Convex hull collision mesh — generated by scripts/generate-collision-meshes.mjs (units: meters)
v 0.015978 0.008000 -0.000612
v 0.000000 0.008000 -0.015990
v 0.000000 0.008000 0.015990
v -0.015978 0.008000 0.000612
v 0.011088 0.008000 -0.011521
v 0.011937 0.008000 0.010639
v -0.011088 0.008000 -0.011521
v 0.005977 0.008000 -0.014831
v -0.003149 0.000000 0.003871
v 0.001027 -0.000000 0.002872
v 0.003647 0.000000 0.003406
v 0.007095 0.008000 0.014330
v -0.011088 0.008000 0.011521
v -0.005977 0.008000 -0.014831
v 0.014591 0.008000 -0.006541
v 0.003647 0.000000 -0.003406
v 0.000679 0.000000 0.004944
v 0.015698 0.008000 0.003044
v -0.005977 0.008000 0.014831
v -0.014047 0.008000 -0.007639
v -0.015698 0.008000 -0.003044
v -0.003643 0.008000 -0.015569
v 0.015698 0.008000 -0.003044
v 0.013421 0.008000 -0.008692
v 0.004978 0.000000 0.000341
v -0.003647 0.000000 -0.003406
v 0.015884 0.008000 0.001834
v 0.014047 0.008000 0.007639
v 0.015702 0.002000 0.003021
v 0.003643 0.008000 0.015569
v 0.001988 0.000000 0.004577
v 0.001346 0.000000 0.004805
v -0.014591 0.008000 0.006541
v -0.001988 0.000000 0.004577
v -0.003643 0.008000 0.015569
v -0.004322 0.002000 0.015395
v -0.003260 0.002000 0.015654
v -0.009199 0.008000 0.013079
v -0.009199 0.008000 -0.013079
v -0.015049 0.008000 -0.005405
v -0.015884 0.008000 -0.001834
v -0.015702 0.002000 -0.003021
v -0.001224 0.008000 -0.015943
v -0.001093 0.002000 -0.015953
v -0.004825 0.008000 -0.015245
v 0.009199 0.008000 -0.013079
v 0.003643 0.008000 -0.015569
v 0.015049 0.008000 -0.005405
v 0.014626 0.005500 -0.006462
v 0.015884 0.008000 -0.001834
v 0.015702 0.002000 -0.003021
v 0.014047 0.008000 -0.007639
v 0.004431 0.000000 0.002296
v 0.004702 0.000000 -0.001671
v 0.015886 0.002000 -0.001820
v 0.015978 0.002000 -0.000608
v -0.001346 0.000000 -0.004805
v -0.004978 0.000000 0.000341
v -0.006050 0.002000 -0.014649
v -0.014640 0.002000 -0.006060
v -0.011307 0.005500 -0.011307
v 0.015978 0.008000 0.000612
v 0.015049 0.008000 0.005405
v 0.006050 0.002000 0.014649
v 0.014649 0.002000 0.006050
v 0.011307 0.005500 0.011307
v 0.009199 0.008000 0.013079
v 0.001224 0.008000 0.015943
v 0.001093 0.002000 0.015953
v 0.004825 0.008000 0.015245
v 0.003260 0.002000 0.015654
v 0.003149 0.000000 0.003871
v 0.005728 0.002000 0.014891
v -0.015886 0.002000 0.001820
v -0.015978 0.002000 0.000608
v -0.011307 0.005500 0.011307
v -0.014649 0.002000 0.006050
v -0.006050 0.002000 0.014649
v -0.015698 0.008000 0.003044
v 0.000000 0.002000 0.015990
v -0.001093 0.002000 0.015953
v -0.002593 0.000000 0.004264
v -0.000679 0.000000 0.004944
v -0.004825 0.008000 0.015245
v -0.005365 0.002000 0.015063
v -0.002441 0.008000 0.015803
v -0.010174 0.008000 0.012336
v -0.009519 0.005500 0.012848
v -0.008545 0.005500 0.013515
v -0.007095 0.008000 0.014330
v -0.010441 0.005500 -0.012110
v -0.015978 0.008000 -0.000612
v -0.015427 0.002000 -0.004205
v -0.002441 0.008000 -0.015803
v -0.005365 0.005500 -0.015063
v 0.010174 0.008000 -0.012336
v 0.008171 0.008000 -0.013745
v 0.008545 0.005500 -0.013515
v 0.007524 0.005500 -0.014109
v 0.010441 0.005500 -0.012110
v 0.012717 0.008000 -0.009694
v 0.005365 0.005500 -0.015063
v 0.005365 0.002000 -0.015063
v 0.004322 0.002000 -0.015395
v 0.003260 0.002000 -0.015654
v 0.005728 0.002000 -0.014891
v 0.006462 0.005500 -0.014626
v 0.000000 0.002000 -0.015990
v 0.001093 0.002000 -0.015953
v 0.001224 0.008000 -0.015943
v 0.015418 0.008000 -0.004237
v 0.015063 0.005500 -0.005365
v 0.004077 0.000000 0.002878
v 0.004886 0.000000 0.001015
v 0.004978 0.000000 -0.000341
v -0.003260 0.002000 -0.015654
v -0.002593 0.000000 -0.004264
v 0.001346 0.000000 -0.004805
v -0.004978 0.000000 -0.000341
v -0.004431 0.000000 0.002296
v 0.015886 0.002000 0.001820
v 0.015418 0.008000 0.004237
v 0.011088 0.008000 0.011521
v 0.012717 0.008000 0.009694
v 0.012110 0.005500 0.010441
v 0.012848 0.005500 0.009519
v 0.005977 0.008000 0.014831
v 0.004322 0.002000 0.015395
v 0.002441 0.008000 0.015803
v 0.002593 0.000000 0.004264
v -0.013421 0.008000 0.008692
v -0.015418 0.008000 0.004237
v -0.015884 0.008000 0.001834
v -0.015702 0.002000 0.003021
v 0.000000 0.000000 0.004990
v -0.001346 0.000000 0.004805
v -0.005365 0.005500 0.015063
v -0.002182 0.002000 0.015840
v -0.001224 0.008000 0.015943
v -0.010441 0.005500 0.012110
v -0.005728 0.002000 0.014891
v -0.007524 0.005500 0.014109
v -0.008171 0.008000 0.013745
v -0.006462 0.005500 0.014626
v -0.006462 0.005500 -0.014626
v -0.005728 0.002000 -0.014891
v -0.007524 0.005500 -0.014109
v -0.007095 0.008000 -0.014330
v -0.010174 0.008000 -0.012336
v -0.008545 0.005500 -0.013515
v -0.012717 0.008000 -0.009694
v -0.014591 0.008000 -0.006541
v -0.014626 0.005500 -0.006462
v -0.015886 0.002000 -0.001820
v -0.015063 0.002000 -0.005365
v -0.015418 0.008000 -0.004237
v 0.007095 0.008000 -0.014330
v 0.009519 0.005500 -0.012848
v 0.006050 0.002000 -0.014649
v 0.011307 0.005500 -0.011307
v 0.015427 0.002000 -0.004205
v 0.014640 0.002000 -0.006060
v 0.012110 0.005500 -0.010441
v 0.013515 0.005500 -0.008545
v 0.004431 0.000000 -0.002296
v 0.011937 0.008000 -0.010639
v 0.004825 0.008000 -0.015245
v 0.002441 0.008000 -0.015803
v 0.004886 0.000000 -0.001015
v -0.004322 0.002000 -0.015395
v -0.002182 0.002000 -0.015840
v -0.003149 0.000000 -0.003871
v -0.001988 0.000000 -0.004577
v 0.001988 0.000000 -0.004577
v 0.000000 0.000000 -0.004990
v -0.004886 0.000000 -0.001015
v -0.003647 0.000000 0.003406
v -0.004702 0.000000 0.001671
v 0.015978 0.002000 0.000608
v 0.014626 0.005500 0.006462
v 0.015063 0.002000 0.005365
v 0.014891 0.002000 0.005728
v 0.015063 0.005500 0.005365
v 0.015427 0.002000 0.004205
v 0.004702 0.000000 0.001671
v 0.010174 0.008000 0.012336
v 0.007524 0.005500 0.014109
v 0.008545 0.005500 0.013515
v 0.009519 0.005500 0.012848
v 0.008171 0.008000 0.013745
v 0.013421 0.008000 0.008692
v 0.005365 0.005500 0.015063
v 0.005365 0.002000 0.015063
v 0.002182 0.002000 0.015840
v -0.011937 0.008000 0.010639
v -0.015049 0.008000 0.005405
v -0.009519 0.005500 -0.012848
v -0.008171 0.008000 -0.013745
v -0.011937 0.008000 -0.010639
v -0.013421 0.008000 -0.008692
v -0.012848 0.005500 -0.009519
v -0.013515 0.005500 -0.008545
v -0.015978 0.002000 -0.000608
v -0.014109 0.005500 -0.007524
v -0.004077 0.000000 -0.002878
v -0.015063 0.005500 -0.005365
v 0.015063 0.002000 -0.005365
v 0.014887 0.002000 -0.005734
v 0.012848 0.005500 -0.009519
v 0.014109 0.005500 -0.007524
v 0.004077 0.000000 -0.002878
v 0.002182 0.002000 -0.015840
v -0.005365 0.002000 -0.015063
v 0.003149 0.000000 -0.003871
v -0.000679 0.000000 -0.004944
v -0.004702 0.000000 -0.001671
v -0.004077 0.000000 0.002878
v -0.014891 0.002000 0.005728
v -0.015063 0.002000 0.005365
v -0.004886 0.000000 0.001015
v 0.014591 0.008000 0.006541
v 0.013515 0.005500 0.008545
v 0.010441 0.005500 0.012110
v 0.006462 0.005500 0.014626
v -0.012848 0.005500 0.009519
v -0.014047 0.008000 0.007639
v -0.014109 0.005500 0.007524
v -0.012110 0.005500 -0.010441
v -0.014887 0.002000 -0.005734
v 0.000679 0.000000 -0.004944
v 0.002593 0.000000 -0.004264
v -0.015427 0.002000 0.004205
v -0.015063 0.005500 0.005365
v -0.014626 0.005500 0.006462
v 0.014109 0.005500 0.007524
v -0.012110 0.005500 0.010441
v -0.013515 0.005500 0.008545
v -0.012717 0.008000 0.009694
v -0.004431 0.000000 -0.002296
f 1 2 3
f 4 3 2
f 5 2 1
f 6 1 3
f 7 4 2
f 8 2 5
f 9 10 11
f 12 6 3
f 13 3 4
f 14 7 2
f 15 5 1
f 16 10 9
f 16 11 10
f 17 9 11
f 18 1 6
f 19 3 13
f 20 4 7
f 21 4 20
f 22 14 2
f 23 15 1
f 24 5 15
f 25 11 16
f 26 16 9
f 27 1 18
f 28 18 6
f 29 27 18
f 30 12 3
f 31 17 11
f 32 17 31
f 33 13 4
f 34 9 17
f 35 3 19
f 35 36 37
f 38 19 13
f 39 7 14
f 40 21 20
f 41 4 21
f 42 41 21
f 43 22 2
f 43 2 44
f 45 14 22
f 46 8 5
f 47 2 8
f 48 15 23
f 48 49 15
f 50 51 23
f 50 23 1
f 52 24 15
f 53 11 25
f 54 25 16
f 55 51 50
f 55 50 1
f 55 1 56
f 57 16 26
f 58 26 9
f 59 26 60
f 59 60 61
f 62 1 27
f 62 56 1
f 63 18 28
f 64 65 66
f 64 11 65
f 67 6 12
f 68 30 3
f 68 3 69
f 70 12 30
f 71 17 32
f 72 31 11
f 72 11 64
f 72 64 73
f 74 75 58
f 74 4 75
f 76 77 78
f 79 33 4
f 80 3 81
f 80 69 3
f 82 9 34
f 83 34 17
f 84 36 35
f 84 35 19
f 84 85 36
f 86 3 35
f 86 35 37
f 87 88 38
f 87 38 13
f 89 38 88
f 90 19 38
f 91 59 61
f 91 61 7
f 92 4 41
f 92 75 4
f 93 42 21
f 94 22 43
f 95 14 45
f 96 46 5
f 97 8 46
f 97 46 98
f 97 98 99
f 100 96 5
f 101 5 24
f 102 8 103
f 104 105 47
f 106 99 98
f 107 99 106
f 107 106 103
f 107 103 8
f 108 2 109
f 108 44 2
f 110 109 2
f 110 2 47
f 111 112 48
f 111 48 23
f 113 11 53
f 113 65 11
f 114 53 25
f 115 25 54
f 115 55 56
f 115 56 25
f 116 22 94
f 117 57 26
f 118 105 104
f 118 104 103
f 118 16 57
f 119 26 58
f 119 58 75
f 120 58 9
f 121 29 114
f 121 114 25
f 121 62 27
f 121 27 29
f 122 18 63
f 123 6 67
f 123 66 6
f 124 28 6
f 125 66 65
f 125 65 126
f 125 126 124
f 125 124 6
f 125 6 66
f 127 12 70
f 128 70 30
f 128 30 71
f 128 71 32
f 129 71 30
f 129 30 68
f 130 31 72
f 130 72 73
f 130 73 31
f 131 13 33
f 132 33 79
f 133 74 134
f 133 134 79
f 133 79 4
f 133 4 74
f 135 80 81
f 135 81 83
f 135 83 17
f 135 17 69
f 135 69 80
f 136 36 85
f 136 85 34
f 136 34 83
f 136 83 37
f 136 37 36
f 137 85 84
f 137 84 19
f 137 19 85
f 138 86 37
f 138 37 83
f 138 83 81
f 139 3 86
f 139 86 138
f 139 138 81
f 139 81 3
f 140 76 78
f 140 78 88
f 140 88 87
f 140 87 13
f 140 13 76
f 141 78 9
f 141 9 82
f 141 82 34
f 141 34 85
f 141 142 89
f 141 89 88
f 141 88 78
f 143 89 142
f 143 142 90
f 143 90 38
f 143 38 89
f 144 85 19
f 144 19 90
f 144 90 142
f 144 142 141
f 144 141 85
f 145 146 147
f 148 14 145
f 148 145 147
f 148 39 14
f 149 91 7
f 149 7 39
f 150 147 146
f 151 20 7
f 152 153 40
f 152 40 20
f 154 92 41
f 154 41 42
f 155 40 153
f 156 155 93
f 156 93 21
f 156 21 40
f 157 8 97
f 157 97 99
f 157 99 107
f 157 107 8
f 158 46 96
f 158 96 100
f 158 100 159
f 158 159 106
f 158 106 98
f 158 98 46
f 160 159 100
f 160 100 5
f 161 111 23
f 161 23 51
f 162 159 160
f 162 160 163
f 162 16 159
f 164 24 52
f 165 54 16
f 166 5 101
f 166 101 163
f 166 163 160
f 166 160 5
f 167 102 103
f 167 103 104
f 167 104 47
f 167 47 8
f 167 8 102
f 168 110 47
f 168 47 105
f 169 51 55
f 169 55 115
f 169 115 54
f 169 54 161
f 169 161 51
f 170 45 22
f 170 22 116
f 170 116 57
f 171 116 94
f 171 94 43
f 171 43 44
f 172 59 146
f 172 146 117
f 172 117 26
f 172 26 59
f 173 57 117
f 173 117 146
f 174 16 118
f 174 118 103
f 174 103 106
f 175 108 109
f 175 118 57
f 175 44 108
f 176 26 119
f 176 119 154
f 176 154 42
f 176 42 93
f 177 120 9
f 177 9 78
f 177 78 77
f 178 58 120
f 179 56 62
f 179 62 121
f 179 121 25
f 179 25 56
f 180 181 63
f 182 53 181
f 182 181 180
f 182 126 65
f 182 65 113
f 182 113 53
f 183 63 181
f 183 181 122
f 183 122 63
f 184 29 18
f 184 18 122
f 184 122 181
f 184 114 29
f 185 114 184
f 185 184 181
f 185 181 53
f 185 53 114
f 186 123 67
f 187 73 188
f 189 186 67
f 189 67 188
f 189 188 73
f 189 73 64
f 190 12 187
f 190 187 188
f 190 188 67
f 190 67 12
f 191 28 124
f 191 124 126
f 192 127 70
f 193 31 73
f 193 127 192
f 193 192 70
f 193 70 128
f 193 128 32
f 193 32 31
f 194 69 17
f 194 17 71
f 194 71 129
f 194 129 68
f 194 68 69
f 195 13 131
f 195 76 13
f 196 33 132
f 197 91 149
f 197 149 39
f 197 39 150
f 197 150 146
f 197 146 59
f 197 59 91
f 198 148 147
f 198 147 150
f 198 150 39
f 198 39 148
f 199 151 7
f 199 7 61
f 200 151 201
f 200 201 202
f 200 202 20
f 200 20 151
f 203 75 92
f 203 92 154
f 203 154 119
f 203 119 75
f 204 153 152
f 204 152 20
f 204 20 202
f 205 26 176
f 205 60 26
f 206 155 156
f 206 156 40
f 206 40 155
f 207 208 49
f 207 49 48
f 207 48 112
f 207 112 111
f 207 111 161
f 207 161 54
f 207 54 165
f 207 165 208
f 209 163 101
f 209 101 24
f 209 24 164
f 209 164 208
f 209 208 162
f 209 162 163
f 210 49 208
f 210 208 164
f 210 164 52
f 210 52 15
f 210 15 49
f 211 208 165
f 211 165 16
f 211 16 162
f 211 162 208
f 212 109 110
f 212 110 168
f 212 168 105
f 213 95 45
f 213 45 170
f 213 170 57
f 213 57 173
f 213 173 146
f 213 146 145
f 213 145 14
f 213 14 95
f 214 16 174
f 214 106 159
f 214 159 16
f 215 171 44
f 215 44 175
f 215 175 57
f 215 57 116
f 215 116 171
f 216 205 176
f 216 176 93
f 216 93 155
f 217 218 120
f 217 120 177
f 217 177 77
f 217 77 218
f 219 178 120
f 219 120 218
f 220 58 178
f 220 134 74
f 220 74 58
f 221 180 63
f 221 63 28
f 222 126 182
f 222 28 191
f 222 191 126
f 223 66 123
f 223 123 186
f 223 186 189
f 223 189 64
f 223 64 66
f 224 187 12
f 224 12 127
f 224 127 193
f 224 193 73
f 224 73 187
f 225 218 77
f 226 33 227
f 226 131 33
f 228 201 151
f 228 151 199
f 228 199 61
f 228 61 60
f 228 60 201
f 229 155 153
f 229 153 204
f 229 204 202
f 229 202 201
f 229 201 60
f 229 60 205
f 230 118 175
f 230 175 109
f 230 109 212
f 230 212 105
f 230 105 118
f 231 106 214
f 231 214 174
f 231 174 106
f 232 134 220
f 232 220 178
f 232 178 219
f 232 219 132
f 232 132 79
f 232 79 134
f 233 132 219
f 233 219 196
f 233 196 132
f 234 227 33
f 234 33 196
f 234 196 219
f 234 219 218
f 234 218 227
f 235 180 221
f 235 221 28
f 235 28 222
f 235 222 182
f 235 182 180
f 236 225 77
f 236 77 76
f 236 76 195
f 237 227 218
f 237 218 225
f 237 225 131
f 237 131 226
f 237 226 227
f 238 131 225
f 238 225 236
f 238 236 195
f 238 195 131
f 239 216 155
f 239 155 229
f 239 229 205
f 239 205 216
