# Convex hull collision mesh — generated by scripts/generate-collision-meshes.mjs (units: meters)
v -0.014500 -0.002200 -0.025400
v -0.014500 -0.040000 -0.028300
v -0.014500 -0.006500 0.005700
v -0.012300 -0.046500 -0.025400
v 0.009050 -0.046500 -0.017300
v -0.012300 -0.046500 0.002600
v -0.014500 -0.044300 0.002600
v 0.014500 -0.040000 0.005700
v 0.014500 -0.044300 -0.028300
v 0.014500 -0.006500 0.005700
v 0.014500 -0.002200 -0.022800
v 0.008000 0.000000 -0.028300
v -0.008000 0.000000 0.005700
v 0.012300 0.000000 -0.022800
v 0.012300 0.000000 0.002600
v -0.014500 -0.002200 0.002600
v 0.012300 -0.046500 -0.025400
v -0.008000 -0.046500 -0.028300
v -0.014500 -0.044300 -0.025400
v 0.012300 -0.046500 0.002600
v 0.014500 -0.020500 -0.028300
v 0.012300 0.000000 -0.025400
v -0.014500 -0.006500 -0.028300
v -0.012300 0.000000 -0.025400
v 0.014500 -0.002200 0.002600
v -0.006930 -0.003380 0.008000
v 0.012300 -0.046500 -0.028300
v 0.014500 -0.044300 0.002600
v 0.014500 -0.006500 -0.028300
v -0.012300 0.000000 0.002600
v -0.008000 0.000000 -0.028300
v 0.008000 0.000000 0.005700
v 0.008000 -0.046500 0.005700
v -0.014500 -0.040000 0.005700
v 0.014500 -0.002200 -0.025400
v -0.004939 -0.001962 0.008000
v -0.003832 -0.001439 0.008000
v -0.002441 -0.014232 0.010000
v 0.004050 -0.011000 0.010000
v -0.003443 -0.013132 0.010000
v -0.008000 -0.046500 0.005700
v 0.001805 -0.007375 0.010000
v 0.010300 -0.011000 0.008000
v -0.003443 -0.008868 0.010000
v -0.010300 -0.011000 0.008000
v -0.002993 -0.013728 0.010000
v 0.001805 -0.014625 0.010000
v 0.000250 -0.000703 0.008000
v 0.006930 -0.003380 0.008000
v 0.003443 -0.008868 0.010000
v 0.010225 -0.012242 0.008000
v -0.001108 -0.007105 0.010000
v -0.003981 -0.011744 0.010000
v 0.002993 -0.013728 0.010000
v -0.000374 -0.015033 0.010000
v 0.005977 -0.002612 0.008000
v 0.004939 -0.001962 0.008000
v 0.007786 -0.004257 0.008000
v 0.008531 -0.005228 0.008000
v 0.002441 -0.007768 0.010000
v 0.009156 -0.006282 0.008000
v 0.009651 -0.007402 0.008000
v 0.010227 -0.009778 0.008000
v 0.003777 -0.009537 0.010000
v 0.000374 -0.006967 0.010000
v -0.001805 -0.007375 0.010000
v -0.007786 -0.004257 0.008000
v -0.009651 -0.007402 0.008000
v -0.009156 -0.006282 0.008000
v -0.010010 -0.008572 0.008000
v -0.003981 -0.010256 0.010000
v -0.003777 -0.012463 0.010000
v -0.010225 -0.012242 0.008000
v 0.003777 -0.012463 0.010000
v 0.002441 -0.014232 0.010000
v -0.001108 -0.014895 0.010000
v 0.001108 -0.014895 0.010000
v 0.003832 -0.001439 0.008000
v 0.002670 -0.001052 0.008000
v 0.001470 -0.000805 0.008000
v 0.002993 -0.008272 0.010000
v 0.003981 -0.010256 0.010000
v 0.001108 -0.007105 0.010000
v -0.005977 -0.002612 0.008000
v -0.002993 -0.008272 0.010000
v -0.000250 -0.000703 0.008000
v -0.001470 -0.000805 0.008000
v -0.002670 -0.001052 0.008000
v -0.000374 -0.006967 0.010000
v -0.008531 -0.005228 0.008000
v -0.003777 -0.009537 0.010000
v -0.004050 -0.011000 0.010000
v -0.010227 -0.009778 0.008000
v 0.003981 -0.011744 0.010000
v 0.003443 -0.013132 0.010000
v -0.001805 -0.014625 0.010000
v 0.000374 -0.015033 0.010000
v 0.010010 -0.008572 0.008000
v -0.002441 -0.007768 0.010000
f 1 2 3
f 4 5 6
f 7 4 6
f 7 3 2
f 8 9 10
f 11 10 9
f 12 9 2
f 12 13 14
f 15 14 13
f 15 11 14
f 16 1 3
f 17 5 4
f 18 17 4
f 18 4 2
f 18 2 9
f 19 4 7
f 19 7 2
f 19 2 4
f 20 5 17
f 20 17 9
f 20 6 5
f 21 9 12
f 21 11 9
f 22 12 14
f 22 14 11
f 23 12 2
f 23 2 1
f 24 13 12
f 24 23 1
f 24 1 16
f 25 11 15
f 25 15 10
f 25 10 11
f 26 13 3
f 27 17 18
f 27 18 9
f 27 9 17
f 28 8 20
f 28 20 9
f 28 9 8
f 29 21 12
f 29 12 22
f 29 11 21
f 30 13 24
f 30 24 16
f 30 16 3
f 30 3 13
f 31 23 24
f 31 24 12
f 31 12 23
f 32 10 15
f 32 15 13
f 33 6 20
f 33 20 8
f 34 3 7
f 34 7 6
f 35 11 29
f 35 29 22
f 35 22 11
f 36 37 13
f 38 39 40
f 41 34 6
f 41 6 33
f 42 40 39
f 43 8 10
f 44 40 42
f 45 3 34
f 46 34 41
f 46 41 38
f 46 38 40
f 46 40 34
f 47 39 38
f 48 32 13
f 49 10 32
f 50 42 39
f 51 8 43
f 51 43 39
f 52 44 42
f 53 40 44
f 54 39 47
f 54 33 8
f 55 41 33
f 55 47 38
f 56 49 32
f 56 32 57
f 58 59 10
f 58 10 49
f 60 42 50
f 60 49 56
f 60 56 57
f 60 57 42
f 61 62 10
f 61 10 59
f 61 59 50
f 63 43 10
f 63 39 43
f 64 62 61
f 64 61 50
f 64 50 39
f 65 52 42
f 66 44 52
f 66 52 37
f 66 37 36
f 67 26 3
f 68 69 3
f 68 3 70
f 71 53 44
f 72 40 53
f 72 53 34
f 72 34 40
f 73 34 53
f 73 45 34
f 74 39 54
f 75 33 54
f 75 54 47
f 75 47 33
f 76 41 55
f 76 55 38
f 77 47 55
f 77 33 47
f 78 32 79
f 78 42 57
f 78 57 32
f 80 48 65
f 80 79 32
f 80 32 48
f 81 58 49
f 81 49 60
f 81 60 50
f 81 50 59
f 81 59 58
f 82 64 39
f 82 39 63
f 83 79 80
f 83 80 65
f 83 65 42
f 83 42 78
f 83 78 79
f 84 36 13
f 84 13 26
f 85 44 66
f 85 26 67
f 86 48 13
f 86 13 87
f 86 65 48
f 88 52 87
f 88 87 13
f 88 13 37
f 88 37 52
f 89 65 86
f 89 86 87
f 89 87 52
f 89 52 65
f 90 69 44
f 90 44 85
f 90 85 67
f 90 67 3
f 90 3 69
f 91 68 70
f 91 70 71
f 91 71 44
f 91 44 69
f 91 69 68
f 92 53 71
f 92 45 73
f 92 73 53
f 93 45 92
f 93 92 71
f 93 71 70
f 93 70 3
f 93 3 45
f 94 39 74
f 94 74 8
f 94 8 51
f 94 51 39
f 95 8 74
f 95 74 54
f 95 54 8
f 96 41 76
f 96 76 38
f 96 38 41
f 97 33 77
f 97 77 55
f 97 55 33
f 98 62 64
f 98 64 82
f 98 82 63
f 98 63 10
f 98 10 62
f 99 84 26
f 99 26 85
f 99 85 66
f 99 66 36
f 99 36 84
