# Convex hull collision mesh — generated by scripts/generate-collision-meshes.mjs (units: meters)
v 0.045879 0.005120 0.000000
v 0.045879 -0.049380 0.044000
v 0.045879 -0.049380 0.000000
v 0.043879 -0.051380 0.044000
v 0.045879 0.005120 0.044000
v 0.043879 0.007120 0.044000
v 0.012379 -0.049380 0.044000
v 0.012379 0.005120 0.044000
v 0.012379 -0.049380 0.000000
v 0.014379 -0.051380 0.044000
v 0.037749 -0.016361 0.046500
v 0.027562 0.006275 0.046500
v 0.033229 -0.006830 0.046500
v 0.012379 0.005120 0.000000
v 0.043879 0.007120 0.000000
v 0.041929 -0.006630 -0.002500
v 0.031879 -0.006630 -0.007800
v 0.028797 -0.009360 -0.007800
v 0.026694 -0.005352 -0.007800
v 0.016129 -0.006630 0.046500
v 0.037749 0.003100 0.046500
v 0.042129 -0.006630 0.046500
v 0.016353 -0.007418 -0.002500
v 0.028797 -0.003900 -0.007800
v 0.031187 -0.004807 -0.007800
v 0.041831 -0.005057 -0.002500
v 0.031187 -0.008454 -0.007800
v 0.014379 -0.051380 0.000000
v 0.026694 -0.007908 -0.007800
v 0.019398 0.001990 0.046500
v 0.029129 -0.019630 0.046500
v 0.020508 -0.016361 0.046500
v 0.033738 0.005525 0.046500
v 0.041284 -0.002021 0.046500
v 0.041284 -0.011240 0.046500
v 0.016353 -0.005842 -0.002500
v 0.014379 0.007120 0.000000
v 0.030104 -0.004059 -0.007800
v 0.031564 -0.005352 -0.007800
v 0.031564 -0.007908 -0.007800
v 0.043879 -0.051380 0.000000
v 0.026379 -0.006630 -0.007800
v 0.027566 -0.008894 -0.007800
v 0.016973 -0.002021 0.046500
v 0.023087 0.004881 0.046500
v 0.033738 -0.018786 0.046500
v 0.016973 -0.011240 0.046500
v 0.024519 -0.018786 0.046500
v 0.036513 0.004068 0.046500
v 0.030695 0.006275 0.046500
v 0.039827 0.000754 0.046500
v 0.041751 -0.003519 0.046500
v 0.039827 -0.014015 0.046500
v 0.041751 -0.009742 0.046500
v 0.014379 0.007120 0.044000
v 0.028153 -0.004059 -0.007800
v 0.025626 0.005681 -0.002500
v 0.030691 -0.004367 -0.007800
v 0.029460 -0.003900 -0.007800
v 0.031867 0.005873 -0.002500
v 0.028734 0.006164 -0.002500
v 0.033383 0.005442 -0.002500
v 0.031799 -0.005972 -0.007800
v 0.031799 -0.007289 -0.007800
v 0.030104 -0.009202 -0.007800
v 0.026458 -0.007289 -0.007800
v 0.026458 -0.005972 -0.007800
v 0.027070 -0.008454 -0.007800
v 0.028153 -0.009202 -0.007800
v 0.018430 0.000754 0.046500
v 0.016506 -0.003519 0.046500
v 0.030695 -0.019536 0.046500
v 0.035170 -0.018141 0.046500
v 0.018430 -0.014015 0.046500
v 0.016506 -0.009742 0.046500
v 0.027562 -0.019536 0.046500
v 0.023087 -0.018141 0.046500
v 0.035170 0.004881 0.046500
v 0.029129 0.006370 0.046500
v 0.032240 0.005992 0.046500
v 0.040639 -0.000589 0.046500
v 0.038859 0.001990 0.046500
v 0.042034 -0.005063 0.046500
v 0.040639 -0.012672 0.046500
v 0.038859 -0.015251 0.046500
v 0.042034 -0.008197 0.046500
v 0.024519 0.005525 0.046500
v 0.020508 0.003100 0.046500
v 0.027070 -0.004807 -0.007800
v 0.027165 0.006018 -0.002500
v 0.029129 0.006370 -0.002300
v 0.030691 -0.008894 -0.007800
v 0.029460 -0.009360 -0.007800
v 0.017618 -0.000589 0.046500
v 0.016223 -0.005063 0.046500
v 0.032240 -0.019253 0.046500
v 0.036513 -0.017329 0.046500
v 0.017618 -0.012672 0.046500
v 0.019398 -0.015251 0.046500
v 0.016223 -0.008197 0.046500
v 0.026017 -0.019253 0.046500
v 0.021744 -0.017329 0.046500
v 0.026017 0.005992 0.046500
v 0.021744 0.004068 0.046500
v 0.027566 -0.004367 -0.007800
v 0.027562 0.006275 -0.002300
v 0.030310 0.006115 -0.002500
v 0.030695 0.006275 -0.002300
f 1 2 3
f 4 3 2
f 5 2 1
f 5 1 6
f 7 8 9
f 7 9 10
f 11 4 2
f 11 12 13
f 14 9 8
f 15 6 1
f 16 3 17
f 16 1 3
f 18 19 17
f 20 11 13
f 20 13 12
f 20 8 7
f 21 12 11
f 21 5 6
f 22 21 11
f 22 2 5
f 23 9 14
f 24 17 19
f 25 17 24
f 25 15 1
f 26 1 16
f 26 16 17
f 26 17 1
f 27 18 17
f 28 4 10
f 28 10 9
f 29 19 18
f 30 20 12
f 31 11 20
f 31 10 4
f 32 31 20
f 32 7 10
f 33 12 21
f 34 21 22
f 35 22 11
f 36 23 14
f 37 14 8
f 37 6 15
f 38 25 24
f 39 17 25
f 39 25 1
f 40 3 27
f 40 27 17
f 41 27 3
f 41 3 4
f 41 4 28
f 41 28 18
f 42 23 36
f 42 36 14
f 42 19 29
f 42 9 23
f 43 29 18
f 44 20 30
f 45 30 12
f 46 11 31
f 47 32 20
f 48 31 32
f 49 33 21
f 49 21 6
f 50 12 33
f 51 21 34
f 52 5 34
f 52 34 22
f 53 35 11
f 54 22 35
f 54 35 2
f 55 6 37
f 55 37 8
f 56 24 19
f 56 37 57
f 56 57 24
f 58 25 38
f 58 38 15
f 58 15 25
f 59 60 38
f 59 38 24
f 59 24 61
f 62 15 38
f 62 38 60
f 62 60 15
f 63 17 39
f 63 39 1
f 63 1 17
f 64 3 40
f 64 40 17
f 64 17 3
f 65 18 27
f 66 9 42
f 66 42 29
f 66 29 9
f 67 19 42
f 67 42 14
f 67 14 19
f 68 9 29
f 68 29 43
f 68 43 28
f 68 28 9
f 69 28 43
f 69 43 18
f 69 18 28
f 70 44 30
f 70 30 8
f 71 20 44
f 71 44 8
f 72 46 31
f 72 31 4
f 73 11 46
f 73 46 4
f 74 32 47
f 75 7 47
f 75 47 20
f 76 31 48
f 76 10 31
f 77 10 48
f 77 48 32
f 78 33 49
f 78 49 6
f 78 6 33
f 79 12 50
f 79 50 6
f 79 6 55
f 79 55 12
f 80 6 50
f 80 50 33
f 80 33 6
f 81 5 51
f 81 51 34
f 81 34 5
f 82 21 51
f 82 51 5
f 82 5 21
f 83 5 52
f 83 52 22
f 83 22 5
f 84 35 53
f 84 53 2
f 84 2 35
f 85 2 53
f 85 53 11
f 85 11 2
f 86 22 54
f 86 54 2
f 86 2 22
f 87 55 45
f 87 45 12
f 88 30 45
f 88 55 8
f 88 8 30
f 89 56 19
f 89 19 14
f 89 14 37
f 90 61 24
f 90 24 57
f 90 57 37
f 91 37 15
f 92 41 65
f 92 65 27
f 92 27 41
f 93 18 65
f 93 65 41
f 93 41 18
f 94 44 70
f 94 70 8
f 94 8 44
f 95 20 71
f 95 71 8
f 95 8 20
f 96 46 72
f 96 72 4
f 96 4 46
f 97 11 73
f 97 73 4
f 97 4 11
f 98 7 74
f 98 74 47
f 98 47 7
f 99 32 74
f 99 74 7
f 99 7 32
f 100 7 75
f 100 75 20
f 100 20 7
f 101 10 76
f 101 76 48
f 101 48 10
f 102 10 77
f 102 77 32
f 102 32 10
f 103 55 87
f 103 87 12
f 103 12 55
f 104 55 88
f 104 88 45
f 104 45 55
f 105 56 89
f 105 89 37
f 105 37 56
f 106 61 90
f 106 90 37
f 106 37 91
f 106 91 61
f 107 60 59
f 107 59 61
f 107 61 91
f 107 15 60
f 108 15 107
f 108 107 91
f 108 91 15
