# Convex hull collision mesh — generated by scripts/generate-collision-meshes.mjs (units: meters)
v 0.017897 0.027264 -0.054000
v 0.027264 -0.017897 -0.054000
v -0.025049 0.017281 -0.054000
v 0.017095 -0.027650 -0.054000
v -0.027700 0.016650 -0.054000
v -0.003250 -0.001548 0.021100
v -0.002138 0.002896 0.021100
v -0.003250 0.001548 0.021100
v -0.027700 0.025700 0.000000
v 0.028200 -0.025700 -0.000500
v 0.028200 -0.016650 -0.053500
v 0.028200 0.025700 -0.000500
v 0.027700 -0.025700 0.000000
v 0.003600 0.000000 0.021100
v 0.000358 -0.003582 0.021100
v -0.025700 -0.027700 0.000000
v 0.025700 -0.028200 -0.000500
v -0.019800 -0.027700 0.000000
v -0.017897 -0.027264 -0.054000
v -0.025700 0.028200 -0.000500
v -0.025700 0.027700 0.000000
v 0.025700 0.027700 0.000000
v 0.000358 0.003582 0.021100
v 0.025700 0.028200 -0.000500
v 0.000096 0.036200 -0.045206
v -0.018650 0.023150 -0.054000
v -0.028200 -0.016650 -0.053500
v -0.028200 -0.016650 -0.042500
v -0.028200 0.016650 -0.053500
v -0.018595 -0.027251 -0.053611
v -0.027259 -0.027655 -0.005000
v -0.027645 -0.018201 -0.053611
v -0.002777 0.002291 0.021100
v -0.026947 0.027264 0.000000
v -0.026145 0.027650 0.000000
v -0.002777 -0.002291 0.021100
v -0.027264 -0.026947 0.000000
v 0.028200 0.016650 -0.042500
v 0.027700 0.025700 0.000000
v 0.027650 -0.026145 0.000000
v 0.027655 0.027259 -0.000500
v 0.027502 0.026568 0.000000
v 0.027952 0.026785 -0.000500
v -0.013800 -0.027700 0.000000
v 0.027655 -0.027259 -0.005000
v 0.027952 -0.026785 -0.000500
v 0.027655 -0.027259 -0.000500
v 0.027259 -0.027655 -0.005000
v 0.027251 -0.018595 -0.053611
v 0.017206 -0.028137 -0.053500
v 0.025700 -0.028200 -0.005000
v 0.016650 -0.028200 -0.053500
v 0.017204 -0.028125 -0.053611
v -0.026785 -0.027952 -0.005000
v -0.027259 -0.027655 -0.000500
v -0.019800 -0.028200 -0.000500
v -0.027650 -0.017095 -0.054000
v 0.017729 -0.027941 -0.053611
v 0.018178 -0.027616 -0.053717
v 0.027616 -0.018178 -0.053717
v 0.018032 -0.027433 -0.053950
v 0.017966 -0.027351 -0.053987
v 0.027433 -0.018032 -0.053950
v -0.002199 0.036200 -0.046870
v -0.002199 0.036200 -0.047931
v 0.026145 0.027650 0.000000
v 0.002669 0.002416 0.021100
v -0.026256 0.028137 -0.005000
v -0.026785 0.027952 -0.005000
v -0.026785 0.027952 -0.000500
v 0.026785 0.027952 -0.000500
v 0.026568 0.027502 0.000000
v 0.027259 0.027655 -0.000500
v -0.028200 0.019800 -0.000500
v -0.018178 -0.027616 -0.053717
v -0.027569 -0.018141 -0.053812
v -0.018141 -0.027569 -0.053812
v -0.026568 0.027502 0.000000
v -0.026256 0.028137 -0.000500
v -0.000522 0.003562 0.021100
v 0.028200 0.025700 -0.005000
v 0.027351 -0.017966 -0.053987
v 0.027141 -0.018457 -0.053891
v 0.027650 0.017095 -0.054000
v 0.027854 -0.017687 -0.053812
v 0.028089 -0.017195 -0.053717
v 0.027908 -0.017713 -0.053717
v 0.028137 0.026256 -0.000500
v 0.001884 0.036200 -0.048148
v 0.025700 -0.027700 0.000000
v 0.026256 -0.028137 -0.005000
v 0.027259 -0.027655 -0.000500
v 0.027264 -0.026947 0.000000
v 0.026568 -0.027502 0.000000
v 0.026785 -0.027952 -0.000500
v 0.014375 -0.028300 -0.023890
v -0.025700 -0.028200 -0.000500
v -0.026256 -0.028137 -0.005000
v -0.025700 -0.028200 -0.005000
v -0.027700 -0.016650 -0.054000
v -0.027758 -0.017120 -0.053987
v -0.027264 -0.017897 -0.054000
v -0.017687 -0.027854 -0.053812
v -0.016650 -0.027700 -0.054000
v 0.016650 -0.027917 -0.053950
v 0.016650 -0.028012 -0.053891
v -0.016650 -0.027917 -0.053950
v 0.017164 -0.027954 -0.053891
v 0.016650 -0.028091 -0.053812
v 0.018201 -0.027645 -0.053611
v 0.018141 -0.027569 -0.053812
v 0.017897 -0.027264 -0.054000
v -0.000454 0.036200 -0.045342
v 0.026947 0.027264 0.000000
v 0.002003 0.002991 0.021100
v 0.003176 0.001695 0.021100
v -0.002377 0.036200 -0.047591
v -0.027952 0.026785 -0.005000
v -0.028137 0.026256 -0.005000
v -0.027952 0.026785 -0.000500
v -0.027952 0.017735 -0.053500
v -0.028137 0.017206 -0.053500
v -0.027655 0.027259 -0.005000
v -0.028200 -0.025700 -0.000500
v -0.028200 0.019800 -0.002700
v -0.028200 0.025700 -0.005000
v -0.028200 0.025700 -0.000500
v -0.026947 -0.027264 0.000000
v -0.026568 -0.027502 0.000000
v -0.000522 -0.003562 0.021100
v -0.027811 -0.016650 -0.053987
v -0.027917 -0.016650 -0.053950
v -0.018209 -0.027655 -0.053500
v -0.017735 -0.027952 -0.053500
v -0.027141 -0.018457 -0.053891
v -0.027433 -0.018032 -0.053950
v -0.018383 -0.027082 -0.053950
v -0.027228 -0.018566 -0.053717
v -0.018301 -0.027016 -0.053987
v -0.001371 0.003329 0.021100
v 0.018457 -0.027141 -0.053891
v 0.018091 -0.027507 -0.053891
v 0.027264 0.017897 -0.054000
v 0.027700 0.016650 -0.054000
v 0.027758 0.017120 -0.053987
v 0.027811 0.016650 -0.053987
v 0.027941 -0.017729 -0.053611
v 0.027952 -0.017735 -0.053500
v 0.027655 -0.018209 -0.053500
v 0.027569 -0.018141 -0.053812
v 0.028031 -0.017182 -0.053812
v 0.027954 -0.017164 -0.053891
v 0.028091 -0.016650 -0.053812
v 0.027650 0.026145 0.000000
v 0.026785 0.027952 -0.005000
v -0.002054 0.036200 -0.048058
v 0.000096 0.036200 -0.049194
v 0.002308 0.036200 -0.047028
v 0.003176 -0.001695 0.021100
v 0.026145 -0.027650 0.000000
v 0.027645 -0.018201 -0.053611
v 0.026256 -0.028137 -0.000500
v 0.026785 -0.027952 -0.005000
v 0.012375 -0.028300 -0.025890
v -0.013575 -0.028300 -0.024335
v -0.011625 -0.028300 -0.015890
v -0.026785 -0.027952 -0.000500
v -0.013625 -0.028300 -0.023890
v -0.027351 -0.017966 -0.053987
v -0.018032 -0.027433 -0.053950
v 0.016650 -0.027811 -0.053987
v -0.017206 -0.028137 -0.053500
v -0.016650 -0.028200 -0.053500
v -0.016650 -0.028187 -0.053611
v 0.016650 -0.028187 -0.053611
v 0.016650 -0.028150 -0.053717
v -0.016650 -0.028150 -0.053717
v -0.017195 -0.028089 -0.053717
v 0.017653 -0.027783 -0.053891
v 0.017195 -0.028089 -0.053717
v 0.017713 -0.027908 -0.053717
v -0.002054 0.036200 -0.046742
v -0.000284 0.036200 -0.045252
v 0.027264 0.026947 0.000000
v 0.001217 0.003388 0.021100
v -0.016650 0.027700 -0.054000
v -0.002308 0.036200 -0.047772
v -0.017729 0.027941 -0.053611
v -0.002400 0.036200 -0.047400
v -0.017735 0.027952 -0.053500
v -0.027650 0.026145 0.000000
v -0.027502 0.026568 0.000000
v -0.027264 0.026947 0.000000
v -0.027259 0.027655 -0.005000
v -0.027655 0.027259 -0.000500
v -0.027700 -0.025700 0.000000
v -0.028137 0.026256 -0.000500
v -0.028125 0.017204 -0.053611
v -0.001371 -0.003329 0.021100
v -0.027697 -0.017612 -0.053950
v -0.027783 -0.017653 -0.053891
v -0.027507 -0.018091 -0.053891
v -0.028187 -0.016650 -0.053611
v -0.028150 0.016650 -0.053717
v -0.028150 -0.016650 -0.053717
v -0.028089 -0.017195 -0.053717
v -0.028091 -0.016650 -0.053812
v -0.018201 -0.027645 -0.053611
v 0.028200 0.016650 -0.053500
v 0.028137 0.017206 -0.053500
v 0.027602 -0.017566 -0.053987
v 0.027697 -0.017612 -0.053950
v 0.027783 -0.017653 -0.053891
v 0.017966 0.027351 -0.053987
v 0.018032 0.027433 -0.053950
v 0.027433 0.018032 -0.053950
v 0.018457 0.027141 -0.053891
v 0.027351 0.017966 -0.053987
v 0.027952 -0.026785 -0.005000
v 0.028137 -0.026256 -0.005000
v 0.028200 -0.025700 -0.005000
v 0.028137 -0.026256 -0.000500
v 0.028137 -0.017206 -0.053500
v 0.003492 0.000874 0.021100
v 0.018201 0.027645 -0.053611
v 0.018178 0.027616 -0.053717
v 0.017729 0.027941 -0.053611
v 0.018209 0.027655 -0.053500
v 0.018519 0.027191 -0.053812
v 0.018141 0.027569 -0.053812
v 0.027259 0.027655 -0.005000
v 0.017735 0.027952 -0.053500
v -0.000454 0.036200 -0.049058
v 0.000454 0.036200 -0.049058
v 0.026256 0.028137 -0.000500
v 0.000454 0.036200 -0.045342
v 0.002054 0.036200 -0.048058
v 0.002003 -0.002991 0.021100
v 0.003492 -0.000874 0.021100
v 0.027502 -0.026568 0.000000
v 0.018209 -0.027655 -0.053500
v 0.013622 -0.028300 -0.025454
v 0.012820 -0.028300 -0.015940
v -0.026256 -0.028137 -0.000500
v -0.013575 -0.028300 -0.017445
v -0.027502 -0.017518 -0.054000
v -0.017966 -0.027351 -0.053987
v -0.016650 -0.027811 -0.053987
v 0.016650 -0.027700 -0.054000
v 0.017120 -0.027758 -0.053987
v -0.017653 -0.027783 -0.053891
v -0.017164 -0.027954 -0.053891
v -0.018091 -0.027507 -0.053891
v -0.017729 -0.027941 -0.053611
v -0.011625 -0.028300 -0.025890
v -0.016650 -0.028091 -0.053812
v 0.017182 -0.028031 -0.053812
v -0.000096 0.036200 -0.045206
v -0.026947 0.018214 -0.054000
v -0.002377 0.036200 -0.047209
v -0.018201 0.027645 -0.053611
v -0.027259 0.027655 -0.000500
v -0.027655 -0.027259 -0.000500
v -0.027502 -0.026568 0.000000
v -0.027952 -0.026785 -0.000500
v -0.028137 -0.026256 -0.000500
v -0.028137 -0.026256 -0.005000
v -0.028200 -0.025700 -0.005000
v -0.028137 -0.017206 -0.053500
v -0.028091 0.016650 -0.053812
v -0.028012 0.016650 -0.053891
v -0.028089 0.017195 -0.053717
v -0.027941 0.017729 -0.053611
v -0.028187 0.016650 -0.053611
v -0.002138 -0.002896 0.021100
v -0.027952 -0.026785 -0.005000
v -0.027952 -0.017735 -0.053500
v -0.027655 -0.018209 -0.053500
v -0.027602 -0.017566 -0.053987
v -0.027941 -0.017729 -0.053611
v -0.027908 -0.017713 -0.053717
v -0.027616 -0.018178 -0.053717
v -0.027854 -0.017687 -0.053812
v -0.027954 -0.017164 -0.053891
v -0.027861 -0.017143 -0.053950
v -0.028012 -0.016650 -0.053891
v 0.027697 0.017612 -0.053950
v 0.027783 0.017653 -0.053891
v 0.028150 -0.016650 -0.053717
v 0.028091 0.016650 -0.053812
v 0.027700 -0.016650 -0.054000
v 0.027507 -0.018091 -0.053891
v 0.018091 0.027507 -0.053891
v 0.027502 0.017518 -0.054000
v 0.028125 -0.017204 -0.053611
v 0.027861 -0.017143 -0.053950
v 0.027758 -0.017120 -0.053987
v 0.027917 -0.016650 -0.053950
v 0.018566 0.027228 -0.053717
v 0.027952 0.026785 -0.005000
v 0.027191 0.018519 -0.053812
v 0.017713 0.027908 -0.053717
v 0.017182 0.028031 -0.053812
v 0.017164 0.027954 -0.053891
v 0.002400 0.036200 -0.047400
v 0.002199 0.036200 -0.046870
v 0.000284 0.036200 -0.045252
v 0.026947 -0.027264 0.000000
v 0.001217 -0.003388 0.021100
v 0.002669 -0.002416 0.021100
v 0.017735 -0.027952 -0.053500
v 0.014177 -0.028300 -0.024758
v 0.012820 -0.028300 -0.025840
v 0.014325 -0.028300 -0.017445
v 0.012375 -0.028300 -0.015890
v -0.026145 -0.027650 0.000000
v -0.012872 -0.028300 -0.016326
v -0.013625 -0.028300 -0.017890
v -0.017566 -0.027602 -0.053987
v -0.018457 -0.027141 -0.053891
v 0.017143 -0.027861 -0.053950
v 0.017566 -0.027602 -0.053987
v -0.017713 -0.027908 -0.053717
v -0.017204 -0.028125 -0.053611
v -0.012872 -0.028300 -0.025454
v -0.017182 -0.028031 -0.053812
v -0.016650 -0.028012 -0.053891
v 0.017687 -0.027854 -0.053812
v -0.017897 0.027264 -0.054000
v -0.017195 0.028089 -0.053717
v -0.000284 0.036200 -0.049148
v -0.002308 0.036200 -0.047028
v -0.018178 0.027616 -0.053717
v -0.027655 0.018209 -0.053500
v -0.018209 0.027655 -0.053500
v -0.027650 -0.026145 0.000000
v -0.028125 -0.017204 -0.053611
v -0.027141 0.018457 -0.053891
v -0.018032 0.027433 -0.053950
v -0.027082 0.018383 -0.053950
v -0.027908 0.017713 -0.053717
v -0.027854 0.017687 -0.053812
v -0.027917 0.016650 -0.053950
v -0.027650 0.017095 -0.054000
v -0.027954 0.017164 -0.053891
v -0.027783 0.017653 -0.053891
v -0.027655 -0.027259 -0.005000
v -0.028031 -0.017182 -0.053812
v 0.027602 0.017566 -0.053987
v 0.028187 -0.016650 -0.053611
v 0.027917 0.016650 -0.053950
v 0.028012 -0.016650 -0.053891
v 0.027650 -0.017095 -0.054000
v 0.027811 -0.016650 -0.053987
v 0.028137 0.026256 -0.005000
v 0.027141 0.018457 -0.053891
v 0.016650 0.027700 -0.054000
v 0.016650 0.027811 -0.053987
v 0.017687 0.027854 -0.053812
v 0.000284 0.036200 -0.049148
v 0.017195 0.028089 -0.053717
v 0.017120 0.027758 -0.053987
v 0.002377 0.036200 -0.047591
v 0.026256 0.028137 -0.005000
v 0.002377 0.036200 -0.047209
v 0.002054 0.036200 -0.046742
v 0.013939 -0.028300 -0.025137
v 0.014325 -0.028300 -0.024335
v 0.013243 -0.028300 -0.025692
v 0.013622 -0.028300 -0.016326
v 0.014375 -0.028300 -0.017890
v -0.013427 -0.028300 -0.017022
v -0.012070 -0.028300 -0.015940
v -0.017120 -0.027758 -0.053987
v 0.017518 -0.027502 -0.054000
v 0.017612 -0.027697 -0.053950
v -0.012070 -0.028300 -0.025840
v -0.013427 -0.028300 -0.024758
v -0.017966 0.027351 -0.053987
v -0.017687 0.027854 -0.053812
v -0.018141 0.027569 -0.053812
v -0.017653 0.027783 -0.053891
v -0.018091 0.027507 -0.053891
v -0.017164 0.027954 -0.053891
v -0.017612 0.027697 -0.053950
v -0.000096 0.036200 -0.049194
v -0.016650 0.027917 -0.053950
v -0.017182 0.028031 -0.053812
v -0.027191 0.018519 -0.053812
v -0.027616 0.018178 -0.053717
v -0.027645 0.018201 -0.053611
v -0.018457 0.027141 -0.053891
v -0.027758 0.017120 -0.053987
v -0.028031 0.017182 -0.053812
v 0.028150 0.016650 -0.053717
v 0.028089 0.017195 -0.053717
v 0.028125 0.017204 -0.053611
v 0.027502 -0.017518 -0.054000
v 0.027616 0.018178 -0.053717
v 0.027952 0.017735 -0.053500
v 0.027655 0.018209 -0.053500
v 0.027655 0.027259 -0.005000
v -0.017143 0.027861 -0.053950
v -0.016650 0.027811 -0.053987
v 0.016650 0.027917 -0.053950
v 0.017653 0.027783 -0.053891
v 0.017612 0.027697 -0.053950
v 0.017518 0.027502 -0.054000
v 0.017566 0.027602 -0.053987
v 0.002199 0.036200 -0.047931
v 0.013243 -0.028300 -0.016088
v 0.014177 -0.028300 -0.017022
v -0.013189 -0.028300 -0.016643
v -0.012493 -0.028300 -0.016088
v -0.017095 -0.027650 -0.054000
v -0.017143 -0.027861 -0.053950
v -0.012493 -0.028300 -0.025692
v -0.013189 -0.028300 -0.025137
v -0.027351 0.017966 -0.053987
v -0.017713 0.027908 -0.053717
v -0.016650 0.028012 -0.053891
v -0.027569 0.018141 -0.053812
v -0.027507 0.018091 -0.053891
v -0.027811 0.016650 -0.053987
v -0.027861 0.017143 -0.053950
v -0.027697 0.017612 -0.053950
v 0.028031 0.017182 -0.053812
v 0.027954 0.017164 -0.053891
v 0.027861 0.017143 -0.053950
v 0.028012 0.016650 -0.053891
v 0.028187 0.016650 -0.053611
v 0.027569 0.018141 -0.053812
v 0.027645 0.018201 -0.053611
v 0.027854 0.017687 -0.053812
v 0.027941 0.017729 -0.053611
v -0.017120 0.027758 -0.053987
v 0.016650 0.028012 -0.053891
v 0.017143 0.027861 -0.053950
v 0.017095 0.027650 -0.054000
v 0.002308 0.036200 -0.047772
v 0.013939 -0.028300 -0.016643
v -0.017518 -0.027502 -0.054000
v -0.017612 -0.027697 -0.053950
v -0.027264 0.017897 -0.054000
v -0.027433 0.018032 -0.053950
v 0.027507 0.018091 -0.053891
v 0.027908 0.017713 -0.053717
v -0.017566 0.027602 -0.053987
v -0.017095 0.027650 -0.054000
v -0.027602 0.017566 -0.053987
v -0.017518 0.027502 -0.054000
v -0.027502 0.017518 -0.054000
f 1 2 3
f 4 3 2
f 5 3 4
f 6 7 8
f 6 8 9
f 10 11 12
f 10 12 13
f 14 7 6
f 15 14 6
f 16 17 18
f 16 18 15
f 19 5 4
f 20 21 22
f 23 22 21
f 23 7 14
f 24 25 20
f 24 20 22
f 26 1 3
f 26 3 5
f 27 28 29
f 30 31 32
f 33 7 34
f 33 8 7
f 35 21 20
f 36 15 6
f 36 6 37
f 38 12 11
f 39 14 13
f 39 13 12
f 40 13 14
f 40 10 13
f 41 42 43
f 44 18 17
f 44 15 18
f 45 46 47
f 45 47 48
f 45 48 49
f 50 51 52
f 50 52 53
f 54 55 31
f 56 17 16
f 57 5 19
f 58 50 53
f 59 60 49
f 61 62 63
f 64 25 65
f 66 22 23
f 66 24 22
f 67 23 14
f 68 69 70
f 71 66 72
f 71 72 73
f 74 29 28
f 75 30 32
f 76 77 75
f 78 34 7
f 78 35 70
f 79 70 35
f 79 35 20
f 79 20 64
f 79 68 70
f 80 7 23
f 80 23 21
f 80 21 35
f 81 12 38
f 82 63 62
f 82 62 2
f 83 61 63
f 84 2 1
f 85 86 87
f 85 87 60
f 88 12 81
f 89 65 25
f 90 15 44
f 90 44 17
f 91 51 50
f 91 17 51
f 92 47 93
f 92 94 95
f 92 95 48
f 92 48 47
f 96 51 17
f 97 98 99
f 97 56 16
f 100 5 57
f 100 57 101
f 102 57 19
f 103 75 77
f 104 19 4
f 105 106 107
f 108 106 105
f 108 109 106
f 110 58 59
f 110 59 49
f 110 49 48
f 111 60 59
f 112 2 62
f 112 4 2
f 113 25 64
f 114 41 73
f 114 73 72
f 115 23 67
f 115 67 114
f 115 114 72
f 116 67 14
f 117 64 65
f 118 119 120
f 118 121 122
f 118 122 119
f 123 118 120
f 124 9 74
f 124 74 28
f 124 28 27
f 125 29 74
f 126 119 122
f 126 122 29
f 126 29 125
f 126 125 74
f 127 119 126
f 127 126 74
f 127 74 9
f 128 55 129
f 128 36 37
f 128 37 55
f 130 15 36
f 130 16 15
f 131 101 132
f 131 5 100
f 131 100 101
f 133 134 54
f 133 54 31
f 135 77 76
f 135 136 137
f 138 76 75
f 138 75 32
f 139 137 136
f 139 102 19
f 140 78 7
f 140 7 80
f 140 80 35
f 140 35 78
f 141 61 83
f 141 83 111
f 141 111 142
f 141 142 61
f 143 84 1
f 144 84 145
f 144 145 146
f 144 2 84
f 147 87 86
f 147 148 149
f 147 60 87
f 150 85 60
f 150 60 111
f 150 111 83
f 151 86 85
f 151 85 152
f 151 152 153
f 151 153 86
f 154 14 39
f 154 39 12
f 154 12 88
f 154 88 43
f 154 43 42
f 155 71 73
f 156 65 89
f 157 156 89
f 158 89 25
f 159 14 15
f 160 95 94
f 160 15 90
f 160 90 17
f 161 49 60
f 161 60 147
f 161 147 149
f 161 149 45
f 161 45 49
f 162 17 91
f 162 91 95
f 162 95 160
f 162 160 17
f 163 48 95
f 163 95 91
f 163 91 50
f 164 96 165
f 166 56 97
f 166 165 96
f 166 17 56
f 167 54 98
f 167 129 55
f 167 55 54
f 168 165 166
f 168 97 99
f 168 99 165
f 169 102 139
f 169 139 136
f 170 137 139
f 170 135 137
f 171 105 107
f 172 98 54
f 172 54 134
f 172 99 98
f 173 165 99
f 173 99 172
f 173 174 52
f 173 52 164
f 175 52 174
f 175 174 176
f 175 53 52
f 177 174 178
f 177 109 176
f 177 176 174
f 179 61 142
f 179 142 111
f 180 53 175
f 180 175 176
f 180 176 109
f 180 58 53
f 181 58 180
f 181 59 58
f 182 20 113
f 182 113 64
f 182 64 20
f 183 25 113
f 183 113 20
f 184 42 41
f 184 41 114
f 184 114 67
f 184 67 116
f 184 116 42
f 185 23 115
f 185 115 72
f 185 72 66
f 185 66 23
f 186 26 5
f 186 1 26
f 187 188 117
f 187 117 65
f 187 65 188
f 189 68 79
f 189 64 117
f 189 117 69
f 189 69 68
f 190 69 117
f 190 117 188
f 191 9 8
f 191 8 192
f 191 192 120
f 191 127 9
f 193 192 8
f 193 8 33
f 193 33 34
f 194 70 69
f 195 194 123
f 195 123 120
f 195 120 192
f 195 192 193
f 195 193 34
f 196 6 9
f 196 9 124
f 197 119 127
f 197 127 191
f 197 191 120
f 197 120 119
f 198 29 122
f 199 130 36
f 200 136 201
f 202 76 201
f 202 201 136
f 202 136 135
f 202 135 76
f 203 27 29
f 203 204 205
f 203 205 206
f 207 206 205
f 207 205 204
f 208 30 75
f 208 133 31
f 208 31 30
f 209 210 81
f 209 81 38
f 209 38 11
f 211 82 2
f 211 212 63
f 211 63 82
f 213 85 150
f 213 63 212
f 213 152 85
f 214 215 216
f 214 143 1
f 217 216 215
f 218 143 214
f 218 214 216
f 219 45 149
f 219 149 148
f 219 220 46
f 219 46 45
f 221 10 220
f 221 11 10
f 222 46 220
f 222 220 10
f 222 10 40
f 222 40 46
f 223 11 221
f 223 221 220
f 223 220 219
f 223 219 148
f 223 148 147
f 224 116 14
f 224 14 154
f 224 154 42
f 224 42 116
f 225 226 227
f 225 227 228
f 229 230 226
f 229 217 230
f 231 225 228
f 231 228 155
f 231 155 73
f 231 73 41
f 232 155 228
f 232 228 227
f 233 156 157
f 234 157 89
f 235 71 155
f 235 24 66
f 235 66 71
f 236 158 25
f 237 89 158
f 237 234 89
f 238 159 15
f 239 14 159
f 239 40 14
f 240 40 239
f 240 239 159
f 240 159 93
f 240 93 47
f 240 47 46
f 240 46 40
f 241 110 48
f 241 48 163
f 241 58 110
f 242 96 164
f 243 166 96
f 244 167 98
f 244 98 97
f 245 168 166
f 246 57 102
f 247 170 139
f 247 139 19
f 248 104 171
f 248 171 107
f 249 171 104
f 249 104 4
f 250 105 171
f 250 171 249
f 250 249 4
f 251 252 103
f 251 103 77
f 251 77 253
f 251 253 170
f 254 172 134
f 254 134 133
f 254 133 208
f 254 208 75
f 255 173 164
f 255 164 165
f 256 106 109
f 256 109 177
f 256 177 178
f 257 180 109
f 257 109 108
f 258 25 183
f 258 183 20
f 258 20 25
f 259 186 5
f 260 64 189
f 260 189 79
f 261 123 194
f 262 194 195
f 262 195 34
f 262 34 78
f 262 78 70
f 262 70 194
f 263 55 37
f 263 31 55
f 264 37 6
f 264 265 263
f 264 263 37
f 266 124 267
f 266 267 265
f 268 267 124
f 268 124 27
f 269 267 268
f 269 268 27
f 270 271 207
f 270 207 204
f 270 204 272
f 273 272 198
f 273 198 122
f 273 122 121
f 274 204 203
f 274 203 29
f 274 29 198
f 274 198 272
f 274 272 204
f 275 128 129
f 275 129 199
f 275 199 36
f 275 36 128
f 276 267 269
f 276 269 277
f 276 277 278
f 276 263 265
f 276 265 267
f 279 169 136
f 279 136 200
f 279 101 57
f 279 57 246
f 279 246 102
f 279 102 169
f 280 206 281
f 280 32 278
f 280 278 277
f 280 277 269
f 282 32 280
f 282 280 281
f 282 76 138
f 282 138 32
f 283 201 76
f 283 76 282
f 283 282 281
f 283 281 206
f 283 284 201
f 285 101 279
f 285 279 200
f 285 200 201
f 285 201 284
f 285 284 132
f 285 132 101
f 286 284 207
f 286 207 271
f 286 271 132
f 286 132 284
f 287 216 288
f 289 86 153
f 290 289 153
f 291 144 146
f 291 2 144
f 292 63 213
f 292 213 150
f 292 150 83
f 292 83 63
f 293 230 217
f 293 217 215
f 294 84 143
f 295 11 223
f 295 223 147
f 295 147 86
f 296 297 298
f 296 298 152
f 296 152 213
f 296 213 212
f 296 212 211
f 296 211 297
f 299 226 225
f 299 229 226
f 300 43 88
f 300 41 43
f 301 217 229
f 301 229 299
f 302 227 226
f 303 304 157
f 305 237 158
f 306 158 236
f 306 24 235
f 306 235 158
f 307 24 236
f 307 236 25
f 307 25 24
f 308 238 94
f 308 94 92
f 308 92 93
f 309 94 238
f 309 238 15
f 309 15 160
f 309 160 94
f 310 159 238
f 310 238 308
f 310 308 93
f 310 93 159
f 311 58 241
f 311 241 163
f 311 163 50
f 311 50 58
f 312 96 242
f 313 242 164
f 313 164 52
f 314 243 96
f 315 166 243
f 315 243 17
f 315 17 166
f 316 16 130
f 316 130 199
f 316 199 129
f 316 129 167
f 316 167 244
f 316 244 97
f 316 97 16
f 317 245 166
f 318 168 245
f 318 245 97
f 318 97 168
f 319 170 247
f 319 247 19
f 320 135 170
f 320 170 253
f 320 253 77
f 320 77 135
f 321 105 250
f 321 179 108
f 321 108 105
f 322 62 61
f 322 321 250
f 322 250 4
f 322 112 62
f 323 178 254
f 323 254 75
f 323 75 103
f 323 103 178
f 324 172 254
f 324 254 178
f 324 178 174
f 324 174 173
f 324 173 172
f 325 255 165
f 326 252 256
f 326 256 178
f 326 178 103
f 326 103 252
f 327 107 106
f 327 106 256
f 327 256 252
f 327 252 107
f 328 179 111
f 328 111 59
f 328 59 181
f 328 181 180
f 328 180 257
f 328 257 108
f 328 108 179
f 329 186 259
f 330 156 233
f 331 330 233
f 331 233 157
f 332 64 260
f 332 260 79
f 332 79 64
f 333 261 188
f 334 273 121
f 334 121 118
f 334 118 123
f 335 190 188
f 335 188 261
f 335 261 194
f 335 194 69
f 335 69 190
f 336 264 6
f 336 6 196
f 336 196 124
f 336 124 266
f 336 266 265
f 336 265 264
f 337 203 206
f 337 206 280
f 337 280 269
f 337 269 27
f 337 27 203
f 338 339 340
f 341 342 272
f 341 272 273
f 343 131 132
f 343 132 271
f 344 259 5
f 345 342 346
f 345 343 271
f 345 271 270
f 347 32 31
f 347 31 263
f 347 263 276
f 347 276 278
f 347 278 32
f 348 284 283
f 348 283 206
f 348 206 207
f 348 207 284
f 349 218 216
f 349 216 287
f 349 145 84
f 349 84 294
f 349 294 143
f 349 143 218
f 350 11 295
f 350 295 86
f 350 86 289
f 350 209 11
f 351 298 146
f 351 146 145
f 352 298 351
f 352 290 153
f 352 153 152
f 352 152 298
f 353 2 291
f 353 291 297
f 353 297 211
f 354 297 291
f 354 291 146
f 354 146 298
f 354 298 297
f 355 81 210
f 355 210 300
f 355 300 88
f 355 88 81
f 356 217 301
f 356 216 217
f 357 1 186
f 357 186 358
f 359 304 303
f 359 302 226
f 359 226 230
f 360 303 157
f 360 157 234
f 361 302 359
f 361 359 303
f 361 303 360
f 361 360 234
f 361 234 237
f 361 237 302
f 362 357 358
f 363 232 227
f 363 237 305
f 363 305 155
f 363 155 232
f 364 155 305
f 364 305 235
f 364 235 155
f 365 235 305
f 365 305 158
f 365 158 235
f 366 24 306
f 366 306 236
f 366 236 24
f 367 52 312
f 367 312 242
f 367 242 52
f 368 96 312
f 368 312 52
f 368 52 51
f 368 51 96
f 369 242 313
f 369 313 52
f 369 52 242
f 370 243 314
f 371 17 314
f 371 314 96
f 371 96 17
f 372 245 317
f 372 97 245
f 373 317 166
f 373 166 97
f 374 248 107
f 374 104 248
f 375 112 322
f 375 322 4
f 375 4 112
f 376 179 321
f 376 321 322
f 376 322 61
f 376 61 179
f 377 255 325
f 377 173 255
f 378 325 165
f 378 165 173
f 379 329 259
f 379 340 339
f 380 381 333
f 382 383 381
f 382 381 380
f 382 380 384
f 382 385 339
f 382 339 383
f 386 331 157
f 386 157 387
f 388 330 331
f 388 331 386
f 388 386 384
f 388 384 380
f 388 380 330
f 389 333 381
f 389 381 338
f 390 333 389
f 390 342 341
f 390 341 273
f 390 261 333
f 391 261 390
f 391 390 273
f 391 273 334
f 391 334 123
f 391 123 261
f 392 383 339
f 392 339 338
f 392 338 381
f 392 381 383
f 393 344 5
f 394 342 345
f 394 345 270
f 394 270 272
f 394 272 342
f 395 290 396
f 395 350 289
f 395 289 290
f 397 210 209
f 398 2 353
f 398 353 211
f 398 211 2
f 399 301 299
f 399 299 225
f 400 401 300
f 400 300 210
f 402 231 41
f 402 41 300
f 402 300 401
f 402 225 231
f 403 385 382
f 403 382 384
f 403 384 387
f 404 387 358
f 404 358 186
f 405 358 387
f 405 387 157
f 405 362 358
f 406 293 215
f 406 215 407
f 406 304 359
f 406 359 230
f 406 230 293
f 408 1 357
f 409 214 1
f 409 1 408
f 409 407 215
f 409 215 214
f 410 237 363
f 410 227 302
f 410 302 237
f 411 243 370
f 411 370 17
f 411 17 243
f 412 370 314
f 412 314 17
f 413 97 372
f 413 372 317
f 413 317 97
f 414 317 373
f 414 373 97
f 414 97 317
f 415 19 104
f 415 104 374
f 415 374 319
f 416 252 251
f 416 319 374
f 416 374 107
f 416 107 252
f 417 173 377
f 417 377 325
f 417 325 173
f 418 325 378
f 418 378 173
f 418 173 325
f 419 340 379
f 419 379 259
f 420 330 380
f 420 380 333
f 420 333 188
f 420 188 65
f 420 65 156
f 420 156 330
f 421 384 386
f 421 386 387
f 421 387 384
f 422 423 346
f 422 346 342
f 422 342 390
f 422 390 389
f 422 389 338
f 422 338 423
f 424 131 343
f 424 343 393
f 424 393 5
f 424 5 131
f 425 345 346
f 425 346 426
f 425 393 343
f 425 343 345
f 427 396 290
f 427 290 428
f 429 145 349
f 429 349 287
f 429 287 288
f 429 288 428
f 429 428 351
f 429 351 145
f 430 351 428
f 430 428 290
f 430 290 352
f 430 352 351
f 431 395 396
f 431 396 397
f 431 397 209
f 431 209 350
f 431 350 395
f 432 356 301
f 432 301 399
f 433 399 225
f 433 225 402
f 433 402 401
f 434 288 432
f 434 432 399
f 434 396 427
f 434 427 428
f 434 428 288
f 435 397 396
f 435 399 433
f 435 433 401
f 435 401 400
f 435 400 210
f 435 210 397
f 436 403 387
f 436 387 404
f 436 404 186
f 437 304 405
f 437 405 157
f 437 157 304
f 438 362 405
f 438 405 304
f 438 304 406
f 438 406 407
f 438 407 409
f 438 409 362
f 439 362 409
f 439 409 408
f 439 408 357
f 439 357 362
f 440 227 410
f 440 410 363
f 440 363 227
f 441 370 412
f 441 412 17
f 441 17 370
f 442 19 415
f 442 415 319
f 442 319 19
f 443 319 416
f 443 416 251
f 443 251 170
f 443 170 319
f 444 419 259
f 444 259 344
f 445 423 338
f 445 338 340
f 445 340 419
f 445 426 346
f 445 346 423
f 446 356 432
f 446 432 288
f 446 288 216
f 446 216 356
f 447 434 399
f 447 399 435
f 447 435 396
f 447 396 434
f 448 385 403
f 448 403 436
f 448 329 379
f 448 379 339
f 448 339 385
f 449 448 436
f 449 436 186
f 449 186 329
f 450 419 444
f 450 344 393
f 450 393 425
f 450 425 426
f 450 426 445
f 450 445 419
f 451 448 449
f 451 449 329
f 451 329 448
f 452 344 450
f 452 450 444
f 452 444 344
