# Normalized convex hull collision mesh - generated by scripts/generate-collision-meshes.mjs (units: meters)
v -0.003000 -0.000000 0.007500
v -0.003000 0.100000 -0.000000
v -0.003000 -0.100000 0.000000
v 0.003000 0.100000 -0.000000
v 0.003000 -0.000000 0.007500
v 0.003000 0.000000 -0.007500
v 0.003000 -0.100000 0.000000
v -0.003000 0.000000 -0.007500
v -0.003000 -0.070711 0.005303
v -0.003000 0.070711 0.005303
v 0.003000 -0.042262 0.006797
v 0.003000 -0.090631 0.003170
v -0.003000 0.090631 0.003170
v 0.003000 0.042262 0.006797
v -0.003000 0.090631 -0.003170
v 0.003000 0.070711 -0.005303
v -0.003000 -0.090631 -0.003170
v 0.003000 -0.070711 -0.005303
v -0.003000 -0.042262 0.006797
v 0.003000 -0.070711 0.005303
v -0.003000 -0.090631 0.003170
v -0.003000 0.098481 0.001302
v 0.003000 0.081915 0.004302
v -0.003000 0.042262 0.006797
v -0.003000 0.098481 -0.001302
v -0.000429 0.064279 -0.005745
v 0.002571 0.070711 -0.005303
v -0.003000 0.057358 -0.006144
v 0.003000 0.042262 -0.006797
v 0.003000 0.081915 -0.004302
v -0.003000 -0.098481 -0.001302
v -0.003000 -0.008716 -0.007471
v -0.003000 -0.057358 -0.006144
v 0.003000 -0.042262 -0.006797
v 0.003000 -0.090631 -0.003170
v 0.003000 -0.017365 0.007386
v -0.003000 -0.017365 0.007386
v 0.002571 -0.025882 0.007244
v 0.002571 -0.017365 0.007386
v 0.002571 -0.099619 0.000654
v 0.003000 -0.098481 0.001302
v 0.002571 -0.098481 0.001302
v 0.003000 -0.081915 0.004302
v -0.003000 -0.098481 0.001302
v 0.002571 -0.096593 0.001941
v -0.003000 0.099619 0.000654
v 0.003000 0.017365 0.007386
v 0.003000 0.096593 0.001941
v -0.003000 0.081915 0.004302
v 0.003000 0.064279 0.005745
v -0.003000 0.017365 0.007386
v 0.002571 0.025882 0.007244
v 0.002571 0.017365 0.007386
v -0.003000 0.099619 -0.000654
v -0.003000 0.076604 -0.004821
v -0.000429 0.008716 -0.007471
v -0.003000 0.025882 -0.007244
v 0.003000 0.017365 -0.007386
v -0.000429 0.017365 -0.007386
v 0.003000 0.057358 -0.006144
v -0.000429 0.050000 -0.006495
v -0.000429 0.042262 -0.006797
v 0.003000 0.096593 -0.001941
v -0.003000 -0.099619 -0.000654
v -0.000429 -0.017365 -0.007386
v 0.002571 -0.017365 -0.007386
v 0.002571 -0.008716 -0.007471
v -0.003000 -0.076604 -0.004821
v 0.002571 -0.070711 -0.005303
v -0.003000 -0.064279 -0.005745
v 0.002571 -0.025882 -0.007244
v 0.003000 -0.017365 -0.007386
v 0.003000 -0.057358 -0.006144
v 0.003000 -0.098481 -0.001302
v -0.003000 -0.096593 -0.001941
v 0.003000 -0.008716 0.007471
v -0.003000 -0.008716 0.007471
v -0.001380 -0.013026 0.007436
v 0.003000 -0.025882 0.007244
v 0.002571 -0.034202 0.007048
v -0.003000 -0.025882 0.007244
v 0.003000 -0.050000 0.006495
v -0.003000 -0.057358 0.006144
v -0.000429 -0.057358 0.006144
v 0.003000 -0.064279 0.005745
v 0.003000 -0.099619 0.000654
v 0.002571 -0.086603 0.003750
v -0.003000 -0.076604 0.004821
v -0.003000 -0.099619 0.000654
v 0.003000 -0.093969 0.002565
v -0.003000 -0.096593 0.001941
v -0.002046 0.099142 0.000980
v -0.002227 0.099883 0.000362
v 0.003000 0.008716 0.007471
v -0.003000 0.096593 0.001941
v 0.003000 0.090631 0.003170
v -0.000429 0.076604 0.004821
v -0.003000 0.086603 0.003750
v -0.003000 0.057358 0.006144
v -0.003000 0.008716 0.007471
v 0.003000 0.034202 0.007048
v -0.003000 0.025882 0.007244
v -0.002225 0.099871 -0.000380
v -0.003000 0.070711 -0.005303
v -0.003000 0.081915 -0.004302
v 0.003000 0.076604 -0.004821
v -0.003000 0.017365 -0.007386
v -0.003000 0.042262 -0.006797
v -0.000429 0.034202 -0.007048
v 0.003000 0.008716 -0.007471
v 0.003000 0.064279 -0.005745
v 0.003000 0.050000 -0.006495
v -0.003000 0.096593 -0.001941
v 0.003000 0.090631 -0.003170
v -0.003000 -0.034202 -0.007048
v 0.002571 -0.042262 -0.006797
v 0.003000 -0.081915 -0.004302
v -0.003000 -0.070711 -0.005303
v 0.003000 -0.008716 -0.007471
v 0.003000 -0.025882 -0.007244
v 0.003000 -0.064279 -0.005745
v 0.003000 -0.050000 -0.006495
v 0.003000 -0.099619 -0.000654
v 0.003000 -0.093969 -0.002565
v -0.001204 -0.005072 0.007490
v -0.001306 -0.010791 0.007456
v 0.003000 -0.034202 0.007048
v -0.003000 -0.034202 0.007048
v -0.003000 -0.050000 0.006495
v -0.003000 -0.064279 0.005745
v 0.003000 -0.057358 0.006144
v 0.003000 -0.086603 0.003750
v 0.003000 -0.076604 0.004821
v -0.003000 -0.081915 0.004302
v 0.003000 -0.096593 0.001941
v -0.003000 -0.093969 0.002565
v 0.003000 0.099619 0.000654
v -0.003000 0.093969 0.002565
v -0.003000 0.076604 0.004821
v 0.003000 0.070711 0.005303
v 0.003000 0.086603 0.003750
v -0.003000 0.064279 0.005745
v 0.003000 0.050000 0.006495
v -0.002225 0.005072 0.007490
v -0.001750 0.016627 0.007396
v -0.001648 0.016534 0.007397
v -0.002048 0.013026 0.007436
v 0.003000 0.025882 0.007244
v -0.003000 0.034202 0.007048
v -0.002247 0.099987 -0.000120
v 0.003000 0.099619 -0.000654
v -0.001280 0.099524 -0.000730
v -0.002048 0.099148 -0.000977
v -0.003000 0.064279 -0.005745
v -0.003000 0.086603 -0.003750
v -0.003000 0.008716 -0.007471
v -0.003000 0.050000 -0.006495
v 0.003000 0.025882 -0.007244
v -0.003000 0.034202 -0.007048
v -0.003000 0.093969 -0.002565
v -0.003000 -0.025882 -0.007244
v -0.003000 -0.050000 -0.006495
v 0.003000 -0.076604 -0.004821
v -0.003000 -0.081915 -0.004302
v -0.003000 -0.086603 -0.003750
v 0.003000 -0.034202 -0.007048
v -0.003000 -0.093969 -0.002565
v 0.003000 -0.096593 -0.001941
v -0.001246 -0.008070 0.007476
v 0.002571 -0.008716 0.007471
v -0.002238 -0.003552 0.007495
v -0.002072 -0.012394 0.007442
v -0.001987 -0.014339 0.007422
v -0.003000 -0.086603 0.003750
v 0.003000 0.098481 0.001302
v -0.002202 0.099761 0.000518
v -0.002247 0.099987 0.000120
v -0.001186 0.099961 0.000207
v -0.001209 0.099848 0.000413
v 0.003000 0.093969 0.002565
v 0.003000 0.076604 0.004821
v -0.003000 0.050000 0.006495
v 0.003000 0.057358 0.006144
v -0.002244 0.002530 0.007498
v -0.002122 0.010791 0.007456
v -0.001191 0.099936 -0.000266
v -0.001224 0.099776 -0.000502
v 0.003000 0.098481 -0.001302
v -0.002122 0.099416 -0.000809
v 0.003000 0.086603 -0.003750
v 0.003000 0.034202 -0.007048
v 0.003000 0.093969 -0.002565
v -0.003000 -0.017365 -0.007386
v -0.003000 -0.042262 -0.006797
v 0.003000 -0.086603 -0.003750
v -0.002205 -0.006696 0.007483
v -0.001185 -0.002530 0.007498
v -0.002149 -0.009737 0.007464
v -0.001476 -0.014930 0.007416
v -0.001781 -0.016534 0.007397
v -0.001574 -0.016085 0.007402
v -0.001401 0.099081 0.001014
v -0.001499 0.098828 0.001145
v -0.001316 0.099377 0.000836
v -0.002160 0.099570 0.000694
v -0.002107 0.099357 0.000849
v -0.001253 0.099639 0.000637
v -0.001191 0.003552 0.007495
v -0.001224 0.006696 0.007483
v -0.002183 0.008070 0.007476
v 0.002571 0.008716 0.007471
v -0.001280 0.009737 0.007464
v -0.001356 0.012394 0.007442
v -0.001441 0.014339 0.007422
v -0.001537 0.015729 0.007407
v -0.002183 0.099674 -0.000605
v -0.001952 0.098879 -0.001120
v -0.001356 0.099229 -0.000930
v -0.001891 -0.015729 0.007407
v -0.001678 -0.016627 0.007396
v -0.001975 0.098935 0.001092
v -0.001854 0.016085 0.007402
v -0.001854 0.098698 -0.001206
v -0.001441 0.098966 -0.001075
v -0.001813 0.098650 0.001228
v -0.001763 0.098614 0.001245
v -0.001600 0.098667 0.001221
v -0.001896 0.098764 0.001176
v -0.001952 0.014930 0.007416
v -0.001648 0.098624 -0.001240
v -0.001537 0.098755 -0.001180
v -0.001714 0.098601 0.001250
v -0.001750 0.098608 -0.001247
f 1 2 3
f 4 5 6
f 7 6 5
f 8 3 2
f 9 1 3
f 10 2 1
f 11 7 5
f 12 7 11
f 13 2 10
f 14 5 4
f 15 8 2
f 16 4 6
f 17 3 8
f 18 6 7
f 19 1 9
f 20 12 11
f 21 9 3
f 22 2 13
f 23 14 4
f 24 10 1
f 25 15 2
f 26 27 16
f 28 8 15
f 29 16 6
f 30 4 16
f 31 3 17
f 32 8 6
f 32 17 8
f 33 17 32
f 34 6 18
f 35 18 7
f 36 11 5
f 37 1 19
f 38 39 37
f 38 36 39
f 40 3 7
f 41 42 40
f 41 7 12
f 43 12 20
f 44 21 3
f 44 40 42
f 45 44 42
f 45 42 41
f 46 2 22
f 47 5 14
f 48 23 4
f 49 13 10
f 50 14 23
f 51 24 1
f 52 51 53
f 52 53 47
f 54 25 2
f 55 28 15
f 55 16 27
f 56 6 8
f 57 8 28
f 58 59 57
f 58 29 6
f 58 56 59
f 60 16 29
f 60 28 26
f 61 28 60
f 61 29 62
f 63 4 30
f 64 3 31
f 64 7 3
f 65 32 66
f 67 66 32
f 67 32 6
f 68 17 33
f 68 69 18
f 70 68 33
f 70 18 69
f 71 65 66
f 72 6 34
f 72 71 66
f 72 66 67
f 73 34 18
f 73 70 33
f 74 35 7
f 74 64 31
f 75 74 31
f 75 31 17
f 76 36 5
f 77 1 37
f 78 36 76
f 79 36 38
f 79 11 36
f 80 79 38
f 80 19 11
f 81 80 38
f 81 38 37
f 81 37 19
f 82 20 11
f 82 11 19
f 83 84 82
f 83 19 9
f 85 20 82
f 85 84 83
f 85 9 20
f 86 7 41
f 86 41 40
f 86 40 7
f 87 21 12
f 88 9 21
f 88 20 9
f 89 40 44
f 89 44 3
f 89 3 40
f 90 41 12
f 90 12 21
f 91 44 45
f 91 45 90
f 91 21 44
f 92 46 22
f 93 2 46
f 94 5 47
f 95 48 22
f 95 22 13
f 96 23 48
f 97 23 49
f 98 13 49
f 98 49 23
f 98 96 13
f 99 10 24
f 100 51 1
f 101 47 14
f 101 14 24
f 102 51 52
f 102 52 101
f 102 24 51
f 103 54 2
f 104 28 55
f 104 55 27
f 104 27 26
f 105 30 55
f 105 55 15
f 106 16 55
f 106 55 30
f 106 30 16
f 107 8 57
f 107 57 59
f 107 59 56
f 108 57 28
f 108 61 62
f 109 108 62
f 109 62 29
f 110 56 58
f 110 58 6
f 110 6 56
f 111 16 60
f 111 60 26
f 111 26 16
f 112 29 61
f 112 61 60
f 112 60 29
f 113 25 63
f 113 15 25
f 114 63 30
f 115 33 32
f 115 34 116
f 117 18 35
f 118 68 70
f 118 70 69
f 118 69 68
f 119 6 72
f 119 72 67
f 119 67 6
f 120 71 72
f 120 72 34
f 120 115 71
f 121 70 73
f 121 73 18
f 121 18 70
f 122 34 73
f 122 73 33
f 122 116 34
f 123 64 74
f 123 74 7
f 123 7 64
f 124 35 74
f 124 17 35
f 125 76 5
f 126 78 76
f 127 79 80
f 127 80 11
f 127 11 79
f 128 80 81
f 128 81 19
f 128 19 80
f 129 19 83
f 129 83 82
f 129 82 19
f 130 9 85
f 130 85 83
f 130 83 9
f 131 84 85
f 131 85 82
f 131 82 84
f 132 43 87
f 132 87 12
f 132 12 43
f 133 20 88
f 133 88 43
f 133 43 20
f 134 87 43
f 134 43 88
f 134 88 21
f 135 41 90
f 135 90 45
f 135 45 41
f 136 21 91
f 136 91 90
f 136 90 21
f 137 48 4
f 138 48 95
f 138 95 13
f 138 13 96
f 139 10 97
f 139 97 49
f 139 49 10
f 140 50 23
f 140 97 10
f 140 10 50
f 141 96 98
f 141 98 23
f 141 23 96
f 142 10 99
f 142 99 50
f 142 50 10
f 143 14 50
f 143 24 14
f 144 100 1
f 145 146 47
f 145 47 53
f 145 53 51
f 147 51 100
f 148 47 101
f 148 101 52
f 148 52 47
f 149 24 102
f 149 102 101
f 149 101 24
f 150 103 2
f 150 2 4
f 151 4 63
f 151 152 54
f 153 25 54
f 154 28 104
f 154 104 26
f 154 26 28
f 155 30 105
f 155 105 15
f 155 15 114
f 156 8 107
f 156 107 56
f 156 56 8
f 157 61 108
f 157 108 28
f 157 28 61
f 158 58 57
f 158 57 109
f 158 29 58
f 159 108 109
f 159 109 57
f 159 57 108
f 160 15 113
f 160 113 63
f 160 114 15
f 161 65 71
f 161 71 115
f 161 115 32
f 162 33 115
f 162 116 122
f 162 122 33
f 163 18 117
f 163 117 68
f 163 68 18
f 164 68 117
f 164 17 68
f 165 17 164
f 165 164 117
f 165 35 17
f 166 115 120
f 166 120 34
f 166 34 115
f 167 17 124
f 167 124 75
f 167 75 17
f 168 75 124
f 168 124 74
f 168 74 75
f 169 170 76
f 169 77 170
f 171 1 77
f 172 78 126
f 172 77 37
f 172 37 173
f 172 173 78
f 174 87 134
f 174 134 21
f 174 21 87
f 175 22 48
f 175 48 137
f 176 93 46
f 177 93 178
f 177 178 4
f 177 4 2
f 177 2 93
f 179 137 4
f 179 4 178
f 179 178 93
f 179 93 176
f 179 176 137
f 180 48 138
f 180 138 96
f 180 96 48
f 181 97 140
f 181 140 23
f 181 23 97
f 182 24 143
f 182 143 99
f 182 99 24
f 183 99 143
f 183 143 50
f 183 50 99
f 184 144 1
f 184 1 5
f 185 147 100
f 186 103 150
f 186 150 4
f 186 4 151
f 187 103 186
f 187 186 151
f 188 151 63
f 188 63 25
f 189 152 151
f 189 153 54
f 189 54 152
f 190 30 155
f 190 155 114
f 190 114 30
f 191 29 158
f 191 158 109
f 191 109 29
f 192 114 160
f 192 160 63
f 192 63 114
f 193 65 161
f 193 161 32
f 193 32 65
f 194 116 162
f 194 162 115
f 194 115 116
f 195 35 165
f 195 165 117
f 195 117 35
f 196 125 171
f 196 171 77
f 196 77 169
f 196 169 76
f 196 76 125
f 197 5 1
f 197 1 171
f 197 171 125
f 197 125 5
f 198 77 172
f 198 172 126
f 198 126 76
f 198 76 170
f 198 170 77
f 199 36 78
f 199 78 173
f 200 36 201
f 202 203 175
f 202 175 137
f 202 137 204
f 202 204 92
f 205 204 137
f 205 137 46
f 206 92 204
f 206 204 205
f 206 205 46
f 206 46 92
f 207 137 176
f 207 176 46
f 207 46 137
f 208 144 184
f 208 184 5
f 208 5 94
f 208 94 209
f 208 209 144
f 210 144 209
f 210 209 94
f 210 94 211
f 210 211 100
f 210 100 144
f 212 94 185
f 212 185 100
f 212 100 211
f 212 211 94
f 213 147 185
f 213 185 94
f 213 94 47
f 213 47 214
f 213 214 147
f 215 214 47
f 216 54 103
f 216 103 187
f 216 187 151
f 216 151 54
f 217 25 153
f 218 153 189
f 218 189 151
f 218 151 188
f 219 201 36
f 219 36 199
f 219 199 173
f 219 173 37
f 219 37 200
f 219 200 201
f 220 39 36
f 220 36 200
f 220 200 37
f 220 37 39
f 221 203 202
f 221 202 92
f 221 92 22
f 222 215 47
f 222 47 146
f 222 146 145
f 222 145 51
f 223 25 217
f 224 217 153
f 224 153 218
f 224 218 188
f 225 22 226
f 225 226 175
f 225 175 227
f 228 203 221
f 228 221 22
f 228 22 225
f 228 225 227
f 228 227 175
f 228 175 203
f 229 147 214
f 229 214 215
f 229 215 222
f 229 222 51
f 229 51 147
f 230 223 188
f 231 188 223
f 231 223 217
f 231 217 224
f 231 224 188
f 232 175 226
f 232 226 22
f 232 22 175
f 233 223 230
f 233 230 188
f 233 188 25
f 233 25 223
